<svg id="Layer_1" viewBox="0 0 24 24" xmlns="http://www.w3.org/2000/svg" data-name="Layer 1"><path d="m22 7.729h-20c-.265 0-.52.105-.707.293s-.293.441-.293.707v6.552c.042 4.736 3.445 6.856 11.035 6.873h.093c4.666 0 7.618-.78 9.285-2.455 1.08-1.085 1.6-2.528 1.588-4.427v-6.543c0-.553-.447-1-1-1z" opacity=".5"/><path d="m11.965 1.847h-.093c-4.665 0-7.617.78-9.284 2.454-1.081 1.085-1.6 2.528-1.588 4.413.03 4.753 3.434 6.881 11.035 6.897h.093c4.666 0 7.618-.78 9.285-2.455 1.08-1.085 1.6-2.528 1.588-4.412-.03-4.753-3.434-6.881-11.035-6.897z"/></svg>