<svg id="Layer_1" viewBox="0 0 24 24" xmlns="http://www.w3.org/2000/svg" data-name="Layer 1"><path d="m21.727 17.654c-.037 0-.075-.002-.113-.006-.549-.062-.943-.558-.881-1.106.178-1.57.268-3.151.268-4.699 0-3.359-.427-6.085-.632-7.2-.895-.278-2.851-.798-5.004-.798s-4.109.519-5.003.797c-.205 1.122-.633 3.865-.633 7.201 0 1.544.09 3.125.267 4.7.062.549-.334 1.043-.883 1.105-.555.067-1.043-.333-1.105-.882-.185-1.648-.278-3.305-.278-4.923 0-4.595.756-8.036.788-8.181.072-.328.306-.597.619-.717.118-.045 2.927-1.101 6.229-1.101s6.111 1.056 6.229 1.101c.312.12.545.388.618.714.032.143.788 3.549.788 8.183 0 1.623-.095 3.28-.281 4.924-.058.51-.49.887-.992.887z" opacity=".5"/><path d="m5.528 12.986c-3.047 0-4.528 1.5-4.528 4.585s1.481 4.585 4.528 4.585 4.527-1.5 4.527-4.585-1.48-4.585-4.527-4.585z"/><path d="m18.251 12.986c-3.047 0-4.528 1.5-4.528 4.585s1.481 4.585 4.528 4.585 4.527-1.5 4.527-4.585-1.48-4.585-4.527-4.585z"/></svg>