<svg id="Layer_1" viewBox="0 0 24 24" xmlns="http://www.w3.org/2000/svg" data-name="Layer 1"><path d="m20.271 8.65c-1.245 0-2.728.515-2.728 2.965s1.483 2.966 2.728 2.966 2.729-.515 2.729-2.966-1.484-2.965-2.729-2.965z"/><path d="m3.729 8.65c-1.245 0-2.729.515-2.729 2.965s1.484 2.966 2.729 2.966 2.728-.515 2.728-2.966-1.483-2.965-2.728-2.965z"/><path d="m15.24 3.75c-1.245 0-2.728.515-2.728 2.966s1.483 2.965 2.728 2.965 2.729-.515 2.729-2.965-1.484-2.966-2.729-2.966z"/><path d="m8.76 3.75c-1.245 0-2.729.515-2.729 2.966s1.484 2.965 2.729 2.965 2.728-.515 2.728-2.965-1.483-2.966-2.728-2.966z"/><path d="m12 10.232c-3.506 0-5.862 2.777-5.862 6.91 0 1.389.354 2.297 1.084 2.777 1.077.709 2.43.125 3.516-.344.431-.187 1.022-.441 1.262-.441s.831.255 1.262.441c.722.312 1.562.674 2.359.674.403 0 .795-.093 1.157-.33.729-.479 1.084-1.388 1.084-2.777 0-4.133-2.356-6.91-5.862-6.91z" opacity=".5"/></svg>