<svg id="Layer_1" viewBox="0 0 24 24" xmlns="http://www.w3.org/2000/svg" data-name="Layer 1"><path d="m21.505 23h-19.01c-.553 0-1-.448-1-1s.447-1 1-1h19.01c.553 0 1 .448 1 1s-.447 1-1 1z"/><path d="m16.694 12.25h-9.388c-.553 0-1-.448-1-1s.447-1 1-1h9.389c.553 0 1 .448 1 1s-.447 1-1 1z"/><path d="m21.156 21.065c-1.428-.536-2.893-2.373-3.822-4.792-.686-1.787-.942-3.408-.739-4.687.044-.282-.035-.568-.217-.788 1.219-1.224 1.355-2.97 1.35-4.178-.014-3.767-1.892-5.605-5.741-5.619-2-.026-3.405.453-4.359 1.409-1.224 1.224-1.359 2.974-1.354 4.183.007 1.915.496 3.331 1.481 4.263-.151.211-.213.473-.173.731.203 1.279-.053 2.9-.739 4.687-.929 2.42-2.395 4.256-3.822 4.792-.456.171-.723.64-.636 1.115.088.475 9.255.268 9.255.268s10.066.207 10.154-.268-.179-.944-.636-1.115z" opacity=".5"/></svg>