<svg id="Layer_1" viewBox="0 0 24 24" xmlns="http://www.w3.org/2000/svg" data-name="Layer 1"><path d="m22 21.161c-.894 0-1.767-.288-2.5-.811-1.465 1.043-3.529 1.047-4.997.002-1.464 1.052-3.539 1.054-5.003.002-1.463 1.051-3.537 1.051-5 0-.732.525-1.593.807-2.5.807-.552 0-1-.447-1-1s.448-1 1-1c.662 0 1.286-.288 1.756-.812.19-.211.46-.332.744-.332.284 0 .555.121.744.332.939 1.047 2.572 1.047 3.512 0 .379-.422 1.109-.422 1.488 0 .939 1.047 2.572 1.047 3.512 0 .379-.422 1.109-.422 1.488 0 .939 1.047 2.572 1.047 3.512 0 .379-.422 1.109-.422 1.488 0 .47.523 1.093.812 1.756.812.553 0 1 .447 1 1s-.447 1-1 1z" opacity=".5"/><path d="m22 16.102c-.894 0-1.767-.288-2.5-.811-1.466 1.045-3.531 1.044-4.997.003-1.461 1.05-3.539 1.052-5.003.002-1.462 1.049-3.538 1.049-5 0-.731.524-1.593.806-2.5.806-.552 0-1-.447-1-1s.448-1 1-1c.663 0 1.287-.288 1.755-.812.19-.211.46-.332.745-.332.284 0 .555.121.745.333.938 1.045 2.573 1.045 3.511 0 .379-.424 1.11-.424 1.489 0 .938 1.045 2.575 1.045 3.51 0 .381-.424 1.109-.424 1.49 0 .936 1.045 2.574 1.045 3.51 0 .381-.424 1.109-.424 1.49 0 .468.522 1.092.811 1.755.811.553 0 1 .447 1 1s-.447 1-1 1z" opacity=".5"/><path d="m22 11.042c-.894 0-1.767-.288-2.5-.811-1.466 1.044-3.531 1.045-4.997.003-1.461 1.05-3.539 1.052-5.003.002-1.462 1.049-3.538 1.049-5 0-.731.524-1.593.806-2.5.806-.552 0-1-.447-1-1s.448-1 1-1c.663 0 1.287-.288 1.755-.812.19-.211.46-.332.745-.332.284 0 .555.121.745.333.938 1.045 2.573 1.045 3.511 0 .379-.424 1.11-.424 1.489 0 .938 1.045 2.575 1.045 3.51 0 .381-.424 1.109-.424 1.49 0 .936 1.045 2.574 1.045 3.51 0 .381-.424 1.109-.424 1.49 0 .468.522 1.092.811 1.755.811.553 0 1 .447 1 1s-.447 1-1 1z" opacity=".5"/><path d="m22 5.982c-.894 0-1.767-.288-2.5-.811-1.466 1.044-3.531 1.045-4.997.003-1.461 1.051-3.539 1.052-5.003.002-1.462 1.049-3.538 1.049-5 0-.731.524-1.593.806-2.5.806-.552 0-1-.447-1-1s.448-1 1-1c.663 0 1.287-.288 1.755-.812.19-.211.46-.332.745-.332.284 0 .555.121.745.333.938 1.045 2.573 1.045 3.511 0 .379-.424 1.11-.424 1.489 0 .938 1.045 2.575 1.045 3.51 0 .381-.424 1.109-.424 1.49 0 .936 1.045 2.574 1.045 3.51 0 .381-.424 1.109-.424 1.49 0 .468.522 1.092.811 1.755.811.553 0 1 .447 1 1s-.447 1-1 1z" opacity=".5"/></svg>