<svg id="Layer_1" viewBox="0 0 24 24" xmlns="http://www.w3.org/2000/svg" data-name="Layer 1"><path d="m12.004 22.986c-1.544 0-3.095-.257-4.606-.764-2.639-.884-4.743-2.986-5.63-5.623-1.025-3.053-1.024-6.149 0-9.202.886-2.636 2.99-4.738 5.63-5.623 3.024-1.013 6.189-1.013 9.212 0 2.637.884 4.741 2.985 5.628 5.621.916 2.729 1.007 5.515.27 8.279-.359.423-1.191.421-1.191.421s-.771-.543-.703-1.085c.592-2.331.501-4.678-.271-6.979-.688-2.045-2.321-3.675-4.368-4.361-2.613-.876-5.328-.875-7.941 0-2.049.687-3.682 2.318-4.368 4.363-.884 2.631-.885 5.298 0 7.929.688 2.046 2.32 3.677 4.368 4.363 2.615.876 5.328.876 7.941 0 .523-.173 1.09.107 1.266.63.176.524-.106 1.09-.631 1.266-1.511.506-3.06.763-4.604.763z" opacity=".5"/><path d="m22.051 14.556c-.477-.28-1.089-.124-1.37.352-.278.472-.792.765-1.341.765-.826 0-1.498-.648-1.547-1.46.427-1.746.35-3.507-.235-5.247-.396-1.18-1.339-2.121-2.519-2.516-2.016-.675-4.057-.676-6.07 0-1.181.396-2.123 1.336-2.52 2.516-.676 2.012-.676 4.052 0 6.064.396 1.18 1.339 2.121 2.519 2.516 1.008.337 2.021.506 3.036.506s2.027-.169 3.034-.506c.639-.214 1.198-.597 1.648-1.083.652.736 1.595 1.209 2.653 1.209 1.252 0 2.426-.669 3.063-1.748.28-.476.123-1.089-.353-1.37zm-7.648 1.094c-1.614.543-3.185.542-4.799 0-.59-.198-1.061-.667-1.258-1.256-.541-1.612-.541-3.179 0-4.791.197-.589.668-1.059 1.259-1.256 1.614-.542 3.185-.541 4.799 0 .59.198 1.061.667 1.258 1.257.542 1.611.542 3.179 0 4.791-.197.589-.668 1.059-1.259 1.256z"/></svg>