<svg id="Layer_1" viewBox="0 0 24 24" xmlns="http://www.w3.org/2000/svg" data-name="Layer 1"><path d="m22.21 19.59c-.29 1.15-1.22 2.03-2.36 2.24-2.53.46-5.19.7-7.85.7s-5.32-.24-7.85-.7c-1.14-.21-2.07-1.09-2.36-2.24-.86-3.43-1.02-7.54-.49-11.23l10.7-2.528 10.7 2.528c.53 3.69.37 7.8-.49 11.23z" opacity=".5"/><circle cx="7.688" cy="13.004" r="1"/><circle cx="12" cy="13.004" r="1"/><circle cx="16.305" cy="13.004" r="1"/><circle cx="7.688" cy="16.719" r="1"/><circle cx="12" cy="16.719" r="1"/><circle cx="16.305" cy="16.719" r="1"/><path d="m22.21 5.82c-.29-1.15-1.21-2.04-2.36-2.24-.33-.061-.667-.106-1.001-.159v-.947c0-.552-.448-1-1-1s-1 .448-1 1v.68c-3.195-.348-6.502-.348-9.697 0v-.68c0-.552-.448-1-1-1s-1 .448-1 1v.947c-.334.053-.671.099-1.001.159-1.14.2-2.07 1.09-2.36 2.24-.2.81-.37 1.67-.49 2.54h21.399c-.12-.87-.29-1.73-.49-2.54z"/></svg>