<svg id="Layer_1" viewBox="0 0 24 24" xmlns="http://www.w3.org/2000/svg" data-name="Layer 1"><path d="m22.972 18.717c-2.414-9.855-10.054-15.593-10.377-15.832-.354-.261-.836-.261-1.189 0-.323.239-7.963 5.978-10.377 15.832-.128.525.185 1.058.706 1.202 1.633.451 3.288.792 4.956 1.023.357-.194.893-.849 1.171-.817.391.046.546.673.838 1.042 1.098.094 2.2.141 3.301.141s2.205-.047 3.304-.142c.247-.367.438-.941.747-.975.362-.04.827.441 1.267.749 1.665-.231 3.318-.572 4.948-1.022.521-.144.834-.676.706-1.202z" opacity=".5"/><path d="m16.925 19.537c-1.007-4.105-4.195-6.5-4.33-6.601-.354-.261-.836-.261-1.189 0-.135.1-3.323 2.496-4.318 6.56-.15.516-.282 1.001-.397 1.446.668.093 1.338.168 2.009.226.095-.362.202-.748.32-1.154.588-2.399 2.126-4.135 2.981-4.95.856.817 2.396 2.56 2.99 4.981l.314 1.122c.672-.058 1.344-.133 2.013-.226z"/></svg>