<svg id="Layer_1" viewBox="0 0 24 24" xmlns="http://www.w3.org/2000/svg" data-name="Layer 1"><path d="m22.371 3.915c-.063-.323-.28-.594-.582-.725-.096-.042-2.394-1.03-5.094-1.03-1.432 0-2.736.479-3.695.968-.308.404-.736.687-1 .859-.264-.173-.716-.502-1-.859-.959-.489-2.262-.968-3.695-.968-2.7 0-4.998.988-5.094 1.03-.302.131-.519.402-.582.725-.026.132-.629 3.277-.629 7.476 0 2.388.195 4.427.359 5.717.181 1.42 1.237 2.59 2.629 2.912l7.011 1.617.75-.296c.074.017.131.006.206.006s.144.017.218 0l.825.289 7.012-1.618c1.392-.321 2.448-1.491 2.629-2.911.164-1.29.359-3.329.359-5.717 0-4.199-.603-7.344-.629-7.476z" opacity=".5"/><path d="m13 3.128c-.398.203-.736.407-1 .579-.264-.172-.602-.377-1-.579v18.508l.775.179c.074.017.149.025.225.025.075 0 .15-.008.225-.025l.775-.179z"/></svg>