<svg id="Layer_1" viewBox="0 0 24 24" xmlns="http://www.w3.org/2000/svg" data-name="Layer 1"><path d="m22.946 1.993c-.043-.482-.426-.864-.908-.907-4.65-.415-9.125 1.544-11.963 5.222l-6.206 7.83c-.165.208-.24.473-.209.736.03.264.165.504.373.669.502.397 2.338.874 2.748 1.282.465.464 1.245 2.595 1.677 3.129.198.245.487.372.778.372.217 0 .435-.07.618-.214l7.843-6.18c3.701-2.839 5.663-7.302 5.25-11.939z" opacity=".5"/><path d="m9.641 22.486c-.465 0-.881-.326-.979-.799-.657-3.202-3.157-5.695-6.37-6.354-.541-.111-.89-.639-.779-1.18.11-.541.634-.895 1.18-.779 3.998.818 7.109 3.923 7.927 7.91.111.541-.237 1.07-.778 1.181-.068.014-.136.021-.202.021z"/><path d="m4.074 20.902c-.257 0-.513-.098-.708-.294-.39-.391-.389-1.024.003-1.414l2.642-2.631c.391-.389 1.025-.388 1.414.003.39.391.389 1.024-.003 1.414l-2.642 2.631c-.195.194-.45.292-.706.292z" opacity=".5"/><path d="m5.358 22.969c-.255 0-.511-.097-.706-.292l-3.358-3.348c-.391-.39-.392-1.023-.002-1.414.389-.391 1.022-.393 1.414-.002l3.358 3.348c.391.39.392 1.023.002 1.414-.195.196-.452.294-.708.294z"/></svg>