<svg id="Layer_1" viewBox="0 0 24 24" xmlns="http://www.w3.org/2000/svg" data-name="Layer 1"><path d="m11.625 16.394c-.137 0-.275-.028-.408-.087-2.632-1.177-3.951-3.749-4.005-3.857-.143-.283-.143-.617 0-.899.055-.109 1.373-2.679 4.005-3.856.504-.224 1.095.001 1.321.505.225.504 0 1.096-.505 1.321-1.395.624-2.333 1.825-2.764 2.48.431.654 1.369 1.857 2.764 2.481.504.226.73.817.505 1.321-.167.372-.531.592-.914.592z"/><path d="m15.894 15.844c-.137 0-.275-.028-.408-.087-2.575-1.152-3.893-3.125-3.948-3.208-.219-.333-.219-.766 0-1.099.055-.083 1.373-2.055 3.948-3.207.502-.225 1.095 0 1.321.505.225.504 0 1.096-.505 1.321-1.264.565-2.154 1.389-2.646 1.931.491.541 1.381 1.365 2.646 1.931.504.226.73.817.505 1.321-.167.372-.531.592-.914.592z" opacity=".5"/></svg>