<svg id="Layer_1" viewBox="0 0 24 24" xmlns="http://www.w3.org/2000/svg" data-name="Layer 1"><path d="m20.912 1.791c-.17-.231-.431-.377-.717-.403-.029-.003-1.968-.175-4.393-.289-.306.351-.718.684-1.089.671-.301-.011-.627-.419-.911-.745-.601-.016-1.208-.025-1.803-.025s-1.201.009-1.803.025c-.329.376-.657.904-1 .917-.325.012-.675-.429-1-.843-2.423.114-4.364.286-4.393.289-.288.026-.55.174-.72.408-.046.062-1.116 1.556-1.116 3.542 0 2.002 1.074 3.484 1.119 3.546.186.252.477.402.789.407 0 0 .169.002.393.007-.1 1.094-.15 2.184-.15 3.25 0 2.276.229 4.233.42 5.474.075.488.495.848.988.848h.002l12.946-.021c.492 0 .911-.361.986-.848.191-1.242.419-3.196.419-5.453 0-1.07-.05-2.159-.148-3.25.222-.005.39-.007.392-.007.313-.005.606-.158.791-.412.046-.062 1.116-1.556 1.116-3.542 0-2.002-1.074-3.484-1.119-3.546z" opacity=".5"/><path d="m20.693 17.801c-.149-.227-.385-.383-.651-.434-5.262-.986-10.822-.986-16.084 0-.269.05-.505.208-.654.438-.048.074-1.182 1.845-1.182 4.195 0 .552.447 1 1 1h17.756c.553 0 1-.448 1-1 0-2.37-1.137-4.125-1.185-4.199z"/><path d="m14.119 13.375c-1.394.322-2.844.322-4.239 0v-2.731c0-1.162.949-2.104 2.119-2.104 1.17 0 2.119.942 2.119 2.104v2.731z"/><path d="m9.197 6.549c.553 0 1-.448 1-1v-4.524c-.683.018-1.358.044-2 .074v4.45c0 .552.447 1 1 1z"/><path d="m13.803 1.025v4.524c0 .552.447 1 1 1s1-.448 1-1v-4.45c-.641-.03-1.317-.056-2-.074z"/></svg>