<svg id="Layer_1" viewBox="0 0 24 24" xmlns="http://www.w3.org/2000/svg" data-name="Layer 1"><path d="m19.941 2.726c.211-.51-.031-1.094-.542-1.306-.509-.21-1.095.031-1.306.542-.015.034-1.45 3.454-4.471 7.102-.543.656-1.09 1.261-1.623 1.815-.533-.553-1.08-1.159-1.623-1.815-3.02-3.648-4.455-7.068-4.47-7.102-.211-.511-.803-.749-1.306-.542-.511.211-.753.795-.542 1.306.062.15 1.555 3.719 4.777 7.613.582.703 1.166 1.35 1.734 1.939-1.757 1.622-3.094 2.52-3.115 2.534-.459.306-.325.667-.02 1.127.193.29.252.706.575.706.189 0 .382-.054.552-.167.091-.06 1.544-1.033 3.439-2.795 1.895 1.762 3.349 2.735 3.439 2.795.17.113.362.167.552.167.323 0 .464-.334.658-.623.305-.46.356-.904-.103-1.21-.021-.014-1.358-.911-3.115-2.534.568-.589 1.152-1.237 1.734-1.939 3.223-3.894 4.716-7.463 4.777-7.613z" opacity=".5"/><path d="m5.426 22.656c-2.979 0-4.426-1.429-4.426-4.367 0-2.898 1.489-4.368 4.426-4.368 2.979 0 4.426 1.429 4.426 4.368 0 2.898-1.489 4.367-4.426 4.367zm0-6.735c-1.859 0-2.426.553-2.426 2.368 0 2.013.782 2.367 2.426 2.367 1.859 0 2.426-.553 2.426-2.367 0-2.013-.782-2.368-2.426-2.368z"/><path d="m18.574 22.656c-2.937 0-4.426-1.469-4.426-4.367 0-2.939 1.447-4.368 4.426-4.368 2.937 0 4.426 1.47 4.426 4.368 0 2.938-1.447 4.367-4.426 4.367zm0-6.735c-1.644 0-2.426.354-2.426 2.368 0 1.814.566 2.367 2.426 2.367 1.644 0 2.426-.354 2.426-2.367 0-1.814-.566-2.368-2.426-2.368z"/></svg>