<svg id="Layer_1" viewBox="0 0 24 24" xmlns="http://www.w3.org/2000/svg" data-name="Layer 1"><path d="m20.686 7.515c-.251-1.139-1.149-2.033-2.288-2.279-4.243-.917-8.549-.917-12.795 0-1.14.246-2.038 1.141-2.288 2.28-.927 4.21-.927 8.304 0 12.515.25 1.139 1.148 2.034 2.288 2.28 2.123.458 4.26.688 6.397.688s4.275-.229 6.397-.688c1.139-.246 2.037-1.141 2.288-2.28.927-4.21.927-8.304 0-12.515z" opacity=".5"/><path d="m15.707 10.389c-.013 0-.025 0-.038 0-.552-.021-.982-.484-.962-1.037.039-1.076-.035-3.467-.21-5.312-.044-.461-.411-.845-.873-.912-1.184-.172-2.064-.172-3.248 0-.462.067-.829.451-.873.912-.175 1.844-.25 4.235-.21 5.311.02.552-.411 1.016-.962 1.037-.566.018-1.016-.411-1.037-.962-.042-1.135.03-3.589.218-5.574.132-1.391 1.192-2.502 2.577-2.703 1.375-.199 2.447-.199 3.822 0 1.385.201 2.444 1.312 2.576 2.702.188 1.985.26 4.439.218 5.575-.02.539-.463.963-.998.963z"/></svg>