<svg id="Layer_1" viewBox="0 0 24 24" xmlns="http://www.w3.org/2000/svg" data-name="Layer 1"><path d="m11.146 23.014c-.552 0-1-.448-1-1v-1.294c0-.552.448-1 1-1s1 .448 1 1v1.294c0 .552-.448 1-1 1z"/><path d="m14.754 23.014c-.552 0-1-.448-1-1v-1.294c0-.552.448-1 1-1s1 .448 1 1v1.294c0 .552-.448 1-1 1z"/><path d="m18.363 23.014c-.552 0-1-.448-1-1v-1.294c0-.552.448-1 1-1s1 .448 1 1v1.294c0 .552-.448 1-1 1z"/><path d="m20.336 13.99c-.171-2.898-2.585-5.205-5.528-5.205-3.053 0-5.537 2.482-5.537 5.534 0 .117.004.234.011.351-1.547.535-2.646 2.004-2.646 3.72 0 2.17 1.767 3.935 3.938 3.935h8.09c2.392 0 4.338-1.945 4.338-4.335 0-1.768-1.081-3.337-2.664-4z" opacity=".5"/><path d="m10.25 1.986v1.58c-.34-.05-.67-.07-1-.07-.35 0-.68.02-1 .05v-1.56c0-.55.45-1 1-1s1 .45 1 1z"/><path d="m3.55 10.316h-1.55c-.55 0-1-.45-1-1 0-.56.45-1 1-1h1.54c-.04.32-.05.65-.05 1 0 .36.02.69.06 1z"/><path d="m15.09 4.836-.87.88c-.25-.54-.79-1.01-1.47-1.36l.92-.93c.39-.39 1.02-.39 1.41 0 .4.38.4 1.02.01 1.41z"/><path d="m5.701 14.311-.871.885c-.19.2-.45.3-.71.3-.25 0-.5-.1-.7-.29-.39-.39-.4-1.03-.01-1.42l.99-1c.34.55.635.875 1.075 1.315.116.116.19.179.226.211z"/><path d="m5.71 4.316c-.59.35-1.05.83-1.41 1.42l-.89-.9c-.39-.39-.38-1.03.01-1.41.39-.39 1.03-.39 1.41 0z"/><path d="m6.072 14.553c.365-.429.773-.822 1.252-1.135.44-3.673 3.538-6.528 7.308-6.617-.102-.315-.187-.63-.345-.943-.019-.049-.04-.097-.063-.145.103-.394.031-1.094-.252-1.338-.237-.204-.711-.146-1.22-.024-.727-.39-1.617-.662-2.502-.782-.33-.338-.688-.775-1.014-.775-.346 0-.69.393-.986.751-1.01.098-1.856.352-2.542.767-.524-.126-1.063-.12-1.298.116-.235.237-.383.828-.113 1.305-.414.695-.668 1.555-.765 2.581-.425.202-1.035.483-1.035.831 0 .36.421.911 1.047 1.17.123 1.04.437 1.821.853 2.471-.157.393-.089.873.142 1.135.182.207.742.463 1.161.389.123.096.247.159.371.242z" opacity=".5"/></svg>