<svg id="Layer_1" viewBox="0 0 24 24" xmlns="http://www.w3.org/2000/svg" data-name="Layer 1"><path d="m12 6.493c-.552 0-1-.447-1-1v-2.472c0-.553.448-1 1-1s1 .447 1 1v2.472c0 .553-.448 1-1 1z" opacity=".5"/><path d="m6.229 12.551h-2.759c-.552 0-1-.447-1-1s.448-1 1-1h2.758c.552 0 1 .447 1 1s-.448 1-1 1z" opacity=".5"/><path d="m20.53 12.551h-2.758c-.552 0-1-.447-1-1s.448-1 1-1h2.758c.552 0 1 .447 1 1s-.448 1-1 1z" opacity=".5"/><path d="m16.516 8.035c-.256 0-.512-.098-.707-.293-.391-.391-.391-1.023 0-1.414l1.516-1.516c.391-.391 1.023-.391 1.414 0s.391 1.023 0 1.414l-1.516 1.516c-.195.195-.451.293-.707.293z" opacity=".5"/><path d="m7.545 8.096c-.256 0-.512-.098-.707-.293l-1.576-1.576c-.391-.391-.391-1.023 0-1.414s1.023-.391 1.414 0l1.576 1.576c.391.391.391 1.023 0 1.414-.195.195-.451.293-.707.293z" opacity=".5"/><path d="m22 21.979c-.907 0-1.769-.281-2.5-.806-1.462 1.049-3.538 1.049-5 0-1.462 1.049-3.538 1.049-5 0-1.462 1.049-3.538 1.049-5 0-.731.524-1.593.806-2.5.806-.552 0-1-.447-1-1s.448-1 1-1c.663 0 1.287-.288 1.755-.812.19-.211.46-.332.745-.332.284 0 .555.121.745.333.938 1.045 2.573 1.045 3.511 0 .379-.424 1.11-.424 1.489 0 .938 1.045 2.573 1.045 3.511 0 .379-.424 1.11-.424 1.489 0 .938 1.045 2.573 1.045 3.511 0 .379-.424 1.109-.423 1.489 0 .469.523 1.092.812 1.755.812.552 0 1 .447 1 1s-.448 1-1 1z"/><path d="m22 17.551c-.907 0-1.768-.281-2.5-.807-1.463 1.051-3.537 1.051-5 0-1.463 1.051-3.537 1.051-5 0-1.463 1.051-3.537 1.051-5 0-.732.525-1.593.807-2.5.807-.552 0-1-.447-1-1s.448-1 1-1c.662 0 1.286-.288 1.756-.812.19-.211.46-.332.744-.332.284 0 .555.121.744.332.939 1.047 2.572 1.047 3.512 0 .379-.422 1.109-.422 1.488 0 .939 1.047 2.572 1.047 3.512 0 .379-.422 1.109-.422 1.488 0 .939 1.047 2.572 1.047 3.512 0 .379-.421 1.108-.425 1.488 0 .47.523 1.094.812 1.756.812.552 0 1 .447 1 1s-.448 1-1 1z"/><path d="m12 4.779c-2.907 0-6.771.702-6.771 6.771 0 .553.448 1 1 1h11.543c.552 0 1-.447 1-1 0-6.069-3.865-6.771-6.771-6.771z"/></svg>