<svg id="Layer_1" viewBox="0 0 24 24" xmlns="http://www.w3.org/2000/svg" data-name="Layer 1"><path d="m22 21.941c-.894 0-1.767-.288-2.5-.81-1.467 1.044-3.533 1.044-5 0-1.467 1.044-3.533 1.044-5 0-1.467 1.044-3.533 1.044-5 0-.733.522-1.606.81-2.5.81-.553 0-1-.448-1-1s.447-1 1-1c.663 0 1.286-.288 1.756-.811.379-.423 1.109-.423 1.488 0 .939 1.046 2.572 1.046 3.512 0 .379-.423 1.109-.423 1.488 0 .939 1.046 2.572 1.046 3.512 0 .379-.423 1.109-.423 1.488 0 .939 1.046 2.572 1.046 3.512 0 .379-.423 1.109-.423 1.488 0 .47.523 1.093.811 1.756.811.553 0 1 .448 1 1s-.447 1-1 1z"/><path d="m19.534 6.657c-.073-.149-.182-.278-.316-.375-.302-.216-.596-.424-.88-.624-.24-.733-.494-1.43-.828-1.658-.332-.227-.841.072-1.172.293-2.251-1.485-3.706-2.235-4.337-2.235-.88 0-3.309 1.421-7.219 4.225-.136.098-.246.229-.318.38-.039.082-.961 2.047-.961 6.01 0 1.451.119 2.926.354 4.383.078.484.496.841.987.841h4.786l2.371-2.069 2.371 2.069h4.784c.491 0 .909-.356.987-.841.236-1.462.355-2.937.355-4.383 0-3.999-.925-5.936-.964-6.016z" opacity=".5"/><path d="m12 11.154c-1.858 0-3.371 1.513-3.371 3.372v2.372c0 .552.447 1 1 1h4.742c.553 0 1-.448 1-1v-2.372c0-1.859-1.513-3.372-3.371-3.372z"/><path d="m18.336 5.661v-1.842c0-.552-.447-1-1-1s-1 .448-1 1v.476c.607.4 1.277.859 2 1.366z"/></svg>