<svg id="Layer_1" viewBox="0 0 24 24" xmlns="http://www.w3.org/2000/svg" data-name="Layer 1"><path d="m15.003 22.492c-.244 0-.487-.088-.68-.267-.403-.373-.429-1.002-.06-1.407.012-.013.18-.208.335-.526h-.942c-.271 0-.529-.109-.718-.304s-.29-.456-.282-.727c.002-.075.031-.753.315-1.482.316-.811.77-1.312.821-1.367.376-.404 1.01-.426 1.413-.052.405.376.428 1.009.052 1.413s-.17.194-.328.519h.942c.271 0 .529.109.718.304s.29.456.282.727c-.002.075-.031.753-.315 1.482-.316.811-.77 1.312-.82 1.367-.197.213-.465.32-.733.32z"/><path d="m19.976 14.588c-.181-2.735-2.464-4.905-5.244-4.905-2.898 0-5.256 2.357-5.256 5.255 0 .096.002.191.008.287-1.452.523-2.479 1.913-2.479 3.533 0 .779.237 1.527.687 2.163.188.266.492.423.817.423h12.466c.339 0 .655-.172.839-.456.459-.708.664-1.768.664-2.505 0-1.67-1.013-3.155-2.501-3.795z" opacity=".5"/><path d="m14.709 3.78c-.392-.388-1.025-.386-1.414.008l-.768.776c.56.326 1.04.795 1.357 1.471l.832-.841c.389-.393.385-1.025-.008-1.414z"/><path d="m9.033 3.849c.315 0 .653.008 1 .036v-1.473c0-.553-.448-1-1-1s-1 .447-1 1v1.485c.317-.032.65-.048 1-.048z"/><path d="m5.604 4.63-.833-.842c-.388-.393-1.021-.395-1.415-.008-.393.389-.396 1.021-.007 1.414l.845.853c.351-.594.82-1.066 1.41-1.418z"/><path d="m3.414 9.514c0-.35.016-.683.047-1h-1.46c-.552 0-1 .447-1 1s.448 1 1 1h1.459c-.03-.317-.046-.649-.046-1z"/><path d="m4.185 12.987-.836.844c-.389.393-.386 1.026.007 1.415.195.192.449.289.704.289.257 0 .515-.099.71-.296l.823-.831c-.59-.353-1.059-.824-1.409-1.421z"/><path d="m5.682 14.46c.04.024.351.201.857.389.297-.322.632-.611.998-.86.452-3.445 3.33-6.136 6.857-6.298-.086-.47-.224-.963-.432-1.476-.025-.061-.051-.121-.078-.18.266-.465.239-1.205.021-1.441-.237-.257-.744-.232-1.378-.03-.752-.437-1.649-.614-2.494-.68-.265-.232-.721-.869-1.036-.869-.35 0-.631.513-.964.881-.961.097-1.77.34-2.429.733-.399-.172-.987-.179-1.227.066-.227.231-.497.867-.183 1.352-.394.667-.638 1.489-.734 2.466-.441.333-.638.697-.638 1.047s.18.731.636.953c.094.985.335 1.807.726 2.474-.139.429-.292 1.083-.076 1.308.246.257 1.056.283 1.485.113.029.017.059.035.089.052z" opacity=".5"/></svg>