<svg id="Layer_1" viewBox="0 0 24 24" xmlns="http://www.w3.org/2000/svg" data-name="Layer 1"><path d="m20.62 11.922c-.408-.197-.668-.092-1.268.396-4.737-2.073-9.946-3.164-15.211-3.164-.298 0-.581.133-.771.363-2.936 3.556-2.936 9.564-.001 13.12.19.23.474.363.771.363h8.594c4.643 0 8.419-3.685 8.419-8.214v-.927l.008-.111c0-.384-.196-1.659-.541-1.826z" opacity=".5"/><path d="m14.546 16.267c-.042 0-.085-.003-.129-.008l-7.646-.983c-.548-.07-.935-.572-.864-1.12.071-.547.562-.923 1.12-.864l7.646.983c.548.071.935.572.864 1.12-.065.504-.495.872-.991.872z"/><path d="m11.004 19.445c-.042 0-.085-.003-.129-.008l-4.486-.577c-.548-.071-.935-.572-.864-1.12.071-.546.562-.923 1.12-.864l4.486.577c.548.071.935.572.864 1.12-.065.504-.495.872-.991.872z"/><path d="m21.963 1.01c-.549-.079-1.053.303-1.131.85l-1.481 10.46c.416.182.828.371 1.237.568.346.167.565.517.565.9v.072l1.659-11.718c.077-.547-.303-1.054-.85-1.131z"/></svg>