<svg id="Layer_1" viewBox="0 0 24 24" xmlns="http://www.w3.org/2000/svg" data-name="Layer 1"><path d="m12 16.697c-.553 0-1-.447-1-1v-2.572c0-.553.447-1 1-1s1 .447 1 1v2.572c0 .553-.447 1-1 1z" opacity=".5"/><path d="m5.968 23h-2.883c-.553 0-1-.447-1-1s.447-1 1-1h2.883c.553 0 1 .447 1 1s-.447 1-1 1z" opacity=".5"/><path d="m20.915 23h-2.883c-.553 0-1-.447-1-1s.447-1 1-1h2.883c.553 0 1 .447 1 1s-.447 1-1 1z" opacity=".5"/><path d="m16.72 18.302c-.257 0-.514-.099-.709-.294-.39-.392-.388-1.025.003-1.415l1.584-1.577c.392-.391 1.025-.387 1.415.003.39.392.388 1.025-.003 1.415l-1.584 1.577c-.195.194-.451.291-.706.291z" opacity=".5"/><path d="m7.344 18.364c-.255 0-.511-.097-.705-.291l-1.647-1.64c-.392-.39-.394-1.023-.004-1.414s1.024-.394 1.414-.004l1.647 1.64c.392.39.394 1.023.004 1.414-.195.196-.452.295-.709.295z" opacity=".5"/><path d="m12 10.061c-.153 0-.308-.035-.448-.106-.108-.054-2.669-1.361-3.841-3.971-.227-.504 0-1.096.502-1.322.507-.228 1.096 0 1.322.502.617 1.374 1.814 2.306 2.466 2.733.65-.427 1.845-1.354 2.464-2.733.226-.502.816-.728 1.322-.502.503.227.729.818.502 1.322-1.172 2.609-3.732 3.917-3.841 3.971-.141.071-.295.106-.448.106z"/><path d="m12 9.381c-.553 0-1-.447-1-1v-6.381c0-.553.447-1 1-1s1 .447 1 1v6.381c0 .553-.447 1-1 1z" opacity=".5"/><path d="m12 14.995c-3.019 0-7.032.727-7.032 7.005 0 .553.447 1 1 1h12.064c.553 0 1-.447 1-1 0-6.278-4.014-7.005-7.032-7.005z"/></svg>