<svg id="Layer_1" viewBox="0 0 24 24" xmlns="http://www.w3.org/2000/svg" data-name="Layer 1"><path d="m22.432 2.117c-.087-.29-.302-.528-.59-.643-.105-.042-1.063-.408-2.215-.408s-2.108.366-2.215.408c-.264.104-.471.316-.569.582-.039.105-.2.588-.271 1.542-.465.008-1.051.008-1.518 0-.07-.963-.233-1.443-.272-1.548-.1-.263-.306-.472-.567-.576-.104-.042-1.062-.408-2.215-.408s-2.11.367-2.215.408c-.262.104-.467.313-.567.576-.04.105-.202.584-.272 1.547-.467.008-1.053.008-1.519 0-.07-.953-.23-1.436-.27-1.542-.099-.266-.306-.478-.57-.583-.105-.042-1.065-.408-2.214-.408s-2.11.367-2.215.408c-.291.115-.507.358-.592.652-.37 1.057-.565 2.252-.565 3.455 0 1.727.291 3.313.303 3.379.088.474.501.817.983.817h.579c-.154 1.085-.335 2.867-.335 5.259 0 4.095.627 6.826.654 6.94.105.453.509.334.974.334h15.684c.465 0 .868.119.974-.334.026-.114.654-2.845.654-6.94 0-2.392-.181-4.173-.335-5.259h.579c.482 0 .896-.344.983-.817.012-.067.303-1.653.303-3.379 0-1.195-.193-2.383-.568-3.464z" opacity=".5"/><path d="m12 9.799c-1.787 0-3.24 1.446-3.24 3.224v2.888c0 .466.321.87.775.975.806.186 1.635.279 2.464.279s1.658-.093 2.464-.279c.454-.105.775-.509.775-.975v-2.888c0-1.778-1.453-3.224-3.239-3.224z"/><path d="m21.511 22.934h-19.022c-.552 0-1-.448-1-1s.448-1 1-1h19.022c.553 0 1 .448 1 1s-.447 1-1 1z"/></svg>