<svg id="Layer_1" viewBox="0 0 24 24" xmlns="http://www.w3.org/2000/svg" data-name="Layer 1"><path d="m22.273 10.385c-.453-1.351-1.44-2.467-2.703-3.095.325 2.321.101 4.651-.673 6.958-.73 2.173-2.462 3.904-4.632 4.633-1.619.543-3.268.818-4.901.818-.687 0-1.376-.027-2.067-.078.632 1.245 1.739 2.215 3.075 2.664 1.413.474 2.848.714 4.265.714 2.244 0 4.517-.295 6.756-.878.351-.091.625-.365.716-.716.583-2.24.878-4.513.878-6.756 0-1.417-.24-2.852-.714-4.264z"/><path d="m9.364 17.699c-2.244 0-4.517-.295-6.756-.878-.351-.091-.625-.365-.716-.716-.583-2.24-.878-4.513-.878-6.756 0-1.417.24-2.852.714-4.264.531-1.581 1.791-2.842 3.373-3.372 2.828-.95 5.697-.949 8.528 0 1.58.53 2.841 1.791 3.372 3.372.948 2.83.948 5.699 0 8.528-.531 1.582-1.792 2.842-3.372 3.373-1.413.474-2.848.714-4.265.714z" opacity=".5"/></svg>