<svg id="Layer_1" viewBox="0 0 24 24" xmlns="http://www.w3.org/2000/svg" data-name="Layer 1"><path d="m7.075 22.58c-.552 0-1-.448-1-1v-2.958c0-.552.448-1 1-1s1 .448 1 1v2.958c0 .552-.448 1-1 1z"/><path d="m10.358 20.58c-.552 0-1-.448-1-1v-2.958c0-.552.448-1 1-1s1 .448 1 1v2.958c0 .552-.448 1-1 1z"/><path d="m13.642 22.58c-.552 0-1-.448-1-1v-2.958c0-.552.448-1 1-1s1 .448 1 1v2.958c0 .552-.448 1-1 1z"/><path d="m16.925 20.58c-.552 0-1-.448-1-1v-2.958c0-.552.448-1 1-1s1 .448 1 1v2.958c0 .552-.448 1-1 1z"/><path d="m19.302 8.484c-.104-3.913-3.345-7.064-7.315-7.064-4.035 0-7.318 3.256-7.318 7.257 0 .252.013.504.04.754-2.15.599-3.708 2.558-3.708 4.863 0 1.39.558 2.686 1.57 3.647.489.465 1.141.719 1.84.719h.046l14.973-.007c.721-.012 1.537-.55 2.022-1.057.999-1.044 1.549-2.413 1.549-3.854 0-2.368-1.512-4.461-3.698-5.259z" opacity=".5"/></svg>