<svg id="Layer_1" viewBox="0 0 24 24" xmlns="http://www.w3.org/2000/svg" data-name="Layer 1"><path d="m15.859 8.374c-1.898 0-4.183.285-5.648 2.025-.948-.318-1.967-.394-2.884-.394-2.716 0-6.328.658-6.328 6.347s3.611 6.347 6.328 6.347c1.329 0 2.871-.158 4.101-.984 1.353.823 3.001.984 4.431.984 3.065 0 7.141-.743 7.141-7.163s-4.075-7.163-7.141-7.163zm-5.141 7.163c0-.88.083-1.616.241-2.23.455.659.696 1.631.696 3.046 0 .99-.118 1.763-.345 2.364-.386-.759-.592-1.789-.592-3.18zm-7.719.816c0-3.635 1.587-4.347 4.328-4.347.709 0 1.34.048 1.887.181-.315.895-.496 1.996-.496 3.35 0 2.161.462 3.679 1.191 4.742-.682.32-1.55.421-2.583.421-2.741 0-4.328-.711-4.328-4.347zm12.859 4.347c-1.197 0-2.222-.123-3.035-.507.515-.915.831-2.158.831-3.84 0-2.462-.677-3.981-1.664-4.913.891-.831 2.216-1.065 3.868-1.065 3.174 0 5.141.864 5.141 5.163s-1.967 5.163-5.141 5.163z"/><path d="m10.718 7.533c-.054-.078-1.343-1.908-3.391-1.908-2.059 0-3.339 1.833-3.393 1.911-.215.313-.234.722-.048 1.054l1.581 2.825c.177.316.51.289.873.289h1.976c.362 0 .696.027.873-.289l1.581-2.825c.187-.333.167-.743-.05-1.057z" opacity=".5"/><path d="m7.328 3.831c-.552 0-1-.448-1-1v-.53c0-.552.448-1 1-1s1 .448 1 1v.53c0 .552-.448 1-1 1z"/><path d="m2.983 5.637c-.257 0-.513-.098-.708-.294l-.374-.375c-.39-.391-.389-1.024.003-1.414.391-.389 1.025-.388 1.414.003l.374.375c.39.391.389 1.024-.003 1.414-.195.194-.45.292-.706.292z"/><path d="m11.672 5.637c-.255 0-.511-.097-.706-.292-.392-.39-.393-1.023-.003-1.414l.374-.375c.389-.392 1.023-.393 1.414-.003.392.39.393 1.023.003 1.414l-.374.375c-.195.196-.452.294-.708.294z"/></svg>