<svg id="Layer_1" viewBox="0 0 24 24" xmlns="http://www.w3.org/2000/svg" data-name="Layer 1"><path d="m15.863 14.77c-.196-.192-.412.011-.699.021l-3.088.056c-.619-3.067-.379-6.128-.374-6.158.04-.27.493-.427.326-.642s-.415-.353-.686-.381c-1.75-.182-4.292.012-4.439.023-3.972.47-5.903 2.921-5.903 7.495 0 6.799 4.328 7.585 7.583 7.585 3.192 0 7.45-.753 7.581-7.264.005-.276-.104-.542-.301-.735z" opacity=".5"/><path d="m22 20.769h-1.8l-.857-5.255c-.062-.382-.339-.693-.711-.8-.069-.02-1.721-.488-3.665-.488-.989 0-1.904.127-2.574.255-.082-.567-.174-1.309-.221-2.068.578-.124 1.479-.274 2.449-.274 1.643 0 3.084.429 3.099.433.53.16 1.087-.14 1.247-.667s-.138-1.085-.666-1.246c-.069-.021-1.729-.52-3.68-.52-.925 0-1.785.112-2.441.233.064-.856.188-1.618.276-2.083 1.838-.248 2.77-1.423 2.77-3.504 0-2.358-1.195-3.553-3.553-3.553s-3.553 1.195-3.553 3.553c0 1.902.779 3.048 2.318 3.42-.134.769-.299 1.971-.299 3.222 0 2.057.44 4.362.458 4.459.053.277.222.519.464.665.241.147.534.184.805.104.014-.004 1.461-.429 3.102-.429 1.003 0 1.932.15 2.509.269l.887 5.436c.079.483.497.839.987.839h2.65c.552 0 1-.448 1-1s-.448-1-1-1z"/></svg>