<svg id="Layer_1" viewBox="0 0 24 24" xmlns="http://www.w3.org/2000/svg" data-name="Layer 1"><path d="m19.414 7.764c-.113-3.789-3.265-6.836-7.122-6.836-3.93 0-7.126 3.162-7.126 7.047 0 .235.012.47.035.704-2.084.59-3.593 2.49-3.593 4.726 0 2.71 2.228 4.915 4.966 4.915h10.921c3.035 0 5.505-2.444 5.505-5.448 0-2.296-1.466-4.326-3.586-5.107z" opacity=".5"/><path d="m7.694 22.928c-.553 0-1-.448-1-1v-.705c0-.552.447-1 1-1s1 .448 1 1v.705c0 .552-.447 1-1 1z"/><path d="m12.305 22.928c-.553 0-1-.448-1-1v-.705c0-.552.447-1 1-1s1 .448 1 1v.705c0 .552-.447 1-1 1z"/><path d="m16.915 22.928c-.553 0-1-.448-1-1v-.705c0-.552.447-1 1-1s1 .448 1 1v.705c0 .552-.447 1-1 1z"/><path d="m9.999 16.118c-.553 0-1-.448-1-1v-.705c0-.552.447-1 1-1s1 .448 1 1v.705c0 .552-.447 1-1 1z"/><path d="m14.609 16.118c-.553 0-1-.448-1-1v-.705c0-.552.447-1 1-1s1 .448 1 1v.705c0 .552-.447 1-1 1z"/></svg>