<svg id="Layer_1" viewBox="0 0 24 24" xmlns="http://www.w3.org/2000/svg" data-name="Layer 1"><path d="m13.554 18.135c-.05-.07-1.117-1.56-2.854-3.404.18-.515.418-1.338.178-1.58-.244-.246-1.013-.034-1.587.161-1.836-1.757-3.297-2.817-3.366-2.867-.399-.288-.948-.242-1.295.106l-2.605 2.625c-1.195 1.207-1.271 3.101-.175 4.404.49.584.998 1.155 1.516 1.705-.049.416-.089.853.143 1.086.236.238.82.387 1.266.334.546.523 1.108 1.031 1.679 1.518.615.524 1.361.784 2.104.784.829 0 1.653-.323 2.287-.962l2.605-2.626c.343-.346.387-.888.104-1.284z" opacity=".5"/><path d="m22.15 6.42c-.49-.584-.997-1.155-1.516-1.705.031-.33-.19-.748-.421-.981-.236-.238-.478-.411-.988-.439-.546-.523-1.108-1.031-1.679-1.518-1.301-1.109-3.189-1.033-4.391.178l-2.605 2.626c-.343.346-.387.888-.104 1.284.05.07 1.117 1.56 2.854 3.404-.128.419-.228 1.148.012 1.39.244.246.832.154 1.397.029 1.836 1.757 3.297 2.817 3.366 2.867.176.127.381.189.584.189.259 0 .517-.101.71-.296l2.604-2.625c1.195-1.207 1.271-3.101.175-4.404z" opacity=".5"/><path d="m4.055 19.998c-.231-.233-.461-.472-.689-.714l-.232.234c-.389.393-.386 1.025.006 1.414.195.193.45.29.704.29.257 0 .515-.099.71-.296l.22-.222c-.243-.233-.484-.468-.72-.707z"/><path d="m19.945 4.002c.231.233.461.472.689.714l.232-.234c.389-.393.386-1.025-.006-1.414-.394-.39-1.025-.387-1.415.006l-.22.222c.243.233.484.468.72.707z"/><path d="m13.99 9.982c-.24-.242-.47-.48-.689-.713l-4.01 4.042c.234.224.475.46.719.707.24.242.47.48.689.713l4.01-4.042c-.234-.224-.475-.46-.719-.707z"/></svg>