<svg id="Layer_1" viewBox="0 0 24 24" xmlns="http://www.w3.org/2000/svg" data-name="Layer 1"><path d="m21.298 7.399c-.045-.224-.165-.482-.339-.628 0 0 .208-.74.243-.852-2.039-1.689-4.296-3.048-6.723-4.053-1.269.369-1.392-.162-2.029-.371l-.298-.054c-.205-.069-.302-.012-.508.054l-.929.732c-.655.215-.705.023-1.242-.342-2.418 1.006-4.661 2.359-6.69 4.041.049.184.106 1.29.061 1.514-.067.334-.429.461-.96.377-.347 2.151-.425 4.318-.235 6.476.582.867.696 1.793.889 2.754.045.224.141.335.315.481l.544.306c.461.385.667.787.719 1.278 2.097 1.524 4.403 2.726 6.866 3.58.137-.19.203-.415.345-.369l.328.05c.102.033.241.048.346.048.108 0 .239-.057.343-.092l.283-.062c.137-.045.149.224.378.43 2.474-.856 4.782-2.06 6.887-3.593-.258-.809 1.129-1.601 1.585-1.982 0 0-.061-.542-.016-.766.194-.968.064-1.867.893-2.086.187-2.159.105-4.328-.243-6.478-.62-.111-.746-.066-.812-.394z" opacity=".5"/><path d="m20.019 9.517 2.092-1.724c-.053-.325-.112-.65-.177-.975-.045-.224-.164-.425-.339-.571l-.306-.255c-.029-.024-.058-.048-.087-.072l-2.26 1.862c-.907-1.382-1.82-2.594-2.642-3.6l-1.815-2.312c-.616-.255-1.243-.488-1.881-.697l-.28-.095c-.204-.069-.426-.069-.632-.003l-.289.095c-.655.215-1.298.454-1.93.717l-1.831 2.317c-.948 1.154-1.828 2.361-2.632 3.604l-2.226-1.878c-.025.021-.051.042-.076.063l-.305.255c-.175.146-.294.347-.339.571-.067.333-.127.666-.181 1l2.059 1.737c-.894 1.556-1.665 3.15-2.295 4.745.085.966.224 1.929.416 2.889.045.224.164.425.339.571l.306.255c.458.383.927.748 1.407 1.097l2.336.25c1.504.17 3.016.271 4.529.301v3.032c.14.049.281.097.423.143l.289.095c.102.033.206.05.312.05.108 0 .217-.018.32-.053l.272-.092c.137-.045.274-.092.41-.139v-3.037c1.482-.033 2.96-.133 4.429-.299l2.457-.258c.477-.347.943-.71 1.398-1.091l.305-.255c.175-.146.294-.347.339-.571.194-.97.334-1.943.419-2.918-.679-1.71-1.486-3.304-2.334-4.754zm-10.802-4.044 2.771-3.506 2.732 3.48c.677.829 1.317 1.681 1.916 2.546-3.09-.539-6.224-.54-9.315-.004.594-.86 1.227-1.702 1.895-2.516zm.76 12.132c-1.104-.046-2.207-.132-3.306-.257l-3.819-.409c.599-1.889 1.429-3.801 2.448-5.67 1.208 2.264 2.725 4.337 4.525 6.18l.153.157zm2.701-1.547-.689.709-.716-.733c-1.72-1.763-3.161-3.752-4.298-5.93l.629-.111c2.897-.51 5.833-.51 8.729 0l.634.112c-1.129 2.183-2.569 4.181-4.289 5.953zm4.535 1.29c-1.067.121-2.138.206-3.211.253l.129-.132c1.805-1.861 3.324-3.95 4.528-6.23 1.054 1.901 1.899 3.824 2.495 5.696l-3.94.413z"/></svg>