<svg id="Layer_1" viewBox="0 0 24 24" xmlns="http://www.w3.org/2000/svg" data-name="Layer 1"><path d="m18.866 19.363c-.548 0-.995-.441-1-.991-.005-.552.438-1.004.99-1.009.476-.004.959-.233 1.361-.645.49-.5.79-1.211.782-1.855-.02-1.184-.98-2.16-2.144-2.171-.995-.008-1.927-.418-2.621-1.153-.719-.761-1.102-1.806-1.05-2.868.111-2.178 1.794-4.024 3.676-4.034h.005c.55 0 .997.444 1 .995.003.552-.442 1.002-.995 1.005-.812.004-1.632 1.041-1.688 2.133-.025.519.159 1.027.506 1.395.317.336.738.523 1.185.527 2.239.021 4.089 1.88 4.126 4.144.014 1.177-.492 2.402-1.354 3.282-.776.793-1.761 1.236-2.771 1.245h-.01z" opacity=".5"/><path d="m11.775 19.363c-.548 0-.995-.441-1-.991-.005-.552.438-1.004.991-1.009.475-.004.958-.233 1.361-.645.49-.5.79-1.211.782-1.855-.019-1.185-.98-2.16-2.144-2.171-.995-.008-1.926-.418-2.621-1.153-.719-.761-1.101-1.806-1.05-2.868.112-2.178 1.795-4.024 3.675-4.034h.005c.55 0 .997.444 1 .995.003.552-.442 1.002-.995 1.005-.812.004-1.632 1.042-1.688 2.134-.025.518.159 1.027.506 1.394.317.336.738.523 1.185.527 2.24.021 4.089 1.88 4.125 4.144.014 1.176-.492 2.402-1.354 3.282-.776.793-1.761 1.236-2.771 1.245h-.009z" opacity=".5"/><path d="m4.685 19.363c-.548 0-.995-.441-1-.991-.005-.552.438-1.004.991-1.009.475-.004.958-.233 1.36-.645.491-.5.791-1.211.783-1.855-.019-1.184-.98-2.16-2.144-2.171-.995-.008-1.926-.418-2.621-1.153-.719-.761-1.101-1.806-1.05-2.868.112-2.178 1.795-4.024 3.675-4.034h.005c.55 0 .997.444 1 .995.003.552-.442 1.002-.995 1.005-.812.004-1.632 1.042-1.688 2.134-.025.518.159 1.027.506 1.394.317.336.739.523 1.186.527 2.239.021 4.089 1.88 4.125 4.144.014 1.177-.492 2.402-1.354 3.282-.777.793-1.761 1.236-2.771 1.245h-.009z" opacity=".5"/></svg>