<svg id="Layer_1" viewBox="0 0 24 24" xmlns="http://www.w3.org/2000/svg" data-name="Layer 1"><path d="m21.554 11.327.774-.576-3.819-5.639c-.148-.218-.375-.369-.634-.42-.086-.017-1.18-.231-2.683-.434-.083.152-.18.176-.26.165-.069-.009-.207-.203-.277-.212-.745-.943-1.785-1.494-2.75-1.55-.522-.03-.851.394-1.362.394-.323 0-.862.404-1.109.855-3.053.122-6.16.754-6.304.783-.32.065-.587.283-.717.583-.05.114-1.21 2.845-1.21 6.471 0 3.658 1.162 6.362 1.211 6.476.131.301.401.518.723.581.04.008.301.059.739.131.186.834 1.635 2.369 2.853 2.5 1.085.117 2.269-.766 3.703-1.85.512.018 1.038.028 1.574.028.531 0 1.052-.01 1.56-.027.884.98 2.331 1.713 3.323 1.614 1.406-.14 2.644-1.179 3.235-2.262.445-.073.709-.125.75-.133.353-.069.641-.322.755-.663.038-.113.845-2.547 1.102-5.39-.531-.348-1.251-.6-1.238-.923.009-.213-.029-.236.059-.501z" opacity=".5"/><path d="m3.877 18.935c-.061.252-.093.51-.093.771 0 1.822 1.492 3.304 3.326 3.304s3.326-1.482 3.326-3.304c0-.041-.001-.081-.003-.122-2.915-.101-5.378-.454-6.556-.649z"/><path d="m10.191 10.751h-.669v-.654c0-.552-.448-1-1-1s-1 .448-1 1v.654h-.67c-.552 0-1 .448-1 1s.448 1 1 1h.67v.654c0 .552.448 1 1 1s1-.448 1-1v-.654h.669c.552 0 1-.448 1-1s-.448-1-1-1z"/><path d="m13.567 19.585c-.001.04-.002.081-.002.121 0 1.822 1.492 3.304 3.326 3.304s3.326-1.482 3.326-3.304c0-.263-.031-.52-.091-.77-1.185.196-3.651.548-6.559.648z"/><path d="m22.625 11.19-.298-.439h-6.359c-.428 0-.776-.341-.776-.759v-5.735c-.145-.02-.295-.039-.447-.058v-.561c0-1.46-1.188-2.647-2.664-2.647-1.46 0-2.647 1.188-2.647 2.647v.272c.328-.013.655-.02.978-.02.915 0 1.87.057 2.781.14v5.963c0 1.521 1.246 2.759 2.776 2.759h6.764c.029-.316.05-.636.063-.959.009-.213-.051-.424-.171-.601z"/></svg>