<svg id="Layer_1" viewBox="0 0 24 24" xmlns="http://www.w3.org/2000/svg" data-name="Layer 1"><path d="m12 16.697c-.552 0-1-.447-1-1v-2.572c0-.553.448-1 1-1s1 .447 1 1v2.572c0 .553-.448 1-1 1z" opacity=".5"/><path d="m5.968 23h-2.883c-.552 0-1-.447-1-1s.448-1 1-1h2.883c.552 0 1 .447 1 1s-.448 1-1 1z" opacity=".5"/><path d="m20.915 23h-2.883c-.553 0-1-.447-1-1s.447-1 1-1h2.883c.553 0 1 .447 1 1s-.447 1-1 1z" opacity=".5"/><path d="m16.72 18.302c-.257 0-.514-.099-.709-.294-.39-.392-.388-1.025.003-1.415l1.584-1.577c.392-.391 1.025-.387 1.415.003.39.392.388 1.025-.003 1.415l-1.584 1.577c-.195.194-.451.291-.706.291z" opacity=".5"/><path d="m7.343 18.364c-.255 0-.51-.097-.706-.291l-1.647-1.64c-.391-.39-.393-1.023-.003-1.414.391-.391 1.022-.395 1.415-.004l1.647 1.64c.391.39.393 1.023.003 1.414-.196.196-.452.295-.709.295z" opacity=".5"/><path d="m8.622 6.488c-.137 0-.276-.028-.409-.088-.504-.227-.729-.818-.502-1.322 1.173-2.61 3.733-3.918 3.842-3.972.282-.143.614-.143.896 0 .108.054 2.668 1.361 3.84 3.973.227.503 0 1.096-.503 1.321-.506.225-1.096 0-1.321-.503-.619-1.379-1.813-2.307-2.464-2.734-.651.427-1.846 1.354-2.466 2.735-.167.37-.531.59-.913.59z"/><path d="m12 10.061c-.552 0-1-.447-1-1v-6.381c0-.553.448-1 1-1s1 .447 1 1v6.381c0 .553-.448 1-1 1z" opacity=".5"/><path d="m12 14.995c-3.019 0-7.032.727-7.032 7.005 0 .553.448 1 1 1h12.064c.553 0 1-.447 1-1 0-6.278-4.014-7.005-7.032-7.005z"/></svg>