<svg id="Layer_1" viewBox="0 0 24 24" xmlns="http://www.w3.org/2000/svg" data-name="Layer 1"><path d="m11.36 1.006c-2.981.066-5.257.713-6.911 1.967-.183.462.465.904-.027 1.404-.235.235-.721-.197-1.389.01-1.252 1.647-1.875 3.902-1.936 6.977.283.307.767.721.768.926.002.461-.296.722-.732 1.074.128 2.207.595 4.443 1.949 6.205.421.112 1.013-.038 1.219.173.258.264.093.743.206 1.235 1.422 1.069 3.419 1.796 6.215 1.976.413-.255.46-.436.916-.435.031 0 .204.003.234.003.202 0 .465.276.85.473 2.941-.076 5.19-.722 6.83-1.964-.005-.557.067-.812.304-1.05.013-.013.12-.105.132-.117.22-.223.535-.162.98-.246 1.238-1.628 1.861-3.849 1.935-6.868-.603-.402-1.069-.502-1.07-.745 0-.128.008-.215.006-.344-.005-.299.396-.583 1.037-.912-.119-2.242-.579-4.524-1.955-6.315-.427-.027-1.091.204-1.318-.024-.243-.243-.106-.976-.104-1.383-1.409-1.061-3.382-1.786-6.137-1.975-.322.113-.671.834-1.006.826-.138-.003-.825-.873-.995-.869z" opacity=".5"/><path d="m16.159 9.228 4.76-4.797c-.394-.513-.864-.986-1.422-1.407l-4.732 4.769c-.902-1.336-1.345-3.165-1.405-5.564v-1.18c-.443-.03-1.454-.049-1.484-.049-.174 0-.346.003-.515.006v1.248c.056 2.256.401 4.909 1.975 6.98l-1.336 1.346-7.551-7.607c-.27.205-.524.425-.761.662-.235.235-.453.485-.655.751l7.557 7.614-1.335 1.345c-2.056-1.579-4.688-1.926-6.936-1.983h-1.222c-.004.198-.006.399-.005.604.002.461.014.927.041 1.396h1.161c2.389.061 4.207.51 5.534 1.422l-4.747 4.784c.394.513.864.987 1.422 1.407l4.747-4.784c.924 1.315 1.389 3.122 1.472 5.499v1.261c.419.027.857.047 1.312.049h.092c.202 0 .4-.003.595-.008v-1.337c-.11-3.167-.895-5.366-2.055-6.891l1.334-1.344 7.551 7.608c.271-.205.525-.426.763-.663.234-.234.452-.484.654-.749l-7.558-7.615 1.337-1.347c1.514 1.165 3.695 1.954 6.834 2.065l1.322.029c.006-.233-.005-1.57-.028-2.001l-1.237-.027c-2.371-.084-4.171-.556-5.478-1.491z"/></svg>