<svg id="Layer_1" viewBox="0 0 24 24" xmlns="http://www.w3.org/2000/svg" data-name="Layer 1"><path d="m12 18.596c-.103 0-.207-.016-.306-.048l-.593-.19c-.291-.094-2.912-.972-5.96-3.071-1.04-.716-2.011-1.435-2.887-2.138-.431-.346-.5-.975-.154-1.406.346-.43.977-.499 1.406-.154.838.672 1.77 1.362 2.769 2.05 2.862 1.971 5.335 2.781 5.439 2.814l.286.092.287-.092c.103-.033 2.576-.844 5.437-2.814.993-.683 1.925-1.373 2.77-2.051.433-.345 1.062-.276 1.406.155.346.431.276 1.06-.154 1.406-.884.708-1.854 1.428-2.888 2.138-3.046 2.098-5.668 2.977-5.958 3.07l-.594.191c-.099.032-.203.048-.306.048z"/><path d="m12 23c-.103 0-.207-.016-.306-.048l-.593-.19c-.291-.094-2.912-.972-5.96-3.071-1.04-.716-2.011-1.435-2.887-2.138-.431-.346-.5-.975-.154-1.406s.977-.5 1.406-.154c.838.672 1.77 1.362 2.769 2.05 2.862 1.971 5.335 2.781 5.439 2.814l.286.092.287-.092c.103-.033 2.576-.844 5.437-2.814.993-.683 1.925-1.373 2.77-2.051.433-.345 1.062-.275 1.406.155.346.431.276 1.06-.154 1.406-.884.708-1.854 1.428-2.888 2.138-3.046 2.098-5.668 2.977-5.958 3.07l-.594.191c-.099.032-.203.048-.306.048z"/><path d="m21.803 7c-.058-.054-1.431-1.331-4.043-3.131-2.881-1.983-5.351-2.788-5.454-2.821-.199-.063-.412-.063-.611 0-.104.033-2.574.838-5.454 2.821-2.613 1.8-3.986 3.078-4.043 3.131-.202.189-.316.453-.316.73s.115.541.316.73c.057.053 1.43 1.332 4.043 3.131 2.88 1.983 5.35 2.789 5.454 2.822.1.032.203.048.306.048s.206-.016.306-.048c.104-.033 2.573-.838 5.454-2.822 2.612-1.8 3.985-3.078 4.043-3.131.202-.189.316-.454.316-.73s-.114-.541-.316-.73z" opacity=".5"/></svg>