<svg id="Layer_1" viewBox="0 0 24 24" xmlns="http://www.w3.org/2000/svg" data-name="Layer 1"><path d="m23 8.988c0-2.282-1.844-4.14-4.111-4.14-2.155 0-3.957 1.694-4.102 3.856-.037.552.379 1.028.931 1.065.551.03 1.028-.38 1.064-.931.075-1.116 1-1.991 2.106-1.991 1.164 0 2.111.96 2.111 2.14s-.947 2.14-2.111 2.14h-12.271c-.552 0-1 .447-1 1s.448 1 1 1h8.959c1.164 0 2.111.96 2.111 2.14s-.947 2.141-2.111 2.141c-1.106 0-2.031-.875-2.106-1.991-.037-.551-.509-.954-1.064-.931-.551.037-.968.514-.931 1.065.146 2.162 1.947 3.856 4.102 3.856 2.267 0 4.111-1.857 4.111-4.141 0-.784-.218-1.519-.596-2.145 2.173-.107 3.909-1.921 3.909-4.135z" opacity=".5"/><path d="m9.865 9.485h-7.865c-.552 0-1-.447-1-1s.448-1 1-1h7.865c.747 0 1.355-.618 1.355-1.377s-.608-1.376-1.355-1.376c-.64 0-1.198.461-1.327 1.097-.11.541-.637.883-1.179.781-.542-.11-.891-.638-.781-1.18.317-1.563 1.7-2.698 3.287-2.698 1.85 0 3.355 1.515 3.355 3.376s-1.505 3.377-3.355 3.377z" opacity=".5"/><path d="m4.355 21.268c-1.85 0-3.355-1.515-3.355-3.376s1.505-3.377 3.355-3.377h3.699c.552 0 1 .447 1 1s-.448 1-1 1h-3.699c-.747 0-1.355.618-1.355 1.377s.608 1.376 1.355 1.376c.64 0 1.198-.461 1.327-1.096.109-.541.639-.893 1.178-.782.542.11.892.638.782 1.179-.316 1.564-1.699 2.699-3.287 2.699z" opacity=".5"/></svg>