<svg id="Layer_1" viewBox="0 0 24 24" xmlns="http://www.w3.org/2000/svg" data-name="Layer 1"><path d="m9.367 1.576c-.527-.166-1.089.12-1.259.646-.148.459-.363.695-.514.812-.16-.119-.373-.355-.521-.813-.169-.524-.733-.815-1.259-.644-.526.169-.814.732-.645 1.259.34 1.054.93 1.626 1.421 1.933v1.143c0 .553.448 1 1 1s1-.447 1-1v-1.144c.491-.307 1.081-.879 1.42-1.934.169-.525-.119-1.089-.645-1.259z" opacity=".5"/><path d="m6.122 14.786c-.102 0-.205-.016-.307-.048-.525-.17-.814-.733-.645-1.259.34-1.055.93-1.627 1.421-1.935v-1.144c0-.553.448-1 1-1s1 .447 1 1v1.788c0 .484-.347.898-.823.984-.009.005-.445.146-.694.919-.137.424-.529.693-.952.693z" opacity=".5"/><path d="m6.52 8.788c-.281-.477-.895-.634-1.37-.354l-.982.579c-.514-.269-1.306-.487-2.386-.244-.539.12-.878.655-.758 1.194.121.538.657.881 1.194.757.472-.104.784-.04.961.032-.021.198-.116.503-.436.864-.367.413-.329 1.045.084 1.411.19.169.427.252.663.252.276 0 .551-.113.749-.337.735-.829.929-1.627.943-2.206l.984-.581c.476-.28.634-.894.353-1.369z" opacity=".5"/><path d="m6.167 6.156-.984-.58c-.015-.579-.208-1.378-.943-2.207-.366-.413-.998-.449-1.412-.084-.413.367-.451.999-.084 1.412.321.361.416.667.439.857-.184.078-.495.141-.964.037-.537-.119-1.073.219-1.194.757-.121.539.219 1.074.758 1.194.329.074.631.104.906.104.63 0 1.121-.162 1.479-.348l.984.58c.16.094.334.139.507.139.342 0 .676-.176.862-.492.281-.476.122-1.089-.354-1.369z" opacity=".5"/><path d="m7.591 5.09c-1.695 0-3.073 1.376-3.073 3.067s1.378 3.067 3.073 3.067 3.073-1.376 3.073-3.067-1.378-3.067-3.073-3.067z"/><path d="m20.383 10.115c-.011-1.714-.039-4.502-.081-5.141-.14-2.17-1.987-3.87-4.204-3.87s-4.063 1.7-4.203 3.87c-.042.639-.07 3.459-.08 5.141-1.76 1.062-2.618 3.004-2.618 5.912 0 6.156 3.938 6.868 6.901 6.868s6.901-.712 6.901-6.868c0-2.91-.857-4.852-2.617-5.912z" opacity=".5"/><path d="m17.099 13.282v-3.057c0-.553-.448-1-1-1s-1 .447-1 1v3.057c-1.126.408-1.932 1.485-1.932 2.747 0 1.61 1.315 2.921 2.932 2.921s2.932-1.311 2.932-2.921c0-1.261-.806-2.338-1.932-2.747z"/></svg>