<svg id="Layer_1" viewBox="0 0 24 24" xmlns="http://www.w3.org/2000/svg" data-name="Layer 1"><path d="m15.525 21.562c-.244 0-.487-.088-.68-.267-.403-.373-.429-1.002-.06-1.407.012-.013.18-.208.335-.526h-.942c-.271 0-.529-.109-.718-.304s-.29-.456-.282-.727c.002-.075.031-.753.315-1.482.316-.811.77-1.312.821-1.367.376-.404 1.01-.426 1.413-.052.405.376.428 1.009.052 1.413s-.17.194-.328.519h.942c.271 0 .529.109.718.304s.29.456.282.727c-.002.075-.031.753-.315 1.482-.316.811-.77 1.312-.82 1.367-.197.213-.465.32-.733.32z"/><path d="m20.498 13.659c-.181-2.735-2.464-4.905-5.244-4.905-2.898 0-5.256 2.357-5.256 5.255 0 .096.002.191.008.287-1.452.523-2.479 1.913-2.479 3.533 0 .779.237 1.527.687 2.163.188.266.492.423.817.423h12.466c.339 0 .655-.172.839-.456.459-.708.664-1.768.664-2.505 0-1.67-1.013-3.155-2.501-3.795z" opacity=".5"/><path d="m5.526 17.829c0-1.935.978-3.715 2.534-4.769.195-1.49.863-2.821 1.822-3.885.058-.345.11-.684.214-1.065.532-1.942 1.315-3.134 2.394-3.643.394-.186.622-.606.564-1.038-.059-.432-.39-.776-.819-.851-4.899-.861-9.582 2.109-10.894 6.898-1 3.645.25 7.55 3.179 9.944.051.042.672.534 1.718 1.042-.428-.817-.712-1.697-.712-2.633z" opacity=".5"/><circle cx="14.43" cy="5.577" r="1"/><circle cx="17.717" cy="3.839" r="1"/><circle cx="19.116" cy="7.146" r="1"/></svg>