<svg id="Layer_1" viewBox="0 0 24 24" xmlns="http://www.w3.org/2000/svg" data-name="Layer 1"><path d="m9.378 1.048c-.527-.169-1.089.12-1.259.645-.141.437-.343.666-.489.781-.153-.118-.354-.346-.494-.781-.169-.525-.731-.813-1.259-.645-.525.169-.814.733-.645 1.259.334 1.036.91 1.592 1.395 1.896v1.12c0 .552.448 1 1 1s1-.448 1-1v-1.119c.485-.304 1.06-.859 1.395-1.896.169-.525-.119-1.089-.645-1.259z" opacity=".5"/><path d="m10.023 12.745c-.335-1.037-.91-1.592-1.395-1.896v-1.119c0-.552-.448-1-1-1s-1 .448-1 1v1.12c-.485.304-1.06.859-1.395 1.896-.169.526.119 1.089.645 1.259.528.167 1.089-.119 1.259-.646.141-.437.343-.666.488-.781.153.118.354.347.495.781.137.424.529.693.952.693.102 0 .205-.016.307-.048.525-.17.814-.733.645-1.259z" opacity=".5"/><path d="m14.096 5.747c-.12-.539-.65-.876-1.194-.758-.447.101-.747.042-.921-.024.024-.192.119-.481.422-.823.366-.413.329-1.045-.084-1.412s-1.045-.328-1.412.084c-.723.815-.909 1.592-.925 2.164l-.964.568c-.476.281-.634.894-.354 1.37.187.316.52.492.863.492.172 0 .347-.044.507-.138l.963-.567c.353.183.829.342 1.447.342.272 0 .57-.031.894-.103.539-.121.879-.655.758-1.194z" opacity=".5"/><path d="m6.592 8.136c-.28-.475-.892-.634-1.37-.354l-.964.568c-.508-.263-1.278-.477-2.34-.24-.539.121-.878.655-.758 1.194.121.539.655.877 1.194.758.448-.101.748-.041.921.024-.024.192-.119.481-.423.823-.366.413-.329 1.045.084 1.412.19.169.428.252.664.252.276 0 .551-.114.749-.336.723-.815.909-1.592.925-2.164l.964-.568c.476-.281.634-.894.354-1.37z" opacity=".5"/><path d="m6.238 5.546-.964-.568c-.016-.572-.202-1.35-.925-2.164-.366-.412-.999-.45-1.412-.084-.413.367-.45.999-.084 1.412.305.343.4.634.426.818-.179.071-.478.13-.924.029-.538-.117-1.073.219-1.194.758-.12.539.219 1.074.758 1.194.324.072.623.103.895.103.618 0 1.095-.159 1.448-.342l.963.567c.16.094.334.138.507.138.343 0 .676-.176.863-.492.28-.476.122-1.089-.354-1.37z" opacity=".5"/><path d="m13.338 8.11c-1.061-.235-1.831-.022-2.339.241l-.966-.569c-.478-.28-1.089-.122-1.37.354-.28.476-.122 1.089.354 1.37l.964.568c.016.572.202 1.35.925 2.164.198.222.473.336.749.336.236 0 .473-.083.664-.252.413-.367.45-.999.084-1.412-.305-.344-.399-.634-.425-.818.179-.07.479-.129.924-.029.544.12 1.075-.219 1.194-.758.121-.539-.219-1.074-.758-1.194z" opacity=".5"/><path d="m7.628 4.497c-1.674 0-3.037 1.359-3.037 3.029s1.362 3.029 3.037 3.029 3.037-1.359 3.037-3.029-1.362-3.029-3.037-3.029z"/><path d="m17.906 17.386h-6.736c-.552 0-1-.447-1-1s.448-1 1-1h6.736c1.002 0 1.817-.811 1.817-1.808s-.815-1.807-1.817-1.807c-.952 0-1.749.739-1.812 1.682-.037.55-.501.957-1.066.93-.551-.038-.967-.515-.93-1.066.136-1.988 1.809-3.545 3.809-3.545 2.104 0 3.817 1.708 3.817 3.807s-1.713 3.808-3.817 3.808z" opacity=".5"/><path d="m5.489 23c-2.104 0-3.817-1.708-3.817-3.808s1.712-3.807 3.817-3.807h1.894c.552 0 1 .447 1 1s-.448 1-1 1h-1.894c-1.002 0-1.817.811-1.817 1.807s.815 1.808 1.817 1.808c.953 0 1.749-.738 1.813-1.682.038-.551.518-.957 1.065-.93.551.038.967.515.93 1.066-.136 1.987-1.809 3.545-3.809 3.545z" opacity=".5"/><path d="m19.731 8.555h-3.35c-.553 0-1-.448-1-1s.447-1 1-1h3.35c.625 0 1.133-.504 1.133-1.125s-.508-1.125-1.133-1.125c-.536 0-1.002.377-1.109.898-.111.541-.642.89-1.181.778-.541-.111-.89-.64-.778-1.181.298-1.445 1.588-2.495 3.068-2.495 1.728 0 3.133 1.402 3.133 3.125s-1.405 3.125-3.133 3.125z" opacity=".5"/></svg>