<svg id="Layer_1" viewBox="0 0 24 24" xmlns="http://www.w3.org/2000/svg" data-name="Layer 1"><path d="m18.436 18.173c-.15-.226-.385-.381-.651-.431-3.783-.705-7.785-.705-11.568 0-.269.05-.505.207-.654.435-.091.139-.891 1.41-.891 3.129 0 .293.023.574.062.838.072.491.493.854.989.854h12.554c.494 0 .915-.361.988-.85.041-.267.064-.549.064-.843 0-1.734-.803-2.996-.894-3.134z"/><path d="m17.735 18.325-2.265-11.048c-.056-.271-.219-.497-.439-.639.379-.695.43-1.483.428-2.07-.008-2.358-1.173-3.558-3.465-3.567-1.146-.027-1.979.282-2.573.875-.797.796-.885 1.911-.882 2.68.003.837.152 1.528.445 2.071-.229.141-.399.372-.456.65l-2.265 11.048c-.061.294.015.6.205.833.189.232.474.368.774.368h9.512c.301 0 .585-.135.774-.368.19-.233.266-.539.205-.833z" opacity=".5"/><path d="m15.379 8.122h-6.758c-.553 0-1-.448-1-1s.447-1 1-1h6.758c.553 0 1 .448 1 1s-.447 1-1 1z"/></svg>