<svg id="Layer_1" viewBox="0 0 24 24" xmlns="http://www.w3.org/2000/svg" data-name="Layer 1"><path d="m21.728 9.963c-.148-.272-.415-.461-.722-.509-.079-.012-.991-.155-2.424-.304-1.492-1.182-4.237-2.49-6.805-2.49s-4.596 1.037-6.358 2.491c-1.432.149-2.345.291-2.424.303-.309.049-.577.239-.726.514-.046.085-1.01 1.903-1.227 4.44.889.325.839.991.839 1.027 0 .344-.191.775-.84.973.216 2.555 1.184 4.359 1.23 4.444.148.272.415.461.722.509.17.027 4.217.658 9.006.658s8.835-.631 9.005-.658c.309-.049.577-.239.726-.514.046-.085 1.01-1.903 1.226-4.44-.617-.344-.85-.657-.85-1 0-.028.369-.721.851-1-.216-2.555-1.184-4.36-1.23-4.445z" opacity=".5"/><path d="m1 15.408c0 .344.015.678.043 1h21.914c.028-.322.043-.656.043-1s-.015-.678-.043-1h-21.914c-.028.322-.043.656-.043 1z"/><path d="m18.165 6.609c-.075-.327-.31-.595-.624-.712-.104-.039-2.598-.96-5.541-.96-1.518 0-2.919.246-3.933.489l.15-.867.615-.182c1.57-.463 3.244-.52 4.843-.167.54.124 1.073-.22 1.193-.759.119-.54-.221-1.073-.76-1.193-1.928-.427-3.948-.358-5.843.201l-1.211.357c-.365.107-.638.414-.702.789 0 0-.756 4.104-.934 5.545 1.66-.173 4.016-.354 6.581-.354s4.924.182 6.582.354c-.19-1.543-.407-2.496-.417-2.541z"/></svg>