<svg id="Layer_1" viewBox="0 0 24 24" xmlns="http://www.w3.org/2000/svg" data-name="Layer 1"><path d="m12.093 1.758c-.308-.169-.391-.162-.59-.599-.004.002-.011-.021-.015-.018-.589.346-5.173 3.159-5.234 6.824.078 2.603 2.219 5.03 4.746 5.592.164.333.612.561.957.566.329-.005.833-.157 1.044-.558 2.522-.547 4.683-2.984 4.763-5.6v-.049c-.052-2.862-2.786-5.131-4.3-6.174-.76.224-1.314.046-1.37.015z" opacity=".5"/><path d="m13.463 1.743c-.537-.37-.925-.589-.981-.619-.308-.169-.682-.164-.987.013-.003.002-.01.006-.013.008l-.32.518c-.229.352-2.212 3.504-1.102 5.817.172.358.529.567.902.567.146 0 .292-.031.432-.099.498-.239.708-.836.469-1.334-.53-1.105.553-3.21.987-3.88z"/><path d="m21.993 15.927c-.154-.116-3.807-2.803-6.882-1.654-.863.324-1.554.91-2.111 1.584v-2.294c-.324.071-.654.111-.986.116-.342-.005-.681-.046-1.014-.12v2.298c-.557-.675-1.249-1.26-2.112-1.585-3.073-1.151-6.728 1.538-6.881 1.654-.312.233-.461.628-.379 1.01.04.188 1.019 4.62 4.09 5.774.54.202 1.097.286 1.651.286 1.89 0 3.72-.972 4.632-1.541.912.569 2.742 1.541 4.632 1.541.554 0 1.111-.084 1.65-.286 3.071-1.154 4.05-5.587 4.09-5.774.082-.382-.066-.776-.379-1.01z"/></svg>