<svg id="Layer_1" viewBox="0 0 24 24" xmlns="http://www.w3.org/2000/svg" data-name="Layer 1"><path d="m22.136 14.708c-1.992-4.587-4.888-8.979-8.605-13.052-.153-.167-.333-.301-.53-.403-.392.587-.724 1.134-1.101 1.149-.315.013-.487-.751-.899-1.149-.197.102-.378.236-.53.403-3.719 4.073-6.615 8.464-8.607 13.052-.148.341-.095.735.138 1.025l.117.146c2.277 2.821 5.337 5.148 8.881 6.758.431-.363.842-.443.974-.443s.578.134 1.026.443c3.544-1.611 6.604-3.938 8.881-6.76l.116-.145c.232-.29.286-.684.138-1.025z" opacity=".5"/><path d="m11 1.253v21.383c.202.092.404.181.609.268.124.053.258.08.391.08s.267-.026.391-.08c.205-.087.408-.177.61-.269v-21.382c-.613-.316-1.387-.316-2 0z"/></svg>