<svg id="Layer_1" viewBox="0 0 24 24" xmlns="http://www.w3.org/2000/svg" data-name="Layer 1"><path d="m22.004 10.293c-.017-.429-.305-.799-.716-.921-.363-.107-.755-.182-1.18-.227-.337-.036-1.152-1.698-1.534-1.698-1.475.005-11.707.005-13.181 0-.395.003-1.184 1.666-1.525 1.703-.417.045-.799.117-1.157.223-.41.122-.7.542-.717.969-.179 4.365.725 7.421 2.239 10.937l.323.749c.158.367.519.604.918.604h13.05c.399 0 .76-.237.918-.604l.323-.749c1.515-3.516 2.418-6.571 2.238-10.985z" opacity=".5"/><path d="m19.751 23h-15.502c-.552 0-1-.448-1-1s.448-1 1-1h15.503c.552 0 1 .448 1 1s-.448 1-1 1z"/><path d="m14.46 4.21c.06-.307.06-.571.059-.707-.008-2.17-1.577-2.5-2.512-2.503-.783.019-1.435.216-1.869.65-.643.643-.64 1.551-.639 1.85 0 .251.023.478.063.682-3.109.517-4.983 2.156-5.693 4.968.341-.037.705-.055 1.1-.058 1.474.005 2.628.292 3.496.872.862-.585 2.017-.872 3.497-.872h.083c1.476 0 2.629.287 3.49.872.868-.58 2.022-.867 3.497-.872.382 0 .74.018 1.076.053-.74-2.76-2.6-4.39-5.648-4.935z"/></svg>