<svg id="Layer_1" viewBox="0 0 24 24" xmlns="http://www.w3.org/2000/svg" data-name="Layer 1"><path d="m17.486 18.689-.161-.426c-.736-1.961-1.233-4.013-1.476-6.098l-.471-4.039c-.036-.309-.211-.571-.458-.728.955-1.328.811-3.197-.455-4.823-.171-.22-.36-.452-.547-.675-.951-1.143-2.882-1.145-3.835-.002-.188.225-.377.457-.548.677-1.267 1.626-1.411 3.495-.456 4.823-.247.157-.422.419-.458.728l-.471 4.039c-.243 2.085-.74 4.137-1.476 6.097l-.16.426c-.14.296-.777 1.719-.777 3.206 0 .553.448.553 1 .553h10.525c.552 0 1 0 1-.553 0-1.491-.631-2.901-.777-3.204z" opacity=".5"/><path d="m17.904 23h-11.808c-.552 0-1-.447-1-1s.448-1 1-1h11.808c.552 0 1 .447 1 1s-.448 1-1 1z"/><path d="m15.236 8.947h-6.473c-.552 0-1-.447-1-1s.448-1 1-1h6.473c.552 0 1 .447 1 1s-.448 1-1 1z"/></svg>