<svg id="Layer_1" viewBox="0 0 24 24" xmlns="http://www.w3.org/2000/svg" data-name="Layer 1"><path d="m22.248 6.629c-.327-1.135-1.271-1.986-2.404-2.167-5.059-.81-10.63-.81-15.688 0-1.133.181-2.077 1.032-2.404 2.167-.997 3.463-.997 7.278 0 10.741.327 1.135 1.271 1.986 2.404 2.167 2.529.405 5.187.607 7.844.607s5.315-.202 7.844-.607c1.133-.181 2.077-1.032 2.404-2.167.997-3.463.997-7.278 0-10.741z" opacity=".5"/><path d="m15.083 10.99c-.457-.919-1.155-1.617-2.074-2.074-.633-.314-1.387-.314-2.02 0-.919.457-1.617 1.155-2.074 2.074-.314.632-.314 1.387 0 2.02.457.919 1.155 1.617 2.074 2.074.316.157.663.236 1.01.236s.693-.079 1.01-.236c.919-.457 1.617-1.155 2.074-2.074.314-.632.314-1.387 0-2.02z"/><g><circle cx="17.936" cy="8.968" r="1"/><circle cx="6.064" cy="8.968" r="1"/><circle cx="6.064" cy="15.032" r="1"/><circle cx="17.936" cy="15.032" r="1"/></g></svg>