<svg id="Layer_1" viewBox="0 0 24 24" xmlns="http://www.w3.org/2000/svg" data-name="Layer 1"><path d="m15.871 9.543c-.076-.11-.173-.205-.286-.277l-3.046-1.95c-.328-.21-.75-.21-1.078 0l-3.046 1.95c-.114.073-.212.169-.289.281-.074.108-.72 1.1-.72 2.458s.64 2.362.713 2.473c.079.119.182.22.302.295l3.046 1.915c.163.102.348.153.532.153s.37-.051.532-.153l3.046-1.915c.119-.075.221-.174.299-.291.073-.11.716-1.111.716-2.477s-.648-2.355-.723-2.463z"/><path d="m14.909 1.048c-.527-.169-1.089.121-1.258.646-.462 1.438-1.285 1.939-1.648 2.095-.374-.16-1.192-.662-1.653-2.095-.169-.525-.731-.815-1.258-.646-.526.169-.815.732-.646 1.258.622 1.932 1.77 2.818 2.555 3.214v2.493c0 .552.448 1 1 1s1-.448 1-1v-2.493c.784-.396 1.933-1.282 2.555-3.214.169-.526-.12-1.089-.646-1.258z" opacity=".5"/><path d="m15.555 21.694c-.622-1.932-1.77-2.818-2.555-3.214v-2.493c0-.552-.448-1-1-1s-1 .448-1 1v2.493c-.784.396-1.933 1.282-2.555 3.214-.169.526.12 1.089.646 1.258.527.169 1.089-.121 1.258-.646.462-1.438 1.285-1.939 1.648-2.095.374.16 1.192.662 1.653 2.095.137.424.529.694.952.694.101 0 .205-.016.306-.048.526-.169.815-.732.646-1.258z" opacity=".5"/><path d="m22.879 8.958c-.121-.54-.663-.879-1.194-.757-1.472.329-2.316-.13-2.632-.364-.053-.405-.04-1.371.959-2.5.366-.414.327-1.046-.086-1.412-.414-.367-1.046-.327-1.412.086-1.344 1.52-1.52 2.963-1.461 3.84l-2.138 1.264c-.476.281-.633.895-.352 1.37.187.316.52.491.862.491.173 0 .348-.045.508-.139l2.14-1.265c.545.354 1.412.744 2.634.744.43 0 .902-.048 1.417-.164.539-.121.878-.656.757-1.194z" opacity=".5"/><path d="m9.438 13.515c-.28-.475-.893-.631-1.37-.352l-2.135 1.262c-.738-.478-2.082-1.02-4.056-.577-.539.121-.878.656-.757 1.194.121.539.66.876 1.194.757 1.471-.331 2.316.129 2.632.364.053.405.04 1.371-.959 2.5-.366.414-.327 1.046.086 1.412.19.168.427.251.662.251.277 0 .552-.114.75-.337 1.344-1.52 1.52-2.963 1.461-3.84l2.138-1.264c.476-.281.633-.895.352-1.37z" opacity=".5"/><path d="m9.086 9.116-2.138-1.264c.059-.878-.118-2.321-1.461-3.84-.367-.413-.997-.453-1.412-.086-.414.366-.452.998-.086 1.412 1.003 1.134 1.012 2.103.961 2.496-.325.242-1.17.696-2.635.368-.534-.119-1.073.218-1.194.757s.218 1.074.757 1.194c.515.116.987.164 1.417.164 1.222 0 2.089-.39 2.634-.744l2.14 1.265c.16.094.335.139.508.139.342 0 .675-.175.862-.491.281-.475.124-1.088-.352-1.37z" opacity=".5"/><path d="m22.122 13.848c-1.973-.444-3.317.099-4.056.577l-2.135-1.262c-.475-.279-1.088-.123-1.37.352s-.124 1.088.352 1.37l2.138 1.264c-.059.878.118 2.321 1.461 3.84.198.223.473.337.75.337.235 0 .472-.083.662-.251.414-.366.452-.998.086-1.412-1.003-1.134-1.012-2.103-.961-2.496.326-.242 1.173-.695 2.635-.368.539.123 1.074-.217 1.194-.757.121-.539-.218-1.074-.757-1.194z" opacity=".5"/></svg>