<svg id="Layer_1" viewBox="0 0 24 24" xmlns="http://www.w3.org/2000/svg" data-name="Layer 1"><path d="m12 20.238c-.552 0-1-.448-1-1v-3.427c0-.552.448-1 1-1s1 .448 1 1v3.427c0 .552-.448 1-1 1z" opacity=".5"/><path d="m21.9 3.824c-.292-1.23-1.305-2.167-2.521-2.33-4.897-.657-9.862-.657-14.759 0-1.216.164-2.229 1.1-2.521 2.331-.902 3.808-.771 7.668.391 11.473.128.42.517.708.957.708h17.106c.44 0 .828-.288.957-.708 1.161-3.805 1.292-7.665.391-11.474z" opacity=".5"/><path d="m8.25 22.998c-.542 0-.986-.432-.999-.977-.022-.94.117-1.38.348-2.108l.067-.214c.114-.363.425-.631.801-.689 2.345-.362 4.722-.362 7.066 0 .377.058.688.326.802.689l.068.216c.229.727.369 1.166.347 2.105-.013.552-.474 1.006-1.022.977-.552-.013-.989-.47-.977-1.022.011-.47-.024-.694-.136-1.073-1.738-.218-3.492-.217-5.229 0-.112.379-.146.604-.136 1.073.013.552-.424 1.01-.976 1.023-.008 0-.016 0-.024 0z"/><path d="m21.818 16.573h-19.636c-.552 0-1-.448-1-1s.448-1 1-1h19.636c.552 0 1 .448 1 1s-.448 1-1 1z"/></svg>