<svg id="Layer_1" viewBox="0 0 24 24" xmlns="http://www.w3.org/2000/svg" data-name="Layer 1"><path d="m19.179 3.966c-1.608-1.981-4.198-2.952-7.918-2.966-3.424-.022-5.828.767-7.446 2.385-1.629 1.629-2.382 4.045-2.369 7.604.016 4.425.587 9.147 7.2 9.147 2.556 0 5.47-.944 6.174-1.186.086-.03.701-.121.716-.126.508-.185.667-.874.499-1.388l-.68-.49-.415-1.264.804-.887-1.428-1.015-.115-.349c-.249-.834-.094-1.712.424-2.408.422-.566 1.028-.931 1.704-1.038.175.147.362.447.504.447.051 0 .366.04.417.032.512-.079.797-.437 1.086-1.063.625-.408 1.118-1.015 1.405-1.758.488-1.267.278-2.642-.562-3.677z" opacity=".5"/><circle cx="9.766" cy="15.499" r="1"/><path d="m21.753 14.579c-.114-.265-.337-.467-.61-.556-.203-.066-1.627-.521-2.81-.744v-3.882c-.415.271-.889.455-1.399.533-.051.008-.135.017-.186.017-.141 0-.279.011-.415.032v3.299c-.685.129-1.452.336-2.015.501l.624 1.901c.45-.13.947-.262 1.391-.361v1.63h-.978l.229.688c.168.514-.102 1.067-.609 1.252-.016.006-.075.027-.17.06h1.529v2.128c0 .455.307.853.747.968l3.501.917c.084.021.169.032.253.032.392 0 .758-.23.918-.604 1.069-2.481 1.069-5.329 0-7.812zm-3.42.741c.565.126 1.217.307 1.748.467.138.38.246.769.323 1.163h-2.071zm1.877 5.478-1.877-.491v-1.356h2.208c-.037.625-.147 1.245-.331 1.848z"/></svg>