<svg id="Layer_1" viewBox="0 0 24 24" xmlns="http://www.w3.org/2000/svg" data-name="Layer 1"><path d="m21.536 12.184c-.024-.753-.068-1.574-.131-2.454-.013-.118-.032-.234-.057-.348-.196-.752-.84-1.307-1.584-1.314-.916.008-1.637.735-1.703 1.657-.103 1.442-.154 2.721-.154 3.801 0 .552-.447 1-1 1s-1-.448-1-1c0-1.127.054-2.454.16-3.944.125-1.738 1.396-3.15 3.003-3.454-1.15-3.39-3.845-5.114-8.033-5.13h-.057c-2.692 0-4.784.727-6.219 2.162-.644.644-1.153 1.421-1.531 2.341.226.588.654 1.63.654 1.63s-.753.336-1.264.57c-.145.86-.215 1.807-.211 2.844.009 2.536.372 4.968 2.117 6.633 1.103 2.636 3.541 3.823 7.282 3.823 3.539 0 6.563-1.333 7.607-3.213 1.402-.869 2.03-1.989 2.089-3.074.025-.492.044-1.04.044-1.624 0-.301-.005-.606-.013-.908z" opacity=".5"/><path d="m11.978 19.365c-3.741 0-6.045-.844-7.452-2.186.208 2.508.674 4.193.694 4.266.092.328.344.586.669.687.116.035 2.866.868 6.11.868s5.993-.833 6.109-.868c.326-.1.58-.36.671-.689.018-.063.409-1.493.635-3.653-1.504.932-3.898 1.576-7.438 1.576z"/><path d="m9.111 9.826c1.197 0 2.5-.141 3.912-.422.542-.108.894-.634.785-1.176-.107-.541-.63-.893-1.176-.786-4.449.886-7.454.27-9.402-1.939-.271.659-.473 1.391-.61 2.2 1.667 1.419 3.815 2.123 6.491 2.123z"/></svg>