<svg id="Layer_1" viewBox="0 0 24 24" xmlns="http://www.w3.org/2000/svg" data-name="Layer 1"><path d="m21.976 9.619c-8.764-3.836-11.188-3.836-19.951 0-.363.159-.599.519-.599.916 0 4.093 2.64 10.99 2.752 11.282.153.397.336.452.723.555.198.053.451.065.569.019.397-.153 12.634.007 13.06 0 .523-.008 1.095-.06 1.292-.576.112-.293 2.752-7.221 2.752-11.28 0-.397-.235-.757-.599-.916z" opacity=".5"/><path d="m14.524 2.958h-1.524v-1.288c0-.552-.447-1-1-1s-1 .448-1 1v1.288h-1.524c-.553 0-1 .448-1 1s.447 1 1 1h1.524v2.581c0 .552.447 1 1 1s1-.448 1-1v-2.581h1.524c.553 0 1-.448 1-1s-.447-1-1-1z"/><path d="m20.247 22.67h-16.494c-.553 0-1-.448-1-1s.447-1 1-1h16.494c.553 0 1 .448 1 1s-.447 1-1 1z"/></svg>