<svg id="Layer_1" viewBox="0 0 24 24" xmlns="http://www.w3.org/2000/svg" data-name="Layer 1"><path d="m15.603 13h-7.205c-.553 0-1-.449-1-1.001s.448-1 1-1h7.205c.553 0 1 .449 1 1.001s-.448 1-1 1z" opacity=".5"/><path d="m8.474 7.998c-.141-.531-.682-.846-1.214-.713-4.015 1.023-6.093 4.156-6.112 4.187-.064.105-.107.218-.129.333-.049.245-.006.503.129.722.019.031 2.097 3.164 6.111 4.187.083.021.166.031.248.031.442 0 .847-.296.966-.744.694-2.618.694-5.385 0-8.003z"/><path d="m22.852 11.472c-.019-.031-2.097-3.164-6.111-4.187-.529-.133-1.073.182-1.214.713-.694 2.618-.694 5.385 0 8.003.119.448.523.744.966.744.082 0 .165-.01.248-.031 4.015-1.023 6.093-4.155 6.111-4.187.064-.105.107-.218.129-.333.049-.245.006-.503-.129-.722z"/></svg>