<svg id="Layer_1" viewBox="0 0 24 24" xmlns="http://www.w3.org/2000/svg" data-name="Layer 1"><path d="m19.643 11.641c-.192-2.747-1.846-5.084-4.167-6.272-.22-.507-.413-.873-.731-.986-.348-.124-.862.106-1.269.292-.478-.094-.971-.143-1.475-.143s-.998.05-1.477.144c-.407-.239-.873-.77-1.205-.654-.336.117-.574.702-.795 1.349-2.316 1.187-3.969 3.519-4.165 6.261-.028.39-.051.771-.069 1.131-.788.356-.854.829-.86 1.185-.002.105 0 .158 0 .252 0 .196.276.481.819.662.028 1.617.173 2.959.325 3.953-.495.159-.592.601-.546.841.132.692.352.877.363.916s.129.183.619.308c.041.095.095.183.163.262.081-.041.199-.053.226-.028.194.18 1.736.856 6.451.856 4.804 0 6.442-.715 6.63-.896.017-.017.215.026.346.081.073-.081.131-.174.174-.275.081-.031.717-.646.971-1.163.024-.05.269-.471-.538-.903.149-.99.29-2.328.318-3.951.482-.068.688-.783.688-.979 0-.413-.209-.74-.728-1.12-.018-.358-.041-.736-.068-1.122z" opacity=".5"/><path d="m13.552 11.142h-3.104c-.553 0-1-.448-1-1s.447-1 1-1h3.104c.553 0 1 .448 1 1s-.447 1-1 1z"/><path d="m10.524 4.675v-.182c0-.812.66-1.472 1.479-1.472.812 0 1.472.661 1.472 1.472v.181c.705.139 1.376.375 2 .694v-.875c0-1.915-1.558-3.472-3.479-3.472s-3.472 1.558-3.472 3.472v.877c.624-.32 1.296-.556 2-.695z"/><path d="m4.97 20.763c-.015-.053-.211-.746-.395-1.949-.904-.231-1.574-1.054-1.574-2.037 0-.854.514-1.59 1.249-1.915-.003-.188-.005-.38-.005-.576 0-.411.016-.938.046-1.523-1.874.374-3.29 2.033-3.29 4.023 0 2.229 1.792 4.048 4.011 4.092-.016-.037-.03-.076-.041-.115z"/><path d="m19.711 12.763c.029.583.045 1.11.045 1.523 0 .196-.002.388-.005.576.735.326 1.249 1.063 1.249 1.924 0 .973-.667 1.793-1.567 2.026-.182 1.208-.376 1.898-.392 1.951-.011.039-.025.078-.041.115 2.214-.05 4-1.866 4-4.101 0-1.982-1.416-3.639-3.289-4.014z"/><path d="m12 13.508c-3.764 0-6.826 3.07-6.826 6.843v.788c.025.029 2.116 1.839 6.831 1.839 4.804 0 6.805-1.808 6.821-1.826v-.801c0-3.773-3.062-6.843-6.826-6.843z"/></svg>