<svg id="Layer_1" viewBox="0 0 24 24" xmlns="http://www.w3.org/2000/svg" data-name="Layer 1"><path d="m22.987 5.452c-.028-.177-.312-1.767-1.464-2.928-1.157-1.132-2.753-1.412-2.931-1.44-.237-.039-.479.011-.682.137-.074.046-1.226.767-3.505 2.721-.022.419.349.829.024 1.117-.273.242-1.176.358-1.802.456-.998.91-2.141 1.992-3.43 3.272-6.062 6.02-7.652 8.427-7.717 8.526-.091.14-.146.301-.159.467l-.319 4.071c-.022.292.083.578.29.785.188.188.443.293.708.293.025 0 .051 0 .077-.003l4.101-.316c.165-.013.324-.066.463-.155.1-.064 2.523-1.643 8.585-7.662 1.321-1.311 2.433-2.47 3.363-3.479-.002-.862.103-1.715.375-2.02.244-.273.748.159 1.185.279 1.937-2.232 2.653-3.359 2.699-3.433.128-.205.178-.45.14-.689z" opacity=".5"/><path d="m17.982 6.061c-1.124-1.1-2.515-1.75-3.577-2.12-.531.455-1.123.978-1.778 1.574.589.125 2.582.631 3.956 1.976 1.351 1.321 1.869 3.221 2.005 3.824.593-.643 1.113-1.226 1.566-1.747-.378-1.042-1.045-2.404-2.172-3.506z"/></svg>