<svg id="Layer_1" viewBox="0 0 24 24" xmlns="http://www.w3.org/2000/svg" data-name="Layer 1"><path d="m16.041 1.259c-.714-.146-1.297-.086-1.78.185-.571.321-.947.906-1.117 1.74-.185.902-.184 2.481 1.905 2.91.252.052.488.078.708.078.405 0 .759-.087 1.071-.263.571-.32.947-.906 1.117-1.74.185-.903.184-2.48-1.905-2.91z"/><path d="m3.107 22.449c-.065 0-.131-.006-.197-.02-.542-.108-.893-.635-.784-1.177l2.031-10.148c.108-.542.63-.895 1.177-.784.542.108.893.635.784 1.177l-2.031 10.148c-.095.475-.513.804-.979.804z" opacity=".5"/><path d="m18.314 22.449c-.065 0-.131-.006-.197-.02-.542-.108-.893-.635-.784-1.177l2.455-12.265c.108-.541.632-.893 1.177-.784.542.108.893.635.784 1.177l-2.455 12.265c-.095.475-.513.804-.979.804z" opacity=".5"/><path d="m22 18.118c-.552 0-1 .448-1 1 0 .938-.759 1.7-1.692 1.7h-2.965c-.31-1.785-1.078-3.441-2.194-4.819l1.885-5.748c.965.837 2.171 1.389 3.502 1.574l.466.038c.027.002.055.003.082.003.516 0 .954-.396.996-.919.044-.551-.366-1.033-.916-1.077l-.408-.031c-1.354-.189-2.549-.957-3.28-2.106-.147-.232-.384-.393-.654-.445l-5.925-1.142c-1.461-.239-2.963.159-4.113 1.097-.428.349-.492.979-.143 1.407.35.429.979.493 1.407.143.706-.576 1.625-.821 2.497-.678l.992.191c-.893 1.722-1.428 3.589-1.59 5.55-.037.333.1.674.358.889.069.058.145.105.227.143 2.446 1.11 4.213 3.333 4.776 5.932h-4.535l1.459-2.011c.324-.447.225-1.072-.223-1.396-.446-.323-1.071-.225-1.396.223l-2.31 3.185h-5.303c-.552 0-1 .448-1 1s.448 1 1 1h17.308c2.036 0 3.692-1.66 3.692-3.7 0-.552-.448-1-1-1z"/></svg>