<svg id="Layer_1" viewBox="0 0 24 24" xmlns="http://www.w3.org/2000/svg" data-name="Layer 1"><path d="m21.78 6.49c-.122-.311-.391-.54-.717-.611-.073-.016-.867-.188-2.131-.379-1.664-.946-4.279-2.64-7.028-2.64s-5.346 1.588-6.836 2.64c-1.264.191-2.058.362-2.132.378-.327.072-.597.303-.719.615-.05.128-1.218 3.185-1.218 7.251 0 4.101 1.17 7.127 1.22 7.254.122.311.391.54.717.611.171.038 4.245.919 9.063.919s8.892-.881 9.063-.919c.327-.071.597-.302.719-.614.05-.129 1.218-3.186 1.218-7.251 0-4.101-1.17-7.128-1.22-7.255z" opacity=".5"/><path d="m12 8.884c-3.271 0-4.861 1.59-4.861 4.861s1.59 4.86 4.861 4.86 4.861-1.59 4.861-4.86-1.59-4.861-4.861-4.861z"/><path d="m12 4.96c2.749 0 5.255.287 6.933.54-.542-1.832-1.607-3.047-1.656-3.102-.107-.12-.241-.213-.392-.271-.07-.027-1.76-.657-4.886-.657s-4.813.629-4.884.656c-.153.058-.289.152-.397.275-.049.056-1.107 1.277-1.65 3.098 1.68-.253 4.187-.54 6.931-.54z"/></svg>