<svg id="Layer_1" viewBox="0 0 24 24" xmlns="http://www.w3.org/2000/svg" data-name="Layer 1"><path d="m17.896 18-1.785-10.437c.805-3.727.802-3.815.795-3.972-.02-.472-.366-.865-.831-.944-.786-.134-2.57-.322-4.075-.322-1.579 0-3.331.198-4.064.322-.467.079-.814.475-.832.948-.006.156-.009.242.788 3.981l-1.788 10.446c-.05.291.032.589.222.814s.469.354.764.354h.002l9.82-.023c.294 0 .573-.131.763-.356.189-.226.27-.522.221-.812z" opacity=".5"/><path d="m18.544 17.91c-.146-.236-.383-.4-.655-.455-3.853-.768-7.926-.768-11.778 0-.273.055-.512.221-.657.458-.037.059-.888 1.47-.888 3.332 0 .312.023.61.062.891.068.495.491.864.991.864h12.762c.499 0 .921-.368.99-.862.04-.282.063-.581.063-.893 0-1.877-.854-3.277-.89-3.336z"/><path d="m12 4.153c-.552 0-1-.448-1-1v-1.153c0-.552.448-1 1-1s1 .448 1 1v1.153c0 .552-.448 1-1 1z"/><path d="m16.117 8.644h-8.234c-.552 0-1-.448-1-1s.448-1 1-1h8.234c.552 0 1 .448 1 1s-.448 1-1 1z"/></svg>