<svg id="Layer_1" viewBox="0 0 24 24" xmlns="http://www.w3.org/2000/svg" data-name="Layer 1"><path d="m8.134 21.094c-.315 0-.613-.149-.802-.403-2.332-3.131-3.422-6.987-3.084-10.891-.573-.178-1.192-.094-1.698.238-.459.305-1.081.176-1.385-.285s-.177-1.082.285-1.385c1.327-.875 3.046-.882 4.38-.022.318.205.52.588.479.964l-.041.38c-.32 3.01.33 6 1.843 8.563 2.456-4.13 3.916-8.816 4.24-13.646l.016-.21c.03-.437.342-.802.769-.903l.54-.127c2.818-.66 5.787-.615 8.584.135.533.143.85.691.707 1.225-.143.533-.693.85-1.225.707-2.422-.648-4.989-.702-7.435-.159-.46 5.494-2.301 10.799-5.34 15.372-.181.271-.481.437-.807.446-.009 0-.018 0-.026 0z"/><path d="m19.856 16.43 2.312-3.062c.333-.441.245-1.068-.195-1.4-.441-.333-1.068-.246-1.4.195l-1.969 2.607-1.969-2.607c-.332-.441-.959-.529-1.4-.195-.44.333-.528.959-.195 1.4l2.312 3.062-2.312 3.062c-.333.441-.245 1.068.195 1.4.181.136.392.202.602.202.303 0 .603-.137.799-.397l1.969-2.607 1.969 2.607c.196.26.496.397.799.397.21 0 .421-.066.602-.202.44-.333.528-.959.195-1.4l-2.312-3.062z" opacity=".5"/></svg>