<svg id="Layer_1" viewBox="0 0 24 24" xmlns="http://www.w3.org/2000/svg" data-name="Layer 1"><path d="m11.234 13.687c-1.929 0-3.858-.006-5.787-.018-.553-.003-.997-.454-.994-1.006.005-.551.466-1.003 1.006-.994 2.526.015 5.053.019 7.58.016h.002c.552 0 .999.446 1 .998 0 .552-.445 1.001-.998 1.002-.603 0-1.206.002-1.809.002z"/><path d="m12.654 22.998c-2.185 0-4.492-.471-6.524-1.568-.241-.13-.418-.354-.489-.619-.072-.265-.031-.547.111-.781.759-1.246 2.688-4.885 2.505-6.746-.021-.047-.211-.416-.363-.711-.643-1.249-1.718-3.338-1.639-5.583.11-2.547 1.533-4.614 3.806-5.539 2.048-.834 4.312-.489 5.765.877.768.721 1.408 1.7 1.853 2.83.202.514-.051 1.095-.565 1.296-.514.203-1.095-.05-1.296-.565-.332-.845-.814-1.592-1.36-2.104-.886-.832-2.314-1.023-3.642-.482-1.528.622-2.486 2.029-2.562 3.765-.06 1.714.83 3.444 1.419 4.589.335.651.538 1.045.575 1.431.216 2.188-1.351 5.406-2.236 7.023 3.527 1.464 7.798.983 9.996-.429.465-.298 1.083-.164 1.382.302.298.465.163 1.083-.302 1.382-1.571 1.008-3.92 1.632-6.433 1.632z" opacity=".5"/></svg>