<svg id="Layer_1" viewBox="0 0 24 24" xmlns="http://www.w3.org/2000/svg" data-name="Layer 1"><path d="m12.011 21.359c-1.535-.012-3.046-.672-4.161-1.812-1.055-1.078-1.649-2.468-1.631-3.815.007-.552.432-.988 1.014-.986.552.008.994.461.986 1.014-.011.818.375 1.688 1.061 2.389.49.501 1.089.863 1.723 1.055.33.1 1.052 1.398 1.052 1.398s.622-1.298.948-1.397c.632-.191 1.232-.554 1.724-1.056.685-.7 1.071-1.571 1.06-2.389-.032-1.726-1.733-3.148-3.792-3.165-1.479-.01-2.881-.605-3.846-1.634-.868-.924-1.307-2.106-1.238-3.328.161-2.696 2.491-4.981 5.088-4.993 2.126.009 4.111 1.519 4.837 3.672.176.523-.105 1.09-.628 1.267-.523.176-1.091-.105-1.267-.628-.327-.971-1.072-1.75-1.937-2.104-.323-.132-1.029-1.567-1.029-1.567s-.652 1.437-.972 1.571c-1.113.465-2.021 1.64-2.096 2.899-.038.667.211 1.322.7 1.843.592.631 1.468.996 2.403 1.002 3.135.026 5.726 2.329 5.777 5.133.019 1.351-.576 2.741-1.631 3.819-1.115 1.14-2.625 1.8-4.146 1.812z" opacity=".5"/><path d="m11.999 4.641s0 0 .001 0c.042 0 .084.002.126.004h.001c.298.017.593.087.875.203v-2.848c0-.552-.448-1-1-1s-1 .448-1 1v2.851c.32-.134.657-.209.995-.211z"/><path d="m12.011 19.359c-.339-.003-.678-.056-1.008-.156v2.797c0 .552.448 1 1 1s1-.448 1-1v-2.795c-.326.099-.66.152-.992.154z"/></svg>