<svg id="Layer_1" viewBox="0 0 24 24" xmlns="http://www.w3.org/2000/svg" data-name="Layer 1"><path d="m21.806 2.858c-.1-.325-.357-.578-.685-.67-.173-.049-4.273-1.188-9.121-1.188s-8.947 1.139-9.12 1.188c-.329.093-.588.347-.687.674-.049.161-1.193 4.007-1.193 9.139 0 5.175 1.146 8.982 1.194 9.142.1.326.357.578.685.671.173.048 4.273 1.188 9.121 1.188s8.947-1.14 9.12-1.188c.329-.093.588-.347.687-.674.049-.161 1.193-4.007 1.193-9.139 0-5.175-1.146-8.982-1.194-9.142z" opacity=".5"/><path d="m12 13.021c-2.837 0-5.146 2.309-5.146 5.146 0 .553.447 1 1 1h8.291c.553 0 1-.447 1-1 0-2.837-2.309-5.146-5.146-5.146z"/><path d="m15.174 6.649c-.242-.723-.818-1.3-1.543-1.543-1.082-.362-2.179-.363-3.263 0-.724.243-1.3.82-1.542 1.542-.363 1.083-.363 2.181 0 3.263.243.724.819 1.3 1.542 1.542.542.182 1.087.272 1.632.272s1.09-.091 1.631-.272c.724-.242 1.301-.819 1.543-1.542.363-1.082.363-2.18 0-3.262z"/></svg>