<svg id="Layer_1" viewBox="0 0 24 24" xmlns="http://www.w3.org/2000/svg" data-name="Layer 1"><path d="m12.261 23c-2.868 0-5.292-.289-5.394-.301-.284-.035-.54-.189-.703-.425-.066-.096-.647-.982-.647-2.549 0-1.552.578-2.444.644-2.541.17-.25.444-.409.745-.435.025-.002 2.498-.202 5.322-.296 3.02-.102 5.423-.272 6.364-.345.058-.166.125-.471.125-.988 0-.508-.064-.812-.12-.979-1.158-.066-4.309-.246-6.643-.354-4.828-.225-9.04-.619-9.082-.624-.374-.035-.697-.277-.835-.627-.036-.09-.875-2.242-.875-5.142 0-2.877.838-5.049.874-5.14.131-.333.43-.571.784-.624.174-.025 4.309-.631 9.181-.631s9.008.605 9.181.631c.353.053.651.289.783.621.036.09.875 2.242.875 5.143 0 .521-.401.956-.921.997-.046.004-4.633.363-8.77.363-2.978 0-5.918-.353-6.042-.367-.548-.067-.938-.565-.872-1.113.066-.549.564-.94 1.113-.873.029.004 2.948.354 5.802.354 2.937 0 6.112-.186 7.658-.289-.09-1.289-.348-2.339-.524-2.938-1.316-.166-4.616-.528-8.282-.528s-6.963.362-8.28.528c-.218.741-.559 2.171-.559 3.866s.33 3.097.547 3.836c1.355.118 4.667.389 8.339.559 2.922.136 7.118.383 7.118.383.117.007.231.034.338.08.365.157 1.214.753 1.214 2.869 0 2.091-.837 2.697-1.197 2.86-.104.047-.214.076-.327.086-.029.003-2.947.253-6.898.385-1.961.066-3.75.184-4.637.247-.071.237-.14.581-.14 1.026 0 .458.071.808.145 1.046.866.084 2.642.229 4.599.229.552 0 1 .447 1 1s-.448 1-1 1z" opacity=".5"/></svg>