<svg id="Layer_1" viewBox="0 0 24 24" xmlns="http://www.w3.org/2000/svg" data-name="Layer 1"><path d="m19.934 8.98c-.188-.253-.486-.402-.802-.402h-4.17l1.104-4.917c.083-.37-.05-.755-.344-.995-.084-.068-2.073-1.667-4.46-1.667-2.441 0-4.42 1.601-4.503 1.669-.167.136-.284.323-.336.532l-2.526 10.18c-.074.298-.006.614.183.857.189.242.48.384.788.384h4.023l-.865 7.261c-.04.334.092.667.35.883.183.154.411.235.644.235.096 0 .192-.014.287-.042 7.477-2.235 10.654-12.653 10.786-13.095.09-.303.031-.63-.157-.883z" opacity=".5"/></svg>