<svg id="Layer_1" viewBox="0 0 24 24" xmlns="http://www.w3.org/2000/svg" data-name="Layer 1"><path d="m19.862 4.701c-.079-.33-.32-.596-.641-.708-.059-.021-1.332-.463-3.309-.78-.413-1.156-1.445-1.999-2.712-2.144-.802-.091-1.589-.092-2.4 0-1.266.144-2.298.984-2.712 2.142-1.987.317-3.256.764-3.314.784-.318.113-.558.379-.637.707-.038.156-.924 3.863-.924 8.247s.886 8.089.924 8.246c.079.33.32.596.641.708.127.045 3.171 1.098 7.222 1.098 4.085 0 7.1-1.054 7.226-1.099.318-.113.558-.379.637-.707.038-.156.924-3.863.924-8.246s-.886-8.09-.924-8.246z" opacity=".5"/><path d="m13.719 7.393h-.719v-.702c0-.552-.447-1-1-1s-1 .448-1 1v.702h-.719c-.553 0-1 .448-1 1s.447 1 1 1h.719v.702c0 .552.447 1 1 1s1-.448 1-1v-.702h.719c.553 0 1-.448 1-1s-.447-1-1-1z"/><path d="m15.596 14.691h-7.191c-.553 0-1-.448-1-1s.447-1 1-1h7.191c.553 0 1 .448 1 1s-.447 1-1 1z"/><path d="m11.745 18.521h-3.341c-.553 0-1-.448-1-1s.447-1 1-1h3.341c.553 0 1 .448 1 1s-.447 1-1 1z"/></svg>