<svg id="Layer_1" viewBox="0 0 24 24" xmlns="http://www.w3.org/2000/svg" data-name="Layer 1"><path d="m21.801 12.368c-.129-.22-.764-.492-1.008-.563-.513-.149-.547-.099-1.008-.24.001-.089.33-.414.423-.48.01-1.431-.052-2.743-.142-3.875-.545-.381-1.311-.753-1.343-1.067-.037-.361.681-.653 1.139-.933-.164-1.305-.328-2.101-.343-2.173-.076-.365-.349-.657-.708-.758-.149-.042-3.693-1.027-7.881-1.027s-7.731.985-7.88 1.027c-.287.081-.522.285-.643.557-.028.064-.372.854-.713 2.374.31.27.692.742.637 1.038-.067.361-.401.6-.999.962-.155 1.088-.276 2.38-.317 3.875.334.354.579.591.579.968 0 .316-.175.77-.579 1.032.126 3.618.994 4.942 1.179 5.184.13.17.311.293.516.353.036.011.345.098.969.212.424.363 1.706 2.043 2.779 2.148.952.093 2.361-.973 3.17-1.608.056.002.112.003.169.005.324-.288.509-.882.843-.878s.787.517 1.158.904c.776 0 1.509-.011 2.196-.03.368-.401.551-1.043.852-1.055.371-.015.793.577 1.148.971.811.273 1.976 1.381 2.677 1.312 1.069-.105 1.787-1.334 2.19-1.807.535-.086.824-.149.864-.158.271-.06.504-.229.645-.468.065-.11.632-1.125.632-2.935 0-.932-.147-1.652-.3-2.15-.703-.492-.867-.664-.899-.718z" opacity=".5"/><path d="m15.993 11.085v-3.875h4.073c-.06-.753-.132-1.426-.205-2h-18.167c-.127.566-.253 1.232-.362 2h4.268v3.875h-4.585c-.01.354-.015.719-.015 1.096 0 .316.006.617.016.904h8.78v6.293c.621.017 1.287.027 2 .027v-12.195h2.196v12.165c.32-.009.631-.02.932-.032.125.215.391.493.58.483.166-.008.385-.363.489-.535v-6.206h6.708c-.147-.48-.3-.754-.332-.808-.129-.22-.338-.382-.583-.453-.513-.149-1.119-.332-1.581-.473.001-.089.002-.178.003-.266zm-6.196 0h-2.197v-3.875h2.197z"/><path d="m14.924 19.344c-.014.118-.022.237-.022.357 0 1.68 1.367 3.047 3.046 3.047s3.046-1.367 3.046-3.047c0-.31-.047-.614-.136-.903-1.048.169-3.039.429-5.935.547z"/><path d="m3.679 18.834c-.082.278-.125.569-.125.866 0 1.68 1.367 3.047 3.046 3.047s3.046-1.367 3.046-3.047c0-.109-.007-.218-.018-.326-2.986-.089-4.906-.35-5.949-.539z"/></svg>