<svg id="Layer_1" viewBox="0 0 24 24" xmlns="http://www.w3.org/2000/svg" data-name="Layer 1"><path d="m20.634 10.563c-.513 0-.948-.392-.995-.911-.087-.972-.217-1.938-.386-2.869-.098-.544.263-1.064.806-1.163.549-.097 1.064.264 1.163.806.179.991.317 2.018.409 3.049.049.55-.357 1.036-.907 1.085-.03.003-.061.004-.09.004z" opacity=".5"/><path d="m17.416 4.751c-.06 0-.12-.005-.181-.017-.964-.176-1.937-.312-2.891-.404-.55-.053-.952-.541-.899-1.091.053-.551.548-.971 1.091-.899 1.011.097 2.039.241 3.059.428.544.1.903.62.804 1.163-.088.482-.509.82-.982.82z" opacity=".5"/><path d="m19.709 1h-.042c-.963 0-1.692.226-2.228.69-.644.559-.96 1.396-.967 2.56-.007 1.167.299 2.009.934 2.573.714.635 1.633.713 2.262.717h.042c.963 0 1.692-.226 2.227-.689.644-.559.96-1.396.968-2.56.009-1.492-.538-3.273-3.195-3.291z"/><path d="m4.332 1h-.042c-.963 0-1.692.226-2.228.69-.643.559-.959 1.396-.967 2.56-.007 1.167.299 2.009.935 2.573.713.635 1.633.713 2.261.717h.042c.964 0 1.692-.226 2.228-.689.644-.559.96-1.396.967-2.561.009-1.491-.538-3.272-3.195-3.29z"/><path d="m6.584 4.751c-.474 0-.895-.338-.982-.82-.1-.543.26-1.063.804-1.163 1.02-.187 2.048-.331 3.059-.428.539-.054 1.038.349 1.091.899s-.35 1.038-.899 1.091c-.954.092-1.927.229-2.891.404-.061.012-.121.017-.181.017z" opacity=".5"/><path d="m3.366 10.563c-.029 0-.06 0-.091-.004-.55-.05-.955-.535-.906-1.086.092-1.025.229-2.047.407-3.035.099-.543.609-.905 1.162-.807.543.099.904.618.807 1.162-.168.93-.297 1.892-.384 2.859-.047.52-.483.91-.995.91z" opacity=".5"/><path d="m3.762 18.396c-.475 0-.896-.339-.983-.821-.179-.991-.317-2.018-.409-3.049-.049-.55.357-1.036.907-1.085.563-.048 1.035.358 1.085.907.087.972.217 1.938.386 2.869.098.544-.263 1.064-.806 1.163-.061.011-.121.016-.18.016z" opacity=".5"/><path d="m9.561 21.665c-.032 0-.064 0-.097-.005-1.011-.097-2.039-.241-3.059-.428-.544-.1-.903-.62-.804-1.163s.622-.908 1.163-.804c.964.176 1.937.312 2.891.404.55.053.952.541.899 1.091-.05.518-.484.904-.994.904z" opacity=".5"/><path d="m6.594 17.177c-.714-.635-1.633-.713-2.262-.717h-.042c-.963 0-1.692.226-2.227.689-.644.559-.96 1.396-.968 2.56-.009 1.492.538 3.273 3.195 3.291h.042c.963 0 1.692-.226 2.228-.69.644-.559.96-1.396.967-2.56.007-1.167-.299-2.009-.934-2.573z"/><path d="m21.97 17.177c-.713-.635-1.633-.713-2.261-.717h-.042c-.964 0-1.692.226-2.228.689-.644.559-.96 1.396-.967 2.561-.009 1.491.538 3.272 3.195 3.29h.042c.963 0 1.692-.226 2.228-.69.643-.559.959-1.396.967-2.56.007-1.167-.299-2.009-.935-2.573z"/><path d="m14.439 21.665c-.51 0-.944-.387-.994-.904-.053-.55.35-1.038.899-1.091.954-.092 1.927-.229 2.891-.404.544-.104 1.064.261 1.163.804.1.543-.26 1.063-.804 1.163-1.02.187-2.048.331-3.059.428-.032.003-.064.005-.097.005z" opacity=".5"/><path d="m20.24 18.384c-.059 0-.118-.005-.179-.016-.543-.099-.904-.618-.807-1.162.168-.93.297-1.892.384-2.859.05-.549.515-.954 1.086-.906.55.05.955.535.906 1.086-.092 1.025-.229 2.047-.407 3.035-.088.483-.509.822-.983.822z" opacity=".5"/></svg>