<svg id="Layer_1" viewBox="0 0 24 24" xmlns="http://www.w3.org/2000/svg" data-name="Layer 1"><path d="m7.844 17.976c-.375 0-.747-.046-1.101-.155-.902-.277-1.637-.886-2.068-1.714-.423-.812-.502-1.739-.222-2.609.579-1.802 2.542-2.81 4.378-2.244 2.188.673 3.47 3.789 3.609 4.142.177.45.006.963-.405 1.217-.263.162-2.274 1.364-4.191 1.364zm-.513-2.066c.758.232 1.982-.172 2.872-.585-.486-.912-1.228-1.935-1.959-2.16-.796-.243-1.64.18-1.887.946-.115.357-.082.737.092 1.071.182.35.496.608.883.728z"/><path d="m12 1c-4.895 0-10.514.896-10.514 7.88 0 2.148.553 3.866 1.647 5.132-1.094.876-1.647 2.194-1.647 3.935 0 2.792 1.41 4.485 4.191 5.034.065.013.13.019.194.019.468 0 .886-.33.98-.807.107-.542-.246-1.068-.788-1.174-1.855-.366-2.578-1.227-2.578-3.072 0-1.588.59-2.251 1.256-2.617.46.222 1.024.062 1.292-.385.284-.474.131-1.088-.343-1.372-1.505-.903-2.206-2.394-2.206-4.692 0-4.231 2.387-5.88 8.514-5.88s8.514 1.649 8.514 5.88-2.387 5.88-8.514 5.88h-.309s-.006-.001-.009-.001c-.548 0-.995.442-1 .991-.005.552.438 1.004.991 1.009h.327c4.895.001 10.514-.894 10.514-7.879s-5.617-7.881-10.512-7.881z" opacity=".5"/></svg>