<svg id="Layer_1" viewBox="0 0 24 24" xmlns="http://www.w3.org/2000/svg" data-name="Layer 1"><path d="m21.076 2.134c.074-.547-.31-1.051-.856-1.125-.547-.078-1.052.309-1.126.856-.012.088-1.252 8.745-7.094 10.125-5.823-1.376-7.082-10.037-7.094-10.125-.076-.547-.579-.934-1.127-.855-.547.075-.93.578-.855 1.125.055.406 1.397 9.59 8.076 11.632v8.234c0 .552.447 1 1 1s1-.448 1-1v-8.235c6.679-2.042 8.021-11.225 8.076-11.632z" opacity=".5"/><path d="m17.574 14.146h-11.148c-.553 0-1-.448-1-1s.447-1 1-1h11.148c.553 0 1 .448 1 1s-.447 1-1 1z"/><path d="m17.574 17.919h-11.148c-.553 0-1-.448-1-1s.447-1 1-1h11.148c.553 0 1 .448 1 1s-.447 1-1 1z"/></svg>