<svg id="Layer_1" viewBox="0 0 24 24" xmlns="http://www.w3.org/2000/svg" data-name="Layer 1"><path d="m20.102 13.084c-.204-.433-.435-.881-.689-1.344-.225-.409-.342-.902-.339-1.427.006-1.131-.067-2.277-.217-3.407-.432-3.256-3.487-5.906-6.906-5.906-3.322 0-6.376 2.649-6.809 5.906-.15 1.13-.223 2.276-.217 3.407.003.524-.114 1.018-.34 1.428-.253.46-.484.907-.687 1.338-.5 1.06-.54 2.245-.112 3.335.426 1.089 1.258 1.931 2.341 2.369.671.271 1.383.498 2.299.657.767.7 2.129 2.011 3.64 2.011 1.52 0 2.711-1.345 3.506-2.002.919-.157 1.621-.384 2.311-.665 1.08-.44 1.908-1.281 2.332-2.368.425-1.089.384-2.272-.114-3.331z" opacity=".5"/><path d="m11.999 19.692c-1.512 0-2.646-.092-3.573-.253.016 1.966 1.612 3.561 3.574 3.561s3.553-1.591 3.573-3.554c-.92.158-2.049.246-3.574.246z"/></svg>