<svg id="Layer_1" viewBox="0 0 24 24" xmlns="http://www.w3.org/2000/svg" data-name="Layer 1"><path d="m21.503 6.437c-1.246-2.123-2.7-3.206-4.426-3.294-.952-1.44-2.62-2.143-5.077-2.143s-4.131.702-5.082 2.143c-1.725.09-3.177 1.173-4.422 3.294-1.271 2.165-1.491 3.993-.664 5.563-.827 1.57-.607 3.398.664 5.564 1.244 2.118 2.696 3.2 4.424 3.29.951 1.442 2.621 2.146 5.08 2.146s4.129-.703 5.08-2.146c1.727-.09 3.18-1.173 4.423-3.291 1.271-2.165 1.491-3.993.664-5.563.827-1.57.607-3.398-.664-5.563z" opacity=".5"/><ellipse cx="12" cy="12" rx="4.682" ry="4.676"/></svg>