<svg id="Layer_1" viewBox="0 0 24 24" xmlns="http://www.w3.org/2000/svg" data-name="Layer 1"><ellipse cx="19.887" cy="10.802" rx="3.037" ry="3.064"/><path d="m19.887 11.925c-.552 0-1 .448-1 1 0 1.109-.042 2.25-.124 3.393-.188 2.607-2.28 4.664-4.762 4.682h-.156c-2.48-.018-4.571-2.047-4.758-4.619-.033-.449-.061-.925-.083-1.424 2.785-.196 5.918-1.405 5.918-7.091 0-3.856-1.405-6.092-4.294-6.835-.536-.135-1.08.186-1.217.72-.138.535.185 1.08.719 1.218 1.381.355 2.792 1.214 2.792 4.898 0 4.267-1.884 5.124-4.923 5.124s-4.923-.857-4.923-5.124c0-3.675 1.413-4.537 2.795-4.896.534-.139.855-.685.716-1.219s-.684-.858-1.219-.716c-2.888.749-4.292 2.984-4.292 6.831 0 5.692 3.139 6.896 5.926 7.091.023.55.054 1.075.09 1.569.264 3.604 3.224 6.448 6.729 6.473h.195c3.518-.025 6.479-2.897 6.742-6.538.085-1.19.129-2.38.129-3.537 0-.552-.448-1-1-1z" opacity=".5"/></svg>