<svg id="Layer_1" viewBox="0 0 24 24" xmlns="http://www.w3.org/2000/svg" data-name="Layer 1"><path d="m19.302 8.187c-.104-3.913-3.345-7.064-7.314-7.064-4.035 0-7.318 3.256-7.318 7.257 0 .252.013.504.039.754-2.149.599-3.708 2.558-3.708 4.863 0 1.796.974 3.472 2.542 4.374.374.215.809.323 1.294.323h.028l14.138-.134c.512-.005.987-.137 1.375-.382 1.643-1.034 2.623-2.803 2.623-4.732 0-2.368-1.513-4.461-3.698-5.259z" opacity=".5"/><path d="m12.571 9.801c-.351-.244-.816-.238-1.162.014-.226.165-2.205 1.665-2.205 3.446 0 1.542 1.254 2.795 2.796 2.795s2.796-1.254 2.796-2.795c0-1.858-1.997-3.302-2.225-3.46z"/><path d="m15.844 16.622c-.35-.244-.816-.238-1.162.014-.226.165-2.205 1.665-2.205 3.446 0 1.542 1.254 2.795 2.796 2.795s2.796-1.254 2.796-2.795c0-1.858-1.997-3.302-2.225-3.46z"/><path d="m9.299 16.622c-.35-.244-.816-.238-1.162.014-.226.165-2.205 1.665-2.205 3.446 0 1.542 1.254 2.795 2.796 2.795s2.796-1.254 2.796-2.795c0-1.858-1.997-3.302-2.225-3.46z"/></svg>