<svg id="Layer_1" viewBox="0 0 24 24" xmlns="http://www.w3.org/2000/svg" data-name="Layer 1"><path d="m21.806 2.858c-.1-.326-.358-.578-.686-.671-.16-.045-3.72-1.034-8.119-1.172-.367.357-.753.878-1.091.878-.257 0-.415-.01-.668-.003-.448.011-.899-.371-1.325-.823-3.882.245-6.891 1.08-7.038 1.12-.329.093-.588.347-.687.674-.042.139-.894 3.001-1.132 7.062.438.401 1.091.982 1.081 1.434-.005.249-.042.429-.042.685 0 .34-.583.691-1.086.959.132 4.658 1.134 7.991 1.18 8.14.1.326.358.578.686.671.16.045 3.719 1.034 8.118 1.172.363-.283 1.326-1.087 1.664-1.087.923 0 1.13.75 2.005.994 3.595-.286 6.314-1.04 6.453-1.079.329-.093.588-.347.687-.674.04-.132.813-2.729 1.093-6.479-.467-.87-.765-1.401-.765-2.335 0-.34.497-.985.851-1.325-.131-4.658-1.135-7.992-1.18-8.141z" opacity=".5"/><path d="m22.986 10.999h-9.985v-9.983c-.33-.01-.664-.016-1.001-.016-.713 0-1.411.025-2.082.067l-8.857 8.857c-.039.662-.061 1.357-.061 2.076 0 .34.005.674.014 1.001h9.983v9.982c.33.01.664.016 1.003.016.923 0 1.819-.042 2.667-.109l8.233-8.232c.062-.834.1-1.725.1-2.659 0-.34-.005-.673-.014-1.001zm-11.987 0h-2.849l2.849-2.848zm0-5.68-5.681 5.68h-2.501l8.181-8.181v2.501zm2.002 7.682h3.393l-3.393 3.393zm0 6.225 6.225-6.225h2.5l-8.725 8.725z"/></svg>