<svg id="Layer_1" viewBox="0 0 24 24" xmlns="http://www.w3.org/2000/svg" data-name="Layer 1"><path d="m22.186 5.654c-.288-1.088-1.198-1.925-2.319-2.131-5.072-.927-10.66-.928-15.735 0-1.12.206-2.03 1.042-2.318 2.13-.143.541-.267 1.089-.372 1.643.172.312 1.145.849 1.145.849s-1.177.773-1.441 1.151c-.323 3.028-.1 6.143.668 9.049.288 1.088 1.198 1.925 2.319 2.131 2.537.464 5.202.696 7.867.696s5.331-.232 7.867-.696t0 0c1.12-.206 2.03-1.042 2.318-2.13.768-2.906.991-6.022.668-9.049-.519-.334-1.308-1.067-1.308-1.067s.497-.453 1.012-.933c-.105-.554-.229-1.102-.372-1.643z" opacity=".5"/><circle cx="7.63" cy="14.298" r="2.491"/><path d="m17.861 15.365h-3.313c-.552 0-1-.448-1-1s.448-1 1-1h3.313c.552 0 1 .448 1 1s-.448 1-1 1z"/><path d="m22.558 7.297h-21.116c-.125.66-.224 1.328-.296 2h21.708c-.072-.672-.17-1.34-.296-2z"/></svg>