<svg id="Layer_1" viewBox="0 0 24 24" xmlns="http://www.w3.org/2000/svg" data-name="Layer 1"><path d="m12.375 16.394c-.382 0-.747-.221-.914-.592-.225-.504 0-1.096.505-1.321 1.396-.624 2.333-1.825 2.765-2.48-.432-.654-1.369-1.857-2.765-2.481-.504-.226-.73-.817-.505-1.321.227-.504.818-.729 1.321-.505 2.633 1.177 3.95 3.749 4.006 3.857.142.283.142.617 0 .899-.056.109-1.373 2.679-4.006 3.856-.132.059-.271.087-.408.087z"/><path d="m8.106 15.844c-.382 0-.747-.221-.914-.592-.225-.504 0-1.096.505-1.321 1.264-.565 2.154-1.389 2.646-1.931-.491-.541-1.381-1.365-2.646-1.931-.504-.226-.73-.817-.505-1.321.226-.504.817-.729 1.321-.505 2.575 1.152 3.893 3.125 3.948 3.208.219.333.219.766 0 1.099-.055.083-1.373 2.055-3.948 3.207-.132.059-.271.087-.408.087z" opacity=".5"/></svg>