<svg id="Layer_1" viewBox="0 0 24 24" xmlns="http://www.w3.org/2000/svg" data-name="Layer 1"><path d="m15.141 16.075h-9.697c-.552 0-1-.447-1-1s.448-1 1-1h9.697c.552 0 1 .447 1 1s-.448 1-1 1z"/><path d="m20.504 16.075h-1.826c-.552 0-1-.447-1-1s.448-1 1-1h1.826c.552 0 1 .447 1 1s-.448 1-1 1z"/><path d="m15.141 23h-9.697c-.552 0-1-.447-1-1s.448-1 1-1h9.697c.552 0 1 .447 1 1s-.448 1-1 1z"/><path d="m20.504 23h-1.826c-.552 0-1-.447-1-1s.448-1 1-1h1.826c.552 0 1 .447 1 1s-.448 1-1 1z"/><path d="m18.556 19.538h-9.697c-.552 0-1-.447-1-1s.448-1 1-1h9.697c.552 0 1 .447 1 1s-.448 1-1 1z"/><path d="m5.321 19.538h-1.826c-.552 0-1-.447-1-1s.448-1 1-1h1.826c.552 0 1 .447 1 1s-.448 1-1 1z"/><path d="m19.305 3.917c-1.068-1.809-2.991-2.917-5.109-2.917-1.126 0-2.203.31-3.144.901-.455-.125-.926-.188-1.404-.188-1.598 0-3.101.718-4.107 1.941-1.743.314-3.045 1.836-3.045 3.662 0 2.022 1.616 3.673 3.62 3.721 1.382 1.227 3.411 1.653 5.154 1.092.89.507 1.892.772 2.927.772 1.689 0 3.27-.706 4.395-1.95 1.688-.367 2.913-1.861 2.913-3.636 0-1.491-.868-2.809-2.199-3.4z" opacity=".5"/></svg>