<svg id="Layer_1" viewBox="0 0 24 24" xmlns="http://www.w3.org/2000/svg" data-name="Layer 1"><path d="m16.06 10.787c-.552 0-1-.448-1-1 0-.569-.452-1.031-1.006-1.031s-1-.448-1-1 .448-1 1-1c1.658 0 3.006 1.36 3.006 3.031 0 .552-.448 1-1 1z"/><path d="m20.209 11.192c-.552 0-1-.448-1-1 0-3.036-2.434-5.506-5.425-5.506-.552 0-1-.448-1-1s.448-1 1-1c4.094 0 7.425 3.367 7.425 7.506 0 .552-.448 1-1 1z"/><path d="m22.772 15.934c-.48-1.47-1.67-2.622-3.182-3.083-1.727-.526-3.596-.082-4.88 1.158l-.18.174c-.915-.324-2.165-1.159-2.874-1.837-.699-.714-1.539-1.943-1.868-2.846l.167-.17c1.259-1.274 1.708-3.132 1.174-4.85-.467-1.499-1.631-2.676-3.114-3.149-1.694-.542-3.524-.096-4.788 1.162-.373.326-2.765 2.575-2.116 6.072.662 3.352 3.052 6.998 5.152 9.149 2.151 2.053 5.834 4.417 9.224 5.071.414.075.81.108 1.188.108 2.829 0 4.628-1.875 4.919-2.2 1.276-1.254 1.728-3.074 1.178-4.76z" opacity=".5"/></svg>