<svg id="Layer_1" viewBox="0 0 24 24" xmlns="http://www.w3.org/2000/svg" data-name="Layer 1"><path d="m21.745 6.11c-.142-.285-.411-.486-.725-.541-.096-.017-1.433-.245-3.444-.441-.347.201-.565.385-1.002.351-.349-.027-.952-.306-1.327-.534-1.013-.06-2.109-.099-3.247-.099s-2.229.039-3.241.099c-.553.315-1.064.668-1.488.702-.348.028-.685-.354-.842-.52-2.012.196-3.353.425-3.45.441-.315.055-.586.257-.727.544-.051.104-1.253 2.589-1.253 5.886 0 3.325 1.204 5.787 1.255 5.89.142.285.411.486.725.541.096.017 1.433.245 3.443.441.343.033.617-.656.996-.626.398.032.903.783 1.335.809 1.012.06 2.108.099 3.246.099s2.238-.039 3.253-.1c.482-.3.827-.862 1.217-.893s.702.411 1.115.71c2.005-.195 3.34-.423 3.436-.44.315-.055.586-.257.727-.544.051-.104 1.253-2.589 1.253-5.886 0-3.325-1.204-5.787-1.255-5.89z" opacity=".5"/><circle cx="10" cy="10" r="1"/><circle cx="10" cy="14" r="1"/><circle cx="14" cy="10" r="1"/><circle cx="14" cy="14" r="1"/><path d="m17.131 12c0 3.08-1.124 5.665-1.879 7.054.843-.05 1.628-.115 2.331-.183.76-1.669 1.547-4.072 1.547-6.87s-.793-5.197-1.555-6.872c-.702-.068-1.487-.133-2.33-.183.756 1.397 1.884 3.995 1.884 7.054z"/><path d="m6.875 12c0-3.059 1.128-5.657 1.884-7.054-.842.05-1.627.114-2.33.183-.762 1.674-1.555 4.086-1.555 6.872s.788 5.203 1.548 6.872c.703.068 1.488.133 2.331.183-.755-1.389-1.879-3.974-1.879-7.054z"/></svg>