<svg id="Layer_1" viewBox="0 0 24 24" xmlns="http://www.w3.org/2000/svg" data-name="Layer 1"><path d="m18.437 7.498c-2.682 0-3.244-1.763-3.244-3.241s.562-3.242 3.244-3.242 3.245 1.763 3.245 3.242-.563 3.241-3.245 3.241zm0-4.483c-.964 0-1.244.163-1.244 1.242s.28 1.241 1.244 1.241 1.245-.163 1.245-1.241-.28-1.242-1.245-1.242z"/><path d="m13.61 10.101c-.011-1.732-.04-4.557-.081-5.199-.142-2.188-2.005-3.901-4.241-3.901s-4.1 1.714-4.241 3.901c-.042.651-.07 3.504-.081 5.2-1.78 1.069-2.648 3.03-2.648 5.969 0 6.211 3.979 6.93 6.971 6.93s6.971-.719 6.971-6.93c0-2.939-.867-4.9-2.648-5.97z" opacity=".5"/><path d="m10.288 13.303v-1.303c0-.553-.447-1-1-1s-1 .447-1 1v1.303c-1.138.409-1.954 1.495-1.954 2.768 0 1.622 1.325 2.941 2.954 2.941s2.954-1.319 2.954-2.941c0-1.273-.816-2.359-1.954-2.768z"/></svg>