<svg id="Layer_1" viewBox="0 0 24 24" xmlns="http://www.w3.org/2000/svg" data-name="Layer 1"><path d="m15.734 4.252h3.829c.553 0 1-.448 1-1s-.447-1-1-1h-3.829c-.553 0-1 .448-1 1s.447 1 1 1z"/><path d="m1 12.912c0 3.597 1.187 6.306 1.236 6.419.134.299.404.515.727.576.047.009.386.073.952.161.234.306 1 1.007 1 1.007s.714-.323 1-.736c1.621.189 3.769.368 6.085.368s4.466-.179 6.085-.367c.319.257.662.775.955.736.403-.054.88-.654 1.045-1.007.567-.088.906-.153.953-.162.319-.061.59-.274.724-.572.051-.112 1.238-2.795 1.238-6.423 0-3.597-1.187-6.306-1.236-6.419-.134-.299-.404-.515-.727-.576-.078-.015-.98-.184-2.388-.362v-2.143c0-.552-.447-.569-1-.569s-.962.316-1 1.253v1.242c-1.37-.125-2.962-.22-4.649-.22-.007 0-.014 0-.021 0-1.415 0-3.97-.888-3.97-.888s-3.792 1.472-4.572 1.604c-.278.047-.443.078-.475.084-.319.061-.59.274-.724.572-.051.112-1.238 2.795-1.238 6.423zm11.12 1s.603-.448.603-1-.589-1-.589-1c.323-2.156 1.72-3.253 4.168-3.263h.032c1.406 0 2.437.346 3.147 1.057.943.943 1.048 2.276 1.045 3.197-.01 2.824-1.437 4.261-4.241 4.272h-.032c-1.406 0-2.437-.346-3.147-1.057-.64-.64-.89-1.458-.986-2.206zm-8.587-.992c.012-2.823 1.438-4.26 4.241-4.271 1.468-.005 2.465.34 3.181 1.057.943.943 1.048 2.276 1.045 3.197-.012 2.824-1.438 4.261-4.241 4.271h-.032c-.942 0-1.701-.17-2.323-.486 0 0 .04-.545-.351-.936s-1.068-.474-1.068-.474c-.395-.799-.454-1.688-.452-2.359z" opacity=".5"/><path d="m3.437 5.833v-1.069c0-.459.378-.876.824-.987 2.253-.558 4.561-.677 6.856-.356.494.069.861.492.861.99v.706c-3.909.002-7.321.51-8.542.716z"/><path d="m16.324 12.912c0 .552-.447 1-1 1h-3.204c-.046-.356-.031-.695-.03-.992.001-.358-.002-.694.045-1.008h3.189c.553 0 1 .448 1 1z"/><path d="m4.642 16.118c-.028-.028-.056-.056-.083-.084-.233-.238-.439-.475-.573-.754l2.652-2.653c.391-.391 1.023-.391 1.414 0 .391.39.391 1.023 0 1.414l-2.648 2.649c-.29-.152-.538-.348-.762-.572z"/><path d="m18.085 20.748c0 .552.447 1 1 1s1-.448 1-1v-.68c-.502.078-1.182.175-2 .271z"/><path d="m3.915 20.748c0 .552.447 1 1 1s1-.448 1-1v-.409c-.817-.095-1.497-.192-2-.27v.68z"/></svg>