<svg id="Layer_1" viewBox="0 0 24 24" xmlns="http://www.w3.org/2000/svg" data-name="Layer 1"><path d="m10.013 22.987c-.053 0-.105-.004-.158-.013-4.841-.777-8.063-3.996-8.842-8.831-.033-.207 0-.419.093-.606.069-.139 1.749-3.458 5.391-7.095 3.675-3.67 6.918-5.263 7.054-5.329.185-.09.391-.12.595-.087 3.381.543 5.521 2.684 6.027 6.028.031.201 0 .406-.09.588-.066.137-1.676 3.39-5.335 7.045-3.076 3.071-5.451 3.675-5.551 3.7-.297.073-.611.004-.853-.184-1.233-.966-1.567-1.305-2.539-2.578-.186-.239-.255-.553-.183-.851.024-.1.629-2.473 3.705-5.544 1.025-1.024 2.116-1.983 3.243-2.851.439-.336 1.066-.255 1.402.183.337.438.256 1.065-.182 1.402-1.06.815-2.086 1.717-3.05 2.681-1.916 1.912-2.723 3.47-3.022 4.187.513.654.806.952 1.43 1.457.715-.3 2.273-1.107 4.185-3.016 2.818-2.814 4.353-5.405 4.808-6.234-.431-2.19-1.771-3.527-3.994-3.98-.83.454-3.412 1.978-6.237 4.8-2.812 2.807-4.395 5.45-4.865 6.295.706 3.69 3.104 6.085 6.8 6.79.846-.47 3.493-2.051 6.304-4.859 3.44-3.435 4.938-6.475 4.952-6.505.241-.497.84-.704 1.336-.462.497.241.704.84.463 1.336-.066.136-1.662 3.376-5.337 7.046-3.641 3.637-6.964 5.314-7.104 5.384-.14.069-.292.105-.446.105z" opacity=".5"/></svg>