<svg id="Layer_1" viewBox="0 0 24 24" xmlns="http://www.w3.org/2000/svg" data-name="Layer 1"><path d="m21.197 7.189c-.447-2.783-2.416-5.008-5.015-5.669-1.342-.341-2.749-.516-4.185-.521-1.431.004-2.837.179-4.179.521-2.599.661-4.568 2.886-5.015 5.669-.654 4.07-.579 8.38.23 13.176.209 1.244 1.099 2.213 2.32 2.531.272.071.545.105.814.105.939 0 1.83-.42 2.442-1.184.633-.79 1.304-1.645 1.98-2.508l1.069-1.36c.114-.145.264-.167.342-.167s.228.021.342.167l1.069 1.36c.677.863 1.348 1.718 1.98 2.508.788.982 2.035 1.396 3.256 1.078 1.221-.317 2.11-1.287 2.319-2.53.809-4.796.885-9.106.23-13.176z" opacity=".5"/></svg>