<svg id="Layer_1" viewBox="0 0 24 24" xmlns="http://www.w3.org/2000/svg" data-name="Layer 1"><path d="m17.563 8.167h-11.126c-.553 0-1-.448-1-1s.447-1 1-1h11.127c.553 0 1 .448 1 1s-.447 1-1 1z"/><path d="m17.563 4.465h-11.126c-.553 0-1-.448-1-1s.447-1 1-1h11.127c.553 0 1 .448 1 1s-.447 1-1 1z"/><path d="m22.708 10.036c-.188-.188-.442-.295-.709-.295h-5.955c-.517 0-.948.394-.996.908-.049.534-.132 1.071-.246 1.604-1.863.4-3.74.4-5.604 0-.114-.533-.197-1.07-.246-1.604-.048-.514-.479-.908-.996-.908h-5.955c-.267 0-.521.106-.709.295s-.293.445-.291.711c.031 4.996 1.145 8.766 1.191 8.924.1.332.363.588.697.678.179.048 4.436 1.185 9.11 1.185 4.837 0 8.947-1.139 9.12-1.188.329-.093.588-.347.687-.674.048-.157 1.161-3.9 1.192-8.926.002-.267-.103-.522-.291-.711z" opacity=".5"/></svg>