<svg id="Layer_1" viewBox="0 0 24 24" xmlns="http://www.w3.org/2000/svg" data-name="Layer 1"><path d="m12.238 2.442c-4.899-.861-9.581 2.109-10.893 6.898-1 3.645.25 7.55 3.179 9.944.108.09 2.711 2.205 6.758 2.205.537 0 .978-.424.999-.96l.177-4.438c.011-.282-.097-.556-.299-.754-2.489-2.442-2.334-3.931-2.39-4.536-.002-.646.029-1.73.329-2.827.532-1.942 1.315-3.134 2.394-3.643.394-.186.622-.606.564-1.038-.059-.432-.39-.776-.819-.851z" opacity=".5"/><path d="m20.499 13.564c-.181-2.735-2.464-4.905-5.244-4.905-2.898 0-5.256 2.357-5.256 5.255 0 .096.002.191.008.287-1.452.523-2.48 1.913-2.48 3.533 0 2.07 1.685 3.754 3.755 3.754h7.588c2.277 0 4.13-1.853 4.13-4.129 0-1.67-1.013-3.155-2.501-3.795z"/></svg>