<svg id="Layer_1" viewBox="0 0 24 24" xmlns="http://www.w3.org/2000/svg" data-name="Layer 1"><path d="m22.246 10c-.1-.325-.357-.578-.685-.671-.109-.031-2.694-.751-5.746-.751s-5.635.721-5.744.751c-.329.093-.588.347-.687.674-.03.102-.753 2.54-.753 5.777 0 3.266.724 5.679.754 5.781.1.325.357.578.685.671.109.031 2.694.751 5.745.751s5.636-.721 5.745-.751c.329-.093.588-.347.687-.674.03-.102.753-2.54.753-5.777 0-3.265-.724-5.679-.754-5.78z" opacity=".5"/><circle cx="13.886" cy="13.844" r="1"/><circle cx="17.752" cy="17.71" r="1"/><path d="m14.82 4.687c-2.303-2.31-4.518-3.503-4.61-3.553-.004-.002-.008-.004-.012-.006-.298-.154-.654-.148-.949.017-.098.055-2.434 1.378-4.59 3.542-2.152 2.159-3.477 4.505-3.532 4.604-.164.294-.169.65-.015.948.002.004.004.008.006.012.05.094 1.258 2.331 3.541 4.621.689.691 1.369 1.281 1.988 1.771-.01-.281-.015-.569-.015-.863 0-3.431.75-6.058.838-6.353.297-.987 1.067-1.743 2.06-2.023.301-.085 3.032-.826 6.286-.826.235 0 .467.004.696.011-.475-.597-1.039-1.247-1.691-1.901zm-9.29 4.783c-.552 0-1-.448-1-1s.448-1 1-1 1 .448 1 1-.448 1-1 1zm2.9-2.9c-.552 0-1-.448-1-1s.448-1 1-1 1 .448 1 1-.448 1-1 1z"/></svg>