<svg id="Layer_1" viewBox="0 0 24 24" xmlns="http://www.w3.org/2000/svg" data-name="Layer 1"><path d="m20.981 3h-12.215c-.553 0-1-.448-1-1s.447-1 1-1h12.216c.553 0 1 .448 1 1s-.447 1-1 1z"/><path d="m15.234 23h-12.215c-.553 0-1-.448-1-1s.447-1 1-1h12.215c.553 0 1 .448 1 1s-.447 1-1 1z"/><path d="m9.224 22.614c-.044 0-.088-.003-.132-.009-.548-.072-.933-.575-.86-1.123.76-5.739 2.569-13.753 5.367-19.031l.487-.92c.259-.488 1.198-.532 1.352-.416.488.259.675.864.416 1.352l-.487.92c-2.675 5.044-4.415 12.791-5.152 18.357-.066.503-.496.869-.99.869z" opacity=".5"/></svg>