<svg id="Layer_1" viewBox="0 0 24 24" xmlns="http://www.w3.org/2000/svg" data-name="Layer 1"><path d="m21.681 2.963c-.101-.211-.272-.381-.485-.479-2.078-.955-4.418-1.364-6.733-1.274-.675.46-.154.824-.899.96-.815.149-2.628-.17-3.75-.078-1.841.649-3.52 1.644-4.857 2.955-1.339 1.313-2.356 2.963-3.022 4.772-.096.899.167 2.448.016 3.192-.157.774-.44.775-.923 1.345-.103 2.295.311 4.618 1.291 6.681.101.211.272.381.485.479 1.891.869 3.997 1.287 6.106 1.287.21 0 .42-.004.629-.012.432-.604.527-.935 1.292-1.078.794-.148 2.207.318 3.359.194 1.839-.65 3.517-1.644 4.853-2.954 1.34-1.314 2.357-2.965 3.023-4.776.093-1.022-.271-2.827-.117-3.677.122-.675.272-.596 1.023-.857.103-2.295-.311-4.618-1.291-6.68z" opacity=".5"/><path d="m16.476 9.704-2.157-2.122c-.394-.386-1.026-.382-1.414.012-.387.394-.382 1.027.012 1.414l.353.347-1.268 1.243-.819-.806c-.394-.386-1.026-.382-1.414.012-.387.394-.382 1.027.012 1.414l.794.781-1.268 1.243-.378-.372c-.394-.387-1.026-.382-1.414.012-.387.394-.382 1.027.012 1.414l2.157 2.122c.195.191.448.287.701.287.259 0 .517-.1.713-.299.387-.394.382-1.027-.012-1.414l-.352-.347 1.268-1.243.819.806c.195.191.448.287.701.287.259 0 .517-.1.713-.299.387-.394.382-1.027-.012-1.414l-.794-.781 1.268-1.243.378.372c.195.191.448.287.701.287.259 0 .517-.1.713-.299.387-.394.382-1.027-.012-1.414z"/><g><path d="m1.936 9.819c-.53 1.441-.837 2.983-.907 4.537.767 1.842 1.9 3.54 3.355 4.995.031.032.063.063.094.094 1.467 1.443 3.191 2.574 5.062 3.345 1.593-.063 3.173-.362 4.65-.884-3.118-.303-6.057-1.675-8.308-3.889-2.307-2.225-3.658-5.121-3.946-8.198z"/><path d="m19.618 4.648c-.031-.032-.063-.063-.094-.094-1.467-1.443-3.19-2.574-5.062-3.344-1.592.062-3.172.362-4.648.883 3.118.304 6.056 1.677 8.306 3.89 2.278 2.261 3.655 5.123 3.946 8.194.529-1.44.836-2.98.906-4.533-.766-1.841-1.899-3.54-3.354-4.995z"/></g></svg>