<svg id="Layer_1" viewBox="0 0 24 24" xmlns="http://www.w3.org/2000/svg" data-name="Layer 1"><path d="m20.481 13.151c-.636-1.959-1.663-3.744-2.994-5.262.125-.442.387-1.359.145-1.6-.231-.23-.897.033-1.56.186-1.494-1.308-3.253-2.33-5.193-2.977-.361-.119-.759-.027-1.027.243l-6.32 6.352c-.046.047-.092.094-.137.141.241.664.388 1.332.19 1.597-.206.276-.652.105-1.398.024-.992 1.732-1.355 3.783-.977 5.794l.414 2.203c.249 1.32 1.258 2.335 2.574 2.584l2.192.415c.522.1 1.046.147 1.567.147 1.48 0 2.93-.392 4.206-1.13-.208-.786-.011-1.192.241-1.378.29-.214.809.076 1.374.163.048-.046.095-.092.141-.139l6.32-6.352c.265-.266.358-.657.242-1.014z" opacity=".5"/><path d="m22.642 1.291c-.392-.389-1.025-.386-1.414.003l-5.155 5.181c.503.44.975.913 1.415 1.414l5.158-5.184c.39-.392.388-1.025-.004-1.415z"/><path d="m11.688 18.563c-1.33-1.336-1.33-3.511 0-4.847l1.718-1.726c.39-.392.388-1.025-.004-1.415-.39-.389-1.023-.389-1.414.003 0 0-1.743 1.752-1.756 1.765-.643.638-1.482.988-2.368.988-.89 0-1.732-.354-2.374-1l-2.095-2.099c-.471.496-.875 1.041-1.208 1.622l1.885 1.889c1.019 1.024 2.365 1.588 3.791 1.588.304 0 .605-.026.9-.076-.271 1.666.231 3.436 1.507 4.719l1.891 1.894c.579-.335 1.122-.741 1.615-1.214l-2.089-2.092z"/></svg>