<svg id="Layer_1" viewBox="0 0 24 24" xmlns="http://www.w3.org/2000/svg" data-name="Layer 1"><path d="m19.386 2.935c-.072-.327-.303-.595-.614-.716-.128-.05-3.173-1.218-6.771-1.218s-6.643 1.168-6.771 1.218c-.312.121-.543.391-.615.718-.035.16-.856 3.971-.856 9.063 0 5.135.822 8.908.856 9.065.072.327.303.595.614.716.128.05 3.173 1.218 6.771 1.218s6.643-1.168 6.771-1.218c.312-.121.543-.391.615-.718.035-.16.856-3.971.856-9.063 0-5.135-.822-8.908-.856-9.065z" opacity=".5"/><path d="m12 10.06c-2.413 0-2.773-1.738-2.773-2.773s.36-2.773 2.773-2.773 2.773 1.737 2.773 2.773-.36 2.773-2.773 2.773zm0-3.546c-.666 0-.773.052-.773.773s.107.773.773.773.773-.053.773-.773-.107-.773-.773-.773z"/><path d="m12 19.452c-2.686 0-4.047-1.362-4.047-4.047s1.362-4.047 4.047-4.047 4.047 1.362 4.047 4.047-1.362 4.047-4.047 4.047zm0-6.095c-1.416 0-2.047.295-2.047 2.047s.632 2.047 2.047 2.047 2.047-.295 2.047-2.047-.632-2.047-2.047-2.047z"/><circle cx="12" cy="15.404" r="1"/></svg>