<svg id="Layer_1" viewBox="0 0 24 24" xmlns="http://www.w3.org/2000/svg" data-name="Layer 1"><path d="m19.508 9.425c-.036-.524-.471-.932-.997-.932l-13.622-.007c-.525 0-.961.407-.998.931-.075 1.077-.118 2.095-.118 2.794 0 4.117.71 6.707.741 6.815.048.174.143.331.274.456.199.189 2.084 1.85 6.916 1.85 4.921 0 6.742-1.675 6.933-1.867.122-.122.21-.273.257-.439.03-.107.73-2.665.73-6.814 0-.694-.042-1.709-.116-2.786z" opacity=".5"/><path d="m22.807 10.375c-.07-.671-.216-1.653-.424-2.839 0 0 0 0 0-.002-.002-.01-.004-.02-.006-.03-.002-.009-.003-.017-.005-.026-.002-.008-.004-.016-.006-.024-.003-.012-.006-.023-.01-.035-.002-.005-.003-.011-.005-.016-.005-.016-.011-.032-.016-.048v-.002c-.057-.152-.149-.284-.265-.388-.001-.001-.002-.002-.003-.003-.013-.011-.026-.022-.039-.033-.003-.002-.005-.004-.008-.007-.015-.012-.03-.023-.045-.034-.085-.059-2.119-1.472-5.48-2.838-2.318-.942-4.521-1.349-4.614-1.365-.118-.021-.239-.021-.357 0-.093.017-2.295.423-4.614 1.365-3.365 1.367-5.399 2.78-5.484 2.839-.267.188-.426.493-.426.819s.159.632.426.819c.085.059 2.119 1.472 5.48 2.838 2.318.942 4.521 1.349 4.614 1.365.059.011.119.016.179.016s.12-.005.179-.016c.093-.017 2.295-.423 4.614-1.365 1.8-.732 3.219-1.477 4.163-2.02.074.488.129.905.164 1.235.417 4.012-.016 6.588-.021 6.613-.094.543.27 1.062.813 1.156.059.01.116.015.173.015.476 0 .898-.341.983-.826.02-.114.488-2.852.04-7.165z"/></svg>