<svg id="Layer_1" viewBox="0 0 24 24" xmlns="http://www.w3.org/2000/svg" data-name="Layer 1"><path d="m19.302 8.62c-.104-3.913-3.345-7.064-7.315-7.064-4.035 0-7.317 3.256-7.317 7.257 0 .252.013.504.039.754-2.149.598-3.708 2.557-3.708 4.863 0 1.809.984 3.49 2.569 4.389.365.206.789.312 1.257.313l13.795.058h.013c.396 0 .761-.075 1.086-.225 1.992-.914 3.279-2.911 3.279-5.087 0-2.369-1.512-4.461-3.698-5.26z" opacity=".5"/><path d="m10.985 22.445c-.098 0-.198-.015-.297-.045-.527-.164-.822-.724-.659-1.251l1.81-5.833c.164-.528.724-.824 1.251-.659.527.164.822.724.659 1.251l-1.81 5.833c-.133.429-.528.704-.955.704z"/><path d="m7.045 22.445c-.098 0-.198-.015-.297-.045-.527-.164-.822-.724-.659-1.251l1.81-5.833c.164-.528.725-.824 1.251-.659.527.164.822.724.659 1.251l-1.81 5.833c-.133.429-.528.704-.955.704z"/><path d="m14.926 22.445c-.098 0-.198-.015-.297-.045-.527-.164-.822-.724-.659-1.251l1.81-5.833c.163-.528.723-.824 1.251-.659.527.164.822.724.659 1.251l-1.81 5.833c-.133.429-.528.704-.955.704z"/></svg>