<svg id="Layer_1" viewBox="0 0 24 24" xmlns="http://www.w3.org/2000/svg" data-name="Layer 1"><path d="m21.361 3.273c-.095-.31-.342-.551-.654-.639-.164-.047-4.078-1.134-8.706-1.134s-8.542 1.087-8.707 1.133c-.314.089-.561.331-.655.643-.047.154-1.139 3.825-1.139 8.723 0 4.94 1.093 8.574 1.14 8.727.095.31.342.551.654.639.164.047 4.078 1.134 8.706 1.134s8.541-1.087 8.706-1.134c.314-.089.561-.331.655-.643.047-.154 1.139-3.825 1.139-8.723 0-4.94-1.093-8.574-1.14-8.727z" opacity=".5"/><path d="m6.231 6.129h3.769v4h-3.769z"/><path d="m14 6.129h3.769v4h-3.769z"/><path d="m10 10.129h4v4h-4z"/><path d="m21.806 2.858c-.1-.325-.358-.578-.686-.67-.172-.049-4.272-1.188-9.121-1.188s-8.947 1.139-9.119 1.188c-.329.093-.588.347-.687.674-.049.161-1.193 4.007-1.193 9.139 0 5.175 1.146 8.982 1.194 9.142.1.325.358.578.686.67.172.049 4.272 1.188 9.121 1.188s8.948-1.139 9.12-1.188c.329-.093.588-.347.687-.674.049-.161 1.193-4.007 1.193-9.139 0-5.175-1.146-8.982-1.194-9.142zm-.882 11.271c-.101 1.56-.292 2.93-.486 4.001h-2.668v2.353c-1.061.181-2.359.352-3.77.444v-2.798h-4v2.798c-1.412-.092-2.709-.262-3.77-.444v-2.354h-2.671c-.194-1.068-.384-2.436-.484-4.001h3.156v-4h-3.171c.088-1.539.266-2.91.455-3.999h2.715v-2.612c1.061-.181 2.359-.352 3.77-.444v3.056h4v-3.056c1.412.092 2.709.262 3.77.444v2.614h2.718c.189 1.086.366 2.455.453 3.999h-3.172v4h3.156z"/><path d="m6.231 14.129h3.769v4h-3.769z"/><path d="m14 14.129h3.769v4h-3.769z"/></svg>