<svg id="Layer_1" viewBox="0 0 24 24" xmlns="http://www.w3.org/2000/svg" data-name="Layer 1"><path d="m2.003 9.823c-.03 0-.061-.001-.091-.004-.55-.05-.956-.536-.906-1.086.318-3.523 1.03-5.912 1.061-6.012.099-.327.357-.581.687-.674.104-.029 2.591-.721 5.979-1.045.557-.05 1.038.351 1.09.9.053.55-.351 1.038-.9 1.091-2.305.22-4.197.628-5.085.841-.217.864-.625 2.708-.839 5.078-.047.52-.483.91-.995.91z" opacity=".5"/><path d="m21.999 9.823c-.513 0-.948-.391-.995-.911-.213-2.38-.622-4.218-.84-5.077-.886-.213-2.777-.622-5.086-.841-.55-.052-.953-.541-.9-1.09.052-.549.531-.95 1.09-.901 3.393.323 5.876 1.016 5.98 1.045.327.092.586.345.685.67.03.099.746 2.472 1.063 6.015.049.55-.356 1.036-.907 1.085-.03.002-.061.004-.09.004z" opacity=".5"/><path d="m8.828 23.002c-.031 0-.063-.001-.096-.004-3.393-.323-5.876-1.016-5.98-1.045-.327-.092-.586-.345-.685-.67-.03-.099-.746-2.472-1.063-6.015-.049-.55.356-1.036.907-1.085.561-.04 1.036.357 1.085.907.213 2.38.622 4.218.84 5.077.886.213 2.777.622 5.086.841.55.052.953.541.9 1.09-.049.518-.484.905-.994.905z" opacity=".5"/><path d="m15.172 23.002c-.51 0-.945-.387-.994-.905-.053-.55.351-1.038.9-1.091 2.305-.22 4.197-.628 5.085-.841.217-.864.625-2.708.839-5.078.05-.55.547-.947 1.086-.906.55.05.956.536.906 1.086-.318 3.523-1.03 5.912-1.061 6.012-.099.327-.357.581-.687.674-.104.029-2.591.721-5.979 1.045-.032.003-.064.004-.096.004z" opacity=".5"/></svg>