<svg id="Layer_1" viewBox="0 0 24 24" xmlns="http://www.w3.org/2000/svg" data-name="Layer 1"><path d="m15.908 1.121c-.72-.187-1.314-.157-1.818.093-.596.295-1.008.87-1.225 1.709-.235.906-.316 2.509 1.782 3.055.31.081.597.121.863.121.403 0 .76-.093 1.078-.279.53-.312.901-.863 1.103-1.643.235-.907.315-2.51-1.784-3.056z"/><path d="m7.947 15.472-2.418.226c-.55.052-.954.539-.902 1.089.048.519.484.907.995.907.031 0 .062 0 .094-.004l4.166-.39c-.379-.55-1.554-1.596-1.935-1.828z" opacity=".5"/><path d="m18.858 12.124c-1.086-.681-1.817-1.8-2.005-3.071l-.151-1.024v-.005c-.051-.33-.265-.626-.592-.767-1.139-.492-2.344-.785-3.653-.877-.002 0-1.073-.013-1.073-.013-1.874-.015-3.646.767-4.877 2.175-.363.416-.321 1.047.095 1.411.189.166.424.247.658.247.278 0 .556-.115.753-.342.677-.774 1.584-1.267 2.588-1.431-.772 1.513-1.275 3.161-1.473 4.852 0 .005-.001.01-.002.015-.043.348.101.695.369.912l.734.593c.729.572 1.225 1.303 1.226 1.304 1.099 1.548 1.475 3.5 1.032 5.354l-.074.311c-.128.537.203 1.076.74 1.205.078.019.156.027.233.027.452 0 .862-.309.972-.768l.074-.311c.503-2.105.195-4.308-.842-6.176.386-.427.681-.923.864-1.458l1.099-2.882c.518.977 1.286 1.812 2.246 2.413.165.104.349.152.53.152.333 0 .659-.166.849-.469.293-.469.151-1.086-.317-1.379z"/></svg>