<svg id="Layer_1" viewBox="0 0 24 24" xmlns="http://www.w3.org/2000/svg" data-name="Layer 1"><path d="m19.302 9.125c-.105-3.899-3.346-7.039-7.314-7.039-4.035 0-7.318 3.246-7.318 7.235 0 .25.013.5.039.748-2.149.597-3.708 2.55-3.708 4.849 0 2.183 1.407 4.107 3.501 4.786.243.08.503.12.793.124l10.246.127h1.813c3.113 0 5.646-2.506 5.646-5.586 0-2.361-1.513-4.448-3.698-5.244z" opacity=".5"/><path d="m15.904 12.63.034-.018c.49-.255.68-.859.425-1.349s-.858-.68-1.349-.425l-.276.144v-.311c0-.552-.447-1-1-1s-1 .448-1 1v.311l-.276-.144c-.491-.256-1.095-.065-1.349.425-.255.49-.065 1.094.425 1.349l.034.018-.034.018c-.49.255-.68.859-.425 1.349.178.342.526.538.888.538.155 0 .313-.036.461-.113l.276-.144v.311c0 .552.447 1 1 1s1-.448 1-1v-.311l.276.144c.147.077.306.113.461.113.361 0 .71-.196.888-.538.255-.49.065-1.094-.425-1.349z"/><path d="m12.405 18.955.036-.019c.49-.255.68-.859.425-1.349-.254-.489-.857-.681-1.349-.425l-.276.144v-.311c0-.552-.447-1-1-1s-1 .448-1 1v.311l-.275-.143c-.491-.257-1.096-.065-1.349.425-.255.49-.065 1.094.425 1.349l.036.019-.036.019c-.49.255-.68.859-.425 1.349.178.342.526.538.888.538.155 0 .313-.036.461-.113l.275-.143v.311c0 .552.447 1 1 1s1-.448 1-1v-.311l.276.144c.147.077.306.113.461.113.361 0 .71-.196.888-.538.255-.49.065-1.094-.425-1.349l-.036-.019z"/></svg>