<svg id="Layer_1" viewBox="0 0 24 24" xmlns="http://www.w3.org/2000/svg" data-name="Layer 1"><path d="m22.513 7.968-.315-.489c-1.159-1.798-2.525-3.462-4.06-4.944l-.307-.297c-.507-.49-1.168-.793-1.86-.852-.424-.036-.85-.067-1.278-.092-.519.322-.864.787-.864.787s-.955-.691-1.333-.867c-.167-.002-.333-.004-.5-.005-.13 0-.26.002-.39.003-.501.317-1.375.747-1.375.747s-.475-.323-.86-.668c-.449.026-.897.058-1.343.096-.692.059-1.354.362-1.86.853l-.307.296c-1.534 1.483-2.9 3.147-4.06 4.945l-.315.489c-.162.251-.283.52-.365.798.363.413 1.026 1 1.026 1s-.531.652-.928 1c.079.195.179.385.3.564l.364.543c2.333 3.466 4.96 6.771 7.808 9.822l.152.163c.3.321.667.568 1.072.727.397-.298 1.031-1.267 1.031-1.267s.655 1.019 1.113 1.277c.412-.159.789-.409 1.095-.737l.153-.164c2.847-3.051 5.474-6.355 7.807-9.822l.364-.542c.121-.18.221-.369.3-.565-.588-.365-1.062-1.206-1.062-1.206s.482-.428 1.16-.795c-.081-.278-.203-.546-.365-.798z" opacity=".5"/><path d="m22.877 8.766h-5.643c-.508-2.674-1.55-5.139-2.541-7.472-.73-.043-1.464-.071-2.197-.081l.912 2.185c.689 1.57 1.343 3.5 1.805 5.368h-6.426c.461-1.863 1.117-3.8 1.798-5.353l1.021-2.201c-.744.009-1.49.035-2.234.078l-.612 1.305c-.765 1.811-1.595 4.042-1.994 6.171h-5.643c-.192.656-.159 1.361.099 2h5.671c1.162 4.177 2.501 8.068 4.024 11.819.473.233 1.421.313 2.142.009 1.566-3.745 2.877-7.657 4.047-11.828h5.672c.257-.639.291-1.344.099-2zm-7.873 2.086c-.905 3.174-1.918 6.2-3.004 9.011-1.098-2.843-2.121-5.904-3.028-9.096h6.057l-.025.086z"/></svg>