<svg id="Layer_1" viewBox="0 0 24 24" xmlns="http://www.w3.org/2000/svg" data-name="Layer 1"><path d="m21.11 21.76c-2.98.82-6.05 1.24-9.11 1.24s-6.13-.42-9.11-1.24c-.52-.15-.83-.68-.7-1.2.62-2.57 1.66-4.85 2.81-6.76.428-.148.88-.418 1.07-.71.195-.299.194-.715.08-1.061.83-1.19 1.68-2.2 2.45-3.02.19-.21.46-.32.74-.32h5.32c.28 0 .55.11.74.32.77.82 1.62 1.83 2.45 3.02-.318.459-.36.734-.158 1.044.183.282.277.638 1.309.726 1.15 1.91 2.19 4.19 2.81 6.76.13.52-.18 1.05-.7 1.2z" opacity=".5"/><path d="m16.511 2.79c-.703-1.113-1.914-1.79-3.244-1.79-.668 0-1.31.169-1.881.494-1.207-.266-2.516.165-3.34 1.087-1.125.277-1.949 1.296-1.949 2.507 0 1.423 1.149 2.58 2.562 2.58.058 0 6.841-.008 6.841-.008.034 0 .067-.002.101-.005 1.313-.134 2.304-1.237 2.304-2.567 0-.985-.545-1.862-1.394-2.298z"/><path d="m19 13.8c-1.31.35-2.67.67-4.05.89v3.55c0 .55-.44 1-1 1-.55 0-1-.45-1-1v-3.33c-.31.02-.63.05-.95.05-.33 0-.67-.04-1-.06v1.51c0 .55-.45 1-1 1s-1-.45-1-1v-1.72c-1.37-.23-2.71-.54-4-.89.37-.63.76-1.22 1.15-1.77 1.91.51 3.91.93 5.85.93s3.94-.42 5.85-.93c.39.55.78 1.14 1.15 1.77z"/></svg>