<svg id="Layer_1" viewBox="0 0 24 24" xmlns="http://www.w3.org/2000/svg" data-name="Layer 1"><path d="m9.118 12c0-2.909.91-5.074 2.63-6.405-.21-.029-.421-.05-.629-.066-.305-.358-.774-.87-1.097-.87s-.512.447-.903.869c-1.065.079-2.179.314-3.124.919-.569-.06-1.158-.202-1.407.055-.218.225-.122.928.002 1.373-.481.772-.815 1.788-.925 3.124-.419.181-.856.648-.856 1s.384.784.856 1c.11 1.335.444 2.352.925 3.124-.22.394-.174.915.051 1.144.243.248.808.528 1.354.283.945.605 2.06.841 3.124.919.204.373.606.621.929.621s.881-.132 1.071-.621c.208-.015.419-.037.629-.066-1.721-1.331-2.63-3.496-2.63-6.405z" opacity=".5"/><path d="m17.06 6.049c-3.998 0-5.941 1.946-5.941 5.951s1.943 5.951 5.941 5.951 5.94-1.946 5.94-5.951-1.943-5.951-5.94-5.951z"/><path d="m10.119 5.495c.323 0 .66.015 1 .04v-1.671c0-.552-.447-1-1-1s-1 .448-1 1v1.667c.341-.025.677-.036 1-.036z"/><path d="m4.592 7.877c.387-.621.871-1.079 1.407-1.422l-.913-.915c-.391-.392-1.025-.391-1.414 0-.392.39-.392 1.023-.002 1.414l.922.924z"/><path d="m3.626 12c0-.352.015-.684.041-1h-1.667c-.553 0-1 .448-1 1s.447 1 1 1h1.667c-.026-.316-.041-.648-.041-1z"/><path d="m4.592 16.122-.922.924c-.39.391-.39 1.024.002 1.415.195.195.45.292.706.292s.513-.098.708-.293l.913-.915c-.536-.344-1.02-.801-1.407-1.422z"/><path d="m10.119 18.505c-.323 0-.659-.011-1-.036v1.667c0 .552.447 1 1 1s1-.448 1-1v-1.671c-.34.025-.677.04-1 .04z"/></svg>