<svg id="Layer_1" viewBox="0 0 24 24" xmlns="http://www.w3.org/2000/svg" data-name="Layer 1"><path d="m19.257 4.785c-1.974-1.96-3.786-3.032-5.446-3.481-.37.046-.911.837-1.274.797-.312-.035-.537-.926-.759-1.051-2.813.062-5.134 1.848-7.036 3.735-2.484 2.465-3.677 4.691-3.74 6.984.438.484.504.741.504.805 0 .613.107.626-.261 1.229.472 1.77 1.628 3.556 3.498 5.411 1.975 1.96 3.787 3.033 5.447 3.481.403-.198.71-.764 1.011-.722.327.045.645.781 1.021.975 2.812-.062 5.134-1.848 7.035-3.735 2.483-2.465 3.676-4.69 3.74-6.983-.283-.397-.932-.826-.975-1.142-.041-.297.668-.573.733-.892-.472-1.771-1.628-3.556-3.498-5.413z" opacity=".5"/><path d="m11.682 3.005c0 4.003.973 9.326 9.387 9.326.679 0 1.325-.034 1.928-.1.002-.065.003-.13.003-.194 0-.613-.082-1.225-.245-1.839-.523.057-1.087.086-1.685.086-6.091 0-7.339-2.91-7.339-7.279 0-.622.027-1.183.082-1.701-.704-.19-1.382-.268-2.033-.254-.065.6-.097 1.246-.097 1.955z"/><path d="m12.326 21.003c0-8.359-5.357-9.326-9.387-9.326-.7 0-1.34.031-1.936.093-.002.064-.003.129-.003.193 0 .613.082 1.226.246 1.841.516-.053 1.076-.079 1.693-.079 4.405 0 7.339 1.238 7.339 7.279 0 .603-.03 1.17-.088 1.693.65.175 1.277.255 1.881.255.051 0 .101 0 .151-.002.069-.607.104-1.259.104-1.947z"/></svg>