<svg id="Layer_1" viewBox="0 0 24 24" xmlns="http://www.w3.org/2000/svg" data-name="Layer 1"><path d="m20.096 8.574c-.465-.258-.791-.708-.87-1.234-.521-3.498-3.569-6.192-7.239-6.192-4.035 0-7.317 3.256-7.317 7.257 0 .252.013.504.039.754-2.15.599-3.708 2.558-3.708 4.863 0 1.798.966 3.449 2.503 4.35.399.234.859.35 1.322.352 0 0 12.307.07 14.333.01.112-.003.222-.032.326-.074 2.11-.854 3.517-2.918 3.517-5.19 0-2.069-1.155-3.928-2.904-4.897z" opacity=".5"/><path d="m11.62 19.528c-.098 0-.198-.015-.297-.045-.527-.164-.822-.724-.659-1.251l1.031-3.324c.163-.527.723-.822 1.251-.659.527.164.822.724.659 1.251l-1.031 3.324c-.133.429-.528.704-.955.704z"/><path d="m7.165 22.852c-.098 0-.198-.015-.297-.045-.527-.164-.822-.724-.659-1.251l1.031-3.324c.163-.527.724-.823 1.251-.659s.822.724.659 1.251l-1.031 3.324c-.133.429-.528.704-.955.704z"/><path d="m14.012 22.852c-.098 0-.198-.015-.297-.045-.527-.164-.822-.724-.659-1.251l1.031-3.324c.163-.527.723-.823 1.251-.659.527.164.822.724.659 1.251l-1.031 3.324c-.133.429-.528.704-.955.704z"/><circle cx="9.227" cy="15.203" r="1"/><circle cx="16.074" cy="15.203" r="1"/><circle cx="10.59" cy="21.856" r="1"/></svg>