<svg id="Layer_1" viewBox="0 0 24 24" xmlns="http://www.w3.org/2000/svg" data-name="Layer 1"><path d="m17.452 7.987 3.775-3.756c.392-.39.394-1.023.004-1.415s-1.022-.393-1.414-.003l-3.777 3.758-.329.016c-.67.037-1.358-.262-1.795-.793-.345-.42-.964-.488-1.395-.148l-.861.684c-.403.32-.802.645-1.197.975.14.502.276 1.037.029 1.25-.265.228-1.06.186-1.563.075-2.819 2.515-5.406 5.288-7.718 8.273-.159.205-.231.463-.204.721.303 2.782 2.55 5.02 5.344 5.321.036.004.072.006.107.006.219 0 .433-.072.608-.207 3.029-2.322 5.84-4.923 8.388-7.76-.205-.641-.459-1.353-.236-1.61.215-.248.984.008 1.552.097.312-.371.621-.746.924-1.125l.687-.857c.344-.429.276-1.055-.149-1.401-.532-.432-.829-1.097-.795-1.778l.016-.322z" opacity=".5"/><path d="m20.524 16.177c-.723-.725-1.443-1.077-2.201-1.077-.999 0-1.735.623-2.202 1.09-1.822 1.827-1.014 3.405-.014 4.408.723.725 1.442 1.078 2.201 1.078.999 0 1.735-.623 2.202-1.091 1.823-1.827 1.014-3.405.014-4.408z"/><path d="m22 5.609c-.255 0-.51-.097-.705-.291l-2.571-2.559c-.392-.39-.394-1.023-.004-1.415.39-.391 1.022-.392 1.414-.003l2.571 2.559c.392.39.394 1.023.004 1.415-.195.196-.452.294-.709.294z"/><path d="m16.645 13.347c-.194-.192-.369-.364-.503-.506-.945-1.004-2.156-1.582-3.366-1.617-.028-1.3-.629-2.54-1.639-3.358l-.675-.561c-.519.433-1.031.875-1.535 1.325l.94.781c.606.492.945 1.25.907 2.028l-.039.776c-.014.282.092.557.292.757s.478.307.756.292l.78-.038c.731-.041 1.498.324 2.123.987.146.156.338.346.551.557.061.06.134.133.216.215.447-.497.885-1.001 1.316-1.513-.041-.041-.083-.082-.125-.124z"/></svg>