<svg id="Layer_1" viewBox="0 0 24 24" xmlns="http://www.w3.org/2000/svg" data-name="Layer 1"><path d="m22.916 3.03c-.026-.062-.276-.615-.799-1.137-.528-.528-1.081-.775-1.142-.802-.256-.108-.546-.109-.802.005-.105.047-1.053.481-1.884 1.312-.83.829-1.266 1.777-1.313 1.883-.115.257-.116.55-.003.808.012.028.071.158.18.34-.029.272-.472 1.192-.187 1.477.285.284 1.317.076 1.601-.064.186.112.319.171.347.183.126.054.261.081.396.081.138 0 .277-.028.406-.086.105-.047 1.054-.481 1.885-1.312.83-.829 1.266-1.777 1.313-1.883.115-.257.116-.549.003-.807z" opacity=".5"/><path d="m16.777 7.205c-2.544-2.465-5.862-2.603-8.679-.34-.143.12-.275.242-.4.365-.347.345-.914.6-1.643.739-1.225.237-2.278.871-3.247 1.969-2.617 3.228-2.38 7.495.626 10.657 1.674 1.589 3.677 2.395 5.678 2.395 1.734 0 3.468-.605 4.983-1.833 1.071-.944 1.708-1.998 1.945-3.224 0 0 0-.002 0-.003.138-.725.394-1.291.741-1.641.118-.119.236-.248.374-.409 2.249-2.796 2.112-6.112-.378-8.676z" opacity=".5"/><path d="m13.316 13.018c-.041-.532-.303-1.034-.803-1.533-1.069-1.066-2.296-1.066-3.363 0-.536.536-.808 1.104-.808 1.688 0 .869.608 1.477.808 1.677.535.533 1.108.8 1.682.8s1.147-.267 1.682-.8c.582-.581.852-1.197.802-1.832z"/><path d="m7.889 18.818c-.256 0-.512-.098-.707-.293l-1.712-1.711c-.391-.39-.391-1.023 0-1.414s1.024-.391 1.415 0l1.712 1.711c.391.39.391 1.023 0 1.414-.195.195-.452.293-.708.293z"/><path d="m17.773 6.236c-.285-.285-.489-.578-.62-.796l-3.596 3.592c-.391.39-.391 1.023 0 1.414.195.195.452.293.708.293s.512-.098.707-.293l3.597-3.593c-.218-.131-.509-.333-.794-.617z"/></svg>