<svg id="Layer_1" viewBox="0 0 24 24" xmlns="http://www.w3.org/2000/svg" data-name="Layer 1"><path d="m16.892 3.507c-2.866-2.479-6.186-2.507-6.326-2.507-.496 0-.917.364-.989.854-.271 1.837-.954 2.542-3.181 3.281l-2.286.759c-.19.063-.357.182-.479.341-1.044 1.361-1.044 4.466 0 5.828.189.247.483.392.794.392h4.272c-.886.939-1.931 2.127-2.663 3.212-1.692 2.506-2.759 5.708-2.804 5.843-.101.305-.049.639.139.899s.489.414.81.415l15.464.021h.001c.405 0 .77-.244.924-.618.79-1.912 4.326-11.802-3.676-18.719z" opacity=".5"/><path d="m21.022 23h-18.044c-.552 0-1-.448-1-1s.448-1 1-1h18.044c.552 0 1 .448 1 1s-.448 1-1 1z"/></svg>