<svg id="Layer_1" viewBox="0 0 24 24" xmlns="http://www.w3.org/2000/svg" data-name="Layer 1"><path d="m17.583 6.707c-.024-.228-.16-.33-.011-.571l.182-.314-4.195-4.17-.367-.052c-.372-.096-.45-.106-.673-.132-.422-.049-.628-.135-1.016-.427-.441-.027-.874-.041-1.297-.041-3.538 0-6.547.953-6.674.994-.325.104-.574.367-.661.697-.035.133-.861 3.304-.861 7.532 0 4.264.826 7.403.862 7.534.087.328.336.589.659.693.126.041 3.129.995 6.675.995s6.547-.954 6.674-.994c.325-.104.574-.367.661-.696.035-.133.861-3.304.861-7.532 0-.78-.028-1.573-.084-2.369-.732-.454-.69-.723-.736-1.146z" opacity=".5"/><path d="m10.206 23c-.949 0-1.939-.057-2.943-.17-.549-.062-.944-.556-.882-1.105.061-.549.563-.947 1.105-.882.931.104 1.846.157 2.72.157 3.039 0 7.366-.624 9.073-.89.21-1.758.71-6.318.71-9.904 0-.925-.038-1.875-.113-2.825-.043-.55.368-1.032.918-1.076.557-.041 1.032.368 1.076.918.079 1.002.119 2.005.119 2.982 0 4.65-.786 10.65-.819 10.903-.057.435-.391.781-.823.855-.249.042-6.128 1.036-10.141 1.036z"/><path d="m13.559 1.652-.216-.215c-.159-.158-.367-.258-.589-.284-.422-.049-.839-.086-1.251-.112.135 2.252.769 4.955.799 5.082.079.333.323.604.647.715.116.04 2.802.957 5.369 1.014-.03-.422-.067-.845-.112-1.267-.024-.228-.126-.441-.289-.603l-.163-.162c-1.44-.114-2.88-.49-3.627-.71-.159-.748-.432-2.141-.567-3.46z"/></svg>