<svg id="Layer_1" viewBox="0 0 24 24" xmlns="http://www.w3.org/2000/svg" data-name="Layer 1"><path d="m18.575 4.253c-2.756-2.689-5.097-3.253-6.575-3.253s-3.819.564-6.575 3.253c-3.423 3.34-4.135 6.294-4.129 8.185.006 1.92.742 3.729 2.021 4.962 1.062 1.022 2.715 1.631 4.387 1.631.125 0 .251-.003.376-.01 1.038-.057 1.974-.346 2.738-.834-.159 1.269-.553 2.186-2.141 2.902-.43.194-.666.661-.566 1.122.099.461.474.143.946.143l2.688-.261 3.118.353c.472 0 .859.226.958-.235.1-.461-.137-.928-.567-1.122-1.564-.705-1.932-1.625-2.08-2.908.765.491 1.704.782 2.747.84 1.813.104 3.622-.522 4.763-1.621 1.279-1.233 2.016-3.042 2.021-4.962.006-1.89-.706-4.844-4.129-8.184z" opacity=".5"/><path d="m16.561 23h-9.122c-.553 0-1-.448-1-1s.447-1 1-1h9.121c.553 0 1 .448 1 1s-.447 1-1 1z"/></svg>