<svg id="Layer_1" viewBox="0 0 24 24" xmlns="http://www.w3.org/2000/svg" data-name="Layer 1"><path d="m12.477 1.121c-.305-.166-.676-.161-.975.012-.386.221-9.436 5.5-9.546 12.014.152 4.996 5.027 9.784 10.058 9.853 5.003-.069 9.878-4.857 10.03-9.853v-.048c-.123-6.778-9.182-11.769-9.567-11.978z" opacity=".5"/><path d="m9.999 17.542c-.166 0-.335-.042-.49-.129-.481-.271-.651-.881-.38-1.362l4-7.085c.272-.481.88-.651 1.362-.379.481.271.651.881.38 1.362l-4 7.085c-.185.326-.523.508-.872.508z"/><circle cx="9" cy="10.77" r="1"/><circle cx="14.99" cy="15.231" r="1"/></svg>