<svg id="Layer_1" viewBox="0 0 24 24" xmlns="http://www.w3.org/2000/svg" data-name="Layer 1"><path d="m4.046 20.896c-.257 0-.514-.099-.71-.295-.389-.392-.386-1.025.005-1.415l17.444-17.313c.393-.389 1.025-.386 1.415.005.389.392.386 1.025-.005 1.415l-17.444 17.312c-.195.193-.45.29-.705.29z" opacity=".5"/><path d="m21.539 7.176c-.111 0-.225-.019-.336-.059-.52-.186-.792-.758-.606-1.278.458-1.282.439-2.216.365-2.728-.514-.074-1.462-.093-2.764.363-.522.184-1.092-.091-1.275-.612s.091-1.092.612-1.275c2.734-.961 4.452-.301 4.638-.223.247.104.442.303.542.552.124.31.696 1.987-.234 4.594-.146.409-.531.665-.942.665z"/><path d="m6.093 22.927c-.111 0-.225-.019-.336-.059-.52-.186-.792-.758-.606-1.278.542-1.521.495-2.613.399-3.179-.57-.094-1.677-.146-3.219.397-.522.183-1.092-.091-1.275-.612s.091-1.092.612-1.275c3.007-1.057 4.882-.336 5.086-.25.244.102.437.297.538.542.085.206.797 2.094-.257 5.049-.146.409-.531.665-.942.665z"/><path d="m15.831 22.792c-.035 0-.069-.002-.104-.005-.311-.033-.589-.209-.751-.477-.957-1.581-2.985-4.653-5.828-7.472-2.837-2.812-5.941-4.826-7.54-5.777-.272-.162-.451-.442-.483-.757-.033-.314.085-.625.319-.839.636-.584 1.31-1.171 1.987-1.74 4.156-3.494 10.405-3.298 14.228.451l.209.208c3.784 3.791 3.983 9.998.448 14.125-.572.669-1.164 1.335-1.754 1.967-.19.203-.455.317-.73.317zm-12.048-14.737c1.79 1.146 4.369 2.98 6.772 5.362 2.415 2.395 4.269 4.956 5.422 6.729.275-.31.549-.624.818-.939 2.861-3.34 2.708-8.354-.349-11.416l-.186-.184c-3.099-3.038-8.168-3.191-11.544-.351-.313.263-.625.53-.934.799z"/></svg>