<svg id="Layer_1" viewBox="0 0 24 24" xmlns="http://www.w3.org/2000/svg" data-name="Layer 1"><path d="m21.699 11.887c-1.798-3.651-5.649-7.861-7.863-10.118-.236-.24-.514-.423-.816-.547-.383.387-1.096 1.004-1.096 1.004s-.432-.541-.945-1.004c-.301.124-.58.307-.816.547-2.213 2.258-6.065 6.469-7.863 10.119.208.306.585.844.549 1.195-.04.384-.016.661-.217 1.094 1.355 1.801 5.106 6.583 8.034 8.42.101.063.206.119.314.167.377-.38.672-.92 1.02-.92s.543.406 1.02.92c.108-.048.213-.103.314-.167 2.926-1.836 6.676-6.617 8.032-8.419-.463-.629-.712-1.172-.676-1.221.206-.286.643-.576 1.009-1.069z" opacity=".5"/><path d="m21.985 12.503c-.088-.203-.184-.409-.286-.616-2.792 1.061-5.705 1.699-8.678 1.903v-12.567c-.646-.267-1.395-.267-2.041 0v12.568c-2.973-.204-5.887-.842-8.679-1.903-.102.207-.198.412-.286.615-.14.323-.1.697.106.983.036.05.217.3.511.691 2.7.92 5.498 1.476 8.348 1.659v6.927c.323.143.671.214 1.019.214s.698-.072 1.022-.215v-6.926c2.848-.182 5.646-.738 8.345-1.658.294-.391.476-.642.512-.692.206-.286.247-.659.106-.983z"/></svg>