<svg id="Layer_1" viewBox="0 0 24 24" xmlns="http://www.w3.org/2000/svg" data-name="Layer 1"><path d="m20.756 3.294c-2.842-2.821-7.893-2.397-11.261.944-1.807 1.793-2.844 4.148-2.843 6.459 0 1.844.672 3.527 1.893 4.738 1.264 1.255 2.966 1.867 4.761 1.867 2.242 0 4.631-.956 6.5-2.811 1.807-1.793 2.844-4.148 2.843-6.459 0-1.844-.672-3.527-1.893-4.738z" opacity=".5"/><path d="m21.024 3.028c-1.319-1.309-3.095-1.949-4.968-1.949-2.34 0-4.835.997-6.787 2.934-1.886 1.872-2.968 4.33-2.968 6.742 0 .93.167 1.819.48 2.635-.227 1.231-.82 2.386-1.712 3.271l-3.774 3.747c-.189.188-.295.443-.295.71s.106.522.296.71l.81.803c.195.193.45.29.704.29s.509-.097.705-.29l3.774-3.746c.895-.888 2.064-1.478 3.309-1.703.831.313 1.728.469 2.649.469 2.34 0 4.834-.998 6.786-2.935 1.886-1.872 2.968-4.33 2.968-6.742 0-1.925-.702-3.682-1.976-4.946zm-12.723 7.727c0-1.379.469-2.788 1.311-4.032.388-.007 1 .177 1.759.585-1.321 1.41-2.365 2.866-3.005 4.177-.031-.24-.065-.479-.065-.729zm1.385 3.527c-.265-.304.308-2.691 3.368-5.849.441.346.895.735 1.355 1.192.453.449.837.892 1.182 1.323-3.198 3.049-5.604 3.607-5.905 3.334zm6.132-6.077c-.393-.391-.831-.785-1.295-1.162 2.347-2.024 4.154-2.657 4.832-2.657.128 0 .217.022.26.062.239.28-.219 2.298-2.624 5.045-.381-.461-.78-.897-1.174-1.289zm.939-5.083c-1.286.626-2.651 1.606-3.905 2.729-.571-.348-1.15-.634-1.715-.834 1.436-1.235 3.196-1.938 4.919-1.938.215 0 .453.015.701.043zm-4.214 12.485c1.384-.674 2.856-1.759 4.185-2.989.406.742.597 1.344.601 1.73-1.256.836-2.682 1.302-4.083 1.302-.216 0-.454-.015-.703-.044zm6.49-2.756c-.202-.562-.492-1.137-.842-1.704 1.2-1.324 2.146-2.677 2.744-3.903.031.24.065.479.065.729 0 1.703-.714 3.449-1.967 4.877z"/></svg>