<svg id="Layer_1" viewBox="0 0 24 24" xmlns="http://www.w3.org/2000/svg" data-name="Layer 1"><path d="m18.157 3.073c-1.379-1.415-2.653-2.073-4.01-2.073-1.403 0-2.79.723-4.241 2.211-2.364 2.425-2.478 4.437-1.804 6.037-.27 1.085-.436 2.701.195 3.348.807.828 3 .911 3.825.732.548.234 1.096.347 1.659.347 1.403 0 2.79-.723 4.241-2.211 3.727-3.822 1.861-6.619.134-8.39z" opacity=".5"/><path d="m15.169 23c-.254 0-.507-.096-.702-.288-.393-.388-.397-1.021-.011-1.414.679-.688.679-1.808 0-2.496-.643-.653-1.771-.653-2.414 0l-1.697 1.724c-.719.729-1.677 1.132-2.699 1.136h-.013c-1.018 0-1.974-.397-2.693-1.118-1.483-1.486-1.483-3.905 0-5.392l.377-.377c.391-.392 1.024-.391 1.415 0 .391.39.391 1.023 0 1.414l-.377.377c-.706.708-.706 1.859 0 2.566.343.344.783.519 1.283.531.485-.001.939-.193 1.28-.539l1.697-1.723c1.4-1.422 3.865-1.422 5.266 0 1.439 1.461 1.439 3.84 0 5.302-.196.199-.454.298-.713.298z" opacity=".5"/><path d="m9.772 11.601c-.631-.647-1.281-1.432-1.669-2.353-1.177 1.239-2.091 2.269-2.67 2.938-.872 1.007-.97 2.484-.232 3.513.08.111.169.218.265.316.096.1.201.191.313.277.46.346 1.01.517 1.566.517.684 0 1.377-.256 1.929-.758.656-.597 1.657-1.533 2.85-2.723-.773-.33-1.544-.898-2.351-1.726z"/></svg>