<svg id="Layer_1" viewBox="0 0 24 24" xmlns="http://www.w3.org/2000/svg" data-name="Layer 1"><path d="m18.013 18.148-2.275-11.014c.008-.01.015-.02.022-.03l.242-.349c1.009-1.453 1.352-3.271.941-4.988-.068-.284-.256-.523-.515-.657-.259-.133-.562-.146-.833-.038l-2.078.841-.903-.703c-.361-.282-.868-.282-1.229 0l-.903.703-2.078-.841c-.272-.109-.579-.092-.84.043-.26.137-.448.383-.512.67-.385 1.713-.021 3.519.997 4.954l.228.321-2.29 11.086c-.061.294.014.601.204.833.19.233.475.369.775.369h10.067c.301 0 .585-.135.775-.369.19-.233.265-.539.204-.833z" opacity=".5"/><path d="m18.76 18.004c-.15-.225-.384-.379-.65-.428-3.997-.738-8.223-.738-12.22 0-.267.049-.503.206-.653.432-.038.058-.937 1.439-.937 3.263 0 .307.025.6.066.875.073.49.494.853.989.853h13.288c.495 0 .915-.362.989-.851.042-.277.067-.57.067-.877 0-1.84-.901-3.21-.939-3.268z"/><path d="m15.577 7.673h-7.153c-.552 0-1-.448-1-1s.448-1 1-1h7.153c.552 0 1 .448 1 1s-.448 1-1 1z"/></svg>