<svg id="Layer_1" viewBox="0 0 24 24" xmlns="http://www.w3.org/2000/svg" data-name="Layer 1"><path d="m24 4v10h-3v-10zm-12.862-3h7.862v16h-8.939l-1.536 2.514c-.758 1.388-2.708 1.919-4.078 1.091l-.599-.342-2.134 3.734-1.736-.993 2.133-3.734-.599-.342c-1.436-.821-1.937-2.658-1.116-4.094l6.391-11.296c.886-1.566 2.553-2.538 4.352-2.538zm1.575 3.383-2.444 3.126c-.327.493-.357 1.123-.077 1.645s.821.846 1.413.846h.975l-1.866 2.383 1.574 1.233 2.444-3.126c.327-.493.357-1.123.077-1.645s-.821-.846-1.413-.846h-.975l1.866-2.383z"/></svg>