<svg id="Layer_1" viewBox="0 0 24 24" xmlns="http://www.w3.org/2000/svg" data-name="Layer 1"><path d="m15.941 5h1.615c-.345.591-.556 1.268-.556 2v17h-4.795c1.109-1.169 1.795-2.754 1.795-4.5 0-2.404-.807-3.778-2.15-4.994.192-.879.16-1.602.145-1.805l-.125-1.722-1.722-.128c-.198-.014-1.53-.087-2.884.484l-1.264-1.667v-1.668c0-1.654 1.346-3 3-3h4.963l.656-5h6.381v2h-4.617l-.441 3zm-8.35 19c2.431 0 4.409-2.019 4.409-4.5 0-1.811-1.06-3.366-2.575-4.079.673-1.061.575-2.421.575-2.421s-1.809-.134-2.883.939c-.2.2-.351.434-.482.676-.332-.959-.776-1.628-.806-1.673l-1.661 1.114c.005.007.251.391.475.944h-.235c-2.431 0-4.409 2.019-4.409 4.5s1.978 4.5 4.409 4.5c.543 0 1.085-.104 1.591-.304.506.2 1.047.304 1.591.304zm14.409-19h-1c-1.103 0-2 .897-2 2v17h5v-17c0-1.105-.895-2-2-2z"/></svg>