<svg id="Layer_1" viewBox="0 0 24 24" xmlns="http://www.w3.org/2000/svg" data-name="Layer 1"><path d="m2.768 7.024 15.195 15.195c-1.763 1.144-3.828 1.781-5.976 1.781-2.467 0-4.739-.826-6.576-2.203l-1.934 2.126-1.479-1.346 1.928-2.119c-1.817-1.963-2.938-4.579-2.938-7.458 0-2.148.638-4.213 1.781-5.976zm19.539-1.904 1.663-1.109c-1.202-1.593-2.709-2.943-4.439-3.955l-1.067 1.689c1.493.863 2.798 2.014 3.843 3.375zm-1.432 14.354 3.069 3.069-1.414 1.414-22.5-22.5 1.414-1.414 1.245 1.245c.557-.447 1.135-.869 1.755-1.232l1.067 1.689c-.493.285-.956.613-1.405.96l1.408 1.408c1.604-1.169 3.496-1.885 5.474-2.065v-2.048h2v2.051c5.598.508 10 5.221 10 10.949 0 2.334-.747 4.6-2.112 6.474zm-3.888-7.474h-3.586l2 2h1.586zm-6-2.414 2 2v-5.586h-2z"/></svg>