<svg id="Layer_1" viewBox="0 0 24 24" xmlns="http://www.w3.org/2000/svg" data-name="Layer 1"><path d="m17 17h-1.021c-.939 1.246-2.416 2-3.979 2s-3.04-.754-3.979-2h-1.021c-2.206 0-4 1.794-4 4v3h18v-3c0-2.206-1.794-4-4-4zm2-5c0 1.331.204 2.602.396 3.503-.735-.321-1.544-.503-2.396-.503h-3v-1.422c1.775-.807 2.991-2.568 3-4.578-3.732-.236-4.745-3.19-5-4.5-.255 1.302-1.36 4.207-5 4.5.009 2.01 1.225 3.771 3 4.578v1.422h-3c-.852 0-1.661.181-2.396.503.192-.9.396-2.171.396-3.503 0 0-.846-.18-2 1 0-4 2.5-5 2.5-5-2 0-3 .5-3.5 1 0 0 0-5 4-5.5-1-.5-2-.5-3-.5 0 0 1.41-3 4.909-3 3.144 0 4.091 1.818 4.091 1.818s.947-1.818 4.091-1.818c3.499 0 4.909 3 4.909 3-1 0-2 0-3 .5 4 .5 4 5.5 4 5.5-.5-.5-1.5-1-3.5-1 0 0 2.5 1 2.5 5-1.154-1.18-2-1-2-1z"/></svg>