<svg id="Layer_1" viewBox="0 0 24 24" xmlns="http://www.w3.org/2000/svg" data-name="Layer 1"><path d="m3 14h4v3h-2v4.5c0 1.379-1.121 2.5-2.5 2.5s-2.5-1.121-2.5-2.5v-4.5c0-1.654 1.346-3 3-3zm3.343-2.082c1.409-.163 2.701-.592 3.869-1.175-.131.223-.212.479-.212.756 0 .828.672 1.5 1.5 1.5s1.5-.672 1.5-1.5-.665-1.492-1.488-1.499c.34-.22.672-.447.984-.687 3.266-2.628 5.11-6.55 5.956-8.801-.896-.326-1.857-.513-2.864-.513h-3.176c-4.639.001-8.412 3.774-8.412 8.413v3.588c.723.002 1.642.014 2.343-.082zm13.9-10.507c-.796 2.058-2.301 5.215-4.773 7.857.343.265.691.506 1.042.733-.004 0-.008-.001-.012-.001-.828 0-1.5.672-1.5 1.5s.672 1.5 1.5 1.5 1.5-.672 1.5-1.5c0-.285-.084-.549-.222-.776 1.663.838 3.406 1.276 5.222 1.276h1v-3.588c0-2.918-1.495-5.492-3.757-7.001zm2.757 12.589c-.67 0-1.321-.059-1.959-.152-1.018 2.534-4.015 5.153-7.041 5.153-1.82 0-3.625-.95-5-2.256v2.591c.322.221.654.428 1 .611v4.053h8v-4.053c2.459-1.301 4.368-3.626 5.12-5.947z"/></svg>