<svg id="Layer_1" viewBox="0 0 24 24" xmlns="http://www.w3.org/2000/svg" data-name="Layer 1"><path d="m23.954 9.983c-.455-5.037-4.411-9.191-9.407-9.877-4.042-.555-7.91 1.058-10.324 4.283-1.437 1.738-2.97 5.59-4.223 8.399v2.212h2.33l.449 3.394c.197 1.486 1.476 2.606 2.974 2.606h2.247v3h13v-4.709c0-.46.162-.909.457-1.263 1.875-2.252 2.762-5.109 2.497-8.045zm-10.954 6.817s-6-4.167-6-7.56c0-1.789 1.343-3.24 3-3.24s3 1 3 1 1.343-1 3-1 3 1.451 3 3.24c0 3.393-6 7.56-6 7.56zm1-6.8h2v2h-2v2h-2v-2h-2v-2h2v-2h2z"/></svg>