<svg id="Layer_1" viewBox="0 0 24 24" xmlns="http://www.w3.org/2000/svg" data-name="Layer 1"><path d="m11 11.5v-2c0-.828.672-1.5 1.5-1.5s1.5.672 1.5 1.5v2c0 .828-.672 1.5-1.5 1.5s-1.5-.672-1.5-1.5zm5.5 1.5c.828 0 1.5-.672 1.5-1.5v-2c0-.828-.672-1.5-1.5-1.5s-1.5.672-1.5 1.5v2c0 .828.672 1.5 1.5 1.5zm-8-13c-.828 0-1.5.672-1.5 1.5v7.537c.836-.005 1.672.233 2.369.753.238.178.443.383.631.601v-8.891c0-.828-.672-1.5-1.5-1.5zm12 8c-.828 0-1.5.672-1.5 1.5v2c0 .828.672 1.5 1.5 1.5s1.5-.672 1.5-1.5v-2c0-.828-.672-1.5-1.5-1.5zm0 7c-.743 0-1.433-.233-2-.63-.609.425-1.358.663-2.163.626-.68-.031-1.297-.274-1.814-.651-.573.409-1.268.655-2.024.655-.538 0-1.046-.123-1.5-.341l-3.365 3.241-1.446-1.382 2.213-2.1c.82-.802.794-2.29-.228-3.025-.81-.604-1.965-.437-2.68.276l-2.497 2.455c-1.325 1.303-1.33 3.438-.01 4.746l5.177 5.131h1.836v-1h-1v-1.6h1v-1.801h-1v-1.6h1v-1h1.582v1h1.801v-1h1.6v1h1v1.6h-1v1.801h1.018v1.6h-1.018v.982h-1.6v-.982h-1.801v1h6.818v-4.314l-.35.38-1.149-1.113 1.874-1.952h1.226v7h2v-9.338c-.455.217-.964.338-1.5.338zm-7.117 4.6h-1.801v1.801h1.801z"/></svg>