<svg id="Layer_1" viewBox="0 0 24 24" xmlns="http://www.w3.org/2000/svg" data-name="Layer 1"><path d="m24 3.327c0 3.485-6 7.673-6 7.673s-6-4.188-6-7.673c0-1.838 1.343-3.327 3-3.327s3 1.49 3 3.327c0-1.838 1.343-3.327 3-3.327s3 1.49 3 3.327zm-4.855 9.313-2.159 1.446-1.45 1.45c-.945.944-2.201 1.464-3.536 1.464s-2.591-.52-3.536-1.464l-8.464-8.465v16.929h24v-15.877c-1.764 2.272-4.157 4.029-4.855 4.516zm-5.023 1.481 2.011-2.011c-1.909-1.449-6.132-5.073-6.132-8.783 0-.112.025-.217.031-.327h-7.032c-1.147 0-2.135.655-2.639 1.603l9.517 9.518c1.134 1.133 3.109 1.133 4.243 0z"/></svg>