<svg id="Layer_1" viewBox="0 0 24 24" xmlns="http://www.w3.org/2000/svg" data-name="Layer 1"><path d="m17.5 21.5c0 1.381-1.119 2.5-2.5 2.5s-2.5-1.119-2.5-2.5 1.119-2.5 2.5-2.5 2.5 1.119 2.5 2.5zm4-2.5c-1.381 0-2.5 1.119-2.5 2.5s1.119 2.5 2.5 2.5 2.5-1.119 2.5-2.5-1.119-2.5-2.5-2.5zm-12.5 0c-1.381 0-2.5 1.119-2.5 2.5s1.119 2.5 2.5 2.5 2.5-1.119 2.5-2.5-1.119-2.5-2.5-2.5zm-6.5 0c-1.381 0-2.5 1.119-2.5 2.5s1.119 2.5 2.5 2.5 2.5-1.119 2.5-2.5-1.119-2.5-2.5-2.5zm15.715-9.784-1.736-.347-2.079 3.538-1.725-1.014 1.727-2.94c-.218-.044-.482-.137-.667-.244l-3.024 1.838-1.039-1.709 3.051-1.854-.048-.484h-3.637v-2h3.438l-.142-1.424c-.118-.824-.578-1.568-1.263-2.042-.686-.475-1.543-.646-2.414-.448l-7.619 2.158v12.756c0 1.657 1.343 3 3 3h17c1.105 0 2-.895 2-2v-.9c0-2.86-2.019-5.323-4.823-5.884z"/></svg>