<svg id="Layer_1" viewBox="0 0 24 24" xmlns="http://www.w3.org/2000/svg" data-name="Layer 1"><path d="m14.5 10.837c-.316-.197-.498-.535-.498-.928l-.002-7.908c0-1.104.896-2.001 1.999-2.001h6.001c1.103 0 2 .894 2 1.997v7h-5.855s-2.034 1.472-2.464 1.788c-.61.449-1.181.052-1.181.052zm9.5 13.163h-10v-2c0-1.654 1.346-3 3-3h4c1.654 0 3 1.346 3 3zm-5-6c-1.93 0-3.5-1.57-3.5-3.5s1.57-3.5 3.5-3.5 3.5 1.57 3.5 3.5-1.57 3.5-3.5 3.5zm-13 4v1.997h6v-4h.425c.431-.981 1.176-1.783 2.098-2.314-.641-.9-1.023-1.997-1.023-3.183 0-.621.108-1.216.299-1.774-.14-.064-.274-.135-.396-.216-.878-.565-1.403-1.534-1.403-2.601v-7.908s0 0 0 0h-9.5c-1.378 0-2.5 1.12-2.5 2.497v15.5h10v2.003h-4zm0-15c1.105 0 2 .895 2 2s-.895 2-2 2-2-.895-2-2 .895-2 2-2zm2 8.997v-1.5c0-.276-.224-.5-.5-.5h-3c-.276 0-.5.224-.5.5v1.5h-2v-1.5c0-1.378 1.122-2.5 2.5-2.5h3c1.378 0 2.5 1.122 2.5 2.5v1.5z"/></svg>