<svg id="Layer_1" viewBox="0 0 24 24" xmlns="http://www.w3.org/2000/svg" data-name="Layer 1"><path d="m18.52 2.963.811 3.437h-1.757l.787-3.437c.009-.037.041-.063.079-.063s.071.026.079.063zm-7.391 7.464c-.189-.353-.169-.78.053-1.115.019-.057 1.838-2.424 1.818-2.492v-4.82c0-1.105.895-2 2-2h7c1.105 0 2 .895 2 2v9h-11.914c-.401 0-.768-.22-.957-.573zm10.371-.927-1.616-6.853c-.201-.866-1.137-1.406-2.056-1.021-.439.184-.734.606-.842 1.07l-1.559 6.804h1.437l.389-1.7h2.409l.401 1.7zm-8.5 14.5v-6.82c.019-.07-1.798-2.432-1.818-2.492-.222-.335-.243-.762-.053-1.115s.556-.573.957-.573h9.914c1.105 0 2 .895 2 2v9zm9-8.5h-2.873v-1h-1.253v1h-2.873v1.253h4.806s.001 0 .001.001c-.111.963-.485 2.15-1.303 3.07-.36-.405-.644-.857-.847-1.325h-1.336c.265.751.668 1.487 1.223 2.123-.664.403-1.495.661-2.545.661v1.253c1.462 0 2.615-.413 3.512-1.053.894.636 2.033 1.053 3.488 1.053v-1.253c-1.049 0-1.876-.262-2.539-.665.99-1.135 1.485-2.591 1.607-3.866h.932v-1.253zm-11 8.5h-8c-1.654 0-3-1.346-3-3v-3h11zm-2-2v-2h-4v2zm.391-6.411c-.511-.916-.524-2.03-.023-2.962.124-.231.277-.439.449-.627-.173-.188-.326-.397-.45-.628-.499-.929-.486-2.039.02-2.953.092-.181.265-.411.771-1.085.229-.305.588-.784.842-1.129v-4.205c0-.732.212-1.409.556-2h-11.556v16h9.661c-.14-.193-.221-.314-.271-.411z"/></svg>