<svg id="Layer_1" viewBox="0 0 24 24" xmlns="http://www.w3.org/2000/svg" data-name="Layer 1"><path d="m24 18c0-3.314-2.686-6-6-6s-6 2.686-6 6 2.686 6 6 6 6-2.686 6-6zm-2.569 0-2.688 2.687c-.417.417-1.093.417-1.51 0l-2.687-2.687h2.454v-3h2v3zm-8.705 6h-12.726v-19c0-1.654 1.346-3 3-3h2.685c-.435.911-.685 1.926-.685 3v4h14v-4c0-1.074-.251-2.089-.685-3h2.685c1.654 0 3 1.346 3 3v7.726c-1.467-1.667-3.61-2.726-6-2.726-4.411 0-8 3.589-8 8 0 2.39 1.059 4.533 2.726 6zm-2.884-17h-2.842v-2c0-2.761 2.239-5 5-5s5 2.239 5 5v2h-4.913l1.805-3.547-1.783-.906-2.266 4.453z"/></svg>