<svg id="Layer_1" viewBox="0 0 24 24" xmlns="http://www.w3.org/2000/svg" data-name="Layer 1"><path d="m21 0h-18c-1.654 0-3 1.346-3 3v18.85c0 .794.435 1.52 1.135 1.894.309.166.646.25.99.25.434 0 .878-.134 1.288-.41l4.44-3.583h16.147v-17.001c0-1.654-1.346-3-3-3zm-3 7.5c0 .827-.673 1.5-1.5 1.5h-3.5v-2h1.644c-.716-.633-1.643-1-2.644-1-2.206 0-4 1.794-4 4s1.794 4 4 4c1.858 0 3.411-1.28 3.858-3h2.052c-.478 2.833-2.942 5-5.91 5-3.309 0-6-2.691-6-6s2.691-6 6-6c1.496 0 2.914.578 4 1.548v-1.548h2z"/></svg>