<svg id="Layer_1" viewBox="0 0 24 24" xmlns="http://www.w3.org/2000/svg" data-name="Layer 1"><path d="m14.999 15c-.49 1.174-1.648 2-2.999 2s-2.509-.826-2.999-2zm5.733-.007c-.362.79-.863 1.57-1.47 2.296 1.023.478 1.738 1.51 1.738 2.712v4h-18v-4c0-1.202.715-2.234 1.739-2.712-.608-.726-1.109-1.507-1.471-2.297-1.822-.12-3.268-1.64-3.268-3.492 0-1.433.869-2.691 2.149-3.224.825-4.764 4.947-8.276 9.851-8.276v.002c4.904 0 9.026 3.512 9.851 8.274 1.28.533 2.149 1.792 2.149 3.225 0 1.851-1.446 3.372-3.268 3.492zm-.232-1.992c.827 0 1.5-.673 1.5-1.5 0-.723-.518-1.342-1.23-1.472l-.737-.134-.078-.744c-.303-2.863-2.083-5.227-4.537-6.383.24 1.121-.071 2.337-.942 3.208-1.367 1.367-3.583 1.367-4.95 0-.872-.872-1.182-2.088-.941-3.21-2.454 1.156-4.235 3.52-4.538 6.384l-.078.744-.737.134c-.713.13-1.23.748-1.23 1.471 0 .827.673 1.5 1.5 1.5.184 0 .896-.142 1.089-.168l.28.793c.917 2.596 4.001 5.377 7.131 5.377v.002c3.13 0 6.215-2.78 7.131-5.377l.282-.799c.192.028.904.176 1.087.175zm-11-3c-.828 0-1.5.672-1.5 1.5s.672 1.5 1.5 1.5 1.5-.672 1.5-1.5-.672-1.5-1.5-1.5zm5 0c-.828 0-1.5.672-1.5 1.5s.672 1.5 1.5 1.5 1.5-.672 1.5-1.5-.672-1.5-1.5-1.5z"/></svg>