<svg id="Layer_1" viewBox="0 0 24 24" xmlns="http://www.w3.org/2000/svg" data-name="Layer 1"><path d="m16.989 9.979c-3.858 0-6.985 3.127-6.985 6.985s3.127 6.985 6.985 6.985 6.985-3.127 6.985-6.985-3.127-6.985-6.985-6.985zm-1.476 5.727 3.279.547c1.268.211 2.189 1.298 2.189 2.583 0 1.444-1.174 2.618-2.618 2.618h-.375v.998h-1.996v-.998c-1.651 0-2.994-1.343-2.994-2.994h1.996c0 .55.448.998.998.998h2.371c.343 0 .623-.279.623-.623 0-.306-.219-.564-.52-.614l-3.279-.547c-1.267-.211-2.188-1.298-2.188-2.583 0-1.444 1.175-2.618 2.618-2.618h.375v-.998h1.996v.998c1.651 0 2.994 1.343 2.994 2.994h-1.996c0-.55-.447-.998-.998-.998h-2.371c-.344 0-.623.279-.623.623 0 .306.219.564.52.614zm-15.487-3.68v-1.996c0 2.204 3.351 3.991 7.484 3.991.345 0 .684-.014 1.016-.038-.225.64-.387 1.309-.462 2.005-.186.007-.364.029-.554.029-4.134 0-7.484-1.787-7.484-3.991zm0-8.035c0-2.204 3.35-3.991 7.484-3.991s7.484 1.787 7.484 3.991-3.351 3.991-7.484 3.991-7.484-1.786-7.484-3.991zm0 3.992v-1.996c0 2.204 3.351 3.991 7.484 3.991s7.484-1.787 7.484-3.991v1.996c0 .08-.014.157-.022.236-2.192.504-4.075 1.806-5.328 3.589-.677.107-1.392.167-2.134.167-4.134-.001-7.484-1.788-7.484-3.992zm10.886 15.579c-1.021.279-2.176.438-3.402.438-4.134 0-7.484-1.787-7.484-3.991v-1.996c0 2.204 3.351 3.991 7.484 3.991.679 0 1.328-.059 1.953-.15.41.63.899 1.201 1.449 1.708zm-10.886-7.545v-1.996c0 2.204 3.351 3.991 7.484 3.991.191 0 .374-.018.561-.026.078.684.237 1.342.46 1.971-.336.025-.672.05-1.021.05-4.134.002-7.484-1.786-7.484-3.99z"/></svg>