<svg id="Layer_1" viewBox="0 0 24 24" xmlns="http://www.w3.org/2000/svg" data-name="Layer 1"><path d="m3 15c0-1.657 1.343-3 3-3s3 1.343 3 3-1.343 3-3 3-3-1.343-3-3zm20.546-11.059-3.339-3.339-1.414 1.414 1.984 1.984h-17.554l1.984-1.984-1.414-1.414-3.339 3.338c-.292.292-.454.681-.454 1.095s.161.803.454 1.096l3.339 3.339 1.414-1.414-2.056-2.056h17.698l-2.056 2.056 1.414 1.414 3.339-3.339c.293-.292.454-.682.454-1.096s-.162-.802-.454-1.094zm-15.046 15.059h-5c-1.378 0-2.5 1.122-2.5 2.5v2.5h10v-2.5c0-1.378-1.122-2.5-2.5-2.5zm12 0h-5c-1.378 0-2.5 1.122-2.5 2.5v2.5h10v-2.5c0-1.378-1.122-2.5-2.5-2.5zm0-1c.436 0 .852.084 1.238.23l-.655-3.497c-.237-1.56-1.56-2.733-3.088-2.733s-2.851 1.173-3.088 2.733l-.704 3.519c.401-.161.838-.252 1.296-.252h5z"/></svg>