<svg id="Layer_1" viewBox="0 0 24 24" xmlns="http://www.w3.org/2000/svg" data-name="Layer 1"><path d="m24 19v-4h-24v4h11v2h-5v2h12v-2h-5v-2zm-8-13.7v3.4c0 .386-.314.7-.7.7s-.7 0-.7 0v-4.801s.314 0 .7 0 .7.314.7.7zm-6.764-.595.638 3.295h-1.261l.624-3.295zm11.764-3.705h-18c-1.657 0-3 1.343-3 3v9h24v-9c0-1.657-1.343-3-3-3zm-10.488 9.999-.262-1.474h-2.006l-.275 1.474h-1.469l1.372-6.833c.103-.58.628-1.167 1.385-1.167s1.226.524 1.346 1.192l1.397 6.807h-1.488zm7.088-2.299c0 1.269-1.031 2.3-2.3 2.3h-2.3v-8h2.3c1.269 0 2.3 1.031 2.3 2.3z"/></svg>