<svg id="Layer_1" viewBox="0 0 24 24" xmlns="http://www.w3.org/2000/svg" data-name="Layer 1"><path d="m11 15.5s-1.19-1.131-2.672-1.172c1.019-1.076 1.061-2.718 1.061-2.718s-1.641.042-2.718 1.061c-.04-1.482-1.171-2.672-1.171-2.672s-1.131 1.19-1.171 2.672c-1.076-1.02-2.718-1.061-2.718-1.061s.042 1.642 1.061 2.718c-1.482.04-2.672 1.172-2.672 1.172s1.19 1.131 2.672 1.171c-1.019 1.076-1.061 2.718-1.061 2.718s1.641-.042 2.718-1.061c.04 1.482 1.171 2.672 1.171 2.672s1.131-1.19 1.171-2.672c1.076 1.019 2.718 1.061 2.718 1.061s-.042-1.641-1.061-2.718c1.482-.04 2.672-1.171 2.672-1.171zm-4.751.751-.749 1.749-.757-1.743-1.743-.757 1.75-.748.75-1.752.759 1.741 1.741.759zm-6.249 5.749h20v2h-20zm15-18h-2v-4h2zm-4 0h-2v-4h2zm9 5h-2.008v-3h-15.992v3.636c.274.026.675.081 1.159.212.398-.693.808-1.138.892-1.227l1.449-1.523 1.449 1.523c.084.088.493.534.892 1.227.771-.208 1.375-.233 1.497-.237l2.103-.053-.053 2.103c-.003.123-.028.727-.236 1.499.692.398 1.138.808 1.227.892l1.525 1.45-1.525 1.449c-.089.084-.534.492-1.227.891.208.771.233 1.376.236 1.498l.017.661h2.588c2.206 0 4-1.794 4-4h2.008c2.168 0 4-1.767 4-3.857 0-1.938-1.532-3.143-4-3.143zm0 5h-2.008v-3h2.008c1.327 0 2 .385 2 1.143 0 .989-.935 1.857-2 1.857zm-13-10h-2v-4h2z"/></svg>