<svg id="Layer_1" viewBox="0 0 24 24" xmlns="http://www.w3.org/2000/svg" data-name="Layer 1"><path d="m24 8c0 1.654-1.346 3-3 3v1h-2v-1c-1.654 0-3-1.346-3-3h2c0 .552.448 1 1 1h2c.552 0 1-.448 1-1 0-.379-.271-.698-.645-.761l-3.04-.506c-1.342-.224-2.315-1.374-2.315-2.733 0-1.654 1.346-3 3-3v-1h2v1c1.654 0 3 1.346 3 3h-2c0-.552-.448-1-1-1h-2c-.552 0-1 .448-1 1 0 .379.271.698.645.761l3.04.506c1.342.224 2.315 1.374 2.315 2.733zm-7 6h7v6h-11v2h5v2h-12v-2h5v-2h-11v-15c0-1.654 1.346-3 3-3h11.424c-.269.614-.424 1.288-.424 2v4c0 2.045 1.237 3.802 3 4.576zm-12-3h-2v5h2zm4-4h-2v9h2zm4 3h-2v6h2z"/></svg>