<svg id="Layer_1" viewBox="0 0 24 24" xmlns="http://www.w3.org/2000/svg" data-name="Layer 1"><path d="m22.777 10h-5.777v-2h4.869c-.684-1.448-1.364-2.711-2.068-3.581-2.124-2.836-5.339-4.425-8.801-4.419v6h3v16h-2v-14h-3v-6h-3.184c-.414-1.161-1.514-2-2.816-2-1.654 0-3 1.346-3 3s1.346 3 3 3c1.302 0 2.402-.839 2.816-2h1.184v4.027c.62.833 1 1.854 1 2.973 0 1.381-.56 2.631-1.464 3.536l3.464 3.464v4h-2v-3l-4-3.914v-1.27c1.161-.414 2-1.514 2-2.816 0-1.654-1.346-3-3-3s-3 1.346-3 3c0 1.302.839 2.402 2 2.816v2.098l4 3.914v4.172h11v-3h1.247c1.5 0 2.778-1.121 2.974-2.606l.449-3.394h2.33v-2.212s-1.057-2.412-1.223-2.788z"/></svg>