<svg id="Layer_1" viewBox="0 0 24 24" xmlns="http://www.w3.org/2000/svg" data-name="Layer 1"><path d="m22.651 18.044c0-.46-.089-.895-.218-1.313l1.416-.816-.998-1.732-1.411.813c-.605-.652-1.393-1.126-2.29-1.331v-1.621h-2v1.621c-.896.205-1.685.679-2.29 1.331l-1.411-.813-.999 1.732 1.417.816c-.129.418-.218.853-.218 1.313s.09.895.218 1.313l-1.417.816.999 1.732 1.411-.813c.605.652 1.393 1.126 2.29 1.331v1.621h2v-1.621c.896-.205 1.685-.679 2.29-1.331l1.411.813.998-1.732-1.416-.816c.129-.418.218-.853.218-1.313zm-4.5 1.5c-.827 0-1.5-.673-1.5-1.5s.673-1.5 1.5-1.5 1.5.673 1.5 1.5-.673 1.5-1.5 1.5zm-6.5-10.5h-3v-.5c0-.827.673-1.5 1.5-1.5s1.5.673 1.5 1.5zm.345 14.109c-.688.355-1.147.631-1.803.847-2.81-1.456-9.778-4.798-10.042-11.965v-6.524c0-1.292.826-2.435 2.054-2.842l7.946-2.625 7.946 2.625c1.229.407 2.054 1.55 2.054 2.842v4.795c-.64-.165-1.308-.262-2-.262-1.062 0-2.073.211-3 .587v-1.587h-1.5v-.5c0-1.93-1.57-3.5-3.5-3.5s-3.5 1.57-3.5 3.5v.5h-1.5v6c0 1.103.897 2 2 2h3.069c-.041.328-.069.661-.069 1 0 1.943.693 3.723 1.845 5.109zm-4.845-8.109h3.587c.518-1.278 1.354-2.39 2.413-3.24v-.76h-6zm2-3h2v2h-2z"/></svg>