<svg id="Layer_1" viewBox="0 0 24 24" xmlns="http://www.w3.org/2000/svg" data-name="Layer 1"><path d="m17 19h1v4h-4v-4h1v-1.5h-6v1.5h1v4h-4v-4h1v-2c0-.827.673-1.5 1.5-1.5h2.5v-1.5h-1v-4h4v4h-1v1.5h2.5c.827 0 1.5.673 1.5 1.5zm-9-9h-8v13h4v-6h1c0-1.758 1.308-3.204 3-3.449zm16-6v4h-24v-4c0-1.654 1.346-3 3-3h18c1.654 0 3 1.346 3 3zm-19 .5c0-.828-.672-1.5-1.5-1.5s-1.5.672-1.5 1.5.672 1.5 1.5 1.5 1.5-.672 1.5-1.5zm4 0c0-.828-.672-1.5-1.5-1.5s-1.5.672-1.5 1.5.672 1.5 1.5 1.5 1.5-.672 1.5-1.5zm7 9.051c1.692.245 3 1.691 3 3.449h1v6h4v-13h-8z"/></svg>