<svg id="Layer_1" viewBox="0 0 24 24" xmlns="http://www.w3.org/2000/svg" data-name="Layer 1"><path d="m20 16v-16h-16v16zm-10.804-4.02-.393-1.961c.543-.109 2.196-.439 2.196-3.02 0-.552.448-1 1-1s1 .448 1 1c0 2.682-1.386 4.497-3.804 4.98zm4.378 1.205-1.38-1.448c.605-.577 1.042-1.188 1.336-1.869l1.837.792c-.397.92-1 1.77-1.793 2.525zm2.425-6.186c.006.628-.012 1.477-.217 2.379l-1.95-.442c.158-.695.173-1.364.167-1.927 0-.315-.067-.608-.2-.881l1.8-.873c.265.547.4 1.134.4 1.744zm-8 0c0-2.206 1.794-4 4-4 .873 0 1.703.277 2.401.802l-1.202 1.599c-.349-.262-.763-.401-1.199-.401-1.103 0-2 .897-2 2v1h-2zm-4 11v3c0 1.654 1.346 3 3 3h10c1.654 0 3-1.346 3-3v-3h-15.999zm10 4h-4v-2h4z"/></svg>