<svg id="Layer_1" viewBox="0 0 24 24" xmlns="http://www.w3.org/2000/svg" data-name="Layer 1"><path d="m16.573 6h-2.348c-.269-.3-.594-.555-.983-.731-1.362-.621-2.243-1.955-2.243-3.399v-1.87h2v1.869c0 .673.411 1.278 1.072 1.579 1.165.532 2.023 1.454 2.5 2.552zm-6.644 13h4.157l.846-1h7.068v-12h-5.427c.418.962.547 2.059.295 3.165-.418 1.831-1.872 3.284-3.703 3.702-.384.088-.776.133-1.165.133-.552 0-1-.448-1-1s.448-1 1-1c.239 0 .481-.027.719-.082 1.071-.244 1.954-1.128 2.198-2.198.23-1.009-.051-2.006-.692-2.72h-5.225l-2-2v2h-5v12h7.082l.846 1zm5.931 1-.846 1h-6.023l-.846-1h-8.145v1c0 1.657 1.343 3 3 3h18c1.657 0 3-1.343 3-3v-1z"/></svg>