<svg id="Layer_1" viewBox="0 0 24 24" xmlns="http://www.w3.org/2000/svg" data-name="Layer 1"><path d="m21.594 16-.529 2.609c-.287 1.385-1.522 2.391-2.938 2.391h-12.254c-1.415 0-2.65-1.005-2.938-2.391l-.53-2.609h.594c.209 0 .409.064.561.18 1.408 1.073 3.47 1.073 4.877 0 .315-.238.808-.24 1.123 0 1.408 1.073 3.47 1.073 4.877 0 .315-.238.808-.24 1.123 0 .704.537 1.547.82 2.439.82s1.735-.284 2.438-.82c.153-.116.352-.18.562-.18h.594zm-21.594-5c0-3.624 5.353-8 12-8s12 4.376 12 8c0 .519-.172 1.17-.542 1.742-.529.817-1.484 1.258-2.457 1.258-.645 0-1.274.209-1.773.589-.706.538-1.748.539-2.455 0-1.027-.782-2.518-.782-3.545 0-.706.538-1.748.539-2.455 0-1.027-.782-2.518-.782-3.545 0-.706.538-1.748.539-2.455 0-.499-.379-1.128-.588-1.772-.588-.981 0-1.943-.448-2.469-1.276-.361-.569-.531-1.212-.531-1.724zm13-5s.393 2.151.879 2.636c.485.485 1.272.485 1.757 0s.485-1.272 0-1.757-2.636-.879-2.636-.879zm-4.636 2.636c.485.485 1.272.485 1.757 0s.879-2.636.879-2.636-2.151.393-2.636.879c-.485.485-.485 1.272 0 1.757z"/></svg>