<svg id="Layer_1" viewBox="0 0 24 24" xmlns="http://www.w3.org/2000/svg" data-name="Layer 1"><path d="m22 8h-6v-2h4v-2.277c-.595-.346-1-.984-1-1.723 0-1.105.895-2 2-2s2 .895 2 2c0 .738-.405 1.376-1 1.723zm0 12.277v-4.277h-9v2h7v2.277c-.595.346-1 .984-1 1.723 0 1.105.895 2 2 2s2-.895 2-2c0-.738-.405-1.376-1-1.723zm-1-10.277c-.738 0-1.376.405-1.723 1h-4.576c-.465.742-1.037 1.409-1.702 1.974v.026h6.277c.346.595.984 1 1.723 1 1.105 0 2-.895 2-2s-.895-2-2-2zm-7-3.5c0 2.239-1.135 4.284-3 5.473v8.161c0 .729-.295 1.443-.811 1.958l-1.357 1.356c-.367.367-.85.551-1.332.551s-.964-.184-1.332-.55l-1.358-1.358c-.515-.515-.811-1.229-.811-1.957v-2.048l1.461-1.461-1.875-1.875 1.875-1.875-.325-.325c-2.483-.971-4.136-3.372-4.136-6.05.001-3.584 2.917-6.5 6.501-6.5s6.5 2.916 6.5 6.5zm-5-2c0-.828-.672-1.5-1.5-1.5s-1.5.672-1.5 1.5.672 1.5 1.5 1.5 1.5-.672 1.5-1.5z"/></svg>