<svg id="Layer_1" viewBox="0 0 24 24" xmlns="http://www.w3.org/2000/svg" data-name="Layer 1"><path d="m22 14v-1c0-2.206-1.794-4-4-4s-4 1.794-4 4v1h-2v7c0 1.654 1.346 3 3 3h6c1.654 0 3-1.346 3-3v-7zm-3 6h-2v-2h2zm1-6h-4v-1c0-1.103.897-2 2-2s2 .897 2 2zm4-9h-5v-5h2c1.657 0 3 1.343 3 3zm-11 4.724v-2.724h4v.091c-1.675.283-3.101 1.267-4 2.633zm4-4.724h-4v-5h4zm2 2.091v-.091h5v4h-.346c-.718-2.023-2.491-3.544-4.654-3.909zm-19 5.909h5v4h-5zm0-6h5v4h-5zm11 16.969v.031h-4v-5h3v2c0 1.116.38 2.136 1 2.969zm0-18.969h-4v-5h4zm-8-5h2v5h-5v-2c0-1.657 1.343-3 3-3zm8 11h-4v-4h4zm-11 8h5v5h-5zm10-2h-3v-4h3z"/></svg>