<svg id="Layer_1" viewBox="0 0 24 24" xmlns="http://www.w3.org/2000/svg" data-name="Layer 1"><path d="m22.497 11.898c.331.674.503 1.407.503 2.162 0 1.586-.737 3.033-2 3.976v2.297c-.017 1.929-1.092 3.089-3.167 3.494.975-1.203 1.159-2.624 1.167-3.476v-2.48c1.267-1.297 2-3.053 2-4.87 0-.59-.073-1.168-.219-1.728.785-1.092 1.219-2.41 1.219-3.772 0-1.146-.315-2.227-.85-3.173 1.666.669 2.85 2.31 2.85 4.233 0 1.288-.558 2.495-1.503 3.338zm-20.994 0c-.331.674-.503 1.407-.503 2.162 0 1.586.737 3.033 2 3.976v2.297c.017 1.929 1.092 3.089 3.167 3.494-.975-1.203-1.159-2.624-1.167-3.476v-2.48c-1.267-1.297-2-3.053-2-4.87 0-.59.073-1.168.219-1.728-.785-1.092-1.219-2.41-1.219-3.772 0-1.146.315-2.227.85-3.173-1.665.668-2.85 2.309-2.85 4.233 0 1.288.558 2.495 1.503 3.338zm18.497-4.398c0-2.354-1.817-4.292-4.122-4.484-.44-1.731-2.012-3.016-3.878-3.016s-3.438 1.284-3.878 3.016c-2.305.192-4.122 2.13-4.122 4.484 0 1.288.558 2.495 1.503 3.338-.331.674-.503 1.407-.503 2.162 0 1.561.754 3.035 2 3.974v3.368c.019 2.166 1.37 3.372 4 3.609v-12.951h2v12.95c2.63-.236 3.981-1.443 4-3.617v-3.359c1.246-.938 2-2.413 2-3.974 0-.755-.172-1.488-.503-2.162.945-.843 1.503-2.05 1.503-3.338z"/></svg>