<svg id="Layer_1" viewBox="0 0 24 24" xmlns="http://www.w3.org/2000/svg" data-name="Layer 1"><path d="m21.5 4.857c-1.381 0-2.5 1.119-2.5 2.5v5.239s.76.616.907.778c1.4 1.542 1.455 3.915.125 5.519l-4.033 4.088v1.019h6.577l.376-.412c.673-.737 1.047-1.699 1.047-2.698v-13.533c0-1.381-1.119-2.5-2.5-2.5zm-12.8 9.71c-1.017-.923-2.668-.721-3.407.533-.48.815-.331 1.858.272 2.586l2.858 2.89-1.404 1.404-3.052-3.088c-1.329-1.604-1.275-3.977.125-5.519.147-.162.907-.778.907-.778v-5.096c0-1.308-.941-2.499-2.242-2.63-1.496-.15-2.758 1.021-2.758 2.487v13.533c0 .998.373 1.961 1.047 2.698l.376.412h12.577v-3.292c0-.846-.357-1.652-.983-2.221l-4.317-3.92zm10.007.534c-.739-1.254-2.39-1.457-3.407-.533l-1.813 1.646.874.794c.918.834 1.465 1.987 1.587 3.212l2.487-2.532c.603-.728.752-1.772.272-2.586zm-12.707-9.101v-.336l1.5-4.664h3.5v-1h2v1h3.5l1.5 4.664v.336c0 1.104-.895 2-2 2s-2-.896-2-2v-.336l.842-2.664h-1.842v6h3v2h-8v-2h3v-6h-1.842l.842 2.664v.336c0 1.104-.895 2-2 2s-2-.896-2-2z"/></svg>