<svg id="Layer_1" viewBox="0 0 24 24" xmlns="http://www.w3.org/2000/svg" data-name="Layer 1"><path d="m21.933 3.481.489-.489c.852.065 1.582-.643 1.578-1.492 0-.828-.672-1.5-1.5-1.5-.849-.004-1.557.726-1.492 1.578l-.489.489c-.316-.186-.656-.33-1.019-.425v-1.642h-2v1.642c-.363.094-.704.238-1.019.425l-.489-.489c.065-.852-.643-1.582-1.492-1.578-.828 0-1.5.672-1.5 1.5-.004.849.726 1.557 1.578 1.492l.489.489c-.186.316-.33.656-.425 1.019h-1.642v2h1.642c.094.363.238.704.425 1.019l-.489.489c-.852-.065-1.582.643-1.578 1.492 0 .828.672 1.5 1.5 1.5.849.004 1.557-.726 1.492-1.578l.489-.489c.316.186.656.33 1.019.425v1.642h2v-1.642c.363-.094.704-.238 1.019-.425l.489.489c-.065.852.643 1.582 1.492 1.578.828 0 1.5-.672 1.5-1.5.004-.849-.726-1.557-1.578-1.492l-.489-.489c.186-.316.33-.656.425-1.019h1.642v-2h-1.642c-.094-.363-.238-.704-.425-1.019zm-1.893 9.519c-.636 1.391-1.551 2.703-2.692 3.74-.001.001-.003.001-.004.003-1.334 1.213-2.819 1.947-4.344 2.174v5.083h-2v-5.078c-4.511-.665-8-5.7-8-9.922-1.654 0-3-1.346-3-3v-6h2v6c0 .552.449 1 1 1h.332c.737-2.123 2.748-3.42 6.041-3.843.455-.066 1.08-.105 1.626-.125v6.468c0 1.933 1.567 3.5 3.5 3.5z"/></svg>