<?xml version="1.0" encoding="UTF-8"?>
<svg xmlns="http://www.w3.org/2000/svg" id="Layer_1" data-name="Layer 1" viewBox="0 0 24 24">
  <path d="M22.908,24h-.304l-2.985-2.003h-7.619v-7.497c0-1.378,1.122-2.5,2.5-2.5h7c1.378,.002,2.5,1.124,2.5,2.502l-.002,8.41c0,.6-.489,1.088-1.09,1.088ZM8.001,9.814c-1.161-.414-2-1.514-2-2.816h2c0,.551,.448,1,1,1s1-.449,1-1h2c0,1.302-.839,2.402-2,2.816v4.673c.007-2.475,2.022-4.487,4.499-4.487h3.443c.037-.331,.058-.665,.058-1.002,0-2.56-1.096-5.007-3.006-6.714C13.087,.579,10.524-.231,7.957,.057,3.905,.515,.591,3.78,.076,7.82c-.374,2.931,.644,5.76,2.793,7.761,1.056,.982,1.743,2.166,2.007,3.417h3.125V9.814Zm1.999,14.183v-2.999H5.001v3h4.999Z"/>
</svg>
