<svg id="Layer_1" viewBox="0 0 24 24" xmlns="http://www.w3.org/2000/svg" data-name="Layer 1"><path d="m8.019 22.333c-1.53 1.507-2.667 1.666-3.89 1.666-.327-.003-1.085-.009-1.418-.01l-2.708-2.706-.003-.803c-.01-1.52-.017-2.832 1.711-4.561 1.54-1.54 3.62-3.251 5.632-4.905 1.313-1.08 2.552-2.103 3.515-2.976-.314 8.252-1.177 11.89-2.839 14.296zm8.135-12.166c.265-1.362.446-2.758.571-4.04.197-2.04.275-4.128.275-6.128h-4.002c-.022 8.864-.337 14.456-1.227 18.31 1.329-1.492 2.627-3.006 3.809-4.392.224-1.517.453-3.031.573-3.75zm4.846-9.995-2.023 2.023c-.042 1.382-.169 3.792-.527 6.329l5.378-5.524zm1.724 6.829-2.841 2.918-1.53 1.572c1.268-.243 2.963-.487 4.647-.487h1v-3.979c-.255-.005-1.016-.024-1.275-.024z"/></svg>