<svg id="Layer_1" viewBox="0 0 24 24" xmlns="http://www.w3.org/2000/svg" data-name="Layer 1"><path d="m8.131 19.007c0 .492-.4.893-.893.893h-1.738l-.013-1.785h1.752c.492 0 .893.4.893.892zm4.869-1.507c0 3.59-2.91 6.5-6.5 6.5s-6.5-2.91-6.5-6.5 2.91-6.5 6.5-6.5 6.5 2.91 6.5 6.5zm-3.269 1.507c0-.734-.481-1.507-1.058-1.843.275-.381.441-.844.441-1.349 0-1.106-.803-2.022-1.84-2.252l-.002-1.063h-1.6l-.007 1h-1.665v8h1.7v1h1.6v-1l.231-.029c1.237-.146 2.2-1.187 2.2-2.463zm-2.218-3.193c0-.394-.321-.715-.715-.715h-1.298v1.415h1.374c.357-.04.639-.332.639-.7zm8.987 6.236c-.944 0-1.827-.116-2.659-.286-.356.611-.783 1.176-1.275 1.678 1.146.379 2.486.608 3.934.608 4.142 0 7.5-1.791 7.5-4v-2c0 2.209-3.358 4-7.5 4zm0-14.051c4.142 0 7.5-1.791 7.5-4s-3.358-3.999-7.5-3.999-7.5 1.791-7.5 4 3.358 4 7.5 4zm0 6.051c-.821 0-1.605-.077-2.345-.207.316.659.551 1.361.689 2.1.535.065 1.085.107 1.656.107 4.142 0 7.5-1.791 7.5-4v-2c0 2.209-3.358 4-7.5 4zm0-4.051c-4.142 0-7.5-1.791-7.5-4v2c0 2.209 3.358 4 7.5 4s7.5-1.791 7.5-4v-2c0 2.209-3.358 4-7.5 4zm0 8.051c-.524 0-1.03-.037-1.523-.092-.036.674-.145 1.329-.331 1.953.596.081 1.21.139 1.854.139 4.142 0 7.5-1.791 7.5-4v-2c0 2.209-3.358 4-7.5 4z"/></svg>