<svg id="Layer_1" viewBox="0 0 24 24" xmlns="http://www.w3.org/2000/svg" data-name="Layer 1"><path d="m20 9h-2.008v-3h-15.992v6.512c1.812-1.873 4.738-2.401 6.685-2.751.404-.073.782-.14 1.117-.214l1.763-.388.566 1.714c.071.214 1.623 5.137-2.002 9.127h3.863c2.206 0 4-1.794 4-4h2.008c2.168 0 4-1.767 4-3.857 0-1.938-1.533-3.143-4-3.143zm0 5h-2.008v-3h2.008c1.327 0 2 .385 2 1.143 0 .989-.935 1.857-2 1.857zm-9-10h-2v-4h2zm4 0h-2v-4h2zm-8 0h-2v-4h2zm-7 18h20v2h-20zm2.548-6.531s0 0 0 0zm-2.548 3.412.562-1.919c1.517.445 1.666.358 2.56.373 1.553-.158 2.367-.55 2.367-.55 2.398-1.036 3.297-3.105 3.297-3.105-3.002 1.391-4.203 1.895-6.239 1.789.885-3.187 5.308-3.447 7.684-3.969 0 0 1.397 4.23-1.849 7.453-1.222 1.282-3.139 1.267-4.464.37-.498.04-1.778.188-3.919-.44z"/></svg>