<svg id="Layer_1" viewBox="0 0 24 24" xmlns="http://www.w3.org/2000/svg" data-name="Layer 1"><path d="m9 22.673c0-.767.383-4.05 1.579-7.274.311-.84 1.116-1.399 2.012-1.399h.41v-1h2v1h3v-1h2v1h.41c.896 0 1.7.559 2.012 1.399 1.196 3.224 1.579 6.507 1.579 7.274 0 .731-.595 1.327-1.327 1.327-1.131 0-3.317-2.132-4.276-4h-3.795c-.959 1.868-3.145 4-4.276 4-.731 0-1.327-.595-1.327-1.327m-7.001-14.673h1.349s-.002-.008-.003-.013c.823 2.333 3.043 4.013 5.655 4.013s4.824-1.673 5.65-4h1.35c.552 0 1-.448 1-1v-2c0-.552-.448-1-1-1h-1.35c-.827-2.327-3.044-4-5.651-4s-4.824 1.673-5.65 4h2.15c1.554 0 2.956-.763 3.836-1.966.716.061 1.382.295 1.941.685-1.204 1.992-3.363 3.281-5.777 3.281h-2.5c0-.702.127-1.374.349-2h-1.349c-.552 0-1 .448-1 1v2c0 .552.448 1 1 1zm5 14.674c0-.902.404-4.466 1.704-7.97.092-.249.214-.482.349-.704h-4.053c-2.757 0-5 2.243-5 5v5h7.28c-.178-.407-.28-.854-.28-1.326z"/></svg>