<svg id="Layer_1" viewBox="0 0 24 24" xmlns="http://www.w3.org/2000/svg" data-name="Layer 1"><path d="m7 11h2v2h-6v-2h2v-2h-5v-7c0-1.103.897-2 2-2h8c1.103 0 2 .897 2 2v7h-5zm14-8h-2.997l1.499-1.498-1.414-1.414-2.508 2.507c-.773.774-.773 2.036 0 2.812l2.507 2.506 1.414-1.414-1.508-1.498h3.006c.552 0 1 .448 1 1v3h2v-3c0-1.654-1.346-3-3-3zm-15.088 13.088-1.414 1.414 1.508 1.498h-3.006c-.552 0-1-.448-1-1v-3h-2v3c0 1.654 1.346 3 3 3h2.997l-1.499 1.498 1.414 1.414 2.508-2.507c.773-.774.773-2.036 0-2.812l-2.507-2.506zm16.088-5.088h-8c-1.103 0-2 .897-2 2v7h5v2h-2v2h6v-2h-2v-2h5v-7c0-1.103-.897-2-2-2z"/></svg>