<svg id="Layer_1" viewBox="0 0 24 24" xmlns="http://www.w3.org/2000/svg" data-name="Layer 1"><path d="m18 12c-1.105 0-2-.895-2-2s.895-2 2-2 2 .895 2 2-.895 2-2 2m-9 0c3.309 0 6-2.691 6-6h-12c0 3.309 2.691 6 6 6zm5.65-8c-.826-2.327-3.043-4-5.65-4s-4.824 1.673-5.65 4zm-4.65 14.527v-2.443c-.025-.655.06-1.32.228-1.981l-2.728 3.897-2.656-3.984c-2.683.085-4.844 2.281-4.844 4.984v5h7v-2.757zm12.471-7.998c-.155-.155-.316-.296-.481-.428-.055 2.161-1.815 3.898-3.99 3.898-1.788 0-3.285-1.181-3.797-2.8 0 0-.001.001-.002.002-1.522 1.522-2.262 3.253-2.201 4.882v3.331l-3.447 3.12 1.342 1.482 3.333-3.017h3.772v-.004c1.629.054 3.3-.714 4.799-2.198 2.674-2.674 2.943-5.997.672-8.269zm-8.471 8.471v-2l2 2z"/></svg>