<svg id="Layer_1" viewBox="0 0 24 24" xmlns="http://www.w3.org/2000/svg" data-name="Layer 1"><path d="m12 0c-6.617 0-12 5.383-12 12s5.383 12 12 12 12-5.383 12-12-5.383-12-12-12zm-10 12c0-2.398.85-4.6 2.262-6.324l14.063 14.063c-1.725 1.412-3.927 2.262-6.324 2.262-5.514 0-10-4.486-10-10zm17.738 6.324-1.296-1.296c.338-.423.558-.943.558-1.528v-2c0-1.381-1.119-2.5-2.5-2.5h-2.225l.197-1.565c.161-.737-.393-1.435-1.139-1.435h-1.575l.125-1h2.117v-2h-3.883l-.375 3h-.328l-3.738-3.738c1.725-1.412 3.927-2.262 6.324-2.262 5.514 0 10 4.486 10 10 0 2.398-.85 4.6-2.262 6.324zm-5.981-.324h-7.09l-1.121-8.212 8.212 8.212z"/></svg>