<svg id="Layer_1" viewBox="0 0 24 24" xmlns="http://www.w3.org/2000/svg" data-name="Layer 1"><path d="m22 16h-.888c.087.313.177.653.264 1h2.623v2h-2.193c.062.378.099.718.106 1h.087c1.103 0 2 .897 2 2v2h-2v-2h-.606c-.673 1.188-1.934 2-3.394 2s-2.72-.812-3.394-2h-.606v2h-2v-2c0-1.103.897-2 2-2h.087c.007-.279.045-.62.108-1h-2.195v-2h2.626c.087-.347.177-.686.264-1h-.89c-1.103 0-2-.897-2-2v-2h2v2h1.511c.1-.255.206-.496.323-.7.476-.817 1.284-1.3 2.167-1.3.99 0 1.84.551 2.274 1.475.054.113.132.3.218.525h1.508v-2h2v2c0 1.103-.897 2-2 2zm-4-5.988c-.694 0-8-.012-8-.012v14h-10v-21c0-1.654 1.346-3 3-3h14c1.654 0 3 1.346 3 3v7.469c-.608-.303-1.303-.457-2-.456zm-13.842-4.012-1.543 1.543 1.414 1.414 1.543-1.543 1.543 1.543 1.414-1.414-1.543-1.543 1.543-1.543-1.414-1.414-1.543 1.543-1.543-1.543-1.414 1.414zm2.004 10.647 2.913-2.998-1.415-1.436-2.326 2.414-1.447-1.44-1.387 1.441 1.987 2.011c.455.478 1.216.481 1.674.007zm9.838-11.647h-5v2h5z"/></svg>