<svg id="Layer_1" viewBox="0 0 24 24" xmlns="http://www.w3.org/2000/svg" data-name="Layer 1"><path d="m21 11c0 .511-.053 1.009-.14 1.496-1.037-1.435-2.69-2.391-4.57-2.481.246-.16.483-.335.705-.533 1.195-1.067 1.85-2.509 1.97-3.992 1.266 1.484 2.035 3.406 2.035 5.51zm-5 1c-1.202 0-2.267.541-3 1.38-.525-.601-1.226-1.039-2.02-1.245.068-.053.142-.092.207-.15.897-.8 1.331-1.913 1.32-3.027 1.106.138 2.26-.168 3.157-.968 1.648-1.471 1.792-3.999.321-5.648-1.471-1.648-3.999-1.792-5.648-.321l-2.211-2.021h-8.077l5.811 6.016c-1.648 1.471-1.792 3.999-.321 5.648.55.616 1.248 1.022 1.992 1.212-.926.733-1.531 1.853-1.531 3.125 0 2.209 1.791 4 4 4v4h6v-4c2.209 0 4-1.791 4-4s-1.791-4-4-4z"/></svg>