<svg id="Layer_1" viewBox="0 0 24 24" xmlns="http://www.w3.org/2000/svg" data-name="Layer 1"><path d="m19.714 12c.958 0 1.859.376 2.534 1.008 0 0 1.751-2.008 1.751-4.508 0-3.584-2.916-6.5-6.5-6.5-1.695 0-3.295.66-4.5 1.82v-3.82h-2v3.82c-1.205-1.16-2.805-1.82-4.5-1.82-3.583 0-6.499 2.916-6.499 6.5 0 2 1.751 4.508 1.751 4.508.675-.632 1.576-1.008 2.534-1.008 2.048 0 3.714 1.666 3.714 3.714 0 .952-.37 1.853-1 2.529v4.321c.488.259.997.435 1.5.435 1.209 0 2.077-.78 2.775-1.407.228-.206.559-.5.725-.574.166.074.497.368.725.574.698.627 1.566 1.407 2.775 1.407.503 0 1.012-.176 1.5-.435v-4.321c-.63-.677-1-1.577-1-2.529 0-2.048 1.666-3.714 3.714-3.714zm-3.015-1.715-1.933 2.399c-.626.932-1.604 1.772-2.766 1.816-1.162-.045-2.14-.885-2.766-1.816l-1.933-2.399c-.251-.374-.351-.842-.277-1.285.191-1.166 1.695-1.567 2.558-.76l2.418 2.078 2.418-2.078c.863-.807 2.367-.406 2.558.76.074.443-.026.912-.277 1.285zm-10.699 5.429c0 .691-.411 1.283-1 1.554v6.732h-2v-5.277c-.295.172-.634.277-1 .277-1.105 0-2-.895-2-2s.895-2 2-2c.24 0 .468.049.681.127.24-.656.865-1.127 1.604-1.127.947 0 1.714.768 1.714 1.714zm18 1.286c0 1.105-.895 2-2 2-.366 0-.705-.106-1-.277v5.277h-2v-6.732c-.589-.271-1-.863-1-1.554 0-.947.768-1.714 1.714-1.714.74 0 1.364.471 1.604 1.127.214-.078.441-.127.681-.127 1.105 0 2 .895 2 2z"/></svg>