<svg id="Layer_1" viewBox="0 0 24 24" xmlns="http://www.w3.org/2000/svg" data-name="Layer 1"><path d="m10.001 0-9.995 5.521v15.509c.01 1.644 1.355 2.969 3.001 2.969h5.818s3.899 0 3.899 0c-1.665-1.465-2.722-3.605-2.722-5.997 0-4.416 3.58-7.996 7.996-7.996.692 0 1.359.097 1.999.262v-4.747zm-3.498 8.007c.828 0 1.499.671 1.499 1.499s-.671 1.499-1.499 1.499-1.499-.671-1.499-1.499.671-1.499 1.499-1.499zm.977 8.996h-2.281l5.867-8.996h2.281zm10.517-4.998c-3.312 0-5.997 2.685-5.997 5.997s2.685 5.997 5.997 5.997 5.997-2.685 5.997-5.997-2.685-5.997-5.997-5.997zm.743 8.683c-.417.417-1.092.417-1.509 0l-2.686-2.686h2.452v-2.999h1.999v2.999h2.43z"/></svg>