<svg id="Layer_1" viewBox="0 0 24 24" xmlns="http://www.w3.org/2000/svg" data-name="Layer 1"><path d="m11.89 9.047c.455 1.969-.545 3.772-2.137 4.55-1.036.506-1.753 1.487-1.753 2.64v7.764h-6v-8.54c0-.769-.31-1.506-.863-2.04-.792-.767-1.249-1.875-1.113-3.095.148-1.334 1.061-2.509 2.299-3.029 1.012-.425 1.956-.354 2.776-.037.944-1 2.386-1.523 3.941-1.128 1.4.356 2.525 1.506 2.85 2.914zm8.61-9.047c-1.042 0-1.944.159-3.017.532-2.045.713-4.206.713-6.253 0-.985-.343-2.132-.532-3.23-.532-1.719 0-4.814 1.12-5.396 5.128.003 0 .008.005.011.005.655-.137 1.319-.168 1.98-.067 1.417-.989 3.188-1.315 4.937-.872 2.124.54 3.813 2.269 4.307 4.404.639 2.767-.681 5.562-3.208 6.796-.148.073-.631.347-.631.843v.575l5.127 5.441c.867 1.001 2.074 1.621 3.373 1.748 3.032 0 5.5-2.467 5.5-5.5v-15.001c0-2.061-1.439-3.5-3.5-3.5z"/></svg>