<svg id="Layer_1" viewBox="0 0 24 24" xmlns="http://www.w3.org/2000/svg" data-name="Layer 1"><path d="m21.972 14.44-.796-3.79c-.478-2.282-2.039-3.645-4.176-3.645-2.157 0-3.678 1.327-4.175 3.64-.291 1.356-.646 3.066-.798 3.798-.08.384.016.778.263 1.082.249.305.617.48 1.012.48h1.971c.123.844.843 1.494 1.722 1.494s1.598-.65 1.722-1.494h1.981c.396 0 .765-.175 1.013-.481.247-.304.342-.699.261-1.084zm-6.972 7.56c.342 0 .677-.035 1-.101v2.101h-12v-2.101c.323.066.658.101 1 .101zm-10-20c-.342 0-.677.035-1 .101v-2.101h12v2.101c-.323-.066-.658-.101-1-.101zm0 18c-1.654 0-3-1.346-3-3v-10c0-1.654 1.346-3 3-3h10c.895 0 1.691.402 2.241 1.026-.082-.003-.158-.02-.241-.02-3.09 0-5.439 2-6.13 5.221-.292 1.359-.648 3.076-.801 3.809-.204.976.041 1.979.671 2.755.63.772 1.564 1.216 2.562 1.216h.712c.633.835 1.609 1.371 2.689 1.459-.484.336-1.07.535-1.703.535h-10z"/></svg>