<svg id="Layer_1" viewBox="0 0 24 24" xmlns="http://www.w3.org/2000/svg" data-name="Layer 1"><path d="m22.131 16.429-9.165 3.678c-.058-2.292-.203-4.4-.421-6.301 4.046.799 7.391 1.832 9.586 2.623zm-13.205-16.429h.074c8.267 0 14.993 6.724 15 14.991-1.897-.748-4.962-1.776-8.764-2.654l.714-2.628c.26-1.007-.656-1.923-1.663-1.663l-2.551.678c-.916-4.435-2.105-7.3-2.81-8.725zm9.074 10c0 .829.672 1.5 1.5 1.5s1.5-.672 1.5-1.5-.672-1.5-1.5-1.5-1.5.672-1.5 1.5zm-5-5.499c0 .829.672 1.5 1.5 1.5s1.5-.672 1.5-1.5-.672-1.5-1.5-1.5-1.5.672-1.5 1.5zm-5.417-2.655-7.415 18.484c-.367 1.01-.123 2.109.637 2.869.766.773 1.893.997 2.899.625l7.281-2.922c-.155-10.089-2.166-16.226-3.402-19.056z"/></svg>