<svg id="Layer_1" viewBox="0 0 24 24" xmlns="http://www.w3.org/2000/svg" data-name="Layer 1"><path d="m2.001 0c-1.105 0-2.001.895-2.001 2v6h4.872l2.454 1.69c.186.119.387.173.583.173.566 0 1.089-.45 1.089-1.088l.002-6.772c0-1.1-.9-2.001-2-2.001l-5-.002zm18.999 12c0-.537-.051-1.082-.153-1.625l3.052-1.755-2.99-5.202-3.051 1.754c-.841-.721-1.81-1.28-2.857-1.649v-3.523h-4.556c.353.605.556 1.287.556 2.004l-.002 5.208c.307-.135.645-.212 1.002-.212 1.381 0 2.5 1.119 2.5 2.5s-1.119 2.5-2.5 2.5c-.809 0-1.52-.39-1.977-.986-.554.522-1.295.848-2.115.848-.587 0-1.162-.169-1.661-.488l-1.997-1.374h-1.02c-.146.654-.233 1.343-.23 2 0 .537.051 1.082.153 1.625l-3.052 1.755 2.991 5.202 3.05-1.754c.841.721 1.81 1.28 2.857 1.649v3.522h6v-3.522c1.047-.37 2.016-.929 2.857-1.649l3.051 1.754 2.99-5.202-3.052-1.755c.102-.544.153-1.088.153-1.625zm-7 4.576s-.5.424-2 .424-2-.424-2-.424c-.8-.351-1.481-.912-1.997-1.604.015-1.09.904-1.972 1.997-1.972h4c1.094 0 1.982.882 1.997 1.972-.516.692-1.197 1.253-1.997 1.604z"/></svg>