<svg id="Layer_1" viewBox="0 0 24 24" xmlns="http://www.w3.org/2000/svg" data-name="Layer 1"><path d="m19 19h-4v-3h4zm-14 5h3v-8h-3zm19-11v11h-14v-10h-7v10h-3v-11c0-1.654 1.346-3 3-3h1.927l5.696-3.35c-.96-.501-1.623-1.494-1.623-2.65h2c0 .552.448 1 1 1s1-.448 1-1c0-.369-.202-.707-.528-.883-.907-.486-1.472-1.475-1.472-2.577v-.54h2v.54c0 .359.165.68.419.816.976.525 1.581 1.538 1.581 2.644 0 1.155-.664 2.149-1.623 2.65l5.696 3.35h1.927c1.654 0 3 1.346 3 3zm-8.872-3-3.128-1.84-3.128 1.84h6.255zm5.872 4h-8v7h8z"/></svg>