<svg id="Layer_1" viewBox="0 0 24 24" xmlns="http://www.w3.org/2000/svg" data-name="Layer 1"><path d="m10 9.5c0 1.378-1.121 2.5-2.5 2.5s-2.5-1.122-2.5-2.5 1.121-2.5 2.5-2.5 2.5 1.122 2.5 2.5zm8.488 13.942c-.328-.797-.651-1.935-.019-3.371.228-.516.538-1.088.53-1.58 0-.518-.149-1.005-.434-1.408-.759-1.082-.759-2.593 0-3.674.284-.404.434-.891.434-1.409s-.149-1.005-.434-1.408c-.748-1.065-.748-2.61 0-3.675.284-.403.434-.89.434-1.408.003-.502-.257-1.014-.517-1.549-.528-1.1-.527-2.305.002-3.395.066-.135.16-.338.264-.564h-1.088c-1.014 0-1.928.571-2.387 1.489-.43.861-.346 1.863.244 2.648.22.285.481.753.481 1.372 0 .519-.149 1.005-.433 1.408-.75 1.065-.75 2.611 0 3.675.284.403.434.89.434 1.408s-.149 1.005-.433 1.407c-.75 1.064-.75 2.61 0 3.676.279.397.434.9.434 1.417 0 .611-.262 1.079-.507 1.396-.564.752-.648 1.754-.219 2.615.458.918 1.372 1.488 2.387 1.489h1.102s-.275-.558-.275-.558zm5.512-11.442c0-.932-.275-1.816-.797-2.559-.271-.385-.271-.989 0-1.374.521-.741.797-1.626.797-2.559-.003-.986-.378-1.717-.714-2.416-.229-.479-.196-1.324.053-1.792l.661-1.298h-3.055c-.245.543-.516 1.139-.661 1.437-.181.374-.328.965.003 1.654.336.699.711 1.43.714 2.416 0 .933-.275 1.817-.797 2.559-.271.385-.271.989 0 1.374.521.742.797 1.627.797 2.559s-.275 1.816-.797 2.559c-.271.385-.271.989 0 1.375.521.741.797 1.626.797 2.558-.007.986-.375 1.653-.7 2.387-.302.686-.214 1.192.011 1.743l.681 1.376 3.009-.002-.657-1.283c-.343-.763-.261-1.34-.043-1.834.325-.733.693-1.401.7-2.387 0-.932-.275-1.816-.797-2.558-.271-.386-.271-.99 0-1.375.521-.742.797-1.627.797-2.559zm-10.337 11.706c-.688.191-1.414.294-2.163.294-3.18 0-6.016-1.852-7.304-4.741-2.633-2.032-4.196-5.192-4.196-8.509 0-5.928 4.822-10.75 10.75-10.75.989 0 1.943.145 2.853.396-.038.068-.083.13-.118.2-.771 1.543-.604 3.36.45 4.763.103.134.075.262-.003.406-1.239 1.759-1.24 4.218 0 5.979.087.133.1.355 0 .512-1.239 1.758-1.24 4.217-.003 5.977.076.104.111.329-.036.463-1.021 1.361-1.179 3.165-.409 4.708.053.106.118.202.178.303zm-3.663-6.206c0-.828-.672-1.5-1.5-1.5s-1.5.672-1.5 1.5.672 1.5 1.5 1.5 1.5-.672 1.5-1.5zm2-8c0-2.481-2.019-4.5-4.5-4.5s-4.5 2.019-4.5 4.5 2.019 4.5 4.5 4.5 4.5-2.019 4.5-4.5z"/></svg>