<svg id="Layer_1" viewBox="0 0 24 24" xmlns="http://www.w3.org/2000/svg" data-name="Layer 1"><path d="m21.036 18.465-1.414 1.414c-1.17-1.17-3.073-1.17-4.243 0l-1.414-1.414c1.949-1.949 5.122-1.949 7.071 0zm-9.899-2.829 1.414 1.414c2.729-2.729 7.17-2.729 9.899 0l1.414-1.414c-3.509-3.51-9.219-3.51-12.728 0zm6.364 5.364c-.828 0-1.5.672-1.5 1.5s.672 1.5 1.5 1.5 1.5-.672 1.5-1.5-.672-1.5-1.5-1.5zm-9.658-4.259.658 2.259h-3l.658-2.259c-.397-.27-.658-.725-.658-1.241 0-.828.672-1.5 1.5-1.5.811 0 1.467.645 1.495 1.449l1.227-1.227c1.221-1.221 2.684-2.11 4.278-2.642v-1.975c-2.683.392-5.713.395-7.42.395-.144 0-.437 0-.58 0v-2c2.647.002 5.374-.01 8-.42 1.673-.307 3.508-.497 5.062-.54.248 1.119 1.245 1.96 2.438 1.96 1.378 0 2.5-1.122 2.5-2.5s-1.122-2.5-2.5-2.5c-1.784 0-4.306.47-6.977.967-.167.031-.349.062-.523.093v-2.06c0-1.654-1.346-3-3-3h-8.001c-1.654 0-3 1.346-3 3v21h14v-2.671l-5.537-5.538c-.078.393-.302.732-.621.95z"/></svg>