<svg id="Layer_1" viewBox="0 0 24 24" xmlns="http://www.w3.org/2000/svg" data-name="Layer 1"><path d="m2.033 2.008 1-1.999 1 1.999 2 1-2 1-1 1.999-1-1.999-2-1zm12.075 19.898c-1.493 1.3-3.44 2.094-5.576 2.094-4.694 0-8.499-3.804-8.499-8.497s3.805-8.497 8.5-8.497c1.641 0 3.167.472 4.466 1.277l1.11 13.623zm-2.075-7.402-1.667-.833-.833-1.666-.833 1.666-1.667.833 1.667.833.833 1.666.833-1.666zm9.868-4.499h-6.755l.163 1.999h6.432zm.199-1.999 1.867-4.998c-1.131-1.585-3.32-3.117-5.435-3.002-2.113-.107-4.301 1.424-5.434 3.01l1.867 4.99zm-6.628 5.998.814 9.996h4.494l.801-9.996z"/></svg>