<svg id="Layer_1" viewBox="0 0 24 24" xmlns="http://www.w3.org/2000/svg" data-name="Layer 1"><path d="m15 17c0 .611-.185 1.178-.5 1.652v5.348l-2.5-2.5-2.5 2.5v-5.348c-.315-.474-.5-1.042-.5-1.652 0-1.654 1.346-3 3-3s3 1.346 3 3zm-3.033-5.995c.719 0 1.437-.16 2.064-.48l9.969-5.023-9.97-5.024c-1.255-.638-2.875-.637-4.125 0l-9.853 5.024 9.852 5.023c.626.32 1.345.48 2.063.48zm-2.383 1.442c-.201-.077-.399-.159-.589-.256l-3.995-2.037v4.663c-3.328-.503-3.297-.534-5-.849v6.991c1.85-.333 3.111-.643 7.812-1.213-.559-.816-.889-1.8-.889-2.862 0-1.92 1.084-3.575 2.661-4.437zm9.416 2.37v-4.695l-4.061 2.07c-.178.091-.365.166-.553.24 1.593.858 2.69 2.521 2.69 4.453 0 1.062-.33 2.046-.889 2.862 4.709.571 5.954.878 7.812 1.213v-6.991c-1.7.314-1.675.346-5 .849z"/></svg>