<svg id="Layer_1" viewBox="0 0 24 24" xmlns="http://www.w3.org/2000/svg" data-name="Layer 1"><path d="m18 0c-3.314 0-6 2.686-6 6s2.686 6 6 6 6-2.686 6-6-2.686-6-6-6zm3.536 8.121-1.414 1.414-2.121-2.121-2.121 2.121-1.414-1.414 2.121-2.121-2.121-2.121 1.414-1.414 2.121 2.121 2.121-2.121 1.414 1.414-2.121 2.121zm-11.658 9.001-6.878-6.879v-7.243c0-1.654 1.346-3 3-3h6.726c-1.667 1.467-2.726 3.61-2.726 6 0 4.168 3.205 7.597 7.279 7.964l-3.158 3.158c-1.133 1.133-3.109 1.133-4.243 0zm14.021-5.737c.064.276.101.559.101.847v11.769h-24v-11.769c.001-.609.156-1.201.419-1.742l8.046 8.046c.945.944 2.2 1.464 3.536 1.464s2.591-.52 3.535-1.464l4.927-4.928c1.334-.433 2.511-1.211 3.437-2.224z"/></svg>