<svg id="Layer_1" viewBox="0 0 24 24" xmlns="http://www.w3.org/2000/svg" data-name="Layer 1"><path d="m17 22c.342 0 .677-.035 1-.101v2.101h-12v-2.101c.323.066.658.101 1 .101zm7-18c0-2.21-1.79-4-4-4s-4 1.79-4 4 1.79 4 4 4 4-1.79 4-4zm-9.65-2c.265-.746.672-1.422 1.19-2h-9.54v2.101c.323-.066.658-.101 1-.101zm5.65 8v7c0 1.654-1.346 3-3 3h-10c-1.654 0-3-1.346-3-3v-10c0-1.654 1.346-3 3-3h7c0 3.309 2.691 6 6 6zm-11.417-1 2.71 2.709c.378.377 1.036.377 1.414 0l2.709-2.709zm7.417 2.244-1.879 1.879c-.585.585-1.353.877-2.121.877s-1.536-.292-2.121-.877l-1.879-1.879v4.756h8z"/></svg>