<svg id="Layer_1" viewBox="0 0 24 24" xmlns="http://www.w3.org/2000/svg" data-name="Layer 1"><path d="m22 5.5v8.5c0 1.654-1.346 3-3 3h-7c-1.105 0-2-.895-2-2s.895-2 2-2 2 .895 2 2h5c.552 0 1-.449 1-1v-8.5c0-1.93-1.57-3.5-3.5-3.5h-9c-1.93 0-3.5 1.57-3.5 3.5v5.5h-2v-5.5c0-3.033 2.468-5.5 5.5-5.5h9c3.032 0 5.5 2.467 5.5 5.5zm-5 12.5h-10c-2.206 0-4 1.794-4 4v2h18v-2c0-2.206-1.794-4-4-4zm-1.564-5c-.69-1.191-1.96-2-3.436-2s-2.746.809-3.436 2h-2.564v-6.5c0-1.378 1.121-2.5 2.5-2.5h7c1.379 0 2.5 1.122 2.5 2.5v6.5zm-4.436-4.5c0-.828-.672-1.5-1.5-1.5s-1.5.672-1.5 1.5.672 1.5 1.5 1.5 1.5-.672 1.5-1.5zm3.5 1.5c.828 0 1.5-.672 1.5-1.5s-.672-1.5-1.5-1.5-1.5.672-1.5 1.5.672 1.5 1.5 1.5z"/></svg>