<svg id="Layer_1" viewBox="0 0 24 24" xmlns="http://www.w3.org/2000/svg" data-name="Layer 1"><path d="m21 4h-3v-2c0-1.103-.897-2-2-2h-8c-1.103 0-2 .897-2 2v2h-3c-1.654 0-3 1.346-3 3v17h24v-17c0-1.654-1.346-3-3-3zm-10.478 9.24 3.285.547c1.271.212 2.193 1.301 2.193 2.589 0 1.447-1.177 2.624-2.624 2.624h-.376v1h-2v-1c-1.654 0-3-1.346-3-3h2c0 .552.449 1 1 1h2.376c.344 0 .624-.28.624-.624 0-.307-.219-.565-.522-.616l-3.285-.547c-1.271-.212-2.193-1.301-2.193-2.589 0-1.447 1.177-2.624 2.624-2.624h.376v-1h2v1c1.654 0 3 1.346 3 3h-2c0-.552-.449-1-1-1h-2.376c-.344 0-.624.28-.624.624 0 .307.219.565.522.616zm5.478-9.24h-8v-2h8z"/></svg>