<svg id="Layer_1" viewBox="0 0 24 24" xmlns="http://www.w3.org/2000/svg" data-name="Layer 1"><path d="m11.494 8.6c.594.594.931 2.577.998 3.891-1.34-.07-3.302-.406-3.892-.997-.794-.762-.794-2.133 0-2.895.387-.387.901-.6 1.447-.6s1.061.213 1.447.6zm12.506-6.6v2h-1.105l-1.703 15.331c-.169 1.521-1.451 2.669-2.981 2.669h-12.421c-1.53 0-2.812-1.147-2.981-2.668l-1.704-15.332h-1.105v-2zm-6 12.5c0-.828-.672-1.5-1.5-1.5-.565 0-1.052.317-1.307.779l-.693-.693c-.031-1.063-.052-4.184-1.591-5.9-1.577-1.578-4.145-1.578-5.723 0-.765.764-1.186 1.78-1.186 2.861s.421 2.097 1.186 2.861c1.688 1.528 4.843 1.563 5.9 1.592l.693.693c-.462.256-.779.742-.779 1.307 0 .828.672 1.5 1.5 1.5s1.5-.672 1.5-1.5c0-.237-.06-.459-.158-.658.199.098.421.158.658.158.828 0 1.5-.672 1.5-1.5z"/></svg>