<svg id="Layer_1" viewBox="0 0 24 24" xmlns="http://www.w3.org/2000/svg" data-name="Layer 1"><path d="m8 12v-12c3.309 0 6 2.691 6 6s-2.691 6-6 6zm4.667.667-1.667.833 1.667.833.833 1.667.833-1.667 1.667-.833-1.667-.833-.833-1.667zm11.333 5.833c0 1.397-1.102 2.501-2.478 2.5h-.922v3h-1.6v-8h2.5c1.381 0 2.5 1 2.5 2.5zm-1.6 0c0-.496-.404-.9-.9-.9h-.9v1.8h.9c.496 0 .9-.404.9-.9zm-16.4-6.5v-12c-3.309 0-6 2.691-6 6s2.691 6 6 6zm11.764-3 1.5-3h2.471l1.156 2.311c.671-.55 1.109-1.375 1.109-2.311 0-1.657-1.343-3-3-3h-5.589c.377.927.589 1.939.589 3s-.212 2.073-.589 3zm2.736-1-1.167 2.333-2.333 1.167 2.333 1.167 1.167 2.333 1.167-2.333 2.333-1.167-2.333-1.167zm-2.5 10.3v3.4c0 1.269-1.031 2.3-2.3 2.3s-2.3-1.031-2.3-2.3v-3.4c0-1.269 1.031-2.3 2.3-2.3s2.3 1.031 2.3 2.3zm-1.6 0c0-.386-.314-.7-.7-.7s-.7.314-.7.7v3.4c0 .386.314.7.7.7s.7-.314.7-.7zm-11.4-2.3h-1.744l-.872 3h-.784v-3h-1.6v8h1.6v-3.4l.688-.002.968 3.401h1.744l-1.252-3.974 1.252-4.026zm0 4.8h2v-1.6h-2zm8-2.3c0 1.397-1.102 2.501-2.478 2.5h-.922v3h-1.6v-8h2.5c1.381 0 2.5 1.119 2.5 2.5zm-1.6 0c0-.496-.404-.9-.9-.9h-.9v1.8h.9c.496 0 .9-.404.9-.9z"/></svg>