<?xml version="1.0" encoding="UTF-8"?>
<svg xmlns="http://www.w3.org/2000/svg" id="Layer_1" data-name="Layer 1" viewBox="0 0 24 24">
  <path d="M13,11.5c0-.828,.672-1.5,1.5-1.5s1.5,.672,1.5,1.5-.672,1.5-1.5,1.5-1.5-.672-1.5-1.5Zm-5,9.5v3h8v-3c-1.446,0-2.851-.529-4-1.457-1.149,.928-2.554,1.457-4,1.457ZM24,11.5c0-1.434-.87-2.692-2.149-3.226C21.027,3.512,16.905,0,12,0,7.334,0,3.227,3.308,2.226,7.903l-.725,4.097h1.499c1.882,0,3.622-.47,5.184-1.205-.113,.211-.184,.449-.184,.705,0,.828,.672,1.5,1.5,1.5s1.5-.672,1.5-1.5c0-.783-.602-1.418-1.366-1.487,2.378-1.47,4.213-3.509,5.288-5.25,.505-.691,.877-1.228,1.151-1.652,2.112,1.246,3.608,3.435,3.882,6.038l.078,.745,.737,.134c.713,.129,1.23,.749,1.23,1.471,0,.827-.673,1.5-1.5,1.5-.187,0-.893-.145-1.088-.172-.377,1.213-.912,2.311-1.843,3.333-.597-.355-1.164-.758-1.749-1.201-.83-.628-1.621-.96-2.501-.96s-1.32,.469-1.32,.469c0,0-.44-.469-1.32-.469s-1.671,.332-2.501,.96c-.583,.442-1.148,.844-1.743,1.198-.645-.723-1.159-1.519-1.477-2.31-.675,.099-1.373,.158-2.08,.152,.371,1.117,.897,2.054,1.689,3.051-.482,.176-.998,.328-1.569,.449,0,0,2,1.5,5,1.5,1.5,0,3.094-.906,4-2.5,.906,1.594,2.5,2.5,4,2.5,3,0,5-1.5,5-1.5-.564-.12-1.076-.269-1.553-.443,.522-.653,.959-1.349,1.286-2.065,1.822-.12,3.268-1.641,3.268-3.492Z"/>
</svg>
