<svg id="Layer_1" viewBox="0 0 24 24" xmlns="http://www.w3.org/2000/svg" data-name="Layer 1"><path d="m18 12c-3.314 0-6 2.686-6 6s2.686 6 6 6 6-2.686 6-6-2.686-6-6-6zm1 6v3h-2v-3h-2.454l2.687-2.687c.417-.417 1.093-.417 1.51 0l2.688 2.687zm-12-2c-.796 0-1.535.24-2.158.642l-2.842-7.459c0-.387-.002-.762.018-1.184h1.982c.364 0 .709.075 1.032.194-.021.099-.032.201-.032.306 0 .828.672 1.5 1.5 1.5.105 0 .207-.011.306-.032.119.323.194.668.194 1.032v5zm8-7.5c0-.105-.011-.207-.032-.306.323-.119.668-.194 1.032-.194h1.982c.02.421.018.797.018 1.184l-.317.832c-1.769.07-3.39.707-4.683 1.744v-.76c0-.364.075-.709.194-1.032.099.021.201.032.306.032.828 0 1.5-.672 1.5-1.5zm-5 9.5c0 1.459.397 2.822 1.079 4h-4.079c-1.105 0-2-.895-2-2s.895-2 2-2zm-7.097-13.01c-1.609-.052-2.903-1.369-2.903-2.99v-2h2v2c0 .552.449 1 1 1h14c.551 0 1-.448 1-1v-2h2v2c0 1.621-1.295 2.938-2.903 2.99.223.325.397.663.523 1.01h-1.62c-2.757 0-5 2.243-5 5v3.13c-.322.582-.568 1.211-.738 1.87h-1.262v-5c0-2.757-2.243-5-5-5h-1.62c.126-.346.3-.685.523-1.01z"/></svg>