<svg id="Layer_1" viewBox="0 0 24 24" xmlns="http://www.w3.org/2000/svg" data-name="Layer 1"><path d="m23.123 16.127-3.502-2.741c-.66-.517-1.581-.517-2.241 0l-3.503 2.741c-.557.436-.876 1.092-.876 1.8v6.073h11v-6.073c0-.708-.319-1.364-.877-1.8zm-3.123 4.873h-3v-3h3zm-17.5-4c-.925 0-1.784.282-2.5.762v-14.262c0-1.93 1.57-3.5 3.5-3.5h1.5v17zm8.5 7h-8.5c-1.381 0-2.5-1.119-2.5-2.5s1.119-2.5 2.5-2.5h4.5v-15h17v10.274l-3-2.348v-3.926h-6v2h4v1.039c-.991-.131-2.021.121-2.853.772l-3.503 2.741c-.241.189-.452.404-.644.633v-7.185h-2v11h1z"/></svg>