<svg id="Layer_1" viewBox="0 0 24 24" xmlns="http://www.w3.org/2000/svg" data-name="Layer 1"><path d="m14.999 15c-.49 1.174-1.648 2-2.999 2s-2.509-.826-2.999-2zm-.506-5c-.828 0-1.5.672-1.5 1.5s.672 1.5 1.5 1.5 1.5-.672 1.5-1.5-.672-1.5-1.5-1.5zm9.507 1.5c0 1.852-1.446 3.372-3.268 3.492-.892 1.943-2.61 3.835-4.732 4.962v4.046h-8v-4.056c-2.497-1.348-4.35-3.589-5.12-5.944.706.006 1.405-.053 2.08-.152 1.018 2.534 4.015 5.153 7.041 5.153 3.13 0 6.214-2.78 7.13-5.377l.282-.799c.192.028.904.176 1.087.175.827 0 1.5-.673 1.5-1.5h-.007c0-.723-.518-1.342-1.23-1.472l-.737-.134-.079-.745c-.272-2.582-1.747-4.759-3.833-6.01-1.799 3.481-4.183 5.561-6.494 6.873.768.065 1.373.702 1.373 1.487 0 .828-.672 1.5-1.5 1.5s-1.5-.672-1.5-1.5c0-.256.07-.493.183-.704-1.483.696-3.13 1.148-4.904 1.192-.172.011-1.778.013-1.778.013l.725-4.097c1.001-4.595 5.108-7.903 9.774-7.903 4.905 0 9.027 3.513 9.85 8.274 1.28.533 2.15 1.792 2.15 3.226z"/></svg>