<svg id="Layer_1" viewBox="0 0 24 24" xmlns="http://www.w3.org/2000/svg" data-name="Layer 1"><path d="m17 10v-8h.7c1.184 0 2.26.699 2.741 1.781l2.764 6.219h-6.206zm0 2v6h7v-5.151c0-.288-.04-.569-.089-.849zm6 8h-6c0 1.654 1.346 3 3 3s3-1.346 3-3zm-8-2v3c0 1.654-1.346 3-3 3h-9c-1.654 0-3-1.346-3-3v-3zm-6 2h-3v2h3zm-9-4v-16h15v16zm4.2-9.626c0 1.033.734 1.929 1.747 2.131l2.791.559c.268.054.462.291.462.563 0 .316-.258.574-.574.574h-2.126c-.316 0-.585-.211-.671-.5h-1.62c.102 1.175 1.09 2.1 2.291 2.1h.2v1.2h1.6v-1.2h.326c1.199 0 2.174-.975 2.174-2.173 0-1.033-.734-1.929-1.747-2.131l-2.792-.559c-.267-.054-.461-.291-.461-.562 0-.316.257-.574.573-.574h2.127c.316 0 .585.211.671.5h1.62c-.102-1.175-1.09-2.1-2.291-2.1h-.2v-1.2h-1.6v1.2h-.327c-1.198 0-2.173.975-2.173 2.173z"/></svg>