<svg id="Layer_1" viewBox="0 0 24 24" xmlns="http://www.w3.org/2000/svg" data-name="Layer 1"><path d="m17.265 15.379-1.425-.821c.094-.339.16-.689.16-1.058s-.066-.719-.16-1.058l1.425-.821-.998-1.733-1.415.815c-.5-.51-1.14-.876-1.852-1.061v-1.642h-2v1.642c-.712.185-1.351.551-1.852 1.061l-1.415-.815-.998 1.733 1.425.821c-.094.339-.16.689-.16 1.058s.066.719.16 1.058l-1.425.821.998 1.733 1.415-.815c.5.51 1.14.876 1.852 1.061v1.642h2v-1.642c.712-.185 1.351-.551 1.852-1.061l1.415.815zm-5.265-.379c-.827 0-1.5-.673-1.5-1.5s.673-1.5 1.5-1.5 1.5.673 1.5 1.5-.673 1.5-1.5 1.5zm-11-11.5c0-1.93 1.57-3.5 3.5-3.5s3.5 1.57 3.5 3.5-1.57 3.5-3.5 3.5-3.5-1.57-3.5-3.5zm15 0c0-1.93 1.57-3.5 3.5-3.5s3.5 1.57 3.5 3.5-1.57 3.5-3.5 3.5-3.5-1.57-3.5-3.5zm-8.583 15.094c.775.775.775 2.037 0 2.812l-2.506 2.506-1.414-1.414 1.499-1.499h-1.996c-1.654 0-3-1.346-3-3v-4h2v4c0 .551.449 1 1 1h2.005l-1.508-1.499 1.414-1.414 2.506 2.506zm14.583-4.594h2v4c0 1.654-1.346 3-3 3h-2.005l1.508 1.499-1.414 1.414-2.506-2.506c-.775-.775-.775-2.037 0-2.812l2.506-2.506 1.414 1.414-1.499 1.499h1.996c.551 0 1-.449 1-1v-4zm-17.349-2h-4.651v-1c0-1.654 1.346-3 3-3h3c.273 0 .533.048.784.117-1.065 1.032-1.827 2.373-2.134 3.883zm19.349-1v1h-4.651c-.306-1.509-1.069-2.851-2.134-3.883.252-.069.511-.117.784-.117h3c1.654 0 3 1.346 3 3z"/></svg>