<svg id="Layer_1" viewBox="0 0 24 24" xmlns="http://www.w3.org/2000/svg" data-name="Layer 1"><path d="m22 14v-1c0-2.206-1.794-4-4-4s-4 1.794-4 4v1h-2v7c0 1.654 1.346 3 3 3h6c1.654 0 3-1.346 3-3v-7zm-3 6h-2v-2h2zm1-6h-4v-1c0-1.103.897-2 2-2s2 .897 2 2zm-10-6.889c1.657 0 3 1.343 3 3s-1.343 3-3 3-3-1.343-3-3 1.343-3 3-3zm.663 16.329s-.013.011-.017.014l-.646.546-.646-.546c-.954-.81-9.354-8.061-9.354-13.343.006-5.52 4.48-9.994 10-10 4.519.005 8.333 3.006 9.572 7.123-.504-.138-1.025-.234-1.572-.234-1.278 0-2.452.419-3.426 1.104-.774-1.76-2.528-2.993-4.574-2.993-2.761 0-5 2.239-5 5s2.239 5 5 5v5.889c0 .89.253 1.715.663 2.44z"/></svg>