<svg id="Layer_1" viewBox="0 0 24 24" xmlns="http://www.w3.org/2000/svg" data-name="Layer 1"><path d="m22.096 12.904c-1.17-1.171-2.732-1.832-4.386-1.878-.667-2.286-2.45-4.07-4.737-4.737-.046-1.653-.707-3.216-1.877-4.385-1.228-1.228-2.86-1.904-4.596-1.904h-4.534l-.281.536c-.069.131-1.686 3.249-1.686 5.964 0 1.736.676 3.369 1.904 4.596.595.596 1.315 1.068 2.115 1.393-.012.171-.019.342-.019.512 0 4.028 3.476 7.282 7.51 6.981.323.801.79 1.51 1.394 2.114 1.228 1.228 2.86 1.904 4.596 1.904 2.715 0 5.833-1.616 5.964-1.686l.536-.28v-4.534c0-1.736-.676-3.368-1.904-4.596zm-18.096-6.404c0-1.381 1.119-2.5 2.5-2.5s2.5 1.119 2.5 2.5-1.119 2.5-2.5 2.5-2.5-1.119-2.5-2.5zm6.952 9.595c-1.683 0-3.048-1.364-3.048-3.048s1.364-3.048 3.048-3.048 3.048 1.364 3.048 3.048-1.364 3.048-3.048 3.048zm6.548 3.905c-1.381 0-2.5-1.119-2.5-2.5s1.119-2.5 2.5-2.5 2.5 1.119 2.5 2.5-1.119 2.5-2.5 2.5z"/></svg>