<?xml version="1.0" encoding="UTF-8"?>
<svg xmlns="http://www.w3.org/2000/svg" id="Layer_1" data-name="Layer 1" viewBox="0 0 24 24">
  <path d="m24,16.244v7.756h-12v-7.756l3.879,3.879c.585.585,1.353.877,2.121.877s1.536-.292,2.121-.877l3.879-3.879Zm-5.293,2.465l3.708-3.708h-8.831l3.709,3.708c.378.377,1.036.377,1.414,0ZM10,7c-1.654,0-3,1.346-3,3s1.346,3,3,3,3-1.346,3-3-1.346-3-3-3Zm7.071-4.071c-1.889-1.889-4.4-2.929-7.071-2.929l-.004.005v-.005c-2.671,0-5.182,1.04-7.071,2.929-3.899,3.899-3.899,10.243,0,14.143h.001s.004.005.006.008l7.063,6.907h0v-8.987c-2.755-.002-4.996-2.244-4.996-5s2.243-5,5-5,5,2.243,5,5c0,1.13-.391,2.162-1.026,3h5.557c1.077-3.44.261-7.35-2.46-10.071Z"/>
</svg>
