<svg id="Layer_1" viewBox="0 0 24 24" xmlns="http://www.w3.org/2000/svg" data-name="Layer 1"><path d="m11 24h-11v-1c0-1.654 1.346-3 3-3h5c1.654 0 3 1.346 3 3zm13 0h-11v-1c0-1.654 1.346-3 3-3h5c1.654 0 3 1.346 3 3zm-18.5-5c-1.93 0-3.5-1.57-3.5-3.5s1.57-3.5 3.5-3.5 3.5 1.57 3.5 3.5-1.57 3.5-3.5 3.5zm13 0c-1.93 0-3.5-1.57-3.5-3.5s1.57-3.5 3.5-3.5 3.5 1.57 3.5 3.5-1.57 3.5-3.5 3.5zm-10.282-8.252c.628.43 1.517.376 1.78-.633 0-.5.002-8.112.002-8.112 0-1.104-.897-2.001-2-2.001l-6-.002c-1.103 0-2 .897-2 2v7h5.854c.643.474 2.241 1.653 2.364 1.748zm9.929-1.748h5.854v-7c0-1.103-.897-2-2-2l-6 .002c-1.103 0-2 .897-2 2.001 0 0 .002 7.612.002 8.112.263 1.008 1.152 1.063 1.78.633.123-.095 1.722-1.274 2.364-1.748z"/></svg>