<svg id="Layer_1" viewBox="0 0 24 24" xmlns="http://www.w3.org/2000/svg" data-name="Layer 1"><path d="m12 21c1.478 0 2.631-.209 3.5-.533v2.302c0 .5-1.015 1.231-3.5 1.231s-3.5-.731-3.5-1.231v-2.264c.846.303 1.991.495 3.5.495zm-12-.495v2.264c0 .5 1.015 1.231 3.5 1.231s3.5-.731 3.5-1.231v-2.302c-.869.324-2.022.533-3.5.533-1.509 0-2.654-.193-3.5-.495zm21.5-5.456v-3.549h-8.5v-1.5h1.65c1.93 0 3.5-1.57 3.5-3.5 0-1.45-.912-2.729-2.22-3.246-.35-1.851-1.979-3.254-3.93-3.254-2.27-.005-4.091 1.908-4 4.171-1.164.413-2 1.525-2 2.829 0 1.654 1.346 3 3 3h2v1.5h-8.5v3.549c-1.754.167-2.5.756-2.5 1.182v2.033c.216.207 1.178.736 3.5.736 2.255 0 3.25-.546 3.5-.775v-1.994c0-.426-.746-1.015-2.5-1.182v-1.549h6.5v1.549c-1.754.167-2.5.756-2.5 1.182v2.033c.216.207 1.178.736 3.5.736 2.255 0 3.25-.546 3.5-.775v-1.994c0-.426-.746-1.015-2.5-1.182v-1.549h6.5v1.549c-1.754.167-2.5.756-2.5 1.182v2.033c.216.207 1.178.736 3.5.736 2.255 0 3.25-.546 3.5-.775v-1.994c0-.426-.746-1.015-2.5-1.182zm-4.5 5.456v2.264c0 .5 1.015 1.231 3.5 1.231s3.5-.731 3.5-1.231v-2.302c-.869.324-2.022.533-3.5.533-1.509 0-2.654-.193-3.5-.495z"/></svg>