<svg id="Layer_1" viewBox="0 0 24 24" xmlns="http://www.w3.org/2000/svg" data-name="Layer 1"><path d="m17.759 16.344c1.414-1.727 2.264-3.931 2.264-6.332.001-5.521-4.491-10.012-10.011-10.012s-10.012 4.491-10.012 10.012 4.491 10.012 10.012 10.012c2.401 0 4.605-.851 6.332-2.264l6.241 6.241 1.416-1.416-6.241-6.241zm-9.249-2.828c0 .872-.625 1.502-1.361 1.502-1.296 0-1.448-1.752-1.448-3.004h2.81s-.01 1.192 0 1.502zm.016-2.503s-3.019.003-3.019 0c0 0-.501-1.62-.501-2.32 0-3.004 1.502-3.186 2.503-3.186.877 0 1.502 1.001 1.502 2.503 0 .894-.209 2.172-.485 3.004zm4.349 4.005c-.736 0-1.361-.63-1.361-1.502.01-.309 0-1.502 0-1.502h2.81c0 1.251-.153 3.004-1.448 3.004zm1.642-4.005s-3.019 0-3.019 0c-.276-.831-.485-2.11-.485-3.004 0-1.502.625-2.503 1.502-2.503 1.001 0 2.503.183 2.503 3.186 0 .7-.501 2.32-.501 2.32z"/></svg>