<svg id="Layer_1" viewBox="0 0 24 24" xmlns="http://www.w3.org/2000/svg" data-name="Layer 1"><path d="m21.999 5.001h-7c-1.1 0-2 .9-1.999 2l.002 7.911c0 .858.949 1.378 1.672.915l2.826-1.827h6.5v-6.999c0-1.105-.896-2-2.001-2zm-1.999 6.999h-3c-1.105 0-2-.895-2-2h2l1.5 1 1.5-1h2c0 1.105-.895 2-2 2zm-5-3c0-1.105.895-2 2-2h3c1.105 0 2 .895 2 2zm-15 9v3c0 1.654 1.346 3 3 3h10c1.654 0 3-1.346 3-3v-3zm10 4h-4v-2h4zm6-22v3.001h-1.001c-1.066 0-2.07.417-2.827 1.173-.757.757-1.173 1.762-1.172 2.827l.002 7.911c0 .379.075.745.204 1.088h-11.206v-16z"/></svg>