<svg id="Layer_1" viewBox="0 0 24 24" xmlns="http://www.w3.org/2000/svg" data-name="Layer 1"><path d="m23.269 14.731c-1.341-1.342-5.25-.787-7.287 1.25s-2.592 5.945-1.25 7.287 5.25.787 7.287-1.25 2.592-5.945 1.25-7.287zm-5.106 6.521-1.414-1.414 3.095-3.096 1.414 1.414zm3.797-10.992s.002 0 .003 0c-.117-1.715-.645-3.383-1.513-4.862-1.916-3.228-5.43-5.398-9.45-5.398-6.065 0-11 4.935-11 11 0 .538.096 1.449.24 2.517.434 3.219 1.336 7.987 1.44 8.531.809.43 1.748 1.218 6.213 1.793.986.105 2.031.159 3.106.159.596 0 1.179-.02 1.752-.053-.359-.581-.585-1.253-.688-1.979-.408.014-.857.027-1.064.032-.356-.009-1.427-.041-1.774-.06l-.716-4.94h4.401c.342-.735.769-1.416 1.264-2h-11.62c-.17-.605-.264-1.187-.336-1.779-.09-1.024.053-1.813.445-2.365.923-1.301 3.416-1.855 8.337-1.855 1.275 0 2.372.042 3.335.12 1.711.188 3.85.321 5.002 1.736.232.326.366.745.427 1.236.769-.109 1.499-.117 2.169-.025.076-.743.085-1.16.027-1.807zm-15.471 6.74.686 4.732c-1.914-.287-3.136-.737-3.705-.987-.178-.955-.423-2.325-.663-3.745zm7.511-9.91c-.9-.06-1.903-.09-3.032-.09-1.062 0-2.041.033-2.968.094v-2.094h6z"/></svg>