<svg id="Layer_1" viewBox="0 0 24 24" xmlns="http://www.w3.org/2000/svg" data-name="Layer 1"><path d="m6.56 5.931-1.367-4.087 2.296-1.844.895 2.761 1.649-1.218c.39-.288.943-.026.967.458v5.499l-.507.375-1.323-2.88-1.66 1.226c-.334.247-.811.101-.951-.29zm.94 7.569c0 2.485 2.015 4.5 4.5 4.5s4.5-2.015 4.5-4.5-2.015-4.5-4.5-4.5-4.5 2.015-4.5 4.5zm7.33-8.505 1.66 1.226c.334.247.811.101.951-.29l1.367-4.087-2.296-1.844-.895 2.761-1.649-1.218c-.39-.288-.943-.026-.967.458v5.499l.507.375 1.323-2.88zm-9.33 8.505c0-2.25 1.151-4.237 2.893-5.404-.606.317-1.351.335-2.013.132-.79-.24-1.426-.847-1.704-1.624l-1.102-3.294c-1.015.073-1.95.157-2.953.254-.17 1.343-.564 3.457-.621 7.917.058 4.469.45 6.565.621 7.917.691.111 2.196.226 3.889.328.768-.811 1.778-1.388 2.913-1.616-1.187-1.178-1.923-2.809-1.923-4.61zm10 6.5h-7c-1.93 0-3.5 1.57-3.5 3.5v.5h14v-.5c0-1.93-1.57-3.5-3.5-3.5zm7.879-16.436c-1-.096-1.936-.18-2.953-.254l-1.089 3.256c-.291.816-.929 1.423-1.719 1.663-.664.201-1.407.186-2.012-.134 1.743 1.167 2.894 3.153 2.894 5.404 0 1.8-.737 3.431-1.923 4.61 1.135.228 2.145.805 2.913 1.616 1.687-.101 3.19-.217 3.889-.328.171-1.352.563-3.448.621-7.917-.057-4.46-.451-6.574-.621-7.917z"/></svg>