<svg id="Layer_1" viewBox="0 0 24 24" xmlns="http://www.w3.org/2000/svg" data-name="Layer 1"><path d="m24 22.586-6.258-6.258c1.411-1.724 2.258-3.926 2.258-6.327 0-5.524-4.477-10.001-10-10.001s-10 4.477-10 10 4.477 10 10 10c2.401 0 4.604-.848 6.327-2.258l6.258 6.258 1.414-1.414zm-9.5-6.586c-.828 0-1.5-.672-1.5-1.5 0-.027.006-.052.008-.078l-.622-.622c-.421.266-.887.465-1.386.579v1.621h-2v-1.621c-.5-.114-.965-.313-1.386-.579l-.622.622c.001.026.008.051.008.078 0 .828-.672 1.5-1.5 1.5s-1.5-.672-1.5-1.5.672-1.5 1.5-1.5c.027 0 .052.006.078.008l.622-.622c-.266-.421-.465-.887-.579-1.386h-1.621v-2h1.621c.114-.5.313-.965.579-1.386l-.622-.622c-.026.001-.051.008-.078.008-.828 0-1.5-.672-1.5-1.5s.672-1.5 1.5-1.5 1.5.672 1.5 1.5c0 .027-.006.052-.008.078l.622.622c.421-.266.887-.465 1.386-.579v-1.621h2v1.621c.5.114.965.313 1.386.579l.622-.622c-.001-.026-.008-.051-.008-.078 0-.828.672-1.5 1.5-1.5s1.5.672 1.5 1.5-.672 1.5-1.5 1.5c-.027 0-.052-.006-.078-.008l-.622.622c.266.421.465.887.579 1.386h1.621v2h-1.621c-.114.5-.313.965-.579 1.386l.622.622c.026-.001.051-.008.078-.008.828 0 1.5.672 1.5 1.5s-.672 1.5-1.5 1.5zm-2-6c0 1.379-1.122 2.5-2.5 2.5s-2.5-1.121-2.5-2.5 1.122-2.5 2.5-2.5 2.5 1.121 2.5 2.5z"/></svg>