<svg id="Layer_1" viewBox="0 0 24 24" xmlns="http://www.w3.org/2000/svg" data-name="Layer 1"><path d="m21 20v1.5l-2.5.5h-4.218l-.5 1h-1.782l-1 1h-2l-2-1v-1h1.5l.519-1.013 2.186.013-1.492-1.678-1.713-.322v-1l1.5-1-.5-1v-1h3v-1l-1-1.5v-1.5h-2.5l-1.5-2v-1h-1v-2l1.128-1-1.128-1 .854-1.4 1.146-.6.5-1 2.115-1h1.385v1l-2 1.5v.5h5v1.333l-2.769 1.846.802.768-1.533 1.053h3l.634 2.047.619.417.401.98.833.48 1.513 4.077h1.5l.992 1.53-1.325 1.855 1.333.615zm-18-8.755v1.755l1.5-.5 1 .5 1.5-1-1-2h-1zm4-11.245h-2l-1 1v1.5l-1 1 1 1.5h1v-2l2-2z"/></svg>