<svg id="Layer_1" viewBox="0 0 24 24" xmlns="http://www.w3.org/2000/svg" data-name="Layer 1"><path d="m22.066 9.514-4.566-1.514-4.566 1.514c-1.156.384-1.934 1.459-1.934 2.677v4.109c0 4.164 4.208 6.591 5.501 7.236l.922.459.96-.384c1.318-.531 5.617-2.627 5.617-7.311v-4.109c0-1.218-.778-2.294-1.934-2.677zm-4.566 10.482c-1.37 0-2.581-.627-3.402-1.598l-1.098 1.098v-3c0-.276.224-.5.5-.5h3l-1 1h.013c.457.603 1.174 1 1.987 1s1.531-.397 1.987-1h2.236c-.621 1.742-2.271 3-4.224 3zm4.5-5.5c0 .276-.224.5-.5.5h-3l1-1h-.013c-.457-.603-1.174-1-1.987-1s-1.531.397-1.987 1h-2.236c.621-1.742 2.271-3 4.224-3 1.37 0 2.581.627 3.402 1.598l1.098-1.098v3zm-22-9.996c0-2.485 3.806-4.5 8.5-4.5s8.5 2.015 8.5 4.5-3.806 4.5-8.5 4.5-8.5-2.015-8.5-4.5zm0 6.067v-2.167c1.876 1.596 4.92 2.6 8.5 2.6.227 0 .446-.016.669-.023-.102.391-.169.795-.169 1.214v1.791c-.168.005-.329.018-.5.018-4.865 0-8.5-1.812-8.5-3.433zm12.765 12.903c-1.306.349-2.786.53-4.265.53-4.224 0-8.5-1.447-8.5-4.214v-.96c1.876 1.334 4.92 2.174 8.5 2.174.666 0 1.305-.038 1.929-.094.678 1.028 1.512 1.883 2.336 2.563zm-12.765-7.904v-1.74c1.876 1.334 4.92 2.174 8.5 2.174.172 0 .331-.018.5-.023v.322c0 .965.171 1.85.453 2.659-.315.017-.625.041-.953.041-4.865 0-8.5-1.812-8.5-3.434z"/></svg>