<svg id="Layer_1" viewBox="0 0 24 24" xmlns="http://www.w3.org/2000/svg" data-name="Layer 1"><path d="m20.979 22v2h-17.979v-2c0-2.757 2.243-5 5-5h.451l3.547 4.023 3.527-4.023h.453c2.757 0 5 2.243 5 5zm-9.979-17h-2v-2h2v-2h2v2h2v2h-2v2c-.861 1.21-2.275 2-3.873 2h-1.851c-.004.085-.025.164-.025.25 0 2.623 2.127 4.75 4.75 4.75 1.76 0 3.279-.968 4.099-2.39.341 1.492.712 3.127.778 3.451 1.3.164 2.489.683 3.467 1.46-.453-1.919-2.067-8.735-2.142-8.971-.06-.191-.142-.37-.22-.55h.018v-7h-12.001v7h5zm-2.532 10c-1.816-1.089-2.941-3.012-3.232-5.166-.442 1.848-1.063 4.481-1.581 6.687 1.195-.949 2.703-1.521 4.344-1.521h.468z"/></svg>