<svg id="Layer_1" viewBox="0 0 24 24" xmlns="http://www.w3.org/2000/svg" data-name="Layer 1"><path d="m23.256 12.742c-.99-.99-2.6-.99-3.59 0l-7.666 7.667v3.59h3.59l7.666-7.667c.479-.48.744-.833.744-1.795 0-.678-.264-1.316-.744-1.795zm-7.256.839v-13.581h-16v16h13.581zm-9.005-5.579c0 .63-.39 1.479-1 2.239-.61-.76-1-1.609-1-2.239 0-.55.45-1 1-1s1 .45 1 1zm1.999 5.998c-1.05 0-2.089-.41-2.999-1.05-.91.64-1.949 1.05-2.999 1.05v-1.999c.51 0 1.02-.17 1.499-.45-.92-1.099-1.499-2.419-1.499-3.549 0-1.649 1.349-2.999 2.999-2.999s2.999 1.349 2.999 2.999c0 1.14-.58 2.449-1.499 3.549.48.28.99.45 1.499.45.12 0 .64-.03 1.169-.27-.1-.36-.16-.76-.16-1.229 0-.83.67-1.499 1.499-1.499s1.499.67 1.499 1.499h-.01c0 1.539-1.02 2.929-2.509 3.309-.44.11-.94.19-1.489.19zm.598 10h-6.592c-1.654 0-3-1.346-3-3v-3h11.58s-1.988 1.989-1.988 1.989z"/></svg>