<svg id="Layer_1" viewBox="0 0 24 24" xmlns="http://www.w3.org/2000/svg" data-name="Layer 1"><path d="m7 13.625-.507.375-1.323-2.88-1.66 1.226c-.334.247-.811.101-.951-.29l-1.367-4.087 2.296-1.844.895 2.761 1.649-1.218c.39-.288.943-.026.967.458v5.5zm15-3.625v5c0 1.874-.737 3.639-2.075 4.97-1.317 1.31-3.051 2.029-4.886 2.029h-.04c-4.576-.025-6.476-1.229-8.487-2.505-.256-.163-.525-.329-.797-.494h-.715c-.552 0-1 .448-1 1v4h-2v-4c0-1.654 1.346-3 3-3h.862c.54-.162 3.138-1.041 3.138-3v-9h-1c-1.654 0-3-1.346-3-3v-2h2v2c0 .552.448 1 1 1h7c3.859 0 7 3.141 7 7zm-2 1.322c-.541-.183-1.2-.322-2-.322-1.185 0-1.971.301-2.664.566-.608.232-1.134.434-1.949.434-1.054 0-1.908-.336-2.387-.576v2.161c.648.226 1.456.415 2.387.415 1.185 0 1.971-.301 2.664-.566.608-.232 1.134-.434 1.949-.434.992 0 1.652.292 2 .501z"/></svg>