<svg id="Layer_1" viewBox="0 0 24 24" xmlns="http://www.w3.org/2000/svg" data-name="Layer 1"><path d="m16.922.864c-.537-1.054-5.527-1.523-10.176.854-4.65 2.376-7.333 6.434-6.661 7.751s5.527 1.523 10.176-.854c4.649-2.376 7.198-6.698 6.661-7.752zm-8.879 3.528c3.537-1.807 6.812-2.471 6.812-2.471s-2.458 2.267-5.995 4.074-6.812 2.471-6.812 2.471 2.458-2.267 5.995-4.074zm5.69 5.874c-.835-.837-5.726.259-9.417 3.955-3.692 3.696-4.995 8.385-3.95 9.43s5.726-.259 9.417-3.955 4.785-8.594 3.949-9.431zm-7.36 6.098c2.808-2.812 5.719-4.455 5.719-4.455s-1.641 2.916-4.448 5.727c-2.808 2.812-5.719 4.455-5.719 4.455s1.641-2.916 4.448-5.727zm13.615-11.399c-1.22 0-3.994 4.253-3.994 9.5s2.469 9.5 3.994 9.5 3.994-4.253 3.994-9.5-2.774-9.5-3.994-9.5zm-.928 9.559c0-3.991.928-7.226.928-7.226s.928 3.235.928 7.226-.928 7.226-.928 7.226-.928-3.235-.928-7.226z"/></svg>