<svg id="Layer_1" viewBox="0 0 24 24" xmlns="http://www.w3.org/2000/svg" data-name="Layer 1"><path d="m14.729 4.608-4.798 4.798c-.11-.729-.397-1.423-.884-1.995-.212-.249-.455-.461-.715-.648l4.276-4.276c.586-.586 1.536-.586 2.121 0 .586.586.586 1.536 0 2.121zm-3.568 9.225 1.743-1.743c.586-.586.586-1.536 0-2.121-.586-.586-1.536-.586-2.121 0l-1.743 1.743c-.586.586-.586 1.536 0 2.121.586.586 1.536.586 2.121 0zm.707 2.828c.586.586 1.536.586 2.121 0l1.743-1.743c.586-.586.586-1.536 0-2.121-.586-.586-1.536-.586-2.121 0l-1.743 1.743c-.586.586-.586 1.536 0 2.121zm9.692-4.283c-.586-.586-1.536-.586-2.121 0l-5.506 5.588c-.937.951-2.507 1.065-3.459.128-.007-.007-.013-.013-.02-.02-.526-.526-.844-1.18-.965-1.862-.702-.123-1.349-.451-1.863-.966-.365-.364-.62-.793-.79-1.247h-2.836v-2h1.893c.996 0 1.92-.681 2.08-1.664.204-1.253-.758-2.336-1.973-2.336h-2c-2.209 0-4 1.791-4 4v12h12.271l9.29-9.5c.586-.586.586-1.536 0-2.121zm1.534-9.381h-1.595l1.731-2.998h-3.401l-2.787 4.808c-.183.579.274 1.2.883 1.19h1.574l-1.5 3.002h1.342l4.508-4.596c.401-.577-.05-1.425-.755-1.406z"/></svg>