<svg id="Layer_1" viewBox="0 0 24 24" xmlns="http://www.w3.org/2000/svg" data-name="Layer 1"><path d="m16 11h-8c-.551 0-1 .448-1 1v6h10v-6c0-.552-.449-1-1-1zm-6.5 5c-.828 0-1.5-.672-1.5-1.5s.672-1.5 1.5-1.5 1.5.672 1.5 1.5-.672 1.5-1.5 1.5zm5 0c-.828 0-1.5-.672-1.5-1.5s.672-1.5 1.5-1.5 1.5.672 1.5 1.5-.672 1.5-1.5 1.5zm8.312-8.365-8.904-6.977c-1.123-.881-2.692-.879-3.815 0l-8.905 6.977c-.755.591-1.188 1.479-1.188 2.439v13.926h24v-13.926c0-.96-.433-1.849-1.188-2.439zm-2.812 8.365h-1v4h-14v-4h-1v-3h1v-1c0-1.654 1.346-3 3-3h3v-2h2v2h3c1.654 0 3 1.346 3 3v1h1z"/></svg>