<svg id="Layer_1" viewBox="0 0 24 24" xmlns="http://www.w3.org/2000/svg" data-name="Layer 1"><path d="m11 9h3.969l-.75 3h-3.219zm3.271 8.768c-.233.361-.564.679-.994.918-.782.433-1.771.433-2.553 0-.431-.239-.761-.557-.994-.918-.416-.644-1.181-.987-1.929-.817-.428.097-.896.091-1.38-.048-.859-.246-1.559-.946-1.805-1.805-.139-.484-.145-.953-.048-1.382.17-.748-.173-1.513-.817-1.928-.728-.452-1.269-1.391-1.242-2.284-.028-.892.513-1.832 1.242-2.284.644-.416.987-1.181.817-1.928-.097-.429-.091-.897.048-1.381.246-.859.946-1.559 1.805-1.805.484-.139.952-.145 1.38-.048.748.17 1.513-.172 1.929-.817.233-.361.563-.679.994-.918.782-.433 1.772-.433 2.553 0 .431.239.761.557.994.918.416.644 1.181.987 1.929.817.428-.097.896-.091 1.38.048.859.246 1.559.946 1.805 1.805.139.484.145.953.048 1.381-.17.748.173 1.513.817 1.928.728.452 1.269 1.391 1.242 2.284.028.892-.513 1.832-1.242 2.284-.644.416-.987 1.181-.817 1.928.097.429.091.897-.048 1.382-.246.859-.946 1.559-1.805 1.805-.484.139-.952.145-1.38.048-.748-.17-1.513.172-1.929.817zm1.51-3.768 1.189-4.757.097-2.243h-4.496l.387-1.205c.042-.25.021-.387.005-.447-.14-.515-.56-.848-1.069-.848-.433.004-.695.241-.987.635l-1.479 1.865h-.727c-.938 0-1.7.763-1.7 1.7v3.6c0 .938.763 1.7 1.7 1.7h7.081zm-7.68 4.932c-.726.142-1.496.106-2.231-.105-1.423-.408-2.579-1.497-3.081-2.88l-2.436 2.434c-.193.194-.316.451-.346.725-.073.667.409 1.269 1.076 1.342l2.221.246.245 2.212c.047.469.364.87.806 1.023.444.159.941.044 1.263-.286l3.571-3.571c-.428-.319-.793-.7-1.09-1.14zm15.546-.55-2.435-2.435c-.502 1.383-1.659 2.473-3.081 2.88-.736.21-1.504.246-2.231.105-.296.44-.662.821-1.09 1.14l3.571 3.571c.323.33.82.445 1.263.286.442-.154.76-.554.806-1.023l.245-2.212 2.221-.246c.667-.074 1.149-.675 1.076-1.342-.03-.273-.153-.531-.346-.725z"/></svg>