<svg id="Layer_1" viewBox="0 0 24 24" xmlns="http://www.w3.org/2000/svg" data-name="Layer 1"><path d="m7 24h-4c-1.654 0-3-1.346-3-3v-4h2v4c0 .551.448 1 1 1h4zm17-3v-4h-2v4c0 .551-.448 1-1 1h-4v2h4c1.654 0 3-1.346 3-3zm0-18c0-1.654-1.346-3-3-3h-4v2h4c.552 0 1 .449 1 1v4h2zm-22 0c0-.551.448-1 1-1h4v-2h-4c-1.654 0-3 1.346-3 3v4h2zm3.532 12c1.397 1.438 3.614 3 6.468 3s5.073-1.562 6.469-3zm18.468-4v2h-24v-2h3.995c.645-1.194 3.546-5 8.005-5s7.359 3.805 8.005 5zm-9.711 0c-.386-.882-1.264-1.5-2.289-1.5s-1.903.618-2.289 1.5z"/></svg>