<svg id="Layer_1" viewBox="0 0 24 24" xmlns="http://www.w3.org/2000/svg" data-name="Layer 1"><path d="m17 8v-1c0-3.86-3.14-7-7-7s-7 3.14-7 7v1h-3v13c0 1.654 1.346 3 3 3h9.726c-1.667-1.467-2.726-3.61-2.726-6h-1v-4h2.087c1.386-2.386 3.961-4 6.913-4 .692 0 1.359.097 2 .263v-2.263zm-2 0h-10v-1c0-2.757 2.243-5 5-5s5 2.243 5 5zm7.243 5.757c-2.343-2.343-6.142-2.343-8.485 0s-2.343 6.142 0 8.485 6.142 2.343 8.485 0 2.343-6.142 0-8.485zm-.707 6.364-1.414 1.414-2.121-2.121-2.121 2.121-1.414-1.414 2.121-2.121-2.121-2.121 1.414-1.414 2.121 2.121 2.121-2.121 1.414 1.414-2.121 2.121z"/></svg>