<svg id="Layer_1" viewBox="0 0 24 24" xmlns="http://www.w3.org/2000/svg" data-name="Layer 1"><path d="m9.5 13c-.828 0-1.5-.672-1.5-1.5s.672-1.5 1.5-1.5 1.5.672 1.5 1.5-.672 1.5-1.5 1.5zm5-3c-.828 0-1.5.672-1.5 1.5s.672 1.5 1.5 1.5 1.5-.672 1.5-1.5-.672-1.5-1.5-1.5zm-2.501 7.001c1.352 0 2.509-.826 2.999-2h-5.998c.49 1.174 1.648 2 2.999 2zm12.001-6c0 5.074-3.609 8.269-8 9.463v3.537h-8v-3.537c-4.391-1.195-8-4.39-8-9.464 0-7.222 6.037-11 12-11s12 3.778 12 11zm-2.053.872c.213-.926-.456-1.882-1.447-1.872h-2.25c-1.065 0-2.071-.398-2.849-1.111-.357.082-.758.116-1.172.111-.789 0-1.56-.227-2.229-.648-.703.442-1.543.651-2.364.649-.368 0-.716-.037-1.038-.111-.777.712-1.782 1.11-2.847 1.11h-2.251c-.763 0-1.388.575-1.481 1.313-.085.875.557 1.691 1.481 1.686.182 0 .897-.145 1.088-.171l.281.795c.916 2.597 4.001 5.377 7.131 5.377s6.214-2.78 7.13-5.377l.281-.795c.197.027.901.17 1.089.171.698 0 1.28-.481 1.447-1.127z"/></svg>