<svg id="Layer_1" viewBox="0 0 24 24" xmlns="http://www.w3.org/2000/svg" data-name="Layer 1"><path d="m22.848 7.678c-.04.006-2.555.388-5.501.676 1.055-.581 1.654-1.555 1.653-2.97-.002-1.935-1.658-3.448-3.558-3.381s-3.208 1.558-3.442 3.535c-.234-1.978-1.543-3.469-3.442-3.535s-3.556 1.446-3.558 3.381c-.001 1.415.598 2.389 1.653 2.97-4.253-.445-4.847-.586-6.653-.853v10c1.74-.22 3.408-.468 8-.918v-7.75c.584.128 1.32.182 2 .168v14l2-1.908 2 1.908v-14.001c.681.014 1.415-.039 2-.168v7.749c4.602.451 6.25.698 8 .919v-9.999z"/></svg>