<svg id="Layer_1" viewBox="0 0 24 24" xmlns="http://www.w3.org/2000/svg" data-name="Layer 1"><path d="m7 14h7v3h-7zm-2 5v-7h9v-.5c0-1.565-.748-3.061-2-4l-1-.75v-1.75h-8v1.75l-1 .75c-1.252.939-2 2.435-2 4v12.5h14v-5zm17-14v-3c0-1.105-.895-2-2-2-1.104 0-2 .895-2 2v3c0 1.1-.9 2-2 2v2h2v5.462c0 .738.404 1.376 1 1.723v1.815h2v-1.815c.615-.344.997-.989 1-1.723v-5.462h2v-2c-1.1 0-2-.9-2-2zm-.586 15.586-1.414-1.383-1.414 1.383c-.781.781-.781 2.047 0 2.828.391.391.902.586 1.414.586s1.024-.195 1.414-.586c.781-.781.781-2.047 0-2.828z"/></svg>