<svg id="Layer_1" viewBox="0 0 24 24" xmlns="http://www.w3.org/2000/svg" data-name="Layer 1"><path d="m16 8.956v-5.956c0-1.654-1.346-3-3-3h-10c-1.654 0-3 1.346-3 3v21h14.641c-1.41-1.102-2.925-2.767-3.442-5h-2.135v-2h1.936v-2h-2v-2h2.04c.094-.746.394-1.432.851-2h-2.891v-2h3v1.871c.458-.522 1.047-.935 1.741-1.165zm-9 10.044h-3v-2h3zm0-4h-3v-2h3zm0-4h-3v-2h3zm0-4h-3v-2h3zm5 0h-3v-2h3zm6.456 16.985-.604-.302c-1.138-.568-4.853-2.701-4.853-6.272v-3.911c0-.862.55-1.624 1.37-1.896l4.13-1.37 4.13 1.37c.819.271 1.37 1.033 1.37 1.896v3.911c0 4.029-3.763 5.857-4.917 6.322l-.627.252z"/></svg>