<svg id="Layer_1" viewBox="0 0 24 24" xmlns="http://www.w3.org/2000/svg" data-name="Layer 1"><path d="m23 6v-3h-2v3h-1v-3h-2v3h-1v-3h-2v3h-5v-3h-7.5c-1.378 0-2.5 1.122-2.5 2.5v3c0 1.378 1.122 2.5 2.5 2.5h7.5v-3h5v3h2v-3h1v3h2v-3h1v3h2v-3h1v-2zm1 8s-.352 1.72-1.648 3.144l1.228 1.989-1.701 1.051-1.123-1.818c-.508.259-1.087.458-1.756.557v2.078h-2v-2.078c-.669-.099-1.248-.298-1.756-.557l-1.123 1.818-1.701-1.051 1.228-1.988c-1.296-1.423-1.648-3.143-1.648-3.143h12zm-13.648 3.143 1.228 1.989-1.701 1.051-1.123-1.818c-.508.259-1.087.458-1.756.557v2.078h-2v-2.078c-.669-.099-1.248-.298-1.756-.557l-1.123 1.818-1.701-1.051 1.228-1.988c-1.296-1.423-1.648-3.143-1.648-3.143h12s-.352 1.72-1.648 3.143z"/></svg>