<svg id="Layer_1" viewBox="0 0 24 24" xmlns="http://www.w3.org/2000/svg" data-name="Layer 1"><path d="m6 11.231v-4.231l1.793 1.793 2.793-2.793-2.793-2.793-1.793 1.793v-4.231c0-.425.344-.769.769-.769h4.231l-1.793 1.793 2.793 2.793 2.793-2.793-1.793-1.793h4.231c.425 0 .769.344.769.769v4.231l-1.793-1.793-2.793 2.793 2.793 2.793 1.793-1.793v4.231c0 .425-.344.769-.769.769h-4.231l1.793-1.793-2.793-2.793-2.793 2.793 1.793 1.793h-4.231c-.425 0-.769-.344-.769-.769zm18 8.769v-15c0-1.657-1.343-3-3-3h-1v10c0 1.105-.895 2-2 2h-12c-1.105 0-2-.895-2-2v-10h-1c-1.657 0-3 1.343-3 3v15h11v2h-5v2h12v-2h-5v-2z"/></svg>