<?xml version="1.0" encoding="UTF-8"?>
<svg xmlns="http://www.w3.org/2000/svg" id="Layer_1" data-name="Layer 1" viewBox="0 0 24 24">
  <path d="m17,8c-2.124,2.453-1.188,6.919-3.192,6.919-.707,0-1.48-2.687-1.48-2.687-1.161,1.198-2.328,2.755-2.328,4.768,0,3.866,3.134,7,7,7s7-3.134,7-7c0-4.053-4.789-6.789-7-9Zm1.414,13.414c-.781.781-2.048.781-2.829,0-.781-.782-.781-2.048,0-2.829l1.415-1.415,1.415,1.415h0c.781.782.781,2.048,0,2.829Zm-7.058,2.586H0v-13.926c0-.959.433-1.849,1.188-2.439L10.092.659c1.124-.88,2.691-.881,3.816,0l8.905,6.977c.754.592,1.187,1.48,1.187,2.439v1.726c-1.152-1.46-2.612-2.671-3.845-3.693-.663-.55-1.29-1.07-1.741-1.521l-1.52-1.52-1.406,1.625c-.909,1.05-1.382,2.273-1.688,3.437l-.51-1.763-2.399,2.476c-1.241,1.281-2.892,3.313-2.892,6.16,0,2.826,1.312,5.349,3.356,7Z"/>
</svg>
