<?xml version="1.0" encoding="UTF-8"?>
<svg xmlns="http://www.w3.org/2000/svg" id="Layer_1" data-name="Layer 1" viewBox="0 0 24 24">
  <path d="M7,2.5c0-1.381,1.119-2.5,2.5-2.5s2.5,1.119,2.5,2.5-1.119,2.5-2.5,2.5-2.5-1.119-2.5-2.5Zm5.812,8.812l3.185,1.82-.992,1.736-3.815-2.18-1.381-3.726-1.664,6.999,1.856,1.576v6.463h-2v-5.537l-2.923-2.483c-.87-.725-1.254-1.87-.994-2.982l.896-4.257-2.126,.969-.883,3.533L.03,12.757l1.117-4.467,4.309-1.958c.66-.22,1.348-.332,2.044-.332h1.577c.933,0,1.793,.506,2.246,1.322l1.489,3.99ZM3.389,17.128l-1.623,6.872h2.252l1.15-5.317-1.388-1.178c-.141-.117-.267-.246-.392-.376Zm20.037-6.479l-2.719-2.719-1.414,1.414,1.69,1.656h-3.983v2h4.02l-1.727,1.727,1.414,1.414,2.72-2.719c.763-.764,.763-2.008,0-2.773Z"/>
</svg>
