<svg id="Layer_1" viewBox="0 0 24 24" xmlns="http://www.w3.org/2000/svg" data-name="Layer 1"><path d="m8 4h-8v-2h8zm-2 2h-6v2h6zm-2 4h-4v2h4zm9-8h-3v4h-2v4h5zm7.442 1.781c-.481-1.082-1.558-1.781-2.742-1.781h-2.7v8h8.206l-2.763-6.219zm-17.384 16.219c-.034.162-.058.328-.058.5 0 1.381 1.119 2.5 2.5 2.5s2.5-1.119 2.5-2.5c0-.172-.024-.338-.058-.5zm13 0c-.034.162-.058.328-.058.5 0 1.381 1.119 2.5 2.5 2.5s2.5-1.119 2.5-2.5c0-.172-.024-.338-.058-.5h-4.885zm7.854-8h-17.912v2h-6v4h24v-5.151c0-.288-.04-.569-.088-.849z"/></svg>