<svg id="Layer_1" viewBox="0 0 24 24" xmlns="http://www.w3.org/2000/svg" data-name="Layer 1"><path d="m10 12h2v5h-5v-2h1.644c-.716-.633-1.643-1-2.644-1-1.859 0-3.411 1.28-3.858 3h-2.052c.478-2.833 2.942-5 5.91-5 1.518 0 2.922.564 4 1.534zm-4 10c-.994 0-1.929-.368-2.646-1h1.646v-2h-5v5h2v-1.531c1.08.966 2.494 1.531 4 1.531 2.967 0 5.431-2.167 5.91-5h-2.052c-.447 1.72-1.999 3-3.858 3zm-4-19c0 .551.448 1 1 1h21v16h-10.262c.165-.64.262-1.308.262-2v-8h-8c-2.393 0-4.534 1.056-6 2.721v-9.721c0-1.654 1.346-3 3-3h21v2h-21c-.552 0-1 .449-1 1zm17 9c0 .552.448 1 1 1s1-.448 1-1-.448-1-1-1-1 .448-1 1z"/></svg>