<?xml version="1.0" encoding="UTF-8"?>
<svg xmlns="http://www.w3.org/2000/svg" id="Layer_1" data-name="Layer 1" viewBox="0 0 24 24">
  <path d="M20.541,9.867l-5.541-4.354V0h-3.443L0,11.586v12.414H2V12.414L13,1.388V6.486l3.362,2.641-4.131,5.07-2.523-2.197H4v2h4.959l3.444,3H7.007l-3.368,4.392,1.588,1.217,2.767-3.608h5.521c.957,0,1.98-.537,2.76-1.459l3.958-4.85c.05,.124,.097,.25,.13,.381l.638,2.552v4.877h2v-5l-.697-2.913c-.268-1.071-.894-2.037-1.762-2.72Zm3.44-4.348c0,1.381-1.119,2.5-2.5,2.5s-2.5-1.119-2.5-2.5,1.119-2.5,2.5-2.5,2.5,1.119,2.5,2.5Z"/>
</svg>
