<svg id="Layer_1" viewBox="0 0 24 24" xmlns="http://www.w3.org/2000/svg" data-name="Layer 1"><path d="m16.56 9.56c-.585.585-1.536.585-2.121 0s-.585-1.536 0-2.121 1.536-.585 2.121 0 .585 1.536 0 2.121zm-1.56-9.56v2c3.86 0 7 3.141 7 7h2c0-4.963-4.038-9-9-9zm0 3.5v2c1.93 0 3.5 1.57 3.5 3.5h2c0-3.032-2.467-5.5-5.5-5.5zm7 9.506c-.006 4.968-4.032 8.994-9 9h-2c-4.968-.006-8.994-4.032-9-9h-2c.007 6.072 4.928 10.986 11 10.994h2c6.072-.007 10.993-4.921 11-10.994zm-6.5-1.006c-1.933 0-3.5-1.567-3.5-3.5 0-.952.383-1.813 1-2.444v-5.98c-.646-.093-1.315-.101-1.994-.004-3.076.441-5.493 2.852-5.935 5.928h3.929v2.006h-4v2.994h4v2.006h-3.929c.549 3.827 4.097 6.484 7.923 5.935 3.076-.442 5.493-2.858 5.935-5.935l.071-2v-.006h-1.056c-.631.617-1.492 1-2.444 1z"/></svg>