<svg id="Layer_1" viewBox="0 0 24 24" xmlns="http://www.w3.org/2000/svg" data-name="Layer 1"><path d="m21.414 5h-4.414v-4.414zm-9.326 11.816h-.996v1.592h.996c.44 0 .796-.356.796-.796s-.356-.796-.796-.796zm2.912-9.816v-7h-10c-1.657 0-3 1.343-3 3v21h20v-17zm-7 6.6h-2.4v1.801h2.4v1.6h-2.4v3h-1.6v-8.001h4zm4.088 6.4h-2.588v-8h2.263c1.319 0 2.388 1.069 2.388 2.388 0 .542-.188 1.037-.493 1.438.498.438.818 1.072.818 1.786 0 1.319-1.069 2.388-2.388 2.388zm8.412 0h-1.812l-1.088-2.182-1.088 2.182h-1.812l1.994-4-1.994-4h1.812l1.088 2.182 1.088-2.182h1.812l-1.994 4zm-7.941-5.612c0-.44-.356-.796-.796-.796h-.671v1.592h.671c.44 0 .796-.356.796-.796z"/></svg>