<svg id="Layer_1" viewBox="0 0 24 24" xmlns="http://www.w3.org/2000/svg" data-name="Layer 1"><path d="m16.08 15.462c.955.832 1.581 1.903 1.87 3.047 2.027-3.872 3.05-8.971 3.05-14.539-3.103 5.274-5.223 7.559-7.417 9.434.781.622 1.59 1.268 2.497 2.059zm-3.796-3.58c.875-.747 1.731-1.568 2.642-2.625-1.326-4.94-2.926-9.257-2.926-9.257s-1.602 4.32-2.929 9.264c1.007 1.167 1.946 2.034 2.932 2.859l.282-.24zm-9.503 3.969c-.944-.541-1.863-1.302-2.781-2.381 0 4.56 2.988 7.656 6.448 9.249-1.528-1.856-2.762-4.18-3.667-6.867zm14.771 6.867c3.46-1.592 6.448-4.688 6.448-9.249-.918 1.08-1.837 1.841-2.781 2.381-.905 2.687-2.139 5.012-3.667 6.867zm-2.397-.093c-1.454 1.669-3.986 1.843-5.655.389-4.317-3.761-6.5-10.904-6.5-19.044 5 8.5 7.449 9.239 11.766 13 1.669 1.454 1.843 3.986.389 5.655z"/></svg>