<svg id="Layer_1" viewBox="0 0 24 24" xmlns="http://www.w3.org/2000/svg" data-name="Layer 1"><path d="m15.697 14.671 1.889 1.888-.8.8c-.412.414-.978.641-1.593.641-1.844 0-4.106-1.172-6.052-3.135-1.938-1.955-3.142-4.277-3.142-6.058 0-.613.229-1.179.643-1.594l.799-.798 1.888 1.888-1.334 1.334c.527 1.529 1.32 2.999 2.373 4.004.983 1.007 2.474 1.818 3.986 2.372l1.343-1.343zm8.303-11.671v21h-24v-21c0-1.654 1.346-3 3-3h18c1.654 0 3 1.346 3 3zm-3.586 13.559-4.717-4.717-1.809 1.81c-.853-.402-1.549-.874-2.115-1.433-.576-.569-1.048-1.26-1.433-2.099l1.816-1.817-4.715-4.718-2.213 2.213c-.792.792-1.229 1.86-1.229 3.008 0 2.324 1.392 5.115 3.722 7.466 2.347 2.369 5.07 3.727 7.472 3.727 1.15 0 2.22-.437 3.008-1.229l2.213-2.212z"/></svg>