<svg id="Layer_1" viewBox="0 0 24 24" xmlns="http://www.w3.org/2000/svg" data-name="Layer 1"><path d="m22.506 12.692c.737.94 1.236 2.072 1.414 3.308h-3.819c.289-1.418 1.191-2.602 2.405-3.308zm-6.586 3.308h2.16c.282-1.955 1.369-3.651 2.92-4.736-1.135-.794-2.513-1.264-4-1.264s-2.865.47-4 1.264c1.551 1.085 2.638 2.781 2.92 4.736zm4.181 2c.289 1.418 1.191 2.602 2.405 3.308.737-.94 1.236-2.072 1.414-3.308zm-2.021 0h-2.16c-.282 1.955-1.369 3.651-2.92 4.736 1.135.794 2.513 1.264 4 1.264s2.865-.47 4-1.264c-1.551-1.085-2.638-2.781-2.92-4.736zm-8 0c.178 1.236.677 2.367 1.414 3.308 1.214-.706 2.116-1.89 2.405-3.308zm1.414-5.308c-.737.94-1.236 2.072-1.414 3.308h3.819c-.289-1.418-1.191-2.602-2.405-3.308zm-3.494 4.308c0-4.971 4.029-9 9-9 1.444 0 2.803.348 4.013.953.002-.096 0-.192.015-.29.162-.983 1.087-1.662 2.084-1.662h.888v-4.001c0-1.657-1.343-3-3-3h-18c-1.657 0-3 1.343-3 3v4.004l1.1-.003c1.098.031 1.982.934 1.982 2.04s-.886 1.933-1.986 1.962l-1.096-.003v4c0 1.657 1.343 3 3 3h5.059c-.036-.329-.059-.662-.059-1z"/></svg>