<svg id="Layer_1" viewBox="0 0 24 24" xmlns="http://www.w3.org/2000/svg" data-name="Layer 1"><path d="m24 18v2c0 2.209-3.358 4-7.5 4-3.57 0-6.552-1.332-7.309-3.114-.546.068-1.107.114-1.691.114-4.142 0-7.5-1.791-7.5-4v-2c0 2.209 3.358 4 7.5 4 1.109 0 1.679-.128 1.679-.128.746 1.79 3.741 3.128 7.321 3.128 4.142 0 7.5-1.791 7.5-4zm-1.446-16.467-4.554-1.51-4.553 1.51c-.865.286-1.447 1.09-1.447 2.001v3.611c-.014 2.851 2.315 5.449 5.957 7.165 3.738-1.39 6.042-3.918 6.043-7.187v-3.589c0-.911-.582-1.715-1.446-2.001zm.235 12.292c-1.129 1.036-3.205 2.04-4.921 2.685-2.069-.956-4.471-2.483-5.573-3.822-1.419.513-2.48 1.281-2.977 2.178-.585.079-1.187.134-1.818.134-4.142 0-7.5-1.791-7.5-4v2c0 2.209 3.358 4 7.5 4 .585 0 1.144-.048 1.69-.117.755 1.784 3.738 3.117 7.31 3.117 4.142 0 7.5-1.791 7.5-4 0-.803-.448-1.549-1.211-2.175zm-15.289-.825c1.65 0 3.17-.288 4.409-.769-1.442-1.799-1.876-3.601-1.908-5.041v-1.957c-.783-.148-1.622-.233-2.5-.233-4.143 0-7.501 1.791-7.501 4s3.358 4 7.5 4z"/></svg>