<svg id="Layer_1" viewBox="0 0 24 24" xmlns="http://www.w3.org/2000/svg" data-name="Layer 1"><path d="m7 2c-.007 0-.014 0-.021 0 1.467-1.245 3.362-2.001 5.433-2.001h3.176c1.007 0 1.969.187 2.864.513-.593 1.58-1.692 3.978-3.415 6.178-1.428-2.887-4.341-4.691-8.037-4.691zm14.041 11.848c-1.018 2.534-4.015 5.153-7.041 5.153-.004 0-.008 0-.012 0h-1.157c-.843.936-1.805 1.699-2.831 2.222v2.778h8v-4.053c2.459-1.301 4.368-3.626 5.12-5.947-.706.006-1.405-.053-2.08-.152zm-.798-12.437c-.76 1.965-2.177 4.929-4.456 7.494.044.216.078.438.108.662.205.146.409.299.617.434-.004 0-.008-.001-.012-.001 1.95 1.225 4.22 2.033 6.5 2h1v-3.588c0-2.918-1.495-5.492-3.757-7.001zm-13.243 18.589c-3.467 0-7-4.707-7-9 0-4.249 2.944-7 7-7s7 2.751 7 7c0 4.293-3.533 9-7 9zm-2.5-8c.829 0 1.5-.671 1.5-1.5s-.671-1.5-1.5-1.5-1.5.671-1.5 1.5.671 1.5 1.5 1.5zm5 2s-5-.001-5 0c0 .666 1.006 1.999 2.503 1.999s2.497-1.333 2.497-1.999zm1.5-3.5c0-.829-.671-1.5-1.5-1.5s-1.5.671-1.5 1.5.671 1.5 1.5 1.5 1.5-.671 1.5-1.5z"/></svg>