<svg id="Layer_1" viewBox="0 0 24 24" xmlns="http://www.w3.org/2000/svg" data-name="Layer 1"><path d="m24 19v-15c0-.827-.342-1.63-.938-2.205-.555-.535-1.25-.813-2.001-.795h-17.951c-.829-.026-1.609.271-2.196.839-.581.562-.914 1.35-.914 2.161v15h11v2h-5v2h12v-2h-5v-2zm-5-16c.828 0 1.5.672 1.5 1.5s-.672 1.5-1.5 1.5-1.5-.672-1.5-1.5.672-1.5 1.5-1.5zm-1 4h2c1.105 0 2 .895 2 2h-6c0-1.105.895-2 2-2zm-6-4c.828 0 1.5.672 1.5 1.5s-.672 1.5-1.5 1.5-1.5-.672-1.5-1.5.672-1.5 1.5-1.5zm-1 4h2c1.105 0 2 .895 2 2h-6c0-1.105.895-2 2-2zm3 5c0 1.105-.895 2-2 2s-2-.895-2-2 .895-2 2-2 2 .895 2 2zm-9-9c.828 0 1.5.672 1.5 1.5s-.672 1.5-1.5 1.5-1.5-.672-1.5-1.5.672-1.5 1.5-1.5zm-3 6c0-1.105.895-2 2-2h2c1.105 0 2 .895 2 2zm6.5 8c0-1.105.895-2 2-2h3c1.105 0 2 .895 2 2z"/></svg>