<svg id="Layer_1" viewBox="0 0 24 24" xmlns="http://www.w3.org/2000/svg" data-name="Layer 1"><path d="m13.571 0h-3.143c-5.75 0-10.428 4.678-10.428 10.429v8.77c0 1.401.732 2.672 1.958 3.401 1.117.664 2.356 1.4 4.375 1.4 1.362 0 2.652-.572 3.541-1.568.209-.235.398-.481.55-.745.131-.271.889-.687 1.576-.687s1.445.416 1.576.687c.152.263.341.51.55.745.888.997 2.179 1.568 3.541 1.568 2.02 0 3.258-.736 4.375-1.4 1.226-.729 1.958-2 1.958-3.401v-8.77c0-5.751-4.678-10.429-10.429-10.429zm8.429 16.265c-.938-.576-2.223-1.135-3.782-1.245-1.938-.146-3.749.807-4.643 2.293-.131.271-.889.687-1.576.687s-1.445-.416-1.576-.687c-.893-1.487-2.705-2.439-4.643-2.293-1.559.11-2.844.669-3.782 1.245v-5.836c.002-4.648 3.783-8.429 8.431-8.429h3.143c4.647 0 8.429 3.781 8.429 8.429v5.836z"/></svg>