<svg id="Layer_1" viewBox="0 0 24 24" xmlns="http://www.w3.org/2000/svg" data-name="Layer 1"><path d="m12 4.5c0-2.481-2.019-4.5-4.5-4.5s-4.5 2.019-4.5 4.5v1.5h-3v10c0 1.654 1.346 3 3 3h9c1.654 0 3-1.346 3-3v-10h-3zm-3.5 9.5h-2v-3h2zm1.5-8h-5v-1.5c0-1.378 1.122-2.5 2.5-2.5s2.5 1.122 2.5 2.5zm13 2h-6v-2h4v-2.277c-.595-.346-1-.984-1-1.723 0-1.105.895-2 2-2s2 .895 2 2c0 .738-.405 1.376-1 1.723zm1 14c0 1.105-.895 2-2 2s-2-.895-2-2c0-.738.405-1.376 1-1.723v-2.277h-4v-2h6v4.277c.595.346 1 .984 1 1.723zm0-10c0 1.105-.895 2-2 2-.738 0-1.376-.405-1.723-1h-3.277v-2h3.277c.346-.595.984-1 1.723-1 1.105 0 2 .895 2 2z"/></svg>