<svg id="Layer_1" viewBox="0 0 24 24" xmlns="http://www.w3.org/2000/svg" data-name="Layer 1"><path d="m18 1v4h4l-3 3h-2.586l-3.707 3.707c-.181.181-.431.293-.707.293-.552 0-1-.448-1-1 0-.276.112-.526.293-.707l3.707-3.707v-2.586zm4.987 10c0-1.249-.219-2.446-.605-3.566l-2.467 2.467c.05.36.084.726.084 1.1 0 4.418-3.582 8-8 8-4.447.007-7.955-3.615-8.013-8 .048-4.425 3.619-8.05 8.083-7.996.342.012.675.031 1.007.077l2.478-2.477c-1.12-.386-2.317-.605-3.566-.605-6.066 0-11.001 4.935-11.001 11 0 3.266 1.439 6.195 3.706 8.212l-2.693 4.788h2.294l2.021-3.593c1.659 1.004 3.596 1.593 5.672 1.593s4.028-.593 5.691-1.604l2.028 3.604h2.294l-2.702-4.804c2.258-2.016 3.689-4.938 3.689-8.196zm-13.103-2.126 3.116-3.117v-.661c-.328-.057-.66-.097-1-.097-1.603 0-3.109.624-4.243 1.757s-1.757 2.64-1.757 4.243.624 3.109 1.757 4.243 2.64 1.757 4.243 1.757 3.109-.624 4.243-1.757 1.757-2.64 1.757-4.243c0-.34-.04-.672-.097-1h-.661l-3.117 3.116s-.003.004-.004.005c-1.17 1.17-3.073 1.17-4.243 0-1.169-1.17-1.169-3.073 0-4.243.002-.002.004-.003.005-.004z"/></svg>