<svg id="Layer_1" viewBox="0 0 24 24" xmlns="http://www.w3.org/2000/svg" data-name="Layer 1"><path d="m14.272 11.132c-1.178-2.702-2.291-5.254-3.472-6.713-2.437-3.255-6.306-4.862-10.347-4.314s0 0 0 0c-.153.021-.301.067-.453.095v23.8h7v-3h2.247c1.499 0 2.777-1.12 2.974-2.606l.449-3.394h2.33v-2.212s-.514-1.166-.728-1.656zm8.873 3.868c-.601 2.793-1.224 5.706-1.465 6.854-.127.668-.722 1.146-1.444 1.146h-6.237v-5h2.5l.731-3zm-5.427-2 .543-2.229c.247-1.043 1.167-1.771 2.238-1.771h1.745c.54 0 1.044.24 1.382.659.336.417.464.957.351 1.481-.121.56-.258 1.193-.401 1.859h-5.858z"/></svg>