<svg id="Layer_1" viewBox="0 0 24 24" xmlns="http://www.w3.org/2000/svg" data-name="Layer 1"><path d="m13.414 13.586c.378.378.586.88.586 1.414s-.208 1.036-.586 1.414c-.755.756-2.072.756-2.828 0-.78-.78-.78-2.048-.002-2.826l1.417-1.409 1.414 1.407zm7.1-8.1 1.486 1.486v17.028h-20v-21c0-1.654 1.346-3 3-3h10.029l1.986 1.986 1.486-1.486 3.5 3.5-1.486 1.486zm-16.514-.486h8c.551 0 1-.449 1-1v-2h-8c-.551 0-1 .449-1 1zm12 10c0-1.068-.416-2.073-1.174-2.83l-2.826-2.811-2.829 2.813c-1.56 1.56-1.56 4.097 0 5.656.755.756 1.76 1.172 2.829 1.172s2.073-.416 2.829-1.172c.755-.755 1.171-1.76 1.171-2.828z"/></svg>