<svg id="Layer_1" viewBox="0 0 24 24" xmlns="http://www.w3.org/2000/svg" data-name="Layer 1"><path d="m17 0c-3.866 0-7 3.134-7 7s3.134 7 7 7 7-3.134 7-7-3.134-7-7-7zm-1.479 5.74 3.286.548c1.271.211 2.193 1.3 2.193 2.588 0 1.447-1.177 2.624-2.624 2.624h-.376v1h-2v-1c-1.654 0-3-1.346-3-3h2c0 .551.449 1 1 1h2.376c.344 0 .624-.28.624-.624 0-.307-.22-.565-.521-.616l-3.286-.548c-1.27-.211-2.192-1.3-2.192-2.588 0-1.447 1.177-2.624 2.624-2.624h.376v-1h2v1c1.654 0 3 1.346 3 3h-2c0-.551-.448-1-1-1h-2.376c-.344 0-.624.28-.624.624 0 .307.219.565.521.616zm-6.521 6.26c0-.252.03-.496.074-.735 1.15 2.132 3.137 3.739 5.519 4.4-.489.213-1.027.335-1.593.335-2.206 0-4-1.794-4-4zm15 .651v9.349h-2v2h-2v-2h-16v2h-2v-2h-2v-5h3v-2h-3v-6h3v-2h-3v-2c0-1.654 1.346-3 3-3h6.518c-.958 1.43-1.518 3.149-1.518 5 0 .513.053 1.012.135 1.502-.711.986-1.135 2.192-1.135 3.498 0 3.309 2.691 6 6 6 1.783 0 3.382-.786 4.482-2.024 2.632-.14 4.963-1.401 6.518-3.325z"/></svg>