<svg id="Layer_1" viewBox="0 0 24 24" xmlns="http://www.w3.org/2000/svg" data-name="Layer 1"><path d="m8 16.547v7.453h-8v-13.744l4.974-4.353v4.327l-2.134 1.738 1.351 1.522 3.706-3.059c.683-.605 1.707-.615 2.401-.025.771.655.866 1.812.21 2.583l-2.51 3.556zm-1-7.931c1.366-.92 3.277-.853 4.595.268.668.568 1.077 1.319 1.248 2.117h5.157v-11.001h-11zm5.102 5.588-1.973 2.796h4.872c1.654 0 3-1.346 3-3v-1h-5.256c-.14.426-.347.836-.642 1.204zm-2.102 9.796h3v-2h-3zm5 0h3v-2h-3zm7-2.5c0 .275-.225.499-.5.499h-1.5v2h1.5c1.379 0 2.5-1.121 2.5-2.499v-2h-2zm1.268-12.768c-.473-.471-1.099-.73-1.764-.73h-1.503s-.002 1.999-.002 1.999h1.502s0 .001 0 .001c.179 0 .297.091.352.146s.146.173.146.353v2h2v-2c0-.668-.261-1.296-.732-1.768zm-1.268 8.768h2v-3h-2z"/></svg>