<svg id="Layer_1" viewBox="0 0 24 24" xmlns="http://www.w3.org/2000/svg" data-name="Layer 1"><path d="m23.866 9.163c.078.268.134.545.134.837v14h-24v-14c0-.299.057-.583.139-.856l8.325 8.392c.945.944 2.201 1.464 3.536 1.464s2.591-.52 3.536-1.464l8.331-8.373zm-9.794-4.715c-.662-.301-1.072-.906-1.072-1.579v-2.869h-2v2.869c0 1.444.88 2.778 2.243 3.399.388.177.714.432.983.731h2.348c-.477-1.098-1.335-2.02-2.5-2.552zm6.928 2.552h-4.427c.418.962.547 2.059.295 3.165-.418 1.831-1.872 3.284-3.703 3.702-.384.088-.776.133-1.165.133-.552 0-1-.448-1-1s.448-1 1-1c.239 0 .481-.027.719-.082 1.071-.244 1.954-1.128 2.198-2.198.23-1.009-.051-2.006-.692-2.72h-5.225l-2-2v2h-4c-.617 0-1.191.188-1.669.509l8.547 8.613c.567.566 1.344.849 2.122.85.777 0 1.555-.283 2.122-.85l8.561-8.604c-.48-.327-1.059-.518-1.683-.518z"/></svg>