<svg id="Layer_1" viewBox="0 0 24 24" xmlns="http://www.w3.org/2000/svg" data-name="Layer 1"><path d="m8.026 24c-2.411 0-4.311-1.285-5.389-3.631-1.579-.778-2.612-2.405-2.612-4.178 0-.901.259-1.77.742-2.517-.52-.806-.793-1.72-.793-2.674 0-1.085.379-2.574 2.095-3.747v-.492c0-1.821 1.314-3.209 3.233-3.542.372-1.864 1.852-3.219 3.673-3.219 2.013 0 4.051 1.374 4.051 4v15c0 2.57-2.43 5-5 5zm0 0c-2.411 0-4.311-1.285-5.389-3.631-1.579-.778-2.612-2.405-2.612-4.178 0-.901.259-1.77.742-2.517-.52-.806-.793-1.72-.793-2.674 0-1.085.379-2.574 2.095-3.747v-.492c0-1.821 1.314-3.209 3.233-3.542.372-1.864 1.852-3.219 3.673-3.219 2.013 0 4.051 1.374 4.051 4v15c0 2.57-2.43 5-5 5zm6.239-2h5.761v-2.937c0-.022.006-.042.006-.063h-5.006c0 1.052-.282 2.073-.761 3zm7.371-17.703c-1.541-1.517-3.596-2.338-5.746-2.296-.387.006-.766.051-1.14.113.175.573.276 1.2.276 1.886v5c0 .552.448 1 1 1s1-.448 1-1h2c0 1.302-.839 2.402-2 2.816v5.184h3.522c.204-.377.447-.725.76-1.001 1.728-1.518 2.718-3.704 2.718-5.999 0-2.161-.849-4.187-2.39-5.703z"/></svg>