<svg id="Layer_1" viewBox="0 0 24 24" xmlns="http://www.w3.org/2000/svg" data-name="Layer 1"><path d="m13.909 10h5.182c1.265 0 2.399.8 2.824 1.991l1.432 4.009h-13.694l1.432-4.009c.425-1.19 1.56-1.991 2.824-1.991zm-9.909 7v2h3.03c-.015.246-.03.492-.03.732v4.268h-7v-21c0-1.654 1.346-3 3-3h10c1.654 0 3 1.346 3 3v5h-2.091c-1.101 0-2.137.37-2.982 1h-1.927v2.871l-.979 2.694c-.289.795-.515 1.61-.699 2.435h-3.321zm5-10h3v-2h-3zm-5 0h3v-2h-3zm0 4h3v-2h-3zm0 4h3v-2h-3zm19.858 3h-2.858v1c0 .552-.448 1-1 1s-1-.448-1-1v-1h-5v1c0 .552-.448 1-1 1s-1-.448-1-1v-1h-2.858c-.091.571-.142 1.149-.142 1.732v2.268h2v2h3v-2h5v2h3v-2h2v-2.268c0-.583-.051-1.161-.142-1.732z"/></svg>