<svg id="Layer_1" viewBox="0 0 24 24" xmlns="http://www.w3.org/2000/svg" data-name="Layer 1"><path d="m7 4.5c0-1.381 1.119-2.5 2.5-2.5s2.5 1.119 2.5 2.5-1.119 2.5-2.5 2.5-2.5-1.119-2.5-2.5zm6.007 7.5h1.993v2h-3.007l-1.916-2.617-1.625 5.017 3.549 2.019v5.582h-2v-4.418l-4.586-2.61c-1.272-.803-1.766-2.348-1.212-3.698l1.143-3.355c.485-1.188 1.575-1.918 2.797-1.918.988-.068 2.053.288 2.683 1.024l2.183 2.976zm5.336-4.714c-.236.347-.315.563-.335.656.267.201 1.187.393 1.696.499 1.391.29 3.296.686 3.296 2.399 0 2.495-3.771 3.16-6 3.16v-2c1.84 0 3.854-.566 3.992-1.103-.266-.201-1.187-.393-1.696-.499-1.391-.29-3.296-.686-3.296-2.399 0-.518.209-1.084.608-1.704l1.031-6.296h6.361v6.362l-5.657.926zm-14.399 11.061-.283.653h-3.661v2h5l.676-1.578-1.252-.713c-.173-.109-.324-.238-.48-.362z"/></svg>