<svg id="Layer_1" viewBox="0 0 24 24" xmlns="http://www.w3.org/2000/svg" data-name="Layer 1"><path d="m22.389 12.611c-1.038-1.039-2.419-1.611-3.889-1.611s-2.851.572-3.889 1.61c-1.039 1.039-1.611 2.42-1.611 3.89s.576 2.855 1.649 3.925l3.851 3.573 3.889-3.609c1.039-1.039 1.611-2.42 1.611-3.89s-.572-2.851-1.611-3.889zm-3.889 5.395c-.828 0-1.5-.672-1.5-1.5s.672-1.5 1.5-1.5 1.5.672 1.5 1.5-.672 1.5-1.5 1.5zm-5.211 3.885c-.276-.275-.519-.567-.747-.868h-3.542v-2h2.45c-.233-.643-.376-1.312-.424-2h-2.026v-2h2.145c.141-.708.384-1.388.72-2.023h-2.864v-2h3v1.767c.326-.566.723-1.097 1.197-1.571 1.056-1.056 2.371-1.757 3.803-2.046v-9.15h-2v3h-3v-3h-2v3h-3v-3h-2v3h-3.001v-3h-2v24h15.561zm-1.289-16.891h3v3h-3zm-5 16h-3v-2h3zm0-4h-3v-2h3zm0-4h-3v-2h3zm0-8h3v3h-3z"/></svg>