<svg id="Layer_1" viewBox="0 0 24 24" xmlns="http://www.w3.org/2000/svg" data-name="Layer 1"><path d="m24 22.586-4.303-4.323 3.621-3.621-9.738-3.542c-.704-.253-1.486-.077-2.012.448-.533.532-.704 1.303-.446 2.012l3.541 9.737 3.62-3.621 4.303 4.323 1.414-1.414zm-12.5-16.086c0 .827-.673 1.5-1.5 1.5s-1.5-.673-1.5-1.5.673-1.5 1.5-1.5 1.5.673 1.5 1.5zm-.2 13.406c-.427.056-.859.094-1.3.094-5.514 0-10-4.486-10-10s4.486-10 10-10 10 4.486 10 10c0 .433-.037.856-.091 1.275l-5.655-2.056c-.603-.216-1.24-.267-1.856-.183.675-.638 1.101-1.536 1.101-2.536 0-1.93-1.57-3.5-3.5-3.5s-3.5 1.57-3.5 3.5 1.57 3.5 3.5 3.5c.12 0 .233-.024.35-.035-.637.522-1.058 1.274-1.241 2.035h-2.108c-1.654 0-3 1.346-3 3v.274c.572.65 1.247 1.206 2 1.644v-1.918c0-.551.449-1 1-1h2.172c.024.082.04.164.07.245z"/></svg>