<svg id="Layer_1" viewBox="0 0 24 24" xmlns="http://www.w3.org/2000/svg" data-name="Layer 1"><path d="m16.5 6c0-.452-.087-.88-.211-1.291l1.42-.809-.99-1.738-1.416.806c-.606-.66-1.4-1.14-2.303-1.347v-1.621h-2v1.621c-.903.206-1.697.687-2.303 1.347l-1.416-.806-.989 1.738 1.42.809c-.125.412-.212.84-.212 1.292s.087.88.212 1.292l-1.42.809.989 1.738 1.416-.806c.606.66 1.4 1.141 2.303 1.347v1.621h2v-1.621c.903-.206 1.697-.687 2.303-1.347l1.416.806.99-1.738-1.42-.809c.124-.412.211-.839.211-1.291zm-4.5 1.5c-.827 0-1.5-.673-1.5-1.5s.673-1.5 1.5-1.5 1.5.673 1.5 1.5-.673 1.5-1.5 1.5zm6.25 7c0-1.381 1.119-2.5 2.5-2.5s2.5 1.119 2.5 2.5-1.119 2.5-2.5 2.5-2.5-1.119-2.5-2.5zm-17.5 0c0-1.381 1.119-2.5 2.5-2.5s2.5 1.119 2.5 2.5-1.119 2.5-2.5 2.5-2.5-1.119-2.5-2.5zm8.75 2c0-1.381 1.119-2.5 2.5-2.5s2.5 1.119 2.5 2.5-1.119 2.5-2.5 2.5-2.5-1.119-2.5-2.5zm14.5 3.5c0-1.105-.895-2-2-2h-2.5c-1.105 0-2 .895-2 2v4h6.5zm-17.5 0v4h-6.5v-4c0-1.105.895-2 2-2h2.5c1.105 0 2 .895 2 2zm9 2v2h-7v-2c0-1.105.895-2 2-2h3c1.105 0 2 .895 2 2z"/></svg>