<svg id="Layer_1" viewBox="0 0 24 24" xmlns="http://www.w3.org/2000/svg" data-name="Layer 1"><path d="m12 16v8h-1.6l-1.8-4.054v4.054h-1.6v-8h1.6v.009l1.8 4.054v-4.063zm5.8 2.3v3.4c0 1.269-1.031 2.3-2.3 2.3s-2.3-1.031-2.3-2.3v-3.4c0-1.269 1.031-2.3 2.3-2.3s2.3 1.031 2.3 2.3zm-1.6 0c0-.386-.314-.7-.7-.7s-.7.314-.7.7v3.4c0 .386.314.7.7.7s.7-.314.7-.7zm6.16-2.3.008.034-1.111 6.111-1.129-6.138v-.007s-1.628 0-1.628 0 1.211 6.584 1.211 6.584c.103.58.61 1.416 1.546 1.416s1.435-.794 1.555-1.462l1.188-6.538s-1.64 0-1.64 0zm1.64-8v-3c0-1.657-1.343-3-3-3h-3v-2h-2v2h-8v-2h-2v2h-3c-1.657 0-3 1.343-3 3v3zm-24 2v14h5v-10h19v-4z"/></svg>