<svg id="Layer_1" viewBox="0 0 24 24" xmlns="http://www.w3.org/2000/svg" data-name="Layer 1"><path d="m22 14v-1c0-2.206-1.794-4-4-4s-4 1.794-4 4v1h-2v7c0 1.654 1.346 3 3 3h6c1.654 0 3-1.346 3-3v-7zm-3 6h-2v-2h2zm1-6h-4v-1c0-1.103.897-2 2-2s2 .897 2 2zm-10 5.099c-.428-.628-.849-1.337-1.224-2.099h1.224v-2h-2.028c-.291-.952-.472-1.959-.472-3s.18-2.047.472-3h5.565c.978-1.082 2.39-1.804 3.854-1.967-.777-1.869-1.844-3.513-2.78-4.675 2.889.784 5.258 2.831 6.482 5.508 1.453.878 2.596 2.35 2.904 4.083-.028-6.593-5.397-11.95-11.997-11.95s-12 5.384-12 12.001c0 6.273 4.841 11.429 10.983 11.948-.61-.829-.983-1.843-.983-2.948zm5.211-12.099h-6.433c1.023-2.08 2.408-3.72 3.22-4.583.808.86 2.189 2.493 3.213 4.583zm-5.823-4.642c-.94 1.167-2.024 2.767-2.81 4.642h-3.225c1.308-2.253 3.466-3.945 6.035-4.642zm-6.919 12.642c-.3-.948-.469-1.954-.469-3s.163-2.052.461-3h3.442c-.246.956-.403 1.958-.403 3s.15 2.045.396 3zm.885 2h3.23c.787 1.873 1.865 3.476 2.805 4.642-2.568-.697-4.725-2.394-6.034-4.642z"/></svg>