<svg id="Layer_1" viewBox="0 0 24 24" xmlns="http://www.w3.org/2000/svg" data-name="Layer 1"><path d="m13 17h8v7h-18v-7h8v2h2zm5.5-6h-3v-.5c0-.827-.673-1.5-1.5-1.5h-4c-.827 0-1.5.673-1.5 1.5v.5h-3c-1.379 0-2.5 1.122-2.5 2.5v1.5h18v-1.5c0-1.378-1.121-2.5-2.5-2.5zm-7.5-8.02v4.02h2v-3.936l1.706 1.668 1.398-1.431-2.81-2.747c-.714-.713-1.966-.706-2.664-.009l-2.699 2.638 1.398 1.431 1.671-1.633zm-8 6.78c.583-.39 1.268-.627 2-.709v-2.987l1.607 1.568 1.398-1.431-2.711-2.648c-.714-.713-1.966-.706-2.664-.009l-2.63 2.566 1.402 1.431 1.598-1.56v3.78zm21-3.644-2.621-2.563c-.716-.714-1.968-.705-2.664-.009l-2.713 2.65 1.398 1.431 1.6-1.561v2.987c.732.082 1.417.319 2 .709v-3.78l1.604 1.567z"/></svg>