<svg id="Layer_1" viewBox="0 0 24 24" xmlns="http://www.w3.org/2000/svg" data-name="Layer 1"><path d="m13-.004v4h-2v-4zm-10.69 7.876-1.835 7.952c-.314 1.364-.475 2.767-.475 4.169-.05 2.154 1.862 4.041 4.002 4.002.815.045 2.121-.517 2.896-.751s0 0 0 0c2.454-.818 4.103-3.105 4.103-5.692v-2.724c-.598.545-1.298.989-2.103 1.257l-2.581.86-.633-1.897 2.581-.86c1.636-.545 2.735-2.07 2.735-3.795v-6.397h-3.818c-2.342 0-4.345 1.594-4.872 3.876zm20.817 14.581-1.254 1.558c-.456-.367-1.633-1.34-2.887-2.589-1.241 1.242-2.402 2.215-2.854 2.584l-1.266-1.549c.854-.699 1.826-1.578 2.74-2.502-1.409-1.619-2.607-3.439-2.607-4.954 0-2.206 1.794-4 4-4s4 1.794 4 4c0 1.49-1.214 3.319-2.636 4.951.92.927 1.901 1.807 2.763 2.501zm-4.141-3.985c1.165-1.353 2.014-2.646 2.014-3.467 0-1.103-.897-2-2-2s-2 .897-2 2c0 .838.836 2.127 1.986 3.467zm3.174-8.557-.47-2.038c-.527-2.282-2.53-3.875-4.872-3.875h-3.818v6.4c0 .741.223 1.433.584 2.038.964-2.027 3.026-3.434 5.416-3.434 1.161 0 2.242.337 3.161.909z"/></svg>