<?xml version="1.0" encoding="UTF-8"?>
<svg xmlns="http://www.w3.org/2000/svg" id="Layer_1" data-name="Layer 1" viewBox="0 0 24 24">
  <path d="M9.051,9.554c.574,.458,.949,1.155,.949,1.946v2.5H4.02l5.031-4.446ZM1.778,2.5h7.483l.17-.326c.27-.787-.287-1.615-1.118-1.661L3.24,.003C2.109-.06,1.253,1.011,1.565,2.1l.213,.4ZM23,11.5c0-1.378-1.121-2.5-2.5-2.5h-4c-1.379,0-2.5,1.122-2.5,2.5v2.5h9v-2.5Zm-4.5-3.5c1.657,0,3-1.343,3-3s-1.343-3-3-3-3,1.343-3,3,1.343,3,3,3ZM7.707,16.134l-1.414,1.414,1.452,1.452H0v2H7.816l-1.523,1.523,1.414,1.414,2.862-2.862c.571-.547,.57-1.533,0-2.079l-2.862-2.862Zm16.293,2.866h-7.745l1.452-1.452-1.414-1.414-2.862,2.862c-.57,.546-.57,1.532,0,2.079l2.862,2.862,1.414-1.414-1.523-1.523h7.816v-2ZM3.5,9c-1.381,0-2.5,1.119-2.5,2.5v2.5l5.658-5H3.5Zm2-1c1.93,0,3.5-1.57,3.5-3.5H2c0,1.93,1.57,3.5,3.5,3.5Z"/>
</svg>
