<svg id="Layer_1" viewBox="0 0 24 24" xmlns="http://www.w3.org/2000/svg" data-name="Layer 1"><path d="m21 0h-18c-1.654 0-3 1.346-3 3v4h24v-4c0-1.654-1.346-3-3-3zm-17.5 5c-.828 0-1.5-.672-1.5-1.5s.672-1.5 1.5-1.5 1.5.672 1.5 1.5-.672 1.5-1.5 1.5zm4 0c-.828 0-1.5-.672-1.5-1.5s.672-1.5 1.5-1.5 1.5.672 1.5 1.5-.672 1.5-1.5 1.5zm16.5 13.823v5.177h-9.656l-1.777-1.711c-.831-.831-.748-2.231.249-2.949.79-.567 1.884-.393 2.562.285l.622.626v-6.75c0-.827.673-1.5 1.5-1.5s1.5.673 1.5 1.5v3.323l5 2zm-17-3.823c1.127 0 2.051.887 2.108 2h-4.216c.058-1.113.981-2 2.108-2zm17-6v7.669l-3-1.2v-1.969c0-1.93-1.57-3.5-3.5-3.5s-3.5 1.57-3.5 3.5v3.495c-.037 0-2.9.005-2.9.005-.051-1.87-1.353-3.422-3.1-3.863v-1.137h-2v1.137c-1.747.441-3.049 1.993-3.1 3.863h-.9v2h8.502c-.273.488-.444 1.032-.49 1.602-.039.478.03.947.161 1.398h-10.173v-13z"/></svg>