<svg id="Layer_1" viewBox="0 0 24 24" xmlns="http://www.w3.org/2000/svg" data-name="Layer 1"><path d="m12.046 8.115c-.677 1.17-1.046 2.513-1.046 3.885s.369 2.715 1.046 3.885c-1.746-.429-3.046-2.008-3.046-3.885s1.299-3.456 3.046-3.885zm11.868 3.885-2.916 2.916v6.082h-6.082l-2.916 2.916-2.916-2.916h-6.082v-6.082l-2.916-2.916 2.916-2.916v-6.082h6.082l2.916-2.916 2.916 2.916h6.082v6.082zm-10.914 0c-.109-2.289 1.508-4.058 3.132-5.444 0 0-1.132-.556-3.132-.556-3.309 0-6 2.691-6 6s2.691 6 6 6c2 0 3.132-.556 3.132-.556-1.624-1.388-3.24-3.155-3.132-5.444z"/></svg>