<svg id="Layer_1" viewBox="0 0 24 24" xmlns="http://www.w3.org/2000/svg" data-name="Layer 1"><path d="m21.6 22.4h2.4v1.6h-4v-8h1.6zm-10.2-.7c0 .386-.314.7-.7.7s-.7-.314-.7-.7v-.7h-1.6v.7c0 1.269 1.031 2.3 2.3 2.3s2.3-1.031 2.3-2.3v-5.7h-1.6zm5.8 0c0 .386-.314.7-.7.7s-.7-.314-.7-.7v-5.7h-1.6v5.7c0 1.269 1.031 2.3 2.3 2.3s2.3-1.031 2.3-2.3v-5.7h-1.6zm3.8-19.7h-3v-2h-2v2h-8v-2h-2v2h-3c-1.657 0-3 1.343-3 3v3h24v-3c0-1.657-1.343-3-3-3zm-21 22h7.157c-.374-.586-.604-1.268-.657-2v-3h3v-5h14.5v-4h-24z"/></svg>