<svg id="Layer_1" viewBox="0 0 24 24" xmlns="http://www.w3.org/2000/svg" data-name="Layer 1"><path d="m17.59 12 1.41-4h-3.077c-.619 0-1.062-.597-.883-1.19l2.657-6.81h4.303l-1.692 4h2.786c.722 0 1.153.804.754 1.406l-5.058 6.594h-1.199zm2.186 2h-5.011l1.41-4c-1.003.06-2-.363-2.598-1.181-.549-.739-.717-1.707-.451-2.588l2.321-5.966c-.513.108-.962.234-1.362.35-.742.215-1.328.385-2.085.385s-1.343-.17-2.085-.385c-.945-.274-2.122-.615-3.915-.615-4.746 0-6 3.925-6 6 0 7.061 4.029 14.001 6.433 18h3.567v-8.893c0-.996.681-1.92 1.664-2.08 1.253-.204 2.336.758 2.336 1.973v9h3.567c2.089-3.476 5.393-9.172 6.225-15.237l-4.017 5.237z"/></svg>