<svg id="Layer_1" viewBox="0 0 24 24" xmlns="http://www.w3.org/2000/svg" data-name="Layer 1"><path d="m19.414 5h-4.414v-4.414zm.086 13c3.044 0 4.279-.811 4.5-1.079v-2.421c0-.883-1.85-1.5-4.5-1.5s-4.5.617-4.5 1.5v2.421c.221.268 1.456 1.079 4.5 1.079m0 6c2.859 0 4.5-.79 4.5-2.167v-2.833s-1 1-4.5 1-4.5-1-4.5-1v2.833c0 1.377 1.641 2.167 4.5 2.167m-6.5-2.167v-7.333c0-1.052.634-3.5 6.5-3.5.176 0 .333.009.5.013v-4.013h-7v-7h-10c-1.657 0-3 1.343-3 3v21h13.751c-.651-.842-.751-1.727-.751-2.167zm-7-1.833h-2v-4h2zm4 0h-2v-9h2z"/></svg>