<svg id="Layer_1" viewBox="0 0 24 24" xmlns="http://www.w3.org/2000/svg" data-name="Layer 1"><path d="m2 7h-2v-4c0-1.654 1.346-3 3-3h4v2h-4c-.551 0-1 .449-1 1zm19-7h-4v2h4c.551 0 1 .449 1 1v4h2v-4c0-1.654-1.346-3-3-3zm-19 21v-4h-2v4c0 1.654 1.346 3 3 3h4v-2h-4c-.551 0-1-.448-1-1zm20 0c0 .552-.449 1-1 1h-4v2h4c1.654 0 3-1.346 3-3v-4h-2zm.159-7h-6.714c-.693 1.191-1.968 2-3.445 2s-2.752-.809-3.445-2h-6.714c1.385 2.269 4.52 6 10.159 6s8.773-3.731 10.159-6zm-.005-4h1.846v2h-24v-2h1.846c1.35-2.2 4.499-6 10.154-6s8.804 3.8 10.154 6zm-13.59 0h6.871c-.69-1.191-1.96-2-3.436-2s-2.746.809-3.436 2z"/></svg>