<svg id="Layer_1" viewBox="0 0 24 24" xmlns="http://www.w3.org/2000/svg" data-name="Layer 1"><path d="m12.384 21.983c-.669-.663-2.399-2.514-3.611-4.983h3.227v-.983c0-.353.061-.69.147-1.017h-4.177c-.291-.952-.47-1.96-.47-3s.18-2.047.472-3h8.058c.291.952.47 1.96.47 3h2c0-1.042-.157-2.044-.403-3h3.436c.105.332.199.67.269 1.016h2.021c-.951-5.674-5.883-10.016-11.823-10.016-6.617 0-12 5.383-12 12s5.383 12 12 12c.882 0 1.737-.106 2.565-.288l-.814-1.867c-.445.079-.903.119-1.366.137zm-3.607-14.983c1.025-2.083 2.411-3.724 3.223-4.586.813.861 2.202 2.5 3.226 4.586zm11.872 0h-3.227c-.79-1.883-1.879-3.488-2.822-4.656 2.577.695 4.74 2.398 6.05 4.656zm-11.26-4.642c-.94 1.167-2.024 2.767-2.811 4.642h-3.225c1.308-2.253 3.466-3.945 6.036-4.642zm-6.928 6.642h3.442c-.246.956-.403 1.958-.403 3s.157 2.044.403 3h-3.442c-.299-.948-.461-1.955-.461-3s.162-2.052.461-3zm.892 8h3.225c.787 1.875 1.87 3.475 2.811 4.642-2.569-.697-4.728-2.39-6.035-4.642zm20.647 0c0 .651-.42 1.201-1.001 1.408v3.592h-1.886c-.21-1.106-.748-2.047-2.113-2h-.993l.871 2.016c.195.438.155.94-.106 1.342s-.703.642-1.183.642h-.717l-1.863-4.274c-.599-.346-1.008-.986-1.008-1.726v-2c0-1.103.897-2 2-2h3c1.365.047 1.903-.895 2.113-2h1.887v3.592c.581.207 1 .757 1 1.408z"/></svg>