<svg id="Layer_1" viewBox="0 0 24 24" xmlns="http://www.w3.org/2000/svg" data-name="Layer 1"><path d="m19.868 14.088c-.988-3.36-2.036-6.171-2.577-7.554.351-.146.776-.315 1.222-.479.34-.127.726-.075 1.032.134.283.193.449.49.455.812l2-.034c-.018-.979-.501-1.865-1.326-2.429-.841-.574-1.907-.708-2.853-.359-1.951.745-1.994.814-3.117 1.311.553 1.349.504 1.137 1.516 3.889l-4.453 3.425-.616-.685c-.516.435-1.09.8-1.705 1.095l.732.813-1.755 1.35c-.896-.846-2.096-1.375-3.423-1.375-2.757 0-5 2.243-5 5s2.243 5 5 5 5-2.243 5-5c0-.709-.152-1.381-.419-1.992l7.333-5.641c.29.863.593 1.801.891 2.793-2.179.539-3.805 2.497-3.805 4.839 0 2.757 2.243 5 5 5s5-2.243 5-5c0-2.46-1.789-4.499-4.132-4.912zm-13.868-14.088c-3.314 0-6 2.686-6 6s2.686 6 6 6 6-2.686 6-6-2.686-6-6-6zm2.897 5.971-3.264 4.029-.626-.002.655-2.973h-2.049c-.412-.002-.706-.436-.585-.83l1.336-4.195h2.923l-.925 3.025 2.036.008c.481.002.766.539.499.938z"/></svg>