<svg id="Layer_1" viewBox="0 0 24 24" xmlns="http://www.w3.org/2000/svg" data-name="Layer 1"><path d="m12.36 2.963-3.333-2.609c-.302-.236-.664-.354-1.027-.354s-.725.118-1.027.354l-3.333 2.609c-.404.316-.64.8-.64 1.312v5.725h10v-5.725c0-.513-.236-.997-.64-1.312zm-3.36 4.037h-2v-2h2z"/><path d="m23.152 9.681c-.515-.469-1.186-.712-1.878-.678-.697.032-1.339.334-1.794.835l-3.541 3.737c.032.21.065.42.065.638 0 2.083-1.555 3.876-3.617 4.17l-4.241.606-.283-1.979 4.152-.593c.936-.134 1.748-.806 1.94-1.732.296-1.425-.79-2.685-2.164-2.685h-8.788c-1.657 0-3 1.343-3 3v6c0 1.657 1.343 3 3 3h10.497l9.841-10.655c.948-1.062.862-2.707-.189-3.665z"/></svg>