<svg id="Layer_1" viewBox="0 0 24 24" xmlns="http://www.w3.org/2000/svg" data-name="Layer 1"><path d="m19 0c-2.761 0-5 2.239-5 5s2.239 5 5 5 5-2.239 5-5-2.239-5-5-5zm1.293 7.707-2.293-2.293v-3.414h2v2.586l1.707 1.707zm-1.293 4.293c-3.86 0-7-3.14-7-7 0-1.958.81-3.728 2.11-5h-11.11c-1.654 0-3 1.346-3 3v17h6.923l3.749 3.157c.382.339.861.507 1.337.507.468 0 .931-.163 1.292-.484l3.848-3.18h6.852v-10.11c-1.272 1.3-3.042 2.11-5 2.11zm-13.5 0c-.828 0-1.5-.672-1.5-1.5s.672-1.5 1.5-1.5 1.5.672 1.5 1.5-.672 1.5-1.5 1.5zm5 0c-.828 0-1.5-.672-1.5-1.5s.672-1.5 1.5-1.5 1.5.672 1.5 1.5-.672 1.5-1.5 1.5z"/></svg>