<svg id="Layer_1" viewBox="0 0 24 24" xmlns="http://www.w3.org/2000/svg" data-name="Layer 1"><path d="m22 19h2v2h-2zm-11-7.442v1.534c-.157-.057-.323-.093-.499-.093-.828 0-1.5.672-1.5 1.5s.672 1.5 1.5 1.5c.178 0 .342-.042.499-.101v5.075c-.167.008-.331.025-.5.025-5.79.002-10.5-4.708-10.5-10.498s4.71-10.5 10.5-10.5 10.5 4.71 10.5 10.5c0 .169-.017.333-.025.5h-6.975l.036-.036c-1.949-1.949-5.122-1.949-7.071 0l1.414 1.414c.714-.713 1.697-.981 2.622-.82zm-5.096-1.655c1.228-1.228 2.86-1.904 4.596-1.904s3.369.676 4.596 1.904l1.414-1.414c-1.605-1.605-3.74-2.49-6.01-2.49s-4.405.884-6.01 2.49zm13.096 12.096v2h2v-2zm5-9v5h-5v-5zm-2 2h-1v1h1zm-9 4h5v5h-5zm2 3h1v-1h-1zm4-1h2v-2h-2zm-6-8h5v5h-5zm2 3h1v-1h-1z"/></svg>