<svg id="Layer_1" viewBox="0 0 24 24" xmlns="http://www.w3.org/2000/svg" data-name="Layer 1"><path d="m17 13c1.103 0 2 .897 2 2s-.897 2-2 2-2-.897-2-2 .897-2 2-2zm-11-3c2.193 0 4.178.884 5.623 2.313.084-.146.68-1.179.68-1.179l1.845 1.065c.5-.509 1.139-.873 1.851-1.058v-2.141h-15.999v3.721c1.466-1.665 3.607-2.721 6-2.721zm0 14c-3.314 0-6-2.686-6-6s2.686-6 6-6 6 2.686 6 6-2.686 6-6 6zm-1-6v3h2v-3h2.431l-2.688-2.687c-.417-.417-1.093-.417-1.51 0l-2.687 2.687zm13-6.859c.712.184 1.351.549 1.851 1.058l1.845-1.065 1 1.732-1.857 1.072c.094.34.161.692.161 1.062s-.066.722-.161 1.062l1.857 1.072-1 1.732-1.845-1.065c-.5.509-1.139.873-1.851 1.058v2.141h-2v-2.141c-.712-.185-1.351-.549-1.851-1.058l-.156.09c.041 1.486-.379 2.906-1.071 4.109h11.079v-13h-6v2.141zm6-8.141v4h-24v-4c0-1.654 1.346-3 3-3h18c1.654 0 3 1.346 3 3zm-19 .5c0-.828-.672-1.5-1.5-1.5s-1.5.672-1.5 1.5.672 1.5 1.5 1.5 1.5-.672 1.5-1.5zm4 0c0-.828-.672-1.5-1.5-1.5s-1.5.672-1.5 1.5.672 1.5 1.5 1.5 1.5-.672 1.5-1.5z"/></svg>