<svg id="Layer_1" viewBox="0 0 24 24" xmlns="http://www.w3.org/2000/svg" data-name="Layer 1"><path d="m20 11h-1v-3.243l-1.414 1.329-1.336-1.488 2.251-2.082-2.268-2.083 1.328-1.494 1.438 1.345v-3.284h1l4 3-3 2.5 3 2.5-4 3zm.85 2.645c.039-.214.065-.429.088-.645h-3.032c-.23 1.326-.9 2.547-1.906 3.45v3.604c.662-.329 1.285-.731 1.849-1.214l3.044 1.759 3-5.2-3.043-1.755zm-12.85 2.805c-1.255-1.127-2-2.745-2-4.45 0-3.308 2.692-6 6-6 1.093 0 2.116.299 3 .812v-6.812h-6v3.513c-1.043.369-2.009.927-2.849 1.646l-3.044-1.759-3 5.2 3.043 1.755c-.2 1.088-.2 2.202 0 3.29l-3.043 1.755 3 5.2 3.044-1.758c.564.482 1.187.884 1.849 1.213zm5-8.309v3.359c0 .552-.448 1-1 1s-1-.448-1-1v-3.359c-1.722.446-3 1.997-3 3.859 0 1.477.809 2.752 2 3.445v8.555h4v-8.555c1.191-.693 2-1.968 2-3.445 0-1.862-1.278-3.413-3-3.859z"/></svg>