<svg id="Layer_1" viewBox="0 0 24 24" xmlns="http://www.w3.org/2000/svg" data-name="Layer 1"><path d="m22 9.639c.289-1.025 2-7.197 2-9.639h-12c.828 0 1.5.672 1.5 1.5s-.672 1.5-1.5 1.5-1.5-.672-1.5-1.5.672-1.5 1.5-1.5h-12c0 2.442 1.711 8.614 2 9.639v8.205c-.213.684-1 3.394-1 6.156h11c-.828 0-1.5-.672-1.5-1.5s.672-1.5 1.5-1.5 1.5.672 1.5 1.5-.672 1.5-1.5 1.5h11c0-2.762-.787-5.472-1-6.156zm-10-4.639c.828 0 1.5.672 1.5 1.5s-.672 1.5-1.5 1.5-1.5-.672-1.5-1.5.672-1.5 1.5-1.5zm0 5c.828 0 1.5.672 1.5 1.5s-.672 1.5-1.5 1.5-1.5-.672-1.5-1.5.672-1.5 1.5-1.5zm3 8.5v2.5l-3-1.643-3 1.643v-2.5l-2.5-1.5 2.5-1.5v-2.5l3 1.643 3-1.643v2.5l2.5 1.5zm-1.5-1.5c0 .828-.672 1.5-1.5 1.5s-1.5-.672-1.5-1.5.672-1.5 1.5-1.5 1.5.672 1.5 1.5z"/></svg>