<svg id="Layer_1" viewBox="0 0 24 24" xmlns="http://www.w3.org/2000/svg" data-name="Layer 1"><path d="m16.973 11.903c.079-.822-.041-1.703-.25-2.427.786-.344 1.523-.829 2.18-1.36-.236 1.468-.932 2.776-1.93 3.787zm-4.973-11.903c-3.343 0-6.13 2.347-6.825 5.481 1.51 1.53 3.042 2.519 4.325 2.519h5c1.254 0 2.815-.983 4.327-2.513-.693-3.137-3.482-5.487-6.827-5.487zm-3 12.002c0 .868.097 1.531.202 1.998h5.596c.105-.467.202-1.13.202-1.998s-.097-1.534-.203-2.002h-5.596c-.104.464-.201 1.13-.201 2.002zm7.5 3.998h-9c-2.481 0-4.5 2.019-4.5 4.5v3.5h18v-3.5c0-2.481-2.019-4.5-4.5-4.5zm-9.5-4.499c0-.724.094-1.404.274-2.026-.785-.344-1.522-.828-2.177-1.359.236 1.468.932 2.776 1.93 3.787-.007-.135-.027-.263-.027-.402z"/></svg>