<?xml version="1.0" encoding="UTF-8"?>
<svg xmlns="http://www.w3.org/2000/svg" id="Layer_1" data-name="Layer 1" viewBox="0 0 24 24">
  <path d="M0,0H2V2H0V0ZM6,6h2v-2h-2v2ZM1,9h2v-2H1v2Zm1-4h2v-2h-2v2ZM5,2h2V0h-2V2Zm2,10.001c.377,0,.718-.215,.89-.561l.375-.756c.273,.07,.972,.329,1.235,.316,.471,0,.906-.219,1.192-.601l.3-.399h3.007c.551,0,1-.449,1-1,0-.441-.289-.823-.72-.951l-.341-.101-.201-.293c-.282-.411-.745-.656-1.239-.656-.26-.013-.966,.247-1.235,.316l-.375-.756c-.171-.346-.512-.561-.89-.561-.359,0-.683,.192-.864,.515l-.256,.456-.521,.049c-.775,.073-1.359,.71-1.359,1.48-.013,.26,.247,.966,.316,1.235l-.756,.375c-.346,.171-.561,.512-.561,.89,0,.551,.449,1,1,1Zm12.8-7.582C17.474,1.313,13.843-.274,10,.069v3.933c.873,0,1.679,.375,2.239,1.011,1.152-.093,2.224,.386,2.941,1.239,1.102,.468,1.82,1.533,1.82,2.75,0,1.654-1.346,3-3,3h-2.057c-.532,.525-1.203,.868-1.943,.969v7.031h-2v-6.188c-.317,.113-.65,.188-1,.188-1.654,0-3-1.346-3-3,0,0,0,0,0-.001H.003c0,2.573,.881,5.038,2.539,7.029,.295,.354,.458,.802,.458,1.263v4.709h13v-3h2.247c1.499,0,2.777-1.121,2.974-2.607l.449-3.393h2.33v-2.212s-2.824-6.709-4.2-8.37Z"/>
</svg>
