<svg id="Layer_1" viewBox="0 0 24 24" xmlns="http://www.w3.org/2000/svg" data-name="Layer 1"><path d="m12 7h-9v-5l2.25 2.51 2.25-2.51 2.25 2.51 2.25-2.51zm3.025 12.5c0-2.481-2.019-4.5-4.496-4.5l-6.029-.022c-1.207 0-2.34.472-3.191 1.328-.852.856-1.315 1.993-1.309 3.194v4.477l14.993.025.032-4.501zm6.975-15c0-2.481-2.019-4.5-4.5-4.5s-4.5 2.019-4.5 4.5 2.019 4.5 4.5 4.5 4.5-2.019 4.5-4.5zm-18.949 4.5c.252 2.244 2.139 4 4.449 4s4.197-1.756 4.449-4zm16.453 1.999-6.015-.022c-.344.838-.859 1.58-1.494 2.195 2.875.666 5.03 3.247 5.03 6.328l-.004.488 6.946.012.032-4.501c0-2.481-2.019-4.5-4.496-4.5z"/></svg>