<svg id="Layer_1" viewBox="0 0 24 24" xmlns="http://www.w3.org/2000/svg" data-name="Layer 1"><path d="m4.001 13.015c-.165-.006-.326-.015-.501-.015-.546 0-1.041.032-1.495.089-.047-3.506 1.769-6.629 4.495-8.431v2.543c-1.537 1.458-2.5 3.514-2.5 5.799v.015zm13.499-8.358v2.543c1.537 1.458 2.5 3.514 2.5 5.799v.015c.165-.006.326-.015.501-.015.546 0 1.041.032 1.496.089.045-3.506-1.769-6.629-4.496-8.431zm-5.5 16.343c-1.062 0-2.073-.211-3-.587v2.126c.948.299 1.955.461 3 .461s2.052-.163 3-.461v-2.126c-.927.376-1.938.587-3 .587zm-.718-11 2.265 6h-1.297l-.5-1.326h-1.983l-.5 1.324h-1.303l2.285-5.998zm.011 3.461-.53-1.404-.535 1.404h1.064zm2.97-3.461v6h1.237v-6zm-2.263-6c2.255 0 3.25-.546 3.5-.775v-1.994c0-.5-1.015-1.231-3.5-1.231s-3.5.731-3.5 1.231v2.033c.216.207 1.178.736 3.5.736zm0 2c-1.509 0-2.654-.193-3.5-.495v2.264c0 .5 1.015 1.231 3.5 1.231s3.5-.731 3.5-1.231v-2.302c-.869.324-2.022.533-3.5.533zm-8.5 13c2.255 0 3.25-.546 3.5-.775v-1.994c0-.5-1.015-1.231-3.5-1.231s-3.5.731-3.5 1.231v2.033c.216.207 1.178.736 3.5.736zm0 2c-1.509 0-2.654-.193-3.5-.495v2.264c0 .5 1.015 1.231 3.5 1.231s3.5-.731 3.5-1.231v-2.302c-.869.324-2.022.533-3.5.533zm17-2c2.255 0 3.25-.546 3.5-.775v-1.994c0-.5-1.015-1.231-3.5-1.231s-3.5.731-3.5 1.231v2.033c.216.207 1.178.736 3.5.736zm0 2c-1.509 0-2.654-.193-3.5-.495v2.264c0 .5 1.015 1.231 3.5 1.231s3.5-.731 3.5-1.231v-2.302c-.869.324-2.022.533-3.5.533z"/></svg>