<svg id="Layer_1" viewBox="0 0 24 24" xmlns="http://www.w3.org/2000/svg" data-name="Layer 1"><path d="m21 2.5c0-.828.672-1.5 1.5-1.5s1.5.672 1.5 1.5-.672 1.5-1.5 1.5-1.5-.672-1.5-1.5zm2.998 11c0-.827-.67-1.5-1.499-1.5s-1.5.671-1.5 1.499v4.501h-.997l-.003-6.495c.004-.83-.668-1.505-1.498-1.505s-1.498.669-1.498 1.497c0 .594.004 4.177.007 6.503h-1.01v-5.5c0-.828-.672-1.5-1.5-1.5s-1.5.672-1.5 1.5v7.971l-.51-.525c-.705-.705-1.839-.876-2.647-.294-1.03.742-1.116 2.188-.257 3.047l1.364 1.301h13.051l-.002-10.492v-.008zm-16.355 5.64c-2.169-1.191-3.643-3.496-3.643-6.14 0-3.86 3.141-7 7-7v2c-2.757 0-5 2.243-5 5 0 2.152 1.374 3.974 3.285 4.678.524-.244 1.092-.369 1.664-.369h.049v-4.809c0-1.93 1.57-3.5 3.5-3.5.466 0 .91.091 1.317.257.643-.768 1.607-1.257 2.685-1.257.937 0 1.817.366 2.479 1.03.211.213.38.454.528.705-.521-1.68-1.435-3.187-2.633-4.416.683-.546 1.125-1.376 1.125-2.32 0-1.657-1.343-3-3-3-.904 0-1.706.409-2.256 1.041-.341-.617-.99-1.041-1.744-1.041-1.103 0-2 .897-2 2-1.617 0-3.148.358-4.531.985-.455-.595-1.163-.985-1.969-.985-1.379 0-2.5 1.121-2.5 2.5 0 .177.035.344.07.51-.024 0-.046-.01-.07-.01-1.105 0-2 .895-2 2 0 .694.359 1.296.896 1.652-.575 1.334-.896 2.803-.896 4.348 0 4.913 3.222 9.07 7.667 10.483-.495-.751-.727-1.628-.655-2.522.053-.659.283-1.276.632-1.821z"/></svg>