<svg id="Layer_1" viewBox="0 0 24 24" xmlns="http://www.w3.org/2000/svg" data-name="Layer 1"><path d="m22 14v-1c0-2.206-1.794-4-4-4s-4 1.794-4 4v1h-2v7c0 1.654 1.346 3 3 3h6c1.654 0 3-1.346 3-3v-7zm-3 6h-2v-2h2zm1-6h-4v-1c0-1.103.897-2 2-2s2 .897 2 2zm-4.317-6.535-1.683-1.026v-3.439c0-1.657-1.343-3-3-3-1.657 0-3 1.343-3 3v3.438l-6.437 3.928c-.964.526-1.563 1.535-1.563 2.634v3.352l8-2.852v4.463l-1.658 1.098c-.838.555-1.342 1.493-1.342 2.499v2.413c1.103-.407 3.936-1.451 5-1.843v-10.13h2.09c.345-2.052 1.726-3.753 3.593-4.535z"/></svg>