<svg id="Layer_1" viewBox="0 0 24 24" xmlns="http://www.w3.org/2000/svg" data-name="Layer 1"><path d="m24 18h-21c-1.654 0-3 1.346-3 3s1.346 3 3 3h21s-1-1.5-1-3 1-3 1-3zm-13.083-17.886c-1.908.4-3.437 1.958-3.816 3.87-.411 2.074.469 3.955 1.968 5.042.26.189.431.474.431.796v2.178h5v-2.177c0-.321.172-.608.432-.796 1.249-.906 2.068-2.364 2.068-4.025 0-3.117-2.849-5.567-6.083-4.888zm2.083 5.609v3.277h-2v-3.277c-.595-.346-1-.984-1-1.723h4c0 .738-.405 1.376-1 1.723zm10 7.277c0 1.5 1 3 1 3h-21c-1.654 0-3-1.346-3-3s1.346-3 3-3h4.5v4h9v-4h7.5s-1 1.5-1 3z"/></svg>