<svg id="Layer_1" viewBox="0 0 24 24" xmlns="http://www.w3.org/2000/svg" data-name="Layer 1"><path d="m13.354 10-.866-.787 1.813-1.646c1.017-.923 2.668-.721 3.407.533.343.583.36 1.282.123 1.899h-4.477zm5.553-3.626c.963.963 1.277 2.339 1.015 3.626h2.076l-.004-7.5c.001-1.381-1.119-2.5-2.499-2.5s-2.5 1.119-2.5 2.5l.005 2.695c.695.246 1.218.49 1.907 1.179zm-5.907 7.334c0-.846-.357-1.652-.983-2.221l-4.317-3.92c-1.017-.923-2.668-.721-3.407.533-.48.815-.331 1.858.272 2.586l3.243 3.275-1.404 1.404-3.437-3.472c-.896-1.081-1.148-2.507-.799-3.797 0 0 .441-1.234.93-1.722.689-.689 1.212-.933 1.907-1.179l-.005-2.695c0-1.381-1.119-2.5-2.5-2.5s-2.5 1.119-2.5 2.5l.005 10.39c0 .998.373 1.961 1.047 2.698l2.203 2.412h7.249c.513-1.441 1.385-2.788 2.495-3.836v-.456zm11 7.014c0-2.605-2.055-5.702-4.688-6.514.604-.544 1.188-1.302 1.188-2.208h-5c0 .906.585 1.665 1.188 2.208-2.633.812-4.688 3.908-4.688 6.514 0 1.807 1.53 3.277 3.409 3.277h1.875v-1h-.201c-1.106 0-2.017-.852-2.11-1.934h1.492c.079.266.327.461.618.461h1.958c.291 0 .529-.237.529-.529 0-.251-.179-.469-.425-.519l-2.571-.515c-.933-.187-1.609-1.012-1.609-1.963 0-1.104.898-2.002 2.001-2.002h.318v-1h1.44v1h.201c1.106 0 2.017.852 2.11 1.934h-1.492c-.079-.266-.327-.461-.618-.461h-1.959c-.291 0-.528.237-.528.528 0 .251.179.469.425.518l2.572.515c.933.186 1.609 1.012 1.609 1.963 0 1.104-.898 2.002-2.002 2.002h-.317v1h1.867c1.88 0 3.409-1.471 3.409-3.278zm-13.95-.722h-7.05v2h7.167c-.105-.41-.167-.836-.167-1.276 0-.241.027-.482.05-.724z"/></svg>