<svg id="Layer_1" viewBox="0 0 24 24" xmlns="http://www.w3.org/2000/svg" data-name="Layer 1"><path d="m18 12c-3.314 0-6 2.686-6 6s2.686 6 6 6 6-2.686 6-6-2.686-6-6-6zm-1.5 10c-.828 0-1.5-.672-1.5-1.5s.672-1.5 1.5-1.5 1.5.672 1.5 1.5-.672 1.5-1.5 1.5zm.5-4c-1.105 0-2-.895-2-2s.895-2 2-2 2 .895 2 2-.895 2-2 2zm4 2c-.828 0-1.5-.672-1.5-1.5s.672-1.5 1.5-1.5 1.5.672 1.5 1.5-.672 1.5-1.5 1.5zm-8-16h-2v-4h2zm0 6.396v-6.396h3.818c2.342 0 4.345 1.594 4.872 3.875l.811 3.517c-1.284-.877-2.833-1.392-4.502-1.392-1.805 0-3.467.608-4.807 1.621-.125-.389-.193-.8-.193-1.225zm-2.661 9.898c-.7 1.366-1.914 2.445-3.442 2.954-.781.237-2.075.795-2.896.752-2.14.038-4.052-1.848-4.002-4.002 0-1.402.16-2.805.475-4.169l1.835-7.952c.527-2.282 2.53-3.876 4.872-3.876h3.818v6.396c0 1.725-1.1 3.25-2.735 3.795l-2.581.86.633 1.897 2.581-.86c.591-.197 1.124-.49 1.603-.846-.318.861-.5 1.788-.5 2.758 0 .798.121 1.567.339 2.294z"/></svg>