<svg id="Layer_1" viewBox="0 0 24 24" xmlns="http://www.w3.org/2000/svg" data-name="Layer 1"><path d="m9 9.064c.385.344 1 1.491 1 2.436 0 .626-.374 1-1 1s-1-.374-1-1c0-.945.615-2.091 1-2.436zm-3.477-7.319-1.067-1.689c-1.73 1.012-3.237 2.363-4.439 3.955l1.663 1.109c1.045-1.361 2.35-2.513 3.843-3.375zm16.797 3.375 1.663-1.109c-1.202-1.593-2.709-2.943-4.439-3.955l-1.067 1.689c1.493.863 2.798 2.014 3.843 3.375zm.68 7.88c0 2.88-1.121 5.496-2.938 7.459l1.928 2.118-1.479 1.346-1.935-2.126c-1.837 1.377-4.109 2.203-6.576 2.203s-4.739-.826-6.576-2.203l-1.935 2.126-1.479-1.346 1.928-2.118c-1.817-1.963-2.938-4.579-2.938-7.459 0-5.728 4.402-10.442 10-10.949v-2.051h2v2.051c5.598.508 10 5.221 10 10.949zm-11-1.5c0-1.777-1.344-4.5-3-4.5s-3 2.723-3 4.5c0 1.38.802 2.448 2 2.834v4.666h2v-4.666c1.198-.386 2-1.454 2-2.834zm4 3.317c1.066-1.177 1.528-2.377 1.498-3.419-.104-2.137-1.464-3.652-2.28-4.238-.468-.345-1.218-.159-1.218.841v11h2v-4.183z"/></svg>