<svg id="Layer_1" viewBox="0 0 24 24" xmlns="http://www.w3.org/2000/svg" data-name="Layer 1"><path d="m15.266 11.656c-.496.663-1.436.799-2.1.303l-3.203-2.396c-.663-.496-.799-1.436-.303-2.1s1.436-.799 2.1-.303l3.203 2.396c.663.496.799 1.436.303 2.1zm-2.698 1.104-3.203-2.396c-.663-.496-1.603-.361-2.1.303s-.361 1.603.303 2.1l3.203 2.396c.663.496 1.603.361 2.1-.303s.361-1.603-.303-2.1zm4.791-6.407-3.203-2.396c-.663-.496-1.603-.361-2.1.303s-.361 1.603.303 2.1l3.203 2.396c.663.496 1.603.361 2.1-.303s.361-1.603-.303-2.1zm6.641 7.087v-10.44c0-1.215-1.083-2.176-2.336-1.973-.983.16-1.664 1.083-1.664 2.08v4.434c.004.757-.275 1.492-.736 2.109-.445.595-1.05.986-1.707 1.203-.018.718-.249 1.413-.688 2-.436.582-1.03.999-1.707 1.222-.022.712-.254 1.4-.69 1.982-.006.008-.013.017-.019.025-.913 1.199-2.681 1.333-3.882.423l-8.173-6.194c-.663-.496-1.603-.361-2.1.303-.496.663-.361 1.603.303 2.1l15.296 11.287 8.103-10.56z"/></svg>