<svg id="Layer_1" viewBox="0 0 24 24" xmlns="http://www.w3.org/2000/svg" data-name="Layer 1"><path d="m11 13h2v2h-2zm0-1h2v-3h-2zm11-5h-3.523l1.006 4h4.517v2h-4.014l.157.623c.085.421.102.828.106 1.205 0 .756-.109 1.482-.295 2.172h2.046c1.103 0 2 .897 2 2v5h-2v-5h-2.886c-1.42 2.408-4.043 3.997-7.113 4-3.074-.003-5.699-1.594-7.119-4h-2.882v5h-2v-5c0-1.103.897-2 2-2h2.042c-.185-.686-.292-1.406-.293-2.157.005-.37.019-.784.107-1.222l.157-.622h-4.013v-2h4.518l1.009-4h-3.526c-1.103 0-2-.897-2-2v-4.999h2v5h4.08c.992-2.396 3.329-3.997 5.918-4 2.591.004 4.928 1.605 5.919 4h4.081v-5h2v5c0 1.103-.897 2-2 2zm-4 9-6-10.286-6 10.286z"/></svg>