<svg id="Layer_1" viewBox="0 0 24 24" xmlns="http://www.w3.org/2000/svg" data-name="Layer 1"><path d="m18 10h-2v-9h4.277c.346-.595.984-1 1.723-1 1.105 0 2 .895 2 2s-.895 2-2 2c-.738 0-1.376-.405-1.723-1h-2.277zm-7-6.277v6.277h2v-6.277c.595-.346 1-.984 1-1.723 0-1.105-.895-2-2-2s-2 .895-2 2c0 .738.405 1.376 1 1.723zm-9 .277c.738 0 1.376-.405 1.723-1h2.277v7h2v-9h-4.277c-.346-.595-.984-1-1.723-1-1.105 0-2 .895-2 2s.895 2 2 2zm22 16v-14.555c-.59.344-1.268.555-2 .555-.737 0-1.411-.221-2-.571v6.571h-16v-6.55c-.588.346-1.268.55-2 .55s-1.41-.211-2-.555v14.555h11v2h-5v2h12v-2h-5v-2z"/></svg>