<svg id="Layer_1" viewBox="0 0 24 24" xmlns="http://www.w3.org/2000/svg" data-name="Layer 1"><path d="m24 13.5v3.911c0 4.031-3.763 5.858-4.917 6.322l-.627.252-.604-.302c-1.138-.569-4.853-2.704-4.853-6.272v-3.911c0-.863.551-1.625 1.371-1.896l4.129-1.369 4.13 1.37c.819.271 1.37 1.032 1.37 1.896zm-11.333 8.755s1.143 1.062 1.684 1.511c-.761.152-1.546.234-2.351.234-6.523.076-12.096-5.464-12-12 0-6.617 5.383-12 12-12 5.912 0 10.828 4.302 11.81 9.938-.365-.208-1.866-.788-2.28-.937.004.013.008.025 0 0h-13.558c-.292.953-.472 1.961-.472 3s.179 2.048.47 3h3.03v2h-2.227c1.27 2.501 2.646 4.036 3.894 5.255zm1.932-19.907c.942 1.169 2.034 2.769 2.826 4.652h3.226c-1.309-2.258-3.475-3.957-6.051-4.652zm-5.821 4.652h6.453c-1.023-2.086-2.415-3.725-3.229-4.587-.812.862-2.199 2.504-3.224 4.587zm-5.425 0h3.225c.787-1.875 1.87-3.475 2.811-4.642-2.57.697-4.728 2.389-6.036 4.642zm-.894 8h3.444c-.246-.956-.403-1.958-.403-3s.157-2.044.403-3h-3.442c-.299.948-.461 1.955-.461 3s.163 2.048.459 3zm6.923 6.634c-.939-1.166-2.019-2.763-2.804-4.634h-3.243c1.221 2.122 3.206 3.773 5.675 4.545.122.038.248.055.371.089z"/></svg>