<svg id="Layer_1" viewBox="0 0 24 24" xmlns="http://www.w3.org/2000/svg" data-name="Layer 1"><path d="m24 4.023c-.002 2.205-1.5 3.977-4.154 3.977-2.154 0-3.846-1.57-3.846-3.5 0-.539.133-1.044.351-1.5h-2.138c-.136.478-.213.979-.213 1.5 0 1.328.474 2.548 1.261 3.5h-6.521c.787-.952 1.261-2.172 1.261-3.5 0-.521-.077-1.022-.213-1.5h-2.138c.219.456.351.961.351 1.5 0 1.93-1.692 3.5-3.846 3.5-2.655 0-4.153-1.772-4.155-3.977 0-2.219 1.804-4.023 4.023-4.023h15.955c2.218 0 4.023 1.804 4.023 4.023zm-2 17.977v2h-20v-2h2v-12h16v12zm-13-9h-2v9h2zm4 0h-2v9h2zm4 0h-2v9h2z"/></svg>