<?xml version="1.0" encoding="UTF-8"?>
<svg xmlns="http://www.w3.org/2000/svg" id="Layer_1" data-name="Layer 1" viewBox="0 0 24 24">
  <path d="M24,12.06s-.597,4.644-4.143,7.508c-1.132,.914-2.295,1.47-3.357,1.807,0,0,1-3.375,4.066-6.941-3.103,1.718-5.314,4.825-6.277,7.412-.276,.704-.476,1.452-.648,2.155h-2.141c.203-.892,.46-1.864,.831-2.805,.166-1.36,.992-4.675,3.755-6.906,3.546-2.864,7.914-2.23,7.914-2.23ZM0,22.5c0,.828,.672,1.5,1.5,1.5s1.5-.672,1.5-1.5v-3.5H0v3.5ZM20.5,0H11.24c.48,.716,.76,1.576,.76,2.5v2.5h12v-1.5c0-1.93-1.57-3.5-3.5-3.5ZM10,7V2.5C10,1.034,8.739-.137,7.242,.013c-1.301,.13-2.242,1.322-2.242,2.63V22.5c0,.536-.122,1.045-.338,1.5h4.787c.232-1.017,.444-1.988,.933-3.31,.125-.809,.526-2.71,1.675-4.69h-4.057v-2h5.506c.393-.44,.828-.867,1.323-1.267h0c.338-.273,.682-.512,1.028-.733h-7.858v-2h9v1.354c1.031-.508,2.056-.835,3-1.036v-3.318H10Z"/>
</svg>
