<svg id="Layer_1" viewBox="0 0 24 24" xmlns="http://www.w3.org/2000/svg" data-name="Layer 1"><path d="m18 12c-3.314 0-6 2.686-6 6s2.686 6 6 6 6-2.686 6-6-2.686-6-6-6zm.619 8.414c-.378.378-.88.586-1.414.586h-.002c-.534 0-1.036-.209-1.413-.587l-2.012-2.012 1.414-1.414 2.013 2.013 3.615-3.615 1.414 1.414zm-10.619-2.451v-4.463l-8 2.852v-3.352c0-1.099.599-2.107 1.563-2.634l6.437-3.928v-3.438c0-1.657 1.343-3 3-3v.027c1.657 0 3 1.343 3 3v3.438l6.389 3.899c-.755-.237-1.557-.365-2.389-.365-4.411 0-8 3.589-8 8 0 1.36.342 2.641.943 3.764-2.146.798-5.179 1.927-5.943 2.209v-2.413c0-1.005.504-1.944 1.342-2.499l1.658-1.098z"/></svg>