<svg id="Layer_1" viewBox="0 0 24 24" xmlns="http://www.w3.org/2000/svg" data-name="Layer 1"><path d="m17 .586v4.414h4.414zm-4.771 14.414.008 2.015c0 .395-.342.726-.75.733-.402-.007-.725-.333-.724-.736 0-.138-.008-1.929-.008-2.024 0-.403.322-.729.724-.736.408.007.75.339.75.733zm2.771-8v-7h-10c-1.657 0-3 1.343-3 3v21h20v-17zm-6.278 11.994-2.722.006-.006-6h1.255c.001 1.289.003 3.273.005 4.744 1.021-.002.33-.004 1.468-.005zm4.765-1.979c0 1.094-.902 1.985-2.012 1.985-1.086 0-1.967-.881-1.967-1.967l-.008-2.066c0-1.086.881-1.967 1.967-1.967 1.109 0 2.012.891 2.012 1.985v.015l.008 2zm5 0c0 1.094-.902 1.985-2.012 1.985-1.086 0-1.967-.881-1.967-1.967l-.008-2.066c0-1.086.881-1.967 1.967-1.967 1.109 0 2.012.891 2.012 1.985v.015h-1.25v-.015c0-.394-.342-.726-.75-.733-.402.007-.725.333-.724.736 0 .095.008 1.886.008 2.024 0 .403.322.729.724.736.32-.005.593-.212.698-.491-.22.001-.086.003-.718.004v-1.255l.766-.002v-.004h1.25l.004 1z"/></svg>