<svg id="Layer_1" viewBox="0 0 24 24" xmlns="http://www.w3.org/2000/svg" data-name="Layer 1"><path d="m23 8h-9v-2h7v-2.277c-.595-.346-1-.984-1-1.723 0-1.105.895-2 2-2s2 .895 2 2c0 .738-.405 1.376-1 1.723zm0 12.277v-4.277h-9v2h7v2.277c-.595.346-1 .984-1 1.723 0 1.105.895 2 2 2s2-.895 2-2c0-.738-.405-1.376-1-1.723zm-1-10.277c-.738 0-1.376.405-1.723 1h-6.277v2h6.277c.346.595.984 1 1.723 1 1.105 0 2-.895 2-2s-.895-2-2-2zm-12 2c0 1.103.897 2 2 2v-4c-1.103 0-2 .897-2 2zm-1-8.478c-1.047.37-2.016.929-2.857 1.649l-3.05-1.754-2.991 5.203 3.052 1.755c-.102.544-.153 1.088-.153 1.625s.051 1.082.153 1.625l-3.052 1.755 2.991 5.202 3.05-1.754c.841.721 1.81 1.28 2.857 1.649v3.522h3v-8c-2.206 0-4-1.794-4-4s1.794-4 4-4v-7.999h-3z"/></svg>