<svg id="Layer_1" viewBox="0 0 24 24" xmlns="http://www.w3.org/2000/svg" data-name="Layer 1"><path d="m9.695 16.168c-.224-.112-.461-.168-.695-.168-.86.003-1.523.726-1.686 1.581l-1.321 6.418h1.533l.299-1.4h2.302l.285 1.4h1.58l-1.296-6.373c-.131-.668-.506-1.213-1.001-1.459zm-1.527 4.832.664-3.104c.029-.149.102-.253.171-.296l.016.006c.023.016.117.118.162.349l.621 3.044h-1.634zm15.832-2.5c0-1.381-1.119-2.5-2.5-2.5h-2.5v8h1.6v-3h.784l.872 3h1.744l-1.054-3.462c.023-.017.024-.016.042-.029-.019.012-.031.021-.055.035.644-.452 1.067-1.198 1.067-2.044zm-2.5.9h-.9v-1.8h.9c.496 0 .9.404.9.9s-.404.9-.9.9zm-6-3.4h-2.5v8h1.6v-3h.922c1.366 0 2.477-1.108 2.478-2.474v-.026c0-1.381-1.119-2.5-2.5-2.5zm0 3.4h-.9v-1.8h.9c.496 0 .9.404.9.9s-.404.9-.9.9zm8.5-14.4v3h-24v-3c0-1.657 1.343-3 3-3h3v-2h2v2h8v-2h2v2h3c1.657 0 3 1.343 3 3zm-24 5h24v4.974c-.572-.456-1.5-.974-2.5-.974h-12.606c-1.655 0-3.084 1.16-3.425 2.78l-1.518 7.22h-3.951z"/></svg>