<svg id="Layer_1" viewBox="0 0 24 24" xmlns="http://www.w3.org/2000/svg" data-name="Layer 1"><path d="m21 0h-18c-1.654 0-3 1.346-3 3v4h24v-4c0-1.654-1.346-3-3-3zm-17.5 5c-.828 0-1.5-.672-1.5-1.5s.672-1.5 1.5-1.5 1.5.672 1.5 1.5-.672 1.5-1.5 1.5zm4 0c-.828 0-1.5-.672-1.5-1.5s.672-1.5 1.5-1.5 1.5.672 1.5 1.5-.672 1.5-1.5 1.5zm16.5 11c0 1.474-.81 2.75-2 3.444v4.556l-2-2-2 2v-4.556c-1.19-.694-2-1.97-2-3.444 0-2.206 1.794-4 4-4s4 1.794 4 4zm-24 6h16v-1.54c-1.224-1.099-2-2.688-2-4.46 0-3.309 2.691-6 6-6 1.538 0 2.937.586 4 1.54v-2.54h-24zm7-10.5c1.105 0 2 .895 2 2s-.895 2-2 2-2-.895-2-2 .895-2 2-2zm-4 7.497c0-1.378 1.122-2.5 2.5-2.5h3c1.378 0 2.5 1.122 2.5 2.5v.5h-2v-.5c0-.276-.224-.5-.5-.5h-3c-.276 0-.5.224-.5.5v.5h-2z"/></svg>