<svg id="Layer_1" viewBox="0 0 24 24" xmlns="http://www.w3.org/2000/svg" data-name="Layer 1"><path d="m21.983 1.402c-.941-.949-2.432-1.459-4.188-1.397l1.591 1.604-1.42 1.42-2.954-2.953-1.417 1.417 2.953 2.954-1.428 1.428-4.096-4.098-1.417 1.417 4.097 4.097-1.396 1.396-4.097-4.097-1.417 1.417 4.097 4.097-1.441 1.441-2.953-2.954-1.417 1.417 2.953 2.954-1.325 1.325-1.687-1.702c-.134 1.55.371 2.903 1.106 3.871l-6.127 6.127 1.417 1.417 6.183-6.183c1.179.788 2.599 1.2 4.162 1.2 3.137-.036 6.04-1.455 8.446-3.847 4.253-4.29 5.049-10.466 1.776-13.768zm-9.042 15.518c-.301.047-.591.058-.88.07l-2.386-2.386 1.417-1.417 3.357 3.357c-.5.17-1.004.297-1.508.375zm3.472-1.295-3.908-3.907 1.417-1.417 4.141 4.14c-.525.451-1.079.844-1.65 1.183zm3.045-2.58-4.14-4.14 1.417-1.417 3.9 3.9c-.336.568-.725 1.125-1.177 1.656zm-1.267-6.957 1.417-1.417 2.42 2.42c-.044.765-.203 1.559-.479 2.354l-3.358-3.358z"/></svg>