<svg id="Layer_1" viewBox="0 0 24 24" xmlns="http://www.w3.org/2000/svg" data-name="Layer 1"><path d="m18.6 14v-4c0-.221.179-.4.4-.4s.4.179.4.4v4c0 .221-.179.4-.4.4s-.4-.179-.4-.4zm-9.6-4.4c-.221 0-.4.179-.4.4v4c0 .221.179.4.4.4s.4-.179.4-.4v-4c0-.221-.179-.4-.4-.4zm15-6.6h-5.695c2.835 1.992 4.695 5.28 4.695 9s-1.861 7.008-4.695 9h5.695v2h-8.141c.083-.321.141-.653.141-1 0-2.209-1.791-4-4-4s-4 1.791-4 4c0 .347.058.679.141 1h-8.141v-2h5.695c-2.835-1.992-4.695-5.28-4.695-9s1.861-7.008 4.695-9h-5.695v-2h8.141c-.083.321-.141.653-.141 1 0 2.209 1.791 4 4 4s4-1.791 4-4c0-.347-.058-.679-.141-1h8.141zm-17.5 11.4h-1.4v-6.4h-1.6v8h3zm4.5-4.4c0-1.103-.897-2-2-2s-2 .897-2 2v4c0 1.103.897 2 2 2s2-.897 2-2zm5-.038c0-1.103-.897-2-2-2s-2 .897-2 2v4c0 1.103.897 2 2 2s2-.897 2-2v-2h-2v1.5h.4v.5c0 .221-.179.4-.4.4s-.4-.179-.4-.4v-4c0-.221.179-.4.4-.4s.4.179.4.4v.5h1.6zm1 .038v4c0 1.103.897 2 2 2s2-.897 2-2v-4c0-1.103-.897-2-2-2s-2 .897-2 2zm-5-6c1.105 0 2-.895 2-2s-.895-2-2-2-2 .895-2 2 .895 2 2 2zm0 20c1.105 0 2-.895 2-2s-.895-2-2-2-2 .895-2 2 .895 2 2 2z"/></svg>