<svg id="Layer_1" viewBox="0 0 24 24" xmlns="http://www.w3.org/2000/svg" data-name="Layer 1"><path d="m17.5 11c-1.669 1.927-1.342 6-2.5 6-.555 0-1.171-2.246-1.171-2.246-.912.941-1.829 2.165-1.829 3.746 0 3.038 2.462 5.5 5.5 5.5s5.5-2.462 5.5-5.5c0-3.185-3.763-5.763-5.5-7.5zm1.414 10.414c-.781.781-2.048.781-2.829 0-.781-.782-.781-2.048 0-2.829l1.415-1.415 1.415 1.415c.781.782.781 2.048 0 2.829zm-17.246-6.1 1.332-1.373v10.066c-1.766-.822-3-2.601-3-4.674 0-1.51.839-3.166 1.668-4.02zm9.219-11.071-5.969 4.671c-1.22.954-1.919 2.389-1.919 3.938v.337c-1.79-1.039-3-2.973-3-5.188.001-2.83 2.194-4.843 3.796-6.314.566-.505 1.22-1.168 1.743-1.692.896 1.141 1.677 2.785 1.879 3.851.11-.268.226-.665.284-1.013l.339-1.978 1.376 1.46c.51.542 1.03 1.209 1.471 1.928zm13.089 4.589s-6.402-5.008-6.405-5.011c.43-.964 1.512-2.116 2.438-2.874.445.741.933 1.544 1.471 2.276 1.061 1.5 2.427 3.462 2.497 5.609zm-11.558 15.169h-7.418v-11.15c0-.929.42-1.79 1.151-2.362l6.5-5.087c1.088-.852 2.609-.852 3.697 0l6.5 5.087c.731.572 1.151 1.434 1.151 2.362v2.193c-1.005-1.707-2.585-3.079-3.869-4.193-.455-.395-2.736-2.617-2.736-2.617l-5.001 5.129c-1.027 1.06-2.394 2.746-2.394 5.138 0 2.174.935 4.129 2.418 5.5z"/></svg>