<svg id="Layer_1" viewBox="0 0 24 24" xmlns="http://www.w3.org/2000/svg" data-name="Layer 1"><path d="m8.901 13.144 1.955 1.955c-1.541 1.168-3.015 2.127-3.831 2.637l-.762-.761c.51-.816 1.469-2.29 2.637-3.831zm3.383 3.383c-3.245 2.432-4.407 3.022-5.569 3.727l-2.969-2.969c.702-1.156 1.3-2.331 3.727-5.57l-2.445-2.445c-2.06 2.558-3.667 5.309-5.052 8.447l6.308 6.286c3.137-1.371 5.881-2.966 8.446-5.031l-2.445-2.445zm11.686 4.225c-.109.678-.516 1.386-1.177 2.045-.91.909-1.713 1.196-2.363 1.196-.844 0-1.432-.483-1.666-.718-.974-.974-2.729-4.036-2.741-5.838l-9.481-9.481c-1.819-.028-4.849-1.754-5.815-2.721-.582-.584-.817-1.252-.698-1.987.109-.678.516-1.386 1.177-2.045 1.411-1.412 2.954-1.551 4.029-.478.88.88 2.4 3.468 2.694 5.289.18-.185.345-.366.532-.553 4.249-4.25 9.991-5.225 12.263-5.446.902-.088 1.767.227 2.401.862.635.635.948 1.509.86 2.4-.222 2.271-1.198 8.014-5.446 12.263-.19.19-.374.358-.562.54 1.579.273 4.157 1.548 5.296 2.686.582.583.816 1.251.697 1.986zm-6.971-9.887c.015-1.019-.381-1.986-1.115-2.724-.732-.736-1.717-1.133-2.76-1.141-1.115.004-2.236.561-3.162 1.549l1.414 1.414c.534-.588 1.204-.971 1.769-.964.441.006.966.196 1.321.552.351.352.539.808.532 1.282.004.574-.382 1.262-.964 1.787l1.414 1.414c.973-.91 1.539-2.058 1.55-3.171z"/></svg>