<?xml version="1.0" encoding="UTF-8"?>
<svg xmlns="http://www.w3.org/2000/svg" id="Layer_1" data-name="Layer 1" viewBox="0 0 24 24">
  <path d="M16.964,7.004l-1.449,2.996h-7.029l-1.449-2.996L11,0V5.999h2s0-5.999,0-5.999l3.964,7.004Zm7.036,7.495c0,1.852-1.446,3.372-3.268,3.492-1.406,3.063-4.866,6.009-8.732,6.009s-7.327-2.945-8.732-6.009c-1.822-.12-3.268-1.641-3.268-3.492,0-1.697,1.068-2.676,2-3.138v-3.362h3.297l1.935,4.001h9.537l1.935-4.001h3.296v3.362c.933,.462,2,1.44,2,3.138Zm-14,1.001c0-.828-.672-1.5-1.5-1.5s-1.5,.672-1.5,1.5,.672,1.5,1.5,1.5,1.5-.672,1.5-1.5Zm7,0c0-.828-.672-1.5-1.5-1.5s-1.5,.672-1.5,1.5,.672,1.5,1.5,1.5,1.5-.672,1.5-1.5Z"/>
</svg>
