<svg id="Layer_1" viewBox="0 0 24 24" xmlns="http://www.w3.org/2000/svg" data-name="Layer 1"><path d="m24 18v-2h-4v-13c0-1.654-1.346-3-3-3h-10c-1.654 0-3 1.346-3 3v13h-4v2h6v3h-2.277c-.346-.595-.984-1-1.723-1-1.105 0-2 .895-2 2s.895 2 2 2c.738 0 1.376-.405 1.723-1h4.277v-5h3v2.277c-.595.346-1 .984-1 1.723 0 1.105.895 2 2 2s2-.895 2-2c0-.738-.405-1.376-1-1.723v-2.277h3v5h4.277c.346.595.984 1 1.723 1 1.105 0 2-.895 2-2s-.895-2-2-2c-.738 0-1.376.405-1.723 1h-2.277v-3zm-13-4h-3v-2h3zm0-4h-3v-2h3zm0-4h-3v-2h3zm5 8h-3v-2h3zm0-4h-3v-2h3zm0-4h-3v-2h3z"/></svg>