<svg id="Layer_1" viewBox="0 0 24 24" xmlns="http://www.w3.org/2000/svg" data-name="Layer 1"><path d="m20.1 8v8h-1.6v-8zm-7.6 2.5c.027 1.564-1.389 2.671-2.9 2.5v3h-1.6v-8h2c1.381 0 2.5 1.119 2.5 2.5zm-1.6 0c0-.496-.404-.9-.9-.9h-.4v1.8h.4c.496 0 .9-.404.9-.9zm6.805 0c.027 1.564-1.389 2.671-2.9 2.5v3h-1.6v-8h2c1.381 0 2.5 1.119 2.5 2.5zm-1.6 0c0-.496-.404-.9-.9-.9h-.4v1.8h.4c.496 0 .9-.404.9-.9zm-13.205-2.5v3.4h-1.3v-3.4h-1.6v8h1.6v-3h1.301v3h1.6v-8h-1.6zm19.699 1.6h1.4v-1.6h-3v8h3v-1.6h-1.4v-1.551h1.4v-1.6h-1.4v-1.65zm-17.1-1.6v8h1.6v-8z"/></svg>