<svg id="Layer_1" viewBox="0 0 24 24" xmlns="http://www.w3.org/2000/svg" data-name="Layer 1"><path d="m20.048 22h3.952v2h-24v-2h3.949c-.217-3.033-1.249-6.299-3.949-9 2.966 1.055 5.236 4.277 5.698 7.391.082.548.146 1.083.202 1.609h2.55c-.234-2.696-1.375-5.479-2.95-8 2.121.757 3.833 3.123 4.61 5.507.841-2.412 2.641-4.705 4.89-5.507-1.803 2.704-2.785 5.009-2.963 8h2.057c.016-.167.026-.319.046-.492.342-3.03 2.488-6.483 5.361-7.508-1.805 2.438-2.791 4.96-3.335 8h1.934c.057-.526.121-1.061.202-1.609.463-3.114 2.733-6.335 5.698-7.391-2.285 2.742-3.72 5.494-3.952 9zm-16.798-10.926c-.158-.667-.25-1.359-.25-2.074 0-4.971 4.029-9 9-9s9 4.029 9 9c0 .857-.127 1.682-.351 2.467-4.026-.026-7.649.533-10.507 3.809-1.557-2.428-4.357-3.386-6.893-4.202zm11.75-3.074c0 .552.448 1 1 1s1-.448 1-1-.448-1-1-1-1 .448-1 1zm-2-3c0 .552.448 1 1 1s1-.448 1-1-.448-1-1-1-1 .448-1 1zm-2 3c0 .552.448 1 1 1s1-.448 1-1-.448-1-1-1-1 .448-1 1z"/></svg>