<svg id="Layer_1" viewBox="0 0 24 24" xmlns="http://www.w3.org/2000/svg" data-name="Layer 1"><path d="m22 0-7 .002c-1.1 0-2 .901-1.999 2.001l.002 8.772c0 .638.524 1.088 1.089 1.088.196 0 .397-.054.583-.173l2.454-1.69h6.872v-8c0-1.105-.896-2-2-2zm-.001 4.52-1.923 1.114.774 2.351-.442.305-1.902-1.471-1.911 1.477-.421-.317.76-2.378-1.936-1.078v-.523h2.537l.686-2.641h.567l.686 2.641h2.523v.52zm2.001 7.48v12h-24v-16.929l8.464 8.465c.945.944 2.201 1.464 3.536 1.464s2.591-.52 3.536-1.464l3.536-3.536h4.929zm-14.122 2.122-9.517-9.519c.504-.949 1.492-1.603 2.639-1.603h8l.002 7.776c.001 1.701 1.387 3.086 3.089 3.086.105 0 .208-.012.312-.023l-.282.282c-1.134 1.134-3.109 1.133-4.243 0z"/></svg>