<svg id="Layer_1" viewBox="0 0 24 24" xmlns="http://www.w3.org/2000/svg" data-name="Layer 1"><path d="m23.954 9.983c-.257-2.846-1.633-5.409-3.682-7.225l-2.984 3.066-.004.004c-.744.744-2.058.746-2.823-.019l-1.94-2.026 1.387-1.441 1.974 2.059 2.76-2.835c-1.233-.744-2.617-1.257-4.095-1.46-4.042-.555-7.91 1.058-10.324 4.283-1.437 1.738-2.97 5.59-4.223 8.399v2.212h2.33l.449 3.394c.197 1.486 1.476 2.606 2.974 2.606h2.247v3h13v-4.709c0-.46.162-.909.457-1.263 1.875-2.252 2.762-5.109 2.497-8.045zm-11.954 5.017h-2v-2h2zm.397-3.346c-.397.209-.397.285-.397.346h-2c0-1.344 1.064-1.904 1.465-2.116.333-.175.62-.587.511-1.112-.072-.346-.355-.648-.689-.736-.425-.111-.736.06-.881.171-.254.196-.405.475-.405.792h-2c0-.932.442-1.803 1.184-2.376s1.695-.763 2.61-.522c1.073.282 1.913 1.17 2.14 2.263.278 1.336-.339 2.658-1.537 3.289zm9.785 1.614-1.414 1.414-1.768-1.768-1.768 1.768-1.414-1.414 1.768-1.768-1.768-1.768 1.414-1.414 1.768 1.768 1.768-1.768 1.414 1.414-1.768 1.768z"/></svg>