<svg id="Layer_1" viewBox="0 0 24 24" xmlns="http://www.w3.org/2000/svg" data-name="Layer 1"><path d="m18 4.5c-.828 0-1.5.672-1.5 1.5s.672 1.5 1.5 1.5 1.5-.672 1.5-1.5-.672-1.5-1.5-1.5zm1 8.5h-2v-4h2zm5-7c0 2.215-1.21 4.149-3 5.188v-2.568c.615-.703 1-1.613 1-2.62 0-2.209-1.791-4-4-4s-4 1.791-4 4c0 1.008.385 1.917 1 2.62v2.568c-1.79-1.039-3-2.973-3-5.188 0-3.309 2.691-6 6-6s6 2.691 6 6zm-7.396 9c-.886 0-1.604-.718-1.604-1.604-.157-.064-.318-.123-.47-.197-.88 1.729-2.543 2.796-4.53 2.8-2.42.004-4.376-1.566-5.002-4 1.876.904 3.439 1.001 5.002 1 1.116 0 2.235-.055 3.465-.412-2.092-1.443-3.465-3.854-3.465-6.588 0-2.328 1-4.417 2.588-5.879-.826-.074-1.694-.12-2.587-.121-5.823.119-8.718 1.288-10.001 1.66v12.367c.175 5.695 8.691 9.344 10 9.974 1.282-.614 8.753-3.811 9.905-9zm-9.605-8.5c.967.001 1.751 1.209 2.001 2.5h-4c.249-1.291 1.031-2.501 1.999-2.5z"/></svg>