<svg id="Layer_1" viewBox="0 0 24 24" xmlns="http://www.w3.org/2000/svg" data-name="Layer 1"><path d="m10 19c0 2.757-2.243 5-5 5s-5-2.243-5-5 2.243-5 5-5 5 2.243 5 5zm9.24-4.976-2.263-3.66c-.153-.247-.003-.364.26-.364h2.763v-2h-2.674c-.166 0-.328.023-.486.056l-3.656-1.678c-1.417-.789-3.231-.288-4.056 1.124l-1.19 2.116c-.446.733-.558 1.624-.305 2.444.245.794.809 1.451 1.555 1.813l1.812 1.169v4.955h2v-6.045l-1.618-1.043 2.307-4.104 1.458.671c-.249.422-.314.979-.066 1.56l2.036 3.335c-1.826.746-3.118 2.535-3.118 4.626 0 2.757 2.243 5 5 5s5-2.243 5-5c0-2.675-2.117-4.848-4.76-4.976zm-5.74-9.024c1.381 0 2.5-1.119 2.5-2.5s-1.119-2.5-2.5-2.5-2.5 1.119-2.5 2.5 1.119 2.5 2.5 2.5z"/></svg>