<svg id="Layer_1" viewBox="0 0 24 24" xmlns="http://www.w3.org/2000/svg" data-name="Layer 1"><path d="m16.5 6c0-.46-.089-.895-.218-1.313l1.416-.816-.998-1.733-1.411.813c-.605-.652-1.393-1.125-2.289-1.33v-1.621h-2v1.621c-.896.205-1.685.678-2.289 1.33l-1.411-.813-.998 1.733 1.416.816c-.129.418-.218.853-.218 1.313s.089.895.218 1.313l-1.416.816.998 1.733 1.411-.813c.605.652 1.393 1.125 2.289 1.33v1.621h2v-1.621c.896-.205 1.685-.678 2.289-1.33l1.411.813.998-1.733-1.416-.816c.129-.418.218-.853.218-1.313zm-3.457 2.457-2.043-2.043v-2.914h2v2.086l1.457 1.457zm5.664 4.643c-.739-1.254-2.39-1.457-3.407-.533l-1.813 1.646.874.794c.918.834 1.465 1.987 1.587 3.212l2.487-2.532c.603-.728.752-1.772.272-2.586zm5.293-6.601v12.39c0 .998-.373 1.961-1.047 2.698l-2.203 2.412h-4.75v-3.019l4.033-4.088c.689-.832 1.005-1.871.956-2.893h.011v-7.499c0-.828.672-1.5 1.5-1.5s1.5.672 1.5 1.5zm-10 12.208v5.292h-10.75l-2.203-2.412c-.673-.737-1.047-1.699-1.047-2.698v-12.389c0-.828.672-1.5 1.5-1.5s1.5.672 1.5 1.5v7.5h.011c-.05 1.022.267 2.061.956 2.893l3.437 3.472 1.404-1.404-3.243-3.275c-.603-.728-.752-1.772-.272-2.586.739-1.254 2.39-1.457 3.407-.533l4.317 3.92c.626.569.983 1.375.983 2.221z"/></svg>