<?xml version="1.0" encoding="UTF-8"?>
<svg xmlns="http://www.w3.org/2000/svg" id="Layer_1" data-name="Layer 1" viewBox="0 0 24 24">
  <path d="M17,8h-2v-3h2v3Zm0-8h-2V3h2V0Zm-2,19h2v-3h-2v3Zm0,5h2v-3h-2v3Zm8.426-13.351l-2.719-2.719-1.414,1.414,1.69,1.656h-3.983v2h4.02l-1.727,1.727,1.414,1.414,2.72-2.719c.763-.764,.763-2.008,0-2.773ZM9.5,5c1.381,0,2.5-1.119,2.5-2.5s-1.119-2.5-2.5-2.5-2.5,1.119-2.5,2.5,1.119,2.5,2.5,2.5Zm.423,4.256l-1.621,6.839,1.698,1.442v6.463h-2v-5.537l-2.924-2.483c-.87-.726-1.254-1.871-.993-2.983l.897-4.256-2.126,.969-.884,3.533L.03,12.757l1.116-4.467,4.31-1.958c.66-.22,1.348-.332,2.044-.332h1.577c.933,0,1.793,.506,2.245,1.322l1.489,3.99,3.185,1.82-.992,1.736-3.815-2.18-1.265-3.432Zm-6.534,7.872l-1.623,6.872h2.252l1.15-5.317-1.388-1.178c-.141-.117-.267-.246-.392-.376Z"/>
</svg>
