<svg id="Layer_1" viewBox="0 0 24 24" xmlns="http://www.w3.org/2000/svg" data-name="Layer 1"><path d="m16 16h5v2h-3.667l-.833 2h4.5v4h-18v-4h4.5l-1-2h-3.5v-2h5l3 6h2zm6-8.566v2.193l-1.221-.276c-.763-.173-1.417-.333-2.009-.478-2.308-.562-3.58-.873-6.77-.873-4.068 0-4.639.083-8.722 1.267l-1.278.37v-2.203l1.805-1.083c.497-.713.887-1.382 1.265-2.029 1.351-2.32 2.518-4.322 6.93-4.322s5.579 2.002 6.931 4.321c.378.647.768 1.316 1.265 2.029l1.805 1.083zm-6-2.934c0-.828-.672-1.5-1.5-1.5s-1.5.672-1.5 1.5.672 1.5 1.5 1.5 1.5-.672 1.5-1.5zm0 11.5v-2.559c.814-.735 1.438-1.676 1.755-2.755-1.906-.459-3.082-.685-5.755-.685-2.913 0-3.854.032-5.796.527.302 1.143.944 2.141 1.796 2.911v2.562s1 1 4 1 4-1 4-1z"/></svg>