<svg id="Layer_1" viewBox="0 0 24 24" xmlns="http://www.w3.org/2000/svg" data-name="Layer 1"><path d="m19 22v2h-18v-2c0-2.206 1.794-4 4-4h10c2.206 0 4 1.794 4 4zm-2-8v2h-15v-4h-2v-4h2v-1c0-1.657 1.343-3 3-3h4v-3h2v10c0 1.657 1.343 3 3 3zm-8-4c0-.828-.672-1.5-1.5-1.5s-1.5.672-1.5 1.5.672 1.5 1.5 1.5 1.5-.672 1.5-1.5zm15-8c0-1.105-.896-2-2-2h-2.7v1.2h.2c1.201 0 2.189.925 2.291 2.1h-1.62c-.086-.289-.355-.5-.671-.5h-2.127c-.316 0-.573.258-.573.574 0 .271.194.508.461.562l2.792.559c1.013.202 1.747 1.098 1.747 2.131 0 1.199-.975 2.174-2.174 2.174h-.326v1.2h4.7zm-4.262 4.063-2.791-.559c-1.013-.202-1.747-1.098-1.747-2.131 0-1.198.975-2.173 2.173-2.173h.327v-1.199h-2.701c-1.1.001-2 .901-1.999 2.001l.002 8.772c0 .638.524 1.088 1.089 1.088.196 0 .397-.054.583-.173l2.454-1.69h.572v-1.2h-.2c-1.201 0-2.189-.925-2.291-2.1h1.62c.086.289.355.5.671.5h2.126c.316 0 .574-.258.574-.574 0-.272-.194-.509-.462-.563z"/></svg>