<?xml version="1.0" encoding="UTF-8"?>
<svg xmlns="http://www.w3.org/2000/svg" id="Layer_1" data-name="Layer 1" viewBox="0 0 24 24">
  <path d="M17.926,11.625c.1,.248,.098,.519,.02,.708l-2.526,5.057c-.199,.5-.821,.749-1.31,.531-.473-.171-.742-.824-.557-1.254l2.526-5.057c.199-.499,.82-.751,1.311-.53,.246,.104,.437,.298,.537,.545ZM24,3V24H0V3C0,1.346,1.346,0,3,0H21c1.654,0,3,1.346,3,3Zm-13,3.5c0,1.381,1.119,2.5,2.5,2.5s2.5-1.119,2.5-2.5-1.119-2.5-2.5-2.5-2.5,1.119-2.5,2.5Zm7.17,2.738c-1.432-.662-3.335,.101-3.907,1.534l-2.315,4.634-2.725-3.406h-1.342L3.882,20h2.236l2.671-5.342,3.276,4.095,.007-.006c.535,.771,1.487,1.264,2.427,1.254,1.143,.021,2.324-.746,2.736-1.774l2.525-5.056c.661-1.471-.094-3.334-1.591-3.933Z"/>
</svg>
