<svg id="Layer_1" viewBox="0 0 24 24" xmlns="http://www.w3.org/2000/svg" data-name="Layer 1"><path d="m2 7h-2v-4c0-1.654 1.346-3 3-3h4v2h-4c-.551 0-1 .448-1 1zm19-7h-4v2h4c.551 0 1 .448 1 1v4h2v-4c0-1.654-1.346-3-3-3zm1 21c0 .552-.449 1-1 1h-4v2h4c1.654 0 3-1.346 3-3v-4h-2zm-20 0v-4h-2v4c0 1.654 1.346 3 3 3h4v-2h-4c-.551 0-1-.448-1-1zm17-3v-3h-3.022c-.913 1.208-2.347 2-3.978 2s-3.065-.792-3.978-2h-3.022v3c0 1.105.895 2 2 2h10c1.105 0 2-.895 2-2zm0-7h5v2h-10.278c-.347.595-.984 1-1.722 1s-1.376-.405-1.722-1h-10.278v-2h5v-5c0-1.103.897-2 2-2h10c1.103 0 2 .897 2 2zm-2.101 0c-.463-2.282-2.48-4-4.899-4s-4.436 1.718-4.899 4h3.177c.347-.595.984-1 1.722-1s1.376.405 1.722 1z"/></svg>