<svg id="Layer_1" viewBox="0 0 24 24" xmlns="http://www.w3.org/2000/svg" data-name="Layer 1"><path d="m14.5 0c-2.813 0-4.732 1.248-6.426 2.35-1.362.886-2.538 1.65-3.968 1.65-.609 0-1.105-.496-1.105-1.105v-2.895h-2.001v2.895c0 1.712 1.393 3.105 3.105 3.105 1.9 0 2.895 1.761 2.895 3.5v4c0 1.596-.502 3.499-2.896 3.5-1.67-.033-3.14 1.438-3.104 3.108l.005 3.893 2-.002-.005-3.893c-.013-.595.512-1.118 1.106-1.106 1.249 0 2.14.804 3.268 1.822 1.568 1.416 3.521 3.178 7.125 3.178 2.25 0 4.363-.793 5.949-2.233 1.646-1.495 2.552-3.543 2.551-5.767v-8c0-4.486-3.734-8-8.5-8zm-.03 5.22c.293-.293.768-.293 1.061 0l2.845 2.78h-2.375v3h-2v-3h-2.375l2.845-2.78zm6.53 9.96c-.914.413-2.124.82-3.346.82-1.216 0-2.158-.274-3.068-.54-.812-.236-1.579-.46-2.508-.46-1.512 0-2.926.573-3.42.796.222-.669.338-1.43.341-2.27.824-.268 1.917-.526 3.079-.526 1.215 0 2.157.274 3.068.54.812.236 1.579.46 2.509.46 1.298 0 2.668-.677 3.346-1.063v2.243z"/></svg>