<svg id="Layer_1" viewBox="0 0 24 24" xmlns="http://www.w3.org/2000/svg" data-name="Layer 1"><path d="m5.5 19c-1.381 0-2.5-1.119-2.5-2.5s1.119-2.5 2.5-2.5 2.5 1.119 2.5 2.5-1.119 2.5-2.5 2.5m2.5-9h2v-2h-2zm0 2v.76c1.205.807 2 2.18 2 3.74v-4.5zm11.707 6.293c-.776-.776-.742-3.782-.717-5.978.005-.447.01-.889.01-1.315-.034-2.487-1.239-5.11-3.564-7.436-4.281-4.28-9.572-4.743-13.165-1.151-2.964 3.1-2.979 7.415-.228 11.238.438-.531.994-.959 1.626-1.248-.1-.12-.205-.25-.318-.403-.402-.632-.734-1.305-.969-2h3.617v-2h-3.984c-.016-.668.079-1.339.315-2h3.67v-3.664c.661-.236 1.331-.336 2-.319v3.983h2v-3.615c.695.235 1.367.57 2 .972v2.643h2.933c.493.617.927 1.292 1.27 2h-4.204v2h4.878c.124.661.148 1.332.045 2h-4.923v4.922c-.653.1-1.378.066-2.027-.05-.061.698-.279 1.348-.62 1.92.552.118 1.103.2 1.647.208.54 0 1.072-.006 1.592-.012 2.419-.032 4.924-.058 5.701.719l4.308 4.308 1.414-1.414-4.308-4.308z"/></svg>