<svg id="Layer_1" viewBox="0 0 24 24" xmlns="http://www.w3.org/2000/svg" data-name="Layer 1"><path d="m21.198 15h-10.784l3-3h9.236c-.375 1.028-.854 2.04-1.451 3zm-7.198-6.414 8.51-8.51c-1.273-.105-4.792-.261-8.51.668zm9.256 1.414c.929-3.717.773-7.236.668-8.509l-8.51 8.509zm-14.256-7.199v10.785l3-3v-9.236c-1.028.375-2.04.854-3 1.451zm-2 1.526c-.117.108-.241.205-.354.318-5.104 5.105-4.747 13.719-4.569 15.864l4.923-4.923zm1.414 12.673-4.923 4.923c.455.037 1.187.083 2.133.083 3.503 0 9.71-.631 13.731-4.651.114-.114.21-.238.318-.354h-11.259zm-6.337 3.509-2.056 2.055 1.414 1.414 2.055-2.055c-.022-.002-1.412-1.392-1.414-1.414z"/></svg>