<svg id="Layer_1" viewBox="0 0 24 24" xmlns="http://www.w3.org/2000/svg" data-name="Layer 1"><path d="m3 8c-.551 0-1-.449-1-1s.449-1 1-1h1v-2h-1c-1.654 0-3 1.346-3 3v14c0 1.654 1.346 3 3 3h21v-16zm15.5 9.5c-.828 0-1.5-.672-1.5-1.5s.672-1.5 1.5-1.5 1.5.672 1.5 1.5-.672 1.5-1.5 1.5zm-12.5-17.5v6h6c0-1.657 1.343-3 3-3s3 1.343 3 3h6v-6zm3 4.5c-.828 0-1.5-.672-1.5-1.5s.672-1.5 1.5-1.5 1.5.672 1.5 1.5-.672 1.5-1.5 1.5zm12 0c-.828 0-1.5-.672-1.5-1.5s.672-1.5 1.5-1.5 1.5.672 1.5 1.5-.672 1.5-1.5 1.5z"/></svg>