<svg id="Layer_1" viewBox="0 0 24 24" xmlns="http://www.w3.org/2000/svg" data-name="Layer 1"><path d="m18 7h2c2.206 0 4 1.794 4 4v2h-6zm-8 8v2c0 3.86 3.141 7 7 7s7-3.14 7-7v-2zm6-2v-6h-2c-2.206 0-4 1.794-4 4v2zm7.366-11.464-1.732-1-2 3.464 1.732 1zm-5.366-1.536h-2v4h2zm-10 20.366-1-1.732-3.464 2 1 1.732zm-1-5.366h-4v2h4zm-1-15c-3.314 0-6 2.686-6 6s2.686 6 6 6c.715 0 1.399-.132 2.035-.361-.022-.21-.035-.423-.035-.639 0-.511.071-1.004.191-1.478-.311.172-.663.278-1.042.278h-.326v1.128c-.261.043-.526.072-.8.072s-.539-.03-.8-.073v-1.127h-.2c-1.201 0-2.189-.925-2.291-2.1h1.62c.086.289.354.5.671.5h2.126c.316 0 .574-.257.574-.574 0-.272-.194-.509-.462-.563l-2.791-.559c-1.013-.203-1.747-1.099-1.747-2.131 0-1.199.975-2.173 2.173-2.173h.327v-1.127c.261-.043.526-.073.8-.073s.539.03.8.072v1.128h.2c1.201 0 2.189.925 2.291 2.1h-1.62c-.086-.289-.354-.5-.671-.5h-2.127c-.316 0-.573.257-.573.574 0 .272.194.509.461.562l2.792.559c.9.18 1.577.908 1.717 1.792.687-.87 1.61-1.542 2.673-1.926-.319-3.013-2.867-5.361-5.965-5.361z"/></svg>