<svg id="Layer_1" viewBox="0 0 24 24" xmlns="http://www.w3.org/2000/svg" data-name="Layer 1"><path d="m6.5 0c-3.59 0-6.5 2.91-6.5 6.5v6.5h6.5c3.59 0 6.5-2.91 6.5-6.5s-2.91-6.5-6.5-6.5zm1 11h-2v-2h2zm.397-3.346c-.397.209-.397.285-.397.346h-2c0-1.344 1.064-1.904 1.465-2.116.333-.175.62-.587.511-1.112-.072-.346-.355-.648-.689-.736-.799-.154-1.239.34-1.287.99h-2c0-.932.442-1.83 1.184-2.402.742-.573 1.695-.763 2.61-.522 1.073.282 1.913 1.17 2.14 2.263.278 1.336-.339 2.658-1.537 3.289zm8.188 8.346h-3.086v-3.086l7.275-7.275c.852-.852 2.234-.852 3.086 0s.852 2.234 0 3.086zm-1.086-9.5c0-.87-.132-1.709-.375-2.5h4.51c-.09.076-.189.14-.274.225l-4.065 4.065c.125-.578.204-1.174.204-1.79zm9 4.414v10.94c0 .793-.435 1.519-1.134 1.894-.318.171-.667.256-1.015.256-.416 0-.831-.121-1.19-.36l-3.964-2.644h-10.696v-6h.5c1.654 0 3.193-.482 4.5-1.302v4.302h5.914l7.086-7.086z"/></svg>