<svg id="Layer_1" viewBox="0 0 24 24" xmlns="http://www.w3.org/2000/svg" data-name="Layer 1"><path d="m1.685 15.314 4.026-12.515c.656-2.096 2.904-3.271 5.007-2.616l1.712.56-.405 1.275.766.246-2.242 7-.748-.24-2.331 7.683c-1.002-1.049-2.41-1.707-3.971-1.707-.636 0-1.244.114-1.813.314zm22.133-1.948-.548-1.7-1.246.41-.244-.762-6.996 2.243.261.815-7.551 2.359c.702.746 1.192 1.681 1.395 2.691.211 1.038.103 2.16-.295 3.137l3.36-1.115 9.242-3.067c2.104-.657 3.281-2.905 2.623-5.012zm-20.32 10.634c1.932 0 3.498-1.567 3.498-3.5s-1.566-3.5-3.498-3.5-3.498 1.567-3.498 3.5 1.566 3.5 3.498 3.5z"/></svg>