<?xml version="1.0" encoding="UTF-8"?>
<svg xmlns="http://www.w3.org/2000/svg" id="Layer_1" data-name="Layer 1" viewBox="0 0 24 24">
  <path d="m24,13v-1C24,5.383,18.617,0,12,0S0,5.383,0,12s5.383,12,12,12c0,0,0,0,0,0,5.579,0,10.267-3.833,11.605-9h-2.066c-1.278,4.052-5.07,7-9.539,7h0c-5.514,0-10-4.486-10-10S6.486,2,12,2c5.177,0,9.447,3.954,9.95,9h-2.02c-.075-.593-.216-1.165-.413-1.711.297-.349.483-.795.483-1.289,0-1.105-.895-2-2-2-.214,0-.417.043-.611.105-1.424-1.303-3.312-2.105-5.389-2.105s-3.966.802-5.389,2.105c-.194-.062-.396-.105-.611-.105-1.105,0-2,.895-2,2,0,.494.186.94.483,1.289-.307.848-.483,1.758-.483,2.711,0,3.776,2.633,6.941,6.157,7.777.303.719,1.014,1.223,1.843,1.223.835,0,1.549-.512,1.848-1.239,2.528-.604,4.6-2.392,5.563-4.761h-2.246c-.783,1.343-2.061,2.362-3.587,2.786-.366-.474-.934-.785-1.579-.785s-1.211.31-1.577.783c-2.545-.695-4.423-3.021-4.423-5.783,0-.716.133-1.4.363-2.037.93-.171,1.637-.983,1.637-1.963,0-.144-.017-.283-.045-.418,1.068-.979,2.486-1.582,4.045-1.582s2.977.603,4.045,1.582c-.029.135-.045.275-.045.418,0,.98.706,1.792,1.637,1.963.121.333.213.679.273,1.037h-2.037c-.444-1.723-2.013-3-3.873-3-2.206,0-4,1.794-4,4s1.794,4,4,4v-2c-1.103,0-2-.897-2-2s.897-2,2-2,2,.897,2,2v1h10Z"/>
</svg>
