<svg id="Layer_1" viewBox="0 0 24 24" xmlns="http://www.w3.org/2000/svg" data-name="Layer 1"><path d="m1 2.5c0-1.381 1.119-2.5 2.5-2.5s2.5 1.119 2.5 2.5-1.119 2.5-2.5 2.5-2.5-1.119-2.5-2.5zm-1 15.859v5.641h2v-4.401l-1.573-.944c-.15-.09-.289-.192-.427-.296zm22.902-4.359c-.673.688-2.514 2.834-2.85 6h3.947v-6h-1.098zm-4.902 7c0-3.689 1.708-6.343 2.883-7.734-5.458-3.218-6.587-8.954-6.821-11.266h2.01c.251 2.196 1.398 7.43 6.675 10h1.252v-9c0-1.654-1.346-3-3-3h-7c-1.654 0-3 1.346-3 3v8h-2.459l-2.604-3.72c-.561-.801-1.479-1.28-2.457-1.28h-.479c-1.654 0-3 1.346-3 3v5.368c0 1.048.558 2.034 1.456 2.572l3.544 2.126v4.934h2v-6.066l-2-1.2v-7.304l2.5 3.57h5.5v2h-2v9h13v-2h-6z"/></svg>