<svg id="Layer_1" viewBox="0 0 24 24" xmlns="http://www.w3.org/2000/svg" data-name="Layer 1"><path d="m15.5 5c0-.257-.032-.506-.084-.747l1.443-.798-.968-1.75-1.445.799c-.4-.392-.897-.675-1.446-.841v-1.663h-2v1.663c-.549.165-1.047.449-1.446.841l-1.445-.799-.968 1.75 1.443.798c-.111.479-.111 1.015 0 1.494l-1.443.799.968 1.75 1.445-.799c.4.392.897.675 1.446.841v1.663h2v-1.663c.549-.165 1.047-.449 1.446-.841l1.445.799.968-1.75-1.443-.798c.053-.241.084-.49.084-.747zm2.67 3.307c-.614 1.143-1.539 2.091-2.659 2.742.163-.016.322-.049.489-.049 2.757 0 5 2.242 5 5s-2.243 5-5 5-5-2.242-5-5c0-1.7.856-3.2 2.156-4.103-.377.063-.761.103-1.156.103-2.67 0-4.989-1.495-6.169-3.693-3.359.949-5.831 4.035-5.831 7.693 0 4.411 3.589 8 8 8h8c4.411 0 8-3.589 8-8 0-3.658-2.472-6.744-5.831-7.693z"/></svg>