<svg id="Layer_1" viewBox="0 0 24 24" xmlns="http://www.w3.org/2000/svg" data-name="Layer 1"><path d="m8 22.5v-2.551c.162.033.329.051.5.051h2c.171 0 .338-.018.5-.051v2.551c0 .276-.224.5-.5.5h-2c-.276 0-.5-.224-.5-.5zm.5-9.5h2c.276 0 .5-.224.5-.5v-2.5h-3v2.5c0 .276.224.5.5.5zm5 10h2c.276 0 .5-.224.5-.5v-2.551c-.162.033-.329.051-.5.051h-2c-.171 0-.338-.018-.5-.051v2.551c0 .276.224.5.5.5zm4.5-13v12.5c0 .565-.195 1.081-.513 1.5h5.513c0-2.762-.787-5.472-1-6.156v-7.844zm-2.5 5h-2c-.171 0-.338-.018-.5-.051v2.551c0 .276.224.5.5.5h2c.276 0 .5-.224.5-.5v-2.551c-.162.033-.329.051-.5.051zm-7 3h2c.276 0 .5-.224.5-.5v-2.551c-.162.033-.329.051-.5.051h-2c-.171 0-.338-.018-.5-.051v2.551c0 .276.224.5.5.5zm-2.5 4.5v-12.5h-4v7.844c-.213.684-1 3.394-1 6.156h5.513c-.317-.419-.513-.935-.513-1.5zm7-12.5v2.5c0 .276.224.5.5.5h2c.276 0 .5-.224.5-.5v-2.5zm-2-10v8h-6.799c-1.088 0-2.086-.58-2.605-1.512-.728-1.307-1.596-3.494-1.596-6.488zm-4 3.5c0-.828-.672-1.5-1.5-1.5s-1.5.672-1.5 1.5.672 1.5 1.5 1.5 1.5-.672 1.5-1.5zm17-3.5c0 2.911-.78 5.057-1.434 6.344-.519 1.021-1.547 1.656-2.684 1.656h-6.882v-8zm-4 3.5c0-.828-.672-1.5-1.5-1.5s-1.5.672-1.5 1.5.672 1.5 1.5 1.5 1.5-.672 1.5-1.5z"/></svg>