<svg id="Layer_1" viewBox="0 0 24 24" xmlns="http://www.w3.org/2000/svg" data-name="Layer 1"><path d="m7 7.021c0-1.866 1.246-3.021 2.401-3.021.264 0 .503.033.727.079.166-.851.514-1.823 1.228-2.612.881-.974 2.107-1.468 3.645-1.468v2.001c-.958 0-1.663.263-2.156.804-.321.353-.516.788-.643 1.221.124-.013.249-.025.383-.025 1.162 0 2.417 1.155 2.417 3.021 0 2.194-1.794 3.979-4 3.979s-4-1.785-4-3.979zm4 5.979c-3.089 0-5.639-2.339-5.964-5.333-1.869 1.518-3.133 3.442-3.93 5.398.197-.038.398-.065.605-.065zm5.978-5.539c-.478 3.039-2.478 5.539-5.978 5.539h12.978l-7.001-5.539zm7.022 7.539v9h-20.289c-1.256 0-2.391-.736-2.892-1.875-.432-.983-.819-2-.819-3.625 0-1.34.346-2.126.65-2.82.182-.413.598-.68 1.061-.68h5.566c-.172.295-.277.634-.277 1 0 1.105.895 2 2 2s2-.895 2-2c0-.366-.106-.705-.277-1zm-5 5.5c0-1.381-1.119-2.5-2.5-2.5s-2.5 1.119-2.5 2.5 1.119 2.5 2.5 2.5 2.5-1.119 2.5-2.5z"/></svg>