<svg id="Layer_1" viewBox="0 0 24 24" xmlns="http://www.w3.org/2000/svg" data-name="Layer 1"><path d="m21.414 5h-4.414v-4.414zm-9.151 10.184h-.671v-1.592h.671c.44 0 .796.356.796.796s-.356.796-.796.796zm9.737-8.184v17h-20v-21c0-1.657 1.343-3 3-3h10v7zm-13.4 7.3c0-1.269-1.031-2.3-2.3-2.3s-2.3 1.031-2.3 2.3v3.4c0 1.269 1.031 2.3 2.3 2.3s2.3-1.031 2.3-2.3zm6.376 3.312c0-.715-.32-1.349-.818-1.786.305-.401.493-.895.493-1.438 0-1.319-1.069-2.388-2.388-2.388h-2.263v8h2.588c1.319 0 2.388-1.069 2.388-2.388zm5.524-5.612h-1.6v5.7c0 .386-.314.7-.7.7s-.7-.314-.7-.7v-.7h-1.6v.7c0 1.269 1.031 2.3 2.3 2.3s2.3-1.031 2.3-2.3zm-7.912 4.816h-.996v1.592h.996c.44 0 .796-.356.796-.796s-.356-.796-.796-.796zm-6.288-3.217c-.386 0-.7.314-.7.7v3.4c0 .386.314.7.7.7s.7-.314.7-.7v-3.4c0-.386-.314-.7-.7-.7z"/></svg>