<svg id="Layer_1" viewBox="0 0 24 24" xmlns="http://www.w3.org/2000/svg" data-name="Layer 1"><path d="m12 0c-6.617 0-12 5.383-12 12s5.383 12 12 12 12-5.383 12-12-5.383-12-12-12zm-10 12c0-2.398.85-4.6 2.262-6.324l14.062 14.063c-1.725 1.412-3.926 2.262-6.324 2.262-5.514 0-10-4.486-10-10zm17.738 6.325-3.18-3.18c.796.223 1.614.355 2.442.355v-2c-1.445 0-2.877-.485-4.146-1.283 1.117-.41 2.464-.782 3.165-1.505 1.299-1.246 1.299-3.489 0-4.734-1.218-1.218-3.519-1.217-4.734 0-.723.699-1.095 2.047-1.505 3.164-.796-1.268-1.28-2.698-1.28-4.141h-2c0 .827.133 1.645.355 2.441l-3.18-3.18c1.725-1.412 3.927-2.262 6.324-2.262 5.514 0 10 4.486 10 10 0 2.398-.85 4.6-2.262 6.325zm-6.502-.874c-.869.946-2.104 1.549-3.486 1.549-2.619 0-4.75-2.131-4.75-4.75 0-1.382.604-2.617 1.549-3.486l1.413 1.414c-.584.505-.963 1.242-.963 2.073 0 1.517 1.233 2.75 2.75 2.75.831 0 1.568-.378 2.073-.963l1.413 1.413z"/></svg>