<svg id="Layer_1" viewBox="0 0 24 24" xmlns="http://www.w3.org/2000/svg" data-name="Layer 1"><path d="m20 8c-2.21 0-4-1.79-4-4s1.79-4 4-4 4 1.79 4 4-1.79 4-4 4zm-13 12c-1.105 0-2 .895-2 2s.895 2 2 2 2-.895 2-2-.895-2-2-2zm10 0c-1.105 0-2 .895-2 2s.895 2 2 2 2-.895 2-2-.895-2-2-2zm5.877-10.734c-.854.467-1.834.734-2.877.734-3.315 0-6-2.685-6-6 0-.341.035-.674.09-1h-9.848l-.041-.351c-.178-1.51-1.459-2.649-2.979-2.649h-1.222v2h1.222c.507 0 .934.38.993.883l1.584 13.468c.178 1.51 1.459 2.649 2.979 2.649h13.222v-2h-13.222c-.507 0-.934-.38-.993-.883l-.131-1.117h16.181z"/></svg>