<svg id="Layer_1" viewBox="0 0 24 24" xmlns="http://www.w3.org/2000/svg" data-name="Layer 1"><path d="m12.987 7.917v16.071h-1.998v-16.145c-.742-.201-1.412-.622-1.957-1.167l-2.746-2.667c-.39-.39-.39-1.023 0-1.413s1.023-.39 1.413 0l1.008.929v-2.686c0-.457.37-.827.827-.827s.827.37.827.827v.671h1.416v-.671c0-.457.37-.827.827-.827s.827.37.827.827v.681h1.391v-.677c0-.459.372-.831.831-.831s.831.372.831.831v2.833c0 1.193-.485 2.275-1.269 3.059-.596.596-1.368 1.013-2.227 1.182zm-7.757-2.91 3.761 10.82v.668c0 2.479-2.017 4.495-4.495 4.495s-4.496-2.016-4.496-4.495v-.669l3.087-8.821h-3.063v-1.998zm-.726 3.998-2.097 5.992h4.18zm19.496 6.821v.669c0 2.479-2.017 4.495-4.495 4.495s-4.495-2.017-4.495-4.495v-.668l3.761-10.82h5.206v1.998h-3.062l3.087 8.821zm-6.587-.829h4.18l-2.097-5.992z"/></svg>