<svg id="Layer_1" viewBox="0 0 24 24" xmlns="http://www.w3.org/2000/svg" data-name="Layer 1"><path d="m17 .586v4.414h4.414zm.221 14.414.008 2.015c0 .395-.342.726-.75.733-.402-.007-.725-.333-.724-.736 0-.138-.008-1.929-.008-2.024 0-.403.322-.729.724-.736.408.007.75.339.75.733zm-2.221-8v-7h-10c-1.657 0-3 1.343-3 3v21h20v-17zm-8.755 12-.006-6h1.255c.002 1.719.005 4.675.006 6zm4.452-4.069c.016 0 .614.263 1.272.506 1.223.451 1.529 1.336 1.408 2.014-.158.888-.998 1.533-2.002 1.549-.834.011-1.634-.321-2.168-.911v-.003l-.42-.462.926-.84.42.463c.286.315.736.504 1.204.504.448 0 .764-.265.81-.521.062-.345-.451-.562-.61-.621-.752-.277-1.43-.58-1.43-.58-.6-.382-.864-.969-.777-1.579.094-.649.568-1.178 1.239-1.38.248-.096.776-.067 1.037-.07.807.116 1.383.58 1.415.607l.479.402-.805.957-.476-.399c-.025-.021-.633-.495-1.29-.299-.293.088-.351.282-.362.361-.008.059-.013.206.13.302zm7.782 2.084c0 1.094-.902 1.985-2.012 1.985-1.086 0-1.967-.881-1.967-1.967l-.008-2.066c0-1.086.881-1.967 1.967-1.967 1.109 0 2.012.891 2.012 1.985v.015l.008 2z"/></svg>