<svg id="Layer_1" viewBox="0 0 24 24" xmlns="http://www.w3.org/2000/svg" data-name="Layer 1"><path d="m7.71 24.001c-2.61.006-5.058-1.333-6.496-3.56-1.594-2.45-1.609-5.752-.039-8.215.944-1.48 2.292-2.57 3.896-3.153 1.771-.643 3.238-2.184 4.134-4.34.385-.928.943-1.763 1.659-2.479 1.644-1.647 3.914-2.447 6.235-2.213 2.318.242 4.391 1.524 5.687 3.517 1.594 2.451 1.609 5.753.039 8.215-.944 1.48-2.292 2.571-3.896 3.153-1.771.644-3.238 2.185-4.134 4.341-.385.928-.943 1.763-1.659 2.479-1.454 1.455-3.396 2.255-5.427 2.255zm14.92-8.976c-.887.769-1.9 1.375-3.018 1.781-1.236.449-2.291 1.596-2.969 3.229-.395.951-.94 1.819-1.612 2.597.494.1 1.48.393 1.977.37.852 0 1.675-.335 2.294-.955l2.744-2.743c.799-.799 1.125-1.933.871-3.033l-.287-1.245zm-14.899-13.94c-1.101-.254-2.234.072-3.033.871l-2.743 2.744c-.62.62-.955 1.442-.955 2.294-.024.492.27 1.489.37 1.977.778-.672 1.646-1.217 2.597-1.612 1.633-.678 2.779-1.732 3.229-2.969.406-1.118 1.012-2.131 1.781-3.018l-1.245-.287z"/></svg>