<svg id="Layer_1" viewBox="0 0 24 24" xmlns="http://www.w3.org/2000/svg" data-name="Layer 1"><path d="m14 16h3.5v1.6h-1.9v1.65h1.9v1.6h-1.9v1.551h1.9v1.6h-3.5v-8zm7.5 1.6c.496 0 .9.404.9.9h1.6c0-1.381-1.119-2.5-2.5-2.5s-2.5 1.119-2.5 2.5v3c0 1.381 1.119 2.5 2.5 2.5s2.5-1.119 2.5-2.5h-1.6c0 .496-.404.9-.9.9s-.9-.404-.9-.9v-3c0-.496.404-.9.9-.9zm-8.9.7v3.4c0 1.269-1.031 2.3-2.3 2.3h-2.3v-8h2.3c1.269 0 2.3 1.031 2.3 2.3zm-1.6 0c0-.386-.314-.7-.7-.7s-.7 0-.7 0v4.802s.314 0 .7 0 .7-.314.7-.7v-3.4zm10-16.3h-3v-2h-2v2h-8v-2h-2v2h-3c-1.654 0-3 1.346-3 3v3h24v-3c0-1.654-1.346-3-3-3zm-21 22h6v-10h16c.748.13 1.428.453 2 .909v-4.909h-24z"/></svg>