<svg id="Layer_1" viewBox="0 0 24 24" xmlns="http://www.w3.org/2000/svg" data-name="Layer 1"><path d="m24 4c0-1.654-1.346-3-3-3h-18c-1.654 0-3 1.346-3 3v4h24zm-20.5 2c-.828 0-1.5-.672-1.5-1.5s.672-1.5 1.5-1.5 1.5.672 1.5 1.5-.672 1.5-1.5 1.5zm4 0c-.828 0-1.5-.672-1.5-1.5s.672-1.5 1.5-1.5 1.5.672 1.5 1.5-.672 1.5-1.5 1.5zm8.5 13c0 2.206-1.794 4-4 4s-4-1.794-4-4c0-.472.097-.918.247-1.339l-.843-.843 2.414-2.414.843.843c.421-.151.867-.247 1.339-.247 2.206 0 4 1.794 4 4zm-.905-5.131c1.738 1.052 2.905 2.955 2.905 5.131 0 1.463-.528 2.958-1.401 4h7.401v-13h-8.336zm3.572-1.202.833-1.667.833 1.667 1.667.833-1.667.833-.833 1.667-.833-1.667-1.667-.833zm-10.385-.22c-.182.169-.287.482-.282.632.007.237.089.56.296.752l-1.361 1.465c-.566-.526-.907-1.312-.934-2.154-.023-.759.346-1.626.919-2.16.886-.822 1.761-.982 2.973-.982 1.232 0 2.48.091 3.71.272l-.291 1.979c-.778-.114-2.004-.25-3.419-.25-.966 0-1.249.112-1.61.447zm-.881 10.553h-7.401v-13h5.131c-.732.901-1.164 2.073-1.129 3.205.033 1.052.381 2.055.971 2.867l1.22 1.62c-.112.391-.208.899-.192 1.308 0 1.463.528 2.958 1.401 4z"/></svg>