<svg id="Layer_1" viewBox="0 0 24 24" xmlns="http://www.w3.org/2000/svg" data-name="Layer 1"><path d="m14 18.184v-4.184h-5.021v4.277c.595.346 1 .984 1 1.723 0 1.105-.895 2-2 2s-2-.895-2-2c0-.738.405-1.376 1-1.723v-4.275c-2.747.012-4.979 2.248-4.979 4.998v5h10v-3c0-1.302.839-2.402 2-2.816zm3-4.184h-1v4.184c1.161.414 2 1.514 2 2.816v3h4v-5c0-2.757-2.243-5-5-5zm-2 6c-.552 0-1 .448-1 1v3h2v-3c0-.552-.448-1-1-1zm-7.231-15h-2.088c.059-.239.1-.395.117-.45.854-2.721 3.347-4.55 6.202-4.55s5.347 1.829 6.202 4.55c.067.211 1.367 5.693 1.963 8.215-.952-.485-2.026-.765-3.165-.765h-.136c-.141-.679-.687-3.077-.756-3.368-.824 1.415-2.357 2.368-4.108 2.368-2.364 0-4.329-1.736-4.69-3.999h.69c1.243 0 2.771-.346 3.852-1.02 1.228-.766 2.156-1.879 2.683-3.198-.549-.376-1.182-.63-1.862-.732-.371.92-1.021 1.697-1.879 2.233-.81.506-1.775.717-3.025.717zm-3.936 7.765c.477-2.03 1.011-4.29 1.403-5.931.291 2.154 1.415 4.077 3.232 5.166h-1.468c-1.14 0-2.214.28-3.167.765z"/></svg>