<?xml version="1.0" encoding="UTF-8"?>
<svg xmlns="http://www.w3.org/2000/svg" id="Layer_1" data-name="Layer 1" viewBox="0 0 24 24">
  <path d="M7,5h2v2c0,1.072-.849,1.942-1.909,1.991l.321,7.052c.906,.19,1.589,.995,1.589,1.957v1H0v-1c0-.962,.683-1.766,1.589-1.957l.321-7.052c-1.06-.048-1.909-.919-1.909-1.991v-2H2v2h1.5v-2h2v2h1.5v-2Zm14.5,.5c1.381,0,2.5-1.119,2.5-2.5s-1.119-2.5-2.5-2.5-2.5,1.119-2.5,2.5,1.119,2.5,2.5,2.5Zm0,4c-1.381,0-2.5,1.119-2.5,2.5s1.119,2.5,2.5,2.5,2.5-1.119,2.5-2.5-1.119-2.5-2.5-2.5Zm0,9c-1.381,0-2.5,1.119-2.5,2.5s1.119,2.5,2.5,2.5,2.5-1.119,2.5-2.5-1.119-2.5-2.5-2.5ZM12,5v6h-2v2h2v6c0,1.654,1.346,3,3,3h2v-2h-2c-.551,0-1-.448-1-1v-6h3v-2h-3V5c0-.552,.449-1,1-1h2V2h-2c-1.654,0-3,1.346-3,3Z"/>
</svg>
