<svg id="Layer_1" viewBox="0 0 24 24" xmlns="http://www.w3.org/2000/svg" data-name="Layer 1"><path d="m21 11h-18c-1.654 0-3 1.346-3 3v10h24v-10c0-1.654-1.346-3-3-3zm-13.086 7.543-1.414 1.414-1.043-1.043-1.043 1.043-1.414-1.414 1.043-1.043-1.043-1.043 1.414-1.414 1.043 1.043 1.043-1.043 1.414 1.414-1.043 1.043zm6.543 0-1.414 1.414-1.043-1.043-1.043 1.043-1.414-1.414 1.043-1.043-1.043-1.043 1.414-1.414 1.043 1.043 1.043-1.043 1.414 1.414-1.043 1.043zm6.543 0-1.414 1.414-1.043-1.043-1.043 1.043-1.414-1.414 1.043-1.043-1.043-1.043 1.414-1.414 1.043 1.043 1.043-1.043 1.414 1.414-1.043 1.043zm-3.343-14.2c-1.511-1.511-3.521-2.343-5.657-2.343s-4.146.832-5.657 2.343l-1.414-1.414c1.889-1.889 4.4-2.929 7.071-2.929s5.183 1.04 7.071 2.929zm-8.486 2.828-1.414-1.414c1.133-1.133 2.64-1.757 4.243-1.757s3.109.624 4.242 1.757l-1.414 1.414c-1.512-1.511-4.146-1.511-5.657 0zm2.829 2.829-1.414-1.414c.779-.78 2.049-.78 2.828 0z"/></svg>