<svg id="Layer_1" viewBox="0 0 24 24" xmlns="http://www.w3.org/2000/svg" data-name="Layer 1"><path d="m20 2 1-2 1 2 2 1-2 1-1 2-1-2-2-1zm3.998 11.508v-.008c0-.827-.67-1.5-1.499-1.5s-1.5.671-1.5 1.499v4.501h-.997l-.003-6.495c.004-.83-.668-1.505-1.498-1.505s-1.498.669-1.498 1.497c0 .594.004 4.177.007 6.503h-1.01v-5.5c0-.828-.672-1.5-1.5-1.5s-1.5.672-1.5 1.5v7.971l-.51-.525c-.705-.705-1.839-.876-2.647-.294-1.03.742-1.116 2.188-.257 3.047l1.364 1.301h13.051l-.002-10.492zm-4.998-6.508v1.049c-.165-.024-.33-.049-.5-.049-1.077 0-2.042.489-2.685 1.257-.407-.166-.851-.257-1.317-.257-1.93 0-3.5 1.57-3.5 3.5v4.809c-.826-.024-1.64.226-2.327.721-.96.692-1.565 1.761-1.66 2.933-.057.71.097 1.403.403 2.038h-7.414v-16.001c0-1.654 1.346-3 3-3h13c1.654 0 3 1.346 3 3zm-10 5-2-1-1-2-1 2-2 1 2 1 1 2 1-2z"/></svg>