<svg id="Layer_1" viewBox="0 0 24 24" xmlns="http://www.w3.org/2000/svg" data-name="Layer 1"><path d="m12.745 10.988v2.024c0 .403-.322.729-.724.736-.144-.002-.437-.003-.754-.003.003-.642.001-2.311 0-3.49.317 0 .61 0 .754-.003.402.007.725.333.724.736zm5.569 5.912 1.4 1.4c.391-.187.824-.3 1.286-.3 1.657 0 3 1.343 3 3s-1.343 3-3 3-3-1.343-3-3c0-.462.113-.895.3-1.286l-1.4-1.4c-.897.697-1.944 1.207-3.088 1.472.424.448.688 1.049.688 1.714 0 1.381-1.119 2.5-2.5 2.5s-2.5-1.119-2.5-2.5c0-.665.264-1.266.688-1.714-1.143-.265-2.191-.775-3.088-1.472l-1.4 1.4c.187.391.3.824.3 1.286 0 1.657-1.343 3-3 3s-3-1.343-3-3 1.343-3 3-3c.462 0 .895.113 1.286.3l1.4-1.4c-.697-.897-1.207-1.944-1.472-3.088-.448.424-1.049.688-1.714.688-1.381 0-2.5-1.119-2.5-2.5s1.119-2.5 2.5-2.5c.665 0 1.266.264 1.714.688.265-1.143.775-2.191 1.472-3.088l-1.4-1.4c-.391.187-.824.3-1.286.3-1.657 0-3-1.343-3-3s1.343-3 3-3 3 1.343 3 3c0 .462-.113.895-.3 1.286l1.4 1.4c.897-.697 1.944-1.207 3.088-1.472-.424-.448-.688-1.049-.688-1.714 0-1.381 1.119-2.5 2.5-2.5s2.5 1.119 2.5 2.5c0 .665-.264 1.266-.688 1.714 1.143.265 2.191.775 3.088 1.472l1.4-1.4c-.187-.391-.3-.824-.3-1.286 0-1.657 1.343-3 3-3s3 1.343 3 3-1.343 3-3 3c-.462 0-.895-.113-1.286-.3l-1.4 1.4c.697.897 1.207 1.944 1.472 3.088.448-.424 1.049-.688 1.714-.688 1.381 0 2.5 1.119 2.5 2.5s-1.119 2.5-2.5 2.5c-.665 0-1.266-.264-1.714-.688-.265 1.143-.775 2.191-1.472 3.088zm-9.327-3.9h-1.25v.015c0 .395-.342.726-.75.733-.402-.007-.725-.333-.724-.736 0-.138-.008-1.929-.008-2.024 0-.403.322-.729.724-.736.408.007.75.339.75.733v.015h1.25v-.015c0-1.094-.903-1.985-2.012-1.985-1.086 0-1.967.881-1.967 1.967l.008 2.066c0 1.086.881 1.967 1.967 1.967 1.11 0 2.012-.891 2.012-1.985zm5.013-2.033c0-1.086-.881-1.967-1.967-1.967l-2.02.008.008 5.992h2.012c1.086 0 1.967-.881 1.967-1.967zm2.2 1.249 1.1 2.784h1.2v-6h-1.2v2.726l-1.1-2.719v-.006h-1.2v6h1.2v-2.784z"/></svg>