<svg id="Layer_1" viewBox="0 0 24 24" xmlns="http://www.w3.org/2000/svg" data-name="Layer 1"><path d="m14.788 13.909c.133.339.212.705.212 1.091 0 1.654-1.346 3-3 3s-3-1.346-3-3c0-.586.176-1.13.467-1.592l2.74 2.628 2.044-2.044c.182-.011.359-.047.536-.082zm-2.711-3.4-1.283 1.283 1.414 1.414 1.283-1.283c.168.044.339.075.511.075.512 0 1.024-.195 1.414-.586l4.293-4.293 1.336 1.336 1.414-1.414c-.738-.738-.738-1.934 0-2.672l.957-.957c.859-.859.773-2.305-.257-3.046-.809-.582-1.943-.41-2.648.295l-.88.88c-.738.738-1.934.738-2.672 0l-1.414 1.414 1.336 1.336-4.293 4.293c-.522.522-.687 1.259-.511 1.925zm11.924 4.49c0-.279-.059-.558-.178-.818-.444-.969-1.544-3.043-3.487-4.861l-3.736 3.735c.254.599.4 1.254.4 1.944 0 2.757-2.243 5-5 5s-5-2.243-5-5c0-1.124.386-2.151 1.014-2.986l-.014-.014 2-2c.061-.958.481-2.139 1.174-2.831l1.152-1.152c-.111-.003-.214-.017-.326-.017-7.494.001-10.943 6.261-11.821 8.18-.12.261-.179.541-.179.821 0 .28.059.56.179.821.878 1.918 4.328 8.179 11.821 8.179s10.943-6.261 11.822-8.182c.119-.26.178-.539.178-.818z"/></svg>