<svg id="Layer_1" viewBox="0 0 24 24" xmlns="http://www.w3.org/2000/svg" data-name="Layer 1"><path d="m10.5 1.5c0-.828.672-1.5 1.5-1.5s1.5.672 1.5 1.5-.672 1.5-1.5 1.5-1.5-.672-1.5-1.5zm-1 5.625v3.875h2v-2h1v2h2v-3.875l1.356 1.14 1.287-1.531-2.471-2.077c-.53-.424-1.195-.658-1.874-.658h-1.598c-.679 0-1.344.233-1.893.673l-2.452 2.062 1.287 1.531 1.356-1.141zm12-4.125c-1.381 0-2.5 1.119-2.5 2.5v4.096s.76.616.907.778c1.4 1.542 1.455 3.915.125 5.519l-4.033 4.088v4.019h3.836l3.117-3.412c.673-.737 1.047-1.699 1.047-2.698v-12.39c0-1.381-1.119-2.5-2.5-2.5zm-2.793 9.101c-.739-1.254-2.39-1.457-3.407-.533l-1.813 1.646.874.794c.918.834 1.465 1.987 1.587 3.212l2.487-2.532c.603-.728.752-1.772.272-2.586zm-10.008-.533c-1.017-.923-2.668-.721-3.407.533-.48.815-.331 1.858.272 2.586l3.243 3.275-1.404 1.404-3.437-3.472c-1.329-1.604-1.275-3.977.125-5.519.147-.162.907-.778.907-.778v-3.954c0-1.308-.941-2.499-2.242-2.63-1.496-.15-2.758 1.021-2.758 2.487v12.39c0 .998.373 1.961 1.047 2.698l3.117 3.412h9.838v-6.292c0-.846-.357-1.652-.983-2.221l-4.317-3.92z"/></svg>