<svg id="Layer_1" viewBox="0 0 24 24" xmlns="http://www.w3.org/2000/svg" data-name="Layer 1"><path d="m10.405 7.676c.24.714.937 3.198.937 4 0 .736-.598 1.335-1.334 1.335s-1.334-.599-1.334-1.335c0-.718.618-3.037.94-4.011.069-.21.148-.392.22-.52.019-.032.088-.139.174-.139.103 0 .148.054.195.156.05.102.118.267.201.514zm13.595 14.909-1.415 1.415-6.248-6.248c-1.726 1.413-3.93 2.263-6.329 2.263-5.518.001-10.008-4.489-10.008-10.007s4.49-10.008 10.008-10.008 10.008 4.489 10.008 10.008c0 2.399-.85 4.603-2.263 6.329l6.248 6.248zm-8.988-17.581h-2.002v1.001h-1.19c-.412-.622-1.058-1.001-1.812-1.001-.722 0-1.376.376-1.802 1.001h-1.201v-1.001h-2.002v1.001c0 1.104.898 2.002 2.002 2.002h.417c-.085.3-.179.642-.271 1.001h-2.147v2.002h1.726c-.035.251-.058.48-.058.667 0 .125.023.243.037.364-.962.145-1.705.969-1.705 1.972v1.001h2.002v-1.001h.626c.606.616 1.446 1.001 2.376 1.001s1.771-.385 2.376-1.001h.626v1.001h2.002v-1.001c0-1.002-.743-1.827-1.705-1.972.013-.121.037-.239.037-.364 0-.188-.022-.417-.057-.667h1.725v-2.002h-2.146c-.092-.36-.187-.702-.272-1.001h.416c1.103 0 2.002-.898 2.002-2.002z"/></svg>