<svg id="Layer_1" viewBox="0 0 24 24" xmlns="http://www.w3.org/2000/svg" data-name="Layer 1"><path d="m17 22c.342 0 .677-.035 1-.101v2.101h-12v-2.101c.323.066.658.101 1 .101zm0-20c.342 0 .677.035 1 .101v-2.101h-12v2.101c.323-.066.658-.101 1-.101zm3 5v10c0 1.654-1.346 3-3 3h-10c-1.654 0-3-1.346-3-3v-10c0-1.654 1.346-3 3-3h10c1.654 0 3 1.346 3 3zm-3 2.779c0-.59-.213-1.182-.663-1.631l-1.148-1.148-2.26 2.26 1.184 1.184c-.735 1.829-1.98 3.025-3.669 3.669l-1.184-1.184-2.26 2.26 1.148 1.148c.449.45 1.041.663 1.631.663 3.028 0 7.221-3.96 7.221-7.221z"/></svg>