<?xml version="1.0" encoding="UTF-8"?>
<svg xmlns="http://www.w3.org/2000/svg" id="Layer_1" data-name="Layer 1" viewBox="0 0 24 24">
  <path d="m15,22v2h-6v-2h6Zm.941-10.336c-.142-.397-.52-.664-.941-.664h-6.181c-.421,0-.8.267-.941.664l-.834,2.336h9.733l-.834-2.336ZM12,0C5.383,0,0,5.383,0,12v12h6v-2h-1.961l-.128-3.228c0-1.305.215-2.55.64-3.74l1.443-4.042c.425-1.19,1.561-1.991,2.825-1.991h6.181c1.265,0,2.4.8,2.825,1.991l1.443,4.042c.425,1.191.641,2.436.641,3.7l.131,3.268h-2.041v2h6v-12C24,5.383,18.617,0,12,0Zm-6.04,20h11.999l-.049-1.228c0-.967-.152-1.887-.435-2.772h-1.476v1c0,.552-.448,1-1,1s-1-.448-1-1v-1h-4v1c0,.552-.448,1-1,1s-1-.448-1-1v-1h-1.657c-.282.884-.433,1.8-.433,2.732l.051,1.268Z"/>
</svg>
