<?xml version="1.0" encoding="UTF-8"?>
<svg xmlns="http://www.w3.org/2000/svg" id="Layer_1" data-name="Layer 1" viewBox="0 0 24 24">
  <path d="M0,23H24V10H0v13Zm17.294-5.849c-.794-.38-1.882-.9-1.882-2.15,0-1.141,.914-2.001,2.127-2.001,1.23,0,2.152,.985,2.326,1.132l-1.008,1.189s-.704-.763-1.318-.763c-.058,0-.57,.012-.57,.444,0,.249,.395,.456,.997,.745,.802,.383,1.899,.909,1.899,2.176,0,1.349-1.173,2.078-2.276,2.078-1.137,0-2.475-1.116-2.589-1.218l1.035-1.164c.264,.232,1.14,.824,1.554,.824,.074,0,.719-.015,.719-.52,0-.246-.299-.429-1.014-.771Zm-5.355,0c-.794-.38-1.882-.9-1.882-2.15,0-1.141,.914-2.001,2.127-2.001,1.226,0,2.152,.958,2.326,1.105l-1.006,1.19c-.29-.243-.786-.737-1.32-.737-.059,0-.57,.012-.57,.444,0,.249,.395,.456,.996,.745,.802,.383,1.899,.909,1.899,2.176,0,1.349-1.173,2.078-2.276,2.078-1.137,0-2.448-1.083-2.563-1.185l1.035-1.164c.264,.232,1.113,.791,1.527,.791,.074,0,.719-.015,.719-.52,0-.246-.299-.429-1.014-.771Zm-7.939-1.651c0-1.381,1.119-2.5,2.5-2.5s2.5,1.119,2.5,2.5h-1.6c0-.496-.404-.9-.9-.9s-.9,.404-.9,.9v2c0,.496,.404,.9,.9,.9s.9-.404,.9-.9h1.6c0,1.381-1.119,2.5-2.5,2.5s-2.5-1.119-2.5-2.5v-2ZM21,1H3C1.346,1,0,2.346,0,4v4H24V4c0-1.654-1.346-3-3-3ZM3.5,6c-.828,0-1.5-.672-1.5-1.5s.672-1.5,1.5-1.5,1.5,.672,1.5,1.5-.672,1.5-1.5,1.5Zm4,0c-.828,0-1.5-.672-1.5-1.5s.672-1.5,1.5-1.5,1.5,.672,1.5,1.5-.672,1.5-1.5,1.5Z"/>
</svg>
