<svg id="Layer_1" viewBox="0 0 24 24" xmlns="http://www.w3.org/2000/svg" data-name="Layer 1"><path d="m12 6c-1.13 0-2.162.391-3 1.026v-4.026c0-1.657 1.343-3 3-3s3 1.343 3 3v4.026c-.838-.635-1.87-1.026-3-1.026zm11 9.026v-4.026c0-1.654-1.346-3-3-3s-3 1.346-3 3v4.026c.838-.635 1.87-1.026 3-1.026s2.162.391 3 1.026zm-8 0v-4.026c0-1.654-1.346-3-3-3s-3 1.346-3 3v4.026c.838-.635 1.87-1.026 3-1.026s2.162.391 3 1.026zm8-8v-4.026c0-1.657-1.343-3-3-3s-3 1.343-3 3v4.026c.838-.635 1.87-1.026 3-1.026s2.162.391 3 1.026zm-6 16.974c.413-1.163 1.696-2 3-2s2.587.837 3 2v-5c0-1.654-1.346-3-3-3s-3 1.346-3 3zm-10-8.974v-4.026c0-1.654-1.346-3-3-3s-3 1.346-3 3v4.026c.838-.635 1.87-1.026 3-1.026s2.162.391 3 1.026zm2 8.974c.413-1.163 1.696-2 3-2s2.587.837 3 2v-5c0-1.654-1.346-3-3-3s-3 1.346-3 3zm-8 0c.413-1.163 1.696-2 3-2s2.587.837 3 2v-5c0-1.654-1.346-3-3-3s-3 1.346-3 3zm6-16.974v-4.026c0-1.657-1.343-3-3-3s-3 1.343-3 3v4.026c.838-.635 1.87-1.026 3-1.026s2.162.391 3 1.026z"/></svg>