<?xml version="1.0" encoding="UTF-8"?>
<svg xmlns="http://www.w3.org/2000/svg" id="Layer_1" data-name="Layer 1" viewBox="0 0 24 24">
  <path d="m22,14v-1c0-2.206-1.794-4-4-4s-4,1.794-4,4v1h-2v7c0,1.654,1.346,3,3,3h6c1.654,0,3-1.346,3-3v-7h-2Zm-3,6h-2v-2h2v2Zm1-6h-4v-1c0-1.103.897-2,2-2s2,.897,2,2v1Zm-8.974,10H0v-13.926c0-.96.433-1.849,1.188-2.439L10.092.658c1.123-.879,2.692-.881,3.815,0l8.905,6.977c.754.591,1.188,1.479,1.188,2.439v1.926h-.083c-.478-2.834-2.949-5-5.917-5s-5.439,2.166-5.917,5h-2.083v9c0,1.13.391,2.162,1.026,3Z"/>
</svg>
