<svg id="Layer_1" viewBox="0 0 24 24" xmlns="http://www.w3.org/2000/svg" data-name="Layer 1"><path d="m12 8.146v2.691c-.527-.208-1.183-.337-2-.337h-3v-2h3c.764 0 1.429-.117 2-.354zm11.957 14.396-1.414 1.414-6.219-6.219c-1.725 1.412-3.927 2.262-6.324 2.262-5.514.001-10-4.485-10-9.999s4.486-10 10-10 10 4.486 10 10c0 2.398-.85 4.6-2.262 6.324l6.219 6.219zm-8.957-13.042c0-.651-.419-1.201-1-1.408v-3.092h-1.624c-.513.89-.679 1.464-2.376 1.5h-3c-1.103 0-2 .897-2 2v2c0 .459.162.878.423 1.216l1.709 4.268h.457c.479 0 .922-.24 1.183-.642s.301-.903.106-1.342l-.551-1.5h1.673c2.165.145 1.76.655 2.345 1.5h1.655v-3.092c.581-.207 1-.757 1-1.408z"/></svg>