<svg id="Layer_1" viewBox="0 0 24 24" xmlns="http://www.w3.org/2000/svg" data-name="Layer 1"><path d="m13.48 20.362c-1.198-.721-2.365-1.509-3.273-2.31l-.06-.053h-10.147v3c0 1.654 1.346 3 3 3h10c1.441 0 2.646-1.022 2.933-2.378 0 0-1.254-.538-2.453-1.26zm-3.48 1.638h-4v-2h4zm12.944-7.008c-.479 2.268-1.707 4.172-2.653 5.371l-.42.533-.65-.194c-.589-.175-1.184-.391-1.777-.629.577-1.304 1.056-2.888 1.056-4.574-1.368 1.71-2.918 2.639-4.017 3.132-1.102-.637-2.12-1.343-2.953-2.079l-.82-.725.795-.752c1.268-1.198 2.398-2.542 3.271-3.887.749-1.146 2.212-1.524 3.407-.879l.774.417 3.231-6.855 1.813.846-3.279 6.959.907.488c1.011.542 1.553 1.705 1.316 2.827zm-6.944-14.992v8.1c-1.149.246-2.203.93-2.902 2-.029.045-.064.089-.093.134l-1.163-.672c.095-.34.159-.693.159-1.063s-.067-.721-.161-1.061l1.424-.822-1-1.732-1.413.816c-.5-.509-1.138-.873-1.849-1.058v-1.642h-2v1.642c-.711.185-1.349.549-1.849 1.058l-1.413-.816-1 1.732 1.424.822c-.094.34-.161.692-.161 1.061s.063.723.159 1.063l-1.421.821 1 1.732 1.428-.825c.5.503 1.126.882 1.835 1.066v1.642h2v-1.642c.708-.184 1.334-.563 1.835-1.066l.964.557c-.513.613-1.073 1.211-1.668 1.775l-2.49 2.377h-7.645v-15.999zm-8 10.5c-1.105 0-2-.895-2-2s.895-2 2-2 2 .895 2 2-.895 2-2 2z"/></svg>