<svg id="Layer_1" viewBox="0 0 24 24" xmlns="http://www.w3.org/2000/svg" data-name="Layer 1"><path d="m24 22.673c0 .731-.595 1.327-1.327 1.327-1.131 0-3.317-2.132-4.276-4h-3.795c-.959 1.868-3.145 4-4.276 4-.731 0-1.327-.595-1.327-1.327 0-.767.383-4.05 1.579-7.274.311-.84 1.116-1.399 2.012-1.399h.41v-1h2v1h3v-1h2v1h.41c.896 0 1.7.559 2.012 1.399 1.196 3.224 1.579 6.507 1.579 7.274zm-15.296-7.969c-1.3 3.504-1.704 7.067-1.704 7.97 0 .472.102.919.28 1.326h-7.28v-21c0-1.657 1.343-3 3-3h14c1.657 0 3 1.343 3 3v8h-9v1.332c-1.039.436-1.891 1.277-2.296 2.372zm-4.704-8.704h12v-2h-12zm5 4v-2h-5v2z"/></svg>