<svg id="Layer_1" viewBox="0 0 24 24" xmlns="http://www.w3.org/2000/svg" data-name="Layer 1"><path d="m18 0c-3.314 0-6 2.686-6 6s2.686 6 6 6 6-2.686 6-6-2.686-6-6-6zm.619 8.414c-.378.378-.88.586-1.414.586h-.002c-.534 0-1.036-.209-1.413-.587l-2.012-2.012 1.414-1.414 2.013 2.013 3.615-3.615 1.414 1.414zm-18.619 12.586c0 1.654 1.346 3 3 3h10c1.654 0 3-1.346 3-3v-3h-16zm6-1h4v2h-4zm4-14c0-2.393 1.056-4.534 2.721-6h-12.721v16h16v-2.262c-3.449-.889-6-4.011-6-7.738zm-1 3h-2l-1.911 2.421c-.195.357-.569.579-.975.579h-1.113l1.359-3h-1.709l-1.546-1.833c-.297-.52.078-1.167.677-1.167.207 0 .405.082.551.228l.924.772h1.12l-1.376-3h1.096c.407 0 .781.222.975.579l1.929 2.421h.75c.802 0 1.25.448 1.25 1v1z"/></svg>