<svg id="Layer_1" viewBox="0 0 24 24" xmlns="http://www.w3.org/2000/svg" data-name="Layer 1"><path d="m13 2.5c0-1.381 1.119-2.5 2.5-2.5s2.5 1.119 2.5 2.5-1.119 2.5-2.5 2.5-2.5-1.119-2.5-2.5zm6.305 12.258c.382.482.521 1.101.38 1.7l-1.711 7.271-1.947-.458 1.711-7.271h-6.736c-.898 0-1.741-.397-2.313-1.089-.571-.692-.802-1.595-.633-2.478.018-.136 1.749-4.952 1.789-5.093.166-.753.607-1.402 1.249-1.835.664-.449 1.462-.612 2.25-.459.787.153 1.467.603 1.916 1.267.003.005.005.01.008.015l5.003 6.035-1.539 1.276-4.098-4.944-1.633 5.306h4.737c.614 0 1.186.276 1.567.758zm-14.305-6.758h-2v16h7s0 0 0-1 1-1 1-1c3.955 0 5-3.271 5-5h-11z"/></svg>