<svg id="Layer_1" viewBox="0 0 24 24" xmlns="http://www.w3.org/2000/svg" data-name="Layer 1"><path d="m18 12c-3.314 0-6 2.686-6 6s2.686 6 6 6 6-2.686 6-6-2.686-6-6-6zm.744 8.687c-.417.417-1.093.417-1.51 0l-2.687-2.687h2.454v-3h2v3h2.431zm-7.741 1.15c-.628-1.142-1.003-2.442-1.003-3.837 0-1.807.606-3.469 1.617-4.808-.302.181-.672.308-1.117.308-1.289 0-2-1.025-2-1.55s.711-.95 2-.95 2 .425 2 .95c0 .092-.03.202-.073.317 1.441-1.401 3.404-2.267 5.573-2.267 1.062 0 2.073.211 3 .587v-1.223l-1.179-2.001c.47-.757 1.179-2.082 1.179-3.196 0-2.298-1.869-4.167-4.167-4.167-1.176 0-2.309.557-3.109 1.494-2.001-.656-4.447-.656-6.448 0-.801-.938-1.933-1.494-3.109-1.494-2.298 0-4.167 1.869-4.167 4.167 0 1.114.708 2.439 1.179 3.196l-1.179 2.001v4.634c1.988 3.589 7.281 6.617 10.499 8.07.166-.075.329-.148.504-.231zm2.997-14.837c.828 0 1.5.672 1.5 1.5s-.672 1.5-1.5 1.5-1.5-.672-1.5-1.5.672-1.5 1.5-1.5zm-7 3c-.828 0-1.5-.672-1.5-1.5s.672-1.5 1.5-1.5 1.5.672 1.5 1.5-.672 1.5-1.5 1.5z"/></svg>