<svg id="Layer_1" viewBox="0 0 24 24" xmlns="http://www.w3.org/2000/svg" data-name="Layer 1"><path d="m22.944 17.992c-.591 2.629-1.845 4.367-3.073 5.904-.811-.234-1.631-.496-2.427-.823.577-1.304 1.056-2.888 1.056-4.574-1.368 1.71-2.918 2.639-4.017 3.132-1.464-.83-2.627-1.75-3.774-2.804 1.514-1.375 3.03-3.008 4.066-4.639.749-1.146 2.212-1.524 3.407-.879l.774.417 3.231-6.855 1.813.846-3.279 6.959.907.488c1.011.542 1.553 1.705 1.316 2.827zm-15.199.887c1.754-1.652 4.141-3.783 5.353-5.778 1.092-1.672 3.045-2.416 4.881-1.988l.995-2.112h-7.738l-4-2h-4.236c-1.654 0-3 1.346-3 3v14h14.846c-2.5-1.23-5.577-3.462-7.101-5.121zm3.963-11.879h6.292v-2.903l-3.946-4.097h-6.925c-1.754 0-3.128 1.318-3.128 3v2h3.708l4 2z"/></svg>