<?xml version="1.0" encoding="UTF-8"?>
<svg xmlns="http://www.w3.org/2000/svg" id="Layer_1" data-name="Layer 1" viewBox="0 0 24 24">
  <path d="M21.414,5h-4.414V.586l4.414,4.414Zm.586,2V24H2V3C2,1.343,3.343,0,5,0H15V7h7Zm-13.268,10h-1.25v.015c0,.395-.342,.726-.75,.733-.402-.007-.725-.333-.724-.736,0-.138-.008-1.929-.008-2.024,0-.403,.322-.729,.724-.736,.408,.007,.75,.339,.75,.733v.015h1.25v-.015c0-1.094-.903-1.985-2.012-1.985-1.086,0-1.967,.881-1.967,1.967l.008,2.066c0,1.086,.881,1.967,1.967,1.967,1.11,0,2.012-.891,2.012-1.985v-.015Zm2.437-2.371c.011-.079,.069-.273,.362-.361,.657-.196,1.265,.278,1.29,.299l.476,.399,.805-.957-.479-.402c-.045-.038-1.135-.934-2.452-.537-.671,.202-1.145,.731-1.239,1.38-.087,.61,.177,1.197,.777,1.579,0,0,.678,.303,1.43,.58,.159,.059,.672,.276,.61,.621-.046,.256-.362,.521-.81,.521-.468,0-.918-.189-1.204-.504l-.42-.463-.926,.84,.42,.462v.003c.527,.581,1.304,.914,2.13,.914,1.021,0,1.88-.653,2.04-1.552,.121-.678-.185-1.563-1.408-2.014-.658-.243-1.256-.506-1.272-.506-.143-.096-.138-.243-.13-.302Zm5.266,0c.011-.079,.069-.273,.362-.361,.657-.196,1.265,.278,1.29,.299l.476,.399,.805-.957-.479-.402c-.045-.038-1.135-.934-2.452-.537-.671,.202-1.145,.731-1.239,1.38-.087,.61,.177,1.197,.777,1.579,0,0,.678,.303,1.43,.58,.159,.059,.672,.276,.61,.621-.046,.256-.362,.521-.81,.521-.468,0-.918-.189-1.204-.504l-.42-.463-.926,.84,.42,.462v.003c.527,.581,1.304,.914,2.13,.914,1.021,0,1.88-.653,2.04-1.552,.121-.678-.185-1.563-1.408-2.014-.658-.243-1.256-.506-1.272-.506-.143-.096-.138-.243-.13-.302Z"/>
</svg>
