<svg id="Layer_1" viewBox="0 0 24 24" xmlns="http://www.w3.org/2000/svg" data-name="Layer 1"><path d="m24 15.046v8.954h-24v-5c0-2.757 2.243-5 5-5h8c2.757 0 5 2.243 5 5v3h4v-6.046l-1.396-1.222c-.334.166-.706.268-1.104.268-1.381 0-2.5-1.119-2.5-2.5s1.119-2.5 2.5-2.5 2.5 1.119 2.5 2.5c0 .244-.046.476-.111.699zm-20-3.046h1.468c-1.48-.887-2.491-2.332-2.975-4h.007c.212-1.25.577-2.346.839-3h1.43c1.25 0 2.214-.212 3.025-.717.858-.535 1.508-1.312 1.879-2.233.679.102 1.313.356 1.862.732-.527 1.319-1.455 2.432-2.683 3.198-1.081.674-2.609 1.02-3.852 1.02-.038 0-.41 0-.69 0 .361 2.264 2.327 3.999 4.69 3.999 1.751 0 3.284-.953 4.108-2.368.069.291.615 2.688.756 3.368.397-.006.794.028 1.177.088.1-1.087.567-2.067 1.302-2.791-.105-.441-.209-.878-.31-1.304.536-.019.967-.453.967-.993v-2c0-.552-.448-1-1-1h-1.02c-1.004-2.408-3.326-3.999-5.98-3.999s-4.977 1.591-5.98 4h-1.02c-.552 0-1 .448-1 1v2c0 .538.428.97.961.992-.348 1.462-.754 3.186-1.127 4.773.952-.486 2.026-.765 3.167-.765z"/></svg>