<?xml version="1.0" encoding="UTF-8"?>
<svg xmlns="http://www.w3.org/2000/svg" id="Layer_1" data-name="Layer 1" viewBox="0 0 24 24">
  <path d="M2.072,10.741L10.619,2.072l-1.117-1.099c-1.233-1.279-3.423-1.277-4.659,.011L.971,5.012c-1.281,1.28-1.281,3.365,.004,4.651l1.096,1.077Zm7.598,12.297c-1.222,1.275-3.425,1.275-4.646,0L.995,19.165c-1.288-1.233-1.29-3.426-.011-4.657L14.348,.965c1.286-1.285,3.371-1.286,4.651-.004l4.027,3.872c1.288,1.235,1.29,3.426,.011,4.659l-13.368,13.546Zm3.831-14.037c0-.828-.672-1.5-1.5-1.5s-1.5,.672-1.5,1.5,.672,1.5,1.5,1.5,1.5-.672,1.5-1.5Zm0,3c0,.828,.672,1.5,1.5,1.5s1.5-.672,1.5-1.5-.672-1.5-1.5-1.5-1.5,.672-1.5,1.5Zm-6,0c0,.828,.672,1.5,1.5,1.5s1.5-.672,1.5-1.5-.672-1.5-1.5-1.5-1.5,.672-1.5,1.5Zm3,3c0,.828,.672,1.5,1.5,1.5s1.5-.672,1.5-1.5-.672-1.5-1.5-1.5-1.5,.672-1.5,1.5Zm10.15-5.857L14.829,3.403l-1.41,1.42,5.816,5.736,1.414-1.416ZM3.25,15.064l5.788,5.708,1.414-1.416-5.792-5.712-1.41,1.42Zm18.689-1.794l-8.548,8.668,1.117,1.099c1.233,1.279,3.423,1.277,4.659-.011l3.872-4.027c1.281-1.28,1.281-3.365-.004-4.651l-1.096-1.077Z"/>
</svg>
