<svg id="Layer_1" viewBox="0 0 24 24" xmlns="http://www.w3.org/2000/svg" data-name="Layer 1"><path d="m5 14c0 1.381-1.119 2.5-2.5 2.5s-2.5-1.119-2.5-2.5c0-2.038 2.5-4.5 2.5-4.5s2.5 2.513 2.5 4.5zm1.5 3s-2.5 2.462-2.5 4.5c0 1.381 1.119 2.5 2.5 2.5s2.5-1.119 2.5-2.5c0-1.987-2.5-4.5-2.5-4.5zm15-7s-2.5 2.462-2.5 4.5c0 1.381 1.119 2.5 2.5 2.5s2.5-1.119 2.5-2.5c0-1.987-2.5-4.5-2.5-4.5zm-4.5 4.5c0-1.688.981-3.352 1.854-4.5h-1.854c0-1.054-.68-2-1-2s-1 .946-1 2h-2c0-1.892 1.232-4 3-4 1.715 0 2.916 1.983 2.987 3.829.93-1.197 2.16-2.234 3.112-3.187-1.688-3.907-5.573-6.642-10.099-6.642-4.367 0-8.129 2.552-9.905 6.24.948.996 1.996 1.916 2.953 3.15.228-1.708 1.372-3.39 2.952-3.39 1.768 0 3 2.108 3 4h-2c0-1.054-.679-2-1-2s-1 .946-1 2h-1.508c.766 1.114 1.508 2.561 1.508 4 0 .207-.034.406-.061.606.06.061 1.071 1.076 1.091 1.099.154-2.068 1.862-3.704 3.97-3.704 2.209 0 4 1.791 4 4h-7.695c.884.976 2.695 3.249 2.695 5.5 0 .153-.03.298-.045.447.344.032.692.053 1.045.053 3.084 0 5.868-1.273 7.866-3.318-1.674-.656-2.866-2.278-2.866-4.182z"/></svg>