<svg id="Layer_1" viewBox="0 0 24 24" xmlns="http://www.w3.org/2000/svg" data-name="Layer 1"><path d="m23.318 13.682c-.907-.907-2.383-.907-3.29 0l-7.028 7.027v3.291h3.29l7.028-7.027c.439-.44.682-1.024.682-1.646s-.242-1.206-.682-1.645zm-12.318 10.32h-11v-13.926c0-.959.433-1.849 1.188-2.439l8.904-6.976c1.123-.881 2.692-.881 3.815 0l8.905 6.977c.754.59 1.188 1.479 1.188 2.439v1.609c-1.536-.981-3.548-.883-5 .267v-.237c.05-1.75-1.793-3.138-3.46-2.61l-2.572.735c-.361.104-.689.279-.968.508-.279-.229-.607-.404-.968-.508l-2.572-.735c-1.668-.528-3.51.86-3.46 2.61v6.752l6 1.715zm5.716-12.857c.181.136.284.344.284.57v2.166l-4 4v-5.431c0-.317.213-.6.518-.687l2.572-.735c.216-.062.446-.02.626.117zm-5.716 1.305v5.626l-4-1.116v-5.245c-.013-.46.472-.826.91-.687l2.572.735c.305.087.518.37.518.687z"/></svg>