<?xml version="1.0" encoding="UTF-8"?>
<svg xmlns="http://www.w3.org/2000/svg" id="Layer_1" data-name="Layer 1" viewBox="0 0 24 24">
  <path d="M17.5,17c-2.869,0-4.576-1.229-5.5-2.252-.924,1.023-2.631,2.252-5.5,2.252-2.764,0-4.87-2.47-5.833-4.585L.023,11H1.577c1.705,0,2.153-.412,3.133-1.314,.397-.365,.847-.779,1.452-1.238,1.191-.901,2.024-1.448,3.558-1.448,.918,0,1.735,.397,2.28,.749,.545-.352,1.362-.749,2.28-.749,1.533,0,2.366,.547,3.557,1.447h0c.605,.459,1.055,.874,1.452,1.239,.979,.902,1.428,1.314,3.133,1.314h1.554l-.644,1.415c-.963,2.115-3.069,4.585-5.833,4.585Z"/>
</svg>
