<svg id="Layer_1" viewBox="0 0 24 24" xmlns="http://www.w3.org/2000/svg" data-name="Layer 1"><path d="m13 18.184v-3.326c1.722-.446 3-1.997 3-3.859 0-2.316-2.737-4.07-4-5.333-1.214 1.402-.97 4-1.812 4-.404 0-.858-1.391-.858-1.391-.663.685-1.33 1.574-1.33 2.725 0 1.862 1.278 3.413 3 3.859v3.326c-.847.302-1.514.969-1.816 1.816h-9.184v2h9.184c.414 1.161 1.514 2 2.816 2s2.402-.839 2.816-2h9.184v-2h-9.184c-.302-.847-.969-1.514-1.816-1.816zm-.117-4.55c-.244.244-.564.366-.883.366-.32 0-.64-.122-.884-.366-.488-.489-.488-1.28 0-1.767l.884-.884.884.884c.488.489.488 1.279 0 1.767zm-10.883-3.634h-2v-4h2zm20-4h2v4h-2zm-16-2h-6v-1c0-1.654 1.346-3 3-3h3zm18-1v1h-6v-4h3c1.654 0 3 1.346 3 3zm-20 3h4.75l-.856.883c-.391.404-1.442 1.505-1.779 3.117h-2.115zm4-2v-4h8v4zm7.354 2h4.646v4h-2.102c-.337-1.649-1.457-2.967-2.544-4zm2.556 6h6.09v4h-8.69c1.354-.899 2.319-2.334 2.6-4zm-9.22 4h-8.69v-4h6.09c.281 1.666 1.246 3.101 2.6 4z"/></svg>