<svg id="Layer_1" viewBox="0 0 24 24" xmlns="http://www.w3.org/2000/svg" data-name="Layer 1"><path d="m4.055 10.033c-.239-1.156.322-2.213 1.231-2.718.454-.253.714-.794.714-1.314 0-3.31 2.691-6.001 6-6.001s6 2.691 6 6c0 .52.259 1.061.714 1.314.909.506 1.47 1.562 1.231 2.718-.249 1.209-1.418 1.992-2.652 1.965-1.173-.026-2.052-.273-2.704-.593-.785.378-1.661.596-2.589.596s-1.804-.218-2.589-.596c-.651.32-1.53.567-2.704.593-1.234.027-2.403-.756-2.652-1.965zm4.945 7.455 3-2.25 3 2.25v-3.487h-6zm-2-3.386c-2.279.465-4 2.484-4 4.899v5h8v-5.513l-4 3zm10 0v7.386l-4-3v5.513h8v-5c0-2.414-1.721-4.434-4-4.899z"/></svg>