<svg id="Layer_1" viewBox="0 0 24 24" xmlns="http://www.w3.org/2000/svg" data-name="Layer 1"><path d="m22.641 3.885c.219.32.359.698.359 1.115 0 .872-.564 1.607-1.344 1.88.217.32.344.705.344 1.12 0 1.103-.897 2-2 2h-16c-1.103 0-2-.897-2-2 0-.414.127-.8.344-1.12-.78-.273-1.344-1.008-1.344-1.88 0-.417.14-.795.359-1.115-.788-.269-1.359-1.008-1.359-1.885 0-1.103.897-2 2-2h4.5c2.404 0 2.711 2.198 2.764 2.5.299 1.702.896 4.023 2.736 5.5 1.84-1.477 2.437-3.798 2.736-5.5.053-.302.361-2.5 2.764-2.5h4.5c1.103 0 2 .897 2 2 0 .878-.572 1.617-1.359 1.885zm-3.641 11.115v9h-14v-9c0-1.654 1.346-3 3-3h8c1.654 0 3 1.346 3 3zm-5 0h-4v2h4z"/></svg>