<svg id="Layer_1" viewBox="0 0 24 24" xmlns="http://www.w3.org/2000/svg" data-name="Layer 1"><path d="m24 16v8h-1.6l-1.8-4.054v4.054h-1.6v-8h1.6v.009l1.8 4.054v-4.063zm-7.834 6.6h-2.379l-.309 1.4h-1.584l1.365-6.418c.168-.864.87-1.583 1.742-1.581.894.006 1.563.69 1.753 1.627l1.339 6.373h-1.632l-.295-1.4zm-.337-1.6-.641-3.044c-.047-.231-.144-.334-.168-.349l-.017-.006c-.071.042-.146.146-.176.296l-.686 3.104h1.688zm-6.428-5v5.7c0 .386-.314.7-.7.7s-.7-.314-.7-.7v-.7h-1.6v.7c0 1.269 1.031 2.3 2.3 2.3s2.3-1.031 2.3-2.3v-5.7zm14.6-8v-3c0-1.657-1.343-3-3-3h-3v-2h-2v2h-8.001v-2h-2v2h-3c-1.657 0-3 1.343-3 3v3h24zm-24.001 2v14h5.157c-.374-.586-.604-1.268-.657-2v-3h3v-5h16.5v-4z"/></svg>