<svg id="Layer_1" viewBox="0 0 24 24" xmlns="http://www.w3.org/2000/svg" data-name="Layer 1"><path d="m0 4.5c0-2.485 3.806-4.5 8.5-4.5s8.5 2.015 8.5 4.5-3.806 4.5-8.5 4.5-8.5-2.015-8.5-4.5zm8.5 9.5c1.612 0 3.084-.202 4.338-.527.086-.124.179-.248.26-.373.88-1.347 2.319-2.079 3.806-2.093.057-.147.096-.295.096-.44v-2.167c-1.876 1.596-4.92 2.6-8.5 2.6s-6.624-1.004-8.5-2.6v2.167c0 1.621 3.635 3.433 8.5 3.433zm13.128 1.165-.907-.488 3.279-6.959-1.812-.846-3.231 6.855-.774-.417c-1.195-.646-2.658-.268-3.407.879-1.036 1.631-2.553 3.264-4.066 4.639 1.147 1.054 2.309 1.973 3.774 2.804 1.1-.493 2.649-1.422 4.017-3.132 0 1.686-.48 3.27-1.056 4.574.796.326 1.617.589 2.427.823l.42-.533c.946-1.199 2.175-3.104 2.653-5.371.236-1.122-.306-2.285-1.316-2.827zm-14.059 3.812c.6-.564 2.799-2.532 3.318-3.112-.763.086-1.559.135-2.387.135-3.58 0-6.624-.839-8.5-2.174v1.74c0 1.516 3.179 3.198 7.569 3.41zm2.507 1.961c-.513.037-1.036.062-1.576.062-3.58 0-6.624-.839-8.5-2.174v.96c0 2.767 4.276 4.214 8.5 4.214 1.711 0 3.425-.241 4.865-.708-1.28-.751-2.351-1.514-3.289-2.354z"/></svg>