<svg id="Layer_1" viewBox="0 0 24 24" xmlns="http://www.w3.org/2000/svg" data-name="Layer 1"><path d="m11 21.414-1 1-1-1v-18.828l1-1 1 1zm13-18.414v18h-4.586l-1.414 1.414-1-1v-18.828l1-1 1.414 1.414zm-1 13.5c0-.828-.672-1.5-1.5-1.5s-1.5.672-1.5 1.5.672 1.5 1.5 1.5 1.5-.672 1.5-1.5zm0-4.5c0-.828-.672-1.5-1.5-1.5s-1.5.672-1.5 1.5.672 1.5 1.5 1.5 1.5-.672 1.5-1.5zm0-4.5c0-.828-.672-1.5-1.5-1.5s-1.5.672-1.5 1.5.672 1.5 1.5 1.5 1.5-.672 1.5-1.5zm-16-4.914-1-1-1.414 1.414h-4.586v4h2v2h-2v2h2v2h-2v2h2v2h-2v4h4.586l1.414 1.414 1-1zm8 0-1-1-1 1v18.828l1 1 1-1z"/></svg>