<svg id="Layer_1" viewBox="0 0 24 24" xmlns="http://www.w3.org/2000/svg" data-name="Layer 1"><path d="m24 18.823v5.177h-9.656l-1.777-1.711c-.831-.831-.748-2.231.249-2.949.79-.567 1.884-.393 2.562.285l.622.626v-6.75c0-.827.673-1.5 1.5-1.5s1.5.673 1.5 1.5v3.323l5 2zm-11-1.718v-12.259c0-1.935 1.381-3.589 3.284-3.936l4.122-.866c.937-.171 1.83.064 2.516.636s1.078 1.411 1.078 2.303v13.685l-3-1.2v-1.969c0-1.93-1.57-3.5-3.5-3.5s-3.5 1.57-3.5 3.5v3.495c-.344-.012-.676.033-1 .11zm2-9.826 7-1.784v-2.033l-7 1.784zm-3.666 16.6-11.334-2.061v-18.834c0-.892.393-1.732 1.078-2.303.684-.572 1.577-.81 2.458-.649l4.237.891c1.846.334 3.227 1.989 3.227 3.923v13.455c-.567.636-.918 1.441-.987 2.302-.093 1.153.323 2.283 1.167 3.127l.155.149zm-4.334-6.997-5-1.144v2.033l5 1.144zm2-3.636-7-1.508v2.033l7 1.508zm0-4-7-1.508v2.033l7 1.508zm0-4-7-1.508v2.033l7 1.508z"/></svg>