<svg id="Layer_1" viewBox="0 0 24 24" xmlns="http://www.w3.org/2000/svg" data-name="Layer 1"><path d="m15.465 10.536c.943.944 2.199 1.464 3.535 1.464s2.59-.52 3.535-1.464c1.949-1.95 1.949-5.122-.008-7.08l-3.527-3.457-3.535 3.464c-1.949 1.95-1.949 5.122 0 7.071z"/><path d="m17 14v-.29c-1.849-.544-3.513-1.965-4.319-3.71h-1.681v-4h-2v4h-3v2h1v2c0 2.206 1.794 4 4 4v2.77c0 .383-.175.739-.48.975-.299.232-.677.313-1.044.216-4.333-1.126-7.478-5.315-7.476-9.975-.038-2.563 1.036-5.129 2.946-7.04 1.91-1.91 4.461-3.009 7.04-2.946v-.003c.005 0 .009.003.015.003.658 0 1.301.068 1.924.19.043-.046.082-.095.127-.14l1.535-1.502c-1.129-.354-2.343-.548-3.586-.548-3.154 0-6.183 1.246-8.468 3.532-2.292 2.29-3.533 5.314-3.533 8.468 0 5.541 3.771 10.544 8.972 11.896.27.07.757.104 1.028.104.701 0 1.17-.231 1.743-.674.799-.617 1.257-1.549 1.257-2.557v-2.77c2.206 0 4-1.794 4-4z"/><path d="m23.995 11.899c-.016.016-.03.034-.046.05-.602.602-1.297 1.074-2.05 1.418-.531 3.861-3.268 7.027-6.899 8.172v2.066c5.167-1.337 9-6.026 9-11.605 0-.034-.005-.067-.005-.101z"/></svg>