<svg id="Layer_1" viewBox="0 0 24 24" xmlns="http://www.w3.org/2000/svg" data-name="Layer 1"><path d="m10.035 12c-.629-.55-1.035-1.349-1.035-2.25 0-.863.502-1.737 1-2.25 0 0 0 1.474.615 1.474.632 0 .474-2.359 1.385-3.41.948.948 3 2.449 3 4.186 0 .901-.406 1.7-1.035 2.25h-3.931zm13.965 2.29s-1.244-.688-3.121-1.008c1.011-.131 2.176-.567 2.673-1.81.962-2.408.077-5.619.077-5.619s-1.306.49-2.641 1.75c.689-1.063 1.374-2.62.703-3.969-1.151-2.315-4.191-3.629-4.191-3.629s-1.385 3.857.642 7.863c.815 4.896-.643 7.945-2.047 9.661-.912 1.114-1.976 1.877-2.976 2.335l.632-5.864h-3.5l.632 5.864c-1.001-.459-2.065-1.222-2.976-2.335-1.404-1.717-2.862-4.765-2.047-9.661 2.025-4.006.64-7.863.64-7.863s-3.04 1.314-4.191 3.63c-.671 1.35.015 2.906.703 3.969-1.335-1.26-2.641-1.75-2.641-1.75s-.885 3.211.077 5.619c.496 1.243 1.661 1.679 2.673 1.81-1.877.32-3.121 1.008-3.121 1.008-.048-.003 2.134 3.083 4.471 3.615-1.577.945-2.471 1.974-2.471 1.974s1.984 2.062 4.928 2.078c-.618 1.013-.883 1.763-.883 1.763s3.426.774 5.955-.253c2.529 1.027 5.955.253 5.955.253s-.265-.75-.883-1.763c2.943-.016 4.928-2.078 4.928-2.078s-.894-1.029-2.471-1.974c2.323-.52 4.539-3.635 4.471-3.615z"/></svg>