<svg id="Layer_1" viewBox="0 0 24 24" xmlns="http://www.w3.org/2000/svg" data-name="Layer 1"><path d="m9.006 9.592-6.739 6.739c-1.415-1.726-2.267-3.93-2.267-6.331 0-5.179 3.957-9.449 9.006-9.95v9.541zm5.994-.592c-1.103 0-2 .897-2 2v1h6v-1c0-1.103-.897-2-2-2zm6-5c1.105 0 2-.895 2-2s-.895-2-2-2-2 .895-2 2 .895 2 2 2zm-7 2c0 1.105.895 2 2 2s2-.895 2-2-.895-2-2-2-2 .895-2 2zm8-1h-2c-.047 0-.091.011-.137.014.081.317.137.644.137.986 0 .732-.211 1.41-.555 2h4.555v-1c0-1.103-.897-2-2-2zm-2.841 9h-8.159v-3c0-1.256.594-2.365 1.503-3.099-.31-.568-.503-1.209-.503-1.901 0-2.202 1.788-3.992 3.988-3.999-1.418-1.064-3.125-1.764-4.982-1.95v10.369l-7.323 7.323c1.724 1.409 3.923 2.257 6.318 2.257s4.596-.854 6.319-2.267l6.224 6.224 1.414-1.414-6.223-6.223c.574-.701 1.057-1.479 1.425-2.32z"/></svg>