<svg id="Layer_1" viewBox="0 0 24 24" xmlns="http://www.w3.org/2000/svg" data-name="Layer 1"><path d="m10 4c0 .551-.449 1-1 1h-1c-.551 0-1-.449-1-1s.449-1 1-1h1c.551 0 1 .449 1 1zm3 8h-9v-10c0-1.105.895-2 2-2h5c1.105 0 2 .895 2 2zm-2-8c0-1.103-.897-2-2-2h-1c-1.103 0-2 .897-2 2s.897 2 2 2v4h2v-1h-1v-3c1.103 0 2-.897 2-2zm10.5 12c-1.217 0-2.782.221-4.5.518v-9.518c0-1.302-.839-2.402-2-2.816v9.816h-13v-9.816c-1.161.414-2 1.514-2 2.816v17h17v-2.815c-.765.073-1.487.161-2.134.281-3.229.579-6.556.526-8.866.534v-2c2.159 0 5.683.024 8.5-.5 1.539-.287 3.161-.408 4.562-.46.248 1.119 1.245 1.96 2.438 1.96 1.378 0 2.5-1.122 2.5-2.5s-1.122-2.5-2.5-2.5z"/></svg>