<svg id="Layer_1" viewBox="0 0 24 24" xmlns="http://www.w3.org/2000/svg" data-name="Layer 1"><path d="m3.771 21.643-2.325 2.325-1.413-1.414 2.325-2.325 1.414 1.414zm19.969-15.63c.5-4.088.21-4.458-.028-5.725-1.266-.237-1.64-.53-5.767-.021-1.349.259-2.779 1.02-3.726 1.6l-.654-1.69-.941.38c-.087.035-1.704.703-3.184 2.272l-.504-1.401-1.102.951c-.329.283-.646.579-.95.882-.967.966-1.986 2.597-2.358 4.586l-1.187-.62-.38 1.096c-1.513 4.365-.861 10.124-.603 11.906l13.86-13.859 1.414 1.414-13.859 13.859c.902.13 2.818.36 5.073.36 2.191 0 4.686-.22 6.833-.963l1.097-.38-.62-1.188c1.987-.372 3.619-1.391 4.586-2.357.304-.304.598-.62.883-.949l.952-1.102-1.411-.508c1.574-1.505 2.232-3.174 2.267-3.264l.37-.958-1.649-.585c.579-.951 1.328-2.376 1.59-3.736z"/></svg>