<svg id="Layer_1" viewBox="0 0 24 24" xmlns="http://www.w3.org/2000/svg" data-name="Layer 1"><path d="m22 11.361v-3.363h-2.114l-.73 2.423c-.319 1.058-1.435 1.657-2.492 1.338l-2.519-.76h-4.302l-2.508.756c-1.058.319-2.174-.28-2.492-1.338l-.729-2.42h-2.113v3.363c-.933.461-2 1.44-2 3.137 0 1.852 1.446 3.373 3.268 3.492 1.406 3.064 4.866 6.009 8.732 6.009s7.326-2.945 8.732-6.009c1.821-.12 3.268-1.64 3.268-3.492 0-1.697-1.067-2.676-2-3.137zm-12.5 4.638c-.828 0-1.5-.672-1.5-1.5s.672-1.5 1.5-1.5 1.5.672 1.5 1.5-.672 1.5-1.5 1.5zm5 0c-.828 0-1.5-.672-1.5-1.5s.672-1.5 1.5-1.5 1.5.672 1.5 1.5-.672 1.5-1.5 1.5zm-1.5-6.999h-2v-2h2zm0-4h-2v-5h2zm-6.242 4.841-.58-1.925 1.914-.577.58 1.925zm-1.157-3.84-1.443-4.788 1.914-.577 1.443 4.788zm11.64 3.844-1.914-.577.581-1.929 1.914.577zm1.158-3.844-1.914-.577 1.443-4.788 1.914.577z"/></svg>