<svg id="Layer_1" viewBox="0 0 24 24" xmlns="http://www.w3.org/2000/svg" data-name="Layer 1"><path d="m24 5h-1.5v-1.4c0-1.671-1.13-3.191-2.767-3.525-2.249-.459-4.233 1.256-4.233 3.425v1.5h-1.5v6c0 1.105.895 2 2 2h6c1.105 0 2-.895 2-2zm-4 5h-2v-2h2zm.5-5h-3v-1.5c0-.826.674-1.5 1.5-1.5s1.5.674 1.5 1.5zm-8.5 3v3c0 .342.057.669.138.986-1.144.111-2.144-.845-2.138-1.986 0-1.103.897-2 2-2zm11.687 6.614c-.742 3.306-2.834 6.107-5.687 7.762v-3.376c0-1.654-1.346-3-3-3h-6c-1.654 0-3 1.346-3 3v3.376c-3.581-2.078-6-5.946-6-10.376 0-6.617 5.383-12 12-12 .881 0 1.739.102 2.566.283-.579.796-.954 1.724-1.044 2.717h-1.522v3c-2.206 0-4 1.794-4 4s1.794 4 4 4c.405 0 .789-.078 1.158-.191.726.734 1.731 1.191 2.842 1.191h6c.605 0 1.172-.145 1.687-.386zm-7.687 4.386v4.3c-1.253.445-2.596.7-4 .7s-2.747-.255-4-.7v-4.3c0-.552.449-1 1-1h6c.551 0 1 .448 1 1z"/></svg>