<svg id="Layer_1" viewBox="0 0 24 24" xmlns="http://www.w3.org/2000/svg" data-name="Layer 1"><path d="m17.357 7.213c.414.415.643.98.643 1.594 0 1.781-1.204 4.103-3.142 6.058-1.945 1.963-4.208 3.135-6.052 3.135-.615 0-1.181-.228-1.594-.643l-.799-.798 1.889-1.888 1.343 1.343c1.513-.555 3.002-1.364 3.987-2.373 1.051-1.004 1.845-2.476 2.372-4.004l-1.334-1.334 1.888-1.888.799.798zm6.643-4.213v21h-24v-21c0-1.654 1.346-3 3-3h18c1.654 0 3 1.346 3 3zm-4 5.807c0-1.147-.437-2.216-1.229-3.008l-2.213-2.213-4.716 4.717 1.816 1.817c-.385.839-.856 1.529-1.432 2.098-.567.56-1.264 1.032-2.116 1.434l-1.809-1.81-4.717 4.717 2.212 2.211c.789.793 1.858 1.23 3.009 1.23 2.401 0 5.125-1.358 7.472-3.727 2.33-2.352 3.722-5.143 3.722-7.466z"/></svg>