<svg id="Layer_1" viewBox="0 0 24 24" xmlns="http://www.w3.org/2000/svg" data-name="Layer 1"><path d="m3.229 1.392c-.497-.535-.122-1.388.507-1.392h17.264v2h-6.207c-1.861 1.529-3.756 2.037-5.462 1.998-3.077-.121-5.25-1.666-6.102-2.606zm20.771 12.608h-24v2h6.943c-2.24 0-4.178 1.494-4.79 3.625-.039.102-1.153 4.375-1.153 4.375h16.31l5.002-4.481c.824-.732.905-1.991.182-2.822-.729-.838-2-.927-2.838-.197l-3.333 2.934c-.524 1.236-1.659 2.172-3.05 2.371l-4.798.686-.283-1.98 4.798-.686c.941-.134 1.65-.952 1.65-1.902 0-1.06-.862-1.922-1.922-1.922h11.281v-2zm-11.5-4.5c0 1.378 1.121 2.5 2.5 2.5h6v-2h-6c-.275 0-.5-.224-.5-.5v-.5h6.5v-2h-6.5v-.5c0-.276.225-.5.5-.5h6v-2h-6c-1.379 0-2.5 1.122-2.5 2.5v.5h-9.5v2h9.5z"/></svg>