<svg id="Layer_1" viewBox="0 0 24 24" xmlns="http://www.w3.org/2000/svg" data-name="Layer 1"><path d="m8 0v10h16v-10zm3 4.5c-.828 0-1.5-.672-1.5-1.5s.672-1.5 1.5-1.5 1.5.672 1.5 1.5-.672 1.5-1.5 1.5zm0 4c-.828 0-1.5-.672-1.5-1.5s.672-1.5 1.5-1.5 1.5.672 1.5 1.5-.672 1.5-1.5 1.5zm10-4c-.828 0-1.5-.672-1.5-1.5s.672-1.5 1.5-1.5 1.5.672 1.5 1.5-.672 1.5-1.5 1.5zm0 4c-.828 0-1.5-.672-1.5-1.5s.672-1.5 1.5-1.5 1.5.672 1.5 1.5-.672 1.5-1.5 1.5zm-5-1c-1.383 0-2.5-1.117-2.5-2.5s1.117-2.5 2.5-2.5 2.5 1.117 2.5 2.5-1.117 2.5-2.5 2.5zm-.14 12.5h8.14v1c0 1.657-1.343 3-3 3h-18c-1.657 0-3-1.343-3-3v-1h8.145l.846 1h6.023zm-6.778-2h-7.082v-12h4v6h16v6h-7.068l-.846 1h-4.157l-.846-1z"/></svg>