<?xml version="1.0" encoding="UTF-8"?>
<svg xmlns="http://www.w3.org/2000/svg" id="Layer_1" data-name="Layer 1" viewBox="0 0 24 24">
  <path d="M18,0c-3.314,0-6,2.686-6,6s2.686,6,6,6,6-2.686,6-6S21.314,0,18,0Zm-2,9.056V2.944l5.5,3.056-5.5,3.056Zm8,10.944V11.279c-1.466,1.665-3.607,2.721-6,2.721-4.418,0-8-3.582-8-8,0-1.459,.397-2.822,1.079-4H2.5C1.122,2,0,3.122,0,4.5v15.5H11v2H6v2h12v-2h-5v-2h11ZM6,7c1.381,0,2.5,1.119,2.5,2.5s-1.119,2.5-2.5,2.5-2.5-1.119-2.5-2.5,1.119-2.5,2.5-2.5Zm4,10h-2v-1.5c0-.275-.224-.5-.5-.5h-3c-.276,0-.5,.225-.5,.5v1.5H2v-1.5c0-1.379,1.122-2.5,2.5-2.5h3c1.378,0,2.5,1.121,2.5,2.5v1.5Z"/>
</svg>
