<svg id="Layer_1" viewBox="0 0 24 24" xmlns="http://www.w3.org/2000/svg" data-name="Layer 1"><path d="m22.363 1.258-3.863-1.258-3.863 1.258c-.979.324-1.637 1.234-1.637 2.265v3.477c0 3.522 3.561 5.576 4.651 6.122l.783.392.812-.327c1.115-.449 4.754-2.221 4.754-6.187v-3.477c0-1.031-.658-1.941-1.637-2.265zm-3.363 5.242v3h1v1h-2v-4c-1.103 0-2-.897-2-2s.897-2 2-2h1c1.103 0 2 .897 2 2s-.897 2-2 2zm1-2c0 .551-.449 1-1 1h-1c-.551 0-1-.449-1-1s.449-1 1-1h1c.551 0 1 .449 1 1zm4 14.5v-6.732c-1.423 1.606-3.217 2.456-4.008 2.774l-1.646.664-1.59-.795c-1.351-.677-5.757-3.244-5.757-7.911v-3.477c0-1.419.678-2.712 1.774-3.523h-9.773c-1.654 0-3 1.346-3 3v16h11v3h-5v2h12v-2h-5v-3zm-17-12c1.105 0 2 .895 2 2s-.895 2-2 2-2-.895-2-2 .895-2 2-2zm4 9h-2v-1.5c0-.275-.225-.5-.5-.5h-3c-.275 0-.5.225-.5.5v1.5h-2v-1.5c0-1.378 1.121-2.5 2.5-2.5h3c1.379 0 2.5 1.122 2.5 2.5z"/></svg>