<svg id="Layer_1" viewBox="0 0 24 24" xmlns="http://www.w3.org/2000/svg" data-name="Layer 1"><path d="m24 2.537c0 .678-.264 1.316-.744 1.795l-7.667 7.667h-3.59v-3.59l7.667-7.667c.99-.99 2.6-.99 3.59 0 .479.479.744 1.117.744 1.795zm-7.583 11.463h-6.418v-6.419l7.528-7.528c-.172-.031-.347-.053-.527-.053h-14.5c-1.654 0-2.5 1.346-2.5 3v21h20v-13.583zm-9.651 4.472c-.352.351-.809.528-1.266.528-.44 0-.881-.164-1.229-.493l-1.431-1.354 1.375-1.453 1.281 1.214 2.548-2.548 1.414 1.414zm0-4.999c-.352.351-.808.527-1.265.527-.441-.001-.882-.165-1.23-.494l-1.431-1.353 1.375-1.453 1.282 1.213 2.547-2.547 1.414 1.414zm0-5c-.352.351-.808.527-1.265.527-.441-.001-.882-.165-1.23-.494l-1.431-1.353 1.375-1.453 1.282 1.213 2.547-2.547 1.414 1.414zm10.234 9.527h-6.963l2.042-2h4.921z"/></svg>