<svg id="Layer_1" viewBox="0 0 24 24" xmlns="http://www.w3.org/2000/svg" data-name="Layer 1"><path d="m8.311 14 1.963-1.963h.725v1.963h2v-1.963h.738l1.963 1.963 1.198-1.198c.307-1.792-.078-3.624-1.416-5.013-.155-2.507-1.01-4.79-2.283-7.008-.211-.458-.701-.781-1.175-.781s-1.027.309-1.282.78c-1.271 2.218-2.065 4.468-2.225 7.006-1.345 1.406-1.706 3.243-1.401 5.021l1.193 1.193zm3.689-8c.828 0 1.5.672 1.5 1.5s-.672 1.5-1.5 1.5-1.5-.672-1.5-1.5.672-1.5 1.5-1.5zm12 14v1c0 1.657-1.343 3-3 3h-18c-1.657 0-3-1.343-3-3v-1h8.145l.846 1h6.023l.846-1zm-14.918-2h-7.082v-12h4.715c-.054.323-.1.647-.134.973-1.323 1.692-1.831 3.855-1.435 6.172l.107.627 2.23 2.228h9.046l2.233-2.233.107-.626c.397-2.314-.116-4.476-1.449-6.169-.035-.325-.105-.648-.16-.971h4.739v12h-7.068l-.846 1h-4.157l-.846-1z"/></svg>