<svg id="Layer_1" viewBox="0 0 24 24" xmlns="http://www.w3.org/2000/svg" data-name="Layer 1"><path d="m20.978 15.879 2.633 1.013c-.129 1.048-.338 1.723-.655 2.579 0 0-2.652-.532-4.475-.512-.363.004-.734.033-1.103.076l-4.379 4.379v.586h-2v-.586l-4.379-4.379c-.369-.043-.74-.072-1.103-.076-1.822-.02-4.475.512-4.475.512-.317-.856-.526-1.532-.655-2.579l2.633-1.013s-1.402-1.052-3.02-1.44c-.006-1.022.152-2.758.239-3.199.441-.087 2.177-.245 3.199-.239.388 1.618 1.44 3.022 1.44 3.022l1.013-2.633c1.048.129 1.723.338 2.579.655 0 0-.532 2.652-.512 4.475.004.363.033.734.076 1.103l2.965 2.965v-8.949c-.302-.4-.629-.784-.972-1.135-1.456-1.488-4.028-3.201-4.028-3.201.435-.948.812-1.662 1.555-2.613l2.945 1.309s-.284-1.983-1.278-3.604c.822-.83 2.352-2.104 2.779-2.39.427.286 1.957 1.561 2.778 2.391-.993 1.621-1.278 3.604-1.278 3.604l2.945-1.309c.742.95 1.119 1.665 1.555 2.613 0 0-2.572 1.713-4.028 3.201-.343.35-.67.735-.972 1.135v8.947l2.965-2.965c.043-.369.072-.74.076-1.103.02-1.822-.512-4.475-.512-4.475.856-.317 1.532-.526 2.579-.655l1.013 2.633s1.052-1.404 1.44-3.022c1.022-.006 2.758.152 3.199.239.087.441.245 2.177.239 3.199-1.618.388-3.022 1.44-3.022 1.44z"/></svg>