<svg id="Layer_1" viewBox="0 0 24 24" xmlns="http://www.w3.org/2000/svg" data-name="Layer 1"><path d="m23.999 16.182c-.025.766-.358 1.505-.914 2.029-.389.366-.872.607-1.392.718.187.636.307 1.293.307 1.964v3.107h-2v-3.107c0-.733-.179-1.446-.484-2.102-.604-.136-1.242-.196-1.813-.314.188.682.298 1.387.298 2.101v3.422h-2v-3.422c0-.91-.226-1.8-.62-2.61-.661-.169-1.272-.351-1.845-.541.317.779.465 1.662.465 2.448v4.125h-2v-4.125c0-1.27-.554-2.517-1.288-3.614-1.226-.631-2.139-1.304-2.821-1.965-1.086.434-2.27.705-3.891.705-1.072 0-2.112-.187-2.692-.578-1.292-.87-1.667-2.581-.912-3.914-.244-.267-.397-.619-.397-1.009 0-.828.672-1.5 1.5-1.5.654 0 1.205.421 1.41 1.005.588-.012 1.185.146 1.709.499.493.332.895.782 1.332 1.297-.041-.419-.078-.765-.045-1.13.133-1.101.782-1.98 1.742-2.409.176-.079.358-.12.54-.163.253.882.756 1.684 1.477 2.294 1.574 1.332 7.03 3.453 9.783 4.358.502.165 1.023.248 1.552.248.715 0 1.058.018 1.693-.269.846.615 1.333 1.572 1.306 2.451zm-1.217-11.339c.803-1.202 1.237-2.589 1.218-3.962l-.013-.881h-4.01c-2.354 0-3.709.896-4.42 1.616.405.654 3.636 2.769 7.225 3.227zm-2.638 7.009c.311.075.617.148.929.148 1.558.033 2.927-1 2.927-2.894 0-1.308-1.047-2.281-2.35-2.568-3.654-.808-5.832-2.084-7.327-3.069-.829-.546-1.855-.62-2.745-.202-.868.407-1.448 1.218-1.561 2.225-.1.903.252 1.79.941 2.374 1.201 1.017 5.962 3.21 9.186 3.985zm-15.537 5.074c-1.234 1.234-2.606 4.841-2.606 4.841s1.611-.863 3.403-1.169c-.305 1.792-1.169 3.403-1.169 3.403s3.607-1.373 4.841-2.606c1.234-1.234 1.234-3.234 0-4.468s-3.234-1.234-4.468 0z"/></svg>