<svg id="Layer_1" viewBox="0 0 24 24" xmlns="http://www.w3.org/2000/svg" data-name="Layer 1"><path d="m17 15h-10v-2h10zm4.5-6c1.381 0 2.5-1.119 2.5-2.5s-1.119-2.5-2.5-2.5-2.5 1.119-2.5 2.5 1.119 2.5 2.5 2.5zm-19 0c1.381 0 2.5-1.119 2.5-2.5s-1.119-2.5-2.5-2.5-2.5 1.119-2.5 2.5 1.119 2.5 2.5 2.5zm-2.5 15h5v-2h-5zm21.5-14c-1.381 0-2.5 1.119-2.5 2.5v5.5h-4v6h2v-4h4c1.657 0 3-1.343 3-3v-4.5c0-1.381-1.119-2.5-2.5-2.5zm-16.5 2.5c0-1.381-1.119-2.5-2.5-2.5s-2.5 1.119-2.5 2.5v4.5c0 1.657 1.343 3 3 3h4v4h2v-6h-4zm14 11.5h5v-2h-5zm-4-22v-.5c0-.827-.673-1.5-1.5-1.5h-3c-.827 0-1.5.673-1.5 1.5v.5c-1.103 0-2 .897-2 2h10c0-1.103-.897-2-2-2zm-2 4v2h-2v-2h-4v4h10v-4z"/></svg>