<svg id="Layer_1" viewBox="0 0 24 24" xmlns="http://www.w3.org/2000/svg" data-name="Layer 1"><path d="m8.781 13.219c-1.524-1.524-.604-4.914.92-6.437 1.524-1.524 3.074-.604 4.598.92s2.443 3.074.92 4.598-4.914 2.443-6.437.92zm8.358-5.209 4.885-5.716-2.294-2.294-5.814 4.819c.574.36 1.164.835 1.797 1.468.606.606 1.07 1.172 1.426 1.723zm.809 1.99c.212 1.34-.243 2.641-1.316 3.713-1.044 1.045-2.639 1.85-4.265 2.154-.482.091-.95.135-1.398.135-1.452 0-2.702-.468-3.603-1.369-1.107-1.107-1.551-2.744-1.286-4.633h-6.08v1.62c.426.915 1.273 2.681 3.262 4.694l-2.667 3.331 1.561 1.25 2.625-3.279c.632.468 1.328.9 2.101 1.262l-1.327 3.884 1.893.646 1.316-3.851c.699.192 1.443.325 2.237.388v4.055h2v-4.055c.794-.062 1.538-.196 2.237-.388l1.316 3.851 1.893-.646-1.328-3.884c.773-.362 1.468-.794 2.101-1.262l2.625 3.279 1.561-1.25-2.667-3.331c1.99-2.015 2.835-3.776 3.262-4.693v-1.621h-6.052z"/></svg>