<svg id="Layer_1" viewBox="0 0 24 24" xmlns="http://www.w3.org/2000/svg" data-name="Layer 1"><path d="m6.894 21.447h15.319v2.043h-15.319zm-3.575-.511c-.846 0-1.532.686-1.532 1.532s.686 1.532 1.532 1.532 1.532-.686 1.532-1.532-.686-1.532-1.532-1.532zm3.575-2.553h15.319v-2.043h-15.319zm-3.575-2.553c-.846 0-1.532.686-1.532 1.532s.686 1.532 1.532 1.532 1.532-.686 1.532-1.532-.686-1.532-1.532-1.532zm14.848-5.617c-3.379 0-6.128-2.749-6.128-6.128 0-1.483.53-2.844 1.41-3.905l-.017-.028c-.456-.09-.928-.152-1.432-.152-3.319 0-5.662 2.007-6.428 5.507-.315 1.441-.676 3.047-.961 4.304-.192.846.008 1.72.55 2.398.542.679 1.351 1.069 2.221 1.069h2.576c0 1.128.914 2.043 2.043 2.043s2.043-.914 2.043-2.043h2.576c.87 0 1.679-.389 2.221-1.069.484-.605.676-1.367.579-2.125-.404.084-.823.13-1.252.13zm-4.046-6.128c0-2.231 1.815-4.046 4.046-4.046s4.046 1.815 4.046 4.046-1.815 4.046-4.046 4.046-4.046-1.815-4.046-4.046z"/></svg>