<svg id="Layer_1" viewBox="0 0 24 24" xmlns="http://www.w3.org/2000/svg" data-name="Layer 1"><path d="m15.5 7.5c0-.828.672-1.5 1.5-1.5s1.5.672 1.5 1.5-.672 1.5-1.5 1.5-1.5-.672-1.5-1.5zm8.5-2.5v19h-24v-2h10v-19c0-.342-.035-.677-.101-1h11.101c1.654 0 3 1.346 3 3zm-8 10.5c0-.828-.672-1.5-1.5-1.5s-1.5.672-1.5 1.5.672 1.5 1.5 1.5 1.5-.672 1.5-1.5zm5 0c0-.828-.672-1.5-1.5-1.5s-1.5.672-1.5 1.5.672 1.5 1.5 1.5 1.5-.672 1.5-1.5zm-5 4c0-.828-.672-1.5-1.5-1.5s-1.5.672-1.5 1.5.672 1.5 1.5 1.5 1.5-.672 1.5-1.5zm5 0c0-.828-.672-1.5-1.5-1.5s-1.5.672-1.5 1.5.672 1.5 1.5 1.5 1.5-.672 1.5-1.5zm0-14.5h-8v7h1.5v-.5c0-.828.672-1.5 1.5-1.5h2c.828 0 1.5.672 1.5 1.5v.5h1.5zm-13-2c0-1.654-1.346-3-3-3h-2c-1.654 0-3 1.346-3 3v17h8z"/></svg>