<svg id="Layer_1" viewBox="0 0 24 24" xmlns="http://www.w3.org/2000/svg" data-name="Layer 1"><path d="m21 22v2h-2v-2zm1-3v2h2v-2zm-3 0v2h2v-2zm-1-6h-5v5h5zm-3 2h1v1h-1zm3 4h-5v5h5zm-3 2h1v1h-1zm9-8h-5v5h5zm-3 2h1v1h-1zm-11-7c-1.103 0-2 .897-2 2s.897 2 2 2 2-.897 2-2-.897-2-2-2zm7.071-5.071c-1.889-1.889-4.4-2.929-7.071-2.929s-5.183 1.04-7.071 2.929c-3.899 3.899-3.899 10.243.008 14.149l4.74 4.636 2.323 2.272 1-.979v-9.149c-.322.084-.653.142-1 .142-2.206 0-4-1.794-4-4s1.794-4 4-4 4 1.794 4 4c0 .347-.058.678-.142 1h6.092c.033-.33.049-.664.049-1 0-2.671-1.04-5.182-2.929-7.071z"/></svg>