<svg id="Layer_1" viewBox="0 0 24 24" xmlns="http://www.w3.org/2000/svg" data-name="Layer 1"><path d="m22 2c0 1.609-.643 3.101-1.857 4.311-1.742 1.735-4.493 2.689-7.639 2.689 0 0-.5 0-.504 0v-2h-2v2h-2v-2h-2v2h-2.506c-.93 0-1.805.362-2.465 1.021-.664.662-1.029 1.544-1.029 2.482 0 1.929 1.568 3.497 3.497 3.497h2.503v3h-3.5l-2.5-1v4l2.5-1h12c1.93 0 3.5-1.57 3.5-3.5s-1.57-3.5-3.5-3.5h-2.5v-3h.566c3.145 0 5.834.954 7.576 2.689 1.215 1.21 1.857 2.701 1.857 4.311h2v-16h-2zm-18.503 12c-.825 0-1.497-.672-1.497-1.497 0-.403.157-.782.442-1.066.282-.281.655-.437 1.055-.437h2.503v3zm4.503 2h2v3h-2zm6.5 0c.827 0 1.5.673 1.5 1.5s-.673 1.5-1.5 1.5h-2.5v-3zm-4.5-2h-2v-3h2z"/></svg>