<svg id="Layer_1" viewBox="0 0 24 24" xmlns="http://www.w3.org/2000/svg" data-name="Layer 1"><path d="m18.981 13.998c-2.762 0-5.001 2.239-5.001 5.001s2.239 5.001 5.001 5.001 5.001-2.239 5.001-5.001-2.239-5.001-5.001-5.001zm3.001 6.001h-2v2h-2v-2h-2v-2h2v-2h2v2h2zm-8.698 3.059c-.456.317-.803.64-.803.942h-3c0-.497-.935-1.052-1.761-1.54-1.221-.724-2.74-1.624-2.74-3.26 0-1.489.962-2.973 3-3.712v-4.633c-.333.688-.869 1.26-1.567 1.633-.663.339-1.365.499-2.049.499-1.407 0-2.736-.68-3.481-1.888-.731-1.185-.865-2.337-.865-4.179 0-1.303.379-4.538 3.89-6.42 1.937-1.041 4.425-.402 5.549 1.418.515.835.656 1.824.397 2.787-.252.934-.87 1.745-1.701 2.309l.656.656c.755.755 1.172 1.76 1.172 2.829v4.566c.324-.03.642-.065 1-.065s.676.035 1 .065v-4.566c0-1.069.417-2.074 1.172-2.829l.656-.656c-.831-.563-1.45-1.375-1.701-2.309-.259-.962-.118-1.951.397-2.787 1.123-1.821 3.612-2.46 5.549-1.418 3.511 1.882 3.89 5.117 3.89 6.42 0 1.842-.134 2.994-.865 4.179-.752 1.219-2.097 1.899-3.495 1.9-.66 0-1.332-.152-1.958-.472-.759-.406-1.307-.985-1.643-1.675v3.258c-1.236 1.26-2 2.983-2 4.889 0 1.515.486 2.913 1.303 4.058z"/></svg>