<svg id="Layer_1" viewBox="0 0 24 24" xmlns="http://www.w3.org/2000/svg" data-name="Layer 1"><path d="m3.672 6.793 1.414 1.414c1.607-1.606 4.221-1.606 5.828 0l1.414-1.414c-2.387-2.387-6.27-2.387-8.656 0z"/><path d="m8 2c2.469 0 4.79.961 6.536 2.708l1.414-1.415c-2.124-2.124-4.948-3.293-7.95-3.293s-5.826 1.169-7.95 3.292l1.414 1.415c1.746-1.746 4.067-2.708 6.536-2.708z"/><path d="m10 21v-6h-1v-5h-2v5h-4c-1.654 0-3 1.346-3 3v6h11.026c-.442-.584-.773-1.257-.924-2l-.101-1z"/><path d="m22 14v-1c0-2.206-1.794-4-4-4s-4 1.794-4 4v1h-2v7c0 1.654 1.346 3 3 3h6c1.654 0 3-1.346 3-3v-7zm-3 6h-2v-2h2zm1-6h-4v-1c0-1.103.897-2 2-2s2 .897 2 2z"/></svg>