<svg id="Layer_1" viewBox="0 0 24 24" xmlns="http://www.w3.org/2000/svg" data-name="Layer 1"><path d="m19 10c0-1.105.895-2 2-2s2 .895 2 2-.895 2-2 2-2-.895-2-2zm-3.625-7.619c-.282-1.38-1.517-2.381-2.936-2.381h-8.878c-1.418 0-2.653 1.001-2.936 2.381-.138.673-.288 1.556-.407 2.619h15.563c-.119-1.062-.269-1.946-.406-2.619zm-7.375 10.619c-1.103 0-2 .897-2 2s.897 2 2 2 2-.897 2-2-.897-2-2-2zm7.946-6c.034.627.054 1.293.054 2-.082 6.884-1.935 13.707-2.219 15h-11.562c-.282-1.276-2.139-8.132-2.219-15 0-.707.02-1.373.054-2zm-3.946 8c0-2.206-1.794-4-4-4s-4 1.794-4 4 1.794 4 4 4 4-1.794 4-4zm9.328 2.11c.11-.265.172-.555.172-.86 0-1.243-1.007-2.25-2.25-2.25s-2.25 1.007-2.25 2.25c0 .766.384 1.44.969 1.846-.596.628-.969 1.471-.969 2.404 0 1.93 1.57 3.5 3.5 3.5s3.5-1.57 3.5-3.5c0-1.643-1.143-3.016-2.672-3.39z"/></svg>