<svg id="Layer_1" viewBox="0 0 24 24" xmlns="http://www.w3.org/2000/svg" data-name="Layer 1"><path d="m24 7.769v-4c0-1.654-1.346-3-3-3h-18c-1.654 0-3 1.346-3 3v4zm-16.5-5c.828 0 1.5.672 1.5 1.5s-.672 1.5-1.5 1.5-1.5-.672-1.5-1.5.672-1.5 1.5-1.5zm-4 0c.828 0 1.5.672 1.5 1.5s-.672 1.5-1.5 1.5-1.5-.672-1.5-1.5.672-1.5 1.5-1.5zm-3.5 7.231v13h24v-13zm9.275 10.689-2.711-2.847c-.758-.759-.757-2.021.018-2.795l2.705-2.749 1.426 1.402-2.711 2.755 2.723 2.854-1.449 1.379zm8.235-2.829-2.798 2.842-1.426-1.404 2.804-2.847-2.792-2.738 1.402-1.426 2.804 2.755c.381.38.589.879.589 1.41s-.207 1.032-.583 1.408z"/></svg>