<svg id="Layer_1" viewBox="0 0 24 24" xmlns="http://www.w3.org/2000/svg" data-name="Layer 1"><path d="m22.5 18c0-.46-.089-.895-.218-1.313l1.416-.816-.998-1.733-1.411.813c-.604-.652-1.396-1.124-2.289-1.332v-1.619h-2v1.619c-.893.207-1.685.68-2.289 1.332l-1.411-.813-.998 1.733 1.416.816c-.129.418-.218.853-.218 1.313s.089.895.218 1.313l-1.416.816.998 1.733 1.411-.813c.605.652 1.393 1.125 2.289 1.33v1.621h2v-1.621c.896-.205 1.685-.678 2.289-1.33l1.411.813.998-1.733-1.416-.816c.129-.418.218-.853.218-1.313zm-4.5 1.5c-.827 0-1.5-.673-1.5-1.5s.673-1.5 1.5-1.5 1.5.673 1.5 1.5-.673 1.5-1.5 1.5zm-5.279 4.5h-12.721v-13.926c0-.958.433-1.847 1.187-2.439l8.905-6.976c1.123-.881 2.693-.881 3.816 0l8.905 6.977c.734.576 1.156 1.435 1.178 2.365h.008v2.721c-1.466-1.665-3.607-2.721-6-2.721-4.418 0-8 3.582-8 8 0 2.393 1.056 4.534 2.721 6z"/></svg>