<svg id="Layer_1" viewBox="0 0 24 24" xmlns="http://www.w3.org/2000/svg" data-name="Layer 1"><path d="m15 8h-6v-1.5c0-.828.672-1.5 1.5-1.5h3c.828 0 1.5.672 1.5 1.5zm-3-4c1.105 0 2-.895 2-2s-.895-2-2-2-2 .895-2 2 .895 2 2 2zm7 0v2.013l-1.281-1.282-1.414 1.414 2.26 2.26c.396.395.915.592 1.436.592s1.04-.198 1.437-.593l2.282-2.283-1.414-1.414-1.305 1.28v-1.988c0-1.654-1.346-3-3-3h-2v2h2c.552 0 1 .449 1 1zm-15 4.999c.52 0 1.04-.198 1.437-.593l2.259-2.259-1.414-1.414-1.281 1.257v-1.988c0-.551.448-1 1-1h2v-2.002h-2c-1.654 0-3 1.346-3 3v2.013l-1.305-1.305-1.414 1.414 2.283 2.284c.396.395.915.592 1.436.592zm8.072 8.151c-.535.538-1.292.85-2.084.85-.963.002-1.881-.465-2.451-1.262-.833-1.153-.678-2.816.355-3.886l2.667-2.479c-.927-.475-2.044-.5-3.014-.015l-1.282.641h-6.263v9h5.531l5.125 4h2.688l4.441-3.466-4.778-4.279-.935.895zm11.928-6.246h-6.091l-1.282-.641c-1.284-.646-2.835-.393-3.853.625l-3.432 3.299c-.371.372-.455.967-.181 1.347.18.25.441.4.739.425.295.025.581-.082.788-.29l2.336-2.302 7.161 6.596h3.814v-9.058z"/></svg>