<svg id="Layer_1" viewBox="0 0 24 24" xmlns="http://www.w3.org/2000/svg" data-name="Layer 1"><path d="m13 4h-2v-4h2zm4-4h-2v4h2zm-8 0h-2v4h2zm15 18c0 3.314-2.686 6-6 6s-6-2.686-6-6c0-1.725 1-3.06 1.995-4.087 0 0 .681 2.087 1.287 2.087 1.263 0 .897-3.898 2.718-6 1.895 1.895 6 4.526 6 8zm-4.586.585-1.415-1.415-1.415 1.415c-.781.781-.781 2.048 0 2.829s2.048.781 2.829 0 .781-2.048 0-2.829zm-19.414-12.585v1c0 6.001 4.126 9.152 6.168 10.347l-.835 1.67c-1.302.087-2.333 1.16-2.333 2.483 0 1.381 1.119 2.5 2.5 2.5s2.5-1.119 2.5-2.5c0-.709-.298-1.345-.772-1.8l.85-1.7h1.925c-.044-2.544 1.451-4.412 2.555-5.545l5.336-5.455c1.552 1.672 3.378 3.093 5.065 4.756.642-1.351 1.033-2.877 1.04-4.756v-1z"/></svg>