<svg id="Layer_1" viewBox="0 0 24 24" xmlns="http://www.w3.org/2000/svg" data-name="Layer 1"><path d="m3.127 7.635c.683-4.346 4.397-7.635 8.873-7.635 4.653 0 8.492 3.548 8.953 8.081-.763.09-1.894.282-3.229.684-.471-1.039-1.509-1.766-2.724-1.766-1.657 0-3 1.343-3 3 0 .401.089.777.235 1.125-.706-.522-1.454-.976-2.216-1.361.097-2.028 1.401-3.735 3.215-4.425-.641-.809-1.621-1.338-2.733-1.338-1.933 0-3.5 1.567-3.5 3.5 0 .392.081.76.202 1.109-1.649-.543-3.133-.832-4.075-.975zm2.686 16.365h14.118l.994-13.92c-3.055.365-11.689 2.418-15.112 13.92zm4.938-11.485c-2.637-1.824-5.982-2.579-7.701-2.863l1.061 13.11c1.565-4.815 4.029-8.062 6.639-10.246z"/></svg>