<svg id="Layer_1" viewBox="0 0 24 24" xmlns="http://www.w3.org/2000/svg" data-name="Layer 1"><path d="m22 0h-9c-1.105 0-2 .895-2 2v4h13v-4c0-1.105-.895-2-2-2zm-7.5 4.5c-.828 0-1.5-.672-1.5-1.5s.672-1.5 1.5-1.5 1.5.672 1.5 1.5-.672 1.5-1.5 1.5zm7.5-.5h-4v-2h4zm-11 9h13v-6h-13zm7-4h4v2h-4zm-3.5-.5c.828 0 1.5.672 1.5 1.5s-.672 1.5-1.5 1.5-1.5-.672-1.5-1.5.672-1.5 1.5-1.5zm-8.5-7.001h3v2h-3c-.552 0-1 .449-1 1v3.006l1.498-1.508 1.414 1.414-2.506 2.506c-.388.387-.897.581-1.406.581s-1.019-.193-1.406-.581l-2.506-2.506 1.414-1.414 1.498 1.498v-2.997c0-1.654 1.346-3 3-3zm13 13.501h2v3c0 1.654-1.346 3-3 3h-3.006l1.508 1.499-1.414 1.414-2.507-2.506c-.774-.775-.774-2.037 0-2.812l2.508-2.507 1.414 1.414-1.499 1.499h2.997c.552 0 1-.449 1-1v-3zm-10-.5v2.421c-.221.268-1.456 1.079-4.5 1.079s-4.279-.811-4.5-1.079v-2.421c0-.883 1.85-1.5 4.5-1.5s4.5.617 4.5 1.5zm-4.5 5.5c3.5 0 4.5-1 4.5-1v2.833c0 1.377-1.641 2.167-4.5 2.167s-4.5-.79-4.5-2.167v-2.833s1 1 4.5 1z"/></svg>