<svg id="Layer_1" viewBox="0 0 24 24" xmlns="http://www.w3.org/2000/svg" data-name="Layer 1"><path d="m20 16v-16h-16v16zm-8-2c-.552 0-1-.448-1-1s.448-1 1-1 1 .448 1 1-.448 1-1 1zm1.697-2.197c-.936-.936-2.458-.936-3.393 0l-1.132-1.131c1.56-1.56 4.098-1.56 5.657 0l-1.132 1.13s0 0 0 0zm-5.696-6.383c0-.41.189-.797.512-1.05l2.667-2.087c.241-.189.532-.283.822-.283s.58.094.822.283l2.667 2.087c.323.253.512.64.512 1.05v1.74c-.908-.575-1.927-.944-3.001-1.086v-1.074h-2v1.074c-1.073.143-2.091.511-2.999 1.087v-1.741zm4 1.58c1.736 0 3.369.676 4.596 1.904l-1.132 1.131c-.925-.925-2.155-1.435-3.464-1.435s-2.539.51-3.464 1.435l-1.132-1.131c1.228-1.228 2.86-1.904 4.596-1.904zm-8.001 11v3c0 1.654 1.346 3 3 3h10c1.654 0 3-1.346 3-3v-3zm10 4h-4v-2h4z"/></svg>