<svg id="Layer_1" viewBox="0 0 24 24" xmlns="http://www.w3.org/2000/svg" data-name="Layer 1"><path d="m21.414 5h-4.414v-4.414zm-13.804 8.602c-.092 0-.15.153-.189.354l-.673 3.045h1.688l-.641-3.044c-.047-.231-.093-.355-.185-.355zm7.39-6.602v-7h-10c-1.657 0-3 1.343-3 3v21h20v-17zm-5.932 13-.295-1.4h-2.379l-.309 1.4h-1.584l1.365-6.418c.168-.864.87-1.583 1.742-1.581.894.006 1.563.69 1.753 1.627l1.339 6.373h-1.632zm6.144-1.462c-.12.668-.62 1.462-1.555 1.462s-1.442-.837-1.546-1.416l-1.211-6.583s1.629 0 1.629 0v.007s1.128 6.138 1.128 6.138l1.111-6.111-.008-.034h1.64s-1.188 6.538-1.188 6.538zm4.288 1.462h-1.6v-8h1.6z"/></svg>