<svg id="Layer_1" viewBox="0 0 24 24" xmlns="http://www.w3.org/2000/svg" data-name="Layer 1"><path d="m22 21c0 1.654-1.346 3-3 3-1.302 0-2.401-.839-2.816-2h-8.368c-.414 1.161-1.514 2-2.816 2-1.654 0-3-1.346-3-3s1.346-3 3-3c1.302 0 2.401.839 2.816 2h8.369c.414-1.161 1.514-2 2.816-2 1.654 0 3 1.346 3 3zm-10-13.6-1.068 1.047c-.577.578-.577 1.529.007 2.114.567.566 1.554.566 2.122 0 .283-.283.439-.66.439-1.061s-.156-.777-.439-1.06zm12 1.6c-.143 4.796-.999 5.907-1.473 7h-21.054c-.472-1.087-1.331-2.21-1.473-7 .143-4.796.999-5.907 1.473-7h6.527v-2h8v2h6.527c.472 1.087 1.331 2.21 1.473 7zm-8.5.5c0-.935-.364-1.814-1.032-2.482l-2.468-2.418-2.475 2.425c-1.365 1.364-1.365 3.585 0 4.949.661.661 1.54 1.025 2.475 1.025s1.813-.364 2.475-1.025c.661-.661 1.025-1.54 1.025-2.475z"/></svg>