<svg id="Layer_1" viewBox="0 0 24 24" xmlns="http://www.w3.org/2000/svg" data-name="Layer 1"><path d="m5 4.667v-4.667h-5v24h24v-2h-1.667c-16.991 0-17.327-16.633-17.333-17.333zm19 10.333v2h-2.871c-.834 0-1.618-.325-2.208-.915l-7.007-7.007c-.59-.589-.915-1.373-.915-2.207v-2.871h2v2.871c0 .3.117.581.328.792l7.008 7.008c.212.212.493.329.793.329h2.871zm-14.561-3.439c-.586-.586-.586-1.536 0-2.121s1.536-.586 2.121 0c.586.586.586 1.536 0 2.121s-1.536.586-2.121 0zm7 7c-.586-.586-.586-1.536 0-2.121s1.536-.586 2.121 0c.586.586.586 1.536 0 2.121s-1.536.586-2.121 0z"/></svg>