<svg id="Layer_1" viewBox="0 0 24 24" xmlns="http://www.w3.org/2000/svg" data-name="Layer 1"><path d="m16.666 12-7 12h14zm1 11h-2v-2h2zm-2-3v-4h2v4zm-2.852-5.366-5.041 8.642c-4.147-1.577-7.107-5.582-7.107-10.276 0-2.88 1.122-5.498 2.94-7.461l-.978-1.087-.88.88-1.414-1.414 3.25-3.25 1.414 1.414-.954.954 1.049 1.165c1.585-1.187 3.494-1.962 5.574-2.151v-2.05h2v2.051c2.08.189 3.989.963 5.574 2.151l1.049-1.165-.892-.892 1.414-1.414 3.188 3.188-1.414 1.414-.88-.88-.978 1.087c1.818 1.963 2.94 4.58 2.94 7.461 0 1.414-.278 2.761-.766 4.004l-4.086-7.004h-2.298l-1.872 3.21c.007-.07.021-.138.021-.21 0-.738-.405-1.376-1-1.723v-5.278h-2v5.277c-.595.346-1 .984-1 1.723 0 1.105.895 2 2 2 .428 0 .823-.137 1.148-.366z"/></svg>