<svg id="Layer_1" viewBox="0 0 24 24" xmlns="http://www.w3.org/2000/svg" data-name="Layer 1"><path d="m21 18c-1.193 0-2.267-.525-3-1.357-.733.832-1.807 1.357-3 1.357s-2.267-.525-3-1.357c-.733.832-1.807 1.357-3 1.357s-2.267-.525-3-1.357c-.733.832-1.807 1.357-3 1.357-1.152 0-2.24-.499-3-1.368l1.497-1.316c.38.435.928.684 1.503.684 1.103 0 2-.897 2-2h2c0 1.103.897 2 2 2s2-.897 2-2h2c0 1.103.897 2 2 2s2-.897 2-2h2c0 1.103.897 2 2 2 .575 0 1.123-.25 1.503-.684l1.497 1.316c-.76.869-1.848 1.368-3 1.368zm3 4.632-1.497-1.316c-.38.435-.928.684-1.503.684-1.103 0-2-.897-2-2h-2c0 1.103-.897 2-2 2s-2-.897-2-2h-2c0 1.103-.897 2-2 2s-2-.897-2-2h-2c0 1.103-.897 2-2 2-.575 0-1.123-.25-1.503-.684l-1.497 1.316c.76.869 1.848 1.368 3 1.368 1.193 0 2.267-.525 3-1.357.733.832 1.807 1.357 3 1.357s2.267-.525 3-1.357c.733.832 1.807 1.357 3 1.357s2.267-.525 3-1.357c.733.832 1.807 1.357 3 1.357 1.152 0 2.24-.499 3-1.368zm-6.327-14.092c1.436-.484 2.628-1.337 3.511-2.49-1.535-3.555-5.072-6.051-9.184-6.051-.213 0-.422.019-.632.032 3.086 2.207 5.256 5.133 6.305 8.508zm-8.076 3.46c.488-1.036.975-1.78 1.296-2.214-.296-.937-.762-1.812-1.378-2.605-.832.854-2.064 2.448-2.71 4.819zm7.911-1.321c-1.503.377-3.172.438-4.931.198-.16.211-.424.591-.723 1.123h9.944c.132-.646.202-1.315.202-2 0-.572-.059-1.13-.152-1.676-1.185 1.132-2.658 1.933-4.34 2.355zm-9.377-4.937c-1.052-.896-2.33-1.63-3.788-2.161-1.46 1.738-2.342 3.977-2.342 6.419 0 .685.07 1.354.202 2h2.535c.713-3.096 2.318-5.161 3.394-6.258zm7.575 3.203c-1.123-3.428-3.603-6.325-7.137-8.326-.953.35-1.837.838-2.63 1.445 3.291 1.433 5.717 3.84 6.763 6.809 1.052.155 2.058.176 3.004.072z"/></svg>