<svg id="Layer_1" viewBox="0 0 24 24" xmlns="http://www.w3.org/2000/svg" data-name="Layer 1"><path d="m16 16c-2.757 0-5-2.243-5-5v-9h-8c-1.654 0-3 1.346-3 3v15h11v2h-5v2h12v-2h-5v-2h11v-5.026c-.838.635-1.87 1.026-3 1.026zm-10.5-9c1.105 0 2 .895 2 2s-.895 2-2 2-2-.895-2-2 .895-2 2-2zm3.5 8h-2v-1h-3v1h-2v-1c0-1.103.897-2 2-2h3c1.103 0 2 .897 2 2zm13-11v-.5c0-1.93-1.57-3.5-3.5-3.5s-3.5 1.57-3.5 3.5v.5h-2v7c0 1.654 1.346 3 3 3h5c1.654 0 3-1.346 3-3v-7zm-5-.5c0-.827.673-1.5 1.5-1.5s1.5.673 1.5 1.5v.5h-3zm2.5 6.5h-2v-2h2z"/></svg>