<svg id="Layer_1" viewBox="0 0 24 24" xmlns="http://www.w3.org/2000/svg" data-name="Layer 1"><path d="m2.59 12 1.41-4h-3.077c-.619 0-1.062-.597-.883-1.19l2.657-6.81h4.303l-1.692 4h2.786c.722 0 1.153.804.754 1.406l-5.059 6.594zm20.687-.859c-1.18-2.706-2.294-5.262-3.476-6.722-2.105-2.809-5.312-4.419-8.801-4.419-.634 0-1.275.074-1.907.186l-.771 1.823c.981.077 1.86.646 2.331 1.522.507.945.454 2.086-.138 2.98l-.08.112-5.659 7.377h-4.353c.413 1.46 1.123 2.831 2.12 4.028.295.354.458.802.458 1.263v4.709h13v-3h2.247c1.5 0 2.778-1.121 2.974-2.606l.449-3.394h2.33v-2.212z"/></svg>