<svg id="Layer_1" viewBox="0 0 24 24" xmlns="http://www.w3.org/2000/svg" data-name="Layer 1"><path d="m24 19v-15.5c0-1.378-1.122-2.5-2.5-2.5h-19c-1.378 0-2.5 1.122-2.5 2.5v15.5h11v2h-5v2h12v-2h-5v-2zm-17-5h-2v-4.582l-.573.591-1.437-1.392 2.499-2.618h1.51v8.001zm9-1c0-1.138.885-1.944 1.666-2.655.686-.625 1.334-1.215 1.334-1.845 0-.276-.224-.5-.5-.5s-.5.224-.5.5h-2c0-1.378 1.122-2.5 2.5-2.5s2.5 1.122 2.5 2.5c0 1.514-1.102 2.518-1.988 3.324-.061.055-.125.114-.192.176h2.18v2h-5zm-5-10h2v2h-2zm0 4h2v2h-2zm0 4h2v2h-2zm0 6v-2h2v2z"/></svg>