<svg id="Layer_1" viewBox="0 0 24 24" xmlns="http://www.w3.org/2000/svg" data-name="Layer 1"><path d="m16 18c1.064 0 2.353-.25 3.396-.506l-.465 6.506h-13.862l-.446-6.241c.755-.262 2.443-.759 4.441-.759 1.356 0 2.264.229 3.224.47 1.036.261 2.108.53 3.712.53zm5-10v2h-1.069l-.385 5.388c-.999.273-2.458.612-3.546.612-1.251 0-2.119-.196-3-.415v-5.585h-2v5.151c-.566-.089-1.19-.151-1.936-.151-1.922 0-3.571.39-4.588.703l-.407-5.703h-1.069v-2h1.08c.474-3.636 3.329-6.478 6.92-6.93v-1.07h2v1.07c3.61.454 6.477 3.319 6.931 6.93zm-10 0v-4.909c-2.506.424-4.486 2.402-4.91 4.909zm6.909 0c-.423-2.507-2.404-4.485-4.909-4.909v4.909z"/></svg>