<svg id="Layer_1" viewBox="0 0 24 24" xmlns="http://www.w3.org/2000/svg" data-name="Layer 1"><path d="m18.629 12h5.025l.346.788v1.212h-9c-2.206 0-4 1.794-4 4v6h-2v-11c0-1.626 1.274-2.971 2.841-2.999 1.268-.027 2.47.209 3.624.688zm-3.629 4c-1.103 0-2 .897-2 2v6h3v-3h2.247c1.5 0 2.778-1.121 2.974-2.606l.317-2.394zm-8 8v-11c0-2.709 2.156-4.952 4.806-4.999 1.53-.017 3.015.256 4.425.84l2.797 1.159h3.75c-.998-2.268-1.963-4.329-2.976-5.582-2.44-3.255-6.314-4.866-10.349-4.312-4.996.686-8.952 4.84-9.407 9.877-.265 2.936.622 5.793 2.497 8.045.295.354.457.802.457 1.263v4.709z"/></svg>