<?xml version="1.0" encoding="UTF-8"?>
<svg xmlns="http://www.w3.org/2000/svg" id="Layer_1" data-name="Layer 1" viewBox="0 0 24 24">
  <path d="m15,15h1v2h-1c-1.358,0-2.612-.68-3.354-1.819l1.676-1.092c.372.571.999.911,1.678.911Zm8.011,1.685c-.859-1.071-2.138-1.685-3.509-1.685h-1.502v2h1.501c.761,0,1.472.341,1.95.937l1.56-1.252Zm-8.011,7.315h4v-2h-4v2Zm8.989-4.809l-1.995.134c.004.058.006.116.006.175,0,.978-.575,1.871-1.465,2.276l.829,1.82c1.601-.73,2.636-2.338,2.636-4.097,0-.104-.004-.207-.011-.309Zm-9.916-9.218c-.211-.211-.4-.434-.578-.663-.464.189-.891.447-1.256.795-.649.62-1.075,1.448-1.2,2.333l1.98.278c.062-.441.275-.854.6-1.164h0c.206-.196.445-.343.712-.438l.002-.003v.002c.212-.075.437-.113.666-.113h.124l-1.05-1.027Zm1.398-1.43c-1.957-1.958-1.957-5.129-.008-7.079.945-.944,2.201-1.464,3.536-1.464s2.591.52,3.536,1.464h0c1.949,1.95,1.949,5.122,0,7.072l-3.536,3.458-3.528-3.45Zm1.528-3.543c0,1.105.895,2,2,2s2-.895,2-2-.895-2-2-2-2,.895-2,2Zm-8.465,15.536l-3.535,3.458-3.528-3.45c-1.957-1.958-1.957-5.129-.008-7.079.945-.944,2.201-1.464,3.536-1.464s2.591.52,3.535,1.464c1.95,1.95,1.95,5.122,0,7.071Zm-1.535-3.536c0-1.105-.895-2-2-2s-2,.895-2,2,.895,2,2,2,2-.895,2-2Zm2.898,5l-2.045,2h5.146v-2h-3.102Z"/>
</svg>
