<svg id="Layer_1" viewBox="0 0 24 24" xmlns="http://www.w3.org/2000/svg" data-name="Layer 1"><path d="m15.461 1.225c-1.296-1.05-2.993-1.451-4.648-1.101-2.199.463-3.906 2.278-4.249 4.518-.334 2.187.661 4.35 2.534 5.511.247.153.4.46.4.801v2.045h5v-2.046c0-.339.158-.649.412-.807 1.62-1.011 2.588-2.748 2.588-4.647 0-1.666-.742-3.223-2.037-4.273zm-2.463 4.496v4.277h-2v-4.277c-.595-.346-1-.984-1-1.723h4c0 .738-.405 1.376-1 1.723zm11.002-.737v16.834l-12 2.182-12-2.182v-16.834c-.044-1.815 1.754-3.323 3.536-2.952l1.631.396c-.27.603-.478 1.24-.58 1.911-.421 2.759.711 5.493 2.912 7.141v3.519h3.501v6.787l1 .182 1-.182v-6.787h3.499v-3.518c1.89-1.411 3-3.603 3-5.982 0-1.078-.235-2.119-.663-3.072l1.57-.382c1.842-.388 3.622 1.092 3.594 2.939z"/></svg>