<svg id="Layer_1" viewBox="0 0 24 24" xmlns="http://www.w3.org/2000/svg" data-name="Layer 1"><path d="m20.799 17.03-3.462-14.718c-.321-1.361-1.522-2.312-2.921-2.312h-3.416v2h3.416c.467 0 .867.317.974.771l2.184 9.282-4.047 4.947h-13.527v2h1.351c-.219.456-.351.961-.351 1.5 0 1.93 1.57 3.5 3.5 3.5s3.5-1.57 3.5-3.5c0-.539-.133-1.044-.351-1.5h6.825l3.677-4.493.69 2.931c-1.09.594-1.84 1.736-1.84 3.062 0 1.93 1.57 3.5 3.5 3.5s3.5-1.57 3.5-3.5c0-1.827-1.413-3.315-3.201-3.47zm-14.799-2.03c3.314 0 6-2.686 6-6s-2.686-6-6-6-6 2.686-6 6 2.686 6 6 6zm-2.973-5.805 1.336-4.195h2.923l-.925 3.025 2.036.008c.481.002.766.539.499.938l-3.264 4.029-.626-.002.655-2.973h-2.048c-.412-.002-.706-.436-.585-.83z"/></svg>