<?xml version="1.0" encoding="UTF-8"?>
<svg xmlns="http://www.w3.org/2000/svg" id="Layer_1" data-name="Layer 1" viewBox="0 0 24 24">
  <path d="M14,17c0,.351-.097,.695-.278,1h-3.444c-.181-.305-.278-.649-.278-1,0-1.103,.897-2,2-2s2,.897,2,2Zm5.685-4.676c.862,1.411,1.315,3.016,1.315,4.676,.008,2.708-1.245,5.278-3.343,7H6.343c-2.098-1.722-3.351-4.292-3.343-7,0-1.66,.453-3.265,1.315-4.676-1.558-3.288-2.315-5.523-2.315-6.824C2,3.446,3.299,0,12,0s10,3.446,10,5.5c0,1.301-.758,3.536-2.315,6.824Zm-3.685,4.676c0-2.206-1.794-4-4-4s-4,1.794-4,4c-.017,1.138,.525,2.2,1.333,3h5.334c.808-.8,1.35-1.862,1.333-3Zm2.097-11.761l-.703-.364c-.771-.399-2.333-.875-5.394-.875-3.23,0-4.771,.551-5.402,.879l-.705,.367,.198,.77c.118,.46,.433,1.464,1.246,3.297,1.361-.828,2.954-1.312,4.663-1.312s3.305,.478,4.666,1.305c.812-1.834,1.123-2.838,1.238-3.298l.193-.768Z"/>
</svg>
