<?xml version="1.0" encoding="UTF-8"?>
<svg xmlns="http://www.w3.org/2000/svg" id="Layer_1" data-name="Layer 1" viewBox="0 0 24 24">
  <path d="M5.269,16h3v1.6h-1.4v1.65h1.4v1.6h-1.4v1.551h1.4v1.6h-3v-8Zm17.131,4l-1.3-3.991v-.009h-1.6v8h1.6v-4l1.3,4h1.6v-8h-1.6v4Zm-4.693-2.584l1.101,6.583h0s-1.66,0-1.66,0l-.144-.9h-1.395l-.142,.9h-1.658s1.08-6.538,1.08-6.538c.109-.668,.563-1.462,1.414-1.462s1.311,.837,1.405,1.416Zm-.959,4.084l-.445-2.783-.44,2.783h.886Zm-5.498-5.5c-1.243,0-2.25,1.007-2.25,2.25v3.5c0,1.243,1.007,2.25,2.25,2.25s2.25-1.007,2.25-2.25v-2.25h-2.216v1.6h.616v.65c0,.358-.292,.65-.65,.65s-.65-.292-.65-.65v-3.5c0-.358,.292-.65,.65-.65s.65,.292,.65,.65v.25h1.6v-.25c0-1.243-1.007-2.25-2.25-2.25Zm-8.366,0l-.63,5.231-.637-5.231H0s.991,6.823,.991,6.823c.085,.58,.499,1.177,1.265,1.177s1.174-.554,1.273-1.222l.972-6.777h0s-1.616,0-1.616,0ZM0,12v2H24v-2H0ZM7.187,7.052c.566,.312,1.179,.44,1.784,.433-.471-1.984-1.292-2.994-3.471-5.484,0,0,2.238,.281,3.907,2.291,0,0,.823,.979,1.194,2.117,.237,.862,.399,2.011,.399,3.592h2c0-.458,.591-1.868,1.897-2.775,.871,.819,2.197,1.03,3.296,.416,1.756-.982,3.066-2.778,3.808-4.641,0,0-3.396-2.043-6.557-.276-.998,.558-1.519,1.633-1.427,2.702-.5,.316-.938,.684-1.316,1.087-.098-.465-.231-.934-.403-1.388,.555-1.582-.092-3.375-1.625-4.22-4.006-2.209-7.672,.321-7.672,.321,1,1.774,1.961,4.598,4.187,5.826Z"/>
</svg>
