<svg id="Layer_1" viewBox="0 0 24 24" xmlns="http://www.w3.org/2000/svg" data-name="Layer 1"><path d="m13 24c-1.654 0-3-1.346-3-3s1.346-3 3-3 3 1.346 3 3-1.346 3-3 3zm-5-3c0-1.13.391-2.162 1.026-3h-5.026c-2.206 0-4 1.794-4 4v2h9.026c-.635-.838-1.026-1.87-1.026-3zm12.134-21-2.05 4.314-2.146-1.022c-1.489-.709-3.284-.077-3.996 1.414l-2.647 5.534c-.347.724-.39 1.539-.122 2.296.268.756.814 1.363 1.527 1.702l2.164 1.064-.356.749c.165-.016.324-.05.493-.05.566 0 1.1.115 1.608.289l6.79-14.289h2.603v-2.001h-3.866z"/></svg>