<svg id="Layer_1" viewBox="0 0 24 24" xmlns="http://www.w3.org/2000/svg" data-name="Layer 1"><path d="m12 0c-2.761 0-5 2.239-5 5s2.239 5 5 5 5-2.239 5-5-2.239-5-5-5zm3 6h-2v2h-2v-2h-2v-2h2v-2h2v2h2zm9 .857c0 2.004-.978 6.143-4 6.143-1.103 0-2-.897-2-2s.897-2 2-2c.557 0 1.061.23 1.424.599.377-.886.576-1.998.576-2.742 0-1.231-.387-1.857-2.5-1.857h-.5c0-.683-.102-1.342-.285-1.966.251-.019.507-.034.785-.034 2.986 0 4.5 1.298 4.5 3.857zm-18 4.143c0 1.103-.897 2-2 2-3.022 0-4-4.139-4-6.143 0-2.56 1.514-3.857 4.5-3.857.278 0 .534.015.785.034-.182.624-.285 1.283-.285 1.966h-.5c-2.113 0-2.5.626-2.5 1.857 0 .743.199 1.856.576 2.742.363-.369.867-.599 1.424-.599 1.103 0 2 .897 2 2zm10 0c0 .914.319 1.746.835 2.42-.739.883-1.66 1.56-2.587 2.001.896.548 1.441 1.567 1.251 2.664l-1.661 5.914h-3.79l-1.473-5.914c-.188-1.085.342-2.093 1.22-2.646-.938-.441-1.872-1.124-2.627-2.023.556-.732.926-1.716.804-2.697 1.139.805 2.527 1.28 4.028 1.28s2.89-.489 4.03-1.3c-.008.101-.03.197-.03.3z"/></svg>