<svg id="Layer_1" viewBox="0 0 24 24" xmlns="http://www.w3.org/2000/svg" data-name="Layer 1"><path d="m16 12c0 .408-.165.83-.431 1.103l-.569.583v.814c0 .827-.673 1.5-1.5 1.5-.174 0-.339-.039-.5-.099v-7.761s.008-.005.008-.005c.151-.088.321-.135.491-.135.551 0 1 .448 1 1v1.18l.857.596c.403.281.643.738.643 1.225zm-5-3.86-.009-.005c-.64-.378-1.491.143-1.49.865v1.181l-.858.597c-.402.28-.642.737-.642 1.223 0 .408.165.83.43 1.102l.57.584v.814c0 .827.673 1.5 1.5 1.5.173 0 .34-.039.5-.099v-7.761zm11-1.14v2h2v2h-2v2h2v2h-2v2h2v2h-2v3h-3v2h-2v-2h-2v2h-2v-2h-2v2h-2v-2h-2v2h-2v-2h-3v-3h-2v-2h2v-2h-2v-2h2v-2h-2v-2h2v-2h-2v-2h2c0-1.654 1.346-3 3-3v-2h2v2h2v-2h2v2h2v-2h2v2h2v-2h2v2c1.654 0 3 1.346 3 3h2v2zm-4 5c0-1.14-.56-2.21-1.5-2.865.071-1.7-1.295-3.139-3-3.135-.524 0-1.043.141-1.5.408-.456-.267-.974-.408-1.5-.408-1.706-.004-3.071 1.436-3 3.136-.939.654-1.5 1.726-1.5 2.864 0 .925.374 1.859 1 2.499 0 1.931 1.57 3.501 3.5 3.501.523 0 1.028-.115 1.5-.344.471.228.975.344 1.5.344 1.93 0 3.5-1.57 3.5-3.5.626-.641 1-1.575 1-2.5z"/></svg>