<svg id="Layer_1" viewBox="0 0 24 24" xmlns="http://www.w3.org/2000/svg" data-name="Layer 1"><path d="m12.009 15.096 3.096-3.096-4.081-2.398-2.359-2.353 1.767-1.767-4.75-4.75c-.976-.974-2.562-.974-3.536 0l-1.414 1.414c-.975.975-.975 2.561 0 3.536l4.75 4.75 1.769-1.769 2.334 2.328 2.424 4.106zm-2.375-13.239c.711-1.113 1.95-1.857 3.366-1.857h2c2.206 0 4 1.794 4 4v8c0 2.757-2.243 5-5 5-.332 0-.654-.036-.968-.098l5.316-5.317-6.091-3.579-.761-.759 1.764-1.765-3.625-3.626zm14.365 10.643v11.5h-20v-11.5c0-.231.019-.459.036-.687l1.447 1.447 1.518-1.517v.257c0 3.86 3.14 7 7 7s7-3.14 7-7v-6.406c1.895 1.777 3 4.243 3 6.906z"/></svg>