<svg id="Layer_1" viewBox="0 0 24 24" xmlns="http://www.w3.org/2000/svg" data-name="Layer 1"><path d="m17.5 12c-3.59 0-6.5 2.91-6.5 6.5 0 2.26 1.155 4.249 2.905 5.414l1.595-1.914h4l1.595 1.914c1.75-1.165 2.905-3.154 2.905-5.414 0-3.59-2.91-6.5-6.5-6.5zm1.492 6.422c.065.852-.643 1.582-1.492 1.578-.828 0-1.5-.672-1.5-1.5-.004-.849.726-1.557 1.578-1.492l1.965-1.965 1.414 1.414zm2.008-18.422h-18c-1.654 0-3 1.346-3 3v4h24v-4c0-1.654-1.346-3-3-3zm-17.5 5c-.828 0-1.5-.672-1.5-1.5s.672-1.5 1.5-1.5 1.5.672 1.5 1.5-.672 1.5-1.5 1.5zm4 0c-.828 0-1.5-.672-1.5-1.5s.672-1.5 1.5-1.5 1.5.672 1.5 1.5-.672 1.5-1.5 1.5zm2.27 17h-9.77v-13h24v4.034c-1.561-1.853-3.894-3.034-6.5-3.034-4.687 0-8.5 3.813-8.5 8.5 0 1.23.278 2.415.77 3.5z"/></svg>