<svg id="Layer_1" viewBox="0 0 24 24" xmlns="http://www.w3.org/2000/svg" data-name="Layer 1"><path d="m12.5 9c1.657 0 3 1.343 3 3s-1.343 3-3 3h-5s1-6 5-6zm4.666 1.246 6.126-6.126c.468-.467.708-.914.708-1.62 0-.623-.23-1.318-.705-1.793-.941-.942-2.467-.943-3.409-.002-.102.103-5.849 6.42-5.952 6.53 1.491.45 2.686 1.564 3.232 3.011zm4.074-1.246h2.76v-2.759zm-9.901-1.886 4.659-5.114h-12.998c-1.654 0-3 1.346-3 3v4h8.136c.84-.914 1.894-1.622 3.203-1.886zm-7.839-.114c-.828 0-1.5-.672-1.5-1.5s.672-1.5 1.5-1.5 1.5.672 1.5 1.5-.672 1.5-1.5 1.5zm2.5-1.5c0-.828.672-1.5 1.5-1.5s1.5.672 1.5 1.5-.672 1.5-1.5 1.5-1.5-.672-1.5-1.5zm13.24 5.5-1.805 1.805c-.386 2.375-2.452 4.195-4.935 4.195h-7.361l.388-2.329c.178-1.067.574-2.408 1.231-3.671h-6.758v13h24v-13zm-.24 10h-14v-2h14z"/></svg>