<svg id="Layer_1" viewBox="0 0 24 24" xmlns="http://www.w3.org/2000/svg" data-name="Layer 1"><path d="m21 13.672v-8.672c0-1.105-.896-2-2-2s-2 .895-2 2v2.853l-7.439-7.414c-.586-.586-1.535-.586-2.121 0-.586.585-.586 1.536 0 2.121l4.561 4.439-.879.879-6.561-6.439c-.586-.586-1.535-.586-2.121 0-.586.585-.586 1.536 0 2.121l6.561 6.439-.879.879-5.561-5.439c-.586-.586-1.535-.586-2.121 0-.586.585-.586 1.536 0 2.121l5.561 5.439-.879.879-2.56-2.44c-.585-.586-1.535-.586-2.121 0s-.586 1.535 0 2.121l5.929 5.904c1.69 1.69 3.911 2.535 6.131 2.535.214 0 .428-.015.642-.031l2.031 2.031h8.828v-7.328l-3-3zm-11.5 2.328c-.828 0-1.5-.672-1.5-1.5s.672-1.5 1.5-1.5 1.5.672 1.5 1.5-.672 1.5-1.5 1.5zm3.5-3.5c0-.828.672-1.5 1.5-1.5s1.5.672 1.5 1.5-.672 1.5-1.5 1.5-1.5-.672-1.5-1.5zm4.5 6.5c-.828 0-1.5-.672-1.5-1.5s.672-1.5 1.5-1.5 1.5.672 1.5 1.5-.672 1.5-1.5 1.5zm4 4c-.828 0-1.5-.672-1.5-1.5s.672-1.5 1.5-1.5 1.5.672 1.5 1.5-.672 1.5-1.5 1.5z"/></svg>