<svg id="Layer_1" viewBox="0 0 24 24" xmlns="http://www.w3.org/2000/svg" data-name="Layer 1"><path d="m17 19v5h-17v-2h4.263c2.061 0 3.737-1.671 3.737-3.725 0-1.43-.425-2.553-1.222-3.379-.33.651-.999 1.104-1.778 1.104-.872 0-1.607-.564-1.88-1.344-.32.217-.705.344-1.12.344-1.103 0-2-.897-2-2 0-2.253 3.494-4 6.5-4 5.888 0 10.5 4.393 10.5 10zm-6.44-19c-3.69 0-6.126 1.359-7.091 2.728-.291.342-.463.813-.469 1.272 0 1.103.897 2 2 2 .616 0 1.161-.286 1.528-.725.136.972.963 1.725 1.972 1.725.963 0 1.769-.684 1.958-1.592 1.429.721 2.632 1.9 3.194 3.697 3.252 2.146 5.349 5.74 5.349 9.895v5h4.995l.057-11.245c-.001-7.152-5.928-12.755-13.493-12.755z"/></svg>