<svg id="Layer_1" viewBox="0 0 24 24" xmlns="http://www.w3.org/2000/svg" data-name="Layer 1"><path d="m7.794 8.25-1.689-1.071 2.987-4.712c.581-.941 1.584-1.518 2.752-1.484 1.037 0 2.009.537 2.585 1.437l3.43 5.192 1.764-1.12c-.014.066-.654 3.759-.674 3.825-.088.323-.421.513-.743.425l-3.694-1.006 1.659-1.053-3.417-5.173c-.218-.339-.565-.512-.941-.527-.437 0-.813.203-1.024.545l-2.993 4.722zm15.687 7.865-2.869-4.355-1.67 1.1 2.87 4.359c.228.343.25.78.059 1.14-.203.382-.597.62-1.038.62l-6.831.004.005-2.019-2.836 2.573c-.248.225-.266.607-.042.855.045.052 2.814 2.578 2.862 2.626l.005-2.035 6.847-.004c1.171 0 2.241-.644 2.793-1.68.536-1.008.476-2.229-.155-3.183zm-21.345 2.255c-.192-.346-.18-.77.035-1.109l2.896-4.605 1.632 1.124-.52-3.793c-.045-.331-.351-.563-.682-.518-.068.008-3.717.865-3.784.877l1.705 1.174-2.939 4.674c-.605.956-.64 2.162-.093 3.146.561 1.015 1.623 1.646 2.78 1.646h5.84v-2.002h-5.847c-.422.001-.813-.233-1.023-.614zm8.963-1.387 3.709-4.559c.267-.404-.073-.941-.557-.94h-2l1-2.5h-3l-1.509 4.222c-.12.398.178.798.593.798l2.064-.002-.93 2.983h.631z"/></svg>