<?xml version="1.0" encoding="UTF-8"?>
<svg xmlns="http://www.w3.org/2000/svg" id="Layer_1" data-name="Layer 1" viewBox="0 0 24 24">
  <path d="M22.077,9.83l-1.667,3.643c-.236,.496-.85,.678-1.317,.39l-3.362-2.154,2.244-.664c-.15-.539-.35-1.056-.634-1.525,.47-.555,.855-1.182,1.135-1.865,.651,.825,1.121,1.787,1.416,2.822l2.185-.647Zm-10.077,9.17c-.08,0-.159-.008-.238-.012l.438-2.564-3.627,2.193c-.494,.31-.608,.981-.246,1.438l2.689,3.296,.409-2.393c.86,.108,1.759-.014,2.574-.214v-2.079c-.629,.213-1.3,.334-2,.334Zm-6.215-6.656l2.317,.69-1.699-3.765c-.243-.514-.878-.703-1.362-.405l-3.502,2.218,2.277,.678c-.101,.746-.08,1.539,.045,2.278,.9,.082,1.711,.451,2.339,1.029-.325-.829-.527-1.792-.415-2.721Zm-2.285,7.656c1.105,0,2-.895,2-2s-.895-2-2-2-2,.895-2,2,.895,2,2,2Zm3.5,3c0-1.103-.897-2-2-2H2c-1.103,0-2,.897-2,2v1H7v-1Zm17-5v6h-8v-6c0-1.103,.897-2,2-2h4c1.103,0,2,.897,2,2Zm-2.5,0h-3v2h3v-2ZM15.839,6.062l.991,.572-1,1.732-.981-.566c-.5,.509-1.138,.873-1.849,1.058v1.142h-2v-1.142c-.711-.185-1.349-.549-1.849-1.058l-.981,.566-1-1.732,.991-.572c-.094-.34-.161-.692-.161-1.062s.067-.721,.161-1.062l-.991-.572,1-1.732,.981,.566c.5-.509,1.138-.873,1.849-1.058V0h2V1.142c.711,.185,1.349,.549,1.849,1.058l.981-.566,1,1.732-.991,.572c.094,.34,.161,.692,.161,1.062s-.067,.721-.161,1.062Zm-2.339-1.062c0-.827-.673-1.5-1.5-1.5s-1.5,.673-1.5,1.5,.673,1.5,1.5,1.5,1.5-.673,1.5-1.5Z"/>
</svg>
