<svg id="Layer_1" viewBox="0 0 24 24" xmlns="http://www.w3.org/2000/svg" data-name="Layer 1"><path d="m5 20.5 2-2v2c-.031 1.906-1.556 3.507-3.5 3.5-1.93 0-3.5-1.57-3.5-3.5v-20.5h2v20.5c0 .827.673 1.5 1.5 1.5s1.5-.673 1.5-1.5zm13-16.5c1.105 0 2-.895 2-2s-.895-2-2-2-2 .895-2 2 .895 2 2 2zm-7-.5c0-.828-.672-1.5-1.5-1.5s-1.5.672-1.5 1.5.672 1.5 1.5 1.5 1.5-.672 1.5-1.5zm-6.801 8.401-.446.599c.798.985 1.434 2.191 4.38 4.143.379-.811.867-2.227.867-4.153 0-1.944-.497-3.344-.874-4.125-2.305 1.403-3.831 3.408-3.927 3.536zm19.033-2.592c-.369-.369-.799-.431-1.167-.063l-1.896 1.896c-.602-.672-1.603-1.668-2.881-2.52.665-.691 1.213-1.261 1.213-1.261-1.379-1.379-2.911-2.023-3.804-2.303-.447-.14-.933-.025-1.265.307l-1.593 1.676c-.668.065-1.306.232-1.915.455.488 1.006 1.078 2.687 1.078 4.994s-.586 4.005-1.071 5.029c.806.294 1.668.481 2.571.481 1.179 0 2.288-.312 3.29-.776l.415.415c.429.429 1.105.483 1.596.128l1.199-.866-1.019-1.019c.674-.515 1.252-1.046 1.704-1.508l2.38 2.38c.369.369.799.306 1.167-.063.615-.615 1.367-2.323 0-3.69 1.367-1.367.615-3.075 0-3.69z"/></svg>