<svg id="Layer_1" viewBox="0 0 24 24" xmlns="http://www.w3.org/2000/svg" data-name="Layer 1"><path d="m6 12h-6v-5h6zm4.5-7c1.381 0 2.5-1.119 2.5-2.5s-1.119-2.5-2.5-2.5-2.5 1.119-2.5 2.5 1.119 2.5 2.5 2.5zm-4.5-5h-6v5h6zm2.32 17.124-2.037-3.124h-6.283v2h1.706c-1.032.825-1.706 2.079-1.706 3.5 0 2.481 2.019 4.5 4.5 4.5s4.5-2.019 4.5-4.5c0-.872-.26-1.679-.691-2.369zm15.68 3.376c0 1.93-1.57 3.5-3.5 3.5-1.391 0-2.585-.822-3.149-2h-6.351v-2h2v-2.888l-3.373-1.722c-1.005-.52-1.627-1.541-1.627-2.667v-4.277c0-.716.283-1.358.799-1.809.633-.555 1.658-.818 2.572-.566l4.821 1.929h3.576l2.231 8.5v.851c1.178.564 2 1.758 2 3.149zm-4-3.449v-.42l-1.769-6.631h-2.424l-2.808-1.123v5.99l2 1.021v4.112h2.051c.221-1.527 1.423-2.728 2.949-2.949z"/></svg>