<svg id="Layer_1" viewBox="0 0 24 24" xmlns="http://www.w3.org/2000/svg" data-name="Layer 1"><path d="m19 4v2h-2.566c-.727 1.051-1.916 2.345-3.434 2.864v.636c0 .827.673 1.5 1.5 1.5h.5v2h-6s0-2 0-2h.5c.827 0 1.5-.673 1.5-1.5v-.636c-1.518-.518-2.708-1.814-3.434-2.864h-2.566v-2h1.496c-.253-.641-.218-.61-.45-1.624-.128-.581.014-1.18.387-1.645.374-.465.931-.731 1.527-.731h8.08c.597 0 1.153.267 1.527.731.373.464.515 1.064.387 1.645-.232 1.012-.197.984-.45 1.624zm-3 13v7h-8v-7c0-1.105.895-2 2-2h4c1.105 0 2 .895 2 2zm-10 1.5v5.5h-6v-5.5c0-.828.672-1.5 1.5-1.5h3c.828 0 1.5.672 1.5 1.5zm18 1v4.5h-6v-4.5c0-.828.672-1.5 1.5-1.5h3c.828 0 1.5.672 1.5 1.5z"/></svg>