<svg id="Layer_1" viewBox="0 0 24 24" xmlns="http://www.w3.org/2000/svg" data-name="Layer 1"><path d="m4 18v-18h-1c-1.657 0-3 1.343-3 3v15.765c.549-.494 1.262-.766 2-.765zm8.047-6h2.953v-1h5v-9c0-1.105-.895-2-2-2h-12v18h4.096zm-1.905 8h-8.142c-1.105 0-2 .895-2 2s.895 2 2 2h10v-1.579c-.898-.533-1.577-1.395-1.858-2.421zm1.858-1v-.336l1.5-4.664h3.5v-1h2v1h3.5l1.5 4.664v.336c0 1.104-.895 2-2 2s-2-.896-2-2v-.336l.842-2.664h-1.842v6h3v2h-8v-2h3v-6h-1.842l.842 2.664v.336c0 1.104-.895 2-2 2s-2-.896-2-2z"/></svg>