<svg id="Layer_1" viewBox="0 0 24 24" xmlns="http://www.w3.org/2000/svg" data-name="Layer 1"><path d="m24 4v2h-4v4h-2v-4h-4v-2h4v-4h2v4zm-12 4c-1.103 0-2 .897-2 2s.897 2 2 2 2-.897 2-2-.897-2-2-2zm7 4c-1.159 0-2.247-.288-3.208-.788-.517 1.611-2.011 2.788-3.792 2.788-2.206 0-4-1.794-4-4-.004-2.224 1.85-4.063 4.08-3.992-.048-.33-.08-.665-.08-1.008 0-1.874.741-3.572 1.94-4.829-.633-.104-1.278-.171-1.94-.171-6.617 0-12 5.383-12 12 0 4.43 2.419 8.298 6 10.376v-3.376c0-1.654 1.346-3 3-3h6c1.654 0 3 1.346 3 3v3.376c3.581-2.078 6-5.946 6-10.376 0-.662-.068-1.307-.171-1.94-1.256 1.199-2.954 1.94-4.829 1.94zm-4 6h-6c-.551 0-1 .448-1 1v4.3c1.253.445 2.596.7 4 .7s2.747-.255 4-.7v-4.3c0-.552-.449-1-1-1z"/></svg>