<svg id="Layer_1" viewBox="0 0 24 24" xmlns="http://www.w3.org/2000/svg" data-name="Layer 1"><path d="m11 24h-4s.5-1.735.5-3.5-.5-3.5-.5-3.5h4s-.5 1.382-.5 3.5.5 3.5.5 3.5zm5.5-3.559c0 2.118.5 3.559.5 3.559h-4s.5-1.794.5-3.559-.5-3.441-.5-3.441h4s-.5 1.324-.5 3.441zm-5.5-5.441h-4s.5-1.721.5-3.471-.5-3.529-.5-3.529h4s-.5 1.429-.5 3.529.5 3.471.5 3.471zm0-9h-4s.5-1.471.5-2.971-.5-3.029-.5-3.029h4s-.5 1.229-.5 3.029.5 2.971.5 2.971zm5.5 5.471c0 2.1.5 3.529.5 3.529h-4s.5-1.779.5-3.529-.5-3.471-.5-3.471h4s-.5 1.371-.5 3.471zm-11.419-9.572c-1.657-1.657-4.081-1.899-4.081-1.899s.263 2.444 1.919 4.101c1.657 1.657 4.081 1.899 4.081 1.899s-.263-2.444-1.919-4.101zm1.919 4.101s-2.828.282-4.761 2.215c-1.933 1.933-2.239 4.785-2.239 4.785s2.828-.282 4.761-2.215 2.239-4.785 2.239-4.785zm11.919 13.101c1.657 1.657 4.081 1.899 4.081 1.899s-.263-2.444-1.919-4.101c-1.657-1.657-4.081-1.899-4.081-1.899s.263 2.444 1.919 4.101zm-1.919-4.101s2.828-.282 4.761-2.215 2.239-4.785 2.239-4.785-2.828.282-4.761 2.215-2.239 4.785-2.239 4.785z"/></svg>