<svg id="Layer_1" viewBox="0 0 24 24" xmlns="http://www.w3.org/2000/svg" data-name="Layer 1"><path d="m9.333 14 2.051 3.077-1.385 6.923h-6.999v-5c0-2.757 2.243-5 5-5zm6.667 0h-1.333l-2.051 3.077 1.385 6.923h7v-5c0-2.757-2.243-5-5-5zm-5.206-9.717c.858-.535 1.508-1.312 1.879-2.233.679.102 1.313.356 1.862.732-.527 1.319-1.455 2.432-2.683 3.198-1.081.674-2.609 1.02-3.852 1.02-.038 0-.41 0-.69 0 .361 2.264 2.327 3.999 4.69 3.999 1.751 0 3.284-.953 4.108-2.368.071.298.646 2.825.769 3.429 1.3.164 2.489.683 3.467 1.46-.453-1.919-2.067-8.735-2.142-8.971-.855-2.722-3.348-4.55-6.202-4.55s-5.348 1.83-6.202 4.551c-.017.054-.058.211-.117.45h2.088c1.25 0 2.214-.212 3.025-.717zm-2.794 7.717h.468c-1.816-1.089-2.941-3.012-3.232-5.166-.442 1.848-1.063 4.481-1.581 6.687 1.195-.949 2.703-1.521 4.344-1.521z"/></svg>