<svg id="Layer_1" viewBox="0 0 24 24" xmlns="http://www.w3.org/2000/svg" data-name="Layer 1"><path d="m10.748 12.151 4.252-5.493v-6.658h2l4 2.5-4 2.5v1.658l3.662 4.731-2.412 3.917-1.756-2.416-2.517 3.523-3.23-4.263zm-8.955-2.358 1-1-.793-.793h-2v-1.586c1-1.414 2.5-2.415 4.383-2.415h.006c1.817-1.639 4.041-2.913 6.836-3.92.393-.187.96-.089 1.357.287.394.372.523.928.335 1.422-.998 2.763-2.325 5.072-3.945 6.862 0 1.85-.972 3.35-2.386 4.35h-1.586v-2l-.793-.793-1 1zm3.207-3.293c0 .828.672 1.5 1.5 1.5s1.5-.671 1.5-1.5-.672-1.5-1.5-1.5-1.5.672-1.5 1.5zm16.97 6.578-3.584 5.818-1.879-2.584-2.483 3.477-4.545-5.999-6.479 8.368v1.842h21v-8.301l-2.029-2.621z"/></svg>