<svg id="Layer_1" viewBox="0 0 24 24" xmlns="http://www.w3.org/2000/svg" data-name="Layer 1"><path d="m10 14v-1.5c0-.98-.407-1.864-1.058-2.5h6.117c-.651.636-1.058 1.52-1.058 2.5v1.5h-4zm1.184 4.34c-.79-.567-1.884-.393-2.562.285l-.622.626v-6.75c0-.827-.673-1.5-1.5-1.5s-1.5.673-1.5 1.5v3.323l-5 1.999v6.177h8.618l2.815-2.711c.831-.831.748-2.231-.249-2.949zm7.816-5.84c0-.827-.673-1.5-1.5-1.5s-1.5.673-1.5 1.5v6.75l-.622-.626c-.677-.678-1.772-.851-2.562-.285-.997.718-1.08 2.118-.249 2.949l2.815 2.711h8.618v-6.177l-5-2v-3.323zm5-9.5v11h-3v-1.5c0-.947-.386-1.8-1-2.431v-2.069h-2v1.051c-.165-.024-.329-.051-.5-.051-.539 0-1.044.133-1.5.351v-1.351h-8v1.351c-.456-.219-.961-.351-1.5-.351-.171 0-.335.027-.5.051v-1.051h-2v2.069c-.614.631-1 1.484-1 2.431v1.5h-3v-11c0-1.657 1.343-3 3-3h18c1.657 0 3 1.343 3 3zm-17 1h-3v2h3zm5 0h-3v2h3zm8 0h-6v2h6z"/></svg>