<svg id="Layer_1" viewBox="0 0 24 24" xmlns="http://www.w3.org/2000/svg" data-name="Layer 1"><path d="m9.015 9.274c-1.254-.902-2.898-2.374-3.632-4.274h7.241c-.726 1.911-2.361 3.379-3.609 4.274zm14.985 7.726c0 3.866-3.134 7-7 7s-7-3.134-7-7 3.134-7 7-7 7 3.134 7 7zm-9-1.876c0-.344.28-.624.624-.624h2.376c.552 0 1 .449 1 1h2c0-1.654-1.346-3-3-3v-1h-2v1h-.376c-1.447 0-2.624 1.177-2.624 2.624 0 1.288.922 2.377 2.192 2.588l3.286.548c.302.05.521.309.521.616 0 .344-.28.624-.624.624h-2.376c-.551 0-1-.449-1-1h-2c0 1.654 1.346 3 3 3v1h2v-1h.376c1.447 0 2.624-1.177 2.624-2.624 0-1.288-.923-2.377-2.193-2.588l-3.286-.548c-.302-.05-.521-.309-.521-.616zm-3.373-5.314c1.432-1.073 3.186-1.739 5.1-1.797.761-1.448 1.272-3.115 1.272-5.014 0-1.654-1.346-3-3-3h-11.999c-1.654.001-3 1.347-3 3.001 0 4.006 2.24 7.013 4.442 9-2.202 1.987-4.442 4.994-4.442 9v3h11.349c-2.041-1.65-3.349-4.171-3.349-7 0-1.814.539-3.501 1.463-4.912l-.997-.765c-1.763-1.156-4.806-3.625-5.373-7.165l-.186-1.158h12.185l-.182 1.155c-.369 2.34-1.827 4.275-3.283 5.655z"/></svg>