<svg id="Layer_1" viewBox="0 0 24 24" xmlns="http://www.w3.org/2000/svg" data-name="Layer 1"><path d="m11 5h-6v-2c0-1.654 1.346-3 3-3h7.238c.792 0 1.559.232 2.219.672l2.502 1.667-1.109 1.664-2.502-1.667c-.33-.22-.714-.336-1.109-.336h-4.238v3zm-3 9.401-1.068 1.045c-.577.577-.577 1.529.008 2.114.566.566 1.555.566 2.121 0 .585-.585.585-1.537 0-2.122zm11-4.401c0 1.105.895 2 2 2s2-.895 2-2-.895-2-2-2-2 .895-2 2zm-3 14h-16v-10c0-2.831 1.438-5.439 3.691-7h8.618c2.253 1.561 3.691 4.169 3.691 7zm-5.533-9.983-2.467-2.412-2.475 2.42c-1.365 1.364-1.365 3.586 0 4.95.661.661 1.54 1.025 2.475 1.025s1.813-.364 2.475-1.025c1.365-1.364 1.365-3.586-.008-4.958zm10.861 3.093c.11-.265.172-.555.172-.86 0-1.243-1.007-2.25-2.25-2.25-.463 0-.892.14-1.25.38v8.562c.636.651 1.52 1.058 2.5 1.058 1.93 0 3.5-1.57 3.5-3.5 0-1.643-1.143-3.016-2.672-3.39z"/></svg>