<?xml version="1.0" encoding="UTF-8"?>
<svg xmlns="http://www.w3.org/2000/svg" id="Layer_1" data-name="Layer 1" viewBox="0 0 24 24">
  <path d="m16.879,22H6.049l-.217,2h-2.012L6.211,2h0l.217-2h2.012l-.217,2h6.482l.543,5h-7.569l-.272,2.5h8.113l.543,5H6.865l-.272,2.5h9.743l.543,5Zm7.121,0l-.543-5h-3.038l-.272-2.5h2.875l-.543-5h-2.875l-.272-2.5h2.929l-.543-5h-2.929l-.217-2h-2.012l2.609,24h2.012l-.217-2h3.038ZM2.053,2l-.543,5h2.146l.543-5h-2.147ZM.749,14.5h2.092l.543-5H1.292l-.543,5Zm-.978,7.5h2.255l.543-5H.314l-.543,5Z"/>
</svg>
