<svg id="Layer_1" viewBox="0 0 24 24" xmlns="http://www.w3.org/2000/svg" data-name="Layer 1"><path d="m24 4.5c0 2.481-2.019 4.5-4.5 4.5-1.468 0-2.762-.717-3.584-1.808-1.386.635-2.621.773-3.916.799v.009h-6v-3c0-1.103.897-2 2-2h2c1.103 0 2 .897 2 2v.991c1.111-.024 2.046-.138 3.088-.617-.056-.283-.088-.574-.088-.873 0-2.481 2.019-4.5 4.5-4.5s4.5 2.019 4.5 4.5zm-9.392 5.5h-11.216c-2.058 1.649-3.392 4.164-3.392 7-.002 2.683 1.2 5.297 3.183 7h11.635c1.982-1.703 3.185-4.318 3.183-7 0-2.836-1.334-5.351-3.392-7z"/></svg>