<svg id="Layer_1" viewBox="0 0 24 24" xmlns="http://www.w3.org/2000/svg" data-name="Layer 1"><path d="m9.5 2.5c0-1.381 1.119-2.5 2.5-2.5s2.5 1.119 2.5 2.5-1.119 2.5-2.5 2.5-2.5-1.119-2.5-2.5zm4 11.5c0-1.546 1.562-2.426 1.5-4 0-1.657-1.343-3-3-3s-3 1.343-3 3c-.062 1.574 1.5 2.454 1.5 4 0 1-1.16 1.188-1.5 1.242-2.208.35-4 1.037-4 1.758 0 1.036 3.686 2 7 2s6.5-.964 6.5-2c0-.709-1.494-1.383-3.5-1.739-.333-.059-1.5-.261-1.5-1.261zm3.469-3.366c-.156 1.191-.712 1.956-1.185 2.741 3.077.636 5.216 2.018 5.216 3.626 0 2.209-4.029 4-9 4s-9-1.791-9-4c0-1.608 2.139-2.99 5.216-3.626-.472-.782-1.012-1.524-1.178-2.743-4.148 1.102-7.038 3.536-7.038 6.368 0 3.866 5.373 7 12 7s12-3.134 12-7c0-2.831-2.886-5.263-7.031-6.366z"/></svg>