<svg id="Layer_1" viewBox="0 0 24 24" xmlns="http://www.w3.org/2000/svg" data-name="Layer 1"><path d="m23 7v-2h-4v2h-1v4c0 1.302.839 2.402 2 2.816v7.184c0 .551-.448 1-1 1h-3v-19c0-1.654-1.346-3-3-3h-10c-1.654 0-3 1.346-3 3v21h19c1.654 0 3-1.346 3-3v-7.184c1.161-.414 2-1.514 2-2.816v-4zm-13 14h-3.999v-2h3.999zm.868-10.007-2.565 4.503-1.736-.991 1.999-3.504h-2.164c-.489 0-.936-.249-1.192-.666-.257-.416-.279-.926-.06-1.363l2.56-4.468 1.734.994-2.007 3.503h2.162c.481 0 .923.243 1.182.648s.291.909.088 1.344z"/></svg>