<svg id="Layer_1" viewBox="0 0 24 24" xmlns="http://www.w3.org/2000/svg" data-name="Layer 1"><path d="m9 7.8h-2.127c-.316 0-.573.257-.573.574 0 .272.194.509.461.562l2.792.559c.799.16 1.419.754 1.647 1.505h4.8v-11h-16v21c0 1.654 1.346 3 3 3h8v-11.291c-.376.649-1.071 1.091-1.874 1.091h-.326v1.2h-1.6v-1.2h-.2c-1.201 0-2.189-.925-2.291-2.1h1.62c.086.289.354.5.671.5h2.126c.316 0 .574-.257.574-.574 0-.272-.194-.509-.462-.563l-2.791-.559c-1.013-.203-1.747-1.099-1.747-2.131 0-1.199.975-2.173 2.173-2.173h.327v-1.2h1.6v1.2h.2c1.201 0 2.189.925 2.291 2.1h-1.62c-.086-.289-.354-.5-.671-.5zm-3 11.2h4v2h-4zm13 3h2v2h-2zm3-3h2v2h-2zm-3 0h2v2h-2zm-6-1h5v-5h-5zm2-3h1v1h-1zm-2 9h5v-5h-5zm2-3h1v1h-1zm4-8v5h5v-5zm3 3h-1v-1h1z"/></svg>