<svg id="Layer_1" viewBox="0 0 24 24" xmlns="http://www.w3.org/2000/svg" data-name="Layer 1"><path d="m17.443 11.911-3.385-1.952c-.655-.378-1.059-1.076-1.059-1.833v-4.058c0-.756.404-1.455 1.059-1.833l3.385-1.952c.654-.377 1.46-.377 2.114 0l3.385 1.952c.655.378 1.059 1.076 1.059 1.833v4.059c0 .756-.404 1.455-1.058 1.832l-3.385 1.952c-.654.377-1.46.377-2.114 0zm-16.384-1.952c-.655-.378-1.059-1.076-1.059-1.832v-4.059c0-.756.404-1.455 1.058-1.832l3.385-1.953c.654-.377 1.46-.377 2.114 0l3.385 1.952c.655.378 1.059 1.076 1.059 1.833v4.059c0 .756-.404 1.455-1.059 1.833l-3.385 1.952c-.654.377-1.46.377-2.114 0l-3.385-1.952zm10.941 14.04c-.382 0-.764-.098-1.105-.295l-3.538-2.04c-.685-.395-1.107-1.126-1.107-1.916v-4.199c0-.756.404-1.455 1.058-1.832l3.635-2.097c.654-.377 1.46-.377 2.114 0l3.635 2.097c.655.378 1.058 1.076 1.058 1.832v4.199c0 .79-.422 1.521-1.107 1.916l-3.538 2.04c-.341.196-.723.295-1.105.295z"/></svg>