<svg id="Layer_1" viewBox="0 0 24 24" xmlns="http://www.w3.org/2000/svg" data-name="Layer 1"><path d="m9.5 13.5v.5h-3v-.5c0-.827.674-1.5 1.5-1.5s1.5.673 1.5 1.5zm-4.5 2.5h6v4h-6zm2 3h2v-2h-2zm17-16v4h-24v-4c0-1.654 1.346-3 3-3h18c1.654 0 3 1.346 3 3zm-19 .5c0-.828-.672-1.5-1.5-1.5s-1.5.672-1.5 1.5.672 1.5 1.5 1.5 1.5-.672 1.5-1.5zm4 0c0-.828-.672-1.5-1.5-1.5s-1.5.672-1.5 1.5.672 1.5 1.5 1.5 1.5-.672 1.5-1.5zm9 10.214 6 10.286h-12zm1 7.286h-2v2h2zm0-4h-2v3h2zm-19 5h5c-1.105 0-2-.895-2-2v-6h1.5v-.5c0-2.17 1.985-3.885 4.235-3.425 1.636.335 2.765 1.854 2.765 3.525v.4h1.5v4.316l3.684-6.316h2.632l4.684 8.031v-11.031h-24z"/></svg>