<svg id="Layer_1" viewBox="0 0 24 24" xmlns="http://www.w3.org/2000/svg" data-name="Layer 1"><path d="m21.414 5h-4.414v-4.414zm-6.832 8.6c-.266 0-.482.216-.482.482v3.837c0 .266.216.482.482.482s.482-.216.482-.482v-3.837c0-.266-.216-.482-.482-.482zm5.818 2.035v-3.635h1.6v-5h-7v-7h-10c-1.657 0-3 1.343-3 3v14h1.5v.7c0 .386.314.7.7.7s.7-.314.7-.7v-5.7h1.6v5.7c0 1.269-1.031 2.3-2.3 2.3-1.048 0-1.923-.708-2.2-1.667v5.667h20v-4h-1.6l-1.3-3.712v3.712h-1.6v-8h1.6v.009zm-10.855 4.365c-1.536 0-2.469-1.098-2.508-1.145l1.229-1.024c.015.017.506.57 1.279.57.082-.002.696-.181.696-.781 0-.5-.194-.688-1.091-1.056-.501-.206-2.026-.833-2.026-2.372 0-1.249.958-2.191 2.228-2.191 1.118 0 1.91.77 1.997.857l-1.133 1.129c-.11-.107-.481-.387-.864-.387s-.628.232-.628.591c0 .14 0 .467 1.035.892.779.32 2.082.855 2.082 2.536 0 1.533-1.357 2.381-2.296 2.381zm7.119-2.082c0 1.148-.933 2.082-2.082 2.082s-2.082-.933-2.082-2.082v-3.837c0-1.148.933-2.082 2.082-2.082s2.082.933 2.082 2.082z"/></svg>