<svg id="Layer_1" viewBox="0 0 24 24" xmlns="http://www.w3.org/2000/svg" data-name="Layer 1"><path d="m11 3.05c0 3.194-5.5 6.95-5.5 6.95s-5.5-3.755-5.5-6.95c0-1.922 1.231-3.05 2.75-3.05s2.75 1.396 2.75 2.75c0-1.46 1.231-2.75 2.75-2.75s2.75 1.128 2.75 3.05zm3.949-.871c-.725.4-.989 1.313-.589 2.038l4.175 7.709-1.088.6-1.831-3.327c-.361-.654-1.143-1.015-1.847-.764-.897.32-1.26 1.344-.819 2.141l1.871 3.398-1.088.6-1.245-2.222c-.361-.654-1.143-1.015-1.847-.764-.897.32-1.26 1.344-.819 2.141l1.284 2.294-1.089.601-.509-.814c-.399-.725-1.312-.989-2.038-.589s-.989 1.312-.589 2.038l1.306 2.259c1.155 2.093 3.053 3.521 5.186 4.137s4.501.421 6.594-.734c.326-.18.861-.538 1.521-1.007 2.475-1.756 3.218-5.103 1.743-7.755l-6.245-11.391c-.4-.726-1.312-.989-2.038-.589zm6.529 4.621 1.395-2.575c.4-.725.137-1.638-.589-2.038s-1.638-.137-2.038.589l-.488.889 1.719 3.135z"/></svg>