<svg id="Layer_1" viewBox="0 0 24 24" xmlns="http://www.w3.org/2000/svg" data-name="Layer 1"><path d="m17 10c-3.859 0-7 3.141-7 7s3.141 7 7 7 7-3.141 7-7-3.141-7-7-7zm-1.262 11.819-.689-2.148h-2.262c-.451-.71-.72-1.538-.763-2.427l1.82-1.282-.664-2.148c.536-.641 1.217-1.151 2.008-1.46l1.811 1.316 1.811-1.316c.791.31 1.472.819 2.008 1.46l-.664 2.148 1.82 1.282c-.044.89-.312 1.718-.763 2.427h-2.262s-.689 2.149-.689 2.149c-.406.107-.823.181-1.262.181s-.856-.075-1.262-.181zm3.212-2.148h-3.901l-1.205-3.71 3.156-2.293 3.156 2.293-1.205 3.71zm-10.891-1.671h-5.059c-1.657 0-3-1.343-3-3v-4l1.096.003c1.1-.029 1.986-.855 1.986-1.962s-.884-2.009-1.982-2.04l-1.1.003v-4.004c0-1.657 1.343-3 3-3h18c1.657 0 3 1.343 3 3v4h-.888c-.997 0-1.922.679-2.084 1.662-.016.099-.013.194-.015.29-1.209-.604-2.569-.953-4.013-.953-4.971 0-9 4.029-9 9 0 .338.022.671.059 1z"/></svg>