<?xml version="1.0" encoding="UTF-8"?>
<svg xmlns="http://www.w3.org/2000/svg" id="Layer_1" data-name="Layer 1" viewBox="0 0 24 24">
  <path d="M10.84,20h2.189l1.779,4h-2.188l-1.779-4Zm-.242-10.144s-1.637,.927-1.65,.966l1.858,4.178h2.086l-2.294-5.144Zm13.402,10.144H13.029l-1.334-3h6.385l.981,1h2.802l-2.943-3h-3.839l-2.715-6.087,3.013-1.607,2.795-4.306h-2.415l-1.755,2.771-5.963,3.181c-1.065,.568-1.888,1.502-2.319,2.629l-2.453,6.419h2.142l2.097-5.489,3.331,7.489H0V3C0,1.343,1.343,0,3,0H21c1.657,0,3,1.343,3,3V20ZM10,5.5c0-1.381-1.119-2.5-2.5-2.5s-2.5,1.119-2.5,2.5,1.119,2.5,2.5,2.5,2.5-1.119,2.5-2.5Z"/>
</svg>
