<svg id="Layer_1" viewBox="0 0 24 24" xmlns="http://www.w3.org/2000/svg" data-name="Layer 1"><path d="m7.42 13.008c.996-.501 2.232-.845 3.58-.961v2.452l-3.58-1.492zm3.58 4.491-3.58 1.492c.996.501 2.232.845 3.58.961v-2.452zm2-5.452v2.452l3.58-1.492c-.996-.501-2.232-.845-3.58-.961zm-7.402 2.368c-.382.489-.598 1.025-.598 1.584s.217 1.095.598 1.584l3.802-1.584zm-5.598-14.415v2l1.696 4h20.608l1.696-4v-2zm13 17.5v2.452c1.349-.116 2.584-.46 3.58-.961l-3.58-1.492zm8.68-9.5 2.32 13v3h-24v-3l2.319-13zm-.68 8c0-1.301-.596-2.491-1.614-3.464-.021-.022-.043-.039-.066-.059-1.619-1.508-4.266-2.478-7.321-2.478s-5.703.97-7.322 2.479c-.022.019-.043.036-.063.057-1.018.973-1.614 2.163-1.614 3.464 0 3.364 3.953 6 9 6s9-2.636 9-6zm-2.598-1.584-3.802 1.584 3.802 1.584c.382-.489.598-1.025.598-1.584s-.217-1.095-.598-1.584z"/></svg>