<svg id="Layer_1" viewBox="0 0 24 24" xmlns="http://www.w3.org/2000/svg" data-name="Layer 1"><path d="m13.722 18.047-3.619-18.047h1.22c3.056 0 12.677 5.467 12.677 14.951v.802zm-11.222-12.047c1.381 0 2.5-1.119 2.5-2.5s-1.119-2.5-2.5-2.5-2.5 1.119-2.5 2.5 1.119 2.5 2.5 2.5zm20.002 15.316c-.379.435-.927.684-1.502.684-1.103 0-2-.897-2-2h-2c0 1.103-.897 2-2 2s-2-.897-2-2h-2c0 1.103-.897 2-2 2s-2-.897-2-2h-2c0 1.103-.897 2-2 2-.575 0-1.123-.249-1.503-.685l-1.497 1.316c.759.869 1.847 1.368 3 1.368 1.193 0 2.267-.525 3-1.357.733.832 1.807 1.357 3 1.357s2.267-.525 3-1.357c.733.832 1.807 1.357 3 1.357s2.267-.525 3-1.357c.733.832 1.807 1.357 3 1.357 1.153 0 2.24-.499 3-1.369zm-22.453-11.123c-.03-.159-.049-.316-.049-.471 0-1.313.826-2.372 2.094-2.613.864-.162 1.525.097 2.227.373l2.262.812 3.171-.602.373 1.965-3.707.703-1.969-.706.959 4.245 3.064.644.87 4.585-1.965.373-.622-3.274-3.782-.796c-1.506-.379-2.266-1.759-2.488-2.927z"/></svg>