<?xml version="1.0" encoding="UTF-8"?>
<svg xmlns="http://www.w3.org/2000/svg" id="Layer_1" data-name="Layer 1" viewBox="0 0 24 24">
  <path d="M20.5,5c-1.105,0-2-.895-2-2,0-1.105,.895-2,2-2s2,.895,2,2c0,1.105-.895,2-2,2ZM13,.25V2h-3V4h3v1.75l2.509-2.17c.34-.305,.34-.837,0-1.142L13,.25Zm-1,5l-2.509,2.17c-.34,.305-.34,.837,0,1.142l2.509,2.188v-1.75h3v-2h-3s0-1.75,0-1.75Zm5,2.75v1h7v-1c0-1.103-.897-2-2-2h-3c-1.103,0-2,.897-2,2ZM2,1H6c1.103,0,2,.897,2,2v6S0,9,0,9V3C0,1.897,.897,1,2,1Zm.5,4h3V3H2.5v2Zm20.648,6.681c-1.007-.963-2.764-.882-3.672,.157l-3.541,3.737c.032,.21,.065,.42,.065,.638,0,2.083-1.555,3.876-3.617,4.17l-4.241,.606-.283-1.979,4.241-.606c1.084-.155,1.9-1.097,1.9-2.191,0-1.22-.993-2.213-2.213-2.213H3c-1.654,0-3,1.346-3,3v7H15.411l7.927-8.655c.948-1.062,.862-2.707-.189-3.665Z"/>
</svg>
