<svg id="Layer_1" viewBox="0 0 24 24" xmlns="http://www.w3.org/2000/svg" data-name="Layer 1"><path d="m8.893 24.001c-.917.09-3.429-.534-3.568-.612l.576-1.916c.11.065 2.313.618 3.087.527 1.023-.014 1.86-.247 2.475-.449 1.003-.329 2.387-.686 4.168-.5 1.236.129 2.709.675 3.229.919l-.852 1.811c-.434-.204-1.677-.646-2.583-.739-1.398-.146-2.473.126-3.337.41-.755.253-1.909.556-3.194.55zm15.107-11.501c0 3.394-2.267 6.265-5.366 7.186-.538-.15-1.991-.54-2.912-.634-1.805-.187-3.201.17-4.217.499-.794.292-2.277.558-3.395.411-.904-.093-2.206-.521-2.219-.524l-.186.562h-.705c-2.757 0-5-2.468-5-5.5 0-1.786.851-3.425 2.266-4.45-.177-.666-.266-1.353-.266-2.05 0-4.411 3.589-8 8-8 3.28 0 6.246 2.048 7.44 5.058 3.73.459 6.56 3.604 6.56 7.441zm-5.067 3.186c-.085-.021-2.106-.521-3.211-.634-1.805-.187-3.201.169-4.217.499-.626.203-1.479.438-2.518.451-.886.079-2.464-.384-3.052-.646l-.742 1.857c.284.18 2.785.93 3.819.788 1.307-.017 2.348-.302 3.109-.549.881-.286 1.971-.56 3.396-.411.965.099 2.915.58 2.935.585l.48-1.941z"/></svg>