<svg id="Layer_1" viewBox="0 0 24 24" xmlns="http://www.w3.org/2000/svg" data-name="Layer 1"><path d="m17.233 15.555-4-3.13c-.724-.567-1.741-.567-2.465 0l-4 3.13c-.484.379-.767.96-.767 1.575v6.87h12v-6.87c0-.615-.283-1.196-.767-1.575zm-5.233 7.445c-.552 0-1-.448-1-1s.448-1 1-1 1 .448 1 1-.448 1-1 1zm1.697-2.197c-.936-.936-2.458-.936-3.393 0l-1.132-1.131c1.56-1.56 4.098-1.56 5.657 0l-1.132 1.13s0 0 0 0zm1.768-1.768c-.925-.925-2.155-1.435-3.464-1.435s-2.539.51-3.464 1.435l-1.132-1.131c1.228-1.228 2.86-1.904 4.596-1.904s3.369.676 4.596 1.904zm8.535-6.535c0 2.872-1.624 5.369-4 6.628v-1.998c0-1.238-.56-2.387-1.535-3.15l-4-3.13c-1.451-1.137-3.479-1.136-4.93 0l-4 3.13c-.976.763-1.535 1.911-1.535 3.15v2.759c-2.279-.511-4-2.733-4-5.389 0-1.786.851-3.425 2.266-4.451-.177-.666-.266-1.353-.266-2.049 0-4.411 3.589-8 8-8 3.281 0 6.246 2.048 7.44 5.059 3.73.459 6.56 3.604 6.56 7.441z"/></svg>