<svg id="Layer_1" viewBox="0 0 24 24" xmlns="http://www.w3.org/2000/svg" data-name="Layer 1"><path d="m18 12c-3.308 0-6 2.692-6 6s2.692 6 6 6 6-2.692 6-6-2.692-6-6-6zm1 10h-2v-2h2zm0-3h-2v-5h2zm-16-13h8l-5 5h-6v-2c0-1.654 1.346-3 3-3zm10-1v1h-2v-6h2l4 2.5zm4.06 5.06-4.06-4.06h8c1.654 0 3 1.346 3 3v2h-2.13c-1.172-.65-2.493-1-3.87-1-.317 0-.63.024-.94.06zm-4.717 13.596c-1.511-1.511-2.343-3.52-2.343-5.656s.833-4.146 2.344-5.657c.712-.712 1.537-1.267 2.431-1.661l-2.774-2.682-5.172 5h-6.829v11h12.722c-.128-.113-.257-.222-.379-.344zm-6.343-1.656h-3v-2h3zm0-4h-3v-2h3z"/></svg>