<svg id="Layer_1" viewBox="0 0 24 24" xmlns="http://www.w3.org/2000/svg" data-name="Layer 1"><path d="m12.676 6.784c.811.811 1.753 1.217 2.686 1.217.706 0 1.403-.243 2.034-.711.254.31.447.68.516 1.092.206 1.213 1.122 2.13 2.337 2.336.626.115 1.137.402 1.46.895v.003c.259 1.195 1.14 2.182 2.289 2.35-.013-.562.063-1.819-.086-2.332-.181-.669-.562-1.254-.982-1.69-.624-.623-1.457-1.048-2.347-1.198-.368-.062-.636-.33-.697-.696-.148-.885-.571-1.713-1.188-2.334.601-1.324.298-2.828-.913-4.039-1.581-1.58-4.691-2.334-6.066-.958-.652.652-.874 1.769-.608 3.064.235 1.148.806 2.242 1.565 3.001zm-.844 14.982c-.657-.174-.973-.922-1.08-1.513-.205-1.214-1.122-2.131-2.337-2.337-.414-.07-.811-.26-1.124-.522.443-.604.696-1.29.708-1.987.012-.679-.189-1.703-1.216-2.73-.759-.759-1.853-1.33-3.001-1.565-1.295-.266-2.412-.044-3.064.608-1.375 1.375-.623 4.485.958 6.065.999.999 1.995 1.217 2.673 1.217h.058c.453-.008.903-.117 1.329-.312 0 0 0 .001.002.002.624.624 1.457 1.05 2.346 1.199.368.062.636.329.698.697.15.89.576 1.724 1.231 2.377.412.382 1.042.82 1.657.951.508.149 1.776.074 2.332.087-.169-1.074-1.032-1.933-2.168-2.235zm10.382-.196c-.16-.083-.465-.335-.564-.416-.582-.582-.98-1.367-1.122-2.211-.275-1.626-1.504-2.854-3.131-3.13-.844-.143-1.629-.541-2.211-1.123s-.98-1.367-1.123-2.211c-.256-1.514-1.393-2.677-3.042-3.112-1.041-.274-1.42-.666-1.993-1.259.611-.779.955-1.654.972-2.573.022-1.205-.505-2.38-1.524-3.398-1.959-1.96-5.938-2.954-7.616-1.277s-.683 5.656 1.277 7.616c.999.999 2.147 1.524 3.326 1.524.719.001 1.409-.211 2.052-.578.716.735 1.353 1.44 2.995 1.878.417.11 1.406.477 1.58 1.511.211 1.25.808 2.419 1.681 3.292s2.043 1.471 3.292 1.682c.775.131 1.36.716 1.491 1.49.209 1.241.801 2.401 1.664 3.272v.002s.003.003.005.004c.005.005.008.01.013.015l.003-.003c.932.851 2.223 1.36 3.761 1.435-.131-1.01-.778-1.9-1.786-2.431z"/></svg>