<svg id="Layer_1" viewBox="0 0 24 24" xmlns="http://www.w3.org/2000/svg" data-name="Layer 1"><path d="m0 1.407 1.407-1.407 3.007 3h16.586c1.654 0 3 1.346 3 3v15h-1.586l1.586 1.593-1.407 1.407-7.049-7h.456c2.206 0 4-1.794 4-4v-2c0-2.206-1.794-4-4-4h-3v7.456l-2.124-2.124-.798-3.316s-.206-2.017-2.078-2.017c-.792 0-1.283.417-1.592.864zm18 11.593v-2c0-1.103-.897-2-2-2h-1v6h1c1.103 0 2-.897 2-2zm-6.227 3.057.227.943h-2.053l-.464-2h-2.967l-.464 2h-2.053l1.691-7.025-5.341-5.342c-.214.412-.349.871-.349 1.367v15h16.716zm-4.466-4.466-.327 1.409h1.736z"/></svg>