<svg id="Layer_1" viewBox="0 0 24 24" xmlns="http://www.w3.org/2000/svg" data-name="Layer 1"><path d="m17.956 22.776-.409-.209c-3.62-1.847-5.486-4.187-5.547-6.956v-3.611c0-.911.581-1.715 1.447-2.001l4.553-1.51 4.554 1.51c.865.286 1.446 1.09 1.446 2.001v3.59c-.063 3.151-1.953 5.504-5.618 7.012l-.426.175zm-7.956-10.776c0-.746.21-1.449.567-2.062l-1.024-1.024-1.043 1.043-1.414-1.414 1.043-1.043-1.043-1.043 1.414-1.415 1.043 1.043 1.043-1.043 1.415 1.414-1.043 1.043s1.009 1.01 1.009 1.01c.267-.163.547-.308.854-.409l5.18-1.718 5.184 1.719c.292.097.56.233.816.387v-4.487c0-1.657-1.343-3-3-3h-18.001c-1.657-.001-3 1.342-3 2.999v10h10zm-3.529-3.457-1.414 1.414-1.043-1.043-1.043 1.043-1.414-1.414 1.043-1.043-1.043-1.043 1.414-1.414 1.043 1.043 1.043-1.043 1.414 1.414-1.043 1.043z"/></svg>