<svg id="Layer_1" viewBox="0 0 24 24" xmlns="http://www.w3.org/2000/svg" data-name="Layer 1"><path d="m7 18.5c0-1.381-1.119-2.5-2.5-2.5h-2.5v8h1.6v-3h.784l.872 3h1.744l-1.055-3.467c.636-.453 1.055-1.193 1.055-2.033zm-2.5.9h-.9v-1.8h.9c.496 0 .9.404.9.9s-.404.9-.9.9zm8.5-9.9c0 .348-.186.693-.422.999 0 .002.001.003.002.005-.017.022-.098.148-.2.307l1.62 2.189h-1.894l-.712-.964c-.598.12-.793.543-.793.964 0 .496.404.9.9.9s2.004 0 2.5 0v1.6h-2.5c-1.381 0-2.5-1.119-2.5-2.5 0-1.053.653-1.95 1.574-2.318-.307-.346-.574-.762-.574-1.182 0-.828.672-1.5 1.5-1.5s1.5.672 1.5 1.5zm-10.9-4.5h.784l.872 3h1.744l-1.055-3.467c.636-.453 1.055-1.193 1.055-2.033 0-1.381-1.119-2.5-2.5-2.5h-2.5v8h1.6zm0-3.4h.9c.496 0 .9.404.9.9s-.404.9-.9.9h-.9zm18 20.8h1.9v1.6h-3.5v-8h1.6zm-6-19.9v3c0 .496.404.9.9.9s.9-.404.9-.9h1.6c0 1.381-1.119 2.5-2.5 2.5s-2.5-1.119-2.5-2.5v-3c0-1.381 1.119-2.5 2.5-2.5s2.5 1.119 2.5 2.5h-1.6c0-.496-.404-.9-.9-.9s-.9.404-.9.9zm8.148 1.526 1.252 3.974h-1.744l-.968-3.401-.688.002v3.4h-1.6v-8.001h1.6v3h.784l.872-3h1.744zm-11.148 1.674v-3.4c0-1.269-1.031-2.3-2.3-2.3s-2.3 1.031-2.3 2.3v3.4c0 1.269 1.031 2.3 2.3 2.3s2.3-1.031 2.3-2.3zm-3 0v-3.4c0-.386.314-.7.7-.7s.7.314.7.7v3.4c0 .386-.314.7-.7.7s-.7-.314-.7-.7zm7.5 16.7h1.9v1.6h-3.5v-8h1.6zm-5.3-6.4c-1.269 0-2.3 1.031-2.3 2.3v3.4c0 1.269 1.031 2.3 2.3 2.3s2.3-1.031 2.3-2.3v-3.4c0-1.269-1.031-2.3-2.3-2.3zm.7 5.7c0 .386-.314.7-.7.7s-.7-.314-.7-.7v-3.4c0-.386.314-.7.7-.7s.7.314.7.7z"/></svg>