<?xml version="1.0" encoding="UTF-8"?>
<svg xmlns="http://www.w3.org/2000/svg" id="Layer_1" data-name="Layer 1" viewBox="0 0 24 24">
  <path d="M10,17V9c0-1.654-1.346-3-3-3H3c-1.654,0-3,1.346-3,3v8H2v7h2v-7h2v7h2v-7h2ZM4,2.5c0-1.381,1.119-2.5,2.5-2.5s2.5,1.119,2.5,2.5-1.119,2.5-2.5,2.5-2.5-1.119-2.5-2.5Zm10,.5h-3V1h3V3Zm-1.747,4.356l-2.603-1.611,1.053-1.701,2.603,1.611-1.053,1.701Zm11.549,10.144l-2.299,4.957c-.532,1.278-2.07,1.911-3.285,1.345-1.256-.763-4.317-5.09-4.317-5.09l-2.134,5.288h-2.156l3.228-8h1.466l2.946,3.75,1.94-4.181c.545-1.288,2.016-1.887,3.285-1.346,1.27,.538,1.865,2.009,1.327,3.277Zm-7.802-7c0-1.381,1.119-2.5,2.5-2.5s2.5,1.119,2.5,2.5-1.119,2.5-2.5,2.5-2.5-1.119-2.5-2.5Z"/>
</svg>
