<?xml version="1.0" encoding="UTF-8"?>
<svg xmlns="http://www.w3.org/2000/svg" id="Layer_1" data-name="Layer 1" viewBox="0 0 24 24">
  <path d="M22,1h-5V3h3.586l-3.833,3.833c-.791-.524-1.736-.833-2.753-.833-2.757,0-5,2.243-5,5,0,2.414,1.721,4.434,4,4.899v3.101h-3v2h3v3h2v-3h3v-2h-3v-3.101c2.279-.465,4-2.484,4-4.899,0-1.017-.309-1.962-.833-2.753l3.833-3.833v3.586h2V3c0-1.103-.897-2-2-2Zm-12.545,15.317l-2.455,2.683-.5-4-5,1.5,2.5-5.5L-.039,9.033l4.039-2.033L.107,.049,7,3.5,9.5,0l2,3,2-1.5,.31,2.51c-3.777,.102-6.81,3.189-6.81,6.99,0,2.129,.954,4.033,2.455,5.317Z"/>
</svg>
