<svg id="Layer_1" viewBox="0 0 24 24" xmlns="http://www.w3.org/2000/svg" data-name="Layer 1"><path d="m3 21c0 1.657 1.343 3 3 3h10c1.657 0 3-1.343 3-3v-3h-16zm6-1h4v2h-4zm15-11c0-.651-.419-1.201-1-1.408v-3.592s-1.886 0-1.886 0c-.21 1.106-.748 2.047-2.113 2h-3c-1.103 0-2 .897-2 2v2c0 .74.409 1.381 1.008 1.726l1.863 4.274h.717c.479 0 .922-.24 1.183-.642s.301-.903.106-1.342l-.871-2.016h.993c1.365-.047 1.903.895 2.113 2h1.886v-3.592c.581-.207 1.001-.757 1.001-1.408zm-9.31 7h-11.69v-16h16v4h-3c-2.206 0-4 1.794-4 4v2c0 1.164.519 2.266 1.391 3.019l1.3 2.981z"/></svg>