<svg id="Layer_1" viewBox="0 0 24 24" xmlns="http://www.w3.org/2000/svg" data-name="Layer 1"><path d="m8 11.424v2.161c.648.226 1.456.415 2.387.415.241 0 .458-.018.668-.04-.028.177-.054.355-.054.54 0 .58.154 1.118.404 1.6-.257.754-.404 1.559-.404 2.4s.151 1.642.406 2.396c-.173.333-.295.693-.353 1.078-3.901-.176-5.675-1.296-7.541-2.48-.234-.148-.479-.3-.727-.451-.445.101-.785.481-.785.957v4h-2.001v-4c0-1.654 1.346-3 3-3 .54-.162 3-1.041 3-3v-9h-1c-1.654 0-3-1.346-3-3v-2h2v2c0 .552.448 1 1 1h7c3.859 0 7 3.141 7 7v1.025c-.166-.011-.331-.025-.5-.025-.635 0-1.248.087-1.837.236-.583-.197-1.439-.244-2.163-.236-.778-.015-1.471.33-2.164.566-.608.232-1.134.434-1.949.434-1.054 0-1.908-.336-2.387-.576zm13.933 5.057.495-.495c.408.02.821-.114 1.133-.425.586-.586.586-1.536 0-2.121s-1.536-.586-2.121 0c-.312.312-.445.725-.425 1.133l-.495.495c-.316-.186-.656-.33-1.019-.425v-1.642h-2v1.642c-.363.094-.704.238-1.019.425l-.495-.495c.02-.408-.114-.821-.425-1.133-.586-.586-1.536-.586-2.121 0s-.586 1.536 0 2.121c.312.312.725.445 1.133.425l.495.495c-.186.316-.33.656-.425 1.019h-1.642v2h1.642c.094.363.238.704.425 1.019l-.495.495c-.408-.02-.821.114-1.133.425-.586.586-.586 1.536 0 2.121s1.536.586 2.121 0c.312-.312.445-.725.425-1.133l.495-.495c.316.186.656.33 1.019.425v1.642h2v-1.642c.363-.094.704-.238 1.019-.425l.495.495c-.02.408.114.821.425 1.133.586.586 1.536.586 2.121 0s.586-1.536 0-2.121c-.312-.312-.725-.445-1.133-.425l-.495-.495c.186-.316.33-.656.425-1.019h1.642v-2h-1.642c-.094-.363-.238-.704-.425-1.019z"/></svg>