<svg id="Layer_1" viewBox="0 0 24 24" xmlns="http://www.w3.org/2000/svg" data-name="Layer 1"><path d="m1.441 4.922-1.414-1.414 3.5-3.5 1.414 1.414-1.053 1.053 1.383 1.383.435-.435c.562-.562 1.474-.562 1.905-.132l.647.647-2.179 2.179 1.414 1.414 2.179-2.179 1.574 1.574-2.148 2.148 1.414 1.414 2.148-2.148.34.34v2.907l1.707 1.707-1.414 1.414-1.707-1.707h-2.907l-5.257-5.258c-.562-.562-.562-1.474 0-2.037l.435-.435-1.383-1.383-1.033 1.033zm21.835 6.219c-1.18-2.706-2.294-5.261-3.475-6.722-2.439-3.255-6.312-4.866-10.348-4.311-.614.084-1.212.222-1.79.407l7.336 7.337v2.907l2.535 2.535-4.242 4.242-2.535-2.535h-2.906l-7.326-7.327c-.237.742-.406 1.513-.478 2.31-.265 2.936.622 5.793 2.497 8.045.295.353.457.802.457 1.263v4.709h12.999v-3h2.247c1.5 0 2.778-1.121 2.974-2.606l.449-3.393h2.33v-2.212l-.724-1.647z"/></svg>