<svg id="Layer_1" viewBox="0 0 24 24" xmlns="http://www.w3.org/2000/svg" data-name="Layer 1"><path d="m15.844 21.807c.753.381 1.57.59 2.394.635l-.384.384c-1.566 1.566-4.114 1.566-5.681 0 0 0 0-.001-.001-.002-1.564-1.566-1.564-4.112.002-5.678l1.42-1.42c1.566-1.566 4.114-1.566 5.68 0l-1.42 1.42c-.783-.783-2.057-.783-2.84 0l-1.42 1.42c-.783.783-.783 2.057 0 2.84.608.608 1.509.738 2.25.402zm6.982-9.632s0 0 0 0c-1.566-1.566-4.114-1.566-5.681 0l-.384.384c.825.044 1.641.254 2.394.635.74-.336 1.642-.206 2.25.402.782.783.782 2.057 0 2.84l-1.42 1.42c-.784.783-2.058.783-2.84 0l-1.42 1.42c.783.783 1.811 1.174 2.84 1.174s2.057-.391 2.84-1.174l1.42-1.42c1.566-1.566 1.566-4.114 0-5.68zm1.174-6.175v-1c0-1.654-1.346-3-3-3h-8.764l-4-2h-5.236c-1.654 0-3 1.346-3 3v3zm-13.24 9.731 4.971-4.97c2.27-2.271 5.91-2.323 8.27-.196v-2.565h-24.001v14h9.367c-.752-2.12-.3-4.576 1.393-6.269z"/></svg>