<svg id="Layer_1" viewBox="0 0 24 24" xmlns="http://www.w3.org/2000/svg" data-name="Layer 1"><path d="m18 12c-3.314 0-6 2.686-6 6s2.686 6 6 6 6-2.686 6-6-2.686-6-6-6zm.619 8.414c-.378.378-.88.586-1.414.586h-.002c-.534 0-1.036-.209-1.413-.587l-2.012-2.012 1.414-1.414 2.013 2.013 3.615-3.615 1.414 1.414zm-8.619-2.414c0-1.355.341-2.631.938-3.751v-4.249h2v1.811c1.38-1.131 3.143-1.811 5.062-1.811 1.334 0 2.591.333 3.698.913l-1.483-8.432c-.253-1.438-1.495-2.48-2.955-2.48h-10.641c-1.46 0-2.704 1.044-2.955 2.483l-3.765 21.516h12.827c-1.667-1.467-2.726-3.61-2.726-6zm.938-15h2v4h-2z"/></svg>