<svg id="Layer_1" viewBox="0 0 24 24" xmlns="http://www.w3.org/2000/svg" data-name="Layer 1"><path d="m17.5 11c-3.59 0-6.5 2.91-6.5 6.5s2.91 6.5 6.5 6.5 6.5-2.91 6.5-6.5-2.91-6.5-6.5-6.5zm0 11c-1.37 0-2.581-.627-3.402-1.598l-1.098 1.098v-3c0-.276.224-.5.5-.5h3l-1 1h.013c.457.603 1.174 1 1.987 1s1.531-.397 1.987-1h2.236c-.621 1.742-2.271 3-4.224 3zm4.5-5.5c0 .276-.224.5-.5.5h-3l1-1h-.013c-.457-.603-1.174-1-1.987-1s-1.531.397-1.987 1h-2.236c.621-1.742 2.271-3 4.224-3 1.37 0 2.581.627 3.402 1.598l1.098-1.098v3zm-8-11.5h-7v-5h7zm-4.24 16h-9.76v-18c0-1.65 1.35-3 3-3h2v7h11v-7h.01l4.99 4.99v4.77c-1.068-.484-2.251-.76-3.5-.76-1.879 0-3.609.617-5.016 1.649-.567-.396-1.242-.649-1.984-.649-1.93 0-3.5 1.57-3.5 3.5 0 1.401.842 2.594 2.043 3.15-.028.28-.043.563-.043.85 0 1.249.276 2.432.76 3.5zm1.197-8.924c-.622.749-1.109 1.611-1.446 2.545-.311-.275-.511-.672-.511-1.121 0-.83.67-1.5 1.5-1.5.16 0 .312.029.457.076z"/></svg>