<svg id="Layer_1" viewBox="0 0 24 24" xmlns="http://www.w3.org/2000/svg" data-name="Layer 1"><path d="m18.632 13.792c-.367-.702-.632-1.209-.632-1.792 0-1.046.331-2.34.597-3.38.267-1.054.435-1.661.4-2.422-.232-.42-.912-1.2-.997-3.198v-3h-2c0 .611-.139 1.211-.402 1.735-.547 1.089-2.077 2.265-3.598 2.265s-3.051-1.176-3.598-2.266c-.264-.523-.402-1.123-.402-1.734h-2v3c-.089 2.008-.759 2.773-1 3.197-.028.761.135 1.369.403 2.423.186.727.398 1.576.512 2.38h10.085v2h-10.245c-.106.244-.234.499-.387.792-.617 1.051-1.496 3.19-1.368 5.657l5.12 4.551h5.76l5.12-4.551c.127-2.47-.751-4.603-1.368-5.657z"/></svg>