<svg id="Layer_1" viewBox="0 0 24 24" xmlns="http://www.w3.org/2000/svg" data-name="Layer 1"><path d="m7.5 5.799c.6.621 1.5 1.93 1.5 4.201s-.902 3.583-1.5 4.201c-.6-.62-1.5-1.93-1.5-4.201s.902-3.583 1.5-4.201zm7.5 4.201c0 2.747-1.425 4.644-4 5.493v1.507h-2.667l.667 4h-3l.667-4h-2.667v-1.507c-2.575-.849-4-2.746-4-5.493s1.425-4.644 4-5.493v-1.507h2.5v-3h2v3h2.5v1.507c2.575.849 4 2.747 4 5.493zm-4 0c0-2.381-.796-3.992-1.567-5h-3.866c-.771 1.008-1.567 2.619-1.567 5s.796 3.992 1.567 5h3.866c.771-1.008 1.567-2.619 1.567-5zm5.5 7.201c.598-.618 1.5-1.928 1.5-4.201 0-1.732-.523-2.901-1.038-3.636.014.211.038.418.038.636 0 1.979-.609 3.681-1.725 5.004.313 1.078.832 1.79 1.226 2.197zm3.5-9.694v-1.507h-2.5v-6h-2v5.279c.6.79 1.028 1.703 1.267 2.721h1.666c.771 1.008 1.567 2.619 1.567 5s-.796 3.992-1.567 5h-3.866c-.32-.418-.64-.946-.91-1.584-.213.138-.425.278-.657.399v3.185h2.667l-.667 4h3l-.667-4h2.667v-1.507c2.575-.849 4-2.746 4-5.493s-1.425-4.644-4-5.493z"/></svg>