<svg id="Layer_1" viewBox="0 0 24 24" xmlns="http://www.w3.org/2000/svg" data-name="Layer 1"><path d="m12.732 10.007c.343 1.019 1.184 4.058 1.184 5.076 0 1.057-.859 1.917-1.916 1.917s-1.916-.86-1.916-1.917c0-.936.768-3.825 1.187-5.088.092-.277.195-.521.295-.696.111-.19.269-.299.434-.299.312 0 .423.237.47.336.064.133.154.349.263.671zm11.268-4.007v17h-24v-19c0-1.654 1.346-3 3-3h5.236l4 2h8.764c1.654 0 3 1.346 3 3zm-6 1h-2v2h-1.508c-.086-.225-.163-.413-.218-.525-.435-.924-1.285-1.475-2.274-1.475-.882 0-1.69.482-2.167 1.3-.117.205-.223.445-.323.7h-1.511v-2h-2v2c0 1.103.897 2 2 2h.89c-.087.314-.176.653-.264 1h-2.626v2h2.195c-.062.38-.101.721-.108 1h-.087c-1.103 0-2 .897-2 2v2h2v-2h.606c.673 1.188 1.934 2 3.394 2s2.72-.812 3.394-2h.606v2h2v-2c0-1.103-.897-2-2-2h-.087c-.006-.282-.044-.622-.106-1h2.193v-2h-2.623c-.088-.347-.178-.687-.264-1h.888c1.103 0 2-.897 2-2z"/></svg>