<svg id="Layer_1" viewBox="0 0 24 24" xmlns="http://www.w3.org/2000/svg" data-name="Layer 1"><path d="m7.106 10.165 6.118-4.788c1.045-.818 2.506-.818 3.553 0l6.281 4.916c.599.468.942 1.172.942 1.933v5.774h-6v-6h-6v6h-6v-5.565c0-.893.403-1.72 1.106-2.27zm8.894 5.835v-2h-2v2zm6.503 5.316c-.38.435-.928.684-1.503.684-1.103 0-2-.897-2-2h-2c0 1.103-.897 2-2 2s-2-.897-2-2h-2c0 1.103-.897 2-2 2s-2-.897-2-2h-2c0 1.103-.897 2-2 2-.575 0-1.123-.25-1.503-.684l-1.506 1.316c.76.869 1.856 1.368 3.009 1.368 1.2 0 2.266-.542 3-1.382.734.84 1.8 1.382 3 1.382s2.266-.542 3-1.382c.734.84 1.8 1.382 3 1.382s2.266-.542 3-1.382c.734.84 1.799 1.382 3 1.382 1.153 0 2.25-.499 3.009-1.368l-1.506-1.315zm-18.503-5.316v-3.565c0-1.512.683-2.914 1.874-3.845l3.626-2.838s.5-.751.5-1.751c0-2.206-1.794-4-4-4s-4 1.793-4 3.999c0 .177.012.353.036.528-1.234.696-2.036 2.014-2.036 3.472 0 .705.19 1.393.545 2-.355.607-.545 1.295-.545 2 0 2.206 1.794 4 4 4z"/></svg>