<?xml version="1.0" encoding="UTF-8"?>
<svg xmlns="http://www.w3.org/2000/svg" id="Layer_1" data-name="Layer 1" viewBox="0 0 24 24">
  <path d="M22.503,21.315l1.506,1.316c-.76,.869-1.857,1.368-3.009,1.368-1.193,0-2.267-.525-3-1.357-.733,.832-1.807,1.357-3,1.357s-2.267-.525-3-1.357c-.733,.832-1.807,1.357-3,1.357s-2.267-.525-3-1.357c-.733,.832-1.807,1.357-3,1.357-1.153,0-2.25-.499-3.009-1.368l1.506-1.316c.38,.436,.928,.685,1.503,.685,1.103,0,2-.897,2-2h2c0,1.103,.897,2,2,2s2-.897,2-2h2c0,1.103,.897,2,2,2s2-.897,2-2h2c0,1.103,.897,2,2,2,.575,0,1.123-.249,1.503-.685ZM12.5,7c1.93,0,3.5-1.57,3.5-3.5s-1.57-3.5-3.5-3.5-3.5,1.57-3.5,3.5,1.57,3.5,3.5,3.5ZM3,16c-.575,0-1.123-.249-1.503-.685L-.009,16.632c.759,.869,1.856,1.368,3.009,1.368,1.193,0,2.267-.525,3-1.357,.733,.832,1.807,1.357,3,1.357s2.267-.525,3-1.357c.733,.832,1.807,1.357,3,1.357s2.267-.525,3-1.357c.733,.832,1.807,1.357,3,1.357,1.152,0,2.249-.499,3.009-1.368l-1.506-1.316c-.38,.436-.928,.685-1.503,.685-1.103,0-2-.897-2-2h-2c0,1.103-.897,2-2,2-.527,0-1.003-.209-1.361-.543l1.203-4.701,4.334-.771,4.705-1.906-.76-1.85-4.401,1.806-4.208,.749-6.787-1.912-2.547-2.868L2.524,.022,.86,1.132,3.553,5.17l2.96,3.347-1.512,5.483c0,1.103-.897,2-2,2Z"/>
</svg>
