<svg id="Layer_1" viewBox="0 0 24 24" xmlns="http://www.w3.org/2000/svg" data-name="Layer 1"><path d="m11.5 19h-2.427c.156 1.409.624 2.76 1.409 3.949l-1.669 1.102c-1.002-1.517-1.6-3.247-1.763-5.051h-2.621l3.536-3.536 3.536 3.536zm5.5-10.6c-1.876 1.596-4.92 2.6-8.5 2.6s-6.624-1.004-8.5-2.6v2.167c0 1.621 3.635 3.433 8.5 3.433.953 0 1.857-.072 2.698-.196 1.243-2.011 3.347-3.428 5.802-3.735zm-8.5.6c4.694 0 8.5-2.015 8.5-4.5s-3.806-4.5-8.5-4.5-8.5 2.015-8.5 4.5 3.806 4.5 8.5 4.5zm13.782 10.312 1.417.816-.999 1.732-1.41-.813c-.605.652-1.393 1.126-2.289 1.331v1.621h-2v-1.621c-.896-.205-1.685-.678-2.289-1.331l-1.41.813-.999-1.732 1.417-.816c-.129-.418-.218-.853-.218-1.312s.089-.895.218-1.312l-1.417-.816.999-1.732 1.41.813c.605-.652 1.393-1.126 2.289-1.331v-1.621h2v1.621c.896.205 1.685.678 2.289 1.331l1.41-.813.999 1.732-1.417.816c.129.418.218.853.218 1.312s-.089.895-.218 1.312zm-2.782-1.312c0-.827-.673-1.5-1.5-1.5s-1.5.673-1.5 1.5.673 1.5 1.5 1.5 1.5-.673 1.5-1.5zm-16.749.02 2.306-2.306c-2.07-.351-3.821-1.008-5.057-1.888v1.74c0 .866 1.044 1.784 2.751 2.453zm-2.751.807v.96c0 2.307 2.974 3.693 6.411 4.091-.505-.993-.883-2.04-1.117-3.126-2.173-.339-4.011-1.012-5.295-1.924z"/></svg>