<svg id="Layer_1" viewBox="0 0 24 24" xmlns="http://www.w3.org/2000/svg" data-name="Layer 1"><path d="m24 14.537c0 .678-.264 1.316-.744 1.795l-7.667 7.667h-3.59v-3.59l7.668-7.667c.99-.99 2.6-.99 3.59 0 .479.479.744 1.117.744 1.795zm-14.001 5.044 1.581-1.581h-2.589l-.846-1h-8.145v1c0 1.657 1.343 3 3 3h6.999zm-.07-3.581h3.652l4.672-4.671c.974-.974 2.375-1.49 3.748-1.276v-7.053h-20.001v12h7.082l.846 1zm3.867-9.021 1.414-1.414 2.255 2.255c.775.776.775 2.037 0 2.812l-2.257 2.257-1.414-1.414 2.257-2.257zm-7.26 3.653c-.775-.775-.775-2.036 0-2.812l2.255-2.255 1.414 1.414-2.255 2.255 2.257 2.241-1.414 1.414z"/></svg>