<svg id="Layer_1" viewBox="0 0 24 24" xmlns="http://www.w3.org/2000/svg" data-name="Layer 1"><path d="m24 6v2h-2v-2c0-.551-.448-1-1-1h-2.005l1.508 1.499-1.414 1.414-2.507-2.506c-.774-.775-.774-2.037 0-2.812l2.507-2.508 1.414 1.414-1.499 1.499h1.996c1.654 0 3 1.346 3 3zm-19.089 10.088-1.414 1.414 1.508 1.498h-2.005c-.552 0-1-.448-1-1v-2h-2v2c0 1.654 1.346 3 3 3h1.996l-1.499 1.498 1.414 1.414 2.508-2.507c.773-.774.773-2.036 0-2.812l-2.507-2.506zm13.914-6.088 3.175 3.082v10.918h-12v-12c0-1.103.897-2 2-2zm1.175 3.928-1.985-1.928h-1.015v3h3zm-8-5.928c-2.206 0-4 1.794-4 4v2h-6v-12c0-1.103.897-2 2-2h6.825l3.175 3.082v4.918zm0-3v-1.072l-1.985-1.928h-1.015v3z"/></svg>