<svg id="Layer_1" viewBox="0 0 24 24" xmlns="http://www.w3.org/2000/svg" data-name="Layer 1"><path d="m21 3h-18c-1.654 0-3 1.346-3 3v15h24v-15c0-1.654-1.346-3-3-3zm-17 11c-1.105 0-2-.895-2-2s.895-2 2-2 2 .895 2 2-.895 2-2 2zm6.946-1.462 1.054 3.462h-1.744l-.872-3h-.784v3h-1.6v-8h2.5c1.381 0 2.5 1.119 2.5 2.5 0 .84-.418 1.579-1.054 2.033zm5.554-2.938h-1.9v1.65h1.9v1.6h-1.9v1.551h1.9v1.6h-3.5v-8.001h3.5zm5.6.9h-1.6v-.2c0-.386-.314-.7-.7-.7s-.7.314-.7.7v3.4c0 .386.314.7.7.7s.7-.314.7-.7v-.2h1.6v.2c0 1.269-1.031 2.3-2.3 2.3s-2.3-1.031-2.3-2.3v-3.4c0-1.269 1.031-2.3 2.3-2.3s2.3 1.031 2.3 2.3zm-11.7 0c0 .496-.404.9-.9.9h-.9v-1.8h.9c.496 0 .9.404.9.9z"/></svg>