<svg id="Layer_1" viewBox="0 0 24 24" xmlns="http://www.w3.org/2000/svg" data-name="Layer 1"><path d="m18 4.5c-.828 0-1.5.672-1.5 1.5s.672 1.5 1.5 1.5 1.5-.672 1.5-1.5-.672-1.5-1.5-1.5zm1 8.5h-2v-4h2zm5-7c0 2.215-1.21 4.149-3 5.188v-2.568c.615-.703 1-1.613 1-2.62 0-2.209-1.791-4-4-4s-4 1.791-4 4c0 1.008.385 1.917 1 2.62v2.568c-1.79-1.039-3-2.973-3-5.188 0-3.309 2.691-6 6-6s6 2.691 6 6zm0 5.252v10.566l-12 2.182-12-2.182v-16.817c0-.892.393-1.731 1.078-2.303.684-.571 1.577-.81 2.458-.648l4.237 1.028c.96.174 1.788.71 2.368 1.452-.089.477-.141.968-.141 1.471 0 1.361.361 2.676 1 3.837v11.948l1 .182 1-.182v-9.563c.313.253.642.489.995.695l1.005.583v1.499h6v-1.499l1.005-.583c.765-.445 1.428-1.017 1.995-1.666z"/></svg>