<svg id="Layer_1" viewBox="0 0 24 24" xmlns="http://www.w3.org/2000/svg" data-name="Layer 1"><path d="m4.985 3.994-1.109-1.664 2.501-1.668c.66-.44 1.427-.672 2.219-.672h8.404c1.654 0 3 1.346 3 3v1.01h-6v-2.01h-5.404c-.396 0-.779.116-1.109.336l-2.501 1.668zm5.015 7.318v.688h1.787c1.305 0 2.455.609 3.223 1.546l3.014-3.084c1.371-1.568 3.97-1.925 5.745-.802-.354-1.432-1.154-2.71-2.257-3.66h-9.044c-1.521 1.305-2.469 3.232-2.469 5.312zm-5 .688c.64 0 1.28-.244 1.768-.732.976-.976.976-2.559 0-3.536l-1.768-1.729-1.768 1.729c-.976.976-.976 2.559 0 3.536.488.488 1.128.732 1.768.732zm13.123 12h5.877v-6.416zm5.025-12.319c-1.007-.963-2.764-.882-3.672.157l-3.541 3.737c.032.21.065.42.065.638 0 2.083-1.555 3.876-3.617 4.17l-4.241.606-.283-1.979 4.241-.606c1.084-.155 1.9-1.097 1.9-2.191 0-1.22-.993-2.213-2.213-2.213h-8.787c-1.654 0-3 1.346-3 3v4c0 1.654 1.346 3 3 3h12.411l7.927-8.655c.948-1.062.862-2.707-.189-3.665z"/></svg>