<svg id="Layer_1" viewBox="0 0 24 24" xmlns="http://www.w3.org/2000/svg" data-name="Layer 1"><path d="m24.007 18.493c0 3.036-2.47 5.507-5.507 5.507h-12.986c-3.037 0-5.507-2.471-5.507-5.507 0-.593.095-1.179.282-1.741l2.517-6.752h2.194v-3h6v3h3.382l-.236-3h3.696l-.23 3h1.896l2.919-2.919 1.414 1.414-2.337 2.337 2.207 5.885c.2.597.295 1.183.295 1.776zm-14.007-17.445c0-.366-.186-.699-.497-.891-.312-.191-.693-.21-1.019-.046l-1.641.821c-.52.259-.843.782-.843 1.363v2.705h4zm7.996 3.952 1.004-3.479c-.619-.776-1.513-1.521-3-1.521s-2.385.754-3 1.527l.989 3.473z"/></svg>