<svg id="Layer_1" viewBox="0 0 24 24" xmlns="http://www.w3.org/2000/svg" data-name="Layer 1"><path d="m16 5h-8v-5l2 2.231 2-2.231 2 2.231 2-2.231zm-6 5c0 1.103.897 2 2 2s2-.897 2-2-.897-2-2-2-2 .897-2 2zm5 8h-6c-.551 0-1 .448-1 1v4.3c1.253.445 2.596.7 4 .7s2.747-.255 4-.7v-4.3c0-.552-.449-1-1-1zm3-16.376v5.376h-3.382c.84.734 1.382 1.8 1.382 3 0 2.206-1.794 4-4 4s-4-1.794-4-4c0-1.2.542-2.266 1.382-3h-3.382v-5.376c-3.581 2.078-6 5.946-6 10.376s2.419 8.298 6 10.376v-3.376c0-1.654 1.346-3 3-3h6c1.654 0 3 1.346 3 3v3.376c3.581-2.078 6-5.946 6-10.376s-2.419-8.298-6-10.376z"/></svg>