<svg id="Layer_1" viewBox="0 0 24 24" xmlns="http://www.w3.org/2000/svg" data-name="Layer 1"><path d="m23 10v-1.5c0-1.378-1.122-2.5-2.5-2.5h-.873c.663-1.253 1.373-2.764 1.373-3.5 0-1.381-1.119-2.45-2.5-2.45s-2.5 1.069-2.5 2.45c0 .736.71 2.247 1.373 3.5h-.873c-1.378 0-2.5 1.122-2.5 2.5v1.5h-1v2h11v-2zm-3 7h-10v4.5c0 1.466-1.261 2.637-2.758 2.487-1.301-.13-2.242-1.322-2.242-2.63v-19.857c0-.536-.122-1.045-.338-1.5h10.119c-.492.713-.781 1.573-.781 2.5 0 .426.072.995.457 1.991-1.316.673-2.259 1.977-2.429 3.509h-1.028v6h9zm-17-15.5v3.5h-3v-3.5c0-.828.672-1.5 1.5-1.5s1.5.672 1.5 1.5zm9 17.5h12v1.5c0 1.93-1.57 3.5-3.5 3.5h-9.26c.48-.716.76-1.576.76-2.5z"/></svg>