<svg id="Layer_1" viewBox="0 0 24 24" xmlns="http://www.w3.org/2000/svg" data-name="Layer 1"><path d="m8 13c-2.757 0-5-2.243-5-5s2.243-5 5-5 5 2.243 5 5-2.243 5-5 5zm14.436-8.129c-.838-1.814-1.986-3.446-3.411-4.871l-1.32 1.309c1.217 1.275 2.218 2.755 2.946 4.386zm-4.439 7.161c0-.011.003-.021.003-.032 0-1.105-.895-2-2-2s-2 .895-2 2 .895 2 2 2c.351 0 .675-.098.962-.257l6.023 3.614 1.015-1.715-6.003-3.611zm3.994.064 1.958 1.175c.032-.422.051-.846.051-1.271 0-1.675-.246-3.335-.729-4.935l-1.903.576c.337 1.169.655 2.938.623 4.454zm-4.286 10.595 1.32 1.309c1.378-1.378 2.49-2.952 3.32-4.695l-1.67-1.002c-.728 1.562-1.806 3.168-2.969 4.388zm-12.705-7.691c-2.757 0-5 2.243-5 5v4h6l1.385-5.923-2.051-3.077h-.333zm6 0h-.333l-2.051 3.077 1.385 5.923h6v-4c0-2.757-2.243-5-5-5z"/></svg>