<svg id="Layer_1" viewBox="0 0 24 24" xmlns="http://www.w3.org/2000/svg" data-name="Layer 1"><path d="m12 12c-3.309 0-6-2.691-6-6h2.5c2.414 0 4.573-1.289 5.777-3.281-.559-.389-1.225-.624-1.941-.685-.88 1.203-2.282 1.966-3.836 1.966h-2.15c.826-2.327 3.043-4 5.65-4 3.309 0 6 2.691 6 6s-2.691 6-6 6zm2 6.184v-4.184h-5.021v4.277c.595.346 1 .984 1 1.723 0 1.105-.895 2-2 2s-2-.895-2-2c0-.738.405-1.376 1-1.723v-4.275c-2.747.012-4.979 2.248-4.979 4.998v5h10v-3c0-1.302.839-2.402 2-2.816zm3-4.184h-1v4.184c1.161.414 2 1.514 2 2.816v3h4v-5c0-2.757-2.243-5-5-5zm-2 6c-.552 0-1 .448-1 1v3h2v-3c0-.552-.448-1-1-1z"/></svg>