<svg id="Layer_1" viewBox="0 0 24 24" xmlns="http://www.w3.org/2000/svg" data-name="Layer 1"><path d="m19.621 6.879c-1.133-1.133-3.109-1.133-4.242 0l-1.414-1.414c.943-.944 2.199-1.465 3.535-1.465s2.592.521 3.535 1.465zm4.243-4.243c-3.51-3.508-9.219-3.508-12.729 0l1.414 1.414c2.73-2.729 7.17-2.729 9.9 0l1.414-1.414zm-7.864 6.864c0 .828.672 1.5 1.5 1.5s1.5-.672 1.5-1.5-.672-1.5-1.5-1.5-1.5.672-1.5 1.5zm-10 5.5v9h12v-9zm2.307-12.364 1.415-1.415c.46-.46.956-.86 1.471-1.221h-6.193v5h5.671zm13.804 4.582-1.276 1.276c.097.321.165.654.165 1.006 0 1.93-1.57 3.5-3.5 3.5h2.5v7h4v-10c0-1.264-.784-2.34-1.889-2.782zm-8.111 2.282c0-.352.068-.686.165-1.006l-1.492-1.492-9.669.002c-1.658-.002-3.004 1.342-3.004 3v9.996h4v-7h13.5c-1.93 0-3.5-1.57-3.5-3.5z"/></svg>