<svg id="Layer_1" viewBox="0 0 24 24" xmlns="http://www.w3.org/2000/svg" data-name="Layer 1"><path d="m9 15c.49 1.174 1.648 2 2.999 2s2.509-.826 2.999-2zm14.912 5.027-1.057-5.96c.698-.64 1.145-1.548 1.145-2.567 0-1.434-.87-2.692-2.15-3.226-.823-4.761-4.945-8.274-9.85-8.274-4.666 0-8.773 3.308-9.774 7.903l-.725 4.097s1.606-.001 1.778-.013c1.774-.044 3.421-.496 4.904-1.192-.113.211-.183.448-.183.704 0 .828.672 1.5 1.5 1.5s1.5-.672 1.5-1.5c0-.781-.6-1.414-1.363-1.484 2.253-1.288 4.715-3.443 6.484-6.876 2.086 1.251 3.56 3.428 3.833 6.01l.079.745.737.134c.713.13 1.23.749 1.23 1.472 0 .827-.673 1.5-1.5 1.5h-1.149l-.22.624c-.917 2.598-4.001 5.378-7.131 5.378-2.861 0-6-2.425-7-5.002h-3.852l-1.082 6.115c-.194.955.048 1.937.665 2.691.617.756 1.531 1.189 2.507 1.19l5.763.003v-3.592c.95.373 1.958.594 3 .594s2.05-.219 3-.591v3.588h5.762c1.009 0 1.942-.457 2.56-1.255.618-.799.827-1.816.59-2.717zm-7.912-8.527c0-.828-.672-1.5-1.5-1.5s-1.5.672-1.5 1.5.672 1.5 1.5 1.5 1.5-.672 1.5-1.5z"/></svg>