<svg id="Layer_1" viewBox="0 0 24 24" xmlns="http://www.w3.org/2000/svg" data-name="Layer 1"><path d="m24 20c0 1.654-1.346 3-3 3v1h-2v-1c-1.654 0-3-1.346-3-3h2c0 .552.449 1 1 1h2c.551 0 1-.448 1-1 0-.379-.271-.698-.644-.761l-3.041-.506c-1.342-.224-2.315-1.374-2.315-2.733 0-1.654 1.346-3 3-3v-1h2v1c1.654 0 3 1.346 3 3h-2c0-.552-.449-1-1-1h-2c-.551 0-1 .448-1 1 0 .379.271.698.644.761l3.041.506c1.342.224 2.315 1.374 2.315 2.733zm-5-14.055v4.055h2v-4.055l1.572 1.572 1.414-1.414-2.479-2.479c-.831-.832-2.183-.832-3.014 0l-2.505 2.505 1.414 1.414zm-10 6.055c3.309 0 6-2.691 6-6s-2.691-6-6-6-6 2.691-6 6 2.691 6 6 6zm5 8v-4c0-.677.138-1.321.383-1.911-.286-.057-.581-.089-.883-.089h-9c-2.481 0-4.5 2.019-4.5 4.5v5.5h16.031c-1.225-.912-2.031-2.359-2.031-4z"/></svg>