<svg id="Layer_1" viewBox="0 0 24 24" xmlns="http://www.w3.org/2000/svg" data-name="Layer 1"><path d="m19.001 10c-2.761 0-5 2.239-5 5 0 .572.116 1.112.293 1.624l-.315.304v2.072h-2v2h-1.978v3h2.604l4.412-4.413c.609.264 1.278.413 1.983.413 2.761 0 5-2.239 5-5s-2.239-5-5-5zm1 2.5c.828 0 1.5.672 1.5 1.5s-.672 1.5-1.5 1.5-1.5-.672-1.5-1.5.672-1.5 1.5-1.5zm-12 11.502h-8.001v-13.926c0-.96.433-1.848 1.188-2.439l8.905-6.977c1.123-.879 2.692-.881 3.815 0l8.904 6.977c.755.59 1.188 1.479 1.188 2.439v.034c-1.271-1.3-3.041-2.11-4.999-2.11-1.184 0-2.299.298-3.277.819-3.317-1.505-7.363-.905-10.087 1.819l1.414 1.414c1.842-1.842 4.464-2.436 6.813-1.791-.492.533-.902 1.141-1.211 1.806-1.489-.195-3.047.258-4.188 1.399l1.414 1.414c.605-.605 1.406-.891 2.2-.87-.046.324-.078.652-.078.989v2h-2.021v2h-1.978v5.002z"/></svg>