<svg id="Layer_1" viewBox="0 0 24 24" xmlns="http://www.w3.org/2000/svg" data-name="Layer 1"><path d="m14.925 5.856c.093-.859-.379-1.688-1.183-2.005-.922-.363-1.883-.678-2.771-.851 1.295-.677 2.509-.79 3.531-.664-.554-1.351-1.649-2.336-3.532-2.336-3.001 0-3.502 2.001-3.502 2.001s-.5-2.001-3.502-2.001c-1.882 0-2.977.985-3.532 2.337 1.024-.127 2.24-.015 3.538.663-.89.174-1.853.49-2.778.854-.804.317-1.276 1.147-1.182 2.005.086.792.286 1.561.565 2.233 1.002-.916 2.468-1.864 4.395-2.092-.94.953-1.879 1.982-2.655 2.857-.503.568-.525 1.427-.04 2.011.399.479.824.922 1.252 1.332.47-.906 1.334-2.052 2.942-3.2-.721 1.442-1.209 3.111-1.523 4.46.495.412.957.78 1.348 1.11.68.574 1.665.574 2.345 0 .392-.331.857-.701 1.353-1.115-.315-1.348-.802-3.015-1.522-4.455 1.606 1.147 2.47 2.291 2.94 3.196.428-.41.853-.853 1.251-1.332.485-.583.463-1.442-.04-2.01-.775-.874-1.713-1.901-2.651-2.853 1.924.227 3.388 1.173 4.39 2.088.278-.671.477-1.44.564-2.232zm-12.982.039c-.2-.008-.44-.043-.598-.172-.158-.188.006-.437.165-.569.425-.391 1.406-1.181 1.922-.521.476.609-1.014 1.238-1.489 1.262zm8.106 2.268c.45-.36.997.462 1.188.776.121.173.204.472-.014.6-.147.078-.324-.025-.452-.131-.274-.227-1.171-.885-.722-1.244zm-3.917 8.588c-1.973 2.568-2.202 5.447-2.18 7.249h-2.797c-.46-1.641-1.155-4.526-1.155-7 0-1.754.284-3.494.642-4.992.468.631 1.059 1.205 1.669 1.795-.186 1.023-.311 2.113-.311 3.197 0 1.036.142 2.177.338 3.255.341-1.476.987-3.081 2.126-4.605.525.44 1.032.883 1.669 1.1zm17.863 1.668c.013-.593 0-1.206-.057-1.827-.069-.756-.692-1.347-1.45-1.393-1.166-.07-2.555-.133-3.892-.143 1.521-1.2 3.225-1.566 4.58-1.628-.278-.672-.681-1.356-1.18-1.977-.541-.673-1.462-.926-2.254-.581-.909.396-1.811.852-2.561 1.357.437-1.394 1.215-2.332 2.027-2.966-1.348-.563-2.818-.485-4.15.846-2.122 2.122-1.061 3.891-1.061 3.891s-1.769-1.061-3.891 1.061c-1.331 1.331-1.409 3.802-.846 5.15.634-.814 1.573-2.595 2.971-3.033-.507.753-.964 1.657-1.36 2.568-.345.792-.092 1.713.582 2.254.621.499 1.306.901 1.978 1.179.061-1.357.427-3.063 1.628-4.587.009 1.339.073 2.73.143 3.898.046.758.638 1.381 1.394 1.45.621.057 1.234.07 1.828.057-.309-.973-.508-2.394-.183-4.344.51 1.529 1.345 3.055 2.076 4.231.641-.058 1.229-.125 1.738-.168.886-.075 1.583-.772 1.658-1.658.043-.511.11-1.101.169-1.745-1.176-.731-2.699-1.565-4.227-2.074 1.946-.324 3.366-.127 4.339.181zm-11.15 2.24c-.147.136-.342.281-.545.301-.245-.021-.305-.314-.285-.519.024-.577.159-1.829.991-1.727.767.094.159 1.592-.161 1.945zm7.661-.198c.217-.279.588-.176.836.022.165.13.314.281.441.448.216.283.187.69.038 1-.377.781-1.074-.188-1.321-.649-.123-.273-.2-.562.007-.82z"/></svg>