<svg id="Layer_1" viewBox="0 0 24 24" xmlns="http://www.w3.org/2000/svg" data-name="Layer 1"><path d="m7.38 14.223-5.37 3.168-1.006-1.729 3.943-2.295c-.17-.434-.289-.893-.363-1.367h-4.584v-2h4.585c.074-.476.197-.935.369-1.371l-3.956-2.303 1.006-1.729 3.957 2.304c.287-.352.61-.672.964-.958l-2.298-3.951 1.729-1.006 2.302 3.958c.428-.166.877-.286 1.343-.359v-4.585h2v4.586c.468.072.924.187 1.359.356l2.299-3.955 1.729 1.005-2.305 3.964c.349.283.672.598.959.952l3.97-2.311 1.006 1.729-3.975 2.314c.116.298.223.6.294.912 0 .003-.002.006-.002.008-.884-.359-1.84-.56-2.835-.56-3.313 0-6.145 2.191-7.12 5.223zm7.62 5.379-.715.699c-.382.382-.382 1.017.008 1.406.379.377 1.035.377 1.414 0 .39-.39.39-1.024 0-1.414zm4.409-5.585c-.928-1.829-2.82-3.017-4.909-3.017-2.906 0-5.293 2.266-5.487 5.123-1.729.441-3.013 2.012-3.013 3.877 0 2.206 1.794 4 4 4h5c-.801 0-1.555-.312-2.121-.879-1.17-1.17-1.17-3.072 0-4.242l2.121-2.076 2.113 2.068c1.178 1.178 1.178 3.08.008 4.25-.566.566-1.32.879-2.121.879h4c2.757 0 5-2.243 5-5 0-2.619-2.024-4.775-4.591-4.983z"/></svg>