<svg id="Layer_1" viewBox="0 0 24 24" xmlns="http://www.w3.org/2000/svg" data-name="Layer 1"><path d="m21 24h-18v-2h18zm-5.052-9.781 2.487-2.532c.603-.728.752-1.772.272-2.586-.739-1.254-2.39-1.457-3.407-.533l-1.813 1.646.874.794c.918.834 1.465 1.987 1.587 3.212zm5.552-14.219c-1.381 0-2.5 1.119-2.5 2.5v4.096s.76.616.907.778c1.4 1.542 1.455 3.915.125 5.519l-4.033 4.088v3.019h4.75l2.203-2.412c.673-.737 1.047-1.699 1.047-2.698v-12.39c0-1.381-1.119-2.5-2.5-2.5zm-7.5 20v-5.292c0-.846-.357-1.652-.983-2.221l-4.317-3.92c-1.017-.923-2.668-.721-3.407.533-.48.815-.331 1.858.272 2.586l3.243 3.275-1.404 1.404-3.437-3.472c-1.329-1.604-1.275-3.977.125-5.519.147-.162.907-.778.907-.778v-3.953c.001-1.308-.94-2.5-2.241-2.63-1.497-.15-2.758 1.021-2.758 2.487v12.39c0 .998.373 1.961 1.047 2.698l2.203 2.412z"/></svg>