<svg id="Layer_1" viewBox="0 0 24 24" xmlns="http://www.w3.org/2000/svg" data-name="Layer 1"><path d="m23.767 19.504-2.994 4.409c-7.23-2.228-13.508-3.587-19.565-4.133-.147-.977-1.119-6.41-1.184-9.2 0-5.772 4.697-10.469 10.469-10.469 4.654 0 8.742 2.618 10.172 6.516.017.048.055.156.13.373h-10.795c-2.206 0-4 1.794-4 4 0 1.726 1.104 3.185 2.638 3.745l15.13 4.759zm-15.767-8.504c0 1.103.897 2 2 2s2-.897 2-2-.897-2-2-2-2 .897-2 2zm13.451-2h-8.007c.344.591.556 1.268.556 2 0 1.163-.507 2.202-1.302 2.934l10.97 3.443c-.66-3.205-1.571-6.33-2.217-8.377z"/></svg>