<svg id="Layer_1" viewBox="0 0 24 24" xmlns="http://www.w3.org/2000/svg" data-name="Layer 1"><path d="m6.634 14.975-.626-.002.655-2.973h-2.05c-.412-.002-.706-.436-.585-.83l1.336-4.17h2.923l-.925 3 2.036.008c.481.002.766.539.499.938l-3.264 4.029zm4.088-11.968c-.624-1.762-2.309-3.007-4.222-3.007-2.37 0-4.317 1.84-4.488 4.167-1.17.409-2.012 1.525-2.012 2.833 0 1.423.998 2.612 2.329 2.918l1.576-4.918h7.092l-.926 3c.699.179 1.275.734 1.623 1.389.059.111.086.231.128.347 1.275-.523 2.177-1.775 2.177-3.236 0-1.855-1.451-3.378-3.278-3.493zm12.554 8.134c-1.18-2.706-2.294-5.262-3.476-6.722-2.089-2.791-5.236-4.361-8.634-4.407.353.369.67.775.931 1.224 2.266.689 3.903 2.801 3.903 5.264.046 2.681-1.931 4.749-4.409 5.493-.013.021-4.007 4.987-4.007 4.987l-4.063-.02.661-2.999c-.659-.114-1.259-.481-1.663-1.029-.226-.307-.37-.658-.448-1.022-.763-.151-1.476-.481-2.067-.929-.004 2.579.877 5.05 2.539 7.046.295.354.457.802.457 1.263v4.709h13v-3h2.247c1.5 0 2.778-1.121 2.974-2.606l.449-3.394h2.33v-2.212l-.724-1.647z"/></svg>