<?xml version="1.0" encoding="UTF-8"?>
<svg xmlns="http://www.w3.org/2000/svg" id="Layer_1" data-name="Layer 1" viewBox="0 0 24 24">
  <path d="M15.523,5.609l1.414-1.415,.807,.806L22.537,.207l1.414,1.414-4.793,4.793c-.78,.78-2.048,.78-2.828,0l-.807-.805ZM3.744,6.999c.512,0,1.024-.195,1.414-.585L9.951,1.621,8.537,.207,3.744,5,1.495,2.752,.081,4.166l2.249,2.248c.39,.39,.902,.585,1.414,.585Zm8.256,6.001v-4h-2v4h-3.38l4.999,5.5-4.999,5.5h4.909l5.001-5.5-4.529-5.5Zm7,0v-4h-2v4h-2.88l4.999,5.5-4.999,5.5h5.352l4.528-5.5-5-5.5Zm-14,1.069v-5.069H3v4c-1.654,0-3,1.346-3,3v5c0,1.654,1.346,3,3,3h1.028l5.001-5.5-4.029-4.431Zm3.505-8.46l.806,.806c.78,.78,2.048,.78,2.828,0L16.932,1.621,15.518,.207l-4.793,4.793-.806-.806-1.414,1.414Z"/>
</svg>
