<?xml version="1.0" encoding="UTF-8"?>
<svg xmlns="http://www.w3.org/2000/svg" id="Layer_1" data-name="Layer 1" viewBox="0 0 24 24">
  <path d="M16.5,2.5c0-1.381,1.119-2.5,2.5-2.5s2.5,1.119,2.5,2.5-1.119,2.5-2.5,2.5-2.5-1.119-2.5-2.5Zm5.5,17.5v4h-2v-4h-2v4h-2v-4h-2.133l1.422-11.372c.187-1.498,1.467-2.628,2.977-2.628h1.469c1.51,0,2.79,1.13,2.977,2.628l1.422,11.372h-2.133ZM11.067,0l-2.472,4.644L0,.024,5.19,8.169,.222,10.619l5.096,2.25-1.891,5.15,5.139-1.766,2.609,4.875,.718-1.458,1.421-11.332c.121-.912,.484-1.741,1.022-2.424L11.067,0Z"/>
</svg>
