<svg id="Layer_1" viewBox="0 0 24 24" xmlns="http://www.w3.org/2000/svg" data-name="Layer 1"><path d="m16 2v-2h-2v2h-2v-2h-2v2h-2v-2h-2v2h-2v-2h-2v2h-2v19c0 1.654 1.346 3 3 3h12c1.654 0 3-1.346 3-3v-19zm-13 6.5c0-.828.672-1.5 1.5-1.5s1.5.672 1.5 1.5-.672 1.5-1.5 1.5-1.5-.672-1.5-1.5zm3 11.5h-2c0-6.191 2.808-8.654 5.284-10.826.533-.467 1.036-.909 1.509-1.381l-1.793-1.793h3.75c.69 0 1.25.56 1.25 1.25v3.75l-1.793-1.793c-.519.519-1.07 1.003-1.604 1.471-2.366 2.076-4.603 4.037-4.603 9.322zm9.007-1.407-1.414 1.414-1.593-1.593-1.593 1.593-1.414-1.414 1.593-1.593-1.593-1.593 1.414-1.414 1.593 1.593 1.593-1.593 1.414 1.414-1.593 1.593zm8.993 3.407-2 2-2-2v-20c0-1.105.895-2 2-2 1.105 0 2 .895 2 2z"/></svg>