<svg id="Layer_1" viewBox="0 0 24 24" xmlns="http://www.w3.org/2000/svg" data-name="Layer 1"><path d="m16.872 15.458 1.49-1.49c1.29-1.29 3.381-1.29 4.67 0 1.29 1.29 1.29 3.381 0 4.67l-1.491 1.491-4.67-4.67zm-1.414 1.414-1.491 1.491c-1.29 1.29-1.29 3.381 0 4.67s3.381 1.29 4.67 0l1.49-1.491-4.67-4.67zm-1.458-14.372c0-1.381-1.119-2.5-2.5-2.5h-7c-1.381 0-2.5 1.119-2.5 2.5v2.5h12zm-1.814 21.5h-12.186v-12c0-1.654 1.346-3 3-3h.952v-2h8.048v2h1c1.654 0 3 1.346 3 3v1.502l-3.446 3.446c-1.002 1.001-1.554 2.333-1.554 3.75 0 1.221.431 2.365 1.186 3.303zm-3.186-7h2v-2h-2v-2h-2v2h-2v2h2v2h2z"/></svg>