<svg id="Layer_1" viewBox="0 0 24 24" xmlns="http://www.w3.org/2000/svg" data-name="Layer 1"><path d="m24 14.5c0-3.59-2.91-6.5-6.5-6.5s-6.5 2.91-6.5 6.5c0 2.3 1.198 4.316 3 5.471v4.029l3.5-3 3.5 3v-4.029c1.802-1.155 3-3.172 3-5.471zm-7.979-1.26 3.286.548c1.271.211 2.193 1.3 2.193 2.588 0 1.447-1.177 2.624-2.624 2.624h-.376v1h-2v-1c-1.654 0-3-1.346-3-3h2c0 .551.449 1 1 1h2.376c.344 0 .624-.28.624-.624 0-.307-.22-.565-.521-.616l-3.286-.548c-1.27-.211-2.192-1.3-2.192-2.588 0-1.447 1.177-2.624 2.624-2.624h.376v-1h2v1c1.654 0 3 1.346 3 3h-2c0-.551-.448-1-1-1h-2.376c-.344 0-.624.28-.624.624 0 .307.219.565.521.616zm3.979-7.23v.378c-.792-.245-1.628-.388-2.5-.388-1.442 0-2.8.364-3.991 1h-7.509v2h5.031c-.511.601-.938 1.273-1.268 2h-3.763v2h3.141c-.087.488-.141.987-.141 1.5 0 .509.046 1.01.134 1.5h-3.124c-.436-.87-1.14-1.574-2.01-2.01v-7.975c.865-.439 1.574-1.145 2.01-2.015h11.98c.436.87 1.14 1.574 2.01 2.01zm4-3.01v6.034c-.571-.678-1.247-1.263-2-1.736v-2.798c-1.379 0-2.5-1.121-2.5-2.5h-15c0 1.379-1.121 2.5-2.5 2.5v11c1.379 0 2.5 1.121 2.5 2.5h5.266c.329.72.753 1.394 1.271 2h-11.037v-17c0-1.654 1.346-3 3-3h18c1.654 0 3 1.346 3 3z"/></svg>