<svg id="Layer_1" viewBox="0 0 24 24" xmlns="http://www.w3.org/2000/svg" data-name="Layer 1"><path d="m21.14 3.654s-.692-.857-1.713-.857c-1.427 0-2.068.487-2.427 1.5l1 .213v.857l1.995.571c.275.825-.329 3.49.506 5.402-.165-.186-.665-.679-1.501-.922v-1.706c0-1.006-.643-1.895-1.598-2.211l-5.402-1.792-5.401 1.792c-.957.316-1.599 1.205-1.599 2.211v1.706c-.836.243-1.336.736-1.501.922.855-1.939.231-4.577.506-5.402l1.995-.571v-.857l1-.213c-.359-1.013-1-1.5-2.427-1.5-1.021 0-1.713.857-1.713.857-3.141 3.712-2.853 6.567-2.853 8.28 0 0 1.756 2.509 5.268 2.823 1.214 3.841 4.791 5.481 6.7 6.446 1.794-.782 5.595-2.085 6.79-6.451 3.484-.331 5.228-2.818 5.228-2.818 0-1.713.288-4.569-2.853-8.281zm-6.14 10.143h-2v2h-2v-2h-2v-2h2v-2h2v2h2z"/></svg>