<svg id="Layer_1" viewBox="0 0 24 24" xmlns="http://www.w3.org/2000/svg" data-name="Layer 1"><path d="m0 13.516c1.172.305 2.384.484 3.609.484h1.391v-3.169c.958.166 1.822.169 2.363.169h1.637v3h2v-3h2v3h2v-3h1.637c.542 0 1.405-.003 2.363-.169v3.169h1.391c1.225 0 2.437-.179 3.609-.484-.946 2.118-3.038 2.484-5.363 2.484h-13.274c-2.325 0-4.418-.366-5.363-2.484zm8-6.516v-3c-.861.018-1.691-.463-2.423-1 1.196-.304 2.357-.753 3.448-1.349.054-.03 2.926-1.627 2.98-1.656.041.022 2.972 1.632 3.017 1.656 1.091.596 2.252 1.045 3.448 1.349-.746.547-1.592 1.026-2.47 1v3h2.391c1.225 0 2.437-.179 3.609-.484-.946 2.118-3.038 2.484-5.363 2.484h-9.274c-2.325 0-4.418-.366-5.363-2.484 1.172.305 2.384.484 3.609.484zm3 0h2v-3h-2zm10 10.831c-.958.166-1.822.169-2.363.169h-1.637v4h-2v-4h-2v4h-2v-4h-2v4h-2v-4h-1.637c-.542 0-1.405-.003-2.363-.169v4.169h-3v2h24v-2h-3z"/></svg>