<svg id="Layer_1" viewBox="0 0 24 24" xmlns="http://www.w3.org/2000/svg" data-name="Layer 1"><path d="m18 12c-3.314 0-6 2.686-6 6s2.686 6 6 6c.341 0 .674-.035 1-.09v-3.368c0-.808.621-1.503 1.427-1.541.663-.031 1.237.368 1.466.942.132.33.438.556.793.556h.034c.337 0 .646-.2.776-.511.282-.672.455-1.401.493-2.166-.094-3.231-2.737-5.823-5.991-5.823zm-2 9.5c-.828 0-1.5-.672-1.5-1.5s.672-1.5 1.5-1.5 1.5.672 1.5 1.5-.672 1.5-1.5 1.5zm0-4c-.828 0-1.5-.672-1.5-1.5s.672-1.5 1.5-1.5 1.5.672 1.5 1.5-.672 1.5-1.5 1.5zm4 0c-.828 0-1.5-.672-1.5-1.5s.672-1.5 1.5-1.5 1.5.672 1.5 1.5-.672 1.5-1.5 1.5zm-7.274 6.5h-12.726v-3c0-2.761 2.239-5 5-5h5.263c-.166.641-.263 1.308-.263 2 0 2.39 1.059 4.533 2.726 6zm-11.107-19.851c-.241-.835-.083-1.621.407-2.235.488-.611 1.231-.943 1.975-.9l3.5.267v-1.281h2v1.434l4.297.328c.558.031 1.074.325 1.396.804.325.482.396 1.072.198 1.661l-.216.773h-13.236zm13.006 2.851c.036.268.06.539.06.814 0 3.411-2.775 6.186-6.186 6.186s-6.185-2.775-6.185-6.186c0-.273.025-.544.062-.814z"/></svg>