<svg id="Layer_1" viewBox="0 0 24 24" xmlns="http://www.w3.org/2000/svg" data-name="Layer 1"><path d="m12 10c-2.757 0-5-2.243-5-5s2.243-5 5-5 5 2.243 5 5-2.243 5-5 5zm-9.5-5c-.828 0-1.5.672-1.5 1.5s.672 1.5 1.5 1.5 1.5-.672 1.5-1.5-.672-1.5-1.5-1.5zm21.5 13.038v-2.263l-6.375-3.312c-.575-.304-1.222-.464-1.871-.464h-7.51c-.649 0-1.296.161-1.872.466l-6.372 3.388v2.263l6-3.188v7.073h-6v2h24v-2h-6v-7.086l6 3.125zm-11.5.962c-.828 0-1.5-.672-1.5-1.5s.672-1.5 1.5-1.5 1.5.672 1.5 1.5-.672 1.5-1.5 1.5zm9-12c-.828 0-1.5.672-1.5 1.5s.672 1.5 1.5 1.5 1.5-.672 1.5-1.5-.672-1.5-1.5-1.5z"/></svg>