<svg id="Layer_1" viewBox="0 0 24 24" xmlns="http://www.w3.org/2000/svg" data-name="Layer 1"><path d="m11 12v-2h4.792c.036.02.075.056.093.096l.846 1.904h-5.73zm10 0c0 1.103.897 2 2 2h1v4c0 1.654-1.346 3-3 3h-18c-1.654 0-3-1.346-3-3v-12c0-1.654 1.346-3 3-3h18c1.654 0 3 1.346 3 3v4h-1c-1.103 0-2 .897-2 2zm-15 5h-2v2h2zm0-4h-2v2h2zm0-4h-2v2h2zm0-4h-2v2h2zm13 7.783c0-.4-.082-.789-.244-1.151l-1.044-2.349c-.293-.657-.91-1.143-1.61-1.268l-5.102-.016c-1.103 0-2 .897-2 2v5h1c0 .552.448 1 1 1s1-.448 1-1h4c0 .552.448 1 1 1s1-.448 1-1h1v-2.217z"/></svg>