<svg id="Layer_1" viewBox="0 0 24 24" xmlns="http://www.w3.org/2000/svg" data-name="Layer 1"><path d="m13 4v2h-2v-2m1-4c-.29 0-.58.094-.822.283l-2.667 2.087c-.323.253-.512.64-.512 1.05v4.58h8v-4.58c0-.41-.189-.797-.512-1.05l-2.665-2.087c-.242-.189-.532-.283-.822-.283zm-7.836 24-3.117-3.412c-.673-.737-1.047-1.699-1.047-2.698v-12.39c0-1.466 1.261-2.637 2.758-2.487 1.301.13 2.242 1.322 2.242 2.63v3.954s-.76.616-.907.778c-1.4 1.542-1.455 3.915-.125 5.519l3.437 3.472 1.404-1.404-3.243-3.275c-.603-.728-.752-1.772-.272-2.586.739-1.254 2.39-1.457 3.407-.533l4.317 3.92c.626.569.983 1.375.983 2.221v6.292m4.707-11.899c-.739-1.254-2.39-1.457-3.407-.533l-1.813 1.646.874.794c.918.834 1.465 1.987 1.587 3.212l2.487-2.532c.603-.728.752-1.772.272-2.586zm1.129 11.899 3.117-3.412c.673-.737 1.047-1.699 1.047-2.698v-12.391c0-1.381-1.119-2.5-2.5-2.5s-2.5 1.119-2.5 2.5v4.096s.76.616.907.778c1.4 1.542 1.455 3.915.125 5.519l-4.033 4.088v4.019"/></svg>