<?xml version="1.0" encoding="UTF-8"?>
<svg xmlns="http://www.w3.org/2000/svg" id="Layer_1" data-name="Layer 1" viewBox="0 0 24 24">
  <path d="M4.106,14.842l2.565,3.715-2.996,3.596-3.675-1.798v-3.697l4.106-1.815Zm16.5-5.842l3.256-3.223-1.885-5.777h-5.543l-3.31,4.137,3.688,4.863h3.795ZM11,4.184L5.268,.153,0,3.445v6.723l7.022,2.555,3.978-3.315V4.184Zm12.985,14.414l-3.01,5.402H12.778l-3.778-4.11v-4.297l4.483-4.593,7.592,.006,2.91,7.592Zm-6.985,1.402h-2.122l-2.163-2.354-1.473,1.354,2.757,3h3v-2Z"/>
</svg>
