<?xml version="1.0" encoding="UTF-8"?>
<svg xmlns="http://www.w3.org/2000/svg" id="Layer_1" data-name="Layer 1" viewBox="0 0 24 24">
  <path d="M17,21c0,1.381-1.119,2.5-2.5,2.5-1.025,0-1.903-.618-2.289-1.5H0v-2H12.211c.386-.882,1.264-1.5,2.289-1.5,1.381,0,2.5,1.119,2.5,2.5Zm2,0c0,.343-.035,.677-.101,1h5.101v-2h-5.101c.066,.323,.101,.657,.101,1ZM24,3v14H0V3C0,1.346,1.346,0,3,0H21c1.654,0,3,1.346,3,3Zm-11,3.5c0-.506,.102-.983,.256-1.437-2.049,.302-4.401,1.819-5.549,4.447-1.107-1.133-2.678-1.51-3.707-1.51l-.006,2c.502,.006,3.006,.177,3.006,3h2c0-3.303,2.16-5.339,4.064-5.861-.03-.21-.064-.42-.064-.639Zm7,0c0-1.381-1.119-2.5-2.5-2.5s-2.5,1.119-2.5,2.5,1.119,2.5,2.5,2.5,2.5-1.119,2.5-2.5Z"/>
</svg>
