<svg id="Layer_1" viewBox="0 0 24 24" xmlns="http://www.w3.org/2000/svg" data-name="Layer 1"><path d="m9 17c0 1.936-.751 3-1 3s-1-1.064-1-3 .751-3 1-3 1 1.064 1 3zm13-7v14h-20v-14zm-11 7c0-2.851-1.29-5-3-5s-3 2.149-3 5 1.29 5 3 5 3-2.149 3-5zm4 0c0-2.75-1.482-4.902-3.39-4.985.873 1.241 1.39 2.975 1.39 4.985s-.517 3.744-1.39 4.985c1.908-.082 3.39-2.235 3.39-4.985zm4 0c0-2.75-1.482-4.902-3.39-4.985.873 1.241 1.39 2.975 1.39 4.985s-.517 3.744-1.39 4.985c1.908-.082 3.39-2.235 3.39-4.985zm-17-9v-5c0-1.654 1.346-3 3-3h14c1.654 0 3 1.346 3 3v5zm11-4c0 .828.672 1.5 1.5 1.5s1.5-.672 1.5-1.5-.672-1.5-1.5-1.5-1.5.672-1.5 1.5zm-5 0c0 .828.672 1.5 1.5 1.5s1.5-.672 1.5-1.5-.672-1.5-1.5-1.5-1.5.672-1.5 1.5z"/></svg>