<svg id="Layer_1" viewBox="0 0 24 24" xmlns="http://www.w3.org/2000/svg" data-name="Layer 1"><path d="m6.353 8.017c-.228-.63-.353-1.309-.353-2.017h2.5c2.414 0 4.573-1.289 5.777-3.281-.559-.389-1.225-.624-1.941-.685-.88 1.203-2.282 1.966-3.836 1.966h-2.15c.954-2.685 3.76-4.5 6.879-3.877 2.188.437 3.995 2.13 4.562 4.288.328 1.246.254 2.447-.112 3.514-.331.964.264 2.056 1.283 2.074h.037s-1 2-3 2c-.805 0-1.46-.144-1.993-.353-.629.224-1.302.353-2.007.353s-1.378-.128-2.007-.353c-.533.209-1.188.353-1.993.353-2 0-3-2-3-2h.036c.981-.016 1.651-1.06 1.318-1.982zm9.647 5.983h-8c-2.757 0-5 2.243-5 5v5h18v-5c0-2.757-2.243-5-5-5z"/></svg>