<svg id="Layer_1" viewBox="0 0 24 24" xmlns="http://www.w3.org/2000/svg" data-name="Layer 1"><path d="m10 21.888 2.857 1.691c-.923.273-1.885.422-2.857.422-5.541-.001-10.049-4.509-10.049-10.05.084-5.156 6.257-10.784 9.997-13.894 2.263 1.661 4.595 3.921 6.837 6.656.628.795 1.155 1.564 1.602 2.312-.72-.07-1.452.057-2.12.379l-6.267 4.096zm2-1.156c.032.014 4.967 2.99 5 2.995v-5.327l-5-3v5.331zm7-2.331v5.326c.009-.005 5-2.995 5-2.995v-5.331zm.029-7.115c-.635-.381-1.424-.381-2.059 0l-3.971 2.383 5 3 5-3-3.971-2.383z"/></svg>