<svg id="Layer_1" viewBox="0 0 24 24" xmlns="http://www.w3.org/2000/svg" data-name="Layer 1"><path d="m18 12c-3.314 0-6 2.686-6 6s2.686 6 6 6 6-2.686 6-6-2.686-6-6-6zm.619 8.414c-.378.378-.88.586-1.414.586h-.002c-.534 0-1.036-.209-1.413-.587l-2.012-2.012 1.414-1.414 2.013 2.013 3.615-3.615 1.414 1.414zm5.381-15.414h-24v-2c0-1.657 1.343-3 3-3h18c1.657 0 3 1.343 3 3zm-6 5c2.39 0 4.533 1.059 6 2.726v-5.726h-24v11h10c0-4.411 3.589-8 8-8zm-12.5 4c-.828 0-1.5-.672-1.5-1.5s.672-1.5 1.5-1.5 1.5.672 1.5 1.5-.672 1.5-1.5 1.5z"/></svg>