<svg id="Layer_1" viewBox="0 0 24 24" xmlns="http://www.w3.org/2000/svg" data-name="Layer 1"><path d="m17.8 16v5.7c0 1.269-1.031 2.3-2.3 2.3s-2.3-1.031-2.3-2.3v-5.7h1.6v5.7c0 .386.314.7.7.7s.7-.314.7-.7v-5.7zm-7.172 6.6h-2.302l-.299 1.4h-1.533l1.321-6.418c.163-.855.826-1.578 1.686-1.581.881.01 1.511.697 1.697 1.627l1.296 6.373h-1.58l-.285-1.4zm-.326-1.6-.621-3.044c-.045-.231-.14-.334-.162-.349l-.016-.006c-.069.042-.142.146-.171.296l-.664 3.104h1.634zm11.198.1h.9v.4c0 .496-.404.9-.9.9s-.9-.404-.9-.9v-3c0-.496.404-.9.9-.9s.9.404.9.9h1.6c0-1.381-1.119-2.5-2.5-2.5s-2.5 1.119-2.5 2.5v3c0 1.381 1.119 2.5 2.5 2.5s2.5-1.119 2.5-2.5v-2h-2.5zm-21.5-11.1v14h4.451l1.463-7.197c.331-1.631 1.766-2.803 3.43-2.803h12.156c1 0 1.928.518 2.5.974v-4.974zm24-2v-3c0-1.657-1.343-3-3-3h-3v-2h-2v2h-8v-2h-2v2h-3c-1.657 0-3 1.343-3 3v3z"/></svg>