<svg id="Layer_1" viewBox="0 0 24 24" xmlns="http://www.w3.org/2000/svg" data-name="Layer 1"><path d="m24 7v17h-5v-17c0-1.103.897-2 2-2h1c1.105 0 2 .895 2 2zm-15.801 6.711c.904-1.084.796-2.705.796-2.705s-1.809-.134-2.883.939c-.011.011-.018.024-.028.035-.325-.883-.726-1.496-.754-1.538l-1.661 1.114c.006.009.45.692.687 1.565-2.488.527-4.355 2.734-4.355 5.379 0 3.038 2.462 5.5 5.5 5.5s5.5-2.462 5.5-5.5c0-2.056-1.13-3.846-2.801-4.789zm-3.199 4.789c-.552 0-1-.448-1-1s.448-1 1-1 1 .448 1 1-.448 1-1 1zm2 2.5c-.552 0-1-.448-1-1s.448-1 1-1 1 .448 1 1-.448 1-1 1zm1-3c-.552 0-1-.448-1-1s.448-1 1-1 1 .448 1 1-.448 1-1 1zm13-16v-2h-6.381l-.656 5h-4.963c-1.612 0-2.922 1.281-2.988 2.877l.93 1.379c1.092-.309 2.037-.256 2.201-.245l1.732.128.116 1.733c.011.159.058 1.131-.274 2.244 1.439 1.396 2.284 3.333 2.284 5.384 0 2.174-.935 4.129-2.418 5.5h6.418v-17c0-.732.212-1.409.556-2h-1.615l.441-3z"/></svg>