<?xml version="1.0" encoding="UTF-8"?>
<svg xmlns="http://www.w3.org/2000/svg" id="Layer_1" data-name="Layer 1" viewBox="0 0 24 24">
  <path d="M5,15.392l-3.096,6.536-1.808-.855,3.688-7.784c.658-1.39,2.077-2.288,3.615-2.288h4.955l-7.354,8.862v-4.47ZM6.115,3h7.997l.319-.826c.27-.787-.287-1.615-1.118-1.661L7.311,.003c-1.131-.063-1.987,1.008-1.675,2.097l.479,.9Zm-1.115,21H14v-2H5v2Zm5-15c2.209,0,4-1.791,4-4H6c0,2.209,1.791,4,4,4Zm14,0h-2c0,2.731-1.802,3.595-3,3.87V0h-2V1h-1V3h1v6h-1v8h1v7h4v-1.5l-1.277-5.5h4.277v-2h-5c2.1-.418,5-2.084,5-6Zm-10,11v-7.877l-6.52,7.877h6.52Z"/>
</svg>
