<?xml version="1.0" encoding="UTF-8"?>
<svg xmlns="http://www.w3.org/2000/svg" id="Layer_1" data-name="Layer 1" viewBox="0 0 24 24">
  <path d="M18,8c-2.206,0-4-1.794-4-4S15.794,0,18,0s4,1.794,4,4-1.794,4-4,4Zm-6,7c-2.206,0-4-1.794-4-4s1.794-4,4-4,4,1.794,4,4-1.794,4-4,4Zm-6-7c-2.206,0-4-1.794-4-4S3.794,0,6,0s4,1.794,4,4-1.794,4-4,4Zm12,14v-2.5c0-1.93-1.57-3.5-3.5-3.5h-5c-1.93,0-3.5,1.57-3.5,3.5v2.5H0v2H24v-2h-6ZM7.157,14.532c-.726-.991-1.157-2.211-1.157-3.532,0-.341,.035-.674,.09-1H3.5c-1.933,0-3.5,1.567-3.5,3.5v2.5H5.261c.513-.62,1.161-1.12,1.896-1.468Zm13.343-4.532h-2.59c.055,.326,.09,.659,.09,1,0,1.321-.431,2.54-1.157,3.532,.734,.348,1.383,.849,1.896,1.468h5.261v-2.5c0-1.933-1.567-3.5-3.5-3.5Z"/>
</svg>
