<svg id="Layer_1" viewBox="0 0 24 24" xmlns="http://www.w3.org/2000/svg" data-name="Layer 1"><path d="m6.593 15.957-2.543-2.543-2.543 2.543-1.414-1.414 2.543-2.543-2.543-2.543 1.414-1.414 2.543 2.543 2.543-2.543 1.414 1.414-2.543 2.543 2.543 2.543zm14.236-13.543c-2.014-1.799-4.717-2.66-7.426-2.353-3.046.342-5.696 2.211-7.165 4.798l3.009 3.009c.697-2.239 2.788-3.869 5.253-3.869 3.032 0 5.5 2.467 5.5 5.5v.501h-2v-.501c0-1.93-1.57-3.5-3.5-3.5-1.761 0-3.222 1.306-3.465 3h1c1.639.02 2.965 1.358 2.965 3 0 1.654-1.346 3-3 3v-2c.552 0 1-.449 1-1s-.448-1-1-1h-2.707l-1.001 1.001 1.708 1.708v1.671l-3.749 3.749c.29 1.46.939 2.772 2.187 3.702 1.038.773 2.304 1.163 3.569 1.163 1.159 0 2.318-.327 3.302-.986.891-.595 1.604-1.405 2.062-2.34.796-1.626 1.633-2.714 2.632-3.425.814-.58 1.575-1.241 2.151-2.057 3.055-4.334 2.118-9.692-1.324-12.769z"/></svg>