<svg id="Layer_1" viewBox="0 0 24 24" xmlns="http://www.w3.org/2000/svg" data-name="Layer 1"><path d="m24 15c0-2.534-1.056-4.822-2.747-6.459l-.016.02c-.568.893-1.555 1.439-2.624 1.439h-3.418c.383 1.042.696 2.182.78 4h-1.951c.107-2.345.588-3.639 1.109-4.943h.001s1.14-2.956 1.14-2.956c-.418-.06-.841-.101-1.275-.101-4.963 0-9 4.038-9 9 0 .169.016.333.025.5.262 4.729 4.181 8.5 8.975 8.5 4.963 0 9-4.038 9-9zm-5.635-4.965c1.326.901 2.264 2.322 2.541 3.965h-1.929c-.07-1.669-.309-2.925-.612-3.965zm-2.465 6.965c-.164 1.516-.512 2.538-.9 3.515-.388-.977-.736-1.998-.9-3.515zm-4.29-6.939c-.291 1.036-.516 2.289-.583 3.939h-1.936c.276-1.631 1.208-3.039 2.52-3.939zm-2.259 6.939h1.743c.108 1.183.303 2.145.542 2.964-1.048-.713-1.854-1.75-2.285-2.964zm9.014 2.965c.239-.819.434-1.781.542-2.965h1.743c-.431 1.214-1.237 2.252-2.286 2.965zm-4.261-16.798c-.297-.52.078-1.167.677-1.167.207 0 .405.082.551.228l1.11.772h2.241l-1.184-3h1.096c.407 0 .781.222.975.579l1.929 2.421h1.25c.802 0 1.25.448 1.25 1v1h-2.5l-1.911 2.421c-.195.357-.569.579-.975.579h-1.113l1.167-3h-3.017zm-11.104 11.833c0 2.494.748 4.848 2.162 6.863-.941.78-1.858 1.537-2.318 1.904-1.833-2.541-2.844-5.619-2.844-8.767 0-7 4-11.5 12-13v1c-6 2-9 6.421-9 12z"/></svg>