<?xml version="1.0" encoding="UTF-8"?>
<svg xmlns="http://www.w3.org/2000/svg" id="Layer_1" data-name="Layer 1" viewBox="0 0 24 24">
  <path d="M3.5,21h3.5v3H3.5c-1.93,0-3.5-1.57-3.5-3.5v-3.5H3v3.5c0,.276,.224,.5,.5,.5Zm17.5-.5c0,.276-.224,.5-.5,.5h-3.5v3h3.5c1.93,0,3.5-1.57,3.5-3.5v-3.5h-3v3.5ZM20.5,0h-3.5V3h3.5c.276,0,.5,.224,.5,.5v3.5h3V3.5c0-1.93-1.57-3.5-3.5-3.5ZM3,3.5c0-.276,.224-.5,.5-.5h3.5V0H3.5C1.57,0,0,1.57,0,3.5v3.5H3V3.5Zm9,15.5c-5.24,0-8.608-4.597-9.223-5.828-.372-.745-.372-1.598,0-2.342,.615-1.232,3.98-5.831,9.223-5.831s8.608,4.598,9.223,5.83c.371,.744,.371,1.597,0,2.341-.615,1.231-3.98,5.83-9.223,5.83Zm6.444-7c-.582-.958-3.002-4-6.444-4s-5.863,3.043-6.444,4c.581,.957,3.002,4,6.444,4s5.862-3.042,6.444-4Zm-6.444-2.5c-1.381,0-2.5,1.119-2.5,2.5s1.119,2.5,2.5,2.5,2.5-1.119,2.5-2.5-1.119-2.5-2.5-2.5Z"/>
</svg>
