<?xml version="1.0" encoding="UTF-8"?>
<svg xmlns="http://www.w3.org/2000/svg" id="Layer_1" data-name="Layer 1" viewBox="0 0 24 24">
  <path d="m20.5,0H3.5C1.57,0,0,1.57,0,3.5v20.5h8.658l-.165-1.649c-.284-2.838-1.777-5.083-3.23-6.639,2.34-1.216,5.24-3.527,6.738-7.818,1.498,4.29,4.398,6.602,6.738,7.818-1.453,1.556-2.947,3.801-3.23,6.639l-.165,1.649h8.658V3.5c0-1.93-1.57-3.5-3.5-3.5ZM3,21v-3.312c.814.857,1.648,1.979,2.129,3.312h-2.129Zm0-7.506V3.5c0-.275.224-.5.5-.5h1.5v6.246c1.414-1.339,2.605-3.351,2.915-6.246h2.012c-.523,6.888-4.55,9.534-6.928,10.494ZM14.072,3h2.012c.311,2.895,1.501,4.907,2.915,6.246V3h1.5c.276,0,.5.225.5.5v9.994c-2.381-.962-6.405-3.609-6.928-10.494Zm6.928,18h-2.129c.481-1.333,1.315-2.455,2.129-3.312v3.312Z"/>
</svg>
