<svg id="Layer_1" viewBox="0 0 24 24" xmlns="http://www.w3.org/2000/svg" data-name="Layer 1"><path d="m0 14h6.01c-.657.873-1.134 1.889-1.36 3h-4.65zm24 1.5v1.5h-4.651c-.225-1.111-.703-2.127-1.36-3h2.92c-.218-1.816-.836-3.508-1.749-5h-19.16v-3h3v-3h-3v-3h8.5c8.547 0 15.5 6.953 15.5 15.5zm-12-11.999v2.499h4.601c-1.326-1.132-2.885-1.998-4.601-2.499zm-6 2.499h3v-2.977c-.167-.007-.331-.023-.5-.023h-2.5zm11.5 12.5c0 3.038-2.462 5.5-5.5 5.5s-5.5-2.462-5.5-5.5 2.462-5.5 5.5-5.5 5.5 2.462 5.5 5.5zm-2.293 1.793-2.207-2.207v-3.086h-2v3.914l2.793 2.793z"/></svg>