<?xml version="1.0" encoding="UTF-8"?>
<svg xmlns="http://www.w3.org/2000/svg" id="Layer_1" data-name="Layer 1" viewBox="0 0 24 24" width="512" height="512"><path d="M8.5,14c-.828,0-1.5-.672-1.5-1.5s.672-1.5,1.5-1.5,1.5,.672,1.5,1.5-.672,1.5-1.5,1.5Zm7-3c-.828,0-1.5,.672-1.5,1.5s.672,1.5,1.5,1.5,1.5-.672,1.5-1.5-.672-1.5-1.5-1.5Zm-3.501,8c2.778-.003,4.488-2.101,5.001-4,0-.001-2.501,1-5,1s-5-1.001-5-1c.512,1.899,2.221,3.997,4.999,4Zm0-9C4.473,10-.137,5.551-.329,5.361l1.052-1.069,1.048-1.073c.019,.018,.948,.902,2.608,1.811,.328-.807,.681-1.665,.886-2.132C6.316,.503,8.091,0,9.395,0c.895,0,1.838,.319,2.595,.86,.746-.541,1.676-.86,2.559-.86,1.825,0,3.391,1.083,4.187,2.897,.204,.465,.555,1.318,.882,2.121,1.633-.902,2.541-1.776,2.56-1.794l2.111,2.131c-.19,.189-4.756,4.645-12.288,4.645Zm-4.867-3.779c1.396,.456,3.031,.779,4.867,.779s3.474-.324,4.866-.781c-.327-.805-.682-1.668-.878-2.116-.181-.411-.607-1.103-1.439-1.103-.405,0-.947,.337-1.048,.538v.462h-3v-.448c-.117-.208-.687-.552-1.105-.552-.435,0-.936,.085-1.382,1.103-.197,.449-.552,1.313-.88,2.119Zm11.829,4.56c.35,.882,.537,1.792,.537,2.719,0,4.136-3.364,7.5-7.5,7.5s-7.5-3.364-7.5-7.5c0-.926,.187-1.835,.536-2.715-1.021-.366-1.935-.782-2.741-1.206-.518,1.265-.795,2.58-.795,3.921,0,5.79,4.71,10.5,10.5,10.5s10.5-4.71,10.5-10.5c0-1.344-.279-2.662-.799-3.932-.804,.427-1.717,.845-2.739,1.213Z"/></svg>
