<?xml version="1.0" encoding="UTF-8"?>
<svg xmlns="http://www.w3.org/2000/svg" id="Layer_1" data-name="Layer 1" viewBox="0 0 24 24">
  <path d="m20.891,12.22c-.632-4.812-3.836-5.22-4.891-5.22-.827,0-1.7.195-2.5.637v-.637C13.5,1.833,10.537,0,8,0c-1.092,0-4.484.438-4.947,5.739-1.773.604-3.053,2.286-3.053,4.261,0,3.034,3.087,6.208,3.439,6.561l1.061,1.061,1.061-1.061c.352-.352,3.439-3.527,3.439-6.561,0-1.933-1.225-3.585-2.94-4.221.154-1.451.649-2.779,1.94-2.779.751,0,2.5.39,2.5,4v17h3v-10c0-3.61,1.749-4,2.5-4,1.148,0,1.666,1.05,1.876,2.303-1.681.653-2.876,2.288-2.876,4.197,0,3.034,3.087,6.208,3.439,6.561l1.061,1.061,1.061-1.061c.352-.352,3.439-3.527,3.439-6.561,0-1.996-1.306-3.693-3.109-4.28Zm-16.388.982c-.751-.996-1.502-2.266-1.502-3.202,0-.827.673-1.5,1.5-1.5s1.5.673,1.5,1.5c0,.922-.724,2.179-1.498,3.202Zm15,6.5c-.751-.996-1.502-2.266-1.502-3.202,0-.827.673-1.5,1.5-1.5s1.5.673,1.5,1.5c0,.922-.724,2.179-1.498,3.202Z"/>
</svg>
