<?xml version="1.0" encoding="UTF-8"?>
<svg xmlns="http://www.w3.org/2000/svg" id="Layer_1" data-name="Layer 1" viewBox="0 0 24 24">
  <path d="m23.56,10.339c-.166-.319-.352-.59-.547-.84.002-.003.002-.007.004-.01.573-.983,2.211-4.441-.78-7.65l-.075-.075c-3.21-2.989-6.666-1.354-7.649-.78-.003.002-.007.002-.011.004-.25-.195-.521-.382-.84-.548-2.725-1.18-4.748.26-5.728,1.419-.377.447-.887.761-1.459.883-1.074.229-1.624.453-2.241.668-.787.275-1.467.852-1.853,1.664-.271.57-.356,1.176-.284,1.757.096.768-.075,1.518-.511,2.157-.094.138-.179.285-.254.442-.459.966-.424,2.033-.004,2.93.197.421.231.889.136,1.344-.628,3.014-1.463,10.296-1.463,10.296,0,0,7.282-.835,10.296-1.463.455-.095.923-.061,1.344.136.898.419,1.964.455,2.93-.004.156-.074.303-.159.442-.254.639-.436,1.39-.607,2.157-.511.581.072,1.188-.013,1.757-.284.812-.386,1.389-1.067,1.664-1.853.215-.617.439-1.167.668-2.241.122-.572.436-1.081.883-1.459,1.159-.98,2.599-3.002,1.419-5.728Zm-3.483-6.416c1.438,1.579.837,3.216.348,4.056-.462.793-.651,1.724-.534,2.622.11.826.109,1.32.109,1.845v.303c.003.466-.177.904-.507,1.233-.228.228-.512.384-.823.452-1.129.249-2.079.867-2.748,1.784-.055.073-.115.145-.181.211-.408.407-.975.607-1.559.555-.771-.076-1.541.111-2.233.534-1.005.613-3.086,1.27-5.172,1.826l10.642-10.642-2.121-2.121-10.642,10.642c.556-2.086,1.214-4.167,1.827-5.173.423-.694.608-1.468.535-2.234-.056-.581.146-1.148.554-1.557.066-.066.137-.126.21-.18.918-.67,1.535-1.62,1.785-2.749.07-.317.223-.595.452-.824.327-.327.762-.507,1.224-.507h.313c.528-.004,1.019,0,1.846.109.896.116,1.827-.071,2.621-.534.84-.489,2.477-1.088,4.055.348Z"/>
</svg>
