<?xml version="1.0" encoding="UTF-8"?>
<svg xmlns="http://www.w3.org/2000/svg" id="Layer_1" data-name="Layer 1" viewBox="0 0 24 24">
  <path d="m7,23v1H0v-1c0-1.105.895-2,2-2h3c1.105,0,2,.895,2,2Zm-5.5-5c0,1.105.895,2,2,2s2-.895,2-2-.895-2-2-2-2,.895-2,2ZM7,7c0-1.105-.895-2-2-2h-3c-1.105,0-2,.895-2,2v1h7v-1Zm-3.5-3c1.105,0,2-.895,2-2S4.605,0,3.5,0,1.5.895,1.5,2s.895,2,2,2Zm18.5,1h-3c-1.105,0-2,.895-2,2v1h7v-1c0-1.105-.895-2-2-2Zm-1.5-1c1.105,0,2-.895,2-2s-.895-2-2-2-2,.895-2,2,.895,2,2,2Zm1.5,17h-3c-1.105,0-2,.895-2,2v1h7v-1c0-1.105-.895-2-2-2Zm-1.5-1c1.105,0,2-.895,2-2s-.895-2-2-2-2,.895-2,2,.895,2,2,2Zm-2.5-8.4l-1.2,6.4H7v-8h2.021l1.754-3.319c.144-.281.343-.491.546-.575.169-.07.342-.106.512-.106.545,0,.995.357,1.145.909.018.064.04.212-.005.479l-.464,2.612h5.491v1.6Zm-3.315,1.4h-4.685v2h4.31l.375-2Z"/>
</svg>
