<?xml version="1.0" encoding="UTF-8"?>
<svg xmlns="http://www.w3.org/2000/svg" id="Layer_1" data-name="Layer 1" viewBox="0 0 24 24">
  <path d="m24,10.164v2.557c-.815-.926-1.838-1.663-3-2.134v-.423c0-.155-.07-.299-.191-.394h0s0,0,0,0L12.308,3.119c-.182-.143-.435-.143-.616,0L3.192,9.771c-.122.095-.192.238-.192.394v10.823h7.582c.468,1.161,1.202,2.184,2.124,3H0v-13.823c0-1.084.49-2.089,1.343-2.757L9.843.756c1.27-.992,3.043-.992,4.313,0l8.501,6.651h0c.854.668,1.343,1.673,1.343,2.757Zm0,7.836c0,3.314-2.686,6-6,6s-6-2.686-6-6,2.686-6,6-6,6,2.686,6,6Zm-5,2h-2v2h2v-2Zm0-6h-2v5h2v-5Z"/>
</svg>
