<svg id="Layer_1" viewBox="0 0 24 24" xmlns="http://www.w3.org/2000/svg" data-name="Layer 1"><path d="m10.4 16h1.6v8h-1.6l-1.8-4.054v4.054h-1.6v-8h1.6v.009l1.8 4.054zm7.4 2.3v3.4c0 1.269-1.031 2.3-2.3 2.3s-2.3-1.031-2.3-2.3v-3.4c0-1.269 1.031-2.3 2.3-2.3s2.3 1.031 2.3 2.3zm-1.6 0c0-.386-.314-.7-.7-.7s-.7.314-.7.7v3.4c0 .386.314.7.7.7s.7-.314.7-.7zm4.8-16.3h-3v-2h-3v2h-6v-2h-3v2h-3c-1.654 0-3 1.346-3 3v19h5v-3h-2v-11h18v4h3v-9c0-1.654-1.346-3-3-3zm1.36 14-1.103 6.145-1.129-6.138-1.628-.006 1.211 6.583c.103.58.61 1.416 1.546 1.416s1.435-.794 1.555-1.462l1.188-6.538z"/></svg>