<?xml version="1.0" encoding="UTF-8"?>
<svg xmlns="http://www.w3.org/2000/svg" id="Layer_1" data-name="Layer 1" viewBox="0 0 24 24">
  <path d="m16,21h-5.5c-2.075,0-3.922-.981-5.113-2.5.978.31,2.16.5,3.613.5v-3c-5,0-5-2.453-5-3.5v-.551c.166.019.329.051.5.051,1.151,0,2.203-.435,3-1.148.797.714,1.849,1.148,3,1.148.995,0,1.5,1.346,1.5,4h3c0-2.646-.515-4.328-1.267-5.383.781-.81,1.267-1.906,1.267-3.117v-1c0-1.318-.397-2.544-1.074-3.569.619-.185,1.074-.752,1.074-1.431,0-.828-.672-1.5-1.5-1.5-.679,0-1.246.454-1.431,1.074-1.025-.677-2.251-1.074-3.569-1.074h-2c-1.318,0-2.544.397-3.569,1.074-.185-.619-.752-1.074-1.431-1.074C.672,0,0,.672,0,1.5c0,.679.454,1.246,1.074,1.431-.677,1.025-1.074,2.251-1.074,3.569v1c0,1.061.384,2.024,1,2.794v4.206c0,5.238,4.262,9.5,9.5,9.5h6c1.379,0,2.5-1.122,2.5-2.5v-4.5h-3v4ZM6.5,3h2c1.93,0,3.5,1.57,3.5,3.5v1c0,.827-.673,1.5-1.5,1.5s-1.5-.673-1.5-1.5v-.5l.5-1h-4l.5,1v.5c0,.827-.673,1.5-1.5,1.5s-1.5-.673-1.5-1.5v-1c0-1.93,1.57-3.5,3.5-3.5Zm14.5,18.425v-7.323c-.9.569-1.99.898-3.193.898h-.842c-.059-1.154-.211-2.152-.444-3h1.287c1.586,0,2.693-1.028,2.693-2.5,0-1.945-1.192-3.589-1.204-3.605l2.265-1.955c.25.25,2.439,2.625,2.439,9.061,0,4.098-1.463,6.754-3,8.425Z"/>
</svg>
