<?xml version="1.0" encoding="UTF-8"?>
<svg xmlns="http://www.w3.org/2000/svg" id="Layer_1" data-name="Layer 1" viewBox="0 0 24 24">
  <path d="m24,19c0,2.757-2.243,5-5,5H0v-3h19c1.103,0,2-.897,2-2h3Zm-5,0H0l.031-3.304L3.279-.003s9.513.026,10.463.026,1.283.473,1.283.473c.371.379.527.913.418,1.431l-1.428,6.791.051.017c2.864.616,4.934,3.171,4.934,6.109v4.156Zm-3-4.156c0-1.544-1.099-2.884-2.612-3.187l-2.864-.914.577-2.743h-3.101v-3h3.732l.417-1.98-6.428-.017-2.688,12.997h12.968v-1.156Zm-9.5-3.844c-.828,0-1.5.672-1.5,1.5s.672,1.5,1.5,1.5,1.5-.672,1.5-1.5-.672-1.5-1.5-1.5Z"/>
</svg>
