<?xml version="1.0" encoding="UTF-8"?>
<svg xmlns="http://www.w3.org/2000/svg" id="Layer_1" data-name="Layer 1" viewBox="0 0 24 24">
  <path d="m1.5,3C1.5,1.343,2.843,0,4.5,0s3,1.343,3,3-1.343,3-3,3-3-1.343-3-3Zm18,3c1.657,0,3-1.343,3-3s-1.343-3-3-3-3,1.343-3,3,1.343,3,3,3ZM3,11h3v2h3v-2.5c0-1.379-1.122-2.5-2.5-2.5H2.5c-1.378,0-2.5,1.121-2.5,2.5v2.5h3v-2Zm17.129,3.808c-.347-.347-.91-.347-1.257,0l-3.372,3.295h2.5v2.945H6v-6.048h-3v6.5c0,1.405,1.143,2.548,2.548,2.548h12.904c1.405,0,2.548-1.143,2.548-2.548v-3.397h2.5l-3.371-3.295Zm1.371-6.808h-4c-1.378,0-2.5,1.121-2.5,2.5v2.5h3v-2h3v2h3v-2.5c0-1.379-1.122-2.5-2.5-2.5Z"/>
</svg>
