<?xml version="1.0" encoding="UTF-8"?>
<svg xmlns="http://www.w3.org/2000/svg" id="Layer_1" data-name="Layer 1" viewBox="0 0 24 24">
  <path d="m24,6h-3v4.5c0,1.881-1.492,3.42-3.354,3.497,2.044,1.651,3.354,4.177,3.354,7.003v1h-3v-1c0-2.085-1.069-3.924-2.687-5h-6.626c-1.618,1.076-2.687,2.915-2.687,5v1h-3v-1c0-2.826,1.31-5.352,3.354-7.003-1.862-.077-3.354-1.616-3.354-3.497v-4.5H0v-3h3v-1h3v1h3v3h-3v4.5c0,.276.224.5.5.5h1.5v-.5c0-.828.672-1.5,1.5-1.5h5c.828,0,1.5.672,1.5,1.5v.5h1.5c.276,0,.5-.224.5-.5v-4.5h-3v-3h3v-1h3v1h3v3Z"/>
</svg>
