<?xml version="1.0" encoding="UTF-8"?>
<svg xmlns="http://www.w3.org/2000/svg" id="Layer_1" data-name="Layer 1" viewBox="0 0 24 24">
  <path d="M22.446,13.701l-1.542,.89c-.413-.352-.884-.63-1.404-.815v-1.776h-3v1.776c-.521,.186-.992,.463-1.404,.815l-1.542-.89-1.5,2.598,1.529,.883c-.049,.266-.083,.538-.083,.818s.033,.553,.083,.819l-1.529,.882,1.499,2.598,1.543-.89c.413,.352,.884,.629,1.404,.815v1.776h3v-1.776c.521-.186,.992-.463,1.404-.815l1.542,.89,1.5-2.598-1.529-.883c.049-.266,.083-.538,.083-.819s-.034-.552-.083-.818l1.529-.883-1.5-2.598Zm-4.446,5.799c-.827,0-1.5-.673-1.5-1.5s.673-1.5,1.5-1.5,1.5,.673,1.5,1.5-.673,1.5-1.5,1.5Zm2.5-12.5h-1.5V3.779L15.222,0h-6.722c-1.93,0-3.5,1.57-3.5,3.5v1.5h-1.5c-1.93,0-3.5,1.57-3.5,3.5v15.5H12.721c-.926-.815-1.663-1.838-2.134-3H3V12H12.721c1.409-1.241,3.254-2,5.279-2,3.5,0,5.481,2.131,6,2.721v-2.221c0-1.93-1.57-3.5-3.5-3.5ZM8.5,3h5.479l.021,.021v1.979h1.979l.021,.021v1.979h-4.146l-3.854-1.927v-1.573c0-.275,.224-.5,.5-.5Z"/>
</svg>
