<?xml version="1.0" encoding="UTF-8"?>
<svg xmlns="http://www.w3.org/2000/svg" id="Layer_1" data-name="Layer 1" viewBox="0 0 24 24">
  <path d="m13.5,19h10.513l-1.938-6.5c-.439-1.472-1.818-2.5-3.354-2.5H5.318c-1.536,0-2.915,1.028-3.354,2.5L.026,19h10.474v2h-4.5v3h12v-3h-4.5v-2Zm-3.37-3l.25-3h3.239l.25,3h-3.739Zm9.07-2.643l.787,2.643h-3.107l-.25-3h2.09c.223,0,.416.144.479.357Zm-14.362,0c.063-.214.256-.357.479-.357h2.052l-.25,3h-3.069l.788-2.643Zm5.162-5.357h-5v-3h2.23c.18-.572.469-1.092.829-1.555l-1.188-1.716L9.337.02l1.185,1.712c.468-.145.962-.232,1.478-.232s1.01.086,1.478.232L14.663.021l2.467,1.707-1.189,1.717c.36.463.649.983.83,1.555h2.229v3h-5v-1.5c0-1.103-.897-2-2-2s-2,.897-2,2v1.5Z"/>
</svg>
