<?xml version="1.0" encoding="UTF-8"?>
<svg xmlns="http://www.w3.org/2000/svg" id="Layer_1" data-name="Layer 1" viewBox="0 0 24 24">
  <path d="M12,0C5.383,0,0,5.383,0,12s5.383,12,12,12,12-5.383,12-12S18.617,0,12,0Zm0,21c-4.962,0-9-4.038-9-9S7.038,3,12,3s9,4.038,9,9-4.037,9-9,9Zm.509-17h-1.509v5.407l-2.583-2.391-1.368,1.459,3.745,3.513-3.792,3.536,1.364,1.463,2.618-2.441,.019,5.455h1.558l4.911-4.491-3.75-3.518,3.757-3.503-4.97-4.488Zm2.02,11.491l-1.536,1.404-.01-2.854,1.545,1.45Zm-1.528-5.531v-2.859l1.521,1.411-1.521,1.448Z"/>
</svg>
