<?xml version="1.0" encoding="UTF-8"?>
<svg xmlns="http://www.w3.org/2000/svg" id="Layer_1" data-name="Layer 1" viewBox="0 0 24 24" width="512" height="512"><path d="M24.01,22.59l-1.41,1.41-7.26-7.26c-1.38-.55-2.33-1.97-2.33-3.74v-2c0-2.28,1.56-4,3.62-4h.29c1.4,0,2.69,.96,3.28,2.45l-1.86,.74c-.29-.72-.85-1.19-1.42-1.19h-.29c-.96,0-1.62,.82-1.62,2v2c0,1.18,.67,2,1.62,2h.29c.57,0,1.11-.44,1.41-1.16l1.85,.77c-.42,1.02-1.15,1.76-2.02,2.13l2.26,2.26h.59V5.5c0-.28-.22-.5-.5-.5H6.41l2.05,2.05c1.18,.21,2.22,1.11,2.73,2.4l-1.86,.74c-.29-.72-.85-1.19-1.42-1.19h-.29c-.96,0-1.62,.82-1.62,2v2c0,1.18,.67,2,1.62,2h.29c.57,0,1.11-.44,1.41-1.16l1.85,.77c-.61,1.47-1.86,2.39-3.26,2.39h-.29c-2.07,0-3.62-1.72-3.62-4v-2c0-1.62,.8-2.95,2-3.59L0,1.41,1.41,0,3.41,2H20.5c1.93,0,3.5,1.57,3.5,3.5V22h-.59l.59,.59ZM3,19V7.24L.09,4.33c-.05,.22-.09,.44-.09,.67V22H17.76l-3-3H3Z"/></svg>
