<svg id="Layer_1" viewBox="0 0 24 24" xmlns="http://www.w3.org/2000/svg" data-name="Layer 1"><path d="m20.5 1h-17c-1.93 0-3.5 1.57-3.5 3.5v18.5h24v-18.5c0-1.93-1.57-3.5-3.5-3.5zm-11 2c.828 0 1.5.672 1.5 1.5s-.672 1.5-1.5 1.5-1.5-.672-1.5-1.5.672-1.5 1.5-1.5zm-5 0c.828 0 1.5.672 1.5 1.5s-.672 1.5-1.5 1.5-1.5-.672-1.5-1.5.672-1.5 1.5-1.5zm16.5 17h-18v-12h18zm-16-2v-3h1.5c.255-1.763 1.235-5 3-5 1.036 0 1.678.794 2.196 1.432.084.103.197.242.304.365.108-.123.22-.261.304-.365.517-.638 1.16-1.432 2.196-1.432 1.766 0 2.745 3.237 3 5h1.5v3z"/></svg>