<?xml version="1.0" encoding="UTF-8"?>
<svg xmlns="http://www.w3.org/2000/svg" id="Layer_1" data-name="Layer 1" viewBox="0 0 24 24">
  <path d="m18,3.5c0-1.93-1.57-3.5-3.5-3.5H3.5C1.57,0,0,1.57,0,3.5v16.5c0,2.206,1.794,4,4,4h13.5c1.93,0,3.5-1.57,3.5-3.5v-2.5h-3V3.5Zm-3,14.5H5v2c0,.552-.448,1-1,1s-1-.448-1-1V3.5c0-.275.225-.5.5-.5h11c.275,0,.5.225.5.5v14.5ZM24,2v13l-2,2-2-2V2c0-1.105.895-2,2-2s2,.895,2,2Zm-14.522,2.439l2.121,2.121-2.827,2.827c-.407.407-.942.611-1.478.611s-1.07-.204-1.478-.611l-1.647-1.647,2.121-2.121,1.004,1.004,2.184-2.184Zm0,6l2.121,2.121-2.827,2.827c-.407.407-.942.611-1.478.611s-1.07-.204-1.478-.611l-1.647-1.647,2.121-2.121,1.004,1.004,2.184-2.184Z"/>
</svg>
