<?xml version="1.0" encoding="UTF-8"?>
<svg xmlns="http://www.w3.org/2000/svg" id="Layer_1" data-name="Layer 1" viewBox="0 0 24 24">
  <path d="m22.657,7.408l-.657-.514V1h-3v3.546L14.157.755c-1.271-.993-3.044-.994-4.313,0L1.343,7.407c-.854.668-1.343,1.673-1.343,2.757v13.824h24v-13.824c0-1.084-.49-2.089-1.343-2.756Zm-1.657,13.58h-4v-2.988c0-1.105-.895-2-2-2h-6c-1.105,0-2,.895-2,2v2.988H3v-10.824c0-.155.07-.298.192-.394L11.692,3.119c.182-.143.435-.142.616,0l8.5,6.652c.122.095.192.239.192.394v10.824Zm-6-9.988c0,1.655-1.345,3-3,3s-3-1.345-3-3,1.345-3,3-3,3,1.345,3,3Z"/>
</svg>
