<svg id="Layer_1" viewBox="0 0 24 24" xmlns="http://www.w3.org/2000/svg" data-name="Layer 1"><path d="m19.5 8h-1.5v-2h-15v4.714c.915-.625 1.97-1.035 3-1.328v-.386h9v6.5c0 .275-.224.5-.5.5l-2.527-.002c-.357 1.001-.93 2.026-1.805 3l4.332.002c1.758 0 3.204-1.308 3.449-3h1.551c2.439 0 4.5-1.995 4.5-4.357 0-2.213-1.766-3.643-4.5-3.643zm0 5h-1.5v-2h1.5c.56 0 1.5.083 1.5.643 0 .71-.715 1.357-1.5 1.357zm-7.5-9h-3v-4h3zm5 0h-3v-4h3zm-10 0h-3v-4h3zm-7 17h21v3h-21zm0-3.078.562-1.919c1.517.445 1.666.358 2.56.373 1.553-.158 2.367-.55 2.367-.55 2.398-1.036 3.297-3.105 3.297-3.105-3.002 1.391-4.203 1.895-6.239 1.789.885-3.187 5.308-3.447 7.684-3.969 0 0 1.397 4.229-1.849 7.453-1.222 1.282-3.139 1.267-4.464.37-.498.04-1.778.188-3.919-.44zm2.548-3.413s0 0 0 0z"/></svg>