<?xml version="1.0" encoding="UTF-8"?>
<svg xmlns="http://www.w3.org/2000/svg" id="Layer_1" data-name="Layer 1" viewBox="0 0 24 24" width="512" height="512"><path d="m24,24h-5.733c-2.071,0-4.267-1.791-4.267-4s1.679-4,3.75-4c5,0,6.25,8,6.25,8Zm-1.172-17.166L5.662,24H0v-5.662L17.167,1.171c.753-.755,1.759-1.171,2.83-1.171s2.076.416,2.831,1.171h0c.756.756,1.172,1.761,1.172,2.832s-.417,2.076-1.172,2.831Zm-5.678,1.436l-1.42-1.42L3,19.58v1.42h1.42l12.729-12.73Zm-12.524,2.333l2.211-2.028-3.562-3.881c-.187-.196-.281-.444-.274-.717.007-.272.115-.516.311-.702.197-.187.428-.28.718-.274.272.007.515.114.684.292l3.542,3.861,2.211-2.028-3.561-3.88C6.169.47,5.175.029,4.105.001,3.046-.03,2.02.365,1.244,1.101.47,1.837.028,2.831,0,3.901s.363,2.085,1.081,2.84l3.543,3.862Z"/></svg>
