<svg id="Layer_1" viewBox="0 0 24 24" xmlns="http://www.w3.org/2000/svg" data-name="Layer 1"><path d="m18 12c-3.314 0-6 2.686-6 6s2.686 6 6 6 6-2.686 6-6-2.686-6-6-6zm.752 8.44-.004.004c-.744.744-2.058.746-2.823-.019l-2.182-2.268 1.387-1.441 2.216 2.301 3.614-3.703 1.398 1.43-3.607 3.696zm5.248-7.862v.149c-1.467-1.667-3.61-2.726-6-2.726-.359 0-.71.032-1.057.078l-3.943-2.196v-3.882c0-.552-.448-1-1-1s-1 .448-1 1v3.882l-7.775 4.329c-.144.078-.225.216-.225.365v.833l8-2.701v3.427c-.636 1.147-1 2.463-1 3.864 0 1.501.423 2.901 1.145 4.102l-5.145 1.898v-2.301c0-.808.403-1.562 1.075-2.011l.925-.619v-4.181l-8 2.702v-5.013c0-1.249.681-2.396 1.778-2.993l6.222-3.466v-2.118c0-2.209 1.791-4 4-4s4 1.791 4 4v2.118l6.234 3.473c1.084.591 1.766 1.737 1.766 2.986z"/></svg>