<?xml version="1.0" encoding="UTF-8"?>
<svg xmlns="http://www.w3.org/2000/svg" id="Layer_1" data-name="Layer 1" viewBox="0 0 24 24">
  <path d="m16,19.5c0,.671-.44,1.238-1.047,1.43.293.565.203,1.278-.271,1.751-.293.293-.677.439-1.061.439-.237,0-.475-.056-.691-.168-.192.607-.76,1.047-1.43,1.047s-1.238-.44-1.43-1.047c-.216.112-.453.168-.691.168-.384,0-.768-.146-1.061-.439-.474-.474-.564-1.186-.271-1.751-.607-.192-1.047-.76-1.047-1.43s.44-1.238,1.047-1.43c-.293-.565-.203-1.278.271-1.751.474-.474,1.186-.565,1.751-.271.192-.607.76-1.047,1.43-1.047s1.238.44,1.43,1.047c.565-.293,1.277-.203,1.751.271.474.474.565,1.186.271,1.751.607.192,1.047.76,1.047,1.43Zm2.5,1.5c-.828,0-1.5.672-1.5,1.5s.672,1.5,1.5,1.5,1.5-.672,1.5-1.5-.672-1.5-1.5-1.5Zm-14,0c-.828,0-1.5.672-1.5,1.5s.672,1.5,1.5,1.5,1.5-.672,1.5-1.5-.672-1.5-1.5-1.5ZM17.431,4.066c-1.051-2.442-3.453-4.066-6.181-4.066-3.313,0-6.04,2.338-6.623,5.493-2.181.929-3.627,3.061-3.627,5.507,0,2.819,1.956,5.184,4.581,5.823.529-1.167,1.39-2.147,2.466-2.823h-1.047c-1.654,0-3-1.346-3-3,0-1.41.963-2.611,2.342-2.92l1.142-.256.03-1.169c.052-2.049,1.694-3.654,3.737-3.654,1.729,0,3.222,1.18,3.631,2.869l.286,1.179s1.338-.039,1.403-.047c1.898.037,3.431,1.593,3.431,3.5,0,1.93-1.57,3.5-3.5,3.5h-1.547c1.105.695,1.988,1.71,2.512,2.92,3.127-.469,5.535-3.165,5.535-6.42s-2.424-5.98-5.569-6.434Z"/>
</svg>
