<?xml version="1.0" encoding="UTF-8"?>
<svg xmlns="http://www.w3.org/2000/svg" id="Layer_1" data-name="Layer 1" viewBox="0 0 24 24" width="512" height="512"><path d="M8,14c-1.105,0-2-.895-2-2s.895-2,2-2,2,.895,2,2-.895,2-2,2Zm8-4c-1.105,0-2,.895-2,2s.895,2,2,2,2-.895,2-2-.895-2-2-2Zm-4,4c-2.209,0-4,1.791-4,4h8c0-2.209-1.791-4-4-4Zm12-2c0,6.617-5.383,12-12,12S0,18.617,0,12,5.383,0,12,0s12,5.383,12,12Zm-3,0c0-4.963-4.038-9-9-9S3,7.037,3,12s4.038,9,9,9,9-4.037,9-9ZM9.332,6.555l-1.664-1.109c-.773,1.159-1.852,2.058-3.039,2.531l.741,1.857c1.582-.631,2.952-1.765,3.962-3.279Zm7-1.109l-1.664,1.109c1.01,1.515,2.38,2.648,3.962,3.279l.741-1.857c-1.187-.474-2.266-1.372-3.039-2.531Z"/></svg>
