<svg id="Layer_1" viewBox="0 0 24 24" xmlns="http://www.w3.org/2000/svg" data-name="Layer 1"><path d="m14 7c-.055 2.688 2.312 5.056 5 5 1.335 0 2.59-.52 3.535-1.464.944-.945 1.465-2.201 1.465-3.536s-.521-2.591-1.477-3.547l-3.523-3.447-3.535 3.458c-.944.944-1.465 2.2-1.465 3.536zm3.574-1.402 1.426-1.395 1.414 1.383c.378.377.586.879.586 1.414s-.208 1.036-.586 1.414c-.756.756-2.072.755-2.828 0-.378-.378-.586-.88-.586-1.415s.208-1.036.574-1.402zm-.574 8.108c-1.91-.569-3.473-1.932-4.317-3.706h-1.683v-4h-3v4h-2v3h1v1.5c0 2.137 1.5 3.922 3.5 4.379v1.619c0 .199-.103.321-.189.39-.075.059-.233.148-.454.096-4.317-1.054-7.304-5.453-6.8-10.015.472-4.484 4.434-8.015 8.943-7.969.406 0 .803.036 1.194.089.249-.369.535-.717.856-1.038l1.535-1.502c-1.133-.356-2.337-.548-3.586-.548-6.614-.001-11.999 5.537-11.999 11.999 0 5.667 3.766 10.585 9.146 11.898.281.069.598.102.88.102.78 0 1.508-.259 2.138-.753.849-.667 1.336-1.669 1.336-2.749v-1.619c2-.457 3.5-2.242 3.5-4.379zm-3 .794c0 .827-.673 1.5-1.5 1.5h-1c-.827 0-1.5-.673-1.5-1.5v-1.5h4zm6.806-.742c1.195-.319 2.311-.945 3.194-1.859 0 5.331-3.322 9.742-8 11.401v-3.25c2.451-1.223 4.253-3.534 4.806-6.292z"/></svg>