<?xml version="1.0" encoding="UTF-8"?>
<svg xmlns="http://www.w3.org/2000/svg" id="Layer_1" data-name="Layer 1" viewBox="0 0 24 24" width="512" height="512"><path d="M7.668,5.445l1.664,1.109c-1.01,1.515-2.38,2.648-3.962,3.279l-.741-1.857c1.187-.474,2.266-1.372,3.039-2.531Zm11.703,2.531c-1.187-.474-2.266-1.372-3.039-2.531l-1.664,1.109c1.01,1.515,2.38,2.648,3.962,3.279l.741-1.857ZM5,13.986c0-1.987-2.5-4.5-2.5-4.5,0,0-2.5,2.462-2.5,4.5,0,1.381,1.119,2.5,2.5,2.5s2.5-1.119,2.5-2.5ZM12,0C7.655,0,3.853,2.33,1.747,5.798l2.202,2.205c1.476-2.96,4.526-5.003,8.052-5.003,4.962,0,9,4.038,9,9s-4.038,9-9,9c-2.803,0-5.31-1.289-6.962-3.304-.723,.497-1.597,.789-2.538,.789-.212,0-.415-.034-.619-.063,2.132,3.347,5.866,5.577,10.119,5.577,6.617,0,12-5.383,12-12S18.617,0,12,0Zm-4,10c-1.105,0-2,.895-2,2s.895,2,2,2,2-.895,2-2-.895-2-2-2Zm6,2c0,1.105,.895,2,2,2s2-.895,2-2-.895-2-2-2-2,.895-2,2Zm-6,6h8c0-2.209-1.791-4-4-4s-4,1.791-4,4Z"/></svg>
