<svg id="Layer_1" viewBox="0 0 24 24" xmlns="http://www.w3.org/2000/svg" data-name="Layer 1"><path d="m0 20.5c0 1.93 1.57 3.5 3.5 3.5h18.521l-22.021-22.021zm3-11.279 11.779 11.779h-11.279c-.276 0-.5-.225-.5-.5zm21 3.643c0 1.105-.431 2.144-1.212 2.925-1.539 1.604-4.311 1.603-5.85 0l-9.157-9.059c-1.541-1.542-1.541-4.041-.006-5.577 1.183-1.181 2.931-1.463 4.391-.801 1.82-.713 3.952-.306 5.37 1.113.643.642 1.088 1.45 1.3 2.337.338.187.646.419.921.694.802.802 1.244 1.869 1.244 3.004s-.442 2.203-1.245 3.005l-.594.621-2.168-2.073.617-.646c.26-.26.39-.574.39-.908.001-.556-.368-1.055-.922-1.194l-1.062-.289-.043-1.1c-.015-.367-.123-.895-.56-1.332-.661-.662-1.712-.771-2.498-.264l-.92.596-.847-.696c-.375-.308-.913-.285-1.252.053-.366.366-.366.962 0 1.329l9.158 9.058c.44.44 1.183.437 1.611.006.216-.215.334-.5.334-.803s-.118-.588-.333-.803l2.121-2.122c.781.781 1.212 1.82 1.212 2.925z"/></svg>