<?xml version="1.0" encoding="UTF-8"?>
<svg xmlns="http://www.w3.org/2000/svg" id="Layer_1" data-name="Layer 1" viewBox="0 0 24 24" width="512" height="512"><path d="M15,11.723c.899-.475,1.49-.977,1.5-.986l1.999,2.236c-.082,.073-1.466,1.29-3.5,2.026v-3.277Zm-9.5,1.25c.082,.073,1.466,1.29,3.5,2.026v-3.276c-.901-.476-1.492-.98-1.5-.987l-1.999,2.236Zm12.199,8.282c-.38,.471-.953,.744-1.558,.744h-2.142v-3h1v1c0,.552,.448,1,1,1h0c.552,0,1-.448,1-1v-1c0-1.105-.895-2-2-2h-2v-5c0-.552-.448-1-1-1h0c-.552,0-1,.448-1,1v5.269c-.597,.346-1,.992-1,1.731v5h6.142c1.209,0,2.354-.547,3.113-1.487l.894-1.107c.347-.43,.28-1.059-.15-1.406h0c-.429-.347-1.059-.28-1.406,.149l-.894,1.107ZM12,0C5.383,0,0,5.383,0,12c0,5.213,3.347,9.647,8,11.3v-3.25c-2.958-1.476-5-4.525-5-8.05C3,7.037,7.038,3,12,3s9,4.037,9,9c0,1.964-.635,3.781-1.707,5.262l2.331,1.882c1.49-1.996,2.376-4.466,2.376-7.144C24,5.383,18.617,0,12,0Zm3,5c-1.105,0-2,.895-2,2s.895,2,2,2,2-.895,2-2-.895-2-2-2Zm-4,2c0-1.105-.895-2-2-2s-2,.895-2,2,.895,2,2,2,2-.895,2-2Z"/></svg>
