<?xml version="1.0" encoding="UTF-8"?>
<svg xmlns="http://www.w3.org/2000/svg" id="Layer_1" data-name="Layer 1" viewBox="0 0 24 24">
  <path d="M11,2.5c0-1.381,1.119-2.5,2.5-2.5s2.5,1.119,2.5,2.5-1.119,2.5-2.5,2.5-2.5-1.119-2.5-2.5Zm10,10.573v10.927h-3V14.895c-.962-.557-1.859-1.225-2.681-1.974-.178,1.715-.319,3.707-.319,6.579v1.5h-2v3h-3v-3h-1v3h-3v-3h-2v-1.5c0-.551,.085-13.5,7.5-13.5,1.192,.003,2.356,.519,3.118,1.439h0c1.583,2.398,3.7,4.511,6.381,5.634Zm-13.937,4.927h4.95c.062-3.351,.323-5.516,.557-7.455,.161-.774-.178-1.497-1.07-1.545-3.12,0-4.187,5.644-4.437,9Z"/>
</svg>
