<?xml version="1.0" encoding="UTF-8"?>
<svg xmlns="http://www.w3.org/2000/svg" id="Layer_1" data-name="Layer 1" viewBox="0 0 24 24">
  <path d="m5,14h3v3h-3v-3ZM24,4.352v16.524l-12,2.182L0,20.876V4.352c0-1.014.446-1.968,1.225-2.617.778-.649,1.797-.915,2.794-.737l5.898,1.073c.796.145,1.508.499,2.083,1,.576-.501,1.288-.855,2.083-1l5.898-1.072c.998-.18,2.016.088,2.794.737.778.649,1.225,1.604,1.225,2.617Zm-13.5,2.011c0-.659-.471-1.224-1.12-1.342l-5.898-1.072c-.167-.028-.281.042-.335.089-.067.056-.147.156-.147.314v14.02l7.5,1.364V6.363Zm10.5-2.011c0-.158-.08-.258-.147-.314-.055-.046-.171-.121-.335-.088l-5.898,1.072c-.648.118-1.12.683-1.12,1.342v13.373l7.5-1.364V4.352ZM5,13h3v-6h-3v6Z"/>
</svg>
