<?xml version="1.0" encoding="UTF-8"?>
<svg xmlns="http://www.w3.org/2000/svg" id="Layer_1" data-name="Layer 1" viewBox="0 0 24 24">
  <path d="m20.5,0H3.5C1.57,0,0,1.57,0,3.5v20.5h13.418c-.073-.068-.15-.129-.221-.2-.803-.803-1.394-1.76-1.761-2.8h-1.436v-7.5h2.919c.092-.103.18-.208.278-.307l3.803-3.719V3h3.5c.275,0,.5.225.5.5v6.952l2.775,2.714c.079.079.149.165.225.247V3.5c0-1.93-1.57-3.5-3.5-3.5ZM3.5,3h3.5v7.5H3V3.5c0-.275.225-.5.5-.5Zm3.5,18H3v-7.5h4v7.5Zm7-10.5h-4V3h4v7.5Zm4.5.305l-3.889,3.803c-1.039,1.039-1.611,2.42-1.611,3.889s.572,2.851,1.611,3.89,2.42,1.611,3.889,1.611,2.851-.572,3.889-1.611c1.039-1.039,1.611-2.42,1.611-3.89s-.572-2.85-1.623-3.9l-3.877-3.791Zm1.768,9.46h0c-.94.944-2.588.946-3.534,0-.473-.473-.732-1.101-.732-1.769s.26-1.295.721-1.756l1.779-1.74,1.768,1.729c.473.473.732,1.101.732,1.768s-.26,1.296-.732,1.769Z"/>
</svg>
