<svg id="Layer_1" viewBox="0 0 24 24" xmlns="http://www.w3.org/2000/svg" data-name="Layer 1"><path d="m1.437 4.916-1.414-1.415 3.501-3.501 1.414 1.414-1.053 1.053 1.383 1.383.435-.435c.563-.563 1.475-.563 1.906-.132l.647.647-2.179 2.179 1.414 1.414 2.179-2.179 1.575 1.575-2.148 2.148 1.414 1.414 2.148-2.148.34.34v2.908l1.707 1.707-1.414 1.414-1.707-1.707h-2.907l-5.259-5.257c-.563-.563-.563-1.475 0-2.037l.435-.435-1.383-1.383-1.033 1.033zm21.766 5.948c-1.108-2.551-2.155-4.958-3.316-6.42-2.49-3.291-6.607-4.972-10.709-4.297-.517.085-1.021.209-1.512.364l2.545 2.545c2.815-.272 5.563.9 7.267 3.174.966 1.179 2.176 3.991 3.162 6.267h-1.557l-.698 5.069c-.033.247-.247.433-.495.433h-3.89v3.001h-8.007v-1.986c0-1.046-.372-2.068-1.047-2.877-1.438-1.723-2.089-3.829-1.893-5.936l-2.526-2.526c-.045.142-.108.275-.147.42-.938 3.487-.113 7.12 2.262 9.964.226.271.355.61.355.954v4.987h13.999v-3.001h.894c1.74 0 3.23-1.3 3.469-3.023l.341-2.478h2.298v-2.819c-.267-.6-.531-1.206-.795-1.815z"/></svg>