<?xml version="1.0" encoding="UTF-8"?>
<svg xmlns="http://www.w3.org/2000/svg" id="Layer_1" data-name="Layer 1" viewBox="0 0 24 24">
  <path d="m20.803,0c-.098-.02-7.461,0-7.461,0,0,0,2.506,2.833,2.632,3h4.526c.275,0,.5.225.5.5v7.5c0,1.103-.897,2-2,2s-2-.897-2-2h-3c0,1.103-.897,2-2,2s-2-.897-2-2h-3c0,1.103-.897,2-2,2s-2-.897-2-2V3.5c0-.275.224-.5.5-.5h4.525c.126-.167,2.632-3,2.632-3,0,0-7.363-.02-7.461,0C1.411.156,0,1.674,0,3.5v20.5h24V3.5c0-1.826-1.411-3.344-3.197-3.5ZM3,21v-5.424c.614.269,1.288.424,2,.424,1.363,0,2.597-.551,3.5-1.438.903.887,2.137,1.438,3.5,1.438s2.597-.551,3.5-1.438c.903.887,2.137,1.438,3.5,1.438.712,0,1.386-.154,2-.424v5.424H3ZM9.879,3.879l2.121-2.379,2.121,2.379c1.172,1.172,1.172,3.071,0,4.243-.586.586-1.353.879-2.121.879-.768,0-1.536-.293-2.121-.879-1.172-1.172-1.172-3.071,0-4.243Z"/>
</svg>
