<?xml version="1.0" encoding="UTF-8"?>
<svg xmlns="http://www.w3.org/2000/svg" id="Layer_1" data-name="Layer 1" viewBox="0 0 24 24">
  <path d="m7.058,4.962c.839,0,1.595.346,2.139.901-1.325.9-2.198,2.419-2.198,4.138,0,.328.036.647.097.958-.013,0-.025.004-.038.004-1.657,0-3-1.343-3-3s1.343-3,3-3Zm9.942,5.038c0,.339-.035.67-.1.99.034.001.066.01.1.01,1.657,0,3-1.343,3-3s-1.343-3-3-3c-.841,0-1.599.349-2.144.906,1.293.905,2.144,2.399,2.144,4.094Zm1.5,3h-2.526c-.135.178-.269.358-.426.516,1.306.675,2.23,1.96,2.401,3.484h3.051v-1.5c0-1.381-1.119-2.5-2.5-2.5Zm-10.048.516c-.157-.159-.291-.338-.426-.516h-2.526c-1.381,0-2.5,1.119-2.5,2.5v1.5h3.051c.171-1.524,1.095-2.809,2.401-3.484ZM0,17v3.5c0,1.93,1.57,3.5,3.5,3.5h3.5v-3h-3.5c-.276,0-.5-.225-.5-.5v-3.5H0Zm21,3.5c0,.275-.224.5-.5.5h-3.5v3h3.5c1.93,0,3.5-1.57,3.5-3.5v-3.5h-3v3.5Zm-.5-20.5h-3.5v3h3.5c.276,0,.5.225.5.5v3.5h3v-3.5c0-1.93-1.57-3.5-3.5-3.5ZM3,3.5c0-.275.224-.5.5-.5h3.5V0h-3.5C1.57,0,0,1.57,0,3.5v3.5h3v-3.5Zm10.5,11.5h-3c-1.381,0-2.5,1.119-2.5,2.5v1.5h8v-1.5c0-1.381-1.119-2.5-2.5-2.5Zm-1.5-2c1.657,0,3-1.343,3-3s-1.343-3-3-3-3,1.343-3,3,1.343,3,3,3Z"/>
</svg>
