<?xml version="1.0" encoding="UTF-8"?>
<svg xmlns="http://www.w3.org/2000/svg" id="Layer_1" data-name="Layer 1" viewBox="0 0 24 24">
  <path d="m23.469,21.776c-.774,1.393-2.187,2.224-3.78,2.224H4.346c-1.592,0-3.005-.831-3.779-2.223-.774-1.393-.734-3.03.106-4.384l7.671-12.348c.515-.828,1.274-1.441,2.155-1.769V0h3v3.277c.889.324,1.667.929,2.188,1.764l-1.766,2.842-.779-1.254c-.35-.562-.898-.626-1.125-.626h-.007c-.22,0-.769.065-1.117.626l-7.671,12.348c-.371.597-.146,1.137-.032,1.342s.455.681,1.157.681h15.343c.703,0,1.043-.477,1.157-.681.114-.205.338-.745-.032-1.342l-2.772-4.461,1.766-2.842,3.553,5.72c.841,1.353.88,2.991.107,4.383Zm-10.469-8.776c-1.657,0-3,1.343-3,3s1.343,3,3,3,3-1.343,3-3c0-.512-.129-.994-.355-1.415l6.3-10.14-2.548-1.584-6.301,10.142c-.032-.001-.064-.002-.096-.002Z"/>
</svg>
