<?xml version="1.0" encoding="UTF-8"?>
<svg xmlns="http://www.w3.org/2000/svg" id="Layer_1" data-name="Layer 1" viewBox="0 0 24 24">
  <path d="M12.721,24H3.5c-1.93,0-3.5-1.57-3.5-3.5V2H3V0h3V2h2.5V0h3V2h2.5V0h3V2h3V10.262c-.64-.165-1.308-.262-2-.262-.339,0-.672,.028-1,.069V5H3v15.5c0,.275,.225,.5,.5,.5h7.087c.471,1.162,1.208,2.185,2.134,3Zm11.279-6c0,3.314-2.686,6-6,6s-6-2.686-6-6,2.686-6,6-6,6,2.686,6,6Zm-1.641-1.256l-1.398-1.43-3.614,3.703-2.216-2.301-1.387,1.441,2.182,2.268c.766,.765,2.079,.763,2.823,.019l.004-.004,3.607-3.696Zm-17.359-1.744h6v-3H5v3ZM15,7H5v3H15v-3Z"/>
</svg>
