<?xml version="1.0" encoding="UTF-8"?>
<svg xmlns="http://www.w3.org/2000/svg" id="Layer_1" data-name="Layer 1" viewBox="0 0 24 24">
  <path d="m14.75,24c-1.021,0-1.988-.384-2.75-1.075-.762.691-1.729,1.075-2.75,1.075-2.343,0-4.25-2.03-4.25-4.525,0-.161.01-.329.029-.503-.174.019-.342.029-.503.029-2.495,0-4.525-1.907-4.525-4.25,0-1.021.384-1.988,1.075-2.75-.691-.762-1.075-1.729-1.075-2.75,0-2.343,2.03-4.25,4.525-4.25.161,0,.329.01.503.029-.019-.174-.029-.342-.029-.503,0-2.495,1.907-4.525,4.25-4.525,1.021,0,1.988.384,2.75,1.075.762-.691,1.729-1.075,2.75-1.075,2.343,0,4.25,2.03,4.25,4.525,0,.161-.01.329-.029.503.174-.019.342-.029.503-.029,2.495,0,4.525,1.907,4.525,4.25,0,1.021-.384,1.988-1.075,2.75.691.762,1.075,1.729,1.075,2.75,0,2.343-2.03,4.25-4.525,4.25-.161,0-.329-.01-.503-.029.019.174.029.342.029.503,0,2.495-1.907,4.525-4.25,4.525Zm-2.75-5.94l1.828,2.436c.244.325.571.504.922.504.678,0,1.25-.699,1.25-1.525,0-.22-.065-.869-.67-2.147l-1.794-3.792,3.792,1.794c1.278.604,1.927.67,2.147.67.827,0,1.525-.572,1.525-1.25,0-.351-.179-.678-.504-.922h0l-2.436-1.828,2.436-1.828c.325-.244.504-.571.504-.922,0-.678-.699-1.25-1.525-1.25-.22,0-.869.065-2.147.67l-3.792,1.794,1.794-3.792c.604-1.278.67-1.927.67-2.147,0-.827-.572-1.525-1.25-1.525-.351,0-.678.179-.922.504l-1.828,2.437-1.828-2.436c-.244-.325-.571-.504-.922-.504-.678,0-1.25.699-1.25,1.525,0,.22.065.869.67,2.147l1.794,3.792-3.792-1.794c-1.278-.604-1.927-.67-2.147-.67-.827,0-1.525.572-1.525,1.25,0,.351.179.678.504.922l2.437,1.828-2.436,1.828c-.325.244-.504.571-.504.922,0,.678.699,1.25,1.525,1.25.22,0,.869-.065,2.147-.67l3.792-1.794-1.794,3.792c-.604,1.278-.67,1.927-.67,2.147,0,.827.572,1.525,1.25,1.525.351,0,.678-.179.922-.504l1.828-2.437Z"/>
</svg>
