<?xml version="1.0" encoding="UTF-8"?>
<svg xmlns="http://www.w3.org/2000/svg" id="Layer_1" data-name="Layer 1" viewBox="0 0 24 24">
  <path d="m24,6.5v14.121l-3.379,3.379h-4.242l4.621-4.621v-2.996l-3.325,3.3-2.113-2.129,3.318-3.293c.194-.322.147-.746-.123-1.017-.324-.324-.85-.324-1.174,0l-3.867,3.867c.187.557.284,1.147.284,1.752v5.138h-3v-5.138c0-.667-.261-1.295-.732-1.768l-3.769-3.769c-.324-.323-.825-.403-1.14-.18-.244.173-.325.398-.35.556-.03.196.009.392.11.559l3.318,3.294-2.113,2.129-3.325-3.321v3.017l4.621,4.621H3.379l-3.379-3.379V6.5c0-1.465,1.265-2.639,2.761-2.487,1.301.132,2.239,1.326,2.239,2.633v3.448c1.258-.267,2.628.118,3.62,1.108l3.38,3.381,3.462-3.462c.958-.959,2.303-1.302,3.538-1.03v-3.446c0-1.307.939-2.501,2.239-2.633,1.495-.152,2.761,1.022,2.761,2.487Zm-12-1.5c1.381,0,2.5-1.119,2.5-2.5s-1.119-2.5-2.5-2.5-2.5,1.119-2.5,2.5,1.119,2.5,2.5,2.5Zm0,6.755l2.047-2.047c.566-.566,1.229-.999,1.952-1.288v-.42c0-1.105-.895-2-2-2h-4c-1.105,0-2,.895-2,2v.461c.738.298,1.435.729,2.033,1.327l1.967,1.968Z"/>
</svg>
