<?xml version="1.0" encoding="UTF-8"?>
<svg xmlns="http://www.w3.org/2000/svg" id="Layer_1" data-name="Layer 1" viewBox="0 0 24 24">
  <path d="M7.6,15.5v3c0,.496,.404,.9,.9,.9s.9-.404,.9-.9h1.6c0,1.381-1.119,2.5-2.5,2.5s-2.5-1.119-2.5-2.5v-3c0-1.381,1.119-2.5,2.5-2.5s2.5,1.119,2.5,2.5h-1.6c0-.496-.404-.9-.9-.9s-.9,.404-.9,.9Zm16.4-3.022c0-3.784-2.693-6.801-6.417-7.381C16.268,2.051,13.315,0,10.091,0,5.554,0,2,3.514,2,8c0,.715,.044,1.342,.133,1.893-1.338,1.087-2.133,2.835-2.133,4.607,0,2.687,1.836,5.121,4.401,5.836-.253-.562-.401-1.181-.401-1.836v-1.709c-.629-.561-1-1.434-1-2.291,0-1.056,.585-2.124,1.527-2.605l1.198-.612-.479-1.258c-.113-.295-.247-.886-.247-2.024,0-2.851,2.188-5,5.091-5,2.205,0,4.295,1.651,4.971,3.927l.308,1.038,1.082,.034c2.593,.083,4.548,2.008,4.548,4.479h.006c0,.021-.006,.04-.006,.061,0,1.353-.569,2.625-1.511,3.552,.169-.022,.336-.052,.511-.052,.995,0,1.894,.378,2.595,.981,.883-1.286,1.405-2.831,1.405-4.481,0-.021-.005-.04-.006-.061h.006Zm-7,3.022v3c0,1.381-1.119,2.5-2.5,2.5s-2.5-1.119-2.5-2.5v-3c0-1.381,1.119-2.5,2.5-2.5s2.5,1.119,2.5,2.5Zm-1.6,0c0-.496-.404-.9-.9-.9s-.9,.404-.9,.9v3c0,.496,.404,.9,.9,.9s.9-.404,.9-.9v-3Zm6.6,4.5c0-1.105-.895-2-2-2s-2,.895-2,2v.333h1.333v-.333c0-.368,.298-.667,.667-.667s.667,.298,.667,.667c0,1-2.667,1.84-2.667,3.346v.654h4v-1.333h-2c.575-.526,2-1.244,2-2.667Z"/>
</svg>
