<?xml version="1.0" encoding="UTF-8"?>
<svg xmlns="http://www.w3.org/2000/svg" id="Layer_1" data-name="Layer 1" viewBox="0 0 24 24" width="512" height="512"><path d="M23.99,9.46l-2.06-2.18-1.81,1.72h-5.12v-2h-3v4.99c0,.55-.45,1-1,1s-1-.45-1-1V7.5c0-1.14,.77-2.14,1.92-2.43l4.62-1.33,1.53-1.53L15.94,.09l-.98,.98-3.83,1.11c-2.27,.58-3.88,2.53-4.08,4.83-2.48,.03-4.65,1.71-5.28,4.16l-.87,3.82L-.06,15.94l2.12,2.12,1.56-1.56,1.06-4.62c.28-1.07,1.22-1.82,2.32-1.87v1.98c0,2.21,1.79,4,4,4s3.99-1.79,4-3.99h3.48l-1.46,5.19c-.3,1.08-1.27,1.8-2.39,1.81h-5.77l-2.9,2.99,2.15,2.09,2.02-2.08h4.5c2.44-.01,4.61-1.66,5.27-4l1.79-6.37,2.3-2.18Z"/></svg>
