<svg id="Layer_1" viewBox="0 0 24 24" xmlns="http://www.w3.org/2000/svg" data-name="Layer 1"><path d="m18 15h3v2.5c0 1.93-1.57 3.5-3.5 3.5h-1.5v3l-3.707-3.793c-.39-.39-.39-1.024 0-1.414l3.707-3.793v3h1.5c.275 0 .5-.224.5-.5zm-14.207-6.293c.391.391 1.024.391 1.414 0l3.793-3.707h-3v-1.5c0-.276.225-.5.5-.5h2.5v-3h-2.5c-1.93 0-3.5 1.57-3.5 3.5v1.5h-3zm6.207 4.293v8.269c0 1.32-1.313 2.731-5 2.731s-5-1.411-5-2.731v-8.269c0-1.178 2.056-2 5-2s5 .822 5 2zm-5 2c-.727 0-1.399-.051-2-.144v1.9c.413.128 1.053.244 2 .244.94 0 1.583-.126 2-.264v-1.88c-.601.093-1.273.144-2 .144zm2 5.729v-1.919c-.565.121-1.229.19-2 .19-.785 0-1.442-.071-2-.188v1.917c.301.114.912.271 2 .271s1.699-.157 2-.271zm17-18.729v4h-13v-4c0-1.105.895-2 2-2h9c1.105 0 2 .895 2 2zm-8 1c0-.828-.672-1.5-1.5-1.5s-1.5.672-1.5 1.5.672 1.5 1.5 1.5 1.5-.672 1.5-1.5zm6-1h-4v2h4zm-11 5h13v6h-13zm7 4h4v-2h-4zm-5-1c0 .828.672 1.5 1.5 1.5s1.5-.672 1.5-1.5-.672-1.5-1.5-1.5-1.5.672-1.5 1.5z"/></svg>