<?xml version="1.0" encoding="UTF-8"?>
<svg xmlns="http://www.w3.org/2000/svg" id="Layer_1" data-name="Layer 1" viewBox="0 0 24 24">
  <path d="m18,3c0,1.657-1.343,3-3,3s-3-1.343-3-3,1.343-3,3-3,3,1.343,3,3Zm-2,21h1.6v-8h-1.6v8Zm-6.7-6.4h1.9v6.4h1.6v-6.4h2v-1.6h-5.5v1.6Zm4.7-7.315v-3.285h-3.184c.112-.314.184-.647.184-1,0-1.657-1.343-3-3-3s-3,1.343-3,3c0,.353.072.686.184,1h-3.184v3.261c-1.221,1.01-2,2.535-2,4.239v6c0,1.93,1.57,3.5,3.5,3.5h5.5v-3H3.5c-.276,0-.5-.225-.5-.5v-6c0-1.379,1.122-2.5,2.5-2.5h5c1.207,0,2.217.86,2.449,2h3.025c-.136-1.495-.882-2.805-1.975-3.715Zm10,8.215c0,1.381-1.119,2.5-2.5,2.5h-.9v3h-1.6v-8h2.5c1.381,0,2.5,1.119,2.5,2.5Zm-1.6,0c0-.497-.403-.9-.9-.9h-.9v1.801h.9c.497,0,.9-.403.9-.9Z"/>
</svg>
