<?xml version="1.0" encoding="UTF-8"?>
<svg xmlns="http://www.w3.org/2000/svg" id="Layer_1" data-name="Layer 1" viewBox="0 0 24 24">
  <path d="m19.956,8.709l1.387-1.639c.195-.204.365-.427.513-.661l2.145.848v3.088l-4.044-1.637Zm4.039,9.284l-1.365.005h-.01c-.961,0-1.919-.117-2.852-.348l-.891-.221c-1.169-.289-2.378-.399-3.577-.434l-4.299.004c-.552,0-1-.447-1-1s.448-1,1-1h6v-3h-2.451l5.311-6.275c.852-.852.852-2.234,0-3.086s-2.234-.852-3.086,0L3,18.914v3.086h3.086l2.455-2.901c.719.561,1.626.901,2.596.901h.007l4.159-.005h.011c.961,0,1.919.117,2.852.348l.876.217c1.172.291,2.375.438,3.582.438h.014l1.369-.005-.011-3ZM5.53,7.502l-.03-.002L.513,13.618c-.75.937-.669,2.289.186,3.131.296.292.652.476,1.024.578L12.775,4.27l-7.245,3.232Z"/>
</svg>
