<?xml version="1.0" encoding="UTF-8"?>
<svg xmlns="http://www.w3.org/2000/svg" id="Layer_1" data-name="Layer 1" viewBox="0 0 24 24">
  <path d="m24,11C24,4.729,18.841,0,12,0S0,4.729,0,11v.621l7.31,7.31c-.196.309-.31.676-.31,1.069v2c0,1.105.895,2,2,2h6c1.105,0,2-.895,2-2v-2c0-.393-.114-.76-.31-1.069l7.31-7.31v-.621Zm-19.5-1c1.005,0,2.005,1.016,2.3,1.4l.26.345,1.658,4.351-5.471-5.471c.288-.307.716-.626,1.253-.626Zm5.43.853c.608-.426,1.396-.853,2.07-.853s1.463.427,2.07.853l-2.07,5.434-2.07-5.434Zm2.07-3.853c-.701,0-1.38.166-2.001.411.52-1.598,1.348-2.863,2.001-3.69.654.827,1.482,2.092,2.002,3.69-.622-.245-1.3-.411-2.001-.411Zm4.945,4.732l.25-.326c.3-.391,1.3-1.406,2.305-1.406.537,0,.965.319,1.253.626l-5.471,5.471,1.663-4.365Zm2.975-4.712c-.137-.013-.277-.02-.42-.02-.877,0-1.663.252-2.331.599-.362-1.573-.979-2.927-1.629-4.024,1.907.664,3.432,1.87,4.381,3.445Zm-11.46-3.445c-.651,1.097-1.267,2.451-1.629,4.024-.668-.347-1.454-.599-2.331-.599-.143,0-.283.007-.42.02.948-1.575,2.474-2.781,4.381-3.445Z"/>
</svg>
