<?xml version="1.0" encoding="UTF-8"?>
<svg xmlns="http://www.w3.org/2000/svg" id="Layer_1" data-name="Layer 1" viewBox="0 0 24 24">
  <path d="m18,12c-3.314,0-6,2.686-6,6s2.686,6,6,6,6-2.686,6-6-2.686-6-6-6Zm4,7h-3v3h-2v-3h-3v-2h3v-3h2v3h3v2Zm-12-1H3.816l1.688-8.783c.136-.705.756-1.217,1.474-1.217h10.043c.718,0,1.338.512,1.474,1.217l.157.816c1.171.095,2.269.438,3.243.983l-.455-2.365c-.406-2.115-2.265-3.65-4.419-3.65h-.148c.083-.32.127-.655.127-1,0-2.206-1.794-4-4-4h-2c-2.206,0-4,1.794-4,4,0,.345.044.68.127,1h-.148c-2.154,0-4.013,1.535-4.419,3.65L.184,21h7.958c.447,1.721,2,3,3.858,3,.222,0,.436-.029.646-.068-1.621-1.464-2.646-3.576-2.646-5.932Zm0-14c0-.552.449-1,1-1h2c.551,0,1,.448,1,1s-.449,1-1,1h-2c-.551,0-1-.448-1-1Z"/>
</svg>
