<?xml version="1.0" encoding="UTF-8"?>
<svg xmlns="http://www.w3.org/2000/svg" id="Layer_1" data-name="Layer 1" viewBox="0 0 24 24">
  <path d="M13.429,3.418l7.571,20.582h-3.15l-5.849-15.796-2.142,5.796h2.155l1.111,3h-4.375l-.739,2h5.854l1.111,3H6.902l-.739,2H2.957L10.583,3.387c-.347-.36-.563-.847-.563-1.387,0-1.105,.895-2,2-2s2,.895,2,2c0,.554-.226,1.056-.59,1.418Zm4.935,4.946c-.228,.228-.466,.439-.711,.638l1.077,2.927c.618-.419,1.209-.896,1.756-1.444,2.849-2.849,3.953-6.785,3.332-10.485h-3.054c.66,2.916-.133,6.098-2.399,8.364Zm-11.252-1.359l1.246-3.369c-.229-.509-.358-1.061-.358-1.636,0-.716,.202-1.397,.553-2h-3.263c-.19,.641-.29,1.313-.29,2,0,1.87,.729,3.628,2.051,4.95,.02,.02,.041,.036,.061,.055ZM15.664,3.595l1.247,3.39c.012-.012,.026-.023,.038-.035,1.322-1.322,2.051-3.08,2.051-4.95,0-.687-.1-1.359-.29-2h-3.263c.351,.603,.553,1.284,.553,2,0,.559-.12,1.097-.336,1.595ZM5.286,11.94l1.081-2.923c-.252-.203-.498-.419-.732-.653C3.37,6.098,2.576,2.916,3.237,0H.183C-.438,3.7,.666,7.636,3.515,10.485c.552,.552,1.148,1.033,1.771,1.455Z"/>
</svg>
