<svg id="Layer_1" viewBox="0 0 24 24" xmlns="http://www.w3.org/2000/svg" data-name="Layer 1"><path d="m19 11c-2.944 0-5 .822-5 2v8.269c0 1.32 1.313 2.731 5 2.731s5-1.411 5-2.731v-8.269c0-1.178-2.056-2-5-2zm2 3.856v1.88c-.417.138-1.06.264-2 .264-.947 0-1.587-.117-2-.244v-1.9c.601.093 1.273.144 2 .144s1.399-.051 2-.144zm-2 6.144c-1.088 0-1.699-.157-2-.271v-1.917c.558.116 1.215.188 2 .188.771 0 1.435-.07 2-.19v1.919c-.301.114-.912.271-2 .271zm-14.5-2v-4h3v4zm4.5 0v-9h3v9zm3 2.269c0 .919.33 1.9 1.091 2.731h-13.091v-21c0-1.654 1.346-3 3-3h11.382l5.618 5.665v3.369c-.321-.018-.648-.033-1-.033-.737 0-1.395.049-2 .126v-1.126h-5v-5.001h-9v18h9z"/></svg>