<svg id="Layer_1" viewBox="0 0 24 24" xmlns="http://www.w3.org/2000/svg" data-name="Layer 1"><path d="m20.5 2h-11.851c-.564-1.178-1.758-2-3.149-2h-2c-1.93 0-3.5 1.57-3.5 3.5v20.5h24v-18.5c0-1.93-1.57-3.5-3.5-3.5zm-17.5 1.5c0-.275.224-.5.5-.5h2c.276 0 .5.225.5.5v12.5h-3zm18 17.5h-18v-2h6v-14h11.5c.276 0 .5.225.5.5zm-2-3.5c0 .828-.672 1.5-1.5 1.5s-1.5-.672-1.5-1.5.672-1.5 1.5-1.5 1.5.672 1.5 1.5zm-5 0c0 .828-.672 1.5-1.5 1.5s-1.5-.672-1.5-1.5.672-1.5 1.5-1.5 1.5.672 1.5 1.5zm-3-10.5v7h1.5v-.5c0-.828.672-1.5 1.5-1.5h2c.828 0 1.5.672 1.5 1.5v.5h1.5v-7zm4 4c-.828 0-1.5-.672-1.5-1.5s.672-1.5 1.5-1.5 1.5.672 1.5 1.5-.672 1.5-1.5 1.5z"/></svg>