<svg id="Layer_1" viewBox="0 0 24 24" xmlns="http://www.w3.org/2000/svg" data-name="Layer 1"><path d="m4 0v21c0 1.657 1.343 3 3 3h10c1.657 0 3-1.343 3-3v-21zm9.999 22.008h-4v-2h4zm-6.999-4.008v-15h10v15zm6-8c0 2.682-1.386 4.497-3.804 4.98l-.393-1.961c.543-.109 2.196-.439 2.196-3.02 0-.552.448-1 1-1s1 .448 1 1zm.531 2.868 1.837.792c-.397.92-1 1.77-1.793 2.525l-1.38-1.448c.605-.577 1.042-1.188 1.336-1.869zm2.469-2.868c.006.628-.012 1.477-.217 2.379l-1.95-.442c.158-.695.173-1.364.167-1.927 0-.315-.067-.608-.2-.881l1.8-.873c.265.547.4 1.134.4 1.744zm-6 1h-2v-1c0-2.206 1.794-4 4-4 .873 0 1.703.277 2.401.802l-1.202 1.599c-.349-.262-.763-.401-1.199-.401-1.103 0-2 .897-2 2z"/></svg>