<?xml version="1.0" encoding="UTF-8"?>
<svg xmlns="http://www.w3.org/2000/svg" id="Layer_1" data-name="Layer 1" viewBox="0 0 24 24">
  <path d="M14,2.5c0-1.381,1.119-2.5,2.5-2.5s2.5,1.119,2.5,2.5-1.119,2.5-2.5,2.5-2.5-1.119-2.5-2.5Zm4.458,10.661l4.131,2.014,1.314-2.696-3.363-1.64-2.174-3.455-.141-.189c-.665-.76-1.625-1.195-2.634-1.195h-1.815l-5.74,1.746-1.347,3.273,2.774,1.142,.806-1.958,2.572-.782-.751,3.21c-.351,1.5,.339,3.079,1.679,3.84l4.229,2.403v5.127h3v-6.873l-4.494-2.553,.849-3.165,1.103,1.753Zm-8.24,4.452l-2.015,4.077L.037,17.774l2.015-4.077c.358-.747,1.254-1.062,2.001-.704l.55,.264,.022-.046c.352-.755,1.251-1.079,2.003-.721l1.582,.751c.744,.354,1.064,1.242,.716,1.989l-.038,.082,.628,.301c.747,.358,1.062,1.254,.704,2.001Zm1.615-.11l-.349,1.513-2.266,4.984h3.296l1.763-3.879,.221-.937-1.715-.974c-.35-.198-.659-.443-.95-.706Z"/>
</svg>
