<svg id="Layer_1" viewBox="0 0 24 24" xmlns="http://www.w3.org/2000/svg" data-name="Layer 1"><path d="m13 4c0-.552-.448-1-1-1s-1 .448-1 1v3.882l-7.775 4.33c-.144.078-.225.216-.225.365v.833l8-2.701v11.447l-5 1.844v-2.301c0-.808.403-1.562 1.075-2.011l.925-.619v-4.181l-8 2.702v-5.013c0-1.249.681-2.396 1.778-2.993l6.222-3.466v-2.118c0-2.209 1.791-4 4-4s4 1.791 4 4v2.118l1.685.939c-1.3.164-2.48.711-3.425 1.527l-1.26-.702zm11 11v6c0 1.654-1.346 3-3 3h-5c-1.654 0-3-1.346-3-3v-6h1v-1.5c0-2.481 2.019-4.5 4.5-4.5s4.5 2.019 4.5 4.5v1.5zm-4 3h-3v3h3zm0-4.5c0-.827-.673-1.5-1.5-1.5s-1.5.673-1.5 1.5v1.5h3z"/></svg>