<?xml version="1.0" encoding="UTF-8"?>
<svg xmlns="http://www.w3.org/2000/svg" id="Layer_1" data-name="Layer 1" viewBox="0 0 24 24" width="512" height="512"><path d="m23.632,14.214h0c-.354-1.136-1.201-2.114-2.324-2.685-1.105-.562-2.343-.68-3.483-.335-.516.157-1.001.406-1.443.742-.516.392-.919.871-1.219,1.396-.004-.004-.006-.008-.01-.011-1.248-1.233-3.06-1.646-4.714-1.036-.626.232-1.168.586-1.616,1.022-.299-.515-.696-.986-1.204-1.372-.442-.336-.928-.585-1.444-.742-1.139-.344-2.376-.226-3.483.335-1.122.571-1.969,1.549-2.323,2.685-.527,1.687-.491,3.908.108,6.601.215.97.919,1.734,1.884,2.045.291.094.589.14.887.14.695,0,1.378-.25,1.905-.72,1.191-1.063,2.133-2.1,2.838-3.104.349,1.068.879,2.221,1.597,3.453.502.86,1.403,1.373,2.411,1.373h0c1.008,0,1.908-.514,2.409-1.373.72-1.235,1.25-2.389,1.599-3.459.705,1.006,1.648,2.045,2.842,3.11.527.47,1.209.72,1.904.72.297,0,.597-.046.887-.14.964-.311,1.668-1.075,1.883-2.044.599-2.693.635-4.914.109-6.601Zm-17.278,1.709c-.365,1.108-1.431,2.504-3.012,3.948-.412-1.986-.452-3.669-.11-4.763h0c.114-.363.42-.702.819-.905.265-.134.543-.203.813-.203.15,0,.298.021.44.064.173.053.342.14.5.26.547.416.747.998.55,1.599Zm5.644,4.875c-.969-1.732-1.5-3.277-1.5-4.378,0-.609.358-1.091.981-1.322.177-.065.353-.099.521-.099.377,0,.748.161,1.045.455.289.286.458.667.453,1.02-.017,1.097-.547,2.622-1.5,4.324Zm8.66-.928c-1.581-1.443-2.647-2.839-3.012-3.948-.197-.601.003-1.183.55-1.598.158-.12.326-.208.5-.26.142-.043.29-.064.44-.064.271,0,.549.068.814.203.399.203.706.541.819.904.341,1.094.301,2.777-.111,4.763ZM5.966,6.009C2.57,4.925.274,3.324.131,3.223L1.867.776s.002.001.002.002h0c.008.006.176.122.479.308.183.112.422.252.699.406.03.016.053.03.084.047.918.503,2.289,1.159,3.931,1.668.133.041.267.08.403.119.791.227,1.635.419,2.523.538.652.087,1.325.137,2.012.137,5.498,0,10.087-3.192,10.133-3.224l1.736,2.447c-.143.102-2.44,1.702-5.835,2.787l1.076,2.87c-.519.028-1.036.11-1.541.263-.468.142-.911.355-1.339.601l-1.132-3.017c-.519.088-1.051.157-1.597.203l.006,3.311c-.965-.317-2-.323-3-.004l-.006-3.307c-.547-.046-1.081-.115-1.602-.204l-1.132,3.017c-.428-.245-.871-.459-1.339-.601-.504-.153-1.021-.235-1.541-.263l1.076-2.87Z"/></svg>
