<?xml version="1.0" encoding="UTF-8"?>
<svg xmlns="http://www.w3.org/2000/svg" id="Layer_1" data-name="Layer 1" viewBox="0 0 24 24">
  <path d="m15.5,10.633l3.5-.636v3.049l-3.5.636v-3.049Zm-10.5,2.412l3.5.636v-3.049l-3.5-.636v3.049Zm10.5,5.337l3.5-.636v-3.049l-3.5.636v3.049Zm0-9.5l3.5-.636v-3.049l-3.5.636v3.049Zm-10.5,8.864l3.5.636v-3.049l-3.5-.636v3.049Zm0-9.5l3.5.636v-3.049l-3.5-.636v3.049ZM24,3.403v18.421l-12,2.182L0,21.824V3.403C0,2.39.446,1.436,1.225.786,2.003.136,3.021-.135,4.019.05l5.897,1.072c.796.145,1.508.499,2.083,1,.576-.501,1.288-.855,2.083-1L19.981.05c.996-.184,2.015.087,2.793.736.779.65,1.225,1.604,1.225,2.618Zm-13.5,2.012c0-.659-.471-1.224-1.12-1.342l-5.898-1.072c-.161-.027-.269.033-.335.088-.055.046-.147.147-.147.314v15.917l7.5,1.364V5.415Zm10.5-2.012c0-.167-.092-.268-.147-.314-.067-.056-.182-.117-.335-.088l-5.898,1.072c-.648.118-1.12.683-1.12,1.342v15.269l7.5-1.364V3.403Z"/>
</svg>
