<svg id="Layer_1" viewBox="0 0 24 24" xmlns="http://www.w3.org/2000/svg" data-name="Layer 1"><path d="m13 2c0-1.105.895-2 2-2s2 .895 2 2-.895 2-2 2-2-.895-2-2zm9.592 18h-3.184c-.207.581-.757 1-1.408 1s-1.201-.419-1.408-1h-3.184c-.207.581-.757 1-1.408 1s-1.201-.419-1.408-1h-3.184c-.207.581-.757 1-1.408 1s-1.201-.419-1.408-1h-3.184c-.207.581-.757 1-1.408 1v3c1.157 0 2.202-.451 3-1.17.798.72 1.843 1.17 3 1.17s2.202-.451 3-1.17c.798.72 1.843 1.17 3 1.17s2.202-.451 3-1.17c.798.72 1.843 1.17 3 1.17s2.202-.451 3-1.17c.798.72 1.843 1.17 3 1.17v-3c-.651 0-1.201-.419-1.408-1zm-14.78-2h3.015l2.752-4.712 1.773.982 1.233 3.227c-.763-.516-1.541-1.026-2.323-1.516l-1.221 2.019h6.959l-2.229-5.805-3.76-2.141.747-1.498 4.571 2.286 1.342-2.684-8.317-4.158h-5.741l-2.267 3.683 2.555 1.572 1.388-2.255h1.903l-.802 1.58c-.475.921-.517 1.999-.116 2.955l.953 1.498-.255.422c-3.541-1.924-6.834-3.232-7.771-1.917-.977 1.372 1.912 3.998 5.611 6.462z"/></svg>