<?xml version="1.0" encoding="UTF-8"?>
<svg xmlns="http://www.w3.org/2000/svg" id="Layer_1" data-name="Layer 1" viewBox="0 0 24 24">
  <path d="m23.994,21.873l-5.947-5.947c1.225-1.66,1.959-3.703,1.959-5.92C20.006,4.492,15.52.006,10.006.006S.006,4.492.006,10.006s4.486,10,10,10c2.217,0,4.26-.734,5.92-1.959l5.947,5.947,2.121-2.121Zm-13.988-4.867c-3.86,0-7-3.14-7-7s3.14-7,7-7,7,3.14,7,7-3.141,7-7,7Zm4.221-8.693l.98.98-1.414,1.414-.98-.98-.98.98-1.414-1.414.98-.98-.98-.98,1.414-1.414.98.98.98-.98,1.414,1.414-.98.98Zm-8.02,2.395l-1.414-1.414.98-.98-.98-.98,1.414-1.414.98.98.98-.98,1.414,1.414-.98.98.98.98-1.414,1.414-.98-.98-.98.98Zm7.646,2.43l-1.008,1.727c-1.961-1.146-3.727-1.145-5.688,0l-1.009-1.727c2.58-1.508,5.124-1.509,7.705,0Z"/>
</svg>
