<?xml version="1.0" encoding="UTF-8"?>
<svg xmlns="http://www.w3.org/2000/svg" id="Layer_1" data-name="Layer 1" viewBox="0 0 24 24">
  <path d="m20.485,3.515l-1.061-1.061-.485.485c-.381-.571-.793-1.078-1.231-1.516-1.646-1.645-4.184-1.86-6.062-.652-1.507-.488-3.209-.114-4.369,1.048-.178.178-.339.37-.481.577-1.152.083-2.253.574-3.08,1.402-.827.827-1.318,1.927-1.401,3.08-.207.143-.399.303-.577.481-1.161,1.161-1.535,2.863-1.048,4.368-.502.777-.771,1.682-.771,2.629,0,1.297.505,2.517,1.422,3.435.438.438.946.849,1.517,1.231l-.404.404,1.061,1.061c2.339,2.34,5.412,3.51,8.485,3.51s6.146-1.17,8.485-3.51c4.679-4.679,4.679-12.292,0-16.971ZM3.463,15.669c-.351-.352-.544-.817-.544-1.313,0-.477.178-.926.486-1.255l.97-.963-.681-1.022c-.341-.512-.271-1.199.165-1.636.128-.127.291-.227.484-.295l1.182-.417-.2-1.237c-.097-.602.09-1.189.512-1.611.424-.423,1.013-.61,1.611-.512l1.236.199.417-1.18c.068-.194.169-.357.297-.486.436-.437,1.121-.506,1.635-.164l1.062.707.911-.984c.729-.68,1.873-.663,2.581.046.414.413.811.947,1.174,1.572l-1.689,1.689c-1.472-1.164-3.615-1.067-4.975.292-1.068,1.068-1.357,2.619-.868,3.948-2.014-.228-3.731.452-3.731.452,0,0,.204,1.541,1.773,3.107l-2.238,2.238c-.625-.363-1.159-.761-1.573-1.174Zm14.901,2.695c-3.148,3.147-8.066,3.472-11.579.972l12.551-12.551c2.5,3.513,2.176,8.431-.972,11.58Z"/>
</svg>
