<?xml version="1.0" encoding="UTF-8"?>
<svg xmlns="http://www.w3.org/2000/svg" id="Layer_1" data-name="Layer 1" viewBox="0 0 24 24" width="512" height="512"><path d="m20.5,0H3.5C1.57,0,0,1.57,0,3.5v20.5h24V3.5c0-1.93-1.57-3.5-3.5-3.5Zm.5,21H3V3.5c0-.276.225-.5.5-.5h17c.275,0,.5.224.5.5v17.5Zm-8.025-10.787l-2.056,1.096c.052.222.081.453.081.69s-.028.469-.081.69l2.056,1.096c.534-.488,1.244-.787,2.025-.787,1.657,0,3,1.343,3,3s-1.343,3-3,3-3-1.343-3-3c0-.153.012-.302.034-.449l-2.203-1.175c-.507.391-1.141.624-1.83.624-1.657,0-3-1.343-3-3s1.343-3,3-3c.689,0,1.324.233,1.83.624l2.203-1.175c-.022-.146-.034-.296-.034-.449,0-1.657,1.343-3,3-3s3,1.343,3,3-1.343,3-3,3c-.78,0-1.491-.298-2.025-.787Z"/></svg>
