<svg id="Layer_1" viewBox="0 0 24 24" xmlns="http://www.w3.org/2000/svg" data-name="Layer 1"><path d="m6 8.984c0 3.309 2.691 6 6 6 3.252 0 6-2.748 6-6v-.984h2v-3h-2c0-1.846-1.012-3.44-2.5-4.306v3.306h-2v-3.95c-.167-.017-.329-.05-.5-.05h-2c-.171 0-.333.034-.5.05v3.95h-2v-3.306c-1.488.866-2.5 2.46-2.5 4.306h-2v3h1.962zm9 0c0 1.626-1.374 3-3 3-1.654 0-3-1.346-3-3v-.984h6zm9 9.567v5.59h-3v-5.59c-.06-.401-.223-.538-.628-.515l-6.301 1.267c-.331.066-.571.359-.571.696v4.142h-3v-4.142c0-.337-.24-.63-.57-.696l-6.302-1.267c-.407-.023-.567.114-.628.515v5.59h-3v-5.59c-.056-2.159 2.113-3.936 4.219-3.456l6.302 1.267c.553.111 1.049.354 1.479.676.431-.323.927-.565 1.481-.676l6.3-1.267c2.109-.482 4.274 1.297 4.22 3.456z"/></svg>