<?xml version="1.0" encoding="UTF-8"?>
<svg xmlns="http://www.w3.org/2000/svg" id="Layer_1" data-name="Layer 1" viewBox="0 0 24 24">
  <path d="m23.344,15.389L15.666,3.042c-.819-1.316-2.118-2.042-3.657-2.042-1.531,0-2.872.744-3.679,2.042L.652,15.389c-.841,1.353-.88,2.991-.107,4.382.774,1.393,2.188,2.224,3.782,2.224h15.342c1.594,0,3.008-.832,3.782-2.225.773-1.392.733-3.03-.107-4.382Zm-2.515,2.925c-.114.205-.455.682-1.16.682H4.327c-.705,0-1.046-.477-1.16-.682-.114-.205-.338-.745.033-1.341l3.635-5.845,7.399,5.09-1.233,1.781h6l-2.5-5-1.346,1.904-5.205-3.591.369-.95c.062-.173.19-.308.362-.378.168-.07.361-.063.529.02l.153.073c.392.195.691.53.842.943l.12.376,1.677,1.104-.5-1.99c-.258-.711-.773-1.287-1.449-1.624l-.358-.179c-.479-.238-1.038-.261-1.533-.061-.496.199-.884.602-1.064,1.105l-.311.765-1.101-.753,3.195-5.138c.265-.427.625-.625,1.131-.625.498,0,.84.193,1.109.625l7.678,12.348c.371.596.147,1.136.033,1.341Zm-7.829-11.314c0,.552-.448,1-1,1s-1-.448-1-1,.448-1,1-1,1,.448,1,1Zm-5.275,6.636l1.248.854-1.259,3.51h-1.554l1.566-4.364Zm2.275,1.545l1.5,1.037v1.781h-1.5v-2.819Z"/>
</svg>
