<svg id="Layer_1" viewBox="0 0 24 24" xmlns="http://www.w3.org/2000/svg" data-name="Layer 1"><path d="m8.364 7.879c.485-.485 2.636-.879 2.636-.879s-.393 2.151-.879 2.636c-.485.485-1.272.485-1.757 0s-.485-1.272 0-1.757zm15.636 3.621c0 1-.486 2.336-1.682 3.031l-.763 3.68c-.335 1.616-1.776 2.789-3.427 2.789h-12.255c-1.65 0-3.091-1.173-3.427-2.789l-.764-3.681c-1.196-.695-1.682-2.03-1.682-3.031 0-3.93 5.242-8.499 12-8.499s12 4.569 12 8.5zm-5.026 4.383c-.317.069-.641.117-.974.117-1.002 0-1.95-.319-2.742-.923-.137-.104-.379-.104-.517 0-1.582 1.206-3.899 1.207-5.483 0-.136-.104-.378-.104-.517 0-1.058.806-2.442 1.061-3.718.789l.36 1.735c.048.23.254.398.49.398h12.254c.236 0 .442-.167.49-.398l.357-1.719zm2.027-4.412c0-1.86-3.505-5.471-9-5.471s-9.001 3.611-9.001 5.5c.022.5.272.51.5.54.574.083 1.121.304 1.575.65.532.405 1.318.404 1.849 0 1.202-.916 2.948-.917 4.151 0 .532.405 1.318.404 1.849 0 1.202-.916 2.948-.917 4.151 0 .532.405 1.318.404 1.849 0 .455-.347 1.002-.568 1.576-.651.216-.04.478-.04.5-.569zm-8.001-4.471s.393 2.151.879 2.636c.485.485 1.272.485 1.757 0s.485-1.272 0-1.757-2.636-.879-2.636-.879z"/></svg>