<svg id="Layer_1" viewBox="0 0 24 24" xmlns="http://www.w3.org/2000/svg" data-name="Layer 1"><path d="m20.5 5h-6.459l-.381-.413 3.34-2.087-4-2.5h-2v3.872l-1.042 1.128h-6.458c-1.93 0-3.5 1.57-3.5 3.5v15.5h12.721c-.926-.815-1.663-1.838-2.134-3h-7.587v-8h3.657l5.343-5.789 3.086 3.344c.904-.354 1.884-.555 2.914-.555.233 0 .462.015.689.035l-1.878-2.035h3.689c.275 0 .5.224.5.5v2.087c1.162.471 2.185 1.208 3 2.134v-4.221c0-1.93-1.57-3.5-3.5-3.5zm-15.157 5h-2.343v-1.5c0-.276.224-.5.5-.5h3.689zm-.343 6h3v3h-3zm7-3c-.828 0-1.5-.672-1.5-1.5s.672-1.5 1.5-1.5 1.5.672 1.5 1.5-.672 1.5-1.5 1.5zm6-1c-3.314 0-6 2.686-6 6s2.686 6 6 6 6-2.686 6-6-2.686-6-6-6zm3.536 8.121-1.414 1.414-2.121-2.121-2.121 2.121-1.414-1.414 2.121-2.121-2.121-2.121 1.414-1.414 2.121 2.121 2.121-2.121 1.414 1.414-2.121 2.121z"/></svg>