<?xml version="1.0" encoding="UTF-8"?>
<svg xmlns="http://www.w3.org/2000/svg" id="Layer_1" data-name="Layer 1" viewBox="0 0 24 24" width="512" height="512"><path d="m20.581,10H3.417c-1.01,0-1.963.443-2.616,1.215-.646.765-.921,1.767-.755,2.748.732,4.325,3.533,8.023,7.494,9.894l.304.144h8.311l.304-.144c3.96-1.87,6.761-5.568,7.493-9.894.166-.981-.109-1.983-.755-2.748-.652-.771-1.606-1.215-2.616-1.215Zm.413,3.463c-.55,3.251-2.605,6.045-5.523,7.537h-6.941c-2.919-1.491-4.974-4.286-5.524-7.537-.024-.143.035-.248.088-.312.048-.057.153-.151.324-.151h17.164c.171,0,.276.095.324.151.054.063.112.169.088.312ZM3,5h21v3L3,7v-2ZM24,0v3H3V1L24,0Z"/></svg>
