<svg id="Layer_1" viewBox="0 0 24 24" xmlns="http://www.w3.org/2000/svg" data-name="Layer 1"><path d="m12 12h-5v-3h2v-4.071h3zm12 7.714c0 1.262-1.137 2.286-2.4 2.286h-1.82c-1.046 1.399-1.098 1.347-1.732 2h-5.978c-.675-.725-3.161-2.651-4.035-6.87-.126-.767.094-1.55.604-2.15.528-.622 1.298-.979 2.113-.979l8.494.002c.827 0 1.606.365 2.137 1.003.505.607.715 1.392.574 2.153-.054.29-.124.572-.202.849 1.198.036 2.245.497 2.245 1.707zm-5.077-2.712-7.857-.002c.41 1.782 1.61 3.304 2.235 4h3.461c.6-.713 1.722-2.223 2.161-3.998zm-12.913-.509c-1.823-1.369-3.01-3.543-3.01-5.993 0-4.136 3.364-7.5 7.5-7.5s7.5 3.364 7.5 7.5c0 .514-.052 1.016-.151 1.502h1.398c.55 0 1.086.096 1.591.275.099-.579.162-1.17.162-1.776 0-5.791-4.71-10.501-10.5-10.501s-10.5 4.71-10.5 10.5c0 4.547 2.91 8.416 6.961 9.873-.399-.884-.726-1.864-.899-2.918-.053-.321-.066-.643-.051-.962z"/></svg>