<?xml version="1.0" encoding="UTF-8"?>
<svg xmlns="http://www.w3.org/2000/svg" id="Layer_1" data-name="Layer 1" viewBox="0 0 24 24">
  <path d="m12,0C5.383,0,0,5.383,0,12c0,.442.028.878.075,1.308l2.94-1.006c-.003-.101-.015-.2-.015-.302,0-3.847,2.43-7.128,5.832-8.414-1.032,1.896-2.108,4.529-2.296,7.511l3.134-1.072c.409-2.449,1.484-4.562,2.331-5.927,1.068,1.72,2.499,4.633,2.499,7.902l-.064.982c-.232,2.713-1.345,5.106-2.279,6.661l-1.465,4.282c.43.047.865.075,1.307.075,6.617,0,12-5.383,12-12S18.617,0,12,0Zm8.865,10.5h-3.443c-.282-2.735-1.284-5.144-2.248-6.911,2.946,1.116,5.153,3.729,5.691,6.911Zm-5.694,9.913c.965-1.767,1.959-4.176,2.243-6.913h3.452c-.537,3.183-2.746,5.798-5.694,6.913Zm-6.617,3.587l-2.058-4.374-4.285,4.285L.089,21.79l4.285-4.285L0,15.447l13-4.447-4.447,13Z"/>
</svg>
