<svg id="Layer_1" viewBox="0 0 24 24" xmlns="http://www.w3.org/2000/svg" data-name="Layer 1"><path d="m22.657 7.407-8.5-6.651c-1.271-.992-3.044-.992-4.313 0l-8.501 6.651c-.854.668-1.343 1.673-1.343 2.757v13.823h24v-13.823c0-1.084-.49-2.089-1.343-2.757zm-1.657 13.58h-18v-10.823c0-.155.07-.299.192-.394l8.5-6.651c.182-.143.435-.143.616 0l8.5 6.651c.122.095.192.238.192.394zm-3-8.987c0-1.1-.9-2-2-2h-2.5v-2h-3v2h-2.5c-1.1 0-2 .9-2 2v1h-1v3h1v3h12v-3h1v-3h-1zm-8.5 4c-.828 0-1.5-.672-1.5-1.5s.672-1.5 1.5-1.5 1.5.672 1.5 1.5-.672 1.5-1.5 1.5zm5 0c-.828 0-1.5-.672-1.5-1.5s.672-1.5 1.5-1.5 1.5.672 1.5 1.5-.672 1.5-1.5 1.5z"/></svg>