<?xml version="1.0" encoding="UTF-8"?>
<svg xmlns="http://www.w3.org/2000/svg" id="Layer_1" data-name="Layer 1" viewBox="0 0 24 24">
  <path d="m13.5,4h-3V0h3v4ZM19,0h-3v4h3V0Zm-11,0h-3v4h3V0Zm10.311,17.268l3.366,6.732h-3.354l-.5-1h-8.099c.168-.471.276-.971.276-1.5s-.108-1.029-.276-1.5h6.599l-1-2h-6.646l-1.074,2.148c.251.39.397.854.397,1.352,0,1.381-1.119,2.5-2.5,2.5s-2.5-1.119-2.5-2.5c0-1.126.745-2.078,1.769-2.391l.92-1.84C2.196,15.188,0,11.477,0,7.5v-1.5h24v1.5c0,3.977-2.196,7.688-5.689,9.768Zm2.55-8.268H3.139c.478,2.551,2.163,4.756,4.648,6h8.426c2.485-1.244,4.171-3.449,4.648-6Z"/>
</svg>
