<?xml version="1.0" encoding="UTF-8"?>
<svg xmlns="http://www.w3.org/2000/svg" id="Layer_1" data-name="Layer 1" viewBox="0 0 24 24">
  <path d="M21.162,9.949l2.838-3.406v-2.543h-3.192L15,1.511V0h-3V1.511l-5.808,2.489H3.5c-1.93,0-3.5,1.57-3.5,3.5v7.5H3V7.5c0-.276,.224-.5,.5-.5h1.583l1.917,6.71v1.564l-2,6.5v2.226H22v-2.226l-2-6.5v-1.549l1.162-3.777Zm-4.078,3.051h-2.418l.667-6h3.597l-1.846,6Zm-5.418-6l.667,6h-2.416l-1.714-6h3.464Zm-1.751,9h2.408l-.588,5h-3.358l1.539-5Zm5.349,5l-.588-5h2.408l1.539,5h-3.358Z"/>
</svg>
