<?xml version="1.0" encoding="UTF-8"?>
<svg xmlns="http://www.w3.org/2000/svg" id="Layer_1" data-name="Layer 1" viewBox="0 0 24 24">
  <path d="m24,7.5v1.5h-7v-1.5c0-.828.672-1.5,1.5-1.5h4c.828,0,1.5.672,1.5,1.5Zm-3.5-2.5c1.381,0,2.5-1.119,2.5-2.5s-1.119-2.5-2.5-2.5-2.5,1.119-2.5,2.5,1.119,2.5,2.5,2.5ZM5.5,13H1.5c-.828,0-1.5.672-1.5,1.5v1.5h7v-1.5c0-.828-.672-1.5-1.5-1.5Zm-2-1c1.381,0,2.5-1.119,2.5-2.5s-1.119-2.5-2.5-2.5-2.5,1.119-2.5,2.5,1.119,2.5,2.5,2.5Zm19,9h-4c-.828,0-1.5.672-1.5,1.5v1.5h7v-1.5c0-.828-.672-1.5-1.5-1.5Zm-2-1c1.381,0,2.5-1.119,2.5-2.5s-1.119-2.5-2.5-2.5-2.5,1.119-2.5,2.5,1.119,2.5,2.5,2.5Zm-5.496-10.871l-4.356,3.871h-2.648v3h2.648l4.356,3.871,1.992-2.242-3.52-3.129,3.52-3.129-1.992-2.242Z"/>
</svg>
