<?xml version="1.0" encoding="UTF-8"?>
<svg xmlns="http://www.w3.org/2000/svg" id="Layer_1" data-name="Layer 1" viewBox="0 0 24 24">
  <path d="M24,5.5v7.221c-.815-.926-1.838-1.663-3-2.134v-3.587H3v12h7.069c.135,1.083,.486,2.096,1.01,3H0V3.5C0,1.57,1.57,0,3.5,0h4.854l4,2h8.146c1.93,0,3.5,1.57,3.5,3.5Zm-.065,10.799l-1.529,.883c.049,.266,.083,.538,.083,.818s-.033,.552-.083,.818l1.529,.883-1.5,2.598-1.542-.89c-.413,.352-.884,.629-1.404,.815v1.776h-3v-1.776c-.521-.186-.992-.463-1.404-.815l-1.541,.89-1.5-2.598,1.528-.883c-.049-.266-.083-.538-.083-.819s.034-.552,.083-.819l-1.528-.883,1.5-2.598,1.541,.89c.412-.352,.884-.629,1.404-.815v-1.776h3v1.776c.521,.186,.992,.463,1.404,.815l1.542-.89,1.5,2.598Zm-4.446,1.701c0-.827-.673-1.5-1.5-1.5s-1.5,.673-1.5,1.5,.673,1.5,1.5,1.5,1.5-.673,1.5-1.5Z"/>
</svg>
