<?xml version="1.0" encoding="UTF-8"?>
<svg xmlns="http://www.w3.org/2000/svg" id="Layer_1" data-name="Layer 1" viewBox="0 0 24 24">
  <path d="m17.289,1.766c-3.338-1.017-7.24-1.017-10.578,0C2.697,2.989,0,6.662,0,10.905v5.095c0,4.424,2.324,6,4.5,6,.945,0,1.815-.33,2.5-.88.685.55,1.555.88,2.5.88s1.815-.33,2.5-.88c.685.55,1.555.88,2.5.88s1.815-.33,2.5-.88c.685.55,1.555.88,2.5.88,2.176,0,4.5-1.576,4.5-6v-5.095c0-4.244-2.697-7.916-6.711-9.139ZM3.405,8.637l.559,1.033c.923-.413,1.879-.751,2.865-1.011l-1.506-2.781c.576-.491,1.24-.882,1.968-1.144l1.875,3.462c.924-.126,1.868-.196,2.833-.196.161,0,.319.009.479.013l-2.127-3.929c.54-.056,1.09-.084,1.648-.084.305,0,.608.009.909.025l2.285,4.22c1.384.214,2.716.572,3.99,1.068l-2.48-4.581c2.544.913,4.296,3.408,4.296,6.173,0,.454-.297.688-.425.768-.126.079-.462.24-.862.044-2.336-1.14-4.931-1.718-7.713-1.718s-5.377.578-7.713,1.718c-.399.194-.736.034-.862-.045-.128-.08-.425-.314-.425-.768,0-.788.143-1.554.405-2.268Zm16.095,10.363c-.552,0-1-.449-1-1h-3c0,.551-.448,1-1,1s-1-.449-1-1h-3c0,.551-.448,1-1,1s-1-.449-1-1h-3c0,.551-.448,1-1,1-1.354,0-1.5-2.098-1.5-3v-1.294c.294.07.593.106.894.106.581,0,1.165-.132,1.71-.397,1.922-.938,4.074-1.414,6.396-1.414s4.475.476,6.396,1.414c.826.403,1.742.498,2.604.293v1.294c0,.902-.146,3-1.5,3Z"/>
</svg>
