<?xml version="1.0" encoding="UTF-8"?>
<svg xmlns="http://www.w3.org/2000/svg" id="Layer_1" data-name="Layer 1" viewBox="0 0 24 24">
  <path d="m22.139.203c-2.624.288-10.609,1.163-16.873,7.446-1.561,1.565-2.396,3.732-2.29,5.944.069,1.434.532,2.812,1.317,3.991L.007,21.872l2.121,2.121,4.272-4.272c1.289.876,2.792,1.306,4.31,1.306,2.165,0,4.357-.876,5.99-2.58,3.971-4.146,6.425-9.887,7.096-16.604L23.979.002l-1.84.201ZM5.974,13.45c-.066-1.371.451-2.714,1.417-3.683h0c4.435-4.448,9.953-5.831,13.176-6.337-.256,1.6-.627,3.127-1.109,4.569h-5.578l-7.399,7.399c-.299-.598-.473-1.257-.506-1.949Zm12.263-2.45c-.338.693-.705,1.36-1.101,2h-4.014l2-2h3.116Zm-9.65,6.534l1.534-1.534h4.758c-.114.125-.229.25-.346.372-1.613,1.684-4.061,2.115-5.946,1.162Z"/>
</svg>
