<?xml version="1.0" encoding="UTF-8"?>
<svg xmlns="http://www.w3.org/2000/svg" id="Layer_1" data-name="Layer 1" viewBox="0 0 24 24">
  <path d="m10,17c.052.004-.051,0,0,0h0Zm4.362-4.982l-.838.831,4.658,4.151h5.818v3h-5.359l-5.125,4h-3.032l-5.125-4H0v-3h6.391l5.125,4h.968l3.027-2.362-3.424-3.051-.807.835c-.377.377-.774.578-1.28.578-.56-.045-1.315-.34-1.645-.797-.55-.762-.458-1.807.218-2.483l1.235-1.317-.158-.144c-.312-.285-.802-.317-1.13-.154l-1.637.896H0v-3h6.117l.987-.54c-.693-.979-1.104-2.171-1.104-3.461,0-3.314,2.686-6,6-6s6,2.686,6,6c0,1.209-.361,2.332-.975,3.273l1.454.727h5.521v3h-6.229l-2.292-1.146c-.361-.18-.823-.113-1.117.164Zm.938-4.392c0-1.033-.734-1.929-1.747-2.131l-2.792-.559c-.267-.054-.461-.291-.461-.562,0-.316.257-.574.573-.574h2.127c.316,0,.585.211.671.5h1.62c-.102-1.175-1.09-2.1-2.291-2.1h-.2v-1.2h-1.6v1.2h-.327c-1.198,0-2.173.975-2.173,2.173,0,1.033.734,1.929,1.747,2.131l2.791.559c.268.054.462.291.462.563,0,.316-.258.574-.574.574h-2.126c-.316,0-.585-.211-.671-.5h-1.62c.102,1.175,1.09,2.1,2.291,2.1h.2v1.127c.261.043.526.073.8.073s.539-.03.8-.072v-1.128h.326c1.199,0,2.174-.975,2.174-2.173Z"/>
</svg>
