<?xml version="1.0" encoding="UTF-8"?>
<svg xmlns="http://www.w3.org/2000/svg" id="Layer_1" data-name="Layer 1" viewBox="0 0 24 24">
  <path d="M6.5,11l-2.5,2.5v1.507c0,.489-.479,.834-.943,.679l-2.057-.686-1,3.308v1l2.009,1.519c.515,.343,1.214,.158,1.491-.396l1.5-3.431h2.5s1.041,2.403,1.5,3c-.062,.244-.501,.696-.952,1.108-.346,.316-.125,.892,.344,.892h1.108c.932-.801,1.5-1,1.5-2l-1.138-2.604s.848-.187,1.638,.604q1,1,1,2c0,.535,1.084,1.088,1.5,1l.336-1s1.664-.768,1.664-2.768c0-1,.716-1.032,1.394-1.264s1.83-.442,1.83-.442c0,0,.795-.234,.775,.706-.007,.318-.15,1.563-.5,2.268-.301,.606-2.5,.5-2.5,.5l-1,1.5v2.5h2c.882,0,1.574-.262,2.303-1.05,.253-.04,3.697-.45,3.697-.45v-1.5s-2.422-1.495-2.01-1c.023,.027,0-1,0-1l2.01-.531V2s-1.999,0-1.999,0c-.944,0-1.833,.445-2.4,1.2l-1.6,1.8h-2v-1s2-1,2-2.487v-.513h-3.605c-.992,0-1.959,.34-2.706,.992-1.814,1.585-3.748,4.067-4.689,6.008v.621c0,.634,.667,1.046,1.234,.762l1.766-.883v1s0,1,1,1,1-1,1-1v-1s-.56-1.102-.5-1.5c.5-2,2-3,2-3l-.5,2.5v1.5h2v2s-1,0-1,1v1c-5,0-5-1-6-1h-1.5Z"/>
</svg>
