<?xml version="1.0" encoding="UTF-8"?>
<svg xmlns="http://www.w3.org/2000/svg" id="Layer_1" data-name="Layer 1" viewBox="0 0 24 24">
  <path d="M21.112,16.435c.32-.968,.904-3.055,.904-5.403C22.017,3.256,12.392,.147,12.002,.017c-.389,.13-10,3.253-10,11.015,0,2.347,.583,4.432,.903,5.401l-1.914,5.104,11.011,2.446,11.005-2.445-1.896-5.103Zm-2.115,2.921l-5.481,1.218v-5.007c1.472-.947,3.486-2.533,3.486-4.12,0-1.5-1-2.5-2.5-2.5-.541,0-1.077,.249-1.5,.616l-1,1.124-1-1.124c-.423-.368-.959-.616-1.5-.616-1.5,0-2.5,1-2.5,2.5,0,1.598,2.039,3.192,3.514,4.138v4.996l-5.503-1.223,1.096-2.927-.213-.538c-.009-.022-.894-2.289-.894-4.86,0-4.605,5.358-7.154,7.002-7.828,1.652,.67,7.012,3.201,7.012,7.828,0,2.562-.879,4.823-.894,4.86l-.214,.535,1.088,2.929Z"/>
</svg>
