<?xml version="1.0" encoding="UTF-8"?>
<svg xmlns="http://www.w3.org/2000/svg" id="Layer_1" data-name="Layer 1" viewBox="0 0 24 24">
  <path d="m21,10h3v-3h-2v-2h-3v2.75l-1.412,1.059c-.246-.628-.597-1.211-1.043-1.727.292-.634.455-1.34.455-2.082,0-2.757-2.243-5-5-5s-5,2.243-5,5c0,.743.163,1.448.455,2.082-.446.515-.797,1.099-1.043,1.727l-1.412-1.059v-2.75h-3v2H0v3h3l3.158,2.368c.044.186.096.369.156.548-.852,1.184-1.314,2.604-1.314,4.083,0,3.86,3.14,7,7,7s7-3.14,7-7c0-1.467-.464-2.899-1.314-4.083.061-.179.113-.362.156-.549l3.158-2.368Zm-6,1c0,1.654-1.346,3-3,3s-3-1.346-3-3c0-.603.179-1.18.505-1.668.735.425,1.587.668,2.495.668s1.76-.243,2.495-.668c.327.488.505,1.065.505,1.668Zm-3-8c1.103,0,2,.897,2,2s-.897,2-2,2-2-.897-2-2,.897-2,2-2Zm0,18c-2.206,0-4-1.794-4-4,0-.461.079-.912.229-1.337,1.031.835,2.344,1.337,3.771,1.337s2.739-.501,3.77-1.336c.151.426.23.878.23,1.336,0,2.206-1.794,4-4,4Z"/>
</svg>
