<?xml version="1.0" encoding="UTF-8"?>
<svg xmlns="http://www.w3.org/2000/svg" id="Layer_1" data-name="Layer 1" viewBox="0 0 24 24">
  <path d="m24,10.164v13.836h-3v-13.836c0-.155-.07-.298-.191-.394L12.308,3.118c-.182-.142-.435-.142-.616,0L3.192,9.77c-.122.096-.192.239-.192.394v13.836H0v-13.836c0-1.084.49-2.089,1.343-2.757L9.843.756c1.27-.994,3.043-.994,4.313,0l8.501,6.652c.854.667,1.343,1.672,1.343,2.756Zm-5,1.836v12h-3v-1h-8v1h-3v-14h3v3h5v-1c0-1.103.897-2,2-2h2c1.103,0,2,.897,2,2Zm-6,8v-1c0-1.103.897-2,2-2h1v-1h-8v4h5Zm-1-8.5c0-.828-.672-1.5-1.5-1.5s-1.5.672-1.5,1.5.672,1.5,1.5,1.5,1.5-.672,1.5-1.5Zm0,7c0-.828-.672-1.5-1.5-1.5s-1.5.672-1.5,1.5.672,1.5,1.5,1.5,1.5-.672,1.5-1.5Z"/>
</svg>
