<svg id="Layer_1" viewBox="0 0 24 24" xmlns="http://www.w3.org/2000/svg" data-name="Layer 1"><path d="m24 6.5v14.121l-3.379 3.379h-4.242l4.621-4.621v-2.997l-3.325 3.3-2.113-2.129 3.318-3.294c.195-.322.148-.746-.122-1.016-.326-.324-.851-.323-1.175 0l-3.886 3.886c.184.554.303 1.132.303 1.732v5.139h-3v-5.139c0-.658-.267-1.302-.732-1.768l-3.769-3.769c-.323-.323-.824-.404-1.14-.18-.413.324-.445.725-.239 1.114l3.318 3.294-2.113 2.129-3.325-3.322v3.018l4.621 4.621h-4.242l-3.379-3.379v-14.119c0-1.465 1.265-2.639 2.761-2.487 1.301.132 2.239 1.326 2.239 2.633v3.458c1.258-.268 2.629.107 3.62 1.098l3.38 3.381 3.462-3.462c.958-.959 2.302-1.294 3.538-1.021v-3.455c0-1.307.939-2.501 2.239-2.633 1.495-.152 2.761 1.022 2.761 2.487zm-7.5 2.5h-9v-5.152c0-.461.212-.897.576-1.181l3-2.348c.543-.425 1.306-.425 1.849 0l3 2.348c.363.284.576.72.576 1.181v5.152zm-3.5-4.5h-2v2h2z"/></svg>