<?xml version="1.0" encoding="UTF-8"?>
<svg xmlns="http://www.w3.org/2000/svg" id="Layer_1" data-name="Layer 1" viewBox="0 0 24 24">
  <path d="m14.078,21.977l2.068,2.023H0V3.5C0,1.57,1.57,0,3.5,0h11c1.93,0,3.5,1.57,3.5,3.5v6.579c-1.084.154-2.106.555-3,1.181V3.5c0-.276-.224-.5-.5-.5H3.5c-.276,0-.5.224-.5.5v17.5h10.264c.24.344.509.672.814.977Zm-4.078-6.977v3h2.079c-.047-.329-.079-.662-.079-1,0-.687.1-1.359.29-2h-2.29Zm-5,3h3v-3h-3v3Zm3-8h-3v3h3v-3Zm5,0h-3v3h3v-3Zm-5-5h-3v3h3v-3Zm5,0h-3v3h3v-3Zm11,12c0,1.335-.52,2.591-1.465,3.536l-3.535,3.458-3.523-3.447c-.957-.956-1.477-2.211-1.477-3.547s.52-2.591,1.465-3.536c.944-.944,2.2-1.464,3.535-1.464s2.591.52,3.535,1.464c.945.944,1.465,2.2,1.465,3.536Zm-3,0c0-1.105-.895-2-2-2s-2,.895-2,2,.895,2,2,2,2-.895,2-2Z"/>
</svg>
