<?xml version="1.0" encoding="UTF-8"?>
<svg xmlns="http://www.w3.org/2000/svg" id="Layer_1" data-name="Layer 1" viewBox="0 0 24 24">
  <path d="m12,10.5h3.703c-.595-1.463-2.028-2.5-3.703-2.5-2.206,0-4,1.794-4,4s1.794,4,4,4h5.71c-.872,1.237-2.135,2.178-3.613,2.646-.445-.688-1.216-1.146-2.097-1.146s-1.652.458-2.097,1.146c-2.832-.896-4.903-3.521-4.903-6.646,0-1.165.304-2.253.811-3.219.804.175,1.675-.046,2.3-.67s.845-1.497.67-2.3c.966-.507,2.054-.811,3.219-.811,1.179,0,2.282.306,3.257.823-.039.175-.062.355-.062.541,0,1.381,1.119,2.5,2.5,2.5.173,0,.342-.018.505-.051.274.531.503,1.088.634,1.687h2.03c-.174-1.03-.526-2-1.019-2.881.216-.37.349-.795.349-1.255,0-1.381-1.119-2.5-2.5-2.5-.448,0-.862.127-1.226.333-1.317-.759-2.842-1.198-4.469-1.198-1.607,0-3.103.445-4.41,1.187-.956-.553-2.196-.43-3.015.388s-.941,2.058-.388,3.015c-.742,1.307-1.187,2.803-1.187,4.41,0,4.132,2.801,7.616,6.602,8.669.294,1.054,1.251,1.831,2.398,1.831s2.104-.778,2.398-1.831c2.478-.687,4.528-2.409,5.657-4.669h3.245c-1.653,4.653-6.087,8-11.3,8C5.383,24,0,18.617,0,12S5.383,0,12,0s12,5.383,12,12v1.5h-12c-.828,0-1.5-.672-1.5-1.5s.672-1.5,1.5-1.5Z"/>
</svg>
