<svg id="Layer_1" viewBox="0 0 24 24" xmlns="http://www.w3.org/2000/svg" data-name="Layer 1"><path d="m12 6v5c0 .71.202 1.368.527 1.947-.173.026-.347.053-.527.053-1.933 0-3.5-1.567-3.5-3.5s1.567-3.5 3.5-3.5zm10 9c.613 0 1.188-.15 1.708-.397-1.193 5.368-5.985 9.397-11.708 9.397-6.617 0-12-5.383-12-12s5.383-12 12-12c.881 0 1.739.102 2.566.283-.579.796-.954 1.724-1.044 2.717h-1.522c-4.962 0-9 4.037-9 9 0 2.656 1.164 5.04 3 6.689 0-2.189 1.498-3.695 3.5-3.689h5c2.001-.006 3.5 1.5 3.5 3.686 1.105-.996 1.967-2.256 2.475-3.686zm-10 6c1.053 0 2.061-.187 3-.522v-1.978c0-.275-.224-.5-.5-.5h-5c-.276 0-.5.225-.5.5v1.975c.94.334 1.947.525 3 .525zm12-16v6c0 1.105-.895 2-2 2h-6c-1.105 0-2-.895-2-2v-6h1.5v-1.5c0-2.169 1.984-3.884 4.233-3.425 1.637.334 2.767 1.854 2.767 3.525v1.4zm-4 3h-2v2h2zm0-4.5c0-.551-.449-1-1-1s-1 .449-1 1v1.5h2z"/></svg>