<?xml version="1.0" encoding="UTF-8"?>
<svg xmlns="http://www.w3.org/2000/svg" id="Layer_1" data-name="Layer 1" viewBox="0 0 24 24">
  <path d="M24,1.914l-2.086,2.086h2.086v2h-5v-1.914l2.086-2.086h-2.086V0h5V1.914Zm0,13.085c0,4.963-4.037,9-9,9h-3c-4.135,0-9.575-2.002-11.778-5.471-.274-.608-.296-1.288-.061-1.913,.236-.624,.701-1.119,1.311-1.395,1.22-.551,2.664-.033,3.263,1.155,2.576,4.288,7.357,4.623,8.766,4.623h1.5c3.309,0,6-2.691,6-6s-2.691-6-6-6h-.122c.067,.356,.106,.722,.106,1.097,0,.708-.132,1.384-.361,2.013,.449-.07,.908-.11,1.377-.11h1v3h-1c-2.424,0-4.511,1.447-5.457,3.52-.868-.284-1.792-.737-2.628-1.448,.187-.382,.401-.749,.637-1.099-1.886-.169-3.516-1.229-4.472-2.755L.066,6.721l4.057,.185c.935-1.447,2.483-2.461,4.275-2.669L10.08,.471l3.409,5.529h1.511c4.963,0,9,4.037,9,9Zm-12.016-4.902c0-1.601-1.302-2.902-2.902-2.902s-2.903,1.302-2.903,2.902,1.303,2.902,2.903,2.902,2.902-1.302,2.902-2.902Z"/>
</svg>
