<svg id="Layer_1" viewBox="0 0 24 24" xmlns="http://www.w3.org/2000/svg" data-name="Layer 1"><path d="m22 19h2v2c0 1.657-1.343 3-3 3h-18c-1.657 0-3-1.343-3-3v-2h2v-13h8.404c-.259.787-.404 1.626-.404 2.5 0 .169.015.334.025.5h-5.025v10h3.308l.923 1h5.538l.923-1h3.308v-2.569c1.083-.135 2.096-.486 3-1.01zm-4-4.5c3.309 0 6-2.691 6-6 0-1.199-.357-2.314-.965-3.253l-2.279 2.071c.156.363.244.762.244 1.182 0 1.654-1.346 3-3 3s-3-1.346-3-3c0-1.302.839-2.402 2-2.816v2.434l3.583-3.159c.556-.48.556-1.32 0-1.8l-3.583-3.159v2.59c-2.833.478-5 2.942-5 5.91 0 3.309 2.691 6 6 6z"/></svg>