<?xml version="1.0" encoding="UTF-8"?>
<svg xmlns="http://www.w3.org/2000/svg" id="Layer_1" data-name="Layer 1" viewBox="0 0 24 24">
  <path d="m23.635,19.183c.494.443.494,1.217,0,1.66l-3.65,3.157v-2.484h-2.979v-3h2.979v-2.516l3.65,3.183ZM4.026,8v-2.484h2.98v-3h-2.98V0L.376,3.183c-.494.443-.494,1.217,0,1.66l3.65,3.157Zm2.98.5C7.005,3.813,10.818,0,15.505,0s8.5,3.813,8.5,8.5-3.813,8.5-8.5,8.5-8.5-3.813-8.5-8.5Zm3,0c0,3.033,2.467,5.5,5.5,5.5s5.5-2.467,5.5-5.5-2.467-5.5-5.5-5.5-5.5,2.467-5.5,5.5Zm2.648,10.098c-.937,1.442-2.555,2.402-4.399,2.402-2.895,0-5.25-2.355-5.25-5.25,0-1.844.96-3.462,2.402-4.399-.256-.908-.402-1.862-.402-2.851,0-.114.013-.225.017-.339C2.076,9.422.005,12.348.005,15.75.005,20.299,3.706,24,8.255,24c3.402,0,6.328-2.071,7.589-5.017-.113.004-.224.017-.339.017-.99,0-1.943-.146-2.851-.402Zm2.119-6.598h-1.575v-7.004h1.575v-.996h1.6v1.021c1.07.122,1.904,1.019,1.904,2.122,0,.474-.158.908-.419,1.263.352.382.572.888.572,1.449,0,1.155-.914,2.09-2.057,2.137v1.009h-1.6v-1Zm1.339-2.961h-1.668v1.715h1.668c.474,0,.858-.384.858-.858h0c0-.474-.384-.858-.858-.858Zm0-2.794h-1.668v1.715h1.668c.474,0,.858-.384.858-.858h0c0-.474-.384-.858-.858-.858Z"/>
</svg>
