<svg id="Layer_1" viewBox="0 0 24 24" xmlns="http://www.w3.org/2000/svg" data-name="Layer 1"><path d="m9.879 12.743h.622v2.257h2.999v-2.257h.622l1.757 1.379 1.121-1.121c0-2-.424-3.42-1.732-4.728-.15-2.981-1.136-5.525-2.068-7.51-.131-.279-.356-.504-.636-.636-.663-.312-1.452-.027-1.764.636-.927 1.972-1.919 4.456-2.065 7.466-1.331 1.331-1.734 2.772-1.734 4.772l1.121 1.121zm2.121-5.743c.829 0 1.5.672 1.5 1.5s-.672 1.5-1.5 1.5-1.5-.672-1.5-1.5.671-1.5 1.5-1.5zm12 12v2c0 1.657-1.343 3-3 3h-18c-1.657 0-3-1.343-3-3v-2h2v-13h4.977c-.078.458-.146.925-.19 1.41-.392.489-.702 1.025-.946 1.59h-.841v10h3.308l.923 1h5.538l.923-1h3.308v-10h-.857c-.242-.549-.546-1.071-.928-1.548-.046-.499-.117-.98-.199-1.452h4.984v13z"/></svg>