<?xml version="1.0" encoding="UTF-8"?>
<svg xmlns="http://www.w3.org/2000/svg" id="Layer_1" data-name="Layer 1" viewBox="0 0 24 24">
  <path d="m5,9.125l-5,1.875v-3.203l5-1.875v3.204Zm0-7.25L0,0v3.203l5,1.875V1.875Zm12,6.49l2,11.135v4.5H5l.024-4.769,1.976-10.866V2.5L12,0l5,2.5v5.865Zm-7.007-3.365l-.009,2h4.016v-2h-4.007Zm6.007,14.635l-1.731-9.635h-4.518l-1.752,9.635v1.365h2v-2c0-1.105.895-2,2-2s2,.895,2,2v2h2v-1.365Zm3-10.51l5,1.875v-3.203l-5-1.875v3.204Zm0-7.25v3.204l5-1.875V0l-5,1.875Z"/>
</svg>
