<?xml version="1.0" encoding="UTF-8"?>
<svg xmlns="http://www.w3.org/2000/svg" id="Layer_1" data-name="Layer 1" viewBox="0 0 24 24">
  <path d="M22.988,18.715l-4.397,4.262c-1.365,1.365-3.585,1.365-4.956-.006l-.249-.251,9.346-9.246,.272,.275c1.322,1.323,1.338,3.613-.017,4.966ZM1.283,10.644L10.528,1.298l-.275-.272c-1.323-1.322-3.613-1.338-4.966,.017L1.025,5.439c-1.365,1.365-1.365,3.585,.006,4.956l.251,.249Zm21.692-.391l-12.585,12.721c-1.302,1.359-3.647,1.359-4.95,0L1.042,18.713c-1.377-1.319-1.38-3.649-.017-4.966L13.605,1.031c1.332-1.332,3.633-1.328,4.955-.005l4.397,4.261c1.382,1.381,1.382,3.602,.017,4.966Zm-12.475-1.253c0,.828,.672,1.5,1.5,1.5s1.5-.672,1.5-1.5-.672-1.5-1.5-1.5-1.5,.672-1.5,1.5Zm-3,3c0,.828,.672,1.5,1.5,1.5s1.5-.672,1.5-1.5-.672-1.5-1.5-1.5-1.5,.672-1.5,1.5Zm3.036,6.559l-5.08-5.025-2.304,2.328c-.214,.287-.215,.428-.007,.712l4.398,4.263c.299,.227,.43,.228,.721,.019l2.272-2.296Zm2.964-3.559c0-.828-.672-1.5-1.5-1.5s-1.5,.672-1.5,1.5,.672,1.5,1.5,1.5,1.5-.672,1.5-1.5Zm3-3c0-.828-.672-1.5-1.5-1.5s-1.5,.672-1.5,1.5,.672,1.5,1.5,1.5,1.5-.672,1.5-1.5Zm4.354-4.576l-4.397-4.261c-.3-.228-.43-.228-.723-.017l-2.32,2.345,5.08,5.025,2.354-2.379c.201-.201,.201-.518,.006-.713Z"/>
</svg>
