<?xml version="1.0" encoding="UTF-8"?>
<svg xmlns="http://www.w3.org/2000/svg" id="Layer_1" data-name="Layer 1" viewBox="0 0 24 24">
  <path d="m19.5,15H4.5c-2.481,0-4.5,2.019-4.5,4.5s2.019,4.5,4.5,4.5h15c2.481,0,4.5-2.019,4.5-4.5s-2.019-4.5-4.5-4.5Zm-4.243,3c-.166.469-.257.974-.257,1.5s.091,1.031.257,1.5h-6.515c.166-.469.257-.974.257-1.5s-.091-1.031-.257-1.5h6.515Zm-12.257,1.5c0-.827.673-1.5,1.5-1.5s1.5.673,1.5,1.5-.673,1.5-1.5,1.5-1.5-.673-1.5-1.5Zm16.5,1.5c-.827,0-1.5-.673-1.5-1.5s.673-1.5,1.5-1.5,1.5.673,1.5,1.5-.673,1.5-1.5,1.5Zm-.5-17.5c0-1.93-1.57-3.5-3.5-3.5h-7c-1.93,0-3.5,1.57-3.5,3.5v9.5h14V3.5Zm-3,6.5h-8V3.5c0-.276.225-.5.5-.5h2v3h3v-3h2c.275,0,.5.224.5.5v6.5Z"/>
</svg>
