<?xml version="1.0" encoding="UTF-8"?>
<svg xmlns="http://www.w3.org/2000/svg" id="Layer_1" data-name="Layer 1" viewBox="0 0 24 24">
  <path d="m4.949,8.574c-1.421,0-4.949-2.572-4.949-2.572,0,0,3.528-2.572,4.948-2.572.631,0,1.547.508,2.369,1.073h1.489c-.037-.033-.074-.067-.109-.102-.853-.853-1.312-4.399-1.312-4.399,0,0,3.597.509,4.449,1.362.571.571,1.325,2.158,1.76,3.142h1.675c-.038-.033-.075-.068-.111-.104-.853-.853-1.312-4.399-1.312-4.399,0,0,3.597.509,4.449,1.362.572.572,1.326,2.159,1.761,3.143h3.941v3.001h-3.951c-.45.999-1.229,2.615-1.803,3.189-.854.854-4.397,1.306-4.397,1.306,0,0,.452-3.543,1.306-4.397.034-.034.069-.067.105-.099h-1.673c-.45.999-1.23,2.617-1.804,3.19-.854.854-4.397,1.306-4.397,1.306,0,0,.452-3.543,1.306-4.397.035-.035.07-.068.107-.101h-1.482c-.822.564-1.737,1.072-2.368,1.072Zm18.801,8.646c-1.626,3.65-5.945,6-7.596,6.78H7.846c-1.65-.779-5.97-3.129-7.595-6.779h0c-.413-.93-.327-1.995.229-2.85.558-.858,1.5-1.371,2.521-1.371h18c1.021,0,1.964.512,2.521,1.371.556.855.642,1.92.229,2.85Zm-2.741-1.219H3s-.008.002-.008.002c.95,2.13,3.426,3.947,5.534,4.997h6.947c2.109-1.05,4.586-2.868,5.535-4.999Z"/>
</svg>
