<?xml version="1.0" encoding="UTF-8"?>
<svg xmlns="http://www.w3.org/2000/svg" id="Layer_1" data-name="Layer 1" viewBox="0 0 24 24">
  <path d="m13.237,11.359l5.763,3.641v7h-2v-5.736l-3.763,2.378c-.757.478-1.717.478-2.473,0l-5.763-3.641,5.763-3.641c.757-.478,1.717-.478,2.473,0Zm10.763-7.859v18.5h-3V7H3v12h3v3H0V3.5C0,1.57,1.57,0,3.5,0h17c1.93,0,3.5,1.57,3.5,3.5Zm-18,0c0-.828-.672-1.5-1.5-1.5s-1.5.672-1.5,1.5.672,1.5,1.5,1.5,1.5-.672,1.5-1.5Zm5,0c0-.828-.672-1.5-1.5-1.5s-1.5.672-1.5,1.5.672,1.5,1.5,1.5,1.5-.672,1.5-1.5Zm1,17.495c-.802,0-1.604-.221-2.304-.662l-1.696-1.072v3.284s1.143,1.455,4,1.455,4-1.455,4-1.455v-3.284l-1.695,1.071c-.7.442-1.502.663-2.305.663Z"/>
</svg>
