<?xml version="1.0" encoding="UTF-8"?>
<svg xmlns="http://www.w3.org/2000/svg" id="Layer_1" data-name="Layer 1" viewBox="0 0 24 24">
  <path d="m17,10.5c0,.828-.672,1.5-1.5,1.5s-1.5-.672-1.5-1.5.672-1.5,1.5-1.5,1.5.672,1.5,1.5Zm-8.5-1.5c-.828,0-1.5.672-1.5,1.5s.672,1.5,1.5,1.5,1.5-.672,1.5-1.5-.672-1.5-1.5-1.5Zm11.153-4.043l2.082,5.52c.759,2.165-.202,4.535-2.223,5.546l-1.722.614-1.577,7.362H7.788l-1.578-7.362-1.723-.614c-2.02-1.011-2.98-3.381-2.234-5.513l2.094-5.553C1.898,4.637,0,2.536,0,0h3c0,1.103.897,2,2,2h14c1.103,0,2-.897,2-2h3c0,2.536-1.898,4.637-4.347,4.957Zm-.738,6.544l-2.452-6.502H7.537l-2.465,6.536c-.228.653.062,1.411.688,1.767l3.03,1.06,1.422,6.638h3.575l1.423-6.638,3.03-1.06c.625-.355.915-1.115.675-1.801Z"/>
</svg>
