<?xml version="1.0" encoding="UTF-8"?>
<svg xmlns="http://www.w3.org/2000/svg" id="Layer_1" data-name="Layer 1" viewBox="0 0 24 24">
  <path d="M21,15v9h-3v-6h-4.5c-1.93,0-3.5-1.57-3.5-3.5v-4.776l-1.805,1.274,1.194,2.938-2.779,1.129-1.61-3.96v-1.522l3.835-2.707c.739-.555,1.698-.875,2.665-.875,1.93,0,3.5,1.57,3.5,3.5v5.5h6ZM12.5,5c1.381,0,2.5-1.119,2.5-2.5s-1.119-2.5-2.5-2.5-2.5,1.119-2.5,2.5,1.119,2.5,2.5,2.5Zm-4.051,16H3v3h7.551l1.525-4.194c-1.019-.274-1.92-.832-2.616-1.587l-1.011,2.781Z"/>
</svg>
