<?xml version="1.0" encoding="UTF-8"?>
<svg xmlns="http://www.w3.org/2000/svg" id="Layer_1" data-name="Layer 1" viewBox="0 0 24 24">
  <path d="m8.092,2.5c0-1.381,1.119-2.5,2.5-2.5s2.5,1.119,2.5,2.5-1.119,2.5-2.5,2.5-2.5-1.119-2.5-2.5Zm-3.657,6.5h1.342l-.647,1.581c-.523,1.094-.176,2.442.861,3.351l3.102,2.744v3.324h3v-4.676l-3.22-2.849.931-2.27,1.495,1.794h3.703v-3h-2.297l-1.151-1.381c-.857-1.029-2.118-1.619-3.457-1.619H2.642l-2.08,3.871,2.643,1.42,1.231-2.291Zm-.918,5H1v3h5.092l.093-.225-1.52-1.344c-.48-.422-.857-.91-1.147-1.431Zm13.482-5v3h3.564l-3.131,9H0v3h19.566l4.434-12.746v-2.254h-7Z"/>
</svg>
