<svg id="Layer_1" viewBox="0 0 24 24" xmlns="http://www.w3.org/2000/svg" data-name="Layer 1"><path d="m23.996 21.875-5.956-5.956c1.225-1.66 1.959-3.703 1.959-5.92.001-5.513-4.485-9.999-9.999-9.999s-10 4.486-10 10 4.486 10 10 10c2.217 0 4.26-.734 5.92-1.959l5.956 5.956 2.121-2.121zm-11.619-7.875c-.605.616-1.445 1-2.377 1s-1.772-.384-2.377-1h-.623v1h-2v-1c0-1.001.742-1.825 1.703-1.97-.013-.121-.037-.239-.037-.363 0-.186.025-.418.059-.667h-1.726v-2h2.145c.093-.361.185-.698.272-1h-.416c-1.103 0-2-.897-2-2v-1h2v1h1.19c.398-.609.96-1 1.81-1 .896 0 1.431.318 1.837 1h1.163v-1h2v1c0 1.103-.897 2-2 2h-.415c.086.302.179.639.271 1h2.144v2h-1.726c.034.249.059.481.059.667 0 .125-.023.242-.037.363.961.145 1.703.969 1.703 1.97v1h-2v-1h-.623zm-1.981-6.331c.286.849.937 3.24.937 3.998 0 .735-.598 1.333-1.333 1.333s-1.333-.598-1.333-1.333c0-.717.617-3.034.94-4.007.088-.266.169-.431.225-.529.05-.088.116-.131.169-.131.117 0 .16.081.191.145.053.111.123.277.206.523z"/></svg>