<?xml version="1.0" encoding="UTF-8"?>
<svg xmlns="http://www.w3.org/2000/svg" id="Layer_1" data-name="Layer 1" viewBox="0 0 24 24">
  <path d="m20.5,0H3.5C1.57,0,0,1.57,0,3.5v20.5h24V3.5c0-1.93-1.57-3.5-3.5-3.5Zm.5,21H3V3.5c0-.275.224-.5.5-.5h17c.276,0,.5.225.5.5v17.5ZM10,4.75h1v2.5h-1c-.414,0-.75.337-.75.75v3h1.75v2.5h-1.75v5.5h-2.5v-5.5h-1.75v-2.5h1.75v-3c0-1.792,1.458-3.25,3.25-3.25Zm9.687,6.25l-2.446,4,2.446,4h-2.931l-.981-1.604-.981,1.604h-2.931l2.446-4-2.446-4h2.931l.981,1.604.981-1.604h2.931Z"/>
</svg>
