<?xml version="1.0" encoding="UTF-8"?>
<svg xmlns="http://www.w3.org/2000/svg" id="Layer_1" data-name="Layer 1" viewBox="0 0 24 24">
  <path d="m22.732,9.013c-.768-.699-1.764-1.056-2.797-1.008-1.036.048-1.992.498-2.69,1.265l-2.438,2.679c-.646-.589-1.507-.949-2.449-.949H3.5c-1.93,0-3.5,1.57-3.5,3.5v6c0,1.93,1.57,3.5,3.5,3.5h11.181l8.335-9.532c1.409-1.581,1.282-4.028-.283-5.455Zm-1.966,3.47l-7.447,8.518H3.5c-.276,0-.5-.225-.5-.5v-6c0-.275.224-.5.5-.5h8.858c.354,0,.642.288.642.643,0,.317-.237.591-.551.635l-5.161.737.424,2.971,5.16-.737c1.619-.231,2.877-1.53,3.095-3.116l3.497-3.843c.159-.175.376-.277.612-.288.23-.01.463.071.636.229.356.325.385.882.055,1.252Zm-6.767-4.482H3V0l2.75,3,2.75-3,2.75,3,2.75-3v8Z"/>
</svg>
