<svg id="Layer_1" viewBox="0 0 24 24" xmlns="http://www.w3.org/2000/svg" data-name="Layer 1"><path d="m13.5 13.5h4.916c.52.893 1.476 1.5 2.584 1.5 1.657 0 3-1.343 3-3s-1.343-3-3-3c-1.108 0-2.064.607-2.584 1.5h-4.916c-.132 0-.26-.053-.354-.146l-2.689-2.689 1.518-1.518c.094-.093.222-.146.354-.146h6.088c.52.893 1.476 1.5 2.584 1.5 1.657 0 3-1.343 3-3s-1.343-3-3-3c-1.108 0-2.064.607-2.584 1.5h-6.088c-.935 0-1.813.364-2.475 1.025l-1.518 1.518-2.355-2.355c.153-1.713-1.186-3.188-2.93-3.188-1.657-.001-3.051 1.342-3.051 2.999s1.343 3 3 3c.453 0 .878-.108 1.263-.288l1.952 1.952-1.739 1.739c-.437-.249-.936-.403-1.476-.403-1.657 0-3 1.343-3 3s1.343 3 3 3c.539 0 1.038-.154 1.476-.403l1.739 1.739-1.952 1.952c-.385-.18-.81-.288-1.263-.288-1.657 0-3 1.343-3 3s1.394 3 3.051 3c1.821 0 3.083-1.475 2.93-3.188l2.355-2.355 1.518 1.518c.661.661 1.54 1.025 2.475 1.025h6.088c.52.893 1.476 1.5 2.584 1.5 1.657 0 3-1.343 3-3s-1.343-3-3-3c-1.108 0-2.064.607-2.584 1.5h-6.088c-.132 0-.26-.053-.354-.146l-1.518-1.518 2.689-2.689c.094-.093.222-.146.354-.146zm-7.379-1.5 2.215-2.215 2.215 2.215-2.215 2.215z"/></svg>