<?xml version="1.0" encoding="UTF-8"?>
<svg xmlns="http://www.w3.org/2000/svg" id="Layer_1" data-name="Layer 1" viewBox="0 0 24 24">
  <path d="M20.5,5.003h-1.5v-1.501c0-.935-.364-1.814-1.025-2.475C17.314,.365,16.436,.001,15.501,.001h-.001L3.5,.005C1.623-.034-.04,1.631,0,3.507l.005,13.622c-.018,1.226,1.221,2.157,2.391,1.796l3.604-1.503v4.581h11l4.443,1.863c1.189,.5,2.576-.448,2.551-1.739l.005-13.625c0-1.93-1.57-3.5-3.5-3.5ZM3,3.506c.051-.341,.16-.45,.5-.501l12-.004h0c.345,.051,.448,.154,.5,.5V14.005H6.396l-3.392,1.422-.005-11.921ZM20.995,20.425l-3.392-1.422H9v-1.998h10V8.003h1.5c.276,0,.5,.224,.5,.499l-.005,11.923ZM10.3,6.6h-1.7v-1.6h5v1.6h-1.7v5.4h-1.6V6.6Zm-2.7,5.4h-1.6V5h1.6v7Z"/>
</svg>
