<?xml version="1.0" encoding="UTF-8"?>
<svg xmlns="http://www.w3.org/2000/svg" id="Layer_1" data-name="Layer 1" viewBox="0 0 24 24">
  <path d="m16.707,7.707l-.793.793.793.793-1.414,1.414-.793-.793-.793.793-1.414-1.414.793-.793-.793-.793,1.414-1.414.793.793.793-.793,1.414,1.414Zm-6.414-1.414l-.793.793-.793-.793-1.414,1.414.793.793-.793.793,1.414,1.414.793-.793.793.793,1.414-1.414-.793-.793.793-.793-1.414-1.414Zm6.207,10.707H7.5c-2.481,0-4.5,2.019-4.5,4.5v2.5h3v-2.5c0-.827.673-1.5,1.5-1.5h9c.827,0,1.5.673,1.5,1.5v2.5h3v-2.5c0-2.481-2.019-4.5-4.5-4.5Zm5.5-11v5h-2v4H4v-4h-2v-5h2v-.5c0-1.93,1.57-3.5,3.5-3.5h3V0h3v2h3c1.93,0,3.5,1.57,3.5,3.5v.5h2Zm-5-.5c0-.276-.225-.5-.5-.5H7.5c-.275,0-.5.224-.5.5v6.5h10v-6.5Z"/>
</svg>
