<?xml version="1.0" encoding="UTF-8"?>
<svg xmlns="http://www.w3.org/2000/svg" id="Layer_1" data-name="Layer 1" viewBox="0 0 24 24" width="512" height="512"><path d="m12.748.024c-3.079-.202-6.01.84-8.257,2.943C2.272,5.043,1,7.971,1,11v5.5c0,1.93,1.57,3.5,3.5,3.5h.5v4h14v-4h.5c1.93,0,3.5-1.57,3.5-3.5v-5.165C23,5.377,18.497.409,12.748.024Zm7.252,16.476c0,.275-.224.5-.5.5h-3.5v4h-8v-4h-3.5c-.276,0-.5-.225-.5-.5v-5.5c0-2.234.902-4.31,2.54-5.842,1.635-1.53,3.764-2.294,6.008-2.14,4.179.278,7.452,3.932,7.452,8.316v5.165Zm-12-7.5c-1.103,0-2,.897-2,2s.897,2,2,2,2-.897,2-2-.897-2-2-2Zm8,0c-1.103,0-2,.897-2,2s.897,2,2,2,2-.897,2-2-.897-2-2-2Zm-2,8c0,1.105-.895,1-2,1s-2,.105-2-1,.895-3,2-3,2,1.895,2,3Z"/></svg>
