<svg id="Layer_1" viewBox="0 0 24 24" xmlns="http://www.w3.org/2000/svg" data-name="Layer 1"><path d="m5.239 5h7.524c-.55 1.831-1.96 3.287-3.184 4.261l-.566.45-.576-.456c-1.229-.973-2.644-2.427-3.197-4.255zm18.761 12c0 3.866-3.134 7-7 7s-7-3.134-7-7 3.134-7 7-7 7 3.134 7 7zm-9-1.876c0-.344.28-.624.624-.624h2.376c.552 0 1 .449 1 1h2c0-1.654-1.346-3-3-3v-1h-2v1h-.376c-1.447 0-2.624 1.177-2.624 2.624 0 1.288.922 2.377 2.192 2.588l3.286.548c.302.05.521.309.521.616 0 .344-.28.624-.624.624h-2.376c-.551 0-1-.449-1-1h-2c0 1.654 1.346 3 3 3v1h2v-1h.376c1.447 0 2.624-1.177 2.624-2.624 0-1.288-.923-2.377-2.193-2.588l-3.286-.548c-.302-.05-.521-.309-.521-.616zm-6.053 5.876h-5.947v-.409c0-3.384 2.282-5.899 4.195-7.415l1.487-1.176-1.487-1.177c-1.914-1.514-4.195-4.028-4.195-7.414 0-.225.184-.408.409-.408h11.182c.226 0 .409.183.409.408 0 2.361-1.11 4.288-2.425 5.759 1.292-.732 2.78-1.155 4.368-1.165.64-1.345 1.057-2.872 1.057-4.594 0-.104-.011-.205-.031-.303-.156-1.736-1.602-3.106-3.379-3.106h-11.181c-1.88 0-3.409 1.53-3.409 3.409 0 3.756 1.946 6.62 3.987 8.591-2.041 1.973-3.987 4.837-3.987 8.591v3.409h11.349c-1.003-.811-1.822-1.835-2.402-3z"/></svg>