<?xml version="1.0" encoding="UTF-8"?>
<svg xmlns="http://www.w3.org/2000/svg" id="Layer_1" data-name="Layer 1" viewBox="0 0 24 24">
  <path d="m20.975,3.854l-2.828-2.828c-.661-.661-1.54-1.025-2.475-1.025h-6.172c-1.93,0-3.5,1.57-3.5,3.5v15.5h16V6.328c0-.935-.364-1.813-1.025-2.475Zm-1.975,12.146h-10V3.5c0-.275.224-.5.5-.5h6.172c.132,0,.26.054.354.146l2.828,2.828c.093.094.146.222.146.354v9.672Zm-15,5h13v3H1v-15.5c0-1.758,1.308-3.204,3-3.449v15.949Zm10-10h-4v-1.5c0-.828.672-1.5,1.5-1.5h2.5v3Zm4-1.5v1.5h-3v-3h1.5c.828,0,1.5.672,1.5,1.5Zm-8,2.5h3v3h-1.5c-.828,0-1.5-.672-1.5-1.5v-1.5Zm4,0h4v1.5c0,.828-.672,1.5-1.5,1.5h-2.5v-3Z"/>
</svg>
