<?xml version="1.0" encoding="UTF-8"?>
<svg xmlns="http://www.w3.org/2000/svg" id="Layer_1" data-name="Layer 1" viewBox="0 0 24 24" width="512" height="512"><path d="M7.769,9.892c-.828,.561-1.923,2.511-1.923,2.511-.915-1.351-1.416-3.872,.24-4.994,1.656-1.122,3.812,.278,4.727,1.629,0,0-2.217,.294-3.044,.855Zm10.144-2.484c-1.656-1.122-3.812,.278-4.727,1.629,0,0,2.217,.294,3.044,.855,.828,.561,1.923,2.511,1.923,2.511,.915-1.351,1.416-3.872-.24-4.994ZM12,0C5.383,0,0,5.383,0,12c0,5.58,3.833,10.268,9,11.605v-3.13c-3.49-1.239-6-4.565-6-8.475C3,7.037,7.038,3,12,3s9,4.037,9,9c0,1.479-.365,2.872-1,4.104v4.815c2.448-2.198,4-5.377,4-8.919C24,5.383,18.617,0,12,0Zm0,15c-2.133,0-3.987-1.606-4-1.618l-1.999,2.236c.098,.088,2.194,1.926,5,2.308v2.574c0,.828,.672,1.5,1.5,1.5s1.5-.672,1.5-1.5v-2.69c.332-.055,.663-.102,1-.182v4.872c0,.828,.672,1.5,1.5,1.5s1.5-.672,1.5-1.5V13.398l-2.043,.793c-1.362,.529-2.73,.809-3.957,.809Z"/></svg>
