<?xml version="1.0" encoding="UTF-8"?>
<svg xmlns="http://www.w3.org/2000/svg" id="Layer_1" data-name="Layer 1" viewBox="0 0 24 24">
  <path d="m24,12c0-1.915-1.352-3.519-3.151-3.909.098-.347.151-.713.151-1.091,0-2.206-1.794-4-4-4h-.958c-1.003-1.601-2.715-3-4.542-3h-1.5v1.5c0,.566-.069,1.068-.206,1.5h-2.794c-2.206,0-4,1.794-4,4,0,.378.053.744.151,1.091-1.799.39-3.151,1.995-3.151,3.909,0,2.014,1.502,3.669,3.441,3.943l.216.557c1.488,2.482,4.026,2.55,6.842,2.515v1.985h-3.5v3h10v-3h-3.5v-1.985c2.817.035,5.354-.033,6.842-2.515l.216-.557c1.94-.275,3.441-1.929,3.441-3.943Zm-20-1h9v-3h-6c-.551,0-1-.449-1-1s.449-1,1-1h4.576l.441-.703c.311-.496.549-1.046.712-1.646.403.372.791.879,1.046,1.457l.395.892h2.829c.551,0,1,.449,1,1s-.449,1-1,1v3h3c.551,0,1,.449,1,1s-.449,1-1,1H4c-.551,0-1-.449-1-1s.449-1,1-1Z"/>
</svg>
