<?xml version="1.0" encoding="UTF-8"?>
<svg xmlns="http://www.w3.org/2000/svg" id="Layer_1" data-name="Layer 1" viewBox="0 0 24 24">
  <path d="m4.939,7.061l-3-3,2.121-2.121,3,3-2.121,2.121ZM11,0h-3v4h3V0Zm-7,8H0v3h4v-3Zm12.939,11.061l3,3,2.121-2.121-3-3-2.121,2.121Zm-3.939,4.939h3v-4h-3v4Zm7-8h4v-3h-4v3Zm-7.642-2.236l-.957.957c.361.699.573,1.47.573,2.28,0,1.336-.52,2.592-1.464,3.535l-1.968,1.993c-.951.951-2.207,1.472-3.542,1.472s-2.591-.521-3.536-1.465c-.944-.943-1.464-2.199-1.464-3.535s.521-2.592,1.465-3.536l1.967-1.992c.951-.951,2.207-1.472,3.542-1.472.823,0,1.605.219,2.313.592l.949-.949,2.121,2.121Zm-3.399,3.399l-.898.898-2.121-2.121.929-.929c-.494.026-.956.223-1.308.576l-1.968,1.993c-.385.385-.593.887-.593,1.421s.208,1.036.585,1.413c.757.758,2.073.757,2.828,0l1.969-1.993c.345-.345.538-.786.576-1.258Zm2.682-6.925l.941-.941c-.367-.704-.582-1.48-.582-2.296,0-1.336.52-2.592,1.464-3.535l2-2c1.949-1.949,5.122-1.949,7.071,0,.944.943,1.464,2.199,1.464,3.535s-.52,2.592-1.464,3.535l-2,2c-.975.975-2.255,1.462-3.536,1.462-.792,0-1.575-.209-2.294-.582l-.943.943-2.121-2.121Zm3.372-3.372l.926-.926,2.121,2.121-.925.925c.466-.031.924-.216,1.279-.572l2-2c.377-.378.585-.88.585-1.414s-.208-1.036-.585-1.414c-.39-.39-.902-.585-1.415-.585s-1.024.195-1.415.585l-2,2c-.345.346-.54.797-.572,1.28Z"/>
</svg>
