<?xml version="1.0" encoding="UTF-8"?>
<svg xmlns="http://www.w3.org/2000/svg" id="Layer_1" data-name="Layer 1" viewBox="0 0 24 24">
  <path d="m24,7.5v-1.5l-2.158-.925c-.651-2.901-3.248-5.075-6.342-5.075-3.584,0-6.5,2.916-6.5,6.5,0,1.164.308,2.257.846,3.203-1.476,1.486-3.964,3.414-4.856,3.414-.19-.063-.682-.715-1.007-1.146l-1.788-2.281-1.061,2.19c-1.504,3.108-1.522,6.112-.052,8.458,1.459,2.327,4.267,3.661,7.702,3.661h6.613c2.767,0,5.281-1.432,6.564-3.735.66-1.185,1.01-2.441,1.038-3.731.051-2.305-1.242-4.505-2.448-5.949.498-.615.887-1.323,1.135-2.093l2.312-.991ZM15.5,3c1.93,0,3.5,1.57,3.5,3.5s-1.57,3.5-3.5,3.5-3.5-1.57-3.5-3.5,1.57-3.5,3.5-3.5Zm4.5,13.467c-.017.797-.239,1.583-.659,2.337-.754,1.354-2.265,2.195-3.943,2.195h-6.613c-2.416,0-4.249-.801-5.16-2.255-.573-.914-.752-2.042-.539-3.298.521.403,1.134.67,1.915.67,2.142,0,5.112-2.445,6.876-4.224,1.036.698,2.283,1.106,3.624,1.106.954,0,1.861-.207,2.678-.578.893,1.048,1.854,2.639,1.822,4.045Zm-3.75.033c0,1.381-1.119,2.5-2.5,2.5-3.25,0-5.25-1.5-5.25-1.5,0,0,3-3.5,5.25-3.5,1.381,0,2.5,1.119,2.5,2.5Z"/>
</svg>
