<svg id="Layer_1" viewBox="0 0 24 24" xmlns="http://www.w3.org/2000/svg" data-name="Layer 1"><path d="m24 15v-11.5c0-1.93-1.57-3.5-3.5-3.5h-17c-1.93 0-3.5 1.57-3.5 3.5v11.5h10.5v2.35c-.723.345-1.305.927-1.65 1.65h-8.85v3h8.85c.563 1.179 1.756 2 3.15 2s2.587-.821 3.15-2h8.85v-3h-8.85c-.345-.723-.927-1.305-1.65-1.65v-2.35zm-3-11.5v2.5h-2v-3h1.5c.276 0 .5.224.5.5zm-17.5-.5h1.5v3h-2v-2.5c0-.276.224-.5.5-.5zm3.312 9h-3.812v-3h3c0-1.256.481-2.269.976-3 .426-.619.729-.919 1.024-1.226v-1.774h8v1.653c.38.41.736.86 1.047 1.347.557.873.953 1.865.953 3h3v3h-3.812c-1.039 1.79-2.973 3-5.188 3s-4.149-1.21-5.188-3zm5.188-8.333c-1.214 1.402-.97 4-1.812 4-.404 0-.858-1.391-.858-1.391-.663.685-1.33 1.574-1.33 2.725 0 2.209 1.791 4 4 4s4-1.791 4-4c0-2.316-2.737-4.07-4-5.333zm.884 7.967c-.244.244-.564.366-.883.366-.32 0-.64-.122-.884-.366-.488-.489-.488-1.28 0-1.767l.884-.884.884.884c.488.489.488 1.279 0 1.767z"/></svg>