<svg id="Layer_1" viewBox="0 0 24 24" xmlns="http://www.w3.org/2000/svg" data-name="Layer 1"><path d="m20.441 20.529c-2.521 2.511-6.057 3.766-9.598 3.412l1.219-2.944c2.363-.016 4.587-.937 6.268-2.599 1.722-1.705 2.67-3.976 2.67-6.397 0-4.963-4.037-9-9-9-2.404 0-4.663.936-6.363 2.635v.001c-1.675 1.675-2.604 3.894-2.631 6.258l-2.95 1.203c-.8-6.816 5.087-13.258 11.944-13.098 6.617 0 12 5.383 12 12 0 3.229-1.264 6.257-3.559 8.529zm-7.631-6.564-4.016 9.696c-4.046-1.289-7.202-4.46-8.47-8.512l9.715-3.969c.797-.325 1.704-.142 2.312.469s.788 1.52.458 2.315zm-3.572.783-4.887 1.997c.359.578.783 1.114 1.27 1.604.486.488 1.021.915 1.598 1.277l2.02-4.878zm-.238-6.248c0-.828-.672-1.5-1.5-1.5s-1.5.672-1.5 1.5.672 1.5 1.5 1.5 1.5-.672 1.5-1.5zm5.5-.5c-.828 0-1.5.672-1.5 1.5s.672 1.5 1.5 1.5 1.5-.672 1.5-1.5-.672-1.5-1.5-1.5zm-3-4c-.828 0-1.5.672-1.5 1.5s.672 1.5 1.5 1.5 1.5-.672 1.5-1.5-.672-1.5-1.5-1.5zm8.5 8.5c0-.828-.672-1.5-1.5-1.5s-1.5.672-1.5 1.5.672 1.5 1.5 1.5 1.5-.672 1.5-1.5zm-6 4c0 .828.672 1.5 1.5 1.5s1.5-.672 1.5-1.5-.672-1.5-1.5-1.5-1.5.672-1.5 1.5z"/></svg>