<?xml version="1.0" encoding="UTF-8"?>
<svg xmlns="http://www.w3.org/2000/svg" id="Layer_1" data-name="Layer 1" viewBox="0 0 24 24">
  <path d="m15.067,12h3.933V2.548c0-1.405-1.143-2.548-2.548-2.548H7.548c-1.405,0-2.548,1.143-2.548,2.548v9.452h3.965l1.693,1.492c.384.339.866.509,1.346.509.476,0,.95-.167,1.325-.498l1.737-1.503Zm-4.968-3h-2.099V3h8v6h-2.05l-1.944,1.681-1.907-1.681Zm4.956-3.894l-2.534,2.488c-.296.295-.688.443-1.08.443s-.789-.149-1.089-.449l-1.366-1.32,1.39-1.438,1.061,1.024,2.217-2.177,1.401,1.428ZM6,14c-2.761,0-5,2.239-5,5s2.239,5,5,5,5-2.239,5-5-2.239-5-5-5Zm1.784,7.667l-.411-1.2h-2.748l-.41,1.2h-1.237l1.723-5.131c.317-.721.748-.868,1.298-.869.55,0,.981.148,1.29.847l1.731,5.153h-1.237Zm-1.658-4.794c-.025-.003-.065-.006-.126-.006-.059,0-.098.003-.123.006-.014.02-.034.053-.058.104l-.783,2.29h1.927l-.79-2.31c-.019-.039-.035-.066-.046-.083Zm13.024.799c0-.33-.269-.6-.6-.6h-1.714c-.047,0-.086.039-.086.086v1.114h1.8c.331,0,.6-.27.6-.6Zm-1.15-3.672c-2.761,0-5,2.239-5,5s2.239,5,5,5,5-2.239,5-5-2.239-5-5-5Zm1.15,7.872h-2.314c-.709,0-1.286-.577-1.286-1.286v-3.429c0-.709.577-1.286,1.286-1.286h1.714c.993,0,1.8.807,1.8,1.8,0,.321-.084.622-.232.884.5.32.832.88.832,1.516,0,.993-.807,1.8-1.8,1.8Zm0-1.2c.331,0,.6-.27.6-.6s-.269-.6-.6-.6h-2.4v1.114c0,.047.038.086.086.086h2.314Z"/>
</svg>
