<?xml version="1.0" encoding="UTF-8"?>
<svg xmlns="http://www.w3.org/2000/svg" id="Layer_1" data-name="Layer 1" viewBox="0 0 24 24" width="512" height="512"><path d="m12,0C5.383,0,0,5.383,0,12s5.383,12,12,12,12-5.383,12-12S18.617,0,12,0Zm2.121,12l5.212-5.212c1.049,1.472,1.667,3.271,1.667,5.212s-.618,3.741-1.667,5.212l-5.212-5.212Zm3.091-7.333l-5.212,5.212-5.212-5.212c1.472-1.049,3.271-1.667,5.212-1.667s3.741.618,5.212,1.667Zm-12.546,2.121l5.212,5.212-5.212,5.212c-1.049-1.472-1.667-3.271-1.667-5.212s.618-3.741,1.667-5.212Zm2.121,12.546l5.212-5.212,5.212,5.212c-1.472,1.049-3.271,1.667-5.212,1.667s-3.741-.618-5.212-1.667Z"/></svg>
