<?xml version="1.0" encoding="UTF-8"?>
<svg xmlns="http://www.w3.org/2000/svg" id="Layer_1" data-name="Layer 1" viewBox="0 0 24 24">
  <path d="M3,3H13v2.384c.06-.068,.107-.144,.172-.209,.757-.758,1.761-1.175,2.827-1.175h0V0H0V21c0,1.657,1.343,3,3,3H13c1.657,0,3-1.343,3-3v-3H3V3Zm2.999,17h4v2.015H5.999v-2.015ZM21.999,6.001h-6c-1.1,0-2,.9-1.999,2l.002,7.911c0,.858,.949,1.378,1.672,.915l2.826-1.827h5.5v-6.999c0-1.105-.896-2-2.001-2Zm-2.999,7.5s-3-2.122-3-3.85c0-.911,.672-1.65,1.5-1.65s1.5,.739,1.5,1.65c0-.911,.672-1.65,1.5-1.65s1.5,.739,1.5,1.65c0,1.728-3,3.85-3,3.85Z"/>
</svg>
