<?xml version="1.0" encoding="UTF-8"?>
<svg xmlns="http://www.w3.org/2000/svg" id="Layer_1" data-name="Layer 1" viewBox="0 0 24 24">
  <path d="m4.962,19.058c.032,1.69.669,3.316,1.558,4.942-2.797-.746-4.691-3.98-4.455-6.727.199-1.726,1.523-3.192,2.686-4.062,1.206-.897,3.058-1.712,3.058-1.712l1.398,2.946c-1.868,1.021-4.244,2.035-4.244,4.611Zm18.037-.142c-.028-1.544-.83-3.199-2.386-4.922-1.4-1.55-2.829-4.668-3.871-6.944l-.42-.912c-1.068-2.3-1.322-2.846-1.322-6.138h-3c0,3.786.358,4.726,1.601,7.401l.413.897c1.124,2.454,2.663,5.814,4.373,7.707,1.041,1.151,1.613,2.215,1.613,2.994,0,.006.052.778-.325,1.213-.404.466-1.219.722-2.336.768-1.029-.049-1.622-.524-2.475-1.245-.489-.414-1.043-.883-1.729-1.271-1.214-.688-2.154-.534-2.729-.282-.691.301-1.028.824-1.115.978-.086.152-.362.71-.266,1.458.08.622.43,1.508,1.643,2.195,1.953,1.107,6.331,1.187,6.331,1.187.011,0,.5-.018.5-.018,1.978-.087,3.474-.688,4.442-1.804,1.125-1.297,1.098-2.796,1.057-3.263Z"/>
</svg>
