<?xml version="1.0" encoding="UTF-8"?>
<svg xmlns="http://www.w3.org/2000/svg" id="Layer_1" data-name="Layer 1" viewBox="0 0 24 24">
  <path d="m21.468,4.654l2.478-2.478L21.824.055l-2.477,2.478c-2.033-1.581-4.578-2.533-7.347-2.533s-5.314.952-7.346,2.532L2.176.055.055,2.176l2.478,2.478C.952,6.686,0,9.232,0,12c0,6.617,5.383,12,12,12s12-5.383,12-12c0-2.768-.951-5.314-2.532-7.346Zm-7.468-1.422v2.192c-.614-.269-1.288-.424-2-.424s-1.386.154-2,.424v-2.192c.644-.147,1.312-.232,2-.232s1.356.085,2,.232Zm0,6.768c0,1.103-.897,2-2,2s-2-.897-2-2,.897-2,2-2,2,.897,2,2Zm-2,11c-4.962,0-9-4.038-9-9,0-3.113,1.59-5.861,4-7.478v5.478c0,2.757,2.243,5,5,5s5-2.243,5-5v-5.478c2.41,1.617,4,4.365,4,7.478,0,4.962-4.037,9-9,9Z"/>
</svg>
