<svg id="Layer_1" viewBox="0 0 24 24" xmlns="http://www.w3.org/2000/svg" data-name="Layer 1"><path d="m8 13h-8v-3h8zm-2 2h-6v3h6zm-6 8h4v-3h-4zm23.965-18.005-2.671 18.005h-15.294v-3h12.706l1.632-11h-3.298l-.612 4h-6.428v-3h3.852l.918-6h-2.46l-.655 4h-3.03l.638-4h-2.549c-.348 0-.644.256-.693.601l-.577 3.399h-3.031l.601-3.566c.282-1.971 1.969-3.434 3.96-3.434h13.526c1.015 0 1.979.44 2.644 1.207s.964 1.783.821 2.788zm-3.182 1.005.213-1.438c.026-.188-.063-.326-.119-.39s-.179-.172-.377-.172h-2.695l-.306 2zm-7.986 9-.429 3h4.398l.429-3z"/></svg>