<?xml version="1.0" encoding="UTF-8"?>
<svg xmlns="http://www.w3.org/2000/svg" id="Layer_1" data-name="Layer 1" viewBox="0 0 24 24">
  <path d="M22.801,21l-.571-3.995c-.245-1.713-1.734-3.005-3.465-3.005h-1.766v-2H7v2h-1.766c-1.73,0-3.22,1.292-3.465,3.005l-.571,3.995H0v3H24v-3h-1.199Zm-18.061-3.571c.034-.244,.247-.429,.494-.429h13.531c.247,0,.46,.185,.494,.429l.51,3.571H4.23l.51-3.571ZM13.5,7h-3V0h3V7Zm5.061,2.561l-2.121-2.121,5-5,2.121,2.121-5,5Zm-13.121,0L.439,4.561,2.561,2.439,7.561,7.439l-2.121,2.121Z"/>
</svg>
