<?xml version="1.0" encoding="UTF-8"?>
<svg xmlns="http://www.w3.org/2000/svg" id="Layer_1" data-name="Layer 1" viewBox="0 0 24 24">
  <path d="M9.5,2.5c0-1.381,1.119-2.5,2.5-2.5s2.5,1.119,2.5,2.5-1.119,2.5-2.5,2.5-2.5-1.119-2.5-2.5Zm7.5,7v8.5h-1.5v6h-3v-6h-1v6h-3v-6h-1.5V9.5c0-1.93,1.57-3.5,3.5-3.5h3c1.93,0,3.5,1.57,3.5,3.5Zm-7,5.5h4v-5.5c0-.276-.225-.5-.5-.5h-3c-.276,0-.5,.224-.5,.5v5.5ZM.04,21.84l2.121,2.121,3.9-3.9-2.121-2.121L.04,21.84ZM23.961,2.161L21.84,.04l-3.9,3.9,2.121,2.121,3.9-3.9Zm-6.021,17.9l3.9,3.9,2.121-2.121-3.9-3.9-2.121,2.121ZM.04,2.161l3.9,3.9,2.121-2.121L2.161,.04,.04,2.161Z"/>
</svg>
