<?xml version="1.0" encoding="UTF-8"?>
<svg xmlns="http://www.w3.org/2000/svg" id="Layer_1" data-name="Layer 1" viewBox="0 0 24 24">
  <path d="M19.732,14.611c-1.039-1.039-2.42-1.611-3.889-1.611H6.964l-2.353-2.117,2.519-2.835c.921,1.752,2.756,2.952,4.87,2.952,2.132,0,3.98-1.222,4.893-3h1.107c.552,0,1-.448,1-1v-2c0-.552-.448-1-1-1h-.713c-.655-2.305-2.775-4-5.287-4S7.368,1.695,6.713,4h-.713c-.552,0-1,.448-1,1v.93L.389,11.117l5.611,5.051v2.832h3v-3h6v3h3v-1.878l3,3v3.879h3v-5.121l-4.268-4.268ZM12,3c1.378,0,2.5,1.121,2.5,2.5s-1.122,2.5-2.5,2.5-2.5-1.121-2.5-2.5,1.122-2.5,2.5-2.5ZM0,21H19v3H0v-3Z"/>
</svg>
