<?xml version="1.0" encoding="UTF-8"?>
<svg xmlns="http://www.w3.org/2000/svg" id="Layer_1" data-name="Layer 1" viewBox="0 0 24 24">
  <path d="M9.184,14h-2.083c.465-2.279,2.484-4,4.899-4,1.338,0,2.608,.542,3.534,1.466l1.466-1.466v3.5c0,.276-.224,.5-.5,.5h-3.5l1.121-1.121c-.556-.554-1.318-.879-2.121-.879-1.302,0-2.402,.839-2.816,2ZM24,5.5V24H0V5.5c0-1.93,1.57-3.5,3.5-3.5h2.5V0h3V2h6V0h3V2h2.5c1.93,0,3.5,1.57,3.5,3.5Zm-3,3.5H3v12H21V9Zm-9,11c2.414,0,4.434-1.721,4.899-4h-2.083c-.414,1.161-1.514,2-2.816,2-.803,0-1.564-.325-2.121-.879l1.121-1.121h-3.5c-.276,0-.5,.224-.5,.5v3.5l1.466-1.466c.927,.924,2.197,1.466,3.534,1.466Z"/>
</svg>
