<?xml version="1.0" encoding="UTF-8"?>
<svg xmlns="http://www.w3.org/2000/svg" id="Layer_1" data-name="Layer 1" viewBox="0 0 24 24">
  <path d="m15,16.018c0,1.657-1.343,3-3,3s-3-1.343-3-3,1.343-3,3-3,3,1.343,3,3Zm5-.037c0,4.411-3.589,8-8,8s-8-3.589-8-8c0-1.959.706-3.807,2-5.271v-4.692C6,2.71,8.691.019,12,.019s6,2.691,6,6v4.692c1.294,1.463,2,3.312,2,5.271Zm-3,0c0-1.357-.547-2.632-1.541-3.589l-.459-.442v-5.931c0-1.654-1.346-3-3-3s-3,1.346-3,3v5.931l-.459.442c-.994.958-1.541,2.232-1.541,3.589,0,2.757,2.243,5,5,5s5-2.243,5-5Z"/>
</svg>
