<?xml version="1.0" encoding="UTF-8"?>
<svg xmlns="http://www.w3.org/2000/svg" id="Layer_1" data-name="Layer 1" viewBox="0 0 24 24">
  <path d="m24,12c0,6.617-5.383,12-12,12S0,18.617,0,12,5.383,0,12,0v3C7.037,3,3,7.037,3,12s4.037,9,9,9,9-4.037,9-9h3Zm-5.439-4.439l3.5-3.5,1.939,1.939V.986C24,.442,23.558,0,23.014,0h-5.014l1.94,1.939-3.5,3.5,2.121,2.121Zm-7.561-1.561v1c-1.654,0-3,1.346-3,3,0,1.36.974,2.51,2.315,2.733l3.04.507c.374.062.645.382.645.76,0,.552-.448,1-1,1h-2c-.552,0-1-.448-1-1h-2c0,1.654,1.346,3,3,3v1h2v-1c1.654,0,3-1.346,3-3,0-1.359-.974-2.509-2.315-2.732l-3.04-.507c-.374-.062-.645-.382-.645-.761,0-.552.448-1,1-1h2c.552,0,1,.448,1,1h2c0-1.654-1.346-3-3-3v-1h-2Z"/>
</svg>
