<?xml version="1.0" encoding="UTF-8"?>
<svg xmlns="http://www.w3.org/2000/svg" id="Layer_1" data-name="Layer 1" viewBox="0 0 24 24">
  <path d="M8,2.5c0-1.381,1.119-2.5,2.5-2.5s2.5,1.119,2.5,2.5-1.119,2.5-2.5,2.5-2.5-1.119-2.5-2.5ZM21,0h-3c-1.654,0-3,1.346-3,3v7h-.39l-2.929-2.855c-.663-.728-1.603-1.145-2.589-1.145H2.317L.11,11.436l2.779,1.129,1.447-3.564h1.667l-1.265,3.084c-.646,1.574-.07,3.377,1.368,4.287l3.893,2.457v5.173h3v-6.827l-3.966-2.503,1.758-4.207,2.598,2.537h4.61V3h3V21h-3v-6h-3v9h9V3c0-1.654-1.346-3-3-3ZM4.226,17.43l-.235,.57H0v3H6l.763-1.851-1.723-1.087c-.296-.187-.566-.401-.814-.632Z"/>
</svg>
