<svg id="Layer_1" viewBox="0 0 24 24" xmlns="http://www.w3.org/2000/svg" data-name="Layer 1"><path d="m14 6.5c0-3.584-2.916-6.5-6.5-6.5s-6.5 2.916-6.5 6.5c0 2.502 1.423 4.674 3.5 5.76l1.637 1.567-2.045 2.045 2.045 2.045-2.045 2.045-.091.473c0 .511.203 1.002.565 1.363l1.681 1.681c.693.693 1.816.693 2.508 0l1.562-1.562c.438-.438.683-1.031.683-1.65v-8.3c1.801-1.157 3-3.173 3-5.468zm-6.5-3.5c1.93 0 3.5 1.57 3.5 3.5s-1.57 3.5-3.5 3.5-3.5-1.57-3.5-3.5 1.57-3.5 3.5-3.5zm15.5 18.5c0 1.381-1.119 2.5-2.5 2.5s-2.5-1.119-2.5-2.5c0-.815.396-1.532 1-1.989v-3.511h-6v-3h9v6.511c.604.456 1 1.173 1 1.989zm-17-16c0-.828.672-1.5 1.5-1.5s1.5.672 1.5 1.5-.672 1.5-1.5 1.5-1.5-.672-1.5-1.5zm8.702 5.5c.564-.901.964-1.914 1.158-3h3.14v-3.511c-.604-.456-1-1.173-1-1.989 0-1.381 1.119-2.5 2.5-2.5s2.5 1.119 2.5 2.5c0 .815-.396 1.532-1 1.989v6.511z"/></svg>