<?xml version="1.0" encoding="UTF-8"?>
<svg xmlns="http://www.w3.org/2000/svg" id="Layer_1" data-name="Layer 1" viewBox="0 0 24 24">
  <path d="m20.5,2h-2.5V0h-3v2h-6V0h-3v2h-2.5c-1.93,0-3.5,1.57-3.5,3.5v18.5h24V5.5c0-1.93-1.57-3.5-3.5-3.5ZM3,21v-12h8.968c-.167.131-1.733,1.405-1.733,2.974,0,.052.007.103.01.154-1.421-.776-3.407.026-3.407.026,0,0,.219,1.867,1.368,2.822-1.148.955-1.368,2.822-1.368,2.822,0,0,1.985.802,3.406.026-.003.05-.01.099-.01.15,0,1.657,1.765,3,1.765,3,0,0,1.765-1.343,1.765-3,0-.044-.006-.087-.008-.131,1.421.774,3.405-.027,3.405-.027,0,0-.22-1.879-1.378-2.831,1.158-.952,1.378-2.831,1.378-2.831,0,0-1.985-.802-3.407-.026.003-.051.01-.102.01-.154,0-1.57-1.566-2.843-1.733-2.974h8.968v12H3Zm9-7.5c.828,0,1.5.672,1.5,1.5s-.672,1.5-1.5,1.5-1.5-.672-1.5-1.5.672-1.5,1.5-1.5Z"/>
</svg>
