<?xml version="1.0" encoding="UTF-8"?>
<svg xmlns="http://www.w3.org/2000/svg" id="Layer_1" data-name="Layer 1" viewBox="0 0 24 24" width="512" height="512"><path d="m21.992,3.656c.001-.014-.502-.609-.771-.877C16.993-1.45,9.417-.753,4.333,4.333-.417,9.083-1.338,16.007,2.008,20.344c0,0,.502.609.771.877,1.859,1.859,4.365,2.766,7.023,2.766,3.386,0,7.017-1.472,9.865-4.32,4.75-4.75,5.671-11.674,2.325-16.011ZM3.05,13.256c.258-2.448,1.467-4.864,3.404-6.802s4.354-3.146,6.802-3.404c.32-.034.635-.051.944-.051,1.747,0,3.308.533,4.507,1.54-.587,1.623-2.289,4.508-7.154,6.029-4.552,1.422-6.94,3.896-8.19,6.003-.328-1.005-.438-2.127-.313-3.316Zm14.496,4.29c-1.938,1.938-4.354,3.146-6.802,3.404-2.128.226-4.04-.304-5.451-1.49.586-1.623,2.289-4.509,7.154-6.029,4.552-1.422,6.94-3.896,8.19-6.003.328,1.005.438,2.127.313,3.316-.258,2.448-1.467,4.864-3.404,6.802Z"/></svg>
