<?xml version="1.0" encoding="UTF-8"?>
<svg xmlns="http://www.w3.org/2000/svg" id="Layer_1" data-name="Layer 1" viewBox="0 0 24 24">
  <path d="m12.221,24h-7.221v-4.204c0-1.403-.646-2.778-1.82-3.87C.933,13.835-.286,10.655.075,7.825.59,3.783,3.905.517,7.958.059c2.558-.288,5.127.522,7.037,2.228,1.91,1.707,3.006,4.153,3.006,6.713,0,.344-.023.684-.061,1.022-.146-.008-.291-.022-.439-.022-.946,0-1.85.173-2.692.474.122-.478.192-.972.192-1.474,0-1.707-.73-3.338-2.004-4.476-1.291-1.153-2.957-1.682-4.701-1.484-2.695.305-4.901,2.477-5.244,5.165-.274,2.151.935,4.373,2.173,5.526.733.682,1.324,1.45,1.774,2.269h.501v-4.292c-1.464-.595-2.5-2.033-2.5-3.708h3c0,.551.449,1,1,1s1-.449,1-1h3c0,1.675-1.036,3.113-2.5,3.708v2.422c-.636,1.147-1,2.466-1,3.87,0,.339.028.672.069,1h-1.613c.028.264.044.529.044.796v1.204h2.105c.471,1.159,1.192,2.186,2.116,3Zm9.704-5.178l1.522.878-1.5,2.599-1.524-.88c-.416.356-.896.637-1.422.823v1.757h-3v-1.757c-.526-.186-1.006-.468-1.422-.823l-1.524.88-1.5-2.599,1.522-.878c-.049-.267-.076-.542-.076-.822s.026-.556.076-.822l-1.522-.878,1.5-2.599,1.524.88c.416-.356.896-.637,1.422-.823v-1.757h3v1.757c.526.186,1.006.468,1.422.823l1.524-.88,1.5,2.599-1.522.878c.049.267.076.542.076.822s-.026.556-.076.822Zm-2.924-.822c0-.827-.673-1.5-1.5-1.5s-1.5.673-1.5,1.5.673,1.5,1.5,1.5,1.5-.673,1.5-1.5Z"/>
</svg>
