<?xml version="1.0" encoding="UTF-8"?>
<svg xmlns="http://www.w3.org/2000/svg" id="Layer_1" data-name="Layer 1" viewBox="0 0 24 24">
  <path d="m21.881,6.501C21.229,2.591,17.965-.029,13.5-.029c-1.72,0-3.919.444-5.932,1.644C6.062.9,3.997.223,1.313-.024.394-.109-.451,1.098.273,1.67c1.607,1.271,2.683,2.695,3.401,3.974-1.024,1.853-1.673,4.252-1.673,7.327,0,2.642.531,5.011.847,6.19-1.697.944-2.847,2.763-2.847,4.839,4.173,0,5.5-2.776,5.5-2.776,0,0,1.378,2.776,5.5,2.776,0-2.131-1.212-3.992-2.984-4.913.105-1.328.744-2.872,1.865-4.493.688-.996,1.583-1.815,2.613-2.421.44.771.935,1.869,1.507,3.298.961-1.922,1.428-3.327,1.621-4.401.437-.065.882-.099,1.333-.099h7.046v-2c0-1.249-.921-2.287-2.119-2.471Zm-4.927,1.471c-3.849,0-7.416,1.839-9.542,4.918-.948,1.373-1.62,2.711-2.009,4-.209-1.073-.402-2.457-.402-3.918C5,3.454,12.081,2.971,13.5,2.971c3.799,0,5.5,2.511,5.5,5h-2.046Z"/>
</svg>
