<?xml version="1.0" encoding="UTF-8"?>
<svg xmlns="http://www.w3.org/2000/svg" id="Layer_1" data-name="Layer 1" viewBox="0 0 24 24">
  <path d="m10.154,11.144c-.855-.312-1.82-.097-2.463.547-.649.65-.858,1.592-.544,2.458l3.57,9.817,3.566-3.566,3.288,3.288,2.121-2.121-3.288-3.288,3.566-3.567-9.815-3.569Zm.291,3.298l4.073,1.481-2.592,2.592-1.481-4.073Zm11.786-9.942c0,.276-.224.5-.5.5h-.5v-1h.5c.276,0,.5.224.5.5Zm-1.231-4.5H3C1.343,0,0,1.343,0,3v8h5.699c.165-.255.354-.499.577-.722,1.19-1.192,2.98-1.591,4.563-1.013l4.772,1.735h8.389V3c0-1.657-1.343-3-3-3ZM4.438,6.714c-.133.745-.844,1.286-1.691,1.286-.685,0-1.328-.276-1.765-.758l.767-.696c.237.261.61.418.998.418.371,0,.633-.22.671-.432.051-.286-.374-.466-.506-.515-.623-.23-1.185-.481-1.185-.481-.497-.316-.716-.803-.644-1.309.078-.538.471-.976,1.027-1.144,1.092-.329,1.948.481,1.986.512l-.618.728c-.021-.017-.524-.41-1.069-.248-.243.073-.291.234-.3.299-.006.049-.01.17.108.25.013,0,.509.218,1.055.42,1.013.374,1.267,1.107,1.167,1.669Zm1.793,1.286h-1V3h1v5Zm4-1.5c0,.828-.672,1.5-1.5,1.5s-1.5-.672-1.5-1.5v-2c0-.828.672-1.5,1.5-1.5.652,0,1.202.419,1.408,1h-1.408c-.276,0-.5.224-.5.5v2c0,.276.224.5.5.5s.5-.224.5-.5v-.5h-.5v-1h1.5v1.5Zm4,1.5h-1v-3.5c0-.276-.224-.5-.5-.5s-.5.224-.5.5v3.5h-1V3h1v.092c.157-.056.324-.092.5-.092.828,0,1.5.672,1.5,1.5v3.5Zm5-1.5c0,.828-.672,1.5-1.5,1.5s-1.5-.672-1.5-1.5v-3.5h1v3.5c0,.276.224.5.5.5s.5-.224.5-.5v-3.5h1v3.5Zm2.5-.5h-.5v2h-1V3h1.5c.828,0,1.5.672,1.5,1.5s-.672,1.5-1.5,1.5Z"/>
</svg>
