<svg id="Layer_1" viewBox="0 0 24 24" xmlns="http://www.w3.org/2000/svg" data-name="Layer 1"><path d="m19.167 14.004h-3.422c-1.266 1.815-3.366 3.007-5.742 3.007-1.388 0-2.68-.411-3.769-1.111l5.27-5.27v-7.457c.456.101.896.245 1.314.429.726-.96 1.865-1.591 3.157-1.599-1.67-1.248-3.733-1.997-5.973-1.997-5.515 0-10.002 4.487-10.002 10.003s4.487 10.002 10.002 10.002c2.218 0 4.264-.731 5.924-1.957l5.946 5.946 2.122-2.122-5.945-5.945c.44-.597.818-1.242 1.118-1.929zm-10.665-10.831v6.215l-4.391 4.391c-.7-1.089-1.111-2.381-1.111-3.769 0-3.345 2.36-6.147 5.501-6.836zm10.497-1.172c0-1.105.895-2.001 2-2.001s2 .896 2 2-.896 2-2 2-2-.896-2-2zm-1.501 7.001c.829 0 1.5.672 1.5 1.5v1.5h-6.001v-1.5c0-.829.672-1.5 1.5-1.5zm-1.5-5.001c1.105 0 2 .896 2 2s-.896 2-2 2-2-.896-2-2 .896-2 2-2zm8.002 2.501v1.5h-4.556c.344-.591.555-1.268.555-2 0-.347-.058-.679-.141-1h2.642c.829 0 1.5.672 1.5 1.5z"/></svg>