<?xml version="1.0" encoding="UTF-8"?>
<svg xmlns="http://www.w3.org/2000/svg" id="Layer_1" data-name="Layer 1" viewBox="0 0 24 24" width="512" height="512"><path d="M22.624,0c-1.149,0-2.226,.564-2.878,1.509l-6.151,8.895c-1.15-.747-2.689-.427-3.41,.663l-.017,.022-.224-1.076-8.664-.016s-.424,2.007-.512,2.396C.372,14.151-.002,15.812,0,18.521c.003,3.021,2.47,5.479,5.5,5.479h1.397c2.354,0,4.565-1.151,5.938-3.111l3.749-5.66c.368-.557,.498-1.224,.365-1.878-.108-.528-.375-.996-.798-1.37L22.214,3.215c.093-.135,.246-.215,.41-.215h1.376V0h-1.376ZM10.356,19.2c-.79,1.127-2.083,1.8-3.459,1.8h-1.397c-1.377,0-2.499-1.113-2.5-2.48-.002-2.375,.321-3.808,.695-5.466,.004-.018,.008-.034,.012-.052l3.794,.008c.127,.63,.223,1.161,.348,2.005l.538,3.637,3.981-5.488,1.426,.847-3.438,5.19Z"/></svg>
