<svg id="Layer_1" viewBox="0 0 24 24" xmlns="http://www.w3.org/2000/svg" data-name="Layer 1"><path d="m10 16h4v3h-4zm9-1.5v9.5h-14v-9.5c0-1.93 1.57-3.5 3.5-3.5h7c1.93 0 3.5 1.57 3.5 3.5zm-3 0c0-.275-.224-.5-.5-.5h-7c-.276 0-.5.225-.5.5v6.5h8zm6-10.5c1.103 0 2-.897 2-2s-.897-2-2-2h-5.04c-1.467 0-2.788.925-3.288 2.301-.294.81-.845 2.13-1.672 3.342-.828-1.211-1.378-2.532-1.672-3.342-.5-1.376-1.821-2.301-3.288-2.301h-5.04c-1.103 0-2 .897-2 2s.897 2 2 2h.318c.002.006.003-.006.004 0-.743.089-1.322.733-1.322 1.5 0 .828.672 1.5 1.5 1.5h.94s.002.004.003.006c-.801.031-1.442.685-1.442 1.494 0 .828.672 1.5 1.5 1.5h3.999c-1.564-2.215-3.174-5.534-3.369-7h2.909c.212 0 .396.127.467.325.632 2.03 2.426 5.038 4.493 6.796 2.067-1.759 3.86-4.766 4.493-6.796.071-.197.255-.325.467-.325h2.909c-.289 1.37-1.099 3.542-2.701 5.945l-.668 1.055h4c.828 0 1.5-.672 1.5-1.5 0-.809-.641-1.463-1.442-1.494 0-.002.002-.004.003-.006h.94c.828 0 1.5-.672 1.5-1.5 0-.767-.578-1.411-1.322-1.5.002-.006.32.006.322 0z"/></svg>