<?xml version="1.0" encoding="UTF-8"?>
<svg xmlns="http://www.w3.org/2000/svg" id="Layer_1" data-name="Layer 1" viewBox="0 0 24 24">
  <path d="m6,15.276v-4.003c-1.241-1.41-2-3.253-2-5.274,0-.458.047-.905.122-1.342-.713,1.289-1.122,2.768-1.122,4.342v6.276c-1.742.621-3,2.271-3,4.224v4.5h9v-4.5c0-1.953-1.258-3.602-3-4.224Zm0,5.724h-3v-1.5c0-.827.673-1.5,1.5-1.5s1.5.673,1.5,1.5v1.5Zm15-5.724v-6.276C21,4.037,16.962,0,12,0c-3.309,0-6,2.691-6,6s2.691,6,6,6c1.538,0,2.937-.586,4-1.54v-1.46c0-1.025-.399-1.951-1.034-2.659-.172,1.492-1.428,2.659-2.966,2.659-1.654,0-3-1.346-3-3s1.346-3,3-3c3.309,0,6,2.691,6,6v6.276c-1.742.621-3,2.271-3,4.224v4.5h9v-4.5c0-1.953-1.258-3.602-3-4.224Zm0,5.724h-3v-1.5c0-.827.673-1.5,1.5-1.5s1.5.673,1.5,1.5v1.5Z"/>
</svg>
