<?xml version="1.0" encoding="UTF-8"?>
<svg xmlns="http://www.w3.org/2000/svg" id="Layer_1" data-name="Layer 1" viewBox="0 0 24 24">
  <path d="m20.902,16h2.157l-3.5-6h1.862L16.848,1.253c-.547-.785-1.444-1.253-2.4-1.253-.709,0-1.385.258-1.91.711-.558-.457-1.272-.711-2.037-.711-.998,0-1.91.432-2.501,1.183L2.787,10h2.1l-3.957,6h2.444L-.103,22h9.103v2h3v-2h1v2h3v-2h7.977l-3.075-6Zm-10.402-2.325l-1.5,2.589v2.737h-3.897l3.477-6h-2.077l3.957-6h-2.422l2.344-3.978c.049-.021.189-.021.238,0l2.344,3.978h-2.422l3.957,6h-2.077l3.477,6h-3.897v-2.737l-1.5-2.589Z"/>
</svg>
