<?xml version="1.0" encoding="UTF-8"?>
<svg xmlns="http://www.w3.org/2000/svg" id="Layer_1" data-name="Layer 1" viewBox="0 0 24 24">
  <path d="M12,17c1.133,0,2.154-.602,2.661-.96l1.154,1.633c-.702,.496-2.13,1.327-3.815,1.327s-3.114-.831-3.815-1.327l1.154-1.633c.507,.358,1.528,.96,2.661,.96Zm5-4.5s-1,.5-2,.5-2-.5-2-.5c0,.99,.667,2.5,2,2.5s2-1.51,2-2.5Zm-10,0c0,.99,.667,2.5,2,2.5s2-1.51,2-2.5c0,0-1,.5-2,.5s-2-.5-2-.5Zm11.224,4.688c-1.162,2.26-3.513,3.812-6.224,3.812s-5.062-1.552-6.224-3.812c-.349,1.051-1.095,1.923-2.062,2.404,1.799,2.658,4.842,4.408,8.286,4.408s6.487-1.75,8.286-4.408c-.967-.481-1.713-1.353-2.062-2.404ZM21.621,0h-4.242l3.621,3.621v2.017l-3.325-3.321-2.113,2.129,3.318,3.293c.195,.322,.147,.746-.124,1.017-.313,.313-.859,.313-1.173,0l-3.886-3.886c.184-.554,.303-1.132,.303-1.733V0h-3V3.138c0,.667-.26,1.296-.732,1.768l-3.769,3.769c-.325,.324-.824,.404-1.139,.18-.245-.174-.325-.398-.35-.557-.03-.196,.008-.391,.11-.558l3.319-3.294-2.113-2.129-3.325,3.3v-1.996L6.621,0H2.379L0,2.379v13.621c0,1.172,1.012,2.111,2.208,1.989,1.041-.106,1.792-1.061,1.792-2.107v-4.357c.55,.296,1.16,.449,1.777,.449,1.027,0,2.067-.402,2.843-1.178l3.38-3.38,3.461,3.461c.724,.724,1.685,1.122,2.708,1.122,.653,0,1.273-.179,1.83-.484v4.367c0,1.046,.751,2.001,1.792,2.107,1.196,.122,2.208-.818,2.208-1.989V2.379l-2.379-2.379Z"/>
</svg>
