<?xml version="1.0" encoding="UTF-8"?>
<svg xmlns="http://www.w3.org/2000/svg" id="Layer_1" data-name="Layer 1" viewBox="0 0 24 24">
  <path d="m12,13c-4.038,0-8,3.669-8,7.408,0,2.296,1.371,3.667,3.667,3.667.826,0,1.535-.28,2.22-.551.682-.27,1.327-.524,2.113-.524s1.431.254,2.113.524c.686.271,1.395.551,2.22.551,2.296,0,3.667-1.371,3.667-3.667,0-3.738-3.962-7.408-8-7.408Zm4.902,7.98s-.126.094-.568.094c-.254,0-.674-.166-1.118-.341-.828-.327-1.857-.733-3.215-.733s-2.388.407-3.215.733c-.444.176-.864.341-1.118.341-.442,0-.567-.093-.568-.094s-.098-.128-.098-.573c0-2.101,2.617-4.408,5-4.408s5,2.307,5,4.408c0,.445-.097.572-.098.573Zm7.069-8.917c-.213,2.331-1.492,4.089-2.856,3.926-1.364-.163-2.297-2.185-2.084-4.516.213-2.331,1.449-3.623,2.814-3.46.025.003.05.007.075.011.041-.173.067-.349.075-.525.057-1.258-.5-2.5-.5-2.5,0,0,2.65,1.352,2.5,3.5-.025.361-.099.745-.298,1.149.252.649.361,1.468.275,2.414ZM2.885,15.99c-1.364.163-2.643-1.595-2.856-3.926-.086-.943.022-1.759.272-2.407-.201-.406-.276-.793-.301-1.156-.15-2.148,2.5-3.5,2.5-3.5,0,0-.557,1.242-.5,2.5.008.176.034.353.075.526.027-.004.054-.009.081-.012,1.364-.163,2.6,1.129,2.814,3.46.213,2.331-.72,4.353-2.084,4.516Zm3.387-11.392c-.18-.385-.248-.751-.273-1.097-.15-2.148,2.5-3.5,2.5-3.5,0,0-.557,1.242-.5,2.5.008.174.033.347.073.518.01-.001.02-.003.03-.005,1.364-.163,2.6,1.129,2.814,3.46.213,2.331-.72,4.353-2.084,4.516-1.364.163-2.643-1.595-2.856-3.926-.089-.972.029-1.808.296-2.466Zm6.758,1.876c.213-2.331,1.449-3.623,2.814-3.46.01.001.02.003.03.005.04-.171.066-.345.073-.518.057-1.258-.5-2.5-.5-2.5,0,0,2.65,1.352,2.5,3.5-.024.346-.092.713-.273,1.097.266.658.385,1.494.296,2.466-.213,2.331-1.492,4.089-2.856,3.926-1.364-.163-2.297-2.185-2.084-4.516Z"/>
</svg>
