<svg id="Layer_1" viewBox="0 0 24 24" xmlns="http://www.w3.org/2000/svg" data-name="Layer 1"><path d="m15.382 0 5.618 5.665v3.335h-3v-1h-5v-5h-9v18h17v3h-20v-21c0-1.654 1.346-3 3-3zm-2.621 12.627 1.339 6.373h-1.632l-.295-1.4h-2.379l-.309 1.4h-1.584l1.365-6.418c.168-.864.87-1.583 1.742-1.581.894.006 1.563.69 1.753 1.627zm-.924 3.373-.641-3.044c-.047-.231-.093-.355-.185-.355s-.15.153-.189.354l-.673 3.045zm2.564-5s1.211 6.584 1.211 6.584c.103.58.61 1.416 1.546 1.416s1.435-.794 1.555-1.462l1.188-6.538s-1.64 0-1.64 0l.008.034-1.111 6.111-1.129-6.138v-.007s-1.628 0-1.628 0zm7 0v8h1.6v-8z"/></svg>