<svg id="Layer_1" viewBox="0 0 24 24" xmlns="http://www.w3.org/2000/svg" data-name="Layer 1"><path d="m19.407 19.109 2.751 4.891h-3.442l-1.789-3.18c-1.485.748-3.155 1.18-4.928 1.18s-3.443-.431-4.928-1.18l-1.789 3.18h-3.44l2.751-4.891c-2.202-2.013-3.593-4.898-3.593-8.109 0-6.065 4.935-11 11-11 1.249 0 2.446.219 3.566.605l-2.478 2.478c-.357-.049-.718-.083-1.088-.083-4.411 0-8 3.589-8 8s3.589 8 8 8 8-3.589 8-8c0-.37-.034-.732-.083-1.088l2.478-2.478c.386 1.12.605 2.317.605 3.566 0 3.211-1.391 6.096-3.593 8.109zm-4.407-15.109v1.879l-4.059 4.059c-.272.272-.441.647-.441 1.062 0 .828.672 1.5 1.5 1.5.415 0 .79-.169 1.062-.441l4.059-4.059h1.879l3-3h-4v-4zm-2 1.747v-.623c-1.851-.316-3.816.21-5.243 1.636-2.34 2.34-2.34 6.146 0 8.485s6.146 2.34 8.485 0c1.426-1.426 1.953-3.392 1.636-5.243h-.669c-1.658 1.676-2.993 3.027-3.088 3.121-1.17 1.17-3.073 1.17-4.243 0s-1.17-3.073 0-4.243c.42-.42 1.681-1.687 3.121-3.134z"/></svg>