<?xml version="1.0" encoding="UTF-8"?>
<svg xmlns="http://www.w3.org/2000/svg" id="Layer_1" data-name="Layer 1" viewBox="0 0 24 24" width="512" height="512"><path d="m15.5,15.5c0,1.933-1.567,3.5-3.5,3.5s-3.5-1.567-3.5-3.5c0-1.394.821-2.587,2-3.15v3.65h3v-3.65c1.179.563,2,1.756,2,3.15Zm-8.801-6.09l1.801-2.4,2.93,2.188c.046-.225.07-.458.07-.697,0-1.933-1.567-3.5-3.5-3.5s-3.5,1.567-3.5,3.5,1.567,3.5,3.5,3.5c.586,0,1.131-.158,1.616-.413l-2.917-2.178Zm9.301-4.41c-1.933,0-3.493,1.567-3.5,3.5,0,.241.024.474.066.7l2.812-2.165,1.801,2.4-2.827,2.175c.493.257,1.048.408,1.647.389,1.932-.059,3.5-1.567,3.5-3.5s-1.567-3.5-3.5-3.5Zm8-1.5v20.5H0V3.5C0,1.57,1.57,0,3.5,0h17c1.93,0,3.5,1.57,3.5,3.5Zm-3,0c0-.276-.225-.5-.5-.5H3.5c-.275,0-.5.224-.5.5v17.5h18V3.5Z"/></svg>
