<?xml version="1.0" encoding="UTF-8"?>
<svg xmlns="http://www.w3.org/2000/svg" id="Layer_1" data-name="Layer 1" viewBox="0 0 24 24" width="512" height="512"><path d="M18,2.5c0-1.38,1.12-2.5,2.5-2.5s2.5,1.12,2.5,2.5-1.12,2.5-2.5,2.5-2.5-1.12-2.5-2.5Zm4.63,12.69c-.46-.74-1.25-1.19-2.13-1.19h-3.11l2.31-4.97c.41-.88,.34-1.9-.18-2.72-.52-.82-1.42-1.31-2.39-1.31h-6.56l-2.86,5.84,2.69,1.32,2.04-4.16h2.19l-2.37,5.1c-.4,.85-.33,1.84,.18,2.63,.35,.55,.88,.95,1.49,1.14-.41,2.34-2.46,4.13-4.92,4.13-2.76,0-5-2.24-5-5,0-.34,.04-.68,.1-1l2.88-6.73c-3.44,.9-5.98,4.02-5.98,7.73,0,4.41,3.59,8,8,8,4.07,0,7.44-3.06,7.94-7h2.74l-2.5,4.81,2.66,1.39,2.91-5.58c.39-.78,.35-1.69-.11-2.43Z"/></svg>
