<?xml version="1.0" encoding="UTF-8"?>
<svg xmlns="http://www.w3.org/2000/svg" id="Layer_1" data-name="Layer 1" viewBox="0 0 24 24">
  <path d="m24,10v1h-10v-1c0-1.654,1.346-3,3-3h4c1.654,0,3,1.346,3,3Zm-5-4c1.654,0,3-1.346,3-3s-1.346-3-3-3-3,1.346-3,3,1.346,3,3,3Zm2,14h-4c-1.654,0-3,1.346-3,3v1h10v-1c0-1.654-1.346-3-3-3Zm1-4c0-1.654-1.346-3-3-3s-3,1.346-3,3,1.346,3,3,3,3-1.346,3-3Zm-13-2v3H3.5c-.275,0-.5-.225-.5-.5V7.5c0-.275.225-.5.5-.5h7.5v-3H3.5c-1.93,0-3.5,1.57-3.5,3.5v9c0,1.93,1.57,3.5,3.5,3.5h5.5v3l3.707-3.793c.39-.39.39-1.024,0-1.414l-3.707-3.793Z"/>
</svg>
