<?xml version="1.0" encoding="UTF-8"?>
<svg xmlns="http://www.w3.org/2000/svg" id="Layer_1" data-name="Layer 1" viewBox="0 0 24 24">
  <path d="M6,11l3-3V24h-3V11ZM1,24h3V13l-3,3v8ZM22.909,0h-5.909l2.439,2.439-3.939,3.939L9.5,.379,.045,9.833l2.121,2.121,7.333-7.333,6,6,6.061-6.061,2.439,2.439V1.091c0-.602-.488-1.091-1.091-1.091Zm1.091,18c0,3.314-2.686,6-6,6s-6-2.686-6-6,2.686-6,6-6,6,2.686,6,6Zm-3.4-1.469l1.216-1.216-1.132-1.131-1.216,1.216c-.436-.247-.932-.4-1.469-.4s-1.033,.153-1.469,.4l-1.216-1.216-1.132,1.131,1.216,1.216c-.247,.436-.4,.932-.4,1.469s.153,1.033,.4,1.469l-1.216,1.216,1.132,1.131,1.216-1.216c.436,.247,.932,.4,1.469,.4s1.033-.153,1.469-.4l1.216,1.216,1.132-1.131-1.216-1.216c.247-.436,.4-.932,.4-1.469s-.153-1.033-.4-1.469Zm-2.6,.068c-.772,0-1.4,.628-1.4,1.4s.628,1.4,1.4,1.4,1.4-.628,1.4-1.4-.628-1.4-1.4-1.4Z"/>
</svg>
