<svg id="Layer_1" viewBox="0 0 24 24" xmlns="http://www.w3.org/2000/svg" data-name="Layer 1"><path d="m24 9.5c0-1.526-.983-2.811-2.345-3.289-.723-1.873-2.53-3.211-4.655-3.211h-.388c-.768-1.758-2.582-3-4.612-3s-3.845 1.242-4.612 3h-.388c-2.125 0-3.932 1.338-4.655 3.211-1.362.479-2.345 1.763-2.345 3.289 0 1.141.558 2.139 1.405 2.776-.252.524-.405 1.104-.405 1.724 0 3 2.278 4.054 4 4.5v2.5c.022 2.468 1.027 3 3.5 3 .627 0 1.219-.04 1.76-.131.536.078 1.103.131 1.74.131s1.204-.054 1.739-.132c.542.092 1.134.132 1.761.132 2.473 0 3.478-.532 3.5-3v-2.5c1.722-.446 4-1.5 4-4.5 0-.62-.153-1.2-.405-1.724.847-.637 1.405-1.635 1.405-2.776zm-17-3.5h2.861l.149-1.332c.104-.92.996-1.668 1.989-1.668s1.885.748 1.989 1.668l.149 1.332h2.861c1.103 0 2 .897 2 2 0 .616-.294 1.191-.808 1.578l-.982.74.533 1.108c.171.354.257.715.257 1.073 0 1.131-.771 2.12-1.876 2.406l-1.124.291v4.29c-.005.533-.016 1.169-1.5 1.411v-9.897h-3v9.898c-1.484-.242-1.495-.875-1.5-1.398v-4.303l-1.124-.291c-1.104-.286-1.876-1.275-1.876-2.406 0-.358.086-.719.257-1.073l.533-1.108-.982-.74c-.514-.387-.808-.962-.808-1.578 0-1.103.897-2 2-2z"/></svg>