<svg id="Layer_1" viewBox="0 0 24 24" xmlns="http://www.w3.org/2000/svg" data-name="Layer 1"><path d="m3.329 11.378c-.208-.759-.329-1.554-.329-2.378 0-4.963 4.038-9 9-9s9 4.037 9 9c0 .824-.121 1.619-.329 2.378l-2.881 1.027c-.465.166-.91.372-1.339.605.96-1.064 1.55-2.468 1.55-4.01 0-3.309-2.691-6-6-6s-6 2.691-6 6c0 1.539.587 2.939 1.542 4.002-.434-.235-.885-.443-1.356-.612l-2.857-1.013zm20.671 1.622c-2.966 1.055-5.067 3.801-5.53 6.914-.055.368-.099.728-.142 1.086h-2.139c.253-2.304.854-4.37 2.311-6.701-2.862 1.021-4.877 3.684-5.229 6.701h-2.148c.252-2.313.851-4.385 2.313-6.725-1.66.592-3.046 1.755-3.967 3.196-.92-1.43-2.301-2.584-3.951-3.173 1.457 2.331 2.052 4.397 2.3 6.701h-2.146c-.043-.358-.088-.718-.142-1.086-.463-3.114-2.564-5.859-5.53-6.914 2.132 2.72 2.772 5.284 2.952 8h-2.952v3h24v-3h-2.952c.18-2.716.82-5.28 2.952-8zm-10-7.5c0-.828-.672-1.5-1.5-1.5s-1.5.672-1.5 1.5.672 1.5 1.5 1.5 1.5-.672 1.5-1.5zm1.5 4.5c.828 0 1.5-.672 1.5-1.5s-.672-1.5-1.5-1.5-1.5.672-1.5 1.5.672 1.5 1.5 1.5zm-5.5-.5c0 .828.672 1.5 1.5 1.5s1.5-.672 1.5-1.5-.672-1.5-1.5-1.5-1.5.672-1.5 1.5z"/></svg>