<svg id="Layer_1" viewBox="0 0 24 24" xmlns="http://www.w3.org/2000/svg" data-name="Layer 1"><path d="m19 11c1.381 0 2.5 1.119 2.5 2.5s-1.119 2.5-2.5 2.5-2.5-1.119-2.5-2.5 1.119-2.5 2.5-2.5zm-12.946-3.299 1.529-.883c-.049-.266-.083-.538-.083-.818s.034-.552.083-.818l-1.529-.883 1.5-2.599 1.542.89c.412-.352.883-.629 1.404-.815v-1.775h3v1.776c.521.186.992.463 1.404.815l1.542-.89 1.5 2.598-1.529.883c.049.266.083.538.083.818s-.033.552-.083.818l1.529.883-1.5 2.598-1.542-.89c-.413.352-.884.629-1.404.815v1.776h-3v-1.776c-.52-.186-.991-.463-1.404-.815l-1.542.89-1.5-2.599zm4.446-1.701c0 .827.673 1.5 1.5 1.5s1.5-.673 1.5-1.5-.673-1.5-1.5-1.5-1.5.673-1.5 1.5zm10.5 11h-4c-1.327 0-2.442.871-2.837 2.067-.215-.042-.436-.067-.663-.067h-3c-.227 0-.448.026-.663.067-.395-1.196-1.51-2.067-2.837-2.067h-4c-1.654 0-3 1.346-3 3v4h3v-4h4v4h3v-1.5c0-.275.224-.5.5-.5h3c.275 0 .5.225.5.5v1.5h3v-4h4v4h3v-4c0-1.654-1.346-3-3-3zm-16-1c1.381 0 2.5-1.119 2.5-2.5s-1.119-2.5-2.5-2.5-2.5 1.119-2.5 2.5 1.119 2.5 2.5 2.5zm4.5-.5c0 1.381 1.119 2.5 2.5 2.5s2.5-1.119 2.5-2.5-1.119-2.5-2.5-2.5-2.5 1.119-2.5 2.5z"/></svg>