<?xml version="1.0" encoding="UTF-8"?>
<svg xmlns="http://www.w3.org/2000/svg" id="Layer_1" data-name="Layer 1" viewBox="0 0 24 24">
  <path d="M23.313,8.687l-2.121,2.121c-.964-.963-2.043-1.741-3.192-2.339v-3.3c1.935,.78,3.748,1.951,5.313,3.517ZM6,5.169c-1.935,.78-3.748,1.951-5.313,3.517l2.121,2.121c.964-.963,2.043-1.741,3.192-2.339v-3.3Zm-1.071,7.76l2.121,2.121c1.322-1.322,3.08-2.05,4.95-2.05s3.627,.728,4.95,2.05l2.121-2.121c-1.889-1.889-4.4-2.929-7.071-2.929s-5.182,1.04-7.071,2.929Zm4.76-3.997l2.311-2.311,2.311,2.311,2.121-2.121-2.311-2.311,2.311-2.311L14.311,.068l-2.311,2.311L9.689,.068l-2.121,2.121,2.311,2.311-2.311,2.311,2.121,2.121Zm2.311,8.068c-1.657,0-3,1.343-3,3s1.343,3,3,3,3-1.343,3-3-1.343-3-3-3Z"/>
</svg>
