<svg id="Layer_1" viewBox="0 0 24 24" xmlns="http://www.w3.org/2000/svg" data-name="Layer 1"><path d="m11.48 13.221c-.941.869-1.48 2.26-1.48 3.816v6.962h-3v-6.962c0-2.391.891-4.585 2.445-6.021.448-.414.638-1.006.52-1.625-.127-.672-.712-1.245-1.39-1.364-.931-.165-1.588.393-1.864.918l-.658 1.255-1.291-.586c-.311-.142-.623-.153-.953-.035-.378.135-.689.482-.775.864-.121.542.103.914.247 1.087 1.108 1.333 1.718 3.026 1.718 4.765v7.704h-2.999v-7.704c0-1.04-.364-2.051-1.026-2.848-.843-1.014-1.159-2.347-.867-3.656.31-1.39 1.342-2.553 2.695-3.036.653-.232 1.32-.306 1.971-.223 1.079-1.172 2.692-1.745 4.32-1.458 1.922.337 3.458 1.848 3.82 3.759.311 1.633-.225 3.273-1.432 4.389zm8.77-13.221c-1.095 0-2.17.181-3.194.539-1.836.64-3.776.64-5.61 0-1.025-.357-2.1-.539-3.195-.539-3.023-.171-5.685 1.978-6.163 4.891.605-.224 1.252-.362 1.928-.387 1.19-.952 2.706-1.518 4.233-1.504.758 0 1.5.125 2.208.372 2.482.864 5.103.864 7.585 0 .706-.247 1.449-.372 2.207-.372.413 0 .75.336.75.75v14.631c0 1.444-1.175 2.619-2.619 2.619-.76 0-1.481-.33-1.979-.904l-4.056-4.68c-.215.459-.346 1.013-.346 1.622v2.56l2.135 2.463c1.067 1.232 2.615 1.939 4.246 1.939 3.099 0 5.619-2.521 5.619-5.619v-14.631c0-2.068-1.683-3.75-3.75-3.75z"/></svg>