<?xml version="1.0" encoding="UTF-8"?>
<svg xmlns="http://www.w3.org/2000/svg" id="Layer_1" data-name="Layer 1" viewBox="0 0 24 24">
  <path d="m9,12.5c0,.828-.672,1.5-1.5,1.5s-1.5-.672-1.5-1.5.672-1.5,1.5-1.5,1.5.672,1.5,1.5Zm6,5.5h3v6H0V4.7C0,3.039,1.183,1.596,2.813,1.269L8.813.068c1.034-.207,2.092.059,2.906.726.406.333.725.746.944,1.206h1.837c1.93,0,3.5,1.57,3.5,3.5v5.5h-3v-5.5c0-.275-.225-.5-.5-.5h-1.5v16h2v-3ZM10,3.501c0-.206-.115-.331-.183-.387-.068-.057-.214-.142-.415-.104l-6,1.2c-.233.047-.402.253-.402.49v16.3h7V3.501Zm13.658,10.292l-3.707-3.793v3h-4.951v3h4.951v3l3.707-3.793c.391-.39.391-1.024,0-1.414Z"/>
</svg>
