<svg id="Layer_1" viewBox="0 0 24 24" xmlns="http://www.w3.org/2000/svg" data-name="Layer 1"><path d="m6.5 10c.828 0 1.5.672 1.5 1.5s-.672 1.5-1.5 1.5-1.5-.672-1.5-1.5.672-1.5 1.5-1.5zm17.5 2.721c-.815-.926-1.838-1.663-3-2.134v-2.587h-18v7h7.587c-.376.927-.587 1.938-.587 3h-10s0-14.5 0-14.5c0-1.929 1.57-3.5 3.5-3.5h17c1.93 0 3.5 1.571 3.5 3.5v9.22zm-21-7.721h18v-1.5c0-.275-.224-.5-.5-.5h-17c-.276 0-.5.225-.5.5zm21 13c0 3.314-2.686 6-6 6s-6-2.686-6-6 2.686-6 6-6 6 2.686 6 6zm-4.586 0 2.121-2.121-1.414-1.414-2.121 2.121-2.121-2.121-1.414 1.414 2.121 2.121-2.121 2.121 1.414 1.414 2.121-2.121 2.121 2.121 1.414-1.414z"/></svg>