<svg id="Layer_1" viewBox="0 0 24 24" xmlns="http://www.w3.org/2000/svg" data-name="Layer 1"><path d="m21 19.5v4.5h-3v-4.5c0-1.378-1.121-2.5-2.5-2.5h-1.49l-1.227 1.84 1.216 5.16h-4l1.216-5.16-1.227-1.84h-1.49c-1.378 0-2.5 1.122-2.5 2.5v4.5h-2.998v-4.5c0-3.033 2.467-5.5 5.5-5.5h7c3.032 0 5.5 2.467 5.5 5.5zm-9-7.5c.836 0 1.627-.183 2.351-.495l-.525-3.085c-.5.399-1.256.579-1.826.579-1.654 0-3-1.346-3-3 3 0 4-1.5 4.849-2.418.865.576 1.508 1.528 1.666 2.631l.984 5.787h.487c.966 0 1.886.197 2.724.552l-1.235-6.82s0 0 0 0c-.497-3.272-3.271-5.732-6.477-5.732s-5.977 2.461-6.475 5.733l-1.235 6.819c.826-.349 1.731-.545 2.681-.549 0 0 3.393-.002 5.03-.002z"/></svg>