<?xml version="1.0" encoding="UTF-8"?>
<svg xmlns="http://www.w3.org/2000/svg" id="Layer_1" data-name="Layer 1" viewBox="0 0 24 24">
  <path d="m4,12c1.657,0,3,1.343,3,3s-1.343,3-3,3-3-1.343-3-3,1.343-3,3-3Zm5,3c0,1.657,1.343,3,3,3s3-1.343,3-3-1.343-3-3-3-3,1.343-3,3Zm3.133-9c1.657,0,3-1.343,3-3s-1.343-3-3-3-3,1.343-3,3,1.343,3,3,3Zm9.367,14h-3c-1.381,0-2.5,1.119-2.5,2.5,0-1.381-1.119-2.5-2.5-2.5h-3c-1.381,0-2.5,1.119-2.5,2.5,0-1.381-1.119-2.5-2.5-2.5h-3c-1.381,0-2.5,1.119-2.5,2.5v1.5h24v-1.5c0-1.381-1.119-2.5-2.5-2.5Zm-4.5-5c0,1.657,1.343,3,3,3s3-1.343,3-3-1.343-3-3-3-3,1.343-3,3Zm-9-5v2.027c.911-1.224,2.357-2.027,4-2.027s3.089.804,4,2.027v-2.027h.055l7.421-6.361-1.952-2.277-6.579,5.639h-5.891L2.476,1.361.524,3.639l7.421,6.361h.055Z"/>
</svg>
