<?xml version="1.0" encoding="UTF-8"?>
<svg xmlns="http://www.w3.org/2000/svg" id="Layer_1" data-name="Layer 1" viewBox="0 0 24 24">
  <path d="m12,24C5.383,24,0,18.617,0,12S5.383,0,12,0s12,5.383,12,12-5.383,12-12,12Zm0-21C7.038,3,3,7.038,3,12s4.038,9,9,9,9-4.038,9-9S16.962,3,12,3Zm6.921,9.975h-2.946s0-1.95,0-1.95h2.946c-.148-1.058-.534-2.087-1.165-3h-1.781s0-1.781,0-1.781c-.913-.631-1.942-1.017-3-1.165v2.946s-1.95,0-1.95,0v-2.946c-1.058.148-2.087.535-3,1.165v1.781s-1.781,0-1.781,0c-.631.913-1.017,1.942-1.165,3h2.946s0,1.95,0,1.95h-2.946c.148,1.058.534,2.087,1.165,3h1.781s0,1.781,0,1.781c.913.631,1.942,1.017,3,1.165v-2.946s1.95,0,1.95,0v2.946c1.058-.148,2.087-.534,3-1.165v-1.781s1.781,0,1.781,0c.631-.913,1.018-1.942,1.165-3Zm-7.896,0v-1.95s1.95,0,1.95,0v1.95s-1.95,0-1.95,0Z"/>
</svg>
