<?xml version="1.0" encoding="UTF-8"?>
<svg xmlns="http://www.w3.org/2000/svg" id="Layer_1" data-name="Layer 1" viewBox="0 0 24 24">
  <path d="m14.5,19c-.828,0-1.5-.672-1.5-1.5s.672-1.5,1.5-1.5,1.5.672,1.5,1.5-.672,1.5-1.5,1.5Zm2.004-10.998l-2.003-.002h0s0,0,0,0c-3.382,0-7.183,2.855-9.5,4.931v3.993l.102.094c1.549-1.674,6.255-6.018,9.398-6.018l2.003.002c2.479,0,4.497,2.018,4.497,4.497v3.001c0,1.378-1.121,2.5-2.5,2.5H6.5c-1.93,0-3.5-1.57-3.5-3.5v-3.972c0-1.684.493-3.314,1.428-4.715l2.281-3.422c2.456-.556,4.292-2.769,4.292-5.391-4.173,0-5.5,2.776-5.5,2.776,0,0-1.378-2.776-5.5-2.776,0,2.262,1.365,4.219,3.317,5.071l-1.385,2.077c-1.264,1.895-1.932,4.101-1.932,6.379v3.972c0,3.584,2.916,6.5,6.5,6.5h12c3.032,0,5.5-2.467,5.5-5.5v-3.001c0-4.134-3.363-7.497-7.496-7.497Z"/>
</svg>
