<?xml version="1.0" encoding="UTF-8"?>
<svg xmlns="http://www.w3.org/2000/svg" id="Layer_1" data-name="Layer 1" viewBox="0 0 24 24" width="512" height="512"><path d="m23.514,10.154l-4.312-7.387c-.636-1.09-1.815-1.767-3.076-1.767H7.874c-1.261,0-2.44.677-3.077,1.768L.486,10.154c-.651,1.118-.647,2.503.011,3.616l4.419,7.479c.638,1.081,1.813,1.752,3.067,1.752h8.033c1.254,0,2.43-.671,3.066-1.751l4.42-7.479c.658-1.113.662-2.498.011-3.616Zm-3.003.806h-2.237l-2.327-3.987,1.097-1.954,3.467,5.941Zm-6.307-4.968h-4.407l-1.118-1.991h6.642l-1.118,1.991Zm-1.123,2l-1.081,1.926-1.081-1.926h2.162Zm-2.789,2.968h-2.24l1.142-1.957,1.098,1.957Zm0,2l-1.092,1.946-1.15-1.946h2.242Zm1.708,1.043l1.116,1.989h-2.232l1.116-1.989Zm-2.239,3.989h4.477l1.128,2.009h-6.732l1.128-2.009Zm3.947-5.032h2.251l-1.154,1.953-1.096-1.953Zm0-2l1.103-1.964,1.146,1.964h-2.249Zm-6.751-5.942l1.102,1.963-2.322,3.979h-2.247l3.467-5.942Zm-3.455,7.942h2.225l2.341,3.961-1.084,1.931-3.482-5.893Zm13.513,5.893l-1.08-1.923,2.346-3.969h2.216l-3.482,5.893Z"/></svg>
