<?xml version="1.0" encoding="UTF-8"?>
<svg xmlns="http://www.w3.org/2000/svg" id="Layer_1" data-name="Layer 1" viewBox="0 0 24 24" width="512" height="512"><path d="m20.5,0H3.5C1.57,0,0,1.57,0,3.5v20.5h24V3.5c0-1.93-1.57-3.5-3.5-3.5Zm.5,21H3V3.5c0-.276.224-.5.5-.5h17c.276,0,.5.224.5.5v17.5Zm-5.319-10.435c.205-.481.319-1.01.319-1.565,0-2.206-1.794-4-4-4h-3.5c-1.378,0-2.5,1.122-2.5,2.5v9c0,1.378,1.122,2.5,2.5,2.5h5c2.481,0,4.5-2.019,4.5-4.5,0-1.69-.937-3.166-2.319-3.935Zm-6.681-2.565h3c.551,0,1,.449,1,1s-.449,1-1,1h-3v-2Zm4.5,8h-4.5v-3h4.5c.827,0,1.5.673,1.5,1.5s-.673,1.5-1.5,1.5Z"/></svg>
