<?xml version="1.0" encoding="UTF-8"?>
<svg xmlns="http://www.w3.org/2000/svg" id="Layer_1" data-name="Layer 1" viewBox="0 0 24 24" width="512" height="512"><path d="M9.44,12.44l2.12,2.12L2.16,23.96,.04,21.84,9.44,12.44Zm6.31,.87c.81-.91,1.25-2.09,1.25-3.31,0-2.76-2.24-5-5-5s-5,2.24-5,5h3c0-1.1,.9-2,2-2s2,.9,2,2c0,.49-.18,.96-.5,1.32l2.25,1.98ZM23.96,2.16L21.84,.04l-2.83,2.83c-1.81-1.78-4.28-2.87-7.01-2.87C6.49,0,2,4.49,2,10h3c0-3.86,3.14-7,7-7s7,3.14,7,7c0,1.66-.59,3.27-1.67,4.53-.4,.45-1.32,1.5-1.36,2.94-.04,1.92-1.86,3.53-3.98,3.53v3c3.77,0,6.9-2.9,6.98-6.47,0-.32,.35-.73,.64-1.06,1.54-1.8,2.38-4.1,2.38-6.47,0-1.7-.43-3.3-1.18-4.7l3.14-3.14Z"/></svg>
