<?xml version="1.0" encoding="UTF-8"?>
<svg xmlns="http://www.w3.org/2000/svg" id="Layer_1" data-name="Layer 1" viewBox="0 0 24 24">
  <path d="m17,8.5c0,.828-.672,1.5-1.5,1.5s-1.5-.672-1.5-1.5.672-1.5,1.5-1.5,1.5.672,1.5,1.5Zm4.874,1.276c-.092.463-.234.907-.419,1.329l2.545,4.895-4.531-2.356c-.778.601-1.694,1.031-2.693,1.23l-1.276,2.126-1.276-2.126c-.769-.154-1.489-.443-2.134-.843L2.147,23.974.026,21.853l9.942-9.943c-.399-.646-.689-1.366-.843-2.135l-2.126-1.276,2.126-1.276c.2-.999.629-1.916,1.23-2.693L8,0l4.895,2.545c.422-.185.867-.327,1.329-.419l1.276-2.126,1.276,2.126c.655.131,1.274.36,1.843.672l5.382-2.798-2.798,5.382c.312.568.542,1.188.672,1.843l2.126,1.276-2.126,1.276Zm-2.874-1.276c0-1.93-1.57-3.5-3.5-3.5s-3.5,1.57-3.5,3.5,1.57,3.5,3.5,3.5,3.5-1.57,3.5-3.5Z"/>
</svg>
