<?xml version="1.0" encoding="UTF-8"?>
<svg xmlns="http://www.w3.org/2000/svg" id="Layer_1" data-name="Layer 1" viewBox="0 0 24 24">
  <path d="M20.5,0H3.5C1.57,0,0,1.57,0,3.5V24H24V3.5c0-1.93-1.57-3.5-3.5-3.5Zm.5,21H3V3.5c0-.276,.224-.5,.5-.5H20.5c.276,0,.5,.224,.5,.5V21ZM10,6.5c0-1.381,1.119-2.5,2.5-2.5s2.5,1.119,2.5,2.5-1.119,2.5-2.5,2.5-2.5-1.119-2.5-2.5Zm8.865,5.811l-1.431,4.645c-.41,1.239-1.557,2.046-2.82,2.046-1.152,0-1.661-.552-1.661-.552-.072-.05-3.696-3.039-3.696-3.039l-1.643,3.59h-3.304l3.23-7h2.077l3.197,2.552,1.321-3.862c.448-1.305,1.872-2.001,3.176-1.555,1.304,.447,2.001,1.872,1.554,3.176Z"/>
</svg>
