<?xml version="1.0" encoding="UTF-8"?>
<svg xmlns="http://www.w3.org/2000/svg" id="Layer_1" data-name="Layer 1" viewBox="0 0 24 24">
  <path d="M17.862,10.016c.338,.757-.002,1.644-.759,1.981l-8.992,4.066c-.756,.337-1.643-.002-1.981-.758h0c-.338-.757,.002-1.644,.758-1.981l8.992-4.066c.756-.337,1.643,.002,1.981,.758Zm-1.973-5.99L6.896,8.092c-.757,.338-1.096,1.224-.758,1.981h0c.338,.756,1.224,1.096,1.981,.759l8.992-4.066c.757-.338,1.096-1.225,.759-1.981-.338-.756-1.224-1.096-1.981-.758Zm-7.769,1.571l3.737-1.728c.756-.339,1.094-1.226,.755-1.982-.339-.756-1.226-1.094-1.982-.755l-3.737,1.728c-.756,.339-1.094,1.226-.755,1.982,.339,.756,1.226,1.094,1.982,.755Zm15.84-.864l-1.234-2.734-3.106,1.402,1.234,2.734,3.106-1.402Zm-24.024-.014l3.156,1.512,1.297-2.705L1.232,2.014-.065,4.719ZM-.065,15.857l1.297,2.705,3.156-1.512-1.297-2.705L-.065,15.857Zm19.684,1.318l3.106,1.402,1.234-2.734-3.106-1.402-1.234,2.734Zm1.381-8.175v3h3v-3h-3ZM0,9v3H3v-3H0Zm15.881,5.564l-8.992,4.066c-.757,.338-1.096,1.224-.758,1.981h0c.338,.756,1.224,1.096,1.981,.759l.889-.402v2.033h6v-4.746l2.104-.951c.757-.338,1.096-1.225,.759-1.981-.338-.756-1.224-1.096-1.981-.758Z"/>
</svg>
