<?xml version="1.0" encoding="UTF-8"?>
<svg xmlns="http://www.w3.org/2000/svg" id="Layer_1" data-name="Layer 1" viewBox="0 0 24 24">
  <path d="m6,8.984c0,3.309,2.691,6,6,6s6-2.691,6-6v-2.984l2-1v-3L13.698.209c-1.115-.279-2.281-.279-3.396,0l-6.302,1.791v3l2,1v2.984Zm4-6.369c0-.191.122-.36.304-.421l1.696-.562,1.696.562c.182.06.304.229.304.421v1.45c0,1.513-1.552,2.255-1.999,2.435-.448-.224-2.001-1.104-2.001-2.435v-1.45Zm-1,5.177c.828.121,1.828.207,3,.207s2.172-.086,3-.207v1.192c0,1.654-1.346,3-3,3s-3-1.346-3-3v-1.192Zm12,13.707v2.5h-3v-2.5c0-.906-.48-1.711-1.229-2.149l-4.771,4.771-4.771-4.771c-.749.438-1.229,1.243-1.229,2.149v2.5h-3v-2.5c0-2.576,1.757-4.778,4.272-5.354l.809-.186,3.919,3.919,3.919-3.919.809.186c2.516.576,4.272,2.778,4.272,5.354Z"/>
</svg>
