<?xml version="1.0" encoding="UTF-8"?>
<svg xmlns="http://www.w3.org/2000/svg" id="Layer_1" data-name="Layer 1" viewBox="0 0 24 24" width="512" height="512"><path d="M5,10h5v3H5v-3Zm14,0h-5v3h5v-3ZM7,18c-.051,0-.099,.011-.149,.015,1.234-1.506,3.149-4.015,3.149-4.015,0,0-3.373,1.435-5.101,2.403-.255-.811-1.004-1.403-1.899-1.403-1.105,0-2,.895-2,2,0,.415,.126,.8,.343,1.12-.78,.273-1.343,1.007-1.343,1.88,0,1.105,.895,2,2,2,.017,0,.033-.005,.05-.005,.23,1.143,1.239,2.005,2.45,2.005s2.22-.862,2.45-2.005c.017,0,.033,.005,.05,.005,1.105,0,2-.895,2-2s-.895-2-2-2Zm15.657,.12c.216-.32,.343-.705,.343-1.12,0-1.105-.895-2-2-2-.895,0-1.644,.592-1.899,1.403-1.728-.968-5.101-2.403-5.101-2.403,0,0,1.915,2.509,3.149,4.015-.05-.004-.098-.015-.149-.015-1.105,0-2,.895-2,2s.895,2,2,2c.017,0,.033-.005,.05-.005,.23,1.143,1.239,2.005,2.45,2.005s2.22-.862,2.45-2.005c.017,0,.033,.005,.05,.005,1.105,0,2-.895,2-2,0-.873-.563-1.608-1.343-1.88Zm-9.538,2.803c-.368,.046-.74,.077-1.12,.077s-.752-.031-1.12-.077c-.274,1.151-1.04,2.108-2.069,2.634,1.017,.281,2.083,.443,3.189,.443s2.172-.162,3.189-.443c-1.029-.526-1.795-1.483-2.069-2.634ZM.203,14.148c.722-.708,1.708-1.148,2.797-1.148,.02,0,.039,.005,.06,.005-.037-.33-.06-.665-.06-1.005C3,7.037,7.037,3,12,3s9,4.037,9,9c0,.34-.023,.675-.06,1.005,.02,0,.039-.005,.06-.005,1.089,0,2.075,.44,2.797,1.148,.127-.698,.203-1.414,.203-2.148,0,0,0-.001,0-.003-.002-6.616-5.384-11.997-12-11.997S.002,5.381,0,11.997c0,.002,0,.003,0,.003,0,.734,.076,1.45,.203,2.148ZM17.392,6.624l-.783-1.84c-1.674,.713-3.041,1.851-3.953,3.29l1.689,1.07c.694-1.095,1.748-1.967,3.047-2.521Zm-9.929-1.84l-.785,1.84c1.26,.537,2.293,1.376,2.988,2.428l1.668-1.104c-.912-1.379-2.251-2.474-3.871-3.164Z"/></svg>
