<svg id="Layer_1" viewBox="0 0 24 24" xmlns="http://www.w3.org/2000/svg" data-name="Layer 1"><path d="m16 18h8v-3h-3v-11.5c0-1.93-1.57-3.5-3.5-3.5h-11c-1.93 0-3.5 1.57-3.5 3.5v11.5h-3v3h8v2h-2.511c-.456-.604-1.173-1-1.989-1-1.381 0-2.5 1.119-2.5 2.5s1.119 2.5 2.5 2.5c.815 0 1.532-.396 1.989-1h5.511v-5h2v5h5.511c.456.604 1.173 1 1.989 1 1.381 0 2.5-1.119 2.5-2.5s-1.119-2.5-2.5-2.5c-.815 0-1.532.396-1.989 1h-2.511zm-10-14.5c0-.276.225-.5.5-.5h11c.275 0 .5.224.5.5v11.5h-12zm2 6.5h3v3h-3zm5 0h3v3h-3zm-5-5h3v3h-3zm5 0h3v3h-3z"/></svg>