<?xml version="1.0" encoding="UTF-8"?>
<svg xmlns="http://www.w3.org/2000/svg" id="Layer_1" data-name="Layer 1" viewBox="0 0 24 24">
  <path d="m20.5,5h-1.5v-1.5c0-1.93-1.57-3.5-3.5-3.5H3.5C1.57,0,0,1.57,0,3.5v15.5h5v5h19v-15.5c0-1.93-1.57-3.5-3.5-3.5ZM3,10.414l4.5-4.5,2.086,2.086-6.586,6.586v-4.172Zm13-1.828l-4.75,4.75-2.086-2.086,6.836-6.836v4.172Zm-5-2l-2.086-2.086,1.5-1.5h4.172l-3.586,3.586Zm-3.25,6.078l2.086,2.086-1.25,1.25h-4.172l3.336-3.336Zm8.25-1.25v4.586h-4.586l4.586-4.586ZM3.5,3h4.086L3,7.586V3.5c0-.276.225-.5.5-.5Zm17.5,18h-13v-2h11v-11h1.5c.275,0,.5.224.5.5v12.5Z"/>
</svg>
