<?xml version="1.0" encoding="UTF-8"?>
<svg xmlns="http://www.w3.org/2000/svg" id="Layer_1" data-name="Layer 1" viewBox="0 0 24 24">
  <path d="M19.679,2.59L12,.044,4.322,2.59c-1.389,.46-2.322,1.751-2.322,3.211v6.162c0,6.518,6.852,10.45,8.952,11.5l.984,.492,1.021-.411c2.122-.854,9.043-4.21,9.043-11.581V5.802c0-1.461-.933-2.751-2.321-3.211Zm-.679,3.211v4.198h-5.5V3.702l5.235,1.736c.161,.053,.265,.196,.265,.364Zm-13.734-.364l5.234-1.736v6.298H5V5.802c0-.165,.106-.311,.266-.364Zm-.168,7.562h5.403v6.758c-2.073-1.322-4.872-3.645-5.403-6.758Zm8.403,6.965v-6.965h5.428c-.476,3.603-3.359,5.819-5.428,6.965Z"/>
</svg>
