<svg id="Layer_1" viewBox="0 0 24 24" xmlns="http://www.w3.org/2000/svg" data-name="Layer 1"><path d="m20 14h-3v2h-7v4c0 .551-.449 1-1 1s-1-.449-1-1v-16c0-.347-.058-.678-.142-1h6.202c-.031-.195-.06-.388-.06-.55 0-.905.278-1.746.75-2.45h-10.75c-2.206 0-4 1.794-4 4v4h5v12c0 2.206 1.794 4 4 4h11c2.206 0 4-1.794 4-4v-4h-4zm-15-9h-2v-1c0-.551.449-1 1-1s1 .449 1 1zm16 14v1c0 .551-.449 1-1 1h-7.126c.083-.32.126-.655.126-1v-1zm3-10v3h-11v-3h1v-.5c0-1.378 1.122-2.5 2.5-2.5h.754c-.626-1.342-1.254-2.859-1.254-3.55 0-1.381 1.119-2.45 2.5-2.45s2.5 1.069 2.5 2.45c0 .692-.627 2.209-1.254 3.55h.754c1.378 0 2.5 1.122 2.5 2.5v.5z"/></svg>