<svg id="Layer_1" viewBox="0 0 24 24" xmlns="http://www.w3.org/2000/svg" data-name="Layer 1"><path d="m21 21h-18v-12h5.35c.935-1.389 2.243-2.542 4.011-2.891l1.081-1.208c1.091-1.219 1.932-2.158 2.597-2.901h-12.539c-1.93 0-3.5 1.57-3.5 3.5v18.5h24v-17.759l-3 3v11.76zm-12.5-17c.828 0 1.5.672 1.5 1.5s-.672 1.5-1.5 1.5-1.5-.672-1.5-1.5.672-1.5 1.5-1.5zm-4 0c.828 0 1.5.672 1.5 1.5s-.672 1.5-1.5 1.5-1.5-.672-1.5-1.5.672-1.5 1.5-1.5zm10.433 2.235s4.923-5.511 4.955-5.543c.448-.447 1.027-.692 1.614-.692.857 0 1.301.2 1.795.694.496.497.703 1.229.703 1.806 0 .585-.26 1.161-.706 1.607l-5.128 5.139h-.001c-.546-1.447-1.741-2.561-3.232-3.011zm-1.433 7.765h-5s1-6 5-6c1.657 0 3 1.343 3 3s-1.343 3-3 3zm-8.5 2h14v3h-14z"/></svg>