<?xml version="1.0" encoding="UTF-8"?>
<svg xmlns="http://www.w3.org/2000/svg" id="Layer_1" data-name="Layer 1" viewBox="0 0 24 24">
  <path d="M24,19h-3v1.5c0,1.93-1.57,3.5-3.5,3.5h-1.5v-3h1.5c.275,0,.5-.225,.5-.5v-1.5h-3l3.793-3.707c.391-.391,1.024-.391,1.414,0l3.793,3.707ZM3.793,8.707c.391,.391,1.024,.391,1.414,0l3.793-3.707h-3v-1.5c0-.276,.225-.5,.5-.5h1.5V0h-1.5c-1.93,0-3.5,1.57-3.5,3.5v1.5H0l3.793,3.707ZM24,3V13H10V3c0-1.654,1.346-3,3-3h8c1.654,0,3,1.346,3,3Zm-3,7V5H13v5h8Zm-10,11H3v-5h5v-5H3c-1.654,0-3,1.346-3,3v10H14V15h-3v6Z"/>
</svg>
