<?xml version="1.0" encoding="UTF-8"?>
<svg xmlns="http://www.w3.org/2000/svg" id="Layer_1" data-name="Layer 1" viewBox="0 0 24 24" width="512" height="512"><path d="M7.998,11c-1.104,0-1.998-.895-1.998-1.998s.895-1.998,1.998-1.998,1.998,.895,1.998,1.998-.895,1.998-1.998,1.998Zm9.998-2c0-1.105-.895-2-2-2s-2,.895-2,2,.895,2,2,2,2-.895,2-2Zm2.681-.494l-5.752,5.065c-.861-.329-1.856-.571-2.926-.571-3.296,0-5.891,2.284-5.999,2.381l1.994,2.241c.019-.016,1.871-1.623,4.005-1.623,2.385,0,4.243,1.861,4.261,1.877l1.901-1.826-1.262-1.433,1.5-1.322,1.263,1.434,1.646-1.45-1.277-1.45,1.5-1.322,1.277,1.451,.512-.451c.828-.73,.909-1.994,.179-2.823-.731-.83-1.993-.91-2.823-.179Zm-8.678,12.494c-4.963,0-9-4.038-9-9S7.037,3,12,3c3.09,0,5.819,1.566,7.441,3.945,.855-.715,1.924-1.009,2.96-.905C20.328,2.437,16.447,0,12,0c0,0-.001,0-.003,0C5.381,.002,0,5.384,0,12s5.381,11.998,11.997,12c.002,0,.003,0,.003,0,6.142,0,11.213-4.64,11.911-10.597-.254,.247-6.081,5.441-6.081,5.441-1.572,1.341-3.606,2.156-5.83,2.156Z"/></svg>
