<?xml version="1.0" encoding="UTF-8"?>
<svg xmlns="http://www.w3.org/2000/svg" id="Layer_1" data-name="Layer 1" viewBox="0 0 24 24">
  <path d="m24.023,21.902l-3.061-3.061v-6l-7.854-7.854c-1.364-1.365-3.585-1.366-4.95,0l-.557.557-1.65-1.535,1.894-1.936L5.704-.024-.046,5.851l2.144,2.099,1.756-1.794,1.627,1.513-.492.492c-1.365,1.365-1.365,3.585,0,4.95l7.854,7.854h6l3.061,3.061,2.121-2.121Zm-9.939-3.939l-6.975-6.975c-.195-.195-.195-.512,0-.708l3.171-3.171c.196-.194.513-.194.708,0l1.123,1.123-2.439,2.439,2.121,2.121,2.439-2.439,1.648,1.648-2.439,2.439,2.121,2.121,2.4-2.4v3.801h-3.879Zm4.795-10.813c-.567-.566-.879-1.32-.879-2.121s.312-1.554.871-2.113l2.129-2.083,2.121,2.075c.566.566.879,1.319.879,2.121s-.313,1.555-.879,2.121c-1.134,1.134-3.11,1.134-4.242,0Z"/>
</svg>
