<?xml version="1.0" encoding="UTF-8"?>
<svg xmlns="http://www.w3.org/2000/svg" id="Layer_1" data-name="Layer 1" viewBox="0 0 24 24">
  <path d="m21,21v3h-3v-6h1.801l-1.07-8.562c-.031-.25-.244-.438-.496-.438h-1.994c.166-.469.26-.973.26-1.5,0-.511-.104-.993-.26-1.451.173-.026.347-.049.526-.049h1.469c1.762,0,3.255,1.318,3.473,3.066l1.492,11.934h-2.199Zm-3.5-16c1.381,0,2.5-1.119,2.5-2.5s-1.119-2.5-2.5-2.5-2.5,1.119-2.5,2.5,1.119,2.5,2.5,2.5Zm-5.5,5c1.381,0,2.5-1.119,2.5-2.5s-1.119-2.5-2.5-2.5-2.5,1.119-2.5,2.5,1.119,2.5,2.5,2.5Zm4,4.5v5.5h-.5v4h-3v-4h-1v4h-3v-4h-.5v-5.5c0-1.93,1.57-3.5,3.5-3.5h1c1.93,0,3.5,1.57,3.5,3.5Zm-5,2.5h2v-2.5c0-.275-.224-.5-.5-.5h-1c-.276,0-.5.225-.5.5v2.5ZM3.5,9h4.278c-.169-.471-.278-.971-.278-1.5,0-.519.106-1.009.267-1.473-.09-.007-.176-.027-.267-.027H3.5c-1.93,0-3.5,1.57-3.5,3.5v8.5h2v6h3v-6h1v-3h-3v-5.5c0-.275.225-.5.5-.5Zm2-4c1.381,0,2.5-1.119,2.5-2.5S6.881,0,5.5,0s-2.5,1.119-2.5,2.5,1.119,2.5,2.5,2.5Z"/>
</svg>
