<?xml version="1.0" encoding="UTF-8"?>
<svg xmlns="http://www.w3.org/2000/svg" id="Layer_1" data-name="Layer 1" viewBox="0 0 24 24">
  <path d="m20.5,0H3.5C1.57,0,0,1.57,0,3.5v5.5h1v15h11.721c-.926-.815-1.663-1.838-2.134-3h-6.587v-12h16v1.262c1.112.287,2.131.801,3,1.498v-2.76h1V3.5c0-1.93-1.57-3.5-3.5-3.5ZM3,3.5c0-.276.224-.5.5-.5h17c.276,0,.5.224.5.5v2.5H3v-2.5Zm15,8.5c-3.314,0-6,2.686-6,6s2.686,6,6,6,6-2.686,6-6-2.686-6-6-6Zm.752,8.44l-.004.004c-.744.744-2.058.746-2.823-.019l-2.182-2.268,1.387-1.441,2.216,2.301,3.614-3.703,1.398,1.43-3.607,3.696Z"/>
</svg>
