<svg id="Layer_1" viewBox="0 0 24 24" xmlns="http://www.w3.org/2000/svg" data-name="Layer 1"><path d="m24 9.5c0 3.156-1.569 6.311-3.998 8.038-.861.612-1.592 1.57-2.3 3.014-.474.968-1.21 1.805-2.13 2.42-1.019.683-2.219 1.021-3.419 1.021-1.31 0-2.619-.403-3.693-1.204-1.62-1.207-2.471-2.866-2.46-4.797l3 .016c-.005.98.393 1.735 1.253 2.377 1.057.787 2.559.826 3.65.095.488-.326.859-.746 1.104-1.247.937-1.911 1.971-3.226 3.256-4.14 1.637-1.164 2.736-3.411 2.736-5.593 0-1.848-.791-3.615-2.17-4.848-1.397-1.249-3.207-1.823-5.09-1.609-1.951.219-3.655 1.361-4.691 2.957h-3.377c1.276-3.174 4.254-5.547 7.733-5.938 2.701-.3 5.41.554 7.425 2.354 2.016 1.801 3.171 4.383 3.171 7.084zm-5 .5v-.499c0-2.481-2.019-4.5-4.5-4.5s-4.5 2.019-4.5 4.5v3.499h2.002l-.002 3c1.654 0 3-1.346 3-3 0-1.304-.836-2.416-2-2.829v-.67c0-.827.673-1.5 1.5-1.5s1.5.673 1.5 1.5v.499zm-12.096 6.511 2.121-2.121-2.389-2.39 2.389-2.39-2.121-2.121-2.389 2.39-2.389-2.39-2.122 2.121 2.389 2.39-2.389 2.39 2.121 2.121 2.389-2.39 2.389 2.39z"/></svg>