<?xml version="1.0" encoding="UTF-8"?>
<svg xmlns="http://www.w3.org/2000/svg" id="Layer_1" data-name="Layer 1" viewBox="0 0 24 24">
  <path d="m17,12H7v8.5c0,1.93,1.57,3.5,3.5,3.5h6.5v-.051c1.14-.232,2-1.242,2-2.449v-3.5h-2v-6Zm-7,8.5v-5.5h4v6h-3.5c-.276,0-.5-.225-.5-.5Zm-1-17.5c0-1.657,1.343-3,3-3s3,1.343,3,3c0,1.108-.607,2.064-1.5,2.584v4.416h-3v-4.416c-.893-.52-1.5-1.476-1.5-2.584Zm15,3c0,1.657-1.343,3-3,3-.184,0-.363-.022-.538-.054l-2.151,2.527-2.284-1.945,2.155-2.532c-.111-.313-.182-.645-.182-.996,0-1.657,1.343-3,3-3s3,1.343,3,3ZM5.689,11.473l-2.151-2.527c-.175.032-.353.054-.538.054-1.657,0-3-1.343-3-3s1.343-3,3-3,3,1.343,3,3c0,.351-.072.683-.182.996l2.155,2.532-2.284,1.945Z"/>
</svg>
