<?xml version="1.0" encoding="UTF-8"?>
<svg xmlns="http://www.w3.org/2000/svg" id="Layer_1" data-name="Layer 1" viewBox="0 0 24 24">
  <path d="m23.89,13.667l-1.646-10.7c-.265-1.719-1.72-2.967-3.459-2.967h-2.784v3h2.784c.248,0,.456.178.494.424l1.474,9.576h-3.252c-1.557,0-2.932.795-3.74,2h-3.52c-.808-1.205-2.183-2-3.74-2h-3.252l1.474-9.576c.038-.246.246-.424.494-.424h2.784V0h-2.784c-1.739,0-3.194,1.248-3.459,2.968L.11,13.669c-.073.477-.11.963-.11,1.443v4.388c0,2.481,2.019,4.5,4.5,4.5h2c2.481,0,4.5-2.019,4.5-4.5v-1.5h2v1.5c0,2.481,2.019,4.5,4.5,4.5h2c2.481,0,4.5-2.019,4.5-4.5v-4.388c0-.48-.037-.966-.11-1.444Zm-15.89,5.833c0,.827-.673,1.5-1.5,1.5h-2c-.827,0-1.5-.673-1.5-1.5v-3.5h3.5c.827,0,1.5.673,1.5,1.5v2Zm13,0c0,.827-.673,1.5-1.5,1.5h-2c-.827,0-1.5-.673-1.5-1.5v-2c0-.827.673-1.5,1.5-1.5h3.5v3.5Z"/>
</svg>
