<?xml version="1.0" encoding="UTF-8"?>
<svg xmlns="http://www.w3.org/2000/svg" id="Layer_1" data-name="Layer 1" viewBox="0 0 24 24">
  <path d="m24,19v2c0,1.657-1.343,3-3,3H3c-1.657,0-3-1.343-3-3v-2h2V6h3v13h3.308l.923,1h5.538l.923-1h3.308V6h3v13h2ZM6.054,7.701l1.522-.879c-.049-.267-.076-.542-.076-.823s.026-.556.076-.823l-1.522-.879,1.5-2.598,1.524.88c.416-.356.897-.637,1.422-.824V0h3v1.757c.526.186,1.007.468,1.422.824l1.524-.88,1.5,2.598-1.522.879c.049.267.076.542.076.823s-.026.556-.076.823l1.522.879-1.5,2.598-1.524-.88c-.416.356-.897.637-1.422.824v1.757h-3v-1.757c-.526-.186-1.007-.468-1.422-.824l-1.524.88-1.5-2.598Zm4.446-1.701c0,.827.673,1.5,1.5,1.5s1.5-.673,1.5-1.5-.673-1.5-1.5-1.5-1.5.673-1.5,1.5Z"/>
</svg>
