<?xml version="1.0" encoding="UTF-8"?>
<svg xmlns="http://www.w3.org/2000/svg" id="Layer_1" data-name="Layer 1" viewBox="0 0 24 24">
  <path d="m5,24h14l-7-12-7,12Zm8-1h-2v-2h2v2Zm0-3h-2v-4h2v4Zm10.996-7.705c-.02,3.382-2.217,6.252-5.258,7.287l-1.561-2.676c2.169-.431,3.81-2.342,3.821-4.634-.011-2.206-1.587-4.127-3.758-4.572l-.815-.167-.29-.78c-.833-2.245-2.997-3.753-5.385-3.753-3.17,0-5.75,2.58-5.75,5.75,0,.437.054.874.164,1.337l.253,1.062-.932.567c-.888.541-1.484,1.54-1.484,2.488,0,1.542,1.04,2.796,2.318,2.796h1.45l-1.741,2.984c-2.797-.166-5.027-2.691-5.027-5.78,0-1.645.787-3.287,2.065-4.417-.043-.349-.065-.696-.065-1.038C2,3.925,5.925,0,10.75,0c3.366,0,6.439,1.967,7.883,4.968,3.077.981,5.259,4.069,5.364,7.327Z"/>
</svg>
