<?xml version="1.0" encoding="UTF-8"?>
<svg xmlns="http://www.w3.org/2000/svg" id="Layer_1" data-name="Layer 1" viewBox="0 0 24 24" width="512" height="512"><path d="m23.974,3.781l-1.974,10.361v9.858h-13.082L.747,16.609c-.866-.722-.983-2.008-.261-2.874.722-.866,2.008-.983,2.874-.261l2.64,2.489v-1.807L3.847,3.806c-.186-.892.464-1.765,1.415-1.806.746-.032,1.386.542,1.539,1.273,0,0,2.189,10.624,2.199,10.727v6.011l1.082.989h8.918v-7c.009-.094,2.026-10.781,2.026-10.781.154-.814.945-1.347,1.754-1.193.814.155,1.349.94,1.193,1.754Zm-4.685-2.002c.154-.814-.381-1.599-1.195-1.752-.811-.157-1.599.381-1.752,1.195l-1.865,9.779h3.068l1.744-9.221Zm-8.84,9.221h3.037L11.469,1.194c-.17-.811-.962-1.329-1.775-1.162-.811.169-1.331.963-1.162,1.774l1.918,9.194Z"/></svg>
