<svg id="Layer_1" viewBox="0 0 24 24" xmlns="http://www.w3.org/2000/svg" data-name="Layer 1"><path d="m10.5 11.057.53 1.404h-1.064l.535-1.404zm11.916 7.149c-.667.99-1.803 1.573-3.304 1.74.36-1.086.692-2.495.882-3.701.005-.12-.012-.248-.037-.358-.173-.757-.842-1.825-1.976-2.99-.196 5.657-2.239 11.103-5.981 11.103-1.243 0-2.378-.67-3.326-1.877 1.095-.264 2.24-.654 3.403-1.137.641-.093 1.559-1.346 2.195-3.5-2.86 1.522-5.968 2.522-8.475 2.522-1.844 0-3.362-.539-4.212-1.802-.752-1.116-.766-2.518-.101-4.051.763.835 1.645 1.655 2.644 2.442.002-.002.005-.003.007-.005.437.468 1.983.587 4.143.055-3.853-2.368-6.584-5.344-7.159-7.866-.323-1.417.075-2.405.466-2.986.666-.99 1.805-1.568 3.304-1.735-.363 1.076-.646 2.227-.844 3.418-.031.1-.063.483 0 .636.173.757.841 1.825 1.976 2.99.194-5.657 2.237-11.104 5.979-11.104 1.268 0 2.425.694 3.384 1.948-1.122.237-2.273.62-3.421 1.059-.642.046-1.584 1.305-2.233 3.502 4.965-2.64 10.682-3.693 12.687-.714.754 1.121.763 2.526.093 4.062-.781-.861-1.493-1.546-2.509-2.357-.002.002-.197-.16-.199-.158-.516-.415-2.02-.501-4.082.009 3.856 2.368 6.588 5.345 7.164 7.868.323 1.417-.075 2.406-.466 2.986zm-9.132-3.206-2.265-6h-1.033l-2.285 5.998h1.303l.5-1.324h1.983l.5 1.326zm1.953-6h-1.237v6h1.237z"/></svg>