<?xml version="1.0" encoding="UTF-8"?>
<svg xmlns="http://www.w3.org/2000/svg" id="Layer_1" data-name="Layer 1" viewBox="0 0 24 24">
  <path d="m7.932,10c-.244,0-.471-.151-.601-.4l-.831-1.6-.831,1.6c-.129.249-.356.4-.601.4-.368,0-.675-.339-.706-.779l-.363-4.221h1.042l.249,3.158,1.209-2.327,1.209,2.327.247-3.158h1.044l-.363,4.221c-.031.44-.337.779-.706.779Zm2.636,0c.244,0,.471-.151.601-.4l.831-1.6.831,1.6c.129.249.356.4.601.4.368,0,.675-.339.706-.779l.363-4.221h-1.044l-.247,3.158-1.209-2.327-1.209,2.327-.249-3.158h-1.042l.363,4.221c.031.44.337.779.706.779Zm5.5,0c.244,0,.471-.151.601-.4l.831-1.6.831,1.6c.129.249.356.4.601.4.368,0,.675-.339.706-.779l.363-4.221h-1.044l-.247,3.158-1.209-2.327-1.209,2.327-.249-3.158h-1.042l.363,4.221c.031.44.337.779.706.779Zm.364,9.311l2.474,2.474-2.121,2.121-2.474-2.474c-.692.362-1.478.567-2.311.567-2.757,0-5-2.243-5-5s2.243-5,5-5,5,2.243,5,5c0,.833-.205,1.62-.568,2.311Zm-2.432-2.311c0-1.103-.897-2-2-2s-2,.897-2,2,.897,2,2,2,2-.897,2-2ZM20.5,0H3.5C1.57,0,0,1.57,0,3.5v11.5h5.294c.343-1.153.974-2.18,1.812-3H3V3.5c0-.276.225-.5.5-.5h17c.275,0,.5.224.5.5v8.5h-4.106c.837.82,1.468,1.847,1.812,3h5.294V3.5c0-1.93-1.57-3.5-3.5-3.5Z"/>
</svg>
