<?xml version="1.0" encoding="UTF-8"?>
<svg xmlns="http://www.w3.org/2000/svg" id="Layer_1" data-name="Layer 1" viewBox="0 0 24 24">
  <path d="m16.035,21l2.997,3h-9.532c-2.481,0-4.5-2.019-4.5-4.5v-3.536c-2.841-.357-5-3.724-5-7.964,0-.945.114-1.864.323-2.726l2.679,2.681c0,.015-.002.03-.002.045,0,2.862,1.32,5,2.5,5h2.542l2.997,3h-3.039v3.5c0,.827.673,1.5,1.5,1.5h6.535Zm7.965,0v3h-2.141L.039,2.16,2.161.04l.817.818c.768-.56,1.631-.858,2.522-.858h12.5c2.209,0,4,3.582,4,8v11c0,1.103.897,2,2,2Zm-10-13c0-1.892.329-3.63.878-5H5.5c-.113,0-.223.02-.328.054l9.575,9.584c-.468-1.309-.747-2.906-.747-4.637Zm5,0c0-1.933-.448-3.5-1-3.5s-1,1.567-1,3.5.448,3.5,1,3.5,1-1.567,1-3.5Z"/>
</svg>
