<svg id="Layer_1" viewBox="0 0 24 24" xmlns="http://www.w3.org/2000/svg" data-name="Layer 1"><path d="m9 3c0-1.657 1.343-3 3-3s2.894 1.343 2.894 3-1.237 3-2.894 3-3-1.343-3-3zm8 8.442-.006.003c0 .019.006.036.006.055zm-10 0v.058c0-.019.005-.037.006-.056l-.006-.003zm3 .058c0-.275.224-.5.5-.5h3c.275 0 .5.225.5.5v1.484l2.994-1.54c-.03-1.904-1.584-3.445-3.494-3.445h-3c-1.911 0-3.464 1.541-3.494 3.444l2.994 1.54v-1.484zm7 5.497 4.671-2.335-1.342-2.684-8.329 4.165-8.329-4.164-1.342 2.684 4.671 2.335-5 4.847v2.155h9v-3h-3.754l2.721-2.519 2.033 1.016 2.033-1.016 2.722 2.519h-3.755v3h9v-2.232l-5-4.77z"/></svg>