<?xml version="1.0" encoding="UTF-8"?>
<svg xmlns="http://www.w3.org/2000/svg" id="Layer_1" data-name="Layer 1" viewBox="0 0 24 24" width="512" height="512"><path d="m18.685,23H5.193c-1.822,0-3.321-1.368-3.486-3.183L-.003,1h24.001l-1.829,18.838c-.176,1.802-1.673,3.162-3.484,3.162ZM3.282,4l1.413,15.545c.023.259.237.455.498.455h13.491c.259,0,.474-.194.498-.452l1.511-15.548H3.282Zm10.597,15c-.512,0-1.024-.195-1.414-.585l-2.122-2.121c-.778-.78-.778-2.048,0-2.828l2.123-2.122c.779-.78,2.049-.78,2.828,0l2.121,2.121c.78.78.78,2.049,0,2.829l-2.121,2.121c-.39.39-.902.585-1.414.585Zm-5.215-7.206l2.125-2.124c.594-.594,1.345-.969,2.159-1.105-.199-.894-.996-1.565-1.949-1.565h-3c-1.103,0-2,.897-2,2v3c0,.953.671,1.749,1.564,1.949.133-.789.495-1.547,1.101-2.154Z"/></svg>
