<?xml version="1.0" encoding="UTF-8"?>
<svg xmlns="http://www.w3.org/2000/svg" id="Layer_1" data-name="Layer 1" viewBox="0 0 24 24">
  <path d="m21.5,19c-.253,0-.493.049-.724.119l-2.293-1.668,1.517-.867V7.416l-1.517-.867,2.293-1.668c.231.07.47.119.724.119,1.381,0,2.5-1.119,2.5-2.5s-1.119-2.5-2.5-2.5c-1.367,0-2.474,1.099-2.496,2.461l-3.377,2.456-3.627-2.073-3.627,2.073-3.377-2.456c-.022-1.362-1.129-2.461-2.496-2.461C1.119,0,0,1.119,0,2.5s1.119,2.5,2.5,2.5c.253,0,.493-.049.724-.119l2.293,1.668-1.517.867v9.168l1.517.867-2.293,1.668c-.231-.07-.47-.119-.724-.119-1.381,0-2.5,1.119-2.5,2.5s1.119,2.5,2.5,2.5c1.367,0,2.474-1.099,2.496-2.461l3.377-2.456,3.627,2.073,3.627-2.073,3.377,2.456c.022,1.362,1.129,2.461,2.496,2.461,1.381,0,2.5-1.119,2.5-2.5s-1.119-2.5-2.5-2.5ZM7,10.12l4,2.286v4.724l-4-2.286v-4.724Zm6,2.286l4-2.286v4.724l-4,2.286v-4.724Zm2.828-3.919l-3.828,2.188-3.828-2.188,3.828-2.188,3.828,2.188Z"/>
</svg>
