<?xml version="1.0" encoding="UTF-8"?>
<svg xmlns="http://www.w3.org/2000/svg" id="Layer_1" data-name="Layer 1" viewBox="0 0 24 24">
  <path d="m11,16.018c0,1.657-1.343,3-3,3s-3-1.343-3-3c0-1.11.604-2.079,1.5-2.598v-6.421h3v6.421c.896.519,1.5,1.487,1.5,2.598Zm3-5.307c1.294,1.464,2,3.312,2,5.271,0,4.411-3.589,8-8,8S0,20.393,0,15.981c0-1.959.706-3.807,2-5.271v-4.692C2,2.71,4.691.019,8,.019s6,2.691,6,6v4.692Zm-1,5.271c0-1.356-.547-2.632-1.541-3.59l-.459-.442v-5.931c0-1.654-1.346-3-3-3s-3,1.346-3,3v5.931l-.459.442c-.994.958-1.541,2.233-1.541,3.59,0,2.757,2.243,5,5,5s5-2.243,5-5ZM16,0v3h8V0h-8Zm0,8h8v-3h-8v3Zm2,5h6v-3h-6v3Z"/>
</svg>
