<?xml version="1.0" encoding="utf-8"?>
<!-- Generator: Adobe Illustrator 26.5.3, SVG Export Plug-In . SVG Version: 6.00 Build 0)  -->
<svg xmlns="http://www.w3.org/2000/svg" xmlns:xlink="http://www.w3.org/1999/xlink" version="1.1" id="Layer_1" x="0px" y="0px" viewBox="0 0 24 24" style="enable-background:new 0 0 24 24;" xml:space="preserve">
<path d="M23,7.7C22,6.3,20.7,5.4,19,5.1C18.8,5,18.5,5,18.3,5c-0.6-1.7-1.7-3-2.6-3.7c-1.3-1-2.8-1.4-4.2-1.2c-1.6,0.3-3,1.1-4,2.5  C7.1,3,6.8,3.6,6.6,4.3C5.1,4.4,3.8,4.7,2.8,5.3C1.5,6.1,0.5,7.5,0.3,9c-0.3,1.6,0.1,3.3,1,4.6c0.3,0.5,0.7,0.9,1.2,1.3  c-0.6,1.8-0.7,3.6-0.3,5c0.5,1.6,1.5,2.8,2.8,3.5c2.1,1.1,4.7,0.8,6.6-0.8c1.6,0.9,3.1,1.4,4.4,1.4c1.6,0,3.1-0.6,4.1-1.6  c1.2-1.2,1.8-2.7,1.8-4.4c0-0.7-0.1-1.4-0.4-2.1c1.3-1.3,2-2.7,2.2-3.8C24,10.4,23.7,8.9,23,7.7L23,7.7z M11.9,3  c1.9,0,3,1.4,3.8,3.6c-1.9-1.1-4-1.8-6-2.1C10.2,3.7,11.1,3.1,11.9,3L11.9,3z M3.2,9.5c0.1-0.7,0.6-1.3,1.2-1.7  c0.7-0.4,2-0.7,3.2-0.6C7.1,7.5,6.7,8,6.4,8.4l0,0c-1,1.1-1.9,2.4-2.6,3.6C3.3,11.3,3.1,10.4,3.2,9.5L3.2,9.5z M6.3,20.7  c-0.6-0.3-1-0.9-1.3-1.7c-0.3-0.9-0.1-2.3,0.5-3.9c0.8,2.3,2,4.1,3.5,5.5C8.1,21.3,7.1,21.1,6.3,20.7z M10.5,12.7  c0,0.7-0.5,1.2-1.2,1.2c-0.6,0-1.1-0.4-1.2-0.9C7.7,10.7,9.7,8.4,12,8.5c0.2,0,0.4,0,0.6,0.1c-1.3,0.7-2.1,2.1-2.1,3.6  C10.5,12.2,10.5,12.7,10.5,12.7z M11.2,16.5c1.4-0.7,2.3-2.1,2.3-3.7v-0.6c0-0.7,0.5-1.2,1.2-1.2c0.5,0,1,0.4,1.2,0.9  C16.4,14.5,13.9,17.1,11.2,16.5L11.2,16.5z M17.9,20.3c-0.4,0.4-1.2,0.7-2,0.7c-0.8,0-2.3-0.5-3.8-1.5c2.5-0.1,5-0.7,6.7-1.6  C18.9,18.7,18.5,19.7,17.9,20.3L17.9,20.3z M20.8,11.5c-0.1,0.6-0.8,1.9-2.2,3c0.2-0.7,0.3-1.6,0.3-2.4h0c0-0.5-0.1-1-0.3-1.5  c0.2-0.9,0.3-1.7,0.3-2.6c0.7,0.2,1.2,0.7,1.6,1.3C20.8,9.8,20.9,10.6,20.8,11.5z"/>
</svg>
