<?xml version="1.0" encoding="UTF-8"?>
<svg xmlns="http://www.w3.org/2000/svg" id="Layer_1" data-name="Layer 1" viewBox="0 0 24 24">
  <path d="m19,12v3h1.836c-.747,3.304-3.927,5.41-7.336,5.893v-5.893h2.5v-3h-2.5v-3.257c1.746-.619,3-2.287,3-4.243,0-2.481-2.019-4.5-4.5-4.5s-4.5,2.019-4.5,4.5c0,1.956,1.254,3.624,3,4.243v3.257h-2.5v3h2.5v5.893c-3.41-.483-6.589-2.59-7.335-5.893h1.835v-3H0v1.5c0,6.572,6.102,10.5,12,10.5s12-3.928,12-10.5v-1.5h-5ZM12,3c.827,0,1.5.673,1.5,1.5s-.673,1.5-1.5,1.5-1.5-.673-1.5-1.5.673-1.5,1.5-1.5Z"/>
</svg>
