<?xml version="1.0" encoding="UTF-8"?>
<svg xmlns="http://www.w3.org/2000/svg" id="Layer_1" data-name="Layer 1" viewBox="0 0 24 24">
  <path d="m11.547,13.26L20.943,3.935l2.113,2.13-9.808,9.732c-.447.45-1.053.702-1.697.703h-.002c-.645,0-1.25-.252-1.706-.708l-3.337-3.279,2.102-2.14,2.938,2.887Zm10.402-3.278l-3.949,3.918v4.1h-4.275l-1.725,1.725-1.725-1.725h-4.275v-4.275l-1.725-1.725,1.725-1.725v-4.275h4.275l1.725-1.725,1.725,1.725h2.299l3.023-3h-4.079L12,.032l-2.967,2.968H3v6.033L.033,12l2.967,2.967v6.033h6.033l2.967,2.967,2.967-2.967h6.033v-6.033l2.967-2.967-2.018-2.018Z"/>
</svg>
