<?xml version="1.0" encoding="UTF-8"?>
<svg xmlns="http://www.w3.org/2000/svg" id="Layer_1" data-name="Layer 1" viewBox="0 0 24 24">
  <path d="M15,2.475c0-1.367,1.007-2.475,2.25-2.475s2.25,1.108,2.25,2.475c0-1.367,1.007-2.475,2.25-2.475s2.25,1.108,2.25,2.475c0,2.592-4.5,5.775-4.5,5.775,0,0-4.5-3.183-4.5-5.775Zm9,4.374V24H0V6.5c0-1.93,1.57-3.5,3.5-3.5H13.041c.132,1.049,.639,2.072,1.298,3H3.5c-.276,0-.5,.225-.5,.5v.46l7.361,7.361c.438,.438,1.038,.657,1.639,.657,.601,0,1.202-.219,1.639-.657l4.321-4.321,1.54,1c.488-.345,3.193-2.615,4.5-4.151Zm-3,4.353l-5.239,5.24c-1.004,1.004-2.339,1.558-3.761,1.558s-2.757-.553-3.761-1.558L3,11.202v9.798H21V11.202Z"/>
</svg>
