<?xml version="1.0" encoding="UTF-8"?>
<svg xmlns="http://www.w3.org/2000/svg" id="Layer_1" data-name="Layer 1" viewBox="0 0 24 24" width="512" height="512"><path d="m20.5,0H3.5C1.57,0,0,1.57,0,3.5v20.5h24V3.5c0-1.93-1.57-3.5-3.5-3.5Zm.5,21H3V3.5c0-.276.224-.5.5-.5h17c.276,0,.5.224.5.5v17.5Zm-11.985-10v2c0,1.682,1.297,3,2.953,3h.5c1.127,0,2.149-.623,2.667-1.625l2.665,1.378c-1.036,2.003-3.079,3.248-5.333,3.248h-.5c-3.283,0-5.953-2.691-5.953-6v-2c0-3.309,2.67-6,5.953-6h.5c2.294,0,4.354,1.277,5.375,3.333l-2.687,1.335c-.511-1.028-1.542-1.667-2.689-1.667h-.5c-1.656,0-2.953,1.318-2.953,3Z"/></svg>
