<?xml version="1.0" encoding="UTF-8"?>
<svg xmlns="http://www.w3.org/2000/svg" id="Layer_1" data-name="Layer 1" viewBox="0 0 24 24">
  <path d="m19.808,17.813c-.095.031-.188.06-.279.088,1.577.945,2.471,1.974,2.471,1.974,0,0-1.984,2.062-4.928,2.078.618,1.013.883,1.763.883,1.763,0,0-3.426.774-5.955-.253-2.529,1.027-5.955.253-5.955.253,0,0,.265-.75.883-1.763-2.943-.016-4.928-2.078-4.928-2.078,0,0,.894-1.029,2.471-1.974-.091-.028-.183-.057-.279-.088-2.39-.766-4.192-3.527-4.192-3.527,0,0,1.173-.649,2.96-.979-.004-.018-.007-.036-.011-.054-.968-.157-2.033-.612-2.501-1.785-.962-2.408-.077-5.619-.077-5.619,0,0,1.207.452,2.487,1.607.004-.028.008-.056.013-.084-.635-1.05-1.186-2.486-.561-3.742C3.46,1.314,6.5,0,6.5,0c0,0,1.404,3.908-.682,7.942-.67,4.464.741,7.338,2.095,8.992,1.234,1.508,2.819,2.457,4.087,2.806,1.268-.349,2.853-1.298,4.087-2.806,1.354-1.654,2.765-4.528,2.095-8.992-2.086-4.034-.682-7.942-.682-7.942,0,0,3.04,1.314,4.191,3.63.625,1.257.073,2.692-.561,3.742.004.028.008.056.013.084,1.28-1.154,2.487-1.607,2.487-1.607,0,0,.885,3.211-.077,5.619-.468,1.173-1.532,1.627-2.501,1.785-.004.018-.007.036-.011.054,1.787.33,2.96.979,2.96.979,0,0-1.802,2.761-4.192,3.527Zm-8.808-9.715v6.902h3V4.5l-.087-1.5h-2.132l-3.854,3.953,2.147,2.094.926-.949Z"/>
</svg>
