<?xml version="1.0" encoding="UTF-8"?>
<svg xmlns="http://www.w3.org/2000/svg" id="Layer_1" data-name="Layer 1" viewBox="0 0 24 24">
  <path d="M9.5,7.5c0-1.379,1.121-2.5,2.5-2.5s2.5,1.121,2.5,2.5-1.121,2.5-2.5,2.5-2.5-1.121-2.5-2.5Zm6.5,6c0-1.381-1.119-2.5-2.5-2.5h-3c-1.381,0-2.5,1.119-2.5,2.5v1.5h8v-1.5Zm8,.786s-1.18-.641-2.962-.972c.969-.157,2.045-.672,2.514-1.846,.962-2.408,.077-5.619,.077-5.619,0,0-1.208,.454-2.489,1.61,.636-1.051,1.177-2.57,.551-3.829-1.151-2.316-4.191-3.63-4.191-3.63,0,0-1.385,3.885,.674,7.907,.683,4.483-.73,7.369-2.086,9.026-1.236,1.509-2.819,2.451-4.088,2.799-1.269-.348-2.852-1.29-4.087-2.799-1.357-1.658-2.769-4.543-2.087-9.025C7.886,3.886,6.5,0,6.5,0c0,0-3.04,1.314-4.191,3.63-.626,1.259-.085,2.779,.551,3.83C1.58,6.304,.371,5.85,.371,5.85c0,0-.885,3.211,.077,5.619,.469,1.173,1.544,1.688,2.513,1.846-1.782,.331-2.961,.972-2.961,.972,0,0,1.86,2.841,4.477,3.612-.018-.005-.029-.008,.011,.004-1.577,.945-2.488,1.973-2.488,1.973,0,0,1.989,2.063,4.936,2.076-.615,1.009-.891,1.765-.891,1.765,0,0,3.426,.773,5.955-.254,2.529,1.028,5.955,.254,5.955,.254,0,0-.276-.756-.891-1.765,2.947-.013,4.936-2.076,4.936-2.076,0,0-.911-1.027-2.487-1.972,2.39-.766,4.487-3.616,4.487-3.616Z"/>
</svg>
