<?xml version="1.0" encoding="UTF-8"?>
<svg xmlns="http://www.w3.org/2000/svg" id="Layer_1" data-name="Layer 1" viewBox="0 0 24 24">
  <path d="m20.5,3H3.5c-1.93,0-3.5,1.57-3.5,3.5v14.5h3l3-3.086,3,3,3-3,3,3,3-3,3,3.086h3V6.5c0-1.93-1.57-3.5-3.5-3.5Zm.5,9.086l-1.586-1.586,1.586-1.586v3.172Zm-.107-5.893l-2.893,2.893-1.586-1.586,1.5-1.5h2.586c.16,0,.302.076.393.193Zm-10.479,1.307l1.5-1.5h.172l1.5,1.5-1.586,1.586-1.586-1.586Zm.172,3l-1.586,1.586-1.586-1.586,1.586-1.586,1.586,1.586Zm4.414-1.586l1.586,1.586-1.586,1.586-1.586-1.586,1.586-1.586ZM3.5,6h2.586l1.5,1.5-1.586,1.586-2.893-2.893c.092-.117.234-.193.393-.193Zm1.086,4.5l-1.586,1.586v-3.172l1.586,1.586Zm-1.586,7.556v-3.097l1.586,1.541-1.586,1.556Zm1.414-4.556l1.586-1.586,1.586,1.586-1.586,1.586-1.586-1.586Zm4.586,4.586l-1.586-1.586,1.586-1.586,1.586,1.586-1.586,1.586Zm1.414-4.586l1.586-1.586,1.586,1.586-1.586,1.586-1.586-1.586Zm4.586,4.586l-1.586-1.586,1.586-1.586,1.586,1.586-1.586,1.586Zm1.414-4.586l1.586-1.586,1.586,1.586-1.586,1.586-1.586-1.586Zm3,3l1.586-1.541v3.127l-1.586-1.586Z"/>
</svg>
