<svg id="Layer_1" viewBox="0 0 24 24" xmlns="http://www.w3.org/2000/svg" data-name="Layer 1"><path d="m17 10c-3.866 0-7 3.134-7 7s3.134 7 7 7 7-3.134 7-7-3.134-7-7-7zm-1.479 5.74 3.286.548c1.271.211 2.193 1.3 2.193 2.588 0 1.447-1.177 2.624-2.624 2.624h-.376v1h-2v-1c-1.654 0-3-1.346-3-3h2c0 .551.449 1 1 1h2.376c.344 0 .624-.28.624-.624 0-.307-.22-.565-.521-.616l-3.286-.548c-1.27-.211-2.192-1.3-2.192-2.588 0-1.447 1.177-2.624 2.624-2.624h.376v-1h2v1c1.654 0 3 1.346 3 3h-2c0-.551-.448-1-1-1h-2.376c-.344 0-.624.28-.624.624 0 .307.219.565.521.616zm-8.021 5.26c-2.904 0-4.5-1.126-4.5-1.5v-1.357c1.238.541 2.781.857 4.5.857.247 0 .486-.012.724-.027-.142-.636-.224-1.294-.224-1.973 0-.347.024-.688.062-1.026-.184.011-.364.026-.562.026-2.904 0-4.5-1.126-4.5-1.5v-1.357c1.238.541 2.781.857 4.5.857.357 0 .701-.021 1.041-.048.508-1.41 1.356-2.654 2.449-3.637-.76.359-1.929.685-3.489.685-2.904 0-4.5-1.126-4.5-1.5v-1.357c1.238.541 2.781.857 4.5.857s3.262-.317 4.5-.857v1.357c0 .006-.009.017-.01.024.901-.605 1.919-1.045 3.01-1.293v-3.731c-.001-2.565-3.225-4.5-7.501-4.5s-7.5 1.935-7.5 4.5v15c0 2.565 3.225 4.5 7.5 4.5 1.219 0 2.341-.168 3.337-.453-.801-.754-1.46-1.652-1.942-2.654-.427.062-.88.107-1.395.107zm0-18c2.904 0 4.5 1.127 4.5 1.5s-1.596 1.5-4.5 1.5-4.5-1.127-4.5-1.5 1.596-1.5 4.5-1.5z"/></svg>