<svg id="Layer_1" viewBox="0 0 24 24" xmlns="http://www.w3.org/2000/svg" data-name="Layer 1"><path d="m12.745 10.988v2.024c0 .403-.322.729-.724.736-.144-.002-.437-.003-.754-.003.003-.642.001-2.311 0-3.49.317 0 .61 0 .754-.003.402.007.725.333.724.736zm5.872 5.508 1.616 1.616c.246-.065.5-.112.768-.112 1.657 0 3 1.343 3 3s-1.343 3-3 3-3-1.343-3-3c0-.267.046-.521.111-.767l-1.616-1.616c-.802.546-1.709.943-2.683 1.169.424.448.688 1.049.688 1.714 0 1.381-1.119 2.5-2.5 2.5s-2.5-1.119-2.5-2.5c0-.665.264-1.266.688-1.714-.974-.226-1.882-.624-2.683-1.169l-1.616 1.616c.065.246.111.5.111.767 0 1.657-1.343 3-3 3s-3-1.343-3-3 1.343-3 3-3c.267 0 .521.046.768.112l1.616-1.616c-.546-.802-.943-1.709-1.169-2.684-.448.424-1.049.688-1.714.688-1.381 0-2.5-1.119-2.5-2.5s1.119-2.5 2.5-2.5c.665 0 1.266.264 1.714.688.226-.974.624-1.882 1.169-2.683l-1.616-1.616c-.246.065-.5.111-.767.111-1.657 0-3-1.343-3-3s1.341-3 2.998-3 3 1.343 3 3c0 .267-.046.521-.112.768l1.616 1.616c.802-.546 1.709-.943 2.684-1.169-.424-.448-.688-1.049-.688-1.714 0-1.381 1.119-2.5 2.5-2.5s2.5 1.119 2.5 2.5c0 .665-.264 1.266-.688 1.714.974.226 1.882.624 2.684 1.169l1.616-1.616c-.065-.246-.112-.5-.112-.768 0-1.657 1.343-3 3-3s3 1.343 3 3-1.343 3-3 3c-.267 0-.521-.046-.767-.111l-1.616 1.616c.546.802.943 1.709 1.169 2.683.448-.424 1.049-.688 1.714-.688 1.381 0 2.5 1.119 2.5 2.5s-1.119 2.5-2.5 2.5c-.665 0-1.266-.264-1.714-.688-.226.974-.624 1.882-1.169 2.684zm-9.63-3.496h-1.25v.015c0 .395-.342.726-.75.733-.402-.007-.725-.333-.724-.736 0-.138-.008-1.929-.008-2.024 0-.403.322-.729.724-.736.408.007.75.339.75.733v.015h1.25v-.015c0-1.094-.903-1.985-2.012-1.985-1.086 0-1.967.881-1.967 1.967l.008 2.066c0 1.086.881 1.967 1.967 1.967 1.11 0 2.012-.891 2.012-1.985zm5.013-2.033c0-1.086-.881-1.967-1.967-1.967l-2.02.008.008 5.992h2.012c1.086 0 1.967-.881 1.967-1.967zm1 4.033h1.2v-2.784l1.1 2.784h1.2v-6h-1.2v2.726l-1.1-2.719v-.006h-1.2v6z"/></svg>