<?xml version="1.0" encoding="UTF-8"?>
<svg xmlns="http://www.w3.org/2000/svg" id="Layer_1" data-name="Layer 1" viewBox="0 0 24 24">
  <path d="M17,17c-2.349,0-3.989-1.032-5.014-2.006-1.013,.977-2.638,2.006-4.986,2.006-2.126,0-3.985-1.246-5.527-3.703L.031,11H2.743c1.082,0,1.384-.314,2.188-1.153,.402-.419,.903-.942,1.579-1.454,1.112-.842,1.956-1.394,3.489-1.394,.777,0,1.468,.282,2,.603,.532-.32,1.223-.603,2-.603,1.533,0,2.377,.552,3.489,1.393h0c.654,.496,1.133,.982,1.555,1.411,.832,.846,1.177,1.196,2.289,1.196h2.711l-1.44,2.296c-1.519,2.423-3.456,3.704-5.604,3.704Zm-4.246-6.125l.548,1.029c.041,.074,1.185,2.096,3.698,2.096,.613,0,1.168-.261,1.652-.644-.721-.404-1.251-.943-1.747-1.448-.367-.373-.747-.759-1.227-1.123-.912-.69-1.115-.785-1.679-.785-.371,.006-.955,.547-1.246,.875Zm-7.359,2.488c.522,.427,1.056,.638,1.605,.638,2.498,0,3.599-2.005,3.645-2.091l.568-1.063c-.279-.324-.848-.838-1.213-.846-.563,0-.768,.095-1.679,.785-.485,.368-.861,.76-1.225,1.139-.481,.501-.995,1.037-1.702,1.438Z"/>
</svg>
