<?xml version="1.0" encoding="UTF-8"?>
<svg xmlns="http://www.w3.org/2000/svg" id="Layer_1" data-name="Layer 1" viewBox="0 0 24 24">
  <path d="m23.076,16.691c.265.202.584.309.924.309v3c-1.001,0-1.949-.318-2.741-.922-.138-.104-.383-.104-.517,0-1.586,1.207-3.899,1.207-5.483,0-.138-.104-.383-.104-.517,0-1.586,1.207-3.9,1.207-5.483,0-.139-.104-.379-.105-.517,0-1.585,1.207-3.899,1.207-5.483,0-.139-.104-.379-.105-.517,0-.792.604-1.74.922-2.742.922v-3c.339,0,.659-.106.925-.309,1.202-.916,2.948-.916,4.151,0,.53.404,1.318.404,1.849,0,1.202-.916,2.948-.916,4.151,0,.53.404,1.318.404,1.849,0,1.201-.916,2.948-.916,4.151,0,.529.404,1.317.404,1.849,0,1.201-.916,2.948-.916,4.151,0ZM1.5,21c-.828,0-1.5.672-1.5,1.5s.672,1.5,1.5,1.5,1.5-.672,1.5-1.5-.672-1.5-1.5-1.5Zm10.5,0c-.828,0-1.5.672-1.5,1.5s.672,1.5,1.5,1.5,1.5-.672,1.5-1.5-.672-1.5-1.5-1.5Zm10.5,0c-.828,0-1.5.672-1.5,1.5s.672,1.5,1.5,1.5,1.5-.672,1.5-1.5-.672-1.5-1.5-1.5Zm1.5-14V1c0-.552-.448-1-1-1h-6l2.439,2.439-5.439,5.439-1.66-1.66-.123.606c-.174.896-.628,1.691-1.254,2.26l2.916,2.916H0v3h24v-3h-9.879l7.439-7.439,2.439,2.439Zm-16.13.782c.237.145.496.218.758.218.225,0,.452-.054.667-.162.475-.238.835-.766.961-1.412l1.308-6.425h-1.632s-1.284,6.261-1.304,6.308c-.019-.041-1.366-6.308-1.366-6.308h-1.633l1.381,6.469c.108.561.422,1.044.86,1.313Zm-5.37.218c1.381,0,2.5-1.119,2.5-2.5V0h-1.6v5.5c0,.496-.404.9-.9.9s-.9-.404-.9-.9V0H0v5.5c0,1.381,1.119,2.5,2.5,2.5Z"/>
</svg>
