<?xml version="1.0" encoding="UTF-8"?>
<svg xmlns="http://www.w3.org/2000/svg" id="Layer_1" data-name="Layer 1" viewBox="0 0 24 24">
  <path d="M17.326,2.034C15.629,.517,13.352-.203,11.068,.052c-3.604,.408-6.554,3.313-7.013,6.909-.372,2.928,1.168,5.77,2.859,7.287,.689,.618,1.085,1.577,1.085,2.631v3.242l4,4,4-4v-3.425c0-1.039,.407-1.973,1.118-2.563,1.831-1.522,2.882-3.756,2.882-6.128,0-2.277-.975-4.453-2.674-5.971Zm-4.326,16.845l-1,1-1-1v-2c0-.25-.015-.498-.041-.743h2.07c-.015,.185-.029,.371-.029,.56v2.183Zm2.2-7.053c-.41,.341-.762,.739-1.064,1.174h-.641v-3.413c.896-.519,1.505-1.477,1.505-2.587h-6c0,1.106,.605,2.061,1.495,2.581v3.419h-.699c-.256-.36-.549-.691-.878-.985-1.072-.961-2.12-2.835-1.886-4.675,.285-2.241,2.125-4.052,4.373-4.306,1.461-.166,2.846,.275,3.923,1.237,1.062,.949,1.672,2.311,1.672,3.734,0,1.478-.656,2.871-1.8,3.821Z"/>
</svg>
