<?xml version="1.0" encoding="UTF-8"?>
<svg xmlns="http://www.w3.org/2000/svg" id="Layer_1" data-name="Layer 1" viewBox="0 0 24 24" width="512" height="512"><path d="M12,0C5.383,0,0,5.383,0,12s5.383,12,12,12,12-5.383,12-12S18.617,0,12,0Zm0,21c-4.963,0-9-4.037-9-9S7.037,3,12,3s9,4.037,9,9-4.037,9-9,9Z"/><path d="M12,19c1.117,0,2.103,.702,2.104,.703l1.791-2.406c-.178-.133-1.802-1.297-3.896-1.297s-3.718,1.164-3.896,1.297l1.783,2.412c.01-.007,.995-.709,2.112-.709Z"/><path d="M9.332,6.555l-1.664-1.109c-.772,1.158-1.852,2.058-3.039,2.531l.74,1.857c1.583-.631,2.953-1.766,3.963-3.279Z"/><path d="M19.371,7.977c-1.188-.474-2.267-1.373-3.039-2.531l-1.664,1.109c1.01,1.514,2.38,2.648,3.963,3.279l.74-1.857Z"/><path d="M8,9c-.304,0-.592,.059-.869,.144,.512,.239,.869,.755,.869,1.356,0,.828-.672,1.5-1.5,1.5-.602,0-1.117-.357-1.356-.869-.085,.277-.144,.565-.144,.869,0,1.654,1.346,3,3,3s3-1.346,3-3-1.346-3-3-3Zm1,5c-.552,0-1-.448-1-1s.448-1,1-1,1,.448,1,1-.448,1-1,1Z"/><path d="M16,9c-.304,0-.592,.059-.869,.144,.512,.239,.869,.755,.869,1.356,0,.828-.672,1.5-1.5,1.5-.602,0-1.117-.357-1.356-.869-.085,.277-.144,.565-.144,.869,0,1.654,1.346,3,3,3s3-1.346,3-3-1.346-3-3-3Zm1,5c-.552,0-1-.448-1-1s.448-1,1-1,1,.448,1,1-.448,1-1,1Z"/></svg>
