<?xml version="1.0" encoding="UTF-8"?>
<svg xmlns="http://www.w3.org/2000/svg" id="Layer_1" data-name="Layer 1" viewBox="0 0 24 24">
  <path d="M3,12H0v-.5c0-.828,.672-1.5,1.5-1.5h1.851c-.219,.456-.351,.961-.351,1.5v.5Zm9.649-2c.219,.456,.351,.961,.351,1.5v.5h3v-.5c0-.828-.672-1.5-1.5-1.5h-1.851ZM6.341,4.852l.301,.226,1.364-1.055,1.359,1.051,.312-.218-.552-1.679,1.375-.796v-.382h-1.802l-.49-1.875h-.404l-.491,1.875h-1.812v.384l1.384,.77-.543,1.698Zm16.391,7.16c-.767-.698-1.76-1.057-2.796-1.008-1.037,.048-1.992,.498-2.69,1.265l-2.447,2.689c-.647-.589-1.499-.958-2.442-.958H3.5c-1.93,0-3.5,1.57-3.5,3.5v6.5s2.999,0,2.999,0v-6.5c0-.275,.226-.5,.501-.5H12.357c.354,0,.643,.288,.643,.643,0,.317-.236,.591-.551,.635l-5.161,.737,.424,2.971,5.161-.737c1.612-.231,2.856-1.524,3.08-3.101l3.511-3.859c.159-.174,.376-.276,.612-.288,.234-.015,.461,.07,.636,.229,.356,.325,.385,.881,.054,1.252l-7.447,8.518h3.985l5.71-6.532c1.411-1.581,1.284-4.028-.282-5.455Zm-11.732-.513c0-.828-.672-1.5-1.5-1.5h-3c-.828,0-1.5,.672-1.5,1.5v.5h6v-.5Zm-3-5.5c-.828,0-1.5,.672-1.5,1.5s.672,1.5,1.5,1.5,1.5-.672,1.5-1.5-.672-1.5-1.5-1.5Zm5.005-1.381l1.087,.84,.25-.174-.442-1.343,1.1-.636v-.306h-1.442l-.392-1.5h-.323l-.392,1.5h-1.45v.308l1.107,.616-.434,1.359,.241,.181,1.092-.844Zm-10,0l1.087,.84,.25-.174-.442-1.343,1.1-.636v-.306h-1.442l-.392-1.5h-.323l-.392,1.5H1v.308l1.107,.616-.434,1.359,.241,.181,1.092-.844Zm-.005,4.381c.828,0,1.5-.672,1.5-1.5s-.672-1.5-1.5-1.5-1.5,.672-1.5,1.5,.672,1.5,1.5,1.5Zm10,0c.828,0,1.5-.672,1.5-1.5s-.672-1.5-1.5-1.5-1.5,.672-1.5,1.5,.672,1.5,1.5,1.5Z"/>
</svg>
