<?xml version="1.0" encoding="UTF-8"?>
<svg xmlns="http://www.w3.org/2000/svg" id="Layer_1" data-name="Layer 1" viewBox="0 0 24 24">
  <path d="m10.497,12.802l4.453-4.373,2.102,2.141-4.793,4.707c-.481.481-1.117.723-1.754.723-.641,0-1.283-.244-1.771-.732l-2.272-2.187,2.08-2.161,1.957,1.883ZM22,2v18.5c0,1.93-1.57,3.5-3.5,3.5H5.5c-1.93,0-3.5-1.57-3.5-3.5V2h5.338c.563-1.182,1.769-2,3.162-2h3c1.394,0,2.6.818,3.162,2h5.338Zm-3,3h-5v-1.5c0-.276-.225-.5-.5-.5h-3c-.276,0-.5.224-.5.5v1.5h-5v15.5c0,.276.224.5.5.5h13c.275,0,.5-.224.5-.5V5Z"/>
</svg>
