<?xml version="1.0" encoding="UTF-8"?>
<svg xmlns="http://www.w3.org/2000/svg" id="Layer_1" data-name="Layer 1" viewBox="0 0 24 24">
  <path d="M16,17c0-.828,.672-1.5,1.5-1.5s1.5,.672,1.5,1.5-.672,1.5-1.5,1.5-1.5-.672-1.5-1.5Zm5-12v3h3v-3h-3Zm-2,5h5v14H4c-2.206,0-4-1.794-4-4V9c0-2.206,1.794-4,4-4v3c-.551,0-1,.449-1,1s.449,1,1,1h2V3.753L12.5,0l6.5,3.753v6.247Zm-4-3.989h1v3.989h1v-3.989h1v-1h-3v1Zm-3.5,3.989h1v-1.993l1.499,.004,.003-1-1.501-.004v-1.007h1.5v-1h-2.5v5Zm-4.5,0h1v-2.868l1.59,2.868h.91V5h-1v2.775l-1.539-2.775h-.961v5Zm-3,3c-.345,0-.68-.044-1-.126v7.126c0,.551,.449,1,1,1H21V13H4Z"/>
</svg>
