<?xml version="1.0" encoding="UTF-8"?>
<svg xmlns="http://www.w3.org/2000/svg" id="Layer_1" data-name="Layer 1" viewBox="0 0 24 24">
  <path d="m22.843,7.36c.745,1.421,1.157,3.012,1.157,4.64,0,12-13.665,12-19.5,12-2.481,0-4.5-2.019-4.5-4.5,0-.889.259-1.75.75-2.488.16-.239.375-.489,1.729-1.567.967-.77,1.521-1.919,1.521-3.154,0-4.684,3.067-8.683,7.279-9.903l.03.056c.481.919.799,1.846.989,2.772-3.053.787-5.298,3.675-5.298,7.074,0,2.153-.966,4.158-2.652,5.5-.761.606-1.049.864-1.147.957-.131.225-.201.484-.201.752,0,.827.673,1.5,1.5,1.5,9.904,0,16.5-1.53,16.5-9,0-1.213-.304-2.371-.874-3.395.874-.24,1.836-.625,2.717-1.245Zm-5.343-.36v-.002c.59-.019,3.307-.198,4.911-1.885C24.217,3.213,23.991.01,23.991.01c0,0-3.045-.238-4.851,1.662-1.153,1.213-1.549,3.049-1.685,4.217-.158-1.952-.734-3.886-1.716-5.763l-2.658,1.391c.942,1.8,1.419,3.645,1.419,5.483h3Zm-1.5,5.5c0,.828.672,1.5,1.5,1.5s1.5-.672,1.5-1.5-.672-1.5-1.5-1.5-1.5.672-1.5,1.5Zm-1.5,5.5c.828,0,1.5-.672,1.5-1.5s-.672-1.5-1.5-1.5-1.5.672-1.5,1.5.672,1.5,1.5,1.5Z"/>
</svg>
