<?xml version="1.0" encoding="UTF-8"?>
<svg xmlns="http://www.w3.org/2000/svg" id="Layer_1" data-name="Layer 1" viewBox="0 0 24 24">
  <path d="M22.864,14.922c-4.24-1.06-7.315,.328-9.364,2.313v-1.933c2.584-.668,4.5-3.005,4.499-5.752,.091-2.647,.934-5.606,.942-5.636l.551-1.915h-2.901c.144-1.456,.409-2,.409-2,0,0-2.5,0-5,1.5C9.5,0,7,0,7,0c0,0,.279,.561,.42,2.097-.547-.097-.876-.099-.981-.096l-1.989,.082,.626,1.891c.01,.028,.924,2.818,.924,5.527,0,2.79,1.916,5.134,4.5,5.803v1.933c-2.051-1.986-5.126-3.375-9.364-2.313l-1.136,.284v1.171c0,2.234,.771,4.036,2.292,5.355,2.557,2.217,6.588,2.346,8.637,2.242l1.054,.025,1.08-.026c2.059,.104,6.088-.021,8.646-2.241,1.521-1.319,2.292-3.121,2.292-5.355v-1.171l-1.136-.284ZM4.253,19.462c-.563-.491-.934-1.104-1.117-1.858,3.561-.37,5.562,1.731,6.576,3.396-1.793-.028-4.1-.356-5.459-1.538ZM15.594,5c-.177,.836-.363,1.874-.481,2.963-.598-1.139-1.333-2.142-2.125-2.963h2.606Zm-3.594,7.5c-1.654,0-3-1.346-3-3,0-1.418-.202-2.822-.431-3.958,1.775,.728,4.274,3.497,4.856,6.597-.424,.23-.91,.361-1.426,.361Zm7.747,6.962c-1.359,1.183-3.667,1.51-5.459,1.538,.935-1.534,2.71-3.44,5.759-3.44,.263,0,.535,.014,.817,.044-.184,.754-.554,1.368-1.117,1.858Z"/>
</svg>
