<?xml version="1.0" encoding="UTF-8"?>
<svg xmlns="http://www.w3.org/2000/svg" id="Layer_1" data-name="Layer 1" viewBox="0 0 24 24">
  <path d="m20.979,22.499v1.5h-3v-1.5c0-1.379-1.122-2.5-2.5-2.5h-.13l-3.333,4h-.001l-3.333-4h-.201c-1.378,0-2.5,1.121-2.5,2.5v1.5h-3v-1.5c0-3.032,2.467-5.5,5.5-5.5h1.437l2.084,2.501h.001l2.084-2.501h1.393c3.033,0,5.5,2.468,5.5,5.5Zm1-18v7.5h-3v-6.022l-1,.5v2.506c0,3.309-2.691,6-6,6s-6-2.691-6-6v-2.506l-3.958-1.978L10.214.404c1.068-.534,2.452-.536,3.525-.002l8.239,4.097Zm-7,3.478l-1.235.618c-.536.268-1.15.402-1.764.402s-1.229-.135-1.765-.402l-1.235-.618v1.006c0,1.654,1.346,3,3,3s3-1.346,3-3v-1.006Zm.248-3.478l-2.825-1.412c-.232-.115-.613-.116-.845,0l-2.825,1.411,2.825,1.412c.233.117.612.116.845,0l2.826-1.413Z"/>
</svg>
