<?xml version="1.0" encoding="UTF-8"?>
<svg xmlns="http://www.w3.org/2000/svg" id="Layer_1" data-name="Layer 1" viewBox="0 0 24 24">
  <path d="M15,6c0-3.309-2.691-6-6-6S3,2.691,3,6s2.691,6,6,6,6-2.691,6-6Zm-6,3c-1.654,0-3-1.346-3-3s1.346-3,3-3,3,1.346,3,3-1.346,3-3,3Zm10.427,5l1.915-3.829-2.684-1.342-2.585,5.171h-6.034l1.029,7.008c.25,1.706,1.739,2.992,3.462,2.992h4.944c1.724,0,3.212-1.286,3.461-2.991l1.031-7.009h-4.539Zm.54,6.574c-.035,.239-.251,.426-.493,.426h-4.944c-.242,0-.459-.188-.495-.428l-.524-3.572h6.981l-.525,3.574Zm-11.95-6.574l.44,3h-3.458c-1.103,0-2,.897-2,2v5H0v-5c0-2.757,2.243-5,5-5h3.018Z"/>
</svg>
