<svg id="Layer_1" viewBox="0 0 24 24" xmlns="http://www.w3.org/2000/svg" data-name="Layer 1"><path d="m12.028 24h-12.028v-21c0-1.654 1.346-3 3-3h11.381l5.619 5.664v3.711c-.791-.243-1.63-.375-2.5-.375-.169 0-.334.016-.5.025v-1.025h-5v-5h-9v18h6.76c.527 1.163 1.304 2.187 2.268 3zm11.972-6.5c0 3.59-2.91 6.5-6.5 6.5s-6.5-2.91-6.5-6.5 2.91-6.5 6.5-6.5 6.5 2.91 6.5 6.5zm-2.276 1.5h-2.236c-.457.603-1.174 1-1.987 1s-1.531-.397-1.987-1h-.013l1-1h-3c-.276 0-.5.224-.5.5v3l1.098-1.098c.821.971 2.033 1.598 3.402 1.598 1.953 0 3.602-1.258 4.224-3zm.276-5.5-1.098 1.098c-.821-.971-2.033-1.598-3.402-1.598-1.953 0-3.602 1.258-4.224 3h2.236c.457-.603 1.174-1 1.987-1s1.531.397 1.987 1h.013l-1 1h3c.276 0 .5-.224.5-.5v-3z"/></svg>