<?xml version="1.0" encoding="UTF-8"?>
<svg xmlns="http://www.w3.org/2000/svg" id="Layer_1" data-name="Layer 1" viewBox="0 0 24 24">
  <path d="M12,21.06C3.051,20.816,.407,12.917,0,12,.402,11.088,3.055,3.18,12,2.94c8.949,.244,11.593,8.142,12.001,9.06-.403,.912-3.056,8.82-12.001,9.06ZM3.234,12c.744,1.573,3.341,6.06,8.766,6.06s8.021-4.486,8.766-6.06c-.744-1.574-3.341-6.06-8.766-6.06S3.979,10.426,3.234,12ZM12,7c-2.761,0-5,2.239-5,5,0,.325,.036,.64,.096,.947l2.362-2.362,1.5,1.5,1.293-1.293-1.293-1.293h3.429c.316,0,.571,.256,.571,.571v3.429l-1.293-1.293-2.707,2.707-1.5-1.5-1.503,1.503c.908,1.257,2.377,2.083,4.046,2.083,2.761,0,5-2.239,5-5s-2.239-5-5-5Z"/>
</svg>
