<?xml version="1.0" encoding="UTF-8"?>
<svg xmlns="http://www.w3.org/2000/svg" id="Layer_1" data-name="Layer 1" viewBox="0 0 24 24">
  <path d="m10.023,5.269c.372-.13.977-.269,1.477-.269,2,0,3.804,1.49,4.312,3.283l2.628-2.283h5.561v3h-4.439l-3.628,3.151c-1.194,1.438-2.67,2.425-2.907,2.566-.321.192-.675.283-1.023.283-.681,0-1.345-.348-1.719-.975-.565-.947-.258-2.172.687-2.739.848-.516,1.53-.871,2.03-1.786,0-.827-.673-1.5-1.5-1.5s-1.5.673-1.5,1.5v4.165c0,.829-.672,1.5-1.5,1.5s-1.5-.671-1.5-1.5v-5.544l-2.439,2.439c-.293.293-.677.439-1.061.439s-.768-.146-1.061-.439c-.586-.585-.586-1.536,0-2.121l4.171-4.171-2.746.687v-.004c-.118.029-.238.049-.364.049-.828,0-1.5-.672-1.5-1.5,0-.703.485-1.288,1.137-1.451v-.004S11.5,0,11.5,0h12.5v3h-11.5c-1.3,0-2.358,1-2.477,2.269Zm4.977,12.731v6H6v-6c0-1.105.895-2,2-2h5c1.105,0,2,.895,2,2Zm-3,0h-3v2h3v-2Z"/>
</svg>
