<?xml version="1.0" encoding="UTF-8"?>
<svg xmlns="http://www.w3.org/2000/svg" id="Layer_1" data-name="Layer 1" viewBox="0 0 24 24">
  <path d="m20,10.973c0-1.22-.269-2.392-.8-3.483l2.699-1.311c.72,1.481,1.086,3.07,1.097,4.722.003.044.004.072.004.072,0,1.315-.004,3.688-.517,6.456l-2.525-4.328c.04-.862.042-1.594.042-2.128Zm-2.102-1.053c-.5-2.807-2.949-4.947-5.898-4.947-1.614,0-3.129.632-4.264,1.779l2.133,2.109c.567-.573,1.324-.889,2.131-.889,1.654,0,3,1.346,3,3,0,.486-.104,2.417-.223,4.296l3.12-5.349Zm6.102,14.08h-12l6-10.286,6,10.286Zm-5-3h-2v2h2v-2Zm0-1v-3h-2v3h2Zm-8.5-9.027c.5,7.527-3.008,9.307-6.5,10.027v3c.258-.086,1.007-.245,1.292-.33,3.069-.922,8.469-2.474,8.208-12.697h-3Zm-4.5,0c0,2.514-.07,4.203-1.007,4.765-.245.147-.616.235-.993.235v3c.535,0,1.577-.086,2.537-.663,2.463-1.478,2.463-4.591,2.463-7.337,0-.205.021-.408.061-.604l-2.938-.607c-.082.395-.123.802-.123,1.211Zm-2,0c0-4.411,3.589-8,8-8,1.745,0,3.404.555,4.799,1.603l1.803-2.396C16.684.735,14.401-.027,12-.027,5.935-.027,1,4.907,1,10.973v2h3v-2Z"/>
</svg>
