<?xml version="1.0" encoding="UTF-8"?>
<svg xmlns="http://www.w3.org/2000/svg" id="Layer_1" data-name="Layer 1" viewBox="0 0 24 24">
  <path d="M18.944,10.061c-.103-.883-.35-1.736-.743-2.543l2.698-1.312c.72,1.481,1.086,3.07,1.097,4.723,.003,.043,.004,.07,.004,.071,0,0,0,0,0,0h0c0,.024,0,.054,0,.079-.919-.533-1.952-.888-3.056-1.018Zm-6.454,2.149c.008-.396,.021-.784,.01-1.21h-3c.5,7.527-3.008,9.307-6.5,10.027v3c.258-.086,1.007-.245,1.292-.33,1.734-.521,4.21-1.245,5.991-3.617-.179-.664-.283-1.359-.283-2.08,0-2.28,.959-4.333,2.49-5.79Zm4.412-2.126l-.005-.137c-.5-2.807-2.949-4.947-5.898-4.947-1.614,0-3.129,.632-4.264,1.779l2.133,2.109c.567-.573,1.324-.889,2.131-.889,1.654,0,3,1.346,3,3,0,.02-.001,.055-.002,.08,.877-.508,1.857-.852,2.904-.996Zm-11.902,.916c0,2.514-.07,4.203-1.006,4.766-.245,.146-.617,.234-.994,.234v3c.535,0,1.576-.086,2.537-.662,2.463-1.479,2.463-4.591,2.463-7.338,0-.205,.021-.409,.061-.605l-2.938-.603c-.081,.395-.122,.801-.122,1.208Zm-2,0C3,6.589,6.589,3,11,3c1.745,0,3.404,.555,4.798,1.604l1.804-2.397C15.684,.763,13.4,0,11,0,4.935,0,0,4.935,0,11v2H3v-2Zm21,7c0,3.314-2.686,6-6,6s-6-2.686-6-6,2.686-6,6-6,6,2.686,6,6Zm-2-1H14v2h8v-2Z"/>
</svg>
