<?xml version="1.0" encoding="UTF-8"?>
<svg xmlns="http://www.w3.org/2000/svg" id="Layer_1" data-name="Layer 1" viewBox="0 0 24 24">
  <path d="m24,23.987h-7v.013h-2.556c.65-.635,1.056-1.519,1.056-2.5,0-.171-.027-.335-.05-.5h.55v-.013h5v-10.823c0-.155-.07-.299-.192-.394L12.308,3.119c-.182-.143-.435-.143-.616,0L3.192,9.771c-.122.095-.192.238-.192.394v10.823h5v.013h.55c-.024.165-.05.329-.05.5,0,.981.406,1.865,1.056,2.5h-2.556v-.013H0v-13.823c0-1.084.49-2.089,1.343-2.757L9.843.756c1.27-.992,3.043-.992,4.313,0l8.5,6.651c.854.668,1.343,1.673,1.343,2.757v13.823Zm-12-3.987c-.828,0-1.5.672-1.5,1.5s.672,1.5,1.5,1.5,1.5-.672,1.5-1.5-.672-1.5-1.5-1.5Zm2.475-.975l2.122-2.121c-1.228-1.228-2.86-1.904-4.597-1.904s-3.369.677-4.597,1.904l2.122,2.121c1.321-1.322,3.628-1.322,4.949,0Zm3.536-3.536l2.121-2.121c-4.483-4.484-11.78-4.484-16.264,0l2.121,2.121c3.314-3.314,8.707-3.314,12.021,0Z"/>
</svg>
