<?xml version="1.0" encoding="UTF-8"?>
<svg xmlns="http://www.w3.org/2000/svg" id="Layer_1" data-name="Layer 1" viewBox="0 0 24 24" width="512" height="512"><path d="M22,8h-3V3.5c0-1.93-1.57-3.5-3.5-3.5h-7c-1.93,0-3.5,1.57-3.5,3.5v4.5H2v3h1.936c-.611,1.231-.936,2.596-.936,4,0,4.963,4.038,9,9,9s9-4.037,9-9c0-1.404-.324-2.769-.936-4h1.936v-3ZM8,3.5c0-.275,.224-.5,.5-.5h7c.276,0,.5,.225,.5,.5v4.5H8V3.5Zm10,11.5c0,3.309-2.691,6-6,6s-6-2.691-6-6c0-1.482,.542-2.899,1.527-4h8.945c.986,1.101,1.527,2.518,1.527,4Zm-9.5-2c.828,0,1.5,.672,1.5,1.5s-.672,1.5-1.5,1.5-1.5-.672-1.5-1.5,.672-1.5,1.5-1.5Zm5.5,1.5c0-.828,.672-1.5,1.5-1.5s1.5,.672,1.5,1.5-.672,1.5-1.5,1.5-1.5-.672-1.5-1.5Zm-.5,3c0,.828-1.5,3.5-1.5,3.5,0,0-1.5-2.672-1.5-3.5s.672-1.5,1.5-1.5,1.5,.672,1.5,1.5Z"/></svg>
