<svg id="Layer_1" viewBox="0 0 24 24" xmlns="http://www.w3.org/2000/svg" data-name="Layer 1"><path d="m16.5 0c-4.275 0-7.5 1.935-7.5 4.5v4.875c2.262.695 4.113 2.312 5.136 4.408.737.139 1.529.217 2.364.217 1.719 0 3.262-.317 4.5-.857v1.357c0 .374-1.596 1.5-4.5 1.5-.619 0-1.165-.058-1.662-.143.104.532.162 1.08.162 1.643 0 .474-.049.936-.123 1.389.522.065 1.059.111 1.623.111 1.719 0 3.262-.317 4.5-.857v1.357c0 .374-1.596 1.5-4.5 1.5-.831 0-1.541-.097-2.151-.238-.409.983-1 1.869-1.726 2.624 1.119.39 2.436.614 3.877.614 4.275 0 7.5-1.935 7.5-4.5v-15c0-2.565-3.225-4.5-7.5-4.5zm0 3c2.904 0 4.5 1.126 4.5 1.5s-1.596 1.5-4.5 1.5-4.5-1.126-4.5-1.5 1.596-1.5 4.5-1.5zm0 8c-2.904 0-4.5-1.126-4.5-1.5v-1.357c1.238.541 2.781.857 4.5.857s3.262-.317 4.5-.857v1.357c0 .374-1.596 1.5-4.5 1.5zm-9.626 5.515h-1.374v-1.415h1.298c.394 0 .715.321.715.715 0 .368-.282.66-.639.7zm1.257 2.492c0 .492-.4.893-.893.893h-1.738l-.013-1.785h1.752c.492 0 .893.4.893.892zm-1.631-8.007c-3.59 0-6.5 2.91-6.5 6.5s2.91 6.5 6.5 6.5 6.5-2.91 6.5-6.5-2.91-6.5-6.5-6.5zm3.231 8.008c0 1.276-.963 2.317-2.2 2.463l-.231.029v1h-1.6v-1h-1.7v-8h1.665l.007-1h1.6l.002 1.063c1.037.23 1.84 1.146 1.84 2.252 0 .505-.166.968-.441 1.349.577.336 1.058 1.109 1.058 1.843z"/></svg>