<?xml version="1.0" encoding="UTF-8"?>
<svg xmlns="http://www.w3.org/2000/svg" id="Layer_1" data-name="Layer 1" viewBox="0 0 24 24" width="512" height="512"><path d="M16,10c1.105,0,2,.895,2,2,0,1.105-.895,2-2,2s-2-.895-2-2c0-1.105,.895-2,2-2Zm-10,2c0,1.105,.895,2,2,2s2-.895,2-2c0-1.105-.895-2-2-2s-2,.895-2,2Zm11,7c-.492-1.824-2.325-3.997-4.994-4-2.669,.003-4.514,2.176-5.006,4,0,.001,2.6-1,5-1s5,1.001,5,1Zm7-7C24,5.383,18.617,0,12,0S0,5.383,0,12s5.383,12,12,12,12-5.383,12-12Zm-3,0c0,4.962-4.037,9-9,9S3,16.962,3,12,7.037,3,12,3s9,4.038,9,9ZM8.893,7.42l-.785-1.84c-1.674,.714-3.04,1.852-3.952,3.29l1.689,1.071c.694-1.095,1.748-1.967,3.048-2.521Zm10.871,1.325c-.911-1.379-2.25-2.473-3.871-3.165l-.785,1.84c1.26,.538,2.293,1.377,2.988,2.428l1.668-1.103Z"/></svg>
