<svg id="Layer_1" viewBox="0 0 24 24" xmlns="http://www.w3.org/2000/svg" data-name="Layer 1"><path d="m21.357 11h-7.715c-1.457 0-2.643 1.186-2.643 2.643v6.357h5v1h-2v3h7v-3h-2v-1h5v-6.357c0-1.457-1.186-2.643-2.643-2.643zm-.357 6h-7v-3h7zm-13-8h5v-6.357c0-1.457-1.186-2.643-2.643-2.643h-7.714c-1.457 0-2.643 1.186-2.643 2.643v6.357h5v1h-2v3h7v-3h-2zm-5-6h7v3h-7zm5.707 15.793c.391.391.391 1.024 0 1.414l-3.707 3.793v-3h-1.5c-1.93 0-3.5-1.57-3.5-3.5v-2.5h3v2.5c0 .275.225.5.5.5h1.5v-3zm15.293-12.293v2.5h-3v-2.5c0-.275-.225-.5-.5-.5h-1.5v3l-3.707-3.793c-.391-.39-.391-1.024 0-1.414l3.707-3.793v3h1.5c1.93 0 3.5 1.57 3.5 3.5z"/></svg>