<svg id="Layer_1" viewBox="0 0 24 24" xmlns="http://www.w3.org/2000/svg" data-name="Layer 1"><path d="m8 2.5c0-1.381 1.119-2.5 2.5-2.5s2.5 1.119 2.5 2.5-1.119 2.5-2.5 2.5-2.5-1.119-2.5-2.5zm10.5 10.5c1.933 0 3.5-1.567 3.5-3.5s-1.567-3.5-3.5-3.5-3.5 1.567-3.5 3.5 1.567 3.5 3.5 3.5zm4.092 7h-3.184c-.207.581-.757 1-1.408 1s-1.201-.419-1.408-1h-3.184c-.207.581-.757 1-1.408 1s-1.201-.419-1.408-1h-3.184c-.207.581-.757 1-1.408 1s-1.201-.419-1.408-1h-3.184c-.207.581-.757 1-1.408 1v3c1.157 0 2.202-.451 3-1.17.798.72 1.843 1.17 3 1.17s2.202-.451 3-1.17c.798.72 1.843 1.17 3 1.17s2.202-.451 3-1.17c.798.72 1.843 1.17 3 1.17s2.202-.451 3-1.17c.798.72 1.843 1.17 3 1.17v-3c-.651 0-1.201-.419-1.408-1zm-19.326-2h3.662l2.882-4.114 5.886 4.114h5.248l-13.732-9.591s0 0 0 0c-.132-.093-.212-.246-.212-.408v-8.001h-3v8c-.01 1.15.602 2.17 1.487 2.863s1.865 1.304 1.865 1.304z"/></svg>