<?xml version="1.0" encoding="UTF-8"?>
<svg xmlns="http://www.w3.org/2000/svg" id="Layer_1" data-name="Layer 1" viewBox="0 0 24 24">
  <path d="M9.5,13c.828,0,1.5,.672,1.5,1.5s-.672,1.5-1.5,1.5-1.5-.672-1.5-1.5,.672-1.5,1.5-1.5Zm3.5,1.5c0,.828,.672,1.5,1.5,1.5s1.5-.672,1.5-1.5-.672-1.5-1.5-1.5-1.5,.672-1.5,1.5Zm8-4.368v-3.132h-2.767l-1.875,3h1.642v3h2.034c.542,.019,.966,.458,.966,1,0,.552-.448,1-1,1h-1.961l-.255,1.186c-.638,2.974-3.499,4.814-5.784,4.814s-5.146-1.841-5.785-4.814l-.255-1.186h-1.96c-.551,0-1-.448-1-1,0-.542,.424-.981,.912-1h2.088v-3h1.641l-1.875-3H3v3.124c-1.737,.442-3,2.007-3,3.876,0,2.078,1.594,3.792,3.623,3.982,1.283,3.455,4.751,6.018,8.377,6.018s7.094-2.562,8.377-6.018c2.029-.19,3.623-1.904,3.623-3.982,0-1.856-1.246-3.413-3-3.868Zm-7-.132l2.5-4L13,.003V5h-2V0s-3.5,6-3.5,6l2.5,4h4Z"/>
</svg>
