<svg id="Layer_1" viewBox="0 0 24 24" xmlns="http://www.w3.org/2000/svg" data-name="Layer 1"><path d="m3.5 9h2.8l4 2h2.202c.92-2.2 3.017-3.784 5.498-3.975v-3.304l-3.754-3.721h-6.617c-2.035 0-3.628 1.538-3.628 3.5v2.5h-.5c-1.93 0-3.5 1.57-3.5 3.5v14.5h12.026c-.635-.838-1.026-1.87-1.026-3h-8.001v-11.5c0-.276.224-.5.5-.5zm3.5-5.5c0-.299.252-.5.628-.5h5.372v2h2v3h-3.992l-4-2h-.008zm16 11.5v-1.5c0-2.481-2.019-4.5-4.5-4.5s-4.5 2.019-4.5 4.5v1.5h-1v6c0 1.654 1.346 3 3 3h5c1.654 0 3-1.346 3-3v-6zm-6-1.5c0-.827.673-1.5 1.5-1.5s1.5.673 1.5 1.5v1.5h-3zm3 7.5h-3v-3h3z"/></svg>