<?xml version="1.0" encoding="UTF-8"?>
<svg xmlns="http://www.w3.org/2000/svg" id="Layer_1" data-name="Layer 1" viewBox="0 0 24 24">
  <path d="m6,12v-5h3v5h-3Zm4.5,0h3v-5h-3v5Zm.042,8.871c-4.27-.7-7.542-4.406-7.542-8.871C3,7.037,7.037,3,12,3c4.185,0,7.701,2.875,8.704,6.751.016.014.031.027.047.041,1.02.886,2.211,1.924,3.202,3.141.024-.309.047-.618.047-.933C24,5.383,18.617,0,12,0S0,5.383,0,12s5.383,12,12,12c.232,0,.459-.022.688-.035-.942-.84-1.684-1.897-2.146-3.094Zm13.458-2.871c0,3.314-2.686,6-6,6s-6-2.686-6-6c0-1.725,1-3.06,1.995-4.087,0,0,.681,2.087,1.287,2.087,1.263,0,.897-3.898,2.718-6,1.895,1.895,6,4.526,6,8Zm-4.586.585h0l-1.415-1.415-1.415,1.415c-.781.781-.781,2.048,0,2.829.781.781,2.048.781,2.829,0s.781-2.048,0-2.829Zm-2.926-9.894l1.512-1.69h-3v4c.306-.806.877-1.604,1.488-2.31Z"/>
</svg>
