<?xml version="1.0" encoding="UTF-8"?>
<svg xmlns="http://www.w3.org/2000/svg" id="Layer_1" data-name="Layer 1" viewBox="0 0 24 24">
  <path d="m13.5,13c-.828,0-1.5-.672-1.5-1.5s.672-1.5,1.5-1.5,1.5.672,1.5,1.5-.672,1.5-1.5,1.5Zm10.483,4.183c-.102-1.131-.674-2.184-1.594-2.906-2.75-2.162-3.855-4.383-4.924-6.531-.71-1.425-1.383-2.778-2.465-3.971V0c-1.905,0-3.5,1.332-3.902,3.116C4.198,3.921,0,8.894,0,16.5v7.5h3v-7.5c0-3.137.976-10.407,9.961-10.499.71.855,1.23,1.9,1.818,3.082,1.103,2.216,2.476,4.974,5.783,7.573.251.197.405.48.433.796.028.31-.07.609-.277.842-.278.313-.538.608-.762.862l-9.786-4.698.341,2.728c.322,2.58,1.267,4.854,2.498,6.814h3.685c-.995-1.25-1.878-2.678-2.48-4.272l6.493,3.117.751-.855s.673-.769,1.503-1.705c.75-.845,1.122-1.976,1.021-3.102Z"/>
</svg>
