<?xml version="1.0" encoding="UTF-8"?>
<svg xmlns="http://www.w3.org/2000/svg" id="Layer_1" data-name="Layer 1" viewBox="0 0 24 24">
  <path d="m21.985,13.515c-1.198-1.064-2.739-1.599-4.339-1.504-1.6.094-3.067.806-4.132,2.004-1.064,1.198-1.599,2.739-1.504,4.339.094,1.6.806,3.067,2.004,4.132,1.198,1.064,2.739,1.599,4.339,1.504,1.6-.094,3.067-.806,4.132-2.004,1.064-1.198,1.599-2.739,1.504-4.339-.094-1.6-.806-3.067-2.004-4.132Zm-3.985.485c1.105,0,2,.895,2,2s-.895,2-2,2-2-.895-2-2,.895-2,2-2Zm3,6.64s-.007.011-.011.015c-.68.766-1.652,1.273-2.753,1.338-1.282.076-2.449-.476-3.236-1.375v-.119c0-.828.672-1.5,1.5-1.5h3c.828,0,1.5.672,1.5,1.5v.14Zm3-15.64v7.721c-.815-.926-1.838-1.663-3-2.134v-.587H3v11h7.587c.471,1.162,1.208,2.185,2.134,3H0V5c0-1.654,1.346-3,3-3h3V0h3v2h6V0h3v2h3c1.654,0,3,1.346,3,3Z"/>
</svg>
