<svg id="Layer_1" viewBox="0 0 24 24" xmlns="http://www.w3.org/2000/svg" data-name="Layer 1"><path d="m5.049 14.954 5.951 5.855v2.207l-1 .978-7.059-6.905s-.005-.01-.009-.014l-.002.002c-1.889-1.889-2.929-4.4-2.929-7.071s1.039-5.182 2.928-7.07c1.889-1.89 4.4-2.93 7.071-2.93s5.182 1.04 7.07 2.929c1.889 1.889 2.929 4.4 2.929 7.071 0 .334-.016.666-.048.994h-3.029c.046-.327.078-.657.078-.994 0-1.87-.728-3.627-2.05-4.95s-3.08-2.05-4.949-2.05-3.628.728-4.95 2.05-2.05 3.08-2.05 4.95.727 3.626 2.049 4.948zm13.951 9.046h2v-2h-2zm3-3h2v-2h-2zm-3 0h2v-2h-2zm-6-8h5v5h-5zm2 3h1v-1h-1zm-2 3h5v5h-5zm2 3h1v-1h-1zm9-9v5h-5v-5zm-2 2h-1v1h1zm-12-8c-1.657 0-3 1.343-3 3s1.343 3 3 3 3-1.343 3-3-1.343-3-3-3z"/></svg>