<svg id="Layer_1" viewBox="0 0 24 24" xmlns="http://www.w3.org/2000/svg" data-name="Layer 1"><path d="m6.25 18.201 1.5 2.598-3.464 2-1.5-2.598zm11.75-18.201h-3v4h3zm5.799 2.286-2.598-1.5-2 3.464 2.598 1.5zm-17.799 11.714h-4v3h4zm18-2.5v5c0 4.136-3.364 7.5-7.5 7.5s-7.5-3.364-7.5-7.5v-5c0-2.481 2.019-4.5 4.5-4.5h6c2.481 0 4.5 2.019 4.5 4.5zm-12 1.5h3v-3h-1.5c-.827 0-1.5.673-1.5 1.5zm9 3h-9v.5c0 2.481 2.019 4.5 4.5 4.5s4.5-2.019 4.5-4.5zm0-4.5c0-.827-.673-1.5-1.5-1.5h-1.5v3h3zm-15-11.5c-3.314 0-6 2.686-6 6s2.686 6 6 6c.405 0 .8-.041 1.182-.118-.076-.292-.121-.595-.149-.903-.433.013-.872.021-1.01.021-.274 0-.539-.03-.8-.073v-1.127h-.2c-1.201 0-2.189-.925-2.291-2.1h1.62c.086.289.354.5.671.5h2.126c.316 0 .574-.257.574-.574 0-.272-.194-.509-.462-.563l-2.791-.559c-1.013-.203-1.747-1.099-1.747-2.131 0-1.199.975-2.173 2.173-2.173h.327v-1.129c.254-.041.511-.071.777-.071.273 0 .539.03.8.072l.023-.018v1.146h.2c1.201 0 2.189.925 2.291 2.1h-1.62c-.086-.289-.354-.5-.671-.5h-2.127c-.316 0-.573.257-.573.574 0 .272.194.509.461.562l2.792.559c.549.109 1.01.427 1.323.855.827-.718 1.868-1.197 3.017-1.318-.464-2.852-2.932-5.032-5.915-5.032z"/></svg>