<svg id="Layer_1" viewBox="0 0 24 24" xmlns="http://www.w3.org/2000/svg" data-name="Layer 1"><path d="m3 3h10v1.556c.603-.352 1.283-.555 1.999-.555h.99s.007 0 .01 0v-1h.001v-3.001h-16v18 3c0 1.657 1.343 3 3 3h10c1.657 0 3-1.343 3-3v-3h-13zm2.999 17h4v2.015h-4zm16-13.999h-7c-1.1 0-2 .9-1.999 2l.002 7.911c0 .858.949 1.378 1.672.915l2.826-1.827h6.5v-6.999c0-1.105-.896-2-2.001-2zm-1.999 6.999h-3c-1.105 0-2-.895-2-2h2l1.5 1 1.5-1h2c0 1.105-.895 2-2 2zm-5-3c0-1.105.895-2 2-2h3c1.105 0 2 .895 2 2z"/></svg>