<?xml version="1.0" encoding="UTF-8"?>
<svg xmlns="http://www.w3.org/2000/svg" id="Layer_1" data-name="Layer 1" viewBox="0 0 24 24">
  <path d="m20,11.051v-.153c2.441-.373,4-1.745,4-3.649,0-2.323-2.155-5.007-5-5.234V0c-1.585,0-2.883,1.23-2.992,2.788-1.21.81-2.006,2.168-2.008,3.705-.085.475-1.675,1.593-2.626,2.261-2.316,1.627-5.367,3.773-6.173,7.168-1.198-2.494-2.202-5.811-2.202-9.922,0-1.654,1.346-3,3-3s3,1.346,3,3c0,.828-.463,1.955-1.133,2.874.817-.663,1.633-1.248,2.357-1.756.391-.276,1.275-.9,1.765-1.318-.107-3.215-2.749-5.799-5.99-5.799C2.691,0,0,2.691,0,6c0,6.688,2.367,11.539,4.354,14.431,1.535,2.235,4.089,3.569,6.831,3.569h10.815v-3h-3.418c.269-.613.418-1.289.418-2,0-2.757-2.243-5-5-5v3c1.103,0,2,.897,2,2s-.897,2-2,2h-2.815c-.505,0-1-.071-1.472-.205-1.168-.699-1.713-1.696-1.713-3.124,0-2.878,2.709-4.783,5.1-6.463.787-.553,1.533-1.078,2.159-1.622.48.497,1.074.887,1.742,1.13v.335c0,1.938,1.252,3.658,3.117,4.281.712.238,1.393.582,2.023,1.022l1.72-2.458c-.866-.606-1.806-1.081-2.792-1.41-.639-.213-1.068-.79-1.068-1.435Zm1-3.801c0,.302-1.003.75-2.389.75-.889,0-1.611-.673-1.611-1.5s.723-1.5,1.611-1.5c1.486,0,2.389,1.562,2.389,2.25Z"/>
</svg>
