<svg id="Layer_1" viewBox="0 0 24 24" xmlns="http://www.w3.org/2000/svg" data-name="Layer 1"><path d="m5.832 4.919-1.664-2.496 2.502-1.667c.74-.494 1.604-.756 2.496-.756h7.334c1.93 0 3.5 1.57 3.5 3.5v.763c2.382 1.138 3.976 3.578 3.996 6.27-.904-.809-2.052-1.351-3.323-1.493-.375-.886-1.067-1.611-1.942-2.04h-3.506c-1.336.667-2.225 2.056-2.225 3.583v1.417h-3v-1.417c0-2.712 1.602-5.174 4-6.319v-1.264h-4.834c-.298 0-.585.087-.831.251zm-1.332 7.081c.64 0 1.28-.244 1.768-.732.976-.976.976-2.559 0-3.536l-1.768-1.729-1.768 1.729c-.976.976-.976 2.559 0 3.536.488.488 1.128.732 1.768.732zm15.436-.996c-1.037.048-1.992.498-2.69 1.265l-2.447 2.689c-.647-.589-1.499-.958-2.442-.958h-8.857c-1.93 0-3.5 1.57-3.5 3.5v6.5s2.999 0 2.999 0v-6.5c0-.275.226-.5.501-.5h8.857c.354 0 .643.288.643.643 0 .317-.236.591-.551.635l-5.161.737.424 2.971 5.161-.737c1.612-.231 2.856-1.524 3.08-3.101l3.511-3.859c.313-.357.902-.388 1.248-.059.356.325.385.881.054 1.252l-7.447 8.518h3.985l5.71-6.532c1.411-1.581 1.284-4.028-.282-5.455-.767-.698-1.76-1.057-2.796-1.008zm.024 12.996h4.04v-4.622z"/></svg>