<?xml version="1.0" encoding="UTF-8"?>
<svg xmlns="http://www.w3.org/2000/svg" id="Layer_1" data-name="Layer 1" viewBox="0 0 24 24" width="512" height="512"><path d="m22,11v-5h-1.525C19.236,2.51,15.91,0,12,0S4.764,2.51,3.525,6h-1.525v5h1.232c.36,1.579,1.136,2.997,2.206,4.14-1.968.48-3.438,2.246-3.438,4.36v4.5h3v-4.5c0-.827.673-1.5,1.5-1.5h11c.827,0,1.5.673,1.5,1.5v4.5h3v-4.5c0-2.114-1.47-3.88-3.438-4.36,1.07-1.143,1.846-2.562,2.206-4.14h1.232ZM12,3c3.309,0,6,2.691,6,6s-2.691,6-6,6-6-2.691-6-6,2.691-6,6-6Zm5,18v3H7v-3c0-.552.448-1,1-1h8c.552,0,1,.448,1,1ZM7,8c0-.343.357-1,1.101-1h7.899c.716,0,1,.657,1,1,0,2.761-2.239,5-5,5s-5-2.239-5-5Z"/></svg>
