<svg id="Layer_1" viewBox="0 0 24 24" xmlns="http://www.w3.org/2000/svg" data-name="Layer 1"><path d="m24 12c0 6.617-5.383 12-12 12-2.721 0-5.318-.945-7.41-2.59l-2.59 2.59v-5.909c0-.603.488-1.091 1.091-1.091h5.909l-2.275 2.275c1.518 1.1 3.356 1.725 5.275 1.725 4.963 0 9-4.038 9-9zm-12-9c1.919 0 3.757.625 5.275 1.725l-2.275 2.275h5.909c.602 0 1.091-.488 1.091-1.091v-5.909l-2.59 2.59c-2.092-1.645-4.689-2.59-7.41-2.59-6.617 0-12 5.383-12 12h3c0-4.962 4.037-9 9-9zm3 5c2.206 0 4 1.794 4 4s-1.794 4-4 4c-1.24 0-2.258-.707-3-1.475-.742.768-1.76 1.475-3 1.475-2.206 0-4-1.794-4-4s1.794-4 4-4c1.24 0 2.258.707 3 1.475.742-.768 1.76-1.475 3-1.475zm-4.787 4c-.436-.564-.94-1-1.213-1-.552 0-1 .449-1 1s.448 1 1 1c.272 0 .777-.436 1.213-1zm4.787-1c-.272 0-.777.436-1.213 1 .436.564.94 1 1.213 1 .552 0 1-.449 1-1s-.448-1-1-1z"/></svg>