<?xml version="1.0" encoding="UTF-8"?>
<svg xmlns="http://www.w3.org/2000/svg" id="Layer_1" data-name="Layer 1" viewBox="0 0 24 24">
  <path d="m23.075,10.69c.266.203.585.31.925.31v3c-1.002,0-1.95-.319-2.742-.923-.136-.103-.378-.104-.517,0-1.582,1.206-3.899,1.207-5.483,0-.137-.103-.379-.104-.517,0-1.582,1.206-3.899,1.207-5.483,0-.136-.103-.378-.104-.517,0-1.582,1.206-3.899,1.207-5.483,0-.137-.103-.379-.104-.517,0-.791.603-1.739.922-2.741.922v-3c.339,0,.659-.107.924-.309,1.203-.917,2.949-.917,4.151,0,.532.405,1.318.404,1.849,0,1.202-.917,2.948-.917,4.151,0,.532.405,1.318.404,1.849,0,1.202-.917,2.948-.917,4.151,0,.532.405,1.318.404,1.849,0,1.202-.917,2.948-.917,4.151,0ZM0,16h24v4.5c0,1.93-1.57,3.5-3.5,3.5H3.5c-1.93,0-3.5-1.57-3.5-3.5v-4.5Zm3,4.5c0,.276.224.5.5.5h17c.276,0,.5-.224.5-.5v-1.5H3v1.5ZM24,3.5v4.5H0V3.5C0,1.57,1.57,0,3.5,0h17c1.93,0,3.5,1.57,3.5,3.5Zm-3,0c0-.276-.224-.5-.5-.5H3.5c-.276,0-.5.224-.5.5v1.5h18v-1.5Z"/>
</svg>
