<svg id="Layer_1" viewBox="0 0 24 24" xmlns="http://www.w3.org/2000/svg" data-name="Layer 1"><path d="m17.479 6.235c-.535-.715-1.182-1.308-1.893-1.797-.664-1.63-2.076-2.879-3.818-3.291-.222-.412-.497-.786-.803-1.13 3.465-.015 6.752 1.567 8.879 4.376 1.159 1.461 2.251 3.923 3.357 6.47.265.61.529 1.218.797 1.818v2.818h-2.299l-.341 2.478c-.237 1.723-1.728 3.022-3.467 3.022h-.893v3h-13.996v-4.985c0-.345-.128-.684-.354-.954-1.722-2.061-2.616-4.537-2.627-7.07.856.645 1.929 1.032 3.076 1.01.206 1.481.828 2.908 1.855 4.138.675.81 1.047 1.831 1.047 2.877v1.985h8.004v-3h3.888c.249 0 .461-.186.496-.432l.698-5.068h1.557c-.986-2.274-2.196-5.086-3.162-6.265zm-10.843 8.74 3.264-4.029c.268-.4-.018-.937-.499-.938l-2.036-.008.925-3h-2.923l-1.336 4.17c-.121.394.173.828.585.83h2.05l-.655 2.973.626.002zm-4.305-5.057 1.576-4.918h7.092l-.953 3.089c.699.179 1.302.645 1.65 1.3.059.111.086.232.128.348 1.276-.522 2.177-1.773 2.177-3.237.006-1.967-1.663-3.603-3.637-3.486-.44-1.73-1.995-3.014-3.862-3.014-2.22-.002-4.04 1.826-3.995 4.05-1.42.237-2.505 1.463-2.505 2.95 0 1.425.997 2.613 2.329 2.918z"/></svg>