<svg id="Layer_1" viewBox="0 0 24 24" xmlns="http://www.w3.org/2000/svg" data-name="Layer 1"><path d="m23.993 12.679c-.266-.599-.53-1.203-.793-1.812-1.121-2.581-2.179-5.019-3.322-6.431-2.486-3.319-6.58-4.961-10.699-4.282-4.232.697-7.684 3.816-8.795 7.945-.938 3.486-.113 7.117 2.262 9.962.226.27.35.609.35.954v4.985h14v-3h.894c1.738 0 3.229-1.299 3.467-3.021l.345-2.479h2.308l-.015-2.821zm-19.045 3.46c-1.74-2.085-2.348-4.731-1.668-7.26.794-2.95 3.36-5.267 6.387-5.765 3.004-.493 5.998.7 7.845 3.165.912 1.128 1.927 3.457 2.91 5.721h-1.593l-2.981-1.235c-1.274-.528-2.644-.788-4.025-.764-2.14.038-3.823 1.859-3.823 3.998v7h-2.005v-1.985c0-1.046-.372-2.068-1.047-2.876zm12.94 1.861h-3.894v3h-2.995v-3c0-1.657 1.343-3 3-3h4.74l-.356 2.568c-.033.246-.247.432-.495.432z"/></svg>