<svg id="Layer_1" viewBox="0 0 24 24" xmlns="http://www.w3.org/2000/svg" data-name="Layer 1"><path d="m23.933 18.361c-1.016-5.635-3.061-11.434-3.157-11.7-1.448-3.946-5.568-6.596-10.252-6.596-5.827 0-10.567 4.741-10.567 10.568.093 2.986.949 7.634 1.21 9.311 6.32.55 12.573 1.863 19.384 3.991l3.493-4.957-.11-.617zm-12.977-7.296c0 .552-.448 1-1 1s-1-.448-1-1 .448-1 1-1 1 .448 1 1zm2.858-1h4.923c.442 1.413 1.002 3.317 1.502 5.369l-6.913-2.233c.394-.619.63-1.349.63-2.136 0-.347-.058-.678-.142-1zm5.53 10.374c-5.536-1.626-10.544-2.668-15.59-3.244-.321-2.039-.798-5.328-.798-6.562 0-4.173 3.395-7.568 7.567-7.568 3.16 0 5.924 1.588 7.138 4h-7.705c-2.206 0-4 1.794-4 4 0 1.918 1.351 3.541 3.154 3.928l11.462 3.702-1.229 1.744z"/></svg>