<?xml version="1.0" encoding="UTF-8"?>
<svg xmlns="http://www.w3.org/2000/svg" id="Layer_1" data-name="Layer 1" viewBox="0 0 24 24">
  <path d="M24,21.008l-2.371-5.008h1.6l-2.838-5.008h1.609l-3.5-6c-.406-.606-.791-.992-1.5-.992-.352,0-.623,.096-.857,.265l-1.766-2.906c-.804-1.67-3.911-1.708-4.727-.029l-1.783,2.941c-.236-.174-.511-.272-.867-.272-.709,0-1.094,.386-1.5,.992l-3.5,6h1.609L.771,16h1.6L0,21.008H5v2.992h3v-2.992h2.5v2.992h3v-2.992h2.5v2.992h3v-2.992h5ZM12,13l-1.5,3.089v1.911H6.5l2.5-5h-1.5l3-5h-1.5l2-3.5c.321-.407,.499-1,1-1s.679,.593,1,1l2,3.5h-1.5l3,5h-1.5l2.5,5h-4v-1.911l-1.5-3.089Z"/>
</svg>
