<?xml version="1.0" encoding="UTF-8"?>
<svg xmlns="http://www.w3.org/2000/svg" id="Layer_1" data-name="Layer 1" viewBox="0 0 24 24">
  <path d="M24,12c0,3.542-1.552,6.72-4,8.919v-4.815c.635-1.232,1-2.625,1-4.104,0-4.962-4.037-9-9-9S3,7.038,3,12c0,2.656,1.164,5.04,3,6.689v3.687C2.419,20.297,0,16.43,0,12,0,5.383,5.383,0,12,0s12,5.383,12,12Zm-7.392-3.771c-.939,.85-2.486,3.027-2.606,6.102-.039,1.705,.469,3.601,1.998,5.462v4.207h2V8.737c-.004-.629-.857-1.004-1.392-.507Zm-3.608,5.271v-5.5h-2v5.5c0,.276-.224,.5-.5,.5h-.5v-6h-2v6h-.5c-.276,0-.5-.224-.5-.5v-5.5h-2v5.5c0,1.378,1.122,2.5,2.5,2.5h.5v8h2v-8h.5c1.378,0,2.5-1.122,2.5-2.5Zm-1,10.5c.683,0,1.348-.071,2-.181v-3.051c-.644,.147-1.312,.232-2,.232v3Z"/>
</svg>
