<?xml version="1.0" encoding="UTF-8"?>
<svg xmlns="http://www.w3.org/2000/svg" id="Layer_1" data-name="Layer 1" viewBox="0 0 24 24">
  <path d="m24,10.5c0-3.032-2.468-5.5-5.5-5.5h-1.5v-.5c0-1.93-1.57-3.5-3.5-3.5H0v19h3.058c-.034.162-.058.328-.058.5,0,1.381,1.119,2.5,2.5,2.5s2.5-1.119,2.5-2.5c0-.172-.024-.338-.058-.5h8.115c-.034.162-.058.328-.058.5,0,1.381,1.119,2.5,2.5,2.5s2.5-1.119,2.5-2.5c0-.172-.024-.338-.058-.5h3.058v-9.5Zm-10,6.5H3V4h10.5c.275,0,.5.225.5.5v12.5Zm4.5-9c1.379,0,2.5,1.121,2.5,2.5v2.5h-4v-5h1.5Zm-8.5,1h2v3h-2v2h-3v-2h-2v-3h2v-2h3v2Z"/>
</svg>
