<svg id="Layer_1" viewBox="0 0 24 24" xmlns="http://www.w3.org/2000/svg" data-name="Layer 1"><path d="m16 0h-3v2h-2.5v-2h-3v2h-2.5v-2h-3v2h-2v18.5c0 1.93 1.57 3.5 3.5 3.5h11c1.93 0 3.5-1.57 3.5-3.5v-18.5h-2zm-1 20.5c0 .276-.225.5-.5.5h-11c-.275 0-.5-.224-.5-.5v-15.5h12zm9-18.5v20l-2 2-2-2v-20c0-1.105.895-2 2-2s2 .895 2 2zm-14.247 6.753-1.753-1.753h3.75c.69 0 1.25.56 1.25 1.25v3.75l-1.83-1.83c-.185.163-.371.327-.552.483-2.101 1.813-3.618 3.123-3.618 8.347h-2c0-6.14 2.095-7.948 4.312-9.861.145-.125.294-.257.441-.386zm4.252 6.656-1.091 1.091 1.091 1.091-1.414 1.414-1.091-1.091-1.091 1.091-1.414-1.414 1.091-1.091-1.091-1.091 1.414-1.414 1.091 1.091 1.091-1.091zm-10.005-6.909c0-.828.672-1.5 1.5-1.5s1.5.672 1.5 1.5-.672 1.5-1.5 1.5-1.5-.672-1.5-1.5z"/></svg>