<svg id="Layer_1" viewBox="0 0 24 24" xmlns="http://www.w3.org/2000/svg" data-name="Layer 1"><path d="m11 17.998c.385 0 .739.034 1.066.089.26-1.997 1.358-3.729 2.934-4.829v-1.122c.718.575 1.687.867 2.564.864 1.439 0 2.825-.727 3.599-2.029.708-1.191.837-2.312.837-4.088 0-2.718-1.353-5.03-3.712-6.346-1.997-1.11-4.56-.434-5.716 1.511-.536.901-.677 1.967-.399 2.999.218.809.691 1.53 1.324 2.091-.945.87-1.502 2.07-1.496 3.36v4.573c-.324-.033-.643-.073-1-.073s-.676.039-1 .073v-4.573c.006-1.29-.551-2.49-1.496-3.36.633-.561 1.107-1.283 1.324-2.092.278-1.032.136-2.098-.399-2.999-1.157-1.945-3.721-2.621-5.719-1.51-2.358 1.315-3.711 3.628-3.711 6.345 0 1.776.129 2.896.837 4.087.775 1.306 2.165 2.033 3.602 2.033.88.003 1.846-.292 2.562-.869v3.919c-1.343.881-2 2.184-2 3.445 0 1.831 1.563 2.809 2.705 3.522.422.264 1.208.755 1.295.978h4.009c.065-.135.319-.336.603-.533-.642-.773-1.113-1.69-1.375-2.691-.421.274-.859.593-1.236.973-.521-.526-1.16-.93-1.705-1.271-.422-.264-1.208-.755-1.295-.978 0-.883 1.233-1.5 3-1.5zm4.151-14.418c.222-.375.631-.584 1.054-.584.211 0 .426.052.623.162 1.795 1.001 2.172 2.578 2.172 3.725 0 1.456-.089 2.006-.416 2.556-.322.542-1.042.72-1.661.393-.552-.307-.568-.997-.304-1.49.342-.64.94-2.236-.889-3.257-.325-.181-.573-.486-.662-.817-.067-.251-.04-.481.082-.687zm-8.22.686c-.089.331-.336.637-.662.818-1.829 1.02-1.23 2.616-.888 3.257.264.492.248 1.183-.328 1.502-.592.315-1.314.139-1.637-.406-.327-.549-.416-1.099-.416-2.555 0-1.146.377-2.724 2.171-3.725.197-.109.413-.162.624-.162.647-.016 1.342.573 1.136 1.271zm12.069 9.732c-2.761 0-5 2.239-5 5s2.239 5 5 5 5-2.239 5-5-2.239-5-5-5zm3 6h-2v2h-2v-2h-2v-2h2v-2h2v2h2z"/></svg>