<?xml version="1.0" encoding="UTF-8"?>
<svg xmlns="http://www.w3.org/2000/svg" id="Layer_1" data-name="Layer 1" viewBox="0 0 24 24">
  <path d="m16,14h-8c-2.757,0-5,2.243-5,5v5h3v-5c0-.649.311-1.226.791-1.592.77,1.415,2.228,3.849,4.45,6.592h3.955c-.453-.499-.881-.993-1.284-1.48,1.585-2.127,2.67-3.959,3.297-5.112.48.366.791.943.791,1.591v5h3v-5c0-2.757-2.243-5-5-5Zm-5.985,3h3.974c-.496.841-1.156,1.885-1.985,3.044-.831-1.161-1.492-2.204-1.989-3.044Zm10.797-10.983c-.409-.288-.916-.441-1.41-.517.494-.076,1.001-.229,1.41-.517,1.219-.859,1.565-2.916,1.565-2.916,0,0-2.093-.34-3.312.518-.636.448-1.034,1.221-1.27,1.859-.685-2.559-3.02-4.444-5.796-4.444-3.314,0-6,2.686-6,6s2.686,6,6,6c3.009,0,5.5-2.215,5.933-5.103.243.555.607,1.148,1.132,1.518,1.219.859,3.312.518,3.312.518,0,0-.346-2.057-1.565-2.916Zm-6.812.983h-4c-.828,0-1.5-.672-1.5-1.5s.672-1.5,1.5-1.5h4c.828,0,1.5.672,1.5,1.5s-.672,1.5-1.5,1.5Z"/>
</svg>
