<?xml version="1.0" encoding="UTF-8"?>
<svg xmlns="http://www.w3.org/2000/svg" id="Layer_1" data-name="Layer 1" viewBox="0 0 24 24" width="512" height="512"><path d="m17.275,10.427c1.61-.831,2.725-2.493,2.725-4.427,0-2.757-2.243-5-5-5-2.01,0-3.735,1.199-4.529,2.913C8.589,1.71,5.468,0,0,0v3c1.558,0,2.864.16,3.971.44-1.746.781-2.971,2.527-2.971,4.56,0,1.918,1.098,3.567,2.687,4.406-2.048,1.684-3.687,3.997-3.687,7.094,0,2.481,2.019,4.5,4.5,4.5s4.5-2.019,4.5-4.5c0-3.968,1.869-6.414,3-7.533,1.131,1.12,3,3.565,3,7.533,0,2.481,2.019,4.5,4.5,4.5s4.5-2.019,4.5-4.5c0-4.556-3.544-7.42-6.725-9.073Zm-2.275-6.427c1.103,0,2,.897,2,2s-.897,2-2,2-2-.897-2-2,.897-2,2-2Zm-7,4c0,1.103-.897,2-2,2s-2-.897-2-2,.897-2,2-2,2,.897,2,2Zm-2,11.5c0,.827-.673,1.5-1.5,1.5s-1.5-.673-1.5-1.5c0-2.72,2.088-4.665,4.291-5.96-.741,1.576-1.291,3.555-1.291,5.96Zm13.5,1.5c-.827,0-1.5-.673-1.5-1.5,0-2.405-.55-4.384-1.291-5.96,2.203,1.295,4.291,3.24,4.291,5.96,0,.827-.673,1.5-1.5,1.5Z"/></svg>
