<?xml version="1.0" encoding="UTF-8"?>
<svg xmlns="http://www.w3.org/2000/svg" id="Layer_1" data-name="Layer 1" viewBox="0 0 24 24">
  <path d="m17.32,6.034c-1.697-1.517-3.979-2.236-6.258-1.981-3.605.406-6.554,3.312-7.013,6.908-.373,2.932,1.169,5.774,2.864,7.292.69.617,1.086,1.575,1.086,2.63v3.117h8v-3.31c0-1.037.407-1.971,1.116-2.561,1.829-1.522,2.878-3.755,2.878-6.125,0-2.276-.975-4.453-2.674-5.971Zm-2.124,9.79c-.706.588-1.258,1.334-1.633,2.176h-.063v-4.417c.892-.52,1.5-1.477,1.5-2.583h-6c0,1.105.608,2.062,1.5,2.583v4.417h-.134c-.352-.756-.838-1.435-1.452-1.983-1.073-.961-2.123-2.835-1.888-4.677.285-2.241,2.124-4.053,4.372-4.307,1.458-.164,2.846.276,3.924,1.238,1.062.949,1.672,2.31,1.672,3.733,0,1.477-.655,2.868-1.798,3.819Zm3.22-11.224l-2.562-1.561L17.693.02l2.562,1.561-1.84,3.021Zm5.538,2.326l-3.106,1.402-1.234-2.734,3.106-1.402,1.234,2.734ZM5.5,4.601l-1.84-3.021L6.223.02l1.84,3.021-2.562,1.561Zm-1.117,1.118l-1.297,2.705L-.07,6.912l1.297-2.705,3.156,1.512Z"/>
</svg>
