<?xml version="1.0" encoding="UTF-8"?>
<svg xmlns="http://www.w3.org/2000/svg" id="Layer_1" data-name="Layer 1" viewBox="0 0 24 24">
  <path d="M15.422,11.194c-1.32-1.051-3.04-1.431-4.712-1.046-2.005,.463-3.6,2.059-4.062,4.065-.522,2.27,.378,4.562,2.294,5.843,.344,.23,.558,.678,.558,1.169v2.774h5v-2.774c0-.491,.214-.938,.558-1.169,1.529-1.021,2.442-2.725,2.442-4.557,0-1.686-.758-3.255-2.078-4.306Zm-2.03,6.368c-.593,.396-1.067,.938-1.392,1.567-.325-.63-.798-1.171-1.392-1.567-.693-.463-1.329-1.408-1.037-2.675,.203-.883,.932-1.612,1.813-1.815,.208-.049,.416-.072,.619-.072,.566,0,1.103,.185,1.552,.542,.601,.479,.945,1.191,.945,1.958,0,.828-.414,1.599-1.108,2.062Zm10.048-3.964c.403,.729,.618,1.552,.618,2.401,0,1.833-1.029,3.521-2.619,4.386-1.068,2.248-2.731,3.442-4.938,3.585v-3.001c1.277-.051,2.159-1.417,2.646-2.875,1-.266,1.946-.974,1.911-2.095,.087-.982-1.04-1.839-1.623-2.486,1.975-1.345,2.506-3.497-.328-4.636v-1.878c0-.791-.981-1-1.5-1h-1.5v-1.5c0-.728-.398-1.5-1.137-1.5-.97,0-1.47,.911-1.47,1.5v3.5h-3V4c0-.5-.792-1-1.355-1-.738,0-1.136,.772-1.136,1.5v1.5h-1.5c-.519,0-1.5,.209-1.5,1v1.878c-.967,.382-2.234,1.51-2,2.167-.056,1.159,.939,1.768,1.626,2.404-.541,.691-1.711,1.616-1.635,2.589-.035,1.122,.913,1.829,1.912,2.095,.463,1.419,1.377,2.76,2.588,2.856v3.012c-2.151-.176-3.832-1.368-4.88-3.576-1.59-.865-2.62-2.553-2.62-4.386,.107-.842,.251-1.696,.676-2.439C.237,12.814,.009,11.946,.009,11.045,.009,9.926,.377,8.41,2.009,7.188v-.188c0-1.868,1.299-3.36,3.179-3.839,.512-1.85,2.068-3.161,3.957-3.161,1.121,0,2.133,.392,2.913,1.018,.779-.626,1.792-1.018,2.912-1.018,1.89,0,3.445,1.312,3.958,3.161,1.88,.479,3.179,1.971,3.179,3.839v.188c1.631,1.222,2,2.737,2,3.856,0,.902-.229,1.771-.667,2.554Z"/>
</svg>
