<?xml version="1.0" encoding="UTF-8"?>
<svg xmlns="http://www.w3.org/2000/svg" id="Layer_1" data-name="Layer 1" viewBox="0 0 24 24">
  <path d="m18.5,7h-5.5v-.037c0-1.119-.373-2.153-1-2.984v-.979c0-1.657-1.343-3-3-3v2.094c-.312-.062-.633-.094-.963-.094-.513,0-1.02.079-1.503.233l-4.042,1.286C.505,4.233-.532,6.432.182,8.42c.345.96,1.095,1.752,2.111,2.23.58.273,1.726.499,2.707.654v12.695h8v-4h3v4h8v-11.5c0-3.032-2.467-5.5-5.5-5.5Zm-14.928.937c-.207-.097-.473-.268-.567-.53-.155-.432.07-.909.449-1.046l3.991-1.269c.19-.061.39-.092.592-.092,1.083,0,1.963.881,1.963,1.963v3.037h8.5c.854,0,1.609.431,2.06,1.086-.452.122-.888.364-1.273.728l-1.164,1.099-1.163-1.1c-1.154-1.091-2.766-1.094-3.924,0l-1.164,1.099-1.163-1.1c-.787-.744-1.787-.982-2.711-.71v-2.43l-1.317-.162c-1.333-.164-2.788-.433-3.111-.574Zm15.428,13.063v-4h-9v4h-2v-6.203l.751-.709,1.163,1.101c1.155,1.09,2.768,1.092,3.923-.002l1.164-1.099,1.163,1.101c.578.545,1.269.817,1.961.817s1.385-.272,1.962-.819l.913-.862v6.675h-2Z"/>
</svg>
