<svg id="Layer_1" viewBox="0 0 24 24" xmlns="http://www.w3.org/2000/svg" data-name="Layer 1"><path d="m22.433 14.284c-.405-1.092-1.333-1.889-2.433-2.168v-1.116h-3v1h-3v-1h-3v1.116c-1.1.279-2.028 1.076-2.433 2.168-1.184 3.193-1.567 6.08-1.567 6.978 0 1.51 1.229 2.738 2.738 2.738 1.831 0 4.004-2.247 5.032-4h1.46c1.028 1.753 3.201 4 5.032 4 1.51 0 2.738-1.229 2.738-2.738 0-.897-.383-3.784-1.567-6.978zm-3.844 3.741-.342-1.025h-5.495l-.342 1.025c-.296.889-1.651 2.365-2.385 2.835.096-.966.475-3.163 1.354-5.533.073-.195.262-.327.472-.327h7.298c.209 0 .399.132.472.327.871 2.349 1.25 4.526 1.351 5.507-.787-.504-2.091-1.938-2.382-2.809zm-13.589 3.236c0 1.022.333 1.963.886 2.738h-5.886v-20.499c0-1.93 1.57-3.5 3.5-3.5h13c1.93 0 3.5 1.57 3.5 3.5v5.5h-3v-5.5c0-.275-.224-.5-.5-.5h-13c-.276 0-.5.225-.5.5v17.5h2.011c-.003.087-.011.189-.011.262zm10-13.261h-10v-3h10zm-8.036 5h-1.964v-3h4v.809c-.855.524-1.567 1.277-2.036 2.191z"/></svg>