<?xml version="1.0" encoding="UTF-8"?>
<svg xmlns="http://www.w3.org/2000/svg" id="Layer_1" data-name="Layer 1" viewBox="0 0 24 24" width="512" height="512"><path d="M8,16c-1.105,0-2-.895-2-2s.895-2,2-2,2,.895,2,2-.895,2-2,2Zm8-4c-1.105,0-2,.895-2,2s.895,2,2,2,2-.895,2-2-.895-2-2-2Zm-4,4c-1.657,0-3,1.343-3,3h6c0-1.657-1.343-3-3-3ZM24,7v4.651c0,6.689-5.282,12.347-11.776,12.347-2.647,0-6.369-1.214-8.631-3.436C1.276,18.287,0,15.247,0,12V7H3c0,.928,.383,1,.5,1h6.5v-1c0-2-1.635-1.784-1.635-1.784-.066,.044-.711,.784-1.865,.784-1.564,0-2.793-1.437-2.439-3.063,.177-.809,.791-1.489,1.568-1.777,.717-.265,1.381-.179,1.943,.09,.545-.754,1.426-1.25,2.428-1.25,.772,0,1.468,.3,2,.779,.532-.479,1.228-.779,2-.779,1.002,0,1.883,.496,2.428,1.25,.326-.156,.687-.25,1.072-.25,1.599,0,2.847,1.501,2.413,3.17-.207,.797-.835,1.457-1.62,1.704-1.029,.325-1.982-.012-2.603-.664-.015-.002-1.69-.211-1.69,1.789v1h6.5c.102-.011,.5-.041,.5-1h3Zm-3,3.958c-.173,.028-.341,.042-.5,.042h-6.5c-.743,0-1.433-.232-2-.629-.567,.396-1.257,.629-2,.629H3.5c-.159,0-.327-.014-.5-.042v1.042c0,2.435,.957,4.716,2.695,6.422,1.737,1.705,4.021,2.616,6.475,2.576,4.869-.089,8.831-4.281,8.831-9.347v-.693Z"/></svg>
