<?xml version="1.0" encoding="UTF-8"?>
<svg xmlns="http://www.w3.org/2000/svg" id="Layer_1" data-name="Layer 1" viewBox="0 0 24 24">
  <path d="M24,14.149c0-.592-.095-1.177-.282-1.739l-1.339-4.017c-.478-1.431-1.812-2.393-3.32-2.393h-2.059v-.5c0-1.758-1.308-3.204-3-3.449v15.949H3v-3H0v6.5c0,1.381,1.119,2.5,2.5,2.5s2.5-1.119,2.5-2.5c0-.171-.018-.338-.05-.5h1.101c-.033,.162-.05,.329-.05,.5,0,1.381,1.119,2.5,2.5,2.5s2.5-1.119,2.5-2.5c0-.171-.018-.338-.05-.5h6.101c-.033,.162-.05,.329-.05,.5,0,1.381,1.119,2.5,2.5,2.5s2.5-1.119,2.5-2.5c0-.171-.018-.338-.05-.5h2.05v-6.851Zm-4.941-5.149c.216,0,.406,.138,.475,.342l1.339,4.017c.069,.207,.103,.423,.116,.642h-3.988v-5h2.059ZM0,5.5V0H2V5.5c0,.276,.225,.5,.5,.5h.5V0h2V6h.5c.275,0,.5-.224,.5-.5V0h2V5.5c0,1.378-1.121,2.5-2.5,2.5h-.5v5H3v-5h-.5c-1.379,0-2.5-1.122-2.5-2.5Zm11,7.5h-2V.739c0-.715,.983-1.01,1.446-.437,1.145,1.419,2.554,3.506,2.554,5.698,0,1.846-1,3.346-2,4.385v2.615Z"/>
</svg>
