<?xml version="1.0" encoding="UTF-8"?>
<svg xmlns="http://www.w3.org/2000/svg" id="Layer_1" data-name="Layer 1" viewBox="0 0 24 24">
  <path d="m22.692,16.639c-.442-.716-.692-1.145-.692-1.639,0-.628.13-1.036.326-1.654.3-.944.674-2.12.674-4.346h-3c0,.713-.291,1.534-1.5,1.858V0h-3c-.293.582-1.5,3.182-1.5,4.5,0,.178.73.94,1.5,1.243v4.933c-.28-.128-.52-.294-.718-.497-.665-.683-.766-1.669-.781-1.998,0-.06,0-.12,0-.181l-2.999-.069c-.002.048-.006.169,0,.346.029,2.022.368,3.43.644,4.57.198.821.354,1.47.354,2.153,0,.494-.25.923-.692,1.639-.583.942-1.308,2.116-1.308,3.861,0,2.405,2.333,3.5,4.5,3.5h5c2.167,0,4.5-1.095,4.5-3.5,0-1.746-.725-2.919-1.308-3.861Zm-3.192,4.361h-4.993c-.582-.006-1.507-.237-1.507-.5,0-.894.379-1.507.859-2.284.535-.865,1.141-1.845,1.141-3.216,0-.475-.044-.917-.114-1.345.709.229,1.501.345,2.373.345.68,0,1.295-.074,1.848-.208-.065.358-.106.753-.106,1.208,0,1.371.606,2.351,1.141,3.216.48.777.859,1.391.859,2.284,0,.263-.926.494-1.5.5Zm-11.476-.073c.085,1.135.5,2.087,1.14,2.847-.676.147-1.402.226-2.164.226-3.991,0-7-2.149-7-5,0-1.519.655-2.589,1.134-3.37.145-.236.343-.56.371-.681-.004-.074-.079-.302-.159-.542-.146-.442-.346-1.049-.346-1.797,0-2.021,1.56-4.058,5-4.515v-2.695l-1-1.4V0h5v3.964l-1,1.414v8.621h-3v-2.864c-1.318.264-2,.872-2,1.474,0,.267.086.528.195.858.136.412.305.925.305,1.532,0,.877-.429,1.578-.808,2.196-.371.607-.692,1.13-.692,1.804,0,.817,1.424,2,4,2,.367,0,.705-.029,1.024-.073Z"/>
</svg>
