<?xml version="1.0" encoding="UTF-8"?>
<svg xmlns="http://www.w3.org/2000/svg" id="Layer_1" data-name="Layer 1" viewBox="0 0 24 24">
  <path d="m13,12h-2v12h-3v-12h-2l2.95-2.883c.304-.304.796-.304,1.1,0l2.95,2.883Zm-8.95,2.117c-.304-.304-.796-.304-1.1,0l-2.95,2.883h2v7h3v-7h2l-2.95-2.883Zm14.45-9.117c1.381,0,2.5-1.119,2.5-2.5s-1.119-2.5-2.5-2.5-2.5,1.119-2.5,2.5,1.119,2.5,2.5,2.5Zm5.5,4.5c0-1.93-1.57-3.5-3.5-3.5h-4.305L11.146.031l-2.291,1.938,5.95,7.031h5.695c.275,0,.5.225.5.5v5.5h-3v-4h-3v13h3v-6h1v6h3v-6h2v-8.5Z"/>
</svg>
