<?xml version="1.0" encoding="UTF-8"?>
<svg xmlns="http://www.w3.org/2000/svg" id="Layer_1" data-name="Layer 1" viewBox="0 0 24 24">
  <path d="m22,17.5c0-4.388-3.83-6.322-6.364-7.601-.787-.398-1.978-.999-2.175-1.32,0,0-.295-.389-.411-1.612,1.353-.159,2.475-1.06,2.951-2.29-.405.157-.842.251-1.303.251-2.002,0-3.626-1.623-3.626-3.626,0-.461.095-.897.251-1.303-1.357.524-2.323,1.833-2.323,3.374,0,1.407.81,2.613,1.982,3.214-.084,1.534-.443,1.99-.443,1.99-.197.321-1.388.922-2.175,1.32-2.534,1.279-6.364,3.213-6.364,7.601,0,1.168.428,2.378,1.181,3.5h-1.181v3h20v-3h-1.181c.754-1.122,1.181-2.332,1.181-3.5Zm-5.318,3.5H7.318c-1.397-1.023-2.318-2.39-2.318-3.5,0-2.36,1.955-3.529,4.716-4.923.825-.416,1.63-.823,2.284-1.299.654.476,1.459.883,2.284,1.299,2.761,1.395,4.716,2.563,4.716,4.923,0,1.11-.921,2.477-2.318,3.5Z"/>
</svg>
