<?xml version="1.0" encoding="UTF-8"?>
<svg xmlns="http://www.w3.org/2000/svg" id="Layer_1" data-name="Layer 1" viewBox="0 0 24 24">
  <path d="M20.5,0H5C2.794,0,1,1.794,1,4V20c0,2.206,1.794,4,4,4H23V2.5c0-1.379-1.121-2.5-2.5-2.5ZM5,3h15v13H5c-.347,0-.678,.058-1,.142V4c0-.552,.448-1,1-1Zm0,18c-.552,0-1-.448-1-1s.448-1,1-1h15v2H5Zm1.822-9h2.148l.221,.994h1.667l-1.266-5.572c-.311-1.853-2.97-1.844-3.303-.04l-1.29,5.612h1.583l.24-.994Zm1.031-4.278c.019-.068,.05-.122,.097-.122,.014,.01,.057,.063,.082,.176l.583,2.624h-1.407l.646-2.678Zm5.647,2.278h-2v-1.6h2v1.6Zm5.5,3h-4.55v-1.715l2.562-3.686h-2.562v-1.6h4.55v1.715l-2.562,3.686h2.562v1.6Z"/>
</svg>
