<?xml version="1.0" encoding="UTF-8"?>
<svg xmlns="http://www.w3.org/2000/svg" id="Layer_1" data-name="Layer 1" viewBox="0 0 24 24" width="512" height="512"><path d="m12,0C6.486,0,2,4.486,2,10v14h2.592c.207-.581.757-1,1.408-1s1.201.419,1.408,1h3.184c.207-.581.757-1,1.408-1s1.201.419,1.408,1h3.184c.207-.581.757-1,1.408-1s1.201.419,1.408,1h2.592v-14C22,4.486,17.514,0,12,0Zm3,21.17c-.798-.72-1.843-1.17-3-1.17s-2.202.451-3,1.17c-.798-.72-1.843-1.17-3-1.17-.344,0-.679.04-1,.115v-10.115c0-3.86,3.14-7,7-7s7,3.14,7,7v10.115c-.321-.075-.656-.115-1-.115-1.157,0-2.202.451-3,1.17Zm-5-10.67c0,.828-.672,1.5-1.5,1.5s-1.5-.672-1.5-1.5.672-1.5,1.5-1.5,1.5.672,1.5,1.5Zm7,0c0,.828-.672,1.5-1.5,1.5s-1.5-.672-1.5-1.5.672-1.5,1.5-1.5,1.5.672,1.5,1.5Z"/></svg>
