<?xml version="1.0" encoding="UTF-8"?>
<svg xmlns="http://www.w3.org/2000/svg" id="Layer_1" data-name="Layer 1" viewBox="0 0 24 24">
  <path d="M12.386,20.028c.624,.431,1.341,.733,2.114,.876v3.031c-1.595-.188-3.054-.819-4.254-1.767l2.14-2.14Zm8.518-5.528h3.031c-.188-1.595-.819-3.054-1.767-4.254l-2.14,2.14c.431,.624,.733,1.341,.876,2.114Zm-4.072-4.325c-.672,3.345-3.312,5.985-6.657,6.657,.161,.645,.429,1.249,.796,1.782l-2.14,2.14c-.871-1.103-1.457-2.43-1.695-3.874C3.097,16.224,0,12.721,0,8.5,0,3.813,3.813,0,8.5,0c4.221,0,7.724,3.097,8.38,7.136,1.444,.238,2.771,.824,3.874,1.695l-2.14,2.14c-.533-.368-1.136-.635-1.782-.796Zm-9.655,3.657c.67-3.348,3.307-5.985,6.655-6.655-.595-2.395-2.757-4.178-5.333-4.178-3.032,0-5.5,2.467-5.5,5.5,0,2.576,1.783,4.738,4.178,5.333Zm9.322,7.072v3.031c1.595-.188,3.054-.819,4.254-1.767l-2.14-2.14c-.624,.431-1.341,.733-2.114,.876Zm3.528-2.29l2.14,2.14c.948-1.2,1.579-2.659,1.767-4.254h-3.031c-.143,.773-.445,1.49-.876,2.114Z"/>
</svg>
