<svg id="Layer_1" viewBox="0 0 24 24" xmlns="http://www.w3.org/2000/svg" data-name="Layer 1"><path d="m20.5 0h-17c-1.93 0-3.5 1.57-3.5 3.5v16.5h6.405l3.934 3.368c.474.421 1.068.632 1.662.632s1.186-.21 1.658-.63l3.808-3.37h6.533v-16.5c0-1.93-1.57-3.5-3.5-3.5zm.5 17h-4.67l-4.335 3.837-4.48-3.837h-4.515v-13.5c0-.275.224-.5.5-.5h17c.276 0 .5.225.5.5zm-7-7c0 1.105-.895 2-2 2s-2-.895-2-2 .895-2 2-2 2 .895 2 2zm-4.829-2.828c-.755.756-1.171 1.76-1.171 2.828s.416 2.072 1.171 2.828l-2.121 2.121c-1.322-1.321-2.05-3.079-2.05-4.949s.728-3.628 2.05-4.949zm7.778-2.121c1.322 1.321 2.05 3.079 2.05 4.949s-.728 3.628-2.05 4.949l-2.121-2.121c.755-.756 1.171-1.76 1.171-2.828s-.416-2.072-1.171-2.828z"/></svg>