<svg id="Layer_1" viewBox="0 0 24 24" xmlns="http://www.w3.org/2000/svg" data-name="Layer 1"><circle cx="9.5" cy="11.5" r="1.5"/><circle cx="14.5" cy="11.5" r="1.5"/><path d="m11.999 16c1.352 0 2.509-.826 2.999-2h-5.998c.49 1.174 1.648 2 2.999 2z"/><path d="m24 11c0-7.222-6.037-11-12-11s-12 3.778-12 11c0 4.682 3.075 7.763 7 9.15v3.85h3v-3.136c.662.086 1.331.136 2 .136s1.338-.05 2-.136v3.136h3v-3.85c3.925-1.387 7-4.468 7-9.15zm-4 1h-1.961l-.255 1.186c-.638 2.974-3.499 4.814-5.784 4.814s-5.146-1.841-5.785-4.815l-.255-1.185h-1.96c-.552 0-1-.449-1-1 0-.542.424-.982.911-1h1.839c1.104 0 2.15-.382 2.989-1.072 1.088.183 2.284.036 3.26-.498.976.549 2.179.677 3.26.497.839.69 1.886 1.073 2.991 1.073h1.806c.531.029.944.465.944 1 0 .551-.448 1-1 1zm-8-9c3.146 0 6.313 1.366 7.918 4.001h-1.668c-.533 0-1.033-.251-1.372-.686l-.745-.957c-.58.233-1.056.667-1.806.644-.44-.001-.937-.158-1.286-.494l-1.04-1.001-1.041 1.001c-.331.318-.761.494-1.241.494-.771.039-1.26-.402-1.853-.643l-.745.957c-.339.436-.839.686-1.371.686h-1.668c1.605-2.634 4.772-4 7.918-4z"/></svg>