<svg id="Layer_1" viewBox="0 0 24 24" xmlns="http://www.w3.org/2000/svg" data-name="Layer 1"><path d="m23.8 13.478c-.063-.17-.85-2.201-2.617-4.238l2.749-3.458-2.348-1.867-2.614 3.288c-.395-.29-.816-.562-1.267-.812l1.348-3.94-2.838-.971-1.302 3.807c-.45-.111-.92-.197-1.411-.255v-4.032h-3v4.032c-.49.059-.959.147-1.409.258l-1.304-3.812-2.839.971 1.35 3.948c-.45.25-.867.524-1.261.813l-2.62-3.296-2.349 1.866 2.755 3.466c-2.215 2.713-2.423 3.832-2.82 4.757 1.284 3.58 4.907 8.948 11.997 9.057 8.938-.239 11.605-8.124 11.987-9.077l-.188-.506zm-11.8 6.583c-5.407 0-8.012-4.487-8.76-6.062.737-1.557 3.337-6.058 8.76-6.058s8.027 4.487 8.762 6.057c-.738 1.558-3.342 6.063-8.762 6.063zm4-6.06c0 2.209-1.791 4-4 4s-4-1.791-4-4 1.791-4 4-4 4 1.791 4 4z"/></svg>