<svg id="Layer_1" viewBox="0 0 24 24" xmlns="http://www.w3.org/2000/svg" data-name="Layer 1"><path d="m14 1.5v-1.5h-14v1.5c0 5.304 1.756 14.843 2 16.141v2.859c0 1.93 1.57 3.5 3.5 3.5h3c1.93 0 3.5-1.57 3.5-3.5v-2.859c.244-1.297 2-10.837 2-16.141zm-3.042 1.5c-.222 4.286-1.25 10.418-1.709 13h-4.497c-.459-2.582-1.487-8.714-1.709-13zm-1.958 17.5c0 .275-.224.5-.5.5h-3c-.276 0-.5-.225-.5-.5v-1.5h4zm15-.5c0 2.206-1.794 4-4 4h-7.261c.687-.831 1.133-1.867 1.236-3h6.025c.551 0 1-.448 1-1s-.449-1-1-1h-6.223c.215-1.136.21-1.066.549-3h3.245c.788 0 1.429-.641 1.429-1.429 0-.849-.267-1.478-.606-1.934-.189.3-.421.558-.697.773-.758.591-1.697.589-2.337.589h-.698c.147-.908.303-1.944.455-3 0 0 .884 0 .884-1v-1.933l1.982.673c.164.056 4.018 1.414 4.018 5.831-.039.612-.134 1.235-.379 1.779 1.399.624 2.379 2.022 2.379 3.65z"/></svg>