<?xml version="1.0" encoding="UTF-8"?>
<svg xmlns="http://www.w3.org/2000/svg" id="Layer_1" data-name="Layer 1" viewBox="0 0 24 24">
  <path d="M24,19v3H0v-3H9.518c-.66-.129-1.29-.447-1.801-.958L2.455,12.124c-.449-.509-.672-1.184-.615-1.854,.058-.67,.391-1.297,.914-1.719,.445-.359,.98-.529,1.515-.538v-.012H14v3h-5.846l3.481,3.793,3.446-3.567,6.386-3.106,1.312,2.698-5.909,2.874-4.203,4.35c-.511,.511-1.14,.829-1.801,.958h13.134ZM3.5,7c1.381,0,2.5-1.119,2.5-2.5s-1.119-2.5-2.5-2.5S1,3.119,1,4.5s1.119,2.5,2.5,2.5Z"/>
</svg>
