<?xml version="1.0" encoding="UTF-8"?>
<svg xmlns="http://www.w3.org/2000/svg" id="Layer_1" data-name="Layer 1" viewBox="0 0 24 24">
  <path d="M23,11C23,4.935,18.065,0,12,0S1,4.935,1,11c0,3.633,1.303,7.616,2.234,10H1v3H11v-2.71l-.058-.202c-.02-.068-1.942-6.84-1.942-10.088,0-1.654,1.346-3,3-3s3,1.346,3,3c0,3.248-1.923,10.02-1.942,10.088l-.058,.202v2.71h10v-3h-2.234c.931-2.384,2.234-6.367,2.234-10Zm-5.447-2.265l1.655-1.182c.502,1.046,.792,2.212,.792,3.448h-2c0-.802-.161-1.566-.447-2.265Zm-11.553,2.265h-2c0-1.236,.29-2.402,.792-3.448l1.655,1.182c-.286,.7-.447,1.464-.447,2.265Zm.475,10c-.573-1.345-1.651-4.115-2.175-7h1.978c.402,2.625,1.14,5.548,1.529,7h-1.333Zm1.768-14.671l-1.668-1.191c1.078-.998,2.426-1.706,3.926-1.992v2.051c-.837,.216-1.604,.605-2.258,1.132Zm5.258-1.132V3.146c1.5,.286,2.848,.994,3.926,1.992l-1.668,1.191c-.654-.527-1.421-.915-2.258-1.132Zm4.222,8.803h1.977c-.524,2.881-1.602,5.654-2.174,7h-1.332c.389-1.452,1.127-4.375,1.529-7Z"/>
</svg>
