<?xml version="1.0" encoding="UTF-8"?>
<svg xmlns="http://www.w3.org/2000/svg" id="Layer_1" data-name="Layer 1" viewBox="0 0 24 24">
  <path d="m20.624,14.533c-.168-.042-1.285-.275-1.624-.35v-1.913l-5-1v-6.271h-2V0h-3v5h-4V0h-3v5H0v11.5c0,4.136,3.364,7.5,7.5,7.5h11.5v-2.031h1.218c2.071,0,3.768-1.666,3.782-3.714.013-1.798-1.249-3.189-3.376-3.722ZM3.652,18.797c-.404-.675-.652-1.455-.652-2.297v-.198l8-7.312v3.091l-7.348,6.717Zm-.652-6.561v-4.237h4.635l-4.635,4.237Zm9.721,2.336l3.279,2.997v3.091l-4.97-4.542,1.691-1.546Zm-6.727,6.149l2.812-2.571,3.117,2.849h-4.423c-.531,0-1.033-.109-1.506-.278Zm14.224-1.753h-1.218v-1.717c.096.02.755.157.896.192.333.083,1.107.327,1.104.79-.003.405-.354.735-.782.735Z"/>
</svg>
