<?xml version="1.0" encoding="UTF-8"?>
<svg xmlns="http://www.w3.org/2000/svg" id="Layer_1" data-name="Layer 1" viewBox="0 0 24 24">
  <path d="M24,11.487c0-1.028-1.181-2.867-2-3.487-.231-2.769-2.85-4.857-3-5-.262-1.356-.535-2.012-.91-2.012-.029,0-.06,.004-.09,.012-.664,.175-1,1.5-1,3-.011,1.06-.451,1-1,1-.927,0-2-1.5-2-1.5l.147-.44c.193-.578-.135-1.2-.721-1.367l-2.426-.693-2,2c-1.084,0-2.136,.382-2.965,1.08-.567,.46-1.065,.953-1.407,1.598l-.598,1.092c-1.484,.502-2.957,1.188-4.03,2.292v1.652s.246,1.401,.462,1.927c.523,1.102,1.538,2.357,1.538,3.857,0,1,.7,1.502,1.419,1.502,.433,0,.873-.182,1.17-.548,2.845,.071,2.933-1.954,5.911-1.952,2.253,0,3,1,3,1,0,0,.707-.546,1.134-.546,.63-.006,.355,1.551,.366,1.546,0,0,1.5,1,2.5,1.5,.48-.008,3.5-.5,3.5-.5,1.01-2.494,3-4,3-7.013Zm-4.231,3.029c-.247,.391-.511,.808-.768,1.261-.326,.05-.633,.095-.894,.132-.05-.03-.1-.06-.151-.09-.142-.723-.461-1.432-1.075-1.999-.606-.559-1.404-.867-2.247-.867-.326,0-.644,.047-.947,.127-.807-.334-1.854-.581-3.187-.581-2.412,0-3.765,.904-4.659,1.502-.584,.391-.674,.451-1.15,.451h-.014c-.3-.954-.756-1.754-1.128-2.407-.349-.542-.4-.832-.539-1.556,.519-.314,1.176-.605,1.982-.878l1.108-.375,.562-1.026c.314-.575,.73-1.484,1.307-1.838,.286-.241,.653-.374,1.031-.374h1.243c.152-.152,.95-.95,1.083-1.083l.235,.328c.583,.859,2.395,2.884,4.629,2.756,.979,0,1.821-.297,2.462-.825,.207,.382,.332,.748,.36,1.073l.084,1.312,1.067,.808c.256,.225,.702,.917,.835,1.281-.043,.948-.462,1.654-1.227,2.866Zm1.231,5.483s.023,.679,0,.963c-.071,.68-.282,2.037-1.154,2.037-1.346,0-1.692-1.654-1.846-2.5l3-.5Z"/>
</svg>
