<?xml version="1.0" encoding="UTF-8"?>
<svg xmlns="http://www.w3.org/2000/svg" id="Layer_1" data-name="Layer 1" viewBox="0 0 24 24">
  <path d="M14,2.5c0-1.381,1.119-2.5,2.5-2.5s2.5,1.119,2.5,2.5-1.119,2.5-2.5,2.5-2.5-1.119-2.5-2.5Zm6.612,14.178l-2.541-1.649,.305-2.443,3.005,1.717,1.488-2.605-4.14-2.366c-.019-.798-.301-1.572-.836-2.178-.647-.733-1.579-1.153-2.556-1.153-.949,0-1.862,.399-2.505,1.097l-3.745,4.788,2.365,1.846,2.011-2.576-.583,4.082,5.489,3.562,2.917,5.1,2.604-1.49-3.278-5.73Zm-9.16,7.322h3.051l.804-4.916-2.708-1.807-1.148,6.723Zm-6.452-4c-1.105,0-2,.895-2,2s.895,2,2,2,2-.895,2-2-.895-2-2-2Zm-.875-7.207L.406,17.552c-.661,.874-.497,2.117,.37,2.788l.461,.357c.544-1.565,2.017-2.697,3.764-2.697,.986,0,1.877,.372,2.575,.965l2.963-3.76-3.594-2.786c-.88-.682-2.148-.514-2.82,.374Z"/>
</svg>
