<svg id="Layer_1" viewBox="0 0 24 24" xmlns="http://www.w3.org/2000/svg" data-name="Layer 1"><path d="m12 20c0 2.209-1.832 4-4.091 4-.69 0-1.339-.169-1.909-.464-.57.295-1.219.464-1.909.464-2.259 0-4.091-1.791-4.091-4s1.832-4 4.091-4h.846c-.188-1.048-.761-1.934-.768-1.944l1.661-1.114c.03.044.473.714.806 1.673.131-.242.282-.476.482-.675 1.074-1.073 2.883-.939 2.883-.939s.134 1.809-.939 2.883c-.082.082-.176.147-.267.217 1.833.396 3.206 1.989 3.206 3.901zm12-11.5v15.5h-11.623c.75-.826 1.285-1.855 1.507-3h2.117v-12.5c0-.171.027-.335.051-.5h-7.551c-.276 0-.5.224-.5.5v2.5h-3v-2.5c0-1.933 1.567-3.5 3.5-3.5h5.524l.656-5h7.32v3h-4.68l-.267 2h3.447c1.933 0 3.5 1.567 3.5 3.5zm-3 0c0-.276-.224-.5-.5-.5h-1c-.276 0-.5.224-.5.5v12.5h2z"/></svg>