<?xml version="1.0" encoding="UTF-8"?>
<svg xmlns="http://www.w3.org/2000/svg" id="Layer_1" data-name="Layer 1" viewBox="0 0 24 24">
  <path d="M12.539,11h8.461v-3h2V3h-1.073l1.5-3H5.5c-1.93,0-3.5,1.57-3.5,3.5V7.5c0,1.93,1.57,3.5,3.5,3.5h3.836l-1.753,4.675c-.073,.194-.261,.325-.469,.325H3v-3H0v9H3v-3H7.114c1.45,0,2.768-.912,3.277-2.271l2.148-5.729Zm-7.539-3.5V3.5c0-.275,.224-.5,.5-.5h13.073l-.573,1.146v3.854H5.5c-.276,0-.5-.225-.5-.5Zm12,4.5l-7,12h14l-7-12Zm1,11h-2v-2h2v2Zm-2-3v-4h2v4h-2Z"/>
</svg>
