<?xml version="1.0" encoding="UTF-8"?>
<svg xmlns="http://www.w3.org/2000/svg" id="Layer_1" data-name="Layer 1" viewBox="0 0 24 24">
  <path d="m3.336,8.301C2.347,9.58.045,12.766.045,14.713c0,1.435.952,4.108,1.527,5.594l-1.463,1.463,2.121,2.121,1.463-1.463c1.486.576,4.159,1.527,5.594,1.527,1.945,0,5.14-2.301,6.423-3.289l.016-.012L3.353,8.28l-.016.021Zm4.155,10.329c.643-.414,1.247-.63,1.793-.63.014,0,.595.206.882.305.557.264,1.277.679,2.034,1.173-1.289.841-2.484,1.463-2.914,1.478-.589,0-1.929-.397-3.257-.864l1.462-1.462Zm-1.727-4.648c.072.209.235.698.236.731,0,.547-.215,1.15-.627,1.792l-1.465,1.465c-.467-1.328-.864-2.667-.864-3.255.015-.431.637-1.623,1.478-2.908.538.823.984,1.604,1.241,2.175Zm18.197,7.858l-2.121,2.121L.039,2.16,2.16.039l4.914,4.914c.389-.57.756-1.066,1.026-1.416l1.187-1.533,1.187,1.533c.109.141.237.311.373.495L14.834.045l2.121,2.121-4.421,4.421c.354.618.677,1.254.899,1.858L21.833.045l2.121,2.121-8.4,8.4c.604.222,1.241.544,1.86.898l4.419-4.419,2.121,2.121-3.981,3.981c.186.137.358.267.501.377l1.561,1.203-1.575,1.185c-.353.265-.851.624-1.422,1.005l4.922,4.922Z"/>
</svg>
