<?xml version="1.0" encoding="UTF-8"?>
<svg xmlns="http://www.w3.org/2000/svg" id="Layer_1" data-name="Layer 1" viewBox="0 0 24 24">
  <path d="m13.55,10.295l1.543-.889c.413.353.886.632,1.407.818v1.776h3v-1.776c.522-.186.994-.464,1.407-.818l1.543.889,1.498-2.6-1.53-.882c.049-.265.082-.535.082-.813s-.034-.549-.082-.813l1.53-.882-1.498-2.6-1.543.889c-.413-.353-.886-.632-1.407-.818V0h-3v1.776c-.522.186-.994.464-1.407.818l-1.543-.889-1.498,2.6,1.53.882c-.049.265-.082.535-.082.813s.034.549.082.813l-1.53.882,1.498,2.6Zm4.45-5.795c.827,0,1.5.673,1.5,1.5s-.673,1.5-1.5,1.5-1.5-.673-1.5-1.5.673-1.5,1.5-1.5ZM1,3.5c0-1.381,1.119-2.5,2.5-2.5s2.5,1.119,2.5,2.5-1.119,2.5-2.5,2.5-2.5-1.119-2.5-2.5Zm2.981,13.5l-.03,3.882-.821,3.118H.028l.972-3.694v-9.806c0-1.381,1.119-2.5,2.5-2.5h3.379l2.561-2.561,2.121,2.121-3.439,3.439h-2.121v3h4v4.036l-3,2.082v-3.118h-3.019Zm20.019-6.244v3.651l-13.825,9.593h-5.262l19.087-13.244Z"/>
</svg>
