<?xml version="1.0" encoding="UTF-8"?>
<svg xmlns="http://www.w3.org/2000/svg" id="Layer_1" data-name="Layer 1" viewBox="0 0 24 24">
  <path d="M18,21.043v2.957h-3v-2h-6v2h-3v-2.957L.312,14.218l6.682-4.766,1.742,2.442-4.049,2.888,3.515,4.218h7.596l3.515-4.218-4.049-2.888,1.742-2.442,6.682,4.766-5.687,6.825ZM5.401,6.053l1.459-1.459,1.694,2.541,.446-.446-.775-5.329c-.096-.475-.682-.651-1.024-.309l-1.45,1.45L4.541,0,2.5,2.041l1.918,3.866c.196,.366,.69,.439,.983,.146Zm11.699-1.546l1.432,1.432c.288,.288,.772,.216,.964-.143l1.882-3.793-2.002-2.002-1.187,2.454-1.422-1.422c-.336-.336-.911-.163-1.005,.303l-.76,5.228,.437,.438,1.662-2.493Zm-6.647,8.745l-2.463,1.705c.911,1.233,2.363,2.044,4.01,2.044s3.099-.811,4.01-2.044l-2.463-1.705c-.367,.453-.921,.749-1.548,.749s-1.181-.296-1.548-.749Zm-.117-2.379c.361-.526,.964-.872,1.648-.872l.016-.012v.012c.684,0,1.287,.347,1.648,.872l1.836-2.448c-.901-.879-2.129-1.425-3.484-1.425v.012l-.016-.012c-1.355,0-2.582,.546-3.484,1.425l1.836,2.448Z"/>
</svg>
