<?xml version="1.0" encoding="UTF-8"?>
<svg xmlns="http://www.w3.org/2000/svg" id="Layer_1" data-name="Layer 1" viewBox="0 0 24 24">
  <path d="m24,20s0-8.069-.001-8.104c-.056-6.569-5.417-11.896-11.999-11.896C5.383,0,0,5.383,0,12c0,7.346,5.72,12,12,12,2.615,0,5.029-.85,7-2.278v-1.722h-2.896c-1.232.635-2.625,1-4.104,1-4.733,0-8.625-3.673-8.974-8.319.153-.952.98-1.681,1.974-1.681,1.103,0,2.101.897,2.101,2,.465,2.279,2.485,4,4.899,4,1.634,0,3.087-.788,4-2.003v3.003h3v-6c0-.552.449-1,1-1s1,.448,1,1v8h3Zm-12-6c-1.103,0-2-.897-2-2s.897-2,2-2,2,.897,2,2-.897,2-2,2Zm8-6c-1.459,0-2.739.786-3.437,1.956-.783-1.741-2.534-2.956-4.563-2.956-1.634,0-3.087.788-4,2.003-.836-.629-1.876-1.003-3-1.003-.386,0-.762.044-1.123.127,1.45-3.03,4.546-5.127,8.123-5.127,3.527,0,6.586,2.039,8.061,5.001-.02,0-.041,0-.061,0Z"/>
</svg>
