<?xml version="1.0" encoding="UTF-8"?>
<svg xmlns="http://www.w3.org/2000/svg" id="Layer_1" data-name="Layer 1" viewBox="0 0 24 24">
  <path d="m9.5,20.478v-3.199c1.742-.621,3-2.271,3-4.224,0-2.497-2.135-4.804-2.565-5.243-1.033-1.049-2.843-1.046-3.87.002-.428.437-2.564,2.742-2.564,5.241,0,1.953,1.258,3.602,3,4.224v3.199c-1.146-1.304-3.113-2.478-6.5-2.478.93,4.793,4.424,5.833,6.5,6h3c2.076-.167,5.571-1.206,6.5-6-3.387,0-5.355,1.174-6.5,2.478Zm-1.5-5.923c-.827,0-1.5-.673-1.5-1.5,0-.844.725-2.058,1.5-2.921.775.863,1.5,2.077,1.5,2.921,0,.827-.673,1.5-1.5,1.5Zm16-6.556h-2.308c-.923,0-2.336-.712-2.692-1,.288.357,1,1.769,1,2.692v2.308s-2.75,0-2.75-2.681c-.359.273-1.019.681-1.788.681-1.402,0-3.462-1.846-3.462-1.846,0,0,1.538-3.154,3.5-3.154.788,0,2.034.436,2.5,1-.564-.466-1-1.712-1-2.5,0-1.962,3.154-3.5,3.154-3.5,0,0,1.846,2.06,1.846,3.462,0,.77-.407,1.43-.681,1.788,2.681,0,2.681,2.75,2.681,2.75ZM13,2.5c0-.828.672-1.5,1.5-1.5s1.5.672,1.5,1.5-.672,1.5-1.5,1.5-1.5-.672-1.5-1.5Z"/>
</svg>
