<?xml version="1.0" encoding="UTF-8"?>
<svg xmlns="http://www.w3.org/2000/svg" id="Layer_1" data-name="Layer 1" viewBox="0 0 24 24">
  <path d="M21.582,13.788l-5.042,3.662,6.46,6.549H13c-1.105,0-2-.895-2-2s.895-2,2-2h1.991l-5.548-5.454c-.644-.644-.589-1.72,.184-2.276,.606-.437,1.475-.326,2.003,.202l2.814,2.853,7.659-5.259,1.896,1.897v4.243l-2.418-2.418ZM17.359,.644C16.723,.006,15.781-.174,14.943,.173c-3.233,1.167-5.907,2.229-8.324,4.24-2.301,.328-4.799,1.797-6.619,4.009v2.578H3.379l.75,.75-2.189,2.189,2.121,2.121,2.969-2.969c.079-.696,.364-1.343,.814-1.87l-2.08-2.08c1.317-1.345,2.619-2.304,2.692-2.36,1.75-1.452,3.714-2.359,6.002-3.23-.812,2.236-1.665,4.344-3.188,6.182-.003,.004-.095,.128-.245,.32,.742,.112,1.458,.442,2.019,1.003l.559,.567c2.216-2.721,3.294-5.817,4.311-8.921,.177-.74-.008-1.512-.555-2.061Z"/>
</svg>
