<?xml version="1.0" encoding="UTF-8"?>
<svg xmlns="http://www.w3.org/2000/svg" id="Layer_1" data-name="Layer 1" viewBox="0 0 24 24">
  <path d="m15,10h3v14H0V3.5C0,1.571,1.57,0,3.5,0h1.5v3h-1.5c-.276,0-.5.225-.5.5v17.5h12v-11Zm-7,1h-3v3h3v-3Zm5,0h-3v3h3v-3Zm-8,8h3v-3h-3v3Zm5,0h3v-3h-3v3ZM24,2.5v3c0,1.381-1.119,2.5-2.5,2.5s-2.5-1.119-2.5-2.5v-3c0-1.381,1.119-2.5,2.5-2.5s2.5,1.119,2.5,2.5Zm-1.6,0c0-.496-.404-.9-.9-.9s-.9.404-.9.9v3c0,.496.404.9.9.9s.9-.404.9-.9v-3Zm-6.9,2.5h.9v.5c0,.496-.404.9-.9.9s-.9-.404-.9-.9v-3c0-.496.404-.9.9-.9.307,0,.565.164.728.4h1.722c-.232-1.141-1.24-2-2.45-2-1.381,0-2.5,1.119-2.5,2.5v3c0,1.381,1.119,2.5,2.5,2.5s2.5-1.119,2.5-2.5v-2h-2.5v1.5Zm-6.9-1.054l1.8,4.054h1.6V0h-1.6v4.063L8.6.009v-.009h-1.6v8h1.6V3.946Z"/>
</svg>
