<?xml version="1.0" encoding="UTF-8"?>
<svg xmlns="http://www.w3.org/2000/svg" id="Layer_1" data-name="Layer 1" viewBox="0 0 24 24">
  <path d="m13.992,20.079c-.042,1.067-.915,1.921-1.992,1.921-1.105,0-2-.895-2-2,0-1.039.796-1.884,1.81-1.981l3.604-3.605,2.121,2.121-3.543,3.544Zm7.01-7.964l.01-5.115h2.489l-3.157-3.65c-.443-.494-1.217-.494-1.66,0l-3.183,3.65h2.511l-.005,2.636c-1.356-.793-2.878-1.326-4.504-1.531l.009-4.084h2.489L12.843.371c-.443-.494-1.217-.494-1.66,0l-3.183,3.65h2.511l-.009,4.084c-1.622.204-3.141.734-4.495,1.524l.005-2.628h2.488l-3.157-3.65c-.443-.494-1.217-.494-1.66,0L.5,7h2.512l-.01,5.112C1.169,14.212.05,16.95.05,19.95c0,.961.127,1.944.379,2.924l.29,1.126h6.281v-3h-3.882c-.045-.354-.068-.704-.068-1.05,0-4.936,4.015-8.95,8.95-8.95s8.95,4.015,8.95,8.95c0,.346-.022.696-.067,1.05h-3.883v3h6.281l.29-1.126c.251-.979.379-1.963.379-2.924,0-2.998-1.118-5.735-2.948-7.835Z"/>
</svg>
