<svg id="Layer_1" viewBox="0 0 24 24" xmlns="http://www.w3.org/2000/svg" data-name="Layer 1"><path d="m8.942 10.057c.344.23.558.678.558 1.169v2.774h5v-2.774c0-.491.213-.939.558-1.168 1.529-1.021 2.442-2.725 2.442-4.558 0-1.686-.757-3.256-2.078-4.306-1.321-1.051-3.037-1.432-4.713-1.045-2.005.462-3.6 2.058-4.062 4.065-.522 2.269.378 4.562 2.294 5.843zm.629-5.17c.244-1.1 1.313-1.915 2.432-1.887 1.339-.03 2.526 1.159 2.497 2.5.055 1.136-.809 1.85-1.609 2.5h-1.782c-.9-.762-1.898-1.451-1.538-3.113zm14.429 6.113h-7.5v3h3.609c-.068.31-.109.644-.109 1s.041.689.108 1h-16.108c-.551 0-1-.449-1-1s.449-1 1-1h3.5v-3h-3.5c-2.206 0-4 1.794-4 4 0 .951.347 1.813.903 2.5-.556.687-.903 1.549-.903 2.5 0 2.206 1.794 4 4 4h20l-.018-2.232c-.444-.542-.823-.534-.982-1.768 0-.75.54-1.315.538-1.315l.462-.443-.016-1.439c-.438-.545-.824-.557-.984-1.803 0-.75.54-1.315.538-1.315l.462-.443zm-3.891 10h-16.109c-.551 0-1-.449-1-1s.449-1 1-1h16.109c-.068.31-.109.644-.109 1s.041.69.109 1z"/></svg>