<svg id="Layer_1" viewBox="0 0 24 24" xmlns="http://www.w3.org/2000/svg" data-name="Layer 1"><path d="m19.5 3c-.278 0-.534.015-.785.034.182.624.285 1.283.285 1.966 0 .356-.035.703-.086 1.044.189-.024.383-.041.586-.044 1.5 0 1.5.272 1.5 1 0 .744-.165 1.527-.379 2.109-.197-.065-.403-.109-.621-.109-1.103 0-2 .897-2 2s.897 2 2 2c2.935 0 4-3.588 4-6 0-1.825-.781-4-4.5-4zm-15.5 6c-.218 0-.424.044-.621.109-.214-.582-.379-1.364-.379-2.109 0-.728 0-1 1.5-1 .203.003.397.021.586.044-.051-.342-.086-.688-.086-1.044 0-.683.102-1.342.285-1.966-.251-.019-.507-.034-.785-.034-3.719 0-4.5 2.175-4.5 4 0 2.412 1.065 6 4 6 1.103 0 2-.897 2-2s-.897-2-2-2zm8-9c-2.761 0-5 2.239-5 5s2.239 5 5 5 5-2.239 5-5-2.239-5-5-5zm3 6h-2v2h-2v-2h-2v-2h2v-2h2v2h2zm1 5c0-.105.023-.204.031-.308-1.142.811-2.523 1.308-4.031 1.308s-2.889-.496-4.031-1.308c.008.103.031.202.031.308 0 .932-.332 1.779-.867 2.459.473.783 1.009 1.443 1.582 1.976-.545.75-.783 1.683-.613 2.687l1.35 5.878h5.078l1.436-5.856.022-.11c.155-.93-.089-1.867-.645-2.619.553-.528 1.072-1.177 1.53-1.947-.539-.682-.874-1.531-.874-2.468zm-3.823 10h-.336l-.797-3.461c-.006-.353.109-.486.457-.539h1.073c.338.049.442.173.461.502z"/></svg>