<?xml version="1.0" encoding="UTF-8"?>
<svg xmlns="http://www.w3.org/2000/svg" id="Layer_1" data-name="Layer 1" viewBox="0 0 24 24">
  <path d="m7.106,12H0v-3h5.29c.327,1.102.98,2.164,1.816,3Zm-5.606,6c-.828,0-1.5.672-1.5,1.5s.672,1.5,1.5,1.5,1.5-.672,1.5-1.5-.672-1.5-1.5-1.5Zm6.965-7.465c-.944-.944-1.465-2.199-1.465-3.535s.521-2.592,1.465-3.536L12,.006l3.523,3.447c.956.955,1.477,2.211,1.477,3.547s-.521,2.592-1.465,3.535c-.944.944-2.2,1.465-3.535,1.465s-2.591-.521-3.535-1.465Zm1.535-3.535c0,.534.208,1.036.586,1.414.756.756,2.072.756,2.828,0,.378-.378.586-.88.586-1.414s-.208-1.036-.586-1.413l-1.414-1.384-1.426,1.395c-.366.366-.574.868-.574,1.402Zm-3.5,14c-.828,0-1.5.672-1.5,1.5s.672,1.5,1.5,1.5,1.5-.672,1.5-1.5-.672-1.5-1.5-1.5Zm16-3c-.828,0-1.5.672-1.5,1.5s.672,1.5,1.5,1.5,1.5-.672,1.5-1.5-.672-1.5-1.5-1.5Zm-3.79-9c-.327,1.103-.98,2.164-1.817,3h7.107v-3h-5.29Zm-6.71,9c-.828,0-1.5.672-1.5,1.5s.672,1.5,1.5,1.5,1.5-.672,1.5-1.5-.672-1.5-1.5-1.5Zm6.925-4.309c-.531.404-1.319.404-1.849,0-1.203-.916-2.95-.916-4.151,0-.531.404-1.319.404-1.849,0-1.203-.916-2.95-.916-4.151,0-.531.404-1.319.404-1.849,0-1.203-.916-2.95-.916-4.151,0-.266.202-.585.309-.925.309v3c1.001,0,1.949-.318,2.742-.922.134-.104.379-.104.517,0,1.584,1.207,3.897,1.207,5.483,0,.134-.104.378-.104.517,0,1.584,1.207,3.897,1.207,5.483,0,.134-.104.379-.104.517,0,1.584,1.207,3.897,1.207,5.483,0,.133-.104.378-.104.517,0,.792.604,1.74.922,2.741.922v-3c-.34,0-.659-.106-.924-.309-1.203-.916-2.95-.916-4.151,0Zm-1.425,7.309c-.828,0-1.5.672-1.5,1.5s.672,1.5,1.5,1.5,1.5-.672,1.5-1.5-.672-1.5-1.5-1.5Z"/>
</svg>
