<svg id="Layer_1" viewBox="0 0 24 24" xmlns="http://www.w3.org/2000/svg" data-name="Layer 1"><path d="m12.303 14.521 2.816 1.035c-.273.813-.225 2.086-.476 2.977-.717 2.714-2.837 4.468-5.401 4.468-2.138.035-2.901-.93-4.743-1-.871 0-1.5 0-1.5 2h-2.999c0-4.351 2.819-5 4.5-5 2.138-.035 2.901.93 4.743 1 1.196 0 2.131-.835 2.5-2.233.206-.975.166-2.218.56-3.246zm8.697 5.479c0 .552-.449 1-1 1s-1-.448-1-1c0-1.292.876-2.165 1.723-3.009 1.643-1.509 1.704-4.203.122-5.78-1.569-1.612-4.12-1.594-5.656 0l2.121 2.121c.418-.435.968-.445 1.414 0 .463.535.315 1.144-.119 1.533-.975.971-2.605 2.596-2.605 5.134 0 2.206 1.794 4 4 4s4-1.794 4-4h-3zm-14.496-6.601 3.384 3.383c.026-.236-.11-1.749.803-3.439l-2.065-2.065 1.415-1.415 1.895 1.896c.61-.829 1.324-1.529 2.07-2.172l-1.845-1.845 1.414-1.414 2.152 2.152c.322-.137.652-.256.992-.334 1.021-.236 2.067-.18 3.046.13l-4.069-4.069 1.061-1.061c.279-.208.427-.208.707 0l4.195 4.194 2.121-2.121-4.194-4.194c-1.322-1.322-3.628-1.322-4.95 0l-14.495 14.496 2.121 2.121 4.243-4.242z"/></svg>