<?xml version="1.0" encoding="UTF-8"?>
<svg xmlns="http://www.w3.org/2000/svg" id="Layer_1" data-name="Layer 1" viewBox="0 0 24 24">
  <path d="m12.03,24h-5.69c-1.807,0-3.338-1.41-3.487-3.21L1.62,6H0v-3h5v-.5c0-1.379,1.121-2.5,2.5-2.5h7c1.379,0,2.5,1.121,2.5,2.5v.5h5v3h-1.62l-.284,3.406c-.819-.263-1.691-.406-2.597-.406-.128,0-.255.003-.381.009l.251-3.009H4.631l1.212,14.541c.021.262.235.459.497.459h3.415c.528,1.163,1.31,2.187,2.275,3Zm11.97-6.5c0,3.59-2.91,6.5-6.5,6.5s-6.5-2.91-6.5-6.5,2.91-6.5,6.5-6.5,6.5,2.91,6.5,6.5Zm-3.096,1.283l-1.904-1.904v-2.879h-3v4.121l2.783,2.783,2.121-2.121Z"/>
</svg>
