<?xml version="1.0" encoding="UTF-8"?>
<svg xmlns="http://www.w3.org/2000/svg" id="Layer_1" data-name="Layer 1" viewBox="0 0 24 24" width="512" height="512"><path d="m24,10l-3,2.237v-.737c0-1.33-.746-2.489-1.841-3.081.532-.847.841-1.847.841-2.919,0-3.033-2.467-5.5-5.5-5.5-1.575,0-2.996.665-4,1.729-1.004-1.064-2.425-1.729-4-1.729C3.467,0,1,2.467,1,5.5c0,1.072.308,2.073.841,2.919-1.095.592-1.841,1.751-1.841,3.081v12.5h21v-4.237l3,2.237v-12ZM14.5,3c1.378,0,2.5,1.122,2.5,2.5s-1.122,2.5-2.5,2.5-2.5-1.122-2.5-2.5,1.122-2.5,2.5-2.5Zm-8,0c1.378,0,2.5,1.122,2.5,2.5s-1.122,2.5-2.5,2.5-2.5-1.122-2.5-2.5,1.122-2.5,2.5-2.5Zm11.5,18H3v-9.5c0-.276.224-.5.5-.5h14c.276,0,.5.224.5.5v9.5Z"/></svg>
