<svg id="Layer_1" viewBox="0 0 24 24" xmlns="http://www.w3.org/2000/svg" data-name="Layer 1"><path d="m10.404 20.869c-.574.077-1.197.131-1.904.131-3.465 0-5.343-1.106-5.5-1.5v-1.499c1.554.659 3.53.999 5.5.999.319 0 .635-.023.953-.041-.282-.81-.453-1.694-.453-2.659v-.32c-.169.006-.323.02-.5.02-3.465 0-5.343-1.106-5.5-1.5v-1.499c1.554.659 3.53.999 5.5.999.167 0 .333-.017.5-.022v-1.788c0-.42.067-.825.17-1.217-.222.01-.433.026-.67.026-3.464 0-5.343-1.106-5.5-1.5v-1.499c1.554.659 3.53.999 5.5.999 4.224 0 8.5-1.546 8.5-4.5s-4.276-4.499-8.5-4.499-8.5 1.546-8.5 4.5v15c0 2.954 4.276 4.5 8.5 4.5 1.467 0 2.935-.191 4.233-.558-.824-.684-1.656-1.543-2.329-2.574zm-1.904-17.869c3.42 0 5.287 1.076 5.486 1.482-.224.456-2.086 1.518-5.486 1.518-3.419 0-5.286-1.075-5.485-1.482.223-.456 2.085-1.518 5.485-1.518zm13.566 6.514-4.566-1.514-4.566 1.514c-1.156.384-1.934 1.459-1.934 2.677v4.109c0 4.164 4.208 6.591 5.501 7.236l.922.459.96-.384c1.318-.531 5.617-2.627 5.617-7.311v-4.109c0-1.218-.778-2.294-1.934-2.677zm-4.566 10.482c-1.37 0-2.581-.627-3.402-1.598l-1.098 1.098v-3c0-.276.224-.5.5-.5h3l-1 1h.013c.457.603 1.174 1 1.987 1s1.531-.397 1.987-1h2.236c-.621 1.742-2.271 3-4.224 3zm4.5-5.5c0 .276-.224.5-.5.5h-3l1-1h-.013c-.457-.603-1.174-1-1.987-1s-1.531.397-1.987 1h-2.236c.621-1.742 2.271-3 4.224-3 1.37 0 2.581.627 3.402 1.598l1.098-1.098v3z"/></svg>