<svg id="Layer_1" viewBox="0 0 24 24" xmlns="http://www.w3.org/2000/svg" data-name="Layer 1"><path d="m8 8c.828 0 1.5.672 1.5 1.5s-.672 1.5-1.5 1.5-1.5-.672-1.5-1.5.672-1.5 1.5-1.5zm5.5 10h-8c-2.481 0-4.5 2.019-4.5 4.5v1.5h3v-1.5c0-.827.673-1.5 1.5-1.5h8c.827 0 1.5.673 1.5 1.5v1.5h3v-1.5c0-2.481-2.019-4.5-4.5-4.5zm-11.5-2h15v-3h-12v-6.5c0-.276.225-.5.5-.5h5.5v-5h-3v2h-2.5c-1.93 0-3.5 1.57-3.5 3.5v.5h-2v5h2zm20-16h-2.7v1.2h.2c1.201 0 2.189.925 2.291 2.1h-1.62c-.086-.289-.355-.5-.671-.5h-2.127c-.316 0-.573.258-.573.574 0 .271.194.508.461.562l2.792.559c1.013.202 1.747 1.098 1.747 2.131 0 1.199-.975 2.174-2.174 2.174h-.326v1.2h4.7v-8c0-1.105-.896-2-2-2zm-7.908 11.862c.196 0 .397-.054.583-.173l2.454-1.69h.572v-1.2h-.2c-1.201 0-2.189-.925-2.291-2.1h1.62c.086.289.355.5.671.5h2.126c.316 0 .574-.258.574-.574 0-.272-.194-.509-.462-.563l-2.791-.559c-1.013-.202-1.747-1.098-1.747-2.131 0-1.198.975-2.173 2.173-2.173h.327v-1.198h-2.701c-1.1.001-2 .901-1.999 2.001l.002 8.772c0 .638.524 1.088 1.089 1.088z"/></svg>