<?xml version="1.0" encoding="UTF-8"?>
<svg xmlns="http://www.w3.org/2000/svg" id="Layer_1" data-name="Layer 1" viewBox="0 0 24 24" width="512" height="512"><path d="M15,10.16c0,2.26-4,5.04-4,5.04,0,0-4-2.78-4-5.04,0-1.19,.9-2.16,2-2.16s2,.81,2,2c0-1.19,.9-2,2-2s2,.97,2,2.16Zm2,10.84h.89c1.74,0,3.23-1.3,3.47-3.02l.34-2.48h2.3v-2.82s-.57-1.3-.79-1.81c-1.12-2.58-2.18-5.02-3.33-6.44C17.4,1.12,13.29-.52,9.18,.15,4.95,.85,1.5,3.97,.39,8.1c-.94,3.49-.11,7.12,2.26,9.96,.23,.27,.35,.61,.35,.95v4.98h14v-3Zm-11-1.98c0-1.05-.37-2.07-1.05-2.88-1.74-2.08-2.35-4.73-1.67-7.26,.79-2.95,3.36-5.27,6.39-5.77,3-.49,6,.7,7.84,3.17,.92,1.14,1.95,3.5,2.94,5.79,.06,.14,.12,.29,.19,.43h-1.56l-.7,5.07c-.03,.25-.25,.43-.5,.43h-3.89v3H6v-1.98Z"/></svg>
