<?xml version="1.0" encoding="UTF-8"?>
<svg xmlns="http://www.w3.org/2000/svg" id="Layer_1" data-name="Layer 1" viewBox="0 0 24 24">
  <path d="m24.048,3.217s-1.456-.416-3.428-.711c-.908-.928-2.174-1.505-3.572-1.505s-2.664.577-3.572,1.505c-1.972.295-3.428.711-3.428.711.262,1.064,1.062,1.854,2.039,2.153-.026.207-.04.417-.04.631v.034c-.343.043-.68.13-1,.262-1.415-.583-3.129-.246-4.223.782-.256-.052-.516-.079-.777-.079-2.044,0-3.735,1.542-3.972,3.523C.851,11.215.048,12.524.048,14s.803,2.785,2.028,3.478c.152,1.276.907,2.369,1.972,2.986v3.537h5v-2.046c.672.088,1.366.012,2-.251.475.196.981.297,1.5.297.169,0,.336-.011.5-.031v2.031h5v-3.537c1.064-.617,1.82-1.71,1.972-2.986,1.137-.643,1.902-1.819,2.007-3.164-1.228,1.062-2.945,1.682-4.964,1.686-.081.251-.015.937-.015,1.001,0,.552-.449,1-1,1-.001,0-.002,0-.003,0-.172,0-.343-.051-.508-.15l-1.375-.827-.733,1.427c-.137.267-.44.551-.882.551-.212,0-.413-.07-.596-.209l-.904-.683-.904.684c-.125.095-.331.208-.595.208-.441,0-.745-.284-.882-.551l-.733-1.427-1.375.827c-.694.417-1.511-.125-1.511-.85,0-.063.009-.135.028-.219l.34-1.529-1.543-.273c-.478-.084-.824-.496-.824-.979s.347-.895.824-.979l1.543-.272-.34-1.53c-.019-.084-.028-.156-.028-.219,0-.724.823-1.266,1.509-.85l1.375.829.734-1.428c.137-.267.44-.551.881-.551.265,0,.47.113.595.208l.904.684s.968-.728,1-.748v.625c0,2.57,1.962,4.231,5,4.231s5-1.661,5-4.231v-3.769c0-.214-.013-.424-.04-.631.977-.298,1.778-1.088,2.04-2.153Zm-5,6.552c0,.336,0,1.231-2,1.231s-2-.895-2-1.231v-3.769c0-1.103.897-2,2-2s2,.897,2,2v3.769Z"/>
</svg>
