<?xml version="1.0" encoding="UTF-8"?>
<svg xmlns="http://www.w3.org/2000/svg" id="Layer_1" data-name="Layer 1" viewBox="0 0 24 24">
  <path d="M7.5,18.5c0,1.381-1.119,2.5-2.5,2.5s-2.5-1.119-2.5-2.5,1.119-2.5,2.5-2.5,2.5,1.119,2.5,2.5Zm1.724-1.5c.168,.471,.276,.971,.276,1.5s-.108,1.029-.276,1.5h5.553c-.168-.471-.276-.971-.276-1.5s.108-1.029,.276-1.5h-5.553Zm9.776-1c-1.381,0-2.5,1.119-2.5,2.5s1.119,2.5,2.5,2.5,2.5-1.119,2.5-2.5-1.119-2.5-2.5-2.5ZM10,8c0,1.335-.521,2.591-1.465,3.536l-3.535,3.458-3.523-3.447c-.956-.956-1.477-2.211-1.477-3.547C-.056,5.313,2.314,2.944,5,3c1.335,0,2.59,.52,3.535,1.464h0c.944,.945,1.465,2.201,1.465,3.536Zm-3,0c0-1.105-.895-2-2-2s-2,.895-2,2,.895,2,2,2,2-.895,2-2Zm17,0c0,1.335-.521,2.591-1.465,3.536l-3.535,3.458-3.523-3.447c-.956-.956-1.477-2.211-1.477-3.547-.056-2.687,2.314-5.056,5-5,1.335,0,2.59,.52,3.535,1.464h0c.944,.945,1.465,2.201,1.465,3.536Zm-3,0c0-1.105-.895-2-2-2s-2,.895-2,2,.895,2,2,2,2-.895,2-2Z"/>
</svg>
