<?xml version="1.0" encoding="UTF-8"?>
<svg xmlns="http://www.w3.org/2000/svg" id="Layer_1" data-name="Layer 1" viewBox="0 0 24 24">
  <path d="M24,14.5c0-1.93-1.57-3.5-3.5-3.5H3.5c-1.93,0-3.5,1.57-3.5,3.5v7.5H2v2h3v-2h14v2h3v-2h2v-7.5Zm-21,0c0-.275,.225-.5,.5-.5H20.5c.275,0,.5,.225,.5,.5v4.5H3v-4.5ZM12,5c2.172,0,4.214,.846,5.75,2.382l-2.121,2.121c-.97-.969-2.258-1.503-3.629-1.503s-2.659,.534-3.629,1.503l-2.121-2.121c1.536-1.536,3.578-2.382,5.75-2.382Zm-6.972,.888L2.907,3.767C5.335,1.338,8.564,0,12,0s6.665,1.338,9.093,3.767l-2.121,2.121c-1.861-1.862-4.338-2.888-6.972-2.888s-5.11,1.025-6.972,2.888Zm1.972,10.612c0,.828-.672,1.5-1.5,1.5s-1.5-.672-1.5-1.5,.672-1.5,1.5-1.5,1.5,.672,1.5,1.5Zm4,0c0,.828-.672,1.5-1.5,1.5s-1.5-.672-1.5-1.5,.672-1.5,1.5-1.5,1.5,.672,1.5,1.5Z"/>
</svg>
