<?xml version="1.0" encoding="UTF-8"?>
<svg xmlns="http://www.w3.org/2000/svg" id="Layer_1" data-name="Layer 1" viewBox="0 0 24 24" width="512" height="512"><path d="M16.911,11.324c-.91,.626-2.757,1.676-4.911,1.676s-4.001-1.05-4.911-1.676l1.134-1.647c.718,.494,2.165,1.324,3.777,1.324s3.059-.83,3.777-1.324l1.134,1.647Z"/><path d="M11,9c0-1.305-.611-4-2.5-4s-2.5,2.695-2.5,4c0,0,1.667-1,2.5-1s2.5,1,2.5,1Z"/><path d="M15.5,5c-1.889,0-2.5,2.695-2.5,4,0,0,1.667-1,2.5-1s2.5,1,2.5,1c0-1.305-.611-4-2.5-4Z"/><path d="M22.587,18.189l-1.84,1.84-.985-.985,3.631-3.631c.323-.323,.323-.847,0-1.171-.323-.323-.847-.323-1.171,0l-3.697,3.697-1.002-1.002,3.024-3.024c.323-.323,.323-.847,0-1.171s-.847-.323-1.171,0l-4.377,4.377v-1.119c0-.552-.448-1-1-1s-1,.448-1,1v3.58c0,.811,.186,1.625,.612,2.316,.863,1.401,2.292,2.102,3.722,2.102,1.11,0,2.219-.422,3.064-1.267,0,0,3.424-3.441,3.426-3.47,.24-.324,.228-.777-.066-1.071-.323-.323-.847-.323-1.171,0Z"/><path d="M9.992,15c-.552,0-1,.448-1,1v1.119l-4.377-4.377c-.323-.323-.847-.323-1.171,0s-.323,.847,0,1.171l3.024,3.024-1.002,1.002-3.697-3.697c-.323-.323-.847-.323-1.171,0-.323,.323-.323,.847,0,1.171l3.631,3.631-.985,.985-1.84-1.84c-.323-.323-.847-.323-1.171,0-.294,.294-.307,.747-.066,1.071,.003,.029,3.426,3.47,3.426,3.47,.845,.845,1.954,1.267,3.064,1.267,1.43,0,2.858-.701,3.722-2.102,.425-.69,.612-1.505,.612-2.316v-3.58c0-.552-.448-1-1-1Z"/><path d="M20.89,10.667c.006,.002,.011,.006,.016,.008,.13-.017,.259-.04,.394-.04,1.161,0,2.157,.662,2.664,1.622,.007,.003,.015,.004,.022,.008,.002-.089,.013-.175,.013-.265C24,5.383,18.617,0,12,0S0,5.383,0,12c0,.088,.011,.173,.013,.261,.002,0,.004-.001,.006-.002,.506-.961,1.503-1.624,2.665-1.624,.138,0,.27,.023,.403,.041,.008-.003,.016-.008,.024-.011C3.759,6.335,7.493,3,12,3s8.242,3.336,8.89,7.667Z"/></svg>
