<svg id="Layer_1" viewBox="0 0 24 24" xmlns="http://www.w3.org/2000/svg" data-name="Layer 1"><path d="m3 2.5c0-1.381 1.119-2.5 2.5-2.5s2.5 1.119 2.5 2.5-1.119 2.5-2.5 2.5-2.5-1.119-2.5-2.5zm3 12.5h-3v-5.5c0-.276.224-.5.5-.5h11.5v-3h-11.5c-1.93 0-3.5 1.57-3.5 3.5v8.5h2v6h3v-6h1v6h3v-13h-3zm18 0v-11.5c0-1.93-1.57-3.5-3.5-3.5h-11.26c.479.715.76 1.575.76 2.5 0 .171-.032.334-.05.5h10.55c.275 0 .5.224.5.5v8.5h-10v3h2v2.511c-.604.456-1 1.173-1 1.989 0 1.381 1.119 2.5 2.5 2.5s2.5-1.119 2.5-2.5c0-.815-.396-1.532-1-1.989v-2.511z"/></svg>