<?xml version="1.0" encoding="UTF-8"?>
<svg xmlns="http://www.w3.org/2000/svg" id="Layer_1" data-name="Layer 1" viewBox="0 0 24 24">
  <path d="M10.5,19h-2.544c.028,.264,.044,.529,.044,.796v1.204h3v3H5v-4.204c0-1.403-.646-2.778-1.82-3.87C.933,13.835-.286,10.655,.075,7.825,.59,3.783,3.905,.517,7.958,.059c2.557-.288,5.127,.522,7.037,2.228,1.91,1.707,3.006,4.153,3.006,6.713,0,.336-.021,.67-.058,1h-3.035c.056-.329,.093-.662,.093-1,0-1.707-.73-3.338-2.004-4.476-1.291-1.153-2.955-1.682-4.701-1.484-2.695,.305-4.901,2.477-5.244,5.165-.274,2.151,.935,4.373,2.173,5.526,.733,.682,1.324,1.45,1.774,2.269h.501v-4.298c-1.463-.595-2.5-2.028-2.5-3.702h3c0,.551,.449,1,1,1s1-.449,1-1h3c0,1.675-1.037,3.107-2.5,3.702v7.298Zm13.502-4.997l-.003,8.772c.002,.876-.98,1.371-1.672,.915l-2.454-1.69h-6.873s0-8,0-8c0-1.105,.896-2,2-2l7.002,.002c1.1,0,2,.901,1.999,2.001Zm-3.002,.997h-4.999v4s4.999,0,4.999,0v-4Z"/>
</svg>
