<?xml version="1.0" encoding="UTF-8"?>
<svg xmlns="http://www.w3.org/2000/svg" id="Layer_1" data-name="Layer 1" viewBox="0 0 24 24" width="512" height="512"><path d="m19.5,0h-6.5v24h6.5c1.93,0,3.5-1.57,3.5-3.5V3.5c0-1.93-1.57-3.5-3.5-3.5Zm.5,20.5c0,.276-.225.5-.5.5h-3.5v-4h4v3.5Zm0-6.5h-4v-4h4v4Zm-4-7V3h3.5c.275,0,.5.224.5.5v3.5h-4ZM1,3.5v17c0,1.93,1.57,3.5,3.5,3.5h6.5V0h-6.5C2.57,0,1,1.57,1,3.5Zm7,17.5h-3.5c-.275,0-.5-.224-.5-.5v-3.5h4v4Zm0-7h-4v-4h4v4Zm0-7h-4v-3.5c0-.276.225-.5.5-.5h3.5v4Z"/></svg>
