<svg id="Layer_1" viewBox="0 0 24 24" xmlns="http://www.w3.org/2000/svg" data-name="Layer 1"><path d="m8.5 14c.564 0 1.128-.031 1.684-.086.406-.748.917-1.476 1.586-2.145.444-.444 1.003-.985 1.487-1.308-.881.215-2.53.538-4.756.538-3.465 0-5.343-.914-5.5-1.308v-1.692c1.554.659 3.53.999 5.5.999s3.946-.341 5.5-.999v2.134c.993-.525 2.019-.854 3-1.044v-4.589c-.001-2.954-4.277-4.5-8.501-4.5s-8.5 1.546-8.5 4.5v15c0 2.954 4.276 4.5 8.5 4.5.288 0 .576-.009.863-.023l-.264-1.664c-.01-.064-.115-.565-.187-1.329-.136.007-.267.016-.412.016-3.465 0-5.343-1.106-5.5-1.5v-1.499c1.554.659 3.53.999 5.5.999.121 0 .241-.005.362-.008.037-.922.164-1.957.471-3.019-.266.016-.541.028-.833.028-3.465 0-5.343-.863-5.5-1.256v-1.743c1.554.659 3.53.999 5.5.999zm0-11c3.348 0 5.215 1.033 5.484 1.5-.27.467-2.136 1.5-5.484 1.5-3.445 0-5.318-1.093-5.5-1.446v-.016c.182-.445 2.055-1.538 5.5-1.538zm13.33 20.951-7.018-7.018c-2 2.297-3.738 5.067-3.738 5.067s-.604-3.866 1.68-7.124l-.816-.816 2.121-2.121.816.816c3.258-2.285 7.123-1.68 7.123-1.68.049.064-2.755 1.756-5.062 3.741l7.014 7.014-2.121 2.121z"/></svg>