<?xml version="1.0" encoding="UTF-8"?>
<svg xmlns="http://www.w3.org/2000/svg" id="Layer_1" data-name="Layer 1" viewBox="0 0 24 24">
  <path d="M10.5,4H3.5c-1.93,0-3.5,1.57-3.5,3.5v4c0,1.312,.734,2.444,1.805,3.043l4.055,9.457h1.398c1.93,.058,3.35-2.128,2.514-3.868l-2.145-5.132h2.873c2.649,0,4.5,1.645,4.5,4h3V0h-3c0,2.355-1.851,4-4.5,4Zm0,8H3.5c-.276,0-.5-.224-.5-.5V7.5c0-.276,.224-.5,.5-.5h7c1.719,0,3.262-.493,4.5-1.334v7.667c-1.238-.841-2.781-1.334-4.5-1.334Zm13.5-2.5c0,2.289-.892,4.442-2.511,6.061l-2.121-2.121c1.053-1.053,1.632-2.452,1.632-3.939s-.579-2.887-1.632-3.939l2.121-2.121c1.619,1.619,2.511,3.771,2.511,6.061Z"/>
</svg>
