<?xml version="1.0" encoding="UTF-8"?>
<svg xmlns="http://www.w3.org/2000/svg" id="Layer_1" data-name="Layer 1" viewBox="0 0 24 24">
  <path d="m20.5,4.998h-1.5v-1.501C19,1.566,17.43-.004,15.5-.004l-12,.004c-.933,0-1.812.365-2.474,1.028S0,2.569,0,3.502l.005,13.622c0,1.032.838,1.872,1.868,1.872.184,0,.366-.027.542-.081l2.585-1.079v4.162h12l4.443,1.864.16.057c.171.05.347.075.523.075,1.03,0,1.868-.839,1.868-1.871l.005-13.625c0-1.93-1.57-3.5-3.5-3.5ZM3,3.501c0-.271.229-.501.5-.501l12-.004c.276,0,.5.224.5.5v10.504H6.396l-3.392,1.422-.005-11.921Zm17.995,16.919l-3.392-1.423h-9.604v-1.998h11V7.998h1.5c.276,0,.5.224.5.499l-.005,11.924Zm-11.995-8.242l-4-1.147v-4.491c0-1.087.762-1.768,1.808-1.469l1.005.251c.702.201,1.187.843,1.187,1.573v5.283Zm5-1.147l-4,1.147v-5.283c0-.731.485-1.373,1.187-1.573l1.005-.251c1.045-.299,1.808.382,1.808,1.469v4.491Z"/>
</svg>
