<?xml version="1.0" encoding="UTF-8"?>
<svg xmlns="http://www.w3.org/2000/svg" id="Layer_1" data-name="Layer 1" viewBox="0 0 24 24">
  <path d="m22.732,9.013c-.767-.698-1.761-1.058-2.796-1.008-1.037.048-1.992.498-2.69,1.265l-2.438,2.68c-.647-.589-1.507-.949-2.45-.949H3.5c-1.93,0-3.5,1.57-3.5,3.5v6c0,1.93,1.57,3.5,3.5,3.5h11.181l8.333-9.532c1.411-1.581,1.284-4.028-.282-5.455Zm-1.967,3.469l-7.447,8.518H3.5c-.276,0-.5-.224-.5-.5v-6c0-.276.224-.5.5-.5h8.858c.354,0,.642.288.642.642,0,.317-.237.591-.551.636l-5.161.737.424,2.97,5.161-.737c1.618-.231,2.875-1.53,3.093-3.115l3.498-3.844c.159-.174.376-.276.612-.288.234-.009.461.07.636.229.356.325.385.881.054,1.252Zm-6.766-4.982c0,.828-.672,1.5-1.5,1.5s-1.5-.672-1.5-1.5.672-1.5,1.5-1.5,1.5.672,1.5,1.5ZM4,1.5c0-.828.672-1.5,1.5-1.5s1.5.672,1.5,1.5-.672,1.5-1.5,1.5-1.5-.672-1.5-1.5Zm.346,7.5L10.18,0h3.474l-5.833,9h-3.474Z"/>
</svg>
