<svg id="Layer_1" viewBox="0 0 24 24" xmlns="http://www.w3.org/2000/svg" data-name="Layer 1"><path d="m4.5 15c-2.481 0-4.5 2.019-4.5 4.5s2.019 4.5 4.5 4.5 4.5-2.019 4.5-4.5-2.019-4.5-4.5-4.5zm0 6c-.827 0-1.5-.673-1.5-1.5s.673-1.5 1.5-1.5 1.5.673 1.5 1.5-.673 1.5-1.5 1.5zm15.029-5.997-1.857-3.003h2.851v-3h-2.489l-4.608-2.56c-1.651-.917-3.77-.336-4.734 1.316l-1.182 2.102c-.521.855-.65 1.895-.355 2.851.283.917.93 1.677 1.786 2.103l1.559 1.006v4.183h3v-5.817l-3.206-2.049c-.329-.226-.372-.364-.195-.76l1.196-2.126c.136-.233.44-.315.675-.185l2.817 1.565c-.307.638-.375 1.361-.161 2.057l2.034 3.352c-1.005.826-1.661 2.063-1.661 3.463 0 2.481 2.019 4.5 4.5 4.5s4.5-2.019 4.5-4.5-2.003-4.481-4.471-4.497zm-.029 5.997c-.827 0-1.5-.673-1.5-1.5s.673-1.5 1.5-1.5 1.5.673 1.5 1.5-.673 1.5-1.5 1.5zm-8.5-18.5c0-1.381 1.119-2.5 2.5-2.5s2.5 1.119 2.5 2.5-1.119 2.5-2.5 2.5-2.5-1.119-2.5-2.5z"/></svg>