<?xml version="1.0" encoding="UTF-8"?>
<svg xmlns="http://www.w3.org/2000/svg" id="Layer_1" data-name="Layer 1" viewBox="0 0 24 24" width="512" height="512"><path d="m22.83,7.856c1.56-1.559,1.56-4.097,0-5.657-1.561-1.559-4.098-1.559-5.656,0L1.539,17.819C.547,18.81,0,20.127,0,21.528v1.472s2.078.04,2.69.04c.316,0,.634-.003.87-.012,4-.159,7.436-1.565,9.942-4.072l2.243-2.263s1.221,1.229,1.341,1.339l2.079-2.162-.3-.3c-.432-.492-.675-1.113-.69-1.777-.018-.766.268-1.489.806-2.034l3.849-3.902Zm-11.453,8.983c-2.424,2.424-5.55,3.074-7.795,3.184.025-.028.051-.055.078-.082l7.671-7.664,2.294,2.294-2.248,2.268Zm5.468-7.188c-.69.699-1.18,1.539-1.444,2.454l-1.948-1.949,5.841-5.836c.39-.389,1.024-.39,1.414,0,.39.39.39,1.024-.007,1.422l-3.856,3.909Z"/></svg>
