<svg id="Layer_1" viewBox="0 0 24 24" xmlns="http://www.w3.org/2000/svg" data-name="Layer 1"><path d="m24 12s-2.669-2.482-5.968-2.499c2.321-2.344 2.453-5.987 2.453-5.987s-3.643.132-5.987 2.453c-.016-3.299-2.499-5.968-2.499-5.968s-2.482 2.669-2.499 5.968c-2.343-2.32-5.985-2.452-5.985-2.452s.132 3.643 2.453 5.987c-3.299.016-5.968 2.499-5.968 2.499s2.669 2.482 5.968 2.499c-2.321 2.344-2.453 5.987-2.453 5.987s3.643-.132 5.987-2.453c.016 3.299 2.499 5.968 2.499 5.968s2.482-2.669 2.499-5.968c2.344 2.321 5.987 2.453 5.987 2.453s-.132-3.643-2.453-5.987c3.299-.016 5.968-2.499 5.968-2.499zm-17.5 1c-.893 0-1.751-.428-2.5-1.001.748-.572 1.606-.999 2.5-.999s1.751.427 2.5 1.001c-.748.572-1.606.999-2.5.999zm5.499 7c-.572-.748-.999-1.606-.999-2.5s.428-1.751 1.001-2.5c.572.748.999 1.606.999 2.5s-.427 1.751-1.001 2.5zm0-6.5c-.828 0-1.5-.672-1.5-1.5s.672-1.5 1.5-1.5 1.5.672 1.5 1.5-.672 1.5-1.5 1.5zm0-4.5c-.572-.748-.999-1.606-.999-2.5s.428-1.751 1.001-2.5c.572.748.999 1.606.999 2.5s-.427 1.751-1.001 2.5zm3.001 2.999c.748-.572 1.606-.999 2.5-.999s1.751.427 2.5 1.001c-.748.572-1.606.999-2.5.999s-1.751-.428-2.5-1.001z"/></svg>