<?xml version="1.0" encoding="UTF-8"?>
<svg xmlns="http://www.w3.org/2000/svg" id="Layer_1" data-name="Layer 1" viewBox="0 0 24 24" width="512" height="512"><path d="m23.997,13.497l-.002-3h-1.11c-.263-1.911-1.017-3.665-2.134-5.134l.79-.791-2.123-2.119-.789.79c-1.47-1.115-3.224-1.868-5.136-2.129V0h-3v1.116c-1.911.264-3.663,1.017-5.131,2.134l-.793-.793-2.121,2.121.794.794c-1.114,1.469-1.866,3.221-2.128,5.132H-.003v3h1.119c.263,1.911,1.016,3.662,2.131,5.131l-.793.793,2.121,2.121.793-.793c1.468,1.115,3.221,1.868,5.131,2.13v1.116s3.001-.002,3.001-.002v-1.113c1.911-.262,3.664-1.015,5.133-2.131l.792.79,2.119-2.123-.79-.788c1.116-1.469,1.869-3.223,2.132-5.136h1.111Zm-4.143-2.998l-3.109.003c-.088-.278-.197-.543-.329-.797l2.197-2.2c.605.887,1.033,1.902,1.241,2.995Zm-6.361-6.355c1.094.208,2.11.635,2.998,1.239l-2.196,2.2c-.256-.134-.522-.243-.802-.331v-3.108Zm-3,.002v3.11c-.276.088-.54.197-.794.33l-2.198-2.198c.886-.605,1.9-1.033,2.991-1.242Zm-5.111,3.365l2.199,2.199c-.132.253-.239.517-.327.793h-3.109c.208-1.091.633-2.105,1.237-2.992Zm-1.236,5.992h3.11c.088.276.196.539.328.792l-2.198,2.198c-.604-.886-1.031-1.9-1.24-2.991Zm3.361,5.112l2.198-2.198c.252.131.514.239.788.326l.003,3.111c-1.09-.208-2.103-.635-2.989-1.239Zm4.492-4.615c-1.103,0-2-.897-2-2s.897-2,2-2,2,.897,2,2-.897,2-2,2Zm1.497,5.855l-.003-3.108c.277-.088.542-.196.796-.328l2.201,2.197c-.887.604-1.902,1.031-2.995,1.239Zm5.116-3.359l-2.199-2.196c.133-.254.242-.519.331-.797l3.11-.003c-.208,1.093-.636,2.108-1.241,2.995Z"/></svg>
