<?xml version="1.0" encoding="UTF-8"?>
<svg xmlns="http://www.w3.org/2000/svg" id="Layer_1" data-name="Layer 1" viewBox="0 0 24 24">
  <path d="m20.733,18.718l.291.477-.313,1.88c-.282,1.694-1.734,2.924-3.452,2.924h-4.306v-3h4.306c.245,0,.453-.176.493-.418l.131-.785c-.949-1.625-1.016-2.152-1.039-2.335-.102-.805-.455-1.264-1.259-1.637,0,0-1.8-.825-2.131-.825-.483,0-.784.101-.874.135-3.832,2.274-5.694,5.174-5.694,8.865h-3c0-4.798,2.436-8.664,7.24-11.49.108-.059.393-.198.828-.316v-.194c0-1.657,1.391-3,3.047-3v3.281c.6.197,1.846.822,1.846.822,1.714.794,2.711,2.106,2.962,3.9.1.271.517,1.048.924,1.715Zm-.877-12.718c-.399,0-.759-.236-.919-.602-.638-1.457-2.078-2.398-3.668-2.398h-2.269V0c-1.657,0-3,1.343-3,3v.282l-4.319,6.718H0v3h7.319l4.5-7h3.45c.399,0,.76.236.919.601.638,1.457,2.077,2.399,3.668,2.399h1.144v1.5c0,.827-.673,1.5-1.5,1.5h-.581c1.001.695,1.768,1.591,2.266,2.666,1.647-.669,2.814-2.281,2.814-4.166v-4.5h-4.144Z"/>
</svg>
