<svg id="Layer_1" viewBox="0 0 24 24" xmlns="http://www.w3.org/2000/svg" data-name="Layer 1"><path d="m20.978 15.879 2.633 1.013c-.129 1.048-.338 1.723-.655 2.579.022.001-3.133-.617-4.81-.497l-4.647 4.647v.379h-3v-.379l-4.647-4.647c-1.663-.122-4.851.5-4.81.497-.317-.856-.526-1.532-.655-2.579l2.633-1.013s-1.402-1.052-3.02-1.44c-.006-1.022.152-2.758.239-3.199.441-.087 2.177-.245 3.199-.239.388 1.618 1.44 3.022 1.44 3.022l1.013-2.633c1.048.129 1.723.338 2.579.655.001-.022-.617 3.133-.497 4.81l2.526 2.526v-8.36c-1.131-1.426-4.52-3.751-4.5-3.718.435-.948.812-1.662 1.555-2.613l2.945 1.309s-.284-1.983-1.278-3.604c.822-.83 2.352-2.104 2.779-2.39.427.286 1.957 1.561 2.778 2.391-.993 1.621-1.278 3.604-1.278 3.604l2.945-1.309c.742.95 1.119 1.665 1.555 2.613.006-.023-3.359 2.284-4.5 3.718v8.358l2.526-2.526c.122-1.663-.5-4.851-.497-4.81.856-.317 1.532-.526 2.579-.655l1.013 2.633s1.052-1.404 1.44-3.022c1.022-.006 2.758.152 3.199.239.087.441.245 2.177.239 3.199-1.618.388-3.022 1.44-3.022 1.44z"/></svg>