<?xml version="1.0" encoding="UTF-8"?>
<svg xmlns="http://www.w3.org/2000/svg" id="Layer_1" data-name="Layer 1" viewBox="0 0 24 24" width="512" height="512"><path d="m19.158,15.203l3.556,8.797h-3.236l-3.334-8.249c1.043-.128,2.056-.308,3.014-.548ZM1.286,24h3.236l3.334-8.249c-1.043-.128-2.056-.308-3.014-.548l-3.556,8.797Zm22.714-15c0,3.454-6.027,5-12,5S0,12.454,0,9c0-2.073,2.182-3.634,6.177-4.448C6.827,1.941,9.191,0,12,0s5.173,1.941,5.823,4.552c3.995.814,6.177,2.376,6.177,4.448Zm-14.976-3.385c.519.177,1.451.385,2.976.385s2.457-.208,2.976-.385c-.189-1.473-1.452-2.615-2.976-2.615s-2.786,1.143-2.976,2.615Zm11.931,3.386c-.277-.332-1.332-.967-3.399-1.436-.345.343-1.748,1.435-5.556,1.435s-5.211-1.092-5.556-1.435c-2.067.469-3.122,1.104-3.399,1.436.521.645,3.574,1.999,8.955,1.999s8.434-1.354,8.955-1.999Z"/></svg>
