<?xml version="1.0" encoding="UTF-8"?>
<svg xmlns="http://www.w3.org/2000/svg" id="Layer_1" data-name="Layer 1" viewBox="0 0 24 24">
  <path d="M18,12c-3.314,0-6,2.686-6,6s2.686,6,6,6,6-2.686,6-6-2.686-6-6-6Zm.752,8.44l-.004,.004c-.744,.744-2.058,.746-2.823-.019l-2.182-2.268,1.387-1.441,2.216,2.301,3.614-3.703,1.398,1.43-3.607,3.696Zm-8.293-5.09c-.292,.831-.459,1.72-.459,2.65v6h-3v-5.519c-3.352-.257-6-3.065-6-6.481v-4H0v-3H4V0h3V5h3V0h3V5h4v3h-1v2.262c-1.112,.287-2.131,.801-3,1.498v-3.76H4v4c0,1.93,1.57,3.5,3.5,3.5h2c.335,0,.652-.062,.959-.15Z"/>
</svg>
