<svg id="Layer_1" viewBox="0 0 24 24" xmlns="http://www.w3.org/2000/svg" data-name="Layer 1"><path d="m6 16h3v8h-3zm5 8h3v-11h-3zm-10 0h3v-5h-3zm17-19.5c-.828 0-1.5.672-1.5 1.5s.672 1.5 1.5 1.5 1.5-.672 1.5-1.5-.672-1.5-1.5-1.5zm-1.5 8.5h3v-4h-3zm4.5-1.812c1.79-1.039 3-2.973 3-5.188 0-3.309-2.691-6-6-6s-6 2.691-6 6c0 2.215 1.21 4.149 3 5.188v-5.188c0-1.654 1.346-3 3-3s3 1.346 3 3zm-5 12.812h3v-9h-3zm5-10.587v10.587h3v-12.721c-.815.926-1.838 1.663-3 2.134zm-13-3.913c0-1.528-.917-2.882-2.336-3.45l-2.214-.886c-.273-.109-.45-.37-.45-.665 0-.276.225-.5.5-.5h1c.275 0 .5.224.5.5v.5h3v-.5c0-1.58-1.059-2.903-2.5-3.337v-1.162h-3v1.163c-1.441.434-2.5 1.757-2.5 3.337 0 1.528.917 2.882 2.336 3.45l2.214.886c.273.109.45.37.45.665 0 .276-.225.5-.5.5h-1c-.275 0-.5-.224-.5-.5v-.5h-3v.5c0 1.58 1.059 2.903 2.5 3.337v1.163h3v-1.163c1.441-.434 2.5-1.757 2.5-3.337z"/></svg>