<svg id="Layer_1" viewBox="0 0 24 24" xmlns="http://www.w3.org/2000/svg" data-name="Layer 1"><path d="m24 6v1.5c0 1.724-.368 3.192-.923 4.446-.796-.827-1.626-1.546-2.385-2.206.068-.239.129-.484.176-.74h-17.735c.682 3.731 3.781 5.54 4.7 6h2.904c-.43.855-.737 1.847-.737 3h-1.363l-1.057 2.115c.265.397.42.873.42 1.385 0 1.381-1.119 2.5-2.5 2.5s-2.5-1.119-2.5-2.5c0-1.104.721-2.03 1.713-2.361l.958-1.916c-1.998-1.219-5.671-4.206-5.671-9.723v-1.5zm0 12c0 3.314-2.686 6-6 6s-6-2.686-6-6c0-1.725 1-3.06 1.995-4.087 0 0 .681 2.087 1.287 2.087 1.263 0 .897-3.898 2.718-6 1.895 1.895 6 4.526 6 8zm-4.586.585-1.415-1.415-1.415 1.415c-.781.781-.781 2.048 0 2.829s2.048.781 2.829 0 .781-2.048 0-2.829zm-5.914-18.585h-3v4h3zm5.5 0h-3v4h3zm-11 0h-3v4h3z"/></svg>