<?xml version="1.0" encoding="UTF-8"?>
<svg xmlns="http://www.w3.org/2000/svg" id="Layer_1" data-name="Layer 1" viewBox="0 0 24 24">
  <path d="m5,2c0,1.105-.895,2-2,2s-2-.895-2-2S1.895,0,3,0s2,.895,2,2Zm16,2c1.105,0,2-.895,2-2s-.895-2-2-2-2,.895-2,2,.895,2,2,2Zm-16.931,1H1.5c-.828,0-1.5.672-1.5,1.5v1.5h4.262c-.165-.64-.262-1.308-.262-2,0-.339.028-.672.069-1Zm18.431,0h-2.569c.041.328.069.661.069,1,0,.692-.097,1.36-.262,2h4.262v-1.5c0-.828-.672-1.5-1.5-1.5Zm-8.987,6.5c0-.747-.536-1.44-1.273-1.56-.94-.153-1.739.568-1.739,1.479l.013,7.388-1.152-.835c-.866-.722-2.153-.604-2.874.261-.722.866-.605,2.153.261,2.874l3.766,2.891h3v-5.198l6,1.714v3.484h3v-5.747l-9-2.572v-4.182Zm-7.502-5.146c-.094-1.6.44-3.141,1.504-4.339C8.579.817,10.047.105,11.646.01c1.6-.094,3.141.44,4.339,1.504,1.198,1.064,1.91,2.532,2.004,4.132.094,1.6-.44,3.141-1.504,4.339-.309.348-.656.65-1.026.912-.074-.44-.238-.85-.459-1.223v-1.175c0-.828-.672-1.5-1.5-1.5h-3c-.828,0-1.5.672-1.5,1.5v1.158c-.224.383-.381.802-.446,1.25-.186-.131-.367-.27-.54-.423-1.198-1.064-1.91-2.532-2.004-4.132Zm3.99-2.354c0,1.105.895,2,2,2s2-.895,2-2c0-1.009-.749-1.834-1.72-1.972-.131-.009-.262-.021-.396-.017-1.05.061-1.884.923-1.884,1.988Z"/>
</svg>
