<?xml version="1.0" encoding="UTF-8"?>
<svg xmlns="http://www.w3.org/2000/svg" id="Layer_1" data-name="Layer 1" viewBox="0 0 24 24">
  <path d="M20.9,24h-7.896l-4.004-4.004v-4.367l4.629-4.629,7.422,.005,2.889,7.54-3.04,5.455Zm-6.654-3h4.892l1.5-2.691-1.65-4.306-4.116-.003-2.871,2.871v1.883l2.246,2.246Zm-6.935-7.791L0,10.551V3.504L5.44,.104l6.56,3.496v5.59l-4.689,4.02ZM3,8.449l3.689,1.342,2.311-1.98v-2.41l-3.44-1.834-2.56,1.6v3.283Zm17.617,.551h-3.362l-3.656-4.823L16.942,0h5.052l1.884,5.772-3.261,3.228Zm-1.872-3h.638l1.068-1.058-.634-1.942h-1.434l-.982,1.228,1.344,1.772ZM4,15L0,16.769v2.897l3.5,2.333,2.917-3.5-2.417-3.5Z"/>
</svg>
