<?xml version="1.0" encoding="UTF-8"?>
<svg xmlns="http://www.w3.org/2000/svg" id="Layer_1" data-name="Layer 1" viewBox="0 0 24 24">
  <circle cx="12.5" cy="2.5" r="2.5"/>
  <circle cx="4.5" cy="2.5" r="2.5"/>
  <circle cx="20.5" cy="2.5" r="2.5"/>
  <path d="m19.5,6c-1.93,0-3.5,1.57-3.5,3.5v8.5h2v6h3v-6h2v-8.5c0-1.93-1.57-3.5-3.5-3.5Zm.5,9h-1v-5.5c0-.276.224-.5.5-.5s.5.224.5.5v5.5Z"/>
  <path d="m11.5,6c-1.93,0-3.5,1.57-3.5,3.5v8.5h2v6h3v-6h2v-8.5c0-1.93-1.57-3.5-3.5-3.5Zm.5,9h-1v-5.5c0-.276.224-.5.5-.5s.5.224.5.5v5.5Z"/>
  <path d="m3.5,6c-1.93,0-3.5,1.57-3.5,3.5v8.5h2v6h3v-6h2v-8.5c0-1.93-1.57-3.5-3.5-3.5Zm.5,9h-1v-5.5c0-.276.224-.5.5-.5s.5.224.5.5v5.5Z"/>
</svg>
