<?xml version="1.0" encoding="UTF-8"?>
<svg xmlns="http://www.w3.org/2000/svg" id="Layer_1" data-name="Layer 1" viewBox="0 0 24 24" width="512" height="512"><path d="M17.619,14.555l3.794-3.794c.586-.586,1.535-.586,2.121,0,.586,.585,.586,1.536,0,2.121l-3.794,3.794-2.121-2.121Zm-3.154-3.154l2.121,2.122,3.974-3.975c.586-.585,.586-1.536,0-2.121-.586-.586-1.535-.586-2.121,0l-3.974,3.974Zm9.112,5.606c-.584-.587-1.534-.591-2.122-.008l-2.684,2.663c-1.785,1.785-4.69,1.785-6.476,0l-1.803-1.803c-1.255-1.255-1.255-3.297,0-4.552l4.759-4.759c.586-.585,.586-1.536,0-2.121-.586-.586-1.535-.586-2.121,0l-3.132,3.132v-.464c0-.996-.681-1.92-1.664-2.08-1.253-.204-2.336,.758-2.336,1.973v5.745c0,1.623,.593,3.184,1.659,4.395,.208,.3,.446,.586,.714,.854l1.803,1.803c1.478,1.478,3.419,2.217,5.36,2.217s3.878-.738,5.354-2.212l2.68-2.659c.588-.583,.592-1.533,.008-2.122Zm-17.026,3.988l-.436-.48c-1.726-2.037-2.116-4.224-2.116-5.783v-5.637c0-.996-.681-1.92-1.664-2.08-1.253-.204-2.336,.758-2.336,1.973,0,0,.004,5.801,.004,5.83l.002,.044c.034,1.717,.725,3.358,1.942,4.574l2.232,2.348c1.477,1.478,3.418,2.217,5.359,2.217,.046,0,.092-.006,.139-.007-.312-.242-.615-.499-.899-.781-.006-.005-2.108-2.093-2.227-2.217Zm2.105-15.955h0c.642,.105,1.224,.383,1.722,.768,.384-.504,.62-1.126,.62-1.808,0-.093-.005-.185-.013-.277,.297,.175,.644,.277,1.013,.277,1.103,0,2-.897,2-2s-.897-2-2-2c-1.027,0-1.875,.778-1.987,1.776-.532-.482-1.238-.776-2.013-.776-1.657,0-3,1.343-3,3,0,.679,.234,1.298,.614,1.801,.868-.65,1.957-.937,3.042-.76Zm8.843-1.041c.828,0,1.5-.672,1.5-1.5s-.672-1.5-1.5-1.5-1.5,.672-1.5,1.5,.672,1.5,1.5,1.5Z"/></svg>
