<?xml version="1.0" encoding="UTF-8"?>
<svg xmlns="http://www.w3.org/2000/svg" id="Layer_1" data-name="Layer 1" viewBox="0 0 24 24">
  <path d="m20.141,18.021c1.234-1.825,1.859-3.857,1.859-6.057v-6.162c0-1.46-.933-2.751-2.321-3.212L12,.045l-7.386,2.448L2.161.039.04,2.16l21.8,21.801,2.121-2.121-3.819-3.819ZM12,3.205l6.734,2.232c.161.054.266.196.266.364v6.162c0,1.387-.348,2.687-1.035,3.88L6.988,4.867l5.012-1.661Zm2.445,16.189l2.154,2.154c-1.492,1.054-2.908,1.7-3.644,1.996l-1.021.412-.985-.494c-2.099-1.05-8.95-4.983-8.95-11.499v-5.015l3,3v2.015c0,4.603,5.142,7.703,7.068,8.702.569-.242,1.441-.659,2.377-1.272Z"/>
</svg>
