<?xml version="1.0" encoding="UTF-8"?>
<svg xmlns="http://www.w3.org/2000/svg" id="Layer_1" data-name="Layer 1" viewBox="0 0 24 24">
  <path d="m16,14.001c0,.999-1.6,2.999-3.995,2.999s-4.005-2-4.005-2.999c0-.002,8,0,8,0Zm8-3.001c0,6.439-6.056,13-12,13S0,17.439,0,11C0,4.626,5.047,0,12,0s12,4.626,12,11Zm-3.347,2.327l-2.653-1.327,2.976-1.488c-.161-2.876-1.731-5.169-4.206-6.433l-2.77,2.421v-3.33c-.637-.109-1.303-.17-2-.17s-1.363.06-2,.17v3.33l-2.77-2.421c-2.475,1.264-4.045,3.557-4.206,6.433l2.976,1.488-2.653,1.327c.623,2.19,2.044,4.18,3.741,5.586l1.913-1.913v3.191c1.008.515,2.038.809,3,.809s1.992-.294,3-.809v-3.191l1.913,1.913c1.697-1.406,3.118-3.396,3.741-5.586Zm-9.653-3.327c0-1.105-1.119-2-2.5-2s-2.5.895-2.5,2,1.119,2,2.5,2,2.5-.895,2.5-2Zm4.5-2c-1.381,0-2.5.895-2.5,2s1.119,2,2.5,2,2.5-.895,2.5-2-1.119-2-2.5-2Z"/>
</svg>
