<?xml version="1.0" encoding="UTF-8"?>
<svg xmlns="http://www.w3.org/2000/svg" id="Layer_1" data-name="Layer 1" viewBox="0 0 24 24">
  <path d="m12.721,24H4.5c-1.93,0-3.5-1.57-3.5-3.5v-9.206c-.616-.77-1-1.733-1-2.794L2.369,0h19.263l2.369,8.5c0,1.195-.476,2.276-1.238,3.082-.949-.705-2.055-1.208-3.262-1.437.768,0,1.403-.725,1.49-1.471l-1.621-5.675h-2.369v2h-3v-2h-4v2h-3v-2h-2.369l-1.621,5.675c.086.745.722,1.325,1.49,1.325h1c.827,0,1.5-.673,1.5-1.5v-.5h3v.5c0,.827.673,1.5,1.5,1.5h1c.827,0,1.5-.673,1.5-1.5v-.5h3v2.066c-2.114.265-3.97,1.352-5.24,2.934h-.26c-1.157,0-2.202-.451-3-1.17-.798.72-1.843,1.17-3,1.17h-1c-.171,0-.334-.032-.5-.051v7.551c0,.275.224.5.5.5h6.087c.471,1.162,1.208,2.185,2.134,3Zm11.279-6c0,3.314-2.686,6-6,6s-6-2.686-6-6,2.686-6,6-6,6,2.686,6,6Zm-1.641-1.256l-1.398-1.43-3.614,3.703-2.216-2.301-1.387,1.441,2.182,2.268c.766.765,2.079.763,2.823.019l.004-.004,3.607-3.696Z"/>
</svg>
