<svg id="Layer_1" viewBox="0 0 24 24" xmlns="http://www.w3.org/2000/svg" data-name="Layer 1"><path d="m12.607 11.034 1.978-1.134c.415.356.89.636 1.415.824v2.276h3v-2.276c.525-.187 1-.467 1.415-.824l1.978 1.134 1.492-2.603-1.967-1.127c.048-.262.081-.529.081-.804s-.034-.542-.081-.804l1.967-1.127-1.492-2.603-1.978 1.134c-.415-.356-.89-.636-1.415-.824v-2.276h-3v2.276c-.525.187-1 .467-1.414.823l-1.979-1.134-1.492 2.603 1.967 1.127c-.048.262-.081.529-.081.804s.034.542.081.804l-1.967 1.127 1.492 2.603zm4.893-6.034c.827 0 1.5.673 1.5 1.5s-.673 1.5-1.5 1.5-1.5-.673-1.5-1.5.673-1.5 1.5-1.5zm6.5 6.972v7.028h-10.5v2h4.5v3h-12v-3h4.5v-2h-10.5v-14c0-1.654 1.346-3 3-3h7.298c-.565.901-.964 1.914-1.158 3h-6.14v11h18v-1.76c1.163-.527 2.187-1.304 3-2.268z"/></svg>