<svg id="Layer_1" viewBox="0 0 24 24" xmlns="http://www.w3.org/2000/svg" data-name="Layer 1"><path d="m8.5 9c2.481 0 4.5-2.019 4.5-4.5s-2.019-4.5-4.5-4.5-4.5 2.019-4.5 4.5 2.019 4.5 4.5 4.5zm0-6c.827 0 1.5.673 1.5 1.5s-.673 1.5-1.5 1.5-1.5-.673-1.5-1.5.673-1.5 1.5-1.5zm13.5-3-5 .002c-1.1 0-2 .901-1.999 2.001l.002 6.772c0 .638.524 1.088 1.089 1.088.196 0 .397-.054.583-.173l2.454-1.69h4.872v-6c0-1.105-.896-2-2-2zm-1 5h-3v-2h3zm-6 10.5c0-3.033-2.467-5.5-5.5-5.5h-2c-3.033 0-5.5 2.467-5.5 5.5v1.5h-2v3h1v4h3v-4h9v4h3v-4h1v-3h-2zm-3 1.5h-7v-1.5c0-1.378 1.122-2.5 2.5-2.5h2c1.378 0 2.5 1.122 2.5 2.5z"/></svg>