<?xml version="1.0" encoding="UTF-8"?>
<svg xmlns="http://www.w3.org/2000/svg" id="Layer_1" data-name="Layer 1" viewBox="0 0 24 24">
  <path d="m20.005,16c1.175,0,2.286-.514,3.048-1.409s1.089-2.081.898-3.252c-.31-1.903-2.064-3.339-4.08-3.339h-1.996l-3.465-6.223c-.598-1.097-1.745-1.777-2.993-1.777h-4.965l1.975,6.307L2.161.039.04,2.16l21.8,21.801,2.121-2.121-5.84-5.84h1.885ZM10.536,3h.882c.149,0,.287.082.365.225l4.33,7.775h3.758c.553,0,1.044.36,1.119.821.067.412-.111.694-.223.825-.191.225-.469.354-.763.354h-3.893l-.355.637-2.753-2.753-2.469-7.884Zm2.693,15.178l2.206,2.206-1.03,1.85c-.591,1.084-1.737,1.766-2.986,1.766h-4.964l2.505-8h-4.024l-.613.925c-.445.671-1.196,1.075-2.001,1.075H.01l2.197-6L-.005,6h1.056l4.944,4.944v2.056h2.056l3.8,3.8-1.315,4.2h.882c.149,0,.287-.081.358-.213l1.453-2.609Z"/>
</svg>
