<?xml version="1.0" encoding="UTF-8"?>
<svg xmlns="http://www.w3.org/2000/svg" id="Layer_1" data-name="Layer 1" viewBox="0 0 24 24">
  <path d="m20,9.914l-3,3v3.086h-7v4c0,.552-.448,1-1,1s-1-.448-1-1V4c0-.347-.058-.678-.142-1h7.228l2.609-2.609c-.517-.244-1.087-.391-1.695-.391H4C1.794,0,0,1.794,0,4v4h5v12c0,2.206,1.794,4,4,4h11c2.206,0,4-1.794,4-4v-4h-4v-6.086ZM5,5h-2v-1c0-.552.448-1,1-1s1,.448,1,1v1Zm16,15c0,.552-.448,1-1,1h-7.127c.083-.319.127-.655.127-1v-1h8v1ZM13,7.914L20.275.639c.852-.852,2.234-.852,3.086,0s.852,2.234,0,3.086l-7.275,7.275h-3.086v-3.086Z"/>
</svg>
