<?xml version="1.0" encoding="UTF-8"?>
<svg xmlns="http://www.w3.org/2000/svg" id="Layer_1" data-name="Layer 1" viewBox="0 0 24 24" width="512" height="512"><path d="m17.988,2.287C16.079.581,13.519-.228,10.951.059,6.899.517,3.585,3.783,3.068,7.825c-.359,2.83.859,6.01,3.106,8.102,1.173,1.092,1.819,2.466,1.819,3.87v4.204h8v-4.048c0-1.422.83-3.223,1.933-4.188,1.949-1.709,3.067-4.175,3.067-6.764,0-2.56-1.096-5.007-3.006-6.713Zm-2.039,11.221c-1.278,1.12-2.253,2.784-2.695,4.492h-2.474c-.38-1.58-1.257-3.055-2.561-4.269-1.239-1.153-2.448-3.375-2.174-5.526.343-2.688,2.548-4.86,5.243-5.165,1.743-.199,3.41.33,4.701,1.484,1.274,1.138,2.005,2.77,2.005,4.476,0,1.725-.745,3.368-2.045,4.508Zm-5.449-8.508h3v5h-3v-5Zm0,7h3v3h-3v-3Z"/></svg>
