<?xml version="1.0" encoding="UTF-8"?>
<svg xmlns="http://www.w3.org/2000/svg" id="Layer_1" data-name="Layer 1" viewBox="0 0 24 24">
  <path d="M13,6.5c0-1.381,1.119-2.5,2.5-2.5,.012,0,.024,.003,.036,.004l-.602-1.004h-.934V1h2.066l1.359,2.265,1.052-.574-.477-.955V0h4V2h-1.632l1.006,2.013c.042-.002,.083-.013,.125-.013,1.381,0,2.5,1.119,2.5,2.5s-1.119,2.5-2.5,2.5-2.5-1.119-2.5-2.5c0-.608,.226-1.158,.586-1.591l-.214-.428-1.648,.899c.171,.338,.276,.715,.276,1.119,0,1.381-1.119,2.5-2.5,2.5s-2.5-1.119-2.5-2.5Zm5.5,6.5H5c-1.103,0-2-.897-2-2s.897-2,2-2h6.762c-.48-.716-.762-1.575-.762-2.5,0-.171,.032-.334,.051-.5H5C2.243,6,0,8.243,0,11s2.243,5,5,5h13.5c1.378,0,2.5,1.121,2.5,2.5s-1.122,2.5-2.5,2.5h-6.5v3h6.5c3.033,0,5.5-2.468,5.5-5.5s-2.467-5.5-5.5-5.5ZM6,24h4v-3H6v3Zm-6,0H4v-3H0v3Z"/>
</svg>
