<?xml version="1.0" encoding="UTF-8"?>
<svg xmlns="http://www.w3.org/2000/svg" id="Layer_1" data-name="Layer 1" viewBox="0 0 24 24">
  <path d="m16.656,9.581c-.517-.963-1.517-1.562-2.61-1.562h-3.159L12.91.02h-4.193L.479,11.42c-.6.904-.652,2.062-.136,3.022.522.973,1.53,1.577,2.631,1.577h3.132l-2.023,8h4.193l8.237-11.4c.604-.91.659-2.074.143-3.038Zm-8.077,8.898l1.381-5.46H3.023l5.391-7.46-1.381,5.46h6.937l-5.391,7.46Zm12.508,5.54h2.923l-2.822-9.745c-.371-.75-1.155-1.242-2.042-1.255-.843.013-1.626.505-1.998,1.255l-2.816,9.745h2.849l.29-1h3.333l.28,1Zm-3.369-3l1.457-5.02,1.407,5.02h-2.863Z"/>
</svg>
