<?xml version="1.0" encoding="UTF-8"?>
<svg xmlns="http://www.w3.org/2000/svg" id="Layer_1" data-name="Layer 1" viewBox="0 0 24 24">
  <path d="m3,13H0v-2.5c0-1.93,1.57-3.5,3.5-3.5h4c1.93,0,3.5,1.57,3.5,3.5v2.5h-3v-2.5c0-.275-.224-.5-.5-.5H3.5c-.276,0-.5.225-.5.5v2.5Zm2.5-7c1.657,0,3-1.343,3-3S7.157,0,5.5,0s-3,1.343-3,3,1.343,3,3,3Zm15,12h-6c-1.93,0-3.5,1.57-3.5,3.5v2.5h3v-2.5c0-.275.225-.5.5-.5h6c.275,0,.5.225.5.5v2.5h3v-2.5c0-1.93-1.57-3.5-3.5-3.5Zm-7.5-5.5c0-2.481,2.019-4.5,4.5-4.5s4.5,2.019,4.5,4.5-2.019,4.5-4.5,4.5-4.5-2.019-4.5-4.5Zm3,0c0,.827.673,1.5,1.5,1.5s1.5-.673,1.5-1.5-.673-1.5-1.5-1.5-1.5.673-1.5,1.5Zm-11,2.5v3h-1.5c-.276,0-.5-.225-.5-.5v-2.5H0v2.5c0,1.93,1.57,3.5,3.5,3.5h1.5v3l3.707-3.793c.39-.39.39-1.024,0-1.414l-3.707-3.793Z"/>
</svg>
