<?xml version="1.0" encoding="UTF-8"?>
<svg xmlns="http://www.w3.org/2000/svg" id="Layer_1" data-name="Layer 1" viewBox="0 0 24 24">
  <path d="M21,21V11c0-4.497-3.319-8.224-7.635-8.885,.085-.188,.135-.395,.135-.615C13.5,.672,12.829,0,12,0s-1.5,.672-1.5,1.5c0,.22,.05,.427,.135,.615C6.32,2.776,3,6.503,3,11v10H1v3H23v-3h-2ZM12.976,10h-1.952c.11-2.325,.586-3.943,.976-4.677,.391,.733,.866,2.352,.976,4.677Zm.024,3v8h-2V13h2Zm3,0h2v8h-2V13Zm1.91-3h-1.933c-.054-1.333-.22-2.688-.523-3.898,1.278,.904,2.185,2.293,2.456,3.898Zm-9.346-3.911c-.306,1.186-.483,2.533-.54,3.911h-1.933c.272-1.613,1.186-3.008,2.473-3.911Zm-2.564,6.911h2v8h-2V13Z"/>
</svg>
