<?xml version="1.0" encoding="UTF-8"?>
<svg xmlns="http://www.w3.org/2000/svg" id="Layer_1" data-name="Layer 1" viewBox="0 0 24 24">
  <path d="m15.5,7c-.828,0-1.5-.672-1.5-1.5V1.5c0-.828.672-1.5,1.5-1.5s1.5.672,1.5,1.5v4c0,.828-.672,1.5-1.5,1.5ZM11.5,0c-.828,0-1.5.672-1.5,1.5v4c0,.828.672,1.5,1.5,1.5s1.5-.672,1.5-1.5V1.5c0-.828-.672-1.5-1.5-1.5Zm8,1c-.828,0-1.5.672-1.5,1.5v4c0,.828.672,1.5,1.5,1.5s1.5-.672,1.5-1.5V2.5c0-.828-.672-1.5-1.5-1.5Zm-11.098,9.5c.797-.797.797-2.089,0-2.886-.797-.797-2.089-.797-2.886,0l-2.512,1.883c-.646.658-1.004,1.525-1.004,2.449,0,.935.364,1.814,1.06,2.508l3.94,4.547v5h3v-6.263l-4.412-5.025,2.814-2.212Zm.598-4.914v-3.086c0-.828-.672-1.5-1.5-1.5s-1.5.672-1.5,1.5v2.647c1.008-.245,2.084-.099,3,.44Zm9,4.063v4.097c0,.792-.272,1.568-.767,2.187l-1.233,1.541v6.526h3v-5.474l.575-.72c.919-1.146,1.425-2.589,1.425-4.061v-4.097c-.456.219-.961.351-1.5.351s-1.044-.133-1.5-.351Z"/>
</svg>
