<?xml version="1.0" encoding="UTF-8"?>
<svg xmlns="http://www.w3.org/2000/svg" id="Layer_1" data-name="Layer 1" viewBox="0 0 24 24">
  <path d="m6.406,17c-.707.873-.987,1.953-.862,3H0V5.5c0-1.93,1.57-3.5,3.5-3.5h1.5V0h3v2h5V0h3v2h1.5c1.93,0,3.5,1.57,3.5,3.5v9.816l-3-.857v-6.459H3v9h3.406Zm8.594-1.318v-4.182c0-.747-.536-1.44-1.273-1.56-.94-.153-1.739.568-1.739,1.479l.013,7.388-1.152-.835c-.866-.722-2.153-.604-2.874.261-.722.866-.605,2.153.261,2.874l3.766,2.891h3v-5.198l6,1.714v3.484h3v-5.747l-9-2.572Z"/>
</svg>
