<svg id="Layer_1" viewBox="0 0 24 24" xmlns="http://www.w3.org/2000/svg" data-name="Layer 1"><path d="m11 11.5v-3c0-.828.672-1.5 1.5-1.5s1.5.672 1.5 1.5v3c0 .828-.672 1.5-1.5 1.5s-1.5-.672-1.5-1.5zm5.5 1.5c.828 0 1.5-.672 1.5-1.5v-3c0-.828-.672-1.5-1.5-1.5s-1.5.672-1.5 1.5v3c0 .828.672 1.5 1.5 1.5zm-7.5-4.447v-7.053c0-.828-.672-1.5-1.5-1.5s-1.5.672-1.5 1.5v6.617c1.01-.247 2.085-.101 3 .436zm9.5 5.812c-.568.398-1.256.635-2 .635s-1.432-.238-2-.635c-.568.398-1.256.635-2 .635-.818 0-1.562-.294-2.159-.767-.15.229-.324.447-.525.647l-3.77 3.902-1.459-1.368 3.814-3.948c.797-.797.797-2.089 0-2.886s-2.089-.797-2.886 0l-3.516 3.609.004.009c-.646.658-1.004 1.525-1.004 2.448 0 .936.364 1.814 1.06 2.508l5.117 4.846h2.806v-1h-1v-1.6h1v-1.801h-1.018v-1.6h1.018v-1h1.6v1h1.801v-1.018h1.6v1.018h1v1.6h-1v1.801h1.018v1.6h-1.018v.982h-1.6v-.982h-1.801v1h6.818v-4.314l-.35.38-1.149-1.113 1.874-1.952h1.226v7h2v-9.351c-.456.219-.961.351-1.5.351-.744 0-1.432-.238-2-.635zm2-7.365c-.828 0-1.5.672-1.5 1.5v3c0 .828.672 1.5 1.5 1.5s1.5-.672 1.5-1.5v-3c0-.828-.672-1.5-1.5-1.5zm-7.117 12.6h-1.801v1.801h1.801z"/></svg>