<?xml version="1.0" encoding="UTF-8"?>
<svg xmlns="http://www.w3.org/2000/svg" id="Layer_1" data-name="Layer 1" viewBox="0 0 24 24">
  <path d="m15,8h-6v-1.5c0-.828.672-1.5,1.5-1.5h3c.828,0,1.5.672,1.5,1.5v1.5Zm9,11v5H0v-7c0-1.654,1.346-3,3-3h4v-1c0-1.654,1.346-3,3-3h4c1.654,0,3,1.346,3,3v3h4c1.654,0,3,1.346,3,3Zm-14,2h4v-8h-4v8Zm-7,0h4v-4H3v4Zm18-2h-4v2h4v-2ZM12,4c1.105,0,2-.895,2-2s-.895-2-2-2-2,.895-2,2,.895,2,2,2Zm10.5,7h-3c-.828,0-1.5.672-1.5,1.5v1.5h6v-1.5c0-.828-.672-1.5-1.5-1.5Zm-1.5-1c1.105,0,2-.895,2-2s-.895-2-2-2-2,.895-2,2,.895,2,2,2Zm-15,.5c0-.828-.672-1.5-1.5-1.5H1.5c-.828,0-1.5.672-1.5,1.5v1.5h6v-1.5Zm-3-2.5c1.105,0,2-.895,2-2s-.895-2-2-2-2,.895-2,2,.895,2,2,2Z"/>
</svg>
