<?xml version="1.0" encoding="UTF-8"?>
<svg xmlns="http://www.w3.org/2000/svg" id="Layer_1" data-name="Layer 1" viewBox="0 0 24 24" width="512" height="512"><path d="m13.5,12c0,.828-.672,1.5-1.5,1.5s-1.5-.672-1.5-1.5.672-1.5,1.5-1.5,1.5.672,1.5,1.5Zm10.501,7.855l-2.626-2.977c-.675-.765-1.48-1.399-2.375-1.875,0,.725-.09,1.451-.268,2.173-.992,4.016-4.676,6.822-8.959,6.823h-5.628s2.977-2.625,2.977-2.625c.765-.675,1.399-1.48,1.875-2.375-.725,0-1.451-.09-2.173-.268C2.807,17.741,0,14.057,0,9.773v-5.628s2.625,2.977,2.625,2.977c.675.765,1.48,1.399,2.375,1.875,0-.725.09-1.451.268-2.173C6.259,2.807,9.943,0,14.227,0h5.628s-2.977,2.625-2.977,2.625c-.765.675-1.399,1.48-1.875,2.375.725,0,1.451.09,2.173.268,4.016.992,6.822,4.676,6.823,8.959v5.628Zm-3.221-7.294c-.575-2.131-2.218-3.861-4.322-4.381-.877-.217-1.761-.236-2.629-.062-.696.141-1.393-.09-1.867-.616-.475-.527-.637-1.276-.423-1.956.255-.814.599-1.593,1.023-2.324-2.131.575-3.861,2.218-4.381,4.322-.216.876-.237,1.761-.062,2.629.141.694-.089,1.392-.616,1.867-.526.475-1.275.636-1.956.423-.814-.255-1.593-.599-2.324-1.023.575,2.131,2.218,3.861,4.322,4.381.877.217,1.761.236,2.629.062.134-.027.269-.041.401-.041.555,0,1.083.232,1.465.657.475.527.637,1.276.423,1.956-.255.814-.599,1.593-1.023,2.324,2.131-.575,3.861-2.218,4.381-4.322.216-.876.237-1.761.062-2.629-.141-.694.089-1.392.616-1.867s1.275-.636,1.956-.423c.814.255,1.593.599,2.324,1.023Z"/></svg>
