<?xml version="1.0" encoding="UTF-8"?>
<svg xmlns="http://www.w3.org/2000/svg" id="Layer_1" data-name="Layer 1" viewBox="0 0 24 24">
  <path d="m6.5,22v2H0v-2c0-1.105.895-2,2-2h2.5c1.105,0,2,.895,2,2Zm15.5-2h-2.5c-1.105,0-2,.895-2,2v2h6.5v-2c0-1.105-.895-2-2-2Zm-8.5,0h-3c-1.105,0-2,.895-2,2v2h7v-2c0-1.105-.895-2-2-2Zm7.269-1c1.381,0,2.5-1.119,2.5-2.5s-1.119-2.5-2.5-2.5-2.5,1.119-2.5,2.5,1.119,2.5,2.5,2.5Zm-6.269-2.5c0-1.381-1.119-2.5-2.5-2.5s-2.5,1.119-2.5,2.5,1.119,2.5,2.5,2.5,2.5-1.119,2.5-2.5Zm-13.769,0c0,1.381,1.119,2.5,2.5,2.5s2.5-1.119,2.5-2.5-1.119-2.5-2.5-2.5-2.5,1.119-2.5,2.5ZM17.946,7.701l-1.5,2.598-1.542-.89c-.412.352-.883.629-1.404.815v1.776h-3v-1.776c-.521-.186-.992-.463-1.404-.815l-1.542.89-1.5-2.598,1.529-.883c-.049-.266-.083-.538-.083-.818s.034-.552.083-.818l-1.529-.883,1.5-2.598,1.542.89c.413-.352.884-.63,1.404-.815V0h3v1.776c.521.186.992.463,1.404.815l1.542-.89,1.5,2.598-1.529.883c.049.266.083.538.083.818s-.033.552-.083.819l1.529.882Zm-4.446-1.701c0-.827-.673-1.5-1.5-1.5s-1.5.673-1.5,1.5.673,1.5,1.5,1.5,1.5-.673,1.5-1.5ZM3,12.051v-4.051c0-.275.225-.5.5-.5h.645c-.092-.486-.145-.987-.145-1.5s.053-1.014.145-1.5h-.645c-1.93,0-3.5,1.57-3.5,3.5v5.372c.716-.71,1.674-1.161,2.733-1.264.09-.016.175-.047.267-.057Zm17.5-7.551h-.645c.092.486.145.987.145,1.5s-.053,1.014-.145,1.5h.645c.275,0,.5.225.5.5v4.051c.132.015.253.056.381.082,1.031.157,1.942.657,2.619,1.39v-5.522c0-1.93-1.57-3.5-3.5-3.5Z"/>
</svg>
