<?xml version="1.0" encoding="UTF-8"?>
<svg xmlns="http://www.w3.org/2000/svg" id="Layer_1" data-name="Layer 1" viewBox="0 0 24 24">
  <path d="m14.327,14.891c-2.327-1.098-4.042-2.819-5.206-5.229l2.963-2.963L5.442.058,1.798,3.702C.659,4.839.032,6.374.032,8.025.032,15.177,8.823,23.968,15.975,23.968c1.651,0,3.187-.627,4.322-1.765l3.646-3.646-6.641-6.642-2.974,2.975Zm3.847,5.192c-.569.57-1.35.885-2.199.885-4.993,0-12.942-7.066-12.942-12.942,0-.849.314-1.63.886-2.201l1.524-1.524,2.399,2.399-2.268,2.268.369.919c1.59,3.961,4.347,6.713,8.195,8.182l.908.347,2.255-2.256,2.399,2.399-1.526,1.525Zm5.826-16.083v.764l-2.75,1.591,1.105,3.357-.625.436-2.717-2.101-2.729,2.11-.601-.453,1.086-3.396-2.769-1.54v-.769h3.625l.981-3.75h.809l.98,3.75h3.605Z"/>
</svg>
