<?xml version="1.0" encoding="UTF-8"?>
<svg xmlns="http://www.w3.org/2000/svg" id="Layer_1" data-name="Layer 1" viewBox="0 0 24 24">
  <path d="m24,18.664v.336c0,1.104-.895,2-2,2s-2-.896-2-2v-.336l.854-2.42-1.854-.348v6.105h3v2h-8v-2h3v-6.48l-1.752-.328.861,2.406v.575h-.013c-.114,1.027-.984,1.826-2.042,1.826-1.135,0-2.054-.92-2.054-2.054v-.333l1.5-4.782,3.5.649v-1.48h2v1.851l3.5.649,1.5,4.164ZM5,14c-2.757,0-5,2.243-5,5v5h3v-5c0-1.103.897-2,2-2h5.096l.941-3h-6.037Zm7.641-7.787l.644,3.787h3.091l-.774-4.268c-.497-3.271-3.271-5.732-6.477-5.732S3.146,2.46,2.649,5.732l-1.371,7.57c-.007.026-.005.052-.011.078.978-.72,2.128-1.2,3.358-1.381h4.5c.836,0,1.627-.183,2.351-.495l-.525-3.085c-.5.399-1.256.579-1.826.579-1.654,0-3-1.346-3-3,1.145,0,3.621-1.282,4.849-2.418.865.576,1.508,1.528,1.666,2.631Z"/>
</svg>
