<?xml version="1.0" encoding="UTF-8"?>
<svg xmlns="http://www.w3.org/2000/svg" id="Layer_1" data-name="Layer 1" viewBox="0 0 24 24">
  <path d="M12,8c.737,0,1.445,.273,1.993,.771l.499,.451,4.312-.467,2.308-4.002-.672-.804C18.341,1.439,15.265,0,12,0,5.935,0,1,4.935,1,11c0,3.628,1.302,7.614,2.232,10H1v3H11v-2.71c-.02-.068-2-7.042-2-10.29,0-1.654,1.346-3,3-3Zm1.5-4.859c1.468,.279,2.828,.966,3.932,1.988l-.466,.808-1.514,.164c-.591-.42-1.255-.711-1.952-.893V3.141ZM4.792,7.552l1.655,1.182c-.286,.7-.447,1.464-.447,2.265h-2c0-1.236,.29-2.402,.792-3.448Zm1.681,13.448c-.575-1.35-1.654-4.124-2.176-7h1.98c.402,2.625,1.14,5.548,1.529,7h-1.333Zm1.769-14.671l-1.668-1.191c1.078-.998,2.426-1.706,3.926-1.992v2.051c-.837,.216-1.604,.605-2.258,1.132Zm14.669,6.312l.218-2.289-4.347,1.441-3.661-1.384-.205,1.932c-.372,3.51-1.902,8.896-1.917,8.948v2.71h10v-3h-2.235c.79-2.03,1.849-5.221,2.146-8.358Zm-5.387,8.358h-1.332c.361-1.349,1.026-3.972,1.44-6.434l1.084,.409,.84-.278c-.555,2.618-1.507,5.062-2.033,6.303Z"/>
</svg>
