<?xml version="1.0" encoding="UTF-8"?>
<svg xmlns="http://www.w3.org/2000/svg" id="Layer_1" data-name="Layer 1" viewBox="0 0 24 24">
  <path d="M20.5,5.003h-1.5v-1.501C19.039,1.62,17.381-.038,15.5,.001L3.5,.005C1.623-.034-.04,1.631,0,3.507l.005,13.622c-.018,1.226,1.221,2.157,2.391,1.796l3.604-1.503v4.581h11l4.443,1.863c1.189,.5,2.576-.448,2.551-1.739l.005-13.625c0-1.93-1.57-3.5-3.5-3.5ZM3,3.506c.051-.341,.16-.45,.5-.501l12-.004h0c.345,.051,.448,.154,.5,.5V14.005H6.396l-3.392,1.422-.005-11.921ZM20.995,20.425l-3.392-1.422H9v-1.998h10V8.003h1.5c.276,0,.5,.224,.5,.499l-.005,11.923Zm-6.995-8.425h-3.5V5h3.5v1.6h-1.9v1.101h1.9v1.6h-1.9v1.101h1.9v1.6Zm-4.5-2v-3c0-1.105-.895-2-2-2h-2.5v7h2.5c1.105,0,2-.895,2-2Zm-2.9-3.4h.9c.221,0,.4,.179,.4,.4v3c0,.221-.179,.4-.4,.4h-.9v-3.8Z"/>
</svg>
