<?xml version="1.0" encoding="UTF-8"?>
<svg xmlns="http://www.w3.org/2000/svg" id="Layer_1" data-name="Layer 1" viewBox="0 0 24 24">
  <path d="M13,7h-1v-3h1V1H0v3H1v3H0v3H13v-3Zm-4,0h-1v-3h1v3Zm-5-3h1v3h-1v-3ZM24,13.149c0-.592-.095-1.177-.282-1.739l-1.339-4.017c-.478-1.431-1.812-2.393-3.32-2.393h-4.059v7H0v8.5c0,1.381,1.119,2.5,2.5,2.5s2.5-1.119,2.5-2.5c0-.171-.018-.338-.05-.5h1.101c-.033,.162-.05,.329-.05,.5,0,1.381,1.119,2.5,2.5,2.5s2.5-1.119,2.5-2.5c0-.171-.018-.338-.05-.5h6.101c-.033,.162-.05,.329-.05,.5,0,1.381,1.119,2.5,2.5,2.5s2.5-1.119,2.5-2.5c0-.171-.018-.338-.05-.5h2.05v-6.851Zm-9,3.851H3v-2H15v2Zm4.059-9c.216,0,.406,.138,.475,.342l1.339,4.016c.085,.256,.128,.522,.128,.792v.851h-3v-6h1.059Z"/>
</svg>
