<?xml version="1.0" encoding="UTF-8"?>
<svg xmlns="http://www.w3.org/2000/svg" id="Layer_1" data-name="Layer 1" viewBox="0 0 24 24">
  <path d="M24,.597V12h-2v-2.749c-1.138-1.41-1.53-2.833-1.498-4.122,.104-2.494,1.463-4.26,2.28-4.944,.468-.402,1.214-.099,1.218,.411ZM2.5,7v5h2V7h.2c1.269,0,2.3-1.032,2.3-2.3V0h-1.6V4.7c0,.386-.314,.7-.7,.7h-.4V0h-1.6V5.4h-.4c-.386,0-.7-.314-.7-.7V0H0V4.7c0,1.268,1.031,2.3,2.3,2.3h.2Zm18.5,9.474l-1.428-1.785c-.859-1.073-2.14-1.689-3.514-1.689h-6.125c-1.367,0-2.643,.61-3.501,1.674l-1.433,1.774v-2.448H2v8h2.374l2.626-3.254v5.254h3v-8h6v8h3v-5.224l2.58,3.224h2.42V14h-3v2.474Zm-8-5.474c2.209,0,4-1.791,4-4s-1.791-4-4-4-4,1.791-4,4,1.791,4,4,4Z"/>
</svg>
