<svg id="Layer_1" viewBox="0 0 24 24" xmlns="http://www.w3.org/2000/svg" data-name="Layer 1"><path d="m23.098 15-.342-2.909c-.207-1.762-1.702-3.091-3.477-3.091h-14.559c-1.774 0-3.27 1.329-3.476 3.091l-.342 2.909h-.902v3h.902l.342 2.909c.207 1.762 1.702 3.091 3.477 3.091h14.561c1.774 0 3.27-1.329 3.476-3.091l.342-2.909h.902v-3h-.902zm-3.322 5.559c-.029.251-.242.441-.496.441h-14.56c-.254 0-.467-.189-.497-.441l-.301-2.559h5.157l.25 1h5.342l.25-1h5.157zm-15.854-5.559.302-2.559c.029-.251.242-.441.496-.441h14.561c.254 0 .467.189.497.441l.301 2.559zm-1.922-11c0-2.209 3.791-4 6-4 1.678 0 3.109 1.035 3.703 2.5h10.297v3h-10.297c-.594 1.465-2.026 2.5-3.703 2.5-2.209 0-6-1.791-6-4z"/></svg>