<?xml version="1.0" encoding="UTF-8"?>
<svg xmlns="http://www.w3.org/2000/svg" id="Layer_1" data-name="Layer 1" viewBox="0 0 24 24" width="512" height="512"><path d="m21.981,18.203V5.835c1.162-.413,2-1.512,2-2.816C23.981,1.362,22.638.019,20.981.019c-1.304,0-2.403.838-2.816,2H5.797C5.384.857,4.285.019,2.981.019,1.324.019-.019,1.362-.019,3.019-.019,4.324.818,5.422,1.981,5.836v12.367C.818,18.616-.019,19.715-.019,21.019c0,1.657,1.343,3,3,3,1.304,0,2.403-.837,2.816-2h12.368c.413,1.162,1.512,2,2.816,2,1.657,0,3-1.343,3-3,0-1.304-.837-2.403-2-2.816Zm-3.222.817H5.202c-.07-.078-.143-.151-.221-.222V5.241c.078-.07.151-.143.221-.221h13.558c.07.078.143.151.221.221v13.557c-.078.07-.151.144-.222.222Zm-6.278-6h-5c-.828,0-1.5-.672-1.5-1.5v-3c0-.828.672-1.5,1.5-1.5h5c.828,0,1.5.672,1.5,1.5v3c0,.828-.672,1.5-1.5,1.5Zm5.5-.5v3c0,.828-.672,1.5-1.5,1.5h-5c-.828,0-1.5-.672-1.5-1.5v-.5h3c1.657,0,3-1.343,3-3v-1h.5c.828,0,1.5.672,1.5,1.5Z"/></svg>
