<svg id="Layer_1" viewBox="0 0 24 24" xmlns="http://www.w3.org/2000/svg" data-name="Layer 1"><path d="m24 21v3c-1.157 0-2.202-.451-3-1.17-.798.72-1.843 1.17-3 1.17s-2.202-.451-3-1.17c-.798.72-1.843 1.17-3 1.17s-2.202-.451-3-1.17c-.798.72-1.843 1.17-3 1.17s-2.202-.451-3-1.17c-.798.72-1.843 1.17-3 1.17v-3c.651 0 1.201-.419 1.408-1h3.184c.207.581.757 1 1.408 1s1.201-.419 1.408-1h3.184c.207.581.757 1 1.408 1s1.201-.419 1.408-1h3.184c.207.581.757 1 1.408 1s1.201-.419 1.408-1h3.184c.207.581.757 1 1.408 1zm0-7.902v4.902h-3v-4.902l-6.485-5.087-6.505 5.068-.009 4.921h-3v-1.033c-.161.015-.32.033-.5.033-2.481 0-4.5-2.019-4.5-4.5 0-.698.166-1.381.477-2-.312-.619-.477-1.302-.477-2 0-1.526.781-2.917 2.008-3.734-.162-2.569 1.917-4.775 4.491-4.766 2.574-.009 4.653 2.197 4.492 4.766.485.323.897.738 1.222 1.214l.423-.331c1.096-.858 2.631-.859 3.727 0l6.477 5.068c.737.578 1.16 1.445 1.16 2.381zm-14.174-5.25c-.188-.371-.513-.67-.937-.785l-1.628-.44.628-1.566c.074-.185.112-.373.112-.557 0-.827-.673-1.5-1.5-1.5s-1.5.673-1.5 1.5c-.038.407.613 1.731.74 2.123l-1.628.44c-.654.177-1.111.768-1.111 1.437 0 .462.214.797.393.996l.905 1.004-.905 1.004c-.179.199-.393.534-.393.996 0 .827.673 1.5 1.5 1.5.201 0 .358-.025.5-.059v-.843c0-.936.423-1.804 1.16-2.381l3.666-2.869zm7.174 5.152h-5v5h5z"/></svg>