<svg id="Layer_1" viewBox="0 0 24 24" xmlns="http://www.w3.org/2000/svg" data-name="Layer 1"><path d="m9.343 13.309 1.594 4.428-1.553 4.289-2.822-1.016zm13.157-8.809c-.615 0-2.321-.182-2.988-.932-.636-.477-1.294-.969-2.043-1.243-2.19-.611-3.011-.166-4.176.011l-.23.64 1.594 4.428.855-2.374c.945-.053 1.383.325 2.201.938.818.631 1.71 1.239 2.734 1.447l-1.296 3.592c-.787-.053-1.236-.425-1.973-.975-.629-.471-1.28-.957-2.019-1.232l1.655 4.596c.197.106.398.202.608.279 2.178.63 2.67.288 3.892.173l2.686-7.478v-1.873h-1.5zm-11.795-2.164 6.757 18.666-2.82 1.021-3.807-10.516c-.948-.073-1.396.313-2.216.928-.636.476-1.292.968-2.041 1.242-2.181.631-2.67.289-3.893.174l-2.685-7.443v-1.908l1.605.004c1.193.097 1.963-.115 2.91-.945.625-.473 1.272-.962 2.016-1.233 2.188-.61 3.012-.166 4.174.011zm-.935 6.232-1.28-3.537c-.922-.053-1.367.31-2.166.921-.832.638-1.715 1.275-2.78 1.438l1.305 3.619c.786-.053 1.236-.425 1.973-.975.874-.671 1.83-1.335 2.949-1.466z"/></svg>