<?xml version="1.0" encoding="UTF-8"?>
<svg xmlns="http://www.w3.org/2000/svg" id="Layer_1" data-name="Layer 1" viewBox="0 0 24 24">
  <path d="m12,18c1.636,0,2.74-.614,4-1.335v3.398c-1.096.521-2.366.937-4,.937s-2.904-.416-4-.937v-3.398c1.26.721,2.364,1.335,4,1.335Zm9,0h3v-3h-3v3ZM3,3H0v3h3v-3Zm13,5.063v-3.398c-1.26.721-2.364,1.335-4,1.335s-2.74-.614-4-1.335v3.398c1.096.521,2.366.937,4,.937s2.904-.416,4-.937Zm5-5.063v3h3v-3h-3ZM0,18h3v-3H0v3Zm17-3.322v9.322h3v-10.835c-.602.181-1.188.5-1.939.93-.333.19-.689.388-1.061.583ZM20,0h-3v8.989c.86-.419,1.843-.784,3-.924V0Zm-9.5,9.878v6.869c.462.148.942.253,1.5.253s1.038-.105,1.5-.253v-6.869c-.472.072-.964.122-1.5.122s-1.028-.05-1.5-.122Zm0,12v2.122h3v-2.122c-.472.072-.964.122-1.5.122s-1.028-.05-1.5-.122Zm3-17.131V0h-3v4.747c.462.148.942.253,1.5.253s1.038-.105,1.5-.253Zm-4,9.898v-3.194c-.529-.234-1.037-.52-1.574-.828-1.329-.761-2.836-1.623-4.926-1.623H0v3h3c1.292,0,2.239.541,3.436,1.227.898.514,1.871,1.069,3.064,1.419Zm6.574-4.022c-.537.308-1.045.594-1.574.828v3.194c1.193-.35,2.166-.905,3.064-1.419,1.197-.686,2.144-1.227,3.436-1.227h3v-3h-3c-2.09,0-3.597.862-4.926,1.623ZM7,0h-3v8.066c1.157.14,2.14.505,3,.924V0Zm-3,13.165v10.835h3v-9.322c-.372-.195-.728-.393-1.061-.583-.752-.43-1.338-.749-1.939-.93Z"/>
</svg>
