<?xml version="1.0" encoding="UTF-8"?>
<svg xmlns="http://www.w3.org/2000/svg" id="Layer_1" data-name="Layer 1" viewBox="0 0 24 24">
  <path d="M23.998,12.478c0,.008,.002,.015,.002,.022,0,.344-.03,.682-.074,1.016-.574-.319-1.224-.516-1.926-.516-.365,0-.712,.065-1.048,.157,.029-.216,.048-.435,.048-.657,0-.008,.002-.015,.002-.022h-.002c0-2.471-1.955-4.396-4.548-4.479l-1.082-.034-.308-1.038c-.677-2.275-2.767-3.927-4.972-3.927-2.902,0-5.091,2.149-5.091,5,0,1.139,.134,1.729,.247,2.024l.479,1.258-1.198,.612c-.497,.254-2.527,1.605-2.527,4.605v2.429c-1.228-1.109-2-2.697-2-4.429,0-1.772,.794-3.521,2.133-4.607-.089-.551-.133-1.178-.133-1.893C2,3.514,5.554,0,10.091,0c3.225,0,6.177,2.051,7.493,5.097,3.723,.58,6.416,3.597,6.416,7.381h-.002Zm-4.998,.022v3c0,1.381-1.119,2.5-2.5,2.5s-2.5-1.119-2.5-2.5v-3c0-1.381,1.119-2.5,2.5-2.5s2.5,1.119,2.5,2.5Zm-1.6,0c0-.496-.404-.9-.9-.9s-.9,.404-.9,.9v3c0,.496,.404,.9,.9,.9s.9-.404,.9-.9v-3Zm-6.9-.9c.496,0,.9,.404,.9,.9h1.6c0-1.381-1.119-2.5-2.5-2.5s-2.5,1.119-2.5,2.5v3c0,1.381,1.119,2.5,2.5,2.5s2.5-1.119,2.5-2.5h-1.6c0,.496-.404,.9-.9,.9s-.9-.404-.9-.9v-3c0-.496,.404-.9,.9-.9Zm13.5,5.4c0-1.105-.895-2-2-2s-2,.895-2,2v.333h1.333v-.333c0-.368,.298-.667,.667-.667s.667,.298,.667,.667c0,1-2.667,1.84-2.667,3.346v.654h4v-1.333h-2c.575-.526,2-1.244,2-2.667ZM7,15h-3v5H1.5l3.293,3.293c.391,.391,1.024,.391,1.414,0l3.293-3.293h-2.5v-5Z"/>
</svg>
