<?xml version="1.0" encoding="UTF-8"?>
<svg xmlns="http://www.w3.org/2000/svg" id="Layer_1" data-name="Layer 1" viewBox="0 0 24 24">
  <path d="m10.604,9.389c.356.387.861.61,1.388.611h.004c.524,0,1.03-.221,1.392-.612l1.271-1.388h2.34V2c0-1.103-.897-2-2-2h-6c-1.103,0-2,.897-2,2v6h2.338l1.267,1.389Zm-.604-6.389h4v2h-.66l-1.342,1.465-1.336-1.465h-.662v-2ZM0,6.5c0-1.381,1.119-2.5,2.5-2.5s2.5,1.119,2.5,2.5-1.119,2.5-2.5,2.5S0,7.881,0,6.5Zm5,10.5h4v7h-3v-4h-3.5c-1.381,0-2.5-1.119-2.5-2.5v-4c0-1.381,1.119-2.5,2.5-2.5s2.5,1.119,2.5,2.5v3.5Zm14-10.5c0-1.381,1.119-2.5,2.5-2.5s2.5,1.119,2.5,2.5-1.119,2.5-2.5,2.5-2.5-1.119-2.5-2.5Zm5,7v4c0,1.381-1.119,2.5-2.5,2.5h-3.5v4h-3v-7h4v-3.5c0-1.381,1.119-2.5,2.5-2.5s2.5,1.119,2.5,2.5Zm-7,1.5H7v-3h10v3ZM0,21h4v3H0v-3Zm24,3h-4v-3h4v3Z"/>
</svg>
