<?xml version="1.0" encoding="UTF-8"?>
<svg xmlns="http://www.w3.org/2000/svg" id="Layer_1" data-name="Layer 1" viewBox="0 0 24 24">
  <path d="M24.003,9.499H14.508V.008c5.233,.023,9.47,4.258,9.495,9.49Zm-9.748,5.001c.421-1.325,1.366-2.408,2.605-3h-4.36V2h-1.5C4.935,2,0,6.935,0,13s4.935,11,11,11c1.476,0,2.882-.297,4.169-.826-.639-.77-1.046-1.726-1.129-2.782-.939,.387-1.963,.608-3.04,.608-4.411,0-8-3.589-8-8,0-3.898,2.803-7.155,6.5-7.859V14.5h4.755Zm4.745,.5h2c.551,0,1,.449,1,1h2c0-1.654-1.346-3-3-3v-1h-2v1c-1.654,0-3,1.346-3,3,0,1.36,.974,2.51,2.315,2.733l3.042,.507c.373,.062,.644,.382,.644,.76,0,.551-.449,1-1,1h-2c-.551,0-1-.449-1-1h-2c0,1.654,1.346,3,3,3v1h2v-1c1.654,0,3-1.346,3-3,0-1.36-.974-2.51-2.315-2.733l-3.042-.507c-.373-.062-.644-.382-.644-.76,0-.551,.449-1,1-1Z"/>
</svg>
