<svg id="Layer_1" viewBox="0 0 24 24" xmlns="http://www.w3.org/2000/svg" data-name="Layer 1"><path d="m21.5 16h-2.5v8h1.6v-3h.922c1.366 0 2.477-1.108 2.478-2.474v-.026c0-1.381-1.119-2.5-2.5-2.5zm0 3.4h-.9v-1.8h.9c.496 0 .9.404.9.9s-.404.9-.9.9zm-7.5-3.4h3.5v1.6h-1.9v1.65h1.9v1.6h-1.9v1.551h1.9v1.6h-3.5v-8zm10-11v9h-3v-4h-18v11h3.355v3h-6.355v-19c0-1.654 1.346-3 3-3h3v-2h3v2h6v-2h3v2h3c1.654 0 3 1.346 3 3zm-11.037 16.972c-.191 1.175-1.215 2.028-2.436 2.028-.965 0-1.873-.413-2.506-1.136l1.009-1.006c.373.406.925.646 1.497.646.604 0 1.031-.404 1.096-.795.089-.55-.602-.873-.817-.959-.915-.371-1.751-.78-1.753-.78-1.489-.943-1.099-3.356.549-3.845 1.324-.437 2.462.317 2.863.686l-.86 1.113c-.219-.166-.881-.602-1.611-.367-.412.136-.517.447-.515.577.005.442.335.57.433.615.282.128.806.368 1.366.595 1.461.591 1.828 1.745 1.685 2.627z"/></svg>