<?xml version="1.0" encoding="UTF-8"?>
<svg xmlns="http://www.w3.org/2000/svg" id="Layer_1" data-name="Layer 1" viewBox="0 0 24 24">
  <path d="M20.5,2.986H3.5c-1.93,0-3.5,1.57-3.5,3.5v14.5H8s1.529,0,1.529,0c-.343-.595-.541-1.265-.541-1.971v-1.029h-1.988s-4,0-4,0v-7H21v2h3V6.486c0-1.93-1.57-3.5-3.5-3.5ZM3,7.986v-1.5c0-.275,.224-.5,.5-.5H20.5c.276,0,.5,.225,.5,.5v1.5H3Zm19.748,7.014h1.252l-1.252,6h-1.25l-1.511-6h1.252l.826,3.282,.684-3.282Zm-7.761,1.985v.084h-1.255s.005-.054,.005-.084c0-.394-.342-.728-.75-.735-.391,0-.749,.302-.749,.751v1.998c0,.449,.358,.751,.749,.751,.408-.007,.75-.34,.75-.735,0-.03-.005-.084-.005-.084h1.255v.084c0,1.09-.896,1.977-2,1.984h0c-1.109,.001-2-.889-2-1.984v-2.03c0-1.094,.891-1.985,2-1.985h0c1.104,.008,2,.895,2,1.985Zm3.261-1.985h1.252l-1.252,6h-1.25l-1.511-6h1.252l.826,3.282,.684-3.282Z"/>
</svg>
