<?xml version="1.0" encoding="UTF-8"?>
<svg xmlns="http://www.w3.org/2000/svg" id="Layer_1" data-name="Layer 1" viewBox="0 0 24 24">
  <path d="m14.077.489c-1.283-.652-2.94-.65-4.221.002L.031,5.5l4.969,2.534v4.591c.912.104,1.949.213,3,.305v-3.366l1.856.946c.642.327,1.377.491,2.112.491s1.47-.164,2.111-.491l1.921-.979v3.399c1.051-.091,2.088-.2,3-.305v-4.624l2-1.02v5.4c.608-.079.987-.132,1.002-.134l1.98-.284.017.119v-6.582L14.077.489Zm-1.361,7.349c-.426.218-1.069.217-1.497,0l-4.583-2.337,4.583-2.336c.428-.218,1.072-.217,1.498,0l4.584,2.337-4.585,2.337Zm-.715,7.304c-3.846,0-10.224-.905-10.288-.915l-1.712-.245v10.036l1.712-.245c.064-.009,6.442-.915,10.288-.915s10.224.905,10.288.915l1.712.245v-10.036l-1.712.245c-.064.009-6.442.915-10.288.915Zm-9,2.282c1.861.233,4.902.573,7.5.68v1.792c-2.598.108-5.639.447-7.5.68v-3.153Zm18,3.153c-1.861-.233-4.902-.573-7.5-.68v-1.792c2.598-.108,5.639-.447,7.5-.68v3.153Z"/>
</svg>
