<?xml version="1.0" encoding="UTF-8"?>
<svg xmlns="http://www.w3.org/2000/svg" id="Layer_1" data-name="Layer 1" viewBox="0 0 24 24">
  <path d="m16,5s-2,0-4,1.5c-2-1.5-4-1.5-4-1.5,0,0-2,2.5-2,3.5,0,1.296.942,3.182,1.5,4l-.754,2.018,3.728,2.982h.526v-2.5l-1-1v-1h4v1l-1,1v2.5h.526l3.728-2.982-.754-2.018c.558-.818,1.5-2.704,1.5-4,0-1-2-3.5-2-3.5Zm-6.75,6c-.69,0-1.25-.56-1.25-1.25s.56-1.25,1.25-1.25,1.25.56,1.25,1.25-.56,1.25-1.25,1.25Zm5.5,0c-.69,0-1.25-.56-1.25-1.25s.56-1.25,1.25-1.25,1.25.56,1.25,1.25-.56,1.25-1.25,1.25Zm9.25-4.5S20.5,0,14,0l-2,1-2-1C3.5,0,0,6.5,0,6.5l1.466-.242c-.749,1.618-1.466,3.806-1.466,6.242v3.5l1.486-1.365c.712,2.729,1.32,4.449,1.514,4.865l1.344,2.952,1.138-2.092c2.619,1.811,6.374,3.604,6.518,3.64.144-.036,3.898-1.829,6.518-3.64l1.138,2.092,1.344-2.952c.193-.416.802-2.137,1.514-4.865l1.486,1.365v-3.5c0-2.437-.718-4.624-1.466-6.242l1.466.242Zm-4.389,7.377c-.273,1.048-.522,1.91-.73,2.585l-2.069,1.43c-1.516,1.048-3.543,2.139-4.812,2.782-1.269-.643-3.296-1.734-4.812-2.782l-2.069-1.43c-.208-.675-.457-1.537-.73-2.585l-1.044-4.001c.235-.923.554-1.732.844-2.359l1.384-2.991c1.208-.846,2.831-1.526,4.927-1.526h2.5c2.382,0,4.238.87,5.59,1.878l1.221,2.639c.29.626.609,1.436.844,2.359l-1.044,4.001Z"/>
</svg>
