<svg id="Layer_1" viewBox="0 0 24 24" xmlns="http://www.w3.org/2000/svg" data-name="Layer 1"><path d="m24 3.5c0 1.93-1.57 3.5-3.5 3.5s-3.5-1.57-3.5-3.5 1.57-3.5 3.5-3.5 3.5 1.57 3.5 3.5zm-12.707 7.209c.378.377 1.036.377 1.414 0l2.709-2.709h-6.833zm.707 2.291c-.768 0-1.536-.292-2.121-.877l-1.879-1.879v4.756h8v-4.756l-1.879 1.879c-.585.585-1.353.877-2.121.877zm6-4.605v10.105c0 .276-.225.5-.5.5h-11c-.275 0-.5-.224-.5-.5v-13c0-.276.225-.5.5-.5h8.712c-.135-.477-.212-.979-.212-1.5s.077-1.023.212-1.5h-7.212v-2h-3v2.351c-1.178.564-2 1.758-2 3.149v13c0 1.391.822 2.585 2 3.149v2.351h3v-2h8v2h3v-2.351c1.178-.564 2-1.758 2-3.149v-9.525c-.165.015-.331.025-.5.025-.901 0-1.749-.221-2.5-.605z"/></svg>