<?xml version="1.0" encoding="UTF-8"?>
<svg xmlns="http://www.w3.org/2000/svg" id="Layer_1" data-name="Layer 1" viewBox="0 0 24 24">
  <path d="M6.5,11c.828,0,1.5,.672,1.5,1.5s-.672,1.5-1.5,1.5-1.5-.672-1.5-1.5,.672-1.5,1.5-1.5ZM24,4.5v11.803c-.733-.852-1.724-1.732-3-2.371v-4.931H3v7h7.276c-.961,1.037-1.551,2.074-1.818,2.612l-.192,.388H0V4.5C0,2.57,1.57,1,3.5,1H20.5c1.93,0,3.5,1.57,3.5,3.5Zm-3,1.5v-1.5c0-.276-.225-.5-.5-.5H3.5c-.276,0-.5,.224-.5,.5v1.5H21Zm2.75,13.5c-.577,1.165-2.592,4.5-6.75,4.5s-6.175-3.338-6.75-4.5c.577-1.165,2.592-4.5,6.75-4.5s6.173,3.334,6.75,4.5Zm-4.75,0c0-1.105-.895-2-2-2s-2,.895-2,2,.895,2,2,2,2-.895,2-2Z"/>
</svg>
