<?xml version="1.0" encoding="UTF-8"?>
<svg xmlns="http://www.w3.org/2000/svg" id="Layer_1" data-name="Layer 1" viewBox="0 0 24 24">
  <path d="m21,21.5v2.5h-3v-2.5c0-1.379-1.121-2.5-2.5-2.5h-3.5v5h-3v-5h-.5c-1.378,0-2.5,1.121-2.5,2.5v2.5h-3v-2.5c0-3.032,2.467-5.5,5.5-5.5h7c3.032,0,5.5,2.468,5.5,5.5ZM4,2.5c0-1.381,1.119-2.5,2.5-2.5.577,0,1.544.197,2.475.525.625-.205,1.792-.525,3.025-.525s2.4.32,3.025.525c.931-.328,1.898-.525,2.475-.525,1.381,0,2.5,1.119,2.5,2.5,0,1.211-.861,2.22-2.003,2.45,0,.017.003.033.003.05v3.984c0,3.309-2.691,6-6,6s-6-2.691-6-6v-3.984c0-.017.003-.033.003-.05-1.143-.23-2.003-1.239-2.003-2.45Zm5,5.5v.984c0,1.654,1.346,3,3,3s3-1.346,3-3v-.984h-6Zm5.5,12c-.828,0-1.5.672-1.5,1.5s.672,1.5,1.5,1.5,1.5-.672,1.5-1.5-.672-1.5-1.5-1.5Z"/>
</svg>
