<?xml version="1.0" encoding="UTF-8"?>
<svg xmlns="http://www.w3.org/2000/svg" id="Layer_1" data-name="Layer 1" viewBox="0 0 24 24">
  <path d="m22,18c0-.28-.033-.552-.083-.818l1.529-.883-1.5-2.598-1.542.89c-.413-.352-.884-.629-1.404-.815v-1.776h-3v1.776c-.521.186-.992.463-1.404.815l-1.542-.89-1.5,2.598,1.529.883c-.049.266-.083.538-.083.818s.033.552.083.818l-1.529.883,1.5,2.598,1.542-.89c.413.352.884.629,1.404.815v1.776h3v-1.776c.521-.186.992-.463,1.404-.815l1.542.89,1.5-2.598-1.529-.883c.049-.266.083-.538.083-.819Zm-4.5,1.5c-.827,0-1.5-.673-1.5-1.5s.673-1.5,1.5-1.5,1.5.673,1.5,1.5-.673,1.5-1.5,1.5Zm-6-7.577c0,.029-.067.479-.141.953-.748.896-1.296,1.96-1.597,3.124h-3.271c-1.93,0-3.5-1.57-3.5-3.5v-1.64c-.355.062-.708.12-.89.135C1.021,11.072-.037,10.271,0,9c-.021-1.083.839-1.978,1.922-2,.031,0,.554.079,1.068.159v-.659c0-1.93,1.57-3.5,3.5-3.5h1.152c-.063-.358-.122-.716-.137-.899C7.428,1.021,8.188-.033,9.5,0c1.083-.021,1.978.839,2,1.922,0,.032-.08.56-.16,1.077h1.151c1.93,0,3.5,1.57,3.5,3.5v3.647s0,0,0,0c-1.096.209-2.112.64-3,1.247v-4.893c0-.275-.224-.5-.5-.5h-6c-.276,0-.5.225-.5.5v6c0,.275.224.5.5.5h1.152c-.063-.358-.122-.716-.137-.899-.077-1.08.683-2.134,1.995-2.1,1.083-.021,1.978.839,2,1.922Z"/>
</svg>
