<svg id="Layer_1" viewBox="0 0 24 24" xmlns="http://www.w3.org/2000/svg" data-name="Layer 1"><path d="m23.998.004-5.993-.004s-1.999.004-1.999 2.004c0 2.338-1.366 3.303-2.502 3.706v-2.404c.306-.351.497-.804.497-1.306 0-1.105-.895-2-2-2s-2 .895-2 2c0 .506.194.963.504 1.315v2.398c-1.138-.401-2.509-1.366-2.509-3.708-.001-2.001-2.001-2.005-2.001-2.005l-5.993.004s-.002.431-.002.997c0 1.453.933 1.903 1.5 1.999h3.553c.04.35.102.686.182 1.002l-3.235-.002c0 1.998 2 2 2 2h2.136c.248.368.52.706.824 1h-2.96c0 1.998 1.995 1.998 1.995 1.998h4.507v2.004h-1.891c-1.759 0-3.289 1.257-3.561 2.923-.389 2.07 1.351 4.126 3.453 4.077h1.997v.991h-.017c-1.367 0-2.481 1.112-2.484 2.504-.033 1.335 1.145 2.521 2.475 2.494l3.025.018v-2.008l1.005.002c1.93 0 3.5-1.57 3.5-3.501s-1.57-3.5-3.5-3.5h-1.003v-1h2.053c1.758 0 3.204-1.308 3.449-3h-3.449s-.025 0-.05.002v-.002h-2.003v-2.004h4.503s1.995 0 1.995-1.998h-2.96c.303-.294.576-.632.824-1h2.136s2-.002 2-2l-3.235.002c.081-.316.142-.652.182-1.002h3.553c.567-.096 1.5-.545 1.5-1.999 0-.566-.002-.997-.002-.997zm-13.496 14.998h-1.998c-.722-.034-.615-1.028.107-1h1.891zm4.003 3c.275 0 .5.225.5.501s-.225.5-.496.5l-1.008-.002v-.999z"/></svg>