<?xml version="1.0" encoding="UTF-8"?>
<svg xmlns="http://www.w3.org/2000/svg" id="Layer_1" data-name="Layer 1" viewBox="0 0 24 24">
  <path d="M10.5,4h-3L11.293,.293c.391-.391,1.024-.391,1.414,0l3.793,3.707h-3v3h-3v-3Zm-.59,13c-.051,0,.051,.004,0,0h0Zm5.569-5.146l2.291,1.146h6.229v-3h-5.521l-1.658-.829c-1.438-.718-3.262-.468-4.454,.605l-.507,.436-.191-.173c-1.182-1.074-2.949-1.392-4.539-.593l-1.014,.554H0v3H6.883l1.638-.896c.328-.164,.816-.132,1.13,.153l.157,.143-1.236,1.318c-.676,.675-.767,1.72-.217,2.484,.33,.458,.993,.752,1.555,.797,.507,0,.995-.202,1.37-.579l.806-.834,3.424,3.052-3.026,2.362h-.969l-5.125-4H0v3H5.359l5.125,4h3.031l5.125-4h5.359v-3h-5.818l-4.683-4.174,.86-.807c.299-.278,.759-.346,1.12-.165Z"/>
</svg>
