<svg id="Layer_1" viewBox="0 0 24 24" xmlns="http://www.w3.org/2000/svg" data-name="Layer 1"><path d="m24 11.5v4.5h-4.936c-.41-1.158-1.094-2.183-1.977-3h3.913v-1.5c0-.276-.224-.5-.5-.5h-4.109l-4.68-7.677c-.124-.223-.292-.323-.475-.323h-.674l2.745 8h-7.349l-2.746-2.219 2.188 4.219h1.514c-.883.817-1.567 1.842-1.977 3h-1.36s-3.309-6.405-3.336-6.506c-.342-.83-.307-1.754.154-2.548.525-.905 1.464-1.446 2.511-1.446.744 0 1.445.278 1.985.785l2.126 1.715h2.089l-2.745-8h4.875c1.281 0 2.459.699 3.073 1.824l3.767 6.176h2.424c1.93 0 3.5 1.57 3.5 3.5zm-6.5 7c0 3.038-2.462 5.5-5.5 5.5s-5.5-2.462-5.5-5.5 2.462-5.5 5.5-5.5 5.5 2.462 5.5 5.5zm-2.293 1.793-2.207-2.207v-3.086h-2v3.914l2.793 2.793z"/></svg>