<?xml version="1.0" encoding="UTF-8"?>
<svg xmlns="http://www.w3.org/2000/svg" id="Layer_1" data-name="Layer 1" viewBox="0 0 24 24">
  <path d="M16.662,2c-.563-1.182-1.769-2-3.162-2h-3c-1.394,0-2.599,.818-3.162,2H2V20.5c0,1.93,1.57,3.5,3.5,3.5h13c1.93,0,3.5-1.57,3.5-3.5V2h-5.338Zm2.338,18.5c0,.275-.224,.5-.5,.5H5.5c-.276,0-.5-.225-.5-.5V5h5v-1.5c0-.275,.224-.5,.5-.5h3c.276,0,.5,.225,.5,.5v1.5h5v15.5Zm-8.5-4.487h3v3h-3v-3Zm2.542-8.865c1.363,.353,2.472,1.462,2.824,2.825,.488,1.893-.431,3.857-2.187,4.672-.089,.041-.18,.2-.18,.396h-3c0-1.354,.753-2.579,1.919-3.119,.379-.176,.694-.614,.543-1.199-.081-.313-.357-.59-.671-.671-.445-.116-.756,.057-.902,.17-.247,.19-.389,.479-.389,.791h-3c0-1.247,.566-2.399,1.552-3.164,.988-.765,2.26-1.019,3.49-.701Z"/>
</svg>
