<?xml version="1.0" encoding="UTF-8"?>
<svg xmlns="http://www.w3.org/2000/svg" id="Layer_1" data-name="Layer 1" viewBox="0 0 24 24" width="512" height="512"><path d="M12,0C5.383,0,0,5.383,0,12s5.383,12,12,12,12-5.383,12-12S18.617,0,12,0Zm0,3c3.525,0,6.574,2.042,8.05,5h-1.402c-.564-1.178-1.758-2-3.149-2-1.93,0-3.5,1.57-3.5,3.5,0,.992,.419,1.884,1.085,2.522,.134,.184,.403,.807,.48,1.038-.309,.254-1.165,.44-1.565,.44s-1.256-.186-1.565-.44c.077-.231,.343-.849,.477-1.036,.667-.638,1.088-1.531,1.088-2.524,0-1.93-1.57-3.5-3.5-3.5-1.391,0-2.585,.822-3.149,2h-1.402c1.476-2.958,4.526-5,8.05-5Zm3.5,8c-.827,0-1.5-.673-1.5-1.5s.673-1.5,1.5-1.5,1.5,.673,1.5,1.5-.673,1.5-1.5,1.5Zm-7,0c-.827,0-1.5-.673-1.5-1.5s.673-1.5,1.5-1.5,1.5,.673,1.5,1.5-.673,1.5-1.5,1.5Zm3.5,10c-4.963,0-9-4.037-9-9,0-.338,.022-.671,.059-1h2.292c.497,1.039,1.487,1.787,2.669,1.951-.008,.073-.02,.148-.02,.213,0,.136,.015,.265,.039,.39l-1.979,1.379,1.143,1.641,2.04-1.422c.164,.106,.337,.198,.514,.283l-.857,2.2,1.863,.727,.928-2.381c.111,.01,.217,.017,.31,.017s.199-.007,.31-.017l.928,2.381,1.863-.727-.857-2.2c.172-.083,.342-.173,.502-.275l2.038,1.428,1.148-1.639-1.974-1.383c.026-.129,.042-.262,.042-.403,0-.065-.012-.141-.02-.213,1.182-.164,2.172-.912,2.669-1.951h2.292c.037,.329,.059,.662,.059,1,0,4.963-4.037,9-9,9Z"/></svg>
