<svg id="Layer_1" viewBox="0 0 24 24" xmlns="http://www.w3.org/2000/svg" data-name="Layer 1"><path d="m1 3c0-1.657 1.343-3 3-3s3 1.343 3 3-1.343 3-3 3-3-1.343-3-3zm19 3c1.657 0 3-1.343 3-3s-1.343-3-3-3-3 1.343-3 3 1.343 3 3 3zm-6.5 11.463v1.537h-3v-1.537c-.432-.164-.823-.4-1.174-.687l-1.339.773-1.5-2.598 1.332-.769c-.036-.223-.069-.448-.069-.682s.033-.459.069-.682l-1.332-.769 1.5-2.598 1.339.773c.352-.288.742-.523 1.174-.687v-1.537h3v1.537c.432.164.823.4 1.174.687l1.339-.773 1.5 2.598-1.332.769c.036.223.069.448.069.682s-.033.459-.069.682l1.332.769-1.5 2.598-1.339-.773c-.352.288-.742.523-1.174.687zm-3-3.963c0 .827.673 1.5 1.5 1.5s1.5-.673 1.5-1.5-.673-1.5-1.5-1.5-1.5.673-1.5 1.5zm10.5 5c0 .276-.224.5-.5.5h-1.5v-2l-2.883 2.95c-.304.304-.304.796 0 1.1l2.883 2.95v-2h1.5c1.93 0 3.5-1.57 3.5-3.5v-4.5h-3zm-16-1.5v2h-1.5c-.276 0-.5-.224-.5-.5v-4.5h-3v4.5c0 1.93 1.57 3.5 3.5 3.5h1.5v2l2.883-2.95c.304-.304.304-.796 0-1.1zm1.75-8.852c-.232-.094-.484-.148-.75-.148h-4c-1.104 0-2 .895-2 2v2h4.651c.303-1.494 1.052-2.824 2.099-3.852zm15.25-.148h-4c-.266 0-.518.054-.75.148 1.047 1.028 1.796 2.358 2.099 3.852h4.651v-2c0-1.105-.895-2-2-2z"/></svg>