<?xml version="1.0" encoding="UTF-8"?>
<svg xmlns="http://www.w3.org/2000/svg" id="Layer_1" data-name="Layer 1" viewBox="0 0 24 24">
  <path d="M24,6.5v2.761c-.831-.687-1.867-1.133-3-1.235v-1.525c0-.276-.224-.5-.5-.5H11.646l-4-2H3.5c-.276,0-.5,.224-.5,.5v15.5h2v3H0V4.5C0,2.57,1.57,1,3.5,1h4.854l4,2h8.146c1.93,0,3.5,1.57,3.5,3.5Zm0,7v9.5H7V11.5c0-1.93,1.57-3.5,3.5-3.5h2.854l4,2h3.146c1.93,0,3.5,1.57,3.5,3.5Zm-3,0c0-.276-.224-.5-.5-.5h-3.854l-4-2h-2.146c-.276,0-.5,.224-.5,.5v8.5h11v-6.5Z"/>
</svg>
