<?xml version="1.0" encoding="UTF-8"?>
<svg xmlns="http://www.w3.org/2000/svg" id="Layer_1" data-name="Layer 1" viewBox="0 0 24 24">
  <path d="m10.5,5h-3.566L11.17.371c.443-.494,1.217-.494,1.66,0l4.236,4.629h-3.566v13h-3V5Zm12.092,15h-3.184c-.207.581-.757,1-1.408,1s-1.201-.419-1.408-1h-3.184c-.207.581-.757,1-1.408,1s-1.201-.419-1.408-1h-3.184c-.207.581-.757,1-1.408,1s-1.201-.419-1.408-1H1.408c-.207.581-.757,1-1.408,1v3c1.157,0,2.202-.451,3-1.17.798.72,1.843,1.17,3,1.17s2.202-.451,3-1.17c.798.72,1.843,1.17,3,1.17s2.202-.451,3-1.17c.798.72,1.843,1.17,3,1.17s2.202-.451,3-1.17c.798.72,1.843,1.17,3,1.17v-3c-.651,0-1.201-.419-1.408-1ZM3,11.5c0-.276.225-.5.5-.5h4.5v-3H3.5c-1.93,0-3.5,1.57-3.5,3.5v6.5h3v-6.5Zm17.5-3.5h-4.5v3h4.5c.275,0,.5.224.5.5v6.5h3v-6.5c0-1.93-1.57-3.5-3.5-3.5Z"/>
</svg>
