<?xml version="1.0" encoding="UTF-8"?>
<svg xmlns="http://www.w3.org/2000/svg" id="Layer_1" data-name="Layer 1" viewBox="0 0 24 24">
  <path d="M23,17.091v5.909l-2.531-2.531c-2.232,2.228-5.267,3.531-8.469,3.531C5.383,24,0,18.617,0,12H3c0,4.963,4.037,9,9,9,2.402,0,4.677-.976,6.352-2.648l-2.352-2.352h5.909c.602,0,1.091,.488,1.091,1.091ZM2.091,8h5.909l-2.352-2.352c1.675-1.671,3.95-2.648,6.352-2.648,4.963,0,9,4.038,9,9h3C24,5.383,18.617,0,12,0,8.797,0,5.763,1.302,3.53,3.53L1,1V6.909c0,.603,.488,1.091,1.091,1.091Zm10.739,11.193l2.873-5.515c.377-.633,.396-1.417,.045-2.07-.366-.684-1.077-1.108-1.853-1.108h-2.31l2.244-4.307-2.66-1.387-3.079,5.967c-.193,.638-.07,1.337,.326,1.873,.397,.535,1.032,.854,1.698,.854h2.299l-2.244,4.307,2.66,1.387Z"/>
</svg>
