<?xml version="1.0" encoding="UTF-8"?>
<svg xmlns="http://www.w3.org/2000/svg" id="Layer_1" data-name="Layer 1" viewBox="0 0 24 24">
  <path d="m16,16.5c0-.828.672-1.5,1.5-1.5s1.5.672,1.5,1.5-.672,1.5-1.5,1.5-1.5-.672-1.5-1.5Zm5.385-6.409L24,.53l-.904-.53-4.895,8.31c-.697-.2-1.432-.307-2.192-.308l-1.507-.002v.003l-.002-.003c-3.382,0-7.183,2.855-9.5,4.931v3.993l.102.094c1.549-1.674,6.255-6.018,9.398-6.018l1.506.002c2.754.002,4.994,2.245,4.994,4.999s-2.243,4.999-4.999,4.999H6.5c-1.93,0-3.5-1.57-3.5-3.5v-3.973c0-1.684.494-3.313,1.428-4.715l2.281-3.421c2.456-.556,4.292-2.769,4.292-5.391-4.173,0-5.5,2.776-5.5,2.776,0,0-1.378-2.776-5.5-2.776,0,2.262,1.365,4.219,3.317,5.071l-1.385,2.077c-1.264,1.896-1.932,4.101-1.932,6.379v3.973c0,3.584,2.916,6.5,6.5,6.5h9.501c4.411,0,7.999-3.588,7.999-7.999,0-2.338-1.009-4.446-2.615-5.91Z"/>
</svg>
