<?xml version="1.0" encoding="UTF-8"?>
<svg xmlns="http://www.w3.org/2000/svg" id="Layer_1" data-name="Layer 1" viewBox="0 0 24 24">
  <path d="M8.032,3.777l.583,2.624h-1.407l.646-2.678c.019-.068,.05-.122,.097-.122,.014,.01,.057,.063,.082,.176Zm1.468,7.223H3V2C3,.895,3.895,0,5,0h14c1.105,0,2,.895,2,2V11h-6.5l-2.5,2-2.5-2Zm4.95-2h4.55v-1.6h-2.562l2.562-3.686v-1.715h-4.55v1.6h2.562l-2.562,3.686v1.715Zm-2.95-3h2v-1.6h-2v1.6Zm-2.309,2.994h1.667l-1.266-5.572c-.311-1.853-2.97-1.844-3.303-.04l-1.29,5.612h1.583l.24-.994h2.148l.221,.994Zm8.309,10.006h6.5v-3h-6.5c-3.034,0-4.735,1.704-5.5,3.553-.765-1.849-2.466-3.553-5.5-3.553H0v3H6.5c1.884,0,2.59,1.089,2.851,2H0v3H24v-3H14.645c.254-.889,.95-2,2.855-2Z"/>
</svg>
