<?xml version="1.0" encoding="UTF-8"?>
<svg xmlns="http://www.w3.org/2000/svg" id="Layer_1" data-name="Layer 1" viewBox="0 0 24 24">
  <path d="m12.614,20.935c.606.564.642,1.513.078,2.12-.295.318-.697.479-1.1.479-.365,0-.731-.133-1.021-.401-.72-.669-1.587-1.562-2.127-2.039-.003-.003-.005-.006-.008-.009h-.001C4.565,17.7,0,12.754,0,8.227,0,4.205,2.855,1.055,6.5,1.055h0c1.41,0,2.916.524,4,1.313l-2.188,2.187c-.494-.272-1.235-.5-1.812-.5,0,0,0,0,0,0-1.962,0-3.499,1.833-3.499,4.171,0,2.616,2.687,6.468,7.37,10.567l-.005.006c.021.017.044.028.064.046.553.488,1.448,1.406,2.184,2.09Zm.336-6.307l-2.106,2.137,3.59,3.539c.292.288.673.432,1.053.432.388,0,.774-.149,1.068-.447.581-.59.574-1.54-.016-2.122l-3.589-3.539Zm6.875-2.862l2.101,2.305c1.372-2.119,2.073-4.079,2.073-5.845,0-.002,0-.003,0-.004-.002-3.952-3.029-7.167-6.75-7.167-1.956,0-3.81.909-5.1,2.497l-4.653,4.642c-.975.975-.975,2.561,0,3.535.487.487,1.127.731,1.768.731s1.281-.244,1.768-.731l1.015-1.015c1.383,1.696,3.244,3.619,5.371,5.815l.478.494c.295.304.687.457,1.078.457.376,0,.752-.14,1.043-.422.596-.576.611-1.526.035-2.121l-.479-.495c-2.185-2.256-4.081-4.215-5.392-5.861l4.288-4.288c1.455.578,2.53,2.147,2.53,3.936h0c0,1.008-.405,2.207-1.174,3.54Z"/>
</svg>
