<?xml version="1.0" encoding="UTF-8"?>
<svg xmlns="http://www.w3.org/2000/svg" id="Layer_1" data-name="Layer 1" viewBox="0 0 24 24">
  <path d="m12,11c1.381,0,2.5,1.119,2.5,2.5s-1.119,2.5-2.5,2.5-2.5-1.119-2.5-2.5,1.119-2.5,2.5-2.5Zm10.518,2.602l-2.035-2.204-6.069,5.602h-4.826l-6.069-5.602-2.035,2.204,6.518,6.017v4.381h3v-4h2v4h3v-4.381l6.518-6.017Zm-10.518-4.435s5-3.49,5-6.394c0-1.531-1.119-2.773-2.5-2.773s-2.5,1.241-2.5,2.773c0-1.531-1.119-2.773-2.5-2.773s-2.5,1.241-2.5,2.773c0,2.904,5,6.394,5,6.394Z"/>
</svg>
