<?xml version="1.0" encoding="UTF-8"?>
<svg xmlns="http://www.w3.org/2000/svg" id="Layer_1" data-name="Layer 1" viewBox="0 0 24 24">
  <path d="M9,6c0,1.105-.895,2-2,2s-2-.895-2-2,.895-2,2-2,2,.895,2,2Zm15-2.5V22h-7.031l-1.296-3h3.049l-2.286-2h-3.806l3.023,7h-3.281l-.862-2H0V3.5C0,1.57,1.57,0,3.5,0H20.5c1.93,0,3.5,1.57,3.5,3.5Zm-6.437,10.5l3.437,3.007V3.5c0-.276-.225-.5-.5-.5H3.5c-.275,0-.5,.224-.5,.5v15.5h7.218l-2.172-5.042-1.073,3.042H3.792l1.779-5.042c.456-1.292,1.372-2.362,2.579-3.012l4.35-2.446,1.333-1.5h3.932l-3.374,3.89-2.604,1.458,1.513,3.652h4.263Z"/>
</svg>
