<svg id="Layer_1" viewBox="0 0 24 24" xmlns="http://www.w3.org/2000/svg" data-name="Layer 1"><path d="m24 6v15.621l-2.379 2.379h-4.242l3.621-3.621v-2.997l-3.325 3.3-2.113-2.129 3.318-3.294c.195-.322.148-.746-.123-1.016-.315-.316-.86-.315-1.174 0l-3.886 3.886c.184.554.303 1.132.303 1.732v4.139h-3v-4.139c0-.658-.267-1.302-.732-1.768l-3.769-3.769c-.325-.324-.824-.403-1.139-.181-.413.326-.446.725-.24 1.115l3.319 3.294-2.113 2.129-3.325-3.321v3.017l3.621 3.621h-4.243l-2.379-2.379v-15.619c0-1.172 1.012-2.111 2.208-1.989 1.041.106 1.792 1.061 1.792 2.107v5.364c1.465-.792 3.378-.521 4.621.723l3.38 3.38 3.462-3.462c1.188-1.188 3.091-1.384 4.538-.623v-5.383c0-1.046.751-2.001 1.792-2.107 1.196-.122 2.208.818 2.208 1.989zm-17.946 1.701 1.529-.883c-.049-.266-.083-.538-.083-.818s.034-.552.083-.818l-1.529-.883 1.5-2.599 1.542.89c.412-.352.883-.629 1.404-.815v-1.775h3v1.776c.52.186.991.463 1.404.815l1.542-.89 1.5 2.599-1.529.883c.049.266.083.538.083.818s-.033.552-.083.818l1.529.883-1.5 2.598-1.542-.89c-.413.352-.884.629-1.404.815v1.776h-3v-1.776c-.52-.186-.991-.463-1.404-.815l-1.542.89zm4.946-1.287 2.043 2.043 1.414-1.414-1.457-1.457v-2.086h-2z"/></svg>