<?xml version="1.0" encoding="UTF-8"?>
<svg xmlns="http://www.w3.org/2000/svg" id="Layer_1" data-name="Layer 1" viewBox="0 0 24 24" width="512" height="512"><path d="m23.513,16.693l.352-1.477-1.48-.339c-.396-.091-1.565-.469-2.216-1.123-.238-.24-.439-.549-.603-.864.583-.818.934-1.811.934-2.889,0-2.237-1.487-4.114-3.518-4.75.004-.083.018-.166.018-.25,0-2.757-2.243-5-5-5s-5,2.243-5,5c0,.084.014.166.018.25-2.031.636-3.518,2.513-3.518,4.75,0,1.079.351,2.072.935,2.89-.164.315-.365.625-.603.864-.651.653-1.82,1.032-2.21,1.122l-1.494.331.36,1.487c.518,2.14.611,2.525.226,4.894l-.335,2.06,2.059-.338c2.354-.387,2.738-.293,4.864.227l1.482.356.338-1.487c.091-.398.468-1.576,1.12-2.231.455-.457.991-.804,1.596-1.041.519.16,1.391.507,1.923,1.041.652.655,1.029,1.833,1.119,2.226l.329,1.5,1.492-.365c2.129-.519,2.514-.612,4.864-.227l2.059.338-.335-2.06c-.386-2.369-.292-2.754.226-4.894Zm-8.013-4.693c-1.103,0-2-.897-2-2s.897-2,2-2,2,.897,2,2-.897,2-2,2Zm-3.5-9c1.103,0,2,.897,2,2,0,.091-.027.178-.039.267-.743.242-1.416.635-1.961,1.171-.545-.536-1.219-.928-1.961-1.171-.012-.089-.039-.176-.039-.267,0-1.103.897-2,2-2Zm-3.5,5c1.103,0,2,.897,2,2s-.897,2-2,2-2-.897-2-2,.897-2,2-2Zm-.385,10.057c-.682.686-1.146,1.536-1.448,2.251-.971-.203-1.727-.28-2.745-.21.071-1.029-.007-1.79-.21-2.771.713-.303,1.562-.77,2.246-1.457.358-.359.653-.764.899-1.17.518.182,1.065.3,1.644.3.712,0,1.386-.154,2-.424v1.867c-.892.384-1.695.92-2.385,1.614Zm11.964,2.042c-1.016-.068-1.772.008-2.745.21-.301-.715-.766-1.566-1.448-2.251-.731-.734-1.645-1.212-2.385-1.512v-1.969c.614.269,1.288.424,2,.424.579,0,1.127-.118,1.644-.3.246.407.541.811.899,1.17.684.687,1.533,1.154,2.246,1.457-.204.982-.281,1.742-.21,2.771Z"/></svg>
