<?xml version="1.0" encoding="UTF-8"?>
<svg xmlns="http://www.w3.org/2000/svg" id="Layer_1" data-name="Layer 1" viewBox="0 0 24 24">
  <path d="m4.489,13.5c-.456.604-1.173,1-1.989,1-1.381,0-2.5-1.119-2.5-2.5s1.119-2.5,2.5-2.5c.815,0,1.532.396,1.989,1h2.766c-.151.476-.254.974-.254,1.5s.104,1.024.254,1.5h-2.766Zm17.011-4c-.815,0-1.532.396-1.989,1h-2.766c.151.476.254.974.254,1.5s-.104,1.024-.254,1.5h2.766c.456.604,1.173,1,1.989,1,1.381,0,2.5-1.119,2.5-2.5s-1.119-2.5-2.5-2.5Zm-4.292,8.117l-1.446-2.356c-.673.774-1.562,1.32-2.556,1.569l1.446,2.356c-.276.705-.238,1.523.188,2.218.722,1.177,2.262,1.545,3.438.823s1.545-2.262.823-3.438c-.427-.695-1.139-1.099-1.893-1.172ZM6.792,6.383l1.446,2.356c.673-.774,1.562-1.32,2.556-1.569l-1.446-2.356c.276-.705.238-1.523-.188-2.218-.722-1.177-2.262-1.545-3.438-.823-1.177.722-1.545,2.262-.823,3.438.427.695,1.139,1.099,1.893,1.172Zm8.978,2.366l1.453-2.352c.754-.071,1.468-.473,1.896-1.166.726-1.175.362-2.715-.813-3.441-1.175-.726-2.715-.362-3.441.813-.428.694-.468,1.512-.194,2.218l-1.453,2.352c.994.252,1.882.801,2.552,1.576Zm-7.541,6.501l-1.453,2.352c-.754.071-1.468.473-1.896,1.166-.726,1.175-.362,2.715.813,3.441,1.175.726,2.715.362,3.441-.813.428-.694.468-1.512.194-2.218l1.453-2.352c-.994-.252-1.882-.801-2.552-1.576Zm6.771-3.25c0-1.657-1.343-3-3-3s-3,1.343-3,3,1.343,3,3,3,3-1.343,3-3Z"/>
</svg>
