<?xml version="1.0" encoding="UTF-8"?>
<svg xmlns="http://www.w3.org/2000/svg" id="Layer_1" data-name="Layer 1" viewBox="0 0 24 24">
  <path d="M7.101,21H24v3H0v-3H.924c.012-1.237-.099-2.762-.924-4,1.617,.566,2.468,2.084,2.915,3.384,.042-1.572,.038-3.993-.915-5.422,1.815,.635,2.667,2.826,3.062,4.492,.44-1.314,1.293-2.877,2.938-3.453-1.067,1.6-.945,3.69-.899,5Zm1.413-7l1.77-1.766s-3.381-2.894-6.283-1.5c2.148,.432,3.655,2.406,4.514,3.266ZM14,4.013c-3.209-.263-5.331,3.648-5.331,3.648l2.284,1.016c.494-1.111,1.195-3.493,3.047-4.664Zm5,14.487c-.048,3.244,5.047,3.244,5,0,.048-3.244-5.047-3.244-5,0ZM20.301,0l-2.935,13c-3.641-.493-4.725,.847-5.527,3.095-1.364-.159-2.864,.638-2.838,2.405-.045,3.066,4.498,3.23,4.957,.5h3.093c-.019-.166-.05-.329-.05-.5,0-2.017,1.336-3.704,3.164-4.275l2.535-11.225h1.301V0h-3.699Z"/>
</svg>
