<?xml version="1.0" encoding="UTF-8"?>
<svg xmlns="http://www.w3.org/2000/svg" id="Layer_1" data-name="Layer 1" viewBox="0 0 24 24">
  <path d="m10,2c0-1.105.895-2,2-2s2,.895,2,2c0,.738-.405,1.376-1,1.723v3.387l-1,.571-1-.571v-3.387c-.595-.346-1-.984-1-1.723Zm10.5,13c-.362,0-.697.104-.99.272l-2.68-1.679-1.015.544-.047,1.151,2.732,1.712s0,0,0,0c0,1.105.895,2,2,2s2-.895,2-2-.895-2-2-2Zm-12.268.287l-.047-1.151-1.015-.544-2.68,1.679c-.293-.168-.628-.272-.99-.272-1.105,0-2,.895-2,2s.895,2,2,2,2-.895,2-2c0,0,0,0,0,0l2.732-1.712Zm8.372,2.59l-3.104,1.773v-6.78l5.993-3.424-.015,3.703c.328-.087.667-.149,1.022-.149.722,0,1.391.207,1.977.544l.023-7.556-6.526-3.73c-.07,1.075-.557,2.029-1.31,2.706l3.313,1.893-5.977,3.415-5.977-3.415,3.313-1.893c-.753-.678-1.24-1.631-1.31-2.706L1.5,5.987v7.569c.591-.344,1.268-.556,2-.556.34,0,.664.055.979.136l.014-3.697,6.007,3.432v6.817l-3.113-1.779c-.24,1.026-.872,1.899-1.734,2.453l6.315,3.62,6.357-3.633c-.86-.56-1.489-1.44-1.721-2.471Z"/>
</svg>
