<svg id="Layer_1" viewBox="0 0 24 24" xmlns="http://www.w3.org/2000/svg" data-name="Layer 1"><path d="m10.015 21c.061 1.13.484 2.167 1.164 3h-8.179v-3zm-7.015-5.621v-3.019l2.325 2.322 2.113-2.129-3.318-3.294c-.206-.389-.173-.79.239-1.115.314-.224.816-.143 1.14.18l3.769 3.769c.472.473.732 1.101.732 1.768v5.138h.214c.413-1.812 1.423-3.548 2.786-4.836v-.302c0-.601-.119-1.179-.303-1.733l3.886-3.886c.324-.323.85-.324 1.174 0 .271.271.317.694.123 1.017l-.745.74h4.865v-7.499c0-1.465-1.265-2.639-2.761-2.487-1.301.132-2.239 1.326-2.239 2.633v2.372c-.923.041-1.835.4-2.538 1.104l-3.462 3.462-3.38-3.381c-.733-.731-1.672-1.122-2.62-1.174v-2.382c0-1.308-.939-2.501-2.239-2.634-1.496-.152-2.761 1.022-2.761 2.487v14.121l2.379 2.379h4.242zm21 5.343c0-2.605-2.055-5.702-4.688-6.514.604-.544 1.188-1.302 1.188-2.208h-5c0 .906.585 1.665 1.188 2.208-2.633.812-4.688 3.908-4.688 6.514 0 1.807 1.53 3.277 3.409 3.277h1.875v-1h-.201c-1.106 0-2.017-.852-2.11-1.934h1.492c.079.266.327.461.618.461h1.958c.291 0 .529-.237.529-.529 0-.251-.179-.469-.425-.519l-2.571-.515c-.933-.187-1.609-1.012-1.609-1.963 0-1.104.898-2.002 2.001-2.002h.318v-1h1.44v1h.201c1.106 0 2.017.852 2.11 1.934h-1.492c-.079-.266-.327-.461-.618-.461h-1.959c-.291 0-.528.237-.528.528 0 .251.179.469.425.518l2.572.515c.933.186 1.609 1.012 1.609 1.963 0 1.104-.898 2.002-2.002 2.002h-.317v1h1.867c1.88 0 3.409-1.471 3.409-3.278z"/></svg>