<svg id="Layer_1" viewBox="0 0 24 24" xmlns="http://www.w3.org/2000/svg" data-name="Layer 1"><path d="m11 5.441v-2.441h3.738c.297 0 .585.087.832.252l2.502 1.667 1.664-2.496-2.502-1.667c-.742-.495-1.605-.756-2.496-.756h-6.238c-1.93 0-3.5 1.57-3.5 3.5v1.941c-3.005 1.501-5 4.626-5 8.059v10.5h16v-10.5c0-3.433-1.995-6.558-5-8.059zm2 15.559h-10v-7.5c0-2.402 1.472-4.564 3.64-5.5h2.72c2.168.936 3.64 3.098 3.64 5.5zm-3.232-7.271c.976.976.976 2.559 0 3.536-.488.488-1.128.732-1.768.732s-1.28-.244-1.768-.732c-.976-.976-.976-2.559 0-3.536l1.768-1.729zm11.232-5.729c1.105 0 2 .895 2 2s-.895 2-2 2-2-.895-2-2 .895-2 2-2zm3 12.5c0 1.933-1.567 3.5-3.5 3.5-.981 0-1.865-.406-2.5-1.056v-8.564c.358-.24.787-.38 1.25-.38 1.243 0 2.25 1.007 2.25 2.25 0 .305-.062.594-.172.859 1.531.374 2.672 1.745 2.672 3.391z"/></svg>