<?xml version="1.0" encoding="UTF-8"?>
<svg xmlns="http://www.w3.org/2000/svg" id="Layer_1" data-name="Layer 1" viewBox="0 0 24 24">
  <path d="m9.212,14.044l1.896,1.896-2.121,2.121-2.257-2.257c-.471-.471-.729-1.096-.729-1.76s.259-1.291.729-1.761l2.254-2.254,2.121,2.121-1.893,1.894Zm5.804-4.015l-2.121,2.121,1.893,1.894-1.896,1.896,2.121,2.121,2.258-2.258c.47-.47.728-1.095.728-1.759s-.259-1.291-.729-1.76l-2.255-2.255Zm8.984,3.971c0,4.411-3.589,8-8,8H6c-3.309,0-6-2.691-6-6,0-1.811.827-3.502,2.213-4.63-.133-.859-.213-1.795-.213-2.37C2,4.514,5.554,1,10.091,1c3.25,0,6.225,2.084,7.524,5.171,3.651.754,6.385,4.018,6.385,7.829Zm-3,0c0-2.593-2.026-4.78-4.611-4.979l-1.21-.093-.149-1.105c-.708-2.221-2.768-3.822-4.939-3.822-2.902,0-5.091,2.149-5.091,5,0,.611.147,1.954.329,2.704l.273,1.124-1.017.55c-.978.529-1.585,1.534-1.585,2.622,0,1.654,1.346,3,3,3h10c2.757,0,5-2.243,5-5Z"/>
</svg>
