<svg id="Layer_1" viewBox="0 0 24 24" xmlns="http://www.w3.org/2000/svg" data-name="Layer 1"><path d="m14 2.5c0-1.381 1.119-2.5 2.5-2.5s2.5 1.119 2.5 2.5-1.119 2.5-2.5 2.5-2.5-1.119-2.5-2.5zm4 6.5v6h6v9h-3v-6h-4.5c-.982 0-1.867-.409-2.503-1.062 0 .021.003.041.003.062 0 3.859-3.14 7-7 7s-7-3.141-7-7 3.14-7 7-7c2.548 0 4.775 1.373 6 3.413v-4.413c0-1.654 1.346-3 3-3h8v3zm-11 4c-.206 0-.404.031-.602.061-.007.099-.017.197-.017.297 0 2.35 1.912 4.262 4.262 4.262.1 0 .198-.023.297-.03.029-.194.06-.387.06-.589 0-.438-.088-.853-.219-1.248-1.238-.325-2.208-1.295-2.533-2.533-.395-.131-.81-.219-1.248-.219zm0 8c.741 0 1.428-.216 2.024-.569-2.705-.619-4.835-2.75-5.455-5.454-.353.596-.569 1.282-.569 2.024 0 2.206 1.794 4 4 4z"/></svg>