<?xml version="1.0" encoding="UTF-8"?>
<svg xmlns="http://www.w3.org/2000/svg" id="Layer_1" data-name="Layer 1" viewBox="0 0 24 24">
  <path d="m20.5,1H3.5C1.57,1,0,2.57,0,4.5v18.5h24V4.5c0-1.93-1.57-3.5-3.5-3.5Zm-11,2c.828,0,1.5.672,1.5,1.5s-.672,1.5-1.5,1.5-1.5-.672-1.5-1.5.672-1.5,1.5-1.5Zm-5,0c.828,0,1.5.672,1.5,1.5s-.672,1.5-1.5,1.5-1.5-.672-1.5-1.5.672-1.5,1.5-1.5Zm16.5,17H3v-12h18v12Zm-3-2h-3v-8h3v8Zm-12-4v-4h3v4c0,.551.449,1,1,1s1-.449,1-1v-4h3v4c0,2.206-1.794,4-4,4s-4-1.794-4-4Z"/>
</svg>
