<?xml version="1.0" encoding="UTF-8"?>
<svg xmlns="http://www.w3.org/2000/svg" id="Layer_1" data-name="Layer 1" viewBox="0 0 24 24">
  <path d="m15.5,17h-7s0-.407,0-.909c0-1.901,1.212-3.274,2.223-4.091-1.012-.817-2.223-2.19-2.223-4.091,0-.502.399-.909.891-.909h5.218c.492,0,.891.407.891.909,0,1.895-1.204,3.272-2.214,4.091,1.01.819,2.214,2.196,2.214,4.091,0,.502,0,.909,0,.909ZM7.135,4.427l-1.624-2.522c-.962.62-1.83,1.372-2.58,2.238l2.267,1.965c.563-.65,1.215-1.215,1.938-1.68Zm4.865-1.427V0c-1.15,0-2.288.163-3.381.483l.845,2.879c.819-.24,1.672-.362,2.536-.362ZM3.09,13.283l-2.97.424c.162,1.135.485,2.239.962,3.281l2.729-1.248c-.357-.78-.599-1.606-.721-2.457Zm.721-5.021l-2.729-1.248c-.477,1.042-.8,2.146-.961,3.28l2.97.423c.121-.849.363-1.675.72-2.455ZM19.969,3.031l2.031-2.031h-4.909c-.602,0-1.091.488-1.091,1.091v4.909l1.837-1.837c1.99,1.702,3.163,4.193,3.163,6.837,0,4.962-4.037,9-9,9-2.557,0-5.002-1.094-6.708-3l-2.235,2.001c2.275,2.542,5.535,4,8.944,4,6.617,0,12-5.383,12-12,0-3.446-1.486-6.705-4.031-8.969Z"/>
</svg>
