<?xml version="1.0" encoding="UTF-8"?>
<svg xmlns="http://www.w3.org/2000/svg" id="Layer_1" data-name="Layer 1" viewBox="0 0 24 24">
  <path d="m20.5,0H3.5C1.57,0,0,1.57,0,3.5v4l1.12,13.5h2.93c-.033.162-.05.329-.05.5,0,1.381,1.119,2.5,2.5,2.5s2.5-1.119,2.5-2.5c0-.171-.018-.338-.05-.5h1.639c-.377-.927-.589-1.939-.589-3H3.88l-.75-9h17.739l-.07.835c.886.769,1.895,1.653,2.789,2.667l.406-4.878c.003-.042.005-4.125.005-4.125,0-1.93-1.57-3.5-3.5-3.5Zm.5,3.5v2.5h-2v-3h1.5c.275,0,.5.224.5.5Zm-7.5-.5h2.5v3h-2.5v-3Zm-3,3h-2.5v-3h2.5v3ZM3.5,3h1.5v3h-2v-2.5c0-.276.225-.5.5-.5Zm14.5,7c-1.821,2.103-1.455,6-2.718,6-.606,0-1.287-2.087-1.287-2.087-.995,1.027-1.995,2.361-1.995,4.087,0,3.314,2.686,6,6,6s6-2.686,6-6c0-3.474-4.105-6.105-6-8Zm1.414,11.414c-.781.781-2.048.781-2.829,0-.781-.782-.781-2.048,0-2.829l1.415-1.415,1.415,1.415h0c.781.782.781,2.048,0,2.829Z"/>
</svg>
