<?xml version="1.0" encoding="UTF-8"?>
<svg xmlns="http://www.w3.org/2000/svg" id="Layer_1" data-name="Layer 1" viewBox="0 0 24 24">
  <path d="m24,10.164v2.827c-.936-1.162-2.202-2.36-3.191-3.221,0,0,0,0,0,0h0S12.308,3.118,12.308,3.118c-.182-.142-.434-.142-.615,0L3.192,9.77c-.122.096-.192.239-.192.394v10.824h7.585c.469,1.161,1.205,2.183,2.128,3H0v-13.824c0-1.084.489-2.089,1.344-2.757L9.843.756c1.27-.994,3.043-.994,4.314,0l8.5,6.652h0c.854.668,1.343,1.673,1.343,2.756Zm0,7.836c0,3.314-2.686,6-6,6s-6-2.686-6-6c0-1.725,1-3.06,1.995-4.087,0,0,.681,2.087,1.287,2.087,1.263,0,.897-3.898,2.718-6,1.895,1.895,6,4.526,6,8Zm-4.586.585h0l-1.415-1.415-1.415,1.415c-.781.781-.781,2.048,0,2.829.781.781,2.048.781,2.829,0,.781-.781.781-2.048,0-2.829Z"/>
</svg>
