<?xml version="1.0" encoding="UTF-8"?>
<svg xmlns="http://www.w3.org/2000/svg" id="Layer_1" data-name="Layer 1" viewBox="0 0 24 24">
  <path d="m15.962,15h3v3h-1.762l-1.238-2.241v-.759ZM21.225.09c-.011-.003-.022-.008-.033-.01-.236-.05-.48-.079-.73-.079h-11c-.251,0-.495.029-.73.079-.011.003-.022.008-.033.01-1.563.35-2.736,1.744-2.736,3.41v3.35l2.127-3.85h12.373c.275,0,.5.224.5.5v17.5h-1.962v3h4.962V3.5c0-1.667-1.174-3.06-2.736-3.41Zm-7.264,4.91h-2.972l-.016,1.732.701,1.268h2.287v-3Zm-5.462,1.392l8.5,15.381v2.22H0v-2.22L8.5,6.392Zm4.642,14.601l-2.511-4.544-1.095,1.552-1.018-1.6-1.018,1.6-1.115-1.58-2.527,4.572h9.283Zm2.82-12.993h3v-3h-3v3Zm0,5h3v-3h-3v3Z"/>
</svg>
