<?xml version="1.0" encoding="UTF-8"?>
<svg xmlns="http://www.w3.org/2000/svg" id="Layer_1" data-name="Layer 1" viewBox="0 0 24 24">
  <path d="M17.5,11c-3.59,0-6.5,2.91-6.5,6.5s2.91,6.5,6.5,6.5,6.5-2.91,6.5-6.5-2.91-6.5-6.5-6.5Zm3.5,8h-4v3l-3.707-3.793c-.39-.391-.39-1.024,0-1.414l3.707-3.793v3h4v3Zm-11.86,0h-1.261s-5.483,2.925-5.483,2.925C1.227,22.286-.013,21.355,.005,20.129l-.005-16.622C-.04,1.631,1.623-.034,3.5,.005L18.499,.001c1.882-.04,3.54,1.618,3.501,3.5v6.797c-.901-.565-1.914-.964-3-1.158V3.501c-.051-.345-.155-.449-.5-.5h0l-15,.004c-.341,.051-.45,.16-.5,.501l.005,14.718,4.116-2.225h2.02c-.087,.488-.14,.987-.14,1.5s.053,1.012,.14,1.5Z"/>
</svg>
