<svg id="Layer_1" viewBox="0 0 24 24" xmlns="http://www.w3.org/2000/svg" data-name="Layer 1"><path d="m11.491 15-.731.731c-.66.66-1.113 1.442-1.402 2.269h-4.358v-3zm-6.491-2h8.491l1.509-1.508v-1.492h-10zm-2 8v-18h9v5h5v1.819c.928-.532 1.96-.82 3-.817v-3.338l-5.619-5.664h-11.381c-1.654 0-3 1.346-3 3v21h10.564c-.786-.872-1.281-1.91-1.466-3zm10.595.405c-.783-.783-.783-2.057 0-2.84l1.42-1.42c.784-.783 2.058-.783 2.84 0l1.42-1.42c-1.566-1.566-4.114-1.566-5.68 0l-1.42 1.42c-1.566 1.566-1.566 4.113-.002 5.679 0 0 0 .001.001.002 1.566 1.566 4.115 1.566 5.681 0l.384-.384c-.825-.044-1.641-.254-2.394-.635-.74.336-1.642.206-2.25-.402zm9.231-9.23s0 0 0 0c-1.566-1.566-4.114-1.566-5.681 0l-.384.384c.825.044 1.641.254 2.394.635.74-.336 1.642-.206 2.25.402.782.783.782 2.057 0 2.84l-1.42 1.42c-.784.783-2.058.783-2.841 0l-1.42 1.42c.783.783 1.811 1.174 2.84 1.174s2.057-.391 2.84-1.174l1.42-1.42c1.566-1.566 1.566-4.114 0-5.68z"/></svg>