<svg id="Layer_1" viewBox="0 0 24 24" xmlns="http://www.w3.org/2000/svg" data-name="Layer 1"><path d="m24 5.514c0-3.033-2.467-5.5-5.5-5.5s-5.5 2.467-5.5 5.5v5.5h5.5c3.033 0 5.5-2.467 5.5-5.5zm-5-2.514h1v3h1v-3h1v5h-1v-1h-1c-.551 0-1-.449-1-1zm-1 4v1h-3v-.5c0-1 .666-1.499 1.2-1.9.511-.383.8-.624.8-1.1 0-.276-.224-.5-.5-.5s-.5.224-.5.5h-1c0-.827.673-1.5 1.5-1.5s1.5.673 1.5 1.5c0 1-.666 1.499-1.2 1.9-.298.224-.521.398-.654.6zm-3.673 7.89c-2.327-1.097-4.042-2.818-5.206-5.227l2.963-2.963-6.642-6.642-3.643 3.644c-1.139 1.136-1.767 2.672-1.767 4.323 0 7.152 8.791 15.943 15.943 15.943 1.652 0 3.188-.627 4.322-1.765l3.646-3.645-6.642-6.641zm3.847 5.193c-.569.57-1.35.885-2.199.885-4.993 0-12.942-7.067-12.942-12.942 0-.849.314-1.63.886-2.201l1.524-1.524 2.399 2.398-2.268 2.268c1.587 4.638 4.915 7.995 9.472 9.446l2.255-2.255 2.398 2.399-1.525 1.525z"/></svg>