<?xml version="1.0" encoding="UTF-8"?>
<svg xmlns="http://www.w3.org/2000/svg" id="Layer_1" data-name="Layer 1" viewBox="0 0 24 24">
  <path d="m13.01,17.51c.558.558.558,1.463,0,2.021-.558.558-1.462.558-2.02,0-.558-.558-.558-1.463,0-2.021l1.01-1.01,1.01,1.01h0Zm10.99,3.49v3H0v-3h1V4L.052,2.114C-.217,1.04.595,0,1.702,0h20.595c1.107,0,1.919,1.04,1.651,2.114l-.948,1.886v17h1Zm-8-4c0-2.316-2.737-3.728-4-4.991-1.214,1.402-.188,3.991-2,3.991-.855,0-.67-1.725-.67-1.725-.664.685-1.33,1.574-1.33,2.725,0,2.209,1.791,4,4,4s4-1.791,4-4Zm4-13H4v17h2v-11s2.686-2,6-2,6,2,6,2v11h2V4Z"/>
</svg>
