<?xml version="1.0" encoding="UTF-8"?>
<svg xmlns="http://www.w3.org/2000/svg" id="Layer_1" data-name="Layer 1" viewBox="0 0 24 24">
  <path d="m21.838,1.051c-2.376,1.169-4.897,1.135-7.333,1.103-3.291-.043-6.712-.089-9.576,2.775-3.539,3.539-3.866,9.091-.981,13.002L.004,21.875l2.121,2.121,3.943-3.943c1.708,1.264,3.767,1.947,5.932,1.947,2.672,0,5.183-1.04,7.071-2.929,4.547-4.548,4.929-10.991,4.929-16.673V-.012l-2.162,1.063Zm-4.888,15.898c-1.322,1.322-3.08,2.05-4.95,2.05s-3.628-.728-4.95-2.05c-2.729-2.729-2.729-7.17,0-9.899,1.696-1.696,3.717-1.907,6.189-1.907.397,0,.806.005,1.226.011,2.017.026,4.232.057,6.503-.577-.168,5.26-1.055,9.409-4.018,12.372Zm-2.181-9.075c1.243,0,2.25,1.108,2.25,2.475,0,2.592-4.5,5.775-4.5,5.775,0,0-4.5-3.183-4.5-5.775,0-1.367,1.007-2.475,2.25-2.475s2.25,1.108,2.25,2.475c0-1.367,1.007-2.475,2.25-2.475Z"/>
</svg>
