<?xml version="1.0" encoding="UTF-8"?>
<svg xmlns="http://www.w3.org/2000/svg" id="Layer_1" data-name="Layer 1" viewBox="0 0 24 24">
  <path d="m11,5c-3.309,0-6,2.691-6,6s2.691,6,6,6,6-2.691,6-6-2.691-6-6-6Zm0,9c-1.654,0-3-1.346-3-3s1.346-3,3-3,3,1.346,3,3-1.346,3-3,3Zm12.461,2.135l-1.461,7.865h-3l-1.461-7.865c-.099-.594.359-1.135.961-1.135h.5v-4c0-4.411-3.589-8-8-8S3,6.589,3,11s3.589,8,8,8c1.777,0,3.415-.59,4.744-1.574l.592,3.185c-1.582.882-3.4,1.389-5.336,1.389C4.935,22,0,17.065,0,11S4.935,0,11,0s11,4.935,11,11v4h.5c.602,0,1.06.541.961,1.135Z"/>
</svg>
