<svg id="Layer_1" viewBox="0 0 24 24" xmlns="http://www.w3.org/2000/svg" data-name="Layer 1"><path d="m24 6v15.621l-2.379 2.379h-4.242l3.621-3.621v-2.996l-3.325 3.3-2.113-2.129 3.318-3.293c.194-.322.147-.746-.123-1.017-.324-.324-.85-.324-1.174 0l-3.886 3.886c.184.554.303 1.132.303 1.733v4.138h-3v-4.138c0-.667-.26-1.296-.732-1.768l-3.769-3.769c-.324-.325-.825-.404-1.139-.18-.412.325-.446.725-.24 1.115l3.319 3.294-2.113 2.129-3.325-3.321v3.017l3.621 3.621h-4.243l-2.379-2.379v-15.622c0-1.172 1.012-2.111 2.208-1.989 1.041.106 1.792 1.061 1.792 2.107v5.364c1.464-.791 3.376-.522 4.62.722l3.38 3.38 3.462-3.462c1.228-1.229 3.085-1.429 4.538-.636v-5.369c0-1.046.751-2.001 1.792-2.107 1.196-.122 2.208.818 2.208 1.989zm-15.946 2c1.057 0 1.928-.799 2.042-1.826h.013v-.575l-.93-2.599h1.821v6h-3v2h8v-2h-3v-6h1.842l-.842 2.664v.336c0 1.104.895 2 2 2s2-.896 2-2v-.336l-1.5-4.664h-3.5v-1h-2v1h-3.5l-1.5 4.612v.333c0 1.134.919 2.054 2.054 2.054z"/></svg>