<svg id="Layer_1" viewBox="0 0 24 24" xmlns="http://www.w3.org/2000/svg" data-name="Layer 1"><path d="m21.922 20.615c-.244-.128-.372-.256-.442-.327-.509-.51-.858-1.198-.983-1.941-.312-1.84-1.7-3.229-3.54-3.54-.743-.125-1.432-.475-1.941-.983-.509-.509-.858-1.198-.983-1.941-.289-1.713-1.563-3.026-3.408-3.512-.64-.168-.978-.38-1.316-.687.427-.684.678-1.437.693-2.203.016-.856-.235-2.146-1.516-3.427-.931-.931-2.269-1.63-3.67-1.917-1.626-.336-3.04-.044-3.88.799-.842.841-1.134 2.254-.801 3.877.288 1.402.987 2.74 1.917 3.67 1.245 1.246 2.499 1.517 3.354 1.517.553.001 1.098-.124 1.619-.343.611.606 1.38 1.231 2.833 1.614.323.085 1.088.363 1.214 1.111.229 1.352.875 2.617 1.821 3.562s2.211 1.593 3.562 1.821c.57.096.985.511 1.081 1.081.229 1.352.875 2.616 1.821 3.562 1.07 1.07 2.589 1.591 4.642 1.591v-.131c0-1.397-.842-2.604-2.078-3.254zm-16.497-13.615c-.511-.021-.955-.342-1.251-.639-1.085-1.084-1.335-2.942-1.145-3.281.089-.055.253-.084.468-.084.728 0 2.027.34 2.865 1.178.296.296.647.753.638 1.251-.008.444-.29.816-.524 1.051-.235.234-.607.516-1.051.524zm9.575 17h-2c-1.817 0-2.676-.486-3.405-1.215-.696-.695-1.172-1.625-1.339-2.617-.026-.156-.131-.261-.288-.288-.878-.147-1.698-.548-2.36-1.12-1.166.47-2.514.259-3.764-.991-1.749-1.749-2.423-5.056-1.277-6.202s4.453-.472 6.201 1.277c1.255 1.255 1.464 2.609.986 3.778.215.142.453.257.712.3 1.407.238 2.51 1.342 2.747 2.747.064.376.247.738.501.993h-.001s.002 0 .002 0c.04.04.22.078.476.114 1.608.224 2.808 1.6 2.808 3.223zm9-12v2h-.097c-1.521 0-2.778-1.079-3.146-2.555-.028-.114-.06-.195-.094-.229v-.002s0 .001 0 .001c-.255-.255-.617-.438-.994-.501-1.404-.237-2.508-1.34-2.745-2.746-.017-.103-.063-.197-.097-.295-1.213.591-2.654.424-3.982-.904-1.749-1.748-2.423-5.055-1.277-6.201s4.453-.472 6.201 1.277c1.125 1.125 1.411 2.33 1.116 3.41.505.636.859 1.401.996 2.216.026.155.131.26.286.286.993.167 1.923.643 2.618 1.339.601.601 1.215 1.417 1.215 2.905z"/></svg>