<?xml version="1.0" encoding="UTF-8"?>
<svg xmlns="http://www.w3.org/2000/svg" id="Layer_1" data-name="Layer 1" viewBox="0 0 24 24">
  <path d="m4,8h3v1.6h-1.4v1.801h1.4v1.6h-1.4v3h-1.6v-8Zm14.6,0h-1.6v8h3v-1.6h-1.4v-6.4Zm-4.6,8h1.6v-8h-1.6v8Zm-1.839-6.373l1.339,6.373h-1.632l-.295-1.4h-2.379l-.309,1.4h-1.584l1.365-6.418c.116-.58.455-1.079.926-1.356.255-.15.535-.225.816-.225.242,0,.486.056.718.168.512.246.9.791,1.035,1.459Zm-.924,3.373l-.641-3.044c-.047-.231-.118-.349-.185-.355s-.146.146-.176.296l-.686,3.104h1.688Zm12.764-6.5v14.5H0V6.5c0-1.93,1.57-3.5,3.5-3.5h17c1.93,0,3.5,1.57,3.5,3.5Zm-3,0c0-.275-.225-.5-.5-.5H3.5c-.276,0-.5.225-.5.5v11.5h18V6.5Z"/>
</svg>
