<svg id="Layer_1" viewBox="0 0 24 24" xmlns="http://www.w3.org/2000/svg" data-name="Layer 1"><path d="m17.282 10.902-4.261 2.02v-3.857c1.692.196 3.188.866 4.261 1.837zm-11.777 1.558c-.323.632-.505 1.319-.505 2.04 0 .704.176 1.376.484 1.995l4.225-2.003zm8.836 2.05 4.162 2.012c.317-.627.497-1.308.497-2.023 0-.696-.172-1.36-.474-1.974l-4.185 1.984zm-1.32 5.424c1.671-.193 3.149-.85 4.219-1.801l-4.219-2.04v3.84zm-2-7.029v-3.845c-1.681.186-3.169.84-4.246 1.792zm0 7.034v-3.856l-4.284 2.031c1.08.97 2.584 1.637 4.284 1.825zm12.979-17.085-1.949 3.898 1.949 13.748v3.5h-24l.015-3.712 1.934-13.536-1.949-3.898v-2.854h24zm-20.573.146 1 2h15.146l1-2zm17.573 17.606-1.801-12.606h-14.398l-1.801 12.606v.394h18z"/></svg>