<?xml version="1.0" encoding="UTF-8"?>
<svg xmlns="http://www.w3.org/2000/svg" id="Layer_1" data-name="Layer 1" viewBox="0 0 24 24">
  <path d="m12,14c3.314,0,6-2.686,6-6,0-3.474-4.105-6.105-6-8-1.821,2.103-1.455,6-2.718,6-.606,0-1.287-2.087-1.287-2.087-.995,1.027-1.995,2.361-1.995,4.087,0,3.314,2.686,6,6,6Zm-1.415-5.415l1.415-1.415,1.415,1.415h0c.781.782.781,2.048,0,2.829s-2.048.781-2.829,0c-.781-.782-.781-2.048,0-2.829Zm11.415,7.415v-1.5c0-1.629-1.125-2.991-2.635-3.379-.473,1.112-1.196,2.091-2.092,2.879h1.226c.275,0,.5.225.5.5v1.5H5v-1.5c0-.275.225-.5.5-.5h1.226c-.895-.788-1.618-1.766-2.092-2.879-1.51.388-2.635,1.749-2.635,3.379v1.5H0v8h24v-8h-2Zm-9,3v2h-2v-2h2Zm-10,0h5v2H3v-2Zm18,2h-5v-2h5v2Z"/>
</svg>
