<svg id="Layer_1" viewBox="0 0 24 24" xmlns="http://www.w3.org/2000/svg" data-name="Layer 1"><path d="m24 3h-4.379l-1.621-1.621-2 2-2-2-2 2-2-2-2 2-2-2-1.621 1.621h-4.379v4h2v2h-2v2h2v2h-2v2h2v2h-2v4h4.379l1.621 1.621 2-2 2 2 2-2 2 2 2-2 2 2 1.621-1.621h4.379zm-19 14.379v-10.758l1-1 1 1v10.758l-1 1zm4 0v-10.758l1-1 1 1v10.758l-1 1zm4 0v-10.758l1-1 1 1v10.758l-1 1zm4 0v-10.758l1-1 1 1v10.758l-1 1zm4.5.621c-.828 0-1.5-.672-1.5-1.5s.672-1.5 1.5-1.5 1.5.672 1.5 1.5-.672 1.5-1.5 1.5zm0-4.5c-.828 0-1.5-.672-1.5-1.5s.672-1.5 1.5-1.5 1.5.672 1.5 1.5-.672 1.5-1.5 1.5zm0-4.5c-.828 0-1.5-.672-1.5-1.5s.672-1.5 1.5-1.5 1.5.672 1.5 1.5-.672 1.5-1.5 1.5z"/></svg>