<?xml version="1.0" encoding="UTF-8"?>
<svg xmlns="http://www.w3.org/2000/svg" id="Layer_1" data-name="Layer 1" viewBox="0 0 24 24">
  <path d="m24,20h-2v2h-3v-2h-5v-3h7v-2h-2v-3h2v-4h-2v-3h2v-1.5c0-.276-.224-.5-.5-.5H3.5c-.276,0-.5.224-.5.5v.911c-1.172.336-2.191.867-3,1.547v-2.76C0,1.5,1.674,0,3.5,0h17c1.93,0,3.5,1.57,3.5,3.5v16.5Zm-10-5.333c1.893-.712,3.246-2.525,3.246-4.667,0-2.761-2.239-5-5-5-.469,0-.916.078-1.344.199,1.905,1.076,3.098,2.791,3.098,4.801v4.667Zm-2-4.667v10.25c0,2.173-2.523,3.75-6,3.75s-6-1.577-6-3.75v-10.25c0-2.28,2.58-4,6-4s6,1.72,6,4Zm-9,.014v.006c.086.248,1.127.98,3,.98,1.842,0,2.881-.708,2.996-1-.115-.292-1.154-1-2.996-1-1.873,0-2.914.732-3,1.014Zm0,4.986c.078.263,1.121,1,3,1s2.914-.732,3-1.014v-1.491c-.873.322-1.891.505-3,.505s-2.127-.183-3-.505v1.505Zm6,5.162v-1.667c-.873.322-1.891.505-3,.505s-2.127-.183-3-.505v1.667c.217.275,1.275.838,3,.838s2.783-.563,3-.838Z"/>
</svg>
