<?xml version="1.0" encoding="UTF-8"?>
<svg xmlns="http://www.w3.org/2000/svg" id="Layer_1" data-name="Layer 1" viewBox="0 0 24 24">
  <path d="M3.142,6H.08C.568,2.613,3.481,0,7,0c2.024,0,3.84,.873,5.117,2.253,.529-.092,1.06-.186,1.589-.28,2.813-.5,5.47-.973,7.294-.973,1.654,0,3,1.346,3,3s-1.346,3-3,3c-1.556,0-2.824-1.195-2.971-2.713-1.187,.175-2.503,.409-3.798,.639-2.966,.528-6.032,1.073-8.231,1.073V3.142c-1.395,.365-2.494,1.459-2.858,2.858Zm20.858,12c0,3.309-2.691,6-6,6s-6-2.691-6-6,2.691-6,6-6,6,2.691,6,6Zm-6-3c-.267,0-.521,.046-.767,.112l3.656,3.655c.066-.246,.112-.5,.112-.767,0-1.654-1.346-3-3-3Zm0,6c.267,0,.521-.046,.767-.112l-3.656-3.655c-.066,.246-.112,.5-.112,.767,0,1.654,1.346,3,3,3Zm-7.413,0H3V11.5c0-.276,.224-.5,.5-.5h6c.569,0,1.061-.056,1.5-.149v3.279c.704-1.27,1.745-2.324,3-3.051V7s0,0,0,0c-1.019,.181-2.04,.358-3.036,.513-.084,.353-.382,.488-1.464,.488H3.5c-1.93,0-3.5,1.57-3.5,3.5v12.5H12.721c-.926-.815-1.663-1.838-2.134-3Z"/>
</svg>
