<?xml version="1.0" encoding="UTF-8"?>
<svg xmlns="http://www.w3.org/2000/svg" id="Layer_1" data-name="Layer 1" viewBox="0 0 24 24">
  <path d="m22.732,9.013c-.768-.699-1.765-1.054-2.797-1.008-1.036.048-1.991.498-2.69,1.265l-2.438,2.679c-.073-.066-.157-.118-.235-.178.265-.533.428-1.125.428-1.759,0-3.214-2.514-6.265-5.428-6.889.678-.687,1.428-1.754,1.428-3.123h-5c0,1.166.848,2.329,1.557,3.099-2.968.56-5.557,3.651-5.557,6.913,0,.435.088.847.218,1.239-1.296.514-2.218,1.773-2.218,3.249v6c0,1.93,1.57,3.5,3.5,3.5h11.181l8.334-9.532c1.41-1.581,1.283-4.027-.282-5.455Zm-14.232-3.013c1.668,0,3.5,2.1,3.5,4.012,0,.545-.448.988-1,.988h-5c-.552,0-1-.443-1-.988,0-1.912,1.832-4.012,3.5-4.012Zm12.267,6.482l-7.447,8.518H3.5c-.275,0-.5-.224-.5-.5v-6c0-.276.225-.5.5-.5h8.857c.354,0,.643.288.643.642,0,.317-.237.591-.551.636l-5.161.737.424,2.97,5.162-.737c1.618-.231,2.875-1.531,3.093-3.115l3.497-3.843c.159-.175.376-.277.612-.288.231-.012.463.071.636.229.356.325.385.881.055,1.252Z"/>
</svg>
