<svg id="Layer_1" viewBox="0 0 24 24" xmlns="http://www.w3.org/2000/svg" data-name="Layer 1"><path d="m24 13.497s-.458-.68-1.22-1.477c.762-.797 1.22-1.477 1.22-1.477s-1.259-1.222-2.975-1.222c-1.338 0-3.589.586-4.763.919 1.074-.606 3.041-1.777 3.976-2.718 1.213-1.221 1.244-2.981 1.244-2.981s-.801-.155-1.9-.176c-.021-1.106-.175-1.912-.175-1.912s-1.749.031-2.962 1.252c-.946.952-2.126 2.968-2.722 4.039.333-1.193.902-3.421.902-4.751 0-1.727-1.215-2.994-1.215-2.994s-.676.461-1.467 1.227c-.792-.767-1.467-1.227-1.467-1.227s-1.215 1.267-1.215 2.994c0 1.346.582 3.612.914 4.793-.602-1.081-1.766-3.06-2.7-4.001-1.213-1.221-2.962-1.252-2.962-1.252s-.154.807-.175 1.912c-1.099.021-1.9.176-1.9.176s.031 1.76 1.244 2.981c.946.952 2.949 2.139 4.014 2.739-1.185-.336-3.399-.908-4.721-.908-1.716 0-2.975 1.222-2.975 1.222s.458.68 1.22 1.477c-.762.797-1.22 1.477-1.22 1.477s1.259 1.223 2.975 1.223c1.338 0 3.589-.586 4.763-.919-1.074.606-3.041 1.777-3.976 2.718-1.213 1.221-1.244 2.981-1.244 2.981s.801.155 1.9.176c.021 1.106.175 1.912.175 1.912s1.749-.031 2.962-1.252c.816-.821 1.806-2.435 2.446-3.551-.326 1.24-.728 2.991-.728 4.109 0 1.727 1.215 2.994 1.215 2.994s.676-.461 1.467-1.227c.792.767 1.467 1.227 1.467 1.227s1.215-1.267 1.215-2.994c0-1.37-.602-3.69-.931-4.854.556 1.011 1.819 3.209 2.819 4.215 1.213 1.221 2.962 1.252 2.962 1.252s.154-.807.175-1.912c1.099-.021 1.9-.176 1.9-.176s-.031-1.76-1.244-2.981c-.946-.952-2.949-2.14-4.014-2.739 1.185.336 3.399.908 4.721.908 1.716 0 2.975-1.223 2.975-1.223zm-12 1.003c-1.381 0-2.5-1.119-2.5-2.5s1.119-2.5 2.5-2.5 2.5 1.119 2.5 2.5-1.119 2.5-2.5 2.5z"/></svg>