<svg id="Layer_1" viewBox="0 0 24 24" xmlns="http://www.w3.org/2000/svg" data-name="Layer 1"><path d="m9.5 2.5c0-1.381 1.119-2.5 2.5-2.5s2.5 1.119 2.5 2.5-1.119 2.5-2.5 2.5-2.5-1.119-2.5-2.5zm.5 12.1h-.9v1.8h.9c.496 0 .9-.404.9-.9s-.404-.9-.9-.9zm-5.75 0c-.358 0-.65.292-.65.65v3.5c0 .358.292.65.65.65s.65-.292.65-.65v-3.5c0-.358-.292-.65-.65-.65zm19.75-1.1v10.5h-24v-10.5c0-1.93 1.57-3.5 3.5-3.5h.029l4.72-5.014c.566.853 1.416 1.502 2.414 1.812l-3.013 3.202h8.701l-3.013-3.202c.999-.31 1.848-.959 2.414-1.812l4.72 5.014h.029c1.93 0 3.5 1.57 3.5 3.5zm-17.5 1.75c0-1.241-1.009-2.25-2.25-2.25s-2.25 1.009-2.25 2.25v3.5c0 1.241 1.009 2.25 2.25 2.25s2.25-1.009 2.25-2.25zm6 .25c0-1.381-1.119-2.5-2.5-2.5h-2.5v8h1.6v-3h.784c1.616 0 2.616-1 2.616-2.5zm3.5-2.5h-3v8h3v-1.6h-1.4v-1.6h1.4v-1.6h-1.4v-1.6h1.4zm6 0h-1.6v4.063l-1.8-4.054v-.009h-1.6v8h1.6v-4.054l1.8 4.054h1.6z"/></svg>