<?xml version="1.0" encoding="UTF-8"?>
<svg xmlns="http://www.w3.org/2000/svg" id="Layer_1" data-name="Layer 1" viewBox="0 0 24 24">
  <path d="m17.999,2.287C16.09.581,13.528-.226,10.962.059,6.91.517,3.595,3.783,3.08,7.825c-.36,2.83.857,6.01,3.105,8.102,1.173,1.092,1.819,2.466,1.819,3.87v4.204h8v-4.048c0-1.422.83-3.223,1.932-4.188,1.95-1.708,3.068-4.174,3.068-6.764,0-2.56-1.096-5.007-3.006-6.713Zm-2.039,11.221c-1.278,1.12-2.245,2.785-2.687,4.492h-2.488c-.38-1.58-1.251-3.055-2.556-4.269-1.239-1.154-2.448-3.375-2.173-5.527.342-2.688,2.547-4.859,5.242-5.164,1.743-.198,3.41.33,4.701,1.484,1.274,1.138,2.005,2.77,2.005,4.476,0,1.726-.745,3.369-2.045,4.508Zm-.555-7.621l-1.002.577c-.391-.37-.87-.642-1.398-.801v-1.163h-2v1.163c-.529.159-1.007.431-1.398.801l-1.002-.577-.998,1.733,1,.576c-.061.259-.102.526-.102.803s.041.544.102.803l-1,.576.998,1.733,1.002-.577c.391.37.869.642,1.398.801v1.163h2v-1.163c.529-.159,1.007-.431,1.398-.801l1.002.577.998-1.733-1-.576c.061-.259.102-.526.102-.803s-.041-.544-.102-.803l1-.576-.998-1.733Zm-3.4,4.613c-.827,0-1.5-.673-1.5-1.5s.673-1.5,1.5-1.5,1.5.673,1.5,1.5-.673,1.5-1.5,1.5Z"/>
</svg>
