<?xml version="1.0" encoding="UTF-8"?>
<svg xmlns="http://www.w3.org/2000/svg" id="Layer_1" data-name="Layer 1" viewBox="0 0 24 24">
  <path d="m21,0v8.5c0,.276-.224.5-.5.5h-1.5V0h-3v9h-1.5c-.276,0-.5-.224-.5-.5V0h-3v8.5c0,1.93,1.57,3.5,3.5,3.5h1.5v12h3v-12h1.5c1.93,0,3.5-1.57,3.5-3.5V0h-3Z"/>
  <path d="m3,12c0-3.909,2.51-7.233,6-8.472V.398C3.833,1.734,0,6.421,0,12c0,6.617,5.383,12,12,12,.685,0,1.348-.082,2-.197v-3.042c-.644.15-1.311.239-2,.239-4.962,0-9-4.038-9-9Z"/>
  <path d="m8,12c0-1.006.383-1.914,1-2.613v-3.693c-2.361,1.124-4,3.521-4,6.306,0,3.86,3.14,7,7,7,.697,0,1.365-.115,2-.308v-3.267c-.59.352-1.264.574-2,.574-2.206,0-4-1.794-4-4Z"/>
</svg>
