<?xml version="1.0" encoding="UTF-8"?>
<svg xmlns="http://www.w3.org/2000/svg" id="Layer_1" data-name="Layer 1" viewBox="0 0 24 24">
  <path d="M22.733,9.014c-.768-.699-1.767-1.057-2.798-1.01-1.036,.049-1.991,.498-2.69,1.266l-2.438,2.68c-.647-.59-1.507-.949-2.449-.949h-2.357v-1.537c.432-.164,.823-.399,1.174-.687l1.339,.773,1.5-2.598-1.332-.769c.036-.224,.069-.449,.069-.682s-.033-.459-.069-.682l1.332-.769-1.5-2.598-1.338,.773c-.352-.288-.743-.523-1.174-.687V0h-3V1.537c-.432,.164-.823,.4-1.174,.687l-1.338-.773-1.5,2.598,1.332,.769c-.036,.223-.069,.449-.069,.682s.033,.459,.069,.682l-1.332,.769,1.5,2.598,1.338-.773c.352,.288,.743,.523,1.174,.687v1.537H3.5c-1.93,0-3.5,1.57-3.5,3.5v6c0,1.93,1.57,3.5,3.5,3.5H14.681l8.334-9.532c1.41-1.58,1.283-4.027-.281-5.454ZM8.5,4c.827,0,1.5,.673,1.5,1.5s-.673,1.5-1.5,1.5-1.5-.673-1.5-1.5,.673-1.5,1.5-1.5Zm12.267,8.482l-7.447,8.518H3.5c-.275,0-.5-.225-.5-.5v-6c0-.275,.225-.5,.5-.5H12.357c.354,0,.643,.288,.643,.643,0,.317-.236,.591-.551,.635l-5.161,.737,.424,2.971,5.161-.737c1.619-.231,2.876-1.53,3.094-3.116l3.497-3.843c.159-.175,.376-.277,.612-.288,.25-.019,.462,.07,.636,.229,.356,.324,.385,.881,.055,1.252Z"/>
</svg>
