<?xml version="1.0" encoding="UTF-8"?>
<svg xmlns="http://www.w3.org/2000/svg" id="Layer_1" data-name="Layer 1" viewBox="0 0 24 24" width="512" height="512"><path d="M16.005,14.377l1.994,2.241c-.108,.097-2.703,2.381-5.999,2.381s-5.891-2.284-5.999-2.381l1.994-2.241c.019,.016,1.871,1.623,4.005,1.623s3.986-1.606,4.005-1.623Zm7.995-2.377c0,6.617-5.383,12-12,12S0,18.617,0,12,5.383,0,12,0s12,5.383,12,12ZM4.52,7h5.633l1,1h1.64l1-1h5.686c-1.616-2.41-4.366-4-7.48-4s-5.863,1.59-7.48,4Zm16.48,5c0-.177-.006-.352-.016-.526-.377,.907-1.273,1.526-2.283,1.526h-3.155c-1.14,0-2.129-.772-2.406-1.878l-.031-.122h-2.272l-.03,.122c-.277,1.106-1.267,1.878-2.406,1.878h-3.155c-.97,0-1.834-.571-2.235-1.418-.006,.139-.01,.278-.01,.418,0,4.962,4.037,9,9,9s9-4.038,9-9Z"/></svg>
