<?xml version="1.0" encoding="UTF-8"?>
<svg xmlns="http://www.w3.org/2000/svg" id="Layer_1" data-name="Layer 1" viewBox="0 0 24 24">
  <path d="m24,5.917l-3.3,1.909,1.326,4.029-.75.523-3.261-2.521-3.275,2.532-.721-.543,1.304-4.076-3.323-1.848v-.922h4.35l1.178-4.5h.97l1.176,4.5h4.326v.917Zm-19,.083v3h5v-3h-5Zm0,8h7v-3h-7v3Zm14,.931c-.328.041-.661.069-1,.069-.692,0-1.36-.097-2-.262v3.262H5v2c0,.552-.449,1-1,1s-1-.448-1-1V3.5c0-.275.224-.5.5-.5h7.579c.727-1.255,1.781-2.296,3.051-3H3.5C1.57,0,0,1.57,0,3.5v16.5c0,2.206,1.794,4,4,4h14.5c1.93,0,3.5-1.57,3.5-3.5v-2.5h-3v-3.069Z"/>
</svg>
