<?xml version="1.0" encoding="UTF-8"?>
<svg xmlns="http://www.w3.org/2000/svg" id="Layer_1" data-name="Layer 1" viewBox="0 0 24 24">
  <path d="m22.464,4.06c-.161,0-.312.032-.458.079l2.018-2.018-2.121-2.121-2.018,2.018c.047-.145.079-.297.079-.458,0-.828-.672-1.5-1.5-1.5s-1.5.672-1.5,1.5.672,1.5,1.5,1.5c.161,0,.312-.032.458-.079l-2.159,2.159c-2.363-1.512-5.445-1.495-7.799.186l-1.901,1.242.519,1.148c.115.309.157.917-.858,1.527-1.185.71-1.813.289-1.944.176l-1.028-1.065-1.078,1.014C.984,10.955.036,13.106.001,15.427c-.035,2.311.846,4.484,2.481,6.12,1.604,1.604,3.727,2.483,5.988,2.483.045,0,.09,0,.135,0,2.319-.036,4.47-.984,6.056-2.671l1.047-1.044-1.064-1.028c-.147-.165-.575-.796.137-1.983.609-1.015,1.222-.97,1.49-.871l1.149.521,1.264-1.858c1.7-2.381,1.717-5.471.202-7.834l2.157-2.157c-.047.145-.079.297-.079.458,0,.828.672,1.5,1.5,1.5s1.5-.672,1.5-1.5-.672-1.5-1.5-1.5Zm-6.241,9.318l-.015.021c-1.219-.07-2.829.408-4,2.359-1.015,1.691-.944,3.188-.55,4.259-.897.641-1.967.994-3.1,1.011-.028,0-.058,0-.087,0-.945,0-1.842-.261-2.646-.71l1.229-1.229-2.121-2.121-1.227,1.227c-.46-.827-.721-1.752-.705-2.725.017-1.133.37-2.204,1.012-3.101,1.068.392,2.564.459,4.253-.554,1.95-1.17,2.426-2.766,2.363-3.994l.05-.034c1.168-.834,2.632-.961,3.876-.44l-3.621,3.621,2.121,2.121,3.623-3.623c.524,1.248.394,2.721-.455,3.911Zm-8.168-.409l3,3-2.121,2.121-3-3,2.121-2.121Z"/>
</svg>
