<?xml version="1.0" encoding="UTF-8"?>
<svg xmlns="http://www.w3.org/2000/svg" id="Layer_1" data-name="Layer 1" viewBox="0 0 24 24">
  <path d="m22.615,8.982l-1.615-1.547v-3.935c0-1.93-1.57-3.5-3.5-3.5H6.5c-1.93,0-3.5,1.57-3.5,3.5v3.939l-1.61,1.543C.508,9.826.002,11.011.002,12.231l-.002,11.769h24v-11.769c0-1.222-.505-2.407-1.385-3.25ZM6,3.5c0-.276.225-.5.5-.5h11c.275,0,.5.224.5.5v7.536l-4.231,4.231c-.94.94-2.594.941-3.536,0l-4.232-4.232V3.5Zm15,17.5H3l.002-8.72,5.11,5.11c1.037,1.036,2.418,1.606,3.888,1.606s2.853-.571,3.89-1.608l5.11-5.11v8.722Zm-10.7-9.4c-1.819,0-3.3-1.48-3.3-3.3s1.48-3.3,3.3-3.3h4.65c1.131,0,2.05.919,2.05,2.05s-.919,2.05-2.05,2.05h-4.95v-1.6h4.95c.248,0,.45-.202.45-.45s-.202-.45-.45-.45h-4.65c-.938,0-1.7.763-1.7,1.7s.763,1.7,1.7,1.7h4.688v1.6h-4.688Z"/>
</svg>
