<?xml version="1.0" encoding="UTF-8"?>
<svg xmlns="http://www.w3.org/2000/svg" id="Layer_1" data-name="Layer 1" viewBox="0 0 24 24" width="512" height="512"><path d="M12,0C5.383,0,0,5.383,0,12s5.383,12,12,12,12-5.383,12-12S18.617,0,12,0Zm0,21c-4.962,0-9-4.038-9-9S7.038,3,12,3s9,4.038,9,9-4.038,9-9,9Zm7-11c0,1.105-.895,2-2,2s-2-.895-2-2h-2v-2h4c1.105,0,2,.895,2,2Zm-10,2c-1.105,0-2-.895-2-2h-2v-2h4c1.105,0,2,.895,2,2s-.895,2-2,2Zm3,3c2.093,0,3.717,1.164,3.896,1.297l-1.791,2.406s-.987-.703-2.104-.703-2.103,.702-2.113,.709l-1.783-2.413c.178-.133,1.802-1.297,3.896-1.297Z"/></svg>
