<?xml version="1.0" encoding="UTF-8"?>
<svg xmlns="http://www.w3.org/2000/svg" id="Layer_1" data-name="Layer 1" viewBox="0 0 24 24">
  <path d="M21,21v3h-3v-6h2.602l-.871-8.562c-.031-.25-.244-.438-.496-.438h-2.234v-3h2.234c1.762,0,3.255,1.318,3.473,3.066l1.293,11.934h-3Zm0-18.5c0-1.381-1.119-2.5-2.5-2.5s-2.5,1.119-2.5,2.5,1.119,2.5,2.5,2.5,2.5-1.119,2.5-2.5ZM5.5,0c-1.381,0-2.5,1.119-2.5,2.5s1.119,2.5,2.5,2.5,2.5-1.119,2.5-2.5S6.881,0,5.5,0ZM0,9.5v8.5H2v6h3v-6h2v-3H3v-5.5c0-.275,.224-.5,.5-.5h3.5v-3H3.5c-1.93,0-3.5,1.57-3.5,3.5ZM12.793,2.466L15.077,0h-3.793l-2.284,2.466,2.5,2.698-2.5,2.699,2.5,2.698-2.5,2.698,2.5,2.699-2.5,2.698,2.5,2.699-2.453,2.647h3.793l2.453-2.647-2.5-2.699,2.5-2.698-2.5-2.699,2.419-2.779-2.419-2.617,2.5-2.699-2.5-2.698Z"/>
</svg>
