<?xml version="1.0" encoding="UTF-8"?>
<svg xmlns="http://www.w3.org/2000/svg" id="Layer_1" data-name="Layer 1" viewBox="0 0 24 24">
  <path d="m14.5,12.5c0,1.381-1.119,2.5-2.5,2.5s-2.5-1.119-2.5-2.5,1.119-2.5,2.5-2.5,2.5,1.119,2.5,2.5Zm3.719,3.5H5.781l-3.052-4.36-2.458,1.721,3.948,5.64h3.781v5h3v-5h2v5h3v-5h3.781l3.948-5.64-2.458-1.721-3.052,4.36Zm-7.219-8.154l2.755-2.755c.327-.327.327-.856,0-1.183l-2.755-2.755v1.847h-2v3h2v1.846Zm11.898-2.543l1,.576-.998,1.732-1.002-.577c-.391.371-.87.642-1.399.801v1.163h-2v-1.163c-.529-.159-1.007-.431-1.399-.801l-1.002.577-.998-1.732,1-.576c-.061-.259-.102-.526-.102-.803s.041-.544.102-.803l-1-.576.998-1.732,1.002.577c.391-.371.87-.642,1.399-.801V0h2v1.163c.529.159,1.007.431,1.399.801l1.002-.577.998,1.732-1,.576c.061.259.102.526.102.803s-.041.544-.102.803Zm-1.898-.803c0-.827-.673-1.5-1.5-1.5s-1.5.673-1.5,1.5.673,1.5,1.5,1.5,1.5-.673,1.5-1.5ZM5,9v-2h-3v2h3Zm-3.5-3h4c1-.5,1.5-1.541,1.5-2.5,0-1.073-.482-2.072-1.323-2.742C4.836.09,3.744-.153,2.677.094,1.402.389.387,1.404.093,2.68c-.284,1.232.407,2.82,1.407,3.32Z"/>
</svg>
