<?xml version="1.0" encoding="UTF-8"?>
<svg xmlns="http://www.w3.org/2000/svg" id="Layer_1" data-name="Layer 1" viewBox="0 0 24 24">
  <path d="M22.733,9.014c-.768-.699-1.767-1.058-2.798-1.01-1.036,.049-1.991,.498-2.69,1.266l-2.438,2.68c-.647-.59-1.507-.949-2.449-.949H3.5c-1.93,0-3.5,1.57-3.5,3.5v6c0,1.93,1.57,3.5,3.5,3.5H14.681l8.334-9.532c1.41-1.58,1.283-4.027-.281-5.454Zm-1.967,3.469l-7.447,8.518H3.5c-.275,0-.5-.225-.5-.5v-6c0-.275,.225-.5,.5-.5H12.357c.354,0,.643,.288,.643,.643,0,.317-.236,.591-.551,.635l-5.161,.737,.424,2.971,5.161-.737c1.619-.231,2.876-1.53,3.094-3.116l3.497-3.843c.159-.175,.376-.277,.612-.288,.25-.018,.462,.07,.636,.229,.356,.324,.385,.881,.055,1.252ZM3.5,9c-.522,0-1.022,.082-1.5,.219v-2.219c0-1.654,1.346-3,3-3h.899c-.662-.39-1.165-.75-1.179-.76-.795-.596-.956-1.725-.36-2.52,.596-.795,1.725-.956,2.52-.36,1.096,.821,1.507,2.267,1.62,2.913,.113-.646,.524-2.091,1.62-2.913,.795-.596,1.924-.435,2.52,.36,.596,.795,.435,1.924-.36,2.52-.013,.01-.517,.37-1.179,.76h.899c1.654,0,3,1.346,3,3v2.66c-.789-.42-1.688-.66-2.643-.66h-.357v-2H5v2h-1.5Z"/>
</svg>
