<?xml version="1.0" encoding="UTF-8"?>
<svg xmlns="http://www.w3.org/2000/svg" id="Layer_1" data-name="Layer 1" viewBox="0 0 24 24">
  <path d="M9,8.792c0,.437-.534,1.208-1.5,1.208s-1.5-.771-1.5-1.208,.534-.792,1.5-.792,1.5,.354,1.5,.792Zm7.5,10.208c.966,0,1.5-.771,1.5-1.208s-.534-.792-1.5-.792-1.5,.354-1.5,.792,.534,1.208,1.5,1.208ZM7.8,15h-.601C2.759,15,0,12.978,0,9.722c0-.75,.325-1.636,.888-2.495-.539-.287-.888-.823-.888-1.727C0,4,3.222,0,4.462,0c.909,0,1.51,.365,2.41,1.03,.204-.018,.412-.03,.629-.03s.425,.013,.629,.03c.899-.665,1.501-1.03,2.41-1.03,1.239,0,4.462,4,4.462,5.5,0,.904-.349,1.44-.888,1.727,.563,.859,.888,1.745,.888,2.495,0,3.255-2.759,5.278-7.2,5.278Zm4.2-5.278c-.017-.196-.307-.908-1.061-1.662l-.427-.426-.012-.604c-.018-.497-.248-3.031-3-3.031s-2.982,2.534-3,3.042l-.021,.59-.418,.429c-.753,.753-1.044,1.466-1.061,1.675,0,2.101,3.215,2.265,4.2,2.265h.601c.985,0,4.2-.164,4.2-2.278Zm11.404,1.081l-.414-2.276-2.938,2.01c-.95-.55-1.985-.858-3.06-.934,.001,.039,.008,.08,.008,.118,0,1.044-.208,1.997-.589,2.85,.001,0,.003,0,.004,0,1.189-.011,2.145,.507,2.709,.955,0,0,1.876,.974,1.876,3.831,0,2.009-1.634,3.643-3.643,3.643h-1.714c-2.009,0-3.643-1.634-3.643-3.643,0-.351,.006-.69,.015-1.018-.904,.314-1.911,.523-3.012,.61-.001,.136-.004,.27-.004,.409,0,3.663,2.98,6.643,6.643,6.643h1.714c3.663,0,6.643-2.979,6.643-6.643,0-3.241-.571-6.421-.596-6.554Z"/>
</svg>
