<?xml version="1.0" encoding="UTF-8"?>
<svg xmlns="http://www.w3.org/2000/svg" id="Layer_1" data-name="Layer 1" viewBox="0 0 24 24">
  <path d="m18,20h2.559l-3.159,3.583c-.48.556-1.32.556-1.8,0l-3.159-3.583h2.559v-9h3v9Zm.633-15.032C17.189,1.966,14.116,0,10.75,0,5.925,0,2,3.925,2,8.75c0,.341.021.688.065,1.038-1.279,1.129-2.065,2.771-2.065,4.417,0,3.196,2.386,5.796,5.318,5.796h.682v-3h-.682c-1.278,0-2.318-1.254-2.318-2.796,0-.948.597-1.948,1.484-2.488l.933-.567-.253-1.062c-.11-.465-.164-.902-.164-1.337,0-3.17,2.579-5.75,5.75-5.75,2.388,0,4.552,1.508,5.385,3.753l.29.78.815.167c2.179.446,3.76,2.378,3.76,4.594,0,1.083-.383,2.069-1,2.865v3.887c2.382-1.312,4-3.846,4-6.752,0-3.36-2.214-6.322-5.367-7.327Zm-5.074,10.032l-3.113-3.531c-.473-.548-1.3-.548-1.774,0l-3.113,3.531h2.5v9h3v-9h2.5Z"/>
</svg>
