<?xml version="1.0" encoding="UTF-8"?>
<svg xmlns="http://www.w3.org/2000/svg" id="Layer_1" data-name="Layer 1" viewBox="0 0 24 24">
  <path d="m7,11.5c0,.828-.672,1.5-1.5,1.5s-1.5-.672-1.5-1.5.672-1.5,1.5-1.5,1.5.672,1.5,1.5Zm5,.5c-1.657,0-3,1.343-3,3s1.343,3,3,3,3-1.343,3-3-1.343-3-3-3Zm6.5,5.062c-.828,0-1.5.672-1.5,1.5s.672,1.5,1.5,1.5,1.5-.672,1.5-1.5-.672-1.5-1.5-1.5Zm-13,0c-.828,0-1.5.672-1.5,1.5s.672,1.5,1.5,1.5,1.5-.672,1.5-1.5-.672-1.5-1.5-1.5Zm13-7.062c-.828,0-1.5.672-1.5,1.5s.672,1.5,1.5,1.5,1.5-.672,1.5-1.5-.672-1.5-1.5-1.5Zm5.5-.562v14.623H0v-14.562c0-1.929,1.568-3.498,3.496-3.5l7.004-.025v-1.954h-2.5L11.183.371c.443-.494,1.217-.494,1.66,0l3.157,3.65h-2.5v1.943l6.994-.025c1.936,0,3.506,1.57,3.506,3.5Zm-3,0c0-.275-.225-.5-.5-.5l-17,.062c-.275,0-.5.225-.5.5v11.562h18v-11.623Z"/>
</svg>
