<?xml version="1.0" encoding="UTF-8"?>
<svg xmlns="http://www.w3.org/2000/svg" id="Layer_1" data-name="Layer 1" viewBox="0 0 24 24">
  <circle cx="12" cy="14.75" r="1.25"/>
  <path d="m9.171,12.171l1.132,1.131c.936-.936,2.458-.936,3.394,0l1.132-1.131c-1.56-1.56-4.098-1.56-5.657,0Z"/>
  <path d="m12,8.5c-1.736,0-3.369.676-4.596,1.904l1.132,1.131c.925-.925,2.155-1.435,3.464-1.435s2.539.51,3.464,1.435l1.132-1.131c-1.228-1.228-2.86-1.904-4.596-1.904Z"/>
  <path d="m20.38,15.259c.395-1.012.62-2.109.62-3.259,0-1.091-.205-2.133-.562-3.101,2.032-.433,3.562-2.239,3.562-4.399,0-2.481-2.019-4.5-4.5-4.5-2.16,0-3.966,1.53-4.399,3.562-.969-.357-2.01-.562-3.101-.562-1.506,0-2.925.376-4.173,1.033-.404-1.18-1.51-2.033-2.827-2.033-1.657,0-3,1.343-3,3,0,1.317.854,2.423,2.033,2.827-.657,1.249-1.033,2.667-1.033,4.173,0,.526.055,1.038.141,1.539-1.854.885-3.141,2.773-3.141,4.961,0,3.032,2.467,5.5,5.5,5.5,2.188,0,4.076-1.288,4.961-3.141.501.087,1.013.141,1.539.141,1.15,0,2.247-.225,3.259-.62.564,1.526,2.019,2.62,3.741,2.62,2.209,0,4-1.791,4-4,0-1.722-1.094-3.177-2.62-3.741Zm-.88-12.259c.827,0,1.5.673,1.5,1.5s-.673,1.5-1.5,1.5-1.5-.673-1.5-1.5.673-1.5,1.5-1.5ZM5.5,21c-1.378,0-2.5-1.121-2.5-2.5,0-.883.463-1.656,1.156-2.101.811,1.44,2.005,2.634,3.445,3.445-.445.693-1.218,1.156-2.101,1.156Zm.5-9c0-3.309,2.691-6,6-6s6,2.691,6,6-2.691,6-6,6-6-2.691-6-6Z"/>
</svg>
