<?xml version="1.0" encoding="UTF-8"?>
<svg xmlns="http://www.w3.org/2000/svg" id="Layer_1" data-name="Layer 1" viewBox="0 0 24 24">
  <path d="M8,11.994l3.535-3.458c.944-.944,1.465-2.2,1.465-3.536s-.521-2.591-1.465-3.536h0c-.945-.944-2.2-1.464-3.535-1.464s-2.59,.52-3.535,1.464c-.944,.944-1.465,2.2-1.465,3.536s.521,2.591,1.477,3.547l3.523,3.447Zm0-8.994c1.105,0,2,.895,2,2s-.895,2-2,2-2-.895-2-2,.895-2,2-2ZM24,7s-2.007,4.037-2,4.5c.009,.575,0,1.5,0,2.5,0,.5-.34,.805-.55,1.17-.378,.657-1.004,1.39-1.355,2.059-.042,.079-.074,.172-.095,.27-.056,.255-.045,.551,.039,.767,.257,.656,.58,1.265,.915,1.89,.295,.552,.461,1.129,.276,1.847l-1.23-.004c-.387-.413-1-1.344-1-2,0-1-1.383-1-2-1-1,0-1,1-1,1h-2c-.6,.434-2,4-2,4,0,0-1.5-1.462-2-2.462-.244-.487-1.528-.538-2-.538,0,0-.246-.552-.5-1-.508-.896-2.423-1.821-4-2-.51,0-1.138,.259-1.5,.5-1-1.5-2-3.942-2-5.981v-1.256c0-1.919,1-5.263,1-5.263,.214,1.492,1.031,2.93,2.133,4.031-.08,.479-.133,.915-.133,1.232v1.256c0,.738,.232,1.636,.56,2.477,.092,.005,.185,.012,.278,.023,1.739,.197,4.68,1.193,6.047,3.146,.529,.12,.971,.295,1.338,.505,.461-.696,.778-.926,1.017-1.099l.788-.571h1.297c.67-.607,1.575-1,2.676-1,.121,0,.239,.002,.355,.006,.027-.058,1.594-2.496,1.647-2.578,0,0,.002-.642,.002-.729-.236,.045-.472,.069-.703,.069-1.85,0-3.3-1.435-3.3-3.268v-.191c-.443-.111-.877-.213-1.269-.298,.593-.843,.987-1.799,1.161-2.816,1.42,.333,3.108,.804,3.108,.804v2.5c0,.194,.127,.268,.3,.268,.271,0,.654-.182,.825-.364,.529-.56,1.875-2.404,1.875-2.404,.619-.044,.956-.372,1-1,.023-.338-.041-1.663,0-2,.012-.004,.988,.004,1,0,.329,.44,1,2.12,1,2.12v.88Z"/>
</svg>
