<?xml version="1.0" encoding="UTF-8"?>
<svg xmlns="http://www.w3.org/2000/svg" id="Layer_1" data-name="Layer 1" viewBox="0 0 24 24">
  <path d="M24,21.5c0,1.379-1.122,2.5-2.5,2.5h-6.108c-1.605,0-3.128-.704-4.18-1.932-3.911-4.568-6.007-5.846-7.076-6.113C1.556,15.311,.015,13.535,.015,11.207,.015,9.196,1.191,8.224,2.05,7.513c.467-.387,.871-.721,1.116-1.199L6.114,0h3.311l-3.566,7.635c-.552,1.076-1.297,1.693-1.896,2.188-.78,.646-.947,.836-.947,1.384,0,.34,0,1.376,1.849,1.838,2.232,.558,4.974,2.806,8.627,7.072,.48,.562,1.173,.883,1.9,.883h1.565c-1.753-2.121-2.866-4.245-3.856-6.135-.89-1.699-1.659-3.167-2.724-4.371l-.647-.731L14.204,0h3.3l-4.251,9.274c.979,1.285,1.724,2.708,2.505,4.198,.949,1.812,1.927,3.68,3.438,5.527h2.304c1.378,0,2.5,1.121,2.5,2.5Z"/>
</svg>
