<?xml version="1.0" encoding="UTF-8"?>
<svg xmlns="http://www.w3.org/2000/svg" id="Layer_1" data-name="Layer 1" viewBox="0 0 24 24">
  <path d="m24,6v3H0v-3h24Zm-5.076,4.691c-.529.403-1.317.404-1.849,0-1.201-.916-2.948-.916-4.151,0-.529.403-1.317.404-1.849,0-1.201-.916-2.948-.916-4.151,0-.529.403-1.317.404-1.849,0-1.201-.916-2.948-.916-4.151,0-.265.202-.585.309-.924.309v3c1.002,0,1.95-.319,2.741-.922.137-.104.382-.103.517,0,1.584,1.208,3.901,1.208,5.483,0,.138-.104.383-.103.517,0,1.584,1.208,3.901,1.208,5.483,0,.137-.104.382-.103.517,0,1.584,1.208,3.901,1.208,5.483,0,.138-.104.383-.103.517,0,.792.604,1.74.923,2.742.923v-3c-.339,0-.659-.107-.925-.309-1.201-.916-2.948-.916-4.151,0ZM1.5,15c-.828,0-1.5.672-1.5,1.5s.672,1.5,1.5,1.5,1.5-.672,1.5-1.5-.672-1.5-1.5-1.5Zm5,3c-.828,0-1.5.672-1.5,1.5s.672,1.5,1.5,1.5,1.5-.672,1.5-1.5-.672-1.5-1.5-1.5Zm11,0c-.828,0-1.5.672-1.5,1.5s.672,1.5,1.5,1.5,1.5-.672,1.5-1.5-.672-1.5-1.5-1.5Zm-5.5-3c-.828,0-1.5.672-1.5,1.5s.672,1.5,1.5,1.5,1.5-.672,1.5-1.5-.672-1.5-1.5-1.5Zm10.5,0c-.828,0-1.5.672-1.5,1.5s.672,1.5,1.5,1.5,1.5-.672,1.5-1.5-.672-1.5-1.5-1.5ZM1.5,21c-.828,0-1.5.672-1.5,1.5s.672,1.5,1.5,1.5,1.5-.672,1.5-1.5-.672-1.5-1.5-1.5Zm10.5,0c-.828,0-1.5.672-1.5,1.5s.672,1.5,1.5,1.5,1.5-.672,1.5-1.5-.672-1.5-1.5-1.5Zm10.5,0c-.828,0-1.5.672-1.5,1.5s.672,1.5,1.5,1.5,1.5-.672,1.5-1.5-.672-1.5-1.5-1.5Z"/>
</svg>
