<?xml version="1.0" encoding="UTF-8"?>
<svg xmlns="http://www.w3.org/2000/svg" id="Layer_1" data-name="Layer 1" viewBox="0 0 24 24">
  <path d="M20.167,12.092c-1.036-.31-1.875-.511-2.616-.689-1.681-.403-2.491-.597-3.551-1.542V3.502c0-1.094-.452-2.06-1.272-2.717-.837-.671-1.96-.934-3.006-.701l-4.53,1.918H0V24.001H9v-2.813l2,.334v2.479h3v-2.041c.166,.011,.331,.041,.497,.041h1.503v2h3v-2h2v2h3v-6c0-2.427-1.332-5.24-3.833-5.909Zm.833,6.909h-6.503c-.247,0-.496-.021-.74-.061l-5.019-.837c-.406-.068-.822-.103-1.235-.103H3V8.001h2c1.105,0,2-.895,2-2v-1.512l3.464-1.488c.12-.02,.286,.042,.387,.124,.069,.056,.149,.149,.149,.377v6.132l-2.439,1.401,1.494,2.601,2.247-1.29c.379,.311,.747,.573,1.112,.783l-1.217,2.129,2.604,1.488,1.467-2.567c.19,.047,.381,.094,.582,.142,.703,.169,1.499,.36,2.498,.658,1.02,.272,1.651,1.781,1.651,3.022v1Z"/>
</svg>
