<?xml version="1.0" encoding="UTF-8"?>
<svg xmlns="http://www.w3.org/2000/svg" id="Layer_1" data-name="Layer 1" viewBox="0 0 24 24">
  <path d="m23.89,13.667l-1.646-10.699c-.265-1.72-1.72-2.968-3.459-2.968h-2.784v3h2.784c.248,0,.456.179.494.425l1.474,9.575h-3.252c-1.557,0-2.93.795-3.738,2h-3.524c-.808-1.205-2.182-2-3.738-2h-3.252l1.474-9.575c.038-.246.246-.425.494-.425h2.784V0h-2.784c-1.739,0-3.194,1.248-3.459,2.968L.11,13.669c-.073.478-.11.963-.11,1.442v4.389c0,2.481,2.019,4.5,4.5,4.5h2c2.481,0,4.5-2.019,4.5-4.5v-1.5h2v1.5c0,2.481,2.019,4.5,4.5,4.5h2c2.481,0,4.5-2.019,4.5-4.5v-4.389c0-.479-.037-.965-.11-1.444Zm-15.89,5.833c0,.827-.673,1.5-1.5,1.5h-2c-.827,0-1.5-.673-1.5-1.5v-.171l4.456-2.975c.329.275.544.684.544,1.146v2Zm13,0c0,.827-.673,1.5-1.5,1.5h-2c-.827,0-1.5-.673-1.5-1.5v-.169l4.999-3.331h0v3.5Z"/>
</svg>
