<?xml version="1.0" encoding="UTF-8"?>
<svg xmlns="http://www.w3.org/2000/svg" id="Layer_1" data-name="Layer 1" viewBox="0 0 24 24">
  <path d="m24,17.032c0-.345-.03-.688-.045-1.032h-2.955v-3h2.656c-.247-1.467-.621-2.917-1.141-4.343l-2.127-5.353c-.501-1.378-1.823-2.304-3.289-2.304H6.9c-1.466,0-2.788.926-3.272,2.263l-2.159,5.436c-.51,1.403-.881,2.841-1.126,4.302h2.657v3H.045c-.014.344-.045.686-.045,1.032v2.968h3v3h4v-3h10v3h4v-3h3v-2.968ZM4.271,9.765l2.16-5.436c.071-.196.26-.329.469-.329h10.199c.209,0,.397.132.485.37l2.128,5.354c.153.421.285.848.406,1.276H3.878c.118-.416.246-.829.393-1.235Zm11.729,7.235h-8v-3h8v3Z"/>
</svg>
