<svg id="Layer_1" viewBox="0 0 24 24" xmlns="http://www.w3.org/2000/svg" data-name="Layer 1"><path d="m24 14.886-2.725-1.247c-.253.554-1.237 2.361-3.282 2.361-1.989 0-2.957-1.651-3.282-2.361l-2.711 1.241-2.711-1.241c-.324.709-1.293 2.361-3.282 2.361-2.044 0-3.029-1.807-3.282-2.361l-2.725 1.247c.182.399.59 1.17 1.27 1.938l-1.262 2.045 2.55 1.576 1.158-1.876c.25.099.514.184.793.251v2.179h2.996v-2.179c.279-.067.543-.152.793-.251l1.158 1.876 2.544-1.573 2.544 1.573 1.158-1.876c.25.099.514.184.793.251v2.179h2.996v-2.179c.279-.067.543-.152.793-.251l1.158 1.876 2.55-1.576-1.262-2.045c.68-.768 1.088-1.539 1.27-1.938zm-10.744 1.938-1.256 2.036-1.256-2.036c.665-.751 1.068-1.503 1.256-1.908.188.406.59 1.157 1.256 1.908zm-10.245-5.824h6.992v-2.5l5-.002v2.502h1.992v-2.503h1.008s0 2.503 0 2.503h1.988v-2.504h1.012s0 2.504 0 2.504h1.985v-2.506h.999s0-3 0-3h-.998s0-2.494 0-2.494h-1.985v2.495h-1.012s0-2.495 0-2.495h-1.988v2.496h-1.008s0-2.496 0-2.496h-1.992v2.498l-5 .002v-2.5h-6.993c-1.653 0-2.997 1.346-2.997 3v2c0 1.654 1.344 3 2.996 3zm0-5h3.995v2h-3.995z"/></svg>