<?xml version="1.0" encoding="UTF-8"?>
<svg xmlns="http://www.w3.org/2000/svg" id="Layer_1" data-name="Layer 1" viewBox="0 0 24 24">
  <path d="m23.953,13.962c-.732,4.326-3.534,8.024-7.493,9.894l-.305.144H7.845l-.305-.144C3.581,21.987.779,18.289.048,13.963c-.167-.982.108-1.983.754-2.748.341-.404.767-.711,1.237-.919-.013-.141-.039-.279-.039-.422,0-1.539.78-2.96,2.021-3.81.212-2.202,2.019-3.945,4.247-4.06.818-1.234,2.204-2.006,3.732-2.006s2.914.772,3.732,2.006c.619.032,1.198.201,1.726.459l-1.746,2.556c-.07-.01-.14-.021-.213-.021-.098,0-.206.014-.33.042-.753.172-1.516-.263-1.756-.999-.202-.624-.771-1.042-1.414-1.042s-1.212.419-1.414,1.042l-.423,1.299s-1.565-.341-1.663-.341c-.827,0-1.5.673-1.5,1.5,0,.073.209,1.42.209,1.42l-1.144.44c-.647.239-1.065.833-1.065,1.515,0,.043.02.082.023.125h4.656c-1.201.819-2.215,1.664-2.718,2.443-.118.183-.221.37-.316.557h-3.227c-.171,0-.276.095-.324.151-.054.063-.112.169-.089.311.551,3.251,2.605,6.046,5.524,7.538h6.941c2.919-1.492,4.974-4.286,5.524-7.538.037-.22-.125-.401-.303-.448l.007-.026c-.039.003-.077.012-.117.012h-1.011c.071-.511.136-1.016.191-1.496l2.108-3.086c.083.349.13.711.13,1.082,0,.264-.032.525-.077.784,1.437.608,2.296,2.104,2.03,3.678Zm-8.537-4.961L21.545.029l2.477,1.692-6.197,9.073c-.243,2.236-.784,6.233-1.664,7.594-.457.708-1.31,1.594-2.71,1.594-.787,0-1.748-.28-2.91-1.031-1.045-.676-1.77-1.419-2.154-2.208-.512-1.054-.424-2.166.254-3.214.915-1.416,4.732-3.488,6.776-4.526Zm-4.566,7.677l3.036-4.578c-1.699.969-3.204,1.954-3.565,2.514h0c-.374.579-.278.959-.135,1.254.127.262.359.536.664.811Zm4.618-3.347l-2.932,4.421c1.282.533,1.706-.081,1.945-.45.354-.547.704-2.17.987-3.971Z"/>
</svg>
