<?xml version="1.0" encoding="UTF-8"?>
<svg xmlns="http://www.w3.org/2000/svg" id="Layer_1" data-name="Layer 1" viewBox="0 0 24 24">
  <path d="m9.5,2.5c0-1.381,1.119-2.5,2.5-2.5s2.5,1.119,2.5,2.5c0,.818-.393,1.544-1,2v3.837c-.455-.216-.963-.337-1.5-.337s-1.045.121-1.5.337v-3.837c-.607-.456-1-1.182-1-2Zm4,9.08c0-.747-.536-1.44-1.273-1.56-.94-.153-1.739.568-1.739,1.479v7.289l-1.205-.815c-.866-.722-2.153-.604-2.874.261-.722.866-.605,2.153.261,2.874l3.831,2.891h3v-4.88l5.5,1.942v2.938h3v-5.062l-8.5-2.999v-4.359Zm.534-2.929c.837.599,1.399,1.558,1.46,2.65l3.281-2.409c.229.069.473.107.725.107,1.381,0,2.5-1.119,2.5-2.5s-1.119-2.5-2.5-2.5c-1.372,0-2.485,1.105-2.499,2.474l-2.966,2.178Zm-5.523,2.566c.086-1.082.665-2.026,1.513-2.607l-3.025-2.167c-.03-1.355-1.137-2.444-2.499-2.444-1.381,0-2.5,1.119-2.5,2.5s1.119,2.5,2.5,2.5c.262,0,.515-.041.753-.116l3.258,2.333Z"/>
</svg>
