<?xml version="1.0" encoding="UTF-8"?>
<svg xmlns="http://www.w3.org/2000/svg" id="Layer_1" data-name="Layer 1" viewBox="0 0 24 24">
  <path d="m24,7.5V0l-3.287,2.465c-.677-.299-1.426-.465-2.213-.465s-1.535.166-2.213.465l-3.287-2.465v7.5c0,.487.064.959.183,1.408-6.609,1.986-8.798,7.414-9.143,11.111-.616-.527-1.04-1.227-1.04-1.996,0-1.848.478-2.817.983-3.845.477-.969,1.017-2.066,1.017-3.679,0-2.649-2.056-4.5-5-4.5v3c.469,0,2,.108,2,1.5,0,.915-.297,1.518-.708,2.354-.575,1.169-1.292,2.624-1.292,5.17,0,3.522,3.456,5.977,6.558,5.977h17.442v-3h-2v-9.26c1.221-1.01,2-2.535,2-4.24Zm-5.5-2.5c1.378,0,2.5,1.122,2.5,2.5s-1.122,2.5-2.5,2.5-2.5-1.122-2.5-2.5,1.122-2.5,2.5-2.5Zm.5,16h-2c0-3.309-2.691-6-6-6v3c1.654,0,3,1.346,3,3h-7.002c.051-1.686.731-7.75,7.813-9.424.976.884,2.271,1.424,3.689,1.424.169,0,.335-.008.5-.023v8.023Z"/>
</svg>
