<svg id="Layer_1" viewBox="0 0 24 24" xmlns="http://www.w3.org/2000/svg" data-name="Layer 1"><path d="m8.526 5.205 2.003-5.205h3.263l-1.296 3h2.393c.484-.003.776.535.511.94l-3.88 5.057-1.019.003 1-3h-2.378c-.415.002-.715-.397-.596-.795zm15.474-5.205v12c0 6.718-5.436 12-11.998 12s-12.002-5.587-12.002-12.5v-11.5h8.386c-.05.148-1.743 4.496-1.777 4.637-.133.448-.127.918-.018 1.363.215 1.02 1.114 1.862 2.135 2h.275v4c0 1.657 1.343 3 3 3s3-1.343 3-3v-4.254c.083-.115 2.004-2.598 2.072-2.709.527-.806.57-1.831.109-2.677-.357-.657-.972-1.119-1.674-1.288l.463-1.072h8.029zm-3 6h-3v5.807c.009 3.372-2.714 6.217-5.988 6.192-3.224.068-6.076-2.771-6.012-5.999v-6h-3v5.651c0 5.065 3.961 9.258 8.831 9.347 2.44.031 4.737-.871 6.475-2.576 1.738-1.706 2.695-3.987 2.695-6.422v-6z"/></svg>