<svg id="Layer_1" viewBox="0 0 24 24" xmlns="http://www.w3.org/2000/svg" data-name="Layer 1"><path d="m13 9.047v2.26c-1.812 1.265-3 3.362-3 5.74v-8zm-5 8v-4h-3v4zm13.416 2.295 2.49 2.491-2.121 2.121-2.49-2.491c-.691.361-1.463.584-2.295.584-2.757 0-5-2.243-5-5s2.243-5 5-5 5 2.243 5 5c0 .831-.223 1.604-.584 2.295zm-2.416-2.295c0-1.103-.897-2-2-2s-2 .897-2 2 .897 2 2 2 2-.897 2-2zm5-13.5v13.5c0-2.378-1.188-4.475-3-5.74v-4.26h-18v12h7.294c.343 1.153.974 2.18 1.812 3h-12.106v-18.5c0-1.93 1.57-3.5 3.5-3.5h17c1.93 0 3.5 1.57 3.5 3.5zm-18 0c0-.828-.672-1.5-1.5-1.5s-1.5.672-1.5 1.5.672 1.5 1.5 1.5 1.5-.672 1.5-1.5zm5 0c0-.828-.672-1.5-1.5-1.5s-1.5.672-1.5 1.5.672 1.5 1.5 1.5 1.5-.672 1.5-1.5z"/></svg>