<?xml version="1.0" encoding="UTF-8"?>
<svg xmlns="http://www.w3.org/2000/svg" id="Layer_1" data-name="Layer 1" viewBox="0 0 24 24">
  <path d="m22,5c-1.035,0-1.978.058-2.843.157-.129-.345-.307-.693-.541-1.034l1.398-2.795L17.33-.015l-1.175,2.349c-.36-.117-.745-.203-1.155-.255V0h-3v2.282c-.313.091-.608.203-.889.331L9.538.119l-2.537,1.601,1.687,2.676c-.675.74-1.164,1.532-1.503,2.192C6.055,1.516,2.167.141,1.975.077l-.966,2.84c.13.047,2.912,1.116,3.408,5.281-1.464,1.095-2.417,2.837-2.417,4.802,0,5.049,4.3,9.394,10.7,10.812.568.126,1.103.189,1.606.189.653,0,1.257-.105,1.823-.317,3.348-1.25,4.871-5.637,4.87-9.185,0-2.649-.707-4.648-1.127-5.604-.073-.167-.09-.264-.104-.278.1-.1.706-.574,3.319-.618h.911v-3h-2Zm-8,0c.955,0,1.714.323,2.104.756-2.186.637-3.577,1.56-4.407,2.31-.502-.295-1.01-.514-1.521-.687.688-1.101,1.898-2.38,3.824-2.38Zm1.081,15.874c-.444.167-1.012.169-1.732.01-4.915-1.089-8.349-4.331-8.349-7.883,0-1.654,1.346-3,3-3,.797,0,1.597.279,2.427.82-.125.81-.703,2.339-3.186,3.464.32.876.952,1.709,1.823,2.436,3.74-1.942,4.324-4.817,4.381-6.153.399-.423,1.382-1.265,3.333-1.872.018.417.119.886.349,1.409.262.596.872,2.217.873,4.396,0,3.011-1.254,5.751-2.919,6.373Z"/>
</svg>
