<svg id="Layer_1" viewBox="0 0 24 24" xmlns="http://www.w3.org/2000/svg" data-name="Layer 1"><path d="m14.848 5.438-3.285-3.285 2.137-2.137 3.285 3.285zm-.927 1.468-4.36-4.36-2.137 2.137 4.36 4.36zm8.045-5.485c-1.17-1.18-3.178-1.701-5.499-1.272l3.38 3.41c.906.914 1.263 2.256 1.13 3.734l-2.654-2.654-2.137 2.137 3.776 3.776c-.264.498-.576.988-.934 1.461l-3.722-3.722-2.137 2.137 3.728 3.728c-.469.36-.956.675-1.455.941l-3.789-3.789-2.137 2.137 2.648 2.648c-1.471.109-2.735-.293-3.594-1.16l-3.447-3.477c-.546 1.837-.147 3.484.603 4.684l-5.72 5.723 2.137 2.137 5.8-5.801c1.093.615 2.36.939 3.742.939 3.156-.036 6.075-1.463 8.495-3.869 4.278-4.315 5.079-10.527 1.786-13.849zm-11.651 8.55-3.285-3.285-2.137 2.137 3.285 3.285z"/></svg>