<?xml version="1.0" encoding="UTF-8"?>
<svg xmlns="http://www.w3.org/2000/svg" id="Layer_1" data-name="Layer 1" viewBox="0 0 24 24" width="512" height="512"><path d="M10,2.5c0-1.381,1.119-2.5,2.5-2.5s2.5,1.119,2.5,2.5-1.119,2.5-2.5,2.5-2.5-1.119-2.5-2.5Zm6,18.5v3h-3v-3h-1v3h-3v-3h-2.199l1.492-11.934c.218-1.748,1.711-3.066,3.473-3.066h1.469c1.762,0,3.255,1.318,3.473,3.066l1.492,11.934h-2.199Zm-5.801-3h4.602l-1.07-8.562c-.031-.25-.244-.438-.496-.438h-1.469c-.252,0-.465,.188-.496,.438l-1.07,8.562Z"/></svg>
