<?xml version="1.0" encoding="UTF-8"?>
<svg xmlns="http://www.w3.org/2000/svg" id="Layer_1" data-name="Layer 1" viewBox="0 0 24 24">
  <path d="M22.733,9.014c-1.52-1.438-4.112-1.318-5.488,.256l-2.438,2.68c-.647-.59-1.507-.949-2.449-.949H3.5c-1.93,0-3.5,1.57-3.5,3.5v6c0,1.93,1.57,3.5,3.5,3.5H14.681l8.334-9.532c1.41-1.58,1.283-4.027-.281-5.454Zm-1.967,3.469l-7.447,8.518H3.5c-.275,0-.5-.225-.5-.5v-6c0-.275,.225-.5,.5-.5H12.357c.354,0,.643,.288,.643,.643,0,.317-.236,.591-.551,.635l-5.161,.737,.424,2.971,5.161-.737c1.619-.231,2.876-1.53,3.094-3.116l3.497-3.843c.31-.357,.916-.392,1.248-.059,.356,.324,.385,.881,.055,1.252ZM.705,5.128c-.347-.347-.347-.91,0-1.257L4,.5V3h2.5c1.379,0,2.5,1.121,2.5,2.5v3.5h-3v-3h-2v2.5L.705,5.128Zm12.295,3.872h-3v-3.5c0-1.379,1.121-2.5,2.5-2.5h2.5V.5l3.295,3.371c.347,.347,.347,.91,0,1.257l-3.295,3.372v-2.5h-2v3Z"/>
</svg>
