<?xml version="1.0" encoding="UTF-8"?>
<svg xmlns="http://www.w3.org/2000/svg" id="Layer_1" data-name="Layer 1" viewBox="0 0 24 24" width="512" height="512"><path d="m9.5,2.5c0-1.381,1.119-2.5,2.5-2.5s2.5,1.119,2.5,2.5-1.119,2.5-2.5,2.5-2.5-1.119-2.5-2.5Zm6.5,18.5h4v3H4v-3h4v-9.42l-2.267,3.274-2.467-1.707,3.903-5.639c.655-.944,1.73-1.508,2.878-1.508h3.904c1.147,0,2.223.563,2.877,1.506l3.904,5.641-2.467,1.707-2.267-3.274v9.421Zm-5-7h2v-5h-2v5Zm2,3h-2v4h2v-4ZM21.667,2.333l-1.167-2.333-1.167,2.333-2.333,1.167,2.333,1.167,1.167,2.333,1.167-2.333,2.333-1.167-2.333-1.167ZM4.5,6.5l2-1-2-1-1-2-1,2-2,1,2,1,1,2,1-2Z"/></svg>
