<?xml version="1.0" encoding="UTF-8"?>
<svg xmlns="http://www.w3.org/2000/svg" id="Layer_1" data-name="Layer 1" viewBox="0 0 24 24">
  <path d="m3,20h2v3H0V4.5C0,2.57,1.57,1,3.5,1h2.761c-.687.831-1.133,1.867-1.235,3h-1.525c-.275,0-.5.224-.5.5v15.5Zm8-2.484l3.65-3.183c.494-.443.494-1.217,0-1.66l-3.65-3.157v2.484h-6v3h6v2.516Zm11.984-11.875l-3.576-3.605c-.652-.658-1.558-1.036-2.485-1.036h-6.423c-1.93,0-3.5,1.57-3.5,3.5v5.5h3v-5.5c0-.276.225-.5.5-.5h5.5v5h5v11h-11v-3h-3v6h17v-14.894c0-.929-.36-1.804-1.016-2.465Z"/>
</svg>
