<?xml version="1.0" encoding="UTF-8"?>
<svg xmlns="http://www.w3.org/2000/svg" id="Layer_1" data-name="Layer 1" viewBox="0 0 24 24">
  <path d="m18,12c-3.314,0-6,2.686-6,6s2.686,6,6,6,6-2.686,6-6-2.686-6-6-6Zm1,10h-2v-2h2v2Zm0-3h-2v-5h2v5Zm-9.713,1.955c-.59,0-1.929-.397-3.257-.864l1.463-1.463c.643-.413,1.247-.629,1.792-.629.154.005.409.091.727.233-.002-.078-.012-.154-.012-.232,0-3.658,2.458-6.736,5.81-7.689L23.955,2.166,21.834.045l-8.4,8.4c-.223-.604-.542-1.242-.897-1.861l4.418-4.418L14.834.045l-3.986,3.986c-.137-.185-.264-.352-.374-.494l-1.187-1.533-1.187,1.533c-.681.881-1.984,2.665-2.73,4.326l-.848-1.096-1.187,1.533C2.347,9.58.045,12.767.045,14.713c0,1.434.951,4.107,1.527,5.594l-1.463,1.463,2.121,2.121,1.463-1.463c1.486.576,4.158,1.528,5.594,1.528.742,0,1.665-.336,2.595-.805-.644-.764-1.144-1.651-1.468-2.62-.51.26-.914.418-1.128.426Zm0-13.912c.841,1.284,1.463,2.476,1.478,2.905,0,.548-.216,1.152-.628,1.794l-1.46,1.46c-.018-.047-.036-.095-.054-.143-.444-1.279-.812-2.543-.812-3.11.015-.431.637-1.623,1.478-2.907Zm-6.242,7.672c.015-.431.637-1.623,1.478-2.908.532.812.976,1.587,1.235,2.156.078.227.157.449.234.66.006.033.009.063.01.09,0,.543-.206,1.141-.613,1.778l-1.48,1.48c-.467-1.328-.864-2.667-.864-3.256Z"/>
</svg>
