<svg id="Layer_1" viewBox="0 0 24 24" xmlns="http://www.w3.org/2000/svg" data-name="Layer 1"><path d="m13.5 21h6.5v3h-16v-3h6.5v-7h3zm-9-2c-2.485 0-4.5-2.015-4.5-4.5v-.757l3.438-8.743h2.062l3.5 8.743v.757c0 2.485-2.015 4.5-4.5 4.5zm-1.409-5h2.819l-1.409-3.993zm20.909-.257v.757c0 2.485-2.015 4.5-4.5 4.5s-4.5-2.015-4.5-4.5v-.757l3.5-8.743h2.062zm-3.091.257-1.41-3.993-1.409 3.993zm-7.909-5h-2c-.551 0-1-.449-1-1h-2c0 1.654 1.346 3 3 3v1h2v-1c1.654 0 3-1.346 3-3 0-1.36-.974-2.51-2.315-2.733l-3.042-.507c-.373-.062-.644-.382-.644-.76 0-.551.449-1 1-1h2c.551 0 1 .449 1 1h2c0-1.654-1.346-3-3-3v-1h-2v1c-1.654 0-3 1.346-3 3 0 1.36.974 2.51 2.315 2.733l3.042.507c.373.062.644.382.644.76 0 .551-.449 1-1 1z"/></svg>