<svg id="Layer_1" viewBox="0 0 24 24" xmlns="http://www.w3.org/2000/svg" data-name="Layer 1"><path d="m24 19.008v-14.5c0-1.93-1.57-3.5-3.5-3.5h-17c-1.93 0-3.5 1.571-3.5 3.5v14.5h10.5v2h-4.5v3h12v-3h-4.5v-2zm-20.5-15h17c.275 0 .5.224.5.5v9.5h-18v-9.5c0-.276.225-.5.5-.5zm4.744 7.517h2.006l.262 1.474h1.488l-1.397-6.807c-.12-.668-.589-1.192-1.346-1.192s-1.281.587-1.385 1.167l-1.372 6.833h1.469l.275-1.474zm.992-4.82.638 3.295h-1.261l.624-3.295zm8.364 3.995v-3.4c0-1.269-1.031-2.3-2.3-2.3h-2.3v8h2.3c1.269 0 2.3-1.031 2.3-2.3zm-3-4.101s.314 0 .7 0 .7.314.7.7v3.4c0 .386-.314.7-.7.7s-.7 0-.7 0z"/></svg>