<?xml version="1.0" encoding="UTF-8"?>
<svg xmlns="http://www.w3.org/2000/svg" id="Layer_1" data-name="Layer 1" viewBox="0 0 24 24">
  <path d="M18,12c-3.314,0-6,2.686-6,6s2.686,6,6,6,6-2.686,6-6-2.686-6-6-6Zm.752,8.44l-.004,.004c-.744,.744-2.058,.746-2.823-.019l-2.182-2.268,1.387-1.441,2.216,2.301,3.614-3.703,1.398,1.43-3.607,3.696ZM9,12c3.309,0,6-2.691,6-6S12.309,0,9,0,3,2.691,3,6s2.691,6,6,6Zm0-9c1.654,0,3,1.346,3,3s-1.346,3-3,3-3-1.346-3-3,1.346-3,3-3Zm2.079,11c-.523,.904-.875,1.917-1.01,3H5c-1.103,0-2,.897-2,2v5H0v-5c0-2.757,2.243-5,5-5h6.079Z"/>
</svg>
