<?xml version="1.0" encoding="UTF-8"?>
<svg xmlns="http://www.w3.org/2000/svg" id="Layer_1" data-name="Layer 1" viewBox="0 0 24 24" width="512" height="512"><path d="m16.5,17.5l-2,1-1,2-1-2-2-1,2-1,1-2,1,2,2,1Zm-5-3.5l.833-1.667,1.667-.833-1.667-.833-.833-1.667-.833,1.667-1.667.833,1.667.833.833,1.667Zm12.5,7v3H0v-3h1.287L7.778,4.988c.716-1.767,2.264-3.019,4.141-3.35L21.175.005l-4.022,8.043,5.551,12.952h1.296Zm-19.476,0h14.915l-5.592-13.048,1.978-3.957-3.384.597c-.853.15-1.557.72-1.882,1.523l-6.035,14.885Z"/></svg>
