<?xml version="1.0" encoding="UTF-8"?>
<svg xmlns="http://www.w3.org/2000/svg" id="Layer_1" data-name="Layer 1" viewBox="0 0 24 24">
  <path d="M20.734,15.177l-1.036-1.029c.191-.685,.302-1.403,.302-2.148s-.11-1.464-.302-2.148l1.035-1.029c1.008-.971,1.023-2.579,.034-3.569l-2.022-2.022c-.989-.989-2.598-.974-3.569,.034l-1.029,1.035c-.685-.191-1.403-.302-2.148-.302s-1.464,.11-2.149,.302l-1.029-1.036c-.97-1.008-2.579-1.023-3.569-.034l-2.022,2.022c-.989,.989-.974,2.598,.034,3.569l1.035,1.029c-.191,.685-.302,1.403-.302,2.148s.11,1.465,.302,2.15l-1.036,1.027c-1.008,.97-1.023,2.579-.034,3.569l2.022,2.022c.989,.989,2.598,.974,3.569-.034l1.029-1.036c.685,.191,1.403,.302,2.148,.302s1.464-.11,2.148-.302l1.029,1.036c.97,1.008,2.579,1.023,3.569,.034l2.022-2.022c.989-.989,.974-2.598-.034-3.569Zm-13.734-3.177c0-2.757,2.243-5,5-5s5,2.243,5,5-2.243,5-5,5-5-2.243-5-5ZM20,2c0-1.105,.895-2,2-2s2,.895,2,2-.895,2-2,2-2-.895-2-2ZM0,2C0,.895,.895,0,2,0s2,.895,2,2-.895,2-2,2S0,3.105,0,2ZM24,22c0,1.105-.895,2-2,2s-2-.895-2-2,.895-2,2-2,2,.895,2,2Zm-20,0c0,1.105-.895,2-2,2s-2-.895-2-2,.895-2,2-2,2,.895,2,2Z"/>
</svg>
