<?xml version="1.0" encoding="UTF-8"?>
<svg xmlns="http://www.w3.org/2000/svg" id="Layer_1" data-name="Layer 1" viewBox="0 0 24 24">
  <path d="M23.183,4.238l-3.194,2.762v-2H11.932c-3.86,0-7,3.14-7,7,0,1.487,.47,2.865,1.264,4H2.773c-.538-1.226-.841-2.578-.841-4C1.932,6.486,6.418,2,11.932,2h8.058V0l3.194,2.785c.432,.388,.432,1.065,0,1.453Zm-2.092,3.762h-3.423c.794,1.135,1.263,2.513,1.263,4h0c0,3.859-3.14,7-7,7H4.01v-2l-3.194,2.762c-.432,.388-.432,1.065,0,1.453l3.194,2.785v-2h7.922c5.514,0,10-4.486,10-10h0c0-1.422-.303-2.774-.841-4Zm-6.208-.752l-2.883,3.495-2.883-3.495-1.234,1.019,3.08,3.733h-1.463v1.6h1.7v.8h-1.7v1.6h1.7v1h1.6v-1h1.7v-1.6h-1.7v-.8h1.7v-1.6h-1.463l3.08-3.733-1.234-1.019Z"/>
</svg>
