<?xml version="1.0" encoding="UTF-8"?>
<svg xmlns="http://www.w3.org/2000/svg" id="Layer_1" data-name="Layer 1" viewBox="0 0 24 24">
  <path d="m3.5,21h3.5v3h-3.5c-1.93,0-3.5-1.57-3.5-3.5v-3.5h3v3.5c0,.275.224.5.5.5Zm17.5-.5c0,.275-.224.5-.5.5h-3.5v3h3.5c1.93,0,3.5-1.57,3.5-3.5v-3.5h-3v3.5Zm-.5-20.5h-3.5v3h3.5c.276,0,.5.224.5.5v3.5h3v-3.5c0-1.93-1.57-3.5-3.5-3.5ZM3,3.5c0-.276.224-.5.5-.5h3.5V0h-3.5C1.57,0,0,1.57,0,3.5v3.5h3v-3.5Zm10.443,4.935l-1.439,1.44-1.439-1.44-2.121,2.121,1.44,1.44-1.44,1.44,2.121,2.121,1.439-1.44,1.439,1.44,2.121-2.121-1.44-1.44,1.44-1.44-2.121-2.121Zm5.121,7.122l1.439-1.44,1.439,1.44,2.121-2.121-1.44-1.44,1.44-1.44-2.121-2.121-1.439,1.44-1.439-1.44-2.121,2.121,1.44,1.44-1.44,1.44,2.121,2.121Zm-13.121-7.122l-1.439,1.44-1.439-1.44L.443,10.556l1.44,1.44-1.44,1.44,2.121,2.121,1.439-1.44,1.439,1.44,2.121-2.121-1.44-1.44,1.44-1.44-2.121-2.121Z"/>
</svg>
