<?xml version="1.0" encoding="UTF-8"?>
<svg xmlns="http://www.w3.org/2000/svg" id="Layer_1" data-name="Layer 1" viewBox="0 0 24 24">
  <path d="M24,3.5v6c0,1.93-1.57,3.5-3.5,3.5h-7.858c-2.008,0-3.642-1.634-3.642-3.642,0-1.801,1.344-3.351,3.127-3.605l5.161-.737,.424,2.97-5.161,.737c-.314,.045-.551,.318-.551,.636,0,.354,.288,.642,.642,.642h7.858c.275,0,.5-.224,.5-.5V3.5c0-.276-.225-.5-.5-.5H11.772l-4.954,3.433c-.721-.276-1.5-.433-2.318-.433-.851,0-1.662,.168-2.407,.466,.222-.302,.486-.578,.804-.81L10.81,0h9.69c1.93,0,3.5,1.57,3.5,3.5ZM8.854,13.61c-.326,1.277-1.196,2.333-2.353,2.911v5.479l-2.001,2-1.999-2,1.399-1.399-1.414-1.414,1.414-1.414-1.03-1.079c-1.677-.654-2.87-2.275-2.87-4.184,0-2.485,2.015-4.5,4.5-4.5,.947,0,1.824,.296,2.549,.795-.029,.228-.049,.459-.049,.694,0,1.637,.719,3.102,1.854,4.11Zm-2.854-2.11c0-.828-.672-1.5-1.5-1.5s-1.5,.672-1.5,1.5,.672,1.5,1.5,1.5,1.5-.672,1.5-1.5Z"/>
</svg>
