<svg id="Layer_1" viewBox="0 0 24 24" xmlns="http://www.w3.org/2000/svg" data-name="Layer 1"><path d="m11.886 2.5c0-1.381 1.119-2.5 2.5-2.5s2.5 1.119 2.5 2.5-1.119 2.5-2.5 2.5-2.5-1.119-2.5-2.5zm10.114 17.5c-1.105 0-2 .895-2 2s.895 2 2 2 2-.895 2-2-.895-2-2-2zm-5.355-2.926 2.159 5.909-2.817 1.029-1.859-5.087-4.7-3.598c-1.39-.922-1.938-2.694-1.303-4.244.033-.093 1.702-3.419 1.746-3.517l-4.297-1.998-3.057-3.551 2.274-1.957 2.635 3.062 15.093 7.018-1.265 2.721-6.889-3.203-1.99 4.149 4.269 3.268zm-10.25-2.328-1.568 1.186-3.034-2.286-1.805 2.396 4.844 3.649 3.523-2.665c-.862-.586-1.542-1.373-1.959-2.28z"/></svg>