<?xml version="1.0" encoding="UTF-8"?>
<svg xmlns="http://www.w3.org/2000/svg" id="Layer_1" data-name="Layer 1" viewBox="0 0 24 24">
  <path d="m12.41,12l3.063-3h1.527v3h-4.59ZM22,2v18.5c0,1.93-1.57,3.5-3.5,3.5H5.5c-1.93,0-3.5-1.57-3.5-3.5V2h5.338c.562-1.182,1.769-2,3.162-2h3c1.394,0,2.6.818,3.162,2h5.338Zm-3,3h-5v-1.5c0-.276-.225-.5-.5-.5h-3c-.275,0-.5.224-.5.5v1.5h-5v15.5c0,.276.225.5.5.5h13c.275,0,.5-.224.5-.5V5Zm-10.327,7.006c.585,0,1.169-.226,1.618-.676l2.692-2.692-2.121-2.121-2.203,2.203-.928-.878-2.062,2.178,1.43,1.354c.445.422,1.011.632,1.574.632Zm6.8,2.994l-3.063,3h4.59v-3h-1.527Zm-4.611-2.483l-2.203,2.203-.928-.878-2.062,2.178,1.43,1.354c.445.422,1.011.632,1.574.632.585,0,1.169-.226,1.618-.676l2.692-2.692-2.121-2.121Z"/>
</svg>
