<?xml version="1.0" encoding="UTF-8"?>
<svg xmlns="http://www.w3.org/2000/svg" id="Layer_1" data-name="Layer 1" viewBox="0 0 24 24">
  <path d="M17.897,9.533l-.897-1.025v-1.508c0-1.103-.897-2-2-2h-1.367c.23-1.341,.367-2.571,.367-3,0-1.105-.895-2-2-2s-2,.895-2,2c0,.429,.136,1.659,.367,3h-1.367c-1.103,0-2,.897-2,2v1.508l-.897,1.025c-1.356,1.55-2.103,3.538-2.103,5.598v8.87H20V15.13c0-2.06-.747-4.047-2.103-5.598Zm-.897,11.467H7v-5H15v-.87c0-.776-.268-1.52-.739-2.13H7.446c.227-.537,.525-1.046,.915-1.492l1.32-1.508h4.639l1.32,1.508c.877,1.003,1.361,2.29,1.361,3.622v5.87Z"/>
</svg>
