<?xml version="1.0" encoding="UTF-8"?>
<svg xmlns="http://www.w3.org/2000/svg" id="Layer_1" data-name="Layer 1" viewBox="0 0 24 24">
  <path d="m20.97,13v2h3v-5h-5.984l-4.516-3.266v-1.119c.913-.514,1.53-1.492,1.53-2.615,0-1.657-1.343-3-3-3s-3,1.343-3,3c0,1.098.59,2.057,1.47,2.58v1.159l-4.46,3.261H-.03v5h3v-2h3.04l5.955,4.354,6.021-4.354h2.984Zm-8.995.646l-2.934-2.146,2.934-2.146,2.966,2.146-2.966,2.146Zm10.616,6.854l1.439,1.439-2.121,2.121-1.439-1.439-1.439,1.439-2.121-2.121,1.439-1.439-1.439-1.439,2.121-2.121,1.439,1.439,1.439-1.439,2.121,2.121-1.439,1.439Zm-15.913-3.894l2.121,2.121-5.195,5.195L.044,20.362l2.121-2.121,1.439,1.439,3.074-3.074Z"/>
</svg>
