<?xml version="1.0" encoding="UTF-8"?>
<svg xmlns="http://www.w3.org/2000/svg" id="Layer_1" data-name="Layer 1" viewBox="0 0 24 24">
  <path d="m24,7.467c0-1.496-.596-2.917-1.681-4.002C20.073,1.219,16.261-.023,11.872,0,7.615.045,3.806,1.34,1.681,3.465.596,4.55,0,5.971,0,7.466v4.534h2.489l-1.115,2.069c-.898,1.671-1.374,3.556-1.374,5.452v4.479h24v-4.479c0-1.896-.476-3.781-1.375-5.452l-1.114-2.069h2.489v-4.533Zm-21-.003c0-.693.284-1.361.802-1.878,1.56-1.559,4.663-2.55,8.102-2.585,3.534-.016,6.64.93,8.295,2.585.518.518.803,1.185.802,1.88v1.534h-1.15l-1.256-2.093s-3.217-1.907-6.594-1.907-6.594,1.907-6.594,1.907l-1.256,2.093h-1.15v-1.536Zm18,13.536H3v-1.479c0-1.401.352-2.794,1.016-4.03l2.282-4.237,1.277-2.129c.688-.347,2.454-1.125,4.426-1.125s3.74.78,4.426,1.125l1.277,2.129,2.281,4.238c.665,1.235,1.017,2.628,1.017,4.03v1.479Zm-5-6c0,2.206-1.794,4-4,4s-4-1.794-4-4,1.794-4,4-4,4,1.794,4,4Z"/>
</svg>
