<svg id="Layer_1" viewBox="0 0 24 24" xmlns="http://www.w3.org/2000/svg" data-name="Layer 1"><path d="m11 21c0 1.13.391 2.162 1.026 3h-12.026v-20.5c0-1.93 1.57-3.5 3.5-3.5h11c1.93 0 3.5 1.57 3.5 3.5v3.525c-1.1.084-2.121.44-3 1.003v-4.528c0-.275-.225-.5-.5-.5h-11c-.275 0-.5.225-.5.5v17.5zm-1-8h2.025c.082-1.08.428-2.132.975-3h-3zm3-8h-3v3h3zm-8 13h3v-3h-3zm3-8h-3v3h3zm16 5v6c0 1.654-1.346 3-3 3h-5c-1.654 0-3-1.346-3-3v-6h1v-1.5c0-2.481 2.019-4.5 4.5-4.5s4.5 2.019 4.5 4.5v1.5zm-4 3h-3v3h3zm0-4.5c0-.827-.673-1.5-1.5-1.5s-1.5.673-1.5 1.5v1.5h3zm-12-8.5h-3v3h3z"/></svg>