<?xml version="1.0" encoding="UTF-8"?>
<svg xmlns="http://www.w3.org/2000/svg" id="Layer_1" data-name="Layer 1" viewBox="0 0 24 24" width="512" height="512"><path d="m24,5s-1.871,1.023-4,1.963V2h-3v5h-2V1h-1.5c-1.181,0-3.842.362-6.492,1.215C5.087,1.262,2.952.978,0,.978c0,0,1.59,1.286,2.234,3.582-1.339,1.041-2.234,2.342-2.234,3.94,0,1.687.996,3.042,2.46,4.111L0,20.938v2.062h7.895l1.983-7.463c1.546.32,2.878.463,3.622.463h1.5v-6h2v5h3v-4.963c2.129.94,4,1.963,4,1.963v-7ZM5.588,20h-2.183l1.744-5.904c.596.254,1.211.48,1.827.679l-1.389,5.225Zm6.412-7.115c-3.59-.486-9-2.442-9-4.385s5.41-3.898,9-4.385v8.77Z"/></svg>
