<?xml version="1.0" encoding="UTF-8"?>
<svg xmlns="http://www.w3.org/2000/svg" id="Layer_1" data-name="Layer 1" viewBox="0 0 24 24">
  <path d="m5.048,14.948l4.952,4.843v4.195l-7.059-6.903s-.005-.01-.009-.014l-.002.002c-1.889-1.889-2.929-4.4-2.929-7.071S1.04,4.817,2.929,2.929,7.33,0,10,0s5.181,1.04,7.07,2.929,2.929,4.399,2.929,7.071c0,1.033-.16,2.041-.46,3h-3.22c.439-.925.679-1.943.679-3,0-1.87-.728-3.628-2.05-4.95-1.322-1.321-3.08-2.05-4.949-2.05s-3.628.729-4.95,2.05c-1.322,1.322-2.05,3.08-2.05,4.95s.727,3.626,2.048,4.948Zm15.073,5.175c-.585.585-1.353.877-2.121.877s-1.536-.292-2.121-.877l-3.879-3.879v7.756h12v-7.756l-3.879,3.879Zm-2.828-1.414c.378.377,1.036.377,1.414,0l3.708-3.708h-8.831l3.709,3.708Zm-4.231-8.728c0-1.655-1.342-2.997-2.997-2.997-.225,0-.443.029-.654.076-1.374.274-2.41,1.486-2.41,2.941,0,1.657,1.343,3,3,3,.418,0,.816-.087,1.178-.241,1.103-.443,1.884-1.517,1.884-2.778Z"/>
</svg>
