<svg id="Layer_1" viewBox="0 0 24 24" xmlns="http://www.w3.org/2000/svg" data-name="Layer 1"><path d="m24 8.775-3.975-2.166v-6.609h-16v6.609c-.605.335-3.529 1.891-4.025 2.264v1.781l4.025 2.194v8.152c0 1.657 1.343 3 3 3h10c1.657 0 3-1.343 3-3v-8.152l3.975-2.166zm-6.975-5.775v8.067l-5 2.725-5-2.725v-8.067zm-3.001 19.008h-4v-2h4zm3.001-4.008h-10v-3.517l5 2.725 5-2.725zm-5.617-6.57-2.383-1.43v-3.399l2.383-1.43c.38-.228.854-.228 1.234 0l2.383 1.43v3.399l-2.383 1.43c-.38.228-.854.228-1.234 0z"/></svg>