<?xml version="1.0" encoding="UTF-8"?>
<svg xmlns="http://www.w3.org/2000/svg" id="Layer_1" data-name="Layer 1" viewBox="0 0 24 24">
  <path d="M18,8h3v2.587c-.927-.376-1.938-.587-3-.587v-2Zm-10,10v3h2.587c-.376-.927-.587-1.938-.587-3h-2ZM0,3.5v2.5H3V3.5c0-.276,.225-.5,.5-.5h2.5V0H3.5C1.57,0,0,1.57,0,3.5Zm3,4.5H0v5H3v-5Zm0,7H0v6H6v-3H3v-3ZM18,3.5v2.5h3V3.5c0-1.93-1.57-3.5-3.5-3.5h-2.5V3h2.5c.275,0,.5,.224,.5,.5ZM13,0h-5V3h5V0Zm11,18c0,3.314-2.686,6-6,6s-6-2.686-6-6,2.686-6,6-6,6,2.686,6,6Zm-2-1h-3v-3h-2v3h-3v2h3v3h2v-3h3v-2Z"/>
</svg>
