<?xml version="1.0" encoding="UTF-8"?>
<svg xmlns="http://www.w3.org/2000/svg" id="Layer_1" data-name="Layer 1" viewBox="0 0 24 24">
  <path d="m6,6.054v2.93c0,3.309,2.691,6,6,6s6-2.691,6-6v-2.964c1.219-.563,1.962-1.386,1.962-2.521,0-2.5-3.582-3.5-8-3.5S3.962,1,3.962,3.5c0,1.158.775,1.99,2.038,2.554Zm9,2.93c0,1.654-1.346,3-3,3s-3-1.346-3-3v-1.199c.833.123,1.818.214,3,.214s2.167-.091,3-.214v1.199Zm-5.5-5.984h1.812l.491-1.875h.404l.49,1.875h1.802v.382l-1.375.796.552,1.679-.312.218-1.359-1.051-1.364,1.055-.301-.226.543-1.698-1.384-.77v-.384Zm6.781,16l-1.4,2h6.119v3H3v-3h6.119l-1.4-2H3v-3h6.281l2.719,3.884,2.719-3.884h6.281v3h-4.719Z"/>
</svg>
