<svg id="Layer_1" viewBox="0 0 24 24" xmlns="http://www.w3.org/2000/svg" data-name="Layer 1"><path d="m13.5 13c0 1.381-1.119 2.5-2.5 2.5s-2.5-1.119-2.5-2.5 1.119-2.5 2.5-2.5 2.5 1.119 2.5 2.5zm3.5 2c-1.105 0-2 .895-2 2s.895 2 2 2 2-.895 2-2-.895-2-2-2zm-10-10c-1.105 0-2 .895-2 2s.895 2 2 2 2-.895 2-2-.895-2-2-2zm17 12v4.85l-.728.437c-.117.07-2.896 1.714-6.272 1.714-1.87 0-3.627-.729-4.95-2.051-.432-.432-.802-.917-1.106-1.449-4.092-.03-7.415-3.353-7.444-7.444-.533-.305-1.018-.675-1.45-1.106-1.322-1.323-2.05-3.081-2.05-4.951 0-3.377 1.644-6.155 1.714-6.271l.437-.729h4.849c1.87 0 3.627.729 4.95 2.051 1.108 1.108 1.792 2.518 1.981 4.052 1.786.757 3.209 2.18 3.967 3.967 1.534.189 2.943.872 4.052 1.981 1.322 1.321 2.05 3.079 2.05 4.949zm-3 0c0-1.068-.416-2.073-1.171-2.828-.785-.784-1.845-1.207-2.968-1.154l-1.208.043-.298-1.172c-.406-1.595-1.648-2.837-3.243-3.242l-1.172-.298.042-1.209c.04-1.13-.37-2.184-1.154-2.968-.756-.756-1.76-1.172-2.829-1.172h-3.076c-.38.851-.923 2.354-.923 4 0 1.068.416 2.073 1.171 2.828.395.395.874.699 1.425.906l1.129.424c-.055.451-.23 1.396-.225 1.842 0 2.481 2.019 4.5 4.5 4.5.443.004 1.397-.169 1.844-.223l.423 1.128c.206.55.51 1.028.905 1.423.756.756 1.76 1.172 2.829 1.172 1.646 0 3.148-.542 4-.923v-3.077z"/></svg>