<?xml version="1.0" encoding="UTF-8"?>
<svg xmlns="http://www.w3.org/2000/svg" id="Layer_1" data-name="Layer 1" viewBox="0 0 24 24">
  <path d="m8,12c-3.309,0-6-2.691-6-6S4.691,0,8,0s6,2.691,6,6-2.691,6-6,6Zm0-9c-1.654,0-3,1.346-3,3s1.346,3,3,3,3-1.346,3-3-1.346-3-3-3ZM3,19c0-1.103.897-2,2-2h2v-3h-2C2.243,14,0,16.243,0,19v5h3v-5Zm17.4-2.5c0-.496-.404-.9-.9-.9h-.9v1.8h.9c.496,0,.9-.404.9-.9Zm.6-4.5h-9c-1.657,0-3,1.343-3,3v9h15v-9c0-1.657-1.343-3-3-3Zm-5,10h-1.6v-3.205h-1.8v3.205h-1.6v-8h1.6v3.195h1.8v-3.195h1.6v8Zm4.988-3.491c-.018.012-.018.012-.042.029l1.054,3.462h-1.744l-.872-3h-.784v3h-1.6v-8h2.5c1.381,0,2.5,1.119,2.5,2.5,0,.846-.423,1.592-1.067,2.044.024-.014.036-.023.055-.035Z"/>
</svg>
