<?xml version="1.0" encoding="UTF-8"?>
<svg xmlns="http://www.w3.org/2000/svg" id="Layer_1" data-name="Layer 1" viewBox="0 0 24 24">
  <path d="m18.682,1H5.318C2.386,1,0,3.386,0,6.318c0,1.557.734,3.011,2,4.028v12.653h20v-12.653c1.266-1.018,2-2.472,2-4.028,0-2.933-2.386-5.318-5.318-5.318Zm1.063,7.266l-.745.434v11.301H5v-11.301l-.745-.434c-.786-.458-1.255-1.186-1.255-1.947,0-1.278,1.04-2.318,2.318-2.318h13.363c1.278,0,2.318,1.04,2.318,2.318,0,.762-.469,1.489-1.255,1.947Zm-6.835,1.112l2.712,2.712c.503.503.503,1.318,0,1.821l-2.712,2.712c-.503.503-1.318.503-1.821,0l-2.712-2.712c-.503-.503-.503-1.318,0-1.821l2.712-2.712c.503-.503,1.318-.503,1.821,0Z"/>
</svg>
