<?xml version="1.0" encoding="UTF-8"?>
<svg xmlns="http://www.w3.org/2000/svg" id="Layer_1" data-name="Layer 1" viewBox="0 0 24 24">
  <path d="m13.439,11.939l-2.689,2.689-1.379-1.379,2.689-2.689-2.121-2.121-2.689,2.689-1.939-1.939-2.121,2.121.912.912-.8.8c-1.609,1.609-1.724,4.156-.345,5.899L.049,21.83l2.121,2.121,2.908-2.908c.805.636,1.78.955,2.756.954,1.139,0,2.276-.433,3.144-1.299l.8-.8.912.912,2.121-2.121-1.939-1.939,2.689-2.689-2.121-2.121Zm-4.583,6.637c-.562.564-1.48.563-2.045,0l-1.389-1.389c-.563-.563-.563-1.481,0-2.045l.8-.8,3.433,3.433-.799.799Zm12.186-13.498l2.922-2.922L21.844.035l-2.922,2.922c-1.744-1.378-4.291-1.264-5.9.345l-.8.8-.887-.887-2.121,2.121,9.5,9.5,2.121-2.121-.937-.937.8-.8c1.608-1.609,1.722-4.156.344-5.899Zm-6.699,1.145l.799-.799c.562-.564,1.48-.563,2.045,0l1.388,1.389c.563.563.563,1.481,0,2.045l-.8.8-3.433-3.433Z"/>
</svg>
