<svg id="Layer_1" viewBox="0 0 24 24" xmlns="http://www.w3.org/2000/svg" data-name="Layer 1"><path d="m22.198 12.864c.207-.253.415-.506.595-.788 1.612-2.527 1.596-5.916-.04-8.432-1.327-2.04-3.452-3.353-5.83-3.601-2.119-.224-4.196.415-5.818 1.751l-3.039-.702c-1.233-.284-2.501.08-3.395.975l-2.605 2.605c-.894.894-1.258 2.162-.974 3.394l.709 3.07c-.207.253-.415.506-.594.787-1.612 2.527-1.597 5.915.039 8.431 1.473 2.279 3.984 3.654 6.66 3.646 1.827 0 3.584-.631 4.993-1.793l3.033.7c.275.063.553.095.827.095.953 0 1.874-.375 2.567-1.069l2.605-2.605c.894-.894 1.258-2.162.974-3.395l-.708-3.069zm-18.01-6.07 2.605-2.605c.159-.158.382-.224.599-.172l1.651.381c-.074.151-.151.3-.216.457-.795 1.915-2.083 3.278-3.627 3.84-.278.101-.536.237-.798.367l-.385-1.669c-.05-.217.014-.44.172-.599zm3.2 14.18c-1.495-.156-2.782-.957-3.626-2.254-1.006-1.547-1.016-3.63-.025-5.183.608-.954 1.468-1.653 2.486-2.022 2.345-.853 4.254-2.81 5.375-5.51.245-.589.599-1.118 1.054-1.573 2.119-2.205 5.988-1.78 7.586.848 1.006 1.547 1.016 3.631.026 5.184-.608.954-1.468 1.653-2.487 2.023-2.345.852-4.254 2.808-5.375 5.509-.245.589-.599 1.118-1.054 1.573-1.045 1.047-2.49 1.553-3.961 1.405zm12.424-3.768-2.605 2.605c-.158.159-.382.224-.599.172l-1.651-.381c.074-.151.151-.301.216-.457.795-1.915 2.083-3.278 3.627-3.839.278-.101.536-.237.798-.367l.385 1.668c.05.217-.014.44-.172.599z"/></svg>