<?xml version="1.0" encoding="UTF-8"?>
<svg xmlns="http://www.w3.org/2000/svg" id="Layer_1" data-name="Layer 1" viewBox="0 0 24 24">
  <path d="m11,7.25v1.75h5v3h-5v2l-2.78-2.845c-.293-.293-.293-.768,0-1.061l2.78-2.845Zm4.78,8.845l-2.78-2.845v1.75h-5v3h5v2l2.78-2.845c.293-.293.293-.768,0-1.061ZM5,5c1.381,0,2.5-1.119,2.5-2.5S6.381,0,5,0s-2.5,1.119-2.5,2.5,1.119,2.5,2.5,2.5Zm1,10h-3v-5.5c0-.276.225-.5.5-.5,0,0,3.024.007,3.037.008.083-.113,2.132-2.233,2.132-2.233-.598-.477-1.346-.774-2.169-.774h-3c-1.93,0-3.5,1.57-3.5,3.5v8.5h2v6h6v-4h-2v-5Zm13-10c1.381,0,2.5-1.119,2.5-2.5s-1.119-2.5-2.5-2.5-2.5,1.119-2.5,2.5,1.119,2.5,2.5,2.5Zm5,4.5c0-1.93-1.57-3.5-3.5-3.5h-2.5v3h2.5c.275,0,.5.224.5.5v5.5h-3.541c.343.463.541,1.026.541,1.625,0,.734-.286,1.425-.806,1.944l-1.194,1.222v4.209h6v-6h2v-8.5Z"/>
</svg>
