<svg id="Layer_1" viewBox="0 0 24 24" xmlns="http://www.w3.org/2000/svg" data-name="Layer 1"><path d="m15.091 10c0-2.703-1.467-4.616-4.045-5.481v-1.519h-2v-3h-3v3h-2v1.519c-2.579.865-4.046 2.778-4.046 5.481 0 2.687 1.449 4.594 4 5.465v1.535h2.667l-.667 4h3l-.667-4h2.667v-1.504c2.607-.857 4.091-2.777 4.091-5.496zm-12.091 0c0-1.752 1.187-2.742 3.527-2.955-.287.709-.527 1.672-.527 2.955s.24 2.245.527 2.955c-2.34-.213-3.527-1.203-3.527-2.955zm5.471 2.959c.288-.71.529-1.674.529-2.959s-.241-2.249-.529-2.959c2.398.196 3.62 1.185 3.62 2.959s-1.222 2.763-3.62 2.959zm15.529.041c0 2.687-1.449 4.594-4 5.465v1.535h-2.667l.667 4h-3l.667-4h-2.667v-3.199c.55-.282 1.053-.61 1.5-.985.562.122 1.212.185 1.954.185 3.017 0 4.546-1.01 4.546-3 0-.742 0-3-4-3v-1.243c-.225-1.647-.9-3.053-2-4.148v-4.61h3v6h2v1.448c2.523.837 4 2.807 4 5.552z"/></svg>