<?xml version="1.0" encoding="UTF-8"?>
<svg xmlns="http://www.w3.org/2000/svg" id="Layer_1" data-name="Layer 1" viewBox="0 0 24 24" width="512" height="512"><path d="M6,2.5c0-1.38,1.12-2.5,2.5-2.5s2.5,1.12,2.5,2.5-1.12,2.5-2.5,2.5-2.5-1.12-2.5-2.5Zm7.36,9.98l3.13,2.94,4.54,8.56,2.65-1.41-4.78-9-3.33-3.12-2.63-3.02c-.68-.86-1.86-1.43-2.95-1.43h-2.35c-1.21,0-2.32,.61-2.93,1.59L.26,14.16l2.48,1.69,3.26-4.8v4.27l5.33,3.46,2.6,5.15,2.68-1.35-2.96-5.87-2.65-1.72v-5.22l2.36,2.72ZM4.45,24h3.05l.8-4.92-2.71-1.81-1.15,6.72Z"/></svg>
