<?xml version="1.0" encoding="UTF-8"?>
<svg xmlns="http://www.w3.org/2000/svg" id="Layer_1" data-name="Layer 1" viewBox="0 0 24 24">
  <path d="m21.118,5c-.118,0-.224-.065-.277-.171-.564-1.128-1.698-1.829-2.959-1.829h-.882V0c-1.657,0-3,1.343-3,3v.705l-1.392,3.856L4.39,0H-.042l8.695,7.999h-2.152c-.803,0-1.566.226-2.243.618-.488-.391-1.258-1.223-1.258-2.622H0c0,2.527,1.334,4.09,2.306,4.896-.194.508-.305,1.049-.305,1.609l.003,11.5h5v-5h7v5h5v-6.814l1.051-4.186h.445c1.93,0,3.5-1.57,3.5-3.5v-4.5h-2.882ZM5.001,16v-3.5c0-.401.155-.777.438-1.061.284-.283.66-.439,1.061-.439h4.5v5.001h-5.999Zm8.999,0v-4.25l2.965,1.235-.757,3.014h-2.208Zm7-6.5c0,.276-.224.5-.5.5h-2.796l-2.436-.972,1.093-3.028h1.521c.118,0,.224.065.277.171.547,1.093,1.628,1.784,2.841,1.827v1.502Z"/>
</svg>
