<svg id="Layer_1" viewBox="0 0 24 24" xmlns="http://www.w3.org/2000/svg" data-name="Layer 1"><path d="m11 21c-.421 0-.82-.011-1.203-.028l-.425-2.972h3.139c.38-1.112.949-2.159 1.664-3h-10.58c-.216-.703-.323-1.339-.404-2.016-.052-.711.041-1.25.29-1.601.865-1.219 4.286-1.383 7.519-1.383 3.384 0 6.632.162 7.48 1.342.169.234.269.556.301.961.262-.065.519-.145.787-.188.825-.134 1.607-.149 2.323-.056.067-.518.109-.906.109-1.06 0-6.064-4.935-10.999-11-10.999s-11 4.935-11 11c.112 3.006 1.392 9.435 1.649 10.939 1.341.716 2.757 1.895 9.351 2.061.621 0 1.201-.021 1.752-.053-.518-.84-.758-1.872-.759-2.97-.321.012-.646.023-.993.023zm0-18c3.261 0 6.068 1.964 7.313 4.77-1.142-.399-2.576-.602-4.313-.695v-1.074h-6v1.079c-1.721.097-3.165.307-4.324.714 1.239-2.818 4.053-4.793 7.324-4.793zm-7.016 15h2.358l.375 2.626c-1.114-.212-1.904-.472-2.383-.66-.112-.616-.231-1.282-.35-1.966zm19.285-3.269c-1.341-1.342-5.25-.787-7.287 1.25s-2.592 5.945-1.25 7.287 5.25.787 7.287-1.25 2.592-5.945 1.25-7.287zm-5.106 6.521-1.414-1.414 3.095-3.096 1.414 1.414z"/></svg>