<?xml version="1.0" encoding="UTF-8"?>
<svg xmlns="http://www.w3.org/2000/svg" id="Layer_1" data-name="Layer 1" viewBox="0 0 24 24">
  <path d="M22.825,4.036c-.19-.043-4.73-1.036-10.825-1.036S1.365,3.993,1.175,4.036l-1.175,.261v15.406l1.175,.261c.19,.043,4.73,1.036,10.825,1.036s10.635-.993,10.825-1.036l1.175-.261V4.297l-1.175-.261Zm-1.825,13.221c-1.677,.284-5,.743-9,.743s-7.319-.46-9-.744V6.743c1.677-.284,5-.743,9-.743s7.319,.46,9,.744v10.513Zm-5.22-2.257h-1.28v-6h1.28v.006l1.44,3.041v-3.047h1.28v6h-1.28l-1.44-3.041v3.041Zm-5.28-6v6h1.25v-2.027l.217-.003c1.109,0,2.012-.891,2.012-1.985s-.902-1.985-2.012-1.985h-1.467Zm2.229,1.985c0,.398-.349,.735-.762,.735l-.21,.003-.005-1.473h.215c.413,0,.762,.336,.762,.735Zm-4.25-1.985h1.261l-.981,4.819c-.094,.485-.489,1.181-1.221,1.181s-1.132-.727-1.214-1.148l-1.036-4.852h1.31l.94,4.55,.94-4.55Z"/>
</svg>
