<?xml version="1.0" encoding="UTF-8"?>
<svg xmlns="http://www.w3.org/2000/svg" id="Layer_1" data-name="Layer 1" viewBox="0 0 24 24">
  <path d="m22,19v-11c0-4.418-1.791-8-4-8H5.5C2.416,0,0,3.514,0,8c0,4.24,2.159,7.612,5,7.968v3.532c0,2.481,2.019,4.5,4.5,4.5h14.5v-3c-1.103,0-2-.897-2-2Zm-3-11c0,1.933-.448,3.5-1,3.5s-1-1.567-1-3.5.448-3.5,1-3.5,1,1.567,1,3.5Zm-15.874,1.5h2.029v-3h-2.029c.357-2.077,1.412-3.5,2.374-3.5h9.378c-.4.998-.683,2.193-.807,3.5h-2.07v3h2.07c.124,1.307.407,2.502.807,3.5H5.5c-.962,0-2.018-1.423-2.374-3.5Zm6.374,11.5c-.827,0-1.5-.673-1.5-1.5v-3.5h10c.345,0,.68-.088,1-.252v3.252c0,.71.149,1.387.418,2h-9.918Zm.5-11.5h-3v-3h3v3Z"/>
</svg>
