<?xml version="1.0" encoding="UTF-8"?>
<svg xmlns="http://www.w3.org/2000/svg" id="Layer_1" data-name="Layer 1" viewBox="0 0 24 24">
  <path d="M14.5,13c-.828,0-1.5-.672-1.5-1.5s.672-1.5,1.5-1.5,1.5,.672,1.5,1.5-.672,1.5-1.5,1.5Zm9.5-2c0,1.884-1.313,3.455-3.069,3.877-.455,3.274-3.426,6.829-8.931,9.122-7-2.499-9-6.499-9-9.999h.5c.113,0,1.221-.016,2.841-.421,.239,.817,.658,1.526,1.169,2.139,.615-1.024,1.725-1.718,3.004-1.718h2.973c1.279,0,2.389,.694,3.003,1.718,.511-.613,.93-1.322,1.169-2.138,.006,.001,.011,.002,.016,.004,.1-.28,.294-1.279,.364-1.583h1.96c.551,0,1-.449,1-1,0-.542-.424-.982-.965-1.001l-1.253-.044-.179-1.241c-.469-3.257-3.308-5.714-6.603-5.714-3.437,0-6.303,2.49-6.89,5.761,1.544-.372,3.964-1.33,6.235-3.761h.655c.951,0,1.839,.304,2.588,.807-1.54,1.972-3.211,3.309-4.78,4.225,.681,.142,1.192,.745,1.192,1.468,0,.828-.672,1.5-1.5,1.5s-1.5-.672-1.5-1.5c0-.221,.051-.43,.137-.619-2.523,1.087-4.477,1.119-4.637,1.119h-1.5v-2C2,4.486,6.486,0,12,0c4.416,0,8.265,3.043,9.36,7.233,1.549,.555,2.64,2.029,2.64,3.767Zm-9.987,6.513c0-.834-.679-1.513-1.513-1.513h-.973c-.834,0-1.514,.679-1.514,1.513v.05c.666,.275,1.347,.436,1.987,.436,.648,0,1.339-.166,2.013-.448v-.039Z"/>
</svg>
