<?xml version="1.0" encoding="UTF-8"?>
<svg xmlns="http://www.w3.org/2000/svg" id="Layer_1" data-name="Layer 1" viewBox="0 0 24 24">
  <path d="m22.834,6.801c1.552-1.555,1.552-4.081,0-5.634-1.553-1.552-4.079-1.554-5.634,0L6.327,12.04c-1.444.024-2.797.598-3.82,1.621C.673,15.494.193,20.748.09,22.314l-.112,1.708,1.708-.112c1.566-.104,6.82-.583,8.653-2.417,1.023-1.023,1.597-2.377,1.621-3.82l10.874-10.872Zm-3.514-3.512c.383-.385,1.009-.384,1.392,0,.383.384.383,1.008,0,1.392l-9.739,9.738c-.187-.268-.398-.521-.634-.757s-.489-.447-.757-.634L19.32,3.289Zm-11.103,16.083c-.553.553-2.743,1.082-4.958,1.368.286-2.215.815-4.405,1.368-4.958.495-.495,1.145-.742,1.795-.742s1.3.247,1.795.742c.989.99.989,2.6,0,3.59ZM1.186,6.91C-.393,5.332-.393,2.764,1.186,1.186S5.332-.393,6.91,1.186l3.754,3.754-2.121,2.121-3.754-3.754c-.408-.408-1.074-.408-1.482,0-.408.409-.408,1.073,0,1.482l3.754,3.754-2.121,2.121-3.754-3.754Zm22.814,11.365v5.725h-5.725l-4.946-4.946,2.121-2.121,4.067,4.067h1.482v-1.482l-4.068-4.067,2.121-2.121,4.947,4.946Z"/>
</svg>
