<?xml version="1.0" encoding="UTF-8"?>
<svg xmlns="http://www.w3.org/2000/svg" id="Layer_1" data-name="Layer 1" viewBox="0 0 24 24">
  <path d="m20,13.738c-.64.165-1.308.262-2,.262-.339,0-.672-.028-1-.069v2.069h-7v4c0,.551-.448,1-1,1s-1-.449-1-1V4c0-.345-.044-.68-.127-1h2.714c.471-1.162,1.208-2.185,2.134-3H4C1.794,0,0,1.794,0,4v4h5v12c0,2.206,1.794,4,4,4h11c2.206,0,4-1.794,4-4v-4h-4v-2.262ZM5,5h-2v-1c0-.551.448-1,1-1s1,.449,1,1v1Zm16,15c0,.551-.448,1-1,1h-7.127c.083-.32.127-.655.127-1v-1h8v1Zm-3-8c3.314,0,6-2.686,6-6S21.314,0,18,0s-6,2.686-6,6,2.686,6,6,6Zm-2.87-7.284l2.216,2.301,3.614-3.703,1.398,1.43-3.607,3.696-.004.004c-.744.744-2.058.746-2.823-.019l-2.182-2.268,1.387-1.441Z"/>
</svg>
