<svg id="Layer_1" viewBox="0 0 24 24" xmlns="http://www.w3.org/2000/svg" data-name="Layer 1"><path d="m15 6h9v4h-24v-4h9c0 1.105.895 2 2 2h2c1.105 0 2-.895 2-2zm6.5-6h-6.5c0 1.105-.895 2-2 2h-2c-1.105 0-2-.895-2-2h-6.5c-1.381 0-2.5 1.119-2.5 2.5v1.5h24v-1.5c0-1.381-1.119-2.5-2.5-2.5zm-5.377 13.006-.005-.006h-3.772c-1.296 0-2.346 1.05-2.346 2.346 0 1.167.858 2.157 2.014 2.322l5.986.832.026-2.041c1.745.779 2.974 2.51 2.974 4.541v3h3v-3c0-4.377-3.516-7.927-7.877-7.994zm-6.535 5.672c-.948-.783-1.554-1.953-1.581-3.244l-4.436-3.087c-1.105-.678-2.55-.33-3.227.775-.671 1.097-.334 2.529.755 3.212l11.322 7.666h4.578v-3h-3.808s-3.097-1.904-3.603-2.322z"/></svg>