<?xml version="1.0" encoding="UTF-8"?>
<svg xmlns="http://www.w3.org/2000/svg" id="Layer_1" data-name="Layer 1" viewBox="0 0 24 24" width="512" height="512"><path d="m12.05,13c.232,1.141,1.24,2,2.45,2,1.381,0,2.5-1.119,2.5-2.5,0-1.209-.859-2.218-2-2.45v-5.101c1.141-.232,2-1.24,2-2.45,0-1.381-1.119-2.5-2.5-2.5-1.21,0-2.218.859-2.45,2h-7.101c-.232-1.141-1.24-2-2.45-2C1.119,0,0,1.119,0,2.5c0,1.209.859,2.218,2,2.45v5.101c-1.141.232-2,1.24-2,2.45,0,1.381,1.119,2.5,2.5,2.5,1.209,0,2.218-.859,2.45-2h7.101ZM5,5h7v5h-7v-5Zm18.886,17.266c-.228.767-.853,1.391-1.619,1.619-1.528.455-2.937-.51-3.216-1.886h-7.101c-.279,1.376-1.688,2.341-3.217,1.885-.767-.229-1.391-.853-1.619-1.62-.455-1.528.511-2.936,1.886-3.216v-3.05h3v3h7v-6.45s0,0,0,0h0c-.078-.776.242-1.566.895-1.992,1.998-1.305,4.105.097,4.105,1.991,0,1.209-.858,2.217-1.998,2.449,0,0-.001,0-.001.002v4.05c1.376.279,2.341,1.688,1.886,3.216Z"/></svg>
