<svg id="Layer_1" viewBox="0 0 24 24" xmlns="http://www.w3.org/2000/svg" data-name="Layer 1"><path d="m13 18h-10v-15h7.587c.471-1.162 1.208-2.185 2.134-3h-12.721v21c0 1.657 1.343 3 3 3h10c1.657 0 3-1.343 3-3v-7.262c-1.112-.287-2.131-.801-3-1.498zm-3.001 4.008h-4v-2h4zm8.001-22.008c-3.314 0-6 2.686-6 6s2.686 6 6 6 6-2.686 6-6-2.686-6-6-6zm3.536 8.121-1.414 1.414-2.121-2.121-2.121 2.121-1.414-1.414 2.121-2.121-2.121-2.121 1.414-1.414 2.121 2.121 2.121-2.121 1.414 1.414-2.121 2.121zm-15.536 6.879 1.359-3h-1.709l-1.546-1.833c-.297-.52.078-1.167.677-1.167.207 0 .405.082.551.228l.924.772h1.12l-1.376-3h1.096c.407 0 .781.222.975.579l1.929 2.421h.75c.802 0 1.25.448 1.25 1v1h-2l-1.911 2.421c-.195.357-.569.579-.975.579h-1.113z"/></svg>