<svg id="Layer_1" viewBox="0 0 24 24" xmlns="http://www.w3.org/2000/svg" data-name="Layer 1"><path d="m23.878 1.431-.142-1.167c-1.465-.16-1.355-.232-3.736-.264-3.42.004-9.478.626-13.426 4.574-4.827 4.828-4.688 12.79-4.517 15.248l-2.054 2.053 2.121 2.121 2.052-2.052c.441.03 1.054.06 1.795.06 3.415 0 9.496-.619 13.455-4.578 3.948-3.948 4.571-10.006 4.574-13.426.002-1.463-.107-2.443-.122-2.569zm-8.878 2.102c1.371-.304 2.701-.444 3.843-.497l-3.843 3.843zm-5 2.082c.63-.44 1.303-.808 2-1.115v5.38l-2 2v-6.266zm-3 9.264-1.971 1.971c.104-2.274.545-5.315 1.971-7.878v5.908zm.155 4.087 1.966-1.966h5.902c-2.557 1.417-5.594 1.86-7.868 1.966zm11.232-4.966h-6.266l2-2h5.385c-.308.696-.677 1.37-1.119 2zm2.088-5h-3.354l3.85-3.85c-.052 1.143-.191 2.476-.496 3.85z"/></svg>