<?xml version="1.0" encoding="UTF-8"?>
<svg xmlns="http://www.w3.org/2000/svg" id="Layer_1" data-name="Layer 1" viewBox="0 0 24 24" width="512" height="512"><path d="M12,7c4.108,0,11-.455,11-3.5S16.108,0,12,0,1,.455,1,3.5s6.892,3.5,11,3.5Zm0-4c2.647,0,4.725,.228,6.142,.5-1.417,.272-3.494,.5-6.142,.5s-4.725-.228-6.142-.5c1.417-.272,3.494-.5,6.142-.5Zm12,9c0,6.617-5.383,12-12,12S0,18.617,0,12c0-1.769,.395-3.444,1.085-4.957,.73,.462,1.656,.841,2.777,1.139-.547,1.161-.862,2.452-.862,3.818,0,4.962,4.037,9,9,9s9-4.038,9-9c0-1.366-.315-2.657-.862-3.818,1.121-.297,2.047-.676,2.777-1.139,.69,1.513,1.085,3.188,1.085,4.957Zm-13,1s-2-2-3-2-3,2-3,2c0-1.631,.733-5,3-5s3,3.369,3,5Zm8,0s-2-2-3-2-3,2-3,2c0-1.631,.733-5,3-5s3,3.369,3,5Zm-7,6c-3.023,0-5.399-2.092-5.499-2.181l1.998-2.237c.012,.01,1.64,1.418,3.501,1.418s3.489-1.409,3.506-1.423l1.993,2.242c-.1,.089-2.476,2.181-5.499,2.181Z"/></svg>
