<?xml version="1.0" encoding="UTF-8"?>
<svg xmlns="http://www.w3.org/2000/svg" id="Layer_1" data-name="Layer 1" viewBox="0 0 24 24">
  <path d="m14.732,1.944l-.839.06C6.237,2.551.767,10.83.538,11.182L.005,12l.532.818c.229.352,5.7,8.631,13.355,9.178l.839.06.489-.684c.113-.159,2.779-3.954,2.779-9.372s-2.666-9.213-2.779-9.372l-.489-.684ZM3.644,12c1.386-1.818,5.068-6.092,9.581-6.894.181.33.4.775.622,1.3-2.246.868-3.846,3.045-3.846,5.594s1.597,4.721,3.839,5.591c-.221.525-.439.97-.62,1.301-4.511-.804-8.19-5.075-9.576-6.893Zm11.356,0c0,.971-.113,1.872-.279,2.703-1.013-.482-1.721-1.508-1.721-2.703s.709-2.223,1.724-2.705c.164.829.276,1.73.276,2.705Zm9,0c0,6.557-2.756,11.146-2.874,11.339l-2.561-1.562c.022-.037,2.434-4.1,2.434-9.776s-2.412-9.739-2.436-9.779l2.562-1.56c.117.192,2.874,4.782,2.874,11.339Z"/>
</svg>
