<?xml version="1.0" encoding="UTF-8"?>
<svg xmlns="http://www.w3.org/2000/svg" id="Layer_1" data-name="Layer 1" viewBox="0 0 24 24">
  <path d="M13,8H5v-3H13v3Zm-4,10v-3H5v3h4Zm15,0c0,3.314-2.686,6-6,6s-6-2.686-6-6,2.686-6,6-6,6,2.686,6,6Zm-5-1h-2v5h2v-5Zm0-3h-2v2h2v-2Zm-8.413,7H3V3.5c0-.276,.224-.5,.5-.5H14.5c.276,0,.5,.224,.5,.5v7.087c.927-.376,1.938-.587,3-.587V3.5C18,1.57,16.43,0,14.5,0H3.5C1.57,0,0,1.57,0,3.5V24H12.721c-.926-.815-1.663-1.838-2.134-3Zm2.413-9.227v-1.773H5v3h6.76c.365-.455,.784-.862,1.24-1.227Z"/>
</svg>
