<?xml version="1.0" encoding="UTF-8"?>
<svg xmlns="http://www.w3.org/2000/svg" id="Layer_1" data-name="Layer 1" viewBox="0 0 24 24">
  <path d="m24,12c0-1.915-1.352-3.519-3.151-3.909.099-.347.151-.713.151-1.091,0-2.206-1.794-4-4-4h-.958c-1.004-1.601-2.714-3-4.542-3h-1.5v1.5c0,.566-.069,1.068-.205,1.5h-2.795c-2.206,0-4,1.794-4,4,0,.378.053.744.151,1.091-1.8.39-3.151,1.995-3.151,3.909,0,1.621.973,3.014,2.363,3.641l.993,5.483c.303,1.666,1.751,2.875,3.444,2.875h10.398c1.693,0,3.142-1.209,3.444-2.876l.993-5.483c1.39-.628,2.363-2.02,2.363-3.641Zm-20-1h9v-3h-6c-.552,0-1-.449-1-1s.448-1,1-1h4.576l.44-.703c.312-.496.549-1.046.713-1.646.403.372.79.879,1.046,1.456l.395.893h2.83c.552,0,1,.449,1,1s-.448,1-1,1v3h3c.552,0,1,.449,1,1s-.448,1-1,1H4c-.552,0-1-.449-1-1s.448-1,1-1Zm13.199,10H6.801c-.242,0-.449-.173-.493-.411l-.831-4.589h13.047l-.831,4.588c-.044.238-.251.412-.493.412Z"/>
</svg>
