<svg id="Layer_1" viewBox="0 0 24 24" xmlns="http://www.w3.org/2000/svg" data-name="Layer 1"><path d="m11 20.941c-4.494-.5-8.001-4.317-8.001-8.941 0-4.867 3.883-8.843 8.713-8.996.431 2.053 1.387 3.912 2.719 5.434.824-.663 1.812-1.128 2.893-1.326-1.561-1.458-2.609-3.458-2.826-5.704l-.118-1.255c-.802-.054-1.381-.153-2.382-.153-6.616 0-11.998 5.718-11.998 12 0 6.615 5.382 11.999 12 12 .008 0 .017-.001.025-.001-.634-.838-1.024-1.869-1.024-2.999v-.059zm-.5-11.941c0-1.105-.895-2-2-2s-2 .895-2 2 .895 2 2 2 2-.895 2-2zm9.499-4.978c1.105 0 2-.895 2-2s-.895-2-2-2-2 .895-2 2 .895 2 2 2zm-10.999 12.978c1.105 0 2-.895 2-2s-.895-2-2-2-2 .895-2 2 .895 2 2 2zm15-2v6c0 1.654-1.346 3-3 3h-5c-1.654 0-3-1.346-3-3v-6h1v-1.5c0-2.481 2.019-4.5 4.5-4.5s4.5 2.019 4.5 4.5v1.5zm-7 0h3v-1.5c0-.827-.673-1.5-1.5-1.5s-1.5.673-1.5 1.5zm3 3h-3v3h3z"/></svg>