<?xml version="1.0" encoding="UTF-8"?>
<svg xmlns="http://www.w3.org/2000/svg" id="Layer_1" data-name="Layer 1" viewBox="0 0 24 24">
  <path d="M1,6.911V1L3.521,3.521C5.743,1.288,8.754,0,12,0c5.579,0,10.26,3.834,11.596,9h-3.122c-1.24-3.49-4.565-6-8.474-6-2.434,0-4.693,.966-6.359,2.641l2.359,2.359H2.091c-.602,0-1.09-.487-1.091-1.089Zm19,9.089h-1v-2h4v-3h-7v8h4c.551,0,1,.449,1,1s-.449,1-1,1h-4v3h4c2.206,0,4-1.794,4-4s-1.794-4-4-4ZM3,12H0c0,6.617,5.383,12,12,12,.683,0,1.348-.071,2-.181v-3.051c-.644,.147-1.312,.232-2,.232-4.962,0-9-4.038-9-9Z"/>
</svg>
