<?xml version="1.0" encoding="UTF-8"?>
<svg xmlns="http://www.w3.org/2000/svg" id="Layer_1" data-name="Layer 1" viewBox="0 0 24 24">
  <path d="M11.958,20.697c.433,.401,.823,.763,1.177,1.091-.691,.137-1.404,.212-2.135,.212C4.935,22,0,17.065,0,11S4.935,0,11,0c5.627,0,10.273,4.249,10.917,9.705-.521-.436-1.186-.705-1.917-.705-.426,0-.831,.09-1.199,.251-.801-3.572-3.992-6.251-7.801-6.251C6.589,3,3,6.589,3,11s3.589,8,8,8c.019,0,.037-.003,.055-.003,.106,.629,.4,1.231,.902,1.7Zm11.042-7.697c-.552,0-1,.447-1,1v3h-1v-5c0-.553-.448-1-1-1s-1,.447-1,1v5h-1v-4c0-.553-.448-1-1-1s-1,.447-1,1v6.001l-1.317-1.232c-.402-.377-1.036-.356-1.414,.048-.377,.403-.356,1.036,.047,1.413,0,0,4.295,3.98,4.369,4.02,.655,.468,1.45,.75,2.314,.75,2.206,0,4-1.794,4-4v-6c0-.553-.448-1-1-1ZM11,6.5c2.481,0,4.5,2.019,4.5,4.5s-2.019,4.5-4.5,4.5-4.5-2.019-4.5-4.5,2.019-4.5,4.5-4.5Zm0,3c-.827,0-1.5,.673-1.5,1.5s.673,1.5,1.5,1.5,1.5-.673,1.5-1.5-.673-1.5-1.5-1.5Z"/>
</svg>
