<?xml version="1.0" encoding="UTF-8"?>
<svg xmlns="http://www.w3.org/2000/svg" id="Layer_1" data-name="Layer 1" viewBox="0 0 24 24" width="512" height="512"><path d="M12,0C5.383,0,0,5.383,0,12s5.383,12,12,12,12-5.383,12-12S18.617,0,12,0Zm0,21c-4.962,0-9-4.037-9-9,0-1.849,.561-3.569,1.52-5h5.48v-2h-3.65c1.546-1.25,3.512-2,5.65-2,2.377,0,4.541,.927,6.152,2.437-.676-.288-1.405-.437-2.152-.437-1.668,0-3.227,.744-4.278,2.043l1.555,1.258c.669-.826,1.662-1.301,2.723-1.301,.696,0,1.368,.203,1.944,.589l.931-1.391c1.325,1.568,2.126,3.593,2.126,5.802,0,4.963-4.038,9-9,9Zm-5-7h10v3H7v-3Zm11-4c0,1.105-.895,2-2,2s-2-.895-2-2,.895-2,2-2,2,.895,2,2Zm-10,2c-1.105,0-2-.895-2-2s.895-2,2-2,2,.895,2,2-.895,2-2,2Z"/></svg>
