<svg id="Layer_1" viewBox="0 0 24 24" xmlns="http://www.w3.org/2000/svg" data-name="Layer 1"><circle cx="9.5" cy="11.499" r="1.5"/><path d="m12 16c1.352 0 2.509-.826 2.999-2h-5.998c.49 1.174 1.648 2 2.999 2z"/><path d="m21.36 7.233c-1.094-4.191-4.945-7.233-9.36-7.233s-8.265 3.042-9.36 7.233c-1.549.555-2.64 2.029-2.64 3.767 0 2.079 1.594 3.792 3.623 3.982.651 1.753 1.866 3.274 3.377 4.349v4.668h3v-3.257c.652.168 1.323.257 2 .257s1.348-.09 2-.257v3.257h3v-4.668c1.511-1.075 2.726-2.596 3.377-4.349 2.029-.19 3.623-1.904 3.623-3.982 0-1.738-1.091-3.212-2.64-3.767zm-1.36 4.767h-1.961l-.255 1.186c-.638 2.974-3.499 4.814-5.784 4.814s-5.146-1.841-5.785-4.815l-.255-1.185h-1.96c-.551 0-1-.449-1-1 0-.542.458-.98 1-1 .72 0 1.221-.064 1.221-.064 2.395-.31 3.779-2.115 3.779-3.936-.88 0-1.502-.338-1.946-.785 1.233-1.362 3.008-2.215 4.946-2.215s3.713.853 4.946 2.215c-.444.447-1.066.785-1.946.785 0 1.822 1.384 3.626 3.78 3.936 0 0 .538.054 1.22.064.541.019 1 .458 1 1 0 .551-.448 1-1 1z"/><circle cx="14.5" cy="11.499" r="1.5"/></svg>