<?xml version="1.0" encoding="UTF-8"?>
<svg xmlns="http://www.w3.org/2000/svg" id="Layer_1" data-name="Layer 1" viewBox="0 0 24 24">
  <path d="m23.115,12.713L12.22,1.993l-7.278.786L2.167,0,.044,2.121l2.749,2.752-.863,7.608,10.761,10.564c.616.614,1.425.922,2.236.922.822,0,1.646-.315,2.276-.946l5.946-6.078c1.146-1.172,1.134-3.066-.034-4.23Zm-8.046,8.2c-.073.074-.202.065-.27,0L5.076,11.366l.429-3.779,1.533,1.535c-.016.114-.035.226-.035.344,0,1.381,1.119,2.5,2.5,2.5s2.5-1.119,2.5-2.5-1.119-2.5-2.5-2.5c-.117,0-.23.019-.343.035l-1.497-1.498,3.466-.375,9.876,9.718-5.936,6.067Zm-.006-2.887l-2.121-2.121,3-3,2.121,2.121-3,3Z"/>
</svg>
