<?xml version="1.0" encoding="UTF-8"?>
<svg xmlns="http://www.w3.org/2000/svg" id="Layer_1" data-name="Layer 1" viewBox="0 0 24 24">
  <path d="m17,19.538h1.395c.514-.914,1.481-1.538,2.605-1.538,1.657,0,3,1.343,3,3s-1.343,3-3,3c-1.092,0-2.039-.59-2.563-1.462h-1.437c-1.654,0-3-1.346-3-3v-6.038h-1v-3h1v-5.962c0-1.654,1.346-3,3-3h1.395c.514-.914,1.481-1.538,2.605-1.538,1.657,0,3,1.343,3,3s-1.343,3-3,3c-1.092,0-2.039-.59-2.563-1.462h-1.437v5.962h1.395c.514-.914,1.482-1.539,2.605-1.539,1.657,0,3,1.343,3,3s-1.343,3-3,3c-1.092,0-2.038-.589-2.563-1.461h-1.437v6.038Zm-5.054-9.239l-1.529.883c.049.266.083.538.083.818s-.034.552-.083.819l1.529.883-1.5,2.598-1.542-.89c-.412.352-.884.629-1.404.815v1.776h-3v-1.776c-.521-.186-.992-.463-1.404-.815l-1.542.89L.054,13.701l1.529-.883c-.049-.266-.083-.538-.083-.818s.033-.552.083-.818L.054,10.299l1.5-2.598,1.542.89c.413-.352.884-.629,1.404-.815v-1.776h3v1.776c.521.186.992.463,1.404.815l1.542-.89,1.5,2.598Zm-4.446,1.701c0-.827-.673-1.5-1.5-1.5s-1.5.673-1.5,1.5.673,1.5,1.5,1.5,1.5-.673,1.5-1.5Z"/>
</svg>
