<?xml version="1.0" encoding="UTF-8"?>
<svg xmlns="http://www.w3.org/2000/svg" id="Layer_1" data-name="Layer 1" viewBox="0 0 24 24" width="512" height="512"><path d="m5,12v-2.05l3.183,3.183c.385,1.29,1.393,2.299,2.683,2.683l2.936,2.936c-.585.157-1.19.247-1.803.247-3.86,0-7-3.14-7-7Zm8.5,9h-3c-4.136,0-7.5-3.364-7.5-7.5v-.5H0v.5c0,5.79,4.71,10.5,10.5,10.5h3c1.597,0,3.128-.363,4.521-1.029l-2.303-2.303c-.708.218-1.453.332-2.218.332Zm10.5-7.5c0,2.291-.735,4.481-2.09,6.289l2.051,2.051-2.121,2.121L.04,2.161,2.161.04l3.662,3.662c1.189-2.229,3.536-3.701,6.177-3.701,3.86,0,7,3.14,7,7v5c0,1.353-.386,2.656-1.104,3.775l1.861,1.861c.808-1.218,1.243-2.647,1.243-4.136v-.5h3v.5Zm-8-1.5v-1h-2.879l2.562,2.562c.207-.489.316-1.018.316-1.562Zm-7.875-5.996l4.875,4.875v-2.879h3v-1c0-2.206-1.794-4-4-4-1.839,0-3.427,1.248-3.875,3.004Z"/></svg>
