<?xml version="1.0" encoding="UTF-8"?>
<svg xmlns="http://www.w3.org/2000/svg" id="Layer_1" data-name="Layer 1" viewBox="0 0 24 24">
  <path d="M24,14.5c0,3.706-5.159,6.5-12,6.5S0,18.206,0,14.5c0-2.209,1.854-4.149,5-5.329v-.171c0-3.86,3.14-7,7-7,1.93,0,3.681,.786,4.948,2.054-.907,.12-1.749,.514-2.406,1.172-.133,.133-.24,.285-.353,.433-.63-.414-1.38-.659-2.189-.659-2.206,0-4,1.794-4,4v1.244c.481,.389,1.483,1.022,3.117,1.201,.174,.755,.546,1.452,1.108,2.013,.398,.398,.87,.705,1.384,.912-.502,.075-1.028,.13-1.609,.13-3.582,0-5.643-1.642-6.37-2.355-1.786,.754-2.63,1.695-2.63,2.355,0,1.427,3.506,3.5,9,3.5,2.548,0,4.661-.448,6.202-1.069,.85-.143,1.635-.535,2.256-1.157,.402-.402,.713-.878,.919-1.397,.52-.207,.996-.517,1.397-.919,.281-.281,.495-.599,.68-.93,.345,.623,.546,1.282,.546,1.972ZM15.956,6.64c.853-.853,2.235-.853,3.088,0,.464,.464,.666,1.084,.626,1.691,.607-.041,1.227,.162,1.691,.626,.853,.853,.853,2.236,0,3.088-.464,.464-1.084,.666-1.691,.626,.041,.607-.162,1.227-.626,1.691-.853,.853-2.235,.853-3.088,0-.464-.464-.666-1.084-.626-1.691-.607,.041-1.227-.162-1.691-.626-.853-.853-.853-2.235,0-3.088,.464-.464,1.084-.666,1.691-.626-.041-.607,.162-1.227,.626-1.691Zm.044,3.86c0,.828,.672,1.5,1.5,1.5s1.5-.672,1.5-1.5-.672-1.5-1.5-1.5-1.5,.672-1.5,1.5Z"/>
</svg>
