<?xml version="1.0" encoding="UTF-8"?>
<svg xmlns="http://www.w3.org/2000/svg" id="Layer_1" data-name="Layer 1" viewBox="0 0 24 24">
  <path d="m24,21v3c-1.157,0-2.202-.451-3-1.17-.798.72-1.843,1.17-3,1.17s-2.202-.451-3-1.17c-.798.72-1.843,1.17-3,1.17s-2.202-.451-3-1.17c-.798.72-1.843,1.17-3,1.17s-2.202-.451-3-1.17c-.798.72-1.843,1.17-3,1.17v-3c.651,0,1.201-.419,1.408-1h3.184c.207.581.757,1,1.408,1s1.201-.419,1.408-1h3.184c.207.581.757,1,1.408,1s1.201-.419,1.408-1h3.184c.207.581.757,1,1.408,1s1.201-.419,1.408-1h3.184c.207.581.757,1,1.408,1Zm-1.215-16.718l-3.333-2.607c-1.149-.9-2.755-.898-3.904,0l-3.332,2.608c-.773.604-1.216,1.513-1.216,2.494v5.224h3v-5.224c0-.051.023-.1.064-.131l3.333-2.609c.061-.047.145-.048.205,0l3.334,2.608c.04.031.063.08.063.131v5.224h3v-5.224c0-.981-.443-1.891-1.215-2.494Zm-6.785,2.718v3h3v-3h-3Zm6.592,7h-3.301c-1.32.994-2.574,1-3.792,1-4.416,0-7.5-3.084-7.5-7.5,0-1.698.752-3.474,2.118-5l2.237-2.5h-2.355C5.037,0,0,4,0,11v3h3v-3c0-2.838.994-5.002,2.433-6.258-.282.91-.433,1.838-.433,2.758,0,6.084,4.416,10.5,10.5,10.5,1.325,0,3.196-.002,5.151-1.285.641.853,2.281,1.285,3.349,1.285v-3c-.651,0-1.201-.419-1.408-1Z"/>
</svg>
