<?xml version="1.0" encoding="UTF-8"?>
<svg xmlns="http://www.w3.org/2000/svg" id="Layer_1" data-name="Layer 1" viewBox="0 0 24 24">
  <path d="m24,5.217s-1.456-.416-3.428-.711c-.023-.023-.046-.046-.069-.069.037-.674.335-1.437,1.497-1.437V0c-2.487,0-3.781,1.527-4.267,3.054-.239-.035-.484-.054-.733-.054s-.493.019-.733.054c-.487-1.527-1.78-3.054-4.267-3.054v3c1.161,0,1.46.762,1.497,1.437-.023.023-.046.046-.069.069-1.972.295-3.428.711-3.428.711.262,1.064,1.062,1.854,2.04,2.153-.026.207-.04.417-.04.631v2.769c0,2.57,1.963,4.231,5,4.231s5-1.661,5-4.231v-2.769c0-.214-.013-.424-.04-.631.977-.298,1.777-1.088,2.04-2.153Zm-5,5.552c0,.336,0,1.231-2,1.231s-2-.895-2-1.231v-2.769c0-1.103.897-2,2-2s2,.897,2,2v2.769Zm-2,6.231c1.861,0,3.464-.526,4.668-1.437-.34.805-.931,1.482-1.696,1.914-.152,1.276-.907,2.369-1.972,2.986v3.537h-5v-2.031c-.164.021-.331.031-.5.031-.52,0-1.025-.101-1.5-.296-.635.261-1.329.337-2,.249v2.047h-5v-3.537c-1.064-.617-1.82-1.71-1.972-2.986-1.226-.692-2.028-2.001-2.028-3.477s.803-2.785,2.028-3.477c.236-1.982,1.928-3.523,3.972-3.523.261,0,.521.026.777.079.416-.391.921-.68,1.465-.859.344.936.949,1.734,1.757,2.32v.46h-.5c-.441,0-.745.285-.882.551l-.734,1.428-1.375-.83c-.164-.099-.335-.149-.509-.149-.552,0-1,.449-1,1,0,.063.367,1.748.367,1.748l-1.542.273c-.479.084-.825.497-.825.979s.347.895.825.979l1.542.273s-.367,1.685-.367,1.748c0,.725.824,1.264,1.509.851l1.375-.83.734,1.428c.137.267.44.551.882.551.213,0,.413-.07.596-.208l.904-.683.904.683c.183.138.383.208.596.208.441,0,.745-.285.882-.551l.734-1.428,1.375.83c.164.099.335.149.509.149.551,0,1-.448,1-1Z"/>
</svg>
