<svg id="Layer_1" viewBox="0 0 24 24" xmlns="http://www.w3.org/2000/svg" data-name="Layer 1"><path d="m24 5v9h-3v-4h-18v11h2.068l-.617 3h-4.451v-19c0-1.654 1.346-3 3-3h3v-2h3v2h6v-2h3v2h3c1.654 0 3 1.346 3 3zm-7.8 16.7c0 .386-.314.7-.7.7s-.7-.314-.7-.7v-5.7h-1.6v5.7c0 1.269 1.031 2.3 2.3 2.3s2.3-1.031 2.3-2.3v-5.7h-1.6zm-5.004-4.074 1.296 6.373h-1.58l-.285-1.4h-2.302l-.299 1.4h-1.533l1.321-6.418c.163-.855.826-1.578 1.686-1.581.881.01 1.511.697 1.697 1.627zm-.895 3.373-.621-3.044c-.045-.231-.14-.334-.162-.349l-.016-.006c-.069.042-.142.146-.171.296l-.664 3.104h1.634zm11.198-3.4c.496 0 .9.404.9.9h1.6c0-1.381-1.119-2.5-2.5-2.5s-2.5 1.119-2.5 2.5v3c0 1.381 1.119 2.5 2.5 2.5s2.5-1.119 2.5-2.5v-2h-2.5v1.6h.9v.4c0 .496-.404.9-.9.9s-.9-.404-.9-.9v-3c0-.496.404-.9.9-.9z"/></svg>