<?xml version="1.0" encoding="UTF-8"?>
<svg xmlns="http://www.w3.org/2000/svg" id="Layer_1" data-name="Layer 1" viewBox="0 0 24 24" width="512" height="512"><path d="m10,14.5c0,.828-.672,1.5-1.5,1.5s-1.5-.672-1.5-1.5.672-1.5,1.5-1.5,1.5.672,1.5,1.5Zm-.5-7.5c-.828,0-1.5.672-1.5,1.5s.672,1.5,1.5,1.5,1.5-.672,1.5-1.5-.672-1.5-1.5-1.5Zm6,5c-.828,0-1.5.672-1.5,1.5s.672,1.5,1.5,1.5,1.5-.672,1.5-1.5-.672-1.5-1.5-1.5Zm.444,10.052c.07-.092.183-.188.297-.166,1.575.228,3.124-.279,4.244-1.401,1.122-1.12,1.632-2.667,1.401-4.243-.017-.112.075-.228.166-.298,1.238-.951,1.949-2.389,1.949-3.944s-.71-2.993-1.949-3.944c-.091-.07-.182-.185-.166-.297.231-1.576-.279-3.123-1.4-4.244-1.121-1.122-2.665-1.63-4.244-1.4-.107.011-.227-.075-.297-.166-.951-1.238-2.389-1.949-3.944-1.949s-2.993.71-3.944,1.948c-.069.091-.183.183-.297.167-1.577-.231-3.124.279-4.244,1.4-1.122,1.121-1.632,2.668-1.4,4.245.017.112-.075.226-.167.296-1.238.952-1.948,2.389-1.948,3.944s.71,2.993,1.948,3.944c.091.07.183.185.167.298-.231,1.575.279,3.122,1.4,4.243,1.121,1.122,2.668,1.629,4.246,1.401.112-.022.226.075.296.166.952,1.238,2.389,1.948,3.944,1.948s2.992-.71,3.944-1.948Zm-8.621-3.135c-.63.092-1.243-.108-1.688-.554-.444-.444-.646-1.059-.554-1.686.172-1.169-.328-2.361-1.306-3.113-.493-.379-.776-.949-.776-1.565s.283-1.186.775-1.564c.979-.751,1.479-1.944,1.307-3.112-.092-.628.11-1.243.554-1.687.444-.444,1.061-.646,1.688-.554,1.166.173,2.361-.329,3.112-1.307.758-.986,2.372-.987,3.13,0,.75.977,1.94,1.478,3.112,1.306.629-.093,1.243.109,1.687.554.444.443.646,1.058.553,1.687-.171,1.169.33,2.361,1.307,3.111.493.379.776.949.776,1.565s-.283,1.186-.777,1.565c-.977.752-1.477,1.944-1.306,3.112.092.628-.11,1.242-.555,1.688-.442.443-1.057.646-1.685.553-1.167-.171-2.361.328-3.113,1.307-.758.986-2.372.986-3.13,0-.653-.851-1.641-1.34-2.655-1.34-.152,0-.305.011-.457.033Z"/></svg>
