<?xml version="1.0" encoding="UTF-8"?>
<svg xmlns="http://www.w3.org/2000/svg" id="Layer_1" data-name="Layer 1" viewBox="0 0 24 24">
  <path d="m20.744,5.994c.255-.725.323-1.515.186-2.298-.319-1.816-1.81-3.307-3.626-3.626-1.336-.233-2.689.129-3.713.997-1.04.882-2.805,1.933-4.831,1.933C4.172,3,.334,6.464.022,10.886c-.174,2.467.725,4.882,2.468,6.624.614.614,1.311,1.123,2.065,1.517l.621,4.972h3.015l-.499-4.04c.271.026.543.039.818.039.201,0,.403-.007.604-.021.127-.009.254-.021.379-.036l.507,4.058h3.117l-.704-4.978c2.73-1.466,4.587-4.422,4.587-7.781v-2.269c.622-.069,1.218-.267,1.753-.576,3.833,3.23,4.247,8.604,4.247,8.604h1c0-5.433-2.099-9.292-3.256-11.006Zm-3.094-.531c-.287.341-.706.537-1.15.537-1.132,0-2.5,1.115-2.5,2.5v2.741c0,3.02-2.239,5.543-5.097,5.745-1.594.114-3.164-.469-4.292-1.597s-1.709-2.692-1.597-4.292c.202-2.858,2.726-5.097,5.746-5.097,2.324,0,4.731-.915,6.771-2.645.201-.169.631-.438,1.254-.33.586.103,1.087.604,1.19,1.19.081.459-.035.902-.325,1.248Z"/>
</svg>
