<?xml version="1.0" encoding="UTF-8"?>
<svg xmlns="http://www.w3.org/2000/svg" id="Layer_1" data-name="Layer 1" viewBox="0 0 24 24">
  <path d="m17,9.271v-5.271c0-1.128-.479-2.209-1.316-2.966C14.847.277,13.725-.093,12.593.021c-2.015.201-3.593,2.012-3.593,4.122v3.863c-.602.131-1.169.409-1.65.817-.389.33-.703.728-.93,1.17l-4.397,4.397c-1.313,1.313-1.313,3.45,0,4.763l4.856,4.857,15.121-.011v-13.729l-5-1Zm2,11.73l-10.879.008-3.978-3.977c-.144-.144-.144-.377,0-.521l1.856-1.856v2.345h3v-5.265c0-.33.181-.532.289-.623.106-.091.333-.235.662-.183l2.049.34v-7.127c0-.578.399-1.088.892-1.137.389-.042.656.141.779.252.212.192.329.456.329.742v7.729l5,1v8.271Z"/>
</svg>
