<svg id="Layer_1" viewBox="0 0 24 24" xmlns="http://www.w3.org/2000/svg" data-name="Layer 1"><path d="m12 9c2.209 0 4 1.791 4 4s-1.791 4-4 4-4-1.791-4-4 1.791-4 4-4zm2.83-4.005 1.66 1.226c.334.247.811.101.951-.29l1.367-4.087-2.296-1.844-.895 2.761-1.649-1.218c-.39-.288-.943-.026-.967.458v5.499l.507.375 1.323-2.88zm-7.32 1.226 1.66-1.226 1.323 2.88.507-.375v-5.5c-.024-.484-.578-.745-.967-.458l-1.649 1.218-.895-2.761-2.296 1.844 1.367 4.087c.139.391.617.536.951.29zm7.49 12.779h-6c-2.206 0-4 1.794-4 4v1h3v-1c0-.552.449-1 1-1h6c.552 0 1 .448 1 1v1h3v-1c0-2.206-1.794-4-4-4zm-11.692-2.277c-.136-1.057-.308-2.844-.308-5.138s.172-4.081.308-5.138c.338-.033.763-.069 1.252-.107l-.981-2.932c-1.874.175-1.617.173-2.841.341-.33 1.878-.638 2.434-.737 7.835.1 5.408.406 5.95.737 7.835 1.341.184 1.012.177 3.202.371.908-1.427 2.391-2.503 4.13-2.773-2.178-.076-3.791-.201-4.761-.295zm19.955-12.973c-1.227-.168-.967-.166-2.841-.341l-.981 2.932c.489.037.914.074 1.252.106.136 1.057.308 2.844.308 5.138s-.172 4.081-.308 5.138c-.947.092-2.506.213-4.603.289 1.673.305 3.09 1.394 3.971 2.778 2.188-.193 1.862-.187 3.202-.37.33-1.878.638-2.434.737-7.835 0-4.102-.716-7.728-.737-7.835z"/></svg>