<svg id="Layer_1" viewBox="0 0 24 24" xmlns="http://www.w3.org/2000/svg" data-name="Layer 1"><path d="m9 16h4v1.6h-2.4v1.801h2.4v1.6h-2.4v3h-1.6v-8zm5 8h3.5v-1.6h-1.9v-1.551h1.9v-1.6h-1.9v-1.65h1.9v-1.6h-3.5v8zm9.178-4.194c.5.44.822 1.077.822 1.795 0 1.325-1.074 2.399-2.399 2.399h-2.601v-8.038h2.274c1.325 0 2.399 1.074 2.399 2.399 0 .545-.189 1.042-.495 1.445zm-2.578-.645h.674c.442 0 .8-.358.8-.8s-.358-.8-.8-.8h-.674v1.599zm1.801 2.44c0-.442-.358-.8-.8-.8h-1.001v1.599h1.001c.442 0 .8-.358.8-.8zm-1.4-19.601h-3v-2h-3v2h-6v-2h-3v2h-3.001c-1.654 0-3 1.346-3 3v19h7v-3h-4v-11h18v4h.273c1.035 0 1.974.374 2.727.974v-9.974c0-1.654-1.346-3-3-3z"/></svg>