<?xml version="1.0" encoding="UTF-8"?>
<svg xmlns="http://www.w3.org/2000/svg" id="Layer_1" data-name="Layer 1" viewBox="0 0 24 24" width="512" height="512"><path d="m20.485,12l2.485-2.485L14.485,1.03l-2.485,2.485V0H0v18c0,3.309,2.691,6,6,6h18v-12h-3.515Zm-6-6.728l4.243,4.243-6.728,6.728V7.757l2.485-2.485Zm-5.485,6.728H3v-3h6v3Zm0-9v3H3v-3h6Zm-6,15v-3h6v3c0,1.654-1.346,3-3,3s-3-1.346-3-3Zm18,3h-9.515l6-6h3.515v6Zm-13.5-3c0,.828-.672,1.5-1.5,1.5s-1.5-.672-1.5-1.5.672-1.5,1.5-1.5,1.5.672,1.5,1.5Z"/></svg>
