<svg id="Layer_1" viewBox="0 0 24 24" xmlns="http://www.w3.org/2000/svg" data-name="Layer 1"><path d="m17.957 9.676c1.231.301 2.706.655 4.043.951v-3.193l-1.805-1.083c-.497-.713-.887-1.382-1.265-2.029-1.352-2.319-2.519-4.321-6.931-4.321s-5.578 2.001-6.93 4.32c-.378.647-.768 1.316-1.265 2.029l-1.805 1.083v3.202c1.233-.357 3.065-.896 4.027-1.124.137 1.558.872 2.943 1.973 3.932v2.556h-4.999v3h4.484l.8 2h-5.284v3h18v-3h-5.285l.8-2h4.484v-3h-5v-2.556c1.062-.954 1.785-2.276 1.957-3.767zm-4.457-6.676c.828 0 1.5.672 1.5 1.5s-.672 1.5-1.5 1.5-1.5-.672-1.5-1.5.672-1.5 1.5-1.5zm-1.5 6c1.222 0 2.16.046 2.985.134-.08 1.584-1.382 2.85-2.985 2.85-1.63 0-2.954-1.308-2.993-2.93.8-.047 1.727-.055 2.993-.055zm-.485 12-1.26-3.15c.471.089 1.036.15 1.744.15s1.273-.061 1.744-.15l-1.26 3.15h-.969z"/></svg>