<?xml version="1.0" encoding="UTF-8"?>
<svg xmlns="http://www.w3.org/2000/svg" id="Layer_1" data-name="Layer 1" viewBox="0 0 24 24">
  <path d="m22.5,4c-.156,0-.305.024-.447.068l2.007-2.007L21.939-.061l-2.007,2.007c.044-.141.068-.291.068-.447,0-.828-.672-1.5-1.5-1.5s-1.5.672-1.5,1.5.672,1.5,1.5,1.5c.156,0,.305-.024.447-.068l-2.844,2.844c-1.544-1.117-3.44-1.776-5.487-1.776-.748,0-1.521.113-2.3.338l-1.078.311-.007,1.122c-.006,1.038-.413,2.014-1.147,2.748-.888.888-2.157,1.298-3.401,1.098l-1.066-.173-.501.957c-.729,1.392-1.115,2.85-1.115,4.216,0,2.047.659,3.942,1.776,5.487L.039,21.84l2.121,2.121,1.737-1.737c1.544,1.117,3.44,1.776,5.487,1.776,1.38,0,2.854-.394,4.262-1.138l.993-.525-.225-1.102c-.266-1.296.134-2.628,1.068-3.562.74-.741,1.723-1.147,2.77-1.147l1.2.008.289-1.139c.172-.678.259-1.354.259-2.011,0-2.047-.659-3.942-1.776-5.487l2.844-2.844c-.044.141-.068.291-.068.447,0,.828.672,1.5,1.5,1.5s1.5-.672,1.5-1.5-.672-1.5-1.5-1.5Zm-5.5,9.384c0,.084-.002.169-.007.255-1.368.25-2.627.907-3.633,1.913h0c-1.355,1.357-2.072,3.188-2.024,5.067-.673.251-1.335.381-1.951.381-1.218,0-2.357-.343-3.326-.937l1.503-1.503-2.121-2.121-1.503,1.503c-.594-.969-.937-2.108-.937-3.326,0-.617.13-1.279.381-1.951,1.795-.02,3.537-.738,4.824-2.025.999-.999,1.655-2.251,1.909-3.612.17-.019.338-.027.502-.027,1.218,0,2.357.343,3.326.937l-6.003,6.003,2.121,2.121,6.003-6.003c.594.969.937,2.108.937,3.326Z"/>
</svg>
