<?xml version="1.0" encoding="UTF-8"?>
<svg xmlns="http://www.w3.org/2000/svg" id="Layer_1" data-name="Layer 1" viewBox="0 0 24 24">
  <path d="m8.35,8.2c1.125.844,2.4,1.8,4.15,1.8,1.841,0,3.436-1.012,4.303-2.498.486.513.909,1.086,1.245,1.71l2.641-1.424c-.792-1.469-1.929-2.729-3.282-3.704-.432-2.32-2.464-4.084-4.907-4.084-5.365,0-7.743,4.632-7.842,4.829l-1.085,2.171h2.427c.75,0,1.491.556,2.35,1.2Zm4.15-5.2c1.103,0,2,.897,2,2s-.897,2-2,2c-.75,0-1.491-.556-2.35-1.2-.512-.384-1.055-.791-1.659-1.121.844-.824,2.164-1.679,4.009-1.679Zm10.021,8.656l-1.365-2.007-1.185,2.119c-.365.655-1.213,1.03-2.193,1.465-1.286.57-2.743,1.216-3.598,2.744-.871,1.559-.804,3.383-.002,4.845-.657.113-1.386.178-2.179.178v3c1.386,0,3.3-.16,4.938-.858.524.178,1.063.274,1.599.274,1.754,0,3.458-.923,4.373-2.559,2.618-4.683-.265-9.019-.389-9.201Zm-2.23,7.737c-.537.962-1.761,1.308-2.722.77-.963-.539-1.308-1.76-.77-2.722.366-.655,1.213-1.031,2.194-1.466.585-.259,1.205-.534,1.788-.901.308,1.139.41,2.708-.491,4.319Zm-10.644-.173c.288-1.297.648-2.912-.086-4.506-.77-1.673-2.357-2.697-4.07-2.864.263-.656.606-1.279,1.033-1.846l-2.396-1.804c-1.004,1.334-1.673,2.893-1.992,4.531-1.927,1.363-2.679,3.946-1.657,6.166,2.248,4.884,7.438,5.047,7.657,5.052l2.396.05-1.003-2.177c-.312-.676-.112-1.568.118-2.601Zm-2.929-.652c-.135.604-.284,1.276-.332,1.983-1.092-.409-2.413-1.237-3.184-2.91-.224-.485-.244-1.029-.06-1.53.186-.501.555-.9,1.039-1.124.267-.123.551-.184.836-.184.233,0,.469.042.694.125.501.185.9.554,1.124,1.039.311.676.112,1.567-.118,2.6Z"/>
</svg>
