<?xml version="1.0" encoding="UTF-8"?>
<svg xmlns="http://www.w3.org/2000/svg" id="Layer_1" data-name="Layer 1" viewBox="0 0 24 24">
  <path d="m16.5,11c-1.319,0-2.507.21-3.5.578v-6.578c0-2.318-2.733-4-6.5-4S0,2.682,0,5v15.25c0,2.173,2.733,3.75,6.5,3.75,2.077,0,3.836-.481,5-1.276,1.164.795,2.923,1.276,5,1.276,3.767,0,6.5-1.577,6.5-3.75v-5.25c0-2.318-2.733-4-6.5-4Zm0,3c2.004,0,3.215.666,3.471,1-.256.334-1.467,1-3.471,1s-3.215-.666-3.471-1c.256-.334,1.467-1,3.471-1ZM6.5,4c2.004,0,3.215.666,3.471,1-.256.334-1.467,1-3.471,1s-3.215-.666-3.471-1c.256-.334,1.467-1,3.471-1Zm-3.5,4.422c.993.368,2.181.578,3.5.578s2.507-.21,3.5-.578v1.527c-.157.31-1.384,1.051-3.5,1.051-2.143,0-3.379-.762-3.5-1v-1.578Zm0,5c.993.368,2.181.578,3.5.578s2.507-.21,3.5-.578v1.527c-.157.31-1.384,1.051-3.5,1.051-2.143,0-3.379-.762-3.5-1v-1.578Zm0,6.694v-1.694c.993.368,2.181.578,3.5.578s2.507-.21,3.5-.578v1.694c-.266.274-1.426.884-3.5.884s-3.234-.609-3.5-.884Zm13.5.884c-2.074,0-3.234-.609-3.5-.884v-1.694c.993.368,2.181.578,3.5.578s2.507-.21,3.5-.578v1.694c-.266.274-1.426.884-3.5.884Zm-1.649-13L19.65,0h3.499l-4.799,8h-3.499Zm9.149-1.5c0,.828-.672,1.5-1.5,1.5s-1.5-.672-1.5-1.5.672-1.5,1.5-1.5,1.5.672,1.5,1.5ZM14,1.5c0-.828.672-1.5,1.5-1.5s1.5.672,1.5,1.5-.672,1.5-1.5,1.5-1.5-.672-1.5-1.5Z"/>
</svg>
