<?xml version="1.0" encoding="UTF-8"?>
<svg xmlns="http://www.w3.org/2000/svg" id="Layer_1" data-name="Layer 1" viewBox="0 0 24 24">
  <path d="M15,2.5c0-1.381,1.119-2.5,2.5-2.5s2.5,1.119,2.5,2.5-1.119,2.5-2.5,2.5-2.5-1.119-2.5-2.5Zm3.118,12.519l.685-2.325,3.696,2.164,1.516-2.589-4.385-2.568c.1-1.052-.174-2.04-.778-2.724-.556-.63-1.35-.977-2.236-.977-.126,0-.462,0-1.414,.301l-4.795,2.546-5.76-2.304c-.495-.398-1.119-.634-1.789-.634-.873,0-1.687,.391-2.232,1.073C.081,7.665-.122,8.544,.069,9.391l1.817,8.192,1.446-.35,1.64,6.767h3.087l-1.811-7.473,1.463-.354-1.482-5.765,4.363,1.745,3.868-2.078-1.546,5.183,5.928,3.784,2.456,4.912,2.684-1.342-2.827-5.653-3.038-1.939ZM2.5,5c1.381,0,2.5-1.119,2.5-2.5S3.881,0,2.5,0,0,1.119,0,2.5s1.119,2.5,2.5,2.5Zm7.801,19h3.131l1.513-5.074-2.63-1.679-2.014,6.753Z"/>
</svg>
