<?xml version="1.0" encoding="UTF-8"?>
<svg xmlns="http://www.w3.org/2000/svg" id="Layer_1" data-name="Layer 1" viewBox="0 0 24 24">
  <path d="m19.05.087c-2.761-.391-5.508.553-7.344,2.537-2.178,2.353-5.282,5.984-7.184,10.428-.134.012-.399-.024-.701-.229-.307-.207-.821-.72-.821-1.822v-3H0v4.443c0,4.74,3.412,8.69,8,9.374v2.183h3v-1.962c.39.012.776.029,1.175.029.27,0,.552-.018.825-.023v1.957h5v-3h-2v-1c0-3.482-2.558-6.37-5.926-6.903-.359.653-.701,1.32-.994,2.013-.138.327-.319.623-.518.903l.438-.014c1.87,0,3.433,1.295,3.868,3.033-1.439.025-2.839-.002-4.141-.136-1.98-.204-3.66-1.308-4.68-2.888.144.016.291.044.431.044,1.243,0,2.303-.639,2.759-1.72,1.713-4.061,4.627-7.464,6.67-9.671,1.168-1.261,2.932-1.861,4.718-1.604,1.354.192,2.375,1.37,2.375,2.738v.704c0,.275-.225.5-.5.5h-5.5v6.304c1.26,1.122,2.194,2.583,2.661,4.24.217-.649.339-1.334.339-2.044v-.5h3c0-2.185-1.492-3.332-3-3.777v-1.223h2.5c1.93,0,3.5-1.57,3.5-3.5v-.704c0-2.852-2.129-5.306-4.95-5.709Z"/>
</svg>
