<?xml version="1.0" encoding="UTF-8"?>
<svg xmlns="http://www.w3.org/2000/svg" id="Layer_1" data-name="Layer 1" viewBox="0 0 24 24">
  <path d="m15,10.8l4-.797v3.049l-4,.797v-3.049Zm0,7.749l4-.797v-3.049l-4,.797v3.049Zm0-9.5l4-.797v-3.049l-4,.797v3.049Zm9-5.64v18.421l-12.252,2.228-5.208-2.829-4.578,2.771H.043l-.043-1.5V4.865c0-1.341.747-2.543,1.949-3.138L4.508.465c1.248-.617,2.736-.617,3.984,0l2.881,1.423L19.98.056c.996-.18,2.016.086,2.795.737.778.649,1.225,1.603,1.225,2.616Zm-16,.158v15.041l2,1.086V4.555l-2-.988ZM3,19.865l2-1.21V3.567l-1.722.85c-.169.084-.278.26-.278.448v15ZM21,3.409c0-.166-.092-.268-.146-.313-.055-.044-.162-.111-.322-.091l-7.531,1.603v16.173l8-1.455V3.409Z"/>
</svg>
