<?xml version="1.0" encoding="UTF-8"?>
<svg xmlns="http://www.w3.org/2000/svg" id="Layer_1" data-name="Layer 1" viewBox="0 0 24 24">
  <path d="m13.5,19.271v4.729h-3v-4.729c-2.029-.637-3.5-2.532-3.5-4.771,0-2.049,1.236-3.806,3-4.578v3.078c0,1.103.897,2,2,2s2-.897,2-2v-3.078c1.764.772,3,2.529,3,4.578,0,2.239-1.471,4.134-3.5,4.771ZM24,3.5v18.5h-8v-1.663c.587-.371,1.117-.822,1.579-1.337h3.421V7H3v12h3.421c.462.515.992.965,1.579,1.337v1.663H0V3.5C0,1.57,1.57,0,3.5,0h17c1.93,0,3.5,1.57,3.5,3.5Zm-18,0c0-.828-.672-1.5-1.5-1.5s-1.5.672-1.5,1.5.672,1.5,1.5,1.5,1.5-.672,1.5-1.5Zm5,0c0-.828-.672-1.5-1.5-1.5s-1.5.672-1.5,1.5.672,1.5,1.5,1.5,1.5-.672,1.5-1.5Z"/>
</svg>
