<?xml version="1.0" encoding="UTF-8"?>
<svg xmlns="http://www.w3.org/2000/svg" id="Layer_1" data-name="Layer 1" viewBox="0 0 24 24">
  <path d="m20.545,15.545c.069-.49.053-.979-.056-1.462-.017-.076.035-.174.124-.231.568-.366,1.029-.863,1.368-1.476.327-.589.498-1.265.495-1.94.003-.688-.167-1.364-.494-1.954v-.002c-.341-.611-.801-1.107-1.369-1.474-.089-.058-.142-.155-.124-.234.153-.676.131-1.366-.066-2.053-.376-1.312-1.425-2.36-2.739-2.737-.685-.196-1.375-.217-2.051-.065-.083.022-.175-.033-.233-.124-.366-.567-.862-1.027-1.474-1.367-1.195-.662-2.678-.662-3.874,0-.611.34-1.106.8-1.473,1.367-.058.09-.155.137-.234.124-.673-.151-1.362-.131-2.053.066-1.312.377-2.361,1.426-2.737,2.736-.198.688-.22,1.38-.066,2.054.018.078-.034.176-.124.233-.568.366-1.029.862-1.369,1.476-.326.59-.497,1.266-.494,1.94-.003.689.168,1.365.494,1.953.339.613.8,1.109,1.368,1.477.089.058.142.155.124.232-.111.488-.127.985-.054,1.482l-3.434,3.434h5v5l4.197-4.197c.254.24.537.453.856.631.597.33,1.266.496,1.936.496s1.34-.166,1.938-.497c.323-.18.609-.397.865-.642l4.209,4.209v-5h5l-3.455-3.455Zm-7.667,1.893c-.096.148-.234.273-.409.371-.288.158-.675.16-.961,0-.175-.097-.313-.222-.409-.371-.611-.946-1.651-1.5-2.727-1.5-.23,0-.461.025-.691.077-.177.041-.366.032-.562-.023-.317-.091-.59-.364-.681-.682-.057-.196-.065-.386-.024-.562.296-1.304-.276-2.678-1.423-3.418-.149-.096-.273-.233-.371-.409-.078-.141-.119-.309-.118-.499,0-.178.04-.346.118-.485.097-.176.222-.313.372-.409,1.147-.74,1.719-2.114,1.422-3.42-.04-.176-.032-.364.025-.562.091-.316.364-.59.679-.68.199-.056.388-.064.562-.024,1.304.293,2.678-.274,3.419-1.423.096-.149.234-.274.408-.37.288-.16.674-.162.962,0,.176.098.313.223.41.371.741,1.146,2.109,1.717,3.418,1.423.176-.041.367-.032.562.023.317.091.59.365.681.682.057.195.064.385.025.561-.297,1.305.275,2.68,1.423,3.42.148.096.272.232.37.407.078.142.119.311.118.501,0,.177-.04.345-.118.486-.097.176-.222.312-.37.408-1.148.74-1.72,2.114-1.423,3.417.04.178.032.367-.024.563-.091.316-.364.591-.68.681-.197.058-.385.064-.562.024-1.301-.294-2.678.275-3.419,1.423Zm2.122-4.938v1.5c-1.5,0-3,1.5-3,1.5,0,0-1.5-1.5-3-1.5v-1.5c0-.828.672-1.5,1.5-1.5h3c.828,0,1.5.672,1.5,1.5Zm-5-4.5c0-1.105.895-2,2-2s2,.895,2,2-.895,2-2,2-2-.895-2-2Z"/>
</svg>
