<?xml version="1.0" encoding="UTF-8"?>
<svg xmlns="http://www.w3.org/2000/svg" id="Layer_1" data-name="Layer 1" viewBox="0 0 24 24">
  <path d="M19,2.351V0h-3V2H7.983l-.023-2.017L4.961,.017l.026,2.341c-1.171,.567-1.987,1.756-1.987,3.142v13c0,1.391,.822,2.585,2,3.149v2.351h3v-2h8v2h3v-2.351c1.178-.564,2-1.758,2-3.149V5.5c0-1.391-.822-2.585-2-3.149Zm-1,16.149c0,.275-.225,.5-.5,.5H6.5c-.275,0-.5-.225-.5-.5V5.5c0-.276,.225-.5,.5-.5h11c.275,0,.5,.224,.5,.5v13Zm-2-7.3c0,2.304-4,5-4,5,0,0-4-2.696-4-5,0-1.215,.895-2.2,2-2.2s2,.985,2,2.2c0-1.215,.895-2.2,2-2.2s2,.985,2,2.2Z"/>
</svg>
