<svg id="Layer_1" viewBox="0 0 24 24" xmlns="http://www.w3.org/2000/svg" data-name="Layer 1"><path d="m3.393 5.47c-.251.629-.393 1.313-.393 2.03 0 3.033 2.467 5.5 5.5 5.5s5.5-2.467 5.5-5.5c0-.608-.103-1.191-.286-1.738l.686-1.584c.393-1.146-.418-2.351-1.628-2.418l-2.772-.266v-1.494h-3v1.206l-1.967-.189c-1.647-.091-2.892 1.468-2.439 3.054zm5.107 4.53c-1.378 0-2.5-1.122-2.5-2.5 0-.565.195-1.081.513-1.5h3.974c.317.419.513.935.513 1.5 0 1.378-1.122 2.5-2.5 2.5zm9.5 2c-3.314 0-6 2.686-6 6s2.686 6 6 6c.341 0 .674-.035 1-.09v-3.368c0-.808.621-1.503 1.427-1.541.663-.031 1.237.368 1.466.942.135.341.461.57.828.556.337 0 .646-.2.776-.511.282-.672.455-1.401.493-2.166-.094-3.231-2.737-5.823-5.991-5.823zm-2 9.5c-.828 0-1.5-.672-1.5-1.5s.672-1.5 1.5-1.5 1.5.672 1.5 1.5-.672 1.5-1.5 1.5zm0-4c-.828 0-1.5-.672-1.5-1.5s.672-1.5 1.5-1.5 1.5.672 1.5 1.5-.672 1.5-1.5 1.5zm4 0c-.828 0-1.5-.672-1.5-1.5s.672-1.5 1.5-1.5 1.5.672 1.5 1.5-.672 1.5-1.5 1.5zm-9.411-2.5c-.377.927-.589 1.939-.589 3h-4.5c-1.378 0-2.5 1.121-2.5 2.5v3.5h-3v-3.5c0-3.032 2.467-5.5 5.5-5.5z"/></svg>