<?xml version="1.0" encoding="UTF-8"?>
<svg xmlns="http://www.w3.org/2000/svg" id="Layer_1" data-name="Layer 1" viewBox="0 0 24 24">
  <path d="m12,16.5c0-.828.672-1.5,1.5-1.5h3c.828,0,1.5.672,1.5,1.5v1.5H6v-1.5c0-.828.672-1.5,1.5-1.5h3c.828,0,1.5.672,1.5,1.5Zm-3-2.5c1.105,0,2-.895,2-2s-.895-2-2-2-2,.895-2,2,.895,2,2,2Zm6,0c1.105,0,2-.895,2-2s-.895-2-2-2-2,.895-2,2,.895,2,2,2Zm7-3.6l-.674.719c-.64.568-1.466.881-2.326.881v7h-3.308l-.923,1h-5.538l-.923-1h-3.308v-10h7v-3H2v13H0v2c0,1.657,1.343,3,3,3h18c1.657,0,3-1.343,3-3v-2h-2v-8.6Zm2-8.4v6h-2.34l-1.271,1.388c-.362.391-.868.612-1.392.612h-.004c-.526-.001-1.032-.224-1.388-.611l-1.267-1.389h-2.338V2c0-1.103.897-2,2-2h6c1.103,0,2,.897,2,2Zm-3,1h-4v2h.662l1.336,1.465,1.342-1.465h.66v-2Z"/>
</svg>
