<?xml version="1.0" encoding="UTF-8"?>
<svg xmlns="http://www.w3.org/2000/svg" id="Layer_1" data-name="Layer 1" viewBox="0 0 24 24">
  <path d="M20.5,2H3.5C1.57,2,0,3.57,0,5.5V22H24V5.5c0-1.93-1.57-3.5-3.5-3.5Zm.5,17H3V5.5c0-.276,.225-.5,.5-.5H20.5c.275,0,.5,.224,.5,.5v13.5Zm-6-11h4v3h-4v-3Zm0,5h4v3h-4v-3Zm-1.5-.5c0,.88-.262,1.694-.699,2.387l-2.801-2.801v-3.966c2.002,.456,3.5,2.239,3.5,4.38Zm-5.5,.414l3.387,3.387c-.693,.436-1.508,.699-2.387,.699-2.485,0-4.5-2.015-4.5-4.5,0-2.14,1.498-3.924,3.5-4.38v4.794Z"/>
</svg>
