<?xml version="1.0" encoding="UTF-8"?>
<svg xmlns="http://www.w3.org/2000/svg" id="Layer_1" data-name="Layer 1" viewBox="0 0 24 24">
  <path d="m17.5,16h6.5v3h-6.5c-1.905,0-2.601,1.111-2.855,2h9.355v3H0v-3h9.351c-.261-.911-.967-2-2.851-2H0v-3h6.5c3.034,0,4.735,1.704,5.5,3.553.765-1.849,2.466-3.553,5.5-3.553Zm4.726-13.226l-.518-1.774h-.404l-.525,1.773-1.778.519v.404l1.777.526.526,1.777h.404l.519-1.778,1.773-.525v-.404l-1.774-.518ZM2.303,9h.404l.519-1.778,1.773-.525v-.404l-1.774-.518-.518-1.774h-.404l-.525,1.773-1.778.519v.404l1.777.526.526,1.777Zm9,7h.404l.519-1.778,1.773-.525v-.404l-1.774-.518-.518-1.774h-.404l-.525,1.773-1.778.519v.404l1.777.526.526,1.777Zm5.122-10.61l.01-.762-3.371-1.062.313-3.162-.62-.446-2.104,2.927-3.617-1.393-.472.657,2.472,2.985-2.116,2.944.624.449,2.866-1.349,2.124,2.864.718-.224-.089-2.535,9.148,6.957,1.687-2.48-10-5.648,2.425-.722Z"/>
</svg>
