<?xml version="1.0" encoding="UTF-8"?>
<svg xmlns="http://www.w3.org/2000/svg" id="Layer_1" data-name="Layer 1" viewBox="0 0 24 24">
  <path d="m7.5,12c-.828,0-1.5-.672-1.5-1.5s.672-1.5,1.5-1.5,1.5.672,1.5,1.5-.672,1.5-1.5,1.5Zm9-3c-.828,0-1.5.672-1.5,1.5s.672,1.5,1.5,1.5,1.5-.672,1.5-1.5-.672-1.5-1.5-1.5Zm7.5,4.5c0,5.79-4.71,10.5-10.5,10.5h-3C4.71,24,0,19.29,0,13.5,0,6.911.994,2.365,1.036,2.175L1.517.01l4.204,2.876c1.83-1.196,3.903-1.844,6.056-1.884,2.284-.032,4.51.613,6.472,1.905L22.562-.044l.414,2.275c.042.23,1.024,5.697,1.024,11.269Zm-3,0c0-3.155-.343-6.343-.623-8.414l-2.219,1.519-.867-.688c-1.622-1.288-3.502-1.947-5.461-1.914-1.855.034-3.638.688-5.157,1.892l-.866.687-2.223-1.521c-.27,1.893-.584,4.864-.584,8.441,0,4.136,3.364,7.5,7.5,7.5h3c4.136,0,7.5-3.364,7.5-7.5Zm-7.49,1.091c.646-.397.99-.997.99-1.404,0-.656-.889-1.188-2.5-1.188s-2.5.532-2.5,1.188c0,.407.344,1.007.99,1.404-.049.575-.587,1.933-2.49,2.409v2c1.559,0,2.988-.567,4-1.454,1.012.887,2.441,1.454,4,1.454v-2c-1.903-.476-2.442-1.833-2.49-2.409Z"/>
</svg>
