<?xml version="1.0" encoding="UTF-8"?>
<svg xmlns="http://www.w3.org/2000/svg" id="Layer_1" data-name="Layer 1" viewBox="0 0 24 24">
  <path d="M17,21.5c0,1.381-1.119,2.5-2.5,2.5-.815,0-1.532-.396-1.989-1H0v-3H12.511c.456-.604,1.173-1,1.989-1,1.381,0,2.5,1.119,2.5,2.5Zm-.5-16.5c-1.381,0-2.5,1.119-2.5,2.5s1.119,2.5,2.5,2.5,2.5-1.119,2.5-2.5-1.119-2.5-2.5-2.5Zm7.5,12H0V3.5C0,1.57,1.57,0,3.5,0H20.5C22.43,0,24,1.57,24,3.5v13.5Zm-3-13.5c0-.276-.225-.5-.5-.5H3.5c-.275,0-.5,.224-.5,.5V14H21V3.5Zm-2.276,16.5c.168,.471,.276,.971,.276,1.5s-.108,1.029-.276,1.5h5.276v-3h-5.276ZM8.107,8.034c-.902-.681-2.02-1.034-3.106-1.034v3c.082,0,2,.023,2,2h3c0-1.343,.308-2.995,2.083-3.674-.05-.269-.083-.543-.083-.826,0-.873,.261-1.682,.693-2.373-2.068,.36-3.629,1.541-4.586,2.907Z"/>
</svg>
