<svg id="Layer_1" viewBox="0 0 24 24" xmlns="http://www.w3.org/2000/svg" data-name="Layer 1"><path d="m20.964 8.829v9.171h-2v-3.633c-.568.397-1.255.633-2 .633-1.394 0-2.587-.821-3.15-2h-8.85v5h-2v-9h10.173l-5.173-5.172v-1.799c.716-.742 1.519-1.482 2.367-2.029h-5.367v6h-2c-1.654 0-3 1.346-3 3v12h5v3h14v-3h5v-12c0-.87-.378-1.648-.972-2.197zm-5 12.171h-8v-5h8zm-6.071-18.071c3.898-3.898 10.244-3.898 14.143 0l-2.121 2.121c-2.73-2.729-7.17-2.729-9.9 0l-2.121-2.121zm10.607 3.536-2.123 2.121c-.754-.756-2.072-.756-2.826 0l-2.123-2.121c.944-.944 2.2-1.465 3.536-1.465s2.592.521 3.536 1.465zm-2.036 5.035c0 .828-.672 1.5-1.5 1.5s-1.5-.672-1.5-1.5.672-1.5 1.5-1.5 1.5.672 1.5 1.5z"/></svg>