<?xml version="1.0" encoding="UTF-8"?>
<svg xmlns="http://www.w3.org/2000/svg" id="Layer_1" data-name="Layer 1" viewBox="0 0 24 24">
  <path d="m12.954,7.493l1.439-2.65c1.887,1.256,3.509,2.878,4.765,4.765l-2.65,1.439c-.962-1.387-2.166-2.592-3.554-3.554Zm-1.197-4.084c-2.073-.902-4.356-1.409-6.757-1.409v3c1.883,0,3.678.379,5.32,1.056l1.437-2.648Zm7.243,15.591h3c0-2.401-.507-4.684-1.409-6.757l-2.648,1.437c.677,1.642,1.056,3.436,1.056,5.32Zm-15.5,2c-.276,0-.5-.225-.5-.5V0H0v20.5c0,1.93,1.57,3.5,3.5,3.5h20.5v-3H3.5Z"/>
</svg>
