<?xml version="1.0" encoding="UTF-8"?>
<svg xmlns="http://www.w3.org/2000/svg" id="Layer_1" data-name="Layer 1" viewBox="0 0 24 24">
  <path d="m2,3c0-1.654,1.346-3,3-3s3,1.346,3,3-1.346,3-3,3-3-1.346-3-3Zm13,3c1.654,0,3-1.346,3-3s-1.346-3-3-3-3,1.346-3,3,1.346,3,3,3Zm-8,5c0,1.654,1.346,3,3,3s3-1.346,3-3-1.346-3-3-3-3,1.346-3,3Zm.031-4h-3.531c-1.93,0-3.5,1.57-3.5,3.5v3.5h3v-3.5c0-.276.224-.5.5-.5h1.601c.25-1.226.96-2.278,1.93-3Zm16.969,11c0,3.314-2.686,6-6,6s-6-2.686-6-6,2.686-6,6-6,6,2.686,6,6Zm-1.641-1.256l-1.398-1.43-3.614,3.703-2.216-2.301-1.387,1.441,2.182,2.268c.766.765,2.079.763,2.823.019l3.61-3.7ZM12.969,7c.97.722,1.68,1.774,1.93,3h3.101c.682,0,1.34.094,1.971.255-.129-1.813-1.626-3.255-3.471-3.255h-3.531Zm-8.969,11.5v3.5h3v-3.5c0-.276.224-.5.5-.5h2.5c0-1.062.211-2.073.587-3h-3.087c-1.93,0-3.5,1.57-3.5,3.5Z"/>
</svg>
