<?xml version="1.0" encoding="UTF-8"?>
<svg xmlns="http://www.w3.org/2000/svg" id="Layer_1" data-name="Layer 1" viewBox="0 0 24 24">
  <path d="m12,12v1.5c0,1.379-1.122,2.5-2.5,2.5s-2.5-1.121-2.5-2.5v-3.492c-1.098.044-2.045.795-2.322,1.866l-1.056,4.625-1.562,1.562L-.061,15.939l.95-.95.874-3.824c.632-2.451,2.794-4.135,5.278-4.161.208-2.295,1.818-4.245,4.083-4.83l3.832-1.107.982-.982,2.122,2.121-1.529,1.529-4.532,1.308v3.956h8.118l1.812-1.719,2.064,2.177-2.636,2.542h-9.358Zm12,6.5c0,3.038-2.462,5.5-5.5,5.5s-5.5-2.462-5.5-5.5,2.462-5.5,5.5-5.5,5.5,2.462,5.5,5.5Zm-1.641-.756l-1.398-1.43-3.114,3.203-1.666-1.751-1.387,1.441,1.632,1.718c.766.765,2.079.763,2.823.019l.004-.004,3.107-3.196Zm-13.494,1.256l-2.903,2.994,2.153,2.088,2.02-2.082h1.734c-.479-.906-.773-1.922-.844-3h-2.16Z"/>
</svg>
