<?xml version="1.0" encoding="UTF-8"?>
<svg xmlns="http://www.w3.org/2000/svg" id="Layer_1" data-name="Layer 1" viewBox="0 0 24 24">
  <path d="m21,6v-3h-2.036c-.243-1.694-1.704-3-3.464-3h-7c-1.93,0-3.5,1.57-3.5,3.5v6.284c-1.308.87-2,2.166-2,3.216,0,.5.12,1.05.298,1.43.748,1.951,2.93,4.348,6.844,4.935-.788,2.064-3.334,2.099-3.334,4.635h10.385c0-2.536-2.546-2.571-3.334-4.635,3.914-.587,6.096-2.984,6.844-4.935.178-.38.298-.93.298-1.43,0-1.05-.692-2.345-2-3.216v-3.784h2Zm-13-2.5c0-.275.225-.5.5-.5h7c.275,0,.5.225.5.5v5.5h-8V3.5Zm4,10.5c-5.096,0-5.994-.497-6-.995,0,0,0,0,0-.005.062-.202.442-.716,1.232-1h9.535c.786.281,1.164.822,1.229,1.027,0,.473-.525.973-5.997.973Z"/>
</svg>
