<?xml version="1.0" encoding="UTF-8"?>
<svg xmlns="http://www.w3.org/2000/svg" id="Layer_1" data-name="Layer 1" viewBox="0 0 24 24">
  <path d="m19.5,0H4.5C2.57,0,1,1.57,1,3.5v20.5h22V3.5c0-1.93-1.57-3.5-3.5-3.5Zm.5,21H4V3.5c0-.276.225-.5.5-.5h15c.275,0,.5.224.5.5v17.5ZM6.5,7c-.828,0-1.5-.672-1.5-1.5s.672-1.5,1.5-1.5,1.5.672,1.5,1.5-.672,1.5-1.5,1.5Zm2.5-1.5c0-.828.672-1.5,1.5-1.5s1.5.672,1.5,1.5-.672,1.5-1.5,1.5-1.5-.672-1.5-1.5Zm3,2.5c-3.309,0-6,2.691-6,6s2.691,6,6,6,6-2.691,6-6-2.691-6-6-6Zm-1.629,7.73c.1.522.783.858.79.862l-.828,1.82c-.166-.075-1.635-.775-1.927-2.31-.167-.881.283-1.796.718-2.585.492-.892.517-1.169.505-1.247-.1-.522-.783-.858-.79-.862l.828-1.82c.166.075,1.635.775,1.927,2.31.167.881-.283,1.796-.718,2.585-.492.892-.517,1.169-.505,1.247Zm4,0c.1.522.783.858.79.862l-.828,1.82c-.166-.075-1.635-.775-1.927-2.31-.167-.881.283-1.796.718-2.585.492-.892.517-1.169.505-1.247-.1-.522-.783-.858-.79-.862l.828-1.82c.166.075,1.635.775,1.927,2.31.167.881-.283,1.796-.718,2.585-.492.892-.517,1.169-.505,1.247Z"/>
</svg>
