<?xml version="1.0" encoding="UTF-8"?>
<svg xmlns="http://www.w3.org/2000/svg" id="Layer_1" data-name="Layer 1" viewBox="0 0 24 24" width="512" height="512"><path d="m23.588,10.361l-4.06-7.565c-.594-1.107-1.745-1.795-3.005-1.795H7.496c-1.256,0-2.406.686-3.003,1.791L.415,10.359c-.556,1.03-.555,2.26,0,3.292l4.078,7.562c.596,1.103,1.746,1.788,3.002,1.788h9.027c1.259,0,2.41-.688,3.005-1.795l4.059-7.564c.552-1.027.552-2.253,0-3.28Zm-2.645,1.86l-4.059,7.565c-.07.132-.209.214-.361.214H7.496c-.152,0-.292-.082-.362-.213l-4.077-7.561c-.075-.14-.075-.305,0-.444l4.078-7.567c.071-.133.21-.215.362-.215h9.027c.152,0,.291.082.361.214l4.06,7.566c.074.138.074.302,0,.441Zm-7.443-1.721h3.5v3h-3.5v3.5h-3v-3.5h-3.5v-3h3.5v-3.5h3v3.5Z"/></svg>
