<?xml version="1.0" encoding="UTF-8"?>
<svg xmlns="http://www.w3.org/2000/svg" id="Layer_1" data-name="Layer 1" viewBox="0 0 24 24">
  <path d="m8.757,8c-.757,0-1.281.587-1.385,1.167l-1.372,6.833h1.469l.275-1.474h2.006l.262,1.474h1.488l-1.397-6.807c-.12-.668-.589-1.192-1.346-1.192Zm-.645,5l.624-3.295.638,3.295h-1.261Zm5.488-2.507v3c0,.496.404.9.9.9.458,0,.823-.349.878-.793h-.878v-1.6h2.5v1.6h-.011c-.057,1.33-1.145,2.393-2.489,2.393-1.381,0-2.5-1.119-2.5-2.5v-3c0-1.381,1.119-2.5,2.5-2.5s2.5,1.119,2.5,2.5h-1.6c0-.496-.404-.9-.9-.9s-.9.404-.9.9Zm6-.893v1.801h1.9v1.6h-1.9v1.4h1.9v1.6h-3.5v-8h3.5v1.6h-1.9Zm3.777,8.4c-2.079,3.581-5.946,6-10.376,6-6.617,0-12-5.383-12-12S6.383,0,13,0c2.462,0,4.838.762,6.837,2.151L21.981.007v5.014c0,.544-.441.986-.986.986h-5.014l1.697-1.697c-1.4-.852-3.014-1.31-4.677-1.31-4.962,0-9,4.038-9,9s4.038,9,9,9c2.656,0,5.04-1.164,6.689-3h3.687Z"/>
</svg>
