<?xml version="1.0" encoding="UTF-8"?>
<svg xmlns="http://www.w3.org/2000/svg" id="Layer_1" data-name="Layer 1" viewBox="0 0 24 24">
  <path d="M23.207,10.873c-1.121-2.583-2.181-5.024-3.325-6.437C17.396,1.117,13.296-.525,9.183,.154,4.952,.851,1.5,3.97,.389,8.099c-.938,3.486-.114,7.117,2.262,9.962,.226,.27,.35,.609,.35,.954v4.985h14v-3h.893c1.74,0,3.231-1.3,3.468-3.022l.341-2.478h2.299v-2.818s-.571-1.299-.793-1.809Zm-4.121,1.627l-.698,5.069c-.033,.246-.246,.431-.495,.431h-3.893v3H6v-1.985c0-1.046-.372-2.068-1.047-2.876-1.74-2.084-2.349-4.731-1.668-7.26,.794-2.95,3.36-5.266,6.386-5.765,3.005-.493,5.998,.7,7.845,3.165,.921,1.139,1.947,3.503,2.939,5.789,.062,.144,.125,.288,.188,.432h-1.558Zm-5.581-5.5H6.005v6h7.5c.827,0,1.5-.673,1.5-1.5h1v-3h-1c0-.827-.673-1.5-1.5-1.5Zm-.5,4h-4v-2h4v2Z"/>
</svg>
