<?xml version="1.0" encoding="UTF-8"?>
<svg xmlns="http://www.w3.org/2000/svg" id="Layer_1" data-name="Layer 1" viewBox="0 0 24 24" width="512" height="512"><path d="m18,8.358v9.392h-3v-6.241l-3,4.76-3-4.759v6.24h-3v-9.392c0-.947.565-1.736,1.441-2.013.878-.278,1.828.053,2.363.818l2.195,3.479,2.156-3.42c.575-.826,1.524-1.154,2.403-.878.875.276,1.441,1.065,1.441,2.013Zm6,3.642c0,6.617-5.383,12-12,12S0,18.617,0,12,5.383,0,12,0s12,5.383,12,12Zm-3,0c0-4.963-4.038-9-9-9S3,7.037,3,12s4.038,9,9,9,9-4.037,9-9Z"/></svg>
