<?xml version="1.0" encoding="UTF-8"?>
<svg xmlns="http://www.w3.org/2000/svg" id="Layer_1" data-name="Layer 1" viewBox="0 0 24 24">
  <path d="m7.565,16.327l1.869,2.347-3.617,2.881-.918-.646C1.832,18.753,0,15.236,0,11.5,0,5.159,5.159,0,11.5,0s11.5,5.159,11.5,11.5c0,.085-.014.168-.015.253-.894-.715-1.944-1.237-3.089-1.517-.614-4.088-4.139-7.236-8.396-7.236C6.813,3,3,6.813,3,11.5c0,2.391,1.017,4.661,2.763,6.262l1.802-1.436Zm5.935-4.827c0-.504-.193-.959-.5-1.31v-5.19h-3v5.19c-.307.352-.5.806-.5,1.31,0,1.105.895,2,2,2s2-.895,2-2Zm10.5,6.5c0,3.314-2.686,6-6,6s-6-2.686-6-6,2.686-6,6-6,6,2.686,6,6Zm-3.191-.153c-.28-.521-.821-.846-1.413-.846h-2.029l1.845-2.828-1.664-1.109-2.478,3.854c-.147.487-.055,1.022.249,1.431.303.408.788.652,1.297.652h2.035l-1.963,2.824,1.659,1.117,2.385-3.451c.327-.493.357-1.123.077-1.645Z"/>
</svg>
