<?xml version="1.0" encoding="UTF-8"?>
<svg xmlns="http://www.w3.org/2000/svg" id="Layer_1" data-name="Layer 1" viewBox="0 0 24 24">
  <path d="M24,13.5c0,2.523-1.718,4.631-4.039,5.276,.025-.255,.039-.514,.039-.776,0-.8-.121-1.57-.339-2.299,.793-.419,1.339-1.244,1.339-2.201,0-1.207-.86-2.218-2-2.45v3.08c-.704-1.27-1.745-2.324-3-3.051v-3.079h1.91c-.478-2.833-2.942-5-5.91-5s-5.431,2.167-5.91,5h1.91v3.079c-1.255,.727-2.296,1.781-3,3.051v-3.08c-1.14,.232-2,1.243-2,2.45,0,.957,.546,1.782,1.339,2.201-.218,.729-.339,1.499-.339,2.299,0,.262,.015,.52,.039,.776-2.321-.644-4.039-2.753-4.039-5.276,0-2.14,1.231-3.994,3.02-4.903C3.233,3.822,7.173,0,12,0s8.767,3.822,8.98,8.597c1.789,.909,3.02,2.763,3.02,4.903Zm-6,4.5c0,3.309-2.691,6-6,6s-6-2.691-6-6,2.691-6,6-6,6,2.691,6,6Zm-6-3c-.267,0-.521,.046-.767,.112l3.656,3.655c.066-.246,.112-.5,.112-.767,0-1.654-1.346-3-3-3Zm0,6c.267,0,.521-.046,.767-.112l-3.656-3.655c-.066,.246-.112,.5-.112,.767,0,1.654,1.346,3,3,3Z"/>
</svg>
