<?xml version="1.0" encoding="UTF-8"?>
<svg xmlns="http://www.w3.org/2000/svg" id="Layer_1" data-name="Layer 1" viewBox="0 0 24 24">
  <path d="m21.928,2.072c-2.914-2.912-7.843-2.725-10.989.422-.968.968-1.695,2.152-2.103,3.426-.449,1.404-1.512,2.467-2.917,2.916-1.274.409-2.459,1.137-3.426,2.104-3.146,3.146-3.335,8.075-.422,10.988,1.383,1.384,3.221,2.067,5.106,2.067,2.086,0,4.23-.837,5.882-2.489.968-.968,1.695-2.152,2.103-3.426.449-1.404,1.512-2.467,2.917-2.916,1.274-.409,2.459-1.137,3.426-2.104,3.146-3.146,3.335-8.075.422-10.988Zm-2.543,8.867c-.631.631-1.399,1.104-2.221,1.367-2.304.738-4.12,2.554-4.858,4.857h0c-.263.821-.735,1.589-1.367,2.221-.977.977-2.23,1.548-3.532,1.609-1.239.063-2.389-.361-3.214-1.188-1.743-1.743-1.554-4.77.422-6.746.631-.631,1.399-1.104,2.221-1.367,2.304-.738,4.12-2.554,4.858-4.858.263-.82.735-1.588,1.367-2.22,1.069-1.069,2.446-1.615,3.76-1.615,1.115,0,2.186.394,2.986,1.193,1.743,1.743,1.554,4.77-.422,6.746Zm-7.385,2.561c0,.828-.672,1.5-1.5,1.5s-1.5-.672-1.5-1.5.672-1.5,1.5-1.5,1.5.672,1.5,1.5Zm-3,4c0,.828-.672,1.5-1.5,1.5s-1.5-.672-1.5-1.5.672-1.5,1.5-1.5,1.5.672,1.5,1.5Zm9-12c0,.828-.672,1.5-1.5,1.5s-1.5-.672-1.5-1.5.672-1.5,1.5-1.5,1.5.672,1.5,1.5Z"/>
</svg>
