<?xml version="1.0" encoding="UTF-8"?>
<svg xmlns="http://www.w3.org/2000/svg" id="Layer_1" data-name="Layer 1" viewBox="0 0 24 24">
  <path d="m22.626,8.969c-1.562-1.563-5.363-2.259-8.028-2.469.255-.441.402-.953.402-1.5,0-.609-.182-1.175-.494-1.648.361-.207.845-.352,1.494-.352V0c-1.842,0-3.133.663-4,1.513-.867-.85-2.158-1.513-4-1.513v3c.651,0,1.135.141,1.497.347-.314.474-.497,1.042-.497,1.653,0,.547.147,1.059.402,1.5-2.665.211-6.466.906-8.028,2.469-.886.886-1.374,2.063-1.374,3.316s.488,2.431,1.374,3.316c.914.914,2.114,1.371,3.315,1.371.986,0,1.971-.308,2.799-.924,1.002,3.351,3.207,6.218,3.328,6.372l1.184,1.522,1.184-1.522c.121-.154,2.326-3.021,3.328-6.372.828.616,1.813.924,2.799.924,1.201,0,2.401-.457,3.315-1.371.886-.886,1.374-2.063,1.374-3.316s-.488-2.431-1.374-3.316ZM5.885,13.479c-.658.66-1.731.659-2.39,0-.319-.319-.495-.744-.495-1.195s.176-.875.495-1.195c.477-.477,2.298-1.17,5.438-1.458-1.116,1.516-2.33,3.128-3.049,3.847Zm6.115,5.318c-.466-.782-.981-1.759-1.372-2.798h2.744c-.391,1.039-.906,2.016-1.372,2.798Zm-1.835-5.798c.607-.798,1.238-1.659,1.835-2.474.597.815,1.228,1.675,1.835,2.474h-3.67Zm10.34.48c-.658.658-1.73.658-2.389,0-.72-.72-1.934-2.332-3.05-3.848,3.141.288,4.962.981,5.438,1.458.319.319.495.743.495,1.194s-.176.876-.495,1.195Z"/>
</svg>
