<?xml version="1.0" encoding="UTF-8"?>
<svg xmlns="http://www.w3.org/2000/svg" id="Layer_1" data-name="Layer 1" viewBox="0 0 24 24">
  <path d="m18,12c-3.314,0-6,2.686-6,6s2.686,6,6,6,6-2.686,6-6-2.686-6-6-6Zm4,7h-3v3h-2v-3h-3v-2h3v-3h2v3h3v2Zm-14.435-2.673l1.869,2.347-3.616,2.881-.919-.646C1.832,18.754,0,15.236,0,11.5,0,5.159,5.159,0,11.5,0s11.5,5.159,11.5,11.5c0,.085-.014.168-.015.253-.894-.715-1.944-1.237-3.089-1.517-.614-4.088-4.139-7.236-8.396-7.236C6.813,3,3,6.813,3,11.5c0,2.391,1.017,4.662,2.764,6.263l1.802-1.436Zm3.935-2.827c-1.105,0-2-.895-2-2,0-.504.193-.959.5-1.31v-5.19h3v5.19c.307.352.5.806.5,1.31,0,1.105-.895,2-2,2Z"/>
</svg>
