<?xml version="1.0" encoding="UTF-8"?>
<svg xmlns="http://www.w3.org/2000/svg" id="Layer_1" data-name="Layer 1" viewBox="0 0 24 24">
  <path d="m5,12h4.816c-.791.823-1.364,1.852-1.635,3h-3.181v-3ZM19.5,2H4.5C2.019,2,0,4.019,0,6.5v15.5h10v-.816c-.639-.614-1.154-1.354-1.5-2.184H3V6.5c0-.827.673-1.5,1.5-1.5h15c.827,0,1.5.673,1.5,1.5v12.5h-.5c-.346.83-.862,1.57-1.5,2.184v.816h5V6.5c0-2.481-2.019-4.5-4.5-4.5Zm-2.5,18.238v3.752l-2.5-2.5-2.5,2.5v-3.752c-1.205-.808-2-2.182-2-3.738,0-2.481,2.019-4.5,4.5-4.5s4.5,2.019,4.5,4.5c0,1.557-.795,2.93-2,3.738Zm-4-3.738c0,.827.673,1.5,1.5,1.5s1.5-.673,1.5-1.5-.673-1.5-1.5-1.5-1.5.673-1.5,1.5Zm6-9.5H5v3h14v-3Z"/>
</svg>
