<?xml version="1.0" encoding="UTF-8"?>
<svg xmlns="http://www.w3.org/2000/svg" id="Layer_1" data-name="Layer 1" viewBox="0 0 24 24">
  <path d="m22,19.5c0-1.933-1.567-3.5-3.5-3.5h-2.5v-1.5c0-.276.224-.5.5-.5h3.25c2.347,0,4.25-1.903,4.25-4.25s-1.903-4.25-4.25-4.25h-2.57c-2.144-.283-7.913-1.669-10.281-4.889l-.45-.611h-2.449v14h2.449l.45-.611c2.715-3.692,9.455-4.769,10.286-4.889h2.566c.689,0,1.25.561,1.25,1.25s-.561,1.25-1.25,1.25h-3.25c-1.933,0-3.5,1.567-3.5,3.5v1.5h-7.5c-1.933,0-3.5,1.567-3.5,3.5v1.5H0v3h24v-3h-2v-1.5ZM7,9.175v-4.351c1.301.935,2.758,1.643,4.147,2.175-1.389.533-2.846,1.241-4.147,2.175Zm12,11.825H5v-1.5c0-.276.224-.5.5-.5h13c.276,0,.5.224.5.5v1.5Z"/>
</svg>
