<?xml version="1.0" encoding="UTF-8"?>
<svg xmlns="http://www.w3.org/2000/svg" id="Layer_1" data-name="Layer 1" viewBox="0 0 24 24" width="512" height="512"><path d="M6,10c0-1.105,.895-2,2-2s2,.895,2,2-.895,2-2,2-2-.895-2-2Zm12,1c0-1.105-.895-2-2-2s-2,.895-2,2,.895,2,2,2,2-.895,2-2Zm-1.073,3.951c-.133-.423-.524-.695-.945-.695-.098,0-.198,.015-.297,.046l-6.196,1.955,.482-.921c.256-.489,.067-1.094-.423-1.349-.148-.077-.306-.114-.463-.114-.36,0-.708,.195-.887,.537l-1.659,3.172c-.376,.719-.588,1.527-.531,2.336,.116,1.642,1.057,2.925,2.324,3.587,.613,.32,1.302,.495,2.009,.495,.428,0,.863-.064,1.293-.199l1.309-.436c.612-.204,1.025-.776,1.026-1.422l.005-5.029,2.302-.721c.522-.164,.813-.719,.649-1.242Zm7.073-2.957C23.996,5.38,18.615,0,12,0S0,5.383,0,12H0C0,15.618,1.617,18.86,4.157,21.062c-.295-1.334-.147-2.745,.415-3.989-.99-1.446-1.572-3.192-1.572-5.072,0,0,0-.001,0-.002,0-2.208,.803-4.229,2.127-5.796l.929,1.387c.575-.385,1.247-.589,1.943-.589,1.062,0,2.055,.474,2.723,1.3l1.555-1.258c-1.049-1.298-2.608-2.042-4.277-2.042-.748,0-1.476,.161-2.153,.45,1.611-1.514,3.772-2.45,6.153-2.45,4.963,0,9,4.038,9,9h0c0,3.524-2.042,6.568-5,8.043v3.254c4.654-1.651,8-6.084,8-11.297,0-.002,0-.004,0-.006Z"/></svg>
