<svg id="Layer_1" viewBox="0 0 24 24" xmlns="http://www.w3.org/2000/svg" data-name="Layer 1"><path d="m18.52 2.963.811 3.437h-1.757l.787-3.437c.009-.037.041-.063.079-.063s.071.026.079.063zm5.48-.963v9h-11.914c-.401 0-.768-.22-.957-.573s-.169-.78.053-1.115c.02-.06 1.836-2.422 1.818-2.492v-4.82c0-1.105.895-2 2-2h7c1.105 0 2 .895 2 2zm-2.5 7.5-1.616-6.853c-.201-.866-1.137-1.406-2.056-1.021-.439.184-.734.606-.842 1.07l-1.559 6.804h1.437l.389-1.7h2.408l.401 1.7s1.437 0 1.437 0zm2.5 5.5v9h-11v-6.82c.02-.068-1.799-2.435-1.818-2.492-.222-.335-.243-.762-.053-1.115s.556-.573.957-.573h9.914c1.105 0 2 .895 2 2zm-2 .5h-2.873v-1h-1.253v1h-2.873v1.253h4.808c-.111.963-.484 2.151-1.303 3.071-.36-.405-.644-.857-.847-1.325h-1.336c.265.751.668 1.487 1.223 2.123-.664.403-1.495.661-2.545.661v1.253c1.462 0 2.615-.413 3.512-1.053.894.636 2.033 1.053 3.488 1.053v-1.253c-1.049 0-1.876-.262-2.539-.665.99-1.135 1.485-2.591 1.607-3.866h.932v-1.253zm-19 2.5h8v5.995h-8c-1.657 0-3-1.343-3-3v-20.995h11.556c-.345.591-.556 1.268-.556 2v1h-8zm2 4.003h4v-2h-4z"/></svg>