<?xml version="1.0" encoding="UTF-8"?>
<svg xmlns="http://www.w3.org/2000/svg" id="Layer_1" data-name="Layer 1" viewBox="0 0 24 24">
  <path d="m18.5,15c.828,0,1.5.672,1.5,1.5s-.672,1.5-1.5,1.5-1.5-.672-1.5-1.5.672-1.5,1.5-1.5Zm0,6c-.828,0-1.5.672-1.5,1.5s.672,1.5,1.5,1.5,1.5-.672,1.5-1.5-.672-1.5-1.5-1.5Zm-8,0c-.828,0-1.5.672-1.5,1.5s.672,1.5,1.5,1.5,1.5-.672,1.5-1.5-.672-1.5-1.5-1.5Zm4-6c-.828,0-1.5.672-1.5,1.5s.672,1.5,1.5,1.5,1.5-.672,1.5-1.5-.672-1.5-1.5-1.5Zm0-6c-.828,0-1.5.672-1.5,1.5s.672,1.5,1.5,1.5,1.5-.672,1.5-1.5-.672-1.5-1.5-1.5Zm0,12c-.828,0-1.5.672-1.5,1.5s.672,1.5,1.5,1.5,1.5-.672,1.5-1.5-.672-1.5-1.5-1.5Zm7-3c-.828,0-1.5.672-1.5,1.5s.672,1.5,1.5,1.5,1.5-.672,1.5-1.5-.672-1.5-1.5-1.5Zm-10-6c-.828,0-1.5.672-1.5,1.5s.672,1.5,1.5,1.5,1.5-.672,1.5-1.5-.672-1.5-1.5-1.5Zm8-1.206l-3.17-3.101c-1.766-1.766-1.766-4.621-.012-6.375.85-.85,1.98-1.318,3.182-1.318s2.333.468,3.182,1.319c.85.85,1.318,1.979,1.318,3.181s-.468,2.332-1.318,3.182l-3.182,3.112Zm-1.061-5.234l1.061,1.038,1.072-1.049c.271-.272.428-.648.428-1.049s-.156-.777-.439-1.06h0c-.283-.284-.66-.44-1.06-.44s-.777.156-1.061.439c-.584.585-.584,1.536,0,2.121Zm-9.439,11.939c0,1.202-.468,2.332-1.318,3.182l-3.182,3.112-3.17-3.101c-1.766-1.766-1.766-4.621-.012-6.375.85-.85,1.98-1.318,3.182-1.318s2.333.468,3.182,1.319c.85.85,1.318,1.979,1.318,3.181Zm-3,0c0-.4-.156-.777-.439-1.06h0c-.283-.284-.66-.44-1.06-.44s-.777.156-1.061.439c-.584.585-.584,1.536,0,2.121l1.061,1.038,1.072-1.049c.271-.272.428-.648.428-1.049Z"/>
</svg>
