<svg id="Layer_1" viewBox="0 0 24 24" xmlns="http://www.w3.org/2000/svg" data-name="Layer 1"><path d="m2.594 12 1.41-4h-3.076c-.619 0-1.062-.597-.883-1.19l2.656-6.81h4.303l-1.692 4h2.786c.722 0 1.153.804.754 1.406l-5.058 6.594h-1.199zm20.606-1.133c-1.121-2.581-2.179-5.019-3.322-6.431-2.113-2.821-5.332-4.436-8.836-4.436-.644.001-1.3.054-1.94.176l-.776 1.833c.787.062 1.497.45 1.995 1.049.229-.02.459-.057.686-.058 2.534.017 4.923 1.168 6.505 3.279.964 1.176 2.142 3.95 3.127 6.221h-1.557l-.698 5.068c-.033.246-.247.432-.495.432h-3.894v3h-7.999v-1.985c0-1.046-.372-2.068-1.047-2.876-.547-.655-.981-1.379-1.303-2.139h-3.184c.436 1.461 1.172 2.85 2.184 4.062.226.27.35.609.35.954v4.985h14v-3h.894c1.738 0 3.229-1.299 3.468-3.022l.341-2.478h2.298v-2.818s-.573-1.303-.795-1.815z"/></svg>