<?xml version="1.0" encoding="UTF-8"?>
<svg xmlns="http://www.w3.org/2000/svg" id="Layer_1" data-name="Layer 1" viewBox="0 0 24 24">
  <path d="m24.033,7.186l-2.855-.404c-2.518-.356-6.154-.781-9.178-.781s-6.66.425-9.178.781L-.033,7.186l4.604,4.921L.056,18.141l3.543-.476c2.278-.307,5.586-.672,8.401-.672s6.123.365,8.401.672l3.543.476-4.516-6.034,4.604-4.921Zm-6.722,7.1c-1.729-.167-3.598-.292-5.312-.292s-3.583.125-5.312.292l1.791-2.393-2.347-2.507c1.916-.214,4.024-.385,5.867-.385s3.951.171,5.867.385l-2.347,2.507,1.791,2.393Z"/>
</svg>
