<svg id="Layer_1" viewBox="0 0 24 24" xmlns="http://www.w3.org/2000/svg" data-name="Layer 1"><path d="m15.528 6.472 1.472-1.472v4.231c0 .425-.344.769-.769.769h-4.231l1.402-1.402c-.368-.367-.861-.598-1.402-.598-1.103 0-2 .897-2 2s.897 2 2 2h4.576c-.774 1.763-2.531 3-4.576 3-2.757 0-5-2.243-5-5s2.243-5 5-5c1.355 0 2.609.552 3.528 1.472zm8.472-2.971v16.503h-15.549l-5.554 3.691c-.471.29-.695.305-1.024.305-1.03 0-1.868-.839-1.868-1.872l-.005-18.623c0-.933.364-1.811 1.026-2.474.662-.661 1.54-1.026 2.473-1.027l17-.004h.002c.934 0 1.813.364 2.474 1.025s1.025 1.54 1.025 2.475zm-3 0c0-.181-.092-.299-.146-.354-.055-.054-.173-.146-.353-.146l-17 .004c-.177 0-.297.093-.352.148s-.148.174-.148.352l.005 16.503 4.544-3.003h13.451v-13.505z"/></svg>