<?xml version="1.0" encoding="UTF-8"?>
<svg xmlns="http://www.w3.org/2000/svg" id="Layer_1" data-name="Layer 1" viewBox="0 0 24 24">
  <path d="M8.207,11.664c-.094,.359-.16,.729-.189,1.11-.372,.583-.636,1.225-.806,1.891C2.365,11.123,0,7.957,0,5,0,2,2.347,0,5,0c1.377,0,2.604,.535,3.5,1.406,.896-.872,2.123-1.406,3.5-1.406,2.653,0,5,2.077,5,5,0,.79-.172,1.595-.511,2.418-.712-.275-1.469-.418-2.239-.418-.318,0-.628,.031-.934,.077,.512-.861,.684-1.55,.684-2.077,0-1.103-.897-2-2-2-1.14,0-2,.859-2,2h-3c0-1.141-.86-2-2-2-1.103,0-2,.897-2,2,0,1.251,.947,3.395,5.207,6.664Zm14.771,7.427c.015,.137,.022,.272,.022,.409,0,2.481-2.019,4.5-4.5,4.5-.698,0-1.381-.165-2-.477-.619,.312-1.302,.477-2,.477-2.481,0-4.5-2.019-4.5-4.5,0-.137,.007-.272,.022-.409-.658-.796-1.022-1.791-1.022-2.841,0-1.033,.358-2.022,1.004-2.816-.003-.062-.004-.122-.004-.184,0-2.344,1.907-4.25,4.25-4.25,.806,0,1.583,.23,2.25,.648,.667-.418,1.445-.648,2.25-.648,2.343,0,4.25,1.906,4.25,4.25,0,.061-.001,.122-.004,.184,.646,.794,1.004,1.783,1.004,2.816,0,1.05-.364,2.045-1.022,2.841Zm-8.478,1.909c.19,0,.353-.041,.5-.096V12.261c-.214-.165-.471-.261-.75-.261-.689,0-1.25,.561-1.25,1.25,0,.062,.009,.135,.028,.222l.374,.935-.846,.697c-.208,.17-.555,.547-.555,1.146,0,.454,.213,.882,.585,1.173l.829,.648-.328,1.001c-.059,.18-.086,.315-.086,.428,0,.827,.673,1.5,1.5,1.5Zm6.5-4.75c0-.6-.348-.977-.555-1.147l-.769-.634,.297-.989c.015-.068,.027-.155,.027-.229,0-.689-.561-1.25-1.25-1.25-.278,0-.536,.097-.75,.262v8.642c.147,.055,.31,.096,.5,.096,.827,0,1.5-.673,1.5-1.5,0-.112-.027-.247-.086-.426l-.331-1.002,.831-.649c.372-.291,.585-.719,.585-1.173Z"/>
</svg>
