<?xml version="1.0" encoding="UTF-8"?>
<svg xmlns="http://www.w3.org/2000/svg" id="Layer_1" data-name="Layer 1" viewBox="0 0 24 24">
  <path d="M12,0C5.383,0,0,5.383,0,12s5.383,12,12,12,12-5.383,12-12S18.617,0,12,0Zm9,12c0,1.158-.228,2.263-.628,3.281l-1.744-1.048c.237-.702,.372-1.452,.372-2.233s-.134-1.531-.372-2.233l1.744-1.048c.401,1.018,.628,2.123,.628,3.281Zm-9,4c-2.206,0-4-1.794-4-4s1.794-4,4-4,4,1.794,4,4-1.794,4-4,4ZM3,12c0-1.159,.228-2.263,.628-3.281l1.744,1.048c-.237,.702-.372,1.452-.372,2.233s.134,1.531,.372,2.233l-1.744,1.048c-.4-1.018-.628-2.122-.628-3.281Zm15.825-5.851l-1.745,1.049c-.948-1.002-2.185-1.726-3.579-2.032V3.135c2.117,.357,3.983,1.451,5.325,3.014ZM10.5,3.135v2.03c-1.394,.306-2.631,1.03-3.579,2.032l-1.745-1.049c1.342-1.563,3.208-2.656,5.325-3.014Zm-5.324,14.716l1.746-1.049c.948,1.002,2.185,1.725,3.579,2.031v2.031c-2.117-.357-3.983-1.45-5.324-3.013Zm8.324,3.013v-2.031c1.394-.306,2.631-1.029,3.579-2.031l1.746,1.049c-1.342,1.563-3.208,2.656-5.324,3.013Z"/>
</svg>
