<?xml version="1.0" encoding="UTF-8"?>
<svg xmlns="http://www.w3.org/2000/svg" id="Layer_1" data-name="Layer 1" viewBox="0 0 24 24">
  <path d="m3,2.83c-.798.72-1.843,1.17-3,1.17V1c.651,0,1.201-.419,1.408-1h3.184c.205.574.745.987,1.387.997l1.021.003s.013.379,0,.5l-3.654,1.602c-.118-.088-.237-.174-.346-.272Zm21,18.17v3c-1.157,0-2.202-.451-3-1.17-.798.72-1.843,1.17-3,1.17s-2.202-.451-3-1.17c-.798.72-1.843,1.17-3,1.17s-2.202-.451-3-1.17c-.798.72-1.843,1.17-3,1.17s-2.202-.451-3-1.17c-.798.72-1.843,1.17-3,1.17v-3c.651,0,1.201-.419,1.408-1h3.184c.207.581.757,1,1.408,1s1.201-.419,1.408-1h3.184c.167.467.559.818,1.043.942l2.76-5.756c.804-1.726,2.622-2.756,4.513-2.582l2.329-4.999,2.719,1.268-2.33,5c1.355,1.347,1.73,3.391.919,5.13l-.465.998h.512c.207.581.757,1,1.408,1Zm-4.511-5.033l-.343-.325-.469-.054c-.66-.073-1.289.277-1.57.88l-1.694,3.532h1.178c.207.581.757,1,1.408,1,.115,0,.222-.028.329-.053l1.498-3.213c.28-.602.145-1.312-.338-1.768ZM3,13.33c-.798.72-1.843,1.17-3,1.17v-3c.651,0,1.201-.419,1.408-1h1.69L1.095,6.455l6.576-3.131c.612-1.078,2.255-3.324,5.33-3.324v3c-1.315,0-2.131.898-2.537,1.506l2.948,5.994h3.181c.042.118.107.223.175.326-1.803.495-3.418,1.864-4.237,3.623-.175.021-.349.051-.53.051-1.157,0-2.202-.451-3-1.17-.798.72-1.843,1.17-3,1.17s-2.202-.451-3-1.17Zm2.136-5.476l1.679,3.393c.269-.179.482-.436.593-.746h2.66l-1.991-4.047-2.941,1.4ZM22.592,0h-3.184c-.207.581-.757,1-1.408,1s-1.201-.419-1.408-1h-1.592v2.83c.798.72,1.843,1.17,3,1.17s2.202-.451,3-1.17c.798.72,1.843,1.17,3,1.17V1c-.651,0-1.201-.419-1.408-1Z"/>
</svg>
