<svg id="Layer_1" viewBox="0 0 24 24" xmlns="http://www.w3.org/2000/svg" data-name="Layer 1"><path d="m7.098 12.402c-1.464-1.464-1.464-3.839 0-5.303s3.839-1.464 5.303 0c1.184 1.184 1.498 4.31 1.575 5.464l1.216 1.216c.256-.462.742-.779 1.307-.779.828 0 1.5.672 1.5 1.5s-.672 1.5-1.5 1.5c-.237 0-.459-.06-.658-.158.098.199.158.421.158.658 0 .828-.672 1.5-1.5 1.5s-1.5-.672-1.5-1.5c0-.565.317-1.052.779-1.307l-1.216-1.216c-1.154-.077-4.28-.391-5.464-1.575zm16.902-7.402h-.666l-1.636 13.909c-.208 1.762-1.702 3.091-3.476 3.091h-12.444c-1.774 0-3.269-1.329-3.476-3.09l-1.636-13.91h-.666v-3h24zm-3.687 0h-16.626l1.595 13.559c.03.251.243.441.497.441h12.443c.253 0 .467-.19.497-.442l1.595-13.558z"/></svg>