<?xml version="1.0" encoding="UTF-8"?>
<svg xmlns="http://www.w3.org/2000/svg" id="Layer_1" data-name="Layer 1" viewBox="0 0 24 24">
  <path d="m20.5,3H3.5c-1.93,0-3.5,1.57-3.5,3.5v12.5h6.74l3.6,3.031c.479.425,1.079.635,1.674.635.582,0,1.158-.202,1.606-.6l3.708-3.066h6.672V6.5c0-1.93-1.57-3.5-3.5-3.5Zm.5,13h-4.752l-4.244,3.511-4.168-3.511H3v-5.2l1.66.924-.652,2.039.36.272,1.638-1.266,1.63,1.261.378-.262-.663-2.015,1.648-.955v.003l1.66.924-.652,2.039.36.272,1.638-1.266,1.63,1.261.378-.262-.663-2.015,1.648-.955v.003l1.66.924-.652,2.039.36.272,1.638-1.266,1.63,1.261.378-.262-.663-2.015,1.648-.955v5.204Zm0-5.662h-2.163l-.588-2.251h-.486l-.588,2.251h-4.338l-.588-2.251h-.486l-.588,2.251h-4.338l-.588-2.251h-.486l-.588,2.251h-2.175v-3.838c0-.276.225-.5.5-.5h17c.275,0,.5.224.5.5v3.838Z"/>
</svg>
