<?xml version="1.0" encoding="UTF-8"?>
<svg xmlns="http://www.w3.org/2000/svg" id="Layer_1" data-name="Layer 1" viewBox="0 0 24 24">
  <path d="M13.63,11H4.973v-3H15v2.404c-.478,.157-.937,.356-1.37,.596Zm-3.868,5c.287-1.112,.801-2.131,1.498-3H5.001v3h4.761Zm.325,5H3.5c-.276,0-.5-.225-.5-.5V5h5v-1.5c0-.275,.224-.5,.5-.5h3c.276,0,.5,.225,.5,.5v1.5h5v5.025c.166-.01,.331-.025,.5-.025,.874,0,1.713,.145,2.5,.404V2h-5.338c-.563-1.182-1.769-2-3.162-2h-3c-1.394,0-2.599,.818-3.162,2H0V20.5c0,1.93,1.57,3.5,3.5,3.5H12.221c-.926-.815-1.663-1.838-2.134-3Zm11.83-2.181l1.529,.883-1.5,2.598-1.542-.89c-.412,.352-.884,.629-1.404,.815v1.776h-3v-1.776c-.521-.186-.992-.463-1.404-.815l-1.542,.89-1.5-2.598,1.529-.883c-.049-.266-.083-.538-.083-.818s.033-.552,.083-.818l-1.529-.883,1.5-2.598,1.542,.89c.413-.352,.884-.629,1.404-.815v-1.776h3v1.776c.521,.186,.992,.463,1.404,.815l1.542-.89,1.5,2.598-1.529,.883c.049,.266,.083,.538,.083,.818s-.034,.552-.083,.819Zm-2.917-.819c0-.827-.673-1.5-1.5-1.5s-1.5,.673-1.5,1.5,.673,1.5,1.5,1.5,1.5-.673,1.5-1.5Z"/>
</svg>
