<svg id="Layer_1" viewBox="0 0 24 24" xmlns="http://www.w3.org/2000/svg" data-name="Layer 1"><path d="m9.598 15.609c-.175.473-.328.936-.47 1.391h-3.627c-1.378 0-2.5 1.121-2.5 2.5v4.5h-3.001v-4.5c0-3.032 2.467-5.5 5.5-5.5h5.222c-.492.43-.888.974-1.123 1.609zm12.929.696c-.249-.67-.84-1.127-1.527-1.251v-1.054h-3v1c-.654 0-1.346 0-2 0v-1h-3v1.054c-.687.125-1.278.581-1.527 1.251-1.116 3.009-1.473 5.74-1.473 6.456 0 .683.556 1.238 1.238 1.238 1.252 0 3.596-2.5 4.096-4h3.333c.5 1.5 2.843 4 4.096 4 .683 0 1.238-.556 1.238-1.238 0-.716-.357-3.447-1.473-6.456zm-21.527-9.305v-2c0-.552.448-1 1-1h1.35c.826-2.327 3.043-4 5.65-4s4.824 1.673 5.65 4h1.35c.552 0 1 .448 1 1v2c0 .552-.448 1-1 1h-1.35c-.826 2.327-3.043 4-5.65 4s-4.824-1.673-5.65-4h-1.35c-.552 0-1-.448-1-1zm11-1c0-1.002-.499-1.886-1.256-2.431-.872 1.452-2.447 2.431-4.265 2.431-.162 0-.315-.033-.474-.048 0 .016-.005.031-.005.048 0 1.654 1.346 3 3 3s3-1.346 3-3z"/></svg>