<?xml version="1.0" encoding="utf-8"?>
<!-- Generator: Adobe Illustrator 27.2.0, SVG Export Plug-In . SVG Version: 6.00 Build 0)  -->
<svg xmlns="http://www.w3.org/2000/svg" xmlns:xlink="http://www.w3.org/1999/xlink" version="1.1" id="Layer_1" x="0px" y="0px" viewBox="0 0 24 24" style="enable-background:new 0 0 24 24;" xml:space="preserve">
<path d="M12,7c-2.8,0-5,2.2-5,5s2.2,5,5,5s5-2.2,5-5S14.8,7,12,7z M12,14c-1.1,0-2-0.9-2-2s0.9-2,2-2s2,0.9,2,2S13.1,14,12,14z   M23.5,14.1c-0.4,0.7-0.9,1.2-1.5,1.6c-0.2,0.1-0.3,0.3-0.3,0.5l0,0c0,0,0,0,0,0c0.2,0.7,0.1,1.5-0.1,2.3c-0.2,0.8-0.6,1.5-1.2,2  C20,21,19.5,21.3,19,21.5c0,0,0-0.1,0-0.1l0-0.4l0-0.4c0-0.8-0.2-3.6-0.2-3.6l0,0c-0.3-1.4,0.3-2.9,1.6-3.7c0.2-0.1,0.4-0.3,0.5-0.6  c0.2-0.4,0.2-1,0-1.4c-0.1-0.2-0.3-0.4-0.5-0.6c-1.3-0.8-1.9-2.3-1.6-3.7c0.1-0.2,0-0.5,0-0.8c-0.1-0.4-0.5-0.8-1-1  c-0.3-0.1-0.5-0.1-0.8,0c-1.4,0.3-2.9-0.3-3.7-1.6c-0.1-0.2-0.3-0.4-0.6-0.5c-0.4-0.2-1-0.2-1.4,0c-0.2,0.1-0.4,0.3-0.6,0.5  C9.9,4.9,8.4,5.6,7,5.2c-0.2-0.1-0.5,0-0.8,0c-0.5,0.1-0.8,0.5-1,1C5.2,6.5,5.2,6.8,5.2,7c0.3,1.4-0.3,2.9-1.6,3.7  c-0.2,0.1-0.4,0.3-0.5,0.6c-0.2,0.4-0.2,1,0,1.4c0.1,0.2,0.3,0.4,0.5,0.6c1.2,0.8,1.9,2.3,1.6,3.7c0,0.1,0,0.1,0,0.2  c0,0.2-0.2,2.6-0.2,3.5L5,21l0,0.4c0,0,0,0.1,0,0.1c-1.3-0.5-2.2-1.6-2.6-2.9c-0.2-0.6-0.2-1.2-0.2-1.7c0-0.2,0-0.4,0.1-0.5  c0-0.2-0.1-0.4-0.3-0.5c-0.6-0.4-1.1-1-1.5-1.6c-0.7-1.3-0.7-3,0-4.3c0.4-0.7,0.9-1.2,1.5-1.6c0.2-0.1,0.3-0.3,0.3-0.5  C2.1,6.9,2.2,6.2,2.4,5.4c0.4-1.5,1.6-2.6,3-3c0.8-0.2,1.5-0.2,2.3-0.1c0.2,0,0.4-0.1,0.5-0.3c0.4-0.6,1-1.1,1.6-1.5  c1.3-0.7,3-0.7,4.3,0c0.7,0.4,1.2,0.9,1.6,1.5c0.1,0.2,0.3,0.3,0.5,0.3c0.7-0.2,1.5-0.1,2.3,0.1c1.5,0.4,2.6,1.6,3,3  c0.2,0.8,0.2,1.5,0.1,2.3c0,0.2,0.1,0.4,0.3,0.5c0.6,0.4,1.1,1,1.5,1.6C24.2,11.2,24.2,12.8,23.5,14.1L23.5,14.1z M17,21  c0,1.7,0.2,3-1.5,3c-1,0-2.5-1.2-3.5-2c-1,0.9-2.5,2-3.5,2C6.8,24,7,22.7,7,21s-0.2-3,1.5-3c1,0,2.5,1.2,3.5,2c1-0.9,2.5-2,3.5-2  C17.2,18,17,19.3,17,21z"/>
</svg>
