<svg id="Layer_1" viewBox="0 0 24 24" xmlns="http://www.w3.org/2000/svg" data-name="Layer 1"><path d="m15.002 9.5c0-.749-.551-1.365-1.268-1.477.18-.705.298-1.463.258-2.22 1.797 1.036 3.01 2.973 3.01 5.197 0 3.314-2.686 6-6 6-2.224 0-4.16-1.213-5.197-3.01.841.041 1.681-.096 2.454-.318l1.035 1.035c.912-.912 2.502-.912 3.414 0l1.414-1.414c-.773-.773-1.786-1.207-2.869-1.268.475-.415.9-.883 1.267-1.398.264.23.604.374.981.374.828 0 1.5-.672 1.5-1.5zm8.201 1.367c-1.108-2.55-2.197-5.012-3.358-6.474-2.055-2.713-5.191-4.273-8.529-4.362 1.024.912 1.811 2.08 2.26 3.407 1.529.51 2.9 1.457 3.904 2.797.965 1.178 2.176 3.99 3.161 6.265h-1.557l-.698 5.068c-.033.246-.247.432-.495.432h-3.889v3h-8.004v-1.985c0-1.046-.372-2.068-1.047-2.876-.654-.784-1.148-1.646-1.473-2.552-1.343-.447-2.555-1.24-3.476-2.273.085 2.419.998 4.773 2.646 6.747.226.27.354.609.354.954v4.985h13.995v-3h.894c1.738 0 3.229-1.299 3.468-3.022l.341-2.478h2.298v-2.818c-.267-.599-.531-1.206-.795-1.815zm-23.201-4.867c0-3.314 2.687-6 6-6s6 2.686 6 6-2.686 6-6 6-6-2.686-6-6zm7-1.5c0 .828.672 1.5 1.5 1.5s1.5-.672 1.5-1.5-.672-1.5-1.5-1.5-1.5.672-1.5 1.5zm-2.707 2.793-1.414 1.414c.834.834 1.942 1.293 3.121 1.293s2.287-.459 3.121-1.293l-1.414-1.414c-.912.912-2.502.912-3.414 0zm-2.293-2.793c0 .828.672 1.5 1.5 1.5s1.5-.672 1.5-1.5-.672-1.5-1.5-1.5-1.5.672-1.5 1.5z"/></svg>