<svg id="Layer_1" viewBox="0 0 24 24" xmlns="http://www.w3.org/2000/svg" data-name="Layer 1"><path d="m5 13v1h6v-1c0-1.105-.895-2-2-2h-2c-1.105 0-2 .895-2 2zm19-9.454v3.454c0 3.966-3.639 5.738-4.754 6.187l-.812.327-.783-.392c-1.091-.546-4.651-2.6-4.651-6.122v-3.454c0-1.031.658-1.941 1.637-2.265l3.863-1.281 3.863 1.281c.979.324 1.637 1.234 1.637 2.265zm-3 .954c0-1.103-.897-2-2-2h-1c-1.103 0-2 .897-2 2s.897 2 2 2v4h2v-1h-1v-3c1.103 0 2-.897 2-2zm-2-1h-1c-.551 0-1 .449-1 1s.449 1 1 1h1c.551 0 1-.449 1-1s-.449-1-1-1zm2 11.072v1.428h-18v-12.5c0-.276.225-.5.5-.5h7.542c.145-1.209.774-2.29 1.732-3h-9.274c-1.93 0-3.5 1.57-3.5 3.5v15.5h10.5v2h-4.5v3h12v-3h-4.5v-2h10.5v-6.732c-.974 1.099-2.119 1.842-3 2.305zm-15-6.572c0-1.105.895-2 2-2s2 .895 2 2-.895 2-2 2-2-.895-2-2z"/></svg>