<svg id="Layer_1" viewBox="0 0 24 24" xmlns="http://www.w3.org/2000/svg"><path d="m24 0v4.5c0 1.4-1.1 2.5-2.5 2.5h-2.8c.3 1.1.6 2.4.6 2.5-.1 0-.2 0-.4 0-.9 0-1.8.2-2.6.5l-.9-3.6c-.6-1.4-1.9-2.4-3.5-2.4-1.5 0-2.9.9-3.5 2.4l-2 7.7v.6c0 2.9 2.4 5.3 5.5 5.3h.9c.6 1 1.4 1.9 2.3 2.5-1 .4-2.1.6-3.2.6-2.7 0-5-1.2-6.6-3h-2.4v4h-2.9v-4.5c0-1.4 1.1-2.5 2.5-2.5h1.4c-.2-.7-.3-1.5-.3-2.3 0-.2 0-.5 0-.7h-3.6v-3h4.3l1-4h-2.8c-1.4-.1-2.5-1.2-2.5-2.6v-4.5h3v4h3.4c1.2-1.8 3.3-3 5.6-3 2.3 0 4.3 1.2 5.6 3h3.4v-4zm-3 11.9v3.1c0 1.1-.9 2-2 2s-2-.9-2-2v-3.1c-1.8.8-3 2.5-3 4.6s1.5 4.1 3.5 4.7v2.8h3v-2.8c2-.6 3.5-2.5 3.5-4.7s-1.2-3.8-3-4.6z"/></svg>