<?xml version="1.0" encoding="UTF-8"?>
<svg xmlns="http://www.w3.org/2000/svg" id="Layer_1" data-name="Layer 1" viewBox="0 0 24 24">
  <path d="M23,6h-2c-1.326-.994-2.794-1.783-4.355-2.338l-2.153-.766,.008-1.396-1.5-1-2,1.5h-1l-1.385-2-2.615,1s.231,1.885-.192,2.038c-.024,.009-.049,.013-.075,.013-.495,0-1.232-1.552-1.232-1.552l-1.5,1v3l-2,1.5v2l2,1h3v1c0,.552,.448,1,1,1h1v1c0,.5,.5,1,1,1v2.5l2,2v1s-1.385,.771-1.897,1.5c0,1,2.897,3,2.897,3,0,0,2.5-1.5,3.288-4.599,.366-1.315,.856-2.232,2.212-2.401,.383-.048,2.5-1.383,2.5-4.5v-.5c.5-.5,2.733-1.94,3-2.501v-3.499Zm-3.693,2.731c-.693,.514-1.101,.82-1.428,1.148l-.879,.879v1.743c0,.928-.343,1.429-.549,1.646-1.632,.393-2.607,1.385-3.2,2.363l-1.251-1.251v-4.257h-1v-2h-2v-2h-3v-.96c.284-.024,.563-.085,.833-.183,.655-.238,1.125-.611,1.46-1.053l.135,.195h3.051v.008s2.007,.714,2.007,.714l2.153,.766c1.278,.455,2.476,1.098,3.561,1.912l.275,.206c-.06,.045-.117,.087-.168,.125Z"/>
</svg>
