<?xml version="1.0" encoding="UTF-8"?>
<svg xmlns="http://www.w3.org/2000/svg" id="Layer_1" data-name="Layer 1" viewBox="0 0 24 24">
  <path d="m8.1,11h-2.1v8h1.6v-3h.5c1.381,0,2.5-1.119,2.5-2.5s-1.119-2.5-2.5-2.5Zm0,3.4h-.5v-1.8h.5c.496,0,.9.404.9.9s-.404.9-.9.9Zm8.701-3.4h1.6v8h-1.6v-8Zm-4.557,6.526h2.006l.262,1.474h1.488l-1.397-6.807c-.12-.668-.589-1.192-1.346-1.192s-1.281.587-1.385,1.167l-1.372,6.833h1.469l.275-1.474Zm.992-4.82l.638,3.295h-1.261l.624-3.295Zm8.465-1.706h-2.3v8h2.3c1.269,0,2.3-1.031,2.3-2.3v-3.4c0-1.269-1.031-2.3-2.3-2.3Zm.7,5.7c0,.386-.314.7-.7.7s-.7,0-.7,0v-4.802s.314,0,.7,0,.7.314.7.7v3.4ZM3,21h17v3H0V2.993C0,1.339,1.346-.007,3-.007h11.382l5.618,5.665v3.342h-3v-1.007h-5V2.993H3v18.007Z"/>
</svg>
