<?xml version="1.0" encoding="UTF-8"?>
<svg xmlns="http://www.w3.org/2000/svg" id="Layer_1" data-name="Layer 1" viewBox="0 0 24 24" width="512" height="512"><path d="m22.979,2.271c-.124-.062-3.088-1.529-6.751-2.053-3.666-.523-6.92.054-7.057.08l-1.064.193-.641,4.487c-3.549.552-6.385,1.953-6.507,2.014L-.008,7.476l1.355,9.485c.628,4.389,7.63,6.516,8.426,6.744l.646.185.568-.358c.156-.099,3.832-2.441,5.444-5.366,2.366-1.008,5.733-2.943,6.159-5.925l1.355-9.485-.967-.484Zm-13.034,18.341c-2.071-.715-5.378-2.328-5.628-4.076l-1.041-7.287c.853-.344,2.198-.818,3.742-1.14l-.267,1.867c-.013.094-.007.188-.014.282-.178-.054-.361-.077-.546-.05-.837.121-1.393,1.078-1.45,2.227l2.215-.316c.218.709.567,1.39.999,2.031-1.376.704-2.234,2.222-2.293,3.898,1.393-1.095,2.602-1.717,3.912-1.955,1.089,1.092,2.224,1.938,2.88,2.389-.891.926-1.899,1.696-2.508,2.131Zm9.675-8.797c-.25,1.75-3.564,3.365-5.635,4.079-1.788-1.261-4.516-3.735-4.265-5.494l1.042-7.287c1.131-.112,3.034-.211,5.04.074,2.007.287,3.806.916,4.859,1.34l-1.042,7.287Zm-.785-1.574c-.77,1.857-2.533,3.118-4.447,2.847-1.917-.271-3.253-1.98-3.472-3.979,2.765,1.857,4.745,2.14,7.919,1.132Zm-3.104-3.022c.376-1.087,1.177-1.854,2.015-1.732.837.121,1.393,1.078,1.449,2.227l-3.465-.495Zm-.99-.141l-3.465-.495c.376-1.087,1.177-1.854,2.015-1.732.837.121,1.393,1.078,1.45,2.227Z"/></svg>
