<?xml version="1.0" encoding="UTF-8"?>
<svg xmlns="http://www.w3.org/2000/svg" id="Layer_1" data-name="Layer 1" viewBox="0 0 24 24">
  <path d="M13.964,13.975c-.153-.21-.278-.432-.394-.657-1.01,1.034-1.57,2.392-1.57,3.839v1.593c0,1.241-1.01,2.25-2.25,2.25s-2.25-1.009-2.25-2.25v-4.801c1.968-.249,3.5-1.915,3.5-3.949v-3h1v-3h-2V0h-3V4h-2V0H2V4H0v3H1v3c0,2.034,1.532,3.7,3.5,3.949v4.801c0,2.895,2.355,5.25,5.25,5.25,2.786,0,5.051-2.188,5.218-4.933,.056-.24,.024-1.649,.032-1.91,0-.637,.254-1.258,.693-1.72-.522-.171-1.347-1.082-1.729-1.462Zm-9.964-3.975v-3h4v3c0,.551-.448,1-1,1h-2c-.552,0-1-.449-1-1ZM24,4.996c-.118,1.456-.031,6.732-2.487,9.549-1.561,1.548-3.916,1.871-5.819,.891,.014-.015,4.367-4.376,4.367-4.376l-2.121-2.121s-4.354,4.363-4.369,4.378c-.986-1.905-.666-4.266,.885-5.83,2.782-2.415,8.083-2.365,9.545-2.492Z"/>
</svg>
