<?xml version="1.0" encoding="UTF-8"?>
<svg xmlns="http://www.w3.org/2000/svg" id="Layer_1" data-name="Layer 1" viewBox="0 0 24 24">
  <path d="M5.501,16.501c-.566,0-1.109-.323-1.362-.872-.348-.752-.02-1.643,.732-1.991l13-6.005c.748-.346,1.643-.02,1.99,.733,.348,.752,.02,1.643-.732,1.991l-13,6.005c-.203,.094-.417,.139-.628,.139Zm.628-5.667l13-6.005c.752-.348,1.08-1.239,.732-1.991-.348-.753-1.242-1.081-1.99-.733L4.871,8.111c-.752,.348-1.08,1.239-.732,1.991,.253,.548,.796,.872,1.362,.872,.211,0,.425-.045,.628-.139Zm.035-5.508l5-2.468c.743-.367,1.048-1.266,.681-2.009-.366-.743-1.264-1.047-2.009-.681L4.836,2.635c-.743,.367-1.048,1.266-.681,2.009,.261,.529,.793,.836,1.346,.836,.223,0,.449-.05,.663-.155Zm13.704,8.559c-.34-.756-1.228-1.093-1.983-.753l-4.884,2.147-.004,3.721h-2.001l.002-2.836-3,1.333v6.503h7.994l.006-6.779,3.116-1.352c.756-.34,1.093-1.228,.753-1.983Z"/>
</svg>
