<?xml version="1.0" encoding="UTF-8"?>
<svg xmlns="http://www.w3.org/2000/svg" id="Layer_1" data-name="Layer 1" viewBox="0 0 24 24">
  <path d="M24,13h-4v-2h-5v2h-4v3h1v5c0,1.654,1.346,3,3,3h5c1.654,0,3-1.346,3-3v-5h1v-3Zm-4,8h-5v-5h5v5ZM0,21H10c0,1.657-1.343,3-3,3H3c-1.657,0-3-1.343-3-3Zm0-4H10c0,1.657-1.343,3-3,3H3c-1.657,0-3-1.343-3-3Zm6.5-4c3.067,0,5.638-2.138,6.318-5h8.182v-3H12.818C12.138,2.138,9.567,0,6.5,0,2.916,0,0,2.916,0,6.5s2.916,6.5,6.5,6.5Zm0-10c1.93,0,3.5,1.57,3.5,3.5s-1.57,3.5-3.5,3.5-3.5-1.57-3.5-3.5,1.57-3.5,3.5-3.5Z"/>
</svg>
