<?xml version="1.0" encoding="UTF-8"?>
<svg xmlns="http://www.w3.org/2000/svg" id="Layer_1" data-name="Layer 1" viewBox="0 0 24 24">
  <path d="M23.894,5.415L14.032,15.151c-.565,.565-1.311,.849-2.056,.849-.749,0-1.498-.285-2.068-.855l-4.48-4.343,2.088-2.154,4.458,4.321L21.786,3.28l2.107,2.135ZM3.964,7.942l-2.678-1.352c-.565,1.119-.949,2.313-1.143,3.549l2.965,.463c.145-.926,.433-1.821,.855-2.66Zm-.855,5.46l-2.965,.463c.193,1.237,.578,2.432,1.145,3.55l2.676-1.355c-.423-.836-.711-1.73-.855-2.657Zm.355-9.836l2.135,2.107c.642-.674,1.594-1.337,2.247-1.659l-1.383-2.662c-1.174,.599-2.421,1.628-2.999,2.214Zm.003,16.871c.881,.892,1.891,1.636,2.999,2.213l1.385-2.662c-.832-.433-1.589-.991-2.251-1.66l-2.133,2.109Zm16.569-4.378l2.676,1.355c.566-1.118,.951-2.312,1.145-3.55l-2.965-.463c-.145,.927-.433,1.821-.855,2.657Zm-3.887,3.929l1.385,2.662c1.108-.577,2.118-1.321,2.999-2.213l-2.133-2.109c-.662,.669-1.419,1.228-2.251,1.66Zm-4.149,1.012c-.501,0-1.005-.042-1.498-.124l-.494,2.959c.656,.109,1.326,.165,1.992,.165s1.336-.056,1.992-.165l-.494-2.959c-.493,.082-.997,.124-1.498,.124Zm0-18c.501,0,1.005,.042,1.498,.124l.494-2.959c-.656-.109-1.326-.165-1.992-.165s-1.336,.056-1.992,.165l.494,2.959c.493-.082,.997-.124,1.498-.124Z"/>
</svg>
