<?xml version="1.0" encoding="UTF-8"?>
<svg xmlns="http://www.w3.org/2000/svg" id="Layer_1" data-name="Layer 1" viewBox="0 0 24 24" width="512" height="512"><path d="M5.87,9.334l-.741-1.857c1.187-.474,2.266-1.372,3.039-2.531l1.664,1.109c-1.01,1.515-2.38,2.648-3.962,3.279ZM15.832,4.945l-1.664,1.109c1.01,1.515,2.38,2.648,3.962,3.279l.741-1.857c-1.187-.474-2.266-1.372-3.039-2.531Zm-4.832,6.555c0-1.379-1.121-2.5-2.5-2.5s-2.5,1.121-2.5,2.5,1.121,2.5,2.5,2.5,2.5-1.121,2.5-2.5Zm4.5-2.5c-1.379,0-2.5,1.121-2.5,2.5s1.121,2.5,2.5,2.5,2.5-1.121,2.5-2.5-1.121-2.5-2.5-2.5Zm8.5,3c0,6.617-5.383,12-12,12S0,18.617,0,12,5.383,0,12,0s12,5.383,12,12Zm-3,0c0-4.963-4.038-9-9-9S3,7.037,3,12s4.038,9,9,9,9-4.037,9-9Zm-7.064,4h-3.871c-.685-.691-2.04-1-3.064-1,0,0,1,1.3,1,2s-1,2-1,2c1.024,0,2.38-.309,3.064-1h3.871c.685,.691,2.04,1,3.064,1,0,0-1-1.3-1-2s1-2,1-2c-1.024,0-2.38,.309-3.064,1Z"/></svg>
