<?xml version="1.0" encoding="UTF-8"?>
<svg xmlns="http://www.w3.org/2000/svg" id="Layer_1" data-name="Layer 1" viewBox="0 0 24 24">
  <path d="m24,4.5c0-1.202-.469-2.333-1.317-3.182s-1.98-1.318-3.183-1.318c-1.103,0-2.144.394-2.958,1.108-.771-.636-1.74-1.108-3.042-1.108-2.314,0-4.228,1.757-4.474,4.007-.106-.004-.209-.007-.306-.007-2.444,0-4.46,1.866-4.697,4.249-1.758.612-3.023,2.287-3.023,4.251,0,1.55,1.508,4.096,2.622,5.767L.014,21.875l2.121,2.121,3.61-3.61c1.671,1.113,4.208,2.614,5.755,2.614,1.964,0,3.639-1.266,4.251-3.023,2.383-.237,4.249-2.253,4.249-4.697,0-.097-.003-.199-.007-.306,2.25-.246,4.007-2.159,4.007-4.474,0-1.302-.473-2.271-1.108-3.043.717-.819,1.108-1.857,1.108-2.957Zm-4.181,4.14c.894.736,1.181,1.188,1.181,1.86,0,.827-.673,1.5-1.5,1.5-.518,0-2.867.066-2.867.066,0,0,.367,2.766.367,3.213,0,.949-.771,1.721-1.72,1.721-.118,0-.252-.021-.422-.063l-1.921-.487s.057,2.07.062,2.115c-.034.798-.693,1.436-1.496,1.436-.501-.017-1.998-.778-3.586-1.786l7.651-7.651-2.121-2.121-7.653,7.653c-1.012-1.592-1.776-3.094-1.793-3.596,0-.805.637-1.463,1.433-1.498l2.118.061-.487-1.921c-.043-.17-.063-.304-.063-.422,0-.948.771-1.72,1.721-1.72.447,0,3.213.367,3.213.367,0,0,.066-2.35.066-2.867,0-.827.673-1.5,1.5-1.5.672,0,1.124.287,1.86,1.181l1.043,1.268,2.037-2.009c.564-.566,1.554-.567,2.12,0,.283.282.439.659.439,1.06s-.156.777-.447,1.067l-2.001,2.029,1.268,1.043Z"/>
</svg>
