<?xml version="1.0" encoding="UTF-8"?>
<svg xmlns="http://www.w3.org/2000/svg" id="Layer_1" data-name="Layer 1" viewBox="0 0 24 24">
  <path d="m16.5,0c-4.275,0-7.5,1.935-7.5,4.5v4.875c2.262.695,4.113,2.312,5.136,4.408.737.139,1.529.217,2.364.217,1.719,0,3.262-.317,4.5-.857v1.357c0,.374-1.596,1.5-4.5,1.5-.619,0-1.165-.058-1.662-.143.104.532.162,1.08.162,1.643,0,.474-.049.936-.123,1.389.522.065,1.059.111,1.623.111,1.719,0,3.262-.317,4.5-.857v1.357c0,.374-1.596,1.5-4.5,1.5-.831,0-1.541-.097-2.151-.238-.409.983-1,1.869-1.726,2.624,1.119.39,2.436.614,3.877.614,4.275,0,7.5-1.935,7.5-4.5V4.5c0-2.565-3.225-4.5-7.5-4.5Zm0,3c2.904,0,4.5,1.126,4.5,1.5s-1.596,1.5-4.5,1.5-4.5-1.126-4.5-1.5,1.596-1.5,4.5-1.5Zm0,8c-2.904,0-4.5-1.126-4.5-1.5v-1.357c1.238.541,2.781.857,4.5.857s3.262-.317,4.5-.857v1.357c0,.374-1.596,1.5-4.5,1.5Zm-10,0c-3.59,0-6.5,2.91-6.5,6.5s2.91,6.5,6.5,6.5,6.5-2.91,6.5-6.5-2.91-6.5-6.5-6.5Zm1.5,6v4h-3v-4h-3l3.793-3.707c.391-.39,1.024-.39,1.414,0l3.793,3.707h-3Z"/>
</svg>
