<svg id="Layer_1" viewBox="0 0 24 24" xmlns="http://www.w3.org/2000/svg" data-name="Layer 1"><path d="m14 3-11.998.003c0-1.657 1.346-3.003 3-3.003h11.38l5.617 5.664v5.358c-1.074-.047-2.155.317-3 1.092v-4.115h-4.999zm9.359 10.641c-.852-.852-2.233-.852-3.085 0l-7.274 7.274v3.085h3.085l7.274-7.274c.852-.852.852-2.233 0-3.085zm-18.358 5.36h-3v4.999h8.999v-3h-5.999v-2zm-.695-2.171c-1.294-.676-4.304-2.573-4.304-5.572v-3.02c0-.953.608-1.793 1.513-2.09l3.486-1.145 3.486 1.145c.905.297 1.513 1.137 1.513 2.09v3.02c0 2.997-3.01 4.895-4.304 5.572l-.695.364zm.695-3.063c1.032-.667 2-1.602 2-2.509v-2.441l-2-.657-2 .657v2.441c0 .907.968 1.843 2 2.509zm11.998-3.765h-4.999v3h4.999zm-9.343 7.999h5.43l3-3h-5.261c-.899 1.35-2.149 2.347-3.169 3z"/></svg>