<svg id="Layer_1" viewBox="0 0 24 24" xmlns="http://www.w3.org/2000/svg" data-name="Layer 1"><path d="m15 20v4h-3v-4c0-1.103-.897-2-2-2h-4.978c-1.08-.023-2.03.932-2 2.012l.024 3.979-3 .019-.024-3.978c-.074-2.699 2.301-5.088 5-5.031h4.978c2.757 0 5 2.243 5 5zm3.975-9h-4.975v3h4.975c1.103 0 2 .897 2 2v4h3v-4c0-2.757-2.243-5-5-5zm-5.975-6.5c0-2.481 2.019-4.5 4.5-4.5s4.5 2.019 4.5 4.5-2.019 4.5-4.5 4.5-4.5-2.019-4.5-4.5zm3 0c0 .827.673 1.5 1.5 1.5s1.5-.673 1.5-1.5-.673-1.5-1.5-1.5-1.5.673-1.5 1.5zm-13 4v-6.5l2.25 2.51 2.25-2.51 2.25 2.51 2.25-2.51v6.5c0 2.481-2.019 4.5-4.5 4.5s-4.5-2.019-4.5-4.5zm3-.5v.5c0 .827.673 1.5 1.5 1.5s1.5-.673 1.5-1.5v-.5z"/></svg>