<?xml version="1.0" encoding="UTF-8"?>
<svg xmlns="http://www.w3.org/2000/svg" id="Layer_1" data-name="Layer 1" viewBox="0 0 24 24">
  <path d="M17,8c0-1.105,.895-2,2-2h3c1.105,0,2,.895,2,2v1s-7,0-7,0v-1Zm5.5-5c0-1.105-.895-2-2-2s-2,.895-2,2c0,1.105,.895,2,2,2s2-.895,2-2ZM1.5,1H6.5c.828,0,1.5,.672,1.5,1.5v6.5S0,9,0,9V2.5C0,1.672,.672,1,1.5,1Zm1,4h3V3H2.5v2Zm14.745,7.27l-2.438,2.679c-.647-.589-1.508-.949-2.45-.949H3.5c-1.93,0-3.5,1.57-3.5,3.5v6c0,.171,.027,.335,.051,.5H3v-6.5c0-.276,.224-.5,.5-.5H12.358c.354,0,.642,.288,.642,.642,0,.317-.237,.591-.551,.636l-5.161,.737,.424,2.97,5.161-.737c1.618-.231,2.876-1.53,3.094-3.115l3.497-3.843c.312-.359,.901-.382,1.248-.059,.356,.325,.385,.881,.055,1.252l-7.447,8.518h3.984l5.711-6.532c1.41-1.581,1.283-4.027-.282-5.455-1.517-1.439-4.113-1.316-5.487,.257Zm-4.245-6.52l2.509-2.17c.34-.305,.34-.837,0-1.142L13,.25V2h-3V4h3v1.75Zm-1,5v-1.75h3v-2h-3s0-1.75,0-1.75l-2.509,2.17c-.34,.305-.34,.837,0,1.142l2.509,2.188Z"/>
</svg>
