<svg id="Layer_1" viewBox="0 0 24 24" xmlns="http://www.w3.org/2000/svg" data-name="Layer 1"><path d="m5 15h3v3h-3zm3-5h-3v3h3zm0-5h-3v3h3zm5 0h-3v3h3zm11 9.023v3.477c-.259 4.571-3.739 5.698-5.565 6.5-1.73-.93-5.188-2.388-5.435-6.5v-3.477c0-1.029.657-1.939 1.635-2.265l3.865-1.281 3.863 1.28c.98.326 1.637 1.236 1.637 2.266zm-3 .444-2.5-.829-2.5.829v3.033c0 1.521 1.688 2.698 2.564 3.206.9-.445 2.436-1.462 2.436-3.206zm-11-1.467h1.134c.262-1.09.928-2.032 1.866-2.642v-.358h-3zm1.918 8h-8.918v-17.5c0-.275.224-.5.5-.5h11c.276 0 .5.225.5.5v6.031l3-.995v-5.036c0-1.93-1.57-3.5-3.5-3.5h-11c-1.93 0-3.5 1.57-3.5 3.5v20.5h14.542c-.937-.735-1.927-1.732-2.624-3z"/></svg>