<?xml version="1.0" encoding="UTF-8"?>
<svg xmlns="http://www.w3.org/2000/svg" id="Layer_1" data-name="Layer 1" viewBox="0 0 24 24">
  <path d="m22.286,6.205c-1.399-.672-2.607-1.251-3.062-3.069l-.224-.898V0c-1.369,0-2.524.918-2.883,2.172-3.72.813-5.117,4.352-5.117,6.828h-2.506c-1.354,0-2.646.627-3.472,1.578C1.643,11.713,0,14.468,0,19h3c0-2.199.447-3.51,1.092-4.329.182,1.086.586,1.994.954,2.819.176.396.345.775.475,1.144l-.742,5.366h4.828l.5-4h3.894v4h5v-5.79l.365-1.278c.421-1.475.635-3,.635-4.533v-1.075l4-.5v-1.91c0-1.146-.667-2.207-1.714-2.709Zm-5.286,2.471v3.723c0,1.254-.175,2.502-.52,3.709l-.255.892h-8.121c-.104-.249-.212-.492-.318-.73-.425-.955-.792-1.779-.792-2.772.001-.825.675-1.497,1.5-1.497h.506v1.5c0,1.381,1.119,2.5,2.5,2.5s2.5-1.119,2.5-2.5v-4.5c0-.367.085-3.289,2.739-3.892.74,1.658,1.942,2.575,3.09,3.214l-2.829.354Z"/>
</svg>
