<?xml version="1.0" encoding="UTF-8"?>
<svg xmlns="http://www.w3.org/2000/svg" id="Layer_1" data-name="Layer 1" viewBox="0 0 24 24">
  <path d="m24,7.616l-3.826,2.335,1.438,4.245h0s0,0,0,0l-5.612-1.969v-6.228h-5.047l-1.204-3.557h0,0s3.836,1.392,3.836,1.392l1.392-3.836,2.335,3.826,4.245-1.438h0s0,0,0,0l-1.392,3.836,3.836,1.392h0s0,0,0,0Zm-17.493,3.384c1.381-.004,2.497-1.126,2.493-2.507s-1.126-2.497-2.507-2.493c-1.381.004-2.497,1.126-2.493,2.507.004,1.381,1.126,2.497,2.507,2.493Zm8.182,8.747l1.499-1.747h3.811v-3h-5.189l-3.448,4.016-1.611-3.893,4.248-.91v-6.213h-3v3.788l-5.659,1.212h-2.341v-4H0v7h4.5l2.436,5.847c.553,1.312,1.823,2.132,3.235,2.132.275,0,.555-.031.836-.096l5.214-1.447,4.4,1.403.912-2.857-5.253-1.677-1.591.442Z"/>
</svg>
