<svg id="Layer_1" viewBox="0 0 24 24" xmlns="http://www.w3.org/2000/svg" data-name="Layer 1"><path d="m23.783 18c-.215-.64-.585-1.206-1.076-1.666.488-1.095.781-1.977.95-2.58.167-.59.239-1.145.267-1.331.322-2.116-1.141-4.1-3.262-4.423-1.172-.178-2.308.347-3.14 1.062.396-1.937.477-3.383.477-4.236 0-.665-.043-1.196-.062-1.345-.269-2.17-2.263-3.721-4.432-3.45-1.548.191-2.782 1.361-3.268 2.723-.958-1.672-2.748-2.754-4.726-2.754-1.728-.008-3.318.779-4.372 2.15-1.061 1.381-1.404 3.102-.931 4.755 1.018 3.292 2.934 6.322 5.682 9.051-.841.079-1.339.091-1.936.116-2.171.108-3.674 1.428-3.924 3.445-.268 2.17 1.283 4.153 3.459 4.423.151.018.632.061 1.294.061 1.6 0 4.902-.27 9.463-2.024 1.286.679 2.406 1.192 3.172 1.532.473.211 1.198.492 2.034.492 1.651 0 3.164-.899 3.949-2.347.632-1.164.771-2.495.381-3.654zm-3.013 2.232c-.455.773-1.277.991-2.132.55-.988-.426-2.789-1.299-4.198-2.102-4.965 2.335-9.94 2.32-10.528 2.295-.538-.067-.922-.557-.855-1.094.034-.272.096-.778 1.102-.828 1.834-.084 5.192-.134 10.307-2.237-.856-.707-1.674-1.482-2.452-2.261-.859.31-1.664.549-2.417.742-1.423-1.198-2.643-2.464-3.652-3.791.783-.208 1.649-.535 2.518-1.074l-1.579-2.537c-.987.613-1.975.832-2.666.911-.467-.897-.852-1.814-1.142-2.752-.454-1.435.865-3.123 2.376-3.069 1.128 0 2.151.757 2.438 1.87.837 2.201 2.733 4.892 4.008 6.928.384-1.309 1.256-6.058 1.117-7.606-.064-.535.312-1.007.856-1.074.54-.059 1.029.318 1.095.854.2 1.865-.287 5.247-1.697 9.036 1.177 1.221 2.689 2.495 4.021 3.576l.826-1.735c.893-1.876 1.073-2.982 1.075-2.992.076-.487.525-.806 1.019-.734.491.075.829.534.755 1.02-.182 1.341-1.28 3.679-2.168 5.411l1.462.713c.839.363.918 1.207.51 1.978z"/></svg>