<?xml version="1.0" encoding="UTF-8"?>
<svg xmlns="http://www.w3.org/2000/svg" id="Layer_1" data-name="Layer 1" viewBox="0 0 24 24">
  <path d="m24,12c0-2.5-.5-4-.5-4l-2.673,2.258c-.814-4.131-4.461-7.258-8.827-7.258S3.987,6.126,3.173,10.257l-2.673-2.257S.001,9.5.001,12s.499,4,.499,4l2.673-2.257c.814,4.131,4.461,7.257,8.827,7.257s8.013-3.126,8.827-7.258l2.673,2.258s.5-1.5.5-4Zm-12.128-5.994l-5.866,5.866c.068-3.206,2.659-5.798,5.866-5.866Zm-4.944,9.186L15.192,6.929c.758.479,1.4,1.121,1.879,1.879l-8.264,8.264c-.758-.479-1.4-1.121-1.879-1.879Zm5.199,2.801l5.866-5.866c-.068,3.206-2.659,5.798-5.866,5.866Z"/>
</svg>
