<?xml version="1.0" encoding="UTF-8"?>
<svg xmlns="http://www.w3.org/2000/svg" id="Layer_1" data-name="Layer 1" viewBox="0 0 24 24">
  <path d="m9.436,14h1.564c0,3-.494,4.892-.805,6h-2.086c.139-.45.511-1.721.729-3.127l-1.01-1.114c.685-.62,1.301-1.38,1.307-1.388l.3-.371ZM21,0h-12c-1.654,0-3,1.346-3,3v4c.614,0,1.179-.23,1.63-.616.598-.512,1.476-.512,2.074,0,.451.386,1.016.616,1.63.616s1.179-.23,1.63-.616c.598-.512,1.476-.512,2.074,0,.451.386,1.016.616,1.63.616s1.179-.23,1.63-.616c.598-.512,1.476-.512,2.074,0,.19.163.404.29.63.392v12.224h-1.868c-.258,1.202-.533,2.214-.772,3h5.639V3c0-1.654-1.346-3-3-3Zm-3.089,10.171l.087.754c.002,6.786-2.019,11.916-2.105,12.131l-.377.943H0v-2.194c.506-.962,1.924-5.678,1.997-10.827l.01-.667.645-.564c1.17-1,2.862-1.001,4.028-.002.136.116.359.255.654.255s.518-.139.653-.255c1.167-.999,2.86-.999,4.026,0,.136.116.359.255.654.255s.518-.139.654-.255c1.166-.998,2.859-.999,4.025,0l.565.427Zm-2.937,2.085c-1.461,1.035-3.541.945-4.913-.233-.036-.031-.085-.031-.123,0-1.394,1.195-3.513,1.268-4.978.186-.161,3.531-.792,6.726-1.418,8.791h9.892c.491-1.532,1.377-4.789,1.54-8.744Z"/>
</svg>
