<?xml version="1.0" encoding="UTF-8"?>
<svg xmlns="http://www.w3.org/2000/svg" id="Layer_1" data-name="Layer 1" viewBox="0 0 24 24">
  <path d="M24,17.5v1.5H14.54c-.32-.447-.792-1.464-1.13-3h7.471c-.171-1.071-.526-2.079-1.024-3h-6.826c-.015-.326-.032-.65-.032-1,0-.726,.043-1.381,.104-2h4.207c-1.138-.884-2.482-1.512-3.946-1.807,.275-1.336,.655-2.294,.967-2.857,5.53,1.288,9.667,6.247,9.667,12.164Zm-10,3.5h4.099c-.991,1.824-2.362,3-4.099,3-1.682,0-3.018-1.107-4.001-2.832-.983,1.725-2.317,2.832-3.999,2.832-3.939,0-6-6.037-6-12S2.061,0,6,0c1.681,0,3.016,1.108,3.999,2.832,.983-1.726,2.319-2.832,4.001-2.832,2.334,0,4.003,2.126,4.98,5.093-1.312-.794-2.758-1.38-4.297-1.726-.247-.24-.481-.367-.683-.367-1.058,0-3,3.417-3,9s1.942,9,3,9Zm-4.099,0c-.326-.601-.607-1.277-.85-2h-2.511c-.32-.447-.792-1.464-1.13-3h2.912c-.159-.973-.261-1.981-.301-3h-2.99c-.015-.326-.032-.65-.032-1,0-.726,.043-1.381,.104-2h2.978c.053-.679,.134-1.347,.241-2h-2.912c.338-1.536,.81-2.553,1.13-3h2.511c.243-.723,.524-1.399,.85-2h-3.901c-1.058,0-3,3.417-3,9s1.942,9,3,9h3.901Z"/>
</svg>
