<?xml version="1.0" encoding="UTF-8"?>
<svg xmlns="http://www.w3.org/2000/svg" id="Layer_1" data-name="Layer 1" viewBox="0 0 24 24">
  <path d="m1.5,18c0-1.105.895-2,2-2s2,.895,2,2-.895,2-2,2-2-.895-2-2Zm10.5,2c1.105,0,2-.895,2-2s-.895-2-2-2-2,.895-2,2,.895,2,2,2Zm0-16c1.105,0,2-.895,2-2s-.895-2-2-2-2,.895-2,2,.895,2,2,2Zm8.5,12c-1.105,0-2,.895-2,2s.895,2,2,2,2-.895,2-2-.895-2-2-2Zm-7-7h-3v6h3v-6Zm-4.5,0h-3v.764c0,.19-.106.362-.276.447l-1.79.895c-1.193.597-1.934,1.796-1.934,3.13v.764h3v-.764c0-.19.106-.362.276-.447l1.79-.895c1.193-.597,1.934-1.796,1.934-3.13v-.764Zm10,5.236v.764h3v-.764c0-1.334-.741-2.534-1.935-3.13l-1.789-.895c-.171-.085-.276-.256-.276-.447v-.764h-3v.764c0,1.334.741,2.534,1.935,3.13l1.789.895c.171.085.276.256.276.447Zm-5.5,6.764h-3c-1.105,0-2,.895-2,2v1h7v-1c0-1.105-.895-2-2-2Zm8.5,0h-3c-1.105,0-2,.895-2,2v1h7v-1c0-1.105-.895-2-2-2Zm-17,0h-3c-1.105,0-2,.895-2,2v1h7v-1c0-1.105-.895-2-2-2ZM15.5,7c0-1.105-.895-2-2-2h-3c-1.105,0-2,.895-2,2v1h7v-1Z"/>
</svg>
