<?xml version="1.0" encoding="UTF-8"?>
<svg xmlns="http://www.w3.org/2000/svg" id="Layer_1" data-name="Layer 1" viewBox="0 0 24 24">
  <path d="m20.5,0H3.5C1.57,0,0,1.57,0,3.5v18.5h14v-3H3V7h18v1h3V3.5c0-1.93-1.57-3.5-3.5-3.5ZM4.5,5c-.828,0-1.5-.672-1.5-1.5s.672-1.5,1.5-1.5,1.5.672,1.5,1.5-.672,1.5-1.5,1.5Zm5,0c-.828,0-1.5-.672-1.5-1.5s.672-1.5,1.5-1.5,1.5.672,1.5,1.5-.672,1.5-1.5,1.5Zm14.5,9.5v.5h-3v-.5c0-.276-.224-.5-.5-.5h-1c-.276,0-.5.224-.5.5,0,.294.177.555.45.665l2.215.886c1.419.567,2.335,1.922,2.335,3.45,0,1.58-1.059,2.903-2.5,3.337v1.163h-3v-1.163c-1.441-.434-2.5-1.757-2.5-3.337v-.5h3v.5c0,.276.224.5.5.5h1c.276,0,.5-.224.5-.5,0-.294-.177-.555-.45-.665l-2.215-.886c-1.419-.567-2.335-1.922-2.335-3.45,0-1.58,1.059-2.903,2.5-3.337v-1.163h3v1.163c1.441.434,2.5,1.757,2.5,3.337ZM6.757,9c-.757,0-1.281.587-1.385,1.167l-1.372,6.833h1.469l.275-1.474h2.006l.262,1.474h1.488l-1.397-6.807c-.12-.668-.589-1.192-1.346-1.192Zm-.645,5l.624-3.295.638,3.295h-1.261Zm6.188-5h-2.3v8h2.3c1.269,0,2.3-1.031,2.3-2.3v-3.4c0-1.269-1.031-2.3-2.3-2.3Zm.7,5.7c0,.386-.314.7-.7.7s-.7,0-.7,0v-4.802s.314,0,.7,0,.7.314.7.7v3.4Z"/>
</svg>
