<?xml version="1.0" encoding="UTF-8"?>
<svg xmlns="http://www.w3.org/2000/svg" id="Layer_1" data-name="Layer 1" viewBox="0 0 24 24">
  <path d="m12,8h2v-3h-2.692l-.269-1h.46c1.378,0,2.5-1.122,2.5-2.5V0h-3v1h-1.407c-.7-.628-1.619-1-2.593-1s-1.894.372-2.593,1h-1.407V0H0v1.5c0,1.378,1.122,2.5,2.5,2.5h.46l-.274,1H0v3h2c0,.353.037.698.107,1.031-1.192.189-2.107,1.224-2.107,2.469v1.5h3v-1h1v-.003c.836.629,1.875,1.003,3,1.003,2.757,0,5-2.243,5-5Zm-7,0c0-.036,1.193-4.471,1.193-4.471.141-.318.458-.529.807-.529s.667.21.807.529c0,0,1.193,4.435,1.193,4.471,0,1.103-.897,2-2,2s-2-.897-2-2Zm16.5,7c1.379,0,2.5-1.122,2.5-2.5v-1.5h-3v1h-1.406c-.7-.628-1.619-1-2.594-1-1.611,0-3.073,1.016-3.638,2.528l-.676,2.472h-2.686v3h2c0,.353.037.698.107,1.031-1.192.189-2.107,1.224-2.107,2.469v1.5h3v-1h1v-.003c.836.629,1.875,1.003,3,1.003s2.164-.373,3-1.003v.003h1v1h3v-1.5c0-1.245-.914-2.28-2.107-2.469.07-.333.107-.678.107-1.031h2v-3h-2.691l-.269-1h.46Zm-4.5,6c-1.103,0-2-.897-2-2,0-.036,1.192-4.471,1.192-4.471.141-.318.459-.529.808-.529s.667.211.808.529c0,0,1.192,4.435,1.192,4.471,0,1.103-.897,2-2,2Z"/>
</svg>
