<?xml version="1.0" encoding="UTF-8"?>
<svg xmlns="http://www.w3.org/2000/svg" id="Layer_1" data-name="Layer 1" viewBox="0 0 24 24">
  <path d="M20.5,2H3.5C1.57,2,0,3.57,0,5.5V22H24V5.5c0-1.93-1.57-3.5-3.5-3.5Zm.5,17H3V5.5c0-.276,.224-.5,.5-.5H20.5c.276,0,.5,.224,.5,.5v13.5ZM3.5,12l8.5,6.5,8.5-6.5L12,5.5,3.5,12Zm8.5,3.5c-1.933,0-3.5-1.567-3.5-3.5,0-.171,.027-.334,.05-.498,.448,.016,3.713,.225,6.188,2.655-.641,.812-1.623,1.344-2.738,1.344Zm3.5-3.5c0,.048-.012,.093-.014,.141-2.201-1.83-4.669-2.392-6.004-2.563,.637-.662,1.527-1.078,2.518-1.078,1.933,0,3.5,1.567,3.5,3.5Z"/>
</svg>
