<?xml version="1.0" encoding="UTF-8"?>
<svg xmlns="http://www.w3.org/2000/svg" id="Layer_1" data-name="Layer 1" viewBox="0 0 24 24">
  <path d="m24,2v3h-3.354l-3.477-1.738c-.91-.455-2.068-.286-2.807.412l-2.318,1.96,7.068,5.397c-.202-.016-.405-.031-.611-.031-1.2,0-2.331.289-3.337.791l-3.11-2.375-2.068,1.768c-.552.527-1.522.808-2.28.808-.866-.07-1.655-.517-2.166-1.227-.834-1.159-.674-2.82.371-3.865l3.736-3.252c-.769-.701-1.968-.808-2.816-.384l-3.476,1.738H0v-3h2.646l2.843-1.422c.758-.378,1.605-.578,2.451-.578,1.406,0,2.716.507,3.727,1.429l.341.31.358-.303C13.902-.018,16.496-.428,18.51.578l2.844,1.422h2.646Zm-15.111,14.966s-.002,0-.002-.001l-5.395-3.964H0v3h2.508l4.601,3.382s.001.001.002.002l4.889,3.593.318-.234c-.827-1.202-1.313-2.656-1.317-4.224l-2.112-1.553Zm-1.184-4.976c-.08,0,.08.007,0,0h0Zm16.295,6.51c0,3.038-2.462,5.5-5.5,5.5s-5.5-2.462-5.5-5.5,2.462-5.5,5.5-5.5,5.5,2.462,5.5,5.5Zm-1.641-.756l-1.398-1.43-3.114,3.203-1.666-1.751-1.387,1.441,1.632,1.718c.766.765,2.079.763,2.823.019l.004-.004,3.107-3.196Z"/>
</svg>
