<?xml version="1.0" encoding="UTF-8"?>
<svg xmlns="http://www.w3.org/2000/svg" id="Layer_1" data-name="Layer 1" viewBox="0 0 24 24">
  <path d="M1,6.911V1L3.521,3.521C5.743,1.288,8.754,0,12,0c5.579,0,10.26,3.834,11.596,9h-3.122c-1.24-3.49-4.565-6-8.474-6-2.434,0-4.693,.966-6.359,2.641l2.359,2.359H2.091c-.602,0-1.09-.487-1.091-1.089Zm9,4.089h-3v3h3c.552,0,1,.449,1,1s-.448,1-1,1h-2v3h2c.552,0,1,.449,1,1s-.448,1-1,1h-3v3h3c2.206,0,4-1.794,4-4,0-.951-.347-1.813-.903-2.5,.556-.687,.903-1.549,.903-2.5,0-2.206-1.794-4-4-4Zm14,4v5c0,2.206-1.794,4-4,4s-4-1.794-4-4v-5c0-2.206,1.794-4,4-4s4,1.794,4,4Zm-3,0c0-.551-.448-1-1-1s-1,.449-1,1v5c0,.551,.448,1,1,1s1-.449,1-1v-5ZM0,12c0,4.002,1.978,7.538,5,9.715v-4.081c-1.248-1.542-2-3.5-2-5.634H0Z"/>
</svg>
