<svg id="Layer_1" viewBox="0 0 24 24" xmlns="http://www.w3.org/2000/svg" data-name="Layer 1"><path d="m8.957 6.457-1.043 1.043 1.043 1.043-1.414 1.414-1.043-1.043-1.043 1.043-1.414-1.414 1.043-1.043-1.043-1.043 1.414-1.414 1.043 1.043 1.043-1.043zm2 3.5 3.5-3.5-1.414-1.414-1.043 1.043-1.043-1.043-1.414 1.414 1.043 1.043-1.043 1.043zm13.043 2.605v3.262c0 2.384-1.707 5.697-6.066 7.128-3.519-1.604-5.977-4.221-5.934-7.095v-3.295c0-1.078.688-2.031 1.712-2.371l4.288-1.421 4.287 1.421c1.024.34 1.713 1.293 1.713 2.371zm-3 .363-3-.994-3 .994v2.899c.031 1.394 1.035 2.652 3.063 3.809 1.967-.952 2.903-2.184 2.937-3.839zm-.5-11.925h-17c-1.93 0-3.5 1.57-3.5 3.5v9.5h10v-3h-7v-6.5c0-.275.225-.5.5-.5h17c.275 0 .5.225.5.5v3.158l1.916.635c.393.131.752.32 1.084.543v-4.336c0-1.93-1.57-3.5-3.5-3.5z"/></svg>