<?xml version="1.0" encoding="UTF-8"?>
<svg xmlns="http://www.w3.org/2000/svg" id="Layer_1" data-name="Layer 1" viewBox="0 0 24 24">
  <path d="m12,5c1.47,0,2.851.572,3.889,1.611l-2.121,2.121c-.945-.944-2.59-.944-3.535,0l-2.121-2.121c1.038-1.039,2.419-1.611,3.889-1.611Zm4.597-.096l2.121-2.121C15.013-.921,8.987-.921,5.282,2.783l2.121,2.121c2.535-2.534,6.658-2.534,9.193,0Zm7.403,8.596v10.5H0v-10.5c0-1.93,1.57-3.5,3.5-3.5h17c1.93,0,3.5,1.57,3.5,3.5Zm-18,5.5h-1v-6h-2v8h3v-2Zm3-6h-2v8h2v-8Zm7,0h-2v.36l-1,3.5-1-3.5v-.36h-2v.5l2.115,7.5h1.783l2.065-7.225.038-.775Zm5,0h-4v8h4v-2h-2v-1h2v-2h-2v-1h2v-2Z"/>
</svg>
