<svg id="Layer_1" viewBox="0 0 24 24" xmlns="http://www.w3.org/2000/svg" data-name="Layer 1"><path d="m20.5 0h-17c-1.93 0-3.5 1.57-3.5 3.5v20.5h12.026c-.635-.838-1.026-1.87-1.026-3h-1v-4h1v-3h-1v-4h3.032c.896-1.395 2.311-2.421 3.968-2.816v-4.184h3.5c.276 0 .5.224.5.5v4.005c1.242.522 2.289 1.417 3 2.547v-6.552c0-1.93-1.57-3.5-3.5-3.5zm-17 3h3.5v4h-4v-3.5c0-.276.224-.5.5-.5zm3.5 18h-4v-4h4zm0-7h-4v-4h4zm7-7h-4v-4h4zm9 6.5c0-2.481-2.019-4.5-4.5-4.5s-4.5 2.019-4.5 4.5v1.5h-1v6c0 1.654 1.346 3 3 3h5c1.654 0 3-1.346 3-3v-6h-1zm-6 0c0-.827.673-1.5 1.5-1.5s1.5.673 1.5 1.5v1.5h-3zm3 7.5h-3v-3h3z"/></svg>