<?xml version="1.0" encoding="UTF-8"?>
<svg xmlns="http://www.w3.org/2000/svg" id="Layer_1" data-name="Layer 1" viewBox="0 0 24 24" width="512" height="512"><path d="M23.41,22h.59V5.5c0-1.93-1.57-3.5-3.5-3.5H3.41L1.41,0,0,1.41,6.37,7.78c-.2,.24-.35,.53-.43,.86l-1.94,8.36h2.05l.23-1h3.43l.23,1h2.05l-1.92-8.29c-.15-.66-.58-1.27-1.2-1.53-.13-.06-.27-.09-.4-.12l-2.06-2.06h14.09c.28,0,.5,.22,.5,.5v13.5h-.59l-2.51-2.51c1.24-.68,2.09-1.98,2.09-3.49v-2c0-2.21-1.79-4-4-4h-3v10h2.59l7.01,7.01,1.41-1.41-.59-.59ZM9.25,14h-2.5l1.14-4.91c.01-.05,.06-.09,.11-.09s.1,.04,.11,.09l1.14,4.91Zm5.75-5h1c1.1,0,2,.9,2,2v2c0,1.1-.9,2-2,2h-1v-6Zm-.24,10l3,3H0V5c0-.23,.04-.45,.09-.67l2.91,2.91v11.76H14.76Z"/></svg>
