<?xml version="1.0" encoding="UTF-8"?>
<svg xmlns="http://www.w3.org/2000/svg" id="Layer_1" data-name="Layer 1" viewBox="0 0 24 24" width="512" height="512"><path d="m12,0C5.383,0,0,5.383,0,12s5.383,12,12,12,12-5.383,12-12S18.617,0,12,0Zm0,21c-4.963,0-9-4.038-9-9S7.037,3,12,3s9,4.038,9,9-4.037,9-9,9Zm-2.342-10.274v2.522c0,1.115.938,1.989,2.134,1.989h.408c.829,0,1.575-.424,1.947-1.107l2.635,1.436c-.898,1.648-2.653,2.671-4.582,2.671h-.408c-2.831,0-5.134-2.238-5.134-4.989v-2.522c0-2.751,2.303-4.989,5.134-4.989h.408c1.965,0,3.735,1.051,4.619,2.743l-2.658,1.39c-.36-.688-1.13-1.133-1.961-1.133h-.408c-1.196,0-2.134.874-2.134,1.989Z"/></svg>
