<?xml version="1.0" encoding="UTF-8"?>
<svg xmlns="http://www.w3.org/2000/svg" id="Layer_1" data-name="Layer 1" viewBox="0 0 24 24">
  <path d="m16,2c0-1.105.895-2,2-2s2,.895,2,2c0-1.105.895-2,2-2s2,.895,2,2c0,2.333-4,5-4,5,0,0-4-2.667-4-5Zm8.005,9.073v9.117l-.523.449c-.16.137-4.008,3.361-11.477,3.361C4.312,24,.166,18.203.005,17.973c-.037-3.12-.104-9.495,5.35-15.941.148-.185,1.711-2.031,4.146-2.031,2.691,0,4.5,2.068,4.5,4v1.081l-1.5.5v1.434l-2.624,1.052c-.006.43.018.991.037,1.449.047,1.106.101,2.421-.028,3.779.625-.178,1.327-.295,2.114-.295.713,0,1.383.133,2.001.327.704-.938,2.766-3.327,5.504-3.327,2.24,0,3.451.548,3.671.658l.829.415Zm-3,2.051c-.375-.067-.876-.124-1.5-.124-1.036,0-2.133.991-2.783,1.736.496.37.809.668.843.702l-2.114,2.129c-.016-.016-1.621-1.567-3.45-1.567-2.166,0-3.266,1.357-3.312,1.415l-1.237-.94-1.285-.661c.936-1.818.833-4.231.75-6.17-.055-1.299-.099-2.324.166-3.118l.22-.66,2.198-.881v-1.985c-1.028,0-1.834.944-1.842.954C2.913,9.561,2.967,14.1,3.001,16.976c.872,1.028,3.855,4.024,9.004,4.024,4.831,0,7.848-1.547,9-2.275v-5.601Z"/>
</svg>
