<?xml version="1.0" encoding="UTF-8"?>
<svg xmlns="http://www.w3.org/2000/svg" id="Layer_1" data-name="Layer 1" viewBox="0 0 24 24">
  <path d="M4.418,5.907l-1.918-3.866L4.541,0l1.21,2.501,1.45-1.45c.343-.343,.928-.166,1.024,.309l.775,5.329-.446,.446-1.694-2.541-1.459,1.459c-.294,.294-.787,.221-.983-.146Zm12.682-1.401l1.432,1.432c.288,.288,.772,.216,.965-.143l1.882-3.793-2.002-2.002-1.187,2.454-1.422-1.422c-.336-.336-.911-.163-1.005,.303l-.76,5.228,.438,.438,1.662-2.493Zm5.901,11.243c0,2.895-2.355,5.25-5.25,5.25h-5.75v3h-3v-1.79c-.812,.506-1.759,.79-2.75,.79-2.895,0-5.25-2.355-5.25-5.25,0-1.715,.832-3.289,2.214-4.266,.575-2.187,2.358-3.878,4.57-4.339,.981-1.34,2.533-2.146,4.215-2.146,1.406,0,2.718,.554,3.695,1.54,1.645,.189,3.123,1.05,4.116,2.398,1.929,.818,3.189,2.688,3.189,4.812Zm-3,0c.027-1.236-.994-2.087-2.148-2.304-.648-1.442-2.098-2.134-3.621-1.944-.506-.778-1.239-1.547-2.231-1.502-1.183-.049-1.954,.966-2.372,1.969-2.066-.162-3.725,1.346-3.687,3.43-1.003,.404-1.987,1.181-1.942,2.352,0,1.24,1.009,2.25,2.25,2.25,.822,0,2.247-.641,2.247-2.256,0-.383-.095-.768-.295-1.117l2.599-1.498c.515,.894,.724,1.891,.677,2.871h6.274c1.241,0,2.25-1.01,2.25-2.25Z"/>
</svg>
