<?xml version="1.0" encoding="UTF-8"?>
<svg xmlns="http://www.w3.org/2000/svg" id="Layer_1" data-name="Layer 1" viewBox="0 0 24 24">
  <path d="m22.766,18.149l-4.812-4.789,3.738-3.738-.112-.748c-.376-2.504-1.376-4.493-3.519-6.934-.198-.199-2.055-1.939-6.061-1.939-3.955,0-6.302,1.727-6.4,1.8l-.229.212c-2.144,2.448-2.605,4.556-2.951,6.862l-.112.748,3.734,3.734-4.807,4.795,6.044,5.883,4.72-4.72,4.72,4.72,6.045-5.885Zm-6.938-6.905l-1.716-1.708,3.387-3.372c.475.799.784,1.575.978,2.43l-2.65,2.65Zm-3.827-8.244c1.912,0,3.059.504,3.596.825l-2.255,2.245c-.878-.092-1.807-.092-2.711,0l-2.352-2.341c.773-.338,2.035-.73,3.722-.73Zm-5.723,2.972l11.133,11.08-1.738,1.692L5.507,8.578c.179-1.012.398-1.83.77-2.606Zm2.001,12.821l-1.74-1.695,1.625-1.621,1.715,1.715-1.6,1.6Z"/>
</svg>
