<?xml version="1.0" encoding="UTF-8"?>
<svg xmlns="http://www.w3.org/2000/svg" id="Layer_1" data-name="Layer 1" viewBox="0 0 24 24">
  <path d="m23.985,21.864l-5.079-5.079c1.314-1.753,2.094-3.93,2.094-6.285C21,4.71,16.29,0,10.5,0S0,4.71,0,10.5s4.71,10.5,10.5,10.5c2.355,0,4.531-.78,6.285-2.094l5.079,5.079,2.121-2.121ZM3,10.5c0-4.136,3.364-7.5,7.5-7.5s7.5,3.364,7.5,7.5-3.364,7.5-7.5,7.5-7.5-3.364-7.5-7.5Zm13-.25c0-1.423-1.234-2.489-2.619-2.631-.734-1.488-2.109-2.619-3.881-2.619-2.485,0-4.5,2.015-4.5,4.5v.5c0,3.314,2.686,6,6,6,1.795,0,3.429-1.348,3.429-3.143,0-.017-.002-.034-.003-.051.891-.455,1.574-1.487,1.574-2.556Zm-7,1.75c-1.105,0-2-.895-2-2s.895-2,2-2,2,.895,2,2-.895,2-2,2Z"/>
</svg>
