<?xml version="1.0" encoding="UTF-8"?>
<svg xmlns="http://www.w3.org/2000/svg" id="Layer_1" data-name="Layer 1" viewBox="0 0 24 24">
  <path d="m14.773,2.716C18.91-.625,24.006.115,24.006.115c0,0-.696,5.418-4.833,8.759-1.495,1.207-3.036,1.879-4.4,2.251.612-2.125,3.089-5.89,5.228-8.241-3.62,2.004-6.464,5.629-7.588,8.647-.322.821-.555,1.649-.756,2.469h-2.061c.237-1.041.536-2.13.97-3.227.194-1.587.986-5.454,4.208-8.057Zm5.227,13.284h4v4c0,2.206-1.794,4-4,4h-11c-2.206,0-4-1.794-4-4v-12H0v-4C0,1.794,1.794,0,4,0h11.214c-.573.331-1.143.711-1.698,1.16h0c-.708.572-1.305,1.196-1.827,1.84h-3.831c.084.322.142.653.142,1v16c0,.551.448,1,1,1s1-.449,1-1v-4h7v-3.54c.981-.408,1.995-.97,3-1.72v5.26ZM5,4c0-.551-.448-1-1-1s-1,.449-1,1v1h2v-1Zm8,15v1c0,.345-.044.68-.127,1h7.127c.552,0,1-.449,1-1v-1h-8Z"/>
</svg>
