<svg id="Layer_1" viewBox="0 0 24 24" xmlns="http://www.w3.org/2000/svg" data-name="Layer 1"><path d="m10 5h-4v-2.698c0-.581.323-1.103.843-1.362l1.641-.821c.327-.164.708-.146 1.019.046.311.193.497.526.497.891zm14 13.2c0 3.198-2.603 5.8-5.802 5.8h-12.396c-3.199 0-5.802-2.602-5.802-5.8 0-.624.1-1.241.297-1.833l2.122-6.362h2.581v-2.999h6v2.999h3.382l-.236-2.999h3.696l-.23 2.999h1.266l2.958-2.957 2.121 2.12-1.992 1.991 1.736 5.207c.198.594.298 1.211.298 1.834zm-3 0c0-.302-.048-.599-.144-.886l-1.437-4.314h-14.838l-1.438 4.315c-.095.286-.144.584-.144.885 0 1.544 1.257 2.801 2.802 2.801h12.396c1.545 0 2.802-1.256 2.802-2.801zm-3.004-13.2 1.004-3.472c-.619-.776-1.94-1.616-3-1.521-1.058-.096-2.385.753-3 1.526l.989 3.466h4.007z"/></svg>