<?xml version="1.0" encoding="UTF-8"?>
<svg xmlns="http://www.w3.org/2000/svg" id="Layer_1" data-name="Layer 1" viewBox="0 0 24 24">
  <path d="m22.389,9.268l-2.772-2.773,4.344-4.343L21.839.031l-4.344,4.343-2.763-2.763c-1.039-1.039-2.42-1.611-3.89-1.611h-1.843v3h1.843c.668,0,1.296.26,1.769.732l.392.392-5.749,5.75c-2.501,2.5-4.576,5.371-6.168,8.532l-.898,1.785-.125.351c-.21.952.076,1.932.766,2.621.54.541,1.26.833,2.004.833.204,0,.411-.022.617-.067l2.137-1.023c3.159-1.591,6.029-3.666,8.531-6.167l5.749-5.749.402.402c.466.466.732,1.11.732,1.768v1.843h3v-1.843c0-1.469-.572-2.85-1.611-3.889Zm-10.393,5.348c-2.275,2.275-4.887,4.162-7.76,5.609l-.948.477.478-.947c1.447-2.875,3.335-5.485,5.609-7.76l5.749-5.75,2.621,2.621-5.749,5.749Z"/>
</svg>
