<?xml version="1.0" encoding="UTF-8"?>
<svg xmlns="http://www.w3.org/2000/svg" id="Layer_1" data-name="Layer 1" viewBox="0 0 24 24">
  <path d="m18,12.347l3-3.048v11.201c0,.104-.01.205-.031.303-.156,1.786-1.643,3.197-3.469,3.197H3.5c-1.93,0-3.5-1.57-3.5-3.5V6.5c0-1.826,1.411-3.313,3.197-3.469.098-.02.199-.031.303-.031h11.626l-2.7,3H3.5c-.276,0-.5.225-.5.5v14c0,.275.224.5.5.5h14c.276,0,.5-.225.5-.5v-8.153Zm-10.666,2.918h5c1.657,0,3-1.343,3-3s-1.343-3-3-3c-4,0-5,6-5,6ZM23.295.707c-.941-.942-2.467-.943-3.409-.002-.032.032-6.118,6.795-6.118,6.795,1.491.45,2.686,1.564,3.232,3.011l6.292-6.391c.943-.942.945-2.47.003-3.413Z"/>
</svg>
