<svg id="Layer_1" viewBox="0 0 24 24" xmlns="http://www.w3.org/2000/svg" data-name="Layer 1"><path d="m3 20c0-.551.449-1 1-1h6.005c0-.018-.005-.036-.005-.054v-.65l.747-2.295h-1.746v-13.001h10v8h3v-8.5c0-1.378-1.122-2.5-2.5-2.5h-15.501c-2.206 0-4 1.794-4 4v15.999s0 0 0 0c0 2.207 1.794 4.001 4 4.001h7v-3h-7c-.551 0-1-.449-1-1zm1-17h2v13h-2c-.347 0-.678.058-1 .142v-12.142c0-.551.449-1 1-1zm20 15.663v.336c0 1.104-.895 2-2 2s-2-.896-2-2v-.336l.842-2.664h-1.842v6h3v2h-8v-2h3v-6h-1.821l.93 2.599v.575h-.013c-.114 1.027-.984 1.826-2.042 1.826-1.135 0-2.054-.92-2.054-2.054v-.333l1.5-4.612h3.5v-1h2v1h3.5l1.5 4.664z"/></svg>