<?xml version="1.0" encoding="UTF-8"?>
<svg xmlns="http://www.w3.org/2000/svg" id="Layer_1" data-name="Layer 1" viewBox="0 0 24 24">
  <path d="m14,2h2v3h-2v5.5h2v3h-2v5.5h2v3h-2c-1.654,0-3-1.346-3-3V5c0-1.654,1.346-3,3-3Zm-9.5,3c1.381,0,2.5-1.119,2.5-2.5S5.881,0,4.5,0s-2.5,1.119-2.5,2.5,1.119,2.5,2.5,2.5Zm4.5,4v9h-2v6H2v-6H0v-9c0-1.654,1.346-3,3-3h3c1.654,0,3,1.346,3,3Zm-6,6h3v-6h-3v6ZM21.387,5.147c-.459.474-1.22.471-1.674-.007l-1.651-1.766,1.387-1.441,1.11,1.195,2.647-2.714c-.336-.256-.751-.414-1.205-.414h-3c-1.105,0-2,.895-2,2v3c0,1.105.895,2,2,2h3c1.105,0,2-.895,2-2v-2.551l-2.613,2.698Zm-1.674,8.493l-1.651-1.766,1.387-1.441,1.11,1.195,2.647-2.714c-.336-.256-.751-.414-1.205-.414h-3c-1.105,0-2,.895-2,2v3c0,1.105.895,2,2,2h3c1.105,0,2-.895,2-2v-2.551l-2.613,2.698c-.459.474-1.22.471-1.674-.007Zm0,8.5l-1.651-1.766,1.387-1.441,1.11,1.195,2.647-2.714c-.336-.256-.751-.414-1.205-.414h-3c-1.105,0-2,.895-2,2v3c0,1.105.895,2,2,2h3c1.105,0,2-.895,2-2v-2.551l-2.613,2.698c-.459.474-1.22.471-1.674-.007Z"/>
</svg>
