<?xml version="1.0" encoding="UTF-8"?>
<svg xmlns="http://www.w3.org/2000/svg" id="Layer_1" data-name="Layer 1" viewBox="0 0 24 24">
  <path d="m16,1.5v5.5h-3s0-5.5,0-5.5c0-.828.672-1.5,1.5-1.5.829,0,1.5.671,1.5,1.5Zm7.157,6.564c-.808-.582-1.943-.411-2.647.294l-.51.51V3c0-.829-.671-1.5-1.5-1.5s-1.5.671-1.5,1.5v13.684c.874-.331,1.679-.838,2.352-1.512l4.062-4.062c.859-.859.773-2.305-.257-3.047Zm-8.157,2.436c0-.828-.672-1.5-1.5-1.5-.829,0-1.5.671-1.5,1.5v.5s0,0,0,0v7.5c0,1.379-1.122,2.5-2.5,2.5s-2.5-1.121-2.5-2.5v-9c0-.828-.672-1.5-1.5-1.5-.829,0-1.5.671-1.5,1.5v6.247l-.51-.51c-.704-.704-1.839-.876-2.647-.294-1.03.742-1.116,2.188-.257,3.047l4.062,4.062c1.247,1.248,3.088,1.948,4.852,1.948,3.033,0,5.5-2.468,5.5-5.5v-7.5h0v-.5Zm-4-2c0-.828-.672-1.5-1.5-1.5-.829,0-1.5.671-1.5,1.5v5.5h3s0-5.5,0-5.5Zm-1.5-3.5c.935,0,1.814.364,2.475,1.025.009.009.016.021.025.03v-2.435c0-.829-.671-1.5-1.5-1.5-.828,0-1.5.672-1.5,1.5v1.43c.165-.024.329-.051.5-.051Z"/>
</svg>
