<?xml version="1.0" encoding="UTF-8"?>
<svg xmlns="http://www.w3.org/2000/svg" id="Layer_1" data-name="Layer 1" viewBox="0 0 24 24">
  <path d="M20.5,0H3.5C1.57,0,0,1.57,0,3.5V20H6.74l3.6,3.031c.928,.827,2.355,.854,3.28,.035l3.708-3.066h6.672V3.5c0-1.93-1.57-3.5-3.5-3.5Zm.5,17h-4.752l-4.244,3.511-4.168-3.511H3V3.5c0-.276,.225-.5,.5-.5H20.5c.275,0,.5,.224,.5,.5v13.5Zm-4-8h2v2h-2v2h-2v-2h-2v-2h2v-2h2v2Zm-5,4v2H5v-2c0-1.105,.895-2,2-2h3c1.105,0,2,.895,2,2ZM6,7.5c0-1.381,1.119-2.5,2.5-2.5s2.5,1.119,2.5,2.5-1.119,2.5-2.5,2.5-2.5-1.119-2.5-2.5Z"/>
</svg>
