<?xml version="1.0" encoding="UTF-8"?>
<svg xmlns="http://www.w3.org/2000/svg" id="Layer_1" data-name="Layer 1" viewBox="0 0 24 24">
  <path d="m19.396,6.775c-.593-3.83-3.903-6.775-7.896-6.775-3.781,0-6.951,2.64-7.781,6.172-2.137.568-3.719,2.498-3.719,4.814,0,2.05,1.234,3.812,3,4.584v.431l1.5,1.5-1.5,1.5,1.5,1.5-1.5,1.5,2.001,2,1.999-2v-6.431c1.766-.772,3-2.533,3-4.584,0-2.122-1.328-3.925-3.193-4.65.69-1.937,2.523-3.335,4.693-3.335,2.409,0,4.424,1.713,4.895,3.984l-4.395,4.395v12.621h12v-12.621l-4.604-4.604Zm-14.396,4.211c-.828,0-1.5-.672-1.5-1.5,0-.779.597-1.413,1.357-1.486h.286c.76.073,1.357.706,1.357,1.486,0,.828-.672,1.5-1.5,1.5Zm16,10.014h-6v-8.379l3-3,3,3v8.379Z"/>
</svg>
