<svg id="Layer_1" viewBox="0 0 24 24" xmlns="http://www.w3.org/2000/svg" data-name="Layer 1"><path d="m10.163 20.906c-.492.054-1.012.094-1.594.094-3.466 0-5.344-1.107-5.501-1.5v-1.493c1.307.554 2.914.882 4.566.971.957-.911 2.487-2.226 3.377-3.182-.7.126-1.508.21-2.441.21-3.465 0-5.344-1.107-5.501-1.5h-.002v-1.501c1.554.66 3.531 1.001 5.503 1.001 1.52-.006 3.015-.183 4.401-.625.893-1.491 2.45-2.411 4.101-2.369v-6.508c0-2.958-4.277-4.504-8.503-4.504s-8.502 1.546-8.502 4.501v14.998c0 2.955 4.277 4.501 8.502 4.501 1.672 0 3.347-.246 4.767-.722-1.144-.688-2.197-1.503-3.173-2.373zm-1.594-17.905c3.421 0 5.287 1.075 5.487 1.482-.223.456-2.085 1.519-5.487 1.519-3.42 0-5.287-1.075-5.487-1.482.223-.456 2.085-1.519 5.487-1.519zm-5.506 4.999c1.555.66 3.533 1.002 5.506 1.002s3.948-.341 5.503-1l.003 1.456c-.169.442-2.046 1.545-5.506 1.545 0 0 0 0-.001 0-3.464 0-5.343-1.107-5.5-1.5h-.004v-1.502zm19.954 9.992c-.519 2.458-1.896 4.504-3.078 5.888-.904-.234-1.772-.515-2.604-.844.621-1.185 1.237-2.799 1.237-4.537-1.726 2.158-3.821 2.824-4.364 2.967-1.24-.763-2.386-1.65-3.428-2.675 1.456-1.248 2.942-2.873 4.067-4.604.739-1.136 2.214-1.523 3.407-.88l.333.18 2.625-5.625 2.719 1.269-2.698 5.781.466.251c1.015.547 1.555 1.701 1.316 2.829z"/></svg>