<?xml version="1.0" encoding="UTF-8"?>
<svg xmlns="http://www.w3.org/2000/svg" id="Layer_1" data-name="Layer 1" viewBox="0 0 24 24">
  <path d="M22.561,19.439c.586,.586,.586,1.535,0,2.121l-.828,.828c-1.039,1.039-2.42,1.611-3.89,1.611H9v-7.5c0-1.023,.619-1.901,1.5-2.288V7.5c0-.829,.671-1.5,1.5-1.5s1.5,.671,1.5,1.5v6.5h3c1.379,0,2.5,1.121,2.5,2.5v2c0,.828-.672,1.5-1.5,1.5s-1.5-.672-1.5-1.5v-1.5h-1v4h2.843c.668,0,1.296-.26,1.769-.732l.828-.828c.586-.586,1.535-.586,2.121,0Zm1.254-10.683c-2.239-4.071-5.009-7.046-6.76-8.189-1.374-.898-3.219-.706-4.383,.459l-.672,.672-.671-.671c-1.165-1.165-3.008-1.359-4.383-.46C4.944,1.874,2.168,5.223,.194,8.713l-.194,.382v.777l.183,.336c.13,.238,2.495,4.488,6.817,6.608v-.317c0-.986,.328-1.892,.868-2.634-1.95-1.091-3.389-2.729-4.223-3.853,1.276,.266,3.003,.579,4.855,.78v-2.585c-1.917,.208-3.698,.536-4.986,.807,1.807-2.883,3.879-5.157,5.072-5.935,.197-.129,.453-.099,.622,.07l2.792,2.792,2.794-2.793c.168-.168,.423-.197,.62-.069,1.268,.828,3.316,3.073,5.08,5.949-1.288-.275-3.074-.608-4.994-.818v2.583c1.858-.201,3.591-.515,4.868-.78-.495,.672-1.204,1.527-2.115,2.343,.952,.404,1.72,1.139,2.203,2.046,2.116-1.96,3.271-4.02,3.36-4.184l.184-.356v-.768l-.186-.338Z"/>
</svg>
