<?xml version="1.0" encoding="UTF-8"?>
<svg xmlns="http://www.w3.org/2000/svg" id="Layer_1" data-name="Layer 1" viewBox="0 0 24 24">
  <path d="m24,11V0h-9v11h3v10h-3v3h9v-3h-3v-10h3Zm-6-8h3v5h-3V3Zm-11-.5c0-1.381,1.119-2.5,2.5-2.5s2.5,1.119,2.5,2.5-1.119,2.5-2.5,2.5-2.5-1.119-2.5-2.5Zm3.5,3.5h-2c-1.93,0-3.5,1.57-3.5,3.5v5.5h-2v-5.5c0-1.333.486-2.548,1.279-3.5h-.779c-1.93,0-3.5,1.57-3.5,3.5v8.5h2v6h3v-6h2v6h5v-6h2v-8.5c0-1.93-1.57-3.5-3.5-3.5Zm-2.5,3.5c0-.276.225-.5.5-.5h2c.275,0,.5.224.5.5v5.5h-3v-5.5ZM2,2.5c0-1.381,1.119-2.5,2.5-2.5.402,0,.777.104,1.114.273-.38.659-.614,1.413-.614,2.227s.234,1.568.615,2.227c-.337.169-.712.273-1.115.273-1.381,0-2.5-1.119-2.5-2.5Z"/>
</svg>
