<?xml version="1.0" encoding="UTF-8"?>
<svg xmlns="http://www.w3.org/2000/svg" id="Layer_1" data-name="Layer 1" viewBox="0 0 24 24">
  <path d="M20.5,2H3.5C1.57,2,0,3.57,0,5.5V22H24V5.5c0-1.93-1.57-3.5-3.5-3.5Zm.5,17H3V5.5c0-.276,.225-.5,.5-.5H20.5c.275,0,.5,.224,.5,.5v13.5Zm-1.708-5.374c0,1.199-.975,2.173-2.174,2.173h-.326v1.2h-1.6v-1.2h-.2c-1.201,0-2.189-.925-2.291-2.1h1.62c.086,.289,.354,.5,.671,.5h2.126c.316,0,.574-.257,.574-.574,0-.272-.194-.509-.462-.563l-2.791-.559c-1.013-.203-1.747-1.099-1.747-2.131,0-1.199,.975-2.173,2.173-2.173h.327v-1.2h1.6v1.2h.2c1.201,0,2.189,.925,2.291,2.1h-1.62c-.086-.289-.354-.5-.671-.5h-2.127c-.316,0-.573,.257-.573,.574,0,.272,.194,.509,.461,.562l2.792,.559c1.013,.202,1.747,1.099,1.747,2.131ZM5,8h6v3H5v-3Zm0,5h6v3H5v-3Z"/>
</svg>
