<svg id="Layer_1" viewBox="0 0 24 24" xmlns="http://www.w3.org/2000/svg" data-name="Layer 1"><path d="m22 17.769c.248.811 1 3.495 1 6.231h-3c-.036-2.97-.9-5.424-1-5.757v-10.243h-6v-3h6.518c.177 0 .339-.093.435-.25.535-.873 1.172-2.405 1.172-4.75h3c0 3.045-.878 5.117-1.614 6.318-.146.239-.32.453-.511.645zm-17.828-13.019c-.535-.873-1.172-2.405-1.172-4.75h-3c0 3.045.878 5.117 1.614 6.318.113.185.245.351.386.508v10.943c-.248.811-1 3.495-1 6.231h3c.036-2.972.9-5.423 1-5.758v-10.242h6v-3h-6.393c-.177 0-.339-.093-.435-.25zm2.828 6.75c0 .828.672 1.5 1.5 1.5h1c.828 0 1.5-.672 1.5-1.5v-1.5h-4zm6 0c0 .828.672 1.5 1.5 1.5h1c.828 0 1.5-.672 1.5-1.5v-1.5h-4zm-6 5c0 .828.672 1.5 1.5 1.5h1c.828 0 1.5-.672 1.5-1.5v-1.5h-4zm6 0c0 .828.672 1.5 1.5 1.5h1c.828 0 1.5-.672 1.5-1.5v-1.5h-4zm-6 5c0 .828.672 1.5 1.5 1.5h1c.828 0 1.5-.672 1.5-1.5v-1.5h-4zm6 0c0 .828.672 1.5 1.5 1.5h1c.828 0 1.5-.672 1.5-1.5v-1.5h-4zm-6.5-18.5c.828 0 1.5-.672 1.5-1.5s-.672-1.5-1.5-1.5-1.5.672-1.5 1.5.672 1.5 1.5 1.5zm11 0c.828 0 1.5-.672 1.5-1.5s-.672-1.5-1.5-1.5-1.5.672-1.5 1.5.672 1.5 1.5 1.5z"/></svg>