<svg id="Layer_1" viewBox="0 0 24 24" xmlns="http://www.w3.org/2000/svg" data-name="Layer 1"><path d="m24 6v3h-2v5.462c-.003.733-.385 1.379-1 1.723v1.815h-2v-1.815c-.595-.346-1-.984-1-1.723v-5.462h-2v-3c1.1 0 2-.9 2-2v-2c0-1.104.896-2 2-2 1.104 0 2 .895 2 2v2c0 1.1.9 2 2 2zm-4 13.203-1.414 1.383c-.781.781-.781 2.047 0 2.828.391.391.902.586 1.414.586s1.024-.195 1.414-.586c.781-.781.781-2.047 0-2.828zm-6-7.703v12.5h-14v-12.5c0-1.722.822-3.366 2.2-4.4l.8-.6v-1.5h8v1.5l.8.6c1.378 1.034 2.2 2.679 2.2 4.4zm-3 0c0-.782-.374-1.53-1-2l-2-1.5h-2l-2 1.5c-.626.47-1 1.218-1 2v9.5h8v-3h-5v-5h5z"/></svg>