<svg id="Layer_1" viewBox="0 0 24 24" xmlns="http://www.w3.org/2000/svg" data-name="Layer 1"><path d="m10.5 11.5c0-.828.672-1.5 1.5-1.5s1.5.672 1.5 1.5-.672 1.5-1.5 1.5-1.5-.672-1.5-1.5zm1.5-3.5c.828 0 1.5-.672 1.5-1.5s-.672-1.5-1.5-1.5-1.5.672-1.5 1.5.672 1.5 1.5 1.5zm0-5c.828 0 1.5-.672 1.5-1.5s-.672-1.5-1.5-1.5-1.5.672-1.5 1.5.672 1.5 1.5 1.5zm3 12.5 2.5 1.5-2.5 1.5v2.5l-3-1.643-3 1.643v-2.5l-2.5-1.5 2.5-1.5v-2.5l3 1.643 3-1.643zm-1.5 1.5c0-.828-.672-1.5-1.5-1.5s-1.5.672-1.5 1.5.672 1.5 1.5 1.5 1.5-.672 1.5-1.5zm8.5-7.292c.376-1.335 2-7.239 2-9.708h-3c-.016 1.994-1.429 7.295-2 9.29v8.953c.1.333.964 2.787 1 5.757h3c0-2.736-.752-5.42-1-6.231zm-22-9.708c0 2.47 1.624 8.374 2 9.708v8.061c-.248.811-1 3.495-1 6.231h3c.036-2.972.9-5.423 1-5.758v-8.952c-.57-1.993-1.984-7.299-2-9.29zm12 21c-.828 0-1.5.672-1.5 1.5s.672 1.5 1.5 1.5 1.5-.672 1.5-1.5-.672-1.5-1.5-1.5z"/></svg>