<?xml version="1.0" encoding="UTF-8"?>
<svg xmlns="http://www.w3.org/2000/svg" id="Layer_1" data-name="Layer 1" viewBox="0 0 24 24">
  <path d="m22.615,8.982l-1.615-1.548v-3.935c0-1.93-1.57-3.5-3.5-3.5H6.5c-1.93,0-3.5,1.57-3.5,3.5v3.939l-1.61,1.543C.508,9.826.002,11.01.002,12.231l-.002,11.769h24v-11.769c0-1.223-.505-2.407-1.385-3.249ZM6,3.5c0-.275.225-.5.5-.5h11c.275,0,.5.225.5.5v7.536l-4.231,4.231c-.94.941-2.594.942-3.536,0l-4.232-4.232V3.5Zm15,17.5H3l.002-8.72,5.11,5.11c1.037,1.036,2.418,1.606,3.888,1.606s2.853-.571,3.89-1.608l5.11-5.11v8.722Zm-9.837-9c-.668,0-1.296-.261-1.767-.733l-2.282-2.196,2.08-2.162,1.968,1.895,3.61-3.532,2.098,2.145-3.949,3.864c-.461.461-1.088.721-1.756.721h-.002Z"/>
</svg>
