<?xml version="1.0" encoding="UTF-8"?>
<svg xmlns="http://www.w3.org/2000/svg" id="Layer_1" data-name="Layer 1" viewBox="0 0 24 24">
  <path d="M13.636,4.819c-.924,.569-1.673,1.398-2.13,2.391l-.485-.909-1.218,2.289-1.671-.89,1.056,1.781-2.178,1.074,1.906,.842-.725,1.973,1.748-.601,1.062,1.983v6.358l-2.502-4.675-5.297,1.819,1.928-5.251L-.078,10.704l5.032-2.48L.095,.026,8.563,4.532,11.018-.078l2.618,4.897Zm4.864,.181c1.381,0,2.5-1.119,2.5-2.5s-1.119-2.5-2.5-2.5-2.5,1.119-2.5,2.5,1.119,2.5,2.5,2.5Zm5.5,13h-2v6h-3v-6h-1v6h-3v-6h-2V9.5c0-1.93,1.57-3.5,3.5-3.5h4c1.93,0,3.5,1.57,3.5,3.5v8.5Zm-8-3h5v-5.5c0-.276-.224-.5-.5-.5h-4c-.276,0-.5,.224-.5,.5v5.5Z"/>
</svg>
