<?xml version="1.0" encoding="UTF-8"?>
<svg xmlns="http://www.w3.org/2000/svg" id="Layer_1" data-name="Layer 1" viewBox="0 0 24 24">
  <path d="M4,2.5c0-1.381,1.119-2.5,2.5-2.5s2.5,1.119,2.5,2.5-1.119,2.5-2.5,2.5-2.5-1.119-2.5-2.5Zm7.081,8.5h-3.081v-2h4v-3H5.536c-.961,0-1.87,.465-2.432,1.244L.053,11.468l2.432,1.756,1.525-2.111-.017,2.415-1.493,5.473h2.88l1.505-5h2.034l.667,2h-1.586v3h7.046v-3h-2.298l-1.667-5ZM21,0l-4,2.5,4,2.5v4h3V0h-3Zm-4,24h7v-3h-7v3Zm0-5h7v-3h-7v3Zm0-5h7v-3h-7v3Zm-9,10h7.046v-3h-7.046v3Zm-8,0H6.045v-3H0v3Z"/>
</svg>
