<?xml version="1.0" encoding="UTF-8"?>
<svg xmlns="http://www.w3.org/2000/svg" id="Layer_1" data-name="Layer 1" viewBox="0 0 24 24">
  <path d="m20.5,1H3.5C1.57,1,0,2.57,0,4.5v18.5h13.408c-1.18-.708-2.131-1.751-2.725-3H3v-12h18v3.26c1.812,1.265,3,3.362,3,5.74V4.5c0-1.93-1.57-3.5-3.5-3.5ZM4.5,6c-.828,0-1.5-.672-1.5-1.5s.672-1.5,1.5-1.5,1.5.672,1.5,1.5-.672,1.5-1.5,1.5Zm5,0c-.828,0-1.5-.672-1.5-1.5s.672-1.5,1.5-1.5,1.5.672,1.5,1.5-.672,1.5-1.5,1.5Zm12.5,11c0-2.757-2.243-5-5-5s-5,2.243-5,5,2.243,5,5,5c.833,0,1.62-.205,2.311-.568l2.474,2.474,2.121-2.121-2.474-2.474c.362-.692.568-1.478.568-2.311Zm-5,2c-1.103,0-2-.897-2-2s.897-2,2-2,2,.897,2,2-.897,2-2,2Z"/>
</svg>
