<?xml version="1.0" encoding="UTF-8"?>
<svg xmlns="http://www.w3.org/2000/svg" id="Layer_1" data-name="Layer 1" viewBox="0 0 24 24">
  <path d="M24,7.264c0,1.271-1.034,2.305-2.306,2.305h-.346v1.431h-1.697v-1.431h-.212c-1.274,0-2.322-.981-2.43-2.227h1.718c.091,.306,.376,.53,.712,.53h2.255c.336,0,.609-.273,.609-.609,0-.289-.206-.54-.49-.597l-2.96-.592c-1.074-.215-1.853-1.165-1.853-2.261,0-1.271,1.034-2.305,2.305-2.305h.347V0h1.697V1.508h.212c1.274,0,2.322,.981,2.43,2.227h-1.718c-.091-.306-.376-.53-.712-.53h-2.256c-.336,0-.608,.273-.608,.609,0,.289,.206,.54,.489,.597l2.961,.593c1.074,.214,1.853,1.165,1.853,2.261ZM5.5,11C2.462,11,0,8.538,0,5.5S2.462,0,5.5,0c2.517,0,4.634,1.693,5.288,4h2.212V1.75l3.089,3.161c.325,.325,.325,.853,0,1.178l-3.089,3.161v-2.25h-2.212c-.654,2.307-2.771,4-5.288,4Zm3.754-6.746l-1.398-1.43-3.053,3.192-1.916-2.001-1.387,1.441,1.882,1.968c.766,.765,2.079,.763,2.823,.019l.004-.004,3.045-3.186Zm3.746,7.246c0-.747-.536-1.44-1.273-1.56-.94-.153-1.739,.568-1.739,1.479v7.452l-1.14-.899c-.866-.722-2.153-.604-2.874,.261-.722,.866-.605,2.153,.261,2.874l3.842,2.93,2.923-.038v-5.172l6,2.118v3.054h3v-5.177l-9-3.176v-4.148Z"/>
</svg>
