<?xml version="1.0" encoding="UTF-8"?>
<svg xmlns="http://www.w3.org/2000/svg" id="Layer_1" data-name="Layer 1" viewBox="0 0 24 24">
  <path d="m9.5,12.5h1.5v2h-1.5v1.5h-2v-1.5h-1.5v-2h1.5v-1.5h2v1.5Zm7.386,4.386c-.664,4.03-4.171,7.114-8.386,7.114C3.813,24,0,20.187,0,15.5c0-4.215,3.084-7.722,7.114-8.386C7.778,3.084,11.285,0,15.5,0c4.687,0,8.5,3.813,8.5,8.5,0,4.215-3.084,7.722-7.114,8.386Zm-2.886-1.386c0-3.033-2.467-5.5-5.5-5.5s-5.5,2.467-5.5,5.5,2.467,5.5,5.5,5.5,5.5-2.467,5.5-5.5Zm7-7c0-3.033-2.467-5.5-5.5-5.5-2.572,0-4.737,1.775-5.336,4.164,3.354.669,6.003,3.317,6.672,6.672,2.389-.598,4.164-2.763,4.164-5.336Zm-4.5-4.5h-2v1.5h-1.5v2h1.5v1.5h2v-1.5h1.5v-2h-1.5v-1.5Z"/>
</svg>
