<svg id="Layer_1" viewBox="0 0 24 24" xmlns="http://www.w3.org/2000/svg" data-name="Layer 1"><path d="m15.344 13.249-4.278 4.751h-1.066l1.035-3h-1.714c-.55 0-.944-.569-.785-1.096l2.159-4.904h3.325l-1.301 3h1.955c.642 0 1.025.715.67 1.249zm5.656-5.097v9.695c0 1.312-.31 2.627-.897 3.801l-1.176 2.352h-13.854l-1.176-2.352c-.587-1.174-.897-2.488-.897-3.801v-9.695c0-1.312.31-2.627.897-3.801l1.176-2.352h7.927v-1.999h3v2h2.927l1.176 2.352c.587 1.174.897 2.488.897 3.801zm-3 0c0-.85-.201-1.699-.581-2.459l-.347-.693h-10.145l-.347.693c-.38.76-.581 1.609-.581 2.459v9.695c0 .85.201 1.699.581 2.459l.347.693h10.146l.347-.693c.38-.76.581-1.609.581-2.459v-9.695z"/></svg>