<?xml version="1.0" encoding="UTF-8"?>
<svg xmlns="http://www.w3.org/2000/svg" id="Layer_1" data-name="Layer 1" viewBox="0 0 24 24" width="512" height="512"><path d="m22.084,9.001h1.916s0-3.001,0-3.001L0,6.009v3s1.912,0,1.912,0c-.967,1.534-1.911,3.635-1.911,5.991,0,1.969.848,3.792,2.284,5.276l-1.549,1.721,2.229,2.007,1.698-1.887c2.03,1.18,4.576,1.883,7.337,1.883s5.307-.703,7.337-1.883l1.698,1.887,2.229-2.007-1.549-1.721c1.436-1.483,2.284-3.306,2.284-5.276,0-2.36-.947-4.465-1.916-5.999ZM3,15c0-2.671,1.822-5.054,2.644-5.993l12.705-.005c.819.94,2.651,3.339,2.651,5.998,0,3.252-4.122,6-9,6s-9-2.748-9-6ZM7,1.5c0-.828.672-1.5,1.5-1.5s1.5.672,1.5,1.5-.672,1.5-1.5,1.5-1.5-.672-1.5-1.5Zm7,1c0-.828.672-1.5,1.5-1.5s1.5.672,1.5,1.5-.672,1.5-1.5,1.5-1.5-.672-1.5-1.5Z"/></svg>
