<?xml version="1.0" encoding="UTF-8"?>
<svg xmlns="http://www.w3.org/2000/svg" id="Layer_1" data-name="Layer 1" viewBox="0 0 24 24">
  <path d="m12.5,0C6.71,0,2,4.71,2,10.5c0,2.763,1.119,5.398,3.033,7.346l-4.025,4.025,2.121,2.121,6.996-6.995s-1.125-1.497-1.125-3.497c0-3.033,2.467-5.5,5.5-5.5,2.434,0,4.542,1.58,5.245,3.93l.32,1.07h2.727s.208-1.5.208-2.5c0-5.79-4.71-10.5-10.5-10.5Zm2,5c-4.687,0-8.5,3.813-8.5,8.5,0,.266.012.529.036.79-.668-1.137-1.036-2.444-1.036-3.79,0-4.136,3.364-7.5,7.5-7.5,2.444,0,4.618,1.175,5.988,2.989-1.195-.637-2.555-.989-3.988-.989Z"/>
</svg>
