<?xml version="1.0" encoding="UTF-8"?>
<svg xmlns="http://www.w3.org/2000/svg" id="Layer_1" data-name="Layer 1" viewBox="0 0 24 24" width="512" height="512"><path d="M16.063,7.329l1.874,2.342-2.478,1.983c-.26,.216-.594,.346-.959,.346-.828,0-1.5-.672-1.5-1.5,0-.475,.221-.899,.566-1.174l2.497-1.997Zm-6.563,4.671c.828,0,1.5-.672,1.5-1.5,0-.475-.221-.899-.566-1.174l-2.497-1.997-1.874,2.342,2.478,1.983c.26,.216,.594,.346,.959,.346Zm-3,4.182l1.994,2.241c.016-.014,1.645-1.423,3.506-1.423s3.49,1.409,3.506,1.423l1.994-2.241c-.1-.09-2.477-2.182-5.5-2.182s-5.399,2.092-5.5,2.182ZM22.749,6.67c.8,1.607,1.251,3.416,1.251,5.33,0,6.617-5.383,12-12,12S0,18.617,0,12c0-1.913,.451-3.723,1.251-5.33L0,0,4.989,2.268C6.962,.842,9.385,0,12,0s5.038,.842,7.011,2.268L24,0l-1.251,6.67Zm-1.749,5.33c0-4.963-4.038-9-9-9S3,7.037,3,12s4.038,9,9,9,9-4.037,9-9Z"/></svg>
