<?xml version="1.0" encoding="UTF-8"?>
<svg xmlns="http://www.w3.org/2000/svg" id="Layer_1" data-name="Layer 1" viewBox="0 0 24 24" width="512" height="512"><path d="M24,12c0,1.739-.38,3.388-1.048,4.881-.216-1.565-1.186-3.081-1.991-4.104,.022-.257,.039-.515,.039-.778,0-4.962-4.038-9-9-9S3,7.038,3,12s4.038,9,9,9c1.096,0,2.143-.207,3.115-.567,.826,.952,2.029,1.567,3.385,1.567,.049,0,.094-.013,.143-.014-1.904,1.271-4.187,2.014-6.643,2.014C5.383,24,0,18.617,0,12S5.383,0,12,0s12,5.383,12,12Zm-6-3c0-1.105-.895-2-2-2s-2,.895-2,2,.895,2,2,2,2-.895,2-2Zm-8,0c0-1.105-.895-2-2-2s-2,.895-2,2,.895,2,2,2,2-.895,2-2Zm6,8.5c0,1.381,1.119,2.5,2.5,2.5s2.5-1.119,2.5-2.5c0-1.987-2.5-4.5-2.5-4.5,0,0-2.5,2.462-2.5,4.5Zm-4-2.5c-2.098,0-3.932-1.559-4.009-1.625l-1.991,2.243c.109,.098,2.698,2.382,6,2.382,.715,0,1.392-.111,2.022-.279-.004-.075-.022-.145-.022-.221,0-1.264,.551-2.512,1.194-3.543-.745,.467-1.917,1.043-3.194,1.043Z"/></svg>
