<svg id="Layer_1" viewBox="0 0 24 24" xmlns="http://www.w3.org/2000/svg" data-name="Layer 1"><path d="m12.29 15c-.19.641-.29 1.313-.29 2 0 .338.032.671.079 1h-2.079v-3zm1.788 6.977 2.068 2.023h-16.146v-24h3v4h2v-4h3v4h2v-4h3v4h2v-4h3v10.079c-1.465.209-2.82.869-3.894 1.921h-4.106v-5h-7v14h10.264c.241.344.509.672.814.977zm-1.078-14.977v2h2v-2zm-5 3h-3v3h3zm-3 8h3v-3h-3zm19-1c0 1.335-.52 2.591-1.465 3.536l-3.535 3.458-3.523-3.447c-.957-.956-1.477-2.211-1.477-3.547s.52-2.591 1.465-3.536c.944-.944 2.2-1.464 3.535-1.464s2.591.52 3.535 1.464c.945.944 1.465 2.2 1.465 3.536zm-3 0c0-1.105-.895-2-2-2s-2 .895-2 2 .895 2 2 2 2-.895 2-2z"/></svg>