<?xml version="1.0" encoding="UTF-8"?>
<svg xmlns="http://www.w3.org/2000/svg" id="Layer_1" data-name="Layer 1" viewBox="0 0 24 24">
  <path d="m3,2.5c0-1.381,1.119-2.5,2.5-2.5s2.5,1.119,2.5,2.5-1.119,2.5-2.5,2.5-2.5-1.119-2.5-2.5Zm10,11.5h-4v-3h-3v3h-3v-4.5c0-.276.225-.5.5-.5h5.383l5.836-3.183-1.438-2.634-5.164,2.817H3.5c-1.93,0-3.5,1.57-3.5,3.5v7.5h2v7h3v-7h5v4h-2v3h16v-3h-11v-7ZM21.161,2.839l-.829-2.839h-.647l-.841,2.837-2.844.831v.647l2.843.842.842,2.843h.647l.831-2.844,2.837-.841v-.647l-2.839-.829Zm-3.157,6.563l-.871-2.773-4.133,2.254v3.201l5.003-2.682Z"/>
</svg>
