<svg id="Layer_1" viewBox="0 0 24 24" xmlns="http://www.w3.org/2000/svg" data-name="Layer 1"><path d="m5 12v-5c0-3.859 3.14-7 7-7 .34 0 .672.033 1 .08v3.062c-.322-.084-.653-.142-1-.142-2.206 0-4 1.794-4 4v1h3v3h-3v1c0 2.206 1.794 4 4 4s4-1.794 4-4v-1h3v1c0 3.859-3.14 7-7 7s-7-3.141-7-7zm16 1.5c0 4.136-3.364 7.5-7.5 7.5h-3c-4.136 0-7.5-3.364-7.5-7.5v-.5h-3v.5c0 5.79 4.71 10.5 10.5 10.5h3c5.79 0 10.5-4.71 10.5-10.5v-.5h-3zm-6-13.5v3c3.309 0 6 2.691 6 6h3c0-4.963-4.038-9-9-9zm0 5v3c.551 0 1 .448 1 1h3c0-2.206-1.794-4-4-4z"/></svg>