<svg id="Layer_1" viewBox="0 0 24 24" xmlns="http://www.w3.org/2000/svg" data-name="Layer 1"><path d="m2.13 6.175c1.792-3.65 5.537-6.175 9.87-6.175 4.463 0 8.306 2.676 10.029 6.505 0 0-2.143 2.283-2.303 2.455-.906-3.424-4.021-5.96-7.726-5.96-3.567 0-6.595 2.348-7.623 5.579-.202-.227-2.247-2.404-2.247-2.404zm15.47 10.528c-1.444 1.419-3.421 2.297-5.6 2.297-.595 0-1.173-.07-1.732-.194.422.842.732 1.769.732 2.694 0 .153-.03.298-.045.447.344.033.692.053 1.045.053 3.078 0 5.862-1.275 7.86-3.32-.964-.38-1.754-1.085-2.26-1.977zm-12.6-2.203c0-1.987-2.5-4.5-2.5-4.5s-2.5 2.462-2.5 4.5c0 1.381 1.119 2.5 2.5 2.5s2.5-1.119 2.5-2.5zm-1 7c0 1.381 1.119 2.5 2.5 2.5s2.5-1.119 2.5-2.5c0-1.987-2.5-4.5-2.5-4.5s-2.5 2.462-2.5 4.5zm17.5-11.5s-2.5 2.462-2.5 4.5c0 1.381 1.119 2.5 2.5 2.5s2.5-1.119 2.5-2.5c0-1.987-2.5-4.5-2.5-4.5zm-13-3c-1.889 0-2.5 2.641-2.5 4 0 0 1.5-1.5 2.5-1.5s2.5 1.5 2.5 1.5c0-1.359-.611-4-2.5-4zm7 0c-1.889 0-2.5 2.641-2.5 4 0 0 1.5-1.5 2.5-1.5s2.5 1.5 2.5 1.5c0-1.359-.611-4-2.5-4zm-3.5 5c-2.209 0-4 1.791-4 4h8c0-2.209-1.791-4-4-4z"/></svg>