<?xml version="1.0" encoding="UTF-8"?>
<svg xmlns="http://www.w3.org/2000/svg" id="Layer_1" data-name="Layer 1" viewBox="0 0 24 24">
  <path d="m9.5,15h5c1.654,0,3-1.346,3-3v-6h-1v-1.5c0-2.481-2.019-4.5-4.5-4.5s-4.5,2.019-4.5,4.5v1.5h-1v6c0,1.654,1.346,3,3,3Zm4-3h-3v-3h3v3Zm-3-7.5c0-.827.673-1.5,1.5-1.5s1.5.673,1.5,1.5v1.5h-3v-1.5Zm5.064,14.056l-1.439,1.439,1.439,1.439-2.121,2.121-1.439-1.439-1.439,1.439-2.121-2.121,1.439-1.439-1.439-1.439,2.121-2.121,1.439,1.439,1.439-1.439,2.121,2.121Zm6.561,1.439l1.439,1.439-2.121,2.121-1.439-1.439-1.439,1.439-2.121-2.121,1.439-1.439-1.439-1.439,2.121-2.121,1.439,1.439,1.439-1.439,2.121,2.121-1.439,1.439Zm-14.561-1.439l-1.439,1.439,1.439,1.439-2.121,2.121-1.439-1.439-1.439,1.439-2.121-2.121,1.439-1.439-1.439-1.439,2.121-2.121,1.439,1.439,1.439-1.439,2.121,2.121Z"/>
</svg>
