<svg id="Layer_1" viewBox="0 0 24 24" xmlns="http://www.w3.org/2000/svg" data-name="Layer 1"><path d="m8.914 10.47-1.03 1.03 1.03 1.03-1.414 1.414-1.03-1.03-1.03 1.03-1.414-1.414 1.03-1.03-1.03-1.03 1.414-1.414 1.03 1.03 1.03-1.03zm2.085 3.474 3.474-3.474-1.414-1.414-1.03 1.03-1.03-1.03-1.414 1.414 1.03 1.03-1.03 1.03zm9.501-8.944h-17c-1.93 0-3.5 1.57-3.5 3.5v9.5h10.08c-.047-.327-.08-.66-.08-1 0-.695.105-1.366.294-2h-7.294v-6.5c0-.276.225-.5.5-.5h17c.275 0 .5.224.5.5v2.76c1.812 1.265 3 3.362 3 5.74v-8.5c0-1.93-1.57-3.5-3.5-3.5zm.916 14.295 2.49 2.49-2.121 2.121-2.49-2.49c-.691.361-1.463.584-2.295.584-2.757 0-5-2.243-5-5s2.243-5 5-5 5 2.243 5 5c0 .831-.223 1.604-.584 2.295zm-2.416-2.295c0-1.103-.897-2-2-2s-2 .897-2 2 .897 2 2 2 2-.897 2-2z"/></svg>