<?xml version="1.0" encoding="UTF-8"?>
<svg xmlns="http://www.w3.org/2000/svg" id="Layer_1" data-name="Layer 1" viewBox="0 0 24 24">
  <path d="M11.337,19.665l.334,1.335h3.329v3h-5.671l-1.75-7h1.921c.574-.014,2.5-.271,2.5-3h3c0,3.274-1.82,4.998-3.663,5.665ZM21.223,2.256c-.605-.286-1.252-.351-1.856-.242l-1.135-1.135c-1.172-1.172-3.071-1.172-4.243,0h0l1.768,1.768c.448,.448,1.003,.722,1.582,.827-2.51,3.614-6.55,4.504-6.945,4.528-3.995,.055-7.353,3.192-7.667,7.189-.129,1.643-.283,3.22-.416,4.472-.081,.763-.722,1.338-1.491,1.338H0v3H.82c2.309,0,4.232-1.729,4.475-4.023,.134-1.273,.292-2.88,.423-4.551,.195-2.481,2.295-4.426,4.782-4.426,.383-.039,2.57-.247,5.5-2.15v1.983c0,1.481,.892,2.82,2.218,3.332,.876,.338,1.782,1.117,1.782,1.835h3c0-2.214-1.859-3.923-3.703-4.634-.172-.066-.297-.291-.297-.533v-3.226c1.552,.695,4.189,1.525,4.836,.158,.619-1.309-.578-4.545-2.613-5.509Z"/>
</svg>
