<?xml version="1.0" encoding="UTF-8"?>
<svg xmlns="http://www.w3.org/2000/svg" id="Layer_1" data-name="Layer 1" viewBox="0 0 24 24">
  <path d="m9.5,2.5c0-1.381,1.119-2.5,2.5-2.5s2.5,1.119,2.5,2.5c0,.818-.393,1.544-1,2v4.5h2.559l-3.159,3.583c-.48.556-1.32.556-1.8,0l-3.159-3.583h2.559v-4.5c-.607-.456-1-1.182-1-2Zm13.5,10.5c0,6.065-4.935,11-11,11S1,19.065,1,13C1,8.521,3.695,4.665,7.545,2.951c.107,1.054.555,2.006,1.262,2.718-2.373,1.038-4.134,3.199-4.643,5.803h3.314l2.282,2.582.06.418c.34,2.246,1.357,4.204,2.176,5.473.819-1.273,1.839-3.235,2.181-5.473l.056-.428,2.287-2.572h3.315c-.509-2.604-2.269-4.765-4.643-5.803.706-.712,1.155-1.664,1.262-2.718,3.85,1.714,6.545,5.57,6.545,10.049Zm-14.272,7.293c-.838-1.547-1.661-3.558-1.929-5.821h-2.658c.487,2.603,2.235,4.762,4.586,5.821Zm11.13-5.821h-2.658c-.267,2.263-1.09,4.274-1.929,5.821,2.351-1.059,4.1-3.218,4.586-5.821Z"/>
</svg>
