<?xml version="1.0" encoding="UTF-8"?>
<svg xmlns="http://www.w3.org/2000/svg" id="Layer_1" data-name="Layer 1" viewBox="0 0 24 24">
  <path d="m12,12c3.309,0,6-2.691,6-6S15.309,0,12,0s-6,2.691-6,6,2.691,6,6,6Zm0-9c1.654,0,3,1.346,3,3s-1.346,3-3,3-3-1.346-3-3,1.346-3,3-3Zm6,21h-3c0-1.654-1.346-3-3-3s-3,1.346-3,3h-3c0-3.309,2.691-6,6-6s6,2.691,6,6Zm4.774,0h-3.12l-1.768-6.187c-.305-1.067-1.293-1.813-2.404-1.813h-6.966c-1.11,0-2.099.746-2.404,1.813l-1.768,6.187H1.226l2.003-7.011c.671-2.349,2.846-3.989,5.289-3.989h6.966c2.442,0,4.617,1.64,5.289,3.989l2.003,7.011Z"/>
</svg>
