<?xml version="1.0" encoding="UTF-8"?>
<svg xmlns="http://www.w3.org/2000/svg" id="Layer_1" data-name="Layer 1" viewBox="0 0 24 24">
  <path d="M19.687,15c-1.6,0-2.836,.918-3.687,1.861-.851-.944-2.086-1.861-3.687-1.861-2.379,0-4.313,2.019-4.313,4.5s1.935,4.5,4.313,4.5c1.6,0,2.836-.918,3.687-1.861,.851,.944,2.086,1.861,3.687,1.861,2.379,0,4.313-2.019,4.313-4.5s-1.935-4.5-4.313-4.5Zm-7.373,6c-.725,0-1.313-.673-1.313-1.5s.589-1.5,1.313-1.5,1.472,.801,1.949,1.5c-.478,.699-1.228,1.5-1.949,1.5Zm7.373,0c-.722,0-1.472-.801-1.949-1.5,.478-.699,1.228-1.5,1.949-1.5s1.313,.673,1.313,1.5-.589,1.5-1.313,1.5Zm4.313-15.5V14.767c-.825-.797-1.854-1.372-3-1.623V7H3v12h3.025c-.012,.166-.025,.331-.025,.5,0,.886,.174,1.73,.487,2.5H0V3.5C0,1.57,1.57,0,3.5,0h4.854l4,2h8.146c1.93,0,3.5,1.57,3.5,3.5Z"/>
</svg>
