<svg id="Layer_1" viewBox="0 0 24 24" xmlns="http://www.w3.org/2000/svg" data-name="Layer 1"><path d="m19.08 16.959c-.285-.431-.203-2.323-.148-3.577.034-.77.062-1.564.062-2.371v-.011c0-.37-.015-.743-.066-1.123-.298-2.237-1.481-4.444-3.421-6.384s-4.147-3.122-6.384-3.421c-2.516-.337-4.836.476-6.705 2.346-1.87 1.87-2.681 4.188-2.346 6.705.21 1.576.868 3.136 1.912 4.599.63-.797 1.512-1.495 2.539-1.722h5.477v4.5c0 .859-.253 1.653-.671 2.336.539.107 1.077.172 1.608.172.816-.03 1.657-.035 2.444-.076 1.258-.055 3.157-.137 3.558.129l4.897 4.897 2.121-2.121-4.878-4.878zm-3.177-6.959h-3.903v-2h3.183c.356.666.597 1.34.719 2zm-2.155-4h-1.747v-1.557c.475.339.941.726 1.386 1.171.126.126.243.256.362.386zm-5.021-2.954c.419.056.846.167 1.273.322v2.632h-2v-2.994c.238-.002.48.007.727.04zm-2.727.427v2.527h-2.527c.254-.516.609-1.003 1.066-1.461s.945-.812 1.461-1.066zm-2.604 6.527c-.164-.42-.292-.841-.35-1.273-.033-.247-.042-.488-.04-.727h2.994v2zm4.604 0v-2h2v2zm7.883 2c-.205.894-.679 1.717-1.422 2.461-.78.78-1.613 1.217-2.461 1.41v-3.871zm-7.883 4.5c0 1.381-1.119 2.5-2.5 2.5s-2.5-1.119-2.5-2.5 1.119-2.5 2.5-2.5 2.5 1.119 2.5 2.5z"/></svg>