<svg id="Layer_1" viewBox="0 0 24 24" xmlns="http://www.w3.org/2000/svg" data-name="Layer 1"><path d="m9.14 19c.19 1.09.59 2.1 1.16 3h-10.3v-18.5c0-1.93 1.57-3.5 3.5-3.5h12.621l5.879 5.879v4.421c-.9-.56-1.91-.96-3-1.16v-2.019l-4-4v3.879h-10v-4h-1.5c-.276 0-.5.225-.5.5v15.5zm-2.14-6.5c0 1.47.9 2.72 2.18 3.24.49-2.34 1.96-4.33 3.95-5.52-.64-.74-1.58-1.22-2.63-1.22-1.93 0-3.5 1.57-3.5 3.5zm17 5c0 3.59-2.91 6.5-6.5 6.5s-6.5-2.91-6.5-6.5 2.91-6.5 6.5-6.5 6.5 2.91 6.5 6.5zm-2.276 1.5h-2.236c-.457.603-1.174 1-1.987 1s-1.531-.397-1.987-1h-.013l1-1h-3c-.276 0-.5.224-.5.5v3l1.098-1.098c.821.971 2.033 1.598 3.402 1.598 1.953 0 3.602-1.258 4.224-3zm.276-5.5-1.098 1.098c-.821-.971-2.033-1.598-3.402-1.598-1.953 0-3.602 1.258-4.224 3h2.236c.457-.603 1.174-1 1.987-1s1.531.397 1.987 1h.013l-1 1h3c.276 0 .5-.224.5-.5v-3z"/></svg>