<?xml version="1.0" encoding="UTF-8"?>
<svg xmlns="http://www.w3.org/2000/svg" id="Layer_1" data-name="Layer 1" viewBox="0 0 24 24">
  <path d="m12,13.5v6c0,1.381-1.119,2.5-2.5,2.5s-2.5-1.119-2.5-2.5c0-1.209.859-2.218,2-2.45v-3.55c0-.275-.224-.5-.5-.5h-3c-.276,0-.5.225-.5.5v6c0,1.381-1.119,2.5-2.5,2.5s-2.5-1.119-2.5-2.5c0-1.209.859-2.218,2-2.45v-3.55c0-1.93,1.57-3.5,3.5-3.5h3c1.93,0,3.5,1.57,3.5,3.5Zm6.049,2.428c1.226-1.659,1.957-3.705,1.957-5.922C20.006,4.492,15.52.006,10.006.006S.006,4.492.006,10.006c0,.688.07,1.361.203,2.011.434-1.546,1.527-2.815,2.957-3.489.681-3.151,3.487-5.521,6.839-5.521,3.86,0,7,3.141,7,7,0,2.375-1.192,4.474-3.006,5.741v3.421c.687-.301,1.332-.678,1.929-1.118l5.944,5.944,2.121-2.121-5.945-5.945Z"/>
</svg>
