<?xml version="1.0" encoding="UTF-8"?>
<svg xmlns="http://www.w3.org/2000/svg" id="Layer_1" data-name="Layer 1" viewBox="0 0 24 24" width="512" height="512"><path d="M18.05,1H5.97L0,12l5.96,11h12.08l5.96-11L18.05,1Zm-1.79,19H7.75L3.42,12,7.75,4h8.51l4.34,8-4.34,8Z"/><path d="M16.65,12.62l-2.69-4.71c.03-.13,.04-.27,.04-.4,0-1.1-.9-2-2-2s-2,.9-2,2c0,.14,.01,.27,.04,.4l-2.69,4.71c-.78,.27-1.35,1.01-1.35,1.88,0,1.1,.9,2,2,2,.5,0,.96-.19,1.31-.5h5.38c.35,.31,.81,.5,1.31,.5,1.1,0,2-.9,2-2,0-.88-.57-1.61-1.35-1.88Zm-3.24,.38h-2.83l1.42-2.48,1.42,2.48Z"/></svg>
