<svg id="Layer_1" viewBox="0 0 24 24" xmlns="http://www.w3.org/2000/svg" data-name="Layer 1"><path d="m8.5 13.682-3.5-.636v-3.049l3.5.636zm10.5-8.485-3.5.636v3.049l3.5-.636zm-14 12.548 3.5.636v-3.049l-3.5-.636zm3.5-11.912-3.5-.636v3.049l3.5.636zm14.275-5.047c-.778-.65-1.795-.919-2.795-.736l-5.897 1.072c-.797.145-1.507.503-2.083 1.005-.576-.502-1.286-.86-2.083-1.005l-5.898-1.072c-.997-.183-2.016.086-2.794.736-.779.65-1.225 1.604-1.225 2.617v18.421l8.731 1.587s0 0 0 0 3.268.594 3.268.594c.127-.023.395-.072.519-.094l-1.321-1.272c-.571-.571-.929-1.276-1.09-2.026l-.84-.153s-6.269-1.14-6.269-1.14v-15.917c0-.167.092-.268.147-.314.066-.056.175-.118.335-.088l5.898 1.072c.648.118 1.12.683 1.12 1.342v12.443c.285-.517.68-.974 1.173-1.329.549-.396 1.173-.628 1.827-.696v-10.418c0-.659.471-1.224 1.12-1.342l5.897-1.072c.16-.029.28.043.336.088.055.046.146.147.146.314v11.243l3 1.2v-12.443c0-1.014-.446-1.968-1.225-2.617zm-3.776 11.714c0-.828-.672-1.5-1.5-1.5s-1.5.672-1.5 1.5v6.471l-.51-.525c-.704-.705-1.839-.876-2.647-.294-1.03.742-1.116 2.188-.257 3.047l2.909 2.801h8.505v-6l-5-2z"/></svg>