<?xml version="1.0" encoding="UTF-8"?>
<svg xmlns="http://www.w3.org/2000/svg" id="Layer_1" data-name="Layer 1" viewBox="0 0 24 24">
  <path d="M22.5,18c0-.28-.034-.552-.083-.818l1.529-.883-1.5-2.599-1.542,.89c-.412-.352-.883-.629-1.404-.815v-1.776h-3v1.776c-.52,.186-.991,.463-1.404,.815l-1.542-.89-1.5,2.599,1.529,.883c-.049,.266-.083,.538-.083,.818s.034,.552,.083,.818l-1.529,.883,1.5,2.599,1.542-.89c.412,.352,.883,.629,1.404,.815v1.776h3v-1.776c.521-.186,.992-.463,1.404-.815l1.542,.89,1.5-2.598-1.529-.883c.049-.266,.083-.538,.083-.818Zm-4.5,1.5c-.827,0-1.5-.673-1.5-1.5s.673-1.5,1.5-1.5,1.5,.673,1.5,1.5-.673,1.5-1.5,1.5Zm-5.279,4.5H3.357c-1.157-.408-3.357-1.882-3.357-4.5,0-4.302,5.173-9.13,7-10.701V3h-2V0h13V3h-2v5.799c.349,.3,.822,.721,1.356,1.233-1.204,.096-2.331,.458-3.326,1.028-.162-.139-.32-.27-.473-.394l-.557-.45V3h-3v7.216l-.558,.451c-1.026,.829-2.297,2.028-3.441,3.333h5.077c-.523,.904-.875,1.917-1.01,3H3.818c-.501,.899-.818,1.761-.818,2.5,0,.871,.595,1.316,.935,1.5h6.652c.471,1.162,1.208,2.185,2.134,3Z"/>
</svg>
