<?xml version="1.0" encoding="UTF-8"?>
<svg xmlns="http://www.w3.org/2000/svg" id="Layer_1" data-name="Layer 1" viewBox="0 0 24 24">
  <path d="M24,5.5V22H14v-3h7V5.5c0-.276-.225-.5-.5-.5h-6.5V2h6.5c1.93,0,3.5,1.57,3.5,3.5ZM0,5.5V22H3V2.051c-1.692,.245-3,1.691-3,3.449Zm14,11.5h3v-7h2v-3h-7v3h2v7Zm-4,3.5V3.5c0-.276,.224-.5,.5-.5h1.5V0h-1.5c-.744,0-1.432,.238-2,.635-.568-.398-1.256-.635-2-.635h-1.5V3h1.5c.276,0,.5,.224,.5,.5V20.5c0,.275-.224,.5-.5,.5h-1.5v3h1.5c.744,0,1.432-.238,2-.635,.568,.398,1.256,.635,2,.635h1.5v-3h-1.5c-.276,0-.5-.225-.5-.5Z"/>
</svg>
