<svg id="Layer_1" viewBox="0 0 24 24" xmlns="http://www.w3.org/2000/svg" data-name="Layer 1"><path d="m15.844 21.807c.753.381 1.57.59 2.394.635l-.384.384c-1.566 1.566-4.114 1.566-5.681 0 0 0 0-.001-.001-.002-1.564-1.566-1.564-4.112.002-5.679l1.42-1.42c1.566-1.566 4.114-1.566 5.68 0l-1.42 1.42c-.783-.783-2.057-.783-2.84 0l-1.42 1.42c-.783.783-.783 2.057 0 2.84.608.608 1.509.738 2.25.402zm6.982-9.632c-1.566-1.566-4.114-1.566-5.681 0l-.384.384c.825.044 1.641.254 2.394.635.74-.336 1.642-.206 2.25.402.782.783.782 2.057 0 2.84l-1.42 1.42c-.784.783-2.058.783-2.841 0l-1.42 1.42c.783.783 1.811 1.174 2.84 1.174s2.057-.391 2.84-1.174l1.42-1.42c1.566-1.566 1.566-4.114 0-5.68zm-2.326-10.175h-8.146l-4-2h-4.854c-1.93 0-3.5 1.57-3.5 3.5v18.5h9.367c-.343-.966-.437-1.997-.272-3h-6.095v-12h18v2.098c1.09.185 2.128.68 3 1.466v-5.065c0-1.93-1.57-3.5-3.5-3.5z"/></svg>