<svg id="Layer_1" viewBox="0 0 24 24" xmlns="http://www.w3.org/2000/svg" data-name="Layer 1"><path d="m3.229 1.392c-.497-.535-.122-1.388.507-1.392h17.264v2h-6.207c-1.861 1.529-3.756 2.037-5.462 1.998-3.077-.121-5.25-1.666-6.102-2.606zm20.771 11.608h-24v3h3.125c-.229.444-.416.914-.518 1.422l-1.316 6.578h3.059l1.198-5.99c.233-1.164 1.264-2.01 2.452-2.01h4.599c.354 0 .607.29.642.643.041.409-.418.616-.545.634l-4.099.551.411 2.972 4.105-.551c.874-.125 1.642-.561 2.198-1.184l3.052-2.728c.382-.341.955-.381 1.275-.09.423.526.423.802-.018 1.335l-7.108 6.418h4.351l4.801-4.223c.807-.734 1.27-1.781 1.27-2.873 0-.308-.046-.609-.118-.904h1.183v-3zm-11.5-3.5c0 1.378 1.121 2.5 2.5 2.5h6v-2h-6c-.275 0-.5-.224-.5-.5v-.5h6.5v-2h-6.5v-.5c0-.276.225-.5.5-.5h6v-2h-6c-1.379 0-2.5 1.122-2.5 2.5v.5h-9.5v2h9.5z"/></svg>