<?xml version="1.0" encoding="UTF-8"?>
<svg xmlns="http://www.w3.org/2000/svg" id="Layer_1" data-name="Layer 1" viewBox="0 0 24 24">
  <path d="M20.5,5.003h-1.499v-1.501C19.04,1.62,17.381-.038,15.499,.001L3.5,.005C1.57,.005,0,1.576,0,3.507l.006,13.622c-.018,1.226,1.221,2.157,2.391,1.796l3.604-1.503v4.581h11l4.443,1.863c1.188,.5,2.576-.448,2.551-1.739l.006-13.625c0-1.93-1.57-3.5-3.5-3.5ZM3,3.507c0-.272,.229-.501,.501-.501l12-.004c.345,.051,.449,.155,.5,.5V14.005H6.396l-3.392,1.422-.005-11.92ZM20.995,20.425l-3.392-1.422H9v-1.998h10.001V8.003h1.499c.275,0,.5,.224,.5,.499l-.005,11.923ZM6.6,12h-1.6V5h3.5v1.6h-1.9v1.101h1.9v1.6h-1.9v2.7Zm5-2.5h.413l.909,2.5h1.703l-1.064-2.927c.567-.409,.94-1.07,.94-1.823,0-1.243-1.007-2.25-2.25-2.25h-2.25v7h1.6v-2.5Zm0-2.9h.65c.358,0,.65,.292,.65,.65s-.292,.65-.65,.65h-.65v-1.3Z"/>
</svg>
