<?xml version="1.0" encoding="UTF-8"?>
<svg xmlns="http://www.w3.org/2000/svg" id="Layer_1" data-name="Layer 1" viewBox="0 0 24 24" width="512" height="512"><path d="M12,3C7.037,3,3,7.038,3,12H0C0,5.383,5.383,0,12,0s12,5.383,12,12h-3c0-4.962-4.037-9-9-9Zm-1,7c0-.81-.482-1.507-1.174-1.821l-2.517-1.975-1.234,1.573,1.317,1.034c-.246,.332-.392,.744-.392,1.19,0,1.105,.895,2,2,2s2-.895,2-2Zm6,0c0-.446-.146-.857-.392-1.19l1.317-1.034-1.234-1.573-2.517,1.975c-.692,.315-1.174,1.011-1.174,1.821,0,1.105,.895,2,2,2s2-.895,2-2ZM2.624,16h2.376c.552,0,1,.449,1,1h2c0-1.654-1.346-3-3-3v-1H3v1h-.376c-1.447,0-2.624,1.177-2.624,2.624,0,1.288,.923,2.377,2.193,2.588l3.285,.548c.302,.05,.521,.309,.521,.616,0,.344-.28,.624-.624,.624H3c-.552,0-1-.449-1-1H0c0,1.654,1.346,3,3,3v1h2v-1h.376c1.447,0,2.624-1.177,2.624-2.624,0-1.288-.923-2.377-2.193-2.588l-3.285-.548c-.302-.05-.521-.309-.521-.616,0-.344,.28-.624,.624-.624Zm7.376,4h2v-6h-2v6Zm12-4h2v2h-2v2h2v2h-2v2h-2v-2h-2v2h-2v-2h-2v-2h2v-2h-2v-2h2v-2h2v2h2v-2h2v2Zm-2,2h-2v2h2v-2Zm-10,6h2v-2h-2v2Z"/></svg>
