<svg id="Layer_1" viewBox="0 0 24 24" xmlns="http://www.w3.org/2000/svg" data-name="Layer 1"><path d="m14 18.184c-1.161.414-2 1.514-2 2.816v3h-10v-5c0-2.749 2.232-4.986 4.979-4.998v4.275c-.595.346-1 .984-1 1.723 0 1.105.895 2 2 2s2-.895 2-2c0-.738-.405-1.376-1-1.723v-4.277h5.021zm2.988-4.184h-1v4.184c1.161.414 2 1.514 2 2.816v3h4v-5c0-2.757-2.243-5-5-5zm-1.988 6c-.552 0-1 .448-1 1v3h2v-3c0-.552-.448-1-1-1zm-3-8c.836 0 1.627-.183 2.351-.495l-.525-3.085c-.5.399-1.256.579-1.826.579-1.654 0-3-1.346-3-3 3 0 4-1.5 4.849-2.418.865.576 1.508 1.528 1.666 2.631l.984 5.787h.487c.966 0 1.886.197 2.724.552l-1.235-6.82s0 0 0 0c-.497-3.272-3.271-5.732-6.477-5.732s-5.977 2.461-6.475 5.733l-1.235 6.819c.826-.349 1.731-.545 2.681-.549 0 0 3.393-.002 5.03-.002z"/></svg>