<?xml version="1.0" encoding="UTF-8"?>
<svg xmlns="http://www.w3.org/2000/svg" id="Layer_1" data-name="Layer 1" viewBox="0 0 24 24">
  <path d="M7.315,11l16.327-3.745-1.026-4.496c-.413-1.884-2.275-3.079-4.188-2.663L2.696,3.742C.845,4.112-.414,6.081,.033,7.923l.967,4.237v11.84H24V11H7.315Zm1.395-3.398l1.632-2.553,3.701-.858-1.639,2.563-3.695,.847ZM19.196,3.011c.229,0,.438,.161,.491,.404l.362,1.586-3.473,.796,1.646-2.575s.938-.212,.973-.212ZM3.027,6.89c.041-.065,.138-.18,.33-.222l2.805-.65-1.625,2.541-1.219,.28-.358-1.571c-.039-.176,.025-.312,.067-.377Zm17.973,14.11H4v-7H21v7Z"/>
</svg>
