<?xml version="1.0" encoding="UTF-8"?>
<svg xmlns="http://www.w3.org/2000/svg" id="Layer_1" data-name="Layer 1" viewBox="0 0 24 24">
  <path d="M20.5,6H12.135l8.947-3.082L20.105,.082,2.278,6.223l.003,.009c-1.328,.497-2.281,1.769-2.281,3.269v14.5H24V9.5c0-1.93-1.57-3.5-3.5-3.5Zm.5,15H3V9.5c-.001-.278,.232-.498,.5-.5H20.5c.276,0,.5,.225,.5,.5v11.5ZM6,11h4v1.6h-2.4v1.801h2.4v1.6h-2.4v3h-1.6V11Zm11.492,1l.508,7h-1.604l-.319-4.402-1.577,3.468-1.577-3.468-.319,4.402h-1.604l.508-7c.043-.705,.472-1,.988-1,.342,0,.66,.242,.841,.64l1.164,2.56,1.164-2.56c.181-.398,.499-.64,.841-.64,.516,0,.945,.295,.988,1Z"/>
</svg>
