<svg id="Layer_1" viewBox="0 0 24 24" xmlns="http://www.w3.org/2000/svg" data-name="Layer 1"><path d="m2 12h6c1.105 0 2-.895 2-2v-6h-1.5v-.5c0-1.93-1.57-3.5-3.5-3.5s-3.5 1.57-3.5 3.5v.5h-1.5v6c0 1.105.895 2 2 2zm2-8.5c0-.551.449-1 1-1s1 .449 1 1v.5h-2zm0 3.5h2v2h-2zm20 5v12h-12c-4.406 0-8.45-2.408-10.554-6.284-.709-1.307-1.167-2.743-1.352-4.221.569.312 1.212.505 1.906.505h1.235c.181.796.459 1.568.848 2.284 1.578 2.909 4.612 4.716 7.917 4.716h9v-9c0-4.963-4.037-9-9-9-.008 0-.017.001-.025.001-.076-1.073-.391-2.079-.896-2.964.304-.023.611-.037.922-.037 6.617 0 12 5.383 12 12z"/></svg>