<?xml version="1.0" encoding="UTF-8"?>
<svg xmlns="http://www.w3.org/2000/svg" id="Layer_1" data-name="Layer 1" viewBox="0 0 24 24">
  <path d="m23.971,1.416l-.081-1.439-1.44.023c-5.626.09-8.806,3.165-10.449,6.478C10.357,3.165,7.177.09,1.551,0L.11-.023.029,1.416c-.22,3.919.784,7.005,2.983,9.174,2.393,2.36,5.589,2.978,7.487,3.126v10.284h3v-10.284c1.898-.148,5.094-.766,7.487-3.126,2.199-2.168,3.203-5.255,2.983-9.174ZM5.104,8.44c-1.273-1.264-1.973-3.047-2.087-5.315,5.12.794,6.743,5.129,7.254,7.553-1.462-.171-3.61-.694-5.167-2.238Zm13.791,0c-1.558,1.545-3.706,2.067-5.167,2.238.511-2.426,2.136-6.759,7.254-7.553-.114,2.268-.813,4.051-2.087,5.315Z"/>
</svg>
