<svg id="Layer_1" viewBox="0 0 24 24" xmlns="http://www.w3.org/2000/svg" data-name="Layer 1"><path d="m10.936 10c0-1.105.895-2 2-2s2 .895 2 2-.895 2-2 2-2-.895-2-2zm-5.628-2h-4.871v-6c0-1.105.895-2 2-2l5 .002c1.1 0 2 .901 1.999 2.001l-.002 6.772c0 .638-.524 1.088-1.089 1.088-.196 0-.397-.054-.583-.173zm-1.872-3h3v-2h-2.999v2zm19 7.5c0-1.217-.238-2.377-.657-3.447l1.784-1.037-1.508-2.594-1.79 1.041c-1.441-1.746-3.497-2.96-5.829-3.332v-2.131h-3v2.12s0 0 0 0v3.045c.481-.116.988-.158 1.5-.171v.007c3.584 0 6.5 2.916 6.5 6.5s-2.916 6.5-6.5 6.5c-3.622 0-6.568-2.916-6.568-6.5 0-.43.044-.85.124-1.257l-1.806-1.243h-.974c-.218.798-.345 1.634-.345 2.5 0 1.204.236 2.352.649 3.412l-1.844 1.072 1.508 2.594 1.848-1.074c1.455 1.766 3.539 2.995 5.907 3.367v2.129h3v-2.13c2.332-.372 4.388-1.586 5.829-3.332l1.79 1.041 1.508-2.594-1.784-1.037c.419-1.07.657-2.23.657-3.447zm-9.5 4.5c1.572 0 2.956-.771 3.83-1.944.07-1.102-.8-2.062-1.914-2.056h-3.833c-1.114-.005-1.984.955-1.914 2.056.874 1.173 2.259 1.944 3.83 1.944z"/></svg>