<?xml version="1.0" encoding="UTF-8"?>
<svg xmlns="http://www.w3.org/2000/svg" id="Layer_1" data-name="Layer 1" viewBox="0 0 24 24">
  <path d="m21,16h-4v-4c0-1.654-1.346-3-3-3h-4c-1.654,0-3,1.346-3,3v1H3c-1.654,0-3,1.346-3,3v8h24v-5c0-1.654-1.346-3-3-3Zm-11-4h4v9h-4v-9Zm-7,4h4v5H3v-5Zm18,5h-4v-2h4v2ZM10.427,3.971l-1.437-1.391,2.499-2.58h1.51v7h-2v-3.62l-.573.591Zm-4.427,7.029H0v-1c0-1.283,1.221-1.965,2.298-2.565.758-.423,1.702-.95,1.702-1.435,0-.552-.449-1-1-1s-1,.448-1,1H0c0-1.654,1.346-3,3-3s3,1.346,3,3c0,1.515-1.261,2.35-2.405,3h2.405v2Zm15.5,3h-3.5v-2h3.5c.276,0,.5-.225.5-.5s-.224-.5-.5-.5h-1.5v-2h1c.276,0,.5-.225.5-.5s-.224-.5-.5-.5h-3v-2h3c1.378,0,2.5,1.121,2.5,2.5,0,.424-.107.824-.294,1.175.488.456.794,1.105.794,1.825,0,1.379-1.122,2.5-2.5,2.5Z"/>
</svg>
