<?xml version="1.0" encoding="UTF-8"?>
<svg xmlns="http://www.w3.org/2000/svg" id="Layer_1" data-name="Layer 1" viewBox="0 0 24 24">
  <path d="M14,12c0,1.105-.895,2-2,2s-2-.895-2-2,.895-2,2-2,2,.895,2,2Zm1.167-2h5.833l-2.439-2.439,5.404-5.404L21.843,.036l-5.404,5.404-2.439-2.439v5.833c0,.644,.522,1.167,1.167,1.167ZM2.157,.036L.036,2.157,5.439,7.561l-2.439,2.439h5.833c.644,0,1.167-.522,1.167-1.167V3l-2.439,2.439L2.157,.036ZM21,14h-5.833c-.644,0-1.167,.522-1.167,1.167v5.833l2.439-2.439,5.404,5.404,2.121-2.121-5.404-5.404,2.44-2.44Zm-12.167,0H3l2.44,2.44L.036,21.844l2.121,2.121,5.404-5.404,2.439,2.439v-5.833c0-.644-.522-1.167-1.167-1.167Z"/>
</svg>
