<?xml version="1.0" encoding="UTF-8"?>
<svg xmlns="http://www.w3.org/2000/svg" id="Layer_1" data-name="Layer 1" viewBox="0 0 24 24">
  <path d="M12,10c1.657,0,3,1.343,3,3s-1.343,3-3,3-3-1.343-3-3,1.343-3,3-3Zm10,0h-3v5.484l-3.789,1.516h-6.422l-3.789-1.516v-5.484H2v7.516l5,2v4.484h3v-4h4v4h3v-4.484l5-2v-7.516ZM5.964,6.787l1.636-1.636,1.899,2.85,.5-.5-.869-5.975c-.108-.532-.765-.73-1.149-.346l-1.626,1.626L5,0,2.712,2.288l2.15,4.335c.22,.41,.773,.492,1.102,.163Zm10.435-1.636l1.636,1.636c.329,.329,.883,.247,1.102-.163l2.15-4.335-2.288-2.288-1.357,2.804-1.626-1.626c-.384-.384-1.041-.186-1.149,.346l-.869,5.975,.5,.5,1.899-2.85Z"/>
</svg>
