<?xml version="1.0" encoding="UTF-8"?>
<svg xmlns="http://www.w3.org/2000/svg" id="Layer_1" data-name="Layer 1" viewBox="0 0 24 24">
  <path d="M23.997-.007l-2.113,.947c-.023,.01-2.396,1.06-4.883,1.06-1.211,0-2.79-.476-4.317-.936-1.735-.523-3.53-1.064-5.183-1.064C4.25,0,.856,2.067,.713,2.155L0,2.595V24H3.001v-4.629c.981-.521,2.84-1.371,4.5-1.371,1.211,0,2.79,.476,4.317,.937,1.735,.522,3.53,1.063,5.183,1.063,3.203,0,6.086-1.523,6.207-1.589l.792-.424-.003-17.994Zm-2.997,16.132c-.894,.364-2.426,.875-3.999,.875-1.211,0-2.79-.476-4.317-.937-1.735-.522-3.53-1.063-5.183-1.063-1.601,0-3.234,.516-4.5,1.053V4.319c.989-.505,2.842-1.319,4.5-1.319,1.211,0,2.79,.476,4.317,.936,1.735,.523,3.53,1.064,5.183,1.064,1.485,0,2.902-.283,3.999-.587v11.712ZM13.001,7c0,.552-.448,1-1,1s-1-.448-1-1,.448-1,1-1,1,.448,1,1Zm0,6c0,.552-.448,1-1,1s-1-.448-1-1,.448-1,1-1,1,.448,1,1Zm-2.765-2.059c.26,.487,.076,1.093-.412,1.353-.487,.26-1.093,.076-1.353-.412-.26-.487-.076-1.093,.412-1.353,.487-.26,1.093-.076,1.353,.412Zm5.294-2.824c.26,.487,.076,1.093-.412,1.353s-1.093,.076-1.353-.412c-.26-.487-.076-1.093,.412-1.353,.487-.26,1.093-.076,1.353,.412Zm0,3.765c-.26,.487-.866,.672-1.353,.412-.487-.26-.672-.866-.412-1.353s.866-.672,1.353-.412c.487,.26,.672,.866,.412,1.353Zm-5.294-2.824c-.26,.487-.866,.672-1.353,.412s-.672-.866-.412-1.353c.26-.487,.866-.672,1.353-.412s.672,.866,.412,1.353Z"/>
</svg>
