<?xml version="1.0" encoding="UTF-8"?>
<svg xmlns="http://www.w3.org/2000/svg" id="Layer_1" data-name="Layer 1" viewBox="0 0 24 24">
  <path d="m24.097,17.5c0,2.485-2.015,4.5-4.5,4.5h-7.597v-3h7.597c.828,0,1.5-.672,1.5-1.5s-.672-1.5-2.5-1.5h-6.097c-2.5,0-4.5-2.019-4.5-4.5,0-2.416,2.009-4.378,4.405-4.481.325,1.081.913,2.102,1.769,2.957l.024.023h-1.602c-.827,0-1.597.673-1.597,1.5s.673,1.5,1.5,1.5h7.097c2.485,0,4.5,2.015,4.5,4.5Zm-19.207-3.5H0v3h2v2H0v3h2v.5c0,.828.672,1.5,1.5,1.5s1.5-.672,1.5-1.5c0,.828.672,1.5,1.5,1.5s1.5-.672,1.5-1.5v-.5h2v-2.782l-.918-2.354c-.679-1.74-2.324-2.864-4.192-2.864Zm.11,3.004c.577.041,1.074.405,1.287.951l.408,1.045h-1.695v-1.996Z"/>
  <path d="m22.535,1.464c-.944-.944-2.2-1.464-3.535-1.464s-2.591.52-3.536,1.464c-1.949,1.95-1.949,5.122.012,7.083l3.524,3.447,3.535-3.458c.945-.944,1.465-2.2,1.465-3.536s-.52-2.591-1.465-3.536Zm-3.535,5.536c-1.105,0-2-.895-2-2s.895-2,2-2,2,.895,2,2-.895,2-2,2Z"/>
</svg>
