<svg id="Layer_1" viewBox="0 0 24 24" xmlns="http://www.w3.org/2000/svg" data-name="Layer 1"><path d="m14.816 13h3.094c-.478 2.833-2.942 5-5.91 5-3.309 0-6-2.691-6-6s2.691-6 6-6c1.367 0 2.662.472 3.706 1.294l1.294-1.294v4.231c0 .425-.344.769-.769.769h-4.231l1.55-1.55c-.463-.281-.992-.45-1.55-.45-1.654 0-3 1.346-3 3s1.346 3 3 3c1.302 0 2.402-.839 2.816-2zm9.184-1c0 6.617-5.383 12-12 12h-12v-12c0-6.617 5.383-12 12-12s12 5.383 12 12zm-3 0c0-4.962-4.038-9-9-9s-9 4.038-9 9v9h9c4.962 0 9-4.038 9-9z"/></svg>