<?xml version="1.0" encoding="UTF-8"?>
<svg xmlns="http://www.w3.org/2000/svg" id="Layer_1" data-name="Layer 1" viewBox="0 0 24 24">
  <path d="m13.5,0c-1.202,0-2.332.468-3.182,1.318-1.08,1.08-1.488,2.737-1.065,4.327l.445,1.668c-.646.461-1.277.986-1.873,1.582l-3.638,3.642c-.184.185-.399.212-.512.212-.111,0-.327-.027-.512-.212-.282-.283-.282-.742,0-1.026l2.69-2.695-2.123-2.119-2.689,2.694c-1.452,1.452-1.452,3.815,0,5.268,1.189,1.189,3.127,1.373,4.547.552l.54.54-2.923,2.923,2.121,2.121,2.923-2.923.558.558c-.809,1.422-.609,3.268.602,4.481.727.725,1.681,1.088,2.634,1.088s1.907-.363,2.633-1.088l2.696-2.691-2.119-2.123-2.697,2.691c-.283.283-.743.282-1.024,0-.283-.282-.283-.743,0-1.027l3.572-3.587c.596-.596,1.12-1.227,1.581-1.872l1.669.445c.414.11.833.164,1.246.164,1.168,0,2.282-.431,3.08-1.229.851-.85,1.318-1.979,1.318-3.182V0h-10.5Zm-.518,14.055l-2.149,2.157-3.04-3.04,2.154-2.157c2.092-2.092,4.812-3.122,6.648-3.611-.489,1.837-1.521,4.558-3.613,6.65Zm8.018-3.555c0,.4-.156.777-.439,1.061-.322.32-.885.433-1.433.288l-.876-.234c1.442-3.063,1.725-5.801,1.741-5.971l.174-1.811-1.811.174c-.17.016-2.908.299-5.971,1.741l-.234-.875c-.146-.55-.033-1.112.288-1.434.283-.283.66-.439,1.061-.439h7.5v7.5Z"/>
</svg>
