<svg id="Layer_1" viewBox="0 0 24 24" xmlns="http://www.w3.org/2000/svg" data-name="Layer 1"><path d="m9 0c-3.309 0-6 2.691-6 6s2.691 6 6 6 6-2.691 6-6-2.691-6-6-6zm0 9c-1.654 0-3-1.346-3-3s1.346-3 3-3 3 1.346 3 3-1.346 3-3 3zm9 7c0 .379.271.698.644.761l3.041.506c1.342.224 2.315 1.374 2.315 2.733 0 1.654-1.346 3-3 3v1h-2v-1c-1.654 0-3-1.346-3-3h2c0 .552.449 1 1 1h2c.551 0 1-.448 1-1 0-.379-.271-.698-.644-.761l-3.041-.506c-1.342-.224-2.315-1.374-2.315-2.733 0-1.654 1.346-3 3-3v-1h2v1c1.654 0 3 1.346 3 3h-2c0-.552-.449-1-1-1h-2c-.551 0-1 .448-1 1zm-5-2 1.346.208c-.216.558-.346 1.159-.346 1.792v1.278c-.295-.172-.634-.278-1-.278h-8c-1.103 0-2 .897-2 2v5h-3v-5c0-2.757 2.243-5 5-5zm5.5-7h-2.5l3.2-3.2c.442-.442 1.158-.442 1.6 0l3.2 3.2h-2.5v3h-3z"/></svg>