<?xml version="1.0" encoding="UTF-8"?>
<svg xmlns="http://www.w3.org/2000/svg" id="Layer_1" data-name="Layer 1" viewBox="0 0 24 24">
  <path d="m15.846,17.406l-5.059,6.596h-1.377l1.41-4.002h-1.898c-.51,0-.923-.414-.922-.924,0-.09.013-.18.039-.266l2.696-6.81h3.765l-2,4h2.591c.5,0,.906.406.905.906,0,.178-.052.351-.15.499Zm5.878-3.817c.212-.487.329-1.025.329-1.589,0-1.598-.941-2.98-2.299-3.62.159-.43.245-.895.245-1.38,0-2.191-1.771-3.978-3.958-4-1.003-1.601-2.714-3-4.542-3h-1.5v1.5c0,.566-.068,1.068-.205,1.5h-1.795c-2.206,0-4,1.794-4,4,0,.493.09.965.254,1.402-1.333.649-2.254,2.018-2.254,3.598,0,.555.114,1.084.319,1.565-1.382.769-2.319,2.244-2.319,3.935,0,2.481,2.019,4.5,4.5,4.5h3.495l.048-.136c-1.184-.374-2.043-1.482-2.043-2.788,0-.025.005-.051.005-.076h-1.505c-.827,0-1.5-.673-1.5-1.5s.673-1.5,1.5-1.5h2.5v-3h-1c-.552,0-1-.448-1-1s.448-1,1-1h3v-3h-1c-.552,0-1-.448-1-1s.448-1,1-1h3.575l.441-.703c.312-.495.549-1.045.713-1.646.403.372.79.879,1.046,1.456l.395.893h1.83c.552,0,1,.448,1,1s-.448,1-1,1v3h2.054c.552,0,1,.448,1,1s-.448,1-1,1v3h1.446c.827,0,1.5.673,1.5,1.5s-.673,1.5-1.5,1.5h-2.357l-2.301,3h4.657c2.481,0,4.5-2.019,4.5-4.5,0-1.673-.918-3.135-2.276-3.911Z"/>
</svg>
