<?xml version="1.0" encoding="UTF-8"?>
<svg xmlns="http://www.w3.org/2000/svg" id="Layer_1" data-name="Layer 1" viewBox="0 0 24 24">
  <path d="m21,4h-2.25L15.75,0h-7.5l-3,4h-2.25c-1.654,0-3,1.346-3,3v17h24V7c0-1.654-1.346-3-3-3Zm0,17H3V7h3.75l3-4h4.5l3,4h3.75v14Zm-4.513-11.487l1.513-1.513v5h-5l1.358-1.358c-.562-.716-1.421-1.142-2.358-1.142-1.105,0-2.062.608-2.583,1.5h-3.22c.669-2.584,3.013-4.5,5.803-4.5,1.752,0,3.367.746,4.487,2.013Zm-1.909,5.487h3.201c-.671,2.58-2.992,4.5-5.779,4.5-1.752,0-3.367-.746-4.487-2.013l-1.513,1.513v-5h5l-1.358,1.358c.562.716,1.421,1.142,2.358,1.142,1.105,0,2.06-.607,2.578-1.5Z"/>
</svg>
