<svg id="Layer_1" viewBox="0 0 24 24" xmlns="http://www.w3.org/2000/svg" data-name="Layer 1"><path d="m3 21h8v3h-11v-21c0-1.654 1.346-3 3-3h11.382l5.618 5.664v5.772c-.409.198-.799.449-1.139.788l-1.861 1.861v-6.086h-5v-4.999h-9zm20.361-7.361c-.852-.852-2.234-.852-3.086 0l-7.275 7.275v3.086h3.086l7.275-7.275c.852-.852.852-2.234 0-3.086zm-12.361-4.139v1.5h2.5c.828 0 1.5.672 1.5 1.5v3.586l-1.914 1.914h-8.086v-8.5c0-.828.672-1.5 1.5-1.5h3c.828 0 1.5.672 1.5 1.5zm-2 4.5h-2v2h2zm0-4h-2v2h2zm2 4v2h2v-2z"/></svg>