<?xml version="1.0" encoding="UTF-8"?>
<svg xmlns="http://www.w3.org/2000/svg" id="Layer_1" data-name="Layer 1" viewBox="0 0 24 24">
  <path d="m8,14h2.604l-.353,3h-2.251v-3Zm1.931,7l-.353,3H3c-1.654,0-3-1.346-3-3v-13h3v-1C3,3.14,6.14,0,10,0s7,3.14,7,7v1h3v3H3v10h6.931Zm-3.931-13h8v-1c0-2.206-1.794-4-4-4s-4,1.794-4,4v1Zm15.802,9l-.36,3h2.121l-.235,2h-2.126l-.24,2h-2.012l.24-2h-3.155l-.24,2h-2.012l.24-2h-2.195l.235-2h2.2l.36-3h-2.358l.235-2h2.363l.24-2h2.012l-.24,2h3.155l.24-2h2.012l-.24,2h1.958l-.235,2h-1.963Zm-2.012,0h-3.155l-.36,3h3.155l.36-3Z"/>
</svg>
