<?xml version="1.0" encoding="UTF-8"?>
<svg xmlns="http://www.w3.org/2000/svg" id="Layer_1" data-name="Layer 1" viewBox="0 0 24 24">
  <path d="m19.13,17.009c1.819-1.856,2.87-4.378,2.87-7.009C22,4.486,17.514,0,12,0c-2.632,0-5.153,1.051-7.009,2.87L2.161.04.04,2.161l21.8,21.8,2.121-2.121-4.83-4.83ZM12,3c3.86,0,7,3.14,7,7,0,1.833-.729,3.59-1.991,4.888l-1.415-1.415c.884-.919,1.406-2.161,1.406-3.472,0-2.757-2.243-5-5-5-1.311,0-2.554.523-3.472,1.406l-1.415-1.415c1.298-1.262,3.054-1.991,4.888-1.991Zm-1.352,5.527c.364-.332.845-.527,1.352-.527,1.103,0,2,.897,2,2,0,.507-.195.988-.527,1.352l-2.824-2.824Zm8.351,15.422c0,.017,0,.034,0,.051H5c0-2.053.884-3.9,2.292-5.18-3.147-1.686-5.292-5.007-5.292-8.82,0-.919.123-1.821.364-2.686l2.637,2.637c0,.017,0,.033,0,.05,0,3.86,3.14,7,7,7,.017,0,.033,0,.05,0l6.95,6.95Z"/>
</svg>
