<?xml version="1.0" encoding="UTF-8"?>
<svg xmlns="http://www.w3.org/2000/svg" id="Layer_1" data-name="Layer 1" viewBox="0 0 24 24">
  <path d="m4,6.76c0-2.18,1.747-4.273,3.701-4.741-.558-.509-1.201-1.256-1.201-2.02h4c0,.764-.644,1.51-1.201,2.02,1.954.468,3.701,2.561,3.701,4.741,0,1.237-1.007,2.24-2.25,2.24h-4.5c-1.243,0-2.25-1.003-2.25-2.24Zm19.016,7.707l-8.335,9.532H3.5c-1.93,0-3.5-1.57-3.5-3.5v-6c0-1.93,1.57-3.5,3.5-3.5h8.858c.942,0,1.802.36,2.449.949l2.438-2.679c.698-.768,1.654-1.217,2.69-1.265,1.033-.047,2.029.309,2.797,1.008,1.565,1.427,1.692,3.874.283,5.455Zm-2.304-3.238c-.173-.158-.405-.239-.636-.229-.236.011-.453.113-.612.288l-3.497,3.843c-.218,1.586-1.476,2.885-3.095,3.116l-5.16.737-.424-2.971,5.161-.737c.314-.044.551-.317.551-.635,0-.354-.288-.643-.642-.643H3.5c-.276,0-.5.225-.5.5v6c0,.275.224.5.5.5h9.819l7.447-8.518c.33-.371.302-.928-.055-1.252Zm-4.712-3.54c.831-.817,1.866-1.359,3-1.577v-2.093h2.484l-3.157-3.65c-.443-.494-1.217-.494-1.66,0l-3.183,3.65h2.516v3.669Z"/>
</svg>
