<?xml version="1.0" encoding="UTF-8"?>
<svg xmlns="http://www.w3.org/2000/svg" id="Layer_1" data-name="Layer 1" viewBox="0 0 24 24">
  <path d="m22.607,8.976l-1.607-1.52v-2.456H3v2.458l-1.61,1.524C.508,9.826.002,11.01.002,12.231l-.002,11.769h24v-11.769c0-1.223-.505-2.407-1.393-3.256Zm-5.107-1.976c.83,0,1.5.67,1.5,1.5s-.67,1.5-1.5,1.5-1.5-.67-1.5-1.5.67-1.5,1.5-1.5Zm-5.5,1c1.66,0,3,1.34,3,3s-1.34,3-3,3-3-1.34-3-3,1.34-3,3-3Zm-5.5-1c.83,0,1.5.67,1.5,1.5s-.67,1.5-1.5,1.5-1.5-.67-1.5-1.5.67-1.5,1.5-1.5Zm-3.5,14l.002-8.721,5.11,5.111c1.037,1.036,2.418,1.606,3.888,1.606s2.853-.571,3.89-1.608l5.11-5.111v8.722H3ZM20,3H4V0h16v3Z"/>
</svg>
