<?xml version="1.0" encoding="UTF-8"?>
<svg xmlns="http://www.w3.org/2000/svg" id="Layer_1" data-name="Layer 1" viewBox="0 0 24 24">
  <path d="M18,7.382v-1.382c0-3.309-2.691-6-6-6S6,2.691,6,6v1.382c-2.045,.802-3.5,2.791-3.5,5.118,0,4.72,5.545,8.679,8.523,10.805l.977,.698,.977-.698c2.979-2.126,8.523-6.085,8.523-10.805,0-2.327-1.455-4.316-3.5-5.118ZM12,3c1.654,0,3,1.346,3,3v1.092c-1.178,.19-2.22,.698-3,1.444-.78-.745-1.822-1.254-3-1.444v-1.092c0-1.654,1.346-3,3-3Zm0,17.313c-2.514-1.823-6.5-4.951-6.5-7.813,0-1.378,1.121-2.5,2.5-2.5,1.402,0,2.5,.878,2.5,2h3c0-1.122,1.098-2,2.5-2,1.379,0,2.5,1.122,2.5,2.5,0,2.862-3.986,5.991-6.5,7.813Zm-1.5-6.313h3v3h-3v-3Z"/>
</svg>
