<svg id="Layer_1" viewBox="0 0 24 24" xmlns="http://www.w3.org/2000/svg" data-name="Layer 1"><path d="m21.991 12.588c.076-1.407-1.088-2.592-2.491-2.588-1.381 0-2.5 1.119-2.5 2.5s1.119 2.5 2.5 2.5c.208 0 .408-.033.601-.081l.899.77v5.311h-3v-1.5c0-3.032-2.468-5.5-5.5-5.5h-7c-3.032 0-5.5 2.468-5.5 5.5v4.5h24v-9.689l-2.009-1.722zm-6.991 8.412h-12v-1.5c0-1.379 1.121-2.5 2.5-2.5h7c1.379 0 2.5 1.121 2.5 2.5zm-14.012-7.477 1.088-5.523c-.578.038-1.079-.417-1.077-1v-2c0-.552.448-1 1-1h1.027c1.043-2.37 3.366-4 5.974-4s4.931 1.63 5.974 4h1.026c.552 0 1 .448 1 1v2c.004.61-.538 1.058-1.134 1l.265 1.544c-.685.78-1.114 1.789-1.127 2.906-.476-.169-.97-.301-1.485-.371l-1.004-5.864c-.159-1.103-.802-2.055-1.666-2.631-.849.918-1.849 2.418-4.849 2.418 0 1.654 1.346 3 3 3 .57 0 1.326-.18 1.826-.579l.525 3.085c-.724.311-1.515.495-2.351.495h-3.5c-1.695 0-3.255.572-4.512 1.523z"/></svg>