<?xml version="1.0" encoding="UTF-8"?>
<svg xmlns="http://www.w3.org/2000/svg" id="Layer_1" data-name="Layer 1" viewBox="0 0 24 24" width="512" height="512"><path d="M10.304,5.02l.393,1.961c-1.462,.292-2.972,1.209-4.489,2.727l-1.414-1.414c1.802-1.802,3.655-2.903,5.511-3.273Zm3,1.961c1.462,.292,2.972,1.209,4.489,2.727l1.414-1.414c-1.802-1.802-3.655-2.903-5.511-3.273l-.393,1.961Zm7.083,13.573c2.225-2.176,3.613-5.201,3.613-8.553C24,5.383,18.617,0,12,0S0,5.383,0,12c0,4.771,2.805,8.888,6.846,10.821-.548-.95-.846-2.029-.846-3.155v-.977c-1.836-1.649-3-4.033-3-6.689C3,7.037,7.037,3,12,3s9,4.037,9,9c0,1.625-.454,3.137-1.211,4.454,.087,.058,.328,.266,.383,.322,.995,.994,1.103,2.542,.256,3.679l-.041,.099Zm-2.8-2.364l-1.84,1.84-.985-.985,3.631-3.631c.323-.323,.323-.847,0-1.171-.323-.323-.847-.323-1.171,0l-3.697,3.697-1.002-1.002,3.024-3.024c.323-.323,.323-.847,0-1.171s-.847-.323-1.171,0l-4.377,4.377v-1.119c0-.552-.448-1-1-1s-1,.448-1,1v3.58c0,.811,.186,1.625,.612,2.316,.863,1.401,2.292,2.102,3.722,2.102,1.11,0,2.219-.422,3.064-1.267,0,0,3.424-3.441,3.426-3.47,.24-.324,.228-.777-.066-1.071-.323-.323-.847-.323-1.171,0Zm-9.569-5.011c.309-.108,.636-.179,.982-.179,.646,0,1.246,.205,1.736,.555l2.227-2.227c.576-.576,1.382-.831,2.171-.786-.732-.932-1.857-1.542-3.134-1.542-2.209,0-4,1.791-4,4,0,.061,.015,.118,.018,.179Z"/></svg>
