<svg id="Layer_1" viewBox="0 0 24 24" xmlns="http://www.w3.org/2000/svg" data-name="Layer 1"><path d="m11.996 4.179c.676 1.147 1.486 2.785 1.961 4.688.742-.729 1.654-1.285 2.676-1.592-.425-1.417-.981-2.677-1.531-3.712 1.825.673 3.365 1.924 4.415 3.524 1.751.277 3.269 1.253 4.26 2.636-1.068-5.531-5.939-9.723-11.777-9.723-6.617 0-12 5.383-12 12-.299 6.807 5.196 12.36 12.025 11.999-.634-.838-1.025-1.869-1.025-2.999v-3.116c-.559-1.255-1.061-2.756-1.265-4.384h2.284l.006-.5c.069-.897.325-1.741.721-2.5h-3.012c.324-2.594 1.403-4.868 2.261-6.321zm-3.098-.616c-.94 1.768-1.908 4.182-2.183 6.937h-3.58c.542-3.207 2.781-5.837 5.762-6.937zm-5.763 9.937h3.581c.276 2.752 1.25 5.172 2.189 6.94-2.985-1.099-5.227-3.73-5.769-6.94zm19.865 1.5v-1.5c0-2.481-2.019-4.5-4.5-4.5s-4.5 2.019-4.5 4.5v1.5h-1v6c0 1.654 1.346 3 3 3h5c1.654 0 3-1.346 3-3v-6zm-6-1.5c0-.827.673-1.5 1.5-1.5s1.5.673 1.5 1.5v1.5h-3zm3 7.5h-3v-3h3z"/></svg>