<?xml version="1.0" encoding="UTF-8"?>
<svg xmlns="http://www.w3.org/2000/svg" id="Layer_1" data-name="Layer 1" viewBox="0 0 24 24">
  <path d="M12,0C5.383,0,0,5.383,0,12s5.383,12,12,12,12-5.383,12-12S18.617,0,12,0Zm0,21c-4.962,0-9-4.038-9-9S7.038,3,12,3s9,4.038,9,9-4.037,9-9,9Zm9-9L12,5.5,3,12l9,6.5,9-6.5Zm-9-3.5c1.933,0,3.5,1.567,3.5,3.5,0,.048-.012,.093-.014,.141-2.201-1.83-4.669-2.392-6.004-2.563,.637-.662,1.527-1.078,2.518-1.078Zm-3.5,3.5c0-.171,.027-.334,.05-.498,.448,.016,3.713,.225,6.188,2.655-.641,.812-1.623,1.344-2.738,1.344-1.933,0-3.5-1.567-3.5-3.5Z"/>
</svg>
