<?xml version="1.0" encoding="UTF-8"?>
<svg xmlns="http://www.w3.org/2000/svg" id="Layer_1" data-name="Layer 1" viewBox="0 0 24 24">
  <path d="m22.775,1.735c-.778-.649-1.798-.916-2.795-.737l-5.897,1.072c-.795.145-1.507.499-2.083,1-.576-.501-1.288-.855-2.083-1L4.019.998c-.998-.178-2.016.088-2.794.737-.778.649-1.225,1.604-1.225,2.617v16.524l12,2.182,12-2.182V4.352c0-1.014-.446-1.968-1.225-2.617Zm-12.275,18.001l-7.5-1.364V4.352c0-.158.08-.258.147-.314.055-.046.169-.116.335-.089l5.898,1.072c.648.118,1.12.683,1.12,1.342v13.373Zm10.5-1.364l-7.5,1.364V6.363c0-.659.471-1.224,1.12-1.342l5.897-1.072c.16-.028.28.042.336.088.066.056.146.156.146.314v14.02Zm-12.276-9.376l1.398,1.43-3.113,3.221c-.459.474-1.22.471-1.675-.007l-2.037-2.152,1.387-1.441,1.496,1.581,2.543-2.631Zm12.084.812l-1.793,1.793,1.793,1.793-1.414,1.414-1.793-1.793-1.793,1.793-1.414-1.414,1.793-1.793-1.793-1.793,1.414-1.414,1.793,1.793,1.793-1.793,1.414,1.414Z"/>
</svg>
