<?xml version="1.0" encoding="UTF-8"?>
<svg xmlns="http://www.w3.org/2000/svg" id="Layer_1" data-name="Layer 1" viewBox="0 0 24 24">
  <path d="m24,12c0,6.617-5.383,12-12,12-2.464,0-4.832-.761-6.828-2.147l-2.133,2.133v-5.014c0-.544.441-.986.986-.986h5.014l-1.706,1.706c1.397.849,3.004,1.308,4.667,1.308,4.962,0,9-4.038,9-9h3Zm-6.054-1.701l-1.529.883c.049.266.083.538.083.818s-.033.552-.083.818l1.529.883-1.5,2.598-1.542-.89c-.413.352-.884.629-1.404.815v1.776h-3v-1.776c-.521-.186-.992-.463-1.404-.815l-1.542.89-1.5-2.598,1.529-.883c-.049-.266-.083-.538-.083-.818s.033-.552.083-.818l-1.529-.883,1.5-2.598,1.542.89c.413-.352.884-.629,1.404-.815v-1.776h3v1.776c.521.186.992.463,1.404.815l1.542-.89,1.5,2.598Zm-4.446,1.701c0-.827-.673-1.5-1.5-1.5s-1.5.673-1.5,1.5.673,1.5,1.5,1.5,1.5-.673,1.5-1.5Zm-1.5-9c1.664,0,3.271.459,4.667,1.308l-1.706,1.706h5.014c.544,0,.986-.441.986-.986V.014l-2.133,2.133c-1.997-1.386-4.364-2.147-6.828-2.147C5.383,0,0,5.383,0,12h3C3,7.038,7.038,3,12,3Z"/>
</svg>
