<?xml version="1.0" encoding="UTF-8"?>
<svg xmlns="http://www.w3.org/2000/svg" id="Layer_1" data-name="Layer 1" viewBox="0 0 24 24">
  <path d="M6.177,21c.265,1.147,.823,2.177,1.592,3H0V3C0,1.346,1.346,0,3,0H14.381l5.619,5.665v7.352c-.105-.005-.208-.016-.314-.016-.974,0-1.872,.24-2.686,.631v-5.631h-5V3H3V21h3.177Zm17.823-1.5c0,2.481-1.935,4.5-4.314,4.5-1.6,0-2.835-.917-3.686-1.861-.851,.944-2.086,1.861-3.686,1.861-2.379,0-4.314-2.019-4.314-4.5s1.935-4.5,4.314-4.5c1.6,0,2.835,.917,3.686,1.861,.851-.944,2.086-1.861,3.686-1.861,2.379,0,4.314,2.019,4.314,4.5Zm-9.736,0c-.478-.699-1.228-1.501-1.95-1.501s-1.314,.673-1.314,1.5,.589,1.5,1.314,1.5,1.476-.807,1.95-1.499Zm6.736,0c0-.827-.589-1.5-1.314-1.5s-1.476,.807-1.95,1.499c.478,.699,1.228,1.501,1.95,1.501s1.314-.673,1.314-1.5Z"/>
</svg>
