<?xml version="1.0" encoding="UTF-8"?>
<svg xmlns="http://www.w3.org/2000/svg" id="Layer_1" data-name="Layer 1" viewBox="0 0 24 24">
  <path d="M12,12.683c-1.236-2.759-2.684-6.485-4.152-8.29h-.001C5.932,1.865,3.079,.335,0,.062V3.07c2.155,.263,4.142,1.377,5.481,3.165,.964,1.175,2.177,3.996,3.162,6.265h-1.557l-.698,5.068c-.034,.246-.247,.432-.495,.432H2v3H0v3H5v-3h.893c1.739,0,3.23-1.3,3.467-3.022l.342-2.478h2.298v-2.817Zm10,.317h-7c-1.105,0-2,.895-2,2v4.853l-1.818,2.459c-.488,.686,.064,1.715,.904,1.688h11.914V15c0-1.105-.895-2-2-2Zm0,3.753h-.932c-.121,1.275-.617,2.731-1.607,3.866,.663,.403,1.49,.665,2.539,.665v1.253c-1.456,0-2.595-.418-3.488-1.053-.896,.64-2.049,1.053-3.512,1.053v-1.253c1.049,0,1.881-.258,2.545-.661-.554-.636-.957-1.372-1.223-2.123h1.336c.204,.468,.487,.92,.847,1.325,.818-.92,1.192-2.108,1.303-3.071h-4.808v-1.253h2.873v-1h1.253v1h2.873v1.253Zm-3.48-13.79l.811,3.437h-1.757l.787-3.437c.009-.037,.041-.063,.079-.063s.071,.026,.079,.063Zm3.48-2.963H12.086c-.841-.027-1.392,1.003-.904,1.688l1.818,2.459v6.853h11V2c0-1.105-.895-2-2-2Zm-1.937,9.5l-.401-1.7h-2.409l-.389,1.7h-1.437l1.559-6.804c.267-1.569,2.627-1.535,2.898-.049l1.616,6.853h-1.437Z"/>
</svg>
