<svg id="Layer_1" viewBox="0 0 24 24" xmlns="http://www.w3.org/2000/svg" data-name="Layer 1"><path d="m21 5.5 3 2.5-4 3h-1v-3.243l-1.414 1.329-1.336-1.488 2.251-2.082-2.268-2.083 1.328-1.494 1.438 1.345v-3.284h1l4 3-3 2.5zm.949 7.5h-3.029c-.416 2.89-2.602 5.211-5.42 5.831v-2.608c1.742-.621 3-2.271 3-4.224s-1.258-3.602-3-4.224v3.724c0 .827-.673 1.5-1.5 1.5s-1.5-.673-1.5-1.5v-3.724c-1.742.621-3 2.271-3 4.224s1.258 3.602 3 4.224v2.61c-3.141-.689-5.5-3.49-5.5-6.834 0-3.859 3.14-7 7-7 .882 0 1.722.171 2.5.47v-3.14c-.327-.085-.662-.144-1-.198v-2.131h-3v2.125c-2.539.385-4.766 1.719-6.303 3.638l-1.839-1.062-1.5 2.598 1.838 1.061c-.444 1.13-.696 2.355-.696 3.64s.252 2.51.696 3.64l-1.838 1.061 1.5 2.598 1.839-1.062c1.537 1.919 3.765 3.253 6.303 3.638v2.125h3v-2.123c2.539-.384 4.765-1.722 6.302-3.641l1.841 1.063 1.5-2.598-1.833-1.059c.327-.833.548-1.719.64-2.643z"/></svg>