<?xml version="1.0" encoding="UTF-8"?>
<svg xmlns="http://www.w3.org/2000/svg" id="Layer_1" data-name="Layer 1" viewBox="0 0 24 24" width="512" height="512"><path d="m23.588,10.361l-4.059-7.565c-.594-1.107-1.746-1.796-3.006-1.796H7.496c-1.257,0-2.408.687-3.002,1.79L.415,10.36c-.555,1.03-.554,2.26,0,3.289l4.078,7.562c.595,1.104,1.746,1.789,3.002,1.789h9.028c1.26,0,2.411-.688,3.005-1.796l4.059-7.564c.551-1.026.551-2.253,0-3.278Zm-2.644,1.859l-4.059,7.565c-.071.132-.209.214-.362.214H7.496c-.152,0-.291-.082-.362-.213l-4.078-7.562c-.075-.139-.075-.305,0-.442l4.079-7.569c.071-.132.209-.214.362-.214h9.027c.153,0,.292.082.362.214l4.06,7.566c.074.138.074.302,0,.44Zm-10.444-6.221h3v7h-3v-7Zm0,9h3v3h-3v-3Z"/></svg>
