<?xml version="1.0" encoding="UTF-8"?>
<svg xmlns="http://www.w3.org/2000/svg" id="Layer_1" data-name="Layer 1" viewBox="0 0 24 24">
  <path d="m8,22.5c0,.828-.672,1.5-1.5,1.5s-1.5-.672-1.5-1.5.672-1.5,1.5-1.5,1.5.672,1.5,1.5Zm9.5-1.5c-.828,0-1.5.672-1.5,1.5s.672,1.5,1.5,1.5,1.5-.672,1.5-1.5-.672-1.5-1.5-1.5ZM1.5,18c-.828,0-1.5.672-1.5,1.5s.672,1.5,1.5,1.5,1.5-.672,1.5-1.5-.672-1.5-1.5-1.5Zm10.5,0c-.828,0-1.5.672-1.5,1.5s.672,1.5,1.5,1.5,1.5-.672,1.5-1.5-.672-1.5-1.5-1.5Zm10.5,0c-.828,0-1.5.672-1.5,1.5s.672,1.5,1.5,1.5,1.5-.672,1.5-1.5-.672-1.5-1.5-1.5Zm-1.462-9h2.962v3h-2.223c.134.607.223,1.089.223,1.5,0,2.481-2.019,4.5-4.5,4.5s-4.5-2.019-4.5-4.5c0-.502.034-1.002.085-1.5h-2.27c.109.628.185,1.111.185,1.5,0,2.481-2.019,4.5-4.5,4.5s-4.5-2.019-4.5-4.5c0-.484.043-.989.106-1.5H0v-3h2.803C4.391,4.426,8.325.012,14.5.012c-1.46.128-3.603,2.345-4.096,3.826-.468,1.403-.337,3.39-.09,5.162h3.432c1.314-3.755,4.474-6.916,10.255-8-1.437.622-3.077,2.308-3.205,4.231-.109,1.631.03,2.773.243,3.769Zm-13.038,4.5c0-.496-.275-1.749-.275-1.749-.235-1.313-.535-2.99-.615-4.691-1.45,2.13-2.11,4.66-2.11,6.44,0,.827.673,1.5,1.5,1.5s1.5-.673,1.5-1.5Zm11,0c-.002-.201-.151-.852-.27-1.375-.081-.355-.172-.689-.262-1.024-.261-.969-.544-2.021-.659-3.425-1.483,1.955-1.809,4.215-1.809,5.824,0,.827.673,1.5,1.5,1.5s1.5-.673,1.5-1.5Z"/>
</svg>
