<?xml version="1.0" encoding="UTF-8"?>
<svg xmlns="http://www.w3.org/2000/svg" id="Layer_1" data-name="Layer 1" viewBox="0 0 24 24">
  <path d="m22.363,11.758l-3.863-1.28-3.865,1.28c-.978.325-1.635,1.236-1.635,2.266v3.477c0,3.522,3.561,5.576,4.648,6.12l.786.396.812-.329c1.115-.448,4.754-2.218,4.754-6.187v-3.477c0-1.029-.657-1.94-1.637-2.266Zm-1.363,5.742c0,1.743-1.535,2.76-2.436,3.206-.876-.508-2.564-1.686-2.564-3.206v-3.033l2.5-.829,2.5.829v3.033Zm-6.454,6.5H0V3C0,1.346,1.346,0,3,0h11.382l5.618,5.664v2.336h-8V3H3v18h8.92c.698,1.267,1.688,2.264,2.626,3ZM5,15h6v3h-6v-3Zm6.134-2h-6.134v-3h8.674c-1.289.549-2.219,1.664-2.54,3Z"/>
</svg>
