<?xml version="1.0" encoding="UTF-8"?>
<svg xmlns="http://www.w3.org/2000/svg" id="Layer_1" data-name="Layer 1" viewBox="0 0 24 24">
  <path d="M0,7.5c0-1.381,1.119-2.5,2.5-2.5s2.5,1.119,2.5,2.5-1.119,2.5-2.5,2.5S0,8.881,0,7.5Zm21.5,2.5c1.381,0,2.5-1.119,2.5-2.5s-1.119-2.5-2.5-2.5-2.5,1.119-2.5,2.5,1.119,2.5,2.5,2.5ZM7,24h3v-2h4v2h3v-5H7v5Zm.094-19.975c.363-1.895,1.864-3.458,3.733-3.89,1.521-.35,3.082-.006,4.283,.95,1.201,.955,1.89,2.382,1.89,3.915,0,1.722-.875,3.298-2.341,4.217-.094,.059-.159,.211-.159,.37v2.413h-5v-2.414c0-.165-.077-.316-.201-.395-1.729-1.108-2.595-3.136-2.205-5.166Zm3.823,2.64c.446,.286,.812,.665,1.078,1.103,.265-.439,.627-.814,1.07-1.092,.585-.367,.935-.993,.935-1.676,.024-1.073-.927-2.024-1.998-2-.921-.026-1.792,.675-1.963,1.59-.19,.993,.329,1.723,.878,2.074Zm-3.865,10.335h3.948v-3h-3.052l-4.373-2.748c-.327-.157-.689-.252-1.075-.252-1.381,0-2.5,1.119-2.5,2.5v10.5H5V15.654l2.052,1.346Zm14.448-6c-.441,0-.849,.124-1.208,.324l-4.235,2.676h-3.057v3h3.943l2.057-1.331v8.331h5V13.5c0-1.381-1.119-2.5-2.5-2.5Z"/>
</svg>
