<?xml version="1.0" encoding="UTF-8"?>
<svg xmlns="http://www.w3.org/2000/svg" id="Layer_1" data-name="Layer 1" viewBox="0 0 24 24">
  <path d="m22.781,16.352l1.219-.775c-.775-1.959-2.24-3.438-4.001-4.291C19.985,6.386,19.47.023,15.451.009h-.016C12.094.009,10.859,3.905,10.255,8.259c-.211-.053-.435-.103-.688-.146-2.125-.359-4.273.132-6.035,1.383l.471,1.504c2.691-.245,4.416.306,5.572,1.06-.53,1.465-1.683,3.523-4.168,4.767-2.407,1.037-3.631,2.571-4.042,3.173H0v3h1.234l.514.298c.202.117,1.333.702,3.752.702,4.427,0,7.483-1.221,9.59-2.812-.203-1.335-.587-2.233-1.167-2.922-1.962,1.803-4.766,2.734-8.423,2.734-.39,0-.725-.019-1.008-.047.461-.436,1.168-.97,2.179-1.406,2.682-1.341,4.227-3.343,5.122-5.112,2.506,1.242,4.748,2.459,5.315,6.679l1.392.386c1.058-2.133,1.417-4.466.881-6.489.01-.031.017-.06.027-.091,1.054.182,2.168.606,3.374,1.431Zm-9.731-6.224c.743-6.747,2.112-7.119,2.388-7.119h0c.016,0,1.561.504,1.561,8.485,0,0,0,.006,0,.006,0,.002-.499.991-1.791.998-.617-.039-2.014-.356-2.158-2.371Z"/>
</svg>
