<?xml version="1.0" encoding="UTF-8"?>
<svg xmlns="http://www.w3.org/2000/svg" id="Layer_1" data-name="Layer 1" viewBox="0 0 24 24">
  <path d="M7.882,11.144l1.768-1.768,1.759,1.754,2.591,4.467,4-4-4.475-2.596h-.001s-1.752-1.747-1.752-1.747l1.766-1.766L8.93,.879c-1.133-1.134-3.109-1.135-4.243,0l-1.414,1.414c-1.17,1.169-1.17,3.073,0,4.243l4.608,4.608ZM6.809,3l2.487,2.487-1.414,1.414-2.487-2.487,1.414-1.414Zm17.161,14.803c-.159,2.338-2.092,4.197-4.469,4.197-2.92,0-6.388-.93-9.447-1.751-2.395-.642-4.657-1.249-6.053-1.249-.551,0-1,.449-1,1s.449,1,1,1h1v3h-1c-2.206,0-4-1.794-4-4s1.794-4,4-4c1.792,0,4.127,.626,6.831,1.352,2.88,.773,6.145,1.648,8.669,1.648,.827,0,1.5-.673,1.5-1.5s-.673-1.5-1.5-1.5h-3.075l3-3h.076c2.481,0,4.5,2.019,4.5,4.5,0,.104-.011,.205-.031,.303Z"/>
</svg>
