<?xml version="1.0" encoding="UTF-8"?>
<svg xmlns="http://www.w3.org/2000/svg" id="Layer_1" data-name="Layer 1" viewBox="0 0 24 24">
  <path d="m24,19.12V3.5c0-1.093-.498-2.098-1.366-2.758-.886-.674-2.014-.888-3.098-.587-2.376.661-4.913,1-7.532,1.008-2.627-.008-5.165-.347-7.542-1.008C3.379-.146,2.251.068,1.366.742.498,1.402,0,2.407,0,3.5v15.62l.961.37c1.127.434,2.284.798,3.467,1.092-1.411.248-2.925.418-4.428.418v3c5.202,0,10.308-1.75,12-2.389,1.692.639,6.798,2.389,12,2.389v-3c-1.504,0-3.017-.169-4.428-.418,1.183-.294,2.341-.658,3.467-1.092l.961-.37ZM3,3.5c0-.191.099-.307.182-.369.063-.048.238-.152.478-.085,2.177.605,4.471.967,6.84,1.079v14.333c-2.617-.137-5.13-.612-7.5-1.419V3.5Zm18,13.539c-2.371.808-4.886,1.283-7.5,1.42V4.125c2.366-.112,4.661-.474,6.84-1.079.247-.066.415.037.479.085.083.062.182.178.182.369v13.539Zm-5.5-6.383c1.196-.145,2.364-.366,3.5-.656v3.084c-1.142.26-2.309.455-3.5.585v-3.013Zm-10.5-.656c1.136.29,2.304.511,3.5.656v3.013c-1.191-.13-2.359-.325-3.5-.585v-3.084Zm10.5-4.223c1.196-.145,2.364-.366,3.5-.656v3.084c-1.142.26-2.309.455-3.5.585v-3.013Zm-7,0v3.013c-1.191-.13-2.359-.325-3.5-.585v-3.084c1.136.29,2.304.511,3.5.656Z"/>
</svg>
