<?xml version="1.0" encoding="UTF-8"?>
<svg xmlns="http://www.w3.org/2000/svg" id="Layer_1" data-name="Layer 1" viewBox="0 0 24 24">
  <path d="m19.747,13.076c.339-.684.339-1.469,0-2.152-.797-1.607-3.737-4.924-7.747-4.924s-6.951,3.318-7.747,4.924c-.34.685-.34,1.469,0,2.152.797,1.606,3.738,4.924,7.747,4.924s6.951-3.318,7.747-4.924Zm-7.747,1.924c-2.485,0-4.337-2.152-4.904-3,.566-.847,2.417-3,4.904-3s4.337,2.153,4.904,3c-.567.847-2.418,3-4.904,3Zm2-3c0,1.105-.895,2-2,2s-2-.895-2-2,.895-2,2-2,2,.895,2,2Zm3-6V1l1.939,1.939L21.844.035l2.121,2.121-2.904,2.904,1.939,1.939h-5c-.552,0-1-.448-1-1Zm-14.061-.939L.035,2.156,2.156.035l2.904,2.904,1.939-1.939v5c0,.552-.448,1-1,1H1l1.939-1.939Zm18.121,13.879l2.904,2.904-2.121,2.121-2.904-2.904-1.939,1.939v-5c0-.552.448-1,1-1h5l-1.939,1.939Zm-14.061-.939v5l-1.939-1.939-2.904,2.904L.035,21.844l2.904-2.904-1.939-1.939h5c.552,0,1,.448,1,1Z"/>
</svg>
