<?xml version="1.0" encoding="UTF-8"?>
<svg xmlns="http://www.w3.org/2000/svg" id="Layer_1" data-name="Layer 1" viewBox="0 0 24 24">
  <path d="M16.971,9.211l2.828-2.828c.586-.586,1.536-.586,2.121,0s.586,1.536,0,2.121l-2.828,2.828c-.586,.586-1.536,.586-2.121,0-.586-.586-.586-1.536,0-2.121Zm2.121,3.536c-.586,.586-.586,1.536,0,2.121s1.536,.586,2.121,0l2.347-2.367c.586-.586,.586-1.536,0-2.121-.586-.586-1.536-.586-2.121,0l-2.347,2.368Zm-1.525,8.356l.867,2.872c2.792-.844,4.696-2.75,5.506-5.514l-2.879-.844c-.533,1.819-1.644,2.927-3.494,3.486ZM6.434,2.936L5.566,.064C2.813,.895,.858,2.854,.061,5.579l2.879,.843c.511-1.744,1.719-2.95,3.494-3.485Zm6.866,2.777l2.257-2.16c.586-.586,.586-1.536,0-2.121-.586-.586-1.536-.586-2.121,0l-2.661,2.537s2.364,1.624,2.526,1.744Zm.779,.766c.256,.33,.473,.693,.619,1.097,.155,.428,.219,.87,.227,1.312,.472,.09,.974-.02,1.34-.385l2.828-2.828c.586-.586,.586-1.536,0-2.121-.586-.586-1.536-.586-2.121,0,0,0-2.867,2.895-2.893,2.925Zm-6.881,2.581l2.835,1.74c1.021,.478,2.236,.038,2.714-.982,.478-1.021,.038-2.236-.982-2.714l-2.324-1.627c-1.005-.561-2.244-.661-3.261-.136-.797,.466-1.371,1.211-1.624,2.149l-2.079,6.317-2.475,2.475v4.243l5.489-5.489,1.707-5.975Zm10.481,7.221c-.381-.381-.644-.832-.812-1.309l-2.897,2.897c-.56,.56-1.302,.917-2.088,1.004l-1.963,.218-4.908,4.908h4.242l2.043-2.043,.917-.102c1.461-.163,2.839-.825,3.878-1.864l2.897-2.897c-.477-.168-.928-.431-1.309-.812Z"/>
</svg>
