<svg id="Layer_1" viewBox="0 0 24 24" xmlns="http://www.w3.org/2000/svg" data-name="Layer 1"><path d="m5 11c-2.944 0-5 .822-5 2v8.27c0 1.32 1.313 2.73 5 2.73s5-1.41 5-2.73v-8.27c0-1.178-2.056-2-5-2zm2 3.856v1.88c-.417.138-1.06.264-2 .264-.947 0-1.587-.117-2-.244v-1.9c.601.093 1.273.144 2 .144s1.399-.051 2-.144zm-2 6.144c-1.088 0-1.699-.156-2-.271v-1.917c.558.116 1.215.187 2 .187.771 0 1.435-.07 2-.19v1.92c-.301.114-.912.271-2 .271zm14-10c-2.944 0-5 .822-5 2v8.27c0 1.32 1.313 2.73 5 2.73s5-1.41 5-2.73v-8.27c0-1.178-2.056-2-5-2zm2 3.856v1.88c-.417.138-1.06.264-2 .264-.947 0-1.587-.117-2-.244v-1.9c.601.093 1.273.144 2 .144s1.399-.051 2-.144zm-2 6.144c-1.088 0-1.699-.156-2-.271v-1.917c.558.116 1.215.187 2 .187.771 0 1.435-.07 2-.19v1.92c-.301.114-.912.271-2 .271zm-11-12h-6v-6c0-.552.448-1 1-1h3l2 2zm4-6c-.656 0-1.297.094-1.915.257l-2.345-2.346c1.323-.588 2.766-.911 4.26-.911 3.206 0 6.151 1.456 8.122 3.878l1.878-1.878v5c0 .552-.448 1-1 1h-5l1.993-1.993c-1.403-1.875-3.599-3.007-5.993-3.007z"/></svg>