<svg id="Layer_1" viewBox="0 0 24 24" xmlns="http://www.w3.org/2000/svg" data-name="Layer 1"><path d="m23.484 16.391c-.558 1.064-1.496 1.849-2.644 2.207l-8.382 2.698-3.854 1.241c.252-.631.394-1.317.394-2.038 0-.412-.049-.812-.135-1.197l2.675-.861 8.394-2.702c.788-.228 1.251-1.11.996-1.882l-.145-.464-11.475 3.709-.561 1.752c-.38-1.214-1.171-2.246-2.209-2.936l.761-2.376 3.309-10.327-.467-.146c-.765-.258-1.654.21-1.879.984l-4.186 13.005c1.656.277 2.922 1.707 2.922 3.442 0 1.933-1.567 3.5-3.5 3.5s-3.498-1.567-3.498-3.5c0-.547.136-1.058.36-1.519l-.047-.015 5.091-15.82c.737-2.357 3.267-3.68 5.634-2.94l3.35 1.047-.562 1.754.767.246-2.244 7-.767-.246-1.147 3.578 3.584-1.158-.249-.777 7-2.244.244.76 1.729-.559 1.048 3.355c.359 1.146.249 2.365-.308 3.43z"/></svg>