<svg id="Layer_1" viewBox="0 0 24 24" xmlns="http://www.w3.org/2000/svg" data-name="Layer 1"><path d="m24 15.59v-1.202c0-8.666-8.775-14.388-12.324-14.388h-1.831l3.603 17.941 10.552-2.352zm-3.092-2.388-5.122 1.144-2.148-10.713c2.663 1.36 6.686 4.777 7.271 9.569zm-20.908-8.702c0-1.381 1.119-2.5 2.5-2.5s2.5 1.119 2.5 2.5-1.119 2.5-2.5 2.5-2.5-1.119-2.5-2.5zm24 16.5v3c-1.157 0-2.202-.451-3-1.17-.798.72-1.843 1.17-3 1.17s-2.202-.451-3-1.17c-.798.72-1.843 1.17-3 1.17s-2.202-.451-3-1.17c-.798.72-1.843 1.17-3 1.17s-2.202-.451-3-1.17c-.798.72-1.843 1.17-3 1.17v-3c.651 0 1.201-.419 1.408-1h3.184c.207.581.757 1 1.408 1s1.201-.419 1.408-1l-.259-1.292-4.11-1.483c-1.298-.62-2.237-1.808-2.512-3.175l-.465-2.322c-.166-.825 0-1.665.466-2.364.454-.681 1.206-1.159 2.003-1.335.965-.176 1.717.102 2.441.379l2.127.737 2.541-.51.59 2.941-3.342.67-2.007-.696.885 3.474 3.99 1.432.711 3.544c.207.581.881 1 1.532 1s1.201-.419 1.408-1h3.184c.207.581.757 1 1.408 1s1.201-.419 1.408-1h3.184c.207.581.757 1 1.408 1z"/></svg>