<svg id="Layer_1" viewBox="0 0 24 24" xmlns="http://www.w3.org/2000/svg" data-name="Layer 1"><path d="m5 20 3-3v3c-.04 2.169-1.776 4.012-4 4-2.206 0-4-1.794-4-4v-20h3v20c0 .552.449 1 1 1s1-.448 1-1zm18.232-8c1.367 1.367.615 3.075 0 3.69-.369.369-.799.431-1.167.063l-2.663-2.663c-.24.299-.797.947-1.597 1.64l1.196 1.196-1.199.866c-.491.355-1.168.3-1.596-.128l-.493-.493c-.953.497-2.039.851-3.212.851-4.952-.459-6.62-3.802-7.705-5 1.088-1.229 2.429-4.02 7.023-4.958l1.613-1.697c.332-.332.818-.447 1.265-.307.893.28 2.425.924 3.804 2.303 0 0-.633.658-1.361 1.415 1.129.849 1.927 1.761 2.244 2.152l2.682-2.682c.369-.369.799-.306 1.167.063.615.615 1.367 2.323 0 3.69zm-10.732 2.021c1.448 0 2.902-1.09 3.828-2-.925-.909-2.38-2-3.828-2-.541 0-1.082.152-1.597.391.055.441.097.964.097 1.589 0 .639-.044 1.177-.101 1.629.516.239 1.059.392 1.601.392zm5.5-10.021c1.105 0 2-.895 2-2s-.895-2-2-2-2 .895-2 2 .895 2 2 2zm-8.5 1c.828 0 1.5-.672 1.5-1.5s-.672-1.5-1.5-1.5-1.5.672-1.5 1.5.672 1.5 1.5 1.5z"/></svg>