<svg id="Layer_1" viewBox="0 0 24 24" xmlns="http://www.w3.org/2000/svg" data-name="Layer 1"><path d="m14.547 19.497 2.25 2.25c-1.455.797-3.097 1.24-4.797 1.24-2.001 0-3.863-.597-5.429-1.613l-2.478 2.627-2.188-2.04 2.417-2.575c-1.449-1.735-2.323-3.966-2.323-6.398 0-1.702.443-3.342 1.24-4.797l2.25 2.25c-.314.803-.49 1.663-.49 2.548 0 3.86 3.14 7 7 7 .884 0 1.744-.176 2.547-.49zm6.942-13.836 2.494-1.662c-1.202-1.593-2.709-2.943-4.439-3.955l-1.598 2.53c1.377.788 2.578 1.84 3.543 3.088zm-1.044 12.664 3.515 3.515-2.121 2.121-21.799-21.8 2.121-2.121.922.922c.44-.33.897-.639 1.374-.918l1.598 2.53c-.286.164-.557.348-.826.535l1.434 1.434c1.167-.737 2.473-1.225 3.838-1.433v-3.11h3v3.112c4.803.728 8.5 4.872 8.5 9.875 0 1.9-.55 3.747-1.554 5.338zm-1.446-5.338c0-3.86-3.141-7-7-7-1.096 0-2.16.28-3.127.765l1.627 1.627v-.379h3v3h2.5v2.879l2.235 2.235c.485-.967.765-2.03.765-3.127z"/></svg>