<?xml version="1.0" encoding="UTF-8"?>
<svg xmlns="http://www.w3.org/2000/svg" id="Layer_1" data-name="Layer 1" viewBox="0 0 24 24">
  <path d="m22,21v-6.482c.309-.61.5-1.289.5-2.018,0-2.481-2.019-4.5-4.5-4.5-.024,0-.046.007-.069.007l-1.798-3.596c.227-.422.368-.898.368-1.411,0-1.657-1.343-3-3-3s-3,1.343-3,3c0,.015.004.029.004.044l-3.548,2.956H2.879L.055,8.824l2.121,2.121,1.945-1.945h1.879v1.879l-1.945,1.945,2.121,2.121,2.824-2.824v-3.918l3.086-2.572c.423.228.9.369,1.414.369.024,0,.046-.006.069-.007l1.542,3.085c-.977.826-1.612,2.045-1.612,3.422,0,.729.191,1.409.5,2.018v6.482h-2v3h12v-3h-2Zm-2.5-8.5c0,.827-.673,1.5-1.5,1.5s-1.5-.673-1.5-1.5.673-1.5,1.5-1.5,1.5.673,1.5,1.5Zm-2.5,4.379c.323.074.655.121,1,.121s.677-.047,1-.121v4.121h-2v-4.121Z"/>
</svg>
