<svg id="Layer_1" viewBox="0 0 24 24" xmlns="http://www.w3.org/2000/svg" data-name="Layer 1"><path d="m22 14c0-4.5-2.5-5.5-2.5-5.5 2-.5 3.5.5 3.5.5s0-4-4-5c.5-1 3-1 3-1s-2.205-3-5.5-3c-3.458 0-4.5 2-4.5 2s-1.042-2-4.5-2c-3.295 0-5.5 3-5.5 3s2.5 0 3 1c-4 1-4 5-4 5s1.5-1 3.5-.5c0 0-2.5 1-2.5 5.5 1.437-1.437 2.859-1.042 2.977-1.006-.059 1.797-.417 3.153-.766 4.072-.756.942-1.211 2.136-1.211 3.435v3.5h3v-3.5c0-1.134.759-2.094 1.795-2.398.808.93 2.208 1.898 4.205 1.898s3.397-.969 4.205-1.898c1.036.305 1.795 1.265 1.795 2.398v3.5h3v-3.5c0-1.299-.455-2.492-1.211-3.435-.349-.919-.707-2.274-.766-4.072.118-.036 1.54-.431 2.977 1.006zm-6.123-1.878c-.49.63-1.151 1.125-1.877 1.456v2.479c-.277.354-.902.943-2 .943s-1.729-.595-2-.939v-2.483c-1.775-.807-2.991-2.568-3-4.578 3.64-.293 4.745-3.198 5-4.5.255 1.31 1.268 4.264 5 4.5 0 1.188-.432 2.264-1.123 3.122z"/></svg>