<?xml version="1.0" encoding="UTF-8"?>
<svg xmlns="http://www.w3.org/2000/svg" id="Layer_1" data-name="Layer 1" viewBox="0 0 24 24">
  <path d="M1,6.911V1L3.521,3.521C5.743,1.288,8.754,0,12,0c6.086,0,11.116,4.558,11.886,10.437-.933-.795-2.11-1.309-3.402-1.413-1.232-3.503-4.565-6.024-8.484-6.024-2.434,0-4.693,.966-6.359,2.641l2.359,2.359H2.091c-.602,0-1.09-.487-1.091-1.089ZM24,15v5c0,2.206-1.794,4-4,4s-4-1.794-4-4v-5c0-2.206,1.794-4,4-4s4,1.794,4,4Zm-3,0c0-.551-.448-1-1-1s-1,.449-1,1v5c0,.551,.448,1,1,1s1-.449,1-1v-5Zm-7.984-3.87c-.637-.262-1.354-.124-1.849,.374l-4.081,4.272,2.17,2.072,1.766-1.85-.038,7.994,3,.015,.055-11.372c0-.658-.401-1.25-1.022-1.506Zm-10.016,.87H0c0,5.579,3.833,10.268,9,11.605v-3.13c-3.49-1.239-6-4.565-6-8.475Z"/>
</svg>
