<?xml version="1.0" encoding="UTF-8"?>
<svg xmlns="http://www.w3.org/2000/svg" id="Layer_1" data-name="Layer 1" viewBox="0 0 24 24">
  <path d="M24.043,20.993v3H.043v-3H24.043Zm-12.043-1.993h.004c7.428-.002,11.809-5.533,11.992-5.769l-2.366-1.844c-.036,.046-3.699,4.612-9.627,4.613-5.928,0-9.591-4.567-9.625-4.609L.008,13.231c.183,.235,4.564,5.767,11.992,5.769Zm-4-9l3.372,3.295c.347,.347,.91,.347,1.257,0l3.371-3.295h-2.5V5h-3v5h-2.5Zm10.5-1h3V4h2.5l-3.371-3.295c-.347-.347-.91-.347-1.257,0l-3.372,3.295h2.5v5Zm-16,0h3V4h2.5L4.629,.705c-.347-.347-.91-.347-1.257,0L0,4H2.5v5Z"/>
</svg>
