<?xml version="1.0" encoding="UTF-8"?>
<svg xmlns="http://www.w3.org/2000/svg" id="Layer_1" data-name="Layer 1" viewBox="0 0 24 24" width="512" height="512"><path d="M12,19c-2.158,0-3.975-1.058-4.866-1.688l1.732-2.449c.601,.425,1.806,1.138,3.134,1.138s2.533-.713,3.134-1.138l1.732,2.449c-.891,.631-2.708,1.688-4.866,1.688Zm12-7C24,5.383,18.617,0,12,0S0,5.383,0,12s5.383,12,12,12,12-5.383,12-12Zm-3,0c0,4.963-4.038,9-9,9S3,16.963,3,12,7.038,3,12,3s9,4.037,9,9Zm-10-2s-2,1-3,1-3-1-3-1c0,1.631,1,4,3,4s3-2.369,3-4Zm8,0s-2,1-3,1-3-1-3-1c0,1.631,1,4,3,4s3-2.369,3-4Zm-9.608-3.08l-.784-1.84c-1.673,.713-3.041,1.851-3.953,3.29l1.688,1.07c.685-1.079,1.768-1.975,3.048-2.521Zm9.872,1.324c-.912-1.379-2.251-2.474-3.872-3.164l-.784,1.84c1.259,.536,2.292,1.376,2.988,2.428l1.668-1.104Z"/></svg>
