<?xml version="1.0" encoding="UTF-8"?>
<svg xmlns="http://www.w3.org/2000/svg" id="Layer_1" data-name="Layer 1" viewBox="0 0 24 24">
  <path d="m24,16c0-4.219-3.305-6.968-5.491-8.786-.555-.463-1.08-.899-1.438-1.264-.666-.68-1.033-1.562-1.033-2.483V0H7.962v3.467c0,.922-.367,1.804-1.033,2.483-.357.364-.883.801-1.438,1.264C3.305,9.032,0,11.781,0,15.964c-.077,3.229,2.392,5.937,5.503,6.033h.047s.45,0,.45,0v2.002h3v-2.002h1s0,2.002,0,2.002h3v-2.003h1s0,2.003,0,2.003h3v-2.003h1.497c3.111-.097,5.58-2.804,5.503-5.997Zm-19,.5c0,.899.217,1.748.601,2.498h-.025c-1.461-.058-2.614-1.382-2.576-2.998,0-2.732,2.306-4.728,4.238-6.338-1.036,1.946-2.238,4.319-2.238,6.838Zm5.5,2.498c-1.544,0-2.5-1.297-2.5-2.498,0-1.896,1.085-3.928,2.041-5.72.158-.294.312-.583.459-.866.147.283.301.572.459.866.956,1.792,2.041,3.823,2.041,5.72,0,1.201-.956,2.498-2.5,2.498Zm7.95,0h-3.052c.384-.75.601-1.599.601-2.498,0-2.647-1.328-5.135-2.396-7.133-.377-.707-.734-1.375-.986-1.96-.37-.859-.618-2.596-.618-3.679v-.729h1.038v.467c0,1.712.672,3.34,1.891,4.583.465.474,1.046.958,1.662,1.47,1.964,1.635,4.409,3.668,4.409,6.517.039,1.588-1.126,2.917-2.55,2.962Z"/>
</svg>
