<?xml version="1.0" encoding="UTF-8"?>
<svg xmlns="http://www.w3.org/2000/svg" id="Layer_1" data-name="Layer 1" viewBox="0 0 24 24">
  <path d="M5.5,3c0-1.654,1.346-3,3-3s3,1.346,3,3-1.346,3-3,3-3-1.346-3-3Zm11.516,12h-6.516c-.276,0-.5-.224-.5-.5v-1.5h6v-3h-6v-2h-3v6.5c0,1.93,1.57,3.5,3.5,3.5h4.484l2,5h4.016v-3h-1.984l-2-5ZM24,0h-5V2h2.086l-2.086,2.086v1.914h5v-2h-2.086l2.086-2.086V0Zm-6,6h-2.086l2.086-2.086v-1.914h-5v2h2.086l-2.086,2.086v1.914h5v-2ZM7.5,21c-2.481,0-4.5-2.019-4.5-4.5,0-1.557,.795-2.93,2-3.738v-3.324c-2.908,1.033-5,3.804-5,7.062,0,4.136,3.364,7.5,7.5,7.5,2.872,0,5.369-1.624,6.628-4h-3.835c-.77,.616-1.733,1-2.794,1Z"/>
</svg>
