<?xml version="1.0" encoding="UTF-8"?>
<svg xmlns="http://www.w3.org/2000/svg" id="Layer_1" data-name="Layer 1" viewBox="0 0 24 24">
  <path d="m22.488,5.371l-.62-.542c-.547-2.75-2.957-4.829-5.868-4.829-2.972,0-6,2-6.5,5h3s-.082.033-.216.105c-1.582.85-2.784,2.395-2.784,3.895,0,1.232.5,3,2.5,4.5v-3.5c.281.983,1.391,4.126,4.044,7.001l-9.454.033c-.051-.14-.102-.279-.154-.418-.385-1.034-.717-1.928-.711-3.051.004-.834.784-1.565,1.669-1.565h.796c-.562-1.184-.69-2.272-.69-3,0,0-.312.011-.41.031-1.174.08-2.245.594-3.033,1.393-1.065.57-4.057,2.775-4.057,9.576h3c0-1.285.126-2.33.315-3.195.101.296.207.582.31.857.131.354.264.706.378,1.069l.062,5.269h4.016l-.041-3.971,6.96-.024v3.995h4v-5.842l1.099-5.158h.401c1.93,0,3.5-1.57,3.5-3.5v-2.621l-1.512-1.508Zm-6.396,1.317c.169-.75.603-1.409,1.187-1.889l3.161,2.762.561.561v1.379c0,.275-.224.5-.5.5h-3.42c-.833-.807-1.281-2.01-.988-3.312Z"/>
</svg>
