<?xml version="1.0" encoding="UTF-8"?>
<svg xmlns="http://www.w3.org/2000/svg" id="Layer_1" data-name="Layer 1" viewBox="0 0 24 24">
  <path d="m20,7.5c0,.828-.672,1.5-1.5,1.5s-1.5-.672-1.5-1.5.672-1.5,1.5-1.5,1.5.672,1.5,1.5Zm-7.5,6.5c-.828,0-1.5.672-1.5,1.5s.672,1.5,1.5,1.5,1.5-.672,1.5-1.5-.672-1.5-1.5-1.5Zm10.944-3.879c-.261.788-.565,1.554-.909,2.294.286.273.465.658.465,1.085,0,.828-.672,1.5-1.5,1.5-.127,0-.251-.016-.369-.046-2.005,3.097-4.8,5.606-8.153,7.293.014.082.022.166.022.253,0,.828-.672,1.5-1.5,1.5-.499,0-.941-.244-1.213-.618-.052.018-.104.036-.157.054-1.125.379-2.359.569-3.566.569-2.881,0-5.61-1.083-6.356-3.267-.886-2.606,1.094-5.354,3.812-7-.012-.078-.019-.157-.019-.238,0-.828.672-1.5,1.5-1.5.461,0,.873.208,1.148.535,1.55-.637,2.664-1.357,3.557-2.289.496-.476.928-1.002,1.318-1.609-.32-.275-.523-.682-.523-1.137,0-.828.672-1.5,1.5-1.5.096,0,.19.009.281.027.009-.024.018-.047.026-.071C14.135,2.346,17.546-.879,20.741.206h.002c3.077,1.05,3.964,6.101,2.701,9.915Zm-2.848-.943c.897-2.71.143-5.802-.821-6.132-.091-.031-.19-.046-.297-.046-1.126,0-3.009,1.689-3.854,3.991-.858,2.335-1.906,4.043-3.299,5.376-1.289,1.348-2.998,2.395-5.334,3.252-2.519.926-4.305,3.093-3.945,4.151.333.972,3.426,1.734,6.127.821,5.468-1.84,9.632-6,11.424-11.414Z"/>
</svg>
