<svg id="Layer_1" viewBox="0 0 24 24" xmlns="http://www.w3.org/2000/svg" data-name="Layer 1"><path d="m12 6c1.933 0 3.5 1.567 3.5 3.5s-1.567 3.5-3.5 3.5-3.5-1.567-3.5-3.5 1.567-3.5 3.5-3.5zm9-3v-3h-3v3h-3v3h3v3h3v-3h3v-3zm2.949 8c.027.331.051.662.051 1 0 6.617-5.383 12-12 12s-12-5.383-12-12 5.383-12 12-12c.337 0 .67.016 1 .045v3.015c-.328-.037-.661-.06-1-.06-4.962 0-9 4.038-9 9 0 2.656 1.164 5.04 3 6.689 0-2.189 1.498-3.695 3.5-3.689h5c2.002-.006 3.5 1.5 3.5 3.689 1.836-1.649 3-4.033 3-6.689 0-.338-.022-.671-.059-1zm-11.949 10c1.053 0 2.06-.191 3-.525v-1.975c0-.276-.225-.5-.5-.5h-5c-.276 0-.5.224-.5.5v1.975c.94.334 1.947.525 3 .525z"/></svg>