<svg id="Layer_1" viewBox="0 0 24 24" xmlns="http://www.w3.org/2000/svg" data-name="Layer 1"><path d="m11 21c0 1.13.391 2.162 1.026 3h-12.045l3.555-21.094c.295-1.688 1.745-2.906 3.449-2.906h10.004c1.702 0 3.151 1.217 3.447 2.893l.801 4.72c-.833-.389-1.759-.613-2.737-.613-.137 0-.271.012-.406.021l-.614-3.616c-.041-.23-.248-.404-.491-.404h-10.004c-.244 0-.451.174-.493.414l-2.963 17.585zm-.514-7h1.514v-.5c0-1.289.382-2.488 1.032-3.5h-2.545v4zm3-10h-3v4h3zm10.514 11v6c0 1.654-1.346 3-3 3h-5c-1.654 0-3-1.346-3-3v-6h1v-1.5c0-2.481 2.019-4.5 4.5-4.5s4.5 2.019 4.5 4.5v1.5zm-7 0h3v-1.5c0-.827-.673-1.5-1.5-1.5s-1.5.673-1.5 1.5zm3 3h-3v3h3z"/></svg>