<?xml version="1.0" encoding="UTF-8"?>
<svg xmlns="http://www.w3.org/2000/svg" id="Layer_1" data-name="Layer 1" viewBox="0 0 24 24">
  <path d="m21.993,8.877c0-.042.007-.084.007-.127,0-1.608-.665-3.061-1.732-4.106,1.607-.556,2.401-2.072,2.604-2.963l.127-.558s-1.226-.123-1.534-.123c-1.224,0-2.22.305-2.971.911-.487.393-.779.846-.961,1.239-.414-.095-.842-.15-1.284-.15-1.939,0-3.653.967-4.695,2.442l-.172-.39c-.254-.576-.383-1.424-.383-2.052h1V0H3v3h1c0,.628-.129,1.476-.383,2.052l-.895,2.032c-.267.604-.452,1.23-.572,1.871l-2.151-1.16v12.705c0,1.93,1.57,3.5,3.5,3.5h17c1.93,0,3.5-1.57,3.5-3.5V7.795l-2.007,1.082Zm-16.525-.583l.896-2.033c.423-.96.637-2.214.637-3.261h1c0,1.047.214,2.301.637,3.261l.896,2.034c.181.41.303.837.379,1.273l-.544.354-2.63-1.712-1.584,1.031c.077-.322.178-.639.314-.947Zm-1.968,12.706c-.275,0-.5-.225-.5-.5v-7.68l1.179.636,2.56-1.666,2.63,1.712,2.632-1.713,1,.651v8.06c0,.171.027.335.051.5H3.5Zm10.052-11.78c-.029-.156-.052-.313-.052-.47,0-1.517,1.233-2.75,2.75-2.75s2.75,1.233,2.75,2.75c0,.184-.022.368-.061.551l-1.677-1.091-2.63,1.712-1.08-.702Zm7.448,11.28c0,.275-.225.5-.5.5h-4c-.275,0-.5-.225-.5-.5v-7.889l1.262-.821,2.56,1.666,1.179-.636v7.68Z"/>
</svg>
