<?xml version="1.0" encoding="UTF-8"?>
<svg xmlns="http://www.w3.org/2000/svg" id="Layer_1" data-name="Layer 1" viewBox="0 0 24 24">
  <path d="m19.679,2.59L12,.044l-7.679,2.546c-1.389.46-2.321,1.75-2.321,3.211v6.162c0,6.518,6.852,10.45,8.951,11.5l.984.492,1.021-.411c2.122-.853,9.044-4.21,9.044-11.581v-6.162c0-1.461-.933-2.751-2.321-3.211Zm-.679,9.374c0,5.259-5.031,7.896-6.932,8.702-1.927-.998-7.068-4.098-7.068-8.702v-6.162c0-.167.104-.311.265-.364l6.735-2.233,6.735,2.233c.161.053.265.196.265.364v6.162Zm-7-3.964c-.358,0-.699.062-1.029.15l-2.971-1.65v5.93c.217,2.004,1.938,3.57,4,3.57s3.786-1.569,4-3.576v-5.924l-2.971,1.65c-.33-.088-.671-.15-1.029-.15Z"/>
</svg>
