<?xml version="1.0" encoding="UTF-8"?>
<svg xmlns="http://www.w3.org/2000/svg" id="Layer_1" data-name="Layer 1" viewBox="0 0 24 24">
  <path d="M13.694,10.662c1.439,.755,3.279,.202,4.045-1.279l.922-1.773c.762-1.467,.189-3.282-1.338-4.076L12.191,1.148C7.118-1.489,3.184,1.043,1.813,2.749l-1.169,1.456,6.945,3.436L.374,22.156l3.549,1.844,7.243-14.589,2.528,1.251Zm-2.827-6.822l5.132,2.386-.949,1.761L5.823,3.42c1.142-.501,2.841-.726,5.045,.42Zm10.664,9.165l-6.652-.006-3.879,3.88v3.742l3.379,3.379h7.002l2.586-4.64-2.436-6.355Zm-1.913,7.995h-3.998l-1.621-1.621v-1.258l2.121-2.121,3.348,.003,1.196,3.121-1.046,1.876Z"/>
</svg>
