<?xml version="1.0" encoding="UTF-8"?>
<svg xmlns="http://www.w3.org/2000/svg" id="Layer_1" data-name="Layer 1" viewBox="0 0 24 24">
  <path d="m15.999,15h3c2.757,0,5-2.243,5-5,0-1.076-.351-2.111-1-2.972v-.528c0-1.339-.482-2.567-1.281-3.522.724-.107,1.281-.725,1.281-1.478,0-.828-.672-1.5-1.5-1.5s-1.5.672-1.5,1.5v.107c-.751-.385-1.599-.607-2.5-.607s-1.749.222-2.5.607v-.107c0-.828-.672-1.5-1.5-1.5s-1.5.672-1.5,1.5c0,.753.557,1.371,1.281,1.478-.488.584-.854,1.271-1.068,2.022h-2.805C4.771,5,.999,8.589.999,13c0,.927.175,1.814.481,2.643l-1.48,2.619,2.612,1.476.701-1.241c.499.501,1.065.938,1.685,1.303v4.201h5v-3h4v3h5v-4.098c1.482-.863,2.675-2.172,3.356-3.761-.997.547-2.141.86-3.356.86h-1.031c-.833.62-1.854,1-2.969,1h-5.592c-2.982,0-5.408-2.243-5.408-5s2.426-5,5.408-5h2.035c-.281.627-.443,1.302-.443,2,0,2.757,2.243,5,5,5Zm1.5-11c1.378,0,2.5,1.122,2.5,2.5v1.688l.425.437c.371.381.575.87.575,1.376,0,1.103-.897,2-2,2h-3c-1.103,0-2-.897-2-2,0-.506.204-.995.575-1.376l.425-.437v-1.688c0-1.378,1.122-2.5,2.5-2.5Z"/>
</svg>
