<?xml version="1.0" encoding="UTF-8"?>
<svg xmlns="http://www.w3.org/2000/svg" id="Layer_1" data-name="Layer 1" viewBox="0 0 24 24">
  <path d="m12,9c1.657,0,3,1.343,3,3s-1.343,3-3,3-3-1.343-3-3,1.343-3,3-3Zm-8-.5c0,.828.672,1.5,1.5,1.5s1.5-.672,1.5-1.5-.672-1.5-1.5-1.5-1.5.672-1.5,1.5Zm14.5,5.5c-.828,0-1.5.672-1.5,1.5s.672,1.5,1.5,1.5,1.5-.672,1.5-1.5-.672-1.5-1.5-1.5Zm2.5,4H4v-2.5l-3.65,3.157c-.494.443-.494,1.217,0,1.66l3.65,3.183v-2.5h20V7.666l-3,2.595v7.738ZM3,6.5c0-.276.224-.5.5-.5h16.479v2.5l3.65-3.157c.494-.443.494-1.217,0-1.66l-3.65-3.183v2.5H3.5c-1.93,0-3.5,1.57-3.5,3.5v9.834l3-2.595v-7.238Z"/>
</svg>
