<svg id="Layer_1" viewBox="0 0 24 24" xmlns="http://www.w3.org/2000/svg" data-name="Layer 1"><path d="m17 10c-3.859 0-7 3.141-7 7s3.141 7 7 7 7-3.141 7-7-3.141-7-7-7zm-1.262 11.819-.689-2.148h-2.262c-.451-.71-.72-1.538-.763-2.427l1.82-1.282-.664-2.148c.536-.641 1.217-1.151 2.008-1.46l1.811 1.316 1.811-1.316c.791.31 1.472.819 2.008 1.46l-.664 2.148 1.82 1.282c-.044.89-.312 1.718-.763 2.427h-2.262s-.689 2.149-.689 2.149c-.406.107-.823.181-1.262.181s-.856-.075-1.262-.181zm3.212-2.148h-3.901l-1.205-3.71 3.156-2.293 3.156 2.293-1.205 3.71zm5.05-16.171v4h-1.5c-.81 0-1.467.646-1.495 1.449-.893-.445-1.867-.747-2.898-.874.325-1.542 1.431-2.8 2.893-3.318v-1.257c0-.275-.225-.5-.5-.5h-17c-.275 0-.5.225-.5.5v1.257c1.746.619 3 2.287 3 4.243s-1.254 3.624-3 4.243v1.257c0 .275.225.5.5.5h4.731c-.146.644-.231 1.312-.231 2 0 .338.022.671.059 1h-4.559c-1.93 0-3.5-1.57-3.5-3.5v-4h1.5c.827 0 1.5-.673 1.5-1.5s-.673-1.5-1.5-1.5h-1.5v-4c0-1.93 1.57-3.5 3.5-3.5h17c1.93 0 3.5 1.57 3.5 3.5z"/></svg>