<?xml version="1.0" encoding="UTF-8"?>
<svg xmlns="http://www.w3.org/2000/svg" id="Layer_1" data-name="Layer 1" viewBox="0 0 24 24">
  <path d="M3,21h5v3H0V10.132c0-1.056,.477-2.034,1.308-2.685L9.899,.725c1.237-.969,2.965-.969,4.202,0l8.591,6.723c.825,.645,1.298,1.614,1.305,2.659-1.271-1.298-3.04-2.107-4.997-2.107-.149,0-.294,.013-.441,.022L12.252,3.087c-.148-.116-.356-.116-.505,0L3.157,9.81c-.098,.077-.157,.197-.157,.322v10.868Zm21-6h0c0,2.761-2.239,5-5,5-.705,0-1.375-.149-1.983-.413l-4.412,4.412h-2.604v-2.999h1.978v-2h2v-2.072l.315-.304c-.177-.512-.293-1.052-.293-1.624,0-2.761,2.239-5,5-5s5,2.239,5,5Zm-2.501-1c0-.828-.672-1.5-1.5-1.5s-1.5,.672-1.5,1.5,.672,1.5,1.5,1.5,1.5-.672,1.5-1.5Z"/>
</svg>
