<svg id="Layer_1" viewBox="0 0 24 24" xmlns="http://www.w3.org/2000/svg" data-name="Layer 1"><path d="m10.8 12.626c0 1.199-.975 2.173-2.174 2.173h-.326v1.2h-1.6v-1.2h-.2c-1.201 0-2.189-.925-2.291-2.1h1.62c.086.289.354.5.671.5h2.126c.316 0 .574-.257.574-.574 0-.272-.194-.509-.462-.563l-2.791-.559c-1.013-.203-1.747-1.099-1.747-2.131 0-1.199.975-2.173 2.173-2.173h.327v-1.2h1.6v1.2h.2c1.201 0 2.189.925 2.291 2.1h-1.62c-.086-.289-.354-.5-.671-.5h-2.127c-.316 0-.573.257-.573.574 0 .272.194.509.461.562l2.792.559c1.013.202 1.747 1.099 1.747 2.131zm13.2 7.374h-2.05c.033.162.05.329.05.5 0 1.381-1.119 2.5-2.5 2.5s-2.5-1.119-2.5-2.5c0-.171.018-.338.05-.5h-2.05v1c0 1.657-1.343 3-3 3h-9c-1.657 0-3-1.343-3-3v-21h15v2h2.2c1.381 0 2.637.815 3.198 2.077l3.128 7.038c.314.706.474 1.458.474 2.233v6.651zm-3.036-7h-5.964v4h6v-3.651c0-.118-.02-.233-.036-.349zm-5.964-8v5h4.747l-2.09-4.703c-.08-.18-.26-.297-.457-.297zm-6 15h-3v2h3zm3-2v-15h-9v15z"/></svg>