<?xml version="1.0" encoding="UTF-8"?>
<svg xmlns="http://www.w3.org/2000/svg" id="Layer_1" data-name="Layer 1" viewBox="0 0 24 24">
  <path d="m24.021,0h-9.284l-2.741,5.541L9.261,0H-.021l4.772,9.671c-1.1,1.493-1.752,3.336-1.752,5.329,0,4.963,4.037,9,9,9s9-4.037,9-9c0-1.998-.654-3.845-1.76-5.34L24.021,0ZM4.806,3h2.59l1.716,3.476c-.743.252-1.442.6-2.084,1.027l-2.221-4.503Zm7.194,18c-3.309,0-6-2.691-6-6s2.691-6,6-6,6,2.691,6,6-2.691,6-6,6Zm4.964-13.504c-.641-.426-1.34-.772-2.082-1.023l1.718-3.473h2.589l-2.225,4.496Zm-1.964,9.004c0,1.379-1.121,2.5-2.5,2.5h-2.5v-2h2.5c.275,0,.5-.225.5-.5s-.225-.5-.5-.5h-1.5v-2h1c.275,0,.5-.225.5-.5s-.225-.5-.5-.5h-2v-2h2c1.379,0,2.5,1.121,2.5,2.5,0,.424-.107.824-.294,1.175.488.456.794,1.105.794,1.825Z"/>
</svg>
