<?xml version="1.0" encoding="UTF-8"?>
<svg xmlns="http://www.w3.org/2000/svg" id="Layer_1" data-name="Layer 1" viewBox="0 0 24 24">
  <path d="M20.5,5.003h-1.499v-1.501C19.04,1.62,17.381-.038,15.499,.001L3.5,.005C1.623-.034-.04,1.631,0,3.507l.005,13.622c0,1.032,.838,1.872,1.868,1.872,.175,0,.352-.025,.523-.076l3.604-1.503v4.581h11l4.443,1.863,.142,.051c.176,.054,.358,.081,.542,.081,1.029,0,1.867-.839,1.867-1.871l.006-13.625c0-1.93-1.57-3.5-3.5-3.5ZM3,3.506c.051-.341,.16-.45,.5-.501l12-.004c.345,.051,.449,.155,.5,.5V14.005H6.396l-3.392,1.422-.005-11.921ZM20.995,20.425l-3.392-1.422H9v-1.998h10.001V8.003h1.499c.275,0,.5,.224,.5,.499l-.005,11.923ZM8.5,12h-3.5V5h3.5v1.6h-1.9v1.101h1.9v1.6h-1.9v1.101h1.9v1.6Zm2.493,0h-1.493V5h1.493v.008l1.68,3.547v-3.555h1.493v7h-1.493l-1.68-3.547v3.547Z"/>
</svg>
