<?xml version="1.0" encoding="UTF-8"?>
<svg xmlns="http://www.w3.org/2000/svg" id="Layer_1" data-name="Layer 1" viewBox="0 0 24 24">
  <path d="m7.896,13.329c.63-.644,1.235-1.481,1.235-2.329H3.868c0,.848.605,1.685,1.235,2.329-2.774.758-5.104,3.646-5.104,6.682,0,2.199,1.794,3.988,4,3.988h5c2.206,0,4-1.789,4-3.988,0-3.037-2.33-5.925-5.104-6.682Zm1.104,7.671h-5c-.551,0-1-.443-1-.988,0-1.886,1.799-3.88,3.5-3.88s3.5,1.995,3.5,3.88c0,.545-.449.988-1,.988Zm15-15h-3v14.5c0,1.826-1.5,3.5-3.5,3.5h-4.037c.743-.827,1.257-1.858,1.448-3h2.589c.276,0,.5-.224.5-.5V6h-10v-2c0-.551-.449-1-1-1s-1,.449-1,1v5h-3v-5C3,1.794,4.794,0,7,0h13.5c1.93,0,3.5,1.57,3.5,3.5v2.5Z"/>
</svg>
