<svg id="Layer_1" viewBox="0 0 24 24" xmlns="http://www.w3.org/2000/svg" data-name="Layer 1"><path d="m23 10.5c0-1.93-1.57-3.5-3.5-3.5h-5.402l.422-3h1.564c1.709 0 2.908-.923 2.908-.923-.237-1.69-1.563-3.099-3.329-3.077h-.77c-1.316 0-2.485.784-3 1.958-.122.277-.187.575-.229.875l-.596 4.168h-2.286l-.455-3.168c-.042-.299-.107-.598-.229-.875-.516-1.174-1.684-1.958-3-1.958h-.77c-1.766-.022-3.092 1.387-3.329 3.077 0 0 1.198.923 2.908.923h1.564l.282 2h-2.753v13.5c0 1.93 1.57 3.5 3.5 3.5h8c1.662 0 3.051-1.168 3.406-2.724 1.833-1.598 5.094-5.219 5.094-10.776zm-3.5-.5c.275 0 .5.225.5.5 0 2.615-.936 4.695-2 6.218v-6.718zm-4.5 10.5c0 .275-.225.5-.5.5h-8c-.275 0-.5-.225-.5-.5v-1.5h3v-7h-3v-2h9z"/></svg>