<svg id="Layer_1" viewBox="0 0 24 24" xmlns="http://www.w3.org/2000/svg" data-name="Layer 1"><path d="m24 13.42v-12.841l-7.556 1.889c-4.162-1.632-7.345-2.468-9.444-2.468-3.86 0-7 3.14-7 6.999 0 2.184 1.007 4.137 2.58 5.422l3.727 9.114c.785 2.002 3.264 3.022 5.231 2.154 2.035-.848 3.001-3.194 2.154-5.23l-2.182-5.236c1.446-.405 3.094-.97 4.934-1.692zm-3-3.843-3-.75v-3.657l3-.75zm-14-6.577c1.171 0 3.497.379 8 2.12v3.759c-4.503 1.741-6.829 2.12-8 2.12-2.206 0-4-1.794-4-4s1.794-4 4-4zm3.922 16.612c.212.509-.03 1.096-.538 1.308-.484.218-1.112-.04-1.304-.529l-2.625-6.42c.18.014.361.028.544.028.456 0 .974-.049 1.53-.126l2.392 5.74z"/></svg>