<?xml version="1.0" encoding="UTF-8"?>
<svg xmlns="http://www.w3.org/2000/svg" id="Layer_1" data-name="Layer 1" viewBox="0 0 24 24" width="512" height="512"><path d="M18,6s-2,2-2,3,2,3,2,3c-1.631,0-5-.733-5-3s3.369-3,5-3Zm-7,3c0-2.267-3.369-3-5-3,0,0,2,2,2,3s-2,3-2,3c1.631,0,5-.733,5-3Zm1-6c4.962,0,9,4.038,9,9,0,2.826-1.312,5.349-3.356,7h4.083c1.424-1.973,2.273-4.387,2.273-7C24,5.383,18.617,0,12,0S0,5.383,0,12c0,1.565,.31,3.056,.857,4.427,.492-.264,1.046-.427,1.643-.427,.616,0,1.186,.173,1.689,.452-.752-1.315-1.189-2.832-1.189-4.452C3,7.038,7.038,3,12,3Zm3,16v-2.029c.473,.269,.852,.533,1.063,.7l1.874-2.343c-.298-.238-2.996-2.329-5.937-2.329s-5.639,2.09-5.937,2.329l1.874,2.343c.009-.007,.43-.336,1.063-.699v2.028c0,1.105-.895,2-2,2h-2v3h14v-3h-2c-1.105,0-2-.895-2-2Zm-12.5-1c-.828,0-1.5,.672-1.5,1.5s.672,1.5,1.5,1.5,1.5-.672,1.5-1.5-.672-1.5-1.5-1.5Zm20,3c-.828,0-1.5,.672-1.5,1.5s.672,1.5,1.5,1.5,1.5-.672,1.5-1.5-.672-1.5-1.5-1.5Z"/></svg>
