<?xml version="1.0" encoding="UTF-8"?>
<svg xmlns="http://www.w3.org/2000/svg" id="Layer_1" data-name="Layer 1" viewBox="0 0 24 24">
  <path d="m18,12c-3.314,0-6,2.686-6,6s2.686,6,6,6,6-2.686,6-6-2.686-6-6-6Zm.752,8.44l-.004.004c-.744.744-2.058.746-2.823-.019l-2.182-2.268,1.387-1.441,2.216,2.301,3.614-3.703,1.398,1.43-3.607,3.696ZM4,2.5c0-1.381,1.119-2.5,2.5-2.5s2.5,1.119,2.5,2.5-1.119,2.5-2.5,2.5-2.5-1.119-2.5-2.5Zm8,7c0-1.93-1.57-3.5-3.5-3.5h-4c-1.93,0-3.5,1.57-3.5,3.5v8.5h2v6h3v-6h1v6h3v-6c0-2.026.759-3.87,2-5.279v-3.221Zm-8,0c0-.275.224-.5.5-.5h4c.276,0,.5.225.5.5v5.5h-5v-5.5Z"/>
</svg>
