<?xml version="1.0" encoding="UTF-8"?>
<svg xmlns="http://www.w3.org/2000/svg" id="Layer_1" data-name="Layer 1" viewBox="0 0 24 24">
  <path d="m6,8.984c0,3.309,2.691,6,6,6s6-2.691,6-6v-.984h2v-3h-2c0-1.846-1.012-3.44-2.5-4.306v3.306h-2V.05c-.167-.017-.329-.05-.5-.05h-2c-.171,0-.333.034-.5.05v3.95h-2V.694c-1.488.866-2.5,2.46-2.5,4.306h-2v3h2v.984Zm9,0c0,1.654-1.346,3-3,3s-3-1.346-3-3v-.984h6v.984Zm6,12.516v2.5h-3v-2.5c0-1.378-1.122-2.5-2.5-2.5h-7c-1.378,0-2.5,1.122-2.5,2.5v2.5h-3v-2.5c0-3.033,2.467-5.5,5.5-5.5h7c3.033,0,5.5,2.467,5.5,5.5Z"/>
</svg>
