<svg id="Layer_1" viewBox="0 0 24 24" xmlns="http://www.w3.org/2000/svg" data-name="Layer 1"><path d="m24 18.75c0 2.895-2.355 5.25-5.25 5.25h-.01c.622-.93.856-2.041.708-3.112.899-.295 1.552-1.141 1.552-2.138 0-1.24-1.01-2.25-2.25-2.25h-1.626l-.166-1.312c-.157-1.248-1.214-2.188-2.458-2.188-1.379 0-2.5 1.121-2.5 2.5v2.5h-1.5c-.827 0-1.5.673-1.5 1.5s.673 1.5 1.5 1.5h.033c-.115 1.035.127 2.102.727 3h-.76c-2.481 0-4.5-2.019-4.5-4.5 0-1.958 1.257-3.627 3.006-4.245.128-2.919 2.543-5.255 5.494-5.255 2.319 0 4.343 1.469 5.13 3.573 2.478.42 4.37 2.582 4.37 5.177zm-16.353-6.293c-.985-.62-1.647-1.709-1.647-2.957 0-1.93 1.57-3.5 3.5-3.5 1.474 0 2.732.919 3.247 2.211.563-.134 1.149-.211 1.753-.211.461 0 .911.058 1.355.142-.157-.737-.44-1.428-.825-2.05l2.248-2.248-2.121-2.122-2.252 2.251c-.581-.36-1.222-.63-1.905-.792v-3.181h-3v3.182c-.683.162-1.323.432-1.905.792l-2.252-2.252-2.121 2.122 2.252 2.251c-.359.581-.63 1.222-.792 1.905h-3.182v3h3.183c.165.681.436 1.32.795 1.901l-2.256 2.255 2.121 2.122 3.328-3.327c.109-.511.27-1.029.476-1.494zm7.353 5.546-1.768 1.729c-.976.976-.976 2.559 0 3.536.488.488 1.128.732 1.768.732s1.28-.244 1.768-.732c.976-.976.976-2.559 0-3.536z"/></svg>