<?xml version="1.0" encoding="UTF-8"?>
<svg xmlns="http://www.w3.org/2000/svg" id="Layer_1" data-name="Layer 1" viewBox="0 0 24 24">
  <path d="m11.5,19h-.919l-1.917-3.455c-.529-.953-1.533-1.545-2.623-1.545h-3.541c-1.381,0-2.5,1.119-2.5,2.5v5.5h1.018c-.012.082-.018.165-.018.25,0,.966.784,1.75,1.75,1.75s1.75-.784,1.75-1.75c0-.085-.006-.168-.018-.25h3.036c-.012.082-.018.165-.018.25,0,.966.784,1.75,1.75,1.75s1.75-.784,1.75-1.75c0-.085-.006-.168-.018-.25h2.018v-1.5c0-.828-.672-1.5-1.5-1.5Zm-8.5,0v-2h3.041l1.109,2H3Zm17-9h-3V0h3l4,2.5-4,2.5v5Zm4,7.5c0,2.485-2.015,4.5-4.5,4.5h-4.5v-3h4.5c.828,0,1.5-.672,1.5-1.5s-.672-1.5-1.5-1.5h-6c-2.481,0-4.5-2.019-4.5-4.5s2.019-4.5,4.5-4.5h1.5v3h-1.5c-.827,0-1.5.673-1.5,1.5s.673,1.5,1.5,1.5h6c2.485,0,4.5,2.015,4.5,4.5Z"/>
</svg>
