<?xml version="1.0" encoding="UTF-8"?>
<svg xmlns="http://www.w3.org/2000/svg" id="Layer_1" data-name="Layer 1" viewBox="0 0 24 24">
  <path d="m24,3.5v20.5h-11v-3h8V3.5c0-.275-.225-.5-.5-.5h-11c-.275,0-.5.225-.5.5v7.153c-.725-.906-1.785-1.517-3-1.653V3.5c0-1.93,1.57-3.5,3.5-3.5h11c1.93,0,3.5,1.57,3.5,3.5Zm-13,4.5h8v-3h-8v3Zm0,5h6v-3h-6v3Zm4,4.5c0,1.381,1.119,2.5,2.5,2.5s2.5-1.119,2.5-2.5-1.119-2.5-2.5-2.5-2.5,1.119-2.5,2.5Zm-5,3c0-1.379-1.121-2.5-2.5-2.5h-.952c.685-1.705,1.452-3.785,1.452-4.55,0-1.381-1.119-2.45-2.5-2.45s-2.5,1.069-2.5,2.45c0,.765.767,2.846,1.452,4.55h-.952c-1.379,0-2.5,1.121-2.5,2.5v.5H0v3h11v-3h-1v-.5Z"/>
</svg>
