<?xml version="1.0" encoding="UTF-8"?>
<svg xmlns="http://www.w3.org/2000/svg" id="Layer_1" data-name="Layer 1" viewBox="0 0 24 24">
  <path d="m22.733,9.014c-.766-.698-1.752-1.058-2.795-1.01-1.037.049-1.993.498-2.692,1.266l-2.438,2.68c-.647-.59-1.507-.949-2.449-.949H3.5c-1.93,0-3.5,1.57-3.5,3.5v6c0,1.93,1.57,3.5,3.5,3.5h11.181l8.333-9.531c1.411-1.581,1.284-4.028-.281-5.455Zm-1.967,3.469l-7.447,8.518H3.5c-.276,0-.5-.225-.5-.5v-6c0-.275.224-.5.5-.5h8.858c.354,0,.642.288.642.643,0,.317-.237.591-.551.635l-5.161.737.424,2.971,5.16-.737c1.619-.231,2.876-1.53,3.094-3.115l3.498-3.844c.159-.175.376-.277.612-.288.233-.018.46.07.635.229.356.325.385.881.054,1.252ZM14,0h-3c0,1.66-1.34,3-3,3s-3-1.34-3-3h-3v9h12V0ZM5.5,7c-.83,0-1.5-.67-1.5-1.5s.67-1.5,1.5-1.5,1.5.67,1.5,1.5-.67,1.5-1.5,1.5Zm5,0c-.83,0-1.5-.67-1.5-1.5s.67-1.5,1.5-1.5,1.5.67,1.5,1.5-.67,1.5-1.5,1.5Z"/>
</svg>
