<svg id="Layer_1" viewBox="0 0 24 24" xmlns="http://www.w3.org/2000/svg" data-name="Layer 1"><path d="m9.374 5.171c-2.332.486-3.374 2.143-3.374 5.329v1.5c0 8.055-3.983 11.021-6 12.01v-3.586c.641-.565 1.33-1.411 1.89-2.62l-1.89-1.304 2.642-.999c.118-.544.218-1.121.278-1.764l-2.92-2.274 3-.692c-.01-.361.022-.733.048-1.081l-3.048-3.69 3.737.356c.131-.324.283-.626.45-.915l-2.187-3.441 4.362 1.161c.78-.479 1.681-.82 2.715-1-.146 1.106.002 2.12.297 3.01zm2.626 6.329c0-.011.003-.019.003-.03-.726-.574-2.064-1.142-2.815-1.383-.117.427-.189.894-.189 1.413 0 2.019.656 3.436 1.291 4.806.801 1.729 1.709 3.69 1.709 7.694h3c0-4.665-1.102-7.043-1.987-8.955-.588-1.27-1.013-2.188-1.013-3.545zm11.956 7.201c-.418-1.829-2.295-3.007-4.193-2.631s-3.098 2.163-2.68 3.992c.438 1.917 3.164 3.058 5.01 3.938 1.011-2.02-1.611-3.024-.982-4.279.17-.34.59-.481.939-.315 1.145.546 1.584 1.517 1.584 1.517.327-.653.438-1.722.323-2.222zm-8.956-3.701c0-.064-.006.116 0 0zm2.74-3.105 2.1 2.557 2.318-1.904-2.325-2.831c.308-.711.225-1.562-.303-2.201l-.531-.516v-3.5s-1 .5-1.5 1.5c-.491-1.955-.674-3.856-.5-4-.964.796-2.088 2.024-2.5 3.5-1.999-2-2.496-4.476-2.499-4.5.015.141-2.5 3 .455 6.66-1.376.04-2.597.632-3.455 1.34.205-.075 3.306.901 4.673 2.286l-.006.005c1.47 1.779 1.333 3.481 1.333 4.709l3 .003c0-.503.069-1.77-.26-3.108z"/></svg>