<svg id="Layer_1" viewBox="0 0 24 24" xmlns="http://www.w3.org/2000/svg" data-name="Layer 1"><path d="m10.796 7.265c.512-.651 1.456-.763 2.106-.251l3.143 2.474c.651.512.763 1.456.251 2.106-.512.651-1.456.763-2.106.251l-3.143-2.474c-.651-.512-.763-1.456-.251-2.106zm2.67-1.086 3.143 2.474c.651.512 1.594.4 2.106-.251s.4-1.594-.251-2.106l-3.143-2.474c-.651-.512-1.594-.4-2.106.251-.512.651-.4 1.594.251 2.106zm-4.893 6.336 3.143 2.474c.651.512 1.594.4 2.106-.251s.4-1.594-.251-2.106l-3.143-2.474c-.651-.512-1.594-.4-2.106.251s-.4 1.594.251 2.106zm13.427-10.515c-1.103 0-2 .897-2 2v5.744l1 .761v3.24l-4.724 6.11-13.868-10.546v.002c-.651-.495-1.58-.38-2.087.264-.512.651-.4 1.594.251 2.106.007.005.014.008.021.013l-.002.002 16.237 12.348 7.171-9.275v-10.769c0-1.103-.897-2-2-2z"/></svg>