<?xml version="1.0" encoding="UTF-8"?>
<svg xmlns="http://www.w3.org/2000/svg" id="Layer_1" data-name="Layer 1" viewBox="0 0 24 24">
  <path d="m22.288,6.206c-1.068-.513-2.022-.976-2.617-1.972l4.33-3.569c-.201-.336-.166-.277-.367-.613l-5.632,1.948h0V0C16.51,0,15.283,1.089,15.049,2.512c-2.917,1.197-4.049,4.266-4.049,6.487h-2.506c-1.343,0-2.537.604-3.362,1.541C1.753,11.676,0,14.468,0,19h3c0-2.199.448-3.509,1.094-4.328.182,1.085.585,1.993.952,2.818.176.396.345.774.475,1.144l-.742,5.366h4.828l.5-4h3.894v4h5v-5.79l.365-1.278c.421-1.475.635-2.999.635-4.533v-1.075l4-.5v-1.909c0-1.146-.666-2.207-1.712-2.709Zm-5.288,2.47v3.724c0,1.254-.175,2.502-.52,3.708l-.255.893h-8.121c-.104-.249-.212-.491-.318-.73-.425-.954-.792-1.778-.792-2.773.001-.825.674-1.497,1.5-1.497h5.506v-3c0-.367.085-3.289,2.739-3.892.739,1.658,1.942,2.575,3.089,3.214l-2.829.354Z"/>
</svg>
