<?xml version="1.0" encoding="UTF-8"?>
<svg xmlns="http://www.w3.org/2000/svg" id="Layer_1" data-name="Layer 1" viewBox="0 0 24 24">
  <path d="M4,2.5c0-1.381,1.119-2.5,2.5-2.5s2.5,1.119,2.5,2.5-1.119,2.5-2.5,2.5-2.5-1.119-2.5-2.5Zm4,5.7c0,2.304,4,5.133,4,5.133,0,0,4-2.829,4-5.133,0-1.215-.895-2.2-2-2.2s-2,.985-2,2.2c0-1.215-.895-2.2-2-2.2s-2,.985-2,2.2Zm15.199,12.8l-1.492-11.936c-.219-1.747-1.712-3.064-3.473-3.064h-.842c.379,.642,.608,1.391,.608,2.2v.8h.234c.252,0,.465,.188,.496,.438l1.07,8.562h-4.602l.678-5.42c-1.037,1.135-2.176,2-2.722,2.386l-.658,.465-.497,3.976-.497-3.976-.658-.465c-.546-.386-1.685-1.251-2.722-2.386l.678,5.42H4.199l1.07-8.562c.031-.249,.244-.438,.496-.438h.234v-.8c0-.809,.229-1.558,.608-2.2h-.842c-1.761,0-3.254,1.317-3.473,3.064L.801,21H3v3h3v-3h1v3h3v-3h4v3h3v-3h1v3h3v-3h2.199ZM17.5,5c1.381,0,2.5-1.119,2.5-2.5s-1.119-2.5-2.5-2.5-2.5,1.119-2.5,2.5,1.119,2.5,2.5,2.5Z"/>
</svg>
