<?xml version="1.0" encoding="UTF-8"?>
<svg xmlns="http://www.w3.org/2000/svg" id="Layer_1" data-name="Layer 1" viewBox="0 0 24 24">
  <path d="m5.05,10l2.95,2.95v11.05h-3v-11h-1.5c-1.93,0-3.5-1.57-3.5-3.5v-4.55l3,3v1.55c0,.276.224.5.5.5h1.55Zm10.95,14h3v-.05l-3-3v3.05Zm8.011-2.11l-2.121,2.121L-.011,2.11,2.11-.011l2.89,2.89V0h3v5.879l2,2V0h3v9.5c0,.402-.087.79-.218,1.161l3.218,3.218V2.501c0-1.096.671-2.027,1.71-2.372,1.026-.34,2.152.015,2.799.884,1.592,2.138,3.49,5.392,3.49,8.753,0,3.447-1.843,6.629-3.405,8.708l3.416,3.416Zm-5.011-6.363c1.043-1.616,2-3.668,2-5.761,0-1.977-.954-4.019-2-5.664v11.424Z"/>
</svg>
