<?xml version="1.0" encoding="UTF-8"?>
<svg xmlns="http://www.w3.org/2000/svg" id="Layer_1" data-name="Layer 1" viewBox="0 0 24 24">
  <path d="m24,20.5c0,1.933-1.567,3.5-3.5,3.5s-3.5-1.567-3.5-3.5,1.567-3.5,3.5-3.5,3.5,1.567,3.5,3.5Zm-9.439-8.061l1.439-1.439v3.889c0,.614-.497,1.111-1.111,1.111h-3.889l1.439-1.439-4.561-4.561H2V0h5.621l2.379,2.379v5.5l4.561,4.561ZM7,3.621l-.621-.621h-1.379v4h2v-3.379Zm8.699,16.091c.401.421.401,1.155,0,1.577l-2.699,2.712v-2h-3v2H2v-10h5.621l2.379,2.379v2.621h3v-2l2.699,2.712Zm-8.699-2.091l-.621-.621h-1.379v4h2v-3.379Zm12-7.621h-5V0h5.621l2.379,2.379v10.621h2l-2.712,2.699c-.421.401-1.155.401-1.577,0l-2.712-2.699h2v-3Zm-2-3h2v-3.379l-.621-.621h-1.379v4Z"/>
</svg>
