<svg id="Layer_1" viewBox="0 0 24 24" xmlns="http://www.w3.org/2000/svg" data-name="Layer 1"><path d="m19.5 8h-1.5v-2h-15v7s.231-.356.572-.805c.575-.755 1.478-1.195 2.428-1.195v-2h9v6.5c0 .275-.225.5-.5.5h-3.5c.24.151.508.337.773.537.773.582 1.227 1.496 1.227 2.463h1.5c1.762 0 3.205-1.306 3.45-3h1.55c2.439 0 4.5-1.995 4.5-4.357 0-2.213-1.767-3.643-4.5-3.643zm0 5h-1.5v-2h1.5c.561 0 1.5.083 1.5.643 0 .71-.715 1.357-1.5 1.357zm-7.5-9h-3v-4h3zm5 0h-3v-4h3zm-10 0h-3v-4h3zm4 14.5s-1.19 1.131-2.672 1.171c1.019 1.076 1.061 2.718 1.061 2.718s-1.641-.042-2.718-1.061c-.04 1.482-1.171 2.672-1.171 2.672s-1.131-1.19-1.171-2.672c-1.076 1.019-2.718 1.061-2.718 1.061s.042-1.641 1.061-2.718c-1.482-.04-2.672-1.171-2.672-1.171s1.19-1.131 2.672-1.172c-1.019-1.076-1.061-2.718-1.061-2.718s1.641.042 2.718 1.061c.04-1.482 1.171-2.672 1.171-2.672s1.131 1.19 1.171 2.672c1.076-1.02 2.718-1.061 2.718-1.061s-.042 1.642-1.061 2.718c1.482.04 2.672 1.172 2.672 1.172zm.188 2.5h9.812v3h-9.571l-.042-1.661c-.003-.113-.031-.648-.2-1.339z"/></svg>