<svg id="Layer_1" viewBox="0 0 24 24" xmlns="http://www.w3.org/2000/svg" data-name="Layer 1"><path d="m8 13c2.757 0 5-2.243 5-5s-2.243-5-5-5-5 2.243-5 5 2.243 5 5 5zm0-7c1.103 0 2 .897 2 2s-.897 2-2 2-2-.897-2-2 .897-2 2-2zm8 14.5v3.5h-3v-3.5c0-1.378-1.122-2.5-2.5-2.5h-.49l-1.152 1.728 1.142 4.272h-4l1.142-4.272-1.152-1.728h-.49c-1.378 0-2.5 1.122-2.5 2.5v3.5h-3v-3.5c0-3.033 2.467-5.5 5.5-5.5h5c3.033 0 5.5 2.467 5.5 5.5zm3.712-14.371c-.689-1.492-1.634-2.844-2.809-4.019l2.121-2.11c1.425 1.425 2.573 3.057 3.411 4.871l-2.724 1.258zm0 11.742 2.724 1.258c-.838 1.814-1.986 3.446-3.411 4.871l-2.121-2.11c1.174-1.175 2.119-2.527 2.809-4.019zm4.288-3.553-1.179 2.748-6.328-2.774c-.305.132-.64.207-.993.207-1.381 0-2.5-1.119-2.5-2.5s1.119-2.5 2.5-2.5c1.265 0 2.3.943 2.466 2.162l6.034 2.656zm-3.601-6.383 2.871-.869c.639 2.125.729 2.81.729 5.056l-3.058-1.339c-.084-.966-.262-1.92-.542-2.849z"/></svg>