<?xml version="1.0" encoding="UTF-8"?>
<svg xmlns="http://www.w3.org/2000/svg" id="Layer_1" data-name="Layer 1" viewBox="0 0 24 24">
  <path d="M18,14c3.314,0,6-2.686,6-6s-2.686-6-6-6-6,2.686-6,6,2.686,6,6,6Zm2.5-9c.828,0,1.5,.672,1.5,1.5s-.672,1.5-1.5,1.5-1.5-.672-1.5-1.5,.672-1.5,1.5-1.5Zm-.793,4.293l1.414,1.414c-.834,.834-1.942,1.293-3.121,1.293s-2.287-.459-3.121-1.293l1.414-1.414c.912,.912,2.502,.912,3.414,0Zm-4.207-4.293c.828,0,1.5,.672,1.5,1.5s-.672,1.5-1.5,1.5-1.5-.672-1.5-1.5,.672-1.5,1.5-1.5Z"/>
  <path d="M6,14c3.314,0,6-2.686,6-6S9.314,2,6,2,0,4.686,0,8s2.686,6,6,6Zm2.5-9c.828,0,1.5,.672,1.5,1.5s-.672,1.5-1.5,1.5-1.5-.672-1.5-1.5,.672-1.5,1.5-1.5Zm-4.207,6.707l-1.414-1.414c.834-.834,1.942-1.293,3.121-1.293s2.287,.459,3.121,1.293l-1.414,1.414c-.912-.912-2.502-.912-3.414,0Zm-.793-6.707c.828,0,1.5,.672,1.5,1.5s-.672,1.5-1.5,1.5-1.5-.672-1.5-1.5,.672-1.5,1.5-1.5Z"/>
  <polygon points="13 18 0 18 0 21 13 21 13 23 16 23 16 16 13 16 13 18"/>
  <rect x="18" y="18" width="6" height="3"/>
</svg>
