<?xml version="1.0" encoding="UTF-8"?>
<svg xmlns="http://www.w3.org/2000/svg" id="Layer_1" data-name="Layer 1" viewBox="0 0 24 24">
  <path d="M23.014,17.468l-5.71,6.532h-3.985l7.447-8.518c.331-.371,.302-.927-.054-1.252-.175-.159-.402-.244-.636-.229-.236,.011-.453,.113-.612,.288l-3.511,3.859c-.225,1.577-1.468,2.87-3.08,3.101l-5.161,.737-.424-2.971,5.161-.737c.314-.044,.551-.317,.551-.635,0-.354-.288-.643-.643-.643H3.5c-.275,0-.5,.225-.5,.5v6.5H0v-6.5c0-1.93,1.571-3.5,3.501-3.5H12.357c.942,0,1.794,.369,2.442,.958l2.447-2.689c.698-.767,1.654-1.217,2.69-1.265,1.037-.049,2.029,.31,2.796,1.008,1.566,1.427,1.692,3.875,.282,5.455ZM6,8h-2v-1.586c1-1.414,2.5-2.415,4.383-2.415C10.615,1.974,13.174,.818,15.224,.079c.689-.248,1.449,.109,1.697,.798,.105,.291,.105,.609,0,.899-.744,2.063-1.947,4.66-3.949,6.874,0,1.85-.972,3.35-2.386,4.35h-1.586v-2l-.488-.488-1.479,1.478-2.023-2.023,1.478-1.479-.488-.488Zm3-1.5c0,.828,.672,1.5,1.5,1.5s1.5-.671,1.5-1.5-.672-1.5-1.5-1.5-1.5,.672-1.5,1.5Z"/>
</svg>
