<?xml version="1.0" encoding="UTF-8"?>
<svg xmlns="http://www.w3.org/2000/svg" id="Layer_1" data-name="Layer 1" viewBox="0 0 24 24">
  <path d="m19.478,17h3.416c-1.901,4.124-6.063,7-10.895,7C5.383,24,0,18.617,0,12S5.383,0,12,0c4.831,0,8.994,2.876,10.895,7h-3.416c-1.617-2.41-4.365-4-7.478-4C7.037,3,3,7.037,3,12s4.037,9,9,9c3.114,0,5.862-1.59,7.478-4Zm2.522-6v-2h-2v2h-2v2h2v2h2v-2h2v-2h-2Zm-8,4h-3v2h3c1.654,0,3-1.346,3-3,0-.911-.416-1.718-1.059-2.268.349-.49.559-1.086.559-1.732,0-1.654-1.346-3-3-3h-2.5v2h2.5c.552,0,1,.448,1,1s-.448,1-1,1h-1.5v2h2c.552,0,1,.448,1,1s-.448,1-1,1Zm-4,2V7h-1.487l-2.517,2.776,1.482,1.344.521-.576v6.456h2Z"/>
</svg>
