<?xml version="1.0" encoding="UTF-8"?>
<svg xmlns="http://www.w3.org/2000/svg" id="Layer_1" data-name="Layer 1" viewBox="0 0 24 24">
  <path d="m11,11l13,4.447-5.816,2.737-2.737,5.816-4.447-13Zm.843,8.643l1.465,4.282c-.43.047-.865.075-1.307.075C5.383,24,0,18.617,0,12S5.383,0,12,0s12,5.383,12,12c0,.442-.028.878-.075,1.308l-2.94-1.006c.003-.101.015-.2.015-.302,0-3.85-2.43-7.143-5.837-8.426,1.033,1.896,2.113,4.537,2.301,7.523l-3.134-1.072c-.408-2.445-1.481-4.559-2.327-5.924-1.069,1.727-2.502,4.649-2.502,7.898l.064.982c.232,2.713,1.345,5.106,2.279,6.661ZM3.126,10.5h3.452c.283-2.74,1.288-5.155,2.253-6.923-2.952,1.114-5.169,3.737-5.706,6.923Zm5.706,9.924c-.966-1.768-1.97-4.184-2.253-6.924h-3.453c.537,3.187,2.754,5.81,5.706,6.924Z"/>
</svg>
