<?xml version="1.0" encoding="UTF-8"?>
<svg xmlns="http://www.w3.org/2000/svg" id="Layer_1" data-name="Layer 1" viewBox="0 0 24 24">
  <path d="m5,4c0-1.105,2-4,2-4,0,0,2,2.895,2,4s-.895,2-2,2-2-.895-2-2Zm19,9v1.5c0,5.252-3.094,8.802-8,9.4l-1.5.1-1.5-.1c-4.905-.598-8-4.148-8-9.4v-1.5h1.5c1.438,0,2.769.278,3.956.779.407-2.132,1.427-4.117,2.983-5.673l1.061-1.061,1.061,1.061c1.556,1.557,2.577,3.542,2.983,5.673,1.188-.501,2.518-.779,3.956-.779h1.5Zm-11.164,7.845c-.562-2.678-2.499-4.18-4.694-4.667.583,3.211,2.851,4.313,4.694,4.667Zm2.889-5.195c-.034-1.465-.445-2.886-1.225-4.104-.78,1.218-1.191,2.639-1.225,4.104.462.456.871.965,1.225,1.517.354-.552.763-1.061,1.225-1.517Zm5.134.527c-2.195.487-4.132,1.99-4.694,4.667,1.844-.354,4.111-1.456,4.694-4.667Zm-16.126,4.822h-1.732v-10.5c0-.276.224-.5.5-.5h6.134c.454-.9,1.024-1.742,1.683-2.52-.512-.298-1.099-.48-1.733-.48H3.5c-1.93,0-3.5,1.57-3.5,3.5v13.5h7.596c-1.154-.794-2.121-1.803-2.864-3Z"/>
</svg>
