<?xml version="1.0" encoding="UTF-8"?>
<svg xmlns="http://www.w3.org/2000/svg" id="Layer_1" data-name="Layer 1" viewBox="0 0 24 24">
  <path d="m1.014,0l1.709,20.787c.148,1.802,1.681,3.213,3.488,3.213h11.459c1.828,0,3.326-1.373,3.486-3.194L22.986,0H1.014Zm18.696,3l-.966,11h-2.336c-.207.581-.757,1-1.408,1s-1.201-.419-1.408-1h-3.184c-.207.581-.757,1-1.408,1s-1.201-.419-1.408-1h-2.417l-.905-11h15.439Zm-2.04,18H6.211c-.258,0-.477-.201-.498-.459l-.27-3.281c.196-.13.382-.274.556-.431.798.72,1.843,1.17,3,1.17s2.202-.451,3-1.17c.798.72,1.843,1.17,3,1.17s2.202-.451,3-1.17c.146.132.301.255.463.367l-.294,3.347c-.023.26-.237.456-.498.456Zm-8.671-12c0-2,3-4.8,3-4.8,0,0,3,2.8,3,4.8,0,1.657-1.343,3-3,3s-3-1.343-3-3Z"/>
</svg>
