<?xml version="1.0" encoding="UTF-8"?>
<svg xmlns="http://www.w3.org/2000/svg" id="Layer_1" data-name="Layer 1" viewBox="0 0 24 24" width="512" height="512"><path d="M16.062,8.329l1.875,2.343-2.5,2h0c-.257,.205-.582,.329-.937,.329-.828,0-1.5-.672-1.5-1.5,0-.474,.22-.896,.563-1.171h0s2.5-2,2.5-2Zm-7.5,4.342c.257,.206,.582,.329,.937,.329,.828,0,1.5-.672,1.5-1.5,0-.474-.22-.896-.563-1.171h0s-2.5-2-2.5-2l-1.875,2.343,2.5,2h0Zm14.186-6.001c.8,1.607,1.251,3.416,1.251,5.33,0,6.617-5.383,12-12,12S0,18.617,0,12c0-1.913,.451-3.723,1.251-5.33L0,0,4.989,2.268C6.962,.842,9.384,0,12,0s5.038,.842,7.011,2.268L24,0l-1.251,6.67Zm-1.749,5.33c0-4.962-4.037-9-9-9S3,7.038,3,12s4.037,9,9,9,9-4.038,9-9Zm-9,4c-1.861,0-3.489-1.409-3.501-1.418l-1.998,2.237c.1,.089,2.476,2.181,5.499,2.181s5.399-2.092,5.499-2.181l-1.993-2.242c-.017,.014-1.645,1.423-3.506,1.423Z"/></svg>
