<?xml version="1.0" encoding="UTF-8"?>
<svg xmlns="http://www.w3.org/2000/svg" id="Layer_1" data-name="Layer 1" viewBox="0 0 24 24">
  <path d="m20.5,1H3.5C1.57,1,0,2.57,0,4.5v18.5h5v-3h-2v-12h18v5h3V4.5c0-1.93-1.57-3.5-3.5-3.5ZM4.5,6c-.828,0-1.5-.672-1.5-1.5s.672-1.5,1.5-1.5,1.5.672,1.5,1.5-.672,1.5-1.5,1.5Zm5,0c-.828,0-1.5-.672-1.5-1.5s.672-1.5,1.5-1.5,1.5.672,1.5,1.5-.672,1.5-1.5,1.5Zm12.9,9h1.6v8h-1.6v-2h-1.601c-.993,0-1.8-.807-1.8-1.8v-4.2h1.6v4.2c0,.11.09.2.2.2h1.601v-4.4Zm-12,0h1.6v8h-1.6v-2h-1.601c-.993,0-1.8-.807-1.8-1.8v-4.2h1.6v4.2c0,.11.09.2.2.2h1.601v-4.4Zm5.1,0c-1.378,0-2.5,1.122-2.5,2.5v3c0,1.378,1.122,2.5,2.5,2.5s2.5-1.122,2.5-2.5v-3c0-1.378-1.122-2.5-2.5-2.5Zm.9,5.5c0,.496-.404.9-.9.9s-.9-.404-.9-.9v-3c0-.496.404-.9.9-.9s.9.404.9.9v3Z"/>
</svg>
