<svg id="Layer_1" viewBox="0 0 24 24" xmlns="http://www.w3.org/2000/svg" data-name="Layer 1"><path d="m24 10.164v2.557c-.815-.926-1.838-1.663-3-2.134v-.423c0-.155-.07-.298-.191-.394s-8.501-6.652-8.501-6.652c-.182-.142-.434-.142-.615 0l-8.501 6.652c-.122.096-.192.239-.192.394v10.826c1.598.003 6.052.013 7.583-.002.468 1.161 1.202 2.184 2.125 3l-12.707-.002v-13.822c0-1.084.489-2.089 1.344-2.757l8.498-6.651c1.27-.994 3.043-.994 4.314 0l8.5 6.652c.854.668 1.343 1.673 1.343 2.756zm-.054 6.135-1.529.883c.049.266.083.538.083.818s-.034.552-.083.818l1.529.883-1.5 2.599-1.542-.89c-.412.352-.883.629-1.404.815v1.776h-3v-1.776c-.52-.186-.991-.463-1.404-.815l-1.542.89-1.5-2.599 1.529-.883c-.049-.266-.083-.538-.083-.818s.034-.552.083-.818l-1.529-.883 1.5-2.599 1.542.89c.412-.352.883-.629 1.404-.815v-1.776h3v1.776c.52.186.991.463 1.404.815l1.542-.89zm-4.446 1.701c0-.827-.673-1.5-1.5-1.5s-1.5.673-1.5 1.5.673 1.5 1.5 1.5 1.5-.673 1.5-1.5z"/></svg>