<svg id="Layer_1" viewBox="0 0 24 24" xmlns="http://www.w3.org/2000/svg" data-name="Layer 1"><path d="m16.381 0h-11.381c-1.654 0-3 1.346-3 3v21h20v-18.335zm-2.381 3v5h5v4h-14v-9zm-7.761 12h1.255c.002 1.719.005 4.675.006 6h-1.255zm2.968 5.089v-.003l-.42-.462.926-.84.42.463c.286.315.736.504 1.204.504.448 0 .764-.265.81-.521.062-.345-.451-.562-.61-.621-.752-.277-1.43-.58-1.43-.58-.6-.382-.864-.969-.777-1.579.096-.769.805-1.385 1.604-1.45h.672c.807.116 1.383.58 1.415.607l.479.402-.805.957-.476-.399c-.025-.021-.633-.495-1.29-.299-.293.088-.351.282-.362.361-.008.059-.013.206.13.302.016 0 .614.263 1.272.506 1.223.451 1.529 1.336 1.408 2.014-.158.888-.998 1.533-2.002 1.549h-.067c-.815-.008-1.58-.337-2.1-.911zm5.293-1.056-.008-2.066c0-1.086.881-1.967 1.967-1.967 1.109 0 2.012.891 2.012 1.985v.015l.008 2v.015c0 1.094-.902 1.985-2.012 1.985-1.086 0-1.967-.881-1.967-1.967zm2.721-2.033.008 2.015c0 .395-.342.726-.75.733-.402-.007-.725-.333-.724-.736 0-.138-.008-1.929-.008-2.024 0-.403.322-.729.724-.736.408.007.75.339.75.733z"/></svg>