<?xml version="1.0" encoding="UTF-8"?>
<svg xmlns="http://www.w3.org/2000/svg" id="Layer_1" data-name="Layer 1" viewBox="0 0 24 24" width="512" height="512"><path d="m17,6.055v-3.055h2V0H5v3h2v3.055C2.771,7.913,0,11.987,0,16.5c0,2.516.843,4.912,2.437,6.93l.45.57h18.225l.45-.57c1.595-2.018,2.438-4.414,2.438-6.93,0-4.513-2.771-8.587-7-10.445Zm-8.021,2.447l1.021-.344V3h4v5.158l1.021.344c2.284.77,4.089,2.36,5.096,4.339-1.008.507-2.598,1.158-4.117,1.158-1.432,0-2.34-.403-3.391-.871-1.191-.529-2.541-1.129-4.609-1.129-1.487,0-2.948.41-4.136.88,1.003-1.997,2.817-3.602,5.115-4.377Zm10.644,12.498H4.377c-.876-1.314-1.348-2.805-1.376-4.357.626-.378,2.881-1.643,4.999-1.643,1.432,0,2.34.403,3.391.871,1.191.529,2.541,1.129,4.609,1.129,1.856,0,3.672-.638,4.966-1.236.023.243.034.488.034.736,0,1.604-.474,3.146-1.377,4.5Z"/></svg>
