<?xml version="1.0" encoding="UTF-8"?>
<svg xmlns="http://www.w3.org/2000/svg" id="Layer_1" data-name="Layer 1" viewBox="0 0 24 24">
  <path d="m21,0H3C1.346,0,0,1.346,0,3v21h17.471l6.529-6.529V3c0-1.654-1.346-3-3-3Zm-2.752,3.033l1.252,6h-1.252l-.684-3.282-.826,3.282h-1.252l1.511-6h1.25Zm-5.497-.033l.826,3.282.684-3.282h1.252l-1.252,6h-1.25l-1.511-6h1.252Zm-3.741,0h1.25l1.252,6h-1.252l-.684-3.282-.826,3.282h-1.252l1.511-6ZM3,7h1.255s-.005.054-.005.084c0,.394.342.728.75.735.391,0,.749-.302.749-.751V3h1.251v4.084c0,1.094-.891,1.985-2,1.985h0c-1.104-.008-2-.895-2-1.985v-.084Zm18,8h-6v6H3v-10h18v4Z"/>
</svg>
