<?xml version="1.0" encoding="UTF-8"?>
<svg xmlns="http://www.w3.org/2000/svg" id="Layer_1" data-name="Layer 1" viewBox="0 0 24 24">
  <path d="M22.905,10c-.237,1.435-.95,3.441-2.372,5.089,.917,.548,2.047,.911,3.466,.911v2c-2.08,0-3.722-.606-5.005-1.516-1.282,.908-2.919,1.516-4.995,1.516v-2c1.418,0,2.558-.354,3.476-.902-.838-.97-1.432-2.067-1.827-3.098h2.174c.29,.612,.685,1.233,1.182,1.804,1.092-1.254,1.636-2.77,1.859-3.804h-6.864v-2h4v-2h2v2h4v2h-1.095ZM5.117,6L12,.197V23.804l-6.883-5.804H2.5c-1.379,0-2.5-1.122-2.5-2.5v-7c0-1.378,1.121-2.5,2.5-2.5h2.617Zm1.096,3H3v6h3.213l2.787,2.35V6.65l-2.787,2.35Z"/>
</svg>
