<svg id="Layer_1" viewBox="0 0 24 24" xmlns="http://www.w3.org/2000/svg" data-name="Layer 1"><path d="m19 5.478v-.978c0-2.481-2.019-4.5-4.5-4.5h-5c-2.481 0-4.5 2.019-4.5 4.5v.978c-3.135 2.256-5 5.822-5 9.719v8.803h3v-8.803c0-2.098.728-4.065 2-5.64v6.942c0 3.032 2.468 5.5 5.5 5.5h3c3.032 0 5.5-2.468 5.5-5.5v-6.942c1.272 1.575 2 3.541 2 5.64v8.803h3v-8.803c0-3.897-1.865-7.463-5-9.719zm-3 11.022c0 1.379-1.121 2.5-2.5 2.5h-3c-1.379 0-2.5-1.121-2.5-2.5v-12c0-.827.673-1.5 1.5-1.5h5c.827 0 1.5.673 1.5 1.5zm-2.5-3 2 1-2 1-1 2-1-2-2-1 2-1 1-2zm-2.833-6.167-1.667-.833 1.667-.833.833-1.667.833 1.667 1.667.833-1.667.833-.833 1.667z"/></svg>