<?xml version="1.0" encoding="UTF-8"?>
<svg xmlns="http://www.w3.org/2000/svg" id="Layer_1" data-name="Layer 1" viewBox="0 0 24 24">
  <path d="m21.289,10c-.142.547-.349,1.064-.63,1.538l1.912,1.912-2.121,2.121-1.919-1.919c-.475.28-.984.51-1.531.651v2.697h-2.849c.217-1.208.567-3.243.905-5.545.146.022.292.045.444.045,1.657,0,3-1.343,3-3,0-1.56-1.195-2.827-2.717-2.971.093-1.01.159-1.981.192-2.882l1.025.05c.547.141,1.056.372,1.531.651l1.919-1.919,2.121,2.121-1.912,1.912c.281.474.488.991.63,1.538h2.711v3h-2.711ZM0,0h14v1.5c0,5.304-1.756,14.845-2,16.141v2.859c0,1.93-1.57,3.5-3.5,3.5h-3c-1.93,0-3.5-1.57-3.5-3.5v-2.859C1.756,16.345,0,6.804,0,1.5V0Zm9,19h-4v1.5c0,.276.225.5.5.5h3c.275,0,.5-.224.5-.5v-1.5ZM3.043,3c.221,4.286,1.249,10.417,1.708,13h4.498c.459-2.583,1.487-8.714,1.708-13H3.043Z"/>
</svg>
