<?xml version="1.0" encoding="UTF-8"?>
<svg xmlns="http://www.w3.org/2000/svg" id="Layer_1" data-name="Layer 1" viewBox="0 0 24 24">
  <path d="m4.696,18.748c-.438.642-.696,1.416-.696,2.252,0,.266.029.525.078.777-1.504-.649-2.875-1.544-4.078-2.623v-4.549c1.17,1.76,2.789,3.198,4.696,4.143Zm3.304.252c-1.105,0-2,.895-2,2s.895,2,2,2,2-.895,2-2-.895-2-2-2Zm8-14c1.105,0,2-.895,2-2s-.895-2-2-2-2,.895-2,2,.895,2,2,2Zm-2,2c-.782,0-1.512.196-2.172.517.058-.002.113-.017.172-.017,2.228,0,4.065,1.622,4.424,3.748.358.494.576,1.096.576,1.752,0,3.242-2.219,5.969-5.216,6.761.129.392.216.804.216,1.239,0,.681-.186,1.312-.486,1.873,4.796-.734,8.486-4.875,8.486-9.873,0-3.309-2.691-6-6-6Zm5.922-4.777c.05.252.078.511.078.777,0,.836-.258,1.61-.696,2.252,1.907.945,3.526,2.383,4.696,4.143v-4.549c-1.203-1.079-2.574-1.974-4.078-2.623Zm-7.922,14.277c-2.228,0-4.065-1.622-4.424-3.748-.358-.494-.576-1.096-.576-1.752,0-3.242,2.219-5.969,5.216-6.761-.129-.392-.216-.804-.216-1.239,0-.681.186-1.312.486-1.873C7.69,1.861,4,6.002,4,11c0,3.309,2.691,6,6,6,.782,0,1.512-.196,2.172-.517-.058.002-.113.017-.172.017Zm0-2c1.381,0,2.5-1.119,2.5-2.5s-1.119-2.5-2.5-2.5-2.5,1.119-2.5,2.5,1.119,2.5,2.5,2.5Z"/>
</svg>
