<?xml version="1.0" encoding="UTF-8"?>
<svg xmlns="http://www.w3.org/2000/svg" id="Layer_1" data-name="Layer 1" viewBox="0 0 24 24" width="512" height="512"><path d="m20.5,0H3.5C1.57,0,0,1.57,0,3.5v20.5h24V3.5c0-1.93-1.57-3.5-3.5-3.5Zm.5,21H3V3.5c0-.276.224-.5.5-.5h17c.276,0,.5.224.5.5v17.5ZM15,5h3v11.876c0,.951-.613,1.77-1.525,2.037-.202.06-.406.088-.607.088-.707,0-1.377-.354-1.777-.978l-5.091-7.915v8.892h-3V7.125c0-.951.613-1.769,1.525-2.037.911-.267,1.87.089,2.384.888l5.091,7.916V5Z"/></svg>
