<?xml version="1.0" encoding="UTF-8"?>
<svg xmlns="http://www.w3.org/2000/svg" id="Layer_1" data-name="Layer 1" viewBox="0 0 24 24">
  <path d="m24,5.664v16.336h-3v-14h-5V3h-7v8h-1c-.712,0-1.386.154-2,.424V3c0-1.654,1.346-3,3-3h9.382l5.618,5.664ZM2,0C.895,0,0,.895,0,2v12l2,2,2-2V2c0-1.105-.895-2-2-2Zm10.354,17.849l4.661-4.661c-.318-.115-.656-.188-1.014-.188h-8c-.358,0-.696.073-1.014.188l4.661,4.661c.195.195.512.195.707,0Zm2.121,2.121c-.683.683-1.578,1.023-2.475,1.023s-1.792-.341-2.475-1.023l-4.474-4.474c-.028.165-.051.332-.051.505v8h14v-8c0-.173-.023-.34-.051-.505l-4.474,4.474Z"/>
</svg>
