<?xml version="1.0" encoding="UTF-8"?>
<svg xmlns="http://www.w3.org/2000/svg" id="Layer_1" data-name="Layer 1" viewBox="0 0 24 24">
  <path d="m10.5,7c0-1.838-.478-3.683-1.419-5.483L11.739.126c.982,1.877,1.558,3.811,1.716,5.763.136-1.169.532-3.004,1.685-4.217C16.946-.229,19.991.01,19.991.01c0,0,.226,3.203-1.58,5.103-1.604,1.687-4.321,1.866-4.911,1.885v.002h-3Zm10.751-2.634c-.318.754-.765,1.506-1.402,2.165-.136.141-.277.272-.421.397.99,1.445,1.572,3.192,1.572,5.072,0,4.962-4.038,9-9,9S3,16.962,3,12c0-3.507,2.021-6.544,4.956-8.029-.177-.51-.382-1.02-.647-1.527l-.622-1.188C2.732,3.221,0,7.293,0,12c0,6.617,5.383,12,12,12s12-5.383,12-12c0-2.898-1.033-5.558-2.749-7.634Zm-5.751,13.634c.828,0,1.5-.672,1.5-1.5s-.672-1.5-1.5-1.5-1.5.672-1.5,1.5.672,1.5,1.5,1.5Zm-3-7c-.828,0-1.5.672-1.5,1.5s.672,1.5,1.5,1.5,1.5-.672,1.5-1.5-.672-1.5-1.5-1.5Zm6.5,1.5c0-.828-.672-1.5-1.5-1.5s-1.5.672-1.5,1.5.672,1.5,1.5,1.5,1.5-.672,1.5-1.5Z"/>
</svg>
