<svg id="Layer_1" viewBox="0 0 24 24" xmlns="http://www.w3.org/2000/svg" data-name="Layer 1"><path d="m17 8.148-8 5.5v-5.648h1v-3h-10v3h1v12.5c0 1.93 1.57 3.5 3.5 3.5h16c1.93 0 3.5-1.57 3.5-3.5v-12.415l-7 5zm4 5.767v6.585c0 .275-.224.5-.5.5h-16c-.276 0-.5-.225-.5-.5v-12.5h2v11h3v-1.711l5-3.438v5.063l7-5zm-11.5-10.915h-3.5c1-2 3.346-3 5-3h2c.641 0 1.219.248 1.662.645.509-.398 1.142-.645 1.838-.645.731 0 1.392.272 1.912.706.584-.438 1.302-.706 2.088-.706 1.933 0 3.5 1.567 3.5 3.5s-1.567 3.5-3.5 3.5c-1.097 0-2.064-.515-2.705-1.305-.393.189-.829.305-1.295.305-1.002 0-1.883-.496-2.428-1.25-.326.156-.687.25-1.072.25-.815 0-1.532-.396-1.989-1h-.011c-.28-.443-.649-.962-1.5-1z"/></svg>