<?xml version="1.0" encoding="UTF-8"?>
<svg xmlns="http://www.w3.org/2000/svg" id="Layer_1" data-name="Layer 1" viewBox="0 0 24 24">
  <path d="M14.221,2.628l-.489-.684C5.566,1.919,.457,11.046,.097,12c.346,.937,5.482,10.092,13.635,10.056,.787-1.277,3.022-3.672,3.268-10.056,0-5.418-2.666-9.213-2.779-9.372ZM3.534,12c1.085-1.722,4.227-6.078,8.691-6.892,.181,.33,.4,.774,.621,1.299-2.246,.868-3.846,3.045-3.846,5.593s1.597,4.721,3.839,5.591c-.221,.524-.438,.969-.619,1.3-4.461-.816-7.602-5.17-8.687-6.891Zm10.466,0c0,.971-.113,1.872-.279,2.703-1.013-.482-1.721-1.508-1.721-2.703s.709-2.223,1.724-2.705c.164,.829,.276,1.73,.276,2.705Zm9.78-.53c.293,.293,.293,.768,0,1.061l-2.78,2.845v-1.875h-2v-3h2v-1.875l2.78,2.845Zm0,7.5c.293,.293,.293,.768,0,1.061l-2.78,2.845v-1.875h-4.234c.399-.76,.86-1.775,1.261-3h2.973v-1.875l2.78,2.845ZM16.766,3h4.234V1.125l2.78,2.845c.293,.293,.293,.768,0,1.061l-2.78,2.845v-1.875h-2.973c-.401-1.225-.863-2.24-1.261-3Z"/>
</svg>
