<svg id="Layer_1" viewBox="0 0 24 24" xmlns="http://www.w3.org/2000/svg" data-name="Layer 1"><path d="m11.038 18.147c-.568-1.176-1.1-2.591-1.363-4.147h1.326c.004-1.146.455-2.208 1.207-3h-2.663c.249-2.841 1.497-5.346 2.454-6.893.817 1.312 1.842 3.318 2.281 5.656l2.863-.949c-.437-2.036-1.213-3.832-1.973-5.226 2.477.937 4.433 2.934 5.316 5.434l2.507.831c.31.103.595.248.866.41-.845-5.794-5.834-10.263-11.859-10.263-6.617 0-12 5.383-12 12s5.383 12 12 12c.778 0 1.537-.081 2.275-.223-1.476-1.226-3.005-3.091-3.236-5.63zm-2.211-14.555c-1.023 1.874-2.082 4.467-2.287 7.408h-3.48c.379-3.406 2.668-6.236 5.767-7.408zm-5.595 10.408h3.414c.347 2.534 1.28 4.759 2.187 6.419-2.792-1.056-4.927-3.461-5.601-6.419zm19.132-2.249-3.864-1.281-3.864 1.281c-.979.325-1.636 1.235-1.636 2.265v3.477c.249 4.109 3.699 5.586 5.435 6.513 1.824-.793 5.309-1.95 5.565-6.513v-3.477c0-1.03-.658-1.94-1.636-2.265zm-1.364 5.742c0 1.744-1.537 2.761-2.436 3.207-.876-.508-2.564-1.685-2.564-3.207v-3.033l2.5-.829 2.5.829z"/></svg>