<?xml version="1.0" encoding="UTF-8"?>
<svg xmlns="http://www.w3.org/2000/svg" id="Layer_1" data-name="Layer 1" viewBox="0 0 24 24">
  <path d="M14,3h10V0H0V3H3v3.051c-1.692,.245-3,1.691-3,3.449v11c0,1.381,1.119,2.5,2.5,2.5s2.5-1.119,2.5-2.5c0-.171-.018-.338-.05-.5h1.101c-.033,.162-.05,.329-.05,.5,0,1.381,1.119,2.5,2.5,2.5s2.5-1.119,2.5-2.5c0-.171-.018-.338-.05-.5h6.101c-.033,.162-.05,.329-.05,.5,0,1.381,1.119,2.5,2.5,2.5s2.5-1.119,2.5-2.5c0-.171-.018-.338-.05-.5h2.05v-5.851c0-.592-.095-1.177-.282-1.739l-1.339-4.017c-.478-1.431-1.812-2.393-3.32-2.393h-.059v-.5c0-.828-.672-1.5-1.5-1.5s-1.5,.672-1.5,1.5v.5h-2V3Zm-3,3h-1V3h1v3ZM7,3v3h-1V3h1ZM3,17v-2H15v2H3Zm16.533-7.658l1.338,4.017c.085,.255,.128,.521,.128,.791v.851h-3v-6h1.059c.215,0,.406,.138,.475,.342Zm-4.533,2.658H3v-2.5c0-.276,.224-.5,.5-.5H15v3Z"/>
</svg>
