<?xml version="1.0" encoding="UTF-8"?>
<svg xmlns="http://www.w3.org/2000/svg" id="Layer_1" data-name="Layer 1" viewBox="0 0 24 24">
  <path d="M23.96,2.161L2.161,23.961,.04,21.84,21.839,.04l2.121,2.121ZM3.331,11.548l-1.891,1.892,2.121,2.121,3.878-3.878-1.061-1.061c-1.169-1.17-1.169-3.073,0-4.243,1.17-1.17,3.073-1.17,4.243,0l1.052,1.053,3.927-3.866-2.104-2.138-1.939,1.909c-.484-.286-1.003-.482-1.535-.62V0h-3V2.699c-.542,.137-1.062,.357-1.555,.647l-1.911-1.911L1.436,3.557l1.911,1.911c-.29,.493-.51,1.013-.647,1.555H0v3H2.716c.138,.528,.331,1.044,.615,1.525Zm20.569-1.049c-.889-.973-2.013-1.724-3.281-2.169l-2.421,2.421c-.981,1.39-1.734,3.067-1.734,5.181,0,1.873,.616,3.633,1.67,5.063-.06,.002-.121,.003-.182,.003-2.753,0-4.989-2.21-5.054-4.947l-2.548,2.548c1.1,3.143,4.084,5.399,7.603,5.399,2.359,0,4.474-1.018,5.949-2.632-2.531-.514-4.436-2.751-4.436-5.434s1.905-4.92,4.436-5.434Z"/>
</svg>
