<svg id="Layer_1" viewBox="0 0 24 24" xmlns="http://www.w3.org/2000/svg" data-name="Layer 1"><path d="m9.5 13c-.828 0-1.5-.672-1.5-1.5s.672-1.5 1.5-1.5 1.5.672 1.5 1.5-.672 1.5-1.5 1.5zm5-3c-.828 0-1.5.672-1.5 1.5s.672 1.5 1.5 1.5 1.5-.672 1.5-1.5-.672-1.5-1.5-1.5zm5.877 4.982c-.224.604-.519 1.179-.866 1.719 1.481.869 2.489 2.461 2.489 4.299v3h-3v-3c0-.971-.696-1.781-1.615-1.961-1.542 1.218-3.439 1.961-5.385 1.961s-3.831-.738-5.37-1.949c-.958.199-1.63.996-1.63 1.949v3h-3v-3c0-1.838 1.008-3.43 2.489-4.299-.347-.541-.642-1.115-.866-1.719-2.029-.19-3.623-1.904-3.623-3.982 0-1.738 1.091-3.212 2.64-3.767 1.094-4.19 4.945-7.233 9.36-7.233 4.39.02 8.268 3.027 9.36 7.233 1.549.555 2.64 2.029 2.64 3.767 0 2.079-1.594 3.792-3.623 3.982zm-.377-2.982c.552 0 1-.449 1-1 0-.542-.424-.982-.965-1.001l-1.253-.044-.179-1.241c-.451-3.126-3.085-5.509-6.21-5.696-.768.03-1.409.715-1.393 1.482 0 .4.156.777.439 1.06.566.568 1.556.567 2.12 0l2.123 2.12c-.85.851-1.98 1.319-3.183 1.319s-2.333-.468-3.183-1.319c-.876-.883-1.384-2.096-1.301-3.345-1.379 1.032-2.36 2.581-2.62 4.378l-.179 1.241-1.253.044c-.541.019-.965.459-.965 1.001 0 .551.448 1 1 1h1.961l.255 1.186c.638 2.974 3.499 4.814 5.784 4.814s5.146-1.841 5.784-4.814l.255-1.186h1.961zm-8 4c1.352 0 2.509-.826 2.999-2h-5.998c.49 1.174 1.648 2 2.999 2z"/></svg>