<?xml version="1.0" encoding="UTF-8"?>
<svg xmlns="http://www.w3.org/2000/svg" id="Layer_1" data-name="Layer 1" viewBox="0 0 24 24">
  <path d="m24,18.242v-2.242h-6.691c1.641-1.131,2.691-3.126,2.691-5.5,0-3.214-1.919-5.739-4.634-6.353.544-.18,1.101-.446,1.541-.862,1.294-1.223,1.131-3.285,1.131-3.285,0,0-2.18-.153-3.474,1.07-.789.746-1.081,1.855-1.19,2.608-.184-1.235-.579-2.459-1.204-3.653l-2.658,1.391c.447.854.732,1.719.875,2.584h-.456c-3.381,0-5.932,2.794-5.932,6.5,0,2.374,1.05,4.369,2.691,5.5h-2.691c-2.206,0-4,1.794-4,4s1.794,4,4,4h20l-.018-2.232-.429-.438c-.005-.006-.554-.574-.554-1.33,0-.75.539-1.315.539-1.315h0s.462-.442.462-.442ZM9.932,7h4.137c1.726,0,2.932,1.439,2.932,3.5s-1.206,3.5-2.932,3.5c-.471,0-.922-.117-1.34-.35l-.728-.404-.728.404c-.418.232-.869.35-1.34.35-1.726,0-2.932-1.439-2.932-3.5s1.206-3.5,2.932-3.5Zm10.177,14H4c-.551,0-1-.448-1-1s.449-1,1-1h16.109c-.068.31-.109.644-.109,1s.041.69.109,1Z"/>
</svg>
