<svg id="Layer_1" viewBox="0 0 24 24" xmlns="http://www.w3.org/2000/svg" data-name="Layer 1"><path d="m12 6c0-3.314-2.686-6-6-6s-6 2.686-6 6 2.686 6 6 6 6-2.686 6-6zm-6.993 3.998.655-2.973h-2.049c-.412-.002-.706-.436-.585-.83l1.336-4.195h2.923l-.925 3.025 2.036.008c.481.002.766.539.499.938l-3.264 4.029zm18.992 9.003c0-2.425-1.736-4.449-4.03-4.902-.145-2.777-.915-5.268-1.49-6.772.313-.115.641-.224.938-.303.082-.02.232-.047.318.02.122.093.264.406.264.977h3c0-1.452-.51-2.643-1.435-3.355-.808-.622-1.873-.817-2.918-.539-1.217.323-4.184 1.657-4.184 1.657l.695 1.396c.008.015.347.707.731 1.808l-6.846 5.459c-.625-.282-1.313-.447-2.042-.447-2.757 0-5 2.243-5 5s2.243 5 5 5 5-2.243 5-5c0-.92-.267-1.772-.703-2.514l5.433-4.332c.131.723.223 1.491.255 2.278-1.754.778-2.985 2.529-2.985 4.568 0 2.757 2.243 5 5 5s5-2.243 5-5zm-16.999 2c-1.103 0-2-.897-2-2s.897-2 2-2 2 .897 2 2-.897 2-2 2zm12 0c-1.103 0-2-.897-2-2s.897-2 2-2 2 .897 2 2-.897 2-2 2z"/></svg>