<?xml version="1.0" encoding="UTF-8"?>
<svg xmlns="http://www.w3.org/2000/svg" id="Layer_1" data-name="Layer 1" viewBox="0 0 24 24">
  <path d="M4,2.5c0-1.381,1.119-2.5,2.5-2.5s2.5,1.119,2.5,2.5-1.119,2.5-2.5,2.5-2.5-1.119-2.5-2.5Zm4.5,15.5v6h-3v-6h-1v6H1.5v-6H0V9.5c0-1.93,1.57-3.5,3.5-3.5h3c1.93,0,3.5,1.57,3.5,3.5v8.5h-1.5Zm-5.5-3H7v-5.5c0-.275-.224-.5-.5-.5H3.5c-.276,0-.5,.225-.5,.5v5.5Zm15.5-1c1.381,0,2.5-1.119,2.5-2.5s-1.119-2.5-2.5-2.5-2.5,1.119-2.5,2.5,1.119,2.5,2.5,2.5Zm3.81,.135c-1.306-.45-2.727,.251-3.175,1.556l-1.321,3.862-3.197-2.552h-2.077l-2.603,7h3.304l1.016-3.59s3.624,2.989,3.696,3.039c0,0,.74,.553,1.661,.553,1.263,0,2.41-.806,2.82-2.046l1.431-4.646c.447-1.303-.25-2.728-1.555-3.176ZM14,1h-3V3h3V1Zm-.694,4.655l-2.603-1.611-1.053,1.701,2.603,1.611,1.053-1.701Z"/>
</svg>
