<?xml version="1.0" encoding="UTF-8"?>
<svg xmlns="http://www.w3.org/2000/svg" id="Layer_1" data-name="Layer 1" viewBox="0 0 24 24" width="512" height="512"><path d="M24,12c0,1.38-.246,2.7-.676,3.935-.735-.766-1.645-1.365-2.583-1.827,.164-.678,.26-1.381,.26-2.108,0-4.962-4.037-9-9-9S3,7.038,3,12s4.037,9,9,9c1.833,0,3.538-.554,4.961-1.498,.024,.174,.039,.342,.039,.498,0,.931,.333,1.777,.867,2.457-1.737,.978-3.736,1.543-5.867,1.543C5.383,24,0,18.617,0,12S5.383,0,12,0s12,5.383,12,12Zm-12,6c1.117,0,2.103,.702,2.104,.703l1.791-2.406c-.178-.133-1.802-1.297-3.896-1.297s-3.718,1.164-3.896,1.297l1.783,2.413c.01-.007,.995-.709,2.112-.709Zm5-3s2,1.5,2,5c0,1.105,.895,2,2,2s2-.895,2-2c0-4-6-5-6-5Zm-9-5c-1,0-3-1-3-1,0,1.631,1,4,3,4s3-2.369,3-4c0,0-2,1-3,1Zm11-1s-2,1-3,1-3-1-3-1c0,1.631,1,4,3,4s3-2.369,3-4Z"/></svg>
