<?xml version="1.0" encoding="UTF-8"?>
<svg xmlns="http://www.w3.org/2000/svg" id="Layer_1" data-name="Layer 1" viewBox="0 0 24 24">
  <path d="M14.382,0l5.618,5.665v3.335h-3v-1h-5V3H3V21H20v3H0V3C0,1.346,1.346,0,3,0H14.382Zm-3.846,17.504c-.572,0-1.124-.24-1.497-.646l-1.009,1.006c.633,.723,1.541,1.136,2.506,1.136,1.221,0,2.245-.853,2.436-2.028,.143-.882-.224-2.036-1.685-2.627-.56-.228-1.084-.467-1.366-.595-.099-.045-.428-.173-.433-.615-.002-.131,.103-.441,.515-.577,.73-.236,1.392,.2,1.611,.367l.859-1.113c-.401-.369-1.539-1.123-2.863-.686-.796,.263-1.359,.951-1.471,1.796-.106,.818,.23,1.565,.921,2.049,.003,0,.838,.409,1.753,.78,.214,.086,.905,.409,.817,.959-.065,.391-.492,.795-1.096,.795Zm11.332-.103v-6.401h-1.6v8h3.733v-1.599c-1.105,0-2.133,0-2.133,0Zm-2.867-.901c0,.398-.101,.769-.267,1.102l.998,.998-1.131,1.131-.998-.998c-.334,.165-.705,.267-1.102,.267-1.381,0-2.5-1.119-2.5-2.5v-3c0-1.381,1.119-2.5,2.5-2.5s2.5,1.119,2.5,2.5v3Zm-1.6-3c0-.496-.404-.9-.9-.9s-.9,.404-.9,.9v3c0,.496,.404,.9,.9,.9s.9-.404,.9-.9v-3Z"/>
</svg>
