<?xml version="1.0" encoding="UTF-8"?>
<svg xmlns="http://www.w3.org/2000/svg" id="Layer_1" data-name="Layer 1" viewBox="0 0 24 24">
  <path d="M17.5,14c.828,0,1.5,.672,1.5,1.5s-.672,1.5-1.5,1.5-1.5-.672-1.5-1.5,.672-1.5,1.5-1.5Zm.183-4.35c.443,.494,1.217,.494,1.66,0l3.157-3.65h-2.484V0h-3V6h-2.516l3.183,3.65Zm3.317,.699v10.651H4c-.552,0-1-.448-1-1V9.858c.322,.084,.653,.142,1,.142H15.592l-2.616-3H4c-.552,0-1-.449-1-1s.448-1,1-1H13V2H4C1.794,2,0,3.794,0,6v14c0,2.206,1.794,4,4,4H24V7.026l-3,3.323Z"/>
</svg>
