<?xml version="1.0" encoding="UTF-8"?>
<svg xmlns="http://www.w3.org/2000/svg" id="Layer_1" data-name="Layer 1" viewBox="0 0 24 24">
  <path d="m17,2.5c0-1.381,1.119-2.5,2.5-2.5s2.5,1.119,2.5,2.5-1.119,2.5-2.5,2.5-2.5-1.119-2.5-2.5Zm-2.5,2.5c.403,0,.778-.104,1.115-.273-.381-.659-.615-1.412-.615-2.227s.234-1.568.614-2.227c-.337-.169-.711-.273-1.114-.273-1.381,0-2.5,1.119-2.5,2.5s1.119,2.5,2.5,2.5Zm-10,0c.403,0,.778-.104,1.115-.273-.381-.659-.615-1.412-.615-2.227s.234-1.568.614-2.227c-.337-.169-.711-.273-1.114-.273-1.381,0-2.5,1.119-2.5,2.5s1.119,2.5,2.5,2.5Zm5,0c.403,0,.778-.104,1.115-.273-.381-.659-.615-1.412-.615-2.227s.234-1.568.614-2.227c-.337-.169-.711-.273-1.114-.273-1.381,0-2.5,1.119-2.5,2.5s1.119,2.5,2.5,2.5Zm14.5,4.5v8.5h-2v6h-5v-6h-2v5h-3v-6h-2v5h-3v-6h-2v5h-3v-6H0v-5.5c0-1.93,1.57-3.5,3.5-3.5h.779c-.793.952-1.279,2.167-1.279,3.5v2.5h2v-2.5c0-1.93,1.57-3.5,3.5-3.5h.779c-.793.952-1.279,2.167-1.279,3.5v3.5h2v-3.5c0-1.93,1.57-3.5,3.5-3.5h.779c-.793.952-1.279,2.167-1.279,3.5v4.5h2v-4.5c0-1.93,1.57-3.5,3.5-3.5h2c1.93,0,3.5,1.57,3.5,3.5Zm-3,0c0-.276-.224-.5-.5-.5h-2c-.276,0-.5.224-.5.5v5.5h3v-5.5Z"/>
</svg>
