<?xml version="1.0" encoding="UTF-8"?>
<svg xmlns="http://www.w3.org/2000/svg" id="Layer_1" data-name="Layer 1" viewBox="0 0 24 24">
  <path d="m8,12c3.309,0,6-2.691,6-6S11.309,0,8,0,2,2.691,2,6s2.691,6,6,6Zm0-9c1.654,0,3,1.346,3,3s-1.346,3-3,3-3-1.346-3-3,1.346-3,3-3Zm13,16h2.91c-.422,2.511-2.399,4.488-4.91,4.91v-2.91h-2v2.91c-2.511-.422-4.488-2.399-4.91-4.91h2.91v-2h-2.91c.422-2.511,2.399-4.488,4.91-4.91v2.91h2v-2.91c2.511.422,4.488,2.399,4.91,4.91h-2.91v2Zm-10-5c.026,0,.049.007.074.008-.521.902-.87,1.913-1.005,2.992h-5.069c-1.103,0-2,.897-2,2v5H0v-5c0-2.757,2.243-5,5-5h6Z"/>
</svg>
