<svg id="Layer_1" viewBox="0 0 24 24" xmlns="http://www.w3.org/2000/svg" data-name="Layer 1"><path d="m3 21h17v3h-20v-21c0-1.654 1.346-3 3-3h11.381l5.619 5.665v3.335h-3v-1h-5v-5h-9zm13.582-10c1.148 0 2.082.933 2.082 2.082v3.837c0 1.148-.933 2.082-2.082 2.082s-2.082-.933-2.082-2.082v-3.837c0-1.148.933-2.082 2.082-2.082zm0 1.6c-.266 0-.482.216-.482.482v3.837c0 .266.216.482.482.482s.482-.216.482-.482v-3.837c0-.266-.216-.482-.482-.482zm-12.681 3.4v.7c0 1.269 1.031 2.3 2.3 2.3s2.3-1.031 2.3-2.3v-5.7h-1.6v5.7c0 .386-.314.7-.7.7s-.7-.314-.7-.7v-.7zm18.5-5v3.635l-1.3-3.626v-.009h-1.6v8h1.6v-3.712l1.3 3.712h1.6v-8zm-10.855 6.4c-.773 0-1.264-.553-1.279-.57l-1.229 1.024c.039.047.972 1.145 2.508 1.145.938 0 2.296-.848 2.296-2.381 0-1.68-1.303-2.216-2.082-2.536-1.035-.425-1.035-.752-1.035-.892 0-.359.247-.591.628-.591s.753.28.864.387l1.133-1.129c-.087-.088-.879-.857-1.997-.857-1.271 0-2.228.942-2.228 2.191 0 1.539 1.525 2.166 2.026 2.372.897.369 1.091.556 1.091 1.056 0 .601-.614.779-.696.781z"/></svg>