<?xml version="1.0" encoding="UTF-8"?>
<svg xmlns="http://www.w3.org/2000/svg" id="Layer_1" data-name="Layer 1" viewBox="0 0 24 24">
  <path d="m12.5,7h-.5V2c0-1.105-.895-2-2-2h-3c-1.105,0-2,.895-2,2v5h-.5c-2.481,0-4.5,2.019-4.5,4.5v12.5h17v-12.5c0-2.481-2.019-4.5-4.5-4.5Zm1.5,14H3v-9.5c0-.827.673-1.5,1.5-1.5h8c.827,0,1.5.673,1.5,1.5v9.5Zm-2-5.5c0,1.933-1.567,3.5-3.5,3.5s-3.5-1.567-3.5-3.5,1.567-3.5,3.5-3.5,3.5,1.567,3.5,3.5Zm7-13l-1.667.833-.833,1.667-.833-1.667-1.667-.833,1.667-.833.833-1.667.833,1.667,1.667.833Zm0,3l1.667-.833.833-1.667.833,1.667,1.667.833-1.667.833-.833,1.667-.833-1.667-1.667-.833Zm2.333,5.167l1.667.833-1.667.833-.833,1.667-.833-1.667-1.667-.833,1.667-.833.833-1.667.833,1.667Z"/>
</svg>
