<?xml version="1.0" encoding="UTF-8"?>
<svg xmlns="http://www.w3.org/2000/svg" id="Layer_1" data-name="Layer 1" viewBox="0 0 24 24" width="512" height="512"><path d="m23,3h-5v-.5c0-1.378-1.121-2.5-2.5-2.5h-7c-1.379,0-2.5,1.122-2.5,2.5v.5H1v3h1.62l1.233,14.79c.149,1.8,1.682,3.21,3.487,3.21h9.32c1.806,0,3.338-1.41,3.487-3.209l1.233-14.791h1.62v-3Zm-5.843,17.542c-.021.257-.239.458-.497.458H7.34c-.258,0-.476-.201-.497-.458l-1.212-14.542h12.739l-1.212,14.542Zm-9.864-7.335c-.39-.39-.39-1.024,0-1.414l3.707-3.793v3h1.5c1.93,0,3.5,1.57,3.5,3.5v3.5h-3v-3.5c0-.276-.225-.5-.5-.5h-1.5v3l-3.707-3.793Z"/></svg>
