<svg id="Layer_1" viewBox="0 0 24 24" xmlns="http://www.w3.org/2000/svg" data-name="Layer 1"><path d="m22.288 1.466-4.288-1.421-4.288 1.421c-1.024.34-1.712 1.292-1.712 2.37v3.296c-.045 2.872 2.416 5.492 5.934 7.095 4.361-1.433 6.225-4.912 6.066-7.128v-3.263c0-1.078-.688-2.03-1.712-2.37zm-4.224 9.441c-2.029-1.156-3.033-2.414-3.063-3.809v-2.899l3-.994 3 .994v2.869c-.033 1.655-.97 2.888-2.937 3.839zm1.455 4.833s-1.018.26-3.018.26c-2.904 0-4.5-1.127-4.5-1.5 0-.192.43-.583 1.237-.918-.724-.638-1.439-1.415-2.014-2.336-.726.423-1.296.94-1.68 1.522-.665.169-1.345.226-2.043.231-2.904 0-4.5-1.127-4.5-1.5v-1.357c1.238.541 2.781.857 4.5.857 1.215 0 2.34-.161 3.335-.443-.431-.855-.722-1.82-.802-2.891-.682.194-1.523.334-2.534.334-2.904 0-4.5-1.127-4.5-1.5s1.596-1.5 4.5-1.5c.995 0 1.824.137 2.5.326v-1.49c0-.536.103-1.052.279-1.535-.852-.192-1.785-.301-2.779-.301-4.276.001-7.5 1.936-7.5 4.501v10c0 2.565 3.224 4.5 7.5 4.5.619 0 1.233-.045 1.828-.128.922 1.853 3.7 3.128 7.172 3.128 4.276 0 7.5-1.935 7.5-4.5v-5c0-.53-.144-1.03-.4-1.495-1.492 1.56-3.272 2.409-4.082 2.735zm-16.518.76v-1.357c1.238.541 2.781.857 4.5.857.504.002 1.002-.034 1.5-.091v1.971c-.484.073-.985.119-1.5.119-2.904 0-4.5-1.127-4.5-1.5zm13.5 4.5c-2.904 0-4.5-1.127-4.5-1.5v-1.357c1.238.541 2.781.857 4.5.857s3.262-.317 4.5-.857v1.357c0 .373-1.596 1.5-4.5 1.5z"/></svg>