<?xml version="1.0" encoding="UTF-8"?>
<svg xmlns="http://www.w3.org/2000/svg" id="Layer_1" data-name="Layer 1" viewBox="0 0 24 24" width="512" height="512"><path d="M11,12s-2-2-3-2-3,2-3,2c0-1.631,.733-5,3-5s3,3.369,3,5Zm2,0s2-2,3-2,3,2,3,2c0-1.631-.733-5-3-5s-3,3.369-3,5ZM1.783,15h.002c.661,0,1.288,.174,1.839,.477,.021-.012,.044-.02,.065-.031-.442-1.062-.689-2.226-.689-3.446C3,7.038,7.037,3,12,3c1.054,0,2.062,.192,3.003,.526-.208-.51-.34-1.041-.356-1.586-.016-.547,.084-1.076,.28-1.564-.939-.237-1.916-.376-2.928-.376C5.383,0,0,5.383,0,12c0,1.128,.167,2.215,.459,3.25,.418-.157,.862-.25,1.324-.25ZM22.968,7.152c-.608,.541-1.132,.922-1.365,1.085l-1.121,.781c.33,.935,.518,1.936,.518,2.982,0,4.962-4.037,9-9,9-1.031,0-2.019-.183-2.942-.504-.355,.96-.985,1.842-1.655,2.585,1.417,.59,2.969,.919,4.597,.919,6.617,0,12-5.383,12-12,0-1.726-.373-3.364-1.032-4.848Zm-2.508-.556s3.603-2.51,3.539-4.708C23.969,.847,23.121,.003,22.106,.003s-1.814,.842-1.783,1.883c-.03-1.041-.878-1.885-1.893-1.885-1.015,0-1.814,.842-1.783,1.883,.064,2.198,3.813,4.713,3.813,4.713ZM5.461,17.003c-1.015,0-1.814,.842-1.783,1.883-.03-1.041-.878-1.885-1.893-1.885-1.015,0-1.814,.842-1.783,1.883,.064,2.198,3.813,4.713,3.813,4.713,0,0,3.603-2.51,3.539-4.708-.03-1.041-.878-1.885-1.893-1.885Zm12.038-1.184l-1.993-2.242c-.017,.014-1.645,1.423-3.506,1.423s-3.489-1.409-3.501-1.418l-1.998,2.237c.1,.089,2.476,2.181,5.499,2.181s5.399-2.092,5.499-2.181Z"/></svg>
