<svg id="Layer_1" viewBox="0 0 24 24" xmlns="http://www.w3.org/2000/svg" data-name="Layer 1"><path d="m0 20.5c0 1.93 1.57 3.5 3.5 3.5h20.521l-24.021-24.021zm3-13.279 13.779 13.779h-13.279c-.276 0-.5-.225-.5-.5zm18.624 6.779 2.484-3.912-2.939-4.088h-3.471l-2.698 2.764v2.784l2.393 2.452h4.23zm-3.624-4.014.962-.986h.669l.857 1.192-.513.808h-1.318l-.657-.673zm-9.17-3.986-1.83-1.875v-1.875l2.196-2.25h2.484l2.277 3.168-1.798 2.832zm9.39-2-1.22-1.25v-1.25l1.464-1.5h1.656l1.518 2.112-1.199 1.888z"/></svg>