<?xml version="1.0" encoding="UTF-8"?>
<svg xmlns="http://www.w3.org/2000/svg" id="Layer_1" data-name="Layer 1" viewBox="0 0 24 24">
  <path d="M21,12H13v12h8c1.657,0,3-1.343,3-3v-6c0-1.657-1.343-3-3-3Zm.521,9.434c-.595,.351-1.28,.566-2.021,.566-2.209,0-4-1.791-4-4s1.791-4,4-4c.741,0,1.426,.215,2.021,.566-1.541,.388-2.687,1.772-2.687,3.434s1.146,3.046,2.687,3.434ZM3,6H0V3H3v3Zm17,0H10V3h10V0l3.707,3.793c.39,.391,.39,1.024,0,1.414l-3.707,3.793v-3Zm-12,0h-3V3h3v3ZM0,15v6c0,1.657,1.343,3,3,3H11V12H3c-1.657,0-3,1.343-3,3Zm6.5-1v1.184c.348,.124,.662,.308,.937,.543l1.027-.593,1,1.732-1.019,.588c.033,.177,.055,.359,.055,.545s-.022,.368-.055,.545l1.019,.588-1,1.732-1.027-.593c-.275,.235-.589,.419-.937,.543v1.184h-2v-1.184c-.348-.124-.662-.308-.937-.543l-1.027,.593-1-1.732,1.019-.588c-.033-.177-.055-.359-.055-.545s.022-.368,.055-.545l-1.019-.588,1-1.732,1.027,.593c.275-.235,.589-.419,.937-.543v-1.184h2Z"/>
</svg>
