<svg id="Layer_1" viewBox="0 0 24 24" xmlns="http://www.w3.org/2000/svg" data-name="Layer 1"><path d="m23.999 3.566c0-2.032-1.532-3.566-3.564-3.566-2.053 0-4.254.191-6.886 1.883l-1.777-1.777-3 3 1.503 1.503c-1.956 1.971-3.74 4.057-5.38 6.286l-1.456-1.456-3 3 2.031 2.031c-.822 1.3-1.632 2.728-2.376 4.103l5.332 5.333c1.377-.744 2.803-1.553 4.104-2.376l2.031 2.031 3-3-1.456-1.456c2.229-1.64 4.315-3.424 6.286-5.38l1.503 1.503 3-3-1.776-1.776c1.692-2.631 1.881-4.832 1.881-6.885zm-18.05 16.62-2.136-2.136c2.47-4.313 5.339-8.081 8.747-11.49 3.298-3.297 5.43-3.56 7.874-3.56.358 0 .564.206.564.565 0 2.444-.262 4.576-3.56 7.874-3.409 3.409-7.177 6.278-11.49 8.747z"/></svg>