<?xml version="1.0" encoding="UTF-8"?>
<svg xmlns="http://www.w3.org/2000/svg" id="Layer_1" data-name="Layer 1" viewBox="0 0 24 24">
  <path d="m23.33,14.364l-1.443-4.042c-.496-1.389-1.821-2.323-3.296-2.323h-5.181c-1.476,0-2.8.934-3.296,2.323l-1.443,4.042c-.444,1.245-.67,2.546-.67,3.867v3.768h2v2h4v-2h4v2h4v-2h2v-3.768c0-1.321-.226-2.622-.67-3.868Zm-10.83,4.636c-.828,0-1.5-.672-1.5-1.5s.672-1.5,1.5-1.5,1.5.672,1.5,1.5-.672,1.5-1.5,1.5Zm-.515-5l.953-2.668c.071-.198.26-.332.471-.332h5.181c.211,0,.4.133.471.332l.953,2.668h-8.029Zm7.515,5c-.828,0-1.5-.672-1.5-1.5s.672-1.5,1.5-1.5,1.5.672,1.5,1.5-.672,1.5-1.5,1.5ZM8.165,5.064l4.455-.495L13.115.115l2.885,2.885L18.885.115l.495,4.455,4.455.495-2.003,2.003c-.922-.674-2.049-1.068-3.242-1.068h-6.181c-.94,0-1.835.251-2.626.683l-1.619-1.619Zm.065,4.586l-1.443,4.042c-.365,1.021-.596,2.076-.707,3.148l-2.843.537-.371-1.965-1.965.371-.7-3.703c-.245-1.298-.265-2.618-.06-3.924L.808,3.917c.229-1.457,1.358-2.621,2.808-2.895L8.706.061c.826-.156,1.655.003,2.358.397l-.256,2.301-1.545.25-5.091.962c-.207.039-.369.205-.401.413l-.441,2.799,3.469-.656,2.002,2.002c-.226.35-.427.718-.571,1.121Z"/>
</svg>
