<svg id="Layer_1" viewBox="0 0 24 24" xmlns="http://www.w3.org/2000/svg" data-name="Layer 1"><path d="m12 0c-6.617 0-12 5.383-12 12s5.383 12 12 12 12-5.383 12-12-5.383-12-12-12zm7.857 16.377c-1.07.406-2.195.623-3.357.623-5.238 0-9.5-4.262-9.5-9.5 0-1.163.218-2.288.624-3.357.625-.35 1.298-.621 2.003-.815-.076.49-.127.986-.127 1.49 0 5.338 4.343 9.682 9.682 9.682.504 0 1-.051 1.49-.127-.193.705-.465 1.378-.815 2.003zm.413-7.921c.374.87.61 1.811.692 2.796-.576.159-1.17.248-1.78.248-3.685 0-6.682-2.998-6.682-6.682 0-.611.089-1.205.248-1.78.985.082 1.926.318 2.797.692.302 2.466 2.259 4.424 4.726 4.726zm-17.27 3.544c0-1.494.371-2.901 1.018-4.142.188 6.606 5.518 11.935 12.124 12.124-1.241.647-2.648 1.018-4.142 1.018-4.963 0-9-4.038-9-9z"/></svg>