<?xml version="1.0" encoding="UTF-8"?>
<svg xmlns="http://www.w3.org/2000/svg" id="Layer_1" data-name="Layer 1" viewBox="0 0 24 24" width="512" height="512"><path d="m12.01,16.981l4.414,4.414c-.943,1.512-2.562,2.605-4.429,2.605-2.413,0-4.426-1.818-5.077-4.019H2.774c-.763,0-1.473-.341-1.95-.936-.477-.594-.656-1.362-.491-2.106L2.485,7.456l2.507,2.507-1.594,7.018h8.612Zm9.83,6.98L.04,2.161,2.161.04l2.797,2.797c1.722-1.771,4.122-2.837,6.759-2.837,4.226,0,7.968,2.844,9.099,6.916l2.805,9.896c.211.759.059,1.555-.418,2.182-.316.416-.741.714-1.221.868l1.978,1.978-2.121,2.121Zm-2.737-6.98h1.452l-2.628-9.262c-.771-2.778-3.325-4.719-6.208-4.719-1.813,0-3.457.74-4.629,1.967l12.014,12.014Z"/></svg>
