<?xml version="1.0" encoding="UTF-8"?>
<svg xmlns="http://www.w3.org/2000/svg" id="Layer_1" data-name="Layer 1" viewBox="0 0 24 24">
  <path d="m22.629,8.996l-2.629-2.587v-2.908c0-1.93-1.57-3.5-3.5-3.5H7.5c-1.93,0-3.5,1.57-3.5,3.5v2.867l-2.61,2.615C.508,9.826.002,11.011.002,12.231l-.002,11.769h24v-11.769c0-1.222-.505-2.407-1.371-3.236ZM7,3.5c0-.276.225-.5.5-.5h9c.275,0,.5.224.5.5v8.566l-2.228,2.228c.145-.443.228-.889.228-1.293,0-1.657-1.343-3-3-3s-3,1.343-3,3c0,.381.078.798.207,1.214l-2.207-2.208V3.5ZM3,21l.002-8.75,5.14,5.14c1.037,1.036,2.418,1.606,3.889,1.606s2.852-.571,3.889-1.608l5.081-5.081v8.692H3Zm6.5-13c-.828,0-1.5-.672-1.5-1.5s.672-1.5,1.5-1.5,1.5.672,1.5,1.5-.672,1.5-1.5,1.5Zm3.5-1.5c0-.828.672-1.5,1.5-1.5s1.5.672,1.5,1.5-.672,1.5-1.5,1.5-1.5-.672-1.5-1.5Z"/>
</svg>
