<?xml version="1.0" encoding="UTF-8"?>
<svg xmlns="http://www.w3.org/2000/svg" id="Layer_1" data-name="Layer 1" viewBox="0 0 24 24">
  <path d="m24,3h-3v-1h-3v1h-3v3h3v3.799c-1.774-1.154-3.858-1.799-6-1.799s-4.226.645-6,1.799v-3.799h3v-3h-3v-1h-3v1H0v3h3v7.603l.417.436c.072.074.901.921,2.23,1.812l-1.648,3.295v2.854h3v-2.146l1.301-2.601c1.115.439,2.363.747,3.699.747s2.584-.308,3.699-.747l1.301,2.601v2.146h3v-2.854l-1.648-3.295c1.329-.891,2.159-1.738,2.23-1.812l.417-.436v-7.603h3v-3ZM6.756,12.958c.497-.433,1.042-.791,1.617-1.084l1.127,1.127h5l1.127-1.127c.574.293,1.118.649,1.614,1.082-1.182.887-3.122,2.045-5.241,2.045-2.132,0-4.066-1.156-5.244-2.042Z"/>
</svg>
