<?xml version="1.0" encoding="UTF-8"?>
<svg xmlns="http://www.w3.org/2000/svg" id="Layer_1" data-name="Layer 1" viewBox="0 0 24 24">
  <path d="m17.022,13.967c-.739.774-1.942,1.394-3.773,1.635.616-.539,1.162-1.153,1.669-1.791-.721-.163-1.521-.447-2.382-.928-.172-.096-.331-.195-.488-.294-.324.357-.662.696-1.023.988-.201.162-.389.338-.562.526-.175-.188-.362-.364-.563-.526-2.045-1.653-3.554-4.54-3.935-6.418-.003-.015-.011-.055.028-.104.021-.025.056-.054.108-.054h2.849l1.629-3h-4.478c-.945,0-1.831.421-2.432,1.156-.597.731-.832,1.678-.645,2.599.005.024.014.052.019.076C1.281,8.248-.038,9.826-.038,11.714c0,3.149,2.379,6.803,9,6.983v1.348c0,.276,0,.922-.929.955h-2.033v3h9v-3h-2c-.951-.033-1.038-.679-1.038-.955v-1.348c5.885-.16,8.414-3.064,8.904-5.92-1.096.559-2.385.886-2.385.886-.115.048-.649.238-1.46.304Zm-14.06-2.253c0-.551.448-1,1-1h.095c.816,1.717,2.047,3.512,3.618,4.887-3.434-.452-4.712-2.217-4.712-3.887Zm7.766-3.799l1.616-2.975,1.12,1.941c.763,1.321,2.175,2.119,3.724,2.119.076,0,2.109-.101,2.109-.101l-1.584,2.919s-1.707.712-4.201-.682c-2.494-1.394-2.782-3.221-2.782-3.221Zm13.272-1.307v5.392h-2v-5.241l-4.684.238c-.878.045-1.7-.388-2.12-1.116L12,.343,18.684.003c.878-.045,1.7.388,2.12,1.116l3.196,5.49Z"/>
</svg>
