<?xml version="1.0" encoding="UTF-8"?>
<svg xmlns="http://www.w3.org/2000/svg" id="Layer_1" data-name="Layer 1" viewBox="0 0 24 24">
  <path d="M16.709,13.219l3.343-3.354,.493,.494c.697,.7,1.82,.87,2.621,.292,1.02-.737,1.105-2.173,.254-3.026L16.455,.641c-.697-.7-1.82-.87-2.621-.292-1.02,.737-1.105,2.173-.254,3.026l.559,.561-3.35,3.36-.065-.021c-.511-.133-1.035-.198-1.562-.234L2.16,.039,.039,2.16,21.84,23.961l2.121-2.121-7-7c-.036-.528-.106-1.061-.252-1.621Zm-.452-7.159l1.676,1.681-4.03,4.042-1.679-1.679,4.032-4.044ZM3.564,8.717l11.718,11.718c-.474,.731-1.404,1.593-2.024,2.218l-4.896-4.896-6.24,6.24L.002,21.877l6.24-6.24L1.346,10.741c.629-.622,1.484-1.546,2.218-2.024Z"/>
</svg>
