<svg id="Layer_1" viewBox="0 0 24 24" xmlns="http://www.w3.org/2000/svg" data-name="Layer 1"><path d="m23.994 10.005c0 2.37-1.049 4.603-2.878 6.125-.709.59-1.116 1.523-1.116 2.561v3.31h-6.778c.494-.979.778-2.081.778-3.25v-9.751h4.5c0 1.108-.604 2.078-1.5 2.597v4.403h.563c.375-.842.927-1.587 1.633-2.176 1.143-.951 1.798-2.343 1.798-3.819 0-1.423-.609-2.784-1.672-3.734-1.077-.961-2.471-1.405-3.922-1.237-.492.056-.959.197-1.399.39v-1.424c0-.585-.088-1.149-.245-1.684.423-.124.86-.213 1.307-.264 2.278-.257 4.56.465 6.258 1.981 1.699 1.518 2.673 3.694 2.673 5.971zm-11.994-6.005v14.75c0 2.895-2.355 5.25-5.25 5.25-2.608 0-4.754-1.869-5.168-4.373-1.001-.937-1.582-2.247-1.582-3.626 0-.85.215-1.671.618-2.401-.438-.784-.667-1.652-.667-2.554 0-1.12.417-2.635 2.049-3.857v-.188c0-1.449.734-2.692 2.019-3.39.196-2.024 1.907-3.611 3.981-3.611 2.206 0 4 1.794 4 4zm-3 0c0-.551-.449-1-1-1s-1 .449-1 1v1.799l-1.13.288c-.419.107-.87.352-.87.915v1.878l-.766.43c-1.094.615-1.283 1.251-1.283 1.737 0 .598.239 1.06.463 1.362l1.208 1.105-1.062 1.108c-.361.377-.561.867-.561 1.38 0 .651.315 1.243.865 1.625l.623.432.022.757c.036 1.226 1.02 2.186 2.24 2.186 1.241 0 2.25-1.01 2.25-2.25v-14.752z"/></svg>