<?xml version="1.0" encoding="UTF-8"?>
<svg xmlns="http://www.w3.org/2000/svg" id="Layer_1" data-name="Layer 1" viewBox="0 0 24 24" width="512" height="512"><path d="M0,12.001s0,.004,0,.005c0,0,0-.003,0-.005Zm21,7.858v-4.617l-2,2.014v3.865l-.439,.439c-.1,.1-2.486,2.439-6.561,2.439s-6.461-2.34-6.561-2.439l-.439-.439v-3.869l-2-2.036v4.643C1.149,17.756,.01,15.013,0,12,.042,5.418,5.409,0,12,0s11.958,5.418,12,12c-.01,3.013-1.149,5.756-3,7.859Zm-5-3.859H8v3.788c.657,.461,2.031,1.212,4,1.212s3.338-.749,4-1.213v-3.787Zm4.948-4.963c-.482-4.511-4.311-8.037-8.948-8.037S3.559,6.502,3.057,10.993l1.972,2.007h13.971l1.949-1.963Zm-3.035-3.628c-1.656-1.122-3.812,.278-4.727,1.629,0,0,2.217,.294,3.044,.855,.828,.561,1.923,2.511,1.923,2.511,.915-1.351,1.416-3.872-.24-4.994Zm6.087,4.596s0-.003,0-.005c0,.003,0,.004,0,.005ZM6.086,7.409c-1.656,1.122-1.155,3.644-.24,4.994,0,0,1.095-1.95,1.923-2.511,.828-.561,3.044-.855,3.044-.855-.915-1.351-3.072-2.75-4.727-1.629Z"/></svg>
