<?xml version="1.0" encoding="UTF-8"?>
<svg xmlns="http://www.w3.org/2000/svg" id="Layer_1" data-name="Layer 1" viewBox="0 0 24 24">
  <path d="m19,8v-1c0-3.859-3.141-7-7-7s-7,3.141-7,7v1h-3v12.5c0,1.93,1.57,3.5,3.5,3.5h1.5v-3h-1.5c-.275,0-.5-.225-.5-.5v-9.5h14v9.5c0,.275-.225.5-.5.5h-.588c-.25,1.226-.96,2.278-1.93,3h2.518c1.93,0,3.5-1.57,3.5-3.5v-12.5h-3Zm-11,0v-1c0-2.206,1.794-4,4-4s4,1.794,4,4v1h-8Zm6.966,9.725c.345-.488.547-1.083.547-1.725,0-1.483-1.084-2.71-2.5-2.949v-1.051h-2v1h-2v10h2v1h2v-1c1.654,0,3-1.346,3-3,0-.909-.406-1.725-1.047-2.275Zm-3.953-2.725h1.5c.552,0,1,.448,1,1s-.448,1-1,1h-1.5v-2Zm2,6h-2v-2h2c.552,0,1,.448,1,1s-.448,1-1,1Z"/>
</svg>
