<?xml version="1.0" encoding="UTF-8"?>
<svg xmlns="http://www.w3.org/2000/svg" id="Layer_1" data-name="Layer 1" viewBox="0 0 24 24">
  <path d="M24,21v3c-1.157,0-2.202-.451-3-1.17-.798,.72-1.843,1.17-3,1.17s-2.202-.451-3-1.17c-.798,.72-1.843,1.17-3,1.17s-2.202-.451-3-1.17c-.798,.72-1.843,1.17-3,1.17s-2.202-.451-3-1.17c-.798,.72-1.843,1.17-3,1.17v-3c.651,0,1.201-.419,1.408-1h3.184c.207,.581,.757,1,1.408,1s1.201-.419,1.408-1h3.184c.207,.581,.757,1,1.408,1s1.201-.419,1.408-1h3.184c.207,.581,.757,1,1.408,1s1.201-.419,1.408-1h3.184c.207,.581,.757,1,1.408,1ZM2.329,18c-.207-.801-.329-1.635-.329-2.5v-1.5h2.748L6.748,3h3.252v-1c0-1.105,.895-2,2-2s2,.895,2,2v1h3.252l2,11h2.748v1.5c0,.865-.122,1.699-.329,2.5H2.329Zm13.605-5.48l-.776-4.264-1.744,1.744,2.52,2.52Zm-3.934-1.106l-2.586,2.586h5.172l-2.586-2.586Zm2.586-5.414h-5.172l2.586,2.586,2.586-2.586Zm-5.744,2.256l-.776,4.264,2.52-2.52-1.744-1.744Z"/>
</svg>
