<?xml version="1.0" encoding="UTF-8"?>
<svg xmlns="http://www.w3.org/2000/svg" id="Layer_1" data-name="Layer 1" viewBox="0 0 24 24">
  <path d="m17,21h7v3h-7v-3ZM5.5,2h9.5v11h-4.422l-.672,2h1.094v3h-2.102l-1.072,3.191c-.524,1.686-2.105,2.781-3.811,2.781-.393,0-.792-.058-1.187-.181-2.105-.655-3.286-2.901-2.633-5.007l2.255-6.71c-1.476-.987-2.451-2.669-2.451-4.575C0,4.467,2.468,2,5.5,2Zm1.914,11h-1.914c-.065,0-.129-.002-.194-.004l-2.255,6.712c-.152.493.143,1.055.669,1.219.529.164,1.089-.132,1.252-.659l2.442-7.268Zm4.586-8h-6.5c-1.379,0-2.5,1.122-2.5,2.5s1.121,2.5,2.5,2.5h6.5v-5Zm5,4h7v-4h-7v4Zm0-9v3h7V0h-7Zm0,13h7v-3h-7v3Zm0,6h7v-4h-7v4Z"/>
</svg>
