<svg id="Layer_1" viewBox="0 0 24 24" xmlns="http://www.w3.org/2000/svg" data-name="Layer 1"><path d="m7 7.028c0-1.72 1.068-2.528 1.868-2.528.473 0 .879.095 1.209.216.148-1.038.518-2.308 1.399-3.274.874-.957 2.059-1.441 3.523-1.441v1.999c-.889 0-1.557.257-2.042.786-.474.516-.714 1.214-.841 1.863.286-.086.616-.148.994-.148.8 0 1.889.808 1.889 2.528 0 2.194-1.791 3.972-4 3.972s-4-1.778-4-3.972zm17 5.748v11.225h-19.789c-1.425 0-2.729-.773-3.321-1.971-.45-.911-.89-1.935-.89-3.529 0-2.035.946-7.272 4.805-11.199.056 1.213.474 2.33 1.153 3.25-.613.796-1.102 1.628-1.499 2.448h14.998l-3.57-2.834c.566-.906.899-1.971.904-3.113l7.21 5.722zm-3 3.225h-10.277c.172.295.277.634.277 1 0 1.105-.895 2-2 2s-2-.895-2-2c0-.366.106-.705.277-1h-3.066c-.317 0-.558.151-.631.301-.35.708-.58 1.243-.58 2.199s.229 1.491.58 2.2c.074.149.314.3.631.3h11.066c-.172-.295-.277-.634-.277-1 0-1.105.895-2 2-2s2 .895 2 2c0 .366-.106.705-.277 1h2.277z"/></svg>