<?xml version="1.0" encoding="UTF-8"?>
<svg xmlns="http://www.w3.org/2000/svg" id="Layer_1" data-name="Layer 1" viewBox="0 0 24 24" width="512" height="512"><path d="m24,3V0L3,1v2h2v2h-2v2l2,.095v2.905h-1.582c-1.01,0-1.963.442-2.615,1.215-.646.765-.921,1.767-.755,2.748.732,4.325,3.533,8.024,7.493,9.894l.304.144h8.311l.304-.144c3.96-1.869,6.761-5.568,7.493-9.894.166-.981-.109-1.983-.755-2.748-.652-.772-1.605-1.215-2.615-1.215h-7.582v-2.524l11,.524v-3h-11v-2h11Zm-3.094,10.151c.054.063.112.169.088.312-.55,3.251-2.605,6.046-5.523,7.537h-6.941c-2.918-1.491-4.973-4.286-5.523-7.537-.024-.143.035-.248.088-.312.048-.057.153-.151.324-.151h17.164c.17,0,.276.095.324.151Zm-10.906-3.151h-2v-2.762l2,.095v2.667Zm0-5h-2v-2h2v2Z"/></svg>
