<?xml version="1.0" encoding="UTF-8"?>
<svg xmlns="http://www.w3.org/2000/svg" id="Layer_1" data-name="Layer 1" viewBox="0 0 24 24">
  <path d="m24,12c0-1.828-1.525-3.342-4.328-4.337.036-.179.076-.361.104-.536.612-3.773-.774-5.191-1.655-5.701-1.63-.943-3.781-.326-6.13,1.716C9.841,1.287,7.623.417,5.88,1.426c-1.651.956-2.181,3.165-1.546,6.273C1.774,8.616,0,10.052,0,12,0,13.829,1.528,15.346,4.338,16.341c-.561,2.823-.219,5.214,1.542,6.233.501.29,1.052.433,1.642.433,1.327,0,2.857-.731,4.479-2.14.117.101.234.208.35.303,1.736,1.409,3.113,1.824,4.134,1.824.724,0,1.269-.209,1.634-.421,1.642-.95,2.17-3.16,1.543-6.257,2.564-.919,4.336-2.363,4.336-4.316Zm-12,2.5c-.517,0-1.023-.025-1.524-.055-.244-.375-.483-.757-.711-1.15-.249-.431-.472-.869-.693-1.305.213-.418.438-.843.693-1.283.232-.4.479-.78.725-1.159.483-.028.981-.047,1.51-.047.513,0,1.022.026,1.527.055.237.366.473.744.709,1.151.25.433.466.872.688,1.31-.217.428-.443.855-.688,1.278-.227.392-.477.776-.725,1.159-.484.028-.982.047-1.51.047Zm4.617-10.477c.113.065.503.738.197,2.625-.092.565-.242,1.175-.435,1.808-.7-1.129-1.473-2.2-2.286-3.163,1.423-1.194,2.345-1.377,2.525-1.269Zm-9.234,0c.377-.218,1.925.492,3.804,2.501-1.349.042-2.684.18-3.944.412-.353-1.887-.048-2.804.14-2.913Zm-4.383,7.977c0-.408,1.253-1.305,3.676-1.906-.587,1.102-1.095,2.233-1.505,3.348-1.597-.6-2.171-1.246-2.171-1.442Zm4.383,7.977c-.374-.217-.529-1.867.239-4.431.713,1.152,1.482,2.218,2.28,3.166-1.418,1.188-2.336,1.369-2.519,1.265Zm9.234,0c-.112.067-.891.067-2.374-1.137-.468-.38-.947-.843-1.424-1.357,1.351-.039,2.687-.176,3.946-.406.36,1.908.043,2.789-.148,2.9Zm.708-6.072c.599-1.122,1.105-2.249,1.51-3.345,1.591.599,2.164,1.245,2.164,1.44,0,.408-1.252,1.304-3.674,1.905Zm-3.825-1.905c0,.828-.672,1.5-1.5,1.5s-1.5-.672-1.5-1.5.672-1.5,1.5-1.5,1.5.672,1.5,1.5Z"/>
</svg>
