<svg id="Layer_1" viewBox="0 0 24 24" xmlns="http://www.w3.org/2000/svg" data-name="Layer 1"><path d="m23.987 14.829c-.094-8.075-6.738-14.722-14.811-14.816l-1.091-.013-7.891 19.768c-.424 1.165-.142 2.434.735 3.31.885.893 2.191 1.149 3.355.716l19.716-7.874zm-12.992 3.039-7.759 3.114c-.034.011-.117.04-.192-.025-.079-.068-.033-.169-.033-.169l6.269-15.625c.824 2.213 1.779 6.757 1.715 12.704zm1.004-13.867c0-.828.672-1.5 1.5-1.5s1.5.672 1.5 1.5-.672 1.5-1.5 1.5-1.5-.672-1.5-1.5zm1.981 12.669c-.05-3.744-.422-6.723-.918-9.044l2.225-.575c1.007-.26 1.923.656 1.663 1.663l-.94 3.637c-.003.013-.01.024-.013.037 2.237.47 3.818 1.047 4.853 1.526l-6.87 2.757zm6.015-4.664c-.828 0-1.5-.672-1.5-1.5s.672-1.5 1.5-1.5 1.5.672 1.5 1.5-.672 1.5-1.5 1.5z"/></svg>