<?xml version="1.0" encoding="UTF-8"?>
<svg xmlns="http://www.w3.org/2000/svg" id="Layer_1" data-name="Layer 1" viewBox="0 0 24 24">
  <path d="m24,7.25c0-.966-.784-1.75-1.75-1.75-.456,0-.871.174-1.182.46-.504-.495-1.026-.974-1.574-1.405.918-.907,1.488-2.166,1.488-3.555h-3c0,1.103-.897,2-2,2h-.5c-.827,0-1.5-.673-1.5-1.5V0h-3v1.5c0,.526.091,1.031.257,1.5h-.757c-.827,0-1.5-.673-1.5-1.5V0h-3v1.5c0,2.481,2.019,4.5,4.5,4.5h.952c-.312.711-.452,1.447-.452,2.086v.914h-4.606c-1.414,0-2.708.657-3.573,1.67l-.006-.005L.018,13.757l1.883,1.693c.174.839.44,1.578.686,2.262.121.336.243.673.351,1.019l.062,5.27h3.78l-.041-3.972,6.243-.022v3.994h4v-5.511c.65-.949,2-3.259,2-6.09v-1.09l1.179-.16c1.168-.146,2.085-1.039,2.293-2.162.87-.102,1.545-.841,1.545-1.738Zm-8.018,1.44v3.709c0,2.335-1.375,4.271-1.623,4.601l-8.83.033c-.04-.112-.08-.225-.12-.336-.38-1.059-.709-1.973-.703-3.132.004-.834.784-1.565,1.669-1.565h7.606v-3.914c0-.336.106-1.967,2.139-2.08,1.073.405,2.166,1.411,3.01,2.256l-3.149.429Z"/>
</svg>
