<svg id="Layer_1" viewBox="0 0 24 24" xmlns="http://www.w3.org/2000/svg" data-name="Layer 1"><path d="m10.486 10h3v1.397c-.985.675-1.807 1.567-2.407 2.603h-.593zm.101 11h-7.058l2.964-17.586c.042-.24.249-.414.493-.414h10.004c.243 0 .45.174.491.404l1.124 6.626c1.151.086 2.237.409 3.201.931l-1.369-8.068c-.295-1.677-1.744-2.894-3.447-2.894h-10.005c-1.704 0-3.154 1.218-3.449 2.906l-3.555 21.095h12.74c-.926-.815-1.663-1.838-2.134-3zm2.899-17h-3v4h3zm10.514 14c0 3.314-2.686 6-6 6s-6-2.686-6-6 2.686-6 6-6 6 2.686 6 6zm-1.641-1.256-1.398-1.43-3.614 3.703-2.216-2.301-1.387 1.441 2.182 2.268c.766.765 2.079.763 2.823.019l.004-.004 3.607-3.696z"/></svg>