<svg id="Layer_1" viewBox="0 0 24 24" xmlns="http://www.w3.org/2000/svg" data-name="Layer 1"><path d="m12 6c1.933 0 3.5 1.567 3.5 3.5s-1.567 3.5-3.5 3.5-3.5-1.567-3.5-3.5 1.567-3.5 3.5-3.5zm4-6-2 2.231-2-2.231-2 2.231-2-2.231v5h8zm8 12c0 6.617-5.383 12-12 12s-12-5.383-12-12c0-4.43 2.419-8.298 6-10.376v3.687c-1.836 1.649-3 4.033-3 6.689s1.164 5.04 3 6.689c0-2.189 1.498-3.695 3.5-3.689h5c2.002-.006 3.5 1.5 3.5 3.689 1.836-1.649 3-4.033 3-6.689s-1.164-5.04-3-6.689v-3.687c3.581 2.079 6 5.946 6 10.376zm-12 9c1.053 0 2.06-.191 3-.525v-1.975c0-.276-.225-.5-.5-.5h-5c-.275 0-.5.224-.5.5v1.975c.94.334 1.947.525 3 .525z"/></svg>