<svg id="Layer_1" viewBox="0 0 24 24" xmlns="http://www.w3.org/2000/svg" data-name="Layer 1"><path d="m18.096 17h2.904v3h-3.398l-.329 2h-3.773v2h-3v-2h-3.773l-.329-2h-3.398v-3h2.904l-1.515-9.209c.914-.802.91-1.041 3.118-2.214.018 1.079.425 2.055 1.076 2.821-.381.199-.709.402-.959.575l1.649 10.027h1.227v-6h3v6h1.227l1.649-10.027c-.25-.173-.578-.376-.959-.575.65-.766 1.057-1.742 1.076-2.821 2.21 1.175 2.202 1.411 3.118 2.214zm.055-17c-.745 0-1.458.231-2.059.67l-3.368 2.449c-.231-.07-.47-.119-.724-.119s-.493.049-.724.119l-3.367-2.448c-.602-.439-1.314-.671-2.06-.671h-5.849v3h5.85c.106 0 .208.033.294.096l3.36 2.444c.022 1.362 1.129 2.461 2.496 2.461s2.474-1.099 2.496-2.461l3.361-2.445c.085-.062.187-.095.293-.095h5.85v-3h-5.85z"/></svg>