<svg id="Layer_1" viewBox="0 0 24 24" xmlns="http://www.w3.org/2000/svg" data-name="Layer 1"><path d="m11 2.5c0-1.381 1.119-2.5 2.5-2.5s2.5 1.119 2.5 2.5-1.119 2.5-2.5 2.5-2.5-1.119-2.5-2.5zm-3.608 14.528-.401.972h-3.991v3h6l.892-2.164-1.215-.692c-.499-.314-.918-.698-1.285-1.116zm4.608-1.028c-1.003 0-1.99-.036-2.952-.094.186.182.387.354.617.5l4.334 2.466v5.128h3v-6.872l-2.139-1.216c-.924.055-1.88.089-2.861.089zm2.089-5.054.814-1.946h5.713l1.82-6.069-2.873-.862-1.18 3.931h-11.267l-1.18-3.931-2.873.862 1.82 6.069h4.62l-.769 1.874c-3.866-.283-7.208-.978-8.735-1.335v3.079c2.387.528 7.016 1.382 12 1.382 5.323 0 9.938-.976 12-1.49v-3.102c-1.064.29-5.05 1.295-9.911 1.538z"/></svg>