<?xml version="1.0" encoding="UTF-8"?>
<svg xmlns="http://www.w3.org/2000/svg" id="Layer_1" data-name="Layer 1" viewBox="0 0 24 24">
  <path d="M19.345,2.798c-.329-1.622-1.771-2.798-3.43-2.798h-7.829c-1.658,0-3.101,1.177-3.43,2.798-.3,1.472-.656,3.742-.656,6.202,0,5.115,1.957,13.489,2.04,13.843l.271,1.156h11.377l.271-1.156c.083-.354,2.04-8.729,2.04-13.843,0-2.454-.356-4.727-.655-6.202Zm-11.749,.598c.048-.233,.249-.396,.49-.396h7.829c.241,0,.442,.163,.49,.395,.241,1.19,.522,2.95,.582,4.874-2.386,.426-6.464,1.51-9.759,4.146-.139-1.223-.229-2.4-.229-3.415,0-2.21,.324-4.267,.596-5.604Zm1.106,17.604c-.319-1.476-.866-4.165-1.254-6.879l5.552,2.379,3.953-6.112c-.221,3.641-1.186,8.438-1.655,10.611h-6.596Zm.798-14.5c0-1.381,1.119-2.5,2.5-2.5s2.5,1.119,2.5,2.5-1.119,2.5-2.5,2.5-2.5-1.119-2.5-2.5Z"/>
</svg>
