<?xml version="1.0" encoding="UTF-8"?>
<svg xmlns="http://www.w3.org/2000/svg" id="Layer_1" data-name="Layer 1" viewBox="0 0 24 24">
  <path d="M24,11.279v12.721H0V6.5c0-1.93,1.57-3.5,3.5-3.5h7.087c-.376,.927-.587,1.938-.587,3H3.5c-.276,0-.5,.224-.5,.5v.46l7.361,7.361c.875,.876,2.402,.876,3.278,0l1.047-1.047c1.011,.461,2.131,.725,3.314,.725,.072,0,.142-.009,.213-.011l-2.453,2.453c-1.004,1.004-2.34,1.558-3.76,1.558s-2.757-.553-3.761-1.558L3,11.202v9.798H21v-7.587c1.162-.471,2.185-1.208,3-2.134Zm-1.3-8.979c-1.098-1.395-2.79-2.3-4.7-2.3-3.309,0-6,2.691-6,6s2.691,6,6,6c2.607,0,4.824-1.673,5.65-4h-3.43c-.549,.609-1.337,1-2.22,1-1.654,0-3-1.346-3-3s1.346-3,3-3c1.085,0,2.023,.586,2.547,1.453l-1.547,1.547h4c.552,0,1-.448,1-1V1l-1.3,1.3Z"/>
</svg>
