<svg id="Layer_1" viewBox="0 0 24 24" xmlns="http://www.w3.org/2000/svg" data-name="Layer 1"><path d="m4.998 12c1.876.904 3.439 1.001 5.002 1 1.116 0 2.235-.055 3.465-.412.336.232.694.433 1.065.612-.88 1.729-2.543 2.796-4.53 2.8-2.42.004-4.376-1.566-5.002-4zm2.001-5.5c-.968-.001-1.749 1.209-1.999 2.5h4c-.251-1.291-1.034-2.499-2.001-2.5zm11.001-6.5c-3.309 0-6 2.691-6 6 0 2.215 1.21 4.149 3 5.188v-5.188c0-1.654 1.346-3 3-3s3 1.346 3 3v5.188c1.79-1.039 3-2.973 3-5.188 0-3.309-2.691-6-6-6zm-1.199 15c-.2.488-.511.997-.963 1.527-1.704 2.002-4.567 3.582-5.812 4.211-2.338-1.17-7.024-4.085-7.026-6.862v-9.934c1.402-.365 4.079-.941 7.031-.942.186 0 .367.009.551.013.448-1.111 1.139-2.094 2.005-2.892-.814-.075-1.672-.121-2.555-.121 0 0-.001 0-.002 0-6.073.179-8.213 1.2-10.03 1.731v12.146c.266 6.001 8.556 9.379 10.031 10.123 1.004-.512 4.851-1.94 8.09-5.527.974-1.144 1.583-2.307 1.823-3.473h-3.144zm2.699-9c0-.828-.672-1.5-1.5-1.5s-1.5.672-1.5 1.5.672 1.5 1.5 1.5 1.5-.672 1.5-1.5zm-3 7h3v-4h-3z"/></svg>