<?xml version="1.0" encoding="UTF-8"?>
<svg xmlns="http://www.w3.org/2000/svg" id="Layer_1" data-name="Layer 1" viewBox="0 0 24 24">
  <path d="m23.257,5.035l-.89-1.988-4.661,4.66h0c-.377.379-1.036.379-1.414,0-.39-.39-.39-1.024,0-1.414l4.661-4.662-1.99-.889c-1.102-.492-2.267-.742-3.464-.742C10.813,0,7,3.813,7,8.5c0,.844.124,1.672.37,2.474l-6.198,6.198c-.756.756-1.172,1.76-1.172,2.828s.416,2.072,1.171,2.828,1.76,1.172,2.829,1.172,2.073-.416,2.828-1.172l6.199-6.197c.801.245,1.629.369,2.473.369,4.687,0,8.5-3.813,8.5-8.5,0-1.198-.25-2.363-.743-3.465Zm-7.757,8.965c-.772,0-1.526-.162-2.241-.48l-.942-.422-7.61,7.609c-.377.379-1.036.379-1.414,0-.39-.39-.39-1.024,0-1.414l7.61-7.61-.422-.942c-.319-.714-.481-1.468-.481-2.24,0-2.979,2.381-5.413,5.341-5.498l-1.169,1.17c-1.56,1.56-1.56,4.097,0,5.656,1.511,1.512,4.146,1.512,5.657,0l1.169-1.169c-.084,2.959-2.518,5.341-5.498,5.341Z"/>
</svg>
