<?xml version="1.0" encoding="UTF-8"?>
<svg xmlns="http://www.w3.org/2000/svg" id="Layer_1" data-name="Layer 1" viewBox="0 0 24 24">
  <path d="m23,5v10.5c0,4.687-3.813,8.5-8.5,8.5h-7.5v-3h7.5c3.033,0,5.5-2.468,5.5-5.5V5h3Zm-15.5,14H3.5c-1.93,0-3.5-1.57-3.5-3.5V3.5C0,1.57,1.57,0,3.5,0h4v1.5c0,.827.673,1.5,1.5,1.5s1.5-.673,1.5-1.5V0h4c1.93,0,3.5,1.57,3.5,3.5v12c0,1.93-1.57,3.5-3.5,3.5h-4v-1.5c0-.827-.673-1.5-1.5-1.5s-1.5.673-1.5,1.5v1.5Zm1.5-6c1.956,0,3.624,1.254,4.243,3h1.257c.276,0,.5-.225.5-.5V3.5c0-.275-.224-.5-.5-.5h-1.257c-.619,1.746-2.288,3-4.243,3s-3.624-1.254-4.243-3h-1.257c-.276,0-.5.225-.5.5v12c0,.275.224.5.5.5h1.257c.619-1.746,2.288-3,4.243-3Z"/>
</svg>
