<?xml version="1.0" encoding="UTF-8"?>
<svg xmlns="http://www.w3.org/2000/svg" id="Layer_1" data-name="Layer 1" viewBox="0 0 24 24">
  <path d="m15,2.5c0-1.381,1.119-2.5,2.5-2.5s2.5,1.119,2.5,2.5-1.119,2.5-2.5,2.5-2.5-1.119-2.5-2.5Zm7.192,12.545l1.577-2.552-3.999-2.471-.493-1.622c-.443-1.419-1.715-2.4-3.105-2.4h-.044c-.424.007-.833.096-1.25.278l-4.879,2.864v4.857h3v-3.143l1-.589v3.19c0,1.141.558,2.213,1.493,2.868l3.507,2.455v5.219h3v-6.781l-3-2.1v-2.047l3.192,1.973Zm-8.429,2.438l-2.673,6.517h3.242l1.932-4.711-1.841-1.304c-.236-.152-.456-.321-.661-.503Zm-.171-12.753c-.377-.658-.592-1.419-.592-2.229,0-.033,0-.065.001-.098l-2.139-1.588h0s0,0,0,0c-1.391-1.088-3.333-1.087-4.724,0L1.471,4.466c-.935.731-1.471,1.832-1.471,3.019v9.515h8v-3H3v-6.515c0-.258.117-.498.32-.657l4.667-3.651c.302-.237.725-.237,1.027,0h0s3.08,2.428,3.08,2.428l1.498-.875Zm-8.592,6.271h3v-3h-3v3Z"/>
</svg>
