<?xml version="1.0" encoding="UTF-8"?>
<svg xmlns="http://www.w3.org/2000/svg" id="Layer_1" data-name="Layer 1" viewBox="0 0 24 24">
  <path d="m24,3.5v14.764l-.843-.421-2.157-4.314V3.5c0-.828.672-1.5,1.5-1.5s1.5.672,1.5,1.5Zm-10.472,17.5h-3.446l-1.095-1.001V3.58c0-.747-.511-1.44-1.248-1.56-.94-.153-1.739.568-1.739,1.479v12.269l-2.64-2.296c-.866-.722-2.153-.604-2.874.261-.722.866-.605,2.153.261,2.874l4.504,4.04,3.667,3.351h9.346l-.421-.843-4.315-2.157Zm-2.028-4.5l2,1,1,2,1-2,2-1-2-1-1-2-1,2-2,1ZM2.5,9l.833-1.667,1.667-.833-1.667-.833-.833-1.667-.833,1.667-1.667.833,1.667.833.833,1.667Zm18,8l-1.167,2.333-2.333,1.167,2.333,1.167,1.167,2.333,1.167-2.333,2.333-1.167-2.333-1.167-1.167-2.333ZM14,1.5c0-.828-.672-1.5-1.5-1.5s-1.5.672-1.5,1.5v9.5h3V1.5Zm5,0c0-.828-.672-1.5-1.5-1.5s-1.5.672-1.5,1.5v9.5h3V1.5Z"/>
</svg>
