<?xml version="1.0" encoding="UTF-8"?>
<svg xmlns="http://www.w3.org/2000/svg" id="Layer_1" data-name="Layer 1" viewBox="0 0 24 24">
  <path d="m24,5.5v8.5h-3v-5H3v12h3v3H0V5.5c0-1.93,1.57-3.5,3.5-3.5h2.5V0h3v2h6V0h3v2h2.5c1.93,0,3.5,1.57,3.5,3.5Zm-7.547,12.127l1.447,6.373h-1.609l-.325-1.4h-2.829l-.33,1.4h-1.607l1.475-6.418c.126-.58.778-1.581,1.883-1.581s1.748.959,1.894,1.627Zm-.859,3.373l-.701-3.019c-.047-.212-.103-.381-.334-.381s-.292.193-.319.321l-.726,3.079h2.081Zm-4.294-3.4v-1.6h-5.5v1.6h1.9v6.4h1.6v-6.4h2Zm10.888-1.6l-1.088,2.182-1.088-2.182h-1.812l1.994,4-1.994,4h1.812l1.088-2.182,1.088,2.182h1.812l-1.994-4,1.994-4h-1.812Z"/>
</svg>
