<?xml version="1.0" encoding="UTF-8"?>
<svg xmlns="http://www.w3.org/2000/svg" id="Layer_1" data-name="Layer 1" viewBox="0 0 24 24">
  <path d="M16.843,10C15.772,2.844,14.372,0,12,0s-3.772,2.844-4.843,10H0v3H24v-3h-7.157ZM12,3.199c.37,.545,1.083,2.147,1.81,6.801h-3.62c.727-4.654,1.439-6.256,1.81-6.801Zm8.727,11.801h3.016c-.443,4.169-1.628,9-4.743,9-2.663,0-3.685-3.609-4.49-9h3.039c.366,2.315,.891,4.975,1.508,5.854,.475-.566,1.258-2.394,1.67-5.854Zm-14.276,0h3.039c-.804,5.391-1.826,9-4.49,9C1.884,24,.7,19.169,.257,15H3.273c.412,3.461,1.195,5.288,1.67,5.854,.616-.88,1.142-3.54,1.508-5.854Z"/>
</svg>
