<?xml version="1.0" encoding="UTF-8"?>
<svg xmlns="http://www.w3.org/2000/svg" id="Layer_1" data-name="Layer 1" viewBox="0 0 24 24">
  <path d="m24,12.295c0,2.94-1.656,5.498-4.083,6.797.049-.358.083-.721.083-1.092,0-.835-.129-1.639-.366-2.396.843-.851,1.366-2.019,1.366-3.309,0-2.216-1.581-4.148-3.76-4.594l-.815-.167-.29-.78c-.833-2.245-2.997-3.753-5.385-3.753-3.171,0-5.75,2.58-5.75,5.75,0,.436.054.873.164,1.337l.253,1.062-.933.567c-.888.54-1.484,1.54-1.484,2.488,0,1.017.457,1.899,1.131,2.389-.081.458-.131.926-.131,1.407,0,.648.085,1.274.231,1.877-2.413-.549-4.231-2.883-4.231-5.673,0-1.646.786-3.287,2.065-4.417-.044-.35-.065-.696-.065-1.038C2,3.925,5.925,0,10.75,0c3.366,0,6.439,1.966,7.883,4.968,3.153,1.005,5.367,3.967,5.367,7.327Zm-11-.205v-2.59l-3.583,3.159c-.556.48-.556,1.32,0,1.8l3.583,3.159v-2.434c1.161.414,2,1.514,2,2.816,0,1.654-1.346,3-3,3s-3-1.346-3-3c0-.42.088-.819.244-1.182l-2.279-2.071c-.608.938-.965,2.054-.965,3.253,0,3.309,2.691,6,6,6s6-2.691,6-6c0-2.967-2.167-5.431-5-5.91Z"/>
</svg>
