<?xml version="1.0" encoding="UTF-8"?>
<svg xmlns="http://www.w3.org/2000/svg" id="Layer_1" data-name="Layer 1" viewBox="0 0 24 24">
  <path d="m3,21h9v3H0V3.5C0,1.57,1.57,0,3.5,0h11c1.93,0,3.5,1.57,3.5,3.5v6.601c-1.226.25-2.278.96-3,1.93V3.5c0-.275-.225-.5-.5-.5H3.5c-.275,0-.5.225-.5.5v17.5Zm2-3h3v-3h-3v3Zm5,0h3v-3h-3v3Zm-2-8h-3v3h3v-3Zm2,3h3v-3h-3v3Zm-2-8h-3v3h3v-3Zm2,3h3v-3h-3v3Zm11,11h-4c-1.654,0-3,1.346-3,3v2h10v-2c0-1.654-1.346-3-3-3Zm-5-4c0,1.654,1.346,3,3,3s3-1.346,3-3-1.346-3-3-3-3,1.346-3,3Z"/>
</svg>
