<svg id="Layer_1" viewBox="0 0 24 24" xmlns="http://www.w3.org/2000/svg" data-name="Layer 1"><path d="m12 20c1.074 0 2.089-.251 3-.685v3.224c-.948.299-1.955.461-3 .461s-2.052-.163-3-.461v-3.224c.911.435 1.926.685 3 .685zm8.5-7c.546 0 1.041.032 1.495.089.047-3.506-1.769-6.629-4.495-8.431v4.027c.947 1.208 1.535 2.756 1.493 4.406.458-.057.956-.09 1.507-.09zm-13.5 3.231v6.538c0 .5-1.015 1.231-3.5 1.231s-3.5-.731-3.5-1.231v-6.538c0-.5 1.015-1.231 3.5-1.231s3.5.731 3.5 1.231zm-2 2.674c-.423.058-.918.095-1.5.095s-1.079-.033-1.5-.086v2.005c.459.048.947.081 1.5.081.549 0 1.039-.037 1.5-.09zm.007-5.815c-.042-1.65.546-3.198 1.493-4.406v-4.027c-2.726 1.803-4.542 4.926-4.495 8.432.454-.056.949-.089 1.495-.089.551 0 1.05.033 1.507.09zm18.993 3.14v6.538c0 .5-1.015 1.231-3.5 1.231s-3.5-.731-3.5-1.231v-6.538c0-.5 1.015-1.231 3.5-1.231s3.5.731 3.5 1.231zm-2 2.674c-.423.058-.918.095-1.5.095s-1.079-.033-1.5-.086v2.005c.459.048.947.081 1.5.081.549 0 1.039-.037 1.5-.09zm-6.5-17.673v6.538c0 .5-1.015 1.231-3.5 1.231s-3.5-.731-3.5-1.231v-6.538c0-.5 1.015-1.231 3.5-1.231s3.5.731 3.5 1.231zm-2 2.674c-.423.058-.918.095-1.5.095s-1.079-.033-1.5-.086v2.005c.459.048.947.081 1.5.081.549 0 1.039-.037 1.5-.09zm-4.233 12.093h-1.303l2.285-5.998h1.033l2.265 6h-1.297l-.5-1.326h-1.983zm.961-2.537h1.064l-.53-1.404-.535 1.404zm4.035 2.539h1.237v-6h-1.237z"/></svg>