<?xml version="1.0" encoding="UTF-8"?>
<svg xmlns="http://www.w3.org/2000/svg" id="Layer_1" data-name="Layer 1" viewBox="0 0 24 24">
  <path d="m13.5,7.761V0h-3v7.761l-5.51,4.239H0v12h3v-9h1.99l7.01,5.393,7.01-5.393h1.99v9h3v-12h-4.99l-5.51-4.239Zm-1.5,8.846l-4.04-3.107,4.04-3.107,4.04,3.107-4.04,3.107Zm10.621-11.107l1.439,1.439-2.121,2.121-1.439-1.439-1.439,1.439-2.121-2.121,1.439-1.439-1.439-1.439,2.121-2.121,1.439,1.439,1.439-1.439,2.121,2.121-1.439,1.439ZM3.635,9.621L.074,6.061l2.121-2.121,1.439,1.439,3.074-3.074,2.121,2.121-5.195,5.195Z"/>
</svg>
