<?xml version="1.0" encoding="UTF-8"?>
<svg xmlns="http://www.w3.org/2000/svg" id="Layer_1" data-name="Layer 1" viewBox="0 0 24 24">
  <path d="m24,17h-1.589c-.672,1.654-1.882,3.03-3.411,3.918v3.082h-6v-2h-2v2h-6v-3.082c-2.387-1.386-4-3.964-4-6.918,0-1.305.323-2.533.88-3.622-1.125-.709-1.88-1.953-1.88-3.378C0,4.794,1.794,3,4,3v3c-.551,0-1,.448-1,1,0,.476.341.857.788.957.646-.557,1.412-1.043,2.212-1.373v3.442c-1.207.914-2,2.348-2,3.974,0,2.757,2.243,5,5,5h6c2.757,0,5-2.243,5-5s-2.243-5-5-5v-2.344c.101-.144.187-.299.274-.452,1.03-3.192,4.726-3.204,4.726-3.204v4.778c1.056.847,1.896,1.95,2.414,3.222h1.586v6Zm-6-4.5c0-.828-.672-1.5-1.5-1.5s-1.5.672-1.5,1.5.672,1.5,1.5,1.5,1.5-.672,1.5-1.5Zm-9-5.5h3v-2h2v-3h-2V0h-3v2h-2v3h2v2Z"/>
</svg>
