<?xml version="1.0" encoding="UTF-8"?>
<svg xmlns="http://www.w3.org/2000/svg" id="Layer_1" data-name="Layer 1" viewBox="0 0 24 24">
  <path d="M11.073,17.397l1.195,3.494-.769,.549C7.418,18.966-.617,11.093,0,6.5,0,2.916,2.916,0,6.5,0c1.985,0,3.797,1.018,5,2.585,1.203-1.567,3.015-2.585,5-2.585,3.584,0,6.5,2.916,6.5,6.5,0,1.962-.837,3.946-2.042,5.793l-2.933-1.004c1.176-1.627,1.976-3.29,1.976-4.789,0-1.93-1.57-3.5-3.5-3.5-1.864,0-3.5,1.869-3.5,4h-3c0-2.131-1.636-4-3.5-4-1.93,0-3.5,1.57-3.5,3.5-.382,2.85,4.95,8.705,8.073,10.897Zm4.373,6.603h0s0,0,0,0h.001Zm8.553-8.553l-13-4.447,4.447,12.999,2.057-4.373,4.285,4.285,2.122-2.121-4.285-4.285,4.374-2.058Z"/>
</svg>
