<?xml version="1.0" encoding="UTF-8"?>
<svg xmlns="http://www.w3.org/2000/svg" id="Layer_1" data-name="Layer 1" viewBox="0 0 24 24" width="512" height="512"><path d="m12,0C5.383,0,0,5.383,0,12s5.383,12,12,12,12-5.383,12-12S18.617,0,12,0Zm0,21c-4.963,0-9-4.037-9-9S7.037,3,12,3s9,4.037,9,9-4.037,9-9,9Zm-2-11.533c0,.207.14.392.34.448l4.165,1.263c1.457.418,2.489,1.789,2.489,3.328,0,1.913-1.557,3.47-3.47,3.47l-3.514.024c-1.665,0-3.011-1.346-3.011-3l6.514-.024c.27,0,.48-.211.48-.47,0-.208-.14-.394-.339-.451l-4.161-1.261c-1.458-.414-2.494-1.785-2.494-3.327,0-1.911,1.556-3.467,3.467-3.467h3.533c1.654,0,3,1.346,3,3h-6.533c-.258,0-.467.209-.467.467Z"/></svg>
