<?xml version="1.0" encoding="UTF-8"?>
<svg xmlns="http://www.w3.org/2000/svg" id="Layer_1" data-name="Layer 1" viewBox="0 0 24 24">
  <path d="m3,21h5.984v3H0V3.5C0,1.57,1.57,0,3.5,0h9.041c-.344.591-.556,1.268-.556,2v1H3.5c-.275,0-.5.225-.5.5v17.5ZM11.985,5h-6.985v4h6.985v-4Zm-3.985,6h-3v3h3v-3Zm4,0h-2v3h2v-3Zm-7,8h3v-3h-3v3Zm12-7.935V3h4v9.589c.338.42.602.893.766,1.411h.219c1.105,0,2-.895,2-2V2c0-1.105-.895-2-2-2h-6c-1.105,0-2,.895-2,2v10.863l.519-.524c.708-.707,1.588-1.126,2.497-1.274Zm4.984,4.935h-1l.015,2-3.035,3.035-1.347-1.417,2.901-2.908c.775-1.033.572-2.526-.525-3.306-.942-.669-2.252-.475-3.069.342l-3.253,3.287c-.75.75-1.172,1.768-1.172,2.828v4.116l-.015.022h10.137l2.379-2.379v-6.186c-.594.35-1.277.565-2.016.565Z"/>
</svg>
