<?xml version="1.0" encoding="UTF-8"?>
<svg xmlns="http://www.w3.org/2000/svg" id="Layer_1" data-name="Layer 1" viewBox="0 0 24 24">
  <path d="m19.046,9.046c-.777,0-1.463-.551-1.632-1.311l-.219-.994c-.878-3.969-4.33-6.742-8.395-6.742C3.948,0,0,3.948,0,8.8v15.2h24v-10c0-2.731-2.222-4.954-4.954-4.954ZM8.8,3c2.646,0,4.894,1.805,5.465,4.389l.22.995h0c.477,2.157,2.353,3.663,4.561,3.663,1.077,0,1.954.876,1.954,1.954H3v-5.2c0-3.198,2.602-5.8,5.8-5.8ZM3,21v-4h2v3h3v-3h2v3h3v-3h3v3h3v-3h2v4H3Z"/>
</svg>
