<?xml version="1.0" encoding="UTF-8"?>
<svg xmlns="http://www.w3.org/2000/svg" id="Layer_1" data-name="Layer 1" viewBox="0 0 24 24" width="512" height="512"><path d="m12,0C5.383,0,0,5.383,0,12s5.383,12,12,12,12-5.383,12-12S18.617,0,12,0Zm0,21c-4.962,0-9-4.037-9-9S7.038,3,12,3s9,4.037,9,9-4.038,9-9,9Zm0-15.25c-2.762,0-5.008,2.181-5.008,4.86v2.779c0,2.68,2.247,4.86,5.008,4.86s4.992-2.181,4.992-4.86v-2.779c0-2.68-2.239-4.86-4.992-4.86Zm1.992,7.64c0,1.043-.875,1.86-1.992,1.86-1.107,0-2.008-.835-2.008-1.86v-2.779c0-1.025.901-1.86,2.008-1.86,1.117,0,1.992.817,1.992,1.86v2.779Z"/></svg>
