<?xml version="1.0" encoding="UTF-8"?>
<svg xmlns="http://www.w3.org/2000/svg" id="Layer_1" data-name="Layer 1" viewBox="0 0 24 24">
  <path d="m18.689,18h3.687c-2.079,3.581-5.946,6-10.376,6C5.383,24,0,18.617,0,12S5.383,0,12,0c4.43,0,8.298,2.419,10.376,6h-3.687c-1.649-1.836-4.033-3-6.689-3C7.037,3,3,7.038,3,12s4.037,9,9,9c2.656,0,5.04-1.164,6.689-3Zm-5.189-10c1.381,0,2.5,1.119,2.5,2.5v3c0,1.381-1.119,2.5-2.5,2.5s-2.5-1.119-2.5-2.5v-3c0-1.381,1.119-2.5,2.5-2.5Zm0,1.6c-.496,0-.9.404-.9.9v3c0,.496.404.9.9.9s.9-.404.9-.9v-3c0-.496-.404-.9-.9-.9Zm9.25,3.881c-.69,0-1.25.56-1.25,1.25s.56,1.25,1.25,1.25,1.25-.56,1.25-1.25-.56-1.25-1.25-1.25Zm-3.25-4.25c0-.69-.56-1.25-1.25-1.25s-1.25.56-1.25,1.25.56,1.25,1.25,1.25,1.25-.56,1.25-1.25Zm-.722,6.75l5.222-8h-1.911l-5.222,8h1.911Zm-11.278-1.581h-2.499v1.6h2.499c1.379,0,2.501-1.122,2.501-2.5,0-.767-.354-1.445-.9-1.904.252-.369.4-.814.4-1.293,0-1.269-1.032-2.302-2.302-2.302h-2.198v1.6h2.198c.387,0,.702.315.702.702,0,.38-.305.687-.683.698h-1.217v1.604h1.198c.014,0,.026-.004.04-.004h.262c.497,0,.901.404.901.9s-.404.9-.901.9Z"/>
</svg>
