<?xml version="1.0" encoding="UTF-8"?>
<svg xmlns="http://www.w3.org/2000/svg" id="Layer_1" data-name="Layer 1" viewBox="0 0 24 24">
  <path d="m18.453,7.674l2.703-2.708c.113.016.226.035.344.035,1.381,0,2.5-1.119,2.5-2.5s-1.119-2.5-2.5-2.5-2.5,1.119-2.5,2.5c0,.118.019.231.035.345l-2.693,2.698-2.961-2.989-2.131,2.111,2.973,3.001-4.214,4.222-1.755-1.755-.011.011-1.626-1.639,1.194-1.194-2.121-2.121L1.189,9.689l2.121,2.121,1.184-1.184,1.619,1.632-4.088,4.06c-.661.661-1.025,1.54-1.025,2.475,0,.598.164,1.167.445,1.677L.018,21.896v2.121s2.121,0,2.121,0l1.439-1.439c.51.269,1.067.42,1.63.42.896,0,1.79-.34,2.47-1.02l4.07-4.041,2.753,2.775c.661.661,1.54,1.024,2.475,1.024s1.814-.364,2.475-1.025l3.525-3.525c.661-.661,1.025-1.54,1.025-2.475s-.364-1.814-1.021-2.47l-4.526-4.569Zm-2.119,2.123l1.423,1.437-4.202,4.202-1.426-1.426,4.204-4.212Zm-10.774,10.057c-.195.194-.512.194-.707,0l-.707-.708c-.128-.127-.146-.276-.146-.353s.019-.226.143-.35l4.084-4.056,1.408,1.42-4.074,4.046Zm15.293-4.788l-3.525,3.525c-.127.127-.276.146-.354.146s-.227-.019-.349-.142l-.99-.998,4.233-4.233.985.994c.128.127.146.276.146.353s-.019.226-.146.354Z"/>
</svg>
