<?xml version="1.0" encoding="UTF-8"?>
<svg xmlns="http://www.w3.org/2000/svg" id="Layer_1" data-name="Layer 1" viewBox="0 0 24 24">
  <path d="m12,12c-1.87,0-3.627.728-4.95,2.05l-2.121-2.121c1.889-1.889,4.4-2.929,7.071-2.929,1.456,0,2.859.319,4.145.905l-2.337,2.337c-.583-.155-1.188-.242-1.808-.242Zm6.374-4.324l2.185-2.185c-2.537-1.614-5.478-2.491-8.559-2.491C7.727,3,3.708,4.665.687,7.687l2.121,2.121c2.456-2.455,5.72-3.808,9.192-3.808,2.272,0,4.449.589,6.374,1.676Zm5.634,1.437l-2.121-2.121-9.119,9.119c-.246-.065-.5-.112-.767-.112-1.657,0-3,1.343-3,3s1.343,3,3,3,3-1.343,3-3c0-.267-.046-.521-.112-.767l9.119-9.119Z"/>
</svg>
