<?xml version="1.0" encoding="UTF-8"?>
<svg xmlns="http://www.w3.org/2000/svg" id="Layer_1" data-name="Layer 1" viewBox="0 0 24 24">
  <path d="m24,6.5v11c0,1.919-1.365,3.64-3.844,4.845l-2.156,1.049v-14.336l.844-.41c1.33-.647,2.156-1.47,2.156-2.147,0-1.427-3.506-3.5-9-3.5S3,5.073,3,6.5c0,.678.826,1.5,2.156,2.147l.844.41v14.336l-2.156-1.049c-2.479-1.205-3.844-2.926-3.844-4.845V6.5C0,2.794,5.159,0,12,0s12,2.794,12,6.5Zm-9.5,1c0-1.381-1.119-2.5-2.5-2.5s-2.5,1.119-2.5,2.5,1.119,2.5,2.5,2.5,2.5-1.119,2.5-2.5Zm1.5,7v5.5h-.5v4h-3v-4h-1v4h-3v-4h-.5v-5.5c0-1.93,1.57-3.5,3.5-3.5h1c1.93,0,3.5,1.57,3.5,3.5Zm-5,2.5h2v-2.5c0-.275-.224-.5-.5-.5h-1c-.276,0-.5.225-.5.5v2.5Z"/>
</svg>
