<?xml version="1.0" encoding="UTF-8"?>
<svg xmlns="http://www.w3.org/2000/svg" id="Layer_1" data-name="Layer 1" viewBox="0 0 24 24">
  <path d="m21.245,5.186c-.565,0-1.124.311-1.593.675.251-.626.6-1.241,1.061-1.866.748.022,1.944-.054,2.586-.696.974-.974.649-3.247.649-3.247,0,0-2.273-.325-3.247.649-.629.629-.715,1.792-.698,2.543-.392.378-.742.763-1.046,1.152-.067-.617-.239-1.275-.659-1.695-.974-.974-3.247-.649-3.247-.649,0,0-.325,2.273.649,3.247.55.55,1.504.681,2.239.695-.585,1.168-.852,2.336-.92,3.427l-2.214-.865c-.285-.976-.881-1.74-1.741-2.171-1.791-.896-3.979-.17-4.883,1.635l-.416.852c-1.619-.785-2.782-1.66-2.797-1.671l-2.007-1.541-.358,2.3c-.078-.059-2.605-2.209-2.605-2.209v4.098c0,1.625.008,5.332,2.986,9.151H0c0,2.947,1.391,4.097,2.566,5l3.233-2.791c.974.481,2.204.88,3.622.88,3.082,0,5.589-2.507,5.589-5.589,0-1.156-.005-3.622-.008-5.189l2.023-.759c.129,2.436,1.038,4.31,1.08,4.394l1.895-.945c-.009-.018-1-1.786-1-4.003,0-.817.044-1.555.148-2.254.53.514,1.309,1.113,2.097,1.113,1.378,0,2.755-1.837,2.755-1.837,0,0-1.377-1.837-2.755-1.837Zm-11.824,13.903c-2.179,0-3.774-1.563-3.781-1.563-1.812-2.127-2.381-4.197-2.559-5.804,1.3.616,3.03,1.192,5.029,1.259l.972.033,1.789-3.664c.157-.312.538-.44.851-.282.206.103.278.524.278.854,0,0,.01,5.324.01,6.579,0,1.428-1.161,2.589-2.589,2.589Z"/>
</svg>
