<?xml version="1.0" encoding="UTF-8"?>
<svg xmlns="http://www.w3.org/2000/svg" id="Layer_1" data-name="Layer 1" viewBox="0 0 24 24">
  <path d="M12,0C5.383,0,0,5.383,0,12s5.383,12,12,12,12-5.383,12-12S18.617,0,12,0Zm9,12c0,1.941-.624,3.735-1.672,5.207l-5.653-5.653c1.082-.596,1.825-1.734,1.825-3.054,0-1.93-1.57-3.5-3.5-3.5-1.32,0-2.458,.743-3.054,1.825l-2.153-2.153c1.472-1.049,3.266-1.672,5.207-1.672,4.963,0,9,4.038,9,9Zm-12,8.475v-1.975c0-.276,.225-.5,.5-.5h3.55l-3-3h-.551c-1.93,0-3.5,1.57-3.5,3.5v.19c-1.837-1.649-3-4.033-3-6.689,0-1.941,.624-3.735,1.672-5.207l12.534,12.534c-1.472,1.049-3.266,1.672-5.207,1.672-1.053,0-2.06-.191-3-.525Z"/>
</svg>
