<?xml version="1.0" encoding="UTF-8"?>
<svg xmlns="http://www.w3.org/2000/svg" id="Layer_1" data-name="Layer 1" viewBox="0 0 24 24">
  <path d="m9.5,9.5c0-1.208.856-2.215,1.995-2.449.169-.017.332-.051.505-.051s.336.034.504.051c1.139.233,1.995,1.241,1.995,2.449,0,1.381-1.119,2.5-2.5,2.5s-2.5-1.119-2.5-2.5Zm11.804,6.14l1.838,1.061-1.5,2.598-1.839-1.062c-1.537,1.919-3.765,3.253-6.304,3.638v2.125h-3v-2.125c-2.539-.385-4.767-1.719-6.304-3.638l-1.839,1.062-1.5-2.598,1.838-1.061c-.444-1.13-.696-2.355-.696-3.64s.252-2.51.696-3.64l-1.838-1.061,1.5-2.598,1.839,1.062c1.537-1.919,3.765-3.253,6.304-3.638V0h3v2.125c2.539.385,4.767,1.719,6.304,3.638l1.839-1.062,1.5,2.598-1.838,1.061c.444,1.13.696,2.355.696,3.64s-.252,2.51-.696,3.64Zm-2.304-3.64c0-3.86-3.14-7-7-7s-7,3.14-7,7,3.14,7,7,7,7-3.14,7-7Zm-5,1h-4c-1.095,0-1.982.881-1.997,1.972.912,1.223,2.357,2.028,3.997,2.028s3.085-.804,3.997-2.028c-.015-1.091-.902-1.972-1.997-1.972Z"/>
</svg>
