<?xml version="1.0" encoding="UTF-8"?>
<svg xmlns="http://www.w3.org/2000/svg" id="Layer_1" data-name="Layer 1" viewBox="0 0 24 24">
  <path d="m23.772,19.95l-2.772-2.95v2h-.5c-.655,0-1.734-2.028-2.314-3.118-1.062-1.996-2.066-3.882-3.936-3.882s-2.873,1.886-3.936,3.882c-.58,1.09-1.719,3.118-2.374,3.118.506-1.348.943-3.09,1.45-5.125.531-2.133,1.383-5.546,2.125-6.651.401.556.849,1.717,1.274,3.012.443-.149.926-.236,1.46-.236.642,0,1.211.125,1.724.335-1.125-3.701-2.286-6.335-4.474-6.335-2.74,0-3.747,4.038-5.021,9.149-.407,1.633-.971,3.895-1.479,5.151V3h2L4.05.228c-.304-.304-.796-.304-1.1,0L0,3h2v19h19v2l2.772-2.95c.304-.304.304-.796,0-1.1Zm-11.761-.95c.338-.558.65-1.142.952-1.708.353-.662.903-1.697,1.287-2.145.384.448.935,1.483,1.287,2.145.301.566.613,1.151.952,1.708h-4.477Z"/>
</svg>
