<?xml version="1.0" encoding="UTF-8"?>
<svg xmlns="http://www.w3.org/2000/svg" id="Layer_1" data-name="Layer 1" viewBox="0 0 24 24">
  <path d="m24,3.5v9.221c-.815-.926-1.838-1.663-3-2.134V3.5c0-.276-.225-.5-.5-.5H3.5c-.275,0-.5.224-.5.5v13.5h7.069c-.041.328-.069.661-.069,1,0,.692.097,1.36.262,2H0V3.5C0,1.57,1.57,0,3.5,0h17c1.93,0,3.5,1.57,3.5,3.5Zm-15,2.722v7.778l7-3.889-7-3.889Zm15,11.778c0,3.314-2.686,6-6,6s-6-2.686-6-6,2.686-6,6-6,6,2.686,6,6Zm-2.793,1.793l-2.207-2.207v-3.586h-2v4.414l2.793,2.793,1.414-1.414Z"/>
</svg>
