<?xml version="1.0" encoding="UTF-8"?>
<svg xmlns="http://www.w3.org/2000/svg" id="Layer_1" data-name="Layer 1" viewBox="0 0 24 24">
  <path d="m8,8h3v5.121l-2.939,2.939-2.121-2.121,2.061-2.061v-3.879Zm1.5,11c-3.584,0-6.5-2.916-6.5-6.5s2.916-6.5,6.5-6.5c.557,0,1.095.078,1.611.21.142-.901.426-1.897.841-2.878-.784-.21-1.603-.333-2.453-.333C4.262,3,0,7.262,0,12.5s4.262,9.5,9.5,9.5c2.05,0,3.946-.66,5.5-1.768v-4.283c-1.151,1.83-3.183,3.052-5.5,3.052Zm10.5-6.213v11.213h-3v-11.213c-2.305-.655-4-2.775-4-5.287,0-2.644,2.088-7.5,5.5-7.5s5.5,4.856,5.5,7.5c0,2.512-1.695,4.632-4,5.287Zm1-5.287c0-1.767-1.519-4.5-2.5-4.5s-2.5,2.733-2.5,4.5c0,1.378,1.121,2.5,2.5,2.5s2.5-1.122,2.5-2.5Z"/>
</svg>
