<?xml version="1.0" encoding="UTF-8"?>
<svg xmlns="http://www.w3.org/2000/svg" id="Layer_1" data-name="Layer 1" viewBox="0 0 24 24">
  <path d="m20.4,20.005c-1.503-1.127-2.4-2.958-2.4-4.896s.897-3.769,2.4-4.897l1.599-1.199-1.599-1.2c-1.19-.893-2.553-1.43-3.985-1.616.709-.265,1.423-.654,1.996-1.227,1.806-1.806,1.58-4.851,1.58-4.851,0,0-3.045-.226-4.851,1.58-1.207,1.207-1.583,3.059-1.701,4.157-.235-2.571-1.132-4.644-1.7-5.729l-2.658,1.391c.458.875,1.18,2.542,1.37,4.592h-1.791c-1.824,0-3.574.589-5.06,1.703l-1.599,1.2,1.599,1.2c1.503,1.128,2.4,2.958,2.4,4.896s-.897,3.77-2.4,4.896l-1.6,1.2,1.6,1.2c1.486,1.114,3.235,1.703,5.06,1.703,1.145,0,2.285-.24,3.341-.699,1.056.459,2.196.699,3.341.699,1.824,0,3.574-.589,5.06-1.703l1.6-1.2-1.6-1.2Zm-3.404.84c-1.394.457-2.949.313-4.27-.418l-.727-.402-.727.402c-1.32.73-2.874.872-4.27.418,1.273-1.599,1.996-3.627,1.996-5.736s-.723-4.138-1.997-5.736c.533-.174,1.089-.264,1.656-.264h6.682c.566,0,1.123.09,1.655.264-1.273,1.6-1.996,3.628-1.996,5.736s.723,4.138,1.996,5.736Z"/>
</svg>
