<?xml version="1.0" encoding="UTF-8"?>
<svg xmlns="http://www.w3.org/2000/svg" id="Layer_1" data-name="Layer 1" viewBox="0 0 24 24">
  <path d="m24,10.209c0-3.981-3.438-5.716-5.713-6.865-.523-.264-1.252-.634-1.63-.908-.154-.157-.521-.741-.521-2.436h-2.273c0,1.717-.37,2.288-.521,2.436-.378.275-1.106.644-1.63.908-1.145.578-2.583,1.305-3.73,2.391-.176-2.248-2.505-4.429-2.988-4.857L4.006,0l-.994.871c-.503.44-3.012,2.758-3.012,5.128v18h24v-11h-.83c.528-.906.83-1.861.83-2.791ZM5,21h-2v-11h2v11Zm0-14h-2v-1c0-.457.453-1.179.996-1.836.544.661,1.004,1.391,1.004,1.836v1Zm16,14h-2v-1.5c0-.828-.672-1.5-1.5-1.5s-1.5.672-1.5,1.5v1.5h-3v-1.5c0-.828-.672-1.5-1.5-1.5s-1.5.672-1.5,1.5v1.5h-2v-5h13v5Zm-1.76-8h-8.48c-1.071-.848-1.76-1.92-1.76-2.791,0-1.981,1.685-2.985,4.064-4.187.675-.34,1.357-.686,1.936-1.091.578.406,1.261.751,1.936,1.091,2.38,1.202,4.064,2.206,4.064,4.187,0,.87-.689,1.942-1.76,2.791Z"/>
</svg>
