<?xml version="1.0" encoding="UTF-8"?>
<svg xmlns="http://www.w3.org/2000/svg" id="Layer_1" data-name="Layer 1" viewBox="0 0 24 24">
  <path d="m12,9c-4.142,0-7.5,3.358-7.5,7.5s3.358,7.5,7.5,7.5,7.5-3.358,7.5-7.5-3.358-7.5-7.5-7.5Zm-1.479,6.24l3.286.548c1.271.211,2.193,1.3,2.193,2.588,0,1.447-1.177,2.624-2.624,2.624h-.376v1h-2v-1c-1.654,0-3-1.346-3-3h2c0,.551.449,1,1,1h2.376c.344,0,.624-.28.624-.624,0-.307-.22-.565-.521-.616l-3.286-.548c-1.27-.211-2.192-1.3-2.192-2.588,0-1.447,1.177-2.624,2.624-2.624h.376v-1h2v1c1.654,0,3,1.346,3,3h-2c0-.551-.448-1-1-1h-2.376c-.344,0-.624.28-.624.624,0,.307.219.565.521.616Zm13.479-10.24v19h-6.213c1.046-.81,1.914-1.828,2.548-3h.665v-11h-2.109c-1.73-1.838-4.167-3-6.891-3s-5.167,1.161-6.896,3h-2.104v11h.669c.634,1.171,1.5,2.19,2.545,3H0V5c0-1.654,1.346-3,3-3h3V0h3v2h6V0h3v2h3c1.654,0,3,1.346,3,3Z"/>
</svg>
