<?xml version="1.0" encoding="UTF-8"?>
<svg xmlns="http://www.w3.org/2000/svg" id="Layer_1" data-name="Layer 1" viewBox="0 0 24 24">
  <path d="m24,11.986c0-1.516-1.128-2.756-2.589-2.958l-2.021-3.233c.377-.502.609-1.119.609-1.795,0-1.657-1.343-3-3-3-1.108,0-2.064.607-2.584,1.5h-4.832c-.52-.893-1.476-1.5-2.584-1.5-1.657,0-3,1.343-3,3,0,.676.232,1.293.609,1.795l-2.021,3.233c-1.46.202-2.589,1.443-2.589,2.958s1.119,2.747,2.57,2.957l2.039,3.263c-.377.502-.609,1.119-.609,1.795,0,1.657,1.343,3,3,3,1.108,0,2.064-.607,2.584-1.5h4.832c.52.893,1.476,1.5,2.584,1.5,1.657,0,3-1.343,3-3,0-.676-.232-1.293-.609-1.795l2.039-3.263c1.451-.21,2.57-1.447,2.57-2.957Zm-9.584,6.514h-4.832c-.452-.777-1.236-1.326-2.163-1.458l-2.035-3.256c.38-.503.614-1.122.614-1.801,0-.673-.23-1.288-.604-1.789l2.025-3.24c.927-.131,1.711-.681,2.163-1.458h4.832c.452.777,1.236,1.326,2.163,1.458l2.025,3.24c-.375.501-.604,1.115-.604,1.789,0,.679.234,1.298.614,1.801l-2.035,3.256c-.927.131-1.711.681-2.163,1.458Zm.984-9.612l-1.002.577c-.391-.371-.87-.642-1.399-.801v-1.163h-2v1.163c-.529.159-1.007.431-1.399.801l-1.002-.577-.998,1.732,1,.576c-.061.259-.102.526-.102.803s.041.544.102.803l-1,.576.998,1.732,1.002-.577c.391.371.87.642,1.399.801v1.163h2v-1.163c.529-.159,1.007-.431,1.399-.801l1.002.577.998-1.732-1-.576c.061-.259.102-.526.102-.803s-.041-.544-.102-.803l1-.576-.998-1.732Zm-3.4,4.612c-.827,0-1.5-.673-1.5-1.5s.673-1.5,1.5-1.5,1.5.673,1.5,1.5-.673,1.5-1.5,1.5Z"/>
</svg>
