<?xml version="1.0" encoding="UTF-8"?>
<svg xmlns="http://www.w3.org/2000/svg" id="Layer_1" data-name="Layer 1" viewBox="0 0 24 24">
  <path d="M24,12.5c-.704,0-2.534,.285-4.545,1.289l-1.789-1.789,4.979-4.967,1.295-3.974c.434-1.716-1.262-3.414-2.979-2.979l-3.972,1.296-4.98,4.968L7.042,1.376,3.07,.08C1.354-.355-.344,1.344,.09,3.06l1.295,3.973,4.961,4.961-1.801,1.796c-2.01-1.005-3.841-1.29-4.545-1.29l-.01,3c.026,0,2.338,.184,4.582,1.798L.435,21.435l2.121,2.121,4.137-4.137c1.619,2.249,1.806,4.566,1.807,4.592l1.5-.011h1.5c0-.705-.287-2.54-1.297-4.556l1.799-1.795,1.794,1.794c-1.01,2.016-1.297,3.852-1.297,4.556l3,.011c0-.026,.188-2.343,1.807-4.592l4.137,4.137,2.121-2.121-4.137-4.137c2.244-1.613,4.554-1.797,4.572-1.798v-3ZM4.013,5.417l-.69-2.104,2.104,.69,4.459,4.459-1.416,1.413L4.013,5.417Zm3.83,10.73c-.241-.241-.489-.462-.738-.674L18.603,4.004l2.105-.691-.69,2.104-11.5,11.472c-.212-.25-.434-.499-.676-.741Zm6.284-.616l1.416-1.412,1.354,1.354c-.25,.212-.498,.433-.74,.675-.241,.242-.462,.489-.674,.739l-1.356-1.356Z"/>
</svg>
