<?xml version="1.0" encoding="UTF-8"?>
<svg xmlns="http://www.w3.org/2000/svg" id="Layer_1" data-name="Layer 1" viewBox="0 0 24 24">
  <path d="m12,18c-2.485,0-4.5-2.015-4.5-4.5,0-.317.034-.625.097-.924l5.327,5.327c-.298.062-.607.097-.924.097Zm11.961,3.84l-2.121,2.121L.039,2.16,2.16.039l4.323,4.323,2.137-2.362h6.76l2.715,3h1.405c1.93,0,3.5,1.57,3.5,3.5v12.379l.961.961ZM8.607,6.486l2.588,2.588c.261-.048.53-.074.805-.074,2.485,0,4.5,2.015,4.5,4.5,0,.275-.026.544-.074.805l3.574,3.574v-9.379c0-.275-.225-.5-.5-.5h-2.737l-2.715-3h-4.096l-1.345,1.486Zm-4.658,13.514v-11.051l-2.403-2.403c-.377.558-.597,1.231-.597,1.953v14.5h17.051l-3-3H3.949Z"/>
</svg>
