<?xml version="1.0" encoding="UTF-8"?>
<svg xmlns="http://www.w3.org/2000/svg" id="Layer_1" data-name="Layer 1" viewBox="0 0 24 24">
  <path d="m22.016,6.822l-2.266,2.041c.81.546,1.25,1.132,1.25,1.637,0,1.427-3.506,3.5-9,3.5s-9-2.073-9-3.5c0-1.37,3.231-3.335,8.35-3.49l3.192-2.876c-.815-.088-1.665-.134-2.543-.134C5.159,4,0,6.794,0,10.5v7c0,3.706,5.159,6.5,12,6.5s12-2.794,12-6.5v-7c0-1.386-.722-2.645-1.984-3.678Zm-11.516,14.125c-.903-.065-1.739-.187-2.5-.35v-3.939c.794.142,1.63.243,2.5.297v3.993Zm3-3.993c.87-.054,1.706-.154,2.5-.297v3.939c-.761.164-1.597.285-2.5.35v-3.993Zm-10.5.546v-2.61c.594.36,1.264.681,2,.957v3.727c-1.287-.657-2-1.432-2-2.075Zm16,2.075v-3.727c.736-.277,1.406-.598,2-.957v2.61c0,.643-.713,1.418-2,2.075Zm-7.812-9.728L22.033.078l2.008,2.229-10.845,9.77-2.008-2.229Z"/>
</svg>
