<?xml version="1.0" encoding="UTF-8"?>
<svg xmlns="http://www.w3.org/2000/svg" id="Layer_1" data-name="Layer 1" viewBox="0 0 24 24">
  <path d="m22.864,14.983c-4.239-1.063-7.314.326-9.364,2.312v-3.461c3.144-.687,5.5-3.484,5.5-6.835,0-3.866-3.134-7-7-7s-7,3.134-7,7c0,3.351,2.356,6.148,5.5,6.835v3.462c-2.051-1.985-5.127-3.373-9.364-2.314l-1.136.284v1.171c0,2.234.771,4.036,2.292,5.355,2.557,2.218,6.208,2.206,8.637,2.206h2.134c1.937,0,6.084.015,8.645-2.206,1.521-1.319,2.292-3.121,2.292-5.355v-1.171l-1.136-.284Zm-18.61,4.54c-.564-.49-.934-1.104-1.118-1.858,3.553-.383,5.561,1.73,6.576,3.396-1.793-.028-4.1-.355-5.458-1.538Zm4.456-10.823h1.62c.086.289.354.5.671.5h2.126c.316,0,.574-.257.574-.574,0-.272-.194-.509-.462-.563l-2.791-.559c-1.013-.203-1.747-1.099-1.747-2.131,0-1.199.975-2.173,2.173-2.173h.327v-1.2h1.6v1.2h.2c1.201,0,2.189.925,2.291,2.1h-1.62c-.086-.289-.354-.5-.671-.5h-2.127c-.316,0-.573.257-.573.574,0,.272.194.509.461.562l2.792.559c1.013.202,1.747,1.099,1.747,2.131,0,1.199-.975,2.173-2.174,2.173h-.326v1.2h-1.6v-1.2h-.2c-1.201,0-2.189-.925-2.291-2.1Zm11.038,10.823c-1.359,1.183-3.667,1.511-5.459,1.538.935-1.533,2.711-3.44,5.759-3.44.263,0,.536.014.818.044-.184.754-.554,1.368-1.118,1.858Z"/>
</svg>
