<?xml version="1.0" encoding="UTF-8"?>
<svg xmlns="http://www.w3.org/2000/svg" id="Layer_1" data-name="Layer 1" viewBox="0 0 24 24" width="512" height="512"><path d="M18.75,9.6V3.41L13.78,.48c-1.1-.65-2.46-.65-3.55,0L5.25,3.41v6.19L.01,12.69v7.9l4.97,2.93c.55,.32,1.16,.48,1.78,.48s1.23-.16,1.78-.48l3.47-2.04,3.47,2.04c.55,.32,1.16,.48,1.78,.48s1.23-.16,1.78-.48l4.97-2.93v-7.9l-5.24-3.09Zm-1.5,5.88l-2.78-1.64,2.78-1.64,2.78,1.64-2.78,1.64Zm-10.49,0l-2.78-1.64,2.78-1.64,2.78,1.64-2.78,1.64Zm1.5-9.17l2.75,1.62v3.28l-2.75-1.62v-3.28Zm4.75,4.9v-3.28l2.75-1.62v3.28l-2.75,1.62Zm-1.25-8.15c.16-.09,.35-.09,.51,0l2.53,1.49-2.78,1.64-2.78-1.64,2.53-1.49ZM3.01,18.88v-3.28l2.74,1.62v3.28l-2.74-1.62Zm4.74,1.62v-3.28l2.75-1.62v3.28l-2.75,1.62Zm5.75-1.62v-3.28l2.75,1.62v3.28l-2.75-1.62Zm4.75,1.62v-3.28l2.74-1.62v3.28l-2.74,1.62Z"/></svg>
