<?xml version="1.0" encoding="UTF-8"?>
<svg xmlns="http://www.w3.org/2000/svg" id="Layer_1" data-name="Layer 1" viewBox="0 0 24 24">
  <path d="m22.732,9.013c-.768-.699-1.765-1.054-2.797-1.008-1.036.048-1.991.498-2.69,1.265l-2.438,2.679c-.646-.589-1.507-.949-2.449-.949H3.5c-1.93,0-3.5,1.57-3.5,3.5v6c0,1.93,1.57,3.5,3.5,3.5h11.181l8.334-9.532c1.41-1.581,1.283-4.027-.282-5.455Zm-1.966,3.469l-7.447,8.518H3.5c-.275,0-.5-.224-.5-.5v-6c0-.276.225-.5.5-.5h8.857c.354,0,.643.288.643.642,0,.317-.237.591-.551.636l-5.161.737.424,2.97,5.162-.737c1.618-.231,2.875-1.531,3.093-3.115l3.497-3.843c.159-.175.376-.277.612-.288.231-.012.463.071.636.229.356.325.385.881.055,1.252ZM2,2c0-1.105.895-2,2-2s2,.895,2,2-.895,2-2,2-2-.895-2-2Zm4,5.5c0-.828.672-1.5,1.5-1.5h3c.828,0,1.5.672,1.5,1.5v1.5h-6v-1.5Zm1-4.5c0-1.105.895-2,2-2s2,.895,2,2-.895,2-2,2-2-.895-2-2Zm5-1c0-1.105.895-2,2-2s2,.895,2,2-.895,2-2,2-2-.895-2-2Zm-8,6H1v-1.5c0-.828.672-1.5,1.5-1.5h2.558c-.651.636-1.058,1.52-1.058,2.5v.5Zm11.5-3c.828,0,1.5.672,1.5,1.5v1.5h-3v-.5c0-.98-.407-1.864-1.058-2.5h2.558Z"/>
</svg>
