<?xml version="1.0" encoding="UTF-8"?>
<svg xmlns="http://www.w3.org/2000/svg" id="Layer_1" data-name="Layer 1" viewBox="0 0 24 24">
  <path d="M24,12.682v2.818h-2.298l-.342,2.478c-.237,1.723-1.728,3.022-3.467,3.022h-.893v3H3v-4.985c0-.345-.124-.684-.35-.954C.873,15.932,.009,13.622,.009,11H3.009c0,1.917,.618,3.55,1.944,5.139,.675,.809,1.047,1.83,1.047,2.876v1.985H14v-3h3.893c.248,0,.461-.186,.495-.432l.698-5.068h1.557c-.064-.147-.128-.294-.192-.441-.991-2.282-2.016-4.642-2.936-5.78-1.665-2.221-3.785-3.279-6.516-3.279V0c3.689,0,6.678,1.493,8.882,4.437,1.406,1.7,2.901,5.531,4.118,8.246ZM3,0H0V3H3V0Zm5,2h-3v3h3V2ZM1,8h3v-3H1v3Zm6.25,5c.266,0,.514-.061,.75-.146v6.146h3v-7.519c.183-.14,.353-.296,.492-.481,0,0,2.254,0,2.508,0,1.105,0,2-.895,2-2,0-.908-.608-1.665-1.437-1.91-.45-.658-1.206-1.09-2.063-1.09-.25,0-.487,.048-.714,.116-.327-.659-1-1.116-1.786-1.116-.367,0-.707,.101-1,.275v1.725h-2v2h-1.129c-.523,.411-.871,1.033-.871,1.75,0,1.243,1.007,2.25,2.25,2.25Z"/>
</svg>
