<?xml version="1.0" encoding="UTF-8"?>
<svg xmlns="http://www.w3.org/2000/svg" id="Layer_1" data-name="Layer 1" viewBox="0 0 24 24">
  <path d="m23.983,4.109c-.116-1.329-.815-2.535-1.919-3.309-1.509-1.058-3.618-1.059-5.129,0-1.691,1.187-2.369,3.358-1.649,5.282.067.18.092.42-.041.553l-2.028,2.028-.607-.607c-1.405-1.404-3.691-1.403-5.095,0l-.743.743c-.542.542-.89,1.226-1.009,1.968-.721.117-1.411.452-1.965,1.006l-.743.743c-.681.68-1.056,1.585-1.056,2.547s.375,1.867,1.056,2.547l.606.607L.029,21.85l2.121,2.121,3.632-3.632.607.607c.702.702,1.625,1.053,2.547,1.053s1.846-.351,2.548-1.053l.743-.743c.542-.542.89-1.226,1.009-1.968.721-.117,1.411-.452,1.965-1.006l.743-.743c.681-.68,1.056-1.585,1.056-2.547s-.375-1.867-1.056-2.547l-.606-.606,2.029-2.028c.953-.954,1.231-2.382.729-3.726-.204-.543-.108-1.303.562-1.773.488-.342,1.195-.342,1.684,0,.382.268.613.663.652,1.113.039.443-.119.877-.434,1.191l2.121,2.122c.942-.942,1.417-2.245,1.302-3.573Zm-13.877,13.971l-.743.743c-.233.235-.617.236-.853,0l-3.334-3.334c-.153-.154-.177-.333-.177-.426s.023-.272.177-.426l.743-.743c.117-.117.271-.176.426-.176.155,0,.31.059.427.176l3.334,3.334c.153.154.177.333.177.426s-.023.272-.177.426Zm3.717-3.717l-.743.743c-.234.235-.618.234-.853,0l-3.334-3.334c-.153-.154-.177-.333-.177-.426s.023-.272.177-.426l.743-.743c.233-.234.617-.235.853,0l3.334,3.334c.153.154.177.333.177.426s-.023.272-.177.426Z"/>
</svg>
