<?xml version="1.0" encoding="UTF-8"?>
<svg xmlns="http://www.w3.org/2000/svg" id="Layer_1" data-name="Layer 1" viewBox="0 0 24 24">
  <path d="m20,11.5c0-.462.214-.797.394-.997l.902-1.003-.902-1.003c-.18-.199-.394-.534-.394-.997,0-.387.256-.8.882-1.425l1.062-1.061L17.927.999c-1.286-1.287-3.531-1.289-4.821,0L1.999,12.105c-1.33,1.329-1.33,3.492,0,4.821l6.075,6.075c.644.644,1.5.999,2.411.999s1.767-.354,2.411-.999l9.028-9.029-1.059-1.061c-.598-.598-.864-1.034-.864-1.412Zm-10.947-2.207l2.016-2.016,2.236,2.236-2.016,2.016-2.236-2.236Zm6.372,2.341l2.297,2.297-2.016,2.016-2.297-2.297,2.016-2.016Zm.091-8.635c.077,0,.189.021.289.12l1.946,1.946-2.326,2.326-2.236-2.236,2.037-2.037c.1-.1.213-.12.29-.12Zm-4.743,17.88c-.198.198-.381.198-.579,0l-6.075-6.075c-.16-.16-.16-.419,0-.579l2.812-2.812,6.653,6.654-2.812,2.812Z"/>
</svg>
