<?xml version="1.0" encoding="UTF-8"?>
<svg xmlns="http://www.w3.org/2000/svg" id="Layer_1" data-name="Layer 1" viewBox="0 0 24 24" width="512" height="512"><path d="m24,0H6v3h2v6.354l-3.088.965C1.229,11.469-.832,15.403.318,19.088c.918,2.939,3.603,4.914,6.68,4.914.708,0,1.411-.108,2.09-.32l8-2.5c2.938-.918,4.912-3.603,4.912-6.681V3h2V0Zm-5,14.5c0,1.759-1.128,3.293-2.807,3.818l-8.001,2.5c-.389.122-.791.184-1.194.184-1.758,0-3.291-1.128-3.816-2.808-.657-2.105.521-4.354,2.625-5.011l5.193-1.623V3h8v11.5Z"/></svg>
