<?xml version="1.0" encoding="UTF-8"?>
<svg xmlns="http://www.w3.org/2000/svg" id="Layer_1" data-name="Layer 1" viewBox="0 0 24 24">
  <path d="m19.679,2.59L12,.044l-7.678,2.546c-1.389.46-2.322,1.751-2.322,3.211v6.162c0,6.518,6.852,10.45,8.952,11.5l.984.492,1.021-.411c2.122-.854,9.043-4.21,9.043-11.581v-6.162c0-1.461-.933-2.751-2.321-3.211Zm-.679,9.374c0,5.259-5.031,7.896-6.932,8.702-1.926-.998-7.068-4.098-7.068-8.702v-6.162c0-.165.106-.311.266-.364l6.734-2.233,6.735,2.233c.161.053.265.196.265.364v6.162Zm-5.105-2.649c-.575-.868-1.612-1.315-2.653-1.315h-.244l.002-2c-1.381,0-2.501,1.12-2.501,2.501l-.003.833-1.004,2.678c0,1.873,1.568,3.861,3.493,5.313l1.015-3.325h2.5c1.381,0,2.5-1.119,2.5-2.5l-.003-1h-1c-.749,0-1.61-.444-2.102-1.185Z"/>
</svg>
