<?xml version="1.0" encoding="UTF-8"?>
<svg xmlns="http://www.w3.org/2000/svg" id="Layer_1" data-name="Layer 1" viewBox="0 0 24 24">
  <path d="M7,4h-3V0H12.558c-.345,.592-.558,1.271-.558,2.004v.996s-5,0-5,0v1ZM24,2v7h-5.872l-2.454,1.69c-.186,.119-.387,.173-.583,.173-.566,0-1.089-.45-1.089-1.088l-.002-7.772c0-1.1,.899-2,1.999-2.001l6-.002h0c1.104,0,2,.895,2,2Zm-3,1h-3.999s0,2.999,0,2.999h3.999V3Zm-2.25,8h1.25v10c0,1.657-1.343,3-3,3H7c-1.657,0-3-1.343-3-3v-4h1.25l1.453,1h10.297v-5.795l1.75-1.205Zm-4.751,9.008h-4v2h4v-2ZM5.872,15H0v-7c0-1.105,.896-2,2-2h0l6,.002c1.1,0,2,.901,1.999,2.001l-.002,7.772c0,.638-.524,1.088-1.089,1.088-.196,0-.397-.054-.583-.173l-2.454-1.69Zm-2.872-3h3.999v-2.998s-3.999-.001-3.999-.001v2.999Z"/>
</svg>
