<?xml version="1.0" encoding="UTF-8"?>
<svg xmlns="http://www.w3.org/2000/svg" id="Layer_1" data-name="Layer 1" viewBox="0 0 24 24">
  <path d="m7.899,12.612c-.245.372-.443.773-.59,1.193l-3.467,3.467-2.121-2.121,2.245-2.245c-.36-.582-.629-1.225-.791-1.909H0v-3h3.176c.162-.683.433-1.325.793-1.907L1.721,3.842,3.842,1.721l2.248,2.248c.581-.36,1.223-.63,1.907-.793V0h3v3.174c.684.162,1.327.432,1.909.792l2.245-2.245,2.121,2.121-2.244,2.244c.196.316.365.649.505.998-.862.154-1.696.515-2.424,1.085l-.289.226c-.464-1.39-1.777-2.395-3.321-2.395-1.93,0-3.5,1.57-3.5,3.5,0,1.353.772,2.53,1.899,3.112Zm16.101,3.019v8.37h-15v-8.37c0-1.084.49-2.089,1.343-2.757l4-3.13c1.27-.994,3.043-.994,4.314,0l4,3.13c.854.667,1.343,1.672,1.343,2.756Zm-3,0c0-.155-.07-.298-.191-.394l-4.001-3.131c-.182-.142-.434-.142-.615,0l-4,3.13c-.122.096-.192.239-.192.394v5.37h9v-5.37Zm-6,3.37h3v-3h-3v3Z"/>
</svg>
