<svg id="Layer_1" viewBox="0 0 24 24" xmlns="http://www.w3.org/2000/svg" data-name="Layer 1"><path d="m17.086 16h-3.086v-3.086l6.275-6.275c.852-.852 2.234-.852 3.086 0s.852 2.234 0 3.086zm-10.586-3h-6.5v-6.5c0-3.59 2.91-6.5 6.5-6.5s6.5 2.91 6.5 6.5-2.91 6.5-6.5 6.5zm-3-7.973h2c.048-.65.488-1.144 1.287-.99.334.087.618.39.689.736.109.524-.178.937-.511 1.112-.4.211-1.465.772-1.465 2.116h2c0-.061 0-.137.397-.346 1.197-.631 1.814-1.953 1.537-3.289-.228-1.093-1.067-1.981-2.14-2.263-.915-.241-1.868-.05-2.61.522-.741.572-1.184 1.47-1.184 2.402zm2 5.973h2v-2h-2zm15.495 9.425-3.392-1.422h-8.603v-4.379c-.791.244-1.63.376-2.5.376h-.5v7.003h11l4.443 1.863c.214.085.459.136.684.133 1.029 0 1.867-.84 1.867-1.872l.005-10.128-3.001 3.001zm-6.135-15.425c.087.488.14.987.14 1.5s-.053 1.012-.14 1.5h1.226l2.775-2.775c.085-.085.183-.149.274-.225z"/></svg>