<svg id="Layer_1" viewBox="0 0 24 24" xmlns="http://www.w3.org/2000/svg" data-name="Layer 1"><path d="m9.5 13c.828 0 1.5.672 1.5 1.5s-.672 1.5-1.5 1.5-1.5-.672-1.5-1.5.672-1.5 1.5-1.5zm3.5 1.5c0 .828.672 1.5 1.5 1.5s1.5-.672 1.5-1.5-.672-1.5-1.5-1.5-1.5.672-1.5 1.5zm7.141-4.499s-.324 0-.422 0l-.904 3h1.186c.012 0 .023-.003.035-.004v.003c.541.019.965.459.965 1.001 0 .551-.448 1-1 1h-1.961l-.255 1.186c-.638 2.974-3.499 4.814-5.784 4.814s-5.146-1.841-5.784-4.814l-.255-1.186h-1.961c-.552 0-1-.449-1-1 0-.54.422-.979.961-1h1.137l-.904-3c-.041 0-.516.023-.605.037-2.03.209-3.589 1.89-3.589 3.963s1.594 3.792 3.623 3.982c1.283 3.455 4.751 6.018 8.377 6.018s7.094-2.563 8.377-6.018c2.029-.19 3.623-1.904 3.623-3.982 0-2.166-1.695-3.922-3.859-3.999zm-6.641-3.001h-3v3h3zm0-7h-3v5h3zm-6.937 10.933 2.873-.865-.865-2.873-2.873.865zm1.431-5.653-1.443-4.788-2.873.866 1.443 4.788zm10.308 2.78-2.873-.865-.865 2.873 2.873.865zm2.02-6.702-2.873-.866-1.443 4.788 2.873.866z"/></svg>