<svg id="Layer_1" viewBox="0 0 24 24" xmlns="http://www.w3.org/2000/svg" data-name="Layer 1"><path d="m24 3v16.5c0 2.481-2.019 4.5-4.5 4.5h-15c-2.481 0-4.5-2.019-4.5-4.5v-16.5h3v1c0 1.103.897 2 2 2h2.736l-1.32 3h-1.416c-.712 0-1.386-.154-2-.424v10.924c0 .827.673 1.5 1.5 1.5h15c.827 0 1.5-.673 1.5-1.5v-10.924c-.614.269-1.288.424-2 .424h-1.416l-1.32-3h2.736c1.103 0 2-.897 2-2v-1zm-14.272 3.439c-.448-.524-.728-1.196-.728-1.939 0-1.108.607-2.064 1.5-2.584v-1.916h3v1.916c.893.52 1.5 1.476 1.5 2.584 0 .743-.28 1.415-.728 1.939l2.007 4.561h2.721v3h-1.401l1.274 2.896-2.746 1.208-1.806-4.104h-4.642l-1.806 4.104-2.746-1.208 1.274-2.896h-1.401v-3h2.721zm3.273 4.561-1.001-2.275-1.001 2.275z"/></svg>