<?xml version="1.0" encoding="UTF-8"?>
<svg xmlns="http://www.w3.org/2000/svg" id="Layer_1" data-name="Layer 1" viewBox="0 0 24 24">
  <path d="m21,12v3h-3v-6.237c0-.123.046-.241.127-.333l5.746-6.431L21.637,0l-5.747,6.432c-.574.643-.89,1.471-.89,2.331v6.237h-6v-6.237c0-.862-.316-1.69-.891-2.332L2.363,0,.127,2l5.746,6.431c.082.091.127.209.127.333v6.237h-3v-3H0v8.5c0,1.93,1.57,3.5,3.5,3.5h17c1.93,0,3.5-1.57,3.5-3.5v-8.5h-3Zm-.5,9H3.5c-.275,0-.5-.224-.5-.5v-5.432l3.782,3.639c.397.391,1.04.391,1.437,0l3.782-3.639,3.782,3.639c.397.391,1.04.391,1.437,0l3.782-3.638v5.431c0,.276-.225.5-.5.5Z"/>
</svg>
