<svg id="Layer_1" viewBox="0 0 24 24" xmlns="http://www.w3.org/2000/svg" data-name="Layer 1"><path d="m3.5 15c-2.485 0-3.5.731-3.5 1.231v6.538c0 .5 1.015 1.231 3.5 1.231s3.5-.731 3.5-1.231v-6.538c0-.5-1.015-1.231-3.5-1.231zm1.5 5.91c-.461.053-.951.09-1.5.09-.553 0-1.041-.033-1.5-.081v-2.005c.421.053.918.086 1.5.086s1.077-.037 1.5-.095zm15.5-5.91c-2.485 0-3.5.731-3.5 1.231v6.538c0 .5 1.015 1.231 3.5 1.231s3.5-.731 3.5-1.231v-6.538c0-.5-1.015-1.231-3.5-1.231zm1.5 5.91c-.461.053-.951.09-1.5.09-.553 0-1.041-.033-1.5-.081v-2.005c.421.053.918.086 1.5.086s1.077-.037 1.5-.095zm-2-12.66c0-2.097-1.385-3.898-3.312-4.511-.747-2.193-2.812-3.739-5.188-3.739-2.993 0-5.436 2.403-5.499 5.381-1.219.722-2.001 2.04-2.001 3.519 0 2.261 1.839 4.1 4.1 4.1h7.15c2.619 0 4.75-2.131 4.75-4.75zm-13 .65c0-.508.348-.946.847-1.064l1.153-.274v-2.062c0-1.378 1.122-2.5 2.5-2.5 1.246 0 2.305.95 2.464 2.21l.155 1.231 1.239.078c.921.058 1.642.818 1.642 1.73 0 .965-.785 1.75-1.75 1.75h-7.15c-.606 0-1.1-.494-1.1-1.1zm5 6.1c-2.485 0-3.5.731-3.5 1.231v6.538c0 .5 1.015 1.231 3.5 1.231s3.5-.731 3.5-1.231v-6.538c0-.5-1.015-1.231-3.5-1.231zm1.5 5.91c-.461.053-.951.09-1.5.09-.553 0-1.041-.033-1.5-.081v-2.005c.421.053.918.086 1.5.086s1.077-.037 1.5-.095z"/></svg>