<?xml version="1.0" encoding="UTF-8"?>
<svg xmlns="http://www.w3.org/2000/svg" id="Layer_1" data-name="Layer 1" viewBox="0 0 24 24">
  <path d="M17.986,12c3.309,0,6-2.691,6-6S21.295,0,17.986,0s-6,2.691-6,6,2.691,6,6,6Zm0-9c1.654,0,3,1.346,3,3s-1.346,3-3,3-3-1.346-3-3,1.346-3,3-3ZM.986,3.5C.986,2.119,2.105,1,3.486,1s2.5,1.119,2.5,2.5-1.119,2.5-2.5,2.5S.986,4.881,.986,3.5Zm2.981,13.5l-.03,3.882-.821,3.118H.014l.972-3.694V10.5c0-1.381,1.119-2.5,2.5-2.5h3.379l2.561-2.561,2.121,2.121-3.439,3.439h-2.121v3h4v4.036l-3,2.082v-3.118H3.967Zm.932,7L23.986,10.756v3.651l-13.825,9.593H4.899Z"/>
</svg>
