<?xml version="1.0" encoding="UTF-8"?>
<svg xmlns="http://www.w3.org/2000/svg" id="Layer_1" data-name="Layer 1" viewBox="0 0 24 24" width="512" height="512"><path d="M10,.417V.181c.652-.11,1.317-.181,2-.181s1.348,.071,2,.181v.114c-.847,.319-1.572,.883-2.099,1.6-.505-.633-1.15-1.148-1.901-1.477Zm13,6.801v1.157c0,1.472-.698,2.778-1.774,3.624l-.228,.192c-.103,4.874-4.1,8.808-8.998,8.808-4.962,0-9-4.038-9-9,0-.006,0-.011,0-.016-1.21-.913-2.001-2.354-2.001-3.984v-.781c-.64,1.466-1,3.082-1,4.781,0,6.617,5.383,12,12,12s12-5.383,12-12c0-1.7-.36-3.315-1-4.781ZM7,17h2.5c0,1.5,1,3,2.5,3s2.5-1.5,2.5-3h2.5v-3H7v3Zm1.376-8h-2.376c-.551,0-1-.449-1-1H3c0,1.654,1.346,3,3,3v1h2v-1h.376c1.447,0,2.624-1.177,2.624-2.624,0-1.288-.922-2.377-2.192-2.588l-3.287-.548c-.302-.05-.521-.309-.521-.616,0-.344,.28-.624,.624-.624h2.376c.551,0,1,.449,1,1h2c0-1.654-1.346-3-3-3V1h-2v1h-.376c-1.447,0-2.624,1.177-2.624,2.624,0,1.288,.922,2.377,2.192,2.588l3.287,.548c.302,.05,.521,.309,.521,.616,0,.344-.28,.624-.624,.624Zm4.624-4.376c0,1.288,.922,2.377,2.192,2.588l3.287,.548c.302,.05,.521,.309,.521,.616,0,.344-.28,.624-.624,.624h-2.376c-.551,0-1-.449-1-1h-2c0,1.654,1.346,3,3,3v1h2v-1h.376c1.447,0,2.624-1.177,2.624-2.624,0-1.288-.922-2.377-2.192-2.588l-3.287-.548c-.302-.05-.521-.309-.521-.616,0-.344,.28-.624,.624-.624h2.376c.551,0,1,.449,1,1h2c0-1.654-1.346-3-3-3V1h-2v1h-.376c-1.447,0-2.624,1.177-2.624,2.624Z"/></svg>
