<svg id="Layer_1" viewBox="0 0 24 24" xmlns="http://www.w3.org/2000/svg" data-name="Layer 1"><path d="m22.96 13.882-.696-3.248c-.485-2.271-2.079-3.628-4.264-3.628-2.173 0-3.766 1.354-4.262 3.62-.255 1.165-.567 2.634-.7 3.261-.11.52.018 1.054.352 1.466.336.415.837.653 1.374.653h1.509c.124.844.843 1.494 1.722 1.494s1.598-.65 1.721-1.494h1.519c.538 0 1.039-.239 1.375-.655.334-.414.461-.949.35-1.469zm-6.291-2.614c.276-1.262.989-1.262 1.332-1.262.525 0 1.094.149 1.33 1.254l.375 1.746h-3.412c.121-.565.255-1.186.376-1.738zm2.281 7.732c-.17 1.172-.923 2.148-1.95 2.644v2.356h-3v-2h-8v2h-3v-2.351c-1.178-.564-2-1.758-2-3.149v-13c0-1.391.822-2.585 2-3.149v-2.351h3v2h8v-2h3v2.355c1.027.496 1.78 1.473 1.95 2.644h-14.45c-.276 0-.5.225-.5.5v13c0 .275.224.5.5.5h14.45z"/></svg>