<?xml version="1.0" encoding="UTF-8"?>
<svg xmlns="http://www.w3.org/2000/svg" id="Layer_1" data-name="Layer 1" viewBox="0 0 24 24">
  <path d="m2.4,10.686l-.917.946-1.149-1.113,2.44-2.519h1.226v8.018h-1.6v-5.332Zm20.35,2.814c-.69,0-1.25.56-1.25,1.25s.56,1.25,1.25,1.25,1.25-.56,1.25-1.25-.56-1.25-1.25-1.25Zm-3.25-4.25c0-.69-.56-1.25-1.25-1.25s-1.25.56-1.25,1.25.56,1.25,1.25,1.25,1.25-.56,1.25-1.25Zm-.722,6.75l5.222-8h-1.911l-5.222,8h1.911Zm-11.278-7.982c1.381,0,2.5,1.119,2.5,2.5v3c0,1.381-1.119,2.5-2.5,2.5s-2.5-1.119-2.5-2.5v-3c0-1.381,1.119-2.5,2.5-2.5Zm0,1.6c-.496,0-.9.404-.9.9v3c0,.496.404.9.9.9s.9-.404.9-.9v-3c0-.496-.404-.9-.9-.9Zm6-1.6c1.381,0,2.5,1.119,2.5,2.5v3c0,1.381-1.119,2.5-2.5,2.5s-2.5-1.119-2.5-2.5v-3c0-1.381,1.119-2.5,2.5-2.5Zm0,1.6c-.496,0-.9.404-.9.9v3c0,.496.404.9.9.9s.9-.404.9-.9v-3c0-.496-.404-.9-.9-.9Zm-1.5-6.618c2.656,0,5.04,1.164,6.689,3h3.687C20.298,2.419,16.43,0,12,0S3.702,2.419,1.624,6h3.687c1.649-1.836,4.033-3,6.689-3Zm0,18c-2.656,0-5.04-1.164-6.689-3H1.624c2.079,3.581,5.946,6,10.376,6s8.298-2.419,10.376-6h-3.687c-1.649,1.836-4.033,3-6.689,3Z"/>
</svg>
