<?xml version="1.0" encoding="UTF-8"?>
<svg xmlns="http://www.w3.org/2000/svg" id="Layer_1" data-name="Layer 1" viewBox="0 0 24 24">
  <path d="m23.985,8.929L8.68.418c-1.69-.912-3.814-.284-4.736,1.404l-1.927,3.539c-.448.82-.549,1.766-.285,2.663.264.897.861,1.638,1.665,2.076l5.602,3.149-1.465,4.396c-.068.205-.259.342-.475.342H3v-3H0v9h3v-3h4.059c1.509,0,2.843-.962,3.32-2.394l1.283-3.848,5.414,3.044,1.031-1.892,2.572,1.403,2.527-4.658-2.505-1.366,3.284-2.348Zm-19.135-1.453c-.158-.086-.218-.224-.24-.298-.021-.074-.045-.222.042-.381l1.927-3.539c.092-.168.268-.263.442-.263.075,0,.149.018.217.054l11.145,6.197-.112.081-2.375,4.359L4.85,7.476Z"/>
</svg>
