<?xml version="1.0" encoding="UTF-8"?>
<svg xmlns="http://www.w3.org/2000/svg" id="Layer_1" data-name="Layer 1" viewBox="0 0 24 24">
  <path d="M24,21v3c-1.157,0-2.202-.451-3-1.17-.798,.72-1.843,1.17-3,1.17s-2.202-.451-3-1.17c-.798,.72-1.843,1.17-3,1.17s-2.202-.451-3-1.17c-.798,.72-1.843,1.17-3,1.17s-2.202-.451-3-1.17c-.798,.72-1.843,1.17-3,1.17v-3c.651,0,1.201-.419,1.408-1h3.184c.207,.581,.757,1,1.408,1s1.201-.419,1.408-1h3.184c.207,.581,.757,1,1.408,1s1.201-.419,1.408-1h3.184c.207,.581,.757,1,1.408,1s1.201-.419,1.408-1h3.184c.207,.581,.757,1,1.408,1ZM5,8.626L11.555,2.141,9.445,.008,2.378,7H0v11H5V8.626Zm16.622-1.626L14.555,.008l-2.11,2.133,6.555,6.485v9.374h5V7h-2.378Z"/>
</svg>
