<?xml version="1.0" encoding="UTF-8"?>
<svg xmlns="http://www.w3.org/2000/svg" id="Layer_1" data-name="Layer 1" viewBox="0 0 24 24">
  <path d="m23.116,20.012l-.741.988c-1.409,1.878-3.652,3-6,3H7.625c-2.348,0-4.591-1.122-6-3.001l-.74-.985c-1.266-1.688-1.09-4.083.401-5.453.225-.207.472-.385.734-.534l-1.22-1.626c-.641-.854-.911-1.908-.76-2.966.151-1.059.705-1.994,1.56-2.635,1.053-.789,2.373-.979,3.547-.629.123-.547.32-1.069.582-1.556-.996-1.079-.971-2.761.076-3.809,1.074-1.074,2.815-1.074,3.889,0,.151.151.268.302.352.452.62-.168,1.275-.258,1.953-.258.621,0,1.224.076,1.798.218.058-.093.129-.188.213-.283,1.003-1.141,2.74-1.253,3.881-.25,1.117.981,1.247,2.667.312,3.807.293.52.513,1.08.647,1.67,1.168-.343,2.493-.154,3.548.638.856.641,1.41,1.576,1.561,2.635.151,1.058-.119,2.111-.76,2.966l-1.219,1.625c.262.149.509.328.734.536,1.49,1.37,1.666,3.765.4,5.45ZM12,4c-2.206,0-4,1.57-4,3.5,0,.706.241,1.364.654,1.915l.133.166h0c.729.86,1.898,1.419,3.214,1.419,1.392,0,2.619-.625,3.336-1.571l.221-.33c.283-.48.443-1.023.443-1.599,0-1.93-1.794-3.5-4-3.5Zm-4.723,16.986c-.346-1.215-.973-2.08-.981-2.092l-1.496-1.994c-.171-.229-.476-.4-.8-.4-.176,0-.44.046-.684.27-.364.334-.377.981-.031,1.443l.74.986c.775,1.035,1.972,1.687,3.252,1.787Zm9.567-5.942c.383-.512.911-.924,1.518-1.194l2.438-3.251c.161-.213.228-.477.19-.741-.038-.265-.176-.498-.39-.658-.44-.33-1.07-.241-1.4.2l-1.223,1.48c-1.231,1.87-3.449,3.12-5.977,3.12-2.259,0-4.271-.999-5.552-2.546l-.003.002-1.616-2.019c-.359-.478-.987-.566-1.429-.237-.214.16-.352.394-.39.658-.038.265.03.528.19.741l2.44,3.253c.611.275,1.151.701,1.56,1.247l1.5,2c.061.081,1.243,1.681,1.658,3.9h3.23c.31-2.526,1.354-3.765,1.784-4.176l1.473-1.78Zm3.84,1.727c-.29-.266-.608-.283-.775-.266-.286.026-.538.167-.709.396l-1.815,2.141h0c.005,0-.523.539-.766,1.952,1.319-.073,2.559-.731,3.355-1.793l.741-.989c.346-.461.332-1.107-.031-1.44Zm-10.185-8.521c0-.967.672-1.75,1.5-1.75s1.5.783,1.5,1.75h-3Z"/>
</svg>
