<svg id="Layer_1" viewBox="0 0 24 24" xmlns="http://www.w3.org/2000/svg" data-name="Layer 1"><path d="m22 21h2v3h-24v-3h11.067c-7.88-5.316-8.066-15.849-8.067-15.991v-2.009h-3v-3h6v5c.006.642.337 16 16 16zm-.751-7c-.141 0-.278-.057-.377-.156l-6.716-6.716c-.099-.099-.156-.236-.156-.377v-2.751h-3v2.751c0 .868.323 1.68.892 2.325-.503-.137-1.058-.032-1.453.363-.586.586-.586 1.536 0 2.121.586.586 1.536.586 2.121 0 .385-.385.491-.922.37-1.415l4.923 4.923c-.492-.121-1.03-.014-1.415.37-.586.586-.586 1.536 0 2.121.586.586 1.536.586 2.121 0 .395-.395.5-.95.363-1.453.645.569 1.457.892 2.325.892h2.751v-3h-2.751z"/></svg>