<?xml version="1.0" encoding="UTF-8"?>
<svg xmlns="http://www.w3.org/2000/svg" id="Layer_1" data-name="Layer 1" viewBox="0 0 24 24">
  <path d="m23,6.408v3.592h-2c0-1-.5-2-2-2h-1.425l1.303,3.016c.195.438.155.94-.106,1.342-.173.266-.429.453-.719.554l-3.654,2.088h-3.398v9h-3v-9h-4c-.551,0-1,.448-1,1v8H0v-8c0-2.206,1.794-4,4-4h9.602l2.269-1.296-1.703-3.907c-.106-.244-.167-.513-.167-.797v-2c0-1.105.895-2,2-2h3c1.5,0,2-1,2-2h2v3.592c.581.207,1,.757,1,1.408s-.419,1.201-1,1.408Zm-17,3.592c2.209,0,4-1.791,4-4s-1.791-4-4-4S2,3.791,2,6s1.791,4,4,4Z"/>
</svg>
