<?xml version="1.0" encoding="UTF-8"?>
<svg xmlns="http://www.w3.org/2000/svg" id="Layer_1" data-name="Layer 1" viewBox="0 0 24 24" width="512" height="512"><path d="M12,24C5.383,24,0,18.617,0,12S5.383,0,12,0s12,5.383,12,12-5.383,12-12,12Zm0-21C7.037,3,3,7.037,3,12s4.037,9,9,9,9-4.037,9-9S16.963,3,12,3Zm3,13h-6v3h6v-3Zm-4-5s-2,1-3,1-3-1-3-1c0,1.631,1,4,3,4s3-2.369,3-4Zm8,0s-2,1-3,1-3-1-3-1c0,1.631,1,4,3,4s3-2.369,3-4ZM9.332,6.555l-1.664-1.109c-.772,1.158-1.852,2.058-3.039,2.531l.74,1.857c1.583-.631,2.953-1.766,3.963-3.279Zm10.039,1.422c-1.188-.474-2.267-1.373-3.039-2.531l-1.664,1.109c1.01,1.514,2.38,2.648,3.963,3.279l.74-1.857Z"/></svg>
