<?xml version="1.0" encoding="UTF-8"?>
<svg xmlns="http://www.w3.org/2000/svg" id="Layer_1" data-name="Layer 1" viewBox="0 0 24 24">
  <path d="m3,12H0C0,5.383,5.383,0,12,0c3.204,0,6.238,1.302,8.47,3.53l2.53-2.53v5.909c0,.603-.488,1.091-1.091,1.091h-5.909l2.352-2.352c-1.674-1.671-3.95-2.648-6.352-2.648C7.038,3,3,7.037,3,12Zm13.783,5.874c.526.336,1.215-.041,1.215-.665l.002-5.707c0-.828-.671-1.5-1.499-1.5l-5.001-.003c-.829,0-1.5.671-1.5,1.5v4.5h4.5l2.283,1.874Zm-5.281-9.874h2.498s0-.5,0-.5c0-.829-.672-1.5-1.501-1.5l-5.001.003c-.828,0-1.499.672-1.498,1.5v5.707c.001.624.691,1.001,1.216.665l.783-.643v-1.732c0-.936.365-1.815,1.027-2.477.661-.66,1.539-1.023,2.472-1.023h.004Zm9.498,4c0,4.963-4.038,9-9,9-2.402,0-4.678-.976-6.352-2.648l2.352-2.352H2.091c-.602,0-1.091.488-1.091,1.091v5.909l2.53-2.53c2.232,2.228,5.266,3.53,8.47,3.53,6.617,0,12-5.383,12-12h-3Z"/>
</svg>
