<?xml version="1.0" encoding="UTF-8"?>
<svg xmlns="http://www.w3.org/2000/svg" id="Layer_1" data-name="Layer 1" viewBox="0 0 24 24">
  <path d="m22.999,5h-7.947l.267-2h4.68V0h-7.32l-.656,5H.999v3h1.167l1.524,12.91c.208,1.761,1.702,3.09,3.476,3.09h9.667c1.773,0,3.268-1.328,3.476-3.09l1.524-12.91h1.167v-3Zm-6.167,16H7.166c-.253,0-.467-.189-.497-.441l-.519-4.395c.836-.543,2.022-1.164,2.849-1.164.646,0,1.463.409,2.329.842,1.086.543,2.317,1.158,3.671,1.158.964,0,1.959-.325,2.835-.731l-.506,4.289c-.03.252-.243.442-.497.442Zm1.442-8.454c-.806.581-2.293,1.454-3.275,1.454-.646,0-1.463-.409-2.329-.842-1.086-.543-2.317-1.158-3.671-1.158-1.115,0-2.267.435-3.232.928l-.582-4.928h13.625l-.537,4.546Z"/>
</svg>
