<svg id="Layer_1" enable-background="new 0 0 24 24" viewBox="0 0 24 24" xmlns="http://www.w3.org/2000/svg"><path d="m23.4 16.7-7.3 7.3h-3.1v-3.1l7.3-7.3c.9-.9 2.2-.9 3.1 0 .8.9.8 2.3 0 3.1zm-10.3 1.3-2.1 2.1v3.9h-8c-1.7 0-3-1.3-3-3v-21h16v10c-.6-.6-1.5-1-2.5-1-.2 0-.3 0-.5 0v-6h-10v15zm-8.1-4c.5 0 1-.2 1.5-.4-.9-1.2-1.5-2.5-1.5-3.6 0-1.6 1.3-3 3-3s3 1.3 3 3c0 1.1-.6 2.4-1.5 3.5.5.3 1 .4 1.5.4.1 0 .6 0 1.2-.3-.1-.2-.2-.6-.2-1.1 0-.8.7-1.5 1.5-1.5s1.5.7 1.5 1.5c0 1.5-1 2.9-2.5 3.3-.5.1-1 .2-1.5.2-1.1 0-2.1-.4-3-1.1-.9.7-2 1.1-3 1.1zm2-4c0 .6.4 1.5 1 2.2.6-.8 1-1.6 1-2.2s-.4-1-1-1-1 .4-1 1z"/></svg>