<svg id="Layer_1" viewBox="0 0 24 24" xmlns="http://www.w3.org/2000/svg" data-name="Layer 1"><path d="m4 12c0-.812.485-1.507 1.18-1.82l7.742 7.742c-.301.047-.608.078-.922.078-2.624 0-4.849-1.687-5.664-4.034-.11.019-.221.034-.336.034-1.105 0-2-.895-2-2zm20 0c0 6.617-5.383 12-12 12s-12-5.383-12-12 5.383-12 12-12 12 5.383 12 12zm-6.793 7.328-12.535-12.535c-1.049 1.472-1.672 3.266-1.672 5.207 0 4.963 4.037 9 9 9 1.941 0 3.735-.624 5.207-1.672zm-2.091-6.333c.237-.265.385-.611.385-.994 0-.828-.672-1.5-1.5-1.5-.383 0-.729.148-.994.385l2.11 2.11zm5.885-.994c0-4.962-4.037-9-9-9-1.941 0-3.735.624-5.207 1.672l2.161 2.161c.347-.214.71-.394 1.085-.502.19 1.476.83 2.062 1.795 2.915l1.33-1.493c-.679-.604-1.088-.899-1.165-1.751 2.606.017 4.838 1.698 5.659 4.032.111-.019.224-.034.341-.034 1.105 0 2 .895 2 2s-.895 2-2 2c-.115 0-.227-.015-.336-.034-.131.378-.299.738-.499 1.077l2.163 2.163c1.049-1.472 1.672-3.266 1.672-5.207z"/></svg>