<?xml version="1.0" encoding="UTF-8"?>
<svg xmlns="http://www.w3.org/2000/svg" id="Layer_1" data-name="Layer 1" viewBox="0 0 24 24" width="512" height="512"><path d="M8,11c-1.105,0-2-.895-2-2s.895-2,2-2,2,.895,2,2-.895,2-2,2Zm10-2c0-1.105-.895-2-2-2s-2,.895-2,2,.895,2,2,2,2-.895,2-2ZM6,17h3v-4h-3v4Zm7-4h-3v4h3v-4Zm1,4h3v-4h-3v4ZM12,0C5.383,0,0,5.383,0,12s5.383,12,12,12c2.683,0,5.155-.896,7.156-2.39-.417-.196-.807-.454-1.139-.791-.377-.383-.69-.869-.949-1.388-1.445,.988-3.189,1.568-5.068,1.568-4.963,0-9-4.038-9-9S7.037,3,12,3s9,4.038,9,9c0,.528-.055,1.043-.143,1.547,1.057,.426,2.144,1.025,2.725,1.532l.002,.002c.262-.985,.416-2.014,.416-3.081C24,5.383,18.617,0,12,0Zm6.75,15c-.414,0-.75,.336-.75,.75,0,.088,.462,2.673,1.439,3.664,.387,.392,.902,.585,1.414,.585s1.024-.195,1.414-.585c.78-.78,.78-2.048,0-2.828-.816-.711-2.941-1.586-3.518-1.586Z"/></svg>
