<?xml version="1.0" encoding="UTF-8"?>
<svg xmlns="http://www.w3.org/2000/svg" id="Layer_1" data-name="Layer 1" viewBox="0 0 24 24">
  <path d="m22.975,6.004l-4.979-4.979c-.661-.661-1.54-1.025-2.475-1.025h-7.042c-.935,0-1.813.364-2.475,1.025L1.025,6.004c-.661.661-1.025,1.54-1.025,2.475v7.042c0,.935.364,1.813,1.025,2.475l4.979,4.979c.661.661,1.54,1.025,2.475,1.025h7.042c.935,0,1.813-.364,2.475-1.025l4.979-4.979c.661-.661,1.025-1.54,1.025-2.475v-7.042c0-.935-.364-1.813-1.025-2.475Zm-1.975,9.517c0,.131-.053.26-.146.354l-4.979,4.979c-.093.093-.222.146-.354.146h-7.042c-.131,0-.26-.053-.354-.146l-4.979-4.979c-.093-.093-.146-.222-.146-.354v-7.042c0-.131.053-.26.146-.354l4.979-4.979c.093-.093.222-.146.354-.146h7.042c.131,0,.26.053.354.146l4.979,4.979c.093.093.146.222.146.354v7.042Zm-7.5-5.021h3.5v3h-3.5v3.5h-3v-3.5h-3.5v-3h3.5v-3.5h3v3.5Z"/>
</svg>
