<?xml version="1.0" encoding="UTF-8"?>
<svg xmlns="http://www.w3.org/2000/svg" id="Layer_1" data-name="Layer 1" viewBox="0 0 24 24">
  <path d="M20.5,7h-1.5V3.5c0-1.93-1.57-3.5-3.5-3.5h-7c-1.93,0-3.5,1.57-3.5,3.5v3.5h-1.5c-1.93,0-3.5,1.57-3.5,3.5v8.5H10.5v2H6v3h12v-3h-4.5v-2h10.5V10.5c0-1.93-1.57-3.5-3.5-3.5ZM8.5,3h7c.276,0,.5,.224,.5,.5V14H8V3.5c0-.276,.224-.5,.5-.5ZM3,14.351v-3.851c0-.276,.224-.5,.5-.5h1.5v4h-.5c-.539,0-1.044,.133-1.5,.351Zm16.5-.351h-.5v-4h1.5c.276,0,.5,.224,.5,.5v3.851c-.456-.219-.961-.351-1.5-.351Zm-8.5-3h2v2h-2v-2Zm0-3.973h-2c0-.932,.442-1.83,1.184-2.402,.743-.573,1.695-.763,2.61-.522,1.072,.282,1.912,1.169,2.14,2.261,.279,1.337-.339,2.66-1.537,3.292-.215,.114-.348,.194-.395,.238,.002,.006-.003,.042-.003,.107h-2c0-1.341,.881-1.806,1.464-2.114,.334-.176,.621-.588,.512-1.114-.072-.345-.355-.648-.689-.735-.429-.113-.737,.059-.881,.171-.254,.196-.405,.502-.405,.819Z"/>
</svg>
