<?xml version="1.0" encoding="UTF-8"?>
<svg xmlns="http://www.w3.org/2000/svg" id="Layer_1" data-name="Layer 1" viewBox="0 0 24 24">
  <path d="m9.396,10.735c.057-.334.029-.519.007-.599-.188-.69-.75-1.136-1.432-1.136-.213,0-.428.044-.64.132-.254.105-.503.367-.682.719l-2.193,4.149h-2.456c-1.105,0-2,.895-2,2v6c0,1.105.895,2,2,2h12.5l1.5-8v-2h-7.184l.58-3.265Zm3.364,6.265l-.75,4h-7.01v-4h7.76Zm9.22-4.811l1.829,1.171-1.617,2.527-1.83-1.171c-.682.701-1.489,1.279-2.4,1.672l.004-.019.034-.183v-3.356c.914-.824,1.5-2.005,1.5-3.33,0-2.481-2.019-4.5-4.5-4.5-2.071,0-3.85,1.541-4.372,3.449l-2.192-1.395-2.245-1.413,1.617-2.527,1.819,1.164c1.031-1.06,2.37-1.817,3.872-2.125V0h3v2.151c1.503.306,2.841,1.066,3.872,2.127l1.819-1.164,1.617,2.527-1.818,1.164c.324.838.509,1.745.509,2.696s-.196,1.852-.52,2.689Zm-5.48-2.689c0,.828-.672,1.5-1.5,1.5s-1.5-.672-1.5-1.5.672-1.5,1.5-1.5,1.5.672,1.5,1.5Z"/>
</svg>
