<svg id="Layer_1" viewBox="0 0 24 24" xmlns="http://www.w3.org/2000/svg" data-name="Layer 1"><path d="m13 3.848c0-.461-.212-.897-.576-1.181l-3-2.348c-.543-.425-1.306-.425-1.849 0l-3 2.348c-.363.284-.576.72-.576 1.181v5.152h9.001zm-3.5 2.652h-2v-2h2zm13.232 2.513c-.768-.699-1.764-1.056-2.797-1.008-1.036.048-1.992.498-2.69 1.265l-2.438 2.679c-.646-.589-1.507-.949-2.449-.949h-8.858c-1.93 0-3.5 1.57-3.5 3.5v6c0 1.93 1.57 3.5 3.5 3.5h11.181l8.335-9.532c1.409-1.581 1.282-4.028-.283-5.455zm-1.966 3.47-7.447 8.518h-9.819c-.276 0-.5-.225-.5-.5v-6c0-.275.224-.5.5-.5h8.858c.354 0 .642.288.642.643 0 .317-.237.591-.551.635l-5.161.737.424 2.971 5.16-.737c1.619-.231 2.877-1.53 3.095-3.116l3.497-3.843c.313-.358.901-.385 1.248-.059.356.325.385.882.055 1.252z"/></svg>