<?xml version="1.0" encoding="UTF-8"?>
<svg xmlns="http://www.w3.org/2000/svg" id="Layer_1" data-name="Layer 1" viewBox="0 0 24 24">
  <path d="m18.5,0H5.5c-1.93,0-3.5,1.57-3.5,3.5v20.5h14.381l5.619-5.664V3.5c0-1.93-1.57-3.5-3.5-3.5ZM5,3.5c0-.275.224-.5.5-.5h13c.276,0,.5.225.5.5v12.5h-5.5v5H5V3.5Zm7.76,6.969l-1.268-6.213h1.633l1.202,5.893c.013.065.031.117.05.159.02-.047.042-.109.057-.188l1.182-5.864h1.632l-1.244,6.169c-.126.647-.558,1.575-1.628,1.575s-1.51-.97-1.618-1.531Zm-1.76-3.969v.5h-1.6v-.5c0-.496-.404-.9-.9-.9s-.9.404-.9.9v3c0,.496.404.9.9.9s.9-.404.9-.9v-.5h1.6v.5c0,1.381-1.119,2.5-2.5,2.5s-2.5-1.119-2.5-2.5v-3c0-1.381,1.119-2.5,2.5-2.5s2.5,1.119,2.5,2.5Z"/>
</svg>
