<?xml version="1.0" encoding="UTF-8"?>
<svg xmlns="http://www.w3.org/2000/svg" id="Layer_1" data-name="Layer 1" viewBox="0 0 24 24" width="512" height="512"><path d="m18,9c-3.309,0-6,3.364-6,7.5s2.691,7.5,6,7.5,6-3.364,6-7.5-2.691-7.5-6-7.5Zm-.9,3.216c.224.699.368,1.945-.449,3.629-.648,1.336-.895,2.534-.922,3.557-.452-.79-.728-1.808-.728-2.902,0-1.971.897-3.695,2.1-4.284Zm1.801,8.568c-.224-.699-.368-1.945.449-3.629.648-1.336.895-2.534.922-3.557.452.79.728,1.808.728,2.902,0,1.971-.897,3.695-2.1,4.284ZM12.461,1.54C11.255.334,9.472-.198,7.565.07c-1.773.254-3.522,1.166-4.926,2.569C-.371,5.65-.865,10.056,1.539,12.46c1,1,2.397,1.539,3.931,1.539.316,0,.639-.023.964-.069,1.773-.254,3.522-1.166,4.926-2.569,3.011-3.011,3.504-7.416,1.101-9.82Zm-4.471,1.5c.153-.021.342-.039.551-.039.313,0,.671.04,1.018.167-.337.687-1.148,1.756-3.05,2.415-1.536.532-2.627,1.279-3.402,2.053.224-.977.79-2.011,1.654-2.875.934-.934,2.11-1.561,3.229-1.721Zm-1.979,7.92c-.384.053-.991.083-1.569-.129.337-.687,1.148-1.755,3.05-2.414,1.536-.532,2.627-1.279,3.402-2.053-.224.977-.79,2.011-1.654,2.875-.934.934-2.11,1.561-3.229,1.721Z"/></svg>
