<?xml version="1.0" encoding="UTF-8"?>
<svg xmlns="http://www.w3.org/2000/svg" id="Layer_1" data-name="Layer 1" viewBox="0 0 24 24">
  <path d="m21,12.387c1.735-.683,3-1.952,3-3.887,0-2.589-2.416-6.32-6.225-6.493-1.152-.393-6.218-2.007-11.775-2.007v3c2.281,0,4.503.308,6.345.677-1.568.689-3.45,1.323-6.345,1.323v3c2.538,0,4.474-.435,6.02-.972-.013.156-.02.313-.02.472,0,.486.064.958.183,1.407-6.689,2.001-9.097,7.513-9.582,11.185-.19-.06-.392-.092-.601-.092-1.105,0-2,.895-2,2s.895,2,2,2h21v-3h-2v-8.613Zm0-3.887c0,1.034-2.047,1.5-3.5,1.5-1.378,0-2.5-1.121-2.5-2.5s1.122-2.5,2.5-2.5c2.137,0,3.5,2.298,3.5,3.5Zm-11,6.5v3c1.654,0,3,1.346,3,3h-7.468c.161-1.797,1.228-7.762,8.279-9.424.976.884,2.271,1.424,3.689,1.424.167,0,.334-.004.5-.011v8.011h-2c0-3.309-2.691-6-6-6Z"/>
</svg>
