<?xml version="1.0" encoding="UTF-8"?>
<svg xmlns="http://www.w3.org/2000/svg" id="Layer_1" data-name="Layer 1" viewBox="0 0 24 24">
  <path d="m22.668,3.531l-.232-.232c-1.388-1.389-3.202-2.106-5.012-2.143-1.826-.038-3.799.769-5.178,2.122-.026.025-.013.012,0,0l-2.993-1.871c-1.557-.972-3.588-.623-4.729.806L.753,6.925c-1.028,1.284-1.058,3.101-.07,4.418l1.59,2.12c-1.774,2.741-1.415,6.513,1.035,8.963l.232.233c.882.882,2.041,1.322,3.199,1.322s2.318-.441,3.2-1.323l12.729-12.729c.854-.854,1.326-1.991,1.326-3.2s-.472-2.345-1.326-3.2ZM3.083,9.544c-.166-.222-.161-.528.012-.745l3.771-4.713c.193-.24.536-.299.797-.135l4.962,3.101-3.219,3.219c-1.691-.116-3.417.081-4.977,1.066l-1.345-1.793Zm4.735,10.994c-.594.595-1.562.594-2.157,0l-.232-.232c-1.631-1.632-1.7-4.241-.154-5.816.901-.918,1.973-1.245,3.281-1.245,1.103,0,2.374.233,3.852.54.604.126,1.213.252,1.814.35l-6.403,6.403Zm9.625-9.625c-.705.701-2.488.338-4.382-.056l2.173-2.173,2.731,1.707-.523.523Zm3.104-3.104l-.404.404-5.253-3.283c1.591-1.19,3.923-1.013,5.425.49l.232.233c.288.288.447.67.447,1.078s-.159.791-.447,1.079ZM12.246,3.278h0c.013-.013.025-.026,0,0Z"/>
</svg>
