<?xml version="1.0" encoding="UTF-8"?>
<svg xmlns="http://www.w3.org/2000/svg" id="Layer_1" data-name="Layer 1" viewBox="0 0 24 24" width="512" height="512"><path d="m18.659,13c-.438-1.591-1.28-3.017-2.407-4.16l1.225-1.225c1.282.874,2.829,1.385,4.494,1.385v-3c-2.757,0-5-2.243-5-5h-3c0,1.665.511,3.212,1.385,4.494l-1.55,1.55c-.867-.445-1.811-.76-2.805-.921v-2.123h-3v2.118C3.456,6.84-.029,10.785-.029,15.529v7.471h24v-10h-5.312Zm-15.688,7v-4.471c0-3.596,2.921-6.521,6.515-6.529,2.698.006,5.016,1.656,6.005,4h-.02c-2.481,0-4.5,2.019-4.5,4.5v2.5H2.971Zm18,0h-7v-2.5c0-.827.673-1.5,1.5-1.5h5.5v4ZM4.971,15h3v3h-3v-3Z"/></svg>
