<?xml version="1.0" encoding="UTF-8"?>
<svg xmlns="http://www.w3.org/2000/svg" id="Layer_1" data-name="Layer 1" viewBox="0 0 24 24">
  <path d="m23,17.091v5.909l-2.53-2.53c-2.232,2.228-5.267,3.53-8.47,3.53C5.383,24,0,18.617,0,12h3c0,4.962,4.037,9,9,9,2.402,0,4.678-.977,6.352-2.648l-2.352-2.352h5.909c.602,0,1.091.488,1.091,1.091ZM2.091,8h5.909l-2.352-2.352c1.675-1.671,3.95-2.648,6.352-2.648,4.963,0,9,4.038,9,9h3C24,5.383,18.617,0,12,0c-3.203,0-6.237,1.302-8.47,3.53L1,1v5.909c0,.603.488,1.091,1.091,1.091Z"/>
</svg>
