<?xml version="1.0" encoding="UTF-8"?>
<svg xmlns="http://www.w3.org/2000/svg" id="Layer_1" data-name="Layer 1" viewBox="0 0 24 24">
  <path d="m22.732,9.013c-.767-.699-1.766-1.06-2.797-1.008-1.036.048-1.991.498-2.69,1.265l-2.438,2.679c-.646-.589-1.507-.949-2.449-.949H3.5c-1.93,0-3.5,1.57-3.5,3.5v6c0,1.93,1.57,3.5,3.5,3.5h11.181l8.334-9.532c1.41-1.581,1.283-4.027-.282-5.455Zm-1.966,3.469l-7.447,8.518H3.5c-.275,0-.5-.224-.5-.5v-6c0-.276.225-.5.5-.5h8.857c.354,0,.643.288.643.642,0,.317-.237.591-.551.636l-5.161.737.424,2.97,5.162-.737c1.618-.231,2.875-1.531,3.093-3.115l3.497-3.843c.159-.175.376-.277.612-.288.233-.006.463.071.636.229.356.325.385.881.055,1.252ZM3,4.5c-.024-1.627,1.023-3.326,3.011-3.942,3.371-1.493,8.988.206,8.988,4.442,0,3-2.309,4.798-4.549,5,1.517-.89,2.549-2.38,2.549-4,0-2-2.047-2.961-3.5-2.992-1.212-.025-3.5-.008-3.5,1.992,0,.842.906,1.5,2,1.5,1,0,2.068-.398,2.451-1.5.143.589-.451,3.027-3.451,3.027s-3.976-1.991-4-3.527Z"/>
</svg>
