<?xml version="1.0" encoding="UTF-8"?>
<svg xmlns="http://www.w3.org/2000/svg" id="Layer_1" data-name="Layer 1" viewBox="0 0 24 24" width="512" height="512"><path d="m12,6c-3.859,0-7,3.14-7,7,0,5.319,5.822,9.981,6.07,10.177l.93.735.93-.735c.248-.196,6.07-4.857,6.07-10.177,0-3.86-3.141-7-7-7Zm-.002,14.006c-1.617-1.538-3.998-4.371-3.998-7.006,0-2.206,1.794-4,4-4s4,1.794,4,4c0,2.623-2.384,5.463-4.002,7.006Zm9.761.994h2.257v3h-7.915l1.694-2.372c2.487-3.482,3.392-6.309,3.211-10.057h-.016c-.064-1.363-.426-2.66-1.073-3.856-.605-1.116-.345-3.053.079-4.739-2.501-.026-6.687-.051-8.452.035-4.548.223-8.295,3.949-8.53,8.482-.197,3.786.702,6.627,3.207,10.134l1.694,2.372H0v-3h2.257C.492,17.877-.17,14.926.018,11.338.331,5.287,5.33.312,11.397.015c2.675-.132,10.301-.02,10.625-.015l2.062.031-.665,1.953c-.6,1.758-.999,3.836-.839,4.359.824,1.512,1.304,3.21,1.401,4.994h.016c.187,3.589-.476,6.54-2.239,9.662Z"/></svg>
