<?xml version="1.0" encoding="UTF-8"?>
<svg xmlns="http://www.w3.org/2000/svg" id="Layer_1" data-name="Layer 1" viewBox="0 0 24 24">
  <path d="M4,2.5c0-1.381,1.119-2.5,2.5-2.5s2.5,1.119,2.5,2.5-1.119,2.5-2.5,2.5-2.5-1.119-2.5-2.5Zm13.5,2.5c1.381,0,2.5-1.119,2.5-2.5s-1.119-2.5-2.5-2.5-2.5,1.119-2.5,2.5,1.119,2.5,2.5,2.5Zm6.5,4h-2.824l1,9h-2.172l-.39,1.179,2.886,4.821h-3.687l-1.801-3.101-.93,3.101h-3.131l1.8-6h-1.426l1-9h-5.99l-.588,5h4.254v2.265l-2.09,5.748-2.754-1.002,.944,2.989h-3.146l-2.481-7.855,.841-7.145H0V2H3V6H21V2h3v7Zm-15.46,8h-2.651l1.232,3.903,1.419-3.903Zm9.617-8h-.815l-.667,6h2.148l-.667-6Z"/>
</svg>
