<svg id="Layer_1" viewBox="0 0 24 24" xmlns="http://www.w3.org/2000/svg" data-name="Layer 1"><path d="m11.702 9.88c.351.551.396 1.233.119 1.825l-2.584 4.539-2.605-1.486 1.572-2.757h-1.263c-.663 0-1.268-.337-1.616-.901s-.381-1.255-.084-1.849l2.574-4.497 2.604 1.492-1.579 2.754h1.259c.653 0 1.253.329 1.604.88zm12.298-2.88v3.5c0 .815-.396 1.532-1 1.989v8.011c0 1.93-1.57 3.5-3.5 3.5h-19.5v-20.5c0-1.93 1.57-3.5 3.5-3.5h10c1.93 0 3.5 1.57 3.5 3.5v17.5h2.5c.275 0 .5-.224.5-.5v-8.011c-.604-.456-1-1.173-1-1.989v-3.5h1v-2h3v2zm-21 11h11v-14.5c0-.276-.225-.5-.5-.5h-10c-.275 0-.5.224-.5.5zm6.999 2.008h-2.999v2h2.999z"/></svg>