<?xml version="1.0" encoding="UTF-8"?>
<svg xmlns="http://www.w3.org/2000/svg" id="Layer_1" data-name="Layer 1" viewBox="0 0 24 24">
  <path d="M5.632,20.632l-2.121-2.121c3.313-3.314,3.313-8.707,0-12.021l2.121-2.121c4.483,4.484,4.483,11.78,0,16.264ZM2.096,7.904L-.025,10.025c1.365,1.365,1.365,3.585,0,4.95l2.121,2.121c2.535-2.534,2.535-6.658,0-9.192ZM20.829,2.416C18.814,.615,16.105-.241,13.404,.062c-2.385,.268-4.536,1.468-6.064,3.218,.725,.774,1.341,1.612,1.85,2.497,1.047-1.48,2.69-2.524,4.551-2.733,1.883-.214,3.692,.36,5.09,1.609,1.379,1.233,2.17,3,2.17,4.848,0,2.181-1.1,4.429-2.736,5.593-1.284,.913-2.319,2.228-3.256,4.139-.245,.502-.617,.921-1.104,1.248-1.094,.731-2.594,.692-3.651-.095-.492-.367-.816-.778-1.017-1.239-.518,.917-1.153,1.783-1.902,2.582,.321,.383,.694,.74,1.127,1.062,1.074,.8,2.383,1.204,3.693,1.203,1.2,0,2.401-.338,3.418-1.02,.92-.615,1.656-1.453,2.13-2.421,.708-1.443,1.438-2.401,2.3-3.014,2.429-1.727,3.998-4.882,3.998-8.038,0-2.701-1.155-5.284-3.171-7.084Zm-6.329,2.585c-.142-.024,0,0,0,0h0Zm-4.255,3.1c.543,1.583,.785,3.243,.724,4.899h1.032l-.002,3c1.654,0,3-1.346,3-3,0-1.304-.836-2.416-2-2.829v-.67c0-.827,.673-1.5,1.5-1.5s1.5,.673,1.5,1.5v.499h3v-.499c0-2.4-1.5-4.5-4.5-4.5-1.99,0-3.662,1.307-4.255,3.1Z"/>
</svg>
