<?xml version="1.0" encoding="UTF-8"?>
<svg xmlns="http://www.w3.org/2000/svg" id="Layer_1" data-name="Layer 1" viewBox="0 0 24 24">
  <path d="m23.948,21.786l-2.49-2.491c.361-.691.584-1.463.584-2.295,0-2.757-2.243-5-5-5s-5,2.243-5,5,2.243,5,5,5c.831,0,1.604-.223,2.295-.584l2.49,2.491,2.121-2.121Zm-6.906-2.786c-1.103,0-2-.897-2-2s.897-2,2-2,2,.897,2,2-.897,2-2,2Zm-8.042-7h2v2h-2v-2Zm.042-6h2v5h-2v-5Zm1.294,9c-.189.634-.294,1.305-.294,2,0,.34.033.673.08,1H3.118c-1.113,0-2.108-.576-2.664-1.541s-.553-2.115.006-3.077L7.342,1.53C7.898.572,8.892,0,10,0h0c1.108,0,2.102.573,2.657,1.531l4.934,8.497c-.182-.014-.364-.028-.55-.028-.933,0-1.821.186-2.634.517l-4.343-7.48h-.129L3.054,14.889l.064.111h7.218Z"/>
</svg>
