<?xml version="1.0" encoding="UTF-8"?>
<svg xmlns="http://www.w3.org/2000/svg" id="Layer_1" data-name="Layer 1" viewBox="0 0 24 24">
  <path d="M10.963,3.156l-.886-2.866c.622-.192,1.269-.29,1.923-.29s1.302,.097,1.923,.29l-.885,2.866c-.335-.104-.684-.156-1.038-.156s-.703,.052-1.037,.156Zm-1.117,.585l-1.849-2.362c-.935,.731-1.652,1.702-2.072,2.807l2.804,1.067c.226-.594,.612-1.117,1.117-1.512Zm5.428,1.516l2.805-1.065c-.42-1.105-1.136-2.076-2.071-2.809l-1.85,2.361c.505,.396,.891,.919,1.116,1.513Zm4.727,5.429v-2.685h-1.5v-1.5h-3v1.5h-1.5v2.695c-.135,.065-.275,.122-.405,.195,.686,.74,1.252,1.59,1.66,2.528,.53-.259,1.117-.418,1.745-.418,2.206,0,4,1.794,4,4s-1.794,4-4,4c-.628,0-1.216-.159-1.745-.418-.408,.938-.974,1.788-1.66,2.528,1.009,.565,2.169,.89,3.405,.89,3.859,0,7-3.141,7-7,0-2.785-1.639-5.188-4-6.315Zm-6,6.315c0,3.859-3.14,7-7,7S0,20.859,0,17c0-2.785,1.639-5.188,4-6.315v-2.685h1.5v-1.5h3v1.5h1.5v2.685c2.361,1.126,4,3.53,4,6.315Zm-3,0c0-2.206-1.794-4-4-4s-4,1.794-4,4,1.794,4,4,4,4-1.794,4-4Z"/>
</svg>
