<?xml version="1.0" encoding="UTF-8"?>
<svg xmlns="http://www.w3.org/2000/svg" id="Layer_1" data-name="Layer 1" viewBox="0 0 24 24">
  <path d="m4,2.5c0-1.381,1.119-2.5,2.5-2.5s2.5,1.119,2.5,2.5-1.119,2.5-2.5,2.5-2.5-1.119-2.5-2.5Zm-1,15.617v5.883h3v-3.972l-2.377-1.46c-.22-.135-.426-.288-.623-.451ZM21,5v8h-11.331l-1.669-2.67v5.059l2.886,1.772v6.839h-3v-5.161l-3.456-2.122c-.882-.541-1.43-1.521-1.43-2.557v-5.661c0-1.378,1.121-2.5,2.5-2.5h1.392c1.213,0,2.322.614,2.968,1.644l1.472,2.356h1.669v-5h8Zm-3,3h-2v2h2v-2Z"/>
</svg>
