<svg id="Layer_1" viewBox="0 0 24 24" xmlns="http://www.w3.org/2000/svg" data-name="Layer 1"><path d="m13 9.5c.045.393-.385 1.03-.62 1.311l1.62 2.189h-1.894l-.712-.964c-.598.12-.793.543-.793.964 0 .496.404.9.9.9s2.004 0 2.5 0v1.6h-2.5c-1.381 0-2.5-1.119-2.5-2.5 0-1.053.653-1.95 1.574-2.318-.307-.346-.574-.762-.574-1.182 0-.828.672-1.5 1.5-1.5s1.5.672 1.5 1.5zm-10.9-1.5h-1.6v-8h2.5c1.381 0 2.5 1.119 2.5 2.5 0 .824-.437 1.578-1.055 2.034 0 0 .001.003.001.003l1.054 3.462h-1.744l-.872-3h-.784v3zm0-4.6h.9c.496 0 .9-.404.9-.9s-.404-.9-.9-.9h-.9zm21.4-3.4h-1.744l-.872 3h-.784v-3h-1.6v8h1.6v-3.4l.688-.002.968 3.401h1.744l-1.252-3.974 1.252-4.026zm-17.552 20.543 1.052 3.457h-1.744l-.872-3h-.784v3h-1.6v-8h2.5c1.381 0 2.5 1.119 2.5 2.5 0 .835-.423 1.588-1.052 2.043zm-.548-2.043c0-.496-.404-.9-.9-.9h-.9v1.8h.9c.496 0 .9-.404.9-.9zm10.2-2.5h-1.6v8h3.5v-1.6h-1.9zm-3 2.3v3.4c0 1.269-1.031 2.3-2.3 2.3s-2.3-1.031-2.3-2.3v-3.4c0-1.269 1.031-2.3 2.3-2.3s2.3 1.031 2.3 2.3zm-1.6 0c0-.386-.314-.7-.7-.7s-.7.314-.7.7v3.4c0 .386.314.7.7.7s.7-.314.7-.7zm4-16.7c.496 0 .9.404.9.9h1.6c0-1.381-1.119-2.5-2.5-2.5s-2.5 1.119-2.5 2.5v3c0 1.381 1.119 2.5 2.5 2.5s2.5-1.119 2.5-2.5h-1.6c0 .496-.404.9-.9.9s-.9-.404-.9-.9v-3c0-.496.404-.9.9-.9zm5.1 14.4h-1.6v8h3.5v-1.6h-1.9zm-11.3-8c-1.269 0-2.3-1.031-2.3-2.3v-3.4c0-1.269 1.031-2.3 2.3-2.3s2.3 1.031 2.3 2.3v3.4c0 1.269-1.031 2.3-2.3 2.3zm0-1.6c.386 0 .7-.314.7-.7v-3.4c0-.386-.314-.7-.7-.7s-.7.314-.7.7v3.4c0 .386.314.7.7.7z"/></svg>