<svg id="Layer_1" viewBox="0 0 24 24" xmlns="http://www.w3.org/2000/svg" data-name="Layer 1"><path d="m20.5 10h-1.427l-5.696-3.35c.96-.501 1.623-1.494 1.623-2.65 0-1.105-.605-2.118-1.581-2.644-.254-.137-.419-.457-.419-.816v-.54h-2v.54c0 1.103.564 2.091 1.472 2.577.326.176.528.514.528.883 0 .552-.448 1-1 1s-1-.448-1-1h-2c0 1.155.664 2.149 1.623 2.65l-5.696 3.35h-1.427c-1.93 0-3.5 1.57-3.5 3.5v10.5h24v-10.5c0-1.93-1.57-3.5-3.5-3.5zm-8.5-1.84 3.128 1.84h-6.255l3.128-1.84zm9 12.84h-10v-6h-5v6h-3v-7.5c0-.275.225-.5.5-.5h17c.275 0 .5.225.5.5zm-7-6h4v4h-4z"/></svg>