<svg id="Layer_1" viewBox="0 0 24 24" xmlns="http://www.w3.org/2000/svg" data-name="Layer 1"><path d="m6.5 13c.828 0 1.5.672 1.5 1.5s-.672 1.5-1.5 1.5-1.5-.672-1.5-1.5.672-1.5 1.5-1.5zm14.5 5h-18v-7h12v-3h-12v-1.5c0-.275.224-.5.5-.5h11.5v-3h-11.5c-1.93 0-3.5 1.57-3.5 3.5v14.5h24v-7h-3zm-1.987-7h-2v-10h2v-1h2v1.051c1.416.24 2.5 1.466 2.5 2.949 0 .642-.202 1.236-.547 1.725.641.551 1.034 1.366 1.034 2.275 0 1.654-1.333 3-2.987 3v1h-2zm0-6h1.5c.552 0 1-.448 1-1s-.448-1-1-1h-1.5zm0 4h2c.552 0 1-.448 1-1s-.448-1-1-1h-2z"/></svg>