<svg id="Layer_1" viewBox="0 0 24 24" xmlns="http://www.w3.org/2000/svg" data-name="Layer 1"><path d="m22.288 7.103c-.031.005-1.527.217-3.494.435.146-.45.221-.929.204-1.43-.027-2.27-2.078-4.236-4.347-4.104-1.035.036-1.944.431-2.653 1.077-.706-.646-1.608-1.041-2.634-1.077-2.267-.13-4.336 1.831-4.361 4.105-.017.501.058.98.206 1.43-3.359-.389-3.137-.392-5.208-.68v11.684c2.361-.26 4.599-.573 10-.988v5.354l2-1.908 2 1.908v-5.354c5.413.416 7.626.727 10 .988v-11.685l-1.712.244zm-7.533-2.102c.663-.032 1.236.548 1.245 1.208.033.981-1.089 1.35-1.434 1.438-.371.096-.734.167-1.066.22v-1.489c.1-.662.476-1.35 1.255-1.377zm-6.354.324c.235-.221.541-.336.859-.324.944.032 1.186 1.055 1.241 1.406v1.462c-.328-.053-.686-.123-1.05-.219-.348-.091-1.482-.464-1.45-1.44.012-.341.154-.655.4-.885zm-5.401 9.859v-4.884c1.742.219 4.52.53 7 .658v3.59c-2.394.16-5.235.446-7 .636zm18 0c-1.765-.189-4.606-.475-7-.636v-3.59c2.48-.128 5.258-.439 7-.658z"/></svg>