<?xml version="1.0" encoding="UTF-8"?>
<svg xmlns="http://www.w3.org/2000/svg" id="Layer_1" data-name="Layer 1" viewBox="0 0 24 24" width="512" height="512"><path d="m23.588,10.361l-4.06-7.565c-.594-1.107-1.745-1.795-3.005-1.795H7.496c-1.256,0-2.406.686-3.003,1.791L.415,10.359c-.556,1.03-.555,2.26,0,3.291l4.077,7.562c.597,1.103,1.747,1.789,3.003,1.789h9.027c1.26,0,2.411-.688,3.005-1.795l4.059-7.564c.552-1.027.552-2.253,0-3.28Zm-2.645,1.86l-4.058,7.564c-.071.132-.21.214-.362.214H7.496c-.152,0-.291-.082-.362-.213l-4.077-7.561c-.075-.14-.075-.305,0-.444l4.078-7.567c.071-.133.21-.215.362-.215h9.027c.152,0,.291.082.361.214l4.06,7.566c.074.138.074.302,0,.441Zm-4.348-2.696l-2.475,2.475,2.475,2.475-2.121,2.121-2.475-2.475-2.475,2.475-2.121-2.121,2.475-2.475-2.475-2.475,2.121-2.121,2.475,2.475,2.475-2.475,2.121,2.121Z"/></svg>
