<?xml version="1.0" encoding="UTF-8"?>
<svg xmlns="http://www.w3.org/2000/svg" id="Layer_1" data-name="Layer 1" viewBox="0 0 24 24" width="512" height="512"><path d="M10,14c0,1.105-.895,2-2,2s-2-.895-2-2,.895-2,2-2,2,.895,2,2Zm6-2c-1.105,0-2,.895-2,2s.895,2,2,2,2-.895,2-2-.895-2-2-2Zm8,0c0,6.617-5.383,12-12,12S0,18.617,0,12,5.383,0,12,0s12,5.383,12,12Zm-3,0c0-4.962-4.038-9-9-9S3,7.038,3,12s4.038,9,9,9,9-4.038,9-9Zm-3.5-4.819c-.1-.089-2.477-2.181-5.5-2.181s-5.399,2.092-5.5,2.181l1.994,2.242c.016-.014,1.645-1.423,3.506-1.423s3.49,1.409,3.506,1.423l1.994-2.242Z"/></svg>
