<?xml version="1.0" encoding="UTF-8"?>
<svg xmlns="http://www.w3.org/2000/svg" id="Layer_1" data-name="Layer 1" viewBox="0 0 24 24">
  <path d="m20.014,9.706c-1.182,1.182-2.942,1.441-4.378.779L24.003,2.118,21.882-.003l-.013.013c.002-.006.003-.01.003-.01,0,0-4.872,1.739-4.872,2.844,0,.17.108.973.503,1.532l-3.893,3.893c-.489-1.371-.186-2.963.909-4.059l-.009-.009c.254-.244.541-.524.873-.856l-2.121-2.121c-.56.56-.989.967-1.342,1.301-.922.875-1.43,1.356-2.314,2.692-.988,1.492-1.837,2.038-3.951,2.538-.271.064-.532.121-.781.176-1.271.279-2.37.52-3.142,1.292-3.797,3.797-.593,7.093,1.982,9.742l1.183,1.229c1.927,2.027,3.591,3.777,5.798,3.805h.052c1.253,0,2.432-.569,3.602-1.739.784-.784,1.158-2.009,1.6-3.656.522-1.945,1.025-2.606,2.832-3.721,1.052-.649,1.344-.937,2.111-1.749.291-.308.672-.711,1.244-1.284l-.012-.012s.008-.008.012-.012l-2.121-2.121Zm-6.963,8.121c-.176.655-.542,2.019-.824,2.313-.571.571-1.07.86-1.484.86h-.011c-.942-.012-2.263-1.401-3.662-2.873l-1.206-1.254c-3.197-3.287-3.479-4.062-2.018-5.523.196-.165,1.047-.352,1.668-.488.265-.058.542-.119.83-.187,1.698-.401,3.049-.915,4.254-2.006.295,1.158.894,2.253,1.799,3.158.877.877,1.933,1.467,3.052,1.771-1.233,1.089-1.879,2.296-2.399,4.229Zm-3.991-5.887l3,3-2.121,2.121-3-3,2.121-2.121Z"/>
</svg>
