<?xml version="1.0" encoding="UTF-8"?>
<svg xmlns="http://www.w3.org/2000/svg" id="Layer_1" data-name="Layer 1" viewBox="0 0 24 24" width="512" height="512"><path d="M10,6.5c0-.83,.67-1.5,1.5-1.5s1.5,.67,1.5,1.5-.67,1.5-1.5,1.5-1.5-.67-1.5-1.5Zm14,5.5c0,6.7-5.49,12.12-12.22,12-6.61-.12-11.78-5.79-11.78-12.4H0C0,5.19,5.19,0,11.6,0h.4c6.63,0,12,5.37,12,12ZM5,17.25c0-3.61,2.82-6.57,6.43-6.74,2-.09,3.57-1.74,3.57-3.76s-1.53-3.59-3.46-3.74C6.79,3.25,3,7.19,3,12c0,2.15,.76,4.12,2.01,5.67,0-.14-.01-.28-.01-.42Zm16-5.25c0-2.75-1.24-5.22-3.2-6.87,.13,.52,.2,1.06,.2,1.62,0,3.62-2.82,6.59-6.43,6.75-2,.09-3.57,1.74-3.57,3.75s1.45,3.5,3.3,3.72c.23,.02,.46,.03,.7,.03,4.96,0,9-4.04,9-9Zm-9.5,4c-.83,0-1.5,.67-1.5,1.5s.67,1.5,1.5,1.5,1.5-.67,1.5-1.5-.67-1.5-1.5-1.5Z"/></svg>
