<?xml version="1.0" encoding="UTF-8"?>
<svg xmlns="http://www.w3.org/2000/svg" id="Layer_1" data-name="Layer 1" viewBox="0 0 24 24">
  <path d="M23.971,16.972c-.191,1.175-1.215,2.028-2.436,2.028-.965,0-1.873-.413-2.506-1.136l1.009-1.006c.373,.406,.925,.646,1.497,.646,.604,0,1.031-.404,1.096-.795,.088-.55-.602-.873-.817-.959-.915-.371-1.751-.78-1.753-.78-.692-.484-1.027-1.231-.921-2.049,.111-.845,.674-1.534,1.471-1.796,1.324-.437,2.462,.317,2.863,.686l-.859,1.113c-.219-.166-.881-.602-1.611-.367-.412,.136-.517,.447-.515,.577,.005,.442,.335,.57,.433,.615,.282,.128,.806,.368,1.366,.595,1.461,.591,1.828,1.745,1.685,2.627Zm-7.872-5.972h-1.6v8h3.731v-1.599c-1.105,0-2.131,0-2.131,0v-6.401Zm-4.499,0l-1.088,2.182-1.088-2.182h-1.812l1.994,4-1.994,4h1.812l1.088-2.182,1.088,2.182h1.812l-1.994-4,1.994-4h-1.812ZM3,3H12v5h5v1h3v-3.335L14.382,0H3C1.346,0,0,1.346,0,3V24H20v-3H3V3Z"/>
</svg>
