<svg id="Layer_1" viewBox="0 0 24 24" xmlns="http://www.w3.org/2000/svg" data-name="Layer 1"><path d="m3.5 21h3.5v3h-3.5c-1.93 0-3.5-1.57-3.5-3.5v-3.5h3v3.5c0 .275.224.5.5.5zm-.5-17.5c0-.276.224-.5.5-.5h3.5v-3h-3.5c-1.93 0-3.5 1.57-3.5 3.5v3.5h3zm17.243 12.5h-4.527c-1.008.589-2.23 1-3.712 1s-2.707-.411-3.714-1h-4.546c1.759 2.098 4.488 4 8.261 4 3.984 0 6.621-2.048 8.239-4zm1.901-5h1.856v3h-24v-3h1.867c.741-1.617 3.688-7 10.138-7s9.388 5.348 10.14 7zm-3.394 0c-1.026-1.637-3.128-4-6.745-4-3.591 0-5.703 2.365-6.736 4h3.915c.413-1.163 1.512-2 2.816-2s2.403.837 2.816 2h3.933zm1.75-11h-3.5v3h3.5c.276 0 .5.224.5.5v3.5h3v-3.5c0-1.93-1.57-3.5-3.5-3.5zm.5 20.5c0 .275-.224.5-.5.5h-3.5v3h3.5c1.93 0 3.5-1.57 3.5-3.5v-3.5h-3z"/></svg>