<svg id="Layer_1" viewBox="0 0 24 24" xmlns="http://www.w3.org/2000/svg" data-name="Layer 1"><path d="m24 3h-2v-3h-10.362c-1.978 0-3.812 1.07-4.787 2.792l-6.39 11.294c-.957 1.675-.373 3.817 1.302 4.776l.165.094-1.885 3.3 2.604 1.488 1.885-3.3.165.094c.549.313 1.147.461 1.738.461 1.211 0 2.386-.624 3.015-1.726l1.39-2.274h11.159v-3h2v-10.999zm-5 11h-9.841l-2.29 3.748c-.137.238-.442.322-.682.186l-2.934-1.676c-.24-.138-.324-.444-.184-.689l6.393-11.3c.443-.783 1.277-1.269 2.176-1.269h7.362zm-7.58-7.362 2.398-3.063 2.362 1.85-1.234 1.576c.756.019 1.443.439 1.802 1.109.387.717.322 1.602-.169 2.252l-2.398 3.063-2.362-1.85 1.234-1.576c-.756-.019-1.443-.439-1.802-1.109-.387-.717-.322-1.602.169-2.252z"/></svg>