<svg id="Layer_1" viewBox="0 0 24 24" xmlns="http://www.w3.org/2000/svg" data-name="Layer 1"><path d="m17 12.914 3-3v14.086h-20v-20.5c0-1.93 1.57-3.5 3.5-3.5h13c.468 0 .914.096 1.323.264l-2.737 2.736h-11.586c-.275 0-.5.224-.5.5v17.5h14zm6.361-12.275c-.852-.852-2.234-.852-3.086 0l-7.275 7.275v3.086h3.086l7.275-7.275c.852-.852.852-2.234 0-3.086zm-8.361 15.361h-1.527l-3.063 3h4.59zm-8.341-.28-.928-.878-2.062 2.178 1.43 1.354c.445.422 1.011.632 1.574.632.585 0 1.169-.226 1.618-.676l2.692-2.692-2.121-2.121zm0-6-.928-.878-2.062 2.178 1.43 1.354c.445.422 1.011.632 1.574.632.585 0 1.169-.226 1.618-.676l2.692-2.692-2.121-2.121z"/></svg>