<svg id="Layer_1" viewBox="0 0 24 24" xmlns="http://www.w3.org/2000/svg" data-name="Layer 1"><path d="m14 13.487-1.529 1.196c-.819.768-1.252 1.225-1.471 1.54v-7.224h7v2.053c-.661.085-1.307.326-1.862.761l-.237.186h-1.901v1.487zm10-9.487v10.27l-3-2.347v-4.923h-13v12h-4c-.551 0-1 .449-1 1s.449 1 1 1h7v3h-7c-2.206 0-4-1.794-4-4v-16c0-2.206 1.794-4 4-4h4v4zm-19-1h-1c-.551 0-1 .449-1 1v12.126c.32-.083.655-.126 1-.126h1zm19 14.784v6.216h-11v-6.216c0-.615.283-1.196.767-1.575l3.5-2.739c.724-.567 1.741-.567 2.465 0l3.5 2.739c.484.379.767.96.767 1.575zm-4 .216h-3v3h3z"/></svg>