<?xml version="1.0" encoding="UTF-8"?>
<svg xmlns="http://www.w3.org/2000/svg" id="Layer_1" data-name="Layer 1" viewBox="0 0 24 24">
  <path d="m20.91,10.024l.033-2.024h3.057c0-1.892-1.085-2.934-2-3.476,0-.008,0-.016,0-.024,0-1.414-.645-2.718-1.77-3.577-1.125-.86-2.571-1.136-3.966-.756-1.303.355-2.393,1.325-2.914,2.594-.151.368-.255.748-.309,1.131-.163,1.168-.57,2.097-1.212,2.76L-.015,21.367l2.338,1.881,1.808-2.248h3.692l1.5,3h3.354l-1.532-3.064c.512-.057,1.015-.151,1.506-.28l1.672,3.343h3.354l-2.253-4.507c3.25-1.928,5.486-5.496,5.486-9.469Zm-10.91,7.976h-3.456l2.42-3.008c3.328-.172,5.975-2.985,5.975-6.429l.034-1.125c.527-.899.876-1.946,1.041-3.129.019-.133.057-.271.113-.408.167-.407.522-.729.926-.839.664-.18,1.135.076,1.356.245.375.287.591.722.591,1.193,0,.579-.328.951-.523,1.122l-.502.438-.064,3.939c0,4.337-3.623,8-7.91,8Z"/>
</svg>
