<?xml version="1.0" encoding="UTF-8"?>
<svg xmlns="http://www.w3.org/2000/svg" id="Layer_1" data-name="Layer 1" viewBox="0 0 24 24">
  <path d="M24,13.149c0-.593-.095-1.178-.282-1.739l-1.339-4.018c-.478-1.432-1.812-2.393-3.32-2.393h-1.059v-.475c0-1.93-1.57-3.5-3.5-3.5H3.5C1.57,1.025,0,2.596,0,4.525v.5H3v-.5c0-.275,.225-.5,.5-.5H14.5c.275,0,.5,.225,.5,.5v12.478l-12,.02v-1.997H0v5.003l2.048-.004c-.03,.154-.048,.312-.048,.475,0,1.381,1.119,2.5,2.5,2.5s2.5-1.119,2.5-2.5c0-.166-.018-.327-.049-.484l9.361-.016h.738c-.033,.162-.05,.329-.05,.5,0,1.381,1.119,2.5,2.5,2.5s2.5-1.119,2.5-2.5c0-.171-.018-.339-.05-.5h2.051v-6.851Zm-4.941-5.149c.216,0,.406,.138,.475,.342l1.339,4.018c.069,.207,.103,.423,.116,.641h-2.988v-5h1.059ZM1.25,13.025H0V7.025H2.5v1.25H1.252l.005,1.252,1.243-.002v1.25l-1.25,.002v2.248Zm9.25-4.75h-1.248l.005,1.183,1.243-.002v1.25l-1.244,.002-.004,1.067h1.248v1.25h-2.5V7.025h2.5v1.25Zm3.5,0h-1.248l.005,1.183,1.243-.002v1.25l-1.244,.002-.004,1.067h1.248v1.25h-2.5V7.025h2.5v1.25Zm-9.012-1.25h-1.488v6h1.25v-2.027l.238-.003c.121,0,.238-.015,.353-.035l.601,2.066h1.308l-.807-2.652c.343-.356,.557-.835,.557-1.364,0-1.094-.902-1.985-2.012-1.985Zm0,2.72l-.231,.003-.005-1.473h.236c.413,0,.762,.336,.762,.735s-.349,.735-.762,.735Z"/>
</svg>
