<svg id="Layer_1" viewBox="0 0 24 24" xmlns="http://www.w3.org/2000/svg" data-name="Layer 1"><path d="m19.837 4.398c-2.119-2.795-5.388-4.368-8.837-4.366v2.994c2.534-.004 4.933 1.16 6.478 3.22.197.223.366.478.554.754h-3.031v3h4.695c.318.652.633 1.327.937 2h-1.566l-.683 5.567c-.033.247-.247.433-.495.433h-3.894v3h-1.995v-14h-3v-5h-4.511c-.456-.604-1.173-1-1.989-1-1.381 0-2.5 1.119-2.5 2.5s1.119 2.5 2.5 2.5c.815 0 1.532-.396 1.989-1h1.511v5h3v11h-2v-3.555l-3-3.5v-.457c.604-.456 1-1.173 1-1.989 0-1.381-1.119-2.5-2.5-2.5s-2.5 1.119-2.5 2.5c0 .815.396 1.532 1 1.989v1.566l3 3.5v5.445h12.995v-3h.894c1.739 0 3.229-1.3 3.471-3.045l.361-2.955h2.279v-2.817c-1.486-3.382-2.866-6.209-4.163-7.784z"/></svg>