<?xml version="1.0" encoding="UTF-8"?>
<svg xmlns="http://www.w3.org/2000/svg" id="Layer_1" data-name="Layer 1" viewBox="0 0 24 24">
  <path d="m17.5,16h6.5v3h-6.5c-1.905,0-2.601,1.111-2.855,2h9.355v3H0v-3h9.351c-.261-.911-.967-2-2.851-2H0v-3h6.5c3.034,0,4.735,1.704,5.5,3.553.765-1.849,2.466-3.553,5.5-3.553Zm-2.197-11h.404l.519-1.778,1.773-.525v-.404l-1.774-.518-.518-1.774h-.404l-.525,1.773-1.778.519v.404l1.777.526.526,1.777Zm-7,3h.404l.519-1.778,1.773-.525v-.404l-1.774-.518-.518-1.774h-.404l-.525,1.773-1.778.519v.404l1.777.526.526,1.777Zm1.697,3.697l1.777.526.526,1.777h.404l.519-1.778,1.773-.525v-.404l-1.774-.518-.518-1.774h-.404l-.525,1.773-1.778.519v.404Zm6,2.303h3c0-1.205.372-1.542,1.112-2.213.546-.495,1.227-1.111,1.729-2.116.826-1.653.498-3.062.259-4.091-.116-.499-.217-.93-.146-1.216.167-.667.499-1.094.883-1.588.518-.665,1.162-1.492,1.162-2.776h-3c0,.222-.113.398-.529.933-.467.6-1.106,1.42-1.426,2.703-.247.989-.045,1.857.134,2.624.211.909.307,1.415-.021,2.069-.25.501-.608.825-1.06,1.235-.885.802-2.098,1.9-2.098,4.436ZM2.045,4.364c.071.286-.029.717-.146,1.216-.239,1.029-.567,2.438.259,4.091.502,1.005,1.183,1.621,1.729,2.116.741.671,1.112,1.008,1.112,2.213h3c0-2.536-1.213-3.634-2.098-4.436-.452-.41-.81-.733-1.06-1.235-.328-.654-.232-1.16-.021-2.069.179-.767.381-1.635.134-2.624-.32-1.283-.959-2.104-1.426-2.703-.416-.535-.529-.711-.529-.933H0c0,1.284.644,2.111,1.162,2.776.384.494.716.92.883,1.588Z"/>
</svg>
