<?xml version="1.0" encoding="UTF-8"?>
<svg xmlns="http://www.w3.org/2000/svg" id="Layer_1" data-name="Layer 1" viewBox="0 0 24 24">
  <path d="m12,17h-7c-1.103,0-2,.897-2,2v5H0v-5c0-2.757,2.243-5,5-5h7v3ZM3,6C3,2.691,5.691,0,9,0s6,2.691,6,6-2.691,6-6,6-6-2.691-6-6Zm3,0c0,1.654,1.346,3,3,3s3-1.346,3-3-1.346-3-3-3-3,1.346-3,3Zm18,9c0,2.761-2.239,5-5,5-.705,0-1.375-.149-1.983-.413l-4.412,4.412h-2.604s0-2.999,0-2.999h1.978v-2h2v-2.072l.315-.304c-.177-.512-.293-1.052-.293-1.624,0-2.761,2.239-5,5-5s5,2.239,5,5Zm-2.5-1c0-.828-.672-1.5-1.5-1.5s-1.5.672-1.5,1.5.672,1.5,1.5,1.5,1.5-.672,1.5-1.5Z"/>
</svg>
