<?xml version="1.0" encoding="UTF-8"?>
<svg xmlns="http://www.w3.org/2000/svg" id="Layer_1" data-name="Layer 1" viewBox="0 0 24 24">
  <path d="m23.411,17.26l-5.242-5.26-5.623.743-.436,5.46,5.196,5.215c.785.782,2.056.777,2.835-.012l3.281-3.323c.774-.784.768-2.045-.012-2.822Zm-7.411.24c-.828,0-1.5-.672-1.5-1.5s.672-1.5,1.5-1.5,1.5.672,1.5,1.5-.672,1.5-1.5,1.5Zm-8-5.5c3.309,0,6-2.691,6-6S11.309,0,8,0,2,2.691,2,6s2.691,6,6,6Zm0-9c1.654,0,3,1.346,3,3s-1.346,3-3,3-3-1.346-3-3,1.346-3,3-3Zm-3,11h5v3h-5c-1.103,0-2,.897-2,2v5H0v-5c0-2.757,2.243-5,5-5Z"/>
</svg>
