<?xml version="1.0" encoding="UTF-8"?>
<svg xmlns="http://www.w3.org/2000/svg" id="Layer_1" data-name="Layer 1" viewBox="0 0 24 24">
  <path d="M19.5,8h-1.5v-2H3v5.552c1.295,.509,2.271,1.328,3,2.267v-4.819H15v6.5c0,.275-.224,.5-.5,.5l-2.656-.002c-.278,1.403-.894,2.37-1.489,3.002h4.145c1.758,0,3.204-1.308,3.449-3h1.551c2.439,0,4.5-1.995,4.5-4.357,0-2.213-1.766-3.643-4.5-3.643Zm0,5h-1.5v-2h1.5c.56,0,1.5,.083,1.5,.643,0,.71-.715,1.357-1.5,1.357ZM12,4h-3V0h3V4Zm5,0h-3V0h3V4Zm-10,0h-3V0h3V4ZM0,21H21v3H0v-3ZM.015,13c3.563,.057,4.953,2.466,5.495,4.213,.515-1.417,1.705-3.169,4.477-3.213,.229,4.089-2.72,4.844-4.133,4.973,.05,.024-.756,.032-.733,.006-1.626-.116-5.39-.923-5.106-5.979Z"/>
</svg>
