<svg id="Layer_1" viewBox="0 0 24 24" xmlns="http://www.w3.org/2000/svg" data-name="Layer 1"><path d="m3.554 18.007h5.407s0 2.999 0 2.999h-5.399c-1.302 0-2.498-.703-3.129-1.835-.253-.45-.433-.941-.433-1.44 0-.628.128-1.468.538-2.109l3.234-5.101-1.642-1.131c.077-.015 4.296-1.005 4.375-1.015.383-.052.736.216.789.599l.602 4.387-1.652-1.138-3.176 5.009c-.096.15-.102.324-.019.472.104.188.297.301.504.301zm14.58-10.359-3.367-5.042c-.65-1.005-1.75-1.606-3.009-1.606-1.234.012-2.357.635-3.001 1.659l-1.865 2.942 2.533 1.606 1.869-2.947c.105-.168.276-.258.537-.261.165 0 .321.089.43.255l3.348 5.013-1.596 1.024 4.278 1.143c.374.1.757-.122.857-.496.022-.077.741-4.351.758-4.427l-1.771 1.136zm-3.89 3.852h-2l1-2.5h-3l-1.509 4.222c-.12.398.178.798.593.798l2.064-.002-.93 2.982h.631s3.708-4.56 3.708-4.56c.267-.404-.073-.941-.557-.94zm9.158 4.038-2.176-3.259-2.495 1.666 2.178 3.262c.101.151.111.342.027.499-.1.185-.287.296-.513.296l-5.424.003v-2.005l-3.272 2.984c-.286.26-.306.703-.046.989.02.023 3.283 2.995 3.317 3.028v-1.995l5.435-.003c1.317 0 2.522-.719 3.146-1.877.273-.51.42-1.067.42-1.624 0-.5-.201-1.369-.598-1.962z"/></svg>