<?xml version="1.0" encoding="UTF-8"?>
<svg xmlns="http://www.w3.org/2000/svg" id="Layer_1" data-name="Layer 1" viewBox="0 0 24 24">
  <path d="m0,9.5c0-.369.082-.706.224-1.017,1.286.902,3,1.484,4.776,1.861v2.93c-2.638-.609-5-1.725-5-3.773Zm12,6.5v3c1.229,0,12-.126,12-4.5,0-.369-.082-.706-.224-1.017-3.142,2.204-8.827,2.517-11.776,2.517Zm-7,2.273v-2.93c-1.776-.377-3.49-.959-4.776-1.861-.141.311-.224.648-.224,1.017,0,2.048,2.362,3.165,5,3.773Zm7,2.727c-2.949,0-8.634-.314-11.776-2.517-.141.311-.224.648-.224,1.017,0,4.374,10.771,4.5,12,4.5s12-.126,12-4.5c0-.369-.082-.706-.224-1.017-3.142,2.204-8.827,2.517-11.776,2.517ZM0,4.5C0,.126,10.771,0,12,0s12,.126,12,4.5c0,2.773-4.287,3.851-7.883,4.268-.637.074-1.117.604-1.117,1.232v4h-3v-4c0-.551-.448-1-1-1s-1,.449-1,1v9h-3v-9.298c0-.596-.438-1.11-1.04-1.223C2.005,7.736,0,6.397,0,4.5Zm3.271-.009c.475.284,1.468.706,3.243,1.039.87.163,1.638.582,2.229,1.169.643-.441,1.42-.699,2.257-.699.915,0,1.759.309,2.434.828.634-.56,1.44-.937,2.338-1.041,2.725-.315,4.304-.897,4.963-1.292-1.019-.623-4.042-1.495-8.734-1.495s-7.705.869-8.729,1.491Zm13.729,6.197v2.953c3.308-.476,7-1.58,7-4.14,0-.369-.082-.706-.224-1.017-1.767,1.24-4.339,1.881-6.776,2.205Z"/>
</svg>
