<?xml version="1.0" encoding="UTF-8"?>
<svg xmlns="http://www.w3.org/2000/svg" id="Layer_1" data-name="Layer 1" viewBox="0 0 24 24" width="512" height="512"><path d="M12,15c2.093,0,3.717,1.164,3.896,1.297l-1.791,2.406s-.987-.703-2.104-.703-2.103,.702-2.113,.709l-1.783-2.412c.178-.133,1.802-1.297,3.896-1.297Zm-6-2h4v-3H6v3Zm12-3h-4v3h4v-3ZM12,0c-1.821,0-3.542,.419-5.089,1.148,.506,.848,.936,1.825,1.055,2.818,1.215-.613,2.583-.966,4.034-.966,4.962,0,9,4.037,9,9s-4.038,9-9,9S3,16.963,3,12c0-1.054,.192-2.062,.526-3.003-.009,0-.017,.003-.026,.003-1.063,0-2.028-.386-2.798-1.004-.446,1.254-.702,2.598-.702,4.004,0,6.617,5.383,12,12,12s12-5.383,12-12S18.617,0,12,0ZM3.5,7c1.381,0,2.5-1.119,2.5-2.5C6,2.513,3.5,0,3.5,0,3.5,0,1,2.462,1,4.5c0,1.381,1.119,2.5,2.5,2.5Z"/></svg>
