<?xml version="1.0" encoding="UTF-8"?>
<svg xmlns="http://www.w3.org/2000/svg" id="Layer_1" data-name="Layer 1" viewBox="0 0 24 24">
  <path d="m20.5,3H3.5c-1.93,0-3.5,1.57-3.5,3.5v14.5h9.361l2.203-3.775c.127-.218.327-.25.436-.25s.309.033.436.25l2.203,3.775h9.361V6.5c0-1.93-1.57-3.5-3.5-3.5Zm.5,15h-4.639l-1.334-2.287c-.635-1.089-1.767-1.739-3.027-1.739s-2.393.65-3.027,1.739l-1.334,2.287H3V6.5c0-.276.225-.5.5-.5h17c.275,0,.5.224.5.5v11.5Zm-2-7.5c0,1.381-1.119,2.5-2.5,2.5s-2.5-1.119-2.5-2.5,1.119-2.5,2.5-2.5,2.5,1.119,2.5,2.5Zm-9,0c0,1.381-1.119,2.5-2.5,2.5s-2.5-1.119-2.5-2.5,1.119-2.5,2.5-2.5,2.5,1.119,2.5,2.5Z"/>
</svg>
