<svg id="Layer_1" viewBox="0 0 24 24" xmlns="http://www.w3.org/2000/svg" data-name="Layer 1"><path d="m23.997 11.283c0 .01.003.02.003.03v12.687h-24v-12.687c0-1.184.49-2.333 1.346-3.151l1.654-1.586v-3.076c0-1.93 1.57-3.5 3.5-3.5h6.221c-.926.815-1.663 1.838-2.134 3h-4.087c-.275 0-.5.224-.5.5v7.461l4.36 4.36c.438.438 1.021.679 1.64.679s1.201-.241 1.64-.679l1.761-1.761c.816.281 1.688.44 2.599.44.451 0 .891-.046 1.321-.118l-3.56 3.56c-1.005 1.004-2.341 1.558-3.761 1.558s-2.756-.553-3.761-1.557l-5.239-5.24v8.797h18v-7.587c1.161-.47 2.182-1.206 2.997-2.13zm-11.997-5.271c0-3.314 2.686-6 6-6s6 2.686 6 6-2.686 6-6 6-6-2.686-6-6zm4.587 0-2.121 2.121 1.414 1.414 2.121-2.121 2.121 2.121 1.414-1.414-2.121-2.121 2.121-2.121-1.414-1.414-2.121 2.121-2.121-2.121-1.414 1.414z"/></svg>