<svg id="Layer_1" viewBox="0 0 24 24" xmlns="http://www.w3.org/2000/svg" data-name="Layer 1"><path d="m24 13.5c-1.614 1.898-3.227 2.827-4.985 3.261 1.37-3.599 1.985-8.011 1.985-12.761-2.212 3.761-3.925 5.999-5.521 7.655-.602-2.422-1.347-4.888-2.05-7.088l-1.429-4.471-1.429 4.472c-.624 1.953-1.352 4.321-1.961 6.719-.907-1.061-1.87-2.278-2.904-3.677l-2.706-3.667v4.557c0 2.862.79 5.738 1.971 8.257-1.753-.435-3.362-1.364-4.971-3.257.039 7.068 6.976 10.507 12.127 10.525 5.123-.118 11.837-3.587 11.873-10.525zm-12-3.292c.492 1.77.975 3.729 1.294 5.559-.781-.635-1.466-1.147-2.213-1.861.27-1.227.577-2.475.919-3.699zm-1.631 7.058c.768.611 1.562 1.243 2.449 2.016.45.374.43 1.258-.126 1.564-.372.177-.89.243-1.221-.063-1.619-1.41-3.299-3.855-4.363-6.657 1.161 1.288 2.243 2.329 3.262 3.141z"/></svg>