<?xml version="1.0" encoding="UTF-8"?>
<svg xmlns="http://www.w3.org/2000/svg" id="Layer_1" data-name="Layer 1" viewBox="0 0 24 24" width="512" height="512"><path d="M20.998,18.877c-.064-2.66-2.216-4.811-4.876-4.876l-2.289-2.289c2.414-.777,4.166-3.044,4.166-5.713,0-3.309-2.691-6-6-6-2.669,0-4.936,1.752-5.713,4.166L2.161,.04,.04,2.161,21.839,23.96l2.121-2.121-2.962-2.962ZM9,6c0-1.654,1.346-3,3-3s3,1.346,3,3-1.346,3-3,3c-.375,0-.736-.067-1.078-.199l-1.787-1.787,.036-.013c-.113-.32-.17-.657-.17-1.001Zm.05,8l3,3h-4.05c-1.103,0-2,.897-2,2v5H3v-5c0-2.757,2.243-5,5-5h1.05Z"/></svg>
