<?xml version="1.0" encoding="UTF-8"?>
<svg xmlns="http://www.w3.org/2000/svg" id="Layer_1" data-name="Layer 1" viewBox="0 0 24 24">
  <path d="m22.29,6.21c-1.07-.51-2.02-.97-2.62-1.97l4.33-3.57c-.2-.34-.17-.28-.37-.61l-5.63,1.95V0c-1.49,0-2.72,1.08-2.96,2.5-2,.81-3.17,2.51-3.71,4.34-2.02-.52-4.06-2.19-4.78-2.9l-2.56-2.56v3.62c0,.17.02,2.65,1.29,5.34C1.91,11.47,0,14.47,0,19h3c0-2.2.45-3.51,1.09-4.33.18,1.09.59,1.99.95,2.82.18.4.35.77.47,1.14l-.74,5.37h4.83l.5-4h3.89v4h5v-5.79l.37-1.28c.42-1.48.63-3,.63-4.53v-1.07l4-.5v-1.91c0-1.15-.67-2.21-1.71-2.71Zm-5.29,2.47v3.72c0,1.25-.17,2.5-.52,3.71l-.25.89h-8.12c-.1-.25-.21-.49-.32-.73-.42-.95-.79-1.78-.79-2.77,0-.15.02-.3.07-.44.71.82,1.59,1.58,2.67,2.23l1.54-2.57c-1.85-1.11-2.9-2.7-3.49-4.15,1.37.78,3.04,1.44,4.75,1.44h1.34l.15-1.34c.16-1.44.77-3.12,2.71-3.56.74,1.66,1.94,2.58,3.09,3.22l-2.83.35Z"/>
</svg>
