<?xml version="1.0" encoding="UTF-8"?>
<svg xmlns="http://www.w3.org/2000/svg" id="Layer_1" data-name="Layer 1" viewBox="0 0 24 24">
  <path d="M18,6c0-3.309-2.691-6-6-6S6,2.691,6,6H0v14.5c0,1.826,1.411,3.344,3.198,3.5,.098,.02,5.949,0,5.949,0l-2.068-2.023c-.305-.304-.574-.633-.814-.977H3.5c-.275,0-.5-.225-.5-.5V9h3v2h3v-2h6v2h3v-2h3v11.5c0,.275-.225,.5-.5,.5h-2.76c-.235,.335-.495,.655-.791,.95l-2.095,2.05s5.851,.02,5.949,0c1.786-.156,3.198-1.674,3.198-3.5V6h-6Zm-9,0c0-1.654,1.346-3,3-3s3,1.346,3,3h-6Zm8,11c0-1.336-.521-2.591-1.465-3.535-.944-.945-2.2-1.465-3.535-1.465s-2.593,.521-3.535,1.465c-.944,.943-1.465,2.199-1.465,3.535s.521,2.592,1.477,3.547l3.523,3.447,3.535-3.458c.944-.944,1.465-2.2,1.465-3.536Zm-3.574,1.402l-1.426,1.395-1.414-1.384c-.378-.377-.586-.879-.586-1.413s.208-1.036,.587-1.415c.377-.377,.879-.585,1.413-.585s1.036,.208,1.414,.586,.586,.88,.586,1.414-.208,1.036-.574,1.402Z"/>
</svg>
