<?xml version="1.0" encoding="UTF-8"?>
<svg xmlns="http://www.w3.org/2000/svg" id="Layer_1" data-name="Layer 1" viewBox="0 0 24 24">
  <path d="m20.003,3.059C17.466.786,14.054-.298,10.64.075,5.127.685.684,5.127.076,10.64c-.669,6.057,3.156,11.75,8.897,13.244.303.078.609.117.914.117.788,0,1.558-.26,2.202-.758.897-.693,1.411-1.74,1.411-2.872v-1.483c2.002-.456,3.5-2.25,3.5-4.388v-1.5h1v-3h-2v-4h-3v4h-2v-4h-3v4h-2v3h1v1.5c0,2.138,1.498,3.932,3.5,4.388v1.483c0,.269-.154.428-.246.499-.089.068-.276.177-.526.109-4.238-1.103-7.168-5.499-6.67-10.01.456-4.129,3.783-7.457,7.913-7.912,2.602-.291,5.1.506,7.031,2.235,1.906,1.707,2.999,4.151,2.999,6.707s-1.093,5-2.999,6.707c-.613.549-1.288.993-2.001,1.349v3.244c1.463-.516,2.828-1.306,4.003-2.358,2.54-2.274,3.997-5.533,3.997-8.941s-1.457-6.667-3.997-8.941Zm-10.003,11.441v-1.5h4v1.5c0,.827-.673,1.5-1.5,1.5h-1c-.827,0-1.5-.673-1.5-1.5Z"/>
</svg>
