<svg id="Layer_1" viewBox="0 0 24 24" xmlns="http://www.w3.org/2000/svg" data-name="Layer 1"><path d="m17.59 12 1.41-4h-3.077c-.619 0-1.062-.597-.883-1.19l2.657-6.81h4.303l-1.692 4h2.786c.722 0 1.153.804.754 1.406l-5.058 6.594h-1.199zm1.485 2.765c-.766 1.862-1.751 3.83-3.074 6.096v-5.861c0-2.209-1.791-4-4-4s-4 1.791-4 4v5.861c-2.432-4.155-5.001-9.402-5.001-14.589 0-.335.092-3.272 3.272-3.272 1.354 0 2.171.248 3.036.511.792.241 1.611.489 2.692.489.822 0 1.492-.144 2.114-.318l1.351-3.466c-.638.124-1.175.281-1.645.424-.688.209-1.185.36-1.82.36s-1.132-.151-1.82-.36c-.939-.285-2.108-.64-3.908-.64-4.602 0-6.272 3.751-6.272 6.272 0 6.292 3.175 12.39 5.941 16.999l.437.729h4.622v-9c0-.552.448-1 1-1s1 .448 1 1v9h4.622l.437-.729c1.875-3.126 3.193-5.743 4.146-8.235.862-2.253 1.391-4.353 1.632-6.369l-4.763 6.098z"/></svg>