<svg id="Layer_1" viewBox="0 0 24 24" xmlns="http://www.w3.org/2000/svg" data-name="Layer 1"><path d="m6.5 10c.828 0 1.5.672 1.5 1.5s-.672 1.5-1.5 1.5-1.5-.672-1.5-1.5.672-1.5 1.5-1.5zm17.5-6.5v9.221c-.815-.926-1.838-1.663-3-2.134v-2.587h-18v7h7.587c-.376.927-.587 1.938-.587 3h-10v-14.5c0-1.93 1.57-3.5 3.5-3.5h17c1.93 0 3.5 1.57 3.5 3.5zm-21 1.5h18v-1.5c0-.276-.225-.5-.5-.5h-17c-.275 0-.5.224-.5.5zm21 13c0 3.314-2.686 6-6 6s-6-2.686-6-6 2.686-6 6-6 6 2.686 6 6zm-1.641-1.256-1.398-1.43-3.614 3.703-2.216-2.301-1.387 1.441 2.182 2.268c.766.765 2.079.763 2.823.019l.004-.004 3.607-3.696z"/></svg>