<?xml version="1.0" encoding="UTF-8"?>
<svg xmlns="http://www.w3.org/2000/svg" id="Layer_1" data-name="Layer 1" viewBox="0 0 24 24">
  <path d="m21.761,7.099l-4.414,4.414c-.622-.357-1.258-.67-1.864-.894L23.882,2.22,21.761.099l-8.399,8.399c-.224-.606-.538-1.242-.895-1.863l4.415-4.415L14.761.099l-3.986,3.986c-.135-.182-.265-.354-.374-.495l-1.187-1.534-1.187,1.534c-.683.883-1.977,2.672-2.722,4.337l-.856-1.106-1.187,1.533C2.274,9.634-.027,12.818-.027,14.766c0,1.435.951,4.108,1.527,5.594L.037,21.822l2.121,2.121,1.462-1.462c1.486.575,4.159,1.527,5.594,1.527,1.945,0,5.141-2.301,6.424-3.289l1.541-1.188-1.145-.883c1.667-.747,3.461-2.011,4.354-2.683l1.575-1.185-1.561-1.203c-.143-.11-.316-.24-.502-.377l3.98-3.98-2.121-2.121Zm-12.546-.003c.841,1.285,1.463,2.477,1.478,2.906,0,.547-.216,1.152-.63,1.795l-1.462,1.462c-.467-1.328-.863-2.666-.863-3.255.015-.431.637-1.623,1.478-2.908Zm-6.242,7.672c.015-.431.637-1.623,1.478-2.907.539.823.985,1.604,1.242,2.175.072.209.235.697.236.73,0,.548-.216,1.152-.628,1.794l-1.464,1.464c-.467-1.328-.863-2.667-.863-3.256Zm6.242,6.24c-.59,0-1.929-.396-3.258-.863l1.464-1.464c.642-.412,1.246-.628,1.792-.628.015,0,.592.205.876.303.557.264,1.28.679,2.04,1.175-1.289.841-2.484,1.463-2.914,1.478Zm4.668-4.765c-.536,0-1.679-.332-2.863-.743-.102-.042-.201-.08-.302-.117l1.466-1.466c.642-.413,1.246-.629,1.792-.629.43.015,1.616.631,2.898,1.466-1.332.854-2.548,1.475-2.992,1.489Z"/>
</svg>
