<?xml version="1.0" encoding="UTF-8"?>
<svg xmlns="http://www.w3.org/2000/svg" id="Layer_1" data-name="Layer 1" viewBox="0 0 24 24">
  <path d="M13.464,18.415l2.136,2.136c-1.344,1.131-2.406,1.899-2.734,2.131l-.866,.612-.866-.612C9.994,21.875,0,14.615,0,7.982c0-.922,.166-1.785,.458-2.574l2.545,2.545c0,.01-.003,.019-.003,.029,0,3.916,5.863,9.21,9,11.61,.441-.338,.939-.737,1.464-1.178Zm5.783-1.288l4.713,4.713-2.121,2.121L.04,2.16,2.161,.039l1.655,1.655c.912-.441,1.913-.694,2.935-.694,2.12,0,4.012,1.02,5.25,2.61,1.238-1.59,3.13-2.61,5.25-2.61,3.722,0,6.75,3.028,6.75,6.75,0,2.822-1.605,5.972-4.753,9.377ZM6.169,4.048l10.958,10.958c2.508-2.743,3.873-5.284,3.873-7.256,0-2.067-1.682-3.75-3.75-3.75s-3.75,1.794-3.75,4h-3c0-2.206-1.682-4-3.75-4-.197,0-.39,.018-.581,.048Z"/>
</svg>
