<?xml version="1.0" encoding="UTF-8"?>
<svg xmlns="http://www.w3.org/2000/svg" id="Layer_1" data-name="Layer 1" viewBox="0 0 24 24">
  <path d="M8.844,9.961c-.998-2.417-1.916-4.639-2.996-5.997h-.001C4.356,1.996,2.293,.639,0,0V3.145c1.359,.539,2.57,1.445,3.481,2.663,.011,.015,.026,.025,.038,.04l-.004,.003c.964,1.17,2.231,4.516,3.136,6.649h-1.565l-.698,5.068c-.034,.246-.247,.432-.495,.432H0v6H3v-3h.893c1.739,0,3.23-1.3,3.467-3.022l.341-2.478h2.299v-2.817c-.395-.882-.77-1.785-1.156-2.722Z"/>
  <path d="M18,0c-3.939,0-6,6.037-6,12s2.061,12,6,12,6-6.037,6-12S21.939,0,18,0Zm0,21c-1.058,0-3-3.417-3-9s1.942-9,3-9c.591,0,1.457,1.068,2.107,2.981-1.098,1.942-2.175,4.622-3.107,6.701v2.817h2.298l.342,2.477c.036,.261,.11,.506,.203,.742-.607,1.469-1.329,2.282-1.843,2.282Z"/>
</svg>
