<svg id="Layer_1" viewBox="0 0 24 24" xmlns="http://www.w3.org/2000/svg" data-name="Layer 1"><path d="m3 7h-3v-3.5c0-1.93 1.57-3.5 3.5-3.5h3.5v3h-3.5c-.276 0-.5.225-.5.5zm17.5-7h-3.5v3h3.5c.276 0 .5.225.5.5v3.5h3v-3.5c0-1.93-1.57-3.5-3.5-3.5zm.5 20.5c0 .275-.224.5-.5.5h-3.5v3h3.5c1.93 0 3.5-1.57 3.5-3.5v-3.5h-3zm-18 0v-3.5h-3v3.5c0 1.93 1.57 3.5 3.5 3.5h3.5v-3h-3.5c-.276 0-.5-.225-.5-.5zm16-2.5v-3h-3.022c-.913 1.208-2.347 2-3.978 2s-3.065-.792-3.978-2h-3.022v3c0 1.105.895 2 2 2h10c1.105 0 2-.895 2-2zm0-8h5v3h-10.278c-.347.595-.984 1-1.722 1s-1.376-.405-1.722-1h-10.278v-3h5v-4c0-1.103.897-2 2-2h10c1.103 0 2 .897 2 2zm-11.569 0h9.139c-.773-1.763-2.521-3-4.569-3s-3.797 1.237-4.569 3z"/></svg>