<?xml version="1.0" encoding="UTF-8"?>
<svg xmlns="http://www.w3.org/2000/svg" id="Layer_1" data-name="Layer 1" viewBox="0 0 24 24">
  <path d="m20.992,9l.508,7h-1.604l-.319-4.402-1.577,3.469-1.577-3.468-.319,4.402h-1.604l.508-7c.043-.705.472-1,.988-1,.342,0,.66.242.841.64l1.164,2.56,1.164-2.56c.181-.398.499-.64.841-.64.516,0,.945.295.988,1Zm-8.059,3.544c.024-.014,1.067,3.456,1.067,3.456h-1.744l-.872-3h-.784v3h-1.6v-8h2.5c1.381,0,2.5,1.119,2.5,2.5,0,.846-.423,1.592-1.067,2.044Zm-.533-2.044c0-.496-.404-.9-.9-.9h-.9v1.8h.9c.496,0,.9-.404.9-.9Zm-6.9-.9c.496,0,.9.404.9.9h1.6c0-1.381-1.119-2.5-2.5-2.5s-2.5,1.119-2.5,2.5v3c0,1.381,1.119,2.5,2.5,2.5s2.5-1.119,2.5-2.5h-1.6c0,.496-.404.9-.9.9s-.9-.404-.9-.9v-3c0-.496.404-.9.9-.9Zm6.5-6.6c1.664,0,3.271.459,4.667,1.308l-1.706,1.706h5.014c.544,0,.986-.441.986-.986V.014l-2.133,2.133c-1.996-1.386-4.364-2.147-6.829-2.147-3.921,0-7.603,1.922-9.849,5.142l2.461,1.717c1.685-2.416,4.447-3.858,7.388-3.858Zm7.349,14.156c-1.685,2.416-4.447,3.858-7.388,3.858-1.663,0-3.27-.459-4.667-1.308l1.706-1.706H3.986c-.544,0-.986.441-.986.986v5.014l2.133-2.133c1.997,1.386,4.365,2.147,6.828,2.147,3.921,0,7.603-1.922,9.849-5.142l-2.461-1.717Z"/>
</svg>
