<svg id="Layer_1" viewBox="0 0 24 24" xmlns="http://www.w3.org/2000/svg" data-name="Layer 1"><path d="m21 12.607v-2.607c0-4.962-4.037-9-9-9s-9 4.038-9 9v2.607c-1.778.912-3 2.761-3 4.893 0 3.033 2.468 5.5 5.5 5.5h2.5v-4h2.378l.675-1.455 2.137 5.462 2.033-4.007h.777v4h2.5c3.032 0 5.5-2.467 5.5-5.5 0-2.132-1.222-3.98-3-4.893zm-16 7.343c-1.14-.232-2-1.242-2-2.45s.86-2.217 2-2.45v4.899zm11-2.95h-2.006l-.568 1.121-2.217-5.666-2.108 4.545h-1.101v-5h-2v-2c0-3.309 2.691-6 6-6s6 2.691 6 6v2h-2zm3 2.95v-4.899c1.14.232 2 1.242 2 2.45s-.86 2.217-2 2.45z"/></svg>