<svg id="Layer_1" viewBox="0 0 24 24" xmlns="http://www.w3.org/2000/svg" data-name="Layer 1"><path d="m16 12.5v11.5s-3.403 0-3.403 0l-3.01-3.01c-.859-.859-.773-2.305.257-3.047.808-.582 1.943-.411 2.647.294l.51.51v-6.247c0-.829.671-1.5 1.5-1.5.828 0 1.5.672 1.5 1.5zm8 1c0-.828-.672-1.5-1.5-1.5-.829 0-1.5.671-1.5 1.5v10.5s3 0 3 0zm-5.5-3.5c-.829 0-1.5.671-1.5 1.5v5.5h3s0-5.5 0-5.5c0-.828-.672-1.5-1.5-1.5zm4-6c.828 0 1.5-.672 1.5-1.5s-.672-1.5-1.5-1.5-1.5.672-1.5 1.5.672 1.5 1.5 1.5zm-11.5 6v-3c-3.309 0-6 2.691-6 6 0 1.971.959 3.717 2.43 4.811.288-.582.701-1.1 1.244-1.491.356-.256.748-.439 1.157-.558-1.075-.457-1.831-1.523-1.831-2.762 0-1.654 1.346-3 3-3zm7.873-4.674c.682-.55 1.127-1.382 1.127-2.326 0-1.657-1.343-3-3-3-.904 0-1.706.409-2.256 1.041-.341-.617-.99-1.041-1.744-1.041-1.103 0-2 .897-2 2-1.614 0-3.143.358-4.525.985-.457-.595-1.168-.985-1.975-.985-1.379 0-2.5 1.121-2.5 2.5 0 .173.018.342.051.505-.018 0-.034-.005-.051-.005-1.105 0-2 .895-2 2 0 .695.355 1.306.894 1.665-.573 1.331-.894 2.796-.894 4.335 0 5.618 4.236 10.258 9.681 10.913l-1.509-1.509c-.668-.667-1.056-1.542-1.14-2.467-2.405-1.381-4.032-3.97-4.032-6.937 0-4.411 3.589-8 8-8 2.609 0 4.923 1.261 6.384 3.199.352-.12.723-.199 1.116-.199h.002c.934 0 1.812.364 2.473 1.025.21.21.378.448.526.696-.523-1.67-1.434-3.17-2.628-4.395z"/></svg>