<?xml version="1.0" encoding="UTF-8"?>
<svg xmlns="http://www.w3.org/2000/svg" id="Layer_1" data-name="Layer 1" viewBox="0 0 24 24">
  <path d="m11,21.5c0,1.381-1.119,2.5-2.5,2.5s-2.5-1.119-2.5-2.5c0-.61.218-1.168.581-1.602l-.208-.417-1.64.894c.171.338.267.72.267,1.124,0,1.381-1.119,2.5-2.5,2.5s-2.5-1.119-2.5-2.5,1.119-2.5,2.5-2.5c.011,0-.566-1-.566-1h-.934v-2h2.066l1.359,2.265,1.052-.574-.478-.956v-1.736h4v2h-1.632l1.002,2.003c.043-.002.087-.003.13-.003,1.381,0,2.5,1.119,2.5,2.5ZM20,5l4-2.5-4-2.5h-3v10h3v-5Zm-.5,8h-6c-.827,0-1.5-.673-1.5-1.5s.673-1.5,1.5-1.5h1.5v-3h-1.5c-2.481,0-4.5,2.019-4.5,4.5s2.019,4.5,4.5,4.5h6c.828,0,1.5.672,1.5,1.5s-.672,1.5-1.5,1.5h-6.5v3h6.5c2.485,0,4.5-2.015,4.5-4.5s-2.015-4.5-4.5-4.5Z"/>
</svg>
