<svg id="Layer_1" viewBox="0 0 24 24" xmlns="http://www.w3.org/2000/svg" data-name="Layer 1"><path d="m16 10c0-1.105.895-2 2-2s2 .895 2 2-.895 2-2 2-2-.895-2-2zm-13-4c0-3.309 2.691-6 6-6s6 2.691 6 6-2.691 6-6 6-6-2.691-6-6zm3 0c0 1.654 1.346 3 3 3s3-1.346 3-3-1.346-3-3-3-3 1.346-3 3zm16.44 4.56c-.148-.148-.3-.284-.455-.41-.043 1.149-.57 2.164-1.383 2.866 1.047 1.455-.249 3.042-.897 3.689-.81.811-1.669 1.154-2.514 1.291-.5-.002-1.018-.184-1.51-.676-.455-.456-.644-.933-.672-1.397.114-.816.417-1.639 1.108-2.414-.92-.495-1.616-1.333-1.926-2.35-1.411 1.411-2.151 3.025-2.183 4.558-.155 1.209.004 2.202-.061 3.216l-3.007 3.007 2.121 2.121 3.003-3.003c1.075-.045 2.28.119 3.433-.075 1.198-.075 2.427-.573 3.571-1.486.004-.003.009-.007.013-.01.253-.202.503-.418.745-.66 2.655-2.656 2.902-5.978.614-8.266zm-12.142 3.44h-4.798c-3.033 0-5.5 2.467-5.5 5.5v4.5h3v-4.5c0-1.378 1.122-2.5 2.5-2.5l2 3 2.452-3.678c.043-.779.137-1.523.346-2.322z"/></svg>