<svg id="Layer_1" viewBox="0 0 24 24" xmlns="http://www.w3.org/2000/svg" data-name="Layer 1"><path d="m24 13.11v3.023c-.922-1.144-2.021-2.131-3-2.982l-6.485-5.127-6.505 5.068-.008 7.909h2.008c-.044 1.046.177 2.073.527 3h-5.537v-10.891c0-.936.423-1.804 1.16-2.381l6.476-5.068c1.098-.858 2.632-.859 3.728 0l6.477 5.068c.737.578 1.16 1.445 1.16 2.381zm-24 5.699c0 2.22 1.208 4.153 3 5.191v-7.342c-.517-.459-1.005-1.936-1.005-1.936-.995 1.027-1.995 2.361-1.995 4.087zm7.715-11.836 3.266-2.556c-.483-1.067-1.05-2.032-1.508-2.504 0 0-.681 2.087-1.287 2.087-1.263 0-.365-1.897-2.186-4-1.895 1.895-6 4.526-6 8 0 2.22 1.208 4.153 3 5.191-.016-1.097.325-2.148.951-3.012-.582-.548-.951-1.319-.951-2.179 0-.904.887-1.982 1.918-2.982.714 1.376 1.808 1.849 2.796 1.955zm12.802-5.522c-1.12.681-1.899 1.889-2.536 2.936l6.001 4.696c-.198-2.797-2.461-5.677-3.465-7.632zm-2.517 11.729c-1.821 2.103-1.455 6-2.718 6-.606 0-1.287-2.087-1.287-2.087-.995 1.027-1.995 2.361-1.995 4.087 0 1.02.256 1.979.705 2.82h4.286c-.846-.304-1.519-.973-1.819-1.821 2.649.094 3.627-2.294 4.021-3.872.983.969 1.808 2.002 1.808 2.874 0 1.307-.845 2.409-2.013 2.82h4.308c.449-.841.705-1.8.705-2.82 0-3.474-4.105-6.105-6-8z"/></svg>