<svg id="Layer_1" viewBox="0 0 24 24" xmlns="http://www.w3.org/2000/svg" data-name="Layer 1"><path d="m12.252 11.778 1.406 2.683c.359.747.044 1.643-.703 2.001-.747.359-1.643.044-2.001-.703l-1.406-2.683c-.359-.747-.044-1.643.703-2.001.747-.359 1.643-.044 2.001.703zm2.722 2.051c.359.747 1.255 1.061 2.001.703.747-.359 1.061-1.255.703-2.001l-1.805-3.561c-.359-.747-1.254-1.062-2.001-.703-.747.358-1.062 1.255-.703 2.001zm8.407.012-2.471-5.042 2.109-4.682c.341-.755.004-1.644-.751-1.984-.756-.34-1.644-.004-1.983.751l-1.089 2.418-1.194-2.436c-.364-.744-1.264-1.052-2.007-.687-.744.364-1.052 1.263-.687 2.007l5.374 10.963c.769 1.6.092 3.526-1.508 4.294l-2.299 1.104c-1.102.53-2.344.598-3.5.193-1.154-.405-2.081-1.236-2.638-2.393l-1.92-3.615c-.388-.731-1.296-1.01-2.028-.621-.731.389-1.01 1.296-.621 2.028l1.893 3.561c.876 1.825 2.411 3.2 4.321 3.87.822.289 1.72.43 2.619.43 1.12 0 2.134-.249 3.174-.749l2.299-1.104c3.091-1.484 4.397-5.207 2.908-8.308zm-17.381-2.262-.858-.599c-.859-.599-5.142-3.752-5.142-6.984 0-2.204 1.682-3.996 3.75-3.996.822 0 1.602.296 2.236.785.634-.49 1.422-.785 2.264-.785 2.068 0 3.75 1.792 3.75 3.996 0 3.232-4.283 6.385-5.142 6.984zm0-3.713c1.425-1.167 3-2.843 3-3.871 0-.54-.343-.996-.75-.996-.429 0-.75.396-.75.75h-3c0-.29-.343-.75-.75-.75s-.75.456-.75.996c0 1.027 1.575 2.704 3 3.871z"/></svg>