<?xml version="1.0" encoding="UTF-8"?>
<svg xmlns="http://www.w3.org/2000/svg" id="Layer_1" data-name="Layer 1" viewBox="0 0 24 24">
  <path d="m21,3v.789c-1.535,5.206-5.601,6.432-8,6.688v-2.477h-3v2.5h-2v-2.5h-3v2.5H0v3h2.893c-.564.863-.893,1.894-.893,3,0,3.032,2.467,5.5,5.5,5.5h3c3.033,0,5.5-2.468,5.5-5.5,0-.869-.203-1.691-.563-2.422,2.131.765,4.479,2.455,5.563,6.132v.789h3V3h-3Zm-10.5,16h-3c-1.378,0-2.5-1.121-2.5-2.5s1.122-2.5,2.5-2.5h3c1.378,0,2.5,1.121,2.5,2.5s-1.122,2.5-2.5,2.5Zm7.622-7c1.014-.55,1.997-1.272,2.878-2.206v4.412c-.881-.933-1.864-1.656-2.878-2.206Z"/>
</svg>
