<?xml version="1.0" encoding="UTF-8"?>
<svg xmlns="http://www.w3.org/2000/svg" id="Layer_1" data-name="Layer 1" viewBox="0 0 24 24">
  <path d="M16.538,14h1.462v-3h-3.115c-.833-1.762-1.385-3.496-1.385-5v-2h1V1h-1V0h-3V1h-1v3h1v2c0,1.503-.553,3.237-1.387,5h-3.113v3h1.458c-2.049,3.278-5.084,6.697-6.458,8v2H7c0-2.757,2.243-5,5-5s5,2.243,5,5h6v-2c-1.374-1.302-4.412-4.72-6.462-8Zm-4.538,2c-.997,0-1.948,.192-2.829,.526,.572-.804,1.127-1.649,1.644-2.526h2.369c.517,.877,1.072,1.722,1.644,2.526-.881-.335-1.832-.526-2.829-.526Z"/>
</svg>
