<?xml version="1.0" encoding="UTF-8"?>
<svg xmlns="http://www.w3.org/2000/svg" id="Layer_1" data-name="Layer 1" viewBox="0 0 24 24">
  <path d="m20.5,0H5C2.794,0,1,1.794,1,4v16c0,2.206,1.794,4,4,4h18V2.5c0-1.378-1.122-2.5-2.5-2.5ZM5,3h15v13H5c-.347,0-.678.058-1,.142V4c0-.551.449-1,1-1Zm0,18c-.551,0-1-.448-1-1s.449-1,1-1h15v2H5Zm2.5-13.004c0-1.378,1.007-2.496,2.25-2.496s2.25,1.117,2.25,2.496c0-1.378,1.007-2.496,2.25-2.496s2.25,1.117,2.25,2.496c0,2.614-4.5,5.754-4.5,5.754,0,0-4.5-3.141-4.5-5.754Z"/>
</svg>
