<?xml version="1.0" encoding="UTF-8"?>
<svg xmlns="http://www.w3.org/2000/svg" id="Layer_1" data-name="Layer 1" viewBox="0 0 24 24">
  <path d="M.121,10.288c.207-1.446,.683-2.806,1.363-4.04-.3-.516-.484-1.107-.484-1.747,0-1.933,1.567-3.5,3.5-3.5,.64,0,1.232,.184,1.748,.484C7.482,.804,8.842,.328,10.288,.122l.424,2.97c-.981,.14-1.912,.441-2.766,.875,.027,.175,.054,.351,.054,.534,0,1.933-1.567,3.5-3.5,3.5-.183,0-.359-.027-.534-.054-.433,.854-.734,1.785-.874,2.766L.121,10.288Zm20.787,3c-.14,.981-.441,1.912-.874,2.766-.175-.027-.351-.054-.534-.054-1.933,0-3.5,1.567-3.5,3.5,0,.183,.027,.359,.054,.534-.854,.433-1.785,.734-2.766,.875l.424,2.97c1.446-.207,2.806-.683,4.041-1.363,.516,.3,1.108,.484,1.748,.484,1.933,0,3.5-1.567,3.5-3.5,0-.64-.184-1.231-.484-1.747,.68-1.235,1.156-2.595,1.363-4.04l-2.971-.425Zm-4.908-8.788c0,1.933,1.567,3.5,3.5,3.5,.183,0,.359-.027,.534-.054,.433,.854,.734,1.785,.874,2.766l2.971-.425c-.207-1.446-.683-2.806-1.363-4.04,.3-.516,.484-1.107,.484-1.747,0-1.933-1.567-3.5-3.5-3.5-.64,0-1.232,.184-1.748,.484-1.235-.68-2.595-1.156-4.041-1.363l-.424,2.97c.981,.14,1.912,.441,2.766,.875-.027,.175-.054,.351-.054,.534Zm-8,15c0-1.933-1.567-3.5-3.5-3.5-.183,0-.359,.027-.534,.054-.433-.854-.734-1.785-.874-2.766L.121,13.712c.207,1.446,.683,2.806,1.363,4.04-.3,.516-.484,1.107-.484,1.747,0,1.933,1.567,3.5,3.5,3.5,.64,0,1.232-.184,1.748-.484,1.235,.68,2.595,1.156,4.041,1.363l.424-2.97c-.981-.14-1.912-.441-2.766-.875,.027-.175,.054-.351,.054-.534Zm-2-7.5c0,1.199,.357,2.314,.965,3.253l2.279-2.071c-.156-.363-.244-.762-.244-1.182,0-1.654,1.346-3,3-3v1.603l2.687-2.369c.417-.36,.417-.99,0-1.35l-2.687-2.369v1.485c-3.309,0-6,2.691-6,6Zm12,0c0-1.199-.357-2.314-.965-3.253l-2.279,2.071c.156,.363,.244,.762,.244,1.182,0,1.654-1.346,3-3,3v-1.604l-2.687,2.369c-.417,.36-.417,.99,0,1.35l2.687,2.369v-1.485c3.309,0,6-2.691,6-6Z"/>
</svg>
