<svg id="Layer_1" viewBox="0 0 24 24" xmlns="http://www.w3.org/2000/svg" data-name="Layer 1"><path d="m3 2.5c0-1.381 1.119-2.5 2.5-2.5s2.5 1.119 2.5 2.5-1.119 2.5-2.5 2.5-2.5-1.119-2.5-2.5zm19.592 17.5h-3.184c-.207.581-.757 1-1.408 1s-1.201-.419-1.408-1h-3.184c-.207.581-.757 1-1.408 1s-1.293-.419-1.5-1v-3.349l-3.5-2.103v-4.485l1.592.936h3.408v-3h-2.592l-1.94-1.141c-.654-.413-1.401-.833-2.385-.852-1.706.036-3.083 1.428-3.083 3.142v3.368c0 1.41.673 2.755 1.801 3.6l3.699 2.232v1.651c-.207.581-.849 1-1.5 1s-1.201-.419-1.408-1h-3.184c-.207.581-.757 1-1.408 1v3c1.157 0 2.202-.451 3-1.17.798.72 1.843 1.17 3 1.17s2.202-.451 3-1.17c.798.72 1.843 1.17 3 1.17s2.202-.451 3-1.17c.798.72 1.843 1.17 3 1.17s2.202-.451 3-1.17c.798.72 1.843 1.17 3 1.17v-3c-.651 0-1.201-.419-1.408-1zm-4.092-12-2-2h-2.5v7h2.5l2-2h5.5v-3z"/></svg>