<?xml version="1.0" encoding="UTF-8"?>
<svg xmlns="http://www.w3.org/2000/svg" id="Layer_1" data-name="Layer 1" viewBox="0 0 24 24">
  <path d="m24,17c0,3.86-3.141,7-7,7v-3c2.206,0,4-1.794,4-4h3Zm-9.432,2.932s-.912-.62-2.078-1.493l-1.649,1.652-1.062-1.063c-2.866-2.871-3.995-4.121-6.478-7.446-1.534-2.054-1.677-4.66-.528-6.686L.059,2.179,2.18.058l2.709,2.71c1.987-1.136,4.544-1.007,6.67.489,2.797,1.968,4.493,3.532,7.47,6.513l1.059,1.06-1.652,1.655c.875,1.169,1.497,2.083,1.497,2.083l-5.363,5.363Zm-3.724-4.091l4.999-5.007c-2.137-2.109-3.647-3.459-6.012-5.123-.609-.429-1.368-.713-2.122-.713-.677,0-1.349.229-1.905.786-1.04,1.042-1.081,2.688-.099,4.002,2.06,2.759,3.102,3.979,5.139,6.054Zm-1.345-7.84c-.828,0-1.5.672-1.5,1.5s.672,1.5,1.5,1.5,1.5-.672,1.5-1.5-.672-1.5-1.5-1.5Z"/>
</svg>
