<svg id="Layer_1" viewBox="0 0 24 24" xmlns="http://www.w3.org/2000/svg" data-name="Layer 1"><path d="m20.5 2h-2.5v-2h-3v2h-6v-2h-3v2h-2.5c-1.93 0-3.5 1.57-3.5 3.5v18.5h24v-18.5c0-1.93-1.57-3.5-3.5-3.5zm-17.5 7h7.5v12h-7.5zm10.5 12v-12h7.5v12zm3.75-10c-1.241 0-2.25 1.009-2.25 2.25v3.5c0 1.241 1.009 2.25 2.25 2.25s2.25-1.009 2.25-2.25v-3.5c0-1.241-1.009-2.25-2.25-2.25zm.65 5.75c0 .358-.292.65-.65.65s-.65-.292-.65-.65v-3.5c0-.358.292-.65.65-.65s.65.292.65.65zm-11.8-4.15v.9h.65c1.241 0 2.25 1.009 2.25 2.25v1c0 1.241-1.009 2.25-2.25 2.25h-.025c-1.155 0-2.099-.878-2.225-2h1.625c.098.235.33.4.599.4h.025c.358 0 .65-.292.65-.65v-1c0-.358-.292-.65-.65-.65-.165 0-1.349.004-2.25.007v-4.107h4.5v1.6h-2.9z"/></svg>