<?xml version="1.0" encoding="UTF-8"?>
<svg xmlns="http://www.w3.org/2000/svg" id="Layer_1" data-name="Layer 1" viewBox="0 0 24 24">
  <path d="m16.324,5.555l1.788-1.788c-.065-.246-.112-.5-.112-.767,0-1.657,1.343-3,3-3s3,1.343,3,3-1.343,3-3,3c-.267,0-.521-.046-.767-.112l-2.377,2.377c-.242-1.05-.783-1.985-1.532-2.711ZM6.145,15.734l-2.377,2.377c-.246-.065-.5-.112-.767-.112-1.657,0-3,1.343-3,3s1.343,3,3,3,3-1.343,3-3c0-.267-.046-.521-.112-.767l1.788-1.788c-.748-.726-1.289-1.661-1.532-2.711Zm7.355-9.571v-1.163h-3v1.163c-1.441.434-2.5,1.757-2.5,3.337,0,1.528.917,2.882,2.336,3.45l2.214.886c.273.109.45.37.45.665,0,.276-.225.5-.5.5h-1c-.275,0-.5-.224-.5-.5v-.5h-3v.5c0,1.58,1.059,2.903,2.5,3.337v1.163h3v-1.163c1.441-.434,2.5-1.757,2.5-3.337,0-1.528-.917-2.882-2.336-3.45l-2.214-.886c-.273-.109-.45-.37-.45-.665,0-.276.225-.5.5-.5h1c.275,0,.5.224.5.5v.5h3v-.5c0-1.58-1.059-2.903-2.5-3.337Zm-7.5-3.163c0-1.657-1.343-3-3-3S0,1.343,0,3s1.343,3,3,3c.267,0,.521-.046.767-.112l2.377,2.377c.242-1.05.783-1.985,1.532-2.711l-1.788-1.788c.065-.246.112-.5.112-.767Zm15,15c-.267,0-.521.046-.767.112l-2.377-2.377c-.242,1.05-.783,1.985-1.532,2.711l1.788,1.788c-.065.246-.112.5-.112.767,0,1.657,1.343,3,3,3s3-1.343,3-3-1.343-3-3-3Z"/>
</svg>
