<?xml version="1.0" encoding="UTF-8"?>
<svg xmlns="http://www.w3.org/2000/svg" id="Layer_1" data-name="Layer 1" viewBox="0 0 24 24">
  <path d="m24,13l-1.361,3.5c-1.488,2.483-4.025,2.55-6.842,2.515-.287-.004-1.354-.008-2.296-.011v1.996h3.5v3H7v-3h3.5v-1.996c-.942.003-2.01.008-2.296.011-2.817.035-5.354-.033-6.842-2.515l-1.361-3.5h24ZM3.076,11H.044c.319-2.867,2.438-5.198,5.199-5.83.807-2.975,3.53-5.17,6.757-5.17s5.95,2.195,6.757,5.17c2.761.632,4.88,2.963,5.199,5.83h-3.032c-.349-1.709-1.863-3-3.674-3s-3.326,1.291-3.674,3h-3.152c-.349-1.709-1.863-3-3.674-3s-3.326,1.291-3.674,3Zm5.347-5.789c1.429.367,2.676,1.191,3.577,2.306.901-1.115,2.148-1.939,3.577-2.306-.658-1.31-2.014-2.211-3.577-2.211s-2.919.901-3.577,2.211Z"/>
</svg>
