<?xml version="1.0" encoding="UTF-8"?>
<svg xmlns="http://www.w3.org/2000/svg" id="Layer_1" data-name="Layer 1" viewBox="0 0 24 24">
  <path d="m18.5,10.5c0,.496-.404.9-.9.9h-.5v-1.8h.5c.496,0,.9.404.9.9Zm4.456,4.021l-8.436,8.436c-.695.695-1.607,1.042-2.521,1.042s-1.825-.347-2.521-1.042L1.044,14.521c-1.39-1.39-1.39-3.651,0-5.041L9.479,1.043c1.391-1.389,3.65-1.389,5.041,0l8.436,8.436c1.39,1.39,1.39,3.651,0,5.041Zm-15.187-1.721l1.164,2.56c.181.398.499.64.841.64.516,0,.945-.295.988-1l.508-7h-1.604l-.319,4.402-1.577-3.469-1.577,3.468-.319-4.402h-1.604l.508,7c.043.705.472,1,.988,1,.342,0,.66-.242.841-.64l1.164-2.56Zm7.465,5.2h-6.468l2.835,2.835c.221.22.578.22.799,0l2.835-2.834Zm-1.134-2v-8h-1.6v8h1.6Zm1.134-10l-2.835-2.835c-.221-.22-.578-.22-.799,0l-2.835,2.834h6.468Zm4.865,4.5c0-1.381-1.119-2.5-2.5-2.5h-2.1v8h1.6v-3h.5c1.381,0,2.5-1.119,2.5-2.5Z"/>
</svg>
