<?xml version="1.0" encoding="UTF-8"?>
<svg xmlns="http://www.w3.org/2000/svg" id="Layer_1" data-name="Layer 1" viewBox="0 0 24 24" width="512" height="512"><path d="M15.578,2.939L16.422,.061c2.032,.595,3.433,1.994,4.053,4.044l-2.872,.867c-.33-1.092-.954-1.719-2.024-2.033ZM2.936,17.566L.064,18.434c.605,2.002,2.031,3.424,4.014,4.005l.844-2.879c-1.007-.295-1.675-.966-1.986-1.995Zm5.324-2.877l2.121-2.121L2.586,4.773c-.586-.586-1.535-.586-2.121,0C-.121,5.358-.121,6.309,.465,6.894l7.794,7.794Zm3.154-3.153l2.121-2.122L5.561,1.439c-.586-.586-1.535-.586-2.121,0-.586,.585-.586,1.536,0,2.121l7.974,7.975Zm12.586-4.535c0-1.215-1.083-2.176-2.336-1.973-.983,.16-1.664,1.083-1.664,2.08v2.464L10.868,.439c-.586-.586-1.535-.586-2.121,0-.586,.585-.586,1.536,0,2.121l10.759,10.759c1.255,1.255,1.255,3.297,0,4.552l-1.803,1.803c-1.786,1.786-4.691,1.785-6.477-.001L2.547,11.015c-.587-.585-1.537-.584-2.122,.002-.585,.587-.584,1.537,.002,2.122l8.679,8.657c1.478,1.478,3.418,2.216,5.359,2.216s3.881-.739,5.359-2.216c0,0,2.308-2.357,2.517-2.657,1.066-1.211,1.659-2.772,1.659-4.395V7Z"/></svg>
