<?xml version="1.0" encoding="UTF-8"?>
<svg xmlns="http://www.w3.org/2000/svg" id="Layer_1" data-name="Layer 1" viewBox="0 0 24 24">
  <path d="m24.02,0h-9.282l-2.742,5.542L9.261,0H-.02l4.767,9.663c-1.104,1.494-1.758,3.341-1.758,5.337,0,4.963,4.038,9,9,9s9-4.037,9-9c0-1.994-.652-3.838-1.753-5.331L24.02,0Zm-4.831,3l-2.228,4.502c-.641-.427-1.34-.774-2.081-1.026l1.72-3.476h2.589Zm-11.792,0l1.713,3.472c-.743.252-1.443.598-2.085,1.025l-2.219-4.497h2.591Zm4.593,18c-3.309,0-6-2.691-6-6s2.691-6,6-6,6,2.691,6,6-2.691,6-6,6Zm.924-10l.087,1v7h-2v-4.62l-.573.591-1.437-1.391,2.499-2.58h1.423Z"/>
</svg>
