<?xml version="1.0" encoding="UTF-8"?>
<svg xmlns="http://www.w3.org/2000/svg" id="Layer_1" data-name="Layer 1" viewBox="0 0 24 24">
  <path d="M5,14h5v3H5c-1.103,0-2,.897-2,2v5H0v-5c0-2.757,2.243-5,5-5ZM3,6C3,2.691,5.691,0,9,0s6,2.691,6,6-2.691,6-6,6S3,9.309,3,6Zm3,0c0,1.654,1.346,3,3,3s3-1.346,3-3-1.346-3-3-3-3,1.346-3,3ZM24,14v6.5c0,1.93-1.57,3.5-3.5,3.5h-5c-1.93,0-3.5-1.57-3.5-3.5v-6.5h2v-1c0-2.206,1.794-4,4-4s4,1.794,4,4v1h2Zm-7,0h2v-1c0-.551-.449-1-1-1s-1,.449-1,1v1Zm4,3h-6v3.5c0,.276,.224,.5,.5,.5h5c.276,0,.5-.224,.5-.5v-3.5Z"/>
</svg>
