<?xml version="1.0" encoding="UTF-8"?>
<svg xmlns="http://www.w3.org/2000/svg" id="Layer_1" data-name="Layer 1" viewBox="0 0 24 24">
  <path d="M4.5,8.5l-2-1,2-1,1-2,1,2,2,1-2,1-1,2-1-2ZM3.333,3.333l1.667-.833-1.667-.833-.833-1.667-.833,1.667-1.667,.833,1.667,.833,.833,1.667,.833-1.667Zm17.667,6.167C21,4.262,16.963,0,12,0c-2.077,0-3.986,.754-5.511,2.006l1.391,2.781c1.076-1.104,2.524-1.787,4.12-1.787,3.309,0,6,2.916,6,6.5s-2.691,6.5-6,6.5c-2.491,0-4.631-1.654-5.537-4H3.327c.909,3.508,3.673,6.214,7.109,6.854l-.488,2.686c-.233,1.281,.751,2.46,2.053,2.46s2.286-1.179,2.053-2.46l-.49-2.693c4.219-.784,7.437-4.672,7.437-9.347Z"/>
</svg>
