<?xml version="1.0" encoding="UTF-8"?>
<svg xmlns="http://www.w3.org/2000/svg" id="Layer_1" data-name="Layer 1" viewBox="0 0 24 24">
  <path d="m23.894,13.849c-.429,1.564-2.046,2.484-3.61,2.055-1.013-.278-3.771-2.674-5.588-4.326l4.303,6.47v2.53l1.4,1.05-1.801,2.4-2.6-1.95v-3.124l-2.5-3.759v4.805h-3v-4.805l-2.5,3.759v3.124l-2.6,1.95-1.801-2.4,1.4-1.05v-2.53l4.303-6.47c-1.817,1.653-4.574,4.048-5.588,4.326-1.564.429-3.18-.49-3.61-2.055-.429-1.564.49-3.18,2.055-3.61.991-.272,4.276-.295,6.549-.276l-4.709-3.421v-2.516l-1.671-2.089L4.671.063l2.329,2.911v2.04l3.5,2.543v-.056c-.607-.456-1-1.182-1-2,0-1.071.674-1.985,1.621-2.341l.879-3.159.879,3.159c.947.356,1.621,1.269,1.621,2.341,0,.818-.393,1.544-1,2v.056l3.5-2.543v-2.04L19.329.063l2.342,1.874-1.671,2.089v2.516l-4.709,3.421c2.273-.019,5.558.004,6.549.276,1.564.429,2.484,2.046,2.055,3.61Z"/>
</svg>
