<?xml version="1.0" encoding="UTF-8"?>
<svg xmlns="http://www.w3.org/2000/svg" id="Layer_1" data-name="Layer 1" viewBox="0 0 24 24">
  <path d="M1,6.911V1L3.521,3.521C5.743,1.288,8.754,0,12,0c5.579,0,10.26,3.834,11.596,9h-3.122c-1.24-3.49-4.565-6-8.474-6-2.434,0-4.693,.966-6.359,2.641l2.359,2.359H2.091c-.602,0-1.09-.487-1.091-1.089Zm12.018,4.22c-.635-.263-1.352-.127-1.852,.373l-4.081,4.272,2.17,2.072,1.767-1.85-.039,7.994,3,.015,.055-11.372c0-.657-.4-1.248-1.021-1.505Zm-10.018,.869H0c0,5.579,3.833,10.268,9,11.605v-3.13c-3.49-1.239-6-4.565-6-8.475Zm17,4h-1v-2h4v-3h-7v8h4c.551,0,1,.449,1,1s-.449,1-1,1h-4v3h4c2.206,0,4-1.794,4-4s-1.794-4-4-4Z"/>
</svg>
