<svg id="Layer_1" viewBox="0 0 24 24" xmlns="http://www.w3.org/2000/svg" data-name="Layer 1"><path d="m12 24h12l-6-10.286zm7-1h-2v-2h2zm0-3h-2v-3h2zm-4-7h-1.5v-1.4c0-1.67-1.129-3.19-2.765-3.525-2.25-.46-4.235 1.255-4.235 3.425v1.5h-1.5v6c0 1.105.895 2 2 2h4.435l3.565-6.113zm-4 5h-2v-2h2zm0-5h-2v-1.5c0-.551.449-1 1-1s1 .449 1 1zm9.5-13h-17c-1.93 0-3.5 1.57-3.5 3.5v18.5h3v-15h18v7.888l3 5.143v-16.531c0-1.93-1.57-3.5-3.5-3.5zm-16 5c-.828 0-1.5-.672-1.5-1.5s.672-1.5 1.5-1.5 1.5.672 1.5 1.5-.672 1.5-1.5 1.5zm5 0c-.828 0-1.5-.672-1.5-1.5s.672-1.5 1.5-1.5 1.5.672 1.5 1.5-.672 1.5-1.5 1.5z"/></svg>