<?xml version="1.0" encoding="UTF-8"?>
<svg xmlns="http://www.w3.org/2000/svg" id="Layer_1" data-name="Layer 1" viewBox="0 0 24 24">
  <path d="m24,3.5v14.836l-5.618,5.664H4v-13h3v10h9v-5h5V3.5c0-.275-.225-.5-.5-.5h-6.5V0h6.5c1.93,0,3.5,1.57,3.5,3.5Zm-14,5.5v-4.05c1.141-.232,2-1.24,2-2.45,0-1.381-1.119-2.5-2.5-2.5-.682,0-1.299.275-1.75.718-.451-.443-1.068-.718-1.75-.718s-1.299.275-1.75.718c-.451-.443-1.068-.718-1.75-.718C1.119,0,0,1.119,0,2.5c0,1.209.859,2.218,2,2.45v4.05h8Zm9,2h-10v3h10v-3Zm0-5h-7v3h7v-3Zm-10,13h5v-3h-5v3Z"/>
</svg>
