<?xml version="1.0" encoding="UTF-8"?>
<svg xmlns="http://www.w3.org/2000/svg" id="Layer_1" data-name="Layer 1" viewBox="0 0 24 24">
  <path d="m23.261,18.416c-.226-.932-1.308-5.054-3.21-7.19.929-1.168,1.499-3.649,1.499-3.649,0,0-2.427-.752-3.904-.537-1.022-2.64-3.942-5.45-4.624-6.084L12,.009l-1.02.946c-.683.634-3.603,3.444-4.625,6.084-1.478-.215-3.904.537-3.904.537,0,0,.569,2.481,1.499,3.649-1.904,2.136-2.985,6.259-3.21,7.19l-.328,1.353,1.324.428c.761.247,3.725,1.148,6.322,1.148.569,0,1.121-.044,1.628-.147.645,1.343,2.316,2.893,2.316,2.893,0,0,1.671-1.55,2.316-2.893,2.82.575,7.022-.702,7.949-1.002l1.323-.429-.327-1.352ZM11.999,4.169c1.475,1.562,3.001,3.579,3.001,4.545,0,.532-.148,1.055-.441,1.554l-1.235,2.1c-.252-.473-.75-.795-1.324-.795s-1.073.323-1.325.796l-1.234-2.102c-.293-.499-.441-1.021-.441-1.554,0-.899,1.414-2.87,2.999-4.545Zm-7.957,13.569c.644-2.05,1.659-4.366,2.503-4.838.464-.26.992-.399,1.571-.373l2.467.051c-.054.155-.084.321-.084.494,0,.805.634,1.462,1.43,1.498l-1.251,2.326c-.285.529-.702.958-1.207,1.24-.785.439-3.195.167-5.43-.399Zm10.484.398c-.504-.281-.921-.71-1.205-1.239l-1.251-2.326c.796-.036,1.43-.693,1.43-1.498,0-.173-.03-.34-.084-.494l2.467-.051c.568-.028,1.107.113,1.572.373h0c.785.439,1.814,2.636,2.503,4.836-2.084.525-4.588.872-5.432.4Z"/>
</svg>
