<?xml version="1.0" encoding="UTF-8"?>
<svg xmlns="http://www.w3.org/2000/svg" id="Layer_1" data-name="Layer 1" viewBox="0 0 24 24">
  <path d="M23,17.091v4.909l-2.034-2.034c-2.264,2.544-5.524,4.034-8.966,4.034C5.383,24,0,18.617,0,12H3c0,4.963,4.038,9,9,9,2.641,0,5.134-1.174,6.836-3.164l-1.836-1.836h4.909c.602,0,1.091,.488,1.091,1.091ZM2.091,8H7l-1.836-1.836c1.702-1.99,4.195-3.164,6.836-3.164,4.963,0,9,4.038,9,9h3C24,5.383,18.617,0,12,0,8.558,0,5.297,1.489,3.033,4.033L1,2V6.909c0,.603,.488,1.091,1.091,1.091Zm11.909-1c1.105,0,2,.895,2,2v8H8V9c0-1.105,.895-2,2-2h4Zm-1,6h-3v2h3v-2Zm1-4h-4v2h4v-2Z"/>
</svg>
