<svg id="Layer_1" viewBox="0 0 24 24" xmlns="http://www.w3.org/2000/svg" data-name="Layer 1"><path d="m24 9c0-3.309-2.691-6-6-6h-.004c-1.405-1.872-3.623-3-5.996-3s-4.59 1.128-5.997 3h-.003c-3.309 0-6 2.691-6 6 0 1.61.641 3.072 1.677 4.15l.876 7.743c.2 1.771 1.695 3.106 3.478 3.106h11.937c1.782 0 3.277-1.335 3.478-3.106l.877-7.743c1.036-1.079 1.678-2.54 1.678-4.151zm-18-3c.352 0 1.197.184 1.554.236l.518-.926c.797-1.425 2.302-2.31 3.928-2.31s3.132.885 3.928 2.31l.519.926c2.065-.728 4.571.356 4.554 2.764 0 1.654-1.346 3-3 3-1.3-.024-1.841-.688-2.67-1.3l-.895.579c-1.458.944-3.411.943-4.872 0l-.896-.579c-.829.613-1.366 1.275-2.668 1.3-1.654 0-3-1.346-3-3s1.346-3 3-3zm4.62 8.855c.911.168 1.85.168 2.761 0l-.307 6.145h-2.146l-.307-6.145zm-5.085 5.702-.641-5.663c.359.067.728.107 1.106.107.552 0 1.09-.084 1.612-.233l.312 6.233h-1.892c-.255 0-.468-.19-.497-.443zm12.433.443h-1.891l.312-6.233c.521.149 1.06.233 1.612.233.378 0 .747-.039 1.106-.107l-.641 5.663c-.029.253-.242.443-.497.443z"/></svg>