<?xml version="1.0" encoding="UTF-8"?>
<svg xmlns="http://www.w3.org/2000/svg" id="Layer_1" data-name="Layer 1" viewBox="0 0 24 24">
  <path d="M20.928,8C20.429,3.507,16.611,0,11.987,0S3.546,3.507,3.046,8H.071l1.911,13.008c.25,1.706,1.739,2.992,3.462,2.992h13.111c1.724,0,3.212-1.286,3.462-2.992l1.911-13.008h-3ZM11.987,3c2.967,0,5.431,2.167,5.91,5H6.078c.478-2.833,2.942-5,5.91-5Zm7.063,17.573c-.036,.244-.249,.427-.495,.427H5.444c-.246,0-.458-.184-.495-.427l-1.406-9.573H20.456l-1.406,9.573Zm-3.05-3.073H8v-3h8v3Z"/>
</svg>
