<?xml version="1.0" encoding="UTF-8"?>
<svg xmlns="http://www.w3.org/2000/svg" id="Layer_1" data-name="Layer 1" viewBox="0 0 24 24" width="512" height="512"><path d="m24,12c0,6.617-5.383,12-12,12S0,18.617,0,12,5.383,0,12,0c3.159,0,6.142,1.218,8.398,3.429l1.071,1.05-8.398,8.571h0c-.272.277-.651.45-1.07.45-.828,0-1.5-.672-1.5-1.5,0-.409.164-.778.43-1.049h0s.01-.012.01-.012c0,0,0,0,0,0l2.582-2.635c-.138-.057-1.021-.304-1.521-.304-2.206,0-4,1.794-4,4s1.794,4,4,4c1.824,0,3.349-1.234,3.829-2.906l2.898-2.958c.17.593.273,1.215.273,1.864,0,3.125-2.071,5.75-4.903,6.646-.445-.688-1.216-1.146-2.097-1.146s-1.652.458-2.097,1.146c-2.832-.896-4.903-3.521-4.903-6.646,0-1.165.304-2.253.811-3.219.804.175,1.675-.046,2.3-.67s.845-1.497.67-2.3c.966-.507,2.054-.811,3.219-.811,2,0,3.401.874,3.711,1.069l1.429-1.459c-1.499-1.046-3.279-1.61-5.141-1.61-1.607,0-3.103.445-4.41,1.187-.956-.553-2.196-.43-3.015.388s-.941,2.058-.388,3.015c-.742,1.307-1.187,2.803-1.187,4.41,0,4.132,2.801,7.616,6.602,8.669.294,1.054,1.251,1.831,2.398,1.831s2.104-.778,2.398-1.831c3.801-1.053,6.602-4.537,6.602-8.669,0-1.229-.255-2.398-.703-3.467l2.234-2.28c.936,1.708,1.469,3.666,1.469,5.747Z"/></svg>
