<?xml version="1.0" encoding="UTF-8"?>
<svg xmlns="http://www.w3.org/2000/svg" id="Layer_1" data-name="Layer 1" viewBox="0 0 24 24">
  <path d="M6,5h2v3c0,1.09-.878,1.977-1.965,1.996l.36,5.044c.914,.184,1.604,.993,1.604,1.96v2H0v-2c0-.967,.69-1.776,1.604-1.96l.36-5.044c-1.086-.019-1.965-.906-1.965-1.996v-3H2v2h1v-2h2v2h1v-2Zm15,1c1.657,0,3-1.343,3-3s-1.343-3-3-3-3,1.343-3,3,1.343,3,3,3Zm0,3c-1.657,0-3,1.343-3,3s1.343,3,3,3,3-1.343,3-3-1.343-3-3-3Zm0,9c-1.657,0-3,1.343-3,3s1.343,3,3,3,3-1.343,3-3-1.343-3-3-3ZM14,1.5c-1.654,0-3,1.346-3,3v6h-2v3h2v6c0,1.654,1.346,3,3,3h2.254c-.151-.476-.254-.974-.254-1.5s.104-1.024,.254-1.5h-2.254v-6h2.254c-.151-.476-.254-.974-.254-1.5s.104-1.024,.254-1.5h-2.254V4.5h2.254c-.151-.476-.254-.974-.254-1.5s.104-1.024,.254-1.5h-2.254Z"/>
</svg>
