<?xml version="1.0" encoding="UTF-8"?>
<svg xmlns="http://www.w3.org/2000/svg" id="Layer_1" data-name="Layer 1" viewBox="0 0 24 24" width="512" height="512"><path d="M15.5,8c.828,0,1.5,.672,1.5,1.5v4c0,.828-.672,1.5-1.5,1.5s-1.5-.672-1.5-1.5v-4c0-.828,.672-1.5,1.5-1.5Zm4,0c-.828,0-1.5,.672-1.5,1.5v4c0,.828,.672,1.5,1.5,1.5s1.5-.672,1.5-1.5v-4c0-.828-.672-1.5-1.5-1.5Zm-1.5,8.649v4.351H9.094l-3.506-3.288,3.814-3.948c.797-.797,.797-2.089,0-2.886-.797-.797-2.089-.797-2.886,0l-3.512,3.618c-.646,.658-1.004,1.525-1.004,2.449,0,.935,.364,1.814,1.06,2.508l4.847,4.547h13.094v-7.351c-.456,.219-.961,.351-1.5,.351s-1.044-.133-1.5-.351ZM7.221,6.151l1.651-3.261L7.823,.819C7.445,.081,6.546-.214,5.804,.166c-.737,.377-1.029,1.281-.652,2.019l2.069,3.966Zm3.596,3.313c.051,.051,.087,.111,.134,.164l3.883-7.443c.377-.737,.085-1.641-.652-2.019-.743-.38-1.642-.086-2.019,.652l-3.799,7.501c.925,.093,1.787,.479,2.453,1.145Z"/><path d="M15.5,8c.828,0,1.5,.672,1.5,1.5v4c0,.828-.672,1.5-1.5,1.5s-1.5-.672-1.5-1.5v-4c0-.828,.672-1.5,1.5-1.5Zm4,0c-.828,0-1.5,.672-1.5,1.5v4c0,.828,.672,1.5,1.5,1.5s1.5-.672,1.5-1.5v-4c0-.828-.672-1.5-1.5-1.5Zm-1.5,8.649v4.351H9.094l-3.506-3.288,3.814-3.948c.797-.797,.797-2.089,0-2.886-.797-.797-2.089-.797-2.886,0l-3.512,3.618c-.646,.658-1.004,1.525-1.004,2.449,0,.935,.364,1.814,1.06,2.508l4.847,4.547h13.094v-7.351c-.456,.219-.961,.351-1.5,.351s-1.044-.133-1.5-.351ZM7.221,6.151l1.651-3.261L7.823,.819C7.445,.081,6.546-.214,5.804,.166c-.737,.377-1.029,1.281-.652,2.019l2.069,3.966Zm3.596,3.313c.051,.051,.087,.111,.134,.164l3.883-7.443c.377-.737,.085-1.641-.652-2.019-.743-.38-1.642-.086-2.019,.652l-3.799,7.501c.925,.093,1.787,.479,2.453,1.145Z"/></svg>
