<?xml version="1.0" encoding="UTF-8"?>
<svg xmlns="http://www.w3.org/2000/svg" id="Layer_1" data-name="Layer 1" viewBox="0 0 24 24">
  <path d="M18,2.5c0-1.381,1.119-2.5,2.5-2.5s2.5,1.119,2.5,2.5-1.119,2.5-2.5,2.5-2.5-1.119-2.5-2.5Zm-4.559,16.013l-2.743,5.487h3.354l1.879-3.759-1.746-1.046c-.274-.207-.519-.438-.744-.683Zm5.34-2.394l1.257-2.475,2.376,1.413,1.534-2.578-2.548-1.516,.412-.851c.346-1.058,.218-2.078-.358-2.874-.571-.788-1.515-1.24-2.589-1.24-.126,0-.462,0-1.414,.301l-7.63,3.862,1.361,2.674,4.641-2.364-1.524,2.921c-.658,1.493-.209,3.222,1.093,4.206l3.684,2.172-2.13,4.23h3.354l2.706-5.382-4.225-2.5Zm-8.78,4.631c0,.974-.288,1.754-.856,2.317-.863,.856-2.066,.937-3.271,.937-.141,0-1.324-.002-1.324-.002-1.343,.009-2.729,.021-3.693-.935-.568-.563-.856-1.343-.856-2.317,0-2.365,3.284-6.616,5.991-7.556-.729-.766-1.383-1.977-1.991-3.194l4.5-1c.732,1.829,.594,3.653-.072,4.504,1.569,1.312,1.572,4.911,1.572,7.247Zm-3,0c0-2.839-.208-4.081-.381-4.623-1.26,.649-3.619,3.552-3.619,4.623,0,.08,.004,.139,.01,.182,.304,.081,1.022,.075,1.515,.071h.949c.494,.004,1.211,.01,1.515-.071,.006-.042,.01-.102,.01-.182Z"/>
</svg>
