<?xml version="1.0" encoding="UTF-8"?>
<svg xmlns="http://www.w3.org/2000/svg" id="Layer_1" data-name="Layer 1" viewBox="0 0 24 24">
  <path d="M18,2h-.013C16.824,.447,14.851-.31,12.879,.124c-1.882,.416-3.401,1.969-3.779,3.864-.277,1.39,.023,2.77,.832,3.899,.004,.008,.008,.015,.012,.023-1.249,.513-2.333,1.233-3.228,2.18-1.848,1.954-2.447,4.36-2.636,5.911h-.08c-2.206,0-4,1.794-4,4s1.794,4,4,4H14v-3H4c-.551,0-1-.448-1-1s.449-1,1-1H21v-3h-2v-3h3c1.103,0,2-.897,2-2v-2c0-3.441-2.244-7-6-7Zm-2,14H7.111c.18-1.105,.638-2.648,1.804-3.869,.952-.997,2.258-1.64,3.884-1.937,.711,1.158,1.847,2.035,3.201,2.477v3.329Zm5-6h-3c-1.393,0-2.589-.798-2.909-1.94,0,0-.091-.56-.091-1.06,0,0-.773-.009-1,0-1.105,0-2-.895-2-2s.895-2,2-2,2,.895,2,2v1.5c.694,0,1.38-.724,1.74-1.5h.26c2.069,0,3,2.339,3,4v1Z"/>
</svg>
