<?xml version="1.0" encoding="UTF-8"?>
<svg xmlns="http://www.w3.org/2000/svg" id="Layer_1" data-name="Layer 1" viewBox="0 0 24 24">
  <path d="M6,13.679L1.797,9.476c-.71-.71-1.044-1.643-1.153-2.567l-.644-.644V.007H2.275l2.007,2h6.549c.646,0,1.17,.54,1.17,1.186,0,.323-.131,.615-.343,.827-.212,.212-.504,.343-.827,.343h-1.419s2.692,2.692,2.692,2.692c-.816,.11-1.536,.529-2.008,1.159-.34-.133-.709-.207-1.096-.207-1.654,0-3,1.346-3,3v2.672Zm10-2.672c-.552,0-1,.448-1,1v4h-1.5v-6c0-.552-.448-1-1-1-.552,0-1,.448-1,1v6h-1.5v-5c0-.552-.448-1-1-1-.552,0-1,.448-1,1v7.346l-1.003-1.003c-.228-.228-.528-.343-.827-.343s-.599,.114-.827,.343c-.457,.457-.457,1.197,0,1.654l4.657,4.604v.4h6v-1.255c.577-.73,1-1.626,1-2.63V12.007c0-.552-.448-1-1-1ZM24,.007l-4.218-.013-1.628,1.628c-.924,.108-1.857,.443-2.567,1.153,0,0-2.257,2.379-2.398,2.537l5.005,5.005c.686,.688,.685,1.894,.685,1.894l1.821-1.821v1.419c0,.323,.131,.615,.342,.827s.504,.343,.827,.343c.646,0,1.17-.524,1.17-1.17l-.038-6.549,.999-.999V.007Z"/>
</svg>
