<?xml version="1.0" encoding="UTF-8"?>
<svg xmlns="http://www.w3.org/2000/svg" id="Layer_1" data-name="Layer 1" viewBox="0 0 24 24" width="512" height="512"><path d="M18,6s-2,2-2,3,2,3,2,3c-1.631,0-5-.733-5-3s3.369-3,5-3Zm-7,3c0-2.267-3.369-3-5-3,0,0,2,2,2,3s-2,3-2,3c1.631,0,5-.733,5-3ZM12,0C5.383,0,0,5.383,0,12c0,.657,.067,1.297,.169,1.926l2.949-.541c-.07-.453-.118-.913-.118-1.385C3,7.038,7.037,3,12,3s9,4.038,9,9-4.037,9-9,9c-.47,0-.928-.047-1.379-.117l-.538,2.949c.626,.101,1.263,.168,1.917,.168,6.617,0,12-5.383,12-12S18.617,0,12,0ZM2.282,18.699l-1.35,4.362,4.361-1.307,2.735,2.188,1.78-9.752L.1,15.972l2.182,2.727Zm8.901-.895l.81,.81,1.51-1.49,1.497,1.497,3.561-3.561-2.121-2.121-1.439,1.439-1.483-1.483-1.756,1.742-.578,3.166Z"/></svg>
