<svg id="Layer_1" viewBox="0 0 24 24" xmlns="http://www.w3.org/2000/svg" data-name="Layer 1"><path d="m21 19.5v4.5h-3v-4.5c0-1.379-1.121-2.5-2.5-2.5h-7c-1.378 0-2.5 1.121-2.5 2.5v4.5h-3v-4.5c0-3.032 2.467-5.5 5.5-5.5h7c3.032 0 5.5 2.468 5.5 5.5zm-17-12v-3c0-.828.672-1.5 1.5-1.5.422 0 .802.175 1.074.456.96-2.038 3.028-3.456 5.426-3.456s4.466 1.417 5.426 3.456c.273-.28.652-.456 1.074-.456.828 0 1.5.672 1.5 1.5v3c0 .828-.672 1.5-1.5 1.5-.422 0-.802-.175-1.074-.456-.96 2.038-3.028 3.456-5.426 3.456s-4.466-1.417-5.426-3.456c-.273.28-.652.456-1.074.456-.828 0-1.5-.672-1.5-1.5zm11-1.5c0-.352-.072-.686-.184-1h-.816c-1.105 0-2-.895-2-2 0 1.105-.895 2-2 2h-.816c-.112.314-.184.648-.184 1 0 1.654 1.346 3 3 3s3-1.346 3-3z"/></svg>