<?xml version="1.0" encoding="UTF-8"?>
<svg xmlns="http://www.w3.org/2000/svg" id="Layer_1" data-name="Layer 1" viewBox="0 0 24 24">
  <path d="M21.447,5.288c-.514-1.368-1.836-2.288-3.288-2.288h-.159v-1h-3v1h-6v-1h-3v1h-.159c-1.452,0-2.774,.919-3.288,2.287C.433,10.92,0,17.142,0,18.5c0,1.93,1.57,3.5,3.5,3.5,2.725,0,5.09-3.669,6.062-6h4.875c.972,2.331,3.338,6,6.062,6,1.93,0,3.5-1.57,3.5-3.5,0-1.358-.433-7.58-2.553-13.212Zm-.947,13.712c-.823,0-3.044-2.859-3.545-4.864l-.284-1.136H7.329l-.284,1.136c-.501,2.005-2.722,4.864-3.545,4.864-.276,0-.5-.225-.5-.5,0-1.167,.42-7,2.36-12.157,.079-.208,.267-.343,.48-.343h12.318c.213,0,.402,.135,.48,.344,1.94,5.157,2.36,10.989,2.36,12.156,0,.275-.224,.5-.5,.5ZM9,9.5c0,.828-.672,1.5-1.5,1.5s-1.5-.672-1.5-1.5,.672-1.5,1.5-1.5,1.5,.672,1.5,1.5Zm9,0c0,.828-.672,1.5-1.5,1.5s-1.5-.672-1.5-1.5,.672-1.5,1.5-1.5,1.5,.672,1.5,1.5Z"/>
</svg>
