<?xml version="1.0" encoding="UTF-8"?>
<svg xmlns="http://www.w3.org/2000/svg" id="Layer_1" data-name="Layer 1" viewBox="0 0 24 24">
  <path d="m7,20.125c.605-.29,1.648-.703,3-.941v4.816h-3v-3.875Zm7,3.875h3v-3.969c-.907-.336-1.937-.645-3-.837v4.805Zm-2-19c1.381,0,2.5-1.119,2.5-2.5s-1.119-2.5-2.5-2.5-2.5,1.119-2.5,2.5,1.119,2.5,2.5,2.5Zm9-.611l-10.984,9.729c.626-.075,1.289-.119,1.984-.119,1.019,0,2.027.12,3,.301v-1.926l3-2.657v5.366c1.169.392,2.201.828,3,1.206v3.366c-.994-.55-5.059-2.657-9-2.657s-6.646,1.734-6.673,1.751l-2.321,1.519-.006-3.945,3-2.657v-4.168c0-1.93,1.57-3.5,3.5-3.5,0,0,5.097.008,5.146.01L21,.382v4.007Zm-9.73,4.611h-1.77c-.275,0-.5.224-.5.5v1.51l2.27-2.01Z"/>
</svg>
