<?xml version="1.0" encoding="UTF-8"?>
<svg xmlns="http://www.w3.org/2000/svg" id="Layer_1" data-name="Layer 1" viewBox="0 0 24 24">
  <path d="m22,3.5v20.5H2V3.5c0-1.93,1.57-3.5,3.5-3.5h3.037c-.741.826-1.255,1.857-1.447,3h-1.59c-.276,0-.5.224-.5.5v17.5h14V3.5c0-.072-.017-.14-.045-.202-.147-1.261-.687-2.4-1.492-3.298h1.037c1.93,0,3.5,1.57,3.5,3.5Zm-15,15.5h10v-3H7v3Zm4-15c0-1.103.897-2,2-2s2,.897,2,2v7.5c0,.276-.224.5-.5.5s-.5-.224-.5-.5v-7.5h-2v7.5c0,1.378,1.122,2.5,2.5,2.5s2.5-1.122,2.5-2.5v-7.5c0-2.206-1.794-4-4-4s-4,1.794-4,4v7h2v-7Z"/>
</svg>
