<?xml version="1.0" encoding="UTF-8"?>
<svg xmlns="http://www.w3.org/2000/svg" id="Layer_1" data-name="Layer 1" viewBox="0 0 24 24">
  <path d="m24,6.5v14.121l-3.379,3.379h-4.242l4.621-4.621v-2.996l-3.325,3.3-2.113-2.129,3.318-3.293c.194-.322.147-.746-.123-1.017-.324-.324-.85-.324-1.174,0l-3.886,3.886c.184.554.303,1.132.303,1.733v5.138h-3v-5.138c0-.667-.26-1.296-.732-1.768l-3.769-3.769c-.324-.324-.825-.404-1.139-.18-.245.174-.325.398-.35.557-.03.196.008.391.11.558l3.319,3.294-2.113,2.129-3.325-3.321v3.017l4.621,4.621H3.379l-3.379-3.379V6.5c0-1.465,1.265-2.639,2.761-2.487,1.301.132,2.239,1.326,2.239,2.633v3.468c1.259-.259,2.645.114,3.62,1.089l3.38,3.38,3.462-3.462c.958-.959,2.302-1.294,3.538-1.021v-3.455c0-1.307.939-2.501,2.239-2.633,1.495-.152,2.761,1.022,2.761,2.487Zm-12.5,2.053c.66,0,1.32-.251,1.822-.753l5.628-5.628L16.829.05l-5.329,5.329-2.939-2.939-2.121,2.121,3.239,3.239c.502.502,1.162.753,1.822.753Z"/>
</svg>
