<svg id="Layer_1" viewBox="0 0 24 24" xmlns="http://www.w3.org/2000/svg" data-name="Layer 1"><path d="m3.107 16c-.873-.001-1.575.717-1.742 1.581l-1.365 6.418h1.584l.309-1.4h2.379l.295 1.4h1.632l-1.339-6.373c-.19-.937-.859-1.621-1.753-1.627zm-.86 5 .673-3.043c.057-.241.103-.356.19-.356s.138.124.185.355l.641 3.044h-1.688zm6.82-14.765c-1.491.45-2.686 1.564-3.232 3.011h-.001l-5.126-5.126c-.943-.942-.945-2.47-.003-3.413.941-.942 2.467-.943 3.409-.002.032.032 4.953 5.53 4.953 5.53zm-5.904 3.167c-.307 1.559-.128 3.142.489 4.597h-3.182c-.564-1.902-.619-3.923-.086-5.901.101-.376.243-.734.382-1.093zm20.832 3.28v2.818h-2.299l-.341 2.478c-.237 1.723-1.728 3.022-3.467 3.022h-.893v3h-5.996v-3h2.996v-3h3.893c.249 0 .461-.186.496-.432l.698-5.068h1.557c-.985-2.27-2.163-5.046-3.127-6.221-1.847-2.464-4.836-3.661-7.844-3.165-.198.033-.388.094-.582.142-.971-1.085-1.674-1.87-2.182-2.437.729-.292 1.482-.533 2.276-.664h.001c4.113-.675 8.212.964 10.698 4.282 1.355 1.636 2.932 5.574 4.118 8.246zm-8.495 1.318h-5c-1.657 0-3-1.343-3-3s1.343-3 3-3c4 0 5 6 5 6zm-8.1 2h1.6v8h-1.6z"/></svg>