<?xml version="1.0" encoding="UTF-8"?>
<svg xmlns="http://www.w3.org/2000/svg" id="Layer_1" data-name="Layer 1" viewBox="0 0 24 24" width="512" height="512"><path d="m21.496,16.158c-.325-1.165-.735-2.274-1.189-3.334,2.154-.557,3.751-2.496,3.751-4.824,0-1.695-.848-3.186-2.137-4.091-.527-.599-3.611-3.909-7.921-3.909C10.669,0,4.033,3.437,2.154,16.271c-1.263.529-2.154,1.776-2.154,3.229v4.5l24-.002v-4.5c0-.935-.364-1.814-1.025-2.475-.418-.418-.928-.701-1.479-.865Zm-2.437-6.158c-1.103,0-2-.897-2-2s.897-2,2-2,2,.897,2,2-.897,2-2,2Zm-5.059-7c.965,0,1.871.264,2.671.633-1.549.849-2.612,2.476-2.612,4.367,0,1.947,1.125,3.616,2.749,4.442.564,1.111,1.079,2.297,1.494,3.556l-13.063.002C6.991,5.404,12.088,3,14,3Zm7,17.998l-18,.002v-1.5c0-.276.225-.5.5-.5l17-.002h0c.18,0,.298.091.353.146s.146.173.146.354v1.5Z"/></svg>
