<?xml version="1.0" encoding="UTF-8"?>
<svg xmlns="http://www.w3.org/2000/svg" id="Layer_1" data-name="Layer 1" viewBox="0 0 24 24">
  <path d="M16,2.5c0-1.381,1.119-2.5,2.5-2.5s2.5,1.119,2.5,2.5-1.119,2.5-2.5,2.5-2.5-1.119-2.5-2.5Zm6,18.5v3h-3v-3h-1v3h-3v-3h-2.059l1.492-11.935c.218-1.747,1.711-3.065,3.473-3.065h1.136c1.762,0,3.255,1.318,3.473,3.066l1.492,11.934h-2.007Zm-5.66-3h4.269l-1.07-8.562c-.031-.25-.244-.438-.496-.438h-1.136c-.252,0-.465,.188-.496,.438l-1.07,8.562ZM11.057-.039l-2.454,4.61L.134,.065,4.993,8.262-.039,10.742l5.207,2.301-1.928,5.251,5.297-1.819,2.395,4.475,.642-5.133-1.596-3.009-1.748,.601,.725-1.973-1.906-.842,2.178-1.074-1.056-1.781,1.671,.89,1.218-2.289,1.354,2.765,.036-.288c.157-1.262,.751-2.368,1.601-3.21L11.057-.039Z"/>
</svg>
