<?xml version="1.0" encoding="UTF-8"?>
<svg xmlns="http://www.w3.org/2000/svg" id="Layer_1" data-name="Layer 1" viewBox="0 0 24 24">
  <path d="m22,9.463C22,4.261,17.514.029,12,.029S2,4.261,2,9.463c0,5.097,3.172,10.714,7.709,12.174-.442.741-.709,1.616-.709,2.363h6c0-.747-.267-1.622-.709-2.363,4.537-1.461,7.709-7.077,7.709-12.174Zm-10,9.537c-3.878,0-7-5.218-7-9.537,0-3.548,3.141-6.434,7-6.434s7,2.886,7,6.434c0,4.319-3.122,9.537-7,9.537Zm1.965-9h3.003c-.161,2.324-1.259,4.346-2.295,5.501l-2.234-2.002c.682-.761,1.372-2.093,1.526-3.499Z"/>
</svg>
