<?xml version="1.0" encoding="UTF-8"?>
<svg xmlns="http://www.w3.org/2000/svg" id="Layer_1" data-name="Layer 1" viewBox="0 0 24 24">
  <path d="m19.679,2.59L12,.045l-7.679,2.545c-1.388.461-2.321,1.752-2.321,3.212v6.162c0,6.516,6.851,10.449,8.951,11.499l.985.494,1.021-.412c2.122-.854,9.043-4.211,9.043-11.581v-6.162c0-1.46-.933-2.751-2.321-3.212Zm-.679,9.374c0,5.258-5.029,7.895-6.932,8.702-1.926-.999-7.068-4.1-7.068-8.702v-6.162c0-.165.107-.312.266-.364l6.734-2.232,6.734,2.232c.161.054.266.196.266.364v6.162Zm-11-1.964h8v3h-8v-3Z"/>
</svg>
