<?xml version="1.0" encoding="UTF-8"?>
<svg xmlns="http://www.w3.org/2000/svg" id="Layer_1" data-name="Layer 1" viewBox="0 0 24 24">
  <path d="M9.046,12c3.309,0,6-2.691,6-6S12.355,0,9.046,0,3.046,2.691,3.046,6s2.691,6,6,6Zm0-9c1.654,0,3,1.346,3,3s-1.346,3-3,3-3-1.346-3-3,1.346-3,3-3Zm14.907,18.786l-2.49-2.491c.361-.691,.584-1.463,.584-2.295,0-2.757-2.243-5-5-5s-5,2.243-5,5,2.243,5,5,5c.831,0,1.604-.223,2.295-.584l2.49,2.491,2.121-2.121Zm-6.906-2.786c-1.103,0-2-.897-2-2s.897-2,2-2,2,.897,2,2-.897,2-2,2Zm-6.318-5c-.433,.91-.683,1.925-.683,3H5.046c-1.103,0-2,.897-2,2v5H.046v-5c0-2.757,2.243-5,5-5h5.683Z"/>
</svg>
