<?xml version="1.0" encoding="UTF-8"?>
<svg xmlns="http://www.w3.org/2000/svg" id="Layer_1" data-name="Layer 1" viewBox="0 0 24 24">
  <path d="m7.858,12c.742,0,1.463-.004,2.663-.703-.65-.733-1.165-1.583-1.513-2.518-.387.144-.801.221-1.15.221-1.654,0-3-1.346-3-3,1.145,0,3.621-1.282,4.849-2.418.382.254.707.591.975.975-.115.463-.183.944-.183,1.443,0,3.309,2.691,6,6,6s6-2.691,6-6S19.809,0,16.5,0C14.839,0,13.333.68,12.246,1.774c-1.174-1.101-2.719-1.774-4.388-1.774C4.654,0,1.879,2.46,1.382,5.732L.011,13.303c-.007.026-.005.052-.011.078.978-.72,2.128-1.2,3.358-1.381h4.5ZM16.5,3c1.654,0,3,1.346,3,3s-1.346,3-3,3-3-1.346-3-3,1.346-3,3-3Zm7.5,16v5h-3v-5c0-.887-.584-1.632-1.385-1.893l-3.115,3.893-3.115-3.893c-.801.261-1.385,1.006-1.385,1.893v5h-3v-5c0-2.757,2.243-5,5-5h5c2.757,0,5,2.243,5,5Zm-14.89-5c-.455.445-.843.946-1.163,1.5-.599,1.031-.947,2.224-.947,3.5v2l-2.984-3.73c-.604.345-1.016.987-1.016,1.73v5H0v-5c0-2.757,2.243-5,5-5h4.11Z"/>
</svg>
