<?xml version="1.0" encoding="UTF-8"?>
<svg xmlns="http://www.w3.org/2000/svg" id="Layer_1" data-name="Layer 1" viewBox="0 0 24 24">
  <path d="m23.171,8.658c-.22-.109-1.431-.658-3.671-.658-2.628,0-4.636,2.206-5.416,3.212-.486-.13-1.013-.212-1.584-.212-.983,0-1.907.249-2.738.61.084-.905.082-1.741.076-2.464-.002-.335-.005-.676.004-.97l3.658-1.045v-1.551l1.5-.5v-1.081c0-1.932-1.809-4-4.5-4-2.264,0-3.595,1.021-3.966,1.351C-.104,6.493-.036,13.526-.004,16.911l.004,1.062c.161.23,4.308,6.027,12,6.027,8.026,0,11.84-3.673,12-3.811v-11.116l-.829-.415Zm-2.171,10.066c-1.152.728-4.169,2.275-9,2.275-5.146,0-8.13-2.994-9.004-4.023-.03-3.132-.086-9.054,5.419-13.288.027-.023.788-.688,2.085-.688.318,0,.576.062.782.158l-.782.261v1.449l-3.173.907-.25.75c-.255.764-.247,1.636-.238,2.646.013,1.525-.037,3.513-.991,5.368l2.305,1.92c.021-.024,2.112-2.46,4.348-2.46,1.69,0,2.797,1.396,2.808,1.41l2.393-1.811c-.031-.042-.35-.454-.916-.938.657-.735,1.713-1.662,2.716-1.662.624,0,1.125.057,1.5.123v7.602Z"/>
</svg>
