<svg id="Layer_1" viewBox="0 0 24 24" xmlns="http://www.w3.org/2000/svg" data-name="Layer 1"><path d="m16 21c0 1.654-1.346 3-3 3s-3-1.346-3-3 1.346-3 3-3 3 1.346 3 3zm8-21v3h-2.553l-6.391 13.453c-.629-.285-1.321-.453-2.057-.453-.368 0-.723.05-1.068.126l-.005.011-.015-.007c-.008.002-.017.003-.025.005l.006-.013-1.602-.763c-1.718-.775-2.502-2.988-1.652-4.671l2.646-5.534c.831-1.736 2.923-2.478 4.662-1.649l1.582.754 2.023-4.258h4.447zm-7.758 6.967-1.584-.754c-.249-.12-.548-.014-.666.235l-2.647 5.535c-.103.334-.054.472.235.667l1.6.762 3.062-6.444zm-8.129 13.033h-5.113c-1.657 0-3 1.343-3 3v1h9.023c-.633-.838-1.023-1.869-1.023-3 0-.345.041-.678.113-1z"/></svg>