<?xml version="1.0" encoding="UTF-8"?>
<svg xmlns="http://www.w3.org/2000/svg" id="Layer_1" data-name="Layer 1" viewBox="0 0 24 24" width="512" height="512"><path d="m12,0C5.383,0,0,5.383,0,12s5.383,12,12,12,12-5.383,12-12S18.617,0,12,0Zm0,21c-4.962,0-9-4.037-9-9S7.038,3,12,3s9,4.037,9,9-4.037,9-9,9Zm6.5-14l-1.636,9.421c-.156.815-.786,1.425-1.606,1.554-.102.016-.204.024-.305.024-.702,0-1.358-.385-1.7-1.01l-1.253-3.49-1.215,3.413c-.377.696-1.018,1.087-1.729,1.087h-.011c-.1,0-.202-.009-.304-.025-.82-.129-1.45-.739-1.606-1.555l-1.636-9.421h3.045l.939,5.407,2.515-5.407,2.518,5.405.938-5.405h3.045Z"/></svg>
