<?xml version="1.0" encoding="UTF-8"?>
<svg xmlns="http://www.w3.org/2000/svg" id="Layer_1" data-name="Layer 1" viewBox="0 0 24 24">
  <path d="m24,11.535l-6.382-2.797,4.382-2.337V0h-3v4.6l-4.106,2.19c.068-.252.106-.516.106-.79,0-1.657-1.343-3-3-3s-3,1.343-3,3c0,.273.037.538.106.79l-4.106-2.19V0h-3v6.4l4.382,2.337L0,11.535v3.465l5.461-2.504L0,18.95v5.05h3v-3.95l2.37-2.802c.939,2.76,3.556,4.752,6.63,4.752s5.691-1.992,6.63-4.752l2.37,2.802v3.95h3v-5.05l-5.461-6.454,5.461,2.504v-3.465Zm-12,7.465c-2.209,0-4-1.791-4-4s1.791-4,4-4,4,1.791,4,4-1.791,4-4,4Zm2-6l-1.6,2,1.6,2h-4l1.6-2-1.6-2h4Z"/>
</svg>
