<?xml version="1.0" encoding="UTF-8"?>
<svg xmlns="http://www.w3.org/2000/svg" id="Layer_1" data-name="Layer 1" viewBox="0 0 24 24">
  <path d="m16.662,2c-.563-1.182-1.769-2-3.162-2h-3c-1.394,0-2.599.818-3.162,2H2v18.5c0,1.93,1.57,3.5,3.5,3.5h13c1.93,0,3.5-1.57,3.5-3.5V2h-5.338Zm2.338,18.5c0,.276-.224.5-.5.5H5.5c-.276,0-.5-.224-.5-.5V5h5v-1.5c0-.276.224-.5.5-.5h3c.276,0,.5.224.5.5v1.5h5v15.5Zm-13-7.5c0,3.314,2.686,6,6,6s6-2.686,6-6-2.686-6-6-6-6,2.686-6,6Zm7,4h-2v-2h2v2Zm0-3h-2v-5h2v5Z"/>
</svg>
