<?xml version="1.0" encoding="UTF-8"?>
<svg xmlns="http://www.w3.org/2000/svg" id="Layer_1" data-name="Layer 1" viewBox="0 0 24 24">
  <path d="m24,10v-3h-1v-1c0-1.675-1.036-3.107-2.5-3.703V0h-3v2.297c-1.464.595-2.5,2.028-2.5,3.703v1h-1v3h1v11h-3v-4.18c.64-.833,1-1.765,1-2.69,0-2.961-2.556-4.252-4.083-5.023-.375-.189-.942-.476-1.081-.616,0,0-.281-.427-.402-1.491h-1.868c-.121,1.063-.402,1.491-.402,1.491-.139.14-.706.426-1.081.616-1.527.771-4.083,2.062-4.083,5.023,0,.926.36,1.858,1,2.69v4.18H0v3h24v-3h-1v-11h1Zm-15,11h-5v-3h5v3Zm.606-6H3.394c-.253-.328-.394-.643-.394-.871,0-1.038.964-1.602,2.436-2.345.354-.179.722-.365,1.064-.576.343.211.711.397,1.064.576,1.472.743,2.436,1.307,2.436,2.345,0,.228-.141.543-.394.871Zm10.394,6h-2v-11h2v11Z"/>
</svg>
