<?xml version="1.0" encoding="UTF-8"?>
<svg xmlns="http://www.w3.org/2000/svg" id="Layer_1" data-name="Layer 1" viewBox="0 0 24 24">
  <path d="m3,9.5v5.5h3v3h-1v6h-3v-6H0v-8.5c0-1.93,1.57-3.5,3.5-3.5h4c.091,0,.177.02.267.027-.162.464-.267.954-.267,1.473,0,.529.109,1.029.278,1.5H3.5c-.275,0-.5.225-.5.5Zm2.5-4.5c1.381,0,2.5-1.119,2.5-2.5S6.881,0,5.5,0s-2.5,1.119-2.5,2.5,1.119,2.5,2.5,2.5Zm13,0c1.381,0,2.5-1.119,2.5-2.5s-1.119-2.5-2.5-2.5-2.5,1.119-2.5,2.5,1.119,2.5,2.5,2.5Zm5.5,4.5c0-1.93-1.57-3.5-3.5-3.5h-4c-.091,0-.177.02-.267.027.162.464.267.954.267,1.473,0,.529-.109,1.029-.278,1.5h4.278c.275,0,.5.225.5.5v5.5h-3v3h1v6h3v-6h2v-8.5Zm-12,.5c1.381,0,2.5-1.119,2.5-2.5s-1.119-2.5-2.5-2.5-2.5,1.119-2.5,2.5,1.119,2.5,2.5,2.5Zm4,4.5v5.5h-.5v4h-3v-4h-1v4h-3v-4h-.5v-5.5c0-1.93,1.57-3.5,3.5-3.5h1c1.93,0,3.5,1.57,3.5,3.5Zm-5,2.5h2v-2.5c0-.275-.225-.5-.5-.5h-1c-.275,0-.5.225-.5.5v2.5Z"/>
</svg>
