<svg id="Layer_1" viewBox="0 0 24 24" xmlns="http://www.w3.org/2000/svg" data-name="Layer 1"><path d="m24 5.735v5.383c0 2.657-1.618 5.046-4.085 6.032l-.915.366v.484c0 1.675-1.036 3.107-2.5 3.703v2.297h-3v-2.297c-1.464-.595-2.5-2.028-2.5-3.703v-1.618c0-2.657 1.618-5.046 4.085-6.032l.915-.366v-1.215c-.981.12-2.334.23-4 .23s-3.018-.11-4-.23v3.913c-.91-.433-1.925-.683-3-.683v-4.9c0-.969.865-1.71 1.822-1.56.305.057 2.048.459 5.178.461 3.141-.002 4.867-.406 5.171-.457.95-.145 1.82.559 1.829 1.52v3.595c0 .82-.499 1.557-1.261 1.862l-1.538.615c-1.329.532-2.201 1.819-2.201 3.251v1.615c0 .551.448 1 1 1s1-.449 1-1v-1.158c0-.82.499-1.557 1.261-1.862l1.54-.616c1.328-.531 2.199-1.817 2.199-3.248v-5.273c0-.759-.264-1.517-.81-2.044-.731-.705-1.751-.949-2.717-.669-1.985.577-3.826.869-5.473.869s-3.487-.292-5.472-.869c-.965-.28-1.979-.038-2.712.663-.549.524-.816 1.28-.816 2.038v6.461c-1.153.343-2.18.975-3 1.812v-8.153c0-1.756.701-3.482 2.053-4.602 1.497-1.241 3.45-1.639 5.312-1.1 1.712.498 3.271.75 4.635.75 1.394 0 2.994-.264 4.753-.784.78-.231 1.605-.345 2.401-.18 2.995.62 4.846 2.992 4.846 5.699zm-18 8.366v2.587c.5.688 1 1.562 1 2.312 0 1.105-.895 2-2 2s-2-.895-2-2c0-.75.5-1.625 1-2.312v-2.587c-2.282.463-4 2.48-4 4.899 0 2.761 2.239 5 5 5s5-2.239 5-5c0-2.419-1.718-4.436-4-4.899z"/></svg>