<?xml version="1.0" encoding="UTF-8"?>
<svg xmlns="http://www.w3.org/2000/svg" id="Layer_1" data-name="Layer 1" viewBox="0 0 24 24">
  <path d="m20.682,4.561l-3.242-3.242c-.85-.85-1.98-1.318-3.182-1.318H5.5c-1.93,0-3.5,1.57-3.5,3.5v20.5h20V7.743c0-1.202-.468-2.332-1.318-3.182Zm-1.682,16.439H5V3.5c0-.276.224-.5.5-.5h8.757c.401,0,.777.156,1.061.439l3.242,3.242c.283.284.439.66.439,1.061v13.257Zm-12-5h5v3h-3c-1.105,0-2-.895-2-2v-1Zm3-2h-3v-1c0-1.105.895-2,2-2h1v3Zm7-1v1h-5v-3h3c1.105,0,2,.895,2,2Zm-3,3h3v1c0,1.105-.895,2-2,2h-1v-3Z"/>
</svg>
