<?xml version="1.0" encoding="UTF-8"?>
<svg xmlns="http://www.w3.org/2000/svg" id="Layer_1" data-name="Layer 1" viewBox="0 0 24 24">
  <path d="M23.703,12.598l-3.703,3.389v-2.487h-3v-3h3v-2.619l3.703,3.389c.395,.355,.395,.974,0,1.328Zm-5.703-7.598h-3v3h3v-3Zm0-5h-3V3h3V0Zm-3,19h3v-3h-3v3Zm0,5h3v-3h-3v3ZM9.5,5c1.381,0,2.5-1.119,2.5-2.5s-1.119-2.5-2.5-2.5-2.5,1.119-2.5,2.5,1.119,2.5,2.5,2.5Zm-4.93,12.572l-1.57,6.428h3.296l.869-4.223-2.245-1.87c-.126-.105-.235-.221-.35-.335Zm6.762-4.585l2.73,2.185,1.875-2.343-2.27-1.815-1.908-3.434c-.47-.847-1.316-1.446-2.26-1.579-1.085-.017-2.287-.02-3.315,.357L1.744,7.837,.545,12.636l2.91,.728,.801-3.201,1.532-.511-.757,3.233c-.303,1.298,.146,2.634,1.169,3.485l2.8,2.333v5.297h3v-6.703l-2.579-2.148,.987-3.825,.924,1.662Z"/>
</svg>
