<?xml version="1.0" encoding="UTF-8"?>
<svg xmlns="http://www.w3.org/2000/svg" id="Layer_1" data-name="Layer 1" viewBox="0 0 24 24">
  <path d="m24.003,5.973c-.53.398-1.237.867-1.988,1.342.311.378.854,1.095,1.488,2.181-1.182.37-2.962.589-4.456.716,2.316,4.244-.079,7.612-2.651,10.184-1.839,1.839-4.086,3.588-6.769,3.588-1.903,0-4.025-.88-6.378-3.232C-2.419,15.083.461,10.748,3.604,7.604c2.571-2.571,5.939-4.965,10.18-2.653.127-1.494.345-3.271.715-4.452,1.086.634,1.803,1.177,2.181,1.488.475-.751.945-1.458,1.342-1.988,1.271,1.5,1.476,2,1.476,2,0,0,2-1,3.5-1,0,1.5-.997,3.496-.997,3.496,0,0,.5.206,2,1.476Zm-9.373,3.398c-1.657-1.657-3.002-2.381-4.273-2.381-1.515,0-2.925,1.031-4.631,2.737-3.137,3.137-3.99,5.27-.355,8.904,3.635,3.635,5.768,2.782,8.904-.355,3.137-3.137,3.99-5.27.355-8.904Zm-8.63,8.63h3.5l-3.5-3.5v3.5Zm5-5h3.5l-3.5-3.5v3.5Zm-5,0h3.5l-3.5-3.5v3.5Zm5,5h3.5l-3.5-3.5v3.5Z"/>
</svg>
