<svg id="Layer_1" viewBox="0 0 24 24" xmlns="http://www.w3.org/2000/svg" data-name="Layer 1"><path d="m22 19h2v2c0 1.657-1.343 3-3 3h-18c-1.657 0-3-1.343-3-3v-2h2v-13h9v3h-6v10h3.308l.923 1h5.538l.923-1h3.308v-3.5c1.09-.449 1.72-.631 3-1.458zm2-15.419v3.477c-.259 4.566-3.738 5.717-5.565 6.514-1.731-.925-5.189-2.408-5.435-6.514v-3.477c0-1.031.658-1.941 1.637-2.265l3.863-1.316 3.863 1.316c.979.324 1.637 1.234 1.637 2.265zm-3 .443-2.5-.829-2.5.829v3.034c0 1.521 1.687 2.698 2.564 3.207.898-.446 2.436-1.463 2.436-3.207z"/></svg>