<?xml version="1.0" encoding="UTF-8"?>
<svg xmlns="http://www.w3.org/2000/svg" id="Layer_1" data-name="Layer 1" viewBox="0 0 24 24">
  <path d="M20.5,5.003h-1.499v-1.501C19.04,1.62,17.381-.038,15.499,.001L3.5,.005C1.57,.005,0,1.576,0,3.507l.006,13.622c-.018,1.226,1.221,2.157,2.391,1.796l3.604-1.503v4.581h11l4.443,1.863c1.188,.5,2.576-.448,2.551-1.739l.006-13.625c0-1.93-1.57-3.5-3.5-3.5ZM3,3.507c0-.272,.229-.501,.501-.501l12-.004c.345,.051,.449,.155,.5,.5V14.005H6.396l-3.392,1.422-.005-11.92ZM20.995,20.425l-3.392-1.422H9v-1.998h10.001V8.003h1.499c.275,0,.5,.224,.5,.499l-.005,11.923ZM8.5,12h-3.5V5h3.5v1.6h-1.9v1.101h1.9v1.6h-1.9v1.101h1.9v1.6Zm4.367-2.077c0-.253-.308-.44-1.042-.792-.815-.39-1.933-.925-1.933-2.208,0-1.172,.939-2.056,2.185-2.056,.938,0,1.877,.757,2.056,.908l-1.034,1.221c-.298-.25-.791-.53-1.021-.53-.06,0-.585,.013-.585,.457,0,.256,.405,.469,1.024,.765,.823,.394,1.95,.934,1.95,2.235,0,1.386-1.205,2.133-2.339,2.133-1.168,0-2.234-.917-2.352-1.022l1.062-1.196c.271,.238,.864,.619,1.289,.619,.075,0,.739-.015,.739-.534Z"/>
</svg>
