<svg id="Layer_1" viewBox="0 0 24 24" xmlns="http://www.w3.org/2000/svg" data-name="Layer 1"><path d="m12 4c-3.473 0-6.737 1.352-9.192 3.808l-2.121-2.121c3.021-3.022 7.039-4.687 11.313-4.687s8.292 1.665 11.313 4.687l-2.121 2.121c-2.455-2.456-5.72-3.808-9.192-3.808zm12 11v6c0 1.654-1.346 3-3 3h-5c-1.654 0-3-1.346-3-3v-6h1v-1.5c0-2.481 2.019-4.5 4.5-4.5s4.5 2.019 4.5 4.5v1.5zm-7 0h3v-1.5c0-.827-.673-1.5-1.5-1.5s-1.5.673-1.5 1.5zm3 3h-3v3h3zm-11-1c0 1.304.837 2.403 2 2.816v-5.633c-1.163.413-2 1.512-2 2.816zm6.618-9.32c-1.139-.442-2.359-.68-3.618-.68-2.671 0-5.182 1.04-7.071 2.929l2.121 2.121c1.322-1.322 3.08-2.05 4.95-2.05.332 0 .659.031.982.076.637-1.024 1.549-1.857 2.635-2.396z"/></svg>