<?xml version="1.0" encoding="UTF-8"?>
<svg xmlns="http://www.w3.org/2000/svg" id="Layer_1" data-name="Layer 1" viewBox="0 0 24 24">
  <path d="M20.5,2H3.5C1.57,2,0,3.57,0,5.5V22H24V5.5c0-1.93-1.57-3.5-3.5-3.5Zm.5,17H3V5.5c0-.275,.224-.5,.5-.5H20.5c.275,0,.5,.225,.5,.5v13.5ZM4,8h3v1.6h-1.4v1.801h1.4v1.6h-1.4v3h-1.6V8Zm13,0h3v1.6h-1.4v1.601h1.4v1.6h-1.4v1.601h1.4v1.6h-3V8Zm-4,0h3v1.6h-1.4v1.601h1.4v1.6h-1.4v1.601h1.4v1.6h-3V8Zm-.5,2.5c0-1.381-1.119-2.5-2.5-2.5h-2v8h1.6v-3h.284l.872,3h1.744l-1.054-3.462c.023-.017,.024-.016,.042-.029-.019,.012-.031,.021-.055,.035,.644-.452,1.067-1.198,1.067-2.044Zm-2.5,.9h-.4v-1.8h.4c.496,0,.9,.404,.9,.9s-.404,.9-.9,.9Z"/>
</svg>
