<?xml version="1.0" encoding="UTF-8"?>
<svg xmlns="http://www.w3.org/2000/svg" id="Layer_1" data-name="Layer 1" viewBox="0 0 24 24">
  <path d="M15.648,7.268l-2.793-2.793,2.121-2.121,2.439,2.439L21.855,.354l2.121,2.121-4.793,4.793c-.974,.975-2.561,.975-3.535,0Zm-10.232,.731c.641,0,1.28-.244,1.768-.731L11.977,2.475,9.855,.354,5.416,4.793,2.977,2.354,.855,4.475l2.793,2.793c.487,.487,1.127,.731,1.768,.731Zm18.567,10.501l-4.125,5.5H3c-1.657,0-3-1.343-3-3v-5c0-1.657,1.343-3,3-3h1v-3h3v3h9v-3h3v3h.858l4.125,5.5ZM3.5,21h4.858l1.875-2.5-1.875-2.5H3.5c-.276,0-.5,.224-.5,.5v4c0,.276,.224,.5,.5,.5Zm16.733-2.5l-1.875-2.5h-6.25l1.875,2.5-1.875,2.5h6.25l1.875-2.5Z"/>
</svg>
