<?xml version="1.0" encoding="UTF-8"?>
<svg xmlns="http://www.w3.org/2000/svg" id="Layer_1" data-name="Layer 1" viewBox="0 0 24 24">
  <path d="m6.5,18h17.5v3h-2.55c.033.162.05.329.05.5,0,1.381-1.119,2.5-2.5,2.5s-2.5-1.119-2.5-2.5c0-.171.017-.338.05-.5h-5.6c.033.162.05.329.05.5,0,1.381-1.119,2.5-2.5,2.5s-2.5-1.119-2.5-2.5c0-.181.02-.358.056-.528-1.721-.219-3.056-1.693-3.056-3.472V3.5c0-.276-.225-.5-.5-.5H0V0h2.5c1.93,0,3.5,1.57,3.5,3.5v14c0,.275.225.5.5.5ZM24,6.5v9.5H8V6.5c0-1.93,1.57-3.5,3.5-3.5h9c1.93,0,3.5,1.57,3.5,3.5Zm-3,0c0-.276-.225-.5-.5-.5h-3v3h-3v-3h-3c-.275,0-.5.224-.5.5v6.5h10v-6.5Z"/>
</svg>
