<svg id="Layer_1" viewBox="0 0 24 24" xmlns="http://www.w3.org/2000/svg" data-name="Layer 1"><path d="m6.172 2.5c0-1.38 1.12-2.5 2.5-2.5s2.5 1.119 2.5 2.5-1.119 2.5-2.5 2.5-2.5-1.119-2.5-2.5zm9.828 8.5h3v-5l5-3-5-3s-3 0-3 0v6zm-2 7h-2v-4.072l-3.992-1.342.951-3.585h2.964l2.077-1.078v-3.38l-2.81 1.458h-2.19s-2.191 0-2.191 0c-1.404 0-2.638.997-2.91 2.277l-.803 2.847c-.258.997.028 2.013.667 2.737l-.802 2.139h-2.961v3h5.04l1.423-3.795 2.537.868v1.928h-2v3h-7v3h10v-3h4v3h3v-8h4v8h3v-11.002h-10z"/></svg>