<svg id="Layer_1" viewBox="0 0 24 24" xmlns="http://www.w3.org/2000/svg" data-name="Layer 1"><path d="m24 21.884-6.004-6.004c1.222-1.656 1.954-3.694 1.954-5.905 0-5.5-4.475-9.975-9.975-9.975s-9.975 4.475-9.975 9.975 4.475 9.975 9.975 9.975c2.211 0 4.249-.732 5.905-1.954l6.004 6.004zm-21.008-11.909c0-3.85 3.132-6.982 6.982-6.982s6.982 3.132 6.982 6.982-3.132 6.982-6.982 6.982-6.982-3.132-6.982-6.982zm12-1.284c0 .697-.499 2.311-.499 2.311 0 .003-3.008 0-3.008 0-.275-.828-.483-2.102-.483-2.992 0-1.496.623-2.494 1.496-2.494.997 0 2.494.182 2.494 3.175zm-3.491 3.309h2.799c0 1.247-.152 2.992-1.443 2.992-.733 0-1.356-.628-1.356-1.496.01-.308 0-1.496 0-1.496zm-2.493-3.99c0 .89-.208 2.164-.483 2.992 0 0-3.007.003-3.008 0 0 0-.499-1.614-.499-2.311 0-2.992 1.496-3.175 2.494-3.175.873 0 1.496.997 1.496 2.494zm-.499 3.99s-.01 1.188 0 1.496c0 .868-.623 1.496-1.356 1.496-1.291 0-1.443-1.746-1.443-2.992z"/></svg>