<?xml version="1.0" encoding="UTF-8"?>
<svg xmlns="http://www.w3.org/2000/svg" id="Layer_1" data-name="Layer 1" viewBox="0 0 24 24">
  <path d="m22.342,10.309c-2.435-2.436-5.281-1.527-7.209-.634-.807.374-1.033.329-1.077.3-.162-.161.082-.69.233-.947,1.663-2.831,1.462-5.311-.598-7.37C11.485-.549,7.894-.549,5.688,1.658l-1.272,1.272C2.207,5.138.609,8.488.142,11.891c-.528,3.84.395,7.167,2.598,9.37,1.797,1.798,4.344,2.743,7.307,2.743.668,0,1.357-.048,2.063-.145,3.403-.468,6.753-2.065,8.961-4.273l1.272-1.272c2.207-2.207,2.207-5.797,0-8.004Zm-2.121,5.883l-1.272,1.272c-1.762,1.761-4.471,3.041-7.249,3.422-2.842.394-5.339-.246-6.84-1.747s-2.138-3.994-1.747-6.84c.381-2.777,1.661-5.487,3.422-7.249l1.272-1.272c.519-.519,1.2-.778,1.881-.778s1.362.259,1.881.778c.903.903,1.24,1.842.132,3.729-1.01,1.719-.923,3.434.232,4.589,1.617,1.618,3.757.626,4.46.3,2.158-1,3.064-.728,3.827.033,1.037,1.037,1.037,2.725,0,3.762Z"/>
</svg>
