<svg id="Layer_1" viewBox="0 0 24 24" xmlns="http://www.w3.org/2000/svg" data-name="Layer 1"><path d="m24 5.5v6.528c-.813-.964-1.837-1.741-3-2.268v-4.26c0-.276-.225-.5-.5-.5h-2.59c.055.326.09.659.09 1v2h-5.296l1.697-3.658-2.684-1.342-2.427 5h-3.291v-2c0-.341.035-.674.09-1h-2.589c-.275 0-.5.224-.5.5v15.5h6.76c.527 1.163 1.304 2.187 2.268 3h-12.028v-18.5c0-1.93 1.57-3.5 3.5-3.5h4.04c1.099-1.224 2.688-2 4.46-2s3.36.776 4.46 2h4.04c1.93 0 3.5 1.57 3.5 3.5zm0 12c0 3.59-2.91 6.5-6.5 6.5s-6.5-2.91-6.5-6.5 2.91-6.5 6.5-6.5 6.5 2.91 6.5 6.5zm-2-.5-3.793-3.707c-.39-.39-1.024-.39-1.414 0l-3.793 3.707h3v4h3v-4z"/></svg>