<?xml version="1.0" encoding="UTF-8"?>
<svg xmlns="http://www.w3.org/2000/svg" id="Layer_1" data-name="Layer 1" viewBox="0 0 24 24">
  <path d="m19.145,5.59l-5.145-.965v-1.625h1V0H5v3h1v1.831l-1.729.648c-1.358.509-2.271,1.826-2.271,3.277v15.244h20v-14.97c0-1.683-1.201-3.13-2.855-3.44Zm-2.145,3.91c0-.551.449-1,1-1s1,.449,1,1v5.5c0,.551-.449,1-1,1s-1-.449-1-1v-5.5Zm-12,11.5v-12.244c0-.207.13-.396.325-.468l3.675-1.378v-3.91h2v4.116l3.402.638c-.257.528-.402,1.121-.402,1.747v5.5c0,2.206,1.794,4,4,4,.345,0,.68-.044,1-.127v2.127H5Z"/>
</svg>
