<?xml version="1.0" encoding="UTF-8"?>
<svg xmlns="http://www.w3.org/2000/svg" id="Layer_1" data-name="Layer 1" viewBox="0 0 24 24">
  <path d="m9.012,14.289l.566.45c1.225.974,2.634,2.43,3.185,4.261h-7.524c.553-1.828,1.968-3.282,3.197-4.255l.576-.456Zm14.988-2.289c0,3.314-2.686,6-6,6s-6-2.686-6-6,2.686-6,6-6,6,2.686,6,6Zm-2.793,1.793l-2.207-2.207v-3.586h-2v4.414l2.793,2.793,1.414-1.414Zm-6.307,5.581c.065.392.1.798.1,1.217v.409H3v-.409c0-3.385,2.281-5.9,4.195-7.414l1.487-1.176-1.487-1.176c-1.914-1.514-4.195-4.03-4.195-7.415,0-.226.184-.409.409-.409h11.182c.226,0,.409.183.409.409,0,.419-.036.824-.1,1.217.943-.398,1.978-.619,3.062-.624.011-.198.038-.389.038-.593,0-1.88-1.529-3.409-3.409-3.409H3.409C1.529,0,0,1.53,0,3.41c0,3.754,1.945,6.619,3.986,8.591-2.041,1.971-3.986,4.835-3.986,8.59v3.409h18v-3.409c0-.204-.027-.394-.038-.593-1.085-.005-2.12-.226-3.062-.624Z"/>
</svg>
