<?xml version="1.0" encoding="UTF-8"?>
<svg xmlns="http://www.w3.org/2000/svg" id="Layer_1" data-name="Layer 1" viewBox="0 0 24 24">
  <path d="m22.806,15.857l-2.278-2.278c.539-1.503.616-3.124.192-4.7-.794-2.949-3.36-5.266-6.387-5.764-3.009-.497-5.998.701-7.811,3.121-.954,1.182-1.979,3.541-2.969,5.823-.064.147-.128.295-.192.441h1.557l.698,5.067c.033.247.247.433.495.433h3.894v3h8v-.046l3,3v.046H7.005v-3h-.894c-1.739,0-3.229-1.3-3.468-3.022l-.341-2.478H.005v-2.817s.574-1.306.797-1.818c1.12-2.58,2.178-5.017,3.354-6.472C6.608,1.116,10.709-.518,14.821.153c4.231.698,7.684,3.816,8.795,7.945.709,2.638.406,5.358-.81,7.758Zm-3.806-4.857c0,1.111-.309,2.148-.837,3.042l3.898,3.898-2.121,2.121-3.898-3.898c-.893.528-1.931.837-3.042.837-3.309,0-6-2.691-6-6s2.691-6,6-6,6,2.691,6,6Zm-6,3c1.654,0,3-1.346,3-3s-1.346-3-3-3-3,1.346-3,3,1.346,3,3,3Z"/>
</svg>
