<?xml version="1.0" encoding="UTF-8"?>
<svg xmlns="http://www.w3.org/2000/svg" id="Layer_1" data-name="Layer 1" viewBox="0 0 24 24" width="512" height="512"><path d="m20.5,0H3.5C1.57,0,0,1.57,0,3.5v20.5h24V3.5c0-1.93-1.57-3.5-3.5-3.5Zm.5,21H3V3.5c0-.276.224-.5.5-.5h17c.276,0,.5.224.5.5v17.5Zm-2-13.756v11.756h-3v-9.013l-4,6.481-4-6.479v9.01h-3V7.244c0-1.009.6-1.85,1.527-2.142.932-.293,1.944.056,2.516.873l2.957,4.785,2.91-4.713c.618-.888,1.63-1.238,2.563-.944.928.292,1.527,1.133,1.527,2.142Z"/></svg>
