<?xml version="1.0" encoding="UTF-8"?>
<svg xmlns="http://www.w3.org/2000/svg" id="Layer_1" data-name="Layer 1" viewBox="0 0 24 24" width="512" height="512"><path d="M8,11c-1.105,0-2-.895-2-2s.895-2,2-2,2,.895,2,2-.895,2-2,2Zm8-4c-1.105,0-2,.895-2,2s.895,2,2,2,2-.895,2-2-.895-2-2-2Zm-.5,6h-.5v1h-2v-1h-2v1h-2v-1h-.5c-1.381,0-2.5,1.119-2.5,2.5s1.119,2.5,2.5,2.5h.5v-1h2v1h2v-1h2v5.5c0,.828,.672,1.5,1.5,1.5s1.5-.672,1.5-1.5v-7c0-1.381-1.119-2.5-2.5-2.5Zm-10.5,4.644v4.082c1.973,1.424,4.387,2.273,7,2.273,.337,0,.67-.015,1-.043v-3.015c-.329,.037-.662,.058-1,.058-2.826,0-5.349-1.312-7-3.356ZM12-.022C5.383-.022,0,5.36,0,11.978v7.522c0,.828,.672,1.5,1.5,1.5s1.5-.672,1.5-1.5v-7.522C3,7.015,7.038,2.978,12,2.978s9,4.037,9,9v8.522c0,.828,.672,1.5,1.5,1.5s1.5-.672,1.5-1.5V11.978C24,5.36,18.617-.022,12-.022Z"/></svg>
