<?xml version="1.0" encoding="UTF-8"?>
<svg xmlns="http://www.w3.org/2000/svg" id="Layer_1" data-name="Layer 1" viewBox="0 0 24 24">
  <path d="m19.5,0H4.5C2.57,0,1,1.57,1,3.5v20.5h22V3.5c0-1.93-1.57-3.5-3.5-3.5Zm.5,21H4V3.5c0-.276.225-.5.5-.5h15c.275,0,.5.224.5.5v17.5ZM6.5,7c-.828,0-1.5-.672-1.5-1.5s.672-1.5,1.5-1.5,1.5.672,1.5,1.5-.672,1.5-1.5,1.5Zm2.5-1.5c0-.828.672-1.5,1.5-1.5s1.5.672,1.5,1.5-.672,1.5-1.5,1.5-1.5-.672-1.5-1.5Zm9,8.5c0,3.314-2.686,6-6,6-2.972,0-5.433-2.163-5.91-5h3.91v-2h-3.91c.477-2.837,2.938-5,5.91-5,3.314,0,6,2.686,6,6Z"/>
</svg>
