<?xml version="1.0" encoding="UTF-8"?>
<svg xmlns="http://www.w3.org/2000/svg" id="Layer_1" data-name="Layer 1" viewBox="0 0 24 24" width="512" height="512"><path d="M15,19h-6c0-1.657,1.343-3,3-3s3,1.343,3,3Zm3-6.5c0-1.379-1.121-2.5-2.5-2.5s-2.5,1.121-2.5,2.5,1.121,2.5,2.5,2.5,2.5-1.121,2.5-2.5Zm-7,0c0-1.379-1.121-2.5-2.5-2.5s-2.5,1.121-2.5,2.5,1.121,2.5,2.5,2.5,2.5-1.121,2.5-2.5Zm13-.5C24,5.383,18.617,0,12,0S0,5.383,0,12s5.383,12,12,12,12-5.383,12-12Zm-3,0c0,4.963-4.037,9-9,9S3,16.963,3,12,7.037,3,12,3s9,4.037,9,9ZM8.892,7.42l-.783-1.84c-1.673,.713-3.04,1.851-3.953,3.29l1.689,1.07c.685-1.08,1.768-1.975,3.047-2.521Zm10.872,1.324c-.912-1.379-2.251-2.474-3.871-3.164l-.785,1.84c1.26,.537,2.293,1.376,2.988,2.428l1.668-1.104Z"/></svg>
