<?xml version="1.0" encoding="UTF-8"?>
<svg xmlns="http://www.w3.org/2000/svg" id="Layer_1" data-name="Layer 1" viewBox="0 0 24 24">
  <path d="M10,14.11l11,3.143v6.747h-3v-4.483l-8-2.286v6.769h-3l-4.266-3.391c-.866-.722-.983-2.008-.261-2.874,.722-.866,2.008-.983,2.874-.261l1.64,1.222V9.42c0-.911,.799-1.632,1.739-1.479,.737,.12,1.273,.812,1.273,1.56v4.61ZM14.4,5.25c0-.358-.292-.65-.65-.65h-.65v1.3h.65c.358,0,.65-.292,.65-.65Zm9.6-2.25V13H12v-3h1.1v-2.5h.65c1.243,0,2.25-1.007,2.25-2.25s-1.007-2.25-2.25-2.25h-2.25V7.675c-.334-.568-.821-1.032-1.4-1.342V3h-1.6v2.937c-.832-.005-1.641,.267-2.279,.811-.158,.134-.291,.288-.421,.445v-2.593h1.2v-1.6H3v1.6h1.2v5.4h.787v3H0V3C0,1.346,1.346,0,3,0H21c1.654,0,3,1.346,3,3Zm-3,4.923c0-1.303-1.128-1.842-1.951-2.235-.618-.296-1.023-.509-1.023-.765,0-.443,.525-.456,.585-.456,.23,0,.724,.279,1.022,.529l1.033-1.222c-.179-.151-1.117-.907-2.056-.907-1.245,0-2.185,.884-2.185,2.056,0,1.283,1.117,1.817,1.933,2.208,.734,.352,1.042,.539,1.042,.792,0,.519-.664,.534-.739,.534-.425,0-1.017-.381-1.288-.619l-1.064,1.195c.118,.104,1.185,1.023,2.353,1.023,1.134,0,2.339-.748,2.339-2.134Z"/>
</svg>
