<?xml version="1.0" encoding="UTF-8"?>
<svg xmlns="http://www.w3.org/2000/svg" id="Layer_1" data-name="Layer 1" viewBox="0 0 24 24">
  <path d="m23.17.829c-.535-.535-1.247-.829-2.003-.829h-.002l-7.333.002c-1.562,0-2.833,1.273-2.832,2.835l.003,8.415c0,.963.783,1.748,1.745,1.748.251,0,.428-.029.692-.129l2.96-1.871h7.6V2.833c0-.757-.295-1.469-.83-2.004Zm-2.17,7.171h-5.469l-1.528.966-.003-5.964,7-.002v5Zm-8.5,11c-.828,0-1.5-.672-1.5-1.5s.672-1.5,1.5-1.5,1.5.672,1.5,1.5-.672,1.5-1.5,1.5Zm-5-3c.828,0,1.5.672,1.5,1.5s-.672,1.5-1.5,1.5-1.5-.672-1.5-1.5.672-1.5,1.5-1.5Zm10.5-1h2v5h-2v4H2v-4H0v-5h2v-.5c0-1.93,1.57-3.5,3.5-3.5h3.503v.252c0,1.089.474,2.062,1.218,2.748h-4.721c-.276,0-.5.224-.5.5v6.5h10v-6.5c0-.078-.022-.15-.054-.216l2.703-1.284c.219.456.351.961.351,1.5v.5Z"/>
</svg>
