<?xml version="1.0" encoding="UTF-8"?>
<svg xmlns="http://www.w3.org/2000/svg" id="Layer_1" data-name="Layer 1" viewBox="0 0 24 24">
  <path d="m18,12c-3.314,0-6,2.686-6,6s2.686,6,6,6,6-2.686,6-6-2.686-6-6-6Zm.752,8.44l-.004.004c-.744.744-2.058.746-2.823-.019l-2.182-2.268,1.387-1.441,2.216,2.301,3.614-3.703,1.398,1.43-3.607,3.696Zm-10.752-7.44h3.76c-.698.869-1.212,1.888-1.498,3h-2.262v-3Zm-5,7v-10h17v-3h-3c0-3.86-3.14-7-7-7S3,3.14,3,7H0v13c0,1.654,1.346,3,3,3h8.76c-.698-.869-1.212-1.888-1.498-3H3ZM10,3c2.206,0,4,1.794,4,4H6c0-2.206,1.794-4,4-4Z"/>
</svg>
