<?xml version="1.0" encoding="UTF-8"?>
<svg xmlns="http://www.w3.org/2000/svg" id="Layer_1" data-name="Layer 1" viewBox="0 0 24 24">
  <path d="M18,18c0,3.314-2.686,6-6,6s-6-2.686-6-6,2.686-6,6-6,6,2.686,6,6Zm-4.586,0l2.121-2.121-1.414-1.414-2.121,2.121-2.121-2.121-1.414,1.414,2.121,2.121-2.121,2.121,1.414,1.414,2.121-2.121,2.121,2.121,1.414-1.414-2.121-2.121ZM24,2v14h-4.262c-.287-1.112-.801-2.131-1.498-3h2.76v-2h-5.153c-.865-.477-1.823-.803-2.847-.931V2c0-1.105,.895-2,2-2h7c1.105,0,2,.895,2,2Zm-3,5h-5v2h5v-2Zm0-4h-5v2h5V3ZM3,13h2.76c-.698,.869-1.212,1.888-1.498,3H0V2C0,.895,.895,0,2,0h7c1.105,0,2,.895,2,2V10.069c-1.023,.128-1.981,.454-2.847,.931H3v2Zm0-8h5V3H3v2Zm0,4h5v-2H3v2Z"/>
</svg>
