<?xml version="1.0" encoding="UTF-8"?>
<svg xmlns="http://www.w3.org/2000/svg" id="Layer_1" data-name="Layer 1" viewBox="0 0 24 24" width="512" height="512"><path d="m9.5,2.5c0-1.381,1.119-2.5,2.5-2.5s2.5,1.119,2.5,2.5-1.119,2.5-2.5,2.5-2.5-1.119-2.5-2.5Zm7.329,5.006l3.904,5.641-2.467,1.707-2.267-3.274v2.421h-8v-2.42l-2.267,3.274-2.467-1.707,3.903-5.639c.655-.944,1.73-1.508,2.878-1.508h3.904c1.147,0,2.223.563,2.877,1.506Zm-3.829,3.494v-2h-2v2h2Zm-7.833-6.333l2.333-1.167-2.333-1.167-1.167-2.333-1.167,2.333L.5,3.5l2.333,1.167,1.167,2.333,1.167-2.333Zm16.333-.167l-1-2-1,2-2,1,2,1,1,2,1-2,2-1-2-1ZM4,24h16v-3H4v3Zm4-8v3h8v-3h-8Z"/></svg>
