<?xml version="1.0" encoding="UTF-8"?>
<svg xmlns="http://www.w3.org/2000/svg" id="Layer_1" data-name="Layer 1" viewBox="0 0 24 24">
  <path d="M24,8V2c0-.552-.448-1-1-1h-6l2.439,2.439-2.261,2.261c-.793-.445-1.706-.701-2.678-.701-3.032,0-5.5,2.468-5.5,5.5,0,2.512,1.695,4.631,4,5.287v3.213h-2v3h2v2h3v-2h2v-3h-2v-3.213c2.305-.655,4-2.775,4-5.287,0-.972-.256-1.885-.701-2.678l2.261-2.261,2.439,2.439Zm-9.5,5c-1.379,0-2.5-1.121-2.5-2.5s1.121-2.5,2.5-2.5,2.5,1.121,2.5,2.5-1.121,2.5-2.5,2.5Zm-4.943,3.131l-2.557,2.869-.5-4-5,1.5,2.5-5.5L-.039,9.033l4.039-2.033L.107,.049,7,3.5,9.5,0l1.85,3.7c-2.566,1.191-4.35,3.784-4.35,6.8,0,2.246,.993,4.257,2.557,5.631Z"/>
</svg>
