<svg id="Layer_1" viewBox="0 0 24 24" xmlns="http://www.w3.org/2000/svg" data-name="Layer 1"><path d="m20.5 3h-8.146l-4-2h-4.854c-1.93 0-3.5 1.57-3.5 3.5v18.5h24v-16.5c0-1.93-1.57-3.5-3.5-3.5zm.5 17h-18v-15.5c0-.275.224-.5.5-.5h4.146l4 2h8.854c.276 0 .5.225.5.5zm-6-12h2v1c0 1.103-.897 2-2 2h-.415c.086.302.179.639.271 1h2.144v2h-1.726c.055.397.084.677.023 1.03.962.145 1.703.969 1.703 1.97v1h-2v-1h-.623c-.605.616-1.445 1-2.377 1s-1.772-.384-2.377-1h-.623v1h-2v-1c0-1.001.742-1.825 1.703-1.97-.061-.353-.033-.633.023-1.03h-1.726v-2h2.145c.093-.361.185-.698.272-1h-.416c-1.103 0-2-.897-2-2v-1h2v1h1.19c.398-.609.96-1 1.81-1 .896 0 1.431.318 1.837 1h1.163v-1z"/></svg>