<?xml version="1.0" encoding="UTF-8"?>
<svg xmlns="http://www.w3.org/2000/svg" id="Layer_1" data-name="Layer 1" viewBox="0 0 24 24">
  <path d="m20.994,3.005C18.956.967,16.269.011,13.5.01c-3.299-.001-6.755,1.368-9.438,4.051C1.385,6.738.015,10.182.01,13.474c-.005,2.783.919,5.443,2.996,7.52s4.721,2.997,7.498,2.997c3.298,0,6.752-1.371,9.435-4.053,2.375-2.375,3.807-5.421,4.031-8.579.02-.276.03-.55.031-.821.011-2.884-.968-5.495-3.007-7.533Zm-15.849,15.85c-.045-.255.012-1.035.717-2.444,1.906-3.812,6.737-8.643,10.549-10.549,1.408-.704,2.186-.761,2.443-.717.045.255-.013,1.036-.717,2.444-1.906,3.812-6.736,8.643-10.548,10.549-1.41.705-2.188.762-2.444.717Zm1.038-12.672c2.56-2.559,5.988-3.605,8.932-3.027-.015.008-.03.015-.045.022-4.445,2.223-9.668,7.445-11.891,11.891-.008.016-.015.031-.023.047-.579-2.944.467-6.373,3.027-8.933Zm14.795,4.964c-.174,2.438-1.296,4.807-3.16,6.671-2.56,2.56-5.988,3.607-8.933,3.027.016-.008.031-.015.046-.023,4.445-2.223,9.667-7.445,11.89-11.891.008-.017.016-.033.024-.05.142.721.188,1.481.132,2.265Z"/>
</svg>
