<svg id="Layer_1" viewBox="0 0 24 24" xmlns="http://www.w3.org/2000/svg" data-name="Layer 1"><path d="m12.806 19.634c-1.036.853-2.362 1.366-3.806 1.366-3.309 0-6-2.691-6-6v-4h7.367c2.149-1.427 4.659-2.076 7.143-1.971-.361-.492-.891-.852-1.51-.979v-8.05h-14v8.051c-1.14.232-2 1.242-2 2.449v4.5c0 4.963 4.038 9 9 9 1.651 0 3.195-.455 4.527-1.234-.007-.089-.027-.175-.027-.266 0-.623.177-1.201.464-1.708l-1.158-1.157zm.194-16.634v5h-2v-2h-4v2h-2v-5zm11.071 10.929-2.121 2.121c-1.322-1.322-3.08-2.05-4.95-2.05s-3.627.728-4.95 2.05l-2.121-2.121c3.898-3.898 10.243-3.898 14.142 0zm-3.535 3.536-2.121 2.121c-.78-.779-2.049-.779-2.829 0l-2.121-2.121c1.949-1.949 5.122-1.949 7.071 0zm-2.036 5.035c0 .828-.672 1.5-1.5 1.5s-1.5-.672-1.5-1.5.672-1.5 1.5-1.5 1.5.672 1.5 1.5z"/></svg>