<?xml version="1.0" encoding="UTF-8"?>
<svg xmlns="http://www.w3.org/2000/svg" id="Layer_1" data-name="Layer 1" viewBox="0 0 24 24">
  <path d="m24,15.492v2.508h-1.925l-.326,2.049c-.271,1.71-1.725,2.951-3.457,2.951h-.293v1h-3v-4h3.293c.247,0,.455-.177.494-.421l.728-4.579h.995c-.772-1.779-1.567-3.587-2.267-4.452-1.443-1.926-3.77-2.849-6.104-2.457-2.446.412-4.45,2.316-4.987,4.739-.42,1.899.104,3.738,1.439,5.045.909.892,1.41,2.05,1.41,3.262v2.861h-3v-2.861c0-.4-.181-.797-.509-1.119-2.091-2.048-2.918-4.905-2.268-7.837.798-3.603,3.779-6.436,7.417-7.048,3.447-.582,6.885.789,8.97,3.572.943,1.165,1.807,3.155,2.722,5.262.18.414.668,1.524.668,1.524Zm-8.5-1.492c.828,0,1.5-.672,1.5-1.5s-.672-1.5-1.5-1.5c-.031,0-.059.004-.09.005-.205-.584-.756-1.005-1.41-1.005-.122,0-.238.018-.352.046-.275-.331-.685-.546-1.148-.546-.655,0-1.207.423-1.411,1.009-.03-.002-.059-.009-.089-.009-.828,0-1.5.672-1.5,1.5,0,.057.011.111.017.166-.599.278-1.017.88-1.017,1.584,0,.966.784,1.75,1.75,1.75.27,0,.522-.066.75-.175v3.675h2v-5h2.5Zm-2.543-11.102l-.417-2.971-2.971.417.417,2.97,2.971-.416Zm-4.981,1.201l-1.707-2.467-2.467,1.707,1.707,2.468,2.467-1.708Zm-6.483,1.787L.035,8.508l2.622,1.458,1.459-2.621-2.623-1.458ZM18.946,1.237l-2.839-.971-.97,2.839,2.839.97.97-2.838Zm5.026,3.939l-2.118-2.124-2.124,2.118,2.118,2.124,2.124-2.118Z"/>
</svg>
