<?xml version="1.0" encoding="UTF-8"?>
<svg xmlns="http://www.w3.org/2000/svg" id="Layer_1" data-name="Layer 1" viewBox="0 0 24 24">
  <path d="m20.916,14.503c-.159-.738-.64-1.352-1.319-1.683-1.252-.611-2.472-1.059-3.702-1.359,1.33-1.575,2.105-3.764,2.105-5.462,0-3.309-2.691-6-6-6s-6,2.691-6,6c0,1.697.775,3.887,2.105,5.462-1.23.3-2.45.748-3.702,1.359-.68.331-1.16.945-1.319,1.683-.156.724.023,1.465.493,2.03,1.2,1.45,2.192,2.928,3.023,4.466h-2.6v3h16v-3h-2.6c.831-1.538,1.823-3.016,3.022-4.465.471-.567.65-1.308.494-2.032ZM12,3c1.654,0,3,1.346,3,3,0,1.859-1.552,4.5-3,4.5s-3-2.641-3-4.5c0-1.654,1.346-3,3-3Zm2.046,18h-4.092c-.947-2.02-2.118-3.93-3.585-5.785,1.897-.837,3.661-1.215,5.631-1.215s3.733.377,5.631,1.215c-1.467,1.854-2.638,3.765-3.585,5.785Z"/>
</svg>
