<svg id="Layer_1" viewBox="0 0 24 24" xmlns="http://www.w3.org/2000/svg" data-name="Layer 1"><path d="m2.5 14h4.5v3h-2v4.5c0 1.381-1.119 2.5-2.5 2.5s-2.5-1.119-2.5-2.5v-5c0-1.379 1.122-2.5 2.5-2.5zm21.5-5.5v3.5h-1.5c-1.567 0-3.108-.339-4.587-.986.053.153.087.315.087.486 0 .828-.672 1.5-1.5 1.5s-1.5-.672-1.5-1.5c0-.695.475-1.274 1.116-1.444-.725-.461-1.431-.996-2.109-1.615-.633.579-1.343 1.126-2.113 1.618.636.174 1.106.75 1.106 1.441 0 .828-.672 1.5-1.5 1.5s-1.5-.672-1.5-1.5c0-.166.033-.322.083-.471-1.363.593-2.887.971-4.583.971h-1.5v-3.5c0-4.687 3.813-8.5 8.5-8.5h3c4.687 0 8.5 3.813 8.5 8.5zm-9.317-5.5h-2.183c-3.033 0-5.5 2.468-5.5 5.5v.361c3.737-.699 6.367-3.872 7.683-5.861zm6.317 5.5c0-2.181-1.276-4.069-3.121-4.958-.384.672-.994 1.648-1.832 2.7 1.562 1.424 3.222 2.302 4.953 2.621zm-7 9.5c-1.765 0-3.843-1.121-5-2.995v8.995h3v-3.261c.652.17 1.323.261 2 .261s1.347-.096 2-.264v3.264h3v-4.674c1.783-1.272 3.153-3.165 3.669-5.326-.113 0-1.39-.016-3.01-.421-.8 2.734-3.48 4.421-5.659 4.421z"/></svg>