<?xml version="1.0" encoding="UTF-8"?>
<svg xmlns="http://www.w3.org/2000/svg" id="Layer_1" data-name="Layer 1" viewBox="0 0 24 24">
  <path d="m18.896,13.329c.63-.644,1.235-1.482,1.235-2.329h-5.263c0,.848.605,1.685,1.235,2.329-2.773.758-5.104,3.646-5.104,6.682,0,2.199,1.794,3.988,4,3.988h5c2.206,0,4-1.789,4-3.988,0-3.037-2.33-5.924-5.104-6.682Zm1.104,7.671h-5c-.552,0-1-.443-1-.988,0-1.886,1.799-3.88,3.5-3.88s3.5,1.995,3.5,3.88c0,.545-.448.988-1,.988Zm4-15.5v3.5H3v12h6.089c.191,1.142.706,2.173,1.448,3H0V5.5c0-1.93,1.57-3.5,3.5-3.5h2.5V0h3v2h6V0h3v2h2.5c1.93,0,3.5,1.57,3.5,3.5Z"/>
</svg>
