<?xml version="1.0" encoding="UTF-8"?>
<svg xmlns="http://www.w3.org/2000/svg" id="Layer_1" data-name="Layer 1" viewBox="0 0 24 24">
  <path d="m15.41,13.289l8.551,8.551-2.121,2.121L.04,2.161,2.161.04l1.182,1.182c.642-.748,1.594-1.222,2.657-1.222,1.933,0,3.5,1.567,3.5,3.5,0,1.063-.474,2.015-1.222,2.657l2.933,2.933c1.136-.262,2.378.049,3.263.935s1.196,2.127.935,3.263Zm2.59-6.289c1.933,0,3.5-1.567,3.5-3.5s-1.567-3.5-3.5-3.5-3.5,1.567-3.5,3.5,1.567,3.5,3.5,3.5Zm2.5,1h-5c-.104,0-.201.022-.303.031.999.716,1.747,1.756,2.09,2.969h3.212c.275,0,.5.225.5.5v3.5h3v-3.5c0-1.93-1.57-3.5-3.5-3.5Zm-11,9c-1.93,0-3.5,1.57-3.5,3.5v3.5h3v-3.5c0-.276.224-.5.5-.5h5c.276,0,.5.224.5.5v3.5h3v-1.05l-5.95-5.95h-2.55ZM3.092,8.041c-1.736.205-3.092,1.669-3.092,3.459v3.5h3v-3.5c0-.275.225-.5.5-.5h2.55l-2.959-2.959Z"/>
</svg>
