<svg id="Layer_1" viewBox="0 0 24 24" xmlns="http://www.w3.org/2000/svg" data-name="Layer 1"><path d="m22 21.01c0 1.657-1.343 3-3 3s-3-1.343-3-3 1.343-3 3-3 3 1.343 3 3zm-12 0h4c.003-1.085.363-2.139 1.023-3h-6.045c.66.861 1.019 1.915 1.022 3zm-5-3c-1.657 0-3 1.343-3 3s1.343 3 3 3 3-1.343 3-3-1.343-3-3-3zm19-9.01c-.203 4.919-.914 5.485-1.573 7h-20.854c-.657-1.509-1.372-2.088-1.573-7 .203-4.919.914-5.484 1.573-7h6.427v-2h8v2h6.427c.658 1.509 1.372 2.087 1.573 7zm-3 0c0-1.825-.3-3.192-.543-4h-16.915c-.242.806-.542 2.174-.542 4s.3 3.192.543 4h16.914c.243-.808.543-2.175.543-4zm-9-3-1.768 1.732c-.976.976-.976 2.559 0 3.536.488.488 1.128.732 1.768.732s1.28-.244 1.768-.732c.976-.976.976-2.559 0-3.536z"/></svg>