<?xml version="1.0" encoding="UTF-8"?>
<svg xmlns="http://www.w3.org/2000/svg" id="Layer_1" data-name="Layer 1" viewBox="0 0 24 24">
  <path d="M8.942,10.057c.344,.23,.558,.678,.558,1.169v2.774h5v-2.774c0-.491,.214-.938,.557-1.168,1.53-1.021,2.443-2.725,2.443-4.558,0-1.686-.757-3.255-2.078-4.306C14.101,.144,12.384-.237,10.709,.148c-2.005,.463-3.6,2.059-4.062,4.065-.522,2.27,.378,4.562,2.294,5.843Zm.629-5.169c.244-1.1,1.313-1.915,2.432-1.888,1.339-.03,2.526,1.159,2.497,2.5,0,.828-.414,1.599-1.108,2.062-.187,.124-.339,.286-.501,.438h-1.782c-.162-.151-.314-.313-.5-.438-.693-.463-1.329-1.408-1.037-2.675Zm13.429,.612v15.501l-14.121-.008-5.464,2.92c-1.172,.376-2.429-.558-2.41-1.79l-.005-16.621c0-1.932,1.57-3.502,3.5-3.502h.866c-.291,.554-.524,1.142-.668,1.766-.095,.412-.147,.824-.174,1.234h-.024c-.276,0-.5,.225-.5,.501l.004,14.717,4.116-2.225,11.879,.006V5.5c0-.275-.224-.5-.5-.5h-.028c-.07-1.063-.36-2.08-.846-3h.874c1.93,0,3.5,1.57,3.5,3.5Z"/>
</svg>
