<svg id="Layer_1" viewBox="0 0 24 24" xmlns="http://www.w3.org/2000/svg" data-name="Layer 1"><path d="m8 5v3h-3v-3zm-3 8h4v-3h-4zm9-1.385c0-.747-.536-1.44-1.273-1.56-.94-.153-1.739.568-1.739 1.479v7.271l-1.64-1.334c-.866-.722-2.153-.604-2.874.261-.722.866-.605 2.153.261 2.874l4.266 3.391h3v-5.057l6 2.118v2.938h3v-5.062l-9-3.176v-4.147zm-1-6.615h-3v3h3zm6 0h-4v3h4zm2-5h-18c-1.654 0-3 1.346-3 3v15h4.149c.145-.551.4-1.08.787-1.546.788-.945 1.92-1.446 3.063-1.454h-4.999v-12h18v12h-3.151l6.151 2.171v-14.171c0-1.654-1.346-3-3-3zm-2 13v-3h-3v3z"/></svg>