<?xml version="1.0" encoding="UTF-8"?>
<svg xmlns="http://www.w3.org/2000/svg" id="Layer_1" data-name="Layer 1" viewBox="0 0 24 24">
  <path d="m12,3c0-1.657,1.343-3,3-3s3,1.343,3,3-1.343,3-3,3-3-1.343-3-3Zm12,15c0,3.314-2.686,6-6,6s-6-2.686-6-6,2.686-6,6-6,6,2.686,6,6Zm-1.641-1.256l-1.398-1.43-3.614,3.703-2.216-2.301-1.387,1.441,2.182,2.268c.766.765,2.079.763,2.823.019l3.61-3.7ZM5,11c1.657,0,3-1.343,3-3s-1.343-3-3-3-3,1.343-3,3,1.343,3,3,3Zm1.5,1h-3.031C1.539,12-.031,13.57-.031,15.5v3.5h3v-3.5c0-.276.224-.5.5-.5h3.031c.276,0,.5.224.5.5v3.5h3v-3.5c0-1.93-1.57-3.5-3.5-3.5Zm5.658.547c.263-.281.542-.546.842-.786v-1.26c0-.276.224-.5.5-.5h4.5c.683,0,1.342.095,1.975.256-.128-1.814-1.629-3.256-3.475-3.256h-3c-1.93,0-3.5,1.57-3.5,3.5.884.447,1.627,1.218,2.158,2.047,0,0,0,0,0,0Z"/>
</svg>
