<?xml version="1.0" encoding="UTF-8"?>
<svg xmlns="http://www.w3.org/2000/svg" id="Layer_1" data-name="Layer 1" viewBox="0 0 24 24">
  <path d="M16,6.5c0-1.381,1.119-2.5,2.5-2.5s2.5,1.119,2.5,2.5-1.119,2.5-2.5,2.5-2.5-1.119-2.5-2.5Zm8,14.5v3h-6v-4.051c-.165,.024-.329,.051-.5,.051h-2.5v4h-3v-7h4v-4h-4.417l-3.613-2.174,.678,7.174h-2.648v6H3v-6H-.002L.979,9.116c.196-1.776,1.691-3.116,3.479-3.116,1.416,0,2.623,.726,3.643,1.406l4.315,2.594h5.584c1.654,0,3,1.346,3,3v8h3ZM3.348,15h2.004l-.563-5.957c-.396-.098-.787,.043-.827,.402l-.613,5.555Zm1.152-10c1.381,0,2.5-1.119,2.5-2.5S5.881,0,4.5,0,2,1.119,2,2.5s1.119,2.5,2.5,2.5Z"/>
</svg>
