<?xml version="1.0" encoding="UTF-8"?>
<svg xmlns="http://www.w3.org/2000/svg" id="Layer_1" data-name="Layer 1" viewBox="0 0 24 24">
  <path d="m15.987,19h-3v-5h3v5Zm-3.649-11.757s0,0,0,0c-.006-.013-.011-.025,0,0Zm11.612,1.757l-1.917,12.05c-.273,1.71-1.728,2.95-3.457,2.95H5.424c-1.729,0-3.184-1.24-3.457-2.948L.05,9h2.094c.119-.656.306-1.298.579-1.916l.895-2.032c.254-.576.383-1.424.383-2.052h-1V0h9v3h-1c0,.628.129,1.476.383,2.052l.956,2.191c.012.026.006.013,0,0C14.584,2.9,18.217-1.029,21.117.235c.512.222,1.203.707,1.591,1.76.592,1.608.252,4.152-.882,7.005h2.124Zm-9.143,0h3.75c1.512-3.275,1.58-5.466,1.33-5.998-.425.049-1.46.717-2.666,2.18l.779,1.818h-2.075c-.289.462-1.054,1.877-1.118,2Zm-9.589,0h4.564c-.069-.239-.147-.475-.249-.705l-.896-2.034c-.423-.96-.637-2.214-.637-3.261h-1c0,1.047-.214,2.301-.637,3.261l-.896,2.033c-.102.23-.181.467-.25.706Zm15.216,3H3.565l1.364,8.579c.039.243.247.421.494.421h13.152c.247,0,.455-.178.494-.423l1.364-8.577Zm-9.447,2h-3v5h3v-5Z"/>
</svg>
