<svg id="Layer_1" viewBox="0 0 24 24" xmlns="http://www.w3.org/2000/svg" data-name="Layer 1"><path d="m7.075 16.925c1.234 1.234 1.234 3.234 0 4.468s-4.841 2.606-4.841 2.606.863-1.611 1.169-3.403c-1.792.305-3.403 1.169-3.403 1.169s1.373-3.607 2.606-4.841 3.234-1.234 4.468 0zm16.925-7.9v.07c0 1.125-.44 2.159-1.218 2.929.756.764 1.218 1.81 1.218 2.942 0 1.068-.415 2.071-1.17 2.825-.175.175-.369.328-.571.466.482 1.006.741 2.113.741 3.243v2.5h-3v-2.5c0-.938-.309-1.843-.849-2.602-.521-.053-1.033-.122-1.531-.214.249.806.38 1.649.38 2.501v2.815h-3v-2.815c0-1.37-.54-2.694-1.462-3.702-.415-.169-.819-.347-1.208-.533.432 1.122.67 2.319.67 3.533v3.518h-3v-3.518c0-1.816-.739-3.591-2.027-4.871l-.871-.864c-1.815.552-4.425.419-5.557-.343-1.568-1.057-1.999-3.168-1.002-4.759-.329-.275-.543-.684-.543-1.146 0-.828.672-1.5 1.5-1.5.673 0 1.236.446 1.426 1.057.818-.137 1.681.016 2.431.487.36-1.002 1.078-1.806 2.045-2.274.515-.25 1.062-.381 1.61-.404-.01-.209-.011-.42.013-.632.16-1.45.998-2.622 2.251-3.208.858-.4 1.799-.471 2.682-.241.827-.811 2.375-1.785 5.041-1.785h4.978l.022 1.478c.022 1.543-.497 3.095-1.449 4.427.898.768 1.449 1.885 1.449 3.12zm-5-6.025c-.91 0-1.58.163-2.063.369.895.482 1.819.899 2.797 1.255.439-.492.783-1.046.997-1.624zm-6.68 3.373c1.261 1.078 3.889 2.721 7.147 3.805.763.214 1.522-.189 1.532-1.152 0-.502-.341-.942-.849-1.095-2.447-.736-4.555-1.723-6.631-3.106-.308-.22-.719-.207-.975-.08-.522.113-.76 1.292-.226 1.628zm-4.208 3.462c-.038.412.088.735.339.958 1.596 1.419 5.903 4.762 11.431 5.167.591.058 1.127-.403 1.118-.992 0-.528-.345-.993-.839-1.128-4.876-1.342-7.282-2.773-10.396-4.803-.726-.376-1.458-.164-1.653.799z"/></svg>