<svg id="Layer_1" viewBox="0 0 24 24" xmlns="http://www.w3.org/2000/svg" data-name="Layer 1"><path d="m24 8v-3h-2.051c-.221-1.527-1.423-2.728-2.949-2.949v-2.051h-3v2h-2.5v-2h-3v2h-2.5v-2h-3v2.051c-1.527.221-2.728 1.423-2.949 2.949h-2.051v3h2v2.5h-2v3h2v2.5h-2v3h2v3h3v2h3v-2h2.5v2h3v-2h2.5v2h3v-2h3v-3h2v-3h-2v-2.5h2v-3h-2v-2.5zm-19 2.985c0-1.094.891-1.985 2-1.985 1.104.008 2 .91 2 2h-1.25c0-.394-.342-.743-.75-.75-.391 0-.749.302-.749.751v2.067c0 .449.358.751.749.751.443-.006.789-.393.75-.819h1.25c.045 1.12-.864 2.063-2 2.068-1.109.001-2-.889-2-1.984zm14 8.015h-14v-2h14zm-9-3.931v-6.069h1.967c1.109 0 2.012.891 2.012 1.985s-.902 1.985-2.012 1.985l-.717.003v2.096zm9-1.985c0 1.094-.891 1.985-2 1.985-1.104-.008-2-.895-2-1.985v-.016h-.001v-4.068h1.251v4.084c0 .394.342.728.75.735.391 0 .749-.302.749-.751v-4.068h1.251zm0-6.084h-14v-1.5c0-.275.224-.5.5-.5h13c.275 0 .5.225.5.5zm-7.743 4.723-.005-1.473h.715c.413 0 .762.336.762.735s-.349.735-.762.735z"/></svg>