<?xml version="1.0" encoding="UTF-8"?>
<svg xmlns="http://www.w3.org/2000/svg" id="Layer_1" data-name="Layer 1" viewBox="0 0 24 24" width="512" height="512"><path d="M12,0C5.383,0,0,5.383,0,12s5.383,12,12,12,12-5.383,12-12S18.617,0,12,0Zm0,21c-4.962,0-9-4.037-9-9S7.038,3,12,3s9,4.037,9,9-4.038,9-9,9Zm6.121-11l1.439,1.439-2.121,2.121-1.439-1.439-1.439,1.439-2.121-2.121,1.439-1.439-1.439-1.439,2.121-2.121,1.439,1.439,1.439-1.439,2.121,2.121-1.439,1.439Zm-10.121,2.121l-1.439,1.439-2.121-2.121,1.439-1.439-1.439-1.439,2.121-2.121,1.439,1.439,1.439-1.439,2.121,2.121-1.439,1.439,1.439,1.439-2.121,2.121-1.439-1.439Zm7,5.879h-6c0-1.657,1.343-3,3-3s3,1.343,3,3Z"/></svg>
