<?xml version="1.0" encoding="UTF-8"?>
<svg xmlns="http://www.w3.org/2000/svg" id="Layer_1" data-name="Layer 1" viewBox="0 0 24 24">
  <path d="M24,21.246v1.692l-1.585,1.062h-5.392l3.695-2.475-2.094-3.736c-.618-1.104-1.789-1.789-3.054-1.789h-7.141c-1.265,0-2.436,.686-3.054,1.789l-2.094,3.736,3.695,2.475H1.585l-1.585-1.062v-1.692l2.759-4.924c1.149-2.049,3.322-3.322,5.671-3.322h7.141c2.349,0,4.521,1.273,5.671,3.322l2.759,4.924ZM6,6C6,2.691,8.691,0,12,0s6,2.691,6,6-2.691,6-6,6-6-2.691-6-6Zm3,0c0,1.654,1.346,3,3,3s3-1.346,3-3-1.346-3-3-3-3,1.346-3,3Zm9,14c0-1.381-1.119-2.5-2.5-2.5s-2.5,1.119-2.5,2.5,1.119,2.5,2.5,2.5,2.5-1.119,2.5-2.5Zm-7-2h-3v4.823l1.849,1.177h5.588l-4.437-2.823v-3.177Z"/>
</svg>
