<?xml version="1.0" encoding="UTF-8"?>
<svg xmlns="http://www.w3.org/2000/svg" id="Layer_1" data-name="Layer 1" viewBox="0 0 24 24">
  <path d="m19.5,4c-1.216,0-2.346.477-3.182,1.343-.176.183-.335.378-.476.585l-.24-.28c-.389-.454-.603-1.031-.603-1.627v-1.021h1V0H6v3h1v1.021c0,.596-.214,1.174-.602,1.627l-4.075,4.753c-.854.996-1.324,2.267-1.324,3.579v10.021h20v-10.021c0-.078-.002-.157-.005-.235,1.749-.618,3.005-2.287,3.005-4.244v-1c0-2.481-2.019-4.5-4.5-4.5Zm-1.5,17H4v-3h12v-4.021c0-.119-.043-.235-.121-.326l-.56-.653H4.2c.099-.233.234-.452.401-.647l4.075-4.753c.854-.996,1.324-2.267,1.324-3.579v-1.021h2v1.021c0,1.312.47,2.583,1.324,3.579l4.073,4.752c.389.454.603,1.031.603,1.627v7.021Zm3-11.5c0,.632-.393,1.174-.947,1.394-.116-.171-.241-.336-.377-.494l-1.613-1.882c0-.428.146-.813.415-1.092.265-.275.628-.426,1.022-.426.827,0,1.5.673,1.5,1.5v1Z"/>
</svg>
