<svg id="Layer_1" viewBox="0 0 24 24" xmlns="http://www.w3.org/2000/svg" data-name="Layer 1"><path d="m11 6c0 .828-.672 1.5-1.5 1.5s-1.5-.672-1.5-1.5.672-1.5 1.5-1.5 1.5.672 1.5 1.5zm-1.971 2h-2.029v3h1v3h3v-4.029c0-1.086-.884-1.971-1.971-1.971zm.471-8c-5.238 0-9.5 4.262-9.5 9.5v9.5h9.5c.512 0 1.01-.052 1.5-.13v-3.051c-.482.115-.983.182-1.5.182h-6.5v-6.5c0-3.584 2.916-6.5 6.5-6.5s6.5 2.916 6.5 6.5c0 .517-.067 1.018-.182 1.5h3.051c.078-.49.13-.988.13-1.5.001-5.239-4.261-9.501-9.499-9.501zm9.5 24h2v-2h-2zm3-3h2v-2h-2zm-3 0h2v-2h-2zm-6-8h5v5h-5zm2 3h1v-1h-1zm-2 3h5v5h-5zm2 3h1v-1h-1zm9-9v5h-5v-5zm-2 2h-1v1h1z"/></svg>