<?xml version="1.0" encoding="UTF-8"?>
<svg xmlns="http://www.w3.org/2000/svg" id="Layer_1" data-name="Layer 1" viewBox="0 0 24 24">
  <path d="m22.823,12.502c-.242-.205-.496-.395-.76-.571l1.013-1.013c1.365-1.365,1.365-3.585,0-4.95l-1.248-1.248s.007-.005.01-.007c.345-.215.674-.454.985-.716.818-.709.868-1.993.158-2.811-.75-.781-2.076-.89-2.857-.139-.043.041-.63.774-.85,1.121l-1.149-1.149c-1.365-1.363-3.584-1.364-4.949,0L4.829,9.331c-.039-.057-.569-.844-.831-1.155-.709-.818-2.016-.845-2.835-.135-.781.75-.866,2.053-.116,2.834.041.043,1.228.921,1.257.941l-1.279,1.259c-.661.661-1.025,1.54-1.025,2.475s.364,1.814,1.025,2.475l4.949,4.95c.661.661,1.54,1.025,2.475,1.025s1.814-.364,2.466-1.017l1.284-1.264c.015.021.882,1.193.925,1.234.781.75,2.086.662,2.836-.119.709-.818.68-2.122-.138-2.831-.311-.262-1.051-.76-1.084-.783l4.689-4.653c.178.262.654.846.697.887.781.75,2.106.642,2.857-.139.709-.818.66-2.102-.158-2.811Zm-14.021,8.351c-.127.127-.276.146-.353.146s-.226-.019-.354-.146l-1.048-1.048c.132-.099.261-.201.387-.308.818-.709.861-2,.152-2.818-.75-.781-2.069-.883-2.85-.132-.043.041-.332.384-.431.516l-1.159-1.159c-.127-.127-.146-.276-.146-.353s.019-.226.138-.345l5.012-4.934,1.509,1.509c-.343.218-1.071.802-1.112.844-.75.781-.648,2.1.132,2.85.818.709,2.109.667,2.818-.152.262-.311.502-.64.716-.985,0,0,0-.001.001-.002l1.591,1.592-5.004,4.925Zm12.152-12.056l-5.018,5.018-5.657-5.657,1.218-1.218c.169.247.624.802.667.844.781.751,2.098.683,2.848-.098.71-.818.669-2.144-.15-2.853-.229-.193-.468-.374-.716-.542l1.151-1.151c.195-.195.512-.195.707,0l4.95,4.95c.195.195.195.512,0,.708Zm-13.368,7.882c-.039-.045.043.041,0,0h0Zm1.074-1.22s.005.005.011.009c-.004-.003-.008-.007-.011-.009Z"/>
</svg>
