<?xml version="1.0" encoding="UTF-8"?>
<svg xmlns="http://www.w3.org/2000/svg" id="Layer_1" data-name="Layer 1" viewBox="0 0 24 24">
  <path d="M8.5,9c-1.381,0-2.5,1.119-2.5,2.5v3c0,1.381,1.119,2.5,2.5,2.5s2.5-1.119,2.5-2.5v-3c0-1.381-1.119-2.5-2.5-2.5Zm.9,5.5c0,.496-.404,.9-.9,.9s-.9-.404-.9-.9v-3c0-.496,.404-.9,.9-.9s.9,.404,.9,.9v3ZM1.6,11.5v3c0,.496,.404,.9,.9,.9s.9-.404,.9-.9h1.6c0,1.381-1.119,2.5-2.5,2.5s-2.5-1.119-2.5-2.5v-3c0-1.381,1.119-2.5,2.5-2.5s2.5,1.119,2.5,2.5h-1.6c0-.496-.404-.9-.9-.9s-.9,.404-.9,.9Zm13.067,4.5c0-.368-.298-.667-.667-.667s-.667,.298-.667,.667v.333h-1.333v-.333c0-1.105,.895-2,2-2s2,.895,2,2c0,1.423-1.425,2.141-2,2.667h2v1.333h-4v-.654c0-1.506,2.667-2.346,2.667-3.346Zm8.57-5.949c-.102,3.427-1.915,6.608-1.5,10,0,2.102-1.48,3.949-4,3.949-1.418,0-2.831-.874-3.472-2,0,0,4.472,.5,4.472-1.949v-2c0-1.54,.41-2.996,.806-4.405,.357-1.27,.694-2.468,.694-3.595,0-.769,0-1-2-1-.913,0-1.658-.378-2.258-.682-.244-.124-.613-.312-.744-.318-.554,0-.554,.313-.554,.5,0,.348,.504,.882,.991,1.397,.871,.923,2.064,2.187,2.064,4.103,0,.137-.012,.294-.029,.464-.591-1.471-2.027-2.515-3.707-2.515-.162,0-.496,.022-.51,.008-.807-.854-1.81-1.916-1.81-3.457,0-2.298,1.789-3.5,3.556-3.5,1.187-.037,2.071,.789,3,1,1.367,0,5,0,5,4ZM9.757,2.845c-.149-1.603,.534-2.672,1.489-2.784,.955-.112,1.82,.776,1.969,2.379s-.504,2.993-1.459,3.105c-.955,.112-1.85-1.097-1.999-2.699Zm7.479-.474c-.004-1.023,.489-1.661,1.099-1.678,.611-.017,1.108,.594,1.112,1.617,.004,1.023-.488,1.866-1.099,1.883-.611,.017-1.109-.798-1.113-1.821Zm-3-.641c-.004-1.023,.489-1.661,1.099-1.678,.611-.017,1.108,.594,1.112,1.617s-.488,1.866-1.099,1.883c-.611,.017-1.109-.798-1.113-1.821Zm6,2.26c-.003-.877,.421-1.424,.946-1.438s.954,.509,.958,1.386c.003,.877-.42,1.599-.946,1.614-.526,.015-.955-.684-.958-1.561Zm3.764,1.985c.002,.584-.279,1.066-.628,1.076s-.634-.456-.636-1.041c-.002-.585,.279-.949,.628-.959,.349-.01,.633,.339,.636,.924Z"/>
</svg>
