<?xml version="1.0" encoding="UTF-8"?>
<svg xmlns="http://www.w3.org/2000/svg" id="Layer_1" data-name="Layer 1" viewBox="0 0 24 24">
  <path d="M20,0H9c-2.206,0-4,1.794-4,4v12H0v4c0,2.206,1.794,4,4,4h5.449c.213-.939,.406-1.795,.826-3h-2.417c.084-.322,.142-.653,.142-1V4c0-.552,.449-1,1-1s1,.448,1,1v4h7v3.355c1.032-.51,2.056-.835,3-1.037v-2.318h4V4c0-2.206-1.794-4-4-4ZM3,20v-1h2v1c0,.552-.449,1-1,1s-1-.448-1-1ZM21,5H13v-1c0-.345-.044-.681-.126-1h7.126c.551,0,1,.448,1,1v1Zm3,7.06s-.597,4.644-4.143,7.508c-1.132,.914-2.295,1.47-3.357,1.807,0,0,1-3.375,4.066-6.941-3.103,1.718-5.314,4.825-6.277,7.412-.276,.704-.476,1.452-.648,2.155h-2.141c.203-.892,.46-1.864,.831-2.805,.166-1.36,.992-4.675,3.755-6.906,3.546-2.864,7.914-2.23,7.914-2.23Zm-9,.94h-5v-3h5v3Zm-5,2h2.701c-.732,1.023-1.24,2.068-1.593,3h-1.108v-3Z"/>
</svg>
