<svg id="Layer_1" viewBox="0 0 24 24" xmlns="http://www.w3.org/2000/svg" data-name="Layer 1"><path d="m21.143 14 .857 2h2v-7h-2l-.857 2h-2.883l2.268-3.093-7.16-7.16-1.727 1.352c-2.602-2.744-6.994-2.8-9.664-.122-1.341 1.341-2.059 3.198-1.971 5.021l-.006 4.124 10.483 10.483 5.577-7.604h5.083zm-18.139-7.071c-.05-1.054.349-2.086 1.094-2.831.731-.731 1.692-1.097 2.652-1.097.899 0 1.798.32 2.508.961l-6.256 4.897zm7.127 10.082-5.565-5.566 8.559-6.698 3.462 3.462-6.455 8.802zm13.031 4.152c-.472.472-1.092.687-1.663.777v2.06h-3v-2.053c-.558-.086-1.177-.299-1.663-.785-1.163-1.163-.775-3.101-.775-3.101s1.938-.388 3.101.775c.541.541.744 1.248.809 1.851.094-.603.324-1.31.865-1.851 1.163-1.163 3.163-.837 3.163-.837s.326 2-.837 3.163z"/></svg>