<svg id="Layer_1" viewBox="0 0 24 24" xmlns="http://www.w3.org/2000/svg" data-name="Layer 1"><path d="m15.582 24h-1.824l-3-1h-1.967l-4.79-1.369v-2.301l1.222-1.264 1.043-3.715-1.823-2.734-2.242-1.326-2.2-.688v-3.873l4.489-.749 2.006-2.473 1.922 1.482.588.005.994-.746v-.871l2.379-2.378h2.621v1h1.75l1.5 2h2.053l1 1.5h2.697v2.33l-1.062 2.299 1.065 2.871h-1.885l.946 3.39-.978 1.089 1.905 1.952-2.854 3.627-3.842-1.058h-.716l-1 3zm-6.372-4h2.034l2.258.752.918-2.752h3.284l2.293.632-.996-1.021v-2.186l.732-.815-.014-.048-2.395-.426 3.062-6.636h-.688l-1-1.5h-1.947l-1.5-2h-2.25v.75l-3.007 2.254-1.994-.018v2.014h-2.089l.647.383 3.442 5.163v2.454h-1.363l-.747 2.623z"/></svg>