<svg id="Layer_1" viewBox="0 0 24 24" xmlns="http://www.w3.org/2000/svg" data-name="Layer 1"><path d="m10 0h3v5h-1.5c-3.86 0-7 3.14-7 7s3.14 7 7 7h1.5v5h-3v-2.112c-2.54-.384-4.763-1.732-6.301-3.652l-1.841 1.063-1.5-2.598 1.833-1.058c-.444-1.13-.691-2.357-.691-3.643s.247-2.513.691-3.643l-1.833-1.058 1.5-2.598 1.841 1.063c1.538-1.92 3.76-3.269 6.301-3.652zm-2.5 12c0 2.206 1.794 4 4 4h1.5v-3h-1.5c-.551 0-1-.449-1-1s.449-1 1-1h1.5v-3h-1.5c-2.206 0-4 1.794-4 4zm15.5 6.511v-5.511h-8v3h5v2.511c-.604.456-1 1.173-1 1.989 0 1.381 1.119 2.5 2.5 2.5s2.5-1.119 2.5-2.5c0-.815-.396-1.532-1-1.989zm0-13.022c.604-.456 1-1.173 1-1.989 0-1.381-1.119-2.5-2.5-2.5s-2.5 1.119-2.5 2.5c0 .815.396 1.532 1 1.989v2.511h-5v3h8z"/></svg>