<?xml version="1.0" encoding="UTF-8"?>
<svg xmlns="http://www.w3.org/2000/svg" id="Layer_1" data-name="Layer 1" viewBox="0 0 24 24">
  <path d="M21.311,12.811l-1.871,1.871c-.279,.279-.439,.666-.439,1.061v8.258h-3V15.742c0-1.185,.48-2.344,1.318-3.182l1.871-1.871-2.689-2.689,6.324,.002c.663-.036,1.21,.511,1.174,1.174l.002,6.324-2.689-2.689ZM4.811,10.689l2.689-2.689-6.324,.002C.513,7.966-.034,8.513,.002,9.176l-.002,6.324,2.689-2.689,1.872,1.872c.279,.278,.439,.665,.439,1.06v8.258h3V15.742c0-1.185-.48-2.345-1.318-3.182l-1.871-1.871Zm12.585-5.689L12.812,.371c-.443-.494-1.217-.494-1.66,0L6.679,5h3.821V24h3V5h3.896Z"/>
</svg>
