<?xml version="1.0" encoding="UTF-8"?>
<svg xmlns="http://www.w3.org/2000/svg" id="Layer_1" data-name="Layer 1" viewBox="0 0 24 24">
  <path d="m7,7.5c0,.828-.672,1.5-1.5,1.5s-1.5-.672-1.5-1.5.672-1.5,1.5-1.5,1.5.672,1.5,1.5Zm13,0c0-.828-.672-1.5-1.5-1.5s-1.5.672-1.5,1.5.672,1.5,1.5,1.5,1.5-.672,1.5-1.5Zm-14.5,5.5c-.828,0-1.5.672-1.5,1.5s.672,1.5,1.5,1.5,1.5-.672,1.5-1.5-.672-1.5-1.5-1.5ZM20.5,2H3.5c-1.93,0-3.5,1.57-3.5,3.5v14.5h11s3.555,0,3.555,0l.079-.122c-1.349-.348-2.382-1.473-2.585-2.878h-2.05s-7,0-7,0V5.5c0-.276.225-.5.5-.5h17c.275,0,.5.224.5.5v7.5h3v-7.5c0-1.93-1.57-3.5-3.5-3.5Zm2,19c-.828,0-1.5.672-1.5,1.5s.672,1.5,1.5,1.5,1.5-.672,1.5-1.5-.672-1.5-1.5-1.5Zm-7-3c.828,0,1.5-.672,1.5-1.5s-.672-1.5-1.5-1.5-1.5.672-1.5,1.5.672,1.5,1.5,1.5Zm4.68-3l-5.833,9h3.474l5.833-9h-3.474Zm-8.18-7c-1.657,0-3,1.343-3,3s1.343,3,3,3,3-1.343,3-3-1.343-3-3-3Z"/>
</svg>
