<svg id="Layer_1" viewBox="0 0 24 24" xmlns="http://www.w3.org/2000/svg" data-name="Layer 1"><path d="m21 14.718 3-2.097v11.378h-24v-17.499c0-1.93 1.57-3.5 3.5-3.5h6.5v3h-6.5c-.275 0-.5.224-.5.5v.276l7.361 7.545c.875.876 2.402.876 3.278 0l.321-.321h4.242l-2.442 2.442c-1.004 1.004-2.34 1.558-3.76 1.558s-2.757-.553-3.761-1.558l-5.239-5.388v9.945h18v-6.282zm-1.174-10.355-1.283-4.363h-1.059l-1.285 4.363h-4.2v1.006l3.079 2.016-1.181 4.022.787.593 3.331-2.338 3.382 2.338.818-.571-1.271-3.982 3.054-2.083v-1h-4.174z"/></svg>