<svg id="Layer_1" viewBox="0 0 24 24" xmlns="http://www.w3.org/2000/svg" data-name="Layer 1"><path d="m24 13h-1.051c-.458-5.051-4.343-9.115-9.306-9.863.224-.323.357-.714.357-1.137 0-1.105-.895-2-2-2s-2 .895-2 2c0 .423.133.814.357 1.137-4.963.748-8.848 4.812-9.306 9.863h-1.051v3h3.125c-.229.444-.416.914-.518 1.422l-1.316 6.578h3.059l1.198-5.99c.233-1.164 1.264-2.01 2.452-2.01h4.599c.354 0 .624.289.642.643.021.423-.418.616-.545.634l-4.099.551.411 2.972 4.105-.551c.874-.125 1.642-.561 2.198-1.184l3.052-2.728c.382-.341.955-.381 1.275-.09.423.526.424.802-.018 1.335l-7.108 6.418h4.351l4.801-4.223c.807-.734 1.27-1.781 1.27-2.873 0-.308-.046-.609-.118-.904h1.183v-3zm-19.931 0c.495-3.94 3.859-7 7.931-7s7.436 3.06 7.931 7z"/></svg>