<?xml version="1.0" encoding="UTF-8"?>
<svg xmlns="http://www.w3.org/2000/svg" id="Layer_1" data-name="Layer 1" viewBox="0 0 24 24">
  <path d="m21-.004s-.009,3.003-.009,4.504c0,1.222-.094,2.382-.283,3.482C13.698,2.711,9.24.944,7.455,2.734c-1.136,1.136-1.03,2.563-.96,3.508.006.081.013.177.019.271-.095-.005-.19-.013-.271-.019-.945-.07-2.373-.175-3.508.96-1.788,1.788-.022,6.243,5.248,13.254-1.1.189-2.26.283-3.482.283-1.501,0-4.504.008-4.504.008l.008,3s2.998-.008,4.496-.008c5.656,0,10.369-1.845,14.008-5.484s5.483-8.352,5.483-14.008c0-1.499.009-4.495.009-4.496l-3-.009Zm-4.613,16.391c-1.552,1.552-3.303,2.705-5.28,3.469-.66-.863-1.296-1.735-1.891-2.589,1.885-.622,3.553-1.643,4.98-3.071.931-.931,1.687-1.967,2.274-3.096-.891-.629-1.732-1.19-2.506-1.682-.467.975-1.092,1.86-1.889,2.658-1.295,1.295-2.813,2.146-4.59,2.579-1.481-2.366-2.45-4.321-2.487-5.156.208-.064.568-.044,1.022-.012.813.062,1.93.144,2.77-.697.839-.84.757-1.955.696-2.769-.033-.455-.052-.813.012-1.022,1.406.062,5.988,2.767,10.358,6.109-.764,1.977-1.916,3.728-3.469,5.28Z"/>
</svg>
