<svg id="Layer_1" viewBox="0 0 24 24" xmlns="http://www.w3.org/2000/svg" data-name="Layer 1"><path d="m8 12h8c1.105 0 2-.895 2-2v-8c0-1.105-.895-2-2-2h-8c-1.105 0-2 .895-2 2v8c0 1.105.895 2 2 2zm6.263-9h1.237v6h-1.237zm-4.014 0h1.033l2.265 6h-1.297l-.5-1.326h-1.983l-.5 1.324h-1.303zm1.044 3.461h-1.064l.535-1.404.53 1.404zm-4.293 14.039v2c0 .828-.672 1.5-1.5 1.5h-4c-.828 0-1.5-.672-1.5-1.5v-2c0-.828.672-1.5 1.5-1.5h4c.828 0 1.5.672 1.5 1.5zm8.5 0v2c0 .828-.672 1.5-1.5 1.5h-4c-.828 0-1.5-.672-1.5-1.5v-2c0-.828.672-1.5 1.5-1.5h4c.828 0 1.5.672 1.5 1.5zm8.5 0v2c0 .828-.672 1.5-1.5 1.5h-4c-.828 0-1.5-.672-1.5-1.5v-2c0-.828.672-1.5 1.5-1.5h4c.828 0 1.5.672 1.5 1.5zm-19-2.5h-3v-2c0-1.654 1.346-3 3-3h14c1.654 0 3 1.346 3 3v2h-3v-2h-5.5v2h-3v-2h-5.5z"/></svg>