<svg id="Layer_1" viewBox="0 0 24 24" xmlns="http://www.w3.org/2000/svg" data-name="Layer 1"><path d="m14.25 13.976c.572-.035 1.115-.204 1.611-.467.082.319.139.647.139.991 0 2.488-2.272 4.446-4.855 3.911-1.399-.29-2.56-1.371-2.969-2.74-.363-1.214-.133-2.347.426-3.256l2.191 2.19c.781.781 2.047.781 2.828 0l.63-.63zm-2.175-3.482-1.283 1.283 1.414 1.414 1.283-1.283c.168.044.339.075.511.075.512 0 1.024-.195 1.414-.586l4.293-4.293 1.336 1.336 1.414-1.414c-.738-.738-.738-1.934 0-2.672l.957-.957c.859-.859.773-2.305-.257-3.046-.809-.582-1.943-.41-2.648.295l-.88.88c-.738.738-1.934.738-2.672 0l-1.414 1.414 1.336 1.336-4.293 4.293c-.522.522-.687 1.259-.511 1.925zm9.751.598c-.431-.567-.945-1.161-1.545-1.734l-2.129 2.128c.951.821 2.176 2.596 2.576 3.512-.771 1.58-3.406 6.001-8.729 6.001-5.375 0-7.955-4.362-8.733-5.998.514-1.584 3.8-5.503 6.829-5.793.15-.767.51-1.489 1.076-2.055l1.143-1.143c-2.151-.074-4.221.433-6.04 1.436-4.432 2.629-5.626 6.088-6.254 7.553.649 1.454 3.265 8.779 11.98 9.001 7.024-.114 10.659-5.434 11.98-8.999-.424-1.024-.605-1.765-2.154-3.908z"/></svg>