<?xml version="1.0" encoding="UTF-8"?>
<svg xmlns="http://www.w3.org/2000/svg" id="Layer_1" data-name="Layer 1" viewBox="0 0 24 24">
  <path d="M22.732,9.013c-.767-.699-1.768-1.052-2.797-1.008-1.036,.048-1.992,.498-2.69,1.265l-2.438,2.679c-.646-.589-1.506-.949-2.448-.949H3.5c-1.93,0-3.5,1.57-3.5,3.5v6c0,1.93,1.57,3.5,3.5,3.5H14.681l8.334-9.532c1.41-1.58,1.283-4.027-.282-5.455Zm-1.966,3.469l-7.447,8.518H3.5c-.275,0-.5-.225-.5-.5v-6c0-.275,.225-.5,.5-.5H12.358c.354,0,.642,.288,.642,.643,0,.317-.236,.591-.551,.635l-5.161,.737,.424,2.971,5.161-.737c1.619-.231,2.876-1.53,3.094-3.116l3.497-3.842c.159-.175,.376-.277,.612-.288,.235-.011,.463,.071,.636,.229,.356,.325,.385,.881,.055,1.252ZM0,1.226S3.666-1.304,7.672,.905c1.533,.845,2.18,2.638,1.625,4.22,.171,.454,.305,.923,.403,1.388,.378-.402,.817-.771,1.317-1.087-.092-1.07,.429-2.144,1.427-2.702,3.161-1.768,6.557,.276,6.557,.276-.742,1.863-2.052,3.659-3.808,4.641-1.099,.615-2.424,.403-3.296-.416-1.306,.907-1.897,2.317-1.897,2.775h-2c0-1.582-.162-2.731-.399-3.594-.306-.831-1.184-2.095-1.2-2.107l.007-.009c-1.669-2.01-3.907-2.291-3.907-2.291,2.179,2.49,3,3.5,3.471,5.484-.605,.008-1.218-.121-1.784-.433C1.962,5.824,1,3,0,1.226Z"/>
</svg>
