<?xml version="1.0" encoding="UTF-8"?>
<svg xmlns="http://www.w3.org/2000/svg" id="Layer_1" data-name="Layer 1" viewBox="0 0 24 24" width="512" height="512"><path d="m23,20.859V3c0-1.654-1.346-3-3-3h-2c-1.654,0-3,1.346-3,3v1h-2c-1.654,0-3,1.346-3,3v.859L2.161.02.04,2.141l21.8,21.8,2.121-2.121-.96-.96Zm-3-17.859v14.859l-2-2V3h2Zm-7,4h2v5.859l-2-2v-3.859Zm2,14h-2v-3.071l-3-3v6.071h-2v-8.071l-2.529-2.529c-.294.464-.471,1.01-.471,1.599v2h-2c-1.654,0-3,1.346-3,3v7h19.071l-4.071-4.071v1.071Zm-10,0h-2v-4h2v4Z"/></svg>
