<svg id="Layer_1" viewBox="0 0 24 24" xmlns="http://www.w3.org/2000/svg" data-name="Layer 1"><path d="m24 5.41v16.372l-12 2.182-12-2.182v-16.372c-.051-2.092 1.991-3.724 4.019-3.355s1.217.222 1.217.222c-.425.89-.678 1.876-.72 2.918l-1.033-.188c-.313-.013-.436.094-.482.403v13.869l7.5 1.364v-4.642h3v4.642l7.5-1.364v-13.869c-.036-.276-.137-.383-.426-.409-.052 0-1.034.187-1.09.194-.042-1.042-.295-2.027-.72-2.918.364-.053 1.362-.285 1.718-.27 1.867-.099 3.563 1.526 3.518 3.402zm-17.353-1.196c.463-2.007 2.058-3.603 4.062-4.065 1.676-.387 3.392-.006 4.712 1.045 1.321 1.05 2.078 2.62 2.078 4.306 0 1.833-.913 3.536-2.442 4.558-.344.229-.558.677-.558 1.168v2.774h-5v-2.774c0-.491-.214-.939-.558-1.169-1.917-1.281-2.817-3.574-2.294-5.843zm3.961 3.349c.186.124.339.286.501.438h1.782c.799-.649 1.665-1.364 1.609-2.5.029-1.341-1.158-2.53-2.497-2.5-1.119-.028-2.188.788-2.432 1.887-.292 1.267.344 2.212 1.037 2.675z"/></svg>