<?xml version="1.0" encoding="UTF-8"?>
<svg xmlns="http://www.w3.org/2000/svg" id="Layer_1" data-name="Layer 1" viewBox="0 0 24 24">
  <path d="m20.391,1.022L19.342-.005l-1.049,1.027c-.928.908-2.651,2.319-4.792,2.806V1h-3v2.828c-2.141-.487-3.865-1.898-4.792-2.806L4.658-.005l-1.049,1.027C1.383,3.201,0,6.641,0,10c0,3.292,1.349,6.578,3.609,8.79l1.049,1.027,1.049-1.027c.878-.859,2.552-2.199,4.792-2.642v7.852h3v-7.852c2.241.443,3.914,1.783,4.792,2.642l1.049,1.027,1.049-1.027c2.26-2.212,3.609-5.498,3.609-8.79,0-3.359-1.383-6.799-3.609-8.978ZM4.805,15.599c-1.146-1.572-1.805-3.58-1.805-5.599,0-2.042.686-4.175,1.809-5.77,1.786,1.43,3.739,2.338,5.691,2.649v6.229c-2.009.286-3.963,1.141-5.695,2.491Zm14.391,0c-1.732-1.351-3.686-2.205-5.695-2.491v-6.229c1.953-.311,3.906-1.219,5.691-2.649,1.123,1.595,1.809,3.728,1.809,5.77,0,2.019-.659,4.027-1.805,5.599Z"/>
</svg>
