<?xml version="1.0" encoding="UTF-8"?>
<svg xmlns="http://www.w3.org/2000/svg" id="Layer_1" data-name="Layer 1" viewBox="0 0 24 24">
  <path d="M14.294,14.894c-2.327-1.098-4.042-2.819-5.206-5.228l2.964-2.963L5.41,.061,1.766,3.706c-1.139,1.137-1.766,2.672-1.766,4.323,0,7.152,8.791,15.943,15.942,15.943,1.651,0,3.186-.627,4.322-1.766l3.645-3.646-6.641-6.641-2.974,2.974Zm3.848,5.192c-.57,.571-1.352,.886-2.2,.886-4.993,0-12.942-7.067-12.942-12.943,0-.849,.314-1.63,.886-2.201l1.524-1.524,2.399,2.398-2.268,2.268,.369,.919c1.59,3.959,4.347,6.711,8.195,8.18l.908,.347,2.255-2.255,2.399,2.398-1.525,1.525Zm5.857-14.586c0-3.033-2.467-5.5-5.5-5.5s-5.5,2.467-5.5,5.5v5.5h5.5c3.033,0,5.5-2.467,5.5-5.5Zm-9,1v-2h2.5V2h2v2.5l2.5-.014v2.014l-2.5,.014v2.486h-2v-2.486l-2.5-.014Z"/>
</svg>
