<?xml version="1.0" encoding="UTF-8"?>
<svg xmlns="http://www.w3.org/2000/svg" id="Layer_1" data-name="Layer 1" viewBox="0 0 24 24">
  <path d="M18.01,21l1.999-15.084-2.293-.304,.591-4.46L9.384-.03l-.591,4.46-2.294-.304-2.235,16.875H0v3H24v-3h-5.99ZM11.964,3.338l2.974,.394-.197,1.486-2.974-.394,.197-1.486Zm-2.884,4.156l7.561,1.002-1.657,12.504h-1.325l.3-2.267c.073-.548-.312-1.05-.86-1.123-.548-.073-1.05,.312-1.123,.86l-.335,2.529h-1.009l.353-2.661c.073-.547-.312-1.05-.86-1.123-.547-.073-1.05,.312-1.123,.86l-.387,2.923h-1.325l1.789-13.506Zm5.667,5.292l-1.983-.263,.263-1.983c.073-.547,.575-.932,1.123-.86,.548,.073,.933,.575,.86,1.123l-.263,1.983Zm-2.974-.394l-1.983-.263,.263-1.983c.073-.547,.575-.933,1.123-.86,.547,.073,.932,.575,.86,1.123l-.263,1.983Zm2.449,4.359l-1.983-.263,.263-1.983c.073-.547,.575-.932,1.123-.86,.547,.073,.933,.575,.86,1.123l-.263,1.983Zm-2.974-.394l-1.983-.263,.263-1.983c.073-.547,.575-.933,1.123-.86s.933,.575,.86,1.123l-.263,1.983Z"/>
</svg>
