<?xml version="1.0" encoding="UTF-8"?>
<svg xmlns="http://www.w3.org/2000/svg" id="Layer_1" data-name="Layer 1" viewBox="0 0 24 24">
  <path d="m3,10.164v10.836l8-.013v.013c0,1.124.387,2.151,1.015,2.987H0v-13.823c0-1.084.49-2.089,1.343-2.757L9.843.756c1.27-.992,3.043-.992,4.313,0l7.843,6.244h-3.5c-.377,0-.744.039-1.103.101l-5.088-3.982c-.182-.143-.435-.143-.616,0L3.192,9.771c-.122.095-.192.238-.192.394Zm21,4.836v6c0,1.654-1.346,3-3,3h-5c-1.654,0-3-1.346-3-3v-6h1v-1.5c0-2.481,2.019-4.5,4.5-4.5s4.5,2.019,4.5,4.5v1.5h1Zm-7,0h3v-1.5c0-.827-.673-1.5-1.5-1.5s-1.5.673-1.5,1.5v1.5Zm3,3h-3v3h3v-3Z"/>
</svg>
