<svg id="Layer_1" viewBox="0 0 24 24" xmlns="http://www.w3.org/2000/svg" data-name="Layer 1"><path d="m24 21c0 1.657-1.343 3-3 3s-3-1.343-3-3c0-.695.246-1.326.642-1.835l-.629-2.656-2.792 3.49h-7.405c.112.314.184.647.184 1 0 1.657-1.343 3-3 3s-3-1.343-3-3c0-.353.072-.686.184-1h-2.184v-3h13.779l3.356-4.195-2.231-9.419c-.054-.227-.254-.385-.486-.385h-3.418v-3h3.418c1.629 0 3.03 1.107 3.406 2.693l3.636 15.354c1.436.223 2.539 1.455 2.539 2.954zm-24-12c0-3.314 2.686-6 6-6s6 2.686 6 6-2.686 6-6 6-6-2.686-6-6zm3.613 1.025h2.05l-.655 2.973.626.002 3.264-4.029c.268-.4-.018-.937-.499-.938l-2.036-.008.925-3.025h-2.923l-1.336 4.195c-.121.394.173.828.585.83z"/></svg>