<?xml version="1.0" encoding="UTF-8"?>
<svg xmlns="http://www.w3.org/2000/svg" id="Layer_1" data-name="Layer 1" viewBox="0 0 24 24" width="512" height="512"><path d="m18,13.495s0,.003,0,.005c0,1.381-1.119,2.5-2.5,2.5s-2.5-1.119-2.5-2.5c0-1.209.859-2.218,2-2.45v-2.55c0-.275-.224-.5-.5-.5h-3c-.276,0-.5.225-.5.5v4.995s0,.003,0,.005c0,1.381-1.119,2.5-2.5,2.5s-2.5-1.119-2.5-2.5c0-1.209.859-2.218,2-2.45v-2.55c0-1.93,1.57-3.5,3.5-3.5h3c1.93,0,3.5,1.57,3.5,3.5v4.995Zm6-9.995v16.5h-6.672l-3.708,3.065c-.448.399-1.024.601-1.606.601-.595,0-1.196-.21-1.675-.636l-3.598-3.03H0V3.5C0,1.57,1.57,0,3.5,0h17c1.93,0,3.5,1.57,3.5,3.5Zm-3,0c0-.275-.224-.5-.5-.5H3.5c-.276,0-.5.225-.5.5v13.5h4.836l4.168,3.511,4.245-3.511h4.751V3.5Z"/></svg>
