<?xml version="1.0" encoding="UTF-8"?>
<svg xmlns="http://www.w3.org/2000/svg" id="Layer_1" data-name="Layer 1" viewBox="0 0 24 24">
  <path d="m21.405,2l-7.082,6.666-2.501-5.594c-.562-1.259-1.816-2.072-3.195-2.072h-1.626c-1.654,0-3,1.346-3,3v5H0v5c0,.764.296,1.455.768,1.985-.485.718-.768,1.583-.768,2.515,0,2.485,2.015,4.5,4.5,4.5h6c2.485,0,4.5-2.015,4.5-4.5,0-.932-.283-1.797-.768-2.515.472-.53.768-1.221.768-1.985v-1.852l6-5.647v4.878l-4,4v2.621h4.5c1.378,0,2.5-1.122,2.5-2.5V2h-2.595Zm-14.405,2h1.626c.197,0,.376.116.457.296l2.103,4.704h-4.186v-5ZM3,12h9v2H3v-2Zm1.5,8c-.828,0-1.5-.672-1.5-1.5s.672-1.5,1.5-1.5,1.5.672,1.5,1.5-.672,1.5-1.5,1.5Zm6,0c-.828,0-1.5-.672-1.5-1.5s.672-1.5,1.5-1.5,1.5.672,1.5,1.5-.672,1.5-1.5,1.5Z"/>
</svg>
