<?xml version="1.0" encoding="UTF-8"?>
<svg xmlns="http://www.w3.org/2000/svg" id="Layer_1" data-name="Layer 1" viewBox="0 0 24 24">
  <path d="m23.998,22h-13.169l-2.036-8.144-7.057,1.125c-.817.129-1.587-.427-1.718-1.245-.13-.818.427-1.587,1.245-1.718l9.772-1.558,2.135,8.54h7.831l-.002-9.906-3.62-3.746-4.639-.641,1.754-1.703c.658-.646,1.525-1.004,2.449-1.004.935,0,1.814.364,2.508,1.06l4.547,4.847-.002,14.094ZM1.417,8.205l14.583,2.016v-3.029L1.828,5.234c-.821-.113-1.578.46-1.691,1.28-.113.821.46,1.578,1.28,1.691Z"/>
</svg>
