<?xml version="1.0" encoding="UTF-8"?>
<svg xmlns="http://www.w3.org/2000/svg" id="Layer_1" data-name="Layer 1" viewBox="0 0 24 24">
  <path d="m20.5,14c1.93,0,3.5-1.57,3.5-3.5v-5.553h-.034c.103-.88-.17-1.797-.845-2.472-1.172-1.172-4.596-2.475-4.596-2.475,0,0,.82,1.53,1.11,3.231-1.701-.29-3.231-1.11-3.231-1.11,0,0,1.303,3.425,2.475,4.596.586.586,1.354.879,2.121.879v2.904c0,.275-.224.5-.5.5h-.794c-.453-1.425-1.514-2.749-3.706-3.458v-1.542h-3v1.032c-.322-.018-.65-.032-1-.032s-.678.014-1,.032v-1.032h-3v1.542c-2.192.71-3.253,2.034-3.706,3.458h-.794c-.276,0-.5-.225-.5-.5v-2.904c.768,0,1.536-.293,2.121-.879,1.172-1.172,2.475-4.596,2.475-4.596,0,0-1.53.82-3.231,1.11.29-1.701,1.11-3.231,1.11-3.231,0,0-3.425,1.303-4.596,2.475C.203,3.15-.07,4.067.034,4.947h-.034v5.553c0,1.93,1.57,3.5,3.5,3.5h.644c.161.63.446,1.314.793,2h-2.058l-2.439,2.439,2.121,2.121,1.561-1.561h2.649c.164.234.318.45.462.646l-2.293,2.293,2.121,2.121,3.061-3.061h3.758l3.061,3.061,2.121-2.121-2.261-2.261c.16-.202.335-.427.521-.679h2.558l1.561,1.561,2.121-2.121-2.439-2.439h-1.948c.319-.663.573-1.341.711-2h.617Zm-8.5-4c5,0,5,1.951,5,3,0,1.188-1.461,3.467-2.7,5h-4.554c-1.375-1.872-2.747-4.209-2.747-5,0-1.049,0-3,5-3Z"/>
</svg>
