<?xml version="1.0" encoding="UTF-8"?>
<svg xmlns="http://www.w3.org/2000/svg" id="Layer_1" data-name="Layer 1" viewBox="0 0 24 24">
  <path d="m21.963,18.938l-.963-10.506v-1.932C21,0,14.226,0,12,0S3,0,3,6.5v1.932l-.955,10.431c-.185,1.292.2,2.599,1.055,3.585.855.986,2.094,1.552,3.399,1.552h11c1.305,0,2.544-.565,3.399-1.552.855-.986,1.24-2.292,1.064-3.51ZM8,3.503v1.497h3v-1.98c.314-.013.647-.02,1-.02s.686.007,1,.02v1.98h3v-1.497c1.591.576,2,1.619,2,2.997v.5H6v-.5c0-1.378.409-2.422,2-2.997Zm10.633,16.98c-.29.333-.692.517-1.133.517H6.5c-.441,0-.844-.184-1.133-.517-.289-.333-.414-.758-.343-1.27l.845-9.213h12.263l.853,9.288c.062.437-.062.861-.352,1.195Zm-4.633-2.983c0,.828-.672,1.5-1.5,1.5s-1.5-.672-1.5-1.5.672-1.5,1.5-1.5,1.5.672,1.5,1.5Zm3-4c0,.828-.672,1.5-1.5,1.5s-1.5-.672-1.5-1.5.672-1.5,1.5-1.5,1.5.672,1.5,1.5Z"/>
</svg>
