<?xml version="1.0" encoding="UTF-8"?>
<svg xmlns="http://www.w3.org/2000/svg" id="Layer_1" data-name="Layer 1" viewBox="0 0 24 24">
  <path d="m9,5.5c0-.828.672-1.5,1.5-1.5s1.5.672,1.5,1.5-.672,1.5-1.5,1.5-1.5-.672-1.5-1.5Zm-2.835,7.123c.815-.412,1.74-.563,1.775-.568,1.225-.163,2.669.194,4.291,1.062,1.227.657,2.292.949,3.082.843,1.405-.147,2.272-1.216,2.48-1.5-.681-2.566-3.013-4.46-5.793-4.46-2.839,0-5.212,1.974-5.835,4.623Zm9.413,3.32c-1.225.163-2.669-.194-4.292-1.063-1.227-.657-2.292-.949-3.082-.843-.02.002-1.094.149-2.097,1.077.523,2.78,2.96,4.885,5.892,4.885,2.956,0,5.406-2.139,5.903-4.952-1.207.775-2.29.89-2.325.895Zm7.422-12.443v20.5H1V3.5C1,1.57,2.57,0,4.5,0h15c1.93,0,3.5,1.57,3.5,3.5Zm-3,0c0-.276-.225-.5-.5-.5H4.5c-.275,0-.5.224-.5.5v17.5h16V3.5Zm-12,2c0-.828-.672-1.5-1.5-1.5s-1.5.672-1.5,1.5.672,1.5,1.5,1.5,1.5-.672,1.5-1.5Z"/>
</svg>
