<?xml version="1.0" encoding="UTF-8"?>
<svg xmlns="http://www.w3.org/2000/svg" id="Layer_1" data-name="Layer 1" viewBox="0 0 24 24">
  <path d="m22.389,1.611c-2.145-2.145-5.634-2.144-7.778,0L4.332,11.891c-1.666,1.666-1.458,5.202-1.242,6.899L.012,21.867l2.121,2.121,3.077-3.077c.57.072,1.348.144,2.193.144,1.669,0,3.6-.279,4.707-1.386l10.28-10.28c1.039-1.038,1.611-2.419,1.611-3.889s-.572-2.851-1.611-3.889Zm-2.121,5.656l-10.28,10.28c-.485.484-2.284.594-3.971.435-.162-1.687-.05-3.485.435-3.971l.437-.437,1.909,1.909,2.121-2.121-1.909-1.909,1.52-1.52,1.909,1.909,2.121-2.121-1.909-1.909,1.581-1.581,1.909,1.909,2.121-2.121-1.909-1.909.378-.378c.975-.975,2.562-.975,3.536,0,.472.472.732,1.1.732,1.768s-.26,1.295-.732,1.768Z"/>
</svg>
