<?xml version="1.0" encoding="UTF-8"?>
<svg xmlns="http://www.w3.org/2000/svg" id="Layer_1" data-name="Layer 1" viewBox="0 0 24 24">
  <path d="m21.916,9c-.88-2.166-2.681-3.863-4.916-4.599V1c-1.867-.106-3.434,1.246-3.876,3h-5.125c-1.802,0-3.467.599-4.806,1.609-.129-.458-.193-.995-.193-1.609H0c0,1.637.346,3.001,1.031,4.074C.375,9.235,0,10.574,0,12,0,14.955,1.611,17.541,4,18.926v3.074h5v-2h4v2h5v-2.807c1.768-.864,3.172-2.36,3.916-4.193h2.084v-6h-2.084Zm-7.416,8h-6.5c-2.757,0-5-2.243-5-5s2.243-5,5-5h6.5c2.757,0,5,2.243,5,5s-2.243,5-5,5Zm2.5-6.5c0,.828-.672,1.5-1.5,1.5s-1.5-.672-1.5-1.5.672-1.5,1.5-1.5,1.5.672,1.5,1.5Z"/>
</svg>
