<?xml version="1.0" encoding="UTF-8"?>
<svg xmlns="http://www.w3.org/2000/svg" id="Layer_1" data-name="Layer 1" viewBox="0 0 24 24">
  <path d="m14.998,14.883c0,.51-.202,1.117-1.166,1.117-.272-.012-.541-.059-.8-.139-.67-.211-1.397-.211-2.068,0-1.099.363-2.007.006-1.966-.978.002-1.455,1.487-2.883,3-2.883s2.998,1.428,2.998,2.883Zm.573-4.863c-.514-.061-.98.425-1.06,1.304-.163,2.075,1.623,2.346,1.862.222.08-.878-.287-1.464-.801-1.526Zm-7.258,0c-.514.061-.882.647-.802,1.526.239,2.124,2.024,1.852,1.862-.222-.081-.879-.546-1.365-1.06-1.304Zm3.29-.711c-.082-.879-.546-1.365-1.061-1.304-.516.061-.881.647-.8,1.526.239,2.125,2.025,1.852,1.861-.222Zm2.645.222c.08-.878-.288-1.464-.802-1.526-.514-.061-.98.425-1.06,1.304-.163,2.076,1.623,2.346,1.862.222Zm9.752-1.531c0,6.998-10.678,14.642-11.132,14.964l-.871.616-.868-.619c-.455-.324-11.129-8.021-11.129-14.961C0,4.14,3.14,1,7,1c1.909,0,3.704.786,5,2.109,1.296-1.323,3.092-2.109,5-2.109,3.859,0,7,3.14,7,7Zm-3,0c0-2.206-1.794-4-4-4-1.428,0-2.737.777-3.448,2h-3.104c-.711-1.223-2.021-2-3.448-2-2.206,0-4,1.794-4,4,0,4.038,5.968,9.507,9.009,11.873,3.902-2.964,8.991-8.107,8.991-11.873Z"/>
</svg>
