<svg id="Layer_1" viewBox="0 0 24 24" xmlns="http://www.w3.org/2000/svg" data-name="Layer 1"><path d="m9.976 16.204-6.119-5.74 2.053-2.188 6.12 5.741 6.085-5.753 2.048 2.192-6.155 5.751c-.564.529-1.289.794-2.013.794s-1.453-.266-2.019-.798zm11.494-4.295-9.47 8.94-9.47-8.94-2.06 2.182 9.689 9.146c.491.491 1.145.763 1.84.763s1.349-.271 1.809-.732l9.721-9.177-2.06-2.182zm-9.47-.909c.828 0 1.5-.672 1.5-1.5s-.672-1.5-1.5-1.5-1.5.672-1.5 1.5.672 1.5 1.5 1.5zm0-4c.828 0 1.5-.672 1.5-1.5s-.672-1.5-1.5-1.5-1.5.672-1.5 1.5.672 1.5 1.5 1.5zm0-4c.828 0 1.5-.672 1.5-1.5s-.672-1.5-1.5-1.5-1.5.672-1.5 1.5.672 1.5 1.5 1.5z"/></svg>