<?xml version="1.0" encoding="UTF-8"?>
<svg xmlns="http://www.w3.org/2000/svg" id="Layer_1" data-name="Layer 1" viewBox="0 0 24 24">
  <path d="m8.136,16.74l.583,3.168C3.81,19.276,0,15.079,0,10,0,4.486,4.486,0,10,0c5.012,0,9.163,3.711,9.879,8.528-.383-.571-.88-1.01-1.444-1.243-.456-.189-.93-.285-1.406-.285-.233,0-.459.029-.679.073-1.111-2.4-3.536-4.073-6.35-4.073-3.859,0-7,3.14-7,7,0,3.213,2.18,5.921,5.136,6.74Zm15.864-.74v6c0,1.105-.895,2-2,2h-10.5l-1.5-8v-2h6.184l-.58-3.265c-.057-.334-.029-.519-.007-.599.188-.69.75-1.136,1.432-1.136.213,0,.428.044.64.132.254.105.503.367.682.719l2.193,4.149h1.456c1.105,0,2,.895,2,2Zm-4,1h-6.76l.75,4h6.01v-4Zm-4.956-8.923l-2.088-2.154-3.844,3.727-2.037-1.997-2.1,2.143,2.636,2.583c.399.4.932.621,1.497.621s1.097-.22,1.48-.604l4.455-4.319Z"/>
</svg>
