<?xml version="1.0" encoding="UTF-8"?>
<svg xmlns="http://www.w3.org/2000/svg" id="Layer_1" data-name="Layer 1" viewBox="0 0 24 24">
  <path d="m12,24c-6.065,0-11-4.935-11-11h3c0,4.411,3.589,8,8,8s8-3.589,8-8h3c0,6.065-4.935,11-11,11Zm2.506-17.97l-.638-1.937,1.607-1.123-.244-.974h-2.119l-.521-1.995h-1.173l-.522,1.995h-2.13l-.242.982,1.605,1.118-.62,1.938.795.55,1.696-1.185,1.695,1.181.81-.549Zm8.525,4l-.638-1.937,1.607-1.123-.244-.974h-2.119l-.521-1.995h-1.173l-.522,1.995h-2.13l-.242.982,1.605,1.118-.62,1.938.795.55,1.696-1.185,1.695,1.181.81-.549Zm-17.049,0l-.638-1.937,1.607-1.123-.244-.974h-2.119l-.521-1.995h-1.173l-.522,1.995H.242l-.242.982,1.605,1.118-.62,1.938.795.55,1.696-1.185,1.695,1.181.81-.549Zm10.018,4.97c0-1.061-.553-1.994-1.386-2.528.246-.435.386-.937.386-1.472,0-1.654-1.346-3-3-3h-3v10h4c1.654,0,3-1.346,3-3Zm-5-1h2c.551,0,1,.448,1,1s-.449,1-1,1h-2v-2Zm0-4h1c.551,0,1,.449,1,1s-.449,1-1,1h-1v-2Z"/>
</svg>
