<?xml version="1.0" encoding="UTF-8"?>
<svg xmlns="http://www.w3.org/2000/svg" id="Layer_1" data-name="Layer 1" viewBox="0 0 24 24">
  <path d="m23.999,1.457l-.041-1.457h-1.458c-.393,0-9.694.073-16.061,6.439S0,22.107,0,22.5v1.458s1.556.044,1.666.044c1.451,0,9.734-.281,15.895-6.441,6.631-6.631,6.45-15.72,6.438-16.104Zm-8.56,13.982c-4.181,4.181-9.67,5.221-12.324,5.479.305-2.708,1.413-8.325,5.445-12.357,4.033-4.033,9.649-5.141,12.357-5.446-.258,2.656-1.298,8.144-5.479,12.325Zm-5.939-3.439c0-1.381,1.119-2.5,2.5-2.5s2.5,1.119,2.5,2.5-1.119,2.5-2.5,2.5-2.5-1.119-2.5-2.5Zm-2,2.5c1.105,0,2,.895,2,2s-.895,2-2,2-2-.895-2-2,.895-2,2-2Zm7-7c0-1.105.895-2,2-2s2,.895,2,2-.895,2-2,2-2-.895-2-2Z"/>
</svg>
