<?xml version="1.0" encoding="UTF-8"?>
<svg xmlns="http://www.w3.org/2000/svg" id="Layer_1" data-name="Layer 1" viewBox="0 0 24 24">
  <path d="M17.08,6.201l-1.371-.792c.049-.27,.049-.549,0-.819l1.371-.792-1.5-2.598-1.366,.788c-.222-.164-.458-.31-.714-.422V0h-3V1.568c-.256,.112-.492,.258-.714,.422l-1.366-.788-1.5,2.598,1.371,.792c-.049,.27-.049,.549,0,.819l-1.371,.792,1.5,2.598,1.366-.788c.222,.164,.458,.31,.714,.422v1.568h3v-1.568c.256-.112,.492-.258,.715-.422l1.366,.789,1.5-2.598Zm-5.08,.299c-.828,0-1.5-.673-1.5-1.5s.672-1.5,1.5-1.5,1.5,.673,1.5,1.5-.672,1.5-1.5,1.5ZM7,23v1H0v-1c0-1.105,.895-2,2-2h3c1.105,0,2,.895,2,2ZM1.5,18c0-1.105,.895-2,2-2s2,.895,2,2-.895,2-2,2-2-.895-2-2Zm21-2h-5c-.828,0-1.5,.672-1.5,1.5v6.5h8v-6.5c0-.828-.672-1.5-1.5-1.5Zm-1,4h-3v-2h3v2Zm-2.408-6.137l-3.362-2.154,2.244-.664c-.15-.539-.35-1.056-.634-1.525,.47-.555,.855-1.182,1.135-1.865,.651,.825,1.121,1.787,1.416,2.822l2.185-.647-1.667,3.643c-.236,.496-.85,.678-1.317,.39Zm-7.092,5.137c.7,0,1.371-.121,2-.334v2.079c-.815,.2-1.715,.321-2.574,.214l-.409,2.393-2.689-3.296c-.362-.457-.248-1.127,.246-1.438l3.627-2.193-.438,2.564c.079,.004,.157,.012,.238,.012ZM6.403,9.269l1.699,3.765-2.317-.69c-.112,.929,.089,1.892,.415,2.721-.628-.578-1.439-.947-2.339-1.029-.125-.738-.146-1.532-.045-2.278l-2.277-.678,3.502-2.218c.484-.297,1.119-.108,1.362,.405Z"/>
</svg>
