<?xml version="1.0" encoding="UTF-8"?>
<svg xmlns="http://www.w3.org/2000/svg" id="Layer_1" data-name="Layer 1" viewBox="0 0 24 24" width="512" height="512"><path d="M6,9h4v-2h2v-3c0-2.206-1.794-4-4-4S4,1.794,4,4v3h2v2Zm3-6h2v2h-2V3Zm-4,2V3h2v2h-2Zm17.732,4.013c-.768-.699-1.765-1.052-2.797-1.008-1.036,.048-1.991,.498-2.69,1.265l-2.438,2.679c-.646-.589-1.507-.949-2.449-.949H3.5c-1.93,0-3.5,1.57-3.5,3.5v6c0,1.93,1.57,3.5,3.5,3.5H14.681l8.334-9.532c1.41-1.581,1.283-4.027-.282-5.455Zm-1.966,3.469l-7.447,8.518H3.5c-.275,0-.5-.224-.5-.5v-6c0-.276,.225-.5,.5-.5H12.357c.354,0,.643,.288,.643,.642,0,.317-.237,.591-.551,.636l-5.161,.737,.424,2.97,5.162-.737c1.618-.231,2.875-1.531,3.093-3.115l3.497-3.843c.159-.175,.376-.277,.612-.288,.231-.006,.463,.071,.636,.229,.356,.325,.385,.881,.055,1.252Z"/></svg>
