<?xml version="1.0" encoding="UTF-8"?>
<svg xmlns="http://www.w3.org/2000/svg" id="Layer_1" data-name="Layer 1" viewBox="0 0 24 24">
  <path d="m15,0v11.807c0,1.638-1.187,3.035-2.701,3.179-.858.083-1.684-.189-2.316-.765-.625-.568-.983-1.377-.983-2.221V0H0v11.652c0,6.689,5,12.348,12.003,12.348,3.164,0,6.142-1.216,8.404-3.437,2.316-2.275,3.593-5.316,3.593-8.563V0h-9Zm6,12c0,2.435-.957,4.716-2.695,6.422-1.736,1.706-4.039,2.618-6.474,2.576-4.869-.089-8.831-4.282-8.831-9.347v-5.652h3v6c0,1.687.716,3.305,1.965,4.44,1.248,1.135,2.932,1.695,4.62,1.532,3.037-.29,5.416-2.998,5.416-6.166v-5.807h3v6Z"/>
</svg>
