<svg id="Layer_1" viewBox="0 0 24 24" xmlns="http://www.w3.org/2000/svg" data-name="Layer 1"><path d="m23.975 10.039-1.472-.522c1.78-2.289 1.643-8.306 1.132-9.15-.794-.501-6.906-.661-9.198 1.154l-.589-1.52c-1.649.743-1.738.431-3.999 2.253l-.462-1.284c-2.1 1.8-3.987 3.162-4.81 6.219l-1.063-.555-.57 1.644c-1.403 4.048-.905 9.28-.635 11.293l-2.306 2.304 2.121 2.121 2.307-2.307c3.593.557 9.216.46 12.935-1.203l-.555-1.062c3.055-.822 4.422-2.714 6.223-4.811l-1.301-.468c1.83-2.316 1.513-2.424 2.241-4.107zm-3.186-4.198c-.591 2.292-1.862 3.635-2.966 5.197l1.997.709c-.417.557-1.007 1.181-1.793 1.657l-2.687 1.63 2.259.812c-.782.468-1.864.892-3.1.892h-2.476l1.008 1.93c-1.995.379-4.16.371-5.85.27l10.801-10.801-2.121-2.121-10.798 10.8c-.102-1.697-.109-3.859.269-5.848l1.93 1.009v-2.477c0-1.235.424-2.318.891-3.101l.813 2.259 1.629-2.687c.48-.792 1.099-1.388 1.647-1.811l.768 1.984c1.814-1.659 5.358-3.549 7.987-3.142.011.65-.026 1.596-.209 2.837z"/></svg>