<?xml version="1.0" encoding="UTF-8"?>
<svg xmlns="http://www.w3.org/2000/svg" id="Layer_1" data-name="Layer 1" viewBox="0 0 24 24">
  <path d="M17.25,11c-1.421,0-2.697,.224-3.75,.618V5c0-2.318-2.839-4-6.75-4S0,2.682,0,5v15.25c0,2.208,2.775,3.75,6.75,3.75,2.213,0,4.053-.479,5.25-1.284,1.197,.805,3.037,1.284,5.25,1.284,3.975,0,6.75-1.542,6.75-3.75v-5.25c0-2.318-2.839-4-6.75-4Zm0,3c2.08,0,3.378,.651,3.701,1-.323,.349-1.621,1-3.701,1s-3.378-.651-3.701-1c.323-.349,1.621-1,3.701-1ZM6.75,4c2.08,0,3.378,.651,3.701,1-.323,.349-1.621,1-3.701,1s-3.378-.651-3.701-1c.323-.349,1.621-1,3.701-1Zm-3.75,4.382c1.053,.394,2.329,.618,3.75,.618s2.697-.224,3.75-.618v1.547c-.188,.321-1.515,1.071-3.75,1.071-2.275,0-3.616-.779-3.75-1v-1.618Zm0,5c1.053,.394,2.329,.618,3.75,.618s2.697-.224,3.75-.618v1.547c-.188,.321-1.515,1.071-3.75,1.071-2.275,0-3.616-.779-3.75-1v-1.618Zm0,6.713v-1.713c1.053,.394,2.329,.618,3.75,.618s2.697-.224,3.75-.618v1.713c-.298,.285-1.544,.905-3.75,.905s-3.452-.62-3.75-.905Zm14.25,.905c-2.206,0-3.452-.62-3.75-.905v-1.713c1.053,.394,2.329,.618,3.75,.618s2.697-.224,3.75-.618v1.713c-.298,.285-1.544,.905-3.75,.905Zm.25-17h-2.516L18.167,.35c.443-.494,1.217-.494,1.66,0l3.157,3.65h-2.484v5h-3V4Z"/>
</svg>
