<?xml version="1.0" encoding="UTF-8"?>
<svg xmlns="http://www.w3.org/2000/svg" id="Layer_1" data-name="Layer 1" viewBox="0 0 24 24">
  <path d="m24,8.5v4.5h-3v-.096l-.854-2.904h.854v-1.5c0-.276-.225-.5-.5-.5H3.5c-.275,0-.5.224-.5.5v1.5h12.881l-.884,3H5v8h7.362l-1.021,3H2v-11H0v-4.5c0-1.93,1.57-3.5,3.5-3.5h2.786c-.109-.029-.183-.049-.186-.051-1.215-.911-1.461-2.634-.55-3.849.911-1.215,2.634-1.461,3.849-.55,1.673,1.255,2.429,3.463,2.601,4.449.172-.986.928-3.194,2.601-4.449,1.215-.911,2.938-.665,3.849.55.911,1.215.665,2.938-.55,3.849-.002.002-.077.022-.185.051h2.784c1.93,0,3.5,1.57,3.5,3.5Zm-5.457,3.137h-1.059l-1.285,4.363h-4.2v1.006l3.079,2.016-1.181,4.022.787.593,3.331-2.338,3.382,2.338.818-.571-1.271-3.982,3.054-2.083v-1h-4.174l-1.283-4.363Z"/>
</svg>
