<svg id="Layer_1" viewBox="0 0 24 24" xmlns="http://www.w3.org/2000/svg" data-name="Layer 1"><path d="m10.5 20h2.272l-.851 3h-1.421c-5.79 0-10.5-4.71-10.5-10.5v-.5h3v.5c0 4.136 3.364 7.5 7.5 7.5zm9.326-3.637-1.283-4.363h-1.059l-1.285 4.363h-4.2v1.006l3.079 2.016-1.181 4.022.787.593 3.331-2.338 3.382 2.338.818-.571-1.271-3.982 3.054-2.083h.002v-1.001zm-9.826 1.33v-3.259c-1.19-.69-2-1.961-2-3.434v-1h3v-3h-3c0-2.206 1.794-4 4-4s4 1.794 4 4h-3v3h6v-3c0-3.86-3.141-7-7-7s-7 3.14-7 7v4c0 3.163 2.114 5.83 5 6.693z"/></svg>