<?xml version="1.0" encoding="UTF-8"?>
<svg xmlns="http://www.w3.org/2000/svg" id="Layer_1" data-name="Layer 1" viewBox="0 0 24 24">
  <path d="M12,0C5.383,0,0,5.383,0,12s5.383,12,12,12,12-5.383,12-12S18.617,0,12,0Zm5.999,14.508c-.33,.788-.806,1.496-1.416,2.103l1.759,1.768c-.83,.825-1.82,1.487-2.918,1.941l-.951-2.306c-.783,.322-1.615,.486-2.473,.486h-.015l.013,2.5c-1.223,0-2.389-.248-3.453-.692l.961-2.303c-.791-.329-1.499-.805-2.106-1.412l-1.766,1.762c-.827-.829-1.492-1.818-1.947-2.916l2.305-.953c-.326-.789-.492-1.625-.492-2.486v-.062l-2.499,.052c.001-1.238,.254-2.419,.71-3.493l2.3,.973c.333-.787,.812-1.492,1.424-2.096l-1.751-1.775c.833-.822,1.826-1.481,2.926-1.93l.94,2.309c.778-.316,1.603-.477,2.485-.478l.004-.5-.031-2c1.233,.001,2.409,.252,3.48,.704l-.969,2.301c.789,.332,1.495,.81,2.099,1.42l1.772-1.754c.823,.831,1.484,1.822,1.935,2.921l-2.307,.947c.32,.78,.482,1.608,.482,2.461v.031l2.5-.026c0,1.228-.25,2.399-.698,3.466l-2.303-.964Zm-1.938-4.447l-1.939,1.939,1.939,1.939-2.121,2.121-1.939-1.939-1.939,1.939-2.121-2.121,1.939-1.939-1.939-1.939,2.121-2.121,1.939,1.939,1.939-1.939,2.121,2.121Z"/>
</svg>
