<?xml version="1.0" encoding="UTF-8"?>
<svg xmlns="http://www.w3.org/2000/svg" id="Layer_1" data-name="Layer 1" viewBox="0 0 24 24">
  <path d="m14.327,14.89c-2.327-1.097-4.042-2.818-5.207-5.227l2.964-2.963L5.442.058,1.798,3.702C.659,4.838.032,6.374.032,8.025.032,15.177,8.823,23.968,15.975,23.968c1.651,0,3.187-.627,4.322-1.765l3.646-3.645-6.642-6.641-2.974,2.973Zm3.848,5.193c-.57.571-1.352.885-2.2.885-4.993,0-12.942-7.067-12.942-12.942,0-.849.314-1.63.886-2.201l1.524-1.524,2.399,2.399-2.269,2.268.369.919c1.59,3.959,4.348,6.712,8.195,8.18l.908.347,2.255-2.255,2.399,2.399-1.525,1.525Zm.825-10.083c2.761,0,5-2.239,5-5S21.761,0,19,0s-5,2.239-5,5,2.239,5,5,5Zm-1-8h2v2.586l1.707,1.707-1.414,1.414-2.293-2.293v-3.414Z"/>
</svg>
