<?xml version="1.0" encoding="UTF-8"?>
<svg xmlns="http://www.w3.org/2000/svg" id="Layer_1" data-name="Layer 1" viewBox="0 0 24 24">
  <path d="m10,21h4v3h-4v-3ZM21,2h-3V0h-3v2h-6V0h-3v2h-3c-1.654,0-3,1.346-3,3v7.027c.721-.969,1.773-1.778,3-2.027h18c1.227.249,2.279,1.059,3,2.027v-7.027c0-1.654-1.346-3-3-3ZM6,20H2c-1.105,0-2,.895-2,2v2h8v-2c0-1.105-.895-2-2-2Zm1-5c0-1.657-1.343-3-3-3s-3,1.343-3,3,1.343,3,3,3,3-1.343,3-3Zm15,5h-4c-1.105,0-2,.895-2,2v2h8v-2c0-1.105-.895-2-2-2Zm1-5c0-1.657-1.343-3-3-3s-3,1.343-3,3,1.343,3,3,3,3-1.343,3-3Z"/>
</svg>
