<?xml version="1.0" encoding="UTF-8"?>
<svg xmlns="http://www.w3.org/2000/svg" id="Layer_1" data-name="Layer 1" viewBox="0 0 24 24">
  <path d="m14.953,9.466c.224,1.271-.381,2.542-1.506,3.163-.188.103-.447.563-.447.876v.495h-2v-.495c0-1.033.637-2.163,1.481-2.628.289-.16.595-.535.502-1.065-.069-.393-.402-.726-.793-.794-.31-.058-.603.022-.832.216-.228.19-.358.47-.358.767h-2c0-.889.391-1.727,1.072-2.299.681-.571,1.579-.813,2.464-.653,1.21.211,2.205,1.206,2.417,2.418ZM6.5,5c-.828,0-1.5.672-1.5,1.5s.672,1.5,1.5,1.5,1.5-.672,1.5-1.5-.672-1.5-1.5-1.5Zm0,11c-.828,0-1.5.672-1.5,1.5s.672,1.5,1.5,1.5,1.5-.672,1.5-1.5-.672-1.5-1.5-1.5Zm4.5,1h2v-2h-2v2ZM24,3.5v20.5H0V3.5C0,1.57,1.57,0,3.5,0h17c1.93,0,3.5,1.57,3.5,3.5Zm-3,0c0-.275-.225-.5-.5-.5H3.5c-.275,0-.5.225-.5.5v17.5h18V3.5Zm-3.5,12.5c-.828,0-1.5.672-1.5,1.5s.672,1.5,1.5,1.5,1.5-.672,1.5-1.5-.672-1.5-1.5-1.5Zm0-11c-.828,0-1.5.672-1.5,1.5s.672,1.5,1.5,1.5,1.5-.672,1.5-1.5-.672-1.5-1.5-1.5Z"/>
</svg>
