<svg id="Layer_1" viewBox="0 0 24 24" xmlns="http://www.w3.org/2000/svg" data-name="Layer 1"><path d="m21 16.5h-.01c1.315-.577 2.401-1.621 3.01-2.984-1.172.305-2.275.484-3.5.484h-1.5v-4.504c1.31-.578 2.393-1.621 3-2.98-1.172.305-2.275.484-3.5.484h-2.5v-2.94c.878-.164 1.725-.514 2.47-1.06-1.196-.304-2.357-.753-3.448-1.349-.045-.024-2.981-1.628-3.022-1.651-.054.029-2.921 1.621-2.975 1.651-1.091.596-2.252 1.045-3.448 1.349.732.537 1.562.886 2.423 1.054v2.946h-2.5c-1.225 0-2.328-.179-3.5-.484.607 1.359 1.69 2.403 3 2.98v4.504h-1.5c-1.225 0-2.328-.179-3.5-.484.609 1.363 1.695 2.407 3.01 2.984h-.01v4.5h-3v3h24v-3h-3zm-8 .5v4h-2v-4zm3 0h2v4h-2zm-5-13.122c.349-.11.693-.241 1.024-.417.315.168.644.295.976.403v3.136h-2zm-3 6.122h8v4h-8zm-2 7h2v4h-2z"/></svg>