<?xml version="1.0" encoding="UTF-8"?>
<svg xmlns="http://www.w3.org/2000/svg" id="Layer_1" data-name="Layer 1" viewBox="0 0 24 24">
  <path d="m21,0H3C1.346,0,0,1.346,0,3v21h17.496l6.504-6.504V3c0-1.654-1.346-3-3-3Zm-6.5,3h1.276c-.008.512-.017,1.558-.022,2.222-.002.277.222.498.499.499l.969.002.004-2.723h1.253v6.069h-1.25v-2.096h-1.23c-.828-.002-1.499-.673-1.499-1.501v-2.472Zm-5,0h1.967c1.109,0,2.012.891,2.012,1.985s-.902,1.985-2.012,1.985l-.717.003v2.096h-1.25V3Zm-6.115.759c.032-.535.358-.759.749-.759.26,0,.501.184.638.486l.883,1.942.883-1.942c.137-.302.378-.486.638-.486.391,0,.717.224.749.759l.385,5.31h-1.217l-.242-3.339-1.196,2.631-1.196-2.631-.242,3.339h-1.217l.385-5.31Zm17.615,11.241h-6v6H3v-10h18v4ZM10.757,5.723l-.005-1.473h.715c.413,0,.762.336.762.735s-.349.735-.762.735l-.71.003Z"/>
</svg>
