<?xml version="1.0" encoding="UTF-8"?>
<svg xmlns="http://www.w3.org/2000/svg" id="Layer_1" data-name="Layer 1" viewBox="0 0 24 24">
  <path d="m23.496,2.379c-.108-.097-2.717-2.379-6.246-2.379-2.276,0-4.163.947-5.25,1.647-1.087-.7-2.974-1.647-5.25-1.647C3.221,0,.612,2.282.504,2.379l-.504.447v21.174h3v-2h7.5v2h3v-2h7.5v2h3V2.826l-.504-.447Zm-2.496,1.87v.751h-7.5v-.748c.708-.478,2.101-1.252,3.75-1.252,1.636,0,3.037.77,3.75,1.249Zm-14.25-1.249c1.636,0,3.037.77,3.75,1.249v.751H3v-.752c.713-.479,2.113-1.248,3.75-1.248Zm-3.75,16v-11h7.5v4h-2.5v3h2.5v4H3Zm10.5,0v-11h7.5v4h-3v3h3v4h-7.5Z"/>
</svg>
