<?xml version="1.0" encoding="UTF-8"?>
<svg xmlns="http://www.w3.org/2000/svg" id="Layer_1" data-name="Layer 1" viewBox="0 0 24 24">
  <path d="M20,15.051v-3.051h-4v3h-2v-3h-4v3h-2v-3H4v3.051c-2.244,.252-4,2.139-4,4.449,0,2.481,2.019,4.5,4.5,4.5h15c2.481,0,4.5-2.019,4.5-4.5,0-2.31-1.756-4.197-4-4.449Zm-4.724,2.949c-.168,.471-.276,.971-.276,1.5s.108,1.029,.276,1.5h-6.553c.168-.471,.276-.971,.276-1.5s-.108-1.029-.276-1.5h6.553Zm-12.276,1.5c0-.827,.673-1.5,1.5-1.5s1.5,.673,1.5,1.5-.673,1.5-1.5,1.5-1.5-.673-1.5-1.5Zm16.5,1.5c-.827,0-1.5-.673-1.5-1.5s.673-1.5,1.5-1.5,1.5,.673,1.5,1.5-.673,1.5-1.5,1.5ZM24,0V3H7v1.248l8.947,1.627c1.189,.216,2.053,1.25,2.053,2.459v1.666h-1.5s0-1.5-1-1.5-1,1.5-1,1.5h-1.5v-1.612l-9-1.636V3H0V0H24Z"/>
</svg>
