<?xml version="1.0" encoding="UTF-8"?>
<svg xmlns="http://www.w3.org/2000/svg" id="Layer_1" data-name="Layer 1" viewBox="0 0 24 24">
  <path d="M24,17h-1.589c-.672,1.654-1.882,3.03-3.411,3.918v3.082h-6v-2h-2v2H5v-3.082c-2.387-1.386-4-3.964-4-6.918,0-1.305,.328-2.53,.886-3.619-1.128-.708-1.886-1.954-1.886-3.381C0,4.794,1.794,3,4,3v3c-.551,0-1,.449-1,1,0,.477,.343,.859,.791,.958,.347-.299,.71-.58,1.104-.816,.304,.493,.676,.937,1.105,1.322v1.562c-1.207,.914-2,2.348-2,3.974,0,2.757,2.243,5,5,5h6c2.757,0,5-2.243,5-5s-2.243-5-5-5h-1.686c1.061-.705,1.88-1.739,2.321-2.956,.005,0,.009,.001,.013,.002,1.054-3.029,4.351-3.046,4.351-3.046V7.784c1.055,.846,1.895,1.947,2.413,3.216h1.587v6Zm-6-4.5c0-.828-.672-1.5-1.5-1.5s-1.5,.672-1.5,1.5,.672,1.5,1.5,1.5,1.5-.672,1.5-1.5ZM6.056,3.322C6.336,1.616,7.767,.248,9.482,.033c.669-.084,1.308-.003,1.901,.208,1.322,.469,2.316,1.664,2.555,3.046,.29,1.677-.467,3.202-1.723,4.038-.433,.289-.716,.754-.716,1.274v1.401h-3v-1.403c0-.518-.277-.982-.709-1.268-1.251-.83-2.01-2.341-1.735-4.008Zm2.694,.678c0,.69,.56,1.25,1.25,1.25s1.25-.56,1.25-1.25-.56-1.25-1.25-1.25-1.25,.56-1.25,1.25Z"/>
</svg>
