<?xml version="1.0" encoding="UTF-8"?>
<svg xmlns="http://www.w3.org/2000/svg" id="Layer_1" data-name="Layer 1" viewBox="0 0 24 24">
  <path d="M24,20c0,1.654-1.346,3-3,3v1h-2v-1c-1.654,0-3-1.346-3-3h2c0,.552,.448,1,1,1h2c.552,0,1-.448,1-1,0-.379-.271-.698-.645-.761l-3.04-.506c-1.342-.224-2.315-1.374-2.315-2.733,0-1.654,1.346-3,3-3v-1h2v1c1.654,0,3,1.346,3,3h-2c0-.552-.448-1-1-1h-2c-.552,0-1,.448-1,1,0,.379,.271,.698,.645,.761l3.04,.506c1.342,.224,2.315,1.374,2.315,2.733Zm-9.924,.749c.161,1.059,.64,2.013,1.357,2.745-1.089,.326-2.24,.506-3.433,.506C5.383,24,0,18.617,0,12S5.383,0,12,0c5.934,0,10.863,4.334,11.819,10h-3.054c-.681-2.986-2.847-5.412-5.678-6.451,.937,1.769,1.92,4.197,2.196,6.951l.032,.808c-1.106,.405-2.032,1.185-2.62,2.192h-4.961c.428,3.415,2.167,6.27,2.99,7.455,.459-.04,.912-.102,1.351-.206Zm.189-10.249c-.324-2.589-1.406-4.857-2.269-6.321-.858,1.453-1.937,3.727-2.261,6.321h4.53Zm-11.129,0h3.579c.274-2.756,1.243-5.17,2.183-6.937-2.982,1.1-5.221,3.73-5.762,6.937Zm5.769,9.94c-.939-1.768-1.913-4.188-2.189-6.94H3.135c.542,3.21,2.784,5.841,5.769,6.94Z"/>
</svg>
