<svg id="Layer_1" viewBox="0 0 24 24" xmlns="http://www.w3.org/2000/svg" data-name="Layer 1"><path d="m24 18c-3.349 0-6.626-1.158-9.452-3.059.986-.572 2.081-.96 3.155-1.336 1.642-.576 3.193-1.12 4.354-2.281 2.586-2.586 2.586-6.794 0-9.381-2.586-2.586-6.795-2.586-9.381 0-1.161 1.161-1.705 2.712-2.281 4.354-.376 1.073-.764 2.168-1.336 3.155-1.901-2.826-3.059-6.103-3.059-9.452h-3c0 3.233.921 6.411 2.494 9.281-3.163.88-5.494 3.779-5.494 7.219 0 4.136 3.364 7.5 7.5 7.5 3.44 0 6.339-2.331 7.219-5.494 2.869 1.573 6.047 2.494 9.281 2.494zm-10.774-10.709c.48-1.368.894-2.549 1.571-3.226 1.417-1.417 3.722-1.417 5.138 0s1.417 3.722 0 5.138c-.677.677-1.858 1.092-3.226 1.571-1.49.523-3.135 1.109-4.629 2.201-.365-.339-.716-.691-1.056-1.056 1.092-1.494 1.678-3.139 2.201-4.628zm-5.726 13.709c-2.481 0-4.5-2.019-4.5-4.5 0-2.401 1.894-4.351 4.265-4.476 1.337 1.778 2.933 3.375 4.711 4.711-.125 2.37-2.075 4.265-4.476 4.265z"/></svg>