<?xml version="1.0" encoding="UTF-8"?>
<svg xmlns="http://www.w3.org/2000/svg" id="Layer_1" data-name="Layer 1" viewBox="0 0 24 24">
  <path d="M3.5,21h5.5v3H3.5c-1.93,0-3.5-1.57-3.5-3.5V3.5C0,1.57,1.57,0,3.5,0h5.5V3H3.5c-.276,0-.5,.224-.5,.5V20.5c0,.275,.224,.5,.5,.5ZM24,11.99c0,.882-.343,1.71-.968,2.333l-10.032,9.704v-7.038H6V7h7V-.026l10.029,9.683c.626,.622,.971,1.45,.971,2.333Zm-3,.001c0-.054-.014-.132-.081-.202l-4.919-4.749v2.948h-7v4.012h7v2.95l4.93-4.769c.055-.055,.07-.135,.07-.19Z"/>
</svg>
