<?xml version="1.0" encoding="UTF-8"?>
<svg xmlns="http://www.w3.org/2000/svg" id="Layer_1" data-name="Layer 1" viewBox="0 0 24 24">
  <path d="M19.386,12.188c-.349-3.736-.851-7.312-1.138-9.216-.259-1.722-1.714-2.972-3.46-2.972h-3.789V3h3.789c.25,0,.457,.176,.493,.418,.164,1.087,.399,2.734,.635,4.636-1.843,.136-4.584,.554-7.112,1.77l-.656-1.804h1.851v-3H3v3h1.956l1.255,3.452c-1.142,.951-2.122,2.158-2.793,3.694-1.958,.488-3.418,2.247-3.418,4.354,0,2.481,2.019,4.5,4.5,4.5s4.5-2.019,4.5-4.5c0-1.721-.982-3.201-2.404-3.958,2.161-3.507,7.07-4.331,9.663-4.515,.042,.398,.083,.797,.121,1.202-2.523,.709-4.38,3.025-4.38,5.772,0,3.309,2.691,6,6,6s6-2.691,6-6c0-2.831-1.973-5.204-4.614-5.832ZM4.5,21.02c-.827,0-1.5-.673-1.5-1.5s.673-1.5,1.5-1.5,1.5,.673,1.5,1.5-.673,1.5-1.5,1.5Zm13.5,0c-1.654,0-3-1.346-3-3s1.346-3,3-3,3,1.346,3,3-1.346,3-3,3Z"/>
</svg>
