<svg id="Layer_1" viewBox="0 0 24 24" xmlns="http://www.w3.org/2000/svg" data-name="Layer 1"><path d="m21 19.5v4.5h-3v-4.5c0-1.021-.626-1.91-1.536-2.288l-4.44 4.819-4.471-4.827c-.92.373-1.554 1.267-1.554 2.296v4.5h-2.999v-4.5c0-2.796 2.104-5.138 4.895-5.447l.752-.083 3.372 3.64 3.355-3.642.758.088c2.775.321 4.868 2.662 4.868 5.444zm-15-13.5c0-3.309 2.691-6 6-6s6 2.691 6 6-2.691 6-6 6-6-2.691-6-6zm9 0c0-1.002-.499-1.886-1.256-2.431-.872 1.452-2.447 2.431-4.265 2.431-.162 0-.315-.033-.474-.048 0 .016-.005.031-.005.048 0 1.654 1.346 3 3 3s3-1.346 3-3z"/></svg>