<?xml version="1.0" encoding="UTF-8"?>
<svg xmlns="http://www.w3.org/2000/svg" id="Layer_1" data-name="Layer 1" viewBox="0 0 24 24">
  <path d="m17.999,2.287C16.09.581,13.53-.226,10.962.059,6.91.517,3.595,3.783,3.08,7.825c-.36,2.83.857,6.01,3.105,8.102,1.173,1.092,1.819,2.466,1.819,3.87v4.204h8v-4.048c0-1.422.83-3.223,1.932-4.188,1.95-1.708,3.068-4.174,3.068-6.764,0-2.56-1.096-5.007-3.006-6.713Zm-2.039,11.221c-1.278,1.12-2.245,2.785-2.687,4.492h-2.488c-.38-1.58-1.251-3.055-2.556-4.269-1.239-1.154-2.448-3.375-2.173-5.527.342-2.688,2.547-4.859,5.242-5.164,1.742-.198,3.409.33,4.701,1.484,1.274,1.138,2.005,2.77,2.005,4.476,0,1.726-.745,3.369-2.045,4.508Zm-2.245-7.008h1.791v1.987c-.489-.148-.977-.237-1.25-.237-.69,0-1.25.56-1.25,1.25,0,.69.56,1.25,1.25,1.25.273,0,.761-.088,1.25-.237v1.987s-6,0-6,0v-1.8c-.368.089-.704.14-.917.14-.74,0-1.34-.6-1.34-1.34,0-.74.6-1.34,1.34-1.34.213,0,.549.052.917.14v-1.801h1.816c-.091-.373-.143-.714-.143-.93,0-.74.6-1.34,1.34-1.34.74,0,1.34.6,1.34,1.34,0,.216-.052.556-.143.93Z"/>
</svg>
