<?xml version="1.0" encoding="UTF-8"?>
<svg xmlns="http://www.w3.org/2000/svg" id="Layer_1" data-name="Layer 1" viewBox="0 0 24 24">
  <path d="M16.921,14.093c1.122-2.401,2.079-5.048,2.079-7.093,0-3.86-3.14-7-7-7S5,3.14,5,7c0,2.045,.957,4.692,2.079,7.093-2.317,.435-4.079,2.466-4.079,4.907v5h3v-5c0-1.103,.897-2,2-2h.562c.91,1.655,1.695,2.891,1.938,3.267v3.733h3v-3.733c.243-.376,1.028-1.612,1.938-3.267h.562c1.103,0,2,.897,2,2v5h3v-5c0-2.441-1.761-4.472-4.079-4.907ZM12,5c1.661,0,4,.621,4,2,0,2.567-2.347,7.144-4,9.971-1.653-2.827-4-7.404-4-9.971,0-1.379,2.339-2,4-2Z"/>
</svg>
