<?xml version="1.0" encoding="UTF-8"?>
<svg xmlns="http://www.w3.org/2000/svg" id="Layer_1" data-name="Layer 1" viewBox="0 0 24 24">
  <path d="m23.45,20.144l-3.45-4.134v-3.01h1v-2h-6v2h1v3.01l-3.45,4.133c-.589.705-.715,1.703-.323,2.542.38.812,1.159,1.315,2.033,1.315h7.48c.874,0,1.653-.504,2.033-1.315.392-.839.266-1.837-.323-2.541Zm-7.708.856l2.258-2.704,2.258,2.704h-4.516Zm-6.742-9c3.309,0,6-2.691,6-6S12.309,0,9,0,3,2.691,3,6s2.691,6,6,6Zm0-9c1.654,0,3,1.346,3,3s-1.346,3-3,3-3-1.346-3-3,1.346-3,3-3Zm5,12.285l-5,5.715-3.5-4h-.5c-1.103,0-2,.897-2,2v5H0v-5c0-2.757,2.243-5,5-5h1.644l2.356,2.692,2.356-2.692h2.644v1.285Z"/>
</svg>
