<?xml version="1.0" encoding="UTF-8"?>
<svg xmlns="http://www.w3.org/2000/svg" id="Layer_1" data-name="Layer 1" viewBox="0 0 24 24">
  <path d="m22.768,18.146l-4.826-4.788c2.831-3.136,2.737-7.994-.284-11.017-1.512-1.51-3.521-2.342-5.657-2.342s-4.146.832-5.657,2.343c-3.021,3.021-3.115,7.879-.284,11.016l-4.826,4.788,6.048,5.888,4.72-4.72,4.721,4.72,6.047-5.888Zm-6.02,1.673l-8.284-8.283c-1.399-1.4-1.794-3.429-1.184-5.184.764,1.941,2.889,3.711,3.737,4.362l7.472,7.413-1.74,1.692Zm-2.526-10.151c.924-.857,2.001-2.05,2.499-3.316.568,1.636.263,3.509-.913,4.89l-1.586-1.573Zm-.222-4.668c0,.48-.888,1.612-2,2.626-1.112-1.014-2-2.146-2-2.626,0-1.103.897-2,2-2s2,.897,2,2Zm-6.749,14.819l-1.739-1.692,2.661-2.64,1.706,1.706-2.627,2.627Z"/>
</svg>
