<?xml version="1.0" encoding="UTF-8"?>
<svg xmlns="http://www.w3.org/2000/svg" id="Layer_1" data-name="Layer 1" viewBox="0 0 24 24">
  <path d="m24,6.5v14.121l-3.379,3.379h-4.242l4.621-4.621v-2.996l-3.325,3.3-2.113-2.129,3.318-3.293c.194-.322.147-.746-.123-1.017-.324-.324-.85-.324-1.174,0l-3.886,3.886c.184.554.303,1.132.303,1.733v5.138h-3v-5.138c0-.667-.261-1.295-.732-1.768l-3.769-3.769c-.323-.323-.824-.403-1.14-.18-.244.173-.325.398-.35.556-.03.196.009.392.11.559l3.318,3.294-2.113,2.129-3.325-3.321v3.017l4.621,4.621H3.379l-3.379-3.379V6.5c0-1.465,1.265-2.639,2.761-2.487,1.301.132,2.239,1.326,2.239,2.633v3.458c1.258-.268,2.629.108,3.62,1.098l3.38,3.381,3.462-3.462c.958-.959,2.302-1.294,3.538-1.021v-3.455c0-1.307.939-2.501,2.239-2.633,1.495-.152,2.761,1.022,2.761,2.487Zm-15.318,3.205l.601.453,2.729-2.11,2.717,2.101.625-.436-1.105-3.357,2.75-1.591v-.764h-3.605l-.98-3.75h-.809l-.981,3.75h-3.625v.769l2.769,1.54-1.086,3.396Z"/>
</svg>
