<?xml version="1.0" encoding="UTF-8"?>
<svg xmlns="http://www.w3.org/2000/svg" id="Layer_1" data-name="Layer 1" viewBox="0 0 24 24">
  <path d="M17.979,6h-1.979v2.264c.962,.673,1.74,1.585,2.266,2.643l-4.628,.925c-1.12,.224-2.272,.224-3.392,0l-4.523-.904c.526-1.067,1.308-1.987,2.276-2.664v-2.264h-1.979c-2.437,1.824-4.021,4.728-4.021,8,0,5.514,4.486,10,10,10s10-4.486,10-10c0-3.272-1.584-6.176-4.021-8Zm-7.598,14.803c-2.984-.71-5.227-3.331-5.365-6.496l2.257,.451c.944,.189,1.754,.787,2.213,1.634l.505,.933c.256,.473,.391,1.003,.391,1.542v1.936Zm3.238,0v-1.936c0-.538,.134-1.068,.391-1.542l.505-.933c.458-.846,1.269-1.445,2.212-1.634l2.257-.451c-.139,3.164-2.382,5.785-5.365,6.496ZM10.5,4h-2.648L11.43,.297c.355-.395,.974-.395,1.328,0l3.667,3.703h-2.925v6h-3V4Z"/>
</svg>
