<?xml version="1.0" encoding="UTF-8"?>
<svg xmlns="http://www.w3.org/2000/svg" id="Layer_1" data-name="Layer 1" viewBox="0 0 24 24">
  <path d="m21.268,19.732c.976.976.976,2.559,0,3.536-.488.488-1.128.732-1.768.732-.64,0-1.28-.244-1.768-.732-.976-.976-.976-2.559,0-3.536l1.768-1.729,1.768,1.729Zm2.732-5.232v2.5h-9v-2.5c0-.275-.224-.5-.5-.5H0v-3h8v-3H0v-3h8v-2h-4V0h11v3h-4v2h3.5c5.238,0,9.5,4.262,9.5,9.5Zm-3.019-.5c-.256-3.352-3.065-6-6.481-6h-3.5v3h3.5c1.76,0,3.221,1.306,3.464,3h3.017Z"/>
</svg>
