<svg id="Layer_1" viewBox="0 0 24 24" xmlns="http://www.w3.org/2000/svg" data-name="Layer 1"><path d="m14.187 5.517 2.271 1.96c-.062.072-.838.959-2.234 1.824l.871 1.411-2.553 1.576-1.08-1.749c-.512.152-1.06.272-1.643.352v2.109h-3v-2.109c-.583-.08-1.131-.2-1.643-.352l-1.08 1.749-2.553-1.576.871-1.411c-1.396-.866-2.172-1.752-2.234-1.825l2.271-1.96c.089.102 2.226 2.483 5.867 2.483s5.778-2.381 5.867-2.483zm.632-5.517c-2.111 0-3.573 1.241-4.169 2.055-.167.166-1.021.945-2.331.945-1.46 0-2.338-.951-2.374-.991l-2.265 1.968c.178.208 1.817 2.023 4.639 2.023s4.461-1.816 4.639-2.023c.181-.192.563-.917 1.861-.977h9v-3zm6.5 5-1.647 2.444c-.556.826-.853 1.798-.853 2.794v11.262c0 1.381 1.119 2.5 2.5 2.5s2.5-1.119 2.5-2.5v-11.262c0-.995-.297-1.968-.853-2.794z"/></svg>