<?xml version="1.0" encoding="UTF-8"?>
<svg xmlns="http://www.w3.org/2000/svg" id="Layer_1" data-name="Layer 1" viewBox="0 0 24 24">
  <path d="m13.41,6.351l-2.064-2.176,2.647-2.513,2.064,2.176-2.647,2.513Zm-7.979-2.208L2.751,1.63.698,3.818l2.68,2.513,2.053-2.188ZM10,0h-3v5h3V0Zm7.133,9.492l4.211-4.02c.54-.516.671-1.382.249-1.998-.538-.785-1.612-.866-2.271-.237l-10.952,10.454-.255-3.406c-.076-1.125-1.049-1.975-2.174-1.899-1.125.076-1.975,1.049-1.899,2.174l.542,9.055L0,24h4.405l4.418-4.255-.162-2.166,6.229-5.946,4.293,7.73-4.858,4.637h4.345l4.261-4.067-5.798-10.44Z"/>
</svg>
