<?xml version="1.0" encoding="UTF-8"?>
<svg xmlns="http://www.w3.org/2000/svg" id="Layer_1" data-name="Layer 1" viewBox="0 0 24 24">
  <path d="m12,11.994l3.535-3.458c.945-.944,1.465-2.2,1.465-3.536s-.52-2.591-1.464-3.535-2.2-1.465-3.536-1.465-2.591.521-3.536,1.465c-.944.943-1.464,2.199-1.464,3.535s.52,2.592,1.476,3.547l3.524,3.447Zm-1.415-8.408c.378-.378.88-.586,1.415-.586s1.036.208,1.414.586h0c.377.378.585.88.585,1.414s-.208,1.036-.574,1.402l-1.426,1.395-1.415-1.383c-.377-.378-.585-.88-.585-1.414s.208-1.036.585-1.414Zm11.639,5.436c-.23-1.668-1.638-2.927-3.305-3.006-.156,1.078-.556,2.095-1.179,2.985h1.017c.249,0,.461.186.496.432l.287,2.085-9.045,4.111-5.884-5.205.137-.991c.034-.246.247-.432.496-.432h1.021c-.626-.895-1.026-1.911-1.182-2.985-1.667.079-3.075,1.338-3.306,3.007L.014,21.795l-.014,2.205h24v-2l-1.776-12.979ZM4.119,13.992l7.922,7.008H3.152l.966-7.008Zm12.449,7.008l-3.613-3.196,7.013-3.188.88,6.383h-4.28Z"/>
</svg>
