<svg id="Layer_1" viewBox="0 0 24 24" xmlns="http://www.w3.org/2000/svg" data-name="Layer 1"><path d="m7.5 12c-1.231.181-2.38.661-3.358 1.381.006-.026.004-.052.011-.078l1.371-7.57c.497-3.272 3.272-5.732 6.477-5.732s5.979 2.46 6.477 5.732 0 0 0 0l1.371 7.57c.007.026.005.052.011.078-.978-.72-2.128-1.2-3.358-1.381l-.984-5.787c-.159-1.103-.802-2.055-1.666-2.631-1.349 1.418-2.349 2.418-4.849 2.418 0 1.654 1.346 3 3 3 .57 0 1.326-.18 1.826-.579l.525 3.085c-.724.311-1.515.495-2.351.495h-4.503zm8.632 2.056-.759-.087-3.354 3.641-3.371-3.64-.752.083c-2.791.309-4.896 2.65-4.896 5.446v4.5h3v-4.5c0-1.029.634-1.923 1.554-2.295l4.471 4.826 4.439-4.819c.91.378 1.536 1.268 1.536 2.288v4.5h3v-4.5c0-2.782-2.093-5.122-4.868-5.444z"/></svg>