<?xml version="1.0" encoding="UTF-8"?>
<svg xmlns="http://www.w3.org/2000/svg" id="Layer_1" data-name="Layer 1" viewBox="0 0 24 24">
  <path d="m12.023,24h-7.523c-1.379,0-2.5-1.121-2.5-2.5V6H0v-3h5v-.5c0-1.379,1.121-2.5,2.5-2.5h7c1.379,0,2.5,1.121,2.5,2.5v.5h5v3h-2v3.374c-.79-.243-1.63-.374-2.5-.374-.168,0-.334.005-.5.015v-3.015H5v15h4.752c.526,1.163,1.307,2.187,2.272,3Zm11.977-6.5c0,3.59-2.91,6.5-6.5,6.5s-6.5-2.91-6.5-6.5,2.91-6.5,6.5-6.5,6.5,2.91,6.5,6.5Zm-3.096,1.283l-1.904-1.904v-2.879h-3v4.121l2.783,2.783,2.121-2.121Zm-10.904-9.783h-3v9h2.015c-.01-.166-.015-.332-.015-.5,0-1.447.362-2.81,1-4.003v-4.497Z"/>
</svg>
