<?xml version="1.0" encoding="UTF-8"?>
<svg xmlns="http://www.w3.org/2000/svg" id="Layer_1" data-name="Layer 1" viewBox="0 0 24 24">
  <path d="m7,8v6h2v2h-4v-8h2Zm13,8h4v-2h-2v-1h2v-2h-2v-1h2v-2h-4v8Zm-10-8v8h2v-8h-2Zm3,0v.5l2.115,7.5h1.783l2.065-7.225.038-.775h-2v.36l-1,3.5-1-3.5v-.36h-2ZM3,12.5c0-.828-.672-1.5-1.5-1.5s-1.5.672-1.5,1.5.672,1.5,1.5,1.5,1.5-.672,1.5-1.5Zm18,6.5H3v-3.35c-.456.218-.961.35-1.5.35s-1.044-.132-1.5-.35v6.35h24v-4h-3v1Zm-.5-17H3.5c-1.93,0-3.5,1.57-3.5,3.5v3.85c.456-.218.961-.35,1.5-.35s1.044.132,1.5.35v-3.85c0-.276.224-.5.5-.5h17c.275,0,.5.224.5.5v.5h3v-.5c0-1.93-1.57-3.5-3.5-3.5Z"/>
</svg>
