<?xml version="1.0" encoding="UTF-8"?>
<svg xmlns="http://www.w3.org/2000/svg" id="Layer_1" data-name="Layer 1" viewBox="0 0 24 24">
  <path d="M23.344,6.517c-.86-1.365-1.764-2.526-2.688-3.451-.836-.835-1.817-1.626-2.917-2.351-1.867-1.229-4.323-.849-5.715,.883L7.752,6.912c-.67,.833-.882,1.894-.653,2.869L1.025,15.854c-.661,.661-1.025,1.54-1.025,2.475v5.672s5.499,0,5.499,0c1.378,0,2.5-1.121,2.5-2.5v-.499h2.001v-2h1.643l2.236-2.206c1.07,.391,2.261,.212,3.184-.505l5.284-4.123c1.742-1.359,2.171-3.789,.998-5.651ZM7,16.001v2h-2.001v2.999h-2v-2.672c0-.132,.054-.26,.147-.354l5.719-5.718,2.653,2.653-1.106,1.091h-3.412Zm13.5-6.199l-5.283,4.123c-.142,.109-.344,.098-.471-.029l-4.63-4.63c-.128-.128-.139-.332-.025-.474L14.361,3.477c.423-.527,1.172-.624,1.727-.257,2.088,1.389,3.318,2.694,4.717,4.895h0c.349,.554,.218,1.279-.305,1.687Zm-4.44-4.863l3,3-2.121,2.121-3-3,2.121-2.121Z"/>
</svg>
