<?xml version="1.0" encoding="UTF-8"?>
<svg xmlns="http://www.w3.org/2000/svg" id="Layer_1" data-name="Layer 1" viewBox="0 0 24 24">
  <path d="m23.931,20.21l-1.679-4.647-1.202,2.191-2.051-1.125v-6.202l-5.5-3.144v-2.283h2.5l-3.267-3.707c-.405-.391-1.062-.391-1.467,0l-3.267,3.707h2.5v2.283l-5.5,3.144v6.202l-2.051,1.125-1.202-2.191L.069,20.21c-.148.543.168,1.119.705,1.286l4.821,1.081-1.203-2.192,2.035-1.117,5.572,3.185,5.572-3.185,2.035,1.117-1.203,2.192,4.821-1.081c.537-.167.853-.743.705-1.286Zm-11.931-7.07l-2.852-1.63,2.852-1.63,2.852,1.63-2.852,1.63Zm-4,.017l3,1.714v3.555l-3-1.715v-3.554Zm5,5.268v-3.555l3-1.714v3.554l-3,1.715Z"/>
</svg>
