<svg id="Layer_1" viewBox="0 0 24 24" xmlns="http://www.w3.org/2000/svg" data-name="Layer 1"><path d="m20 8h1v-3h-1c0-2.757-2.243-5-5-5h-6c-2.757 0-5 2.243-5 5h-1v3h1c0 1.641.806 3.088 2.031 4-1.225.912-2.031 2.359-2.031 4h-1v3h1c0 2.757 2.243 5 5 5h6c2.757 0 5-2.243 5-5h1v-3h-1c0-1.641-.806-3.088-2.031-4 1.225-.912 2.031-2.359 2.031-4zm-11-5h6c1.103 0 2 .897 2 2h-10c0-1.103.897-2 2-2zm8 5c0 1.103-.897 2-2 2h-6c-1.103 0-2-.897-2-2zm-2 13h-6c-1.103 0-2-.897-2-2h10c0 1.103-.897 2-2 2zm-8-5c0-1.103.897-2 2-2h6c1.103 0 2 .897 2 2z"/></svg>