<?xml version="1.0" encoding="UTF-8"?>
<svg xmlns="http://www.w3.org/2000/svg" id="Layer_1" data-name="Layer 1" viewBox="0 0 24 24">
  <path d="m21.479,13.364c1.307-1.257,2.521-3.471,2.521-7.364h-3c0,5.128-2.579,5.91-2.975,6h-1.57L10.09,0l-2.583,12h-1.856l1.78-8.073L5.077,0l-2.576,12H0v1.5c0,1.538.466,2.969,1.263,4.16l-1.263,5.575v.764h2.907l.938-3.953c.553.31,1.148.552,1.775.714l-.697,3.239h3.067l.633-3h9.188l1.553,3h3.379l-1.553-3h2.809v-2.5c0-2.086-.988-3.946-2.521-5.136Zm-18.222,1.636h3.604l-.608,2.824c-1.395-.403-2.514-1.464-2.996-2.824Zm6.633,0h2.551l-1.552-3h-.366l.758-3.594,3.412,6.594h2.807c1.76,0,3.221,1.306,3.465,3h-11.708l.633-3Z"/>
</svg>
