<?xml version="1.0" encoding="UTF-8"?>
<svg xmlns="http://www.w3.org/2000/svg" id="Layer_1" data-name="Layer 1" viewBox="0 0 24 24">
  <path d="m22.733,9.014c-.769-.699-1.766-1.057-2.798-1.01-1.036.049-1.991.498-2.69,1.266l-2.438,2.68c-.647-.59-1.507-.949-2.449-.949H3.5c-1.93,0-3.5,1.57-3.5,3.5v6c0,1.93,1.57,3.5,3.5,3.5h11.181l8.334-9.532c1.41-1.58,1.283-4.027-.281-5.454Zm-1.967,3.469l-7.447,8.518H3.5c-.275,0-.5-.225-.5-.5v-6c0-.275.225-.5.5-.5h8.857c.354,0,.643.288.643.643,0,.317-.236.591-.551.635l-5.161.737.424,2.971,5.161-.737c1.619-.231,2.876-1.53,3.094-3.116l3.497-3.843c.159-.175.376-.277.612-.288.248-.019.462.07.636.229.356.324.385.881.055,1.252ZM6,2.5c0-1.381,1.119-2.5,2.5-2.5s2.5,1.119,2.5,2.5-1.119,2.5-2.5,2.5-2.5-1.119-2.5-2.5Zm7,6.5H4v-1c0-1.105.895-2,2-2h5c1.105,0,2,.895,2,2v1Z"/>
</svg>
