<?xml version="1.0" encoding="UTF-8"?>
<svg xmlns="http://www.w3.org/2000/svg" id="Layer_1" data-name="Layer 1" viewBox="0 0 24 24">
  <path d="m10,9.5c0,.828-.672,1.5-1.5,1.5s-1.5-.672-1.5-1.5.672-1.5,1.5-1.5,1.5.672,1.5,1.5Zm-1.5,3.5c-.828,0-1.5.672-1.5,1.5s.672,1.5,1.5,1.5,1.5-.672,1.5-1.5-.672-1.5-1.5-1.5Zm11.879-4.015h-2.997l3.3,3.326-2.129,2.113-3.294-3.319c-.167-.102-.362-.139-.559-.11-.158.024-.382.105-.556.35-.224.314-.145.815.18,1.139l3.769,3.769c.472.472,1.101.732,1.768.732h4.138v3h-4.138c-1.469,0-2.85-.572-3.889-1.61l-.973-.973v2.599h-7v4H3.5c-1.93,0-3.5-1.57-3.5-3.5V3.5C0,1.57,1.57,0,3.5,0h4.5v4h7v1.985h6.621l2.379,2.379v4.242l-3.621-3.621Zm-8.379,8.015v-2.639c-1.155-1.356-1.305-3.341-.3-4.755.09-.126.198-.232.3-.345v-2.261H3v2c1.66,0,3,1.34,3,3s-1.34,3-3,3v2h9Z"/>
</svg>
