<?xml version="1.0" encoding="UTF-8"?>
<svg xmlns="http://www.w3.org/2000/svg" id="Layer_1" data-name="Layer 1" viewBox="0 0 24 24">
  <path d="m13.04,7.209l-.002-5.707c0-.828.671-1.5,1.499-1.5L19.538,0c.829,0,1.501.671,1.501,1.5v4.5l-4.496.004-2.288,1.87c-.526.336-1.215-.041-1.215-.665Zm-3.257.665c.526.336,1.215-.041,1.215-.665l.002-5.707c0-.828-.671-1.5-1.499-1.5L4.501,0c-.829,0-1.501.671-1.501,1.5v4.5l4.496.004,2.288,1.87Zm.126,9.126c-.051,0,.051.004,0,0h0Zm5.57-5.146l2.292,1.146h6.229v-3h-5.521l-1.658-.828c-1.435-.721-3.264-.469-4.454.604l-.506.436-.191-.174c-1.182-1.075-2.953-1.392-4.539-.593l-1.014.554H0v3h6.883l1.639-.896c.327-.161.816-.13,1.129.154l.158.144-1.235,1.317c-.676.676-.768,1.72-.218,2.484.33.458.994.752,1.554.797.507,0,.995-.201,1.371-.579l.806-.834,3.424,3.052-3.026,2.362h-.968l-5.125-4H0v3h5.359l5.125,4h3.032l5.125-4h5.359v-3h-5.818l-4.682-4.173.862-.808c.295-.278.754-.346,1.118-.164Z"/>
</svg>
