<svg id="Layer_1" viewBox="0 0 24 24" xmlns="http://www.w3.org/2000/svg" data-name="Layer 1"><path d="m15.189 10.689c-.939.92-1.74 1.866-2.703 3.023.543-2.337.853-4.417.965-5.244.558-1.062 2.549-5.09 2.549-8.468h-3c0 2.7-1.779 6.26-2.216 7.093-.979.958-2.327 2.11-3.75 3.325-1.785 1.523-3.63 3.099-5.177 4.646-1.877 1.876-1.857 3.373-1.857 4.918l.003 1.007 3.001 3c.361 0 1.278.007 1.631.011 1.306 0 2.598-.168 4.293-1.864 3.679-3.691 5.208-5.871 7.882-8.819 1.073-.33 4.505-1.317 7.19-1.317v-3c-4.051.039-8.233 1.521-8.811 1.689zm-8.382 9.326c-.992.991-1.335.999-2.554.981l-1.253-1.252c-.006-1.201.044-1.623.979-2.558 1.464-1.464 3.263-3 5.003-4.486.272-.232.542-.462.807-.69-.71 3.283-1.706 6.681-2.981 8.004zm8.9-11.59c.437-.919 1.007-2.238 1.471-3.724l4.701-4.701 2.121 2.121-5.6 5.6c-1.11.25-2.056.513-2.693.704z"/></svg>