<svg id="Layer_1" viewBox="0 0 24 24" xmlns="http://www.w3.org/2000/svg" data-name="Layer 1"><path d="m19 2.351v-2.351h-3v2h-8v-2h-3v2.351c-1.178.564-2 1.758-2 3.149v13c0 1.391.822 2.585 2 3.149v2.351h3v-2h8v2h3v-2.351c1.178-.564 2-1.758 2-3.149v-13c0-1.391-.822-2.585-2-3.149zm-1 16.149c0 .275-.224.5-.5.5h-11c-.276 0-.5-.225-.5-.5v-13c0-.275.224-.5.5-.5h11c.276 0 .5.225.5.5zm-1.663-10.352c.45.449.663 1.041.663 1.631 0 3.261-4.193 7.221-7.221 7.221-.59 0-1.182-.213-1.631-.663l-1.148-1.148 2.26-2.26 1.184 1.184c1.689-.645 2.934-1.84 3.669-3.669l-1.184-1.184 2.26-2.26z"/></svg>