<svg id="Layer_1" viewBox="0 0 24 24" xmlns="http://www.w3.org/2000/svg" data-name="Layer 1"><path d="m10.992 17 .508 7h-1.604l-.319-4.402-1.577 3.469-1.577-3.468-.319 4.402h-1.604l.508-7c.043-.705.472-1 .988-1 .342 0 .66.242.841.64l1.164 2.56 1.164-2.56c.181-.398.499-.64.841-.64.516 0 .945.295.988 1zm5.967.627 1.296 6.373h-1.58l-.285-1.4h-2.302l-.299 1.4h-1.533l1.321-6.418c.163-.855.826-1.578 1.686-1.581.881.01 1.511.697 1.697 1.627zm-.895 3.373-.621-3.044c-.045-.231-.14-.334-.163-.349l-.016-.006c-.069.042-.142.146-.171.296l-.664 3.104h1.634zm4.936-19h-3v-2h-3v2h-6v-2h-3v2h-3c-1.654 0-3 1.346-3 3v19h2.556l.444-6v-8h18v4h3v-9c0-1.654-1.346-3-3-3zm0 16.71-1.328-2.71h-1.671l2.182 4.451v3.549h1.6v-3.478l2.217-4.522h-1.671l-1.328 2.71z"/></svg>