<svg id="Layer_1" viewBox="0 0 24 24" xmlns="http://www.w3.org/2000/svg" data-name="Layer 1"><path d="m23.999 13.541v10.459h-2.999v-10.459c0-1.291-.361-2.517-1.001-3.58v2.584c0 3.021-2.466 5.455-5.499 5.455h-1c-.478 0-.942-.044-1.384-.159l2.866-2.854c1.148-.225 2.019-1.233 2.019-2.441v-8.046c0-.824-.674-1.494-1.501-1.494h-3c-.264 0-.509.074-.724.194l-2.138-2.13c.779-.647 1.769-1.052 2.861-1.052h3c2.481 0 4.5 2.011 4.5 4.482v1.093c2.512 1.878 4 4.781 4 7.948zm-8.394-1.992-4 3.984-2.591-4.449-1.759-1.748-1.769 1.762-4.608-4.589c-1.17-1.165-1.17-3.061 0-4.226l1.414-1.408c1.169-1.166 3.072-1.167 4.243-.001l4.608 4.59-1.766 1.759 1.752 1.741h.001s4.475 2.585 4.475 2.585zm-8.704-6.084-2.487-2.477-1.415 1.408 2.487 2.477 1.414-1.408zm-2.9 18.535h2.999v-10.957h-2.999z"/></svg>