<?xml version="1.0" encoding="UTF-8"?>
<svg xmlns="http://www.w3.org/2000/svg" id="Layer_1" data-name="Layer 1" viewBox="0 0 24 24">
  <path d="m23.234,6.597c-.696-.713-1.509-1.545-2.556-2.214.82-.891,1.322-2.079,1.322-3.383h-3c0,1.103-.897,2-2,2h-.5c-.827,0-1.5-.673-1.5-1.5V0h-3v1.5c0,.526.091,1.031.257,1.5h-.757c-.827,0-1.5-.673-1.5-1.5V0h-3v1.5c0,2.481,2.019,4.5,4.5,4.5h.952c-.312.711-.452,1.447-.452,2.086v.914h-5.606c-1.414,0-2.709.657-3.574,1.671l-.006-.005L.035,13.757l1.883,1.692c.174.84.44,1.579.687,2.264.121.336.242.672.351,1.018l.062,5.27h3.78l-.041-3.971,7.243-.024v3.995h4v-5.511c.65-.949,2-3.259,2-6.09v-1.075l1.662-.208c1.333-.167,2.338-1.306,2.338-2.649,0-.699-.271-1.362-.766-1.87Zm-6.234,2.079v3.723c0,2.335-1.375,4.272-1.623,4.601l-9.829.033c-.039-.112-.079-.224-.119-.335-.381-1.059-.71-1.973-.704-3.133.004-.834.784-1.565,1.669-1.565h8.606v-3.914c0-.336.106-1.967,2.14-2.08,1.767.614,2.61,1.336,3.486,2.216l-3.626.453Z"/>
</svg>
