<svg id="Layer_1" viewBox="0 0 24 24" xmlns="http://www.w3.org/2000/svg" data-name="Layer 1"><path d="m23 12h-6v-3h3v-2.511c-.604-.456-1-1.173-1-1.989 0-1.381 1.119-2.5 2.5-2.5s2.5 1.119 2.5 2.5c0 .815-.396 1.532-1 1.989zm0 7.511v-5.511h-6v3h3v2.511c-.604.456-1 1.173-1 1.989 0 1.381 1.119 2.5 2.5 2.5s2.5-1.119 2.5-2.5c0-.815-.396-1.532-1-1.989zm-14-7.511h-3v3h3zm3.5-5h2.5v9.5c0 1.93-1.57 3.5-3.5 3.5h-8c-1.93 0-3.5-1.57-3.5-3.5v-9.5h2.5v-2c0-2.757 2.243-5 5-5s5 2.243 5 5zm-7 0h4v-2c0-1.103-.897-2-2-2s-2 .897-2 2zm6.5 3h-9v6.5c0 .276.224.5.5.5h8c.276 0 .5-.224.5-.5z"/></svg>