<?xml version="1.0" encoding="UTF-8"?>
<svg xmlns="http://www.w3.org/2000/svg" id="Layer_1" data-name="Layer 1" viewBox="0 0 24 24">
  <path d="m23.999,0H4l.004,10.22-2.427,3.034c-2.278,2.847-1.934,6.992.767,9.24,1.167.971,2.643,1.506,4.157,1.506,1.239,0,2.465-.361,3.505-1.023,1.04.664,2.255,1.023,3.495,1.023,1.987,0,3.838-.889,5.079-2.439l3.344-4.179c1.342-1.679,2.081-3.787,2.081-5.938l-.005-11.444Zm-2.998,3v2s-6.999,0-6.999,0v-2s6.999,0,6.999,0Zm-10,0v2s-3.999,0-3.999,0v-2s3.999,0,3.999,0Zm-6.738,17.188c-1.454-1.21-1.608-3.48-.344-5.061l3.084-3.856v-3.272s3.999,0,3.999,0v2.22s-2.426,3.034-2.426,3.034c-1.763,2.203-1.955,5.182-.701,7.46-1.176.484-2.611.309-3.613-.525Zm15.317-4.681l-3.343,4.178c-.669.835-1.666,1.314-2.737,1.314-.826,0-1.6-.281-2.237-.812-1.454-1.21-1.608-3.48-.344-5.061l3.085-3.856v-3.272s6.999,0,6.999,0v3.445c.001,1.472-.505,2.915-1.423,4.063Z"/>
</svg>
