<svg id="Layer_1" viewBox="0 0 24 24" xmlns="http://www.w3.org/2000/svg" data-name="Layer 1"><path d="m9.5 2.5c0-1.381 1.119-2.5 2.5-2.5s2.5 1.119 2.5 2.5-1.119 2.5-2.5 2.5-2.5-1.119-2.5-2.5zm-1.5 13.5h-.792c-.755.314-1.208.702-1.208 1.125 0 1.036 2.686 1.875 6 1.875s6-.839 6-1.875c0-.423-.453-.811-1.208-1.125h-.792c-1.18 0-2.5-.855-2.5-2 .003-1.546 1.562-2.426 1.5-4 0-1.657-1.343-3-3-3s-3 1.343-3 3c-.062 1.574 1.497 2.453 1.5 4 0 1.145-1.32 2-2.5 2zm8.955-5.391c-.185 1.269-.733 2.033-1.188 2.795 3.148.702 5.233 2.207 5.233 3.596 0 1.889-3.849 4-9 4s-9-2.111-9-4c0-1.388 2.084-2.894 5.233-3.596-.455-.762-1.003-1.528-1.188-2.795-4.187 1.081-7.045 3.504-7.045 6.391 0 3.925 5.271 7 12 7s12-3.075 12-7c0-2.887-2.858-5.31-7.045-6.391z"/></svg>