<?xml version="1.0" encoding="UTF-8"?>
<svg xmlns="http://www.w3.org/2000/svg" id="Layer_1" data-name="Layer 1" viewBox="0 0 24 24">
  <path d="M.061,10.293h0c.162-1.135,.485-2.239,.962-3.281l2.729,1.248s0,0,0,.001h0c-.357,.78-.599,1.606-.72,2.455h0s0,0,0,0L.061,10.294s0,0,0,0ZM7.074,4.427l-1.624-2.522c-.962,.62-1.83,1.372-2.58,2.238l2.267,1.965c.563-.65,1.215-1.215,1.938-1.68ZM3.75,15.738h0c-.357-.78-.599-1.606-.72-2.455h0s0,0,0,0L.061,13.706s0,0,0,0h0c.162,1.135,.485,2.239,.962,3.281l2.729-1.248s0,0,0-.001Zm1.387,2.154l-2.267,1.965c.75,.866,1.618,1.618,2.58,2.238l1.624-2.522c-.722-.465-1.374-1.03-1.938-1.68ZM12,0c-1.164,0-2.317,.167-3.427,.497l.854,2.875c.833-.247,1.699-.372,2.573-.372,4.962,0,9,4.037,9,9s-4.038,9-9,9c-.875,0-1.74-.125-2.573-.372l-.854,2.875c1.11,.33,2.263,.497,3.427,.497,6.617,0,12-5.383,12-12S18.617,0,12,0Zm1.5,18v-7h4l-4.636-4.531c-.477-.477-1.251-.477-1.728,0l-4.636,4.531h4v7h3Z"/>
</svg>
