<?xml version="1.0" encoding="UTF-8"?>
<svg xmlns="http://www.w3.org/2000/svg" id="Layer_1" data-name="Layer 1" viewBox="0 0 24 24">
  <path d="m6.783,13.853l2.084-2.158,2.182,2.108,4.076-3.997,2.1,2.143-4.416,4.33c-.481.48-1.117.722-1.754.722-.641,0-1.283-.243-1.771-.732l-2.501-2.415Zm16.217-7.853h-1.62l-1.233,14.791c-.149,1.799-1.681,3.209-3.487,3.209H7.34c-1.806,0-3.338-1.41-3.488-3.209l-1.233-14.791h-1.62v-3h5v-.5c0-1.379,1.122-2.5,2.5-2.5h7c1.379,0,2.5,1.121,2.5,2.5v.5h5v3Zm-4.631,0H5.63l1.212,14.541c.022.262.236.459.499.459h9.32c.262,0,.476-.197.497-.458l1.212-14.542Z"/>
</svg>
