<?xml version="1.0" encoding="UTF-8"?>
<svg xmlns="http://www.w3.org/2000/svg" id="Layer_1" data-name="Layer 1" viewBox="0 0 24 24">
  <path d="m8,0C4.691,0,2,2.691,2,6s2.691,6,6,6,6-2.691,6-6S11.309,0,8,0Zm0,9c-1.654,0-3-1.346-3-3s1.346-3,3-3,3,1.346,3,3-1.346,3-3,3Zm-3,5h6v3h-6c-1.103,0-2,.897-2,2v5H0v-5c0-2.757,2.243-5,5-5Zm17.363-2.299l-3.863-1.281-3.863,1.281c-.979.324-1.637,1.234-1.637,2.265v3.477c0,3.522,3.561,5.576,4.651,6.122l.783.391.812-.327c1.115-.449,4.754-2.221,4.754-6.187v-3.477c0-1.031-.658-1.941-1.637-2.265Zm-1.363,5.742c0,1.744-1.537,2.761-2.436,3.207-.877-.509-2.564-1.686-2.564-3.207v-3.033l2.5-.829,2.5.829v3.033Z"/>
</svg>
