<svg id="Layer_1" viewBox="0 0 24 24" xmlns="http://www.w3.org/2000/svg" data-name="Layer 1"><path d="m10.5-.001h3v10.396c0 2.802-1.786 5.281-4.444 6.167l-2.581.86-.949-2.846 2.581-.86c1.432-.478 2.394-1.812 2.394-3.321v-10.396zm-2.799 19.122c-.269.505-.706.915-1.263 1.14-.323.104-1.75.793-2.08.741-.739-.043-1.318-.494-1.358-1.366 0-1.035.118-2.069.351-3.074l1.792-7.767c.243-1.058 1.173-1.796 2.259-1.796h1.599v-3h-1.599c-2.491 0-4.623 1.695-5.183 4.122l-1.791 7.765c-.284 1.225-.428 2.487-.428 3.75-.054 2.348 2.026 4.404 4.359 4.366.873.081 2.375-.629 3.205-.96 2.087-.845 3.436-2.846 3.436-5.098v-.054c-.417.222-.853.416-1.313.569zm15.797 2.606-1.996 2.24c-.532-.475-1.486-1.353-2.502-2.419-1.016 1.067-1.97 1.944-2.502 2.419l-1.996-2.24c.895-.797 1.755-1.645 2.52-2.464-1.138-1.475-2.021-3.021-2.021-4.262 0-2.206 1.794-4 4-4s4 1.794 4 4c0 1.241-.884 2.787-2.021 4.262.765.82 1.625 1.667 2.52 2.464zm-3.498-6.727c0-.551-.448-1-1-1s-1 .449-1 1c0 .371.374 1.058 1 1.911.626-.853 1-1.541 1-1.911zm-1.143-6.205.048.209c1.201-.032 2.345.327 3.293.925l-.417-1.809c-.56-2.427-2.691-4.123-5.183-4.123h-1.599v3h1.599c1.086 0 2.016.739 2.259 1.797z"/></svg>