<?xml version="1.0" encoding="UTF-8"?>
<svg xmlns="http://www.w3.org/2000/svg" id="Layer_1" data-name="Layer 1" viewBox="0 0 24 24">
  <path d="M18,12c-3.309,0-6,2.691-6,6s2.691,6,6,6,6-2.691,6-6-2.691-6-6-6Zm3,6c0,.267-.046,.521-.112,.767l-3.655-3.656c.246-.066,.5-.112,.767-.112,1.654,0,3,1.346,3,3Zm-6,0c0-.267,.046-.521,.112-.767l3.655,3.656c-.246,.066-.5,.112-.767,.112-1.654,0-3-1.346-3-3Zm-6-6c3.309,0,6-2.691,6-6S12.309,0,9,0,3,2.691,3,6s2.691,6,6,6Zm0-9c1.654,0,3,1.346,3,3s-1.346,3-3,3-3-1.346-3-3,1.346-3,3-3Zm2.079,11c-.523,.904-.875,1.917-1.01,3H5c-1.103,0-2,.897-2,2v5H0v-5c0-2.757,2.243-5,5-5h6.079Z"/>
</svg>
