<?xml version="1.0" encoding="UTF-8"?>
<svg xmlns="http://www.w3.org/2000/svg" id="Layer_1" data-name="Layer 1" viewBox="0 0 24 24">
  <path d="m19,12h-3c0-2.206-1.794-4-4-4v-3c3.86,0,7,3.141,7,7ZM12,0v3c4.962,0,9,4.037,9,9h3C24,5.383,18.617,0,12,0Zm.408,13.713l6.214,6.214-1.061,1.061c-2.005,2.005-4.64,3.008-7.274,3.008s-5.268-1.002-7.273-3.008C-.998,16.977-.998,10.45,3.013,6.439l1.061-1.061,6.213,6.213,1.653-1.653,2.121,2.121-1.653,1.653Zm1.861,6.103L4.184,9.731c-1.844,2.824-1.527,6.657.951,9.135,2.477,2.478,6.311,2.795,9.134.95Z"/>
</svg>
