<svg id="Layer_1" viewBox="0 0 24 24" xmlns="http://www.w3.org/2000/svg" data-name="Layer 1"><path d="m7 11.002c0-.509.031-.959.076-1.37.556.427 1.214.835 1.932 1.093-.086 1.741.466 3.363.492 3.275h5c.028.076.576-1.526.492-3.275.719-.258 1.376-.665 1.932-1.093.079.662.1 1.592.041 2.297 1.256-1.266 2.035-3.007 2.035-4.928 0-3.859-3.14-6.999-7-6.999s-7 3.14-7 7c0 1.92.778 3.662 2.035 4.928-.021-.29-.035-.596-.035-.928zm5-8c2.003 0 3.651 1.485 3.94 3.408l.028.056c-.695.723-1.746 1.535-2.468 1.535h-3.001c-.723 0-1.774-.813-2.468-1.535l.028-.057c.289-1.924 1.937-3.408 3.94-3.408zm9 20.998h-3v-2.997c0-1.103-.897-2-2-2h-8c-1.103 0-2 .897-2 2v2.997s-3 0-3 0v-2.997c0-2.757 2.243-5 5-5h8c2.757 0 5 2.243 5 5z"/></svg>