<svg id="Layer_1" viewBox="0 0 24 24" xmlns="http://www.w3.org/2000/svg" data-name="Layer 1"><path d="m24 18c0 1.654-1.346 3-3 3-1.556 0-2.824-1.195-2.971-2.713-1.187.175-2.503.409-3.798.639-2.966.528-6.032 1.073-8.231 1.073v-3c1.981.004 5.151-.572 8-1.079v-11.92c1.712.248 3 1.711 3 3.491v7.919c1.532-.241 2.915-.41 4-.41 1.654 0 3 1.346 3 3zm-24-10.5v16.5h3v-19.949c-1.692.245-3 1.691-3 3.449zm14 13.493v3.007h3v-3.53c-1.001.166-2.008.347-3 .523zm-1-8.993h-9v-10c0-1.105.895-2 2-2h5c1.105 0 2 .895 2 2zm-2-8c0-1.103-.897-2-2-2h-1c-1.103 0-2 .897-2 2s.897 2 2 2v4h2v-1h-1v-3c1.103 0 2-.897 2-2zm-2-1h-1c-.551 0-1 .449-1 1s.449 1 1 1h1c.551 0 1-.449 1-1s-.449-1-1-1z"/></svg>