<?xml version="1.0" encoding="UTF-8"?>
<svg xmlns="http://www.w3.org/2000/svg" id="Layer_1" data-name="Layer 1" viewBox="0 0 24 24">
  <path d="m22.388,13.965l1.575-1.185-1.561-1.203c-.501-.386-1.295-.97-2.19-1.541.352-.185.665-.392.906-.633,1.453-1.453,2.251-5.946,2.462-7.288l.318-2.033-2.033.319c-1.342.21-5.835,1.01-7.288,2.462h0c-.242.242-.45.556-.635.909-.571-.892-1.155-1.684-1.54-2.182L11.215.057l-1.187,1.533c-.613.793-1.729,2.318-2.49,3.827L2.161.039.04,2.16l21.8,21.801,2.121-2.121-5.423-5.423c1.513-.757,3.047-1.849,3.85-2.452Zm-6.118.184l-2.158-2.159s1.319-.702,1.865-.702c.43.015,1.615.63,2.896,1.465-1.043.667-2.018,1.193-2.603,1.396Zm.429-9.164c.347-.334,1.791-.816,3.507-1.209-.392,1.717-.875,3.162-1.208,3.506-.322.309-1.646.652-3.16.861.208-1.512.551-2.833.861-3.158Zm-5.483.111c.841,1.285,1.463,2.477,1.478,2.906,0,.548-.702,1.867-.702,1.867l-2.181-2.181c.183-.561.718-1.542,1.405-2.593Zm1.959,13.028l2.189,2.189c-1.38.872-2.985,1.696-4.147,1.696-1.435,0-4.108-.951-5.594-1.527l-3.462,3.462L.037,21.822l3.463-3.463c-.576-1.486-1.527-4.159-1.527-5.594,0-1.165.825-2.767,1.699-4.145l2.188,2.188c-.526.892-.876,1.638-.887,1.959,0,.58.4,1.929.865,3.254l1.461-1.461c.388-.604.595-1.172.62-1.693l3.194,3.194c-.52.024-1.089.231-1.693.619l-1.463,1.463c1.328.467,2.668.863,3.258.863.321-.011,1.066-.36,1.959-.885Z"/>
</svg>
