<svg id="Layer_1" viewBox="0 0 24 24" xmlns="http://www.w3.org/2000/svg" data-name="Layer 1"><path d="m11.982 0h-7.964c-1.663 0-3.07 1.135-3.422 2.76-.272 1.255-.596 3.356-.596 6.24 0 6.126 1.967 13.572 2.051 13.887l.297 1.113h11.305l.297-1.113c.084-.314 2.051-7.761 2.051-13.887 0-2.881-.324-4.983-.596-6.24-.353-1.625-1.76-2.76-3.422-2.76zm-7.964 3h7.964c.238 0 .44.163.49.395.092.424.19.961.277 1.605h-9.498c.087-.644.185-1.181.277-1.604.05-.233.251-.396.49-.396zm7.308 18h-6.651c-.537-2.273-1.674-7.604-1.674-12 0-.347.006-.679.015-1h9.97c.009.321.015.653.015 1 0 4.396-1.137 9.727-1.674 12zm7.674-11c0-1.105.895-2 2-2s2 .895 2 2-.895 2-2 2-2-.895-2-2zm-8 4c0 1.657-1.343 3-3 3s-3-1.343-3-3 1.343-3 3-3 3 1.343 3 3zm13 6.5c0 1.933-1.567 3.5-3.5 3.5s-3.5-1.567-3.5-3.5c0-.934.371-1.777.967-2.405-.584-.406-.967-1.08-.967-1.845 0-1.243 1.007-2.25 2.25-2.25s2.25 1.007 2.25 2.25c0 .305-.062.594-.172.859 1.531.374 2.672 1.745 2.672 3.391z"/></svg>