<svg id="Layer_1" viewBox="0 0 24 24" xmlns="http://www.w3.org/2000/svg" data-name="Layer 1"><path d="m9.5 2.5c0-1.381 1.119-2.5 2.5-2.5s2.5 1.119 2.5 2.5-1.119 2.5-2.5 2.5-2.5-1.119-2.5-2.5zm12.2 10.5h-1.7v8h1.7c1.269 0 2.3-1.031 2.3-2.3v5.3h-24v-5c0 1.103.897 2 2 2s2-.897 2-2v-.5h-1.6v.5c0 .221-.179.4-.4.4s-.4-.179-.4-.4v-4c0-.221.179-.4.4-.4s.4.179.4.4v.5h1.6v-.5c0-1.103-.897-2-2-2s-2 .897-2 2v-1.5c0-1.93 1.57-3.5 3.5-3.5h.029l4.72-5.014c.566.853 1.416 1.502 2.414 1.812l-3.013 3.202h8.701l-3.013-3.202c.999-.31 1.848-.959 2.414-1.812l4.72 5.014h.029c1.93 0 3.5 1.57 3.5 3.5v1.8c0-1.269-1.031-2.3-2.3-2.3zm-14.7 6.4h-.9v-6.4h-1.6v8h2.5zm4.5-4.4c0-1.103-.897-2-2-2s-2 .897-2 2v4c0 1.103.897 2 2 2s2-.897 2-2zm2.09-.111c0-.124.214-.289.448-.289.236 0 .56.17.846.466l1.15-1.113c-.347-.358-1.103-.952-2.013-.952-1.101 0-2.031.866-2.031 1.889 0 1.276.763 1.945 1.433 2.486.624.505.978.819.978 1.407 0 .25-.204.621-.643.621-.333 0-.65-.144-.87-.395l-1.203 1.054c.523.598 1.279.94 2.073.94 1.385 0 2.242-1.153 2.242-2.221 0-1.38-.908-2.115-1.571-2.651-.598-.483-.839-.752-.839-1.242zm5.41-1.889h-2.5v8h2.5v-1.6h-.9v-1.6h.9v-1.6h-.9v-1.6h.9zm-9.5 1.6c-.221 0-.4.179-.4.4v4c0 .221.179.4.4.4s.4-.179.4-.4v-4c0-.221-.179-.4-.4-.4zm12.1.051v4.801h.101c.386 0 .7-.314.7-.7v-3.4c0-.386-.314-.7-.7-.7-.108 0-.066 0-.101 0z"/></svg>