<?xml version="1.0" encoding="UTF-8"?>
<svg xmlns="http://www.w3.org/2000/svg" id="Layer_1" data-name="Layer 1" viewBox="0 0 24 24">
  <path d="m11.859,5.678l-.005-1.473h.715c.413,0,.762.336.762.735s-.349.735-.762.735l-.71.003Zm12.243-2.723v14.496l-6.504,6.504H.103V2.955C.103,1.301,1.448-.045,3.103-.045h18c1.654,0,3,1.346,3,3Zm-13.5,6.069h1.25v-2.096l.717-.003c1.109,0,2.012-.891,2.012-1.985s-.902-1.985-2.012-1.985h-1.967v6.069Zm-2.5-.069h1.28V2.955h-1.28v6ZM3.103,4.154h2.224l-2.221,3.918v.909h3.768v-1.199h-2.224l2.221-3.919-.003-.908h-3.766v1.199Zm18,6.801H3.103v10h12v-6h6v-4Z"/>
</svg>
