<?xml version="1.0" encoding="UTF-8"?>
<svg xmlns="http://www.w3.org/2000/svg" id="Layer_1" data-name="Layer 1" viewBox="0 0 24 24">
  <path d="M23.76,7.453c-.473,.779-1.488,1.027-2.267,.554-.158-.096-.383-.263-.628-.454l.79,1.646c.834,1.74,.098,3.834-1.641,4.669l-1.353,.65L12.17,.994l1.353-.649c.843-.404,1.793-.456,2.676-.146,.882,.31,1.591,.945,1.995,1.789l.532,1.108c-.016-.175-.025-.328-.025-.445,0-.911,.739-1.65,1.65-1.65s1.65,.739,1.65,1.65c0,.797-.362,1.52-.823,2.12,.69-.048,1.411,.04,2.029,.416,.779,.473,1.027,1.488,.554,2.267Zm-11.76,5.547h3v11H0V13H3v-5l2.25,2.455,2.25-2.455,2.25,2.455,2.25-2.455v5ZM3,21h3v-5H3v5Zm9-5h-3v5h3v-5Zm8,1l-1,2-2,1,2,1,1,2,1-2,2-1-2-1-1-2ZM9.5,7l.833-1.667,1.667-.833-1.667-.833-.833-1.667-.833,1.667-1.667,.833,1.667,.833,.833,1.667ZM2.5,5l.833-1.667,1.667-.833-1.667-.833-.833-1.667-.833,1.667-1.667,.833,1.667,.833,.833,1.667Z"/>
</svg>
