<?xml version="1.0" encoding="UTF-8"?>
<svg xmlns="http://www.w3.org/2000/svg" id="Layer_1" data-name="Layer 1" viewBox="0 0 24 24">
  <path d="m12,16.5c0,.828-.672,1.5-1.5,1.5s-1.5-.672-1.5-1.5.672-1.5,1.5-1.5,1.5.672,1.5,1.5Zm10.871-9.637c.544,2.912-.689,5.835-3.142,7.447-.453.298-.732.706-.766,1.119-.186,2.27-1.175,4.406-2.785,6.017h0c-1.709,1.709-3.838,2.557-6.025,2.557-2.436,0-4.944-1.052-7.024-3.132-3.947-3.947-4.189-9.436-.575-13.049,1.61-1.61,3.746-2.599,6.016-2.785.414-.034.822-.313,1.121-.766,1.612-2.452,4.533-3.685,7.446-3.141.982.184,1.897.572,2.698,1.117.578-.579,1.166-1.394,1.166-2.246h3c0,1.942-1.118,3.461-2.086,4.413.461.74.791,1.568.956,2.451Zm-2.949.551c-.309-1.655-1.682-3.027-3.337-3.336-.282-.053-.563-.079-.839-.079-1.432,0-2.744.693-3.549,1.919-.809,1.23-2.042,1.998-3.382,2.108-1.562.128-3.031.809-4.139,1.916-2.828,2.828-1.684,6.547.575,8.807,2.261,2.26,5.98,3.404,8.807.575,1.107-1.108,1.788-2.578,1.916-4.14.11-1.341.878-2.573,2.107-3.381,1.462-.961,2.167-2.643,1.841-4.39Zm-6.421,4.585c-.828,0-1.5.672-1.5,1.5s.672,1.5,1.5,1.5,1.5-.672,1.5-1.5-.672-1.5-1.5-1.5Z"/>
</svg>
