<?xml version="1.0" encoding="UTF-8"?>
<svg xmlns="http://www.w3.org/2000/svg" id="Layer_1" data-name="Layer 1" viewBox="0 0 24 24" width="512" height="512"><path d="M10,2.5c0-1.381,1.119-2.5,2.5-2.5s2.5,1.119,2.5,2.5-1.119,2.5-2.5,2.5-2.5-1.119-2.5-2.5Zm9.457,13.074l-2.243-2.458,.986,7.884h-2.199v3h-3v-3h-1v3h-3v-3h-2.199l.986-7.884-2.243,2.458-2.216-2.022,5.872-6.435,.003,.003c.643-.692,1.559-1.12,2.563-1.12h1.469c1.004,0,1.92,.428,2.563,1.12l.003-.003,5.872,6.435-2.216,2.022Zm-7.691-6.574c-.251,0-.465,.188-.496,.438l-1.07,8.562h4.602l-1.07-8.562c-.031-.25-.245-.438-.496-.438h-1.469Z"/></svg>
