<svg id="Layer_1" viewBox="0 0 24 24" xmlns="http://www.w3.org/2000/svg" data-name="Layer 1"><path d="m7.532 12.909-1.363 1.463c-.687-.579-1.153-1.395-1.168-2.227-.023-.76.347-1.627.921-2.161.885-.821 1.759-.981 2.971-.981 2.446 0 4.36.361 5.069.517l-.376 1.965-.052-.011c-.503-.11-2.327-.47-4.642-.47-.965 0-1.248.112-1.609.447-.183.169-.283.482-.283.632 0 .418.28.618.532.827zm12.468-2.409-1.667-.833-.833-1.667-.833 1.667-1.667.833 1.667.833.833 1.667.833-1.667zm4-7v18.5h-5.683c.433-.91.683-1.925.683-3h2v-12h-18v12h2c0 1.075.25 2.09.683 3h-5.683v-18.5c0-1.93 1.57-3.5 3.5-3.5h17c1.93 0 3.5 1.57 3.5 3.5zm-18 0c0-.828-.672-1.5-1.5-1.5s-1.5.672-1.5 1.5.672 1.5 1.5 1.5 1.5-.672 1.5-1.5zm5 0c0-.828-.672-1.5-1.5-1.5s-1.5.672-1.5 1.5.672 1.5 1.5 1.5 1.5-.672 1.5-1.5zm6 15.5c0 2.757-2.243 5-5 5s-5-2.243-5-5c0-.809.211-1.562.554-2.239l-1.001-1.001 2.414-2.414 1.062 1.062c.606-.261 1.271-.409 1.972-.409 2.757 0 5 2.243 5 5zm-3 0c0-1.103-.897-2-2-2s-2 .897-2 2 .897 2 2 2 2-.897 2-2z"/></svg>