<svg id="Layer_1" viewBox="0 0 24 24" xmlns="http://www.w3.org/2000/svg" data-name="Layer 1"><path d="m13.5 19v2h4.5v3h-12v-3h4.5v-2h-10.5v-14.5c0-1.93 1.57-3.5 3.5-3.5h1.804c-.511.723-.805 1.599-.805 2.53v.47h-.999c-.276 0-.5.224-.5.5v9.5h18v-9.5c0-.276-.224-.5-.5-.5h-1.001v-.47c0-.931-.295-1.807-.805-2.53h1.806c1.93 0 3.5 1.57 3.5 3.5v14.5zm-7.001-12.37v-3.1c0-1.03.658-1.94 1.636-2.265l3.864-1.281 3.864 1.281c.979.325 1.636 1.235 1.636 2.265v3.101c-.259 4.566-3.738 5.717-5.564 6.513-1.733-.923-5.19-2.409-5.436-6.513zm3 0c0 1.521 1.688 2.698 2.564 3.207.898-.445 2.436-1.463 2.436-3.207v-2.657l-2.5-.829-2.5.829z"/></svg>