<?xml version="1.0" encoding="UTF-8"?>
<svg xmlns="http://www.w3.org/2000/svg" id="Layer_1" data-name="Layer 1" viewBox="0 0 24 24" width="512" height="512"><path d="m24,6.75c0-3.722-3.028-6.75-6.75-6.75-3.116,0-5.738,2.125-6.512,5H0l1.878,15.911c.208,1.761,1.703,3.089,3.476,3.089h8.433c1.773,0,3.268-1.328,3.476-3.089l1.878-15.911h-5.187c.631-1.184,1.864-2,3.296-2,2.068,0,3.75,1.682,3.75,3.75h0c0,.26.128.993-.093,2.629l-.518,3.411c2.105-1.144,3.611-3.48,3.611-6.04h0Zm-10.213,14.25H5.354c-.253,0-.467-.19-.497-.441l-.774-6.559h8.273c-1.135-.769-2.078-1.799-2.748-3H3.729l-.354-3h7.246c.458,2.433,2.222,4.406,4.536,5.164l-.873,7.394c-.03.252-.243.442-.497.442Zm1.736-10.941c-.831-.436-1.474-1.165-1.793-2.059h2.036l-.243,2.059Z"/></svg>
