<?xml version="1.0" encoding="UTF-8"?>
<svg xmlns="http://www.w3.org/2000/svg" id="Layer_1" data-name="Layer 1" viewBox="0 0 24 24" width="512" height="512"><path d="M3,22.5c0,.828-.672,1.5-1.5,1.5s-1.5-.672-1.5-1.5,.672-1.5,1.5-1.5,1.5,.672,1.5,1.5Zm2-5.5c-1.105,0-2,.895-2,2s.895,2,2,2,2-.895,2-2-.895-2-2-2Zm19-6.5c0,3.584-2.916,6.5-6.5,6.5-.7,0-1.391-.118-2.062-.351-1.126,.877-2.491,1.351-3.938,1.351-2.253,0-4.311-1.156-5.489-3.019-3.356-.251-6.011-3.062-6.011-6.481C0,4.916,2.916,2,6.5,2c.493,0,.979,.055,1.454,.164,1.31-1.371,3.127-2.164,5.046-2.164,2.852,0,5.39,1.734,6.46,4.316,2.679,.838,4.54,3.308,4.54,6.184Zm-3,0c0-1.714-1.234-3.16-2.935-3.438l-.958-.157-.249-.938c-.465-1.747-2.052-2.967-3.858-2.967-1.313,0-2.544,.654-3.294,1.752l-.696,1.02-1.135-.488c-.437-.188-.899-.283-1.375-.283-1.93,0-3.5,1.57-3.5,3.5s1.57,3.5,3.5,3.5c.122-.019,1.357-.121,1.357-.121l.423,.993c.551,1.293,1.814,2.128,3.22,2.128,.968,0,1.87-.401,2.543-1.131l.788-.855,1.024,.551c.538,.289,1.091,.436,1.645,.436,1.93,0,3.5-1.57,3.5-3.5Z"/></svg>
