<?xml version="1.0" encoding="UTF-8"?>
<svg xmlns="http://www.w3.org/2000/svg" id="Layer_1" data-name="Layer 1" viewBox="0 0 24 24">
  <path d="m4.626,12c-1.231.181-2.38.661-3.358,1.381.006-.026,1.382-7.648,1.382-7.648C3.146,2.46,5.921,0,9.126,0s5.979,2.46,6.477,5.732l.592,3.268h-3.079l-.474-2.787c-.159-1.103-.802-2.055-1.666-2.631-1.228,1.135-3.704,2.418-4.849,2.418,0,1.654,1.346,3,3,3,.57,0,1.326-.18,1.826-.579l.525,3.085c-.724.311-1.515.495-2.351.495h-4.5Zm19.148,10.685c-.38.812-1.159,1.315-2.033,1.315h-7.48c-.874,0-1.653-.504-2.033-1.315-.392-.839-.266-1.837.323-2.542l3.45-4.133v-3.01h-1v-2h6v2h-1v3.01l3.45,4.134c.589.704.715,1.702.323,2.541Zm-3.516-1.685l-2.258-2.704-2.258,2.704h4.516Zm-6.258-7h-2.644l-2.356,2.692-2.356-2.692h-1.644c-2.757,0-5,2.243-5,5v5h3v-5c0-1.103.897-2,2-2h.5l3.5,4,5-5.715v-1.285Z"/>
</svg>
