<?xml version="1.0" encoding="UTF-8"?>
<svg xmlns="http://www.w3.org/2000/svg" id="Layer_1" data-name="Layer 1" viewBox="0 0 24 24">
  <path d="m14.327,14.89c-2.327-1.097-4.042-2.818-5.206-5.227l2.963-2.963L5.442.058,1.799,3.702C.66,4.838.032,6.374.032,8.025.032,15.177,8.823,23.968,15.975,23.968c1.652,0,3.188-.627,4.322-1.765l3.646-3.645-6.642-6.641-2.974,2.973Zm3.847,5.193c-.569.57-1.35.885-2.199.885-4.993,0-12.942-7.067-12.942-12.942,0-.849.314-1.63.886-2.201l1.524-1.524,2.399,2.398-2.268,2.268.369.919c1.59,3.959,4.347,6.711,8.195,8.18l.908.347,2.255-2.255,2.398,2.399-1.525,1.525Zm-2.409-11.083h1.509c.123.844.843,1.494,1.722,1.494s1.598-.65,1.722-1.494h1.518c.538,0,1.04-.239,1.376-.656.334-.413.461-.948.349-1.466l-.696-3.248c-.484-2.272-2.078-3.629-4.264-3.629-2.173,0-3.766,1.354-4.262,3.621-.255,1.164-.567,2.632-.701,3.264-.108.519.021,1.052.354,1.463.336.414.837.652,1.373.652Zm1.904-4.737c.276-1.263.989-1.263,1.332-1.263.525,0,1.094.149,1.33,1.256l.374,1.744h-3.412c.122-.565.255-1.186.376-1.737Z"/>
</svg>
