<?xml version="1.0" encoding="UTF-8"?>
<svg xmlns="http://www.w3.org/2000/svg" id="Layer_1" data-name="Layer 1" viewBox="0 0 24 24">
  <path d="M14.5,9.5c0,1.381-1.119,2.5-2.5,2.5s-2.5-1.119-2.5-2.5,1.119-2.5,2.5-2.5,2.5,1.119,2.5,2.5Zm-6.5,6.5v5h2v3h3v-6h-2v-2h2v-3h-2c-1.654,0-3,1.346-3,3Zm11.5-7c1.381,0,2.5-1.119,2.5-2.5s-1.119-2.5-2.5-2.5-2.5,1.119-2.5,2.5,1.119,2.5,2.5,2.5Zm4.5,11h-2.5v4h-4v-4h-2.5v-7c0-1.654,1.346-3,3-3h3c1.654,0,3,1.346,3,3v7Zm-6-3h3v-4h-3v4ZM5,10c-1.381,0-2.5,1.119-2.5,2.5s1.119,2.5,2.5,2.5,2.5-1.119,2.5-2.5-1.119-2.5-2.5-2.5ZM1,18.5v3.5H3v2h3v-8H3.5c-1.379,0-2.5,1.121-2.5,2.5ZM14,6V.935c0-.516-.419-.935-.935-.935h-5.065l1.824,1.824-2.267,2.267L5.173,1.706,.035,6.844l2.121,2.121,3.017-3.017,2.385,2.385L11.945,3.945l2.055,2.055Z"/>
</svg>
