<?xml version="1.0" encoding="UTF-8"?>
<svg xmlns="http://www.w3.org/2000/svg" id="Layer_1" data-name="Layer 1" viewBox="0 0 24 24">
  <path d="m24,12.295s0,0,0,0c0,2.94-1.656,5.498-4.083,6.797.049-.358.083-.721.083-1.092,0-.835-.129-1.639-.366-2.396.843-.851,1.366-2.019,1.366-3.309,0,0,0,0,0,0h0c0-2.216-1.581-4.147-3.76-4.594l-.815-.167-.29-.781c-.833-2.244-2.997-3.753-5.385-3.753-3.17,0-5.75,2.579-5.75,5.75,0,.431.055.881.164,1.337l.253,1.062-.933.566c-.888.54-1.484,1.54-1.484,2.488,0,1.017.457,1.899,1.131,2.389-.081.458-.131.926-.131,1.407,0,.648.085,1.274.231,1.877-2.413-.549-4.231-2.883-4.231-5.673,0-1.646.787-3.287,2.065-4.417-.043-.349-.065-.695-.065-1.037C2,3.925,5.925,0,10.75,0c3.366,0,6.439,1.967,7.883,4.968,3.154,1.006,5.367,3.968,5.367,7.327h0Zm-6.054,4.004l-1.529.883c.049.266.083.538.083.818s-.034.552-.083.819l1.529.883-1.5,2.598-1.542-.89c-.412.352-.884.629-1.404.815v1.776h-3v-1.776c-.521-.186-.992-.463-1.404-.815l-1.542.89-1.5-2.598,1.529-.883c-.049-.266-.083-.538-.083-.818s.033-.552.083-.818l-1.529-.883,1.5-2.598,1.542.89c.413-.352.884-.629,1.404-.815v-1.776h3v1.776c.521.186.992.463,1.404.815l1.542-.89,1.5,2.598Zm-4.446,1.701c0-.827-.673-1.5-1.5-1.5s-1.5.673-1.5,1.5.673,1.5,1.5,1.5,1.5-.673,1.5-1.5Z"/>
</svg>
