<?xml version="1.0" encoding="UTF-8"?>
<svg xmlns="http://www.w3.org/2000/svg" id="Layer_1" data-name="Layer 1" viewBox="0 0 24 24">
  <path d="M19.461,2c-1.129-1.267-2.737-2-4.461-2-1.057,0-2.09,.286-3,.819-.91-.533-1.943-.819-3-.819-1.724,0-3.332,.733-4.461,2-2.479-.016-4.539,2.006-4.539,4.5,0,2.481,2.019,4.5,4.5,4.5,.34,0,.677-.04,1.008-.119,.844,.606,1.851,.952,2.885,1.054,.588,.509,2.108,2.104,2.108,5.065,0,.139-.016,.263-.026,.393-1.473-.208-2.313-.669-2.453-.871,.059-.089,.208-.207,.45-.335-.056-.743-.282-1.409-.57-1.953-1.13,.492-1.901,1.24-1.901,2.266,0,1.537,1.729,2.449,3.806,2.814-1.176,1.596-3.471,1.683-3.806,1.686v3c1.684,0,4.342-.616,6-2.563,1.658,1.947,4.316,2.563,6,2.563l.007-3c-.341-.003-2.636-.09-3.813-1.686,2.077-.365,3.806-1.277,3.806-2.814,0-1.026-.771-1.773-1.901-2.266-.286,.54-.51,1.2-.568,1.937,.246,.123,.398,.234,.449,.31-.16,.242-.997,.703-2.454,.911-.01-.13-.026-.253-.026-.392,0-2.934,1.49-4.525,2.083-5.045,1.055-.102,2.054-.46,2.909-1.074,.331,.079,.668,.119,1.008,.119,2.481,0,4.5-2.019,4.5-4.5,0-2.494-1.998-4.526-4.539-4.5Zm-.616,5.837l-.964-.475-.76,.759c-.566,.566-1.32,.878-2.121,.878-.932,0-1.6-.426-1.996-.783l-1.004-.903-1.004,.903c-.396,.357-1.064,.783-1.996,.783-.801,0-1.555-.312-2.121-.878l-.76-.759-.964,.475c-1.062,.524-2.155-.294-2.155-1.337,0-.827,.673-1.5,1.5-1.5,.5,0,1.397,.305,1.397,.305l.577-.906c.558-.876,1.501-1.399,2.525-1.399,.932,0,1.6,.426,1.996,.783l1.004,.903,1.004-.903c.396-.357,1.064-.783,1.996-.783,1.024,0,1.968,.523,2.525,1.399l.577,.906s.897-.305,1.397-.305c.827,0,1.5,.673,1.5,1.5,0,1.043-1.094,1.861-2.155,1.337Z"/>
</svg>
