<?xml version="1.0" encoding="UTF-8"?>
<svg xmlns="http://www.w3.org/2000/svg" id="Layer_1" data-name="Layer 1" viewBox="0 0 24 24">
  <path d="m14.828,19.777l2.213,2.213c-2.259,1.301-4.847,2.009-7.541,2.009h-1.5v-5.13C3.474,18.147,0,14.227,0,9.5c0-1.338.281-2.611.783-3.767l2.372,2.372c-.099.45-.155.916-.155,1.396,0,3.584,2.916,6.5,6.5,6.5.479,0,.943-.06,1.391-.159l2.364,2.363c-.712.308-1.466.536-2.255.663v2.043c1.345-.163,2.635-.551,3.828-1.132Zm9.172-9.277c0-1.93-1.57-3.5-3.5-3.5s-3.5,1.57-3.5,3.5c0,1.869,1.477,3.388,3.324,3.482-.371.944-.893,1.839-1.557,2.664l-6.379-6.379c.264-.999.017-2.105-.766-2.888s-1.889-1.03-2.888-.766l-2.642-2.642c1.013-.628,2.179-.971,3.409-.971,2.543,0,4.736,1.476,5.802,3.609.614-.819,1.415-1.487,2.343-1.942C15.988,1.883,12.969,0,9.5,0c0,0-.027,0-.07.004-1.981.015-3.906.661-5.496,1.809L2.16.04.039,2.161l21.801,21.8,2.121-2.121-3.067-3.067c1.983-2.367,3.106-5.294,3.106-8.272Z"/>
</svg>
