<?xml version="1.0" encoding="UTF-8"?>
<svg xmlns="http://www.w3.org/2000/svg" id="Layer_1" data-name="Layer 1" viewBox="0 0 24 24">
  <path d="m24.049,19.573l-3.793,3.707c-.48.48-1.115.72-1.751.72-.641,0-1.283-.243-1.772-.732l-3.75-3.75,2.121-2.121,1.896,1.896V0h3v19.334l1.951-1.907,2.098,2.146ZM12,5v15.25c0,2.173-2.523,3.75-6,3.75s-6-1.577-6-3.75V5C0,2.72,2.579,1,6,1s6,1.72,6,4Zm-9,.014v.006c.085.248,1.127.98,3,.98,1.843,0,2.881-.708,2.996-1-.115-.292-1.153-1-2.996-1-1.873,0-2.915.732-3,1.014Zm0,4.986c.077.263,1.121,1,3,1s2.915-.732,3-1.014v-1.491c-.873.322-1.891.505-3,.505s-2.127-.183-3-.505v1.505Zm0,5c.077.263,1.121,1,3,1s2.915-.732,3-1.014v-1.491c-.873.322-1.891.505-3,.505s-2.127-.183-3-.505v1.505Zm6,5.162v-1.667c-.873.322-1.891.505-3,.505s-2.127-.183-3-.505v1.667c.217.275,1.275.838,3,.838s2.783-.563,3-.838Z"/>
</svg>
