<svg id="Layer_1" viewBox="0 0 24 24" xmlns="http://www.w3.org/2000/svg" data-name="Layer 1"><path d="m19.5 0c-2.519-.007-4.618 2.127-4.484 4.655-1.09.343-2.104.586-3.016.716v-.371c0-1.103-.897-2-2-2h-2c-1.103 0-2 .897-2 2v3.525c-3.49 1.24-6 4.566-6 8.475-.015 2.7 1.26 5.262 3.325 7h11.35c2.065-1.738 3.34-4.3 3.325-7 0-3.909-2.51-7.235-6-8.475v-.119c1.245-.144 2.633-.477 4.126-.96.825.944 2.024 1.554 3.374 1.554 2.481 0 4.5-2.019 4.5-4.5s-2.019-4.5-4.5-4.5zm-4.5 17c0 1.497-.542 2.897-1.537 4h-8.926c-.995-1.103-1.537-2.503-1.537-4 0-3.309 2.691-6 6-6s6 2.691 6 6zm4.5-11c-.827 0-1.5-.673-1.5-1.5s.673-1.5 1.5-1.5 1.5.673 1.5 1.5-.673 1.5-1.5 1.5z"/></svg>