<?xml version="1.0" encoding="UTF-8"?>
<svg xmlns="http://www.w3.org/2000/svg" id="Layer_1" data-name="Layer 1" viewBox="0 0 24 24">
  <path d="M12.872,1.279l-.872-.623-.872,.623C9.27,2.607,0,9.566,0,16.25c0,3.722,3.028,6.75,6.75,6.75,2.118,0,4.012-1.017,5.25-2.605,1.238,1.588,3.132,2.605,5.25,2.605,3.722,0,6.75-3.028,6.75-6.75,0-6.684-9.27-13.643-11.128-14.971Zm4.378,18.721c-2.067,0-3.75-1.794-3.75-4h-3c0,2.206-1.683,4-3.75,4s-3.75-1.682-3.75-3.75c0-3.997,5.302-9.073,9-11.886,3.698,2.813,9,7.889,9,11.886,0,2.068-1.683,3.75-3.75,3.75Z"/>
</svg>
