<?xml version="1.0" encoding="UTF-8"?>
<svg xmlns="http://www.w3.org/2000/svg" id="Layer_1" data-name="Layer 1" viewBox="0 0 24 24">
  <path d="m24,12.4s-1.593-1.162-4-1.797v-5.53l-.829-.415c-.135-.067-1.355-.658-2.671-.658-2.823,0-4.185,1.108-5.386,2.085-.829.675-1.644,1.316-3.114,1.658v-.234c0-1.407-.976-2.618-2.349-2.927-1.81-.408-3.992-1.052-5.651-1.782,1.192,3.182,3,5.5,3,5.5,0,0-1.5,2.275-3,3.3,0,0,1.593,1.163,4,1.797v5.53l.829.415c.135.067,1.355.658,2.671.658,2.855,0,4.226-1.036,5.435-1.95.83-.628,1.645-1.227,3.065-1.627v.068c0,1.407.976,2.618,2.349,2.927,1.81.408,3.992,1.052,5.651,1.782-1.192-3.182-3-5.5-3-5.5,0,0,1.5-2.275,3-3.3Zm-7,.752c-3.167.458-4.652,1.581-5.875,2.505-1.07.809-1.777,1.343-3.625,1.343-.162,0-.334-.024-.5-.061v-6.002c3.26-.289,4.767-1.515,6.007-2.524,1.045-.85,1.736-1.412,3.493-1.412.162,0,.334.024.5.061v6.091Z"/>
</svg>
