<svg id="Layer_1" viewBox="0 0 24 24" xmlns="http://www.w3.org/2000/svg" data-name="Layer 1"><path d="m1.5 11.046c-.828 0-1.5-.672-1.5-1.5s.672-1.5 1.5-1.5c.183 0 .356.038.519.098l1.037-.598c-.033-.177-.055-.359-.055-.545s.022-.368.055-.545l-2.752-1.59 1-1.732 2.76 1.593c.275-.235.589-.419.936-.543v-1.573c-.305-.275-.5-.668-.5-1.111 0-.828.672-1.5 1.5-1.5s1.5.672 1.5 1.5c0 .443-.195.836-.5 1.111v1.573c.347.124.661.308.936.543l2.76-1.594 1 1.732-2.751 1.588c.033.177.055.359.055.545s-.022.368-.055.545l.985.569c.176-.073.368-.114.57-.114.828 0 1.5.672 1.5 1.5s-.672 1.5-1.5 1.5c-.679 0-1.246-.454-1.431-1.073l-1.133-.654c-.275.235-.589.42-.936.543v3.184h-2v-3.184c-.347-.124-.661-.309-.936-.543l-1.116.644c-.166.648-.749 1.129-1.448 1.129zm22.5 2.954c0-2.396-.843-4.659-2.379-6.465l1.793-1.793-1.768-1.768 1.414-1.414-2.121-2.121-1.414 1.414-1.767-1.768-3.758 3.758v4.243l3.758-3.757 1.414 1.414s-4.973 4.979-7.064 7.078l2.114 2.114 5.269-5.269c.975 1.231 1.509 2.741 1.509 4.334 0 3.86-3.141 7-7 7-2.307 0-4.433-1.151-5.728-3h3.728v-3h-11v3h3.841c.48 1.155 1.31 2.159 2.159 3.021v2.979h14v-2.871c1.849-1.816 3-4.339 3-7.129z"/></svg>