<svg id="Layer_1" viewBox="0 0 24 24" xmlns="http://www.w3.org/2000/svg" data-name="Layer 1"><path d="m11.606 18.003 2.161 2.161c-2.295 1.644-4.629 2.857-7.125 3.815l-6.621-6.621c.958-2.496 2.171-4.83 3.815-7.125l2.161 2.161c-.956 1.392-1.779 2.814-2.434 4.263l3.779 3.779c1.449-.655 2.871-1.478 4.263-2.434zm-1.436-1.436-2.737-2.737c-.574.86-1.052 1.675-1.445 2.424l1.759 1.758c.748-.393 1.563-.871 2.423-1.445zm12.696 6.299c-1.187 1.187-2.682 1.617-3.87.43-.801-.801-2.037-2.916-2.394-4.572l-11.326-11.327c-1.656-.356-3.771-1.593-4.572-2.394-1.187-1.187-.757-2.682.43-3.869s2.682-1.617 3.87-.43c.801.801 2.037 2.916 2.394 4.572l.342.342c4.225-4.414 10.748-5.453 12.525-5.601 2.058-.26 3.975 1.658 3.72 3.719-.149 1.776-1.191 8.305-5.603 12.525l.342.342c1.656.356 3.771 1.593 4.572 2.394 1.187 1.187.757 2.682-.43 3.87zm-6.866-12.366c.007.708-.431 1.582-1.154 2.225l1.414 1.414c3.712-3.523 4.612-9.164 4.738-10.696.017-.163-.066-.272-.118-.324-.05-.051-.167-.125-.323-.118-1.529.126-7.172 1.025-10.696 4.738l1.414 1.414c.652-.729 1.501-1.165 2.212-1.154 1.366-.015 2.533 1.125 2.513 2.5z"/></svg>