<svg id="Layer_1" viewBox="0 0 24 24" xmlns="http://www.w3.org/2000/svg" data-name="Layer 1"><path d="m18.574 13.56c-.377-.723-.574-1.12-.574-1.56 0-.983.322-2.243.581-3.256.295-1.144.461-1.8.413-2.695-.333-.602-.871-1.065-.994-3.048v-3.001h-3c0 .534-.121 1.056-.35 1.511-.375.748-1.385 2.489-2.65 2.489s-2.275-1.741-2.651-2.49c-.228-.454-.349-.976-.349-1.51h-3v3c-.13 1.999-.651 2.438-1 3.046-.036.897.121 1.553.419 2.698.259 1.013.581 2.273.581 3.256 0 .44-.197.837-.574 1.56-.602 1.152-1.426 2.729-1.426 5.44v.681l4.937 4.319h6.127l4.937-4.319v-.681c0-2.711-.824-4.288-1.426-5.44zm-4.637 7.44h-3.873l-3.041-2.662c.107-1.562.592-2.489 1.062-3.389.16-.306.315-.623.457-.949h4.459v-3h-4.061c-.117-1.052-.385-2.108-.613-2.999-.097-.377-.218-.852-.282-1.18.163-.312.365-.751.542-1.29 2.041 1.92 4.787 1.92 6.828 0 .177.538.379.978.542 1.29-.064.328-.186.803-.282 1.18-.3 1.175-.674 2.638-.674 3.999 0 1.197.466 2.088.916 2.949.47.9.954 1.828 1.062 3.389l-3.041 2.662z"/></svg>