<?xml version="1.0" encoding="UTF-8"?>
<svg xmlns="http://www.w3.org/2000/svg" id="Layer_1" data-name="Layer 1" viewBox="0 0 24 24">
  <path d="m10.397,15.322l2.549,2.549-.678,3.393L.013,23.988l2.719-12.233,3.353-.745,2.514,2.514-3.354.745-.885,3.985,2.51-2.51,1.414,1.414-2.466,2.466,3.891-.865.688-3.438Zm13.601,6.555l-2.121,2.121L.002,2.123,2.123.002l8.032,8.032,6.859-6.828c1.59-1.59,4.183-1.591,5.776.002,1.593,1.594,1.593,4.186,0,5.778l-6.857,6.826,8.064,8.064Zm-11.721-11.721l1.536,1.536,6.859-6.828c.421-.421.421-1.11-.002-1.534-.425-.425-1.113-.422-1.536,0l-6.857,6.826Z"/>
</svg>
