<svg id="Layer_1" viewBox="0 0 24 24" xmlns="http://www.w3.org/2000/svg" data-name="Layer 1"><path d="m23.616 8.099c-1.111-4.129-4.563-7.248-8.795-7.945-4.118-.681-8.213.963-10.664 4.238-1.449 1.757-2.925 5.552-4.153 8.29v2.818h2.299l.341 2.478c.237 1.723 1.728 3.022 3.467 3.022h.893v3h14v-4.985c0-.345.124-.684.35-.954 2.375-2.845 3.199-6.476 2.262-9.962zm-4.564 8.04c-.675.809-1.047 1.83-1.047 2.876v1.985h-8.001v-3h-3.893c-.249 0-.461-.186-.496-.432l-.698-5.068h-1.557c.99-2.28 2.159-5.039 3.162-6.265 1.813-2.42 4.806-3.611 7.81-3.121 3.026.499 5.593 2.815 6.387 5.765.68 2.529.072 5.175-1.668 7.26zm-3.052-9.139c-1.657 0-3 1-3 1s-1.343-1-3-1-3 1.451-3 3.24c0 3.393 6 7.56 6 7.56s6-4.167 6-7.56c0-1.789-1.343-3.24-3-3.24zm0 6h-2v2h-2v-2h-2v-2h2v-2h2v2h2z"/></svg>