<?xml version="1.0" encoding="UTF-8"?>
<svg xmlns="http://www.w3.org/2000/svg" id="Layer_1" data-name="Layer 1" viewBox="0 0 24 24">
  <path d="m17.657,15.392l4,4-2.121,2.121-.94-.94-3.536,3.536-2.121-2.121,3.536-3.536-.939-.939,2.121-2.121Zm-.407-15.392C11.152,0,6,4.579,6,10c0,3.309,2.691,6,6,6s6-2.691,6-6c0-1.788-.57-3.48-1.54-4.951-1.081.12-2.091.481-2.945,1.009.93,1.132,1.484,2.493,1.484,3.942,0,1.654-1.346,3-3,3s-3-1.346-3-3c0-3.794,3.778-7,8.25-7,2.348,0,3.75,1.683,3.75,4.5,0,2.574-.577,4.5-1.529,7l2.25,2.25c1.471-3.212,2.279-5.962,2.279-9.25,0-5.181-3.391-7.5-6.75-7.5Zm-8.786,17.513l-2.121-2.121-4,4,2.121,2.121.94-.94,3.536,3.536,2.121-2.121-3.536-3.536.939-.939ZM3,7.5c0-2.742,1.336-4.396,3.571-4.483.828-1.025,1.827-1.93,2.958-2.681-.894-.211-1.823-.335-2.779-.335C3.391,0,0,2.319,0,7.5c0,3.289.808,6.038,2.279,9.25l2.25-2.25c-.952-2.5-1.529-4.426-1.529-7Z"/>
</svg>
