<?xml version="1.0" encoding="UTF-8"?>
<svg xmlns="http://www.w3.org/2000/svg" id="Layer_1" data-name="Layer 1" viewBox="0 0 24 24">
  <path d="m22,17.884v6.091h-3v-3.858l-7.025-2.108v5.992h-4.531l-2.709-2.391c-.866-.722-.983-2.008-.261-2.874.722-.866,2.008-.983,2.874-.261l1.652,1.296v-9.269c0-.911.787-1.632,1.727-1.479.737.12,1.248.812,1.248,1.56v4.296l10.025,3.007ZM5,10C2.239,10,0,7.761,0,5S2.239,0,5,0s5,2.239,5,5-2.239,5-5,5Zm-1.374-3.533h2.748l.411,1.2h1.237l-1.731-5.153c-.308-.699-.74-.847-1.29-.847-.55,0-.981.148-1.298.869l-1.723,5.131h1.236l.41-1.2Zm1.5-3.594c-.025-.003-.065-.006-.126-.006-.059,0-.098.003-.123.006-.014.02-.034.053-.058.104l-.783,2.29h1.927l-.79-2.31c-.019-.039-.035-.066-.046-.083Zm13.024.799c0-.33-.269-.6-.6-.6h-1.714c-.047,0-.086.039-.086.086v1.114h1.8c.331,0,.6-.27.6-.6Zm-6.15,1.328c0-2.761,2.239-5,5-5s5,2.239,5,5-2.239,5-5,5-5-2.239-5-5Zm2.55,1.586c0,.709.577,1.286,1.286,1.286h2.314c.993,0,1.8-.807,1.8-1.8,0-.636-.332-1.196-.832-1.516.148-.261.232-.562.232-.884,0-.993-.807-1.8-1.8-1.8h-1.714c-.709,0-1.286.577-1.286,1.286v3.429Zm3.6.086c.331,0,.6-.27.6-.6s-.269-.6-.6-.6h-2.4v1.114c0,.047.038.086.086.086h2.314Z"/>
</svg>
