<svg id="Layer_1" viewBox="0 0 24 24" xmlns="http://www.w3.org/2000/svg" data-name="Layer 1"><path d="m8.199 13.711c.904-1.084.796-2.705.796-2.705s-1.809-.134-2.883.939c-.011.011-.018.024-.028.035-.325-.883-.726-1.496-.754-1.538l-1.661 1.114c.006.009.45.692.687 1.565-2.488.527-4.355 2.734-4.355 5.379 0 3.038 2.462 5.5 5.5 5.5s5.5-2.462 5.5-5.5c0-2.056-1.13-3.846-2.801-4.789zm-3.199 4.789c-.552 0-1-.448-1-1s.448-1 1-1 1 .448 1 1-.448 1-1 1zm2 2.5c-.552 0-1-.448-1-1s.448-1 1-1 1 .448 1 1-.448 1-1 1zm1-3c-.552 0-1-.448-1-1s.448-1 1-1 1 .448 1 1-.448 1-1 1zm12.5-13h-3.447l.267-2h4.68v-3h-7.32l-.656 5h-5.524c-1.933 0-3.5 1.567-3.5 3.5v.5h3v-.5c0-.276.224-.5.5-.5h7.551c-.024.165-.051.329-.051.5v12.5h-3.438c-.411 1.157-1.096 2.182-1.981 3h13.418v-15.5c0-1.933-1.567-3.5-3.5-3.5zm.5 16h-2v-12.5c0-.276.224-.5.5-.5h1c.276 0 .5.224.5.5z"/></svg>