<svg id="Layer_1" viewBox="0 0 24 24" xmlns="http://www.w3.org/2000/svg" data-name="Layer 1"><path d="m24 6.5v14.121l-3.379 3.379h-4.242l4.621-4.621v-2.997l-3.325 3.3-2.113-2.129 3.318-3.294c.194-.322.147-.746-.122-1.016-.326-.324-.851-.323-1.175 0l-3.871 3.871c.186.556.288 1.143.288 1.747v5.139h-3v-5.139c0-.658-.267-1.302-.732-1.768l-3.769-3.769c-.324-.323-.825-.404-1.14-.18-.413.324-.445.725-.239 1.114l3.318 3.294-2.113 2.129-3.325-3.322v3.018l4.621 4.621h-4.242l-3.379-3.379v-14.119c0-1.465 1.265-2.639 2.761-2.487 1.301.132 2.239 1.326 2.239 2.633v3.452c1.258-.268 2.628.115 3.62 1.105l3.38 3.381 3.462-3.462c.958-.959 2.303-1.298 3.538-1.026v-3.449c0-1.307.939-2.501 2.239-2.633 1.495-.152 2.761 1.022 2.761 2.487zm-12-3.5c.828 0 1.5-.672 1.5-1.5s-.672-1.5-1.5-1.5-1.5.672-1.5 1.5.672 1.5 1.5 1.5zm-2.5 4.125v3.875h2v-2h1v2h2v-3.875l1.356 1.14 1.287-1.531-2.471-2.077c-.53-.424-1.195-.658-1.874-.658h-1.598c-.679 0-1.344.233-1.893.673l-2.452 2.062 1.287 1.531 1.356-1.141z"/></svg>