<svg id="Layer_1" viewBox="0 0 24 24" xmlns="http://www.w3.org/2000/svg" data-name="Layer 1"><path d="m24 5v9h-3v-4h-18v11h1.4v.7c0 .847.255 1.633.68 2.3h-5.08v-19c0-1.654 1.346-3 3-3h3v-2h3v2h6v-2h3v2h3c1.654 0 3 1.346 3 3zm-1.6 15.063-1.8-4.054v-.009h-1.6v8h1.6v-4.054l1.8 4.054h1.6v-8h-1.6zm-5.647-2.436 1.339 6.373h-1.632l-.295-1.4h-2.379l-.309 1.4h-1.584l1.365-6.418c.168-.864.87-1.583 1.742-1.581.894.006 1.563.69 1.753 1.627zm-.924 3.373-.641-3.044c-.047-.231-.144-.334-.168-.349l-.017-.006c-.071.042-.146.146-.176.296l-.686 3.104h1.688zm-6.428.7c0 .386-.314.7-.7.7s-.7-.314-.7-.7v-.7h-1.6v.7c0 1.269 1.031 2.3 2.3 2.3s2.3-1.031 2.3-2.3v-5.7h-1.6z"/></svg>