<?xml version="1.0" encoding="UTF-8"?>
<svg xmlns="http://www.w3.org/2000/svg" id="Layer_1" data-name="Layer 1" viewBox="0 0 24 24">
  <path d="m9.014,22c0,1.105-.895,2-2,2s-2-.895-2-2,.895-2,2-2,2,.895,2,2Zm4.986-7h-6.581c-.25,0-.462-.187-.496-.434l-.875-6.566h13.995l-.567,2.048c1.062.102,2.021.527,2.784,1.188l1.727-6.236H5.648l-.262-1.962c-.23-1.731-1.722-3.038-3.469-3.038H.014v3h1.903c.25,0,.462.187.496.434l1.537,11.528c.23,1.731,1.722,3.038,3.469,3.038h7.604c-.633-.838-1.023-1.869-1.023-3Zm7,4h-4c-1.654,0-3,1.346-3,3v2h10v-2c0-1.654-1.346-3-3-3Zm-5-4c0,1.654,1.346,3,3,3s3-1.346,3-3-1.346-3-3-3-3,1.346-3,3Z"/>
</svg>
