<?xml version="1.0" encoding="UTF-8"?>
<svg xmlns="http://www.w3.org/2000/svg" id="Layer_1" data-name="Layer 1" viewBox="0 0 24 24">
  <path d="M24,16v2.454l-2.349,3.523c-.211,.317-.459,.602-.734,.852,.053-.265,.083-.541,.083-.829,0-.711-.293-2.457-1-4.027v-1.973h4ZM7.5,7c1.381,0,2.5-1.119,2.5-2.5s-1.119-2.5-2.5-2.5-2.5,1.119-2.5,2.5,1.119,2.5,2.5,2.5Zm.803,1h-1.21c-1.667,0-3.112,1.186-3.434,2.821-.244,1.24-.523,3.062-.62,5.179H0v2.454l2.349,3.523c.844,1.267,2.257,2.022,3.779,2.022h6.423c-.344-.577-.551-1.247-.551-2,0-.234,.035-.586,.103-1H6.128c-.517,0-.996-.257-1.283-.687l-.875-1.313H13v-3H6.041c.094-1.877,.343-3.492,.561-4.6,.023-.117,.085-.217,.171-.288l1.925,2.887h4.303v-3h-2.697l-2-3ZM19,2c0-1.381-1.119-2-2.5-2s-2.5,.619-2.5,2c0,.817,.394,2.415,1,3.586v12.829c-.606,1.171-1,2.769-1,3.586,0,1.381,1.119,2,2.5,2s2.5-.619,2.5-2c0-.817-.394-2.415-1-3.586V5.586c.606-1.171,1-2.769,1-3.586Z"/>
</svg>
