<?xml version="1.0" encoding="UTF-8"?>
<svg xmlns="http://www.w3.org/2000/svg" id="Layer_1" data-name="Layer 1" viewBox="0 0 24 24" width="512" height="512"><path d="m12,24C5.383,24,0,18.617,0,12S5.383,0,12,0s12,5.383,12,12-5.383,12-12,12Zm0-21C7.037,3,3,7.038,3,12s4.037,9,9,9,9-4.037,9-9S16.963,3,12,3Zm5.583,4.796l-2.083,2.083-1.379-1.379,2.083-2.083c-.853-.644-1.854-1.098-2.945-1.297l-1.259,1.259-1.259-1.259c-1.091.199-2.092.654-2.945,1.297l2.083,2.083-1.379,1.379-2.083-2.083c-.644.853-1.098,1.854-1.297,2.945l1.259,1.259-1.259,1.259c.199,1.091.653,2.092,1.297,2.945l2.083-2.083,1.379,1.379-2.083,2.083c.853.644,1.854,1.098,2.945,1.297l1.259-1.259,1.259,1.259c1.091-.199,2.092-.653,2.945-1.297l-2.083-2.083,1.379-1.379,2.083,2.083c.644-.853,1.098-1.854,1.297-2.945l-1.259-1.259,1.259-1.259c-.199-1.091-.653-2.092-1.297-2.945Zm-5.583,5.583l-1.379-1.379,1.379-1.379,1.379,1.379-1.379,1.379Z"/></svg>
