<svg id="Layer_1" viewBox="0 0 24 24" xmlns="http://www.w3.org/2000/svg" data-name="Layer 1"><path d="m9.228 19.427c.358 1.543 1.132 2.926 2.204 4.02l-.432.185c-.876-.368-8.17-3.425-11-8.499v-5.405l1.097-1.862c-.485-.828-1.097-2.091-1.097-3.198 0-2.574 2.093-4.668 4.667-4.668 1.216 0 2.388.525 3.264 1.423 1.925-.562 4.214-.562 6.139 0 .876-.897 2.048-1.423 3.264-1.423 2.47 0 4.477 1.934 4.636 4.364.166 1.193-.55 2.595-1.066 3.501l1.097 1.862v.571c-1.144-.717-2.468-1.167-3.892-1.268l-.751-1.275.563-.792c.51-.722 1.08-1.843 1.08-2.297 0-.919-.748-1.667-1.667-1.667-.663 0-1.189.51-1.438.946l-.665 1.164-1.231-.53c-1.784-.77-4.214-.77-5.998 0l-1.231.53-.665-1.164c-.249-.437-.775-.946-1.438-.946-.919 0-1.667.748-1.667 1.667 0 .445.57 1.58 1.08 2.297l.563.792-1.643 2.79v3.753c1.433 2.176 4.216 4.005 6.228 5.128zm-3.228-9.927c0 .828.672 1.5 1.5 1.5s1.5-.672 1.5-1.5-.672-1.5-1.5-1.5-1.5.672-1.5 1.5zm8.5-1.5c-.828 0-1.5.672-1.5 1.5s.672 1.5 1.5 1.5 1.5-.672 1.5-1.5-.672-1.5-1.5-1.5zm9.5 9.5c0 3.59-2.91 6.5-6.5 6.5s-6.5-2.91-6.5-6.5c0-1.147.299-2.222.82-3.157-.24.096-.513.157-.82.157-1.289 0-2-1.025-2-1.55s.711-.95 2-.95c1.191 0 1.882.365 1.98.835 1.17-1.134 2.762-1.835 4.52-1.835 3.59 0 6.5 2.91 6.5 6.5zm-2 .5h-3v-4h-3v4h-3l3.793 3.707c.391.39 1.024.39 1.414 0z"/></svg>