<svg id="Layer_1" viewBox="0 0 24 24" xmlns="http://www.w3.org/2000/svg" data-name="Layer 1"><path d="m24 8c0 1.654-1.346 3-3 3v1h-2v-1c-1.654 0-3-1.346-3-3h2c0 .552.448 1 1 1h2c.552 0 1-.448 1-1 0-.379-.271-.698-.645-.761l-3.04-.506c-1.342-.224-2.315-1.374-2.315-2.733 0-1.654 1.346-3 3-3v-1h2v1c1.654 0 3 1.346 3 3h-2c0-.552-.448-1-1-1h-2c-.552 0-1 .448-1 1 0 .379.271.698.645.761l3.04.506c1.342.224 2.315 1.374 2.315 2.733zm-3 6h-3v7h-12v-7.5h1.626c-.228-1.004-.101-2.062.366-3h-1.992v-7.5h8.101c.25-1.226.96-2.278 1.93-3h-14.031v3h1v7.5h-1v3h1v7.5h-1v3h20v-3h-1zm-9-4.997-1.768 1.729c-.976.976-.976 2.559 0 3.536.488.488 1.128.732 1.768.732s1.28-.244 1.768-.732c.976-.976.976-2.559 0-3.536z"/></svg>