<?xml version="1.0" encoding="UTF-8"?>
<svg xmlns="http://www.w3.org/2000/svg" id="Layer_1" data-name="Layer 1" viewBox="0 0 24 24">
  <path d="M24,7.5c0-3.584-2.916-6.5-6.5-6.5h-.5V0h-3V1h-4.5C4.262,1,0,5.262,0,10.5c0,1.93,1.57,3.5,3.5,3.5h12.5v1.07c-2.678,.371-3,2.224-3,3.073v2.715c0,.945,.39,3.143,4,3.143s4-2.197,4-3.143v-2.715c0-.849-.322-2.702-3-3.073v-1.095c3.351-.257,6-3.059,6-6.475ZM3,10.5c0-3.584,2.916-6.5,6.5-6.5h8c1.93,0,3.5,1.57,3.5,3.5s-1.57,3.5-3.5,3.5H3.5c-.276,0-.5-.224-.5-.5Zm12,10.357v-2.715c0-.315,.016-.839,1-1.048v4.812c-.984-.209-1-.733-1-1.048Zm4-2.715v2.715c0,.315-.016,.839-1,1.048v-4.812c.984,.209,1,.733,1,1.048Zm-1.5-10.143h-7c-.828,0-1.5-.672-1.5-1.5s.672-1.5,1.5-1.5h7c.828,0,1.5,.672,1.5,1.5s-.672,1.5-1.5,1.5Z"/>
</svg>
