<?xml version="1.0" encoding="UTF-8"?>
<svg xmlns="http://www.w3.org/2000/svg" id="Layer_1" data-name="Layer 1" viewBox="0 0 24 24">
  <path d="M24,4.5h-1V2H2v1.5c0,.276-.224,.5-.5,.5H0v6.012l1.534-.012c.753,.122,1.013,.463,.912,1.229L0,19.79v2.21H7.832l1.714-6h3.294c1.781,0,3.32-1.146,3.831-2.851l.945-3.149h5.384v-2.5h1v-3ZM5.569,19H3.346l1.985-6.948c.196-.685,.205-1.389,.038-2.052h2.771l-2.571,9Zm8.229-6.712c-.125,.419-.52,.712-.958,.712h-2.437l.857-3h3.224l-.687,2.288Zm6.203-5.288H3v-.338c.727-.346,1.316-.936,1.662-1.662h15.338v2Z"/>
</svg>
