<?xml version="1.0" encoding="UTF-8"?>
<svg xmlns="http://www.w3.org/2000/svg" id="Layer_1" data-name="Layer 1" viewBox="0 0 24 24">
  <path d="m10,14.11l11,3.143v6.747h-3v-4.484l-8-2.286v6.769h-3l-4.266-3.391c-.866-.722-.983-2.008-.261-2.874.722-.866,2.008-.983,2.874-.261l1.64,1.222v-10.234c0-.911.799-1.632,1.739-1.479.737.12,1.273.812,1.273,1.56v5.57ZM24,3.5v7.5h-12v-2.421c0-.353-.064-.693-.162-1.019l.168-.13,1.63,1.261.378-.262-.663-2.015,1.648-.955v-.458h-2.163l-.588-2.251h-.486l-.588,2.251h-5.338l-.588-2.251h-.486l-.588,2.251h-2.175v.462l1.66.924-.652,2.039.36.272,1.638-1.266.133.103c-.09.312-.152.633-.152.966v2.501H0V3.5C0,1.57,1.57,0,3.5,0h17c1.93,0,3.5,1.57,3.5,3.5Zm-2,1.5h-2.163l-.588-2.251h-.486l-.588,2.251h-2.175v.462l1.66.924-.652,2.039.36.272,1.638-1.266,1.63,1.261.378-.262-.663-2.015,1.648-.955v-.458Z"/>
</svg>
