<?xml version="1.0" encoding="UTF-8"?>
<svg xmlns="http://www.w3.org/2000/svg" id="Layer_1" data-name="Layer 1" viewBox="0 0 24 24">
  <path d="m23.907,21.785l-2.742-2.742c.527-.893.836-1.931.836-3.043,0-3.314-2.686-6-6-6s-6,2.686-6,6,2.686,6,6,6c1.112,0,2.15-.308,3.043-.836l2.742,2.742,2.121-2.121Zm-7.158-3.342c-.744.744-2.058.746-2.823-.019l-2.182-2.268,1.387-1.441,2.216,2.301,3.614-3.703,1.398,1.43-3.607,3.696-.004.004Zm-8.748-10.443h-3v-3h3v3Zm-3,7h3v3h-3v-3Zm5-7v-3h5v3h-5Zm-2,5h-3v-3h3v3Zm7.921,10.999l-7.922-.003v.004l-7.999-.009V2.993C0,1.339,1.346-.007,3-.007L17.001,0c1.654.002,2.999,1.348,2.999,3v6.072c-.903-.523-1.918-.936-3-1.071V2.999l-14-.006v18.002l4,.004v-.003h2.753c1.451,1.812,3.673,2.979,6.168,3.003Z"/>
</svg>
