<?xml version="1.0" encoding="UTF-8"?>
<svg xmlns="http://www.w3.org/2000/svg" id="Layer_1" data-name="Layer 1" viewBox="0 0 24 24">
  <path d="m17,9.5c0,.828-.672,1.5-1.5,1.5s-1.5-.672-1.5-1.5.672-1.5,1.5-1.5,1.5.672,1.5,1.5Zm-1.5,3.5c-.828,0-1.5.672-1.5,1.5s.672,1.5,1.5,1.5,1.5-.672,1.5-1.5-.672-1.5-1.5-1.5Zm-6.5-9v1.997l-6.621-.013-2.379,2.379v4.242l3.621-3.621,3.01.007-3.314,3.319,2.129,2.113,3.294-3.319c.167-.102.362-.141.559-.11.158.024.382.105.556.35.224.314.145.815-.18,1.139l-3.769,3.769c-.472.472-1.101.732-1.768.732H0v3h4.138c1.469,0,2.85-.572,3.889-1.611l.973-.973v2.599h15v-3h-12v-2.639c1.155-1.356,1.305-3.341.3-4.755-.09-.126-.198-.232-.3-.345v-2.261h12v-3h-15Zm9,8c0,1.657,1.343,3,3,3s3-1.343,3-3-1.343-3-3-3-3,1.343-3,3Z"/>
</svg>
