<?xml version="1.0" encoding="UTF-8"?>
<svg xmlns="http://www.w3.org/2000/svg" id="Layer_1" data-name="Layer 1" viewBox="0 0 24 24">
  <path d="M16.381,0H5C3.346,0,2,1.345,2,3V24H22V5.664L16.381,0ZM5,21V3H14V8h5v13H5Zm6-3h2v2h-2v-2Zm4.423-6.269c.325,1.559-.396,3.102-1.793,3.838-.148,.078-.63,.371-.63,.882v.549h-2v-.549c0-1.101,.635-2.092,1.698-2.651,.499-.263,.93-.879,.767-1.661-.108-.522-.537-.979-1.042-1.111-.475-.124-.942-.032-1.318,.258-.378,.292-.604,.748-.604,1.221v.493h-2v-.493c0-1.088,.517-2.137,1.382-2.805,.865-.668,1.974-.891,3.047-.609,1.249,.328,2.228,1.363,2.493,2.638Z"/>
</svg>
