<svg id="Layer_1" viewBox="0 0 24 24" xmlns="http://www.w3.org/2000/svg" data-name="Layer 1"><path d="m18.812 9.799-1.485.857c.108.431.172.879.172 1.344s-.064.913-.172 1.344l1.485.857-1.5 2.598-1.483-.856c-.644.626-1.441 1.093-2.33 1.345v1.712h-3v-1.712c-.889-.252-1.686-.719-2.33-1.345l-1.483.856-1.5-2.598 1.485-.857c-.108-.431-.172-.879-.172-1.344s.064-.913.172-1.344l-1.485-.857 1.5-2.598 1.483.856c.644-.626 1.441-1.093 2.33-1.345v-1.712h3v1.712c.889.252 1.686.719 2.33 1.345l1.483-.856zm-8.812 1.201h-2v3h2zm3-2h-2v5h2zm3 1h-2v4h2zm-13 2c0-4.963 4.037-9 9-9 1.684 0 3.284.46 4.692 1.326l-1.654 1.654h4.983c.541 0 .979-.438.979-.979v-4.984l-2.143 2.143c-2.016-1.41-4.369-2.16-6.857-2.16-6.617 0-12 5.383-12 12 0 1.583.304 3.122.902 4.572l2.773-1.145c-.448-1.086-.676-2.239-.676-3.428zm20.098-4.572-2.773 1.145c.448 1.086.676 2.239.676 3.428 0 4.963-4.037 9-9 9-1.682 0-3.294-.468-4.695-1.329l1.671-1.671h-4.977c-.552 0-1 .448-1 1v4.976l2.141-2.141c2 1.4 4.372 2.165 6.859 2.165 6.617 0 12-5.383 12-12 0-1.583-.304-3.122-.902-4.572z"/></svg>