<?xml version="1.0" encoding="UTF-8"?>
<svg xmlns="http://www.w3.org/2000/svg" id="Layer_1" data-name="Layer 1" viewBox="0 0 24 24">
  <path d="M20.742,15.665l-.488-2.416c-.205-1.433-1.044-2.491-2.25-2.966l-.004-4.783c0-1.465-1.265-2.639-2.761-2.487-1.301,.132-2.239,1.326-2.239,2.633v11.853c0,3.584,2.916,6.5,6.5,6.5h4.5v-7.757l-3.258-.578Zm.258,5.335h-1.5c-1.93,0-3.5-1.57-3.5-3.505l-.013-3.962c.005-.438,.372-.533,.513-.533,.502,0,.714,.183,.799,.757l.533,2.648c.241,1.152,.991,1.954,2.005,2.146l1.163,.206v2.243ZM11,2.647C11,1.339,10.061,.146,8.761,.013c-1.495-.152-2.761,1.022-2.761,2.487l-.004,4.781c-1.206,.471-2.041,1.512-2.236,2.885l-.509,2.5-3.251,.577v7.757H4.5c3.584,0,6.5-2.916,6.5-6.495V2.647Zm-3,11.853c0,1.93-1.57,3.5-3.5,3.5h-1.5v-2.243l1.163-.206c1.014-.191,1.764-.994,2.008-2.157l.544-2.72c.071-.491,.283-.674,.785-.674,.141,0,.508,.096,.513,.512l-.013,3.988Z"/>
</svg>
