<svg id="Layer_1" viewBox="0 0 24 24" xmlns="http://www.w3.org/2000/svg" data-name="Layer 1"><path d="m15.036 12.006c.159 0 .314.034.444.098l1.491.896h7.029v-3h-5v-5.5c0-1.378-1.121-2.5-2.5-2.5h-1.5v-.5c0-.828-.672-1.5-1.5-1.5h-3c-.828 0-1.5.672-1.5 1.5v.5h-1.5c-1.379 0-2.5 1.122-2.5 2.5v5.5h-5v3h7l1.52-.896c.13-.064.285-.098.444-.098.331-.023.612.193.876.372l-.032.024-1.235 1.317c-.676.676-.768 1.721-.218 2.483.358.5.941.799 1.555.798.506 0 .993-.201 1.37-.579l.807-.835 3.424 3.052-3.026 2.362h-.969l-5.125-4h-6.391v3h5.359l5.125 4h3.031l5.125-4h5.359v-3h-5.819l-4.564-4.068.733-.674c.189-.173.443-.252.686-.252zm-6.072-3c-.327 0-.65.044-.964.121v-3.127h2.5v2h3v-2h2.5v3.127c-.314-.077-.637-.121-.964-.121-.842 0-1.648.253-2.315.72l-.721.457-.721-.457c-.667-.467-1.473-.72-2.315-.72z"/></svg>