<?xml version="1.0" encoding="UTF-8"?>
<svg xmlns="http://www.w3.org/2000/svg" id="Layer_1" data-name="Layer 1" viewBox="0 0 24 24">
  <path d="M18,12c-3.314,0-6,2.686-6,6s2.686,6,6,6,6-2.686,6-6-2.686-6-6-6Zm2.731,7.493h0s-2.385,3.45-2.385,3.45l-1.659-1.117,1.963-2.824h-2.035c-.509,0-.994-.244-1.297-.652-.303-.409-.462-.969-.249-1.431,.48-1.04,2.478-3.854,2.478-3.854l1.664,1.109-1.845,2.828h2.029c.592,0,1.133,.324,1.413,.846,.28,.522,.25,1.151-.077,1.645Zm-10.272-4.143c-.292,.831-.459,1.72-.459,2.65v6h-3v-5.519c-3.352-.256-6-3.065-6-6.481v-4H0v-3H4V0h3V5h3V0h3V5h4v3h-1v2.262c-1.112,.287-2.131,.801-3,1.498v-3.76H4v4c0,1.93,1.57,3.5,3.5,3.5h2c.335,0,.652-.062,.959-.15Z"/>
</svg>
