<?xml version="1.0" encoding="UTF-8"?>
<svg xmlns="http://www.w3.org/2000/svg" id="Layer_1" data-name="Layer 1" viewBox="0 0 24 24">
  <path d="m20.5,0H3.5C1.57,0,0,1.57,0,3.5v20.5h24V3.5c0-1.93-1.57-3.5-3.5-3.5Zm.5,21H3V3.5c0-.276.225-.5.5-.5h17c.275,0,.5.224.5.5v17.5ZM8.5,7h2.5v6.5c0,1.93-1.57,3.5-3.5,3.5s-3.5-1.57-3.5-3.5v-6.5h2.5v6.333c0,.643.357,1.167,1,1.167s1-.523,1-1.167v-6.333Zm8.968,4.988l-.006.012,2.526,5h-2.935l-1.059-2.095-1.059,2.095h-2.935l2.526-5-.006-.012-2.52-4.988h2.935l1.053,2.083.006.012.006-.012,1.053-2.083h2.935l-2.52,4.988Z"/>
</svg>
