<?xml version="1.0" encoding="UTF-8"?>
<svg xmlns="http://www.w3.org/2000/svg" id="Layer_1" data-name="Layer 1" viewBox="0 0 24 24">
  <path d="M22.358,18.704l-4.892,1.296,4.892,1.296-.717,2.707-9.642-2.555-9.642,2.555-.717-2.707,4.892-1.296-4.892-1.296,.717-2.707,9.642,2.555,9.642-2.555,.717,2.707Zm-13.358-1.704v-2h-3v-4c0-3.308,2.691-6,6-6s6,2.692,6,6v4h-3v2h-6Zm4-5.5c0,.828,.672,1.5,1.5,1.5s1.5-.672,1.5-1.5-.672-1.5-1.5-1.5-1.5,.672-1.5,1.5Zm-3.5,1.5c.828,0,1.5-.672,1.5-1.5s-.672-1.5-1.5-1.5-1.5,.672-1.5,1.5,.672,1.5,1.5,1.5Zm-5.5-2c0-.278,.015-.553,.042-.824-.643-1.177-1.042-2.342-1.042-3.426,0-2.068,1.683-3.75,3.75-3.75,.763,0,1.471,.247,2.064,.666,.977-.426,2.054-.666,3.186-.666s2.209,.24,3.186,.666c.593-.419,1.301-.666,2.064-.666,2.067,0,3.75,1.682,3.75,3.75,0,1.085-.399,2.249-1.042,3.426,.028,.271,.042,.546,.042,.824v4.269c2.184-2.553,4-5.562,4-8.519,0-3.722-3.028-6.75-6.75-6.75-2.118,0-4.012,1.017-5.25,2.605-1.238-1.588-3.132-2.605-5.25-2.605C3.028,0,0,3.028,0,6.75c0,2.957,1.816,5.966,4,8.519v-4.269Z"/>
</svg>
