<?xml version="1.0" encoding="UTF-8"?>
<svg xmlns="http://www.w3.org/2000/svg" id="Layer_1" data-name="Layer 1" viewBox="0 0 24 24">
  <path d="M24,5.5v7.221c-.815-.926-1.838-1.663-3-2.134v-1.587H3v12h7.587c.471,1.162,1.208,2.185,2.134,3H0V5.5c0-1.93,1.57-3.5,3.5-3.5h2.5V0h3V2h6V0h3V2h2.5c1.93,0,3.5,1.57,3.5,3.5Zm-4.5,11c0-.386-.314-.7-.7-.7h-1.95v1.4h1.95c.386,0,.7-.314,.7-.7Zm-.2,2.3h-2.45v1.4h2.45c.386,0,.7-.314,.7-.7s-.314-.7-.7-.7Zm4.7-.8c0,3.314-2.686,6-6,6s-6-2.686-6-6,2.686-6,6-6,6,2.686,6,6Zm-2.4,1.5c0-.719-.331-1.361-.849-1.783,.221-.354,.349-.771,.349-1.217,0-1.269-1.032-2.3-2.3-2.3v-1.2h-1.6v1.2h-1.95v7.6h1.95v1.2h1.6v-1.2h.5c1.268,0,2.3-1.031,2.3-2.3Z"/>
</svg>
