<?xml version="1.0" encoding="UTF-8"?>
<svg xmlns="http://www.w3.org/2000/svg" id="Layer_1" data-name="Layer 1" viewBox="0 0 24 24">
  <path d="m21,21.5v2.5h-3v-2.5c0-1.379-1.122-2.5-2.5-2.5h-7c-1.378,0-2.5,1.121-2.5,2.5v2.5h-3v-2.5c0-3.032,2.467-5.5,5.5-5.5h7c3.033,0,5.5,2.468,5.5,5.5Zm2.933-17.629c-.106.149-1.951,2.666-5.933,4.118v.97c0,3.309-2.691,6-6,6s-6-2.691-6-6v-.972C2.024,6.535.19,4.016.084,3.868l2.441-1.745c.078.107,1.391,1.852,4.274,2.964.611-2.253,1.83-5.087,3.201-5.087.793,0,1.259.532,1.458.76.173.199.209.24.542.24s.369-.041.542-.24c.199-.228.665-.76,1.458-.76,1.372,0,2.591,2.836,3.202,5.089,2.894-1.113,4.216-2.861,4.295-2.969l2.436,1.751Zm-14.288,1.958c.724.108,1.508.171,2.355.171s1.631-.062,2.355-.171c-.211-.781-.518-1.536-.804-2.136-.406.181-.914.307-1.552.307s-1.149-.127-1.552-.305c-.285.6-.592,1.354-.803,2.134Zm5.355,2.935c-.922.149-1.921.235-3,.235s-2.078-.086-3-.236v.195c0,1.654,1.346,3,3,3s3-1.346,3-3v-.194Z"/>
</svg>
