<?xml version="1.0" encoding="UTF-8"?>
<svg xmlns="http://www.w3.org/2000/svg" id="Layer_1" data-name="Layer 1" viewBox="0 0 24 24">
  <path d="m10.98,16l3.02-2.377v3.818l-1,.787v5.772l-6-3v-2.772L0,12.719v-5.729h.001c.006-1.1.898-1.989,1.999-1.989h3c.759,0,1.411.428,1.75,1.05.339-.623.991-1.05,1.75-1.05h3c.759,0,1.411.428,1.75,1.05.339-.623.991-1.05,1.75-1.05h3c1.105,0,2,.895,2,2h0l-.002,3-16.999-.009v1.271l6.02,4.738h1.961ZM3.5,4c1.105,0,2-.895,2-2S4.605,0,3.5,0,1.5.895,1.5,2s.895,2,2,2Zm6.5,0c1.105,0,2-.895,2-2s-.895-2-2-2-2,.895-2,2,.895,2,2,2Zm6.5,0c1.105,0,2-.895,2-2s-.895-2-2-2-2,.895-2,2,.895,2,2,2Zm5.185,13.267l-3.041-.506c-.373-.062-.644-.382-.644-.761,0-.552.449-1,1-1h2c.551,0,1,.448,1,1h2c0-1.654-1.346-3-3-3v-1h-2v1c-1.654,0-3,1.346-3,3,0,1.359.974,2.51,2.315,2.733l3.041.506c.373.062.644.382.644.761,0,.552-.449,1-1,1h-2c-.551,0-1-.448-1-1h-2c0,1.654,1.346,3,3,3v1h2v-1c1.654,0,3-1.346,3-3,0-1.359-.974-2.51-2.315-2.733Z"/>
</svg>
