<?xml version="1.0" encoding="UTF-8"?>
<svg xmlns="http://www.w3.org/2000/svg" id="Layer_1" data-name="Layer 1" viewBox="0 0 24 24" width="512" height="512"><path d="m3.404,14.718L14.718,3.403l-1.061-1.061C10.538-.776,5.463-.776,2.343,2.343-.776,5.462-.776,10.538,2.343,13.657l1.061,1.061Zm1.061-10.254c.975-.975,2.255-1.462,3.536-1.462.795,0,1.59.188,2.312.564l-6.746,6.746c-.981-1.885-.682-4.269.898-5.849Zm-.464,15.036c0,.828-.672,1.5-1.5,1.5s-1.5-.672-1.5-1.5.672-1.5,1.5-1.5,1.5.672,1.5,1.5Zm20-5c0,.828-.672,1.5-1.5,1.5s-1.5-.672-1.5-1.5.672-1.5,1.5-1.5,1.5.672,1.5,1.5Zm-10-2c0,.828-.672,1.5-1.5,1.5s-1.5-.672-1.5-1.5.672-1.5,1.5-1.5,1.5.672,1.5,1.5Zm10,10c0,.828-.672,1.5-1.5,1.5s-1.5-.672-1.5-1.5.672-1.5,1.5-1.5,1.5.672,1.5,1.5ZM19,3.5c0-.828.672-1.5,1.5-1.5s1.5.672,1.5,1.5-.672,1.5-1.5,1.5-1.5-.672-1.5-1.5Zm-5.857,5.061l2.121-2.121c2.277,2.277,4.398,2.277,6.676,0l2.121,2.121c-1.709,1.709-3.584,2.563-5.459,2.563s-3.75-.854-5.459-2.563Zm-2.186,8.518c.39,1.651.289,4.188-2.411,6.887l-2.121-2.121c1.401-1.401,1.929-2.735,1.612-4.076-.203-.858-.745-1.732-1.612-2.6l2.121-2.121c1.267,1.267,2.078,2.622,2.411,4.031Zm7.983,2.199c.07,1.696-.643,3.306-2.12,4.783l-2.121-2.121c.859-.859,1.278-1.713,1.244-2.537-.053-1.272-1.141-2.248-1.152-2.257l1.938-2.291c.215.183,2.104,1.853,2.212,4.423Z"/></svg>
