<?xml version="1.0" encoding="UTF-8"?>
<svg xmlns="http://www.w3.org/2000/svg" id="Layer_1" data-name="Layer 1" viewBox="0 0 24 24">
  <path d="M23.408,.597c-.512-.514-1.266-.716-1.966-.526-2.6,.705-4.943,1.777-6.966,3.188-1.367,.954-4.484,3.88-6.16,5.555l-2.421,2.419c-.579-.968-.894-2.075-.894-3.233H2c0,2.491,.97,4.833,2.731,6.593l1.278,1.278-2.385,2.385-1.439-1.439L.062,18.938l5,5,2.121-2.121-1.439-1.439,2.385-2.385,1.277,1.277c1.761,1.762,4.103,2.731,6.593,2.731v-3c-1.162,0-2.273-.318-3.244-.901l2.422-2.421c1.713-1.713,4.683-4.873,5.613-6.215,1.381-1.99,2.437-4.312,3.136-6.898,.192-.699-.007-1.453-.52-1.968Zm-5.082,7.156c-.713,1.029-3.35,3.885-5.269,5.803l-2.562,2.56-2.621-2.621,2.561-2.559c1.623-1.622,4.606-4.414,5.757-5.217,1.28-.894,2.718-1.631,4.292-2.203-.564,1.562-1.288,2.981-2.159,4.237Z"/>
</svg>
