<?xml version="1.0" encoding="UTF-8"?>
<svg xmlns="http://www.w3.org/2000/svg" id="Layer_1" data-name="Layer 1" viewBox="0 0 24 24">
  <path d="m14.295,14.923c-2.328-1.098-4.042-2.819-5.207-5.228l2.614-2.614L5.061.44,1.766,3.734c-1.139,1.137-1.766,2.672-1.766,4.324,0,7.151,8.791,15.942,15.942,15.942,1.651,0,3.187-.627,4.322-1.765l3.295-3.296-6.641-6.642-2.624,2.625Zm3.848,5.192c-.57.57-1.351.885-2.2.885-4.993,0-12.942-7.066-12.942-12.942,0-.849.314-1.63.886-2.201l1.175-1.174,2.399,2.399-1.919,1.918.369.919c1.59,3.96,4.348,6.712,8.196,8.181l.908.347,1.905-1.905,2.399,2.398-1.175,1.176Zm.357-9.115c3.038,0,5.5-2.462,5.5-5.5S21.538,0,18.5,0s-5.5,2.462-5.5,5.5,2.462,5.5,5.5,5.5Zm-1-9h2v3.086l2.207,2.207-1.414,1.414-2.793-2.793v-3.914Z"/>
</svg>
