<?xml version="1.0" encoding="UTF-8"?>
<svg xmlns="http://www.w3.org/2000/svg" id="Layer_1" data-name="Layer 1" viewBox="0 0 24 24">
  <path d="M20.5,5.003h-1.5v-1.501C19.039,1.62,17.381-.038,15.5,.001L3.5,.005C1.623-.034-.04,1.631,0,3.507l.005,13.622c-.019,1.234,1.238,2.167,2.41,1.791l3.585-1.497v4.58h11l4.443,1.863c1.191,.5,2.575-.448,2.551-1.738l.005-13.625c0-1.93-1.57-3.5-3.5-3.5ZM3,3.506c.051-.341,.16-.45,.5-.501l12-.004h0c.345,.051,.448,.154,.5,.5V14.005H6.396l-3.392,1.423-.005-11.921ZM20.995,20.426l-3.392-1.423H9v-1.998h10V8.003h1.5c.276,0,.5,.224,.5,.499l-.005,11.924ZM10,9.75V5h1.6v4.75c0,.358,.292,.65,.65,.65s.65-.292,.65-.65V5h1.6v4.75c0,1.243-1.007,2.25-2.25,2.25s-2.25-1.007-2.25-2.25Zm-2.579,2.25h1.703l-1.064-2.927c.567-.409,.94-1.07,.94-1.823,0-1.243-1.007-2.25-2.25-2.25h-2.25v7h1.6v-2.5h.413l.909,2.5Zm-1.321-5.4h.65c.358,0,.65,.292,.65,.65s-.292,.65-.65,.65h-.65v-1.3Z"/>
</svg>
