<svg id="Layer_1" viewBox="0 0 24 24" xmlns="http://www.w3.org/2000/svg" data-name="Layer 1"><path d="m13.5 0h-3c-5.79 0-10.5 4.71-10.5 10.5v8.198c0 1.566.789 2.992 2.109 3.815 1.09.679 2.822 1.487 4.891 1.487 1.872 0 3.554-1.023 4.395-2.627.105-.23.352-.373.605-.373s.5.143.605.373c.841 1.604 2.586 2.627 4.395 2.627 2.038 0 3.801-.808 4.891-1.487 1.32-.823 2.109-2.249 2.109-3.815v-8.198c0-5.79-4.71-10.5-10.5-10.5zm-5.009 20.333c-.379.423-.923.667-1.491.667-1.36 0-2.548-.562-3.305-1.033-.435-.271-.695-.762-.695-1.431.692-.536 2.154-1.529 3.829-1.529 1.098 0 2.047.759 2.158 1.76.064.582-.112 1.138-.497 1.567zm11.814-.366c-.757.471-1.945 1.033-3.305 1.033-.568 0-1.111-.243-1.491-.667-.384-.429-.561-.986-.497-1.567.111-1 1.061-1.76 2.158-1.76 1.675 0 3.137.993 3.829 1.529 0 .669-.26 1.16-.695 1.431zm.695-4.952c-.956-.48-2.129-.897-3.43-.994-2.079-.149-4.003.938-4.95 2.613-.105.23-.366.366-.619.366s-.486-.149-.591-.379c-.947-1.675-2.9-2.749-4.979-2.6-1.301.097-2.475.514-3.43.994v-4.515c0-4.136 3.364-7.5 7.5-7.5h3c4.136 0 7.5 3.364 7.5 7.5v4.515z"/></svg>