<svg id="Layer_1" viewBox="0 0 24 24" xmlns="http://www.w3.org/2000/svg" data-name="Layer 1"><path d="m21.881 13.574-8.95-9.844c.046-.91.134-2.832.162-3.73l-2.316.017-.45.574c-.045.058-1.131 1.409-3.292 1.409s-3.244-1.352-3.278-1.394l-.466-.606h-2.329l.908 19.075c.132 2.762 2.4 4.925 5.165 4.925s5.033-2.163 5.165-4.925l.106-2.232 3.302 3.002c1.755 1.594 4.446 1.535 6.126-.146 1.679-1.679 1.742-4.369.146-6.125zm-12.677 5.359c-.055 1.159-1.007 2.067-2.168 2.067s-2.113-.908-2.168-2.067l-.689-14.479c.788.319 1.741.546 2.857.546s2.069-.227 2.857-.546zm10.41-1.355c-.543.546-1.417.565-1.986.047l-5.135-4.668.238-4.99 6.932 7.625c.518.569.497 1.442-.047 1.986zm-12.578-10.578c.828 0 1.5.672 1.5 1.5s-.672 1.5-1.5 1.5-1.5-.672-1.5-1.5.672-1.5 1.5-1.5z"/></svg>