<?xml version="1.0" encoding="UTF-8"?>
<svg xmlns="http://www.w3.org/2000/svg" id="Layer_1" data-name="Layer 1" viewBox="0 0 24 24" width="512" height="512"><path d="m21,19.036v-5.036c0-4.963-4.037-9-9-9S3,9.037,3,14v5.036c-1.694.243-3,1.704-3,3.464v1.5h24v-1.5c0-1.76-1.306-3.221-3-3.464Zm-9-11.036c3.309,0,6,2.691,6,6v5H6v-5c0-3.309,2.691-6,6-6Zm-9.582-.678L.043,5.047l2.076-2.166,2.375,2.275-2.076,2.166Zm3.502-3.231l-1.218-2.841L7.46.068l1.218,2.841-2.758,1.182Zm15.743,3.268l-2.076-2.166,2.375-2.275,2.076,2.166-2.375,2.275Zm-3.502-3.231l-2.758-1.182L16.621.104l2.758,1.182-1.218,2.841Zm-7.161,9.873h-3c0-2.206,1.794-4,4-4v3c-.552,0-1,.448-1,1Z"/></svg>
