<?xml version="1.0" encoding="UTF-8"?>
<svg xmlns="http://www.w3.org/2000/svg" id="Layer_1" data-name="Layer 1" viewBox="0 0 24 24" width="512" height="512"><path d="M9,2.5c0-1.381,1.119-2.5,2.5-2.5s2.5,1.119,2.5,2.5-1.119,2.5-2.5,2.5-2.5-1.119-2.5-2.5Zm10,12.5c0,1.795-.971,4.667-1.082,4.988l-.348,1.012h-2.57v3h-3v-3h-1v3h-3v-3h-2.199l1.492-11.934c.218-1.748,1.711-3.066,3.473-3.066h1.469c1.762,0,3.255,1.318,3.473,3.066l.081,.642c1.954,1.023,3.212,3.045,3.212,5.292Zm-3,0c0-1.284-.83-2.421-2.065-2.83l-.898-.297-.306-2.434c-.031-.25-.244-.438-.496-.438h-1.469c-.252,0-.465,.188-.496,.438l-.267,2.136,3.168,1.584-1.342,2.684-2.221-1.111-.409,3.269h6.201c.3-1.03,.6-2.288,.6-3Z"/></svg>
