<?xml version="1.0" encoding="UTF-8"?>
<svg xmlns="http://www.w3.org/2000/svg" id="Layer_1" data-name="Layer 1" viewBox="0 0 24 24">
  <path d="m22.065,13.605l-2.498-1.248c.573-2.607.932-5.503.932-6.357,0-1.657-1.343-3-3-3s-3,1.343-3,3c0,.854.359,3.75.932,6.357l-2.498,1.248c-1.193.597-1.935,1.797-1.935,3.131v7.264h13v-7.264c0-1.334-.741-2.534-1.935-3.131Zm-4.565-8.855c.69,0,1.25.56,1.25,1.25s-.56,1.25-1.25,1.25-1.25-.56-1.25-1.25.56-1.25,1.25-1.25Zm-.063,16.25l-.937-2.5-.938,2.5h-1.562v-4h7v4h-3.563ZM10,5v-1h-1v1h-.983l.483,14h-4l.483-14H0v-1C0,1.791,1.791,0,4,0h5v1h1V0h3v5h-3Z"/>
</svg>
