<svg id="Layer_1" viewBox="0 0 24 24" xmlns="http://www.w3.org/2000/svg" data-name="Layer 1"><path d="m22.999 8.499c0-4.687-3.813-8.499-8.499-8.499-2.847 0-4.867 1.354-6.49 2.442-1.248.836-2.325 1.558-3.509 1.558-.276 0-.5-.224-.5-.5v-3.5h-3.001v3.5c0 1.93 1.57 3.5 3.5 3.5 1.378 0 2.5 1.122 2.5 2.5v4.001c0 1.379-1.122 2.5-2.501 2.5-1.881-.037-3.539 1.622-3.498 3.504l.004 4.497 3-.004-.004-4.496c.051-.345.155-.449.5-.501.919 0 1.618.607 2.773 1.679 1.51 1.401 3.579 3.32 7.227 3.32 2.271 0 4.405-.884 6.01-2.489s2.49-3.74 2.489-6.011v-7.001zm-13.321-3.565c1.484-.995 2.886-1.934 4.82-1.934 3.032 0 5.5 2.467 5.5 5.499v3.812c-.382.205-1.459.709-2.871.709-.881 0-1.43-.192-2.125-.436-.809-.284-1.726-.605-3.117-.605-.716 0-1.342.087-1.886.217v-2.697c0-1.468-.581-2.8-1.522-3.787.409-.25.807-.515 1.201-.779zm4.821 16.066c-2.47 0-3.789-1.224-5.186-2.52-.342-.318-.699-.645-1.078-.955.587-.545 1.056-1.215 1.361-1.969.282-.183 1.032-.577 2.289-.577.881 0 1.43.192 2.125.436.809.284 1.726.605 3.117.605 1.13 0 2.098-.213 2.866-.465-.014 1.449-.58 2.809-1.605 3.833-1.039 1.039-2.42 1.611-3.889 1.611zm-1-13h-1.875l2.845-2.78c.293-.293.768-.293 1.061 0l2.845 2.78h-1.875v3h-3v-3z"/></svg>