<?xml version="1.0" encoding="UTF-8"?>
<svg xmlns="http://www.w3.org/2000/svg" id="Layer_1" data-name="Layer 1" viewBox="0 0 24 24" width="512" height="512"><path d="m23.198,10.864c-1.12-2.58-2.178-5.017-3.32-6.428C17.392,1.117,13.297-.521,9.179.153,4.947.852,1.495,3.97.384,8.099c-.938,3.486-.113,7.118,2.262,9.962.226.271.35.609.35.954v4.985h14v-3h.894c1.739,0,3.229-1.3,3.468-3.022l.341-2.478h2.298v-2.817s-.574-1.306-.797-1.818Zm-4.116,1.636l-.698,5.067c-.033.247-.247.433-.495.433h-3.894v3H5.995v-1.985c0-1.046-.372-2.067-1.047-2.876-1.74-2.085-2.348-4.73-1.668-7.261.735-2.73,2.989-4.917,5.72-5.623v3.002c-1.746.619-3,2.287-3,4.243,0,2.481,2.019,4.5,4.5,4.5s4.5-2.019,4.5-4.5c0-1.956-1.254-3.624-3-4.243v-3.192c2.158.266,4.148,1.393,5.512,3.214.92,1.138,1.944,3.497,2.935,5.779.064.147.128.295.192.441h-1.557Z"/></svg>
