<svg id="Layer_1" viewBox="0 0 24 24" xmlns="http://www.w3.org/2000/svg" data-name="Layer 1"><path d="m5 15h3v3h-3zm8-7v-3h-3v3zm-10-4.5c0-.275.225-.5.5-.5h11c.275 0 .5.225.5.5v4.5h3v-4.5c0-1.93-1.57-3.5-3.5-3.5h-11c-1.93 0-3.5 1.57-3.5 3.5v20.5h8v-3h-5zm2 9.5h3v-3h-3zm19 6.077v2.923h-2v2h-4v-2h-2v2h-4v-2h-2v-2.923c0-.969.147-1.93.439-2.855l1.189-3.774c.46-1.463 1.802-2.447 3.338-2.447h4.066c1.536 0 2.878.984 3.338 2.448l1.189 3.772c.292.927.439 1.888.439 2.856zm-3.655-3.077-.836-2.65c-.065-.21-.257-.35-.477-.35h-4.066c-.22 0-.411.14-.477.349l-.836 2.651h6.691zm-15.345-8h3v-3h-3z"/></svg>