<?xml version="1.0" encoding="UTF-8"?>
<svg xmlns="http://www.w3.org/2000/svg" id="Layer_1" data-name="Layer 1" viewBox="0 0 24 24">
  <path d="m22,12c0-1.285-.252-2.51-.696-3.64l1.838-1.061-1.5-2.598-1.839,1.062c-1.537-1.919-3.765-3.253-6.303-3.638V0h-3v2.125c-2.539.385-4.766,1.719-6.303,3.638l-1.839-1.062-1.5,2.598,1.838,1.061c-.444,1.13-.696,2.355-.696,3.64s.252,2.51.696,3.64l-1.838,1.061,1.5,2.598,1.839-1.062c1.537,1.919,3.765,3.253,6.303,3.638v2.125h3v-2.125c2.539-.385,4.766-1.719,6.303-3.638l1.839,1.062,1.5-2.598-1.838-1.061c.444-1.13.696-2.355.696-3.64Zm-10-7c3.86,0,7,3.141,7,7,0,1.396-.416,2.696-1.123,3.789l-5.877-10.075-5.877,10.075c-.708-1.094-1.123-2.393-1.123-3.789,0-3.859,3.14-7,7-7Zm-1,7v-3h2v3h-2Zm2,1v2h-2v-2h2Zm-1,6c-2.372,0-4.47-1.189-5.736-3h11.472c-1.267,1.811-3.364,3-5.736,3Z"/>
</svg>
