<?xml version="1.0" encoding="UTF-8"?>
<svg xmlns="http://www.w3.org/2000/svg" id="Layer_1" data-name="Layer 1" viewBox="0 0 24 24">
  <path d="m22,19v-11c0-4.418-1.791-8-4-8H5.5C2.416,0,0,3.514,0,8c0,4.24,2.159,7.612,5,7.968v3.532c0,2.481,2.019,4.5,4.5,4.5h14.5v-3c-1.103,0-2-.897-2-2Zm-4-14.5c.552,0,1,1.567,1,3.5s-.448,3.5-1,3.5-1-1.567-1-3.5.448-3.5,1-3.5ZM5.5,13c-1.18,0-2.5-2.138-2.5-5s1.32-5,2.5-5h9.378c-.549,1.37-.878,3.108-.878,5s.329,3.63.878,5H5.5Zm4,8c-.827,0-1.5-.673-1.5-1.5v-3.5h10c.345,0,.68-.088,1-.252v3.252c0,.71.149,1.387.418,2h-9.918Z"/>
</svg>
