<svg id="Layer_1" viewBox="0 0 24 24" xmlns="http://www.w3.org/2000/svg" data-name="Layer 1"><path d="m19 0c-1.363 0-2.597.551-3.5 1.438-.903-.887-2.137-1.438-3.5-1.438s-2.597.551-3.5 1.438c-.903-.887-2.137-1.438-3.5-1.438-2.757 0-5 2.243-5 5v19h3c0-1.103.897-2 2-2s2 .897 2 2h3c0-1.103.897-2 2-2s2 .897 2 2h3c0-1.103.897-2 2-2s2 .897 2 2h3v-19c0-2.757-2.243-5-5-5zm0 3c1.103 0 2 .897 2 2v1.424c-.614-.269-1.288-.424-2-.424s-1.386.154-2 .424v-1.424c0-1.103.897-2 2-2zm-5 9.924c-.614-.269-1.288-.424-2-.424s-1.386.154-2 .424v-1.924c0-1.103.897-2 2-2s2 .897 2 2zm-2-9.924c1.103 0 2 .897 2 2v1.424c-.614-.269-1.288-.424-2-.424s-1.386.154-2 .424v-1.424c0-1.103.897-2 2-2zm-7 0c1.103 0 2 .897 2 2v1.424c-.614-.269-1.288-.424-2-.424s-1.386.154-2 .424v-1.424c0-1.103.897-2 2-2zm0 6c1.103 0 2 .897 2 2v1.924c-.614-.269-1.288-.424-2-.424s-1.386.154-2 .424v-1.924c0-1.103.897-2 2-2zm0 10c-.711 0-1.388.149-2 .417v-1.917c0-1.103.897-2 2-2s2 .897 2 2v1.917c-.612-.269-1.289-.417-2-.417zm7 0c-.712 0-1.386.154-2 .424v-1.924c0-1.103.897-2 2-2s2 .897 2 2v1.924c-.614-.269-1.288-.424-2-.424zm9 .417c-.612-.269-1.289-.417-2-.417s-1.388.149-2 .417v-1.917c0-1.103.897-2 2-2s2 .897 2 2zm0-6.494c-.614-.269-1.288-.424-2-.424s-1.386.154-2 .424v-1.924c0-1.103.897-2 2-2s2 .897 2 2z"/></svg>