<?xml version="1.0" encoding="UTF-8"?>
<svg xmlns="http://www.w3.org/2000/svg" id="Layer_1" data-name="Layer 1" viewBox="0 0 24 24">
  <path d="M15.798,3l-.685-3h4.607l.604,3h-4.526ZM6.771,19H2.315l-.204-1.26c-.737-4.555-1.111-8.336-1.111-11.24,0-2.009,.947-3.93,2.539-5.153,.378-.335,1.707-1.347,3.961-1.347,2.548,0,3.913,1.292,4.061,1.439l.439,.439V10.121l-.439,.439c-.147,.147-1.513,1.439-4.061,1.439-.694,0-1.335-.129-1.903-.322,.13,1.298,.385,3.086,.844,5.546l.331,1.775Zm-1.711-11.061s1.108,1.061,2.439,1.061c.676,0,1.174-.153,1.5-.303V3.301c-.322-.147-.821-.301-1.5-.301-1.297,0-1.939,.563-1.967,.587-.877,.658-1.533,1.817-1.533,2.913,0,.125,0,.252,.002,.381l1.059,1.059Zm-2.385,13.061l.604,3H7.887l-.685-3H2.676Zm19.324-3.5c0,2.009-.947,3.93-2.539,5.153-.378,.335-1.707,1.347-3.961,1.347-2.548,0-3.913-1.292-4.061-1.439l-.439-.439V13.879l.439-.439c.147-.147,1.513-1.439,4.061-1.439,.694,0,1.335,.129,1.903,.322-.13-1.298-.385-3.086-.844-5.546l-.331-1.775h4.456l.204,1.26c.737,4.555,1.111,8.336,1.111,11.24Zm-3,0c0-.125,0-.252-.002-.381l-1.059-1.059s-1.108-1.061-2.439-1.061c-.676,0-1.174,.153-1.5,.303v5.396c.322,.147,.821,.301,1.5,.301,1.297,0,1.939-.563,1.967-.587,.877-.658,1.533-1.817,1.533-2.913Z"/>
</svg>
