<?xml version="1.0" encoding="utf-8"?>
<!-- Generator: Adobe Illustrator 26.5.3, SVG Export Plug-In . SVG Version: 6.00 Build 0)  -->
<svg xmlns="http://www.w3.org/2000/svg" xmlns:xlink="http://www.w3.org/1999/xlink" version="1.1" id="Layer_1" x="0px" y="0px" viewBox="0 0 24 24" style="enable-background:new 0 0 24 24;" xml:space="preserve">
<path d="M13.5,17.2v-1.8c0.8-0.7,1.3-2.1,0.4-4.1c3.8,5,8.6-2.3,2.4-3.3c6.2-1,1.4-8.4-2.4-3.3C15.2,1.6,13.6,0,12,0  c-1.6,0-3.2,1.6-1.9,4.7C6.2-0.4,1.5,6.9,7.7,8c-6.2,1-1.4,8.3,2.4,3.3c-0.8,2-0.4,3.4,0.4,4.1v1.8C8.1,15,4.2,13.7,0,15.2  C0,22.8,5.5,24,10.9,24l1.1,0h0h0l1.1,0c5.4,0,10.9-1.2,10.9-8.8C19.8,13.7,15.9,15,13.5,17.2z M3.1,17.6c3.6-0.4,5.6,1.7,6.6,3.4  C7.2,20.9,3.8,20.4,3.1,17.6z M12,10C12,10,12,10,12,10C12,10,12,10,12,10c-2.6,0-2.6-4,0-4c0,0,0,0,0,0s0,0,0,0  C14.6,5.9,14.6,10,12,10z M14.3,21c1-1.7,3-3.8,6.6-3.4C20.2,20.4,16.8,20.9,14.3,21z"/>
</svg>
