<svg id="Layer_1" viewBox="0 0 24 24" xmlns="http://www.w3.org/2000/svg" data-name="Layer 1"><path d="m21 19.5v4.5h-3v-4.5c0-1.378-1.122-2.5-2.5-2.5h-7c-1.378 0-2.5 1.122-2.5 2.5v4.5h-3v-4.5c0-3.033 2.467-5.5 5.5-5.5h7c3.033 0 5.5 2.467 5.5 5.5zm-14.177-10.481c-.52-.888-.823-1.918-.823-3.019 0-3.309 2.691-6 6-6s6 2.691 6 6c0 1.09-.297 2.11-.807 2.992.417.548 1.003 1.008 1.807 1.008 0 0-1 2-3 2-.804 0-1.459-.144-1.992-.353-.629.224-1.303.353-2.008.353s-1.379-.129-2.008-.353c-.533.209-1.188.353-1.992.353-2 0-3-2-3-2 .807 0 1.4-.448 1.823-.981zm8.177-3.019c0-1.002-.499-1.886-1.256-2.431-.872 1.452-2.447 2.431-4.265 2.431-.162 0-.315-.033-.474-.048 0 .016-.005.031-.005.048 0 1.654 1.346 3 3 3s3-1.346 3-3z"/></svg>