<?xml version="1.0" encoding="UTF-8"?>
<svg xmlns="http://www.w3.org/2000/svg" id="Layer_1" data-name="Layer 1" viewBox="0 0 24 24">
  <path d="m8.702,15h2.298v3h-2.659l-.721,6h-3.019l.721-6H0l.353-3h5.33l.721-6H0l.353-3h6.411l.721-6h3.019l-.721,6h5.876l.721-6h3.019l-.721,6h5.323l-.353,3h-.468c-1.183-1.23-2.842-2-4.679-2s-3.496.77-4.679,2h-4.398l-.721,6Zm14.298,0h1v6c0,1.654-1.346,3-3,3h-5c-1.654,0-3-1.346-3-3v-6h1v-1.5c0-2.481,2.019-4.5,4.5-4.5s4.5,2.019,4.5,4.5v1.5Zm-6,0h3v-1.5c0-.827-.673-1.5-1.5-1.5s-1.5.673-1.5,1.5v1.5Zm3,3h-3v3h3v-3Z"/>
</svg>
