<?xml version="1.0" encoding="UTF-8"?>
<svg xmlns="http://www.w3.org/2000/svg" id="Layer_1" data-name="Layer 1" viewBox="0 0 24 24">
  <path d="m21.79,19.246l-1.473-15.305c-.281-2.247-2.201-3.941-4.465-3.941h-7.703C5.884,0,3.964,1.694,3.678,3.984l-1.468,15.262c-1.293.515-2.21,1.779-2.21,3.253v1.5h24v-1.5c0-1.474-.917-2.739-2.21-3.254ZM8.148,3h7.703c.755,0,1.395.565,1.484,1.271l1.417,14.729H5.247l1.412-14.686c.094-.75.734-1.314,1.489-1.314Zm3.084,6h-3.014l.254-2.643c.074-.77.72-1.356,1.493-1.356h2.034v3h-.671l-.096,1Z"/>
</svg>
