<?xml version="1.0" encoding="UTF-8"?>
<svg xmlns="http://www.w3.org/2000/svg" id="Layer_1" data-name="Layer 1" viewBox="0 0 24 24">
  <path d="m23.99,18.004v1.501c0,1.929-1.569,3.499-3.499,3.499-.938,0-1.815-.367-2.473-1.032-.651-.66-1.01-1.537-1.009-2.47v-.498h-2v4.002l-5.01-.006v-3.998h-4.994l-.01,3.998-4.986.006v-13.507C.01,5.916,2.926,3,6.51,3h.982c1.074-1.245,2.682-1.998,4.576-1.998,1.929,0,3.886,1.236,4.922,3.025,1.868,1.19,3.023,3.257,3.02,5.479v9.998c0,.188.09.307.144.361.063.063.173.14.338.14.275,0,.499-.224.499-.499v-1.501h3Zm-6.98-2v-6.5c0-1.25-.673-2.414-1.758-3.04l-.554-.327-.015.008c-.558-1.317-1.639-2.144-2.615-2.144-2.214,0-3,1.616-3,3,0,1.468.816,2.658,1.933,2.937v3.036c-2.803-.273-4.933-2.797-4.933-5.973,0-.332.03-.652.075-.965-1.755.187-3.132,1.659-3.132,3.463v6.502l14,.002Z"/>
</svg>
