<?xml version="1.0" encoding="UTF-8"?>
<svg xmlns="http://www.w3.org/2000/svg" id="Layer_1" data-name="Layer 1" viewBox="0 0 24 24">
  <path d="m19.157,16h3.561c-.373.72-.822,1.413-1.363,2.061,0,0,0,0,0,0h0c-.226.27-.35.609-.35.954v4.985H7.004v-3h-.893c-1.74,0-3.23-1.299-3.467-3.022l-.341-2.478H.004v-2.818s.594-1.297.797-1.818c1.699-4.364,3.357-6.47,3.357-6.47C6.356,1.49,9.791-.111,13.385.017c-.92.859-1.616,1.944-2.008,3.166-1.91.388-3.646,1.439-4.854,3.052-.92,1.138-1.979,3.542-2.97,5.824-.064.147-.128.294-.192.441h1.557l.698,5.068c.034.246.247.432.496.432h3.893v3h8v-1.985c0-1.046.372-2.068,1.047-2.876h0c.038-.045.069-.093.105-.139Zm-6.009-11.786c.462-2.007,2.056-3.603,4.062-4.065,1.67-.387,3.39-.006,4.712,1.045,1.32,1.05,2.078,2.62,2.078,4.306,0,1.831-.912,3.534-2.439,4.556-.348.232-.563.683-.562,1.175l.002,2.769h-5.001v-2.772c0-.492-.214-.94-.559-1.17-1.915-1.28-2.816-3.574-2.294-5.843Zm3.961,3.348c.186.124.339.286.5.438h1.783c.162-.152.314-.313.501-.438.693-.464,1.107-1.235,1.107-2.062,0-.767-.345-1.48-.945-1.958-.449-.357-.985-.542-1.552-.542-.203,0-.41.024-.618.072-.882.204-1.61.933-1.813,1.815-.292,1.267.345,2.213,1.037,2.676Z"/>
</svg>
