<?xml version="1.0" encoding="UTF-8"?>
<svg xmlns="http://www.w3.org/2000/svg" id="Layer_1" data-name="Layer 1" viewBox="0 0 24 24">
  <path d="M12.721,24h-2.221C4.71,24,0,19.29,0,13.5v-.5H3v.5c0,4.136,3.364,7.5,7.5,7.5h.087c.471,1.162,1.208,2.185,2.134,3Zm-2.685-5.286c-.021-.236-.036-.473-.036-.714,0-.823,.125-1.616,.356-2.363-1.385-.629-2.356-2.019-2.356-3.637v-1h3v-3h-3v-1c0-2.206,1.794-4,4-4s4,1.794,4,4v1h-3v3h1.13c1.147-.636,2.466-1,3.87-1,.339,0,.672,.028,1,.069v-3.069c0-3.86-3.141-7-7-7S5,3.14,5,7v5c0,3.178,2.13,5.863,5.036,6.714Zm13.964-.714c0,3.309-2.691,6-6,6s-6-2.691-6-6,2.691-6,6-6,6,2.691,6,6Zm-6-3c-.267,0-.521,.046-.767,.112l3.655,3.656c.066-.246,.112-.5,.112-.767,0-1.654-1.346-3-3-3Zm0,6c.267,0,.521-.046,.767-.112l-3.655-3.656c-.066,.246-.112,.5-.112,.767,0,1.654,1.346,3,3,3Z"/>
</svg>
