<svg id="Layer_1" viewBox="0 0 24 24" xmlns="http://www.w3.org/2000/svg" data-name="Layer 1"><path d="m3 7c0-.551.449-1 1-1v-3c-2.206 0-4 1.794-4 4v13.5c0 1.93 1.57 3.5 3.5 3.5h20.5v-16h-20c-.551 0-1-.449-1-1zm18 14h-17.5c-.276 0-.5-.224-.5-.5v-9.626c.32.083.655.126 1 .126h17zm-5-5c0-.828.672-1.5 1.5-1.5s1.5.672 1.5 1.5-.672 1.5-1.5 1.5-1.5-.672-1.5-1.5zm-10-16v6h6c0-1.657 1.343-3 3-3s3 1.343 3 3h6v-6zm3 4.5c-.828 0-1.5-.672-1.5-1.5s.672-1.5 1.5-1.5 1.5.672 1.5 1.5-.672 1.5-1.5 1.5zm12 0c-.828 0-1.5-.672-1.5-1.5s.672-1.5 1.5-1.5 1.5.672 1.5 1.5-.672 1.5-1.5 1.5z"/></svg>