<svg id="Layer_1" viewBox="0 0 24 24" xmlns="http://www.w3.org/2000/svg" data-name="Layer 1"><path d="m19.5 15h-15c-2.481 0-4.5 2.019-4.5 4.5s2.019 4.5 4.5 4.5h15c2.481 0 4.5-2.019 4.5-4.5s-2.019-4.5-4.5-4.5zm-16.5 4.5c0-.827.673-1.5 1.5-1.5s1.5.673 1.5 1.5-.673 1.5-1.5 1.5-1.5-.673-1.5-1.5zm5.724 1.5c.168-.471.276-.971.276-1.5s-.108-1.029-.276-1.5h2.776c.827 0 1.5.673 1.5 1.5s-.673 1.5-1.5 1.5zm10.776 0h-3.776c.168-.471.276-.971.276-1.5s-.108-1.029-.276-1.5h3.776c.827 0 1.5.673 1.5 1.5s-.673 1.5-1.5 1.5zm-15-8h1.185c-.435-.911-.685-1.926-.685-3 0-.865.165-1.691.454-2.456.412 2.074 1.387 3.947 2.758 5.456h4.967c-2.912-1.331-4.944-4.265-4.944-7.67 0-.434.044-.863.109-1.288.522-.322 1.087-.579 1.687-.755.304 4.647 4.02 8.368 8.665 8.681-.108.355-.233.702-.391 1.032h1.195c.672 0 1.321.103 1.931.293.362-1.033.569-2.138.569-3.293 0-5.514-4.486-10-10-10s-10 4.486-10 10c0 1.155.207 2.26.569 3.293.61-.19 1.259-.293 1.931-.293zm14.417-4.021c-3.161-.204-5.692-2.735-5.896-5.896 3.042.448 5.449 2.854 5.896 5.896z"/></svg>