<svg id="Layer_1" viewBox="0 0 24 24" xmlns="http://www.w3.org/2000/svg" data-name="Layer 1"><path d="m6.966 7.913 4.473-4.474c.586-.586 1.536-.586 2.121 0s.586 1.536 0 2.121l-4.474 4.474c-.318-1.012-1.11-1.804-2.121-2.121zm5.11 2.674c-.586-.586-1.536-.586-2.121 0l-2.828 2.828c-.586.586-.586 1.536 0 2.121s1.536.586 2.121 0l2.828-2.828c.586-.586.586-1.536 0-2.121zm.707 2.828-2.828 2.828c-.586.586-.586 1.536 0 2.121s1.536.586 2.121 0l2.828-2.828c.586-.586.586-1.536 0-2.121s-1.536-.586-2.121 0zm10.312-10.417h-2.403l1.513-2.998h-3.863l-2.299 4.808c-.183.579.274 1.2.883 1.19h2.125l-1.637 4.002h1.377l5.059-5.596c.401-.577-.05-1.425-.755-1.406zm-4.656 10.418s0 0 0 .001l-7.583 7.583h-7.856v-8h3c1.103 0 2-.897 2-2s-.897-2-2-2h-2.5c-1.93 0-3.5 1.57-3.5 3.5v11.5h12.098l8.463-8.463s0 0 0 0c.586-.586.586-1.536 0-2.121s-1.536-.586-2.121 0z"/></svg>