<?xml version="1.0" encoding="UTF-8"?>
<svg xmlns="http://www.w3.org/2000/svg" id="Layer_1" data-name="Layer 1" viewBox="0 0 24 24">
  <path d="m20.582,11H3.418c-1.01,0-1.963.443-2.616,1.215-.646.765-.921,1.767-.755,2.748.645,3.811,3.54,7.029,7.797,9.037h8.31c4.258-2.007,7.153-5.226,7.798-9.037.166-.982-.109-1.984-.755-2.748-.652-.772-1.605-1.215-2.615-1.215Zm.413,3.463c-.573,3.389-3.253,5.41-5.52,6.537h-6.95c-2.266-1.127-4.946-3.148-5.519-6.537-.024-.143.035-.248.088-.312.048-.057.153-.151.324-.151h17.164c.171,0,.276.095.324.151.054.063.113.169.089.312ZM10.745,3C10.124,1.229,8.437-.044,6.457-.044,4.18-.044,0,1.682,0,4.5s4.18,4.544,6.457,4.544c1.98,0,3.668-1.273,4.289-3.044h13.255v-3h-13.255Zm-4.289,3.044c-1.257,0-3.287-1.01-3.461-1.505.174-.573,2.204-1.583,3.461-1.583.851,0,1.543.692,1.543,1.544s-.692,1.544-1.543,1.544Z"/>
</svg>
