<svg id="Layer_1" viewBox="0 0 24 24" xmlns="http://www.w3.org/2000/svg" data-name="Layer 1"><path d="m12 0c-4.962 0-9 4.037-9 9l1.107 15h15.786l1.107-15c0-4.963-4.037-9-9-9zm-5.866 10.752c.927.247 2.268.721 3.715 1.597-1.183 1.164-2.313 2.599-3.272 4.378zm10.974 10.248h-9.117c2.317-6.901 7.21-9.299 9.865-10.109l-.749 10.109zm-.406-12.85c-.386-.683-1.111-1.15-1.952-1.15-1.243 0-2.25 1.007-2.25 2.25 0 .299.061.582.167.843-.129.083-.259.17-.389.259-.602-.414-1.778-1.094-1.778-1.102 0-1.482.761-2.784 1.911-3.545-.52-.434-1.181-.705-1.911-.705-1.657 0-2.997 1.375-2.997 3.031-.525-.162-.982-.276-1.353-.355.605-2.673 2.996-4.677 5.85-4.677 2.897 0 5.319 2.065 5.877 4.8-.345.089-.743.205-1.176.35z"/></svg>