<?xml version="1.0" encoding="UTF-8"?>
<svg xmlns="http://www.w3.org/2000/svg" id="Layer_1" data-name="Layer 1" viewBox="0 0 24 24">
  <path d="M3,9H0V3.5C0,1.57,1.57,0,3.5,0H20.5c1.93,0,3.5,1.57,3.5,3.5v5.5h-3V3.5c0-.276-.224-.5-.5-.5H3.5c-.276,0-.5,.224-.5,.5v5.5Zm21.026,4l-9.688,10.016c-.638,.641-1.466,.984-2.348,.984h-.002c-.882,0-1.71-.346-2.332-.971l-.015-.016L-.026,13H7V6h9.988v7h7.038Zm-7.075,3h-2.951v-7h-4.012v7h-2.948l4.749,4.919c.069,.066,.147,.081,.201,.081,.056,0,.136-.015,.207-.086l4.753-4.914Z"/>
</svg>
