<svg id="Layer_1" viewBox="0 0 24 24" xmlns="http://www.w3.org/2000/svg" data-name="Layer 1"><path d="m3.857 12.311 1.95-1.639c.007-.006.015-.009.022-.015l5.171 5.171v1.172h-2v-2h-1v2h-2v-3.875h-.002s-.854.717-.854.717zm11.643-6.311c-.828 0-1.5.672-1.5 1.5s.672 1.5 1.5 1.5 1.5-.672 1.5-1.5-.672-1.5-1.5-1.5zm8.5 6c0 6.617-5.383 12-12 12s-12-5.383-12-12 5.383-12 12-12 12 5.383 12 12zm-6.793 7.328-12.535-12.535c-1.049 1.472-1.672 3.266-1.672 5.207 0 4.963 4.037 9 9 9 1.941 0 3.735-.624 5.207-1.672zm3.793-7.328c0-4.962-4.037-9-9-9-1.941 0-3.735.624-5.207 1.672l1.369 1.369c.109-.025.221-.041.337-.041.828 0 1.5.672 1.5 1.5 0 .116-.016.229-.041.337l3.269 3.269c.337-.661.999-1.107 1.76-1.107h1.024c.883 0 1.662.579 1.916 1.425l1.072 4.575h-.879l1.207 1.207c1.049-1.472 1.672-3.266 1.672-5.207z"/></svg>