<svg id="Layer_1" viewBox="0 0 24 24" xmlns="http://www.w3.org/2000/svg" data-name="Layer 1"><path d="m16.976 10.183c.074.443-.026.912-.277 1.285l-1.933 2.399c-.626.931-1.604 1.772-2.766 1.816-1.162-.045-2.14-.885-2.766-1.816l-1.933-2.399c-.251-.374-.351-.842-.277-1.285.191-1.166 1.695-1.567 2.558-.76l2.418 2.261 2.418-2.261c.863-.807 2.367-.406 2.558.76zm7.024 6.317c0-1.381-1.119-2.5-2.5-2.5-.25 0-.487.048-.714.116-.327-.659-1-1.116-1.786-1.116-1.105 0-2 .895-2 2s.895 2 2 2v7h3v-5.051c1.141-.232 2-1.24 2-2.45zm-17-1.5c0-1.105-.895-2-2-2-.786 0-1.459.457-1.786 1.116-.228-.068-.464-.116-.714-.116-1.381 0-2.5 1.119-2.5 2.5 0 1.209.859 2.218 2 2.45v5.051h3v-7c1.104 0 2-.896 2-2zm7.232 4.393c-.621-.418-1.325-.893-2.232-.893s-1.612.475-2.232.893c-.463.312-.9.607-1.268.607-.276 0-.833-.335-1.5-1.018v3.672c.505.223 1.008.346 1.5.346 1.284 0 2.244-.647 2.945-1.119.168-.114.407-.274.555-.352.148.077.387.237.555.352.701.472 1.661 1.119 2.945 1.119.492 0 .995-.123 1.5-.346v-3.672c-.667.683-1.224 1.018-1.5 1.018-.367 0-.805-.295-1.268-.607zm-11.866-7.38c.383-.338.828-.601 1.319-.774-.416-1.106-.831-2.476-.618-3.438.262-1.368 1.406-2.496 2.782-2.743 1.622-.332 3.045.595 3.882 1.941h4.538c.837-1.347 2.26-2.274 3.882-1.941 1.376.247 2.52 1.375 2.782 2.743.214.96-.201 2.333-.618 3.438.492.173.936.435 1.319.774.522.016 1.02.12 1.483.299.219-.478.358-1 .479-1.496.325-1.237.56-2.132.282-3.58-.497-2.6-2.586-4.662-5.197-5.132-1.87-.332-3.739.157-5.181 1.296v-3.4h-3v3.402c-1.443-1.139-3.312-1.628-5.182-1.296-2.611.469-4.7 2.532-5.197 5.131-.343 1.944.163 3.354.761 5.076.463-.18.961-.284 1.483-.299z"/></svg>