<svg id="Layer_1" viewBox="0 0 24 24" xmlns="http://www.w3.org/2000/svg" data-name="Layer 1"><path d="m9.982 12.03 5.753 6.085-2.192 2.049-5.752-6.156c-1.059-1.129-1.058-2.901.004-4.031l5.741-6.12 2.188 2.053zm2.109-9.5-2.182-2.06-9.147 9.69c-1.015 1.015-1.015 2.665-.03 3.648l9.177 9.721 2.182-2.059-8.942-9.47zm2.409 7.97c-.828 0-1.5.672-1.5 1.5s.672 1.5 1.5 1.5 1.5-.672 1.5-1.5-.672-1.5-1.5-1.5zm4 0c-.828 0-1.5.672-1.5 1.5s.672 1.5 1.5 1.5 1.5-.672 1.5-1.5-.672-1.5-1.5-1.5zm4 0c-.828 0-1.5.672-1.5 1.5s.672 1.5 1.5 1.5 1.5-.672 1.5-1.5-.672-1.5-1.5-1.5z"/></svg>