<svg id="Layer_1" viewBox="0 0 24 24" xmlns="http://www.w3.org/2000/svg" data-name="Layer 1"><path d="m3 11c0 1.066.384 2.03 1 2.747v3.681c-2.35-1.075-4-3.55-4-6.428 0-3.86 2.967-7 6.613-7h.821c-.144-1.109-.504-1.809-.763-2.304l2.658-1.392c.32.612.851 1.644 1.069 3.239.142-.764.449-1.727 1.13-2.408 1.291-1.29 3.466-1.129 3.466-1.129s.162 2.175-1.129 3.465c-.302.302-.66.527-1.03.703 2.951.702 5.165 3.493 5.165 6.826h-3c0-2.206-1.621-4-3.613-4h-4.774c-1.992 0-3.613 1.794-3.613 4zm20 6v-2h-2v-2h-3v4h-6v-4h-3v2h-2v2h-1v3h1v2h2v2h3v-4h6v4h3v-2h2v-2h1v-3z"/></svg>