<?xml version="1.0" encoding="UTF-8"?>
<svg xmlns="http://www.w3.org/2000/svg" id="Layer_1" data-name="Layer 1" viewBox="0 0 24 24" width="512" height="512"><path d="m17.844,14.228c1.203-1.91,2.156-4.095,2.156-6.228C20,3.589,16.411,0,12,0S4,3.589,4,8c0,2.133.953,4.318,2.156,6.228-1.822.576-3.156,2.262-3.156,4.272v5.5h3v-5.5c0-.827.673-1.5,1.5-1.5h.692c1.423,1.703,2.691,2.847,2.811,2.954l.996.886.996-.886c.121-.107,1.389-1.251,2.811-2.954h.692c.827,0,1.5.673,1.5,1.5v5.5h3v-5.5c0-2.01-1.334-3.697-3.156-4.272Zm-5.845,2.526c-1.967-2.008-4.999-5.745-4.999-8.754,0-2.757,2.243-5,5-5s5,2.243,5,5c0,2.999-3.034,6.742-5.001,8.754Zm3.393-7.361c-.744.744-2.381.595-2.381.595,0,0-.149-1.637.595-2.381.744-.744,2.381-.595,2.381-.595,0,0,.149,1.637-.595,2.381Zm-4.989-1.783c.747.747.598,2.392.598,2.392,0,0-1.644.15-2.392-.598-.747-.747-.598-2.392-.598-2.392,0,0,1.644-.149,2.392.598Z"/></svg>
