<?xml version="1.0" encoding="UTF-8"?>
<svg xmlns="http://www.w3.org/2000/svg" id="Layer_1" data-name="Layer 1" viewBox="0 0 24 24">
  <path d="m22,18V4h-3v9h-3.189l-2.019-10.187c-.326-1.631-1.77-2.813-3.432-2.813H3.5C1.57,0,0,1.57,0,3.5v17.5c0,1.657,1.343,3,3,3s3-1.343,3-3h5c0,1.657,1.343,3,3,3s3-1.343,3-3v-2l-.594-3h2.594v5h5v-3h-2ZM3.5,3h6.86c.238,0,.444.169.491.401l1.92,9.599h-2.634l-.125-.446c-.422-1.504-1.808-2.554-3.37-2.554h-3.642V3.5c0-.275.224-.5.5-.5Zm10.271,15H3v-5h3.642c.223,0,.421.15.481.364l.74,2.636h5.507l.4,2Z"/>
</svg>
