<svg id="Layer_1" viewBox="0 0 24 24" xmlns="http://www.w3.org/2000/svg" data-name="Layer 1"><path d="m17.021 13.516c0 .829-.672 1.502-1.502 1.502-.68 0-1.248-.455-1.433-1.075l-1.134-.655c-.275.235-.59.42-.937.544v3.188h-2.002v-3.188c-.348-.124-.662-.309-.937-.544l-1.117.645c-.166.649-.749 1.131-1.45 1.131-.829 0-1.502-.672-1.502-1.502s.672-1.502 1.502-1.502c.183 0 .357.038.519.098l1.038-.599c-.033-.178-.055-.359-.055-.546s.022-.368.055-.546l-2.755-1.59 1.001-1.735 2.764 1.595c.275-.235.59-.42.937-.544v-1.575c-.305-.275-.501-.669-.501-1.112 0-.829.672-1.502 1.502-1.502s1.502.672 1.502 1.502c0 .443-.195.837-.501 1.112v1.575c.347.124.662.309.937.544l2.764-1.595 1.001 1.735-2.755 1.59c.033.178.055.359.055.546s-.022.368-.055.546l.986.569c.176-.073.369-.114.571-.114.829 0 1.502.672 1.502 1.502zm4.855 10.484-4.222-4.222c-1.849 1.404-4.146 2.248-6.641 2.248-6.072.001-11.013-4.94-11.013-11.013s4.941-11.013 11.013-11.013 11.013 4.941 11.013 11.013c0 2.496-.844 4.792-2.248 6.641l4.222 4.222zm-2.853-12.987c0-4.417-3.593-8.01-8.01-8.01s-8.009 3.594-8.009 8.01 3.593 8.01 8.01 8.01 8.01-3.593 8.01-8.01z"/></svg>