<?xml version="1.0" encoding="UTF-8"?>
<svg xmlns="http://www.w3.org/2000/svg" id="Layer_1" data-name="Layer 1" viewBox="0 0 24 24">
  <path d="m22,12c0-1.285-.252-2.51-.696-3.64l1.838-1.061-1.5-2.598-1.839,1.062c-1.537-1.919-3.765-3.253-6.303-3.638V0h-3v2.125c-2.539.385-4.766,1.719-6.303,3.638l-1.839-1.062-1.5,2.598,1.838,1.061c-.444,1.13-.696,2.355-.696,3.64s.252,2.51.696,3.64l-1.838,1.061,1.5,2.598,1.839-1.062c1.537,1.919,3.765,3.253,6.303,3.638v2.125h3v-2.125c2.539-.385,4.766-1.719,6.303-3.638l1.839,1.062,1.5-2.598-1.838-1.061c.444-1.13.696-2.355.696-3.64Zm-10,7c-3.86,0-7-3.141-7-7s3.14-7,7-7,7,3.141,7,7-3.14,7-7,7Zm-2-9c-.35,0-.681.067-1,.163v-3.163h2v3.163c-.319-.096-.65-.163-1-.163Zm2,3.5c0,.738-.405,1.376-1,1.723v1.777h-2v-1.777c-.595-.346-1-.984-1-1.723,0-1.105.895-2,2-2s2,.895,2,2Zm4-3c0,1.105-.895,2-2,2s-2-.895-2-2c0-.738.405-1.376,1-1.723v-1.777h2v1.777c.595.346,1,.984,1,1.723Zm-2,3.5c.35,0,.681-.067,1-.163v3.163h-2v-3.163c.319.096.65.163,1,.163Z"/>
</svg>
