<svg id="Layer_1" viewBox="0 0 24 24" xmlns="http://www.w3.org/2000/svg" data-name="Layer 1"><path d="m4 0v21c0 1.657 1.343 3 3 3h10c1.657 0 3-1.343 3-3v-21zm10 22h-4v-2h4zm-7-4v-15h10v15zm5.999-2c0 .552-.448 1-1 1s-1-.448-1-1 .448-1 1-1 1 .448 1 1zm1.828-2.328-1.132 1.131c-.936-.935-2.458-.935-3.393 0l-1.132-1.131c1.56-1.56 4.098-1.56 5.657 0zm1.769-1.768-1.132 1.131c-.925-.925-2.155-1.435-3.464-1.435s-2.539.51-3.464 1.435l-1.132-1.131c1.228-1.228 2.86-1.904 4.596-1.904s3.369.676 4.596 1.904zm-2.901 2.899s0 0 0 0zm-2.695-5.732c-1.073.144-2.092.514-3 1.09v-2.741c0-.41.189-.797.512-1.05l2.667-2.087c.483-.378 1.161-.378 1.643 0l2.667 2.087c.323.253.512.64.512 1.05v2.74c-.908-.575-1.927-.945-3-1.089v-1.071h-2v1.071z"/></svg>