<?xml version="1.0" encoding="UTF-8"?>
<svg xmlns="http://www.w3.org/2000/svg" id="Layer_1" data-name="Layer 1" viewBox="0 0 24 24" width="512" height="512"><path d="m17.4,6.6c.663.663.797,1.603.3,2.1s-1.437.363-2.1-.3-.797-1.603-.3-2.1c.497-.497,1.437-.363,2.1.3Zm4.96,6.76c-5.215,5.216-12.663,5.623-12.978,5.638l-.662.031-.814-.814-2.433,2.433c.327.356.527.831.527,1.352,0,1.105-.895,2-2,2s-2-.895-2-2c-1.105,0-2-.895-2-2s.895-2,2-2c.521,0,.996.2,1.352.527l2.433-2.433-.832-.832.051-.686c.024-.322.666-7.946,5.635-12.937,2.571-2.569,7.29-2.031,10.521,1.2,3.231,3.23,3.77,7.95,1.2,10.521Zm-7.005,1.102c-1.272-.48-2.481-1.267-3.516-2.302-1.041-1.041-1.802-2.237-2.27-3.465-.952,2.275-1.346,4.407-1.494,5.446l1.799,1.8c1.024-.125,3.164-.487,5.481-1.478Zm3.684-9.501c-1.27-1.27-2.872-1.959-4.23-1.959-.81,0-1.534.245-2.048.76-1.376,1.376-.827,4.251,1.2,6.278,1.054,1.054,2.333,1.734,3.6,1.916,1.105.157,2.059-.096,2.679-.715,1.376-1.376.827-4.251-1.2-6.278Z"/></svg>
