<?xml version="1.0" encoding="UTF-8"?>
<svg xmlns="http://www.w3.org/2000/svg" id="Layer_1" data-name="Layer 1" viewBox="0 0 24 24">
  <path d="m12,3c1.381,0,2.5,1.119,2.5,2.5s-1.119,2.5-2.5,2.5-2.5-1.119-2.5-2.5,1.119-2.5,2.5-2.5Zm-3.943,1.867c.116-.7.415-1.337.843-1.867,0,0,.599-1,3.099-1s3.099,1,3.099,1c.428.53.727,1.167.843,1.867.657-.507,1.057-1.145,1.057-1.867,0-1.71-2.149-3-5-3s-5,1.29-5,3c0,.722.4,1.36,1.057,1.867Zm11.943,14.133v1.398l1.591,3.602H2.409l1.591-3.602v-1.398h-2v-2H0C0,6,2.543,6,3.5,6c3.502,0,6.263,2.781,7.151,3.79.88.277,1.819.277,2.699,0,.887-1.009,3.649-3.79,7.151-3.79.957,0,3.5,0,3.5,11h-2v2h-2Zm-3.999-7.656l2.498,5.656h.501v-2h1.954c-.121-2.681-.467-5.113-.868-5.978-1.74.189-3.284,1.508-4.085,2.322Zm-12.954,3.656h1.954v2h.501l2.498-5.656c-.801-.814-2.345-2.133-4.085-2.322-.401.865-.747,3.297-.868,5.978Zm13.941,6l-3.592-8.132c-.917.176-1.872.176-2.789,0l-3.592,8.132h9.974Z"/>
</svg>
