<?xml version="1.0" encoding="UTF-8"?>
<svg xmlns="http://www.w3.org/2000/svg" id="Layer_1" data-name="Layer 1" viewBox="0 0 24 24">
  <path d="m22,21c0-1.21-.717-2.252-1.748-2.726,1.744-1.976,2.748-4.547,2.748-7.274C23,4.935,18.065,0,12,0S1,4.935,1,11c0,2.727,1.004,5.297,2.748,7.274-1.031.475-1.748,1.516-1.748,2.726H0v3h24v-3h-2ZM12,3c4.411,0,8,3.589,8,8,0,2.917-1.579,5.587-4.131,7h-2.869v-2h2.75l-2.25-3h1.875l-3.375-4.5-3.375,4.5h1.875l-2.25,3h2.75v2h-2.869c-2.552-1.413-4.131-4.083-4.131-7,0-4.411,3.589-8,8-8Zm1,3.5c0-.828.672-1.5,1.5-1.5s1.5.672,1.5,1.5-.672,1.5-1.5,1.5-1.5-.672-1.5-1.5Zm3,4c0-.828.672-1.5,1.5-1.5s1.5.672,1.5,1.5-.672,1.5-1.5,1.5-1.5-.672-1.5-1.5Zm-10-2c0-.828.672-1.5,1.5-1.5s1.5.672,1.5,1.5-.672,1.5-1.5,1.5-1.5-.672-1.5-1.5Z"/>
</svg>
