<svg id="Layer_1" viewBox="0 0 24 24" xmlns="http://www.w3.org/2000/svg" data-name="Layer 1"><path d="m8 2.5c0-1.381 1.119-2.5 2.5-2.5s2.5 1.119 2.5 2.5-1.119 2.5-2.5 2.5-2.5-1.119-2.5-2.5zm-2 4.5h-6v5h6zm0-7h-6v5h6zm18 21c0 1.657-1.343 3-3 3s-3-1.343-3-3h-7v-5.279l-1.606-.829c-1.168-.603-1.894-1.795-1.894-3.11v-3.228c0-.33 0-1.334.775-2.013.941-.759 1.934-.564 2.725-.401l5.258 1.86h3.892s1.851 7.279 1.851 7.5v2.684c1.162.413 2 1.512 2 2.816zm-10-7.106v4.106h5v-2.415c-.083-.479-.602-2.514-1.151-4.585h-2.106l-3.742-1.324v3.185l2 1.033zm-5.646 3.319c.401.673.646 1.449.646 2.287 0 2.481-2.019 4.5-4.5 4.5s-4.5-2.019-4.5-4.5v-5.5h6.322l2.033 3.213zm-2.354 2.287c-.001-.815-.668-1.501-1.5-1.5-.827 0-1.5.673-1.5 1.5s.673 1.5 1.5 1.5 1.5-.673 1.5-1.5z"/></svg>