<?xml version="1.0" encoding="UTF-8"?>
<svg xmlns="http://www.w3.org/2000/svg" id="Layer_1" data-name="Layer 1" viewBox="0 0 24 24">
  <path d="m17,6c-.669,0-1.535.159-2.362.781-.359-.212-.723-.38-1.089-.503.348-3.18,2.428-3.278,2.451-3.278.673,0,1,.327,1,1h3c0-2.317-1.682-4-4-4-.904,0-2.661.454-3.947,2.05-.674-.924-1.493-1.515-2.247-1.891l-1.341,2.684c.452.225,1.732.866,1.989,3.435-.367.124-.732.292-1.093.505-.827-.622-1.693-.781-2.362-.781C3.763,6,0,9.932,0,15s3.763,9,7,9c.669,0,1.535-.159,2.362-.781,1.727,1.02,3.55,1.02,5.276,0,.827.622,1.693.781,2.362.781,3.237,0,7-3.932,7-9s-3.763-9-7-9Zm0,15c-.264,0-.583-.072-.946-.607l-.965-1.421-1.278,1.147c-.624.56-1.284.881-1.811.881s-1.187-.321-1.811-.881l-1.278-1.147-.965,1.421c-.363.535-.682.607-.946.607-1.58,0-4-2.688-4-6s2.42-6,4-6c.264,0,.583.072.946.607l.965,1.421,1.278-1.147c.624-.56,1.284-.881,1.811-.881s1.187.321,1.811.881l1.278,1.147.965-1.421c.363-.535.682-.607.946-.607,1.58,0,4,2.688,4,6s-2.42,6-4,6Z"/>
</svg>
