<svg id="Layer_1" viewBox="0 0 24 24" xmlns="http://www.w3.org/2000/svg" data-name="Layer 1"><path d="m24 12v12h-24v-17.5c0-1.93 1.57-3.5 3.5-3.5h7.5v3h-7.5c-.276 0-.5.225-.5.5v.276l7.361 7.545c.875.876 2.402.876 3.278 0l.46-.46c.585-.001 1.158-.17 1.71-.525l1.941-1.337h2.453l-4.442 4.442c-1.004 1.004-2.34 1.558-3.76 1.558s-2.757-.553-3.761-1.558l-5.239-5.388v9.945h18v-9h3zm-10.998-1.226-.002-8.772c0-1.1.899-2 1.999-2.001l7-.002c1.104 0 2 .895 2 2v8h-6.872l-2.454 1.69c-.186.119-.387.173-.583.173-.566 0-1.089-.45-1.089-1.088zm1.997-6.251 1.936 1.078-.76 2.378.421.317 1.911-1.477 1.902 1.471.442-.305-.774-2.351 1.923-1.114v-.52h-2.523l-.686-2.641h-.567l-.686 2.641h-2.537v.523z"/></svg>