<?xml version="1.0" encoding="UTF-8"?>
<svg xmlns="http://www.w3.org/2000/svg" id="Layer_1" data-name="Layer 1" viewBox="0 0 24 24">
  <path d="m18,7v4.01h4l-3,3h-1.88l-3.13,3.12c-.07,1.04-.9,1.87-2,1.87s-2-.93-2-2,.82-1.94,1.87-2h.01l3.13-3.12v-1.88l3-3Zm.74,8.19l-2.94,2.94c-.49,1.65-2.01,2.87-3.82,2.87-2.21,0-4-1.79-4-4,0-1.81,1.22-3.32,2.87-3.82l2.94-2.94c-.58-.15-1.18-.24-1.81-.24-3.86,0-7,3.14-7,7s3.14,7,7,7,7-3.14,7-7c0-.63-.09-1.23-.24-1.81Zm2.26,5.81h-.97c-.581,1.165-1.402,2.189-2.406,3h6.376v-12.162l-3,3v6.162Zm0-19h-3V0h-3v2h-6V0h-3v2h-3c-1.654,0-3,1.346-3,3v19h6.336c-1.004-.811-1.825-1.835-2.406-3h-.93v-11h3.336c1.545-1.248,3.508-2,5.644-2,.655,0,1.302.072,1.97.222l3.222-3.222h2.828v4.01h4v-4.01c0-1.654-1.346-3-3-3Z"/>
</svg>
