<?xml version="1.0" encoding="UTF-8"?>
<svg xmlns="http://www.w3.org/2000/svg" id="Layer_1" data-name="Layer 1" viewBox="0 0 24 24">
  <path d="M24.085,15.366l-2.37-5.088c-.239-.864-.612-1.674-1.125-2.379l3.397-3.988-1.122-.975C20.47,.856,17.402-.174,14.216,.025,7.822,.433,3,5.723,3,12.329v4.854c0,.72-.175,1.437-.507,2.074L.031,24H5.062c2.041,0,3.938-1.101,4.949-2.872,.646-1.132,.988-2.418,.988-3.722v-5.406c0-1.125,.478-2.204,1.311-2.961,.844-.767,1.944-1.128,3.087-1.02,1.946,.185,3.47,1.914,3.581,3.981h-2.979v2l3.081,1.155,.72,5.845h-4.633l-1.811-4.077-.842,3.227c-.178,.68-.413,1.349-.761,1.96-.002,.004-.004,.007-.006,.011-.409,.717-.936,1.341-1.534,1.88h12.985l-.971-7.768,1.857-.866ZM15.683,5.033c-1.972-.191-3.935,.463-5.391,1.787-1.456,1.324-2.292,3.213-2.292,5.181v5.406c0,.782-.205,1.554-.594,2.233-.479,.839-1.377,1.36-2.344,1.36h-.094l.186-.358c.554-1.062,.846-2.258,.846-3.458v-4.854c0-5.002,3.614-9.004,8.407-9.31,1.88-.121,3.718,.337,5.29,1.301l-1.336,1.568c-.81-.463-1.716-.764-2.679-.856Z"/>
</svg>
