<svg id="Layer_1" viewBox="0 0 24 24" xmlns="http://www.w3.org/2000/svg" data-name="Layer 1"><path d="m5 3.5c0-.276.225-.5.5-.5h9c.275 0 .5.224.5.5v.5h3v-.5c0-1.93-1.57-3.5-3.5-3.5h-9c-1.93 0-3.5 1.57-3.5 3.5v14.5 3c0 1.657 1.343 3 3 3h10c1.657 0 3-1.343 3-3v-3h-13zm3 16.5h4v2h-4zm15-9.592v3.592h-2c0-1-.5-2-2-2h-1.448l.826 2c.195.438.155.94-.106 1.342s-.703.642-1.183.642h-.717l-2.205-5.188c-.106-.244-.167-.513-.167-.796v-2c0-1.105.895-2 2-2h3c1.5 0 2-1 2-2h2v3.592c.581.207 1 .757 1 1.408s-.419 1.201-1 1.408z"/></svg>