<?xml version="1.0" encoding="UTF-8"?>
<svg xmlns="http://www.w3.org/2000/svg" id="Layer_1" data-name="Layer 1" viewBox="0 0 24 24">
  <path d="m9.991,15.491l2.121,2.121-6.388,6.388H0v-5.725l6.491-6.49,2.121,2.121-4.103,4.102,1.482,1.482,4-4Zm14.007,6.386l-2.121,2.121L.002,2.123,2.123.002l8.075,8.075,6.892-6.892c.764-.765,1.78-1.186,2.862-1.186s2.098.421,2.862,1.186c1.578,1.578,1.578,4.146,0,5.725l-6.892,6.892,8.075,8.075Zm-11.679-11.679l1.482,1.482,3.347-3.347-1.482-1.482-3.347,3.347Z"/>
</svg>
