<?xml version="1.0" encoding="UTF-8"?>
<svg xmlns="http://www.w3.org/2000/svg" id="Layer_1" data-name="Layer 1" viewBox="0 0 24 24">
  <path d="m24,19h-3v1.5c0,1.93-1.57,3.5-3.5,3.5h-5.5v-3h5.5c.276,0,.5-.224.5-.5v-1.5h-3l3.793-3.707c.391-.391,1.024-.391,1.414,0l3.793,3.707ZM3.793,8.707c.391.391,1.024.391,1.414,0l3.793-3.707h-3v-1.5c0-.276.224-.5.5-.5h5.5V0h-5.5c-1.93,0-3.5,1.57-3.5,3.5v1.5H0l3.793,3.707Zm3.207,4.293c0-.718-.845-1.745-1.437-2.689-.26-.415-.867-.415-1.127,0-.591.944-1.437,1.971-1.437,2.689,0,1.105.895,2,2,2s2-.895,2-2Zm16-3v-5.179s0-4.821-5.424-4.821c-.508,2.034-1.417,2.781-2.774,3.326-.481.193-.802.656-.802,1.174v1.5s4,0,4,0c-.346,3.462-2.5,5-4,5v2h10v-2s-1,0-1-1Zm-16.5,7h1.5v-2H2v2h1.5c0,3-2,5-2,5H0v2h10v-2h-1.5s-2-2-2-5Z"/>
</svg>
