<?xml version="1.0" encoding="UTF-8"?>
<svg xmlns="http://www.w3.org/2000/svg" id="Layer_1" data-name="Layer 1" viewBox="0 0 24 24">
  <path d="m23.981,8.5C23.634,3.769,18.393,0,12,0S.366,3.769.019,8.5h-.019v3.5c0,6.617,5.383,12,12,12s12-5.383,12-12v-3.5h-.019ZM12,3c4.878,0,9,2.748,9,6s-4.122,6-9,6S3,12.252,3,9,7.122,3,12,3Zm0,18c-3.722,0-6.923-2.271-8.292-5.5,2.156,1.548,5.078,2.5,8.292,2.5s6.135-.952,8.292-2.5c-1.368,3.229-4.57,5.5-8.292,5.5Zm0-10s1,1.448,1,2-.448,1-1,1-1-.448-1-1,1-2,1-2Zm0-4s-1-1.448-1-2,.448-1,1-1,1,.448,1,1-1,2-1,2Zm-7,2c0-.552.448-1,1-1s2,1,2,1c0,0-1.448,1-2,1s-1-.448-1-1Zm11,0s1.448-1,2-1,1,.448,1,1-.448,1-1,1-2-1-2-1Zm.648-2.265c-.406.374-2.148.62-2.148.62,0,0,.387-1.716.794-2.091.406-.374,1.039-.348,1.413.058.374.406.348,1.039-.058,1.413Zm-9.384-1.413c.374-.406,1.007-.432,1.413-.058.406.374.793,2.091.793,2.091,0,0-1.742-.245-2.148-.62-.406-.374-.432-1.007-.058-1.413Zm9.471,7.355c-.374.406-1.007.432-1.413.058-.406-.374-.793-2.091-.793-2.091,0,0,1.742.245,2.148.62.406.374.432,1.007.058,1.413Zm-9.413-1.413c.406-.374,2.148-.62,2.148-.62,0,0-.387,1.716-.793,2.091-.406.374-1.039.348-1.413-.058-.374-.406-.348-1.039.058-1.413Zm2.177-2.264c0-.552,1.119-1,2.5-1s2.5.448,2.5,1-1.119,1-2.5,1-2.5-.448-2.5-1Z"/>
</svg>
