<svg id="Layer_1" viewBox="0 0 24 24" xmlns="http://www.w3.org/2000/svg" data-name="Layer 1"><path d="m5 15.11v-4.11h-3v4.11c-1.397.221-2 .737-2 1.12v6.538c0 .5 1.015 1.231 3.5 1.231s3.5-.731 3.5-1.231v-6.538c0-.383-.603-.899-2-1.12zm0 5.8c-.461.053-.951.09-1.5.09-.553 0-1.041-.033-1.5-.081v-2.005c.421.053.918.086 1.5.086s1.077-.037 1.5-.095z"/><path d="m3.5 0c-2.485 0-3.5.731-3.5 1.231v6.538c0 .5 1.015 1.231 3.5 1.231s3.5-.731 3.5-1.231v-6.538c0-.5-1.015-1.231-3.5-1.231zm1.5 5.91c-.461.053-.951.09-1.5.09-.553 0-1.041-.033-1.5-.081v-2.005c.421.053.918.086 1.5.086s1.077-.037 1.5-.095z"/><path d="m20.5 0c-2.485 0-3.5.731-3.5 1.231v1.769h-8v3h8v1.769c0 .5 1.015 1.231 3.5 1.231s3.5-.731 3.5-1.231v-6.538c0-.5-1.015-1.231-3.5-1.231zm1.5 5.91c-.461.053-.951.09-1.5.09-.553 0-1.041-.033-1.5-.081v-2.005c.421.053.918.086 1.5.086s1.077-.037 1.5-.095z"/><path d="m20.5 15c-1.006 0-1.761.123-2.315.298l-9.185-8.057v.529c0 .824-.409 1.676-1.386 2.299l9.386 8.195v4.505c0 .5 1.015 1.231 3.5 1.231s3.5-.731 3.5-1.231v-6.538c0-.5-1.015-1.231-3.5-1.231zm1.5 5.91c-.461.053-.951.09-1.5.09-.553 0-1.041-.033-1.5-.081v-2.005c.421.053.918.086 1.5.086s1.077-.037 1.5-.095z"/></svg>