<?xml version="1.0" encoding="UTF-8"?>
<svg xmlns="http://www.w3.org/2000/svg" id="Layer_1" data-name="Layer 1" viewBox="0 0 24 24">
  <path d="m21,17.253v6.747h-3v-4.484l-8-2.286v6.769h-3l-4.266-3.391c-.866-.722-.983-2.008-.261-2.874.722-.866,2.008-.983,2.874-.261l1.64,1.222v-9.275c0-.911.799-1.632,1.739-1.479.737.12,1.273.812,1.273,1.56v4.61l11,3.143Z"/>
  <path d="m15.024,4.5c0,.276-.224.5-.5.5h-.5v-1h.5c.276,0,.5.224.5.5Zm-.5,1.5h-.5v1h.5c.276,0,.5-.224.5-.5s-.224-.5-.5-.5Zm9.476-3v8h-12v-1.5c0-.678-.201-1.305-.535-1.841.338-.275.559-.689.559-1.159v-3.5h-1v3.5c0,.165-.085.304-.207.395-.238-.212-.503-.391-.793-.532v-3.363h-1v3.053c-.172-.026-.345-.053-.524-.053-.196,0-.386.027-.573.058-.134-.392-.47-.775-1.114-1.012-.545-.202-1.042-.42-1.055-.42-.118-.08-.114-.202-.108-.25.01-.066.057-.226.3-.299.545-.162,1.048.231,1.069.248l.618-.728c-.037-.032-.894-.841-1.986-.512-.556.168-.949.606-1.027,1.144-.072.506.147.992.644,1.309,0,0,.562.251,1.185.481.107.039.396.17.477.37-.297.15-.571.335-.811.56-.324-.038-.626-.178-.828-.401l-.767.696c.247.272.563.47.912.598-.269.496-.437,1.056-.437,1.66v1.5H0V3C0,1.343,1.343,0,3,0h18c1.657,0,3,1.343,3,3Zm-8.403,2.524c.257-.269.427-.622.427-1.024,0-.828-.672-1.5-1.5-1.5h-1.5v5h1.5c.828,0,1.5-.672,1.5-1.5,0-.402-.161-.764-.427-.976Zm3.215-.478c-.545-.202-1.042-.42-1.055-.42-.118-.08-.114-.202-.108-.25.01-.066.057-.226.3-.299.545-.162,1.048.231,1.069.248l.618-.728c-.037-.032-.894-.841-1.986-.512-.556.168-.949.606-1.027,1.144-.072.506.147.992.644,1.309,0,0,.562.251,1.185.481.132.049.557.229.506.515-.038.212-.299.432-.671.432-.388,0-.761-.156-.998-.418l-.767.696c.437.482,1.08.758,1.765.758.846,0,1.558-.541,1.691-1.286.1-.562-.154-1.295-1.167-1.669Z"/>
</svg>
