<?xml version="1.0" encoding="UTF-8"?>
<svg xmlns="http://www.w3.org/2000/svg" id="Layer_1" data-name="Layer 1" viewBox="0 0 24 24">
  <path d="M20,2c0-1.105,.895-2,2-2s2,.895,2,2-.895,2-2,2-2-.895-2-2ZM2,4c1.105,0,2-.895,2-2S3.105,0,2,0,0,.895,0,2s.895,2,2,2ZM22,20c-1.105,0-2,.895-2,2s.895,2,2,2,2-.895,2-2-.895-2-2-2Zm-20,0c-1.105,0-2,.895-2,2s.895,2,2,2,2-.895,2-2-.895-2-2-2Zm10-2c-3.309,0-6-2.691-6-6s2.691-6,6-6,6,2.691,6,6-2.691,6-6,6Zm2.174-9.349c.208,.714,.34,1.523,.398,2.349h1.286c-.254-.978-.859-1.812-1.684-2.349Zm-1.205,4.349h-1.937c.121,1.572,.635,3,.968,3s.848-1.434,.969-3Zm0-2c-.121-1.572-.686-3-.968-3s-.848,1.434-.969,3h1.937Zm-4.826,0h1.286c.058-.826,.19-1.635,.398-2.349-.825,.537-1.43,1.372-1.684,2.349Zm1.684,4.349c-.208-.714-.34-1.523-.398-2.349h-1.286c.254,.978,.859,1.812,1.684,2.349Zm6.032-2.349h-1.286c-.058,.826-.19,1.635-.398,2.349,.825-.537,1.43-1.372,1.684-2.349Zm2.142-10V0h-3V4.587c2.004,.812,3.601,2.409,4.413,4.413h4.587v-3h-3l-3-3Zm-9,1.587V0h-3V3l-3,3H0v3H4.587c.812-2.004,2.409-3.601,4.413-4.413ZM4.587,15H0v3H3l3,3v3h3v-4.587c-2.004-.812-3.601-2.409-4.413-4.413Zm10.413,4.413v4.587h3v-3l3-3h3v-3h-4.587c-.812,2.004-2.409,3.601-4.413,4.413Z"/>
</svg>
