<svg id="Layer_1" viewBox="0 0 24 24" xmlns="http://www.w3.org/2000/svg" data-name="Layer 1"><path d="m9.686 13.217 1.398 1.43-2.896 3.004c-.459.474-1.22.471-1.674-.007l-1.987-2.011 1.387-1.441 1.447 1.44 2.326-2.414zm-.571-7.674-1.543 1.543-1.543-1.543-1.414 1.414 1.543 1.543-1.543 1.543 1.414 1.414 1.543-1.543 1.543 1.543 1.414-1.414-1.543-1.543 1.543-1.543zm-6.115-2.043c0-.275.224-.5.5-.5h13c.276 0 .5.225.5.5v6.601c.346-.071.684-.101 1-.101.796 0 1.452.158 2 .407v-6.907c0-1.93-1.57-3.5-3.5-3.5h-13c-1.93 0-3.5 1.57-3.5 3.5v20.5h10v-3h-7zm12 6.5v-3h-3v3zm6.216 6c.087.316.177.653.263 1h2.521v2h-2.097c.06.383.097.728.097 1 1.103 0 2 .897 2 2v2h-2v-2h-.556c-.694 1.19-1.97 2-3.444 2s-2.75-.81-3.444-2h-.556v2h-2v-2c0-1.103.897-2 2-2 0-.275.036-.619.096-1h-2.096v-2h2.522c.087-.348.177-.686.264-1h-.786c-1.103 0-2-.897-2-2v-2h2v2h1.417c.555-1.356 1.383-2 2.583-2 1.453 0 2.096.729 2.59 2h1.41v-2h2v2c0 1.103-.897 2-2 2zm-2.216 4c0-.673-.586-3.008-1-4.318-.429 1.37-1 3.648-1 4.318 0 .552.449 1 1 1s1-.448 1-1z"/></svg>