<svg id="Layer_1" viewBox="0 0 24 24" xmlns="http://www.w3.org/2000/svg" data-name="Layer 1"><path d="m13.794 5.102c1.073.282 1.913 1.17 2.14 2.263.278 1.336-.339 2.658-1.537 3.289-.397.209-.397.285-.397.346h-2c0-1.344 1.064-1.904 1.465-2.116.728-.293.698-1.656-.178-1.848-.785-.149-1.237.323-1.287.964h-2c0-.932.442-1.803 1.184-2.376s1.695-.763 2.61-.522zm-1.794 8.898h2v-2h-2zm10.182-6.682-1.768 1.768-1.768-1.768-1.414 1.414 1.768 1.768-1.768 1.768 1.414 1.414 1.768-1.768 1.768 1.768 1.414-1.414-1.768-1.768 1.768-1.768zm-1.792-2.49.004-.004 3.248-3.337-1.399-1.43-3.255 3.344-1.974-2.059-1.387 1.441 1.94 2.026c.766.765 2.079.763 2.823.019zm-1.165 11.017c-.094.163-.162.28-.174.293-.675.809-1.047 1.83-1.047 2.876v1.985h-8v-3h-3.893c-.249 0-.461-.186-.496-.432l-.698-5.068h-1.557c.99-2.28 2.159-5.039 3.162-6.265 1.541-2.057 3.885-3.235 6.442-3.235h1.035v-2.999h-1.042c-3.504 0-6.723 1.615-8.802 4.392-1.447 1.757-2.923 5.552-4.151 8.29v2.818h2.299l.341 2.478c.237 1.723 1.728 3.022 3.467 3.022h.893v3h14v-4.985c0-.345.124-.684.35-.954.693-.83 1.239-1.731 1.658-2.673-.754.388-1.606.611-2.512.611-.44 0-.865-.057-1.275-.155z"/></svg>