<?xml version="1.0" encoding="UTF-8"?>
<svg xmlns="http://www.w3.org/2000/svg" id="Layer_1" data-name="Layer 1" viewBox="0 0 24 24">
  <path d="m18,12c-3.314,0-6,2.686-6,6s2.686,6,6,6,6-2.686,6-6-2.686-6-6-6Zm3.536,8.121l-1.414,1.414-2.121-2.121-2.121,2.121-1.414-1.414,2.121-2.121-2.121-2.121,1.414-1.414,2.121,2.121,2.121-2.121,1.414,1.414-2.121,2.121,2.121,2.121Zm2.464-9.945v2.557c-.815-.926-1.838-1.663-3-2.134v-.423c0-.155-.07-.299-.191-.394,0,0,0,0,0,0h0S12.308,3.131,12.308,3.131c-.18-.143-.434-.143-.615,0L3.192,9.782c-.122.095-.192.239-.192.394v10.824h4.996s.003,0,.004,0h2.582c.468,1.161,1.202,2.184,2.124,3h-4.707s-8,0-8,0v-13.824c0-1.082.489-2.087,1.342-2.756L9.843.768c1.27-.992,3.043-.994,4.314,0l8.5,6.651h0c.854.669,1.343,1.674,1.343,2.757Z"/>
</svg>
