<?xml version="1.0" encoding="UTF-8"?>
<svg xmlns="http://www.w3.org/2000/svg" id="Layer_1" data-name="Layer 1" viewBox="0 0 24 24">
  <path d="m19,14h-3v-3h3v3Zm-3,5h3v-3h-3v3Zm-4-9v10.25c0,2.173-2.523,3.75-6,3.75s-6-1.577-6-3.75v-10.25c0-2.28,2.579-4,6-4s6,1.72,6,4Zm-9,.014v.006c.085.248,1.127.98,3,.98,1.843,0,2.881-.708,2.996-1-.115-.292-1.153-1-2.996-1-1.873,0-2.915.732-3,1.014Zm0,4.986c.077.263,1.121,1,3,1s2.915-.732,3-1.014v-1.491c-.873.322-1.891.505-3,.505s-2.127-.183-3-.505v1.505Zm6,5.162v-1.667c-.873.322-1.891.505-3,.505s-2.127-.183-3-.505v1.667c.217.275,1.275.838,3,.838s2.783-.563,3-.838Zm10-15.162h-8.458c1.777.887,2.998,2.305,3.348,4h5.111v-4Zm1.5-5H7.5c-1.93,0-3.5,1.57-3.5,3.5v.681c.636-.114,1.303-.181,2-.181.341,0,.673.019,1,.047v-.547c0-.276.225-.5.5-.5h13c.275,0,.5.224.5.5v17.5h-7.065c-.184,1.161-.79,2.186-1.726,3h11.791V3.5c0-1.93-1.57-3.5-3.5-3.5Z"/>
</svg>
