<svg id="Layer_1" viewBox="0 0 24 24" xmlns="http://www.w3.org/2000/svg" data-name="Layer 1"><path d="m11 5.5c0 .828-.672 1.5-1.5 1.5s-1.5-.672-1.5-1.5.672-1.5 1.5-1.5 1.5.672 1.5 1.5zm12-2v20.5h-22v-20.5c0-1.93 1.57-3.5 3.5-3.5h15c1.93 0 3.5 1.57 3.5 3.5zm-3 7.5h-16v10h2.757c-.458-.825-.757-2.078-.757-3.5 0-2.485.895-4.5 2-4.5s2 2.015 2 4.5c0 1.422-.299 2.675-.757 3.5h2.186c.36-.988.571-2.167.571-3.5 0-1.614-.295-3.018-.81-4.108.248-.248.521-.392.81-.392 1.105 0 2 2.015 2 4.5 0 1.422-.299 2.675-.757 3.5h2.186c.36-.988.571-2.167.571-3.5 0-1.614-.295-3.018-.81-4.108.248-.248.521-.392.81-.392 1.105 0 2 2.015 2 4.5 0 1.422-.299 2.675-.757 3.5h2.757zm0-7.5c0-.276-.224-.5-.5-.5h-15c-.276 0-.5.224-.5.5v4.5h16zm-5.5.5c-.828 0-1.5.672-1.5 1.5s.672 1.5 1.5 1.5 1.5-.672 1.5-1.5-.672-1.5-1.5-1.5z"/></svg>