<svg id="Layer_1" viewBox="0 0 24 24" xmlns="http://www.w3.org/2000/svg" data-name="Layer 1"><path d="m2.312 5.562-2.121-2.121c4.582-4.581 12.036-4.581 16.618 0l-2.121 2.121c-3.412-3.411-8.963-3.411-12.375 0zm1.415 1.415 2.121 2.121c1.416-1.416 3.887-1.416 5.303 0l2.121-2.121c-1.274-1.275-2.97-1.977-4.772-1.977s-3.498.702-4.772 1.977zm20.273 8.023v6c0 1.654-1.346 3-3 3h-5c-1.654 0-3-1.346-3-3v-6h1v-1.5c0-2.481 2.019-4.5 4.5-4.5s4.5 2.019 4.5 4.5v1.5zm-7 0h3v-1.5c0-.827-.673-1.5-1.5-1.5s-1.5.673-1.5 1.5zm3 3h-3v3h3zm-17 3v-2.5c0-.276.225-.5.5-.5h7.5v-3h-1v-5h-3v5h-3.5c-1.93 0-3.5 1.57-3.5 3.5v5.5h12.026c-.635-.838-1.026-1.87-1.026-3z"/></svg>