<?xml version="1.0" encoding="UTF-8"?>
<svg xmlns="http://www.w3.org/2000/svg" id="Layer_1" data-name="Layer 1" viewBox="0 0 24 24">
  <path d="M21.533,13.726c-.376-.117-.843-.284-1.346-.513,.722-1.038,1.366-2.365,1.861-4.141l.261-.938L12.794,.261l-.621,2.227c-.255,.914-.544,1.662-.865,2.291-.492-.833-.835-1.665-1.039-2.328-.451-1.466-1.792-2.451-3.338-2.451H2C.897,0,0,.897,0,2s.897,2,2,2h.318c.002,.006,.003,.012,.004,.018-.743,.089-1.322,.715-1.322,1.482,0,.828,.672,1.5,1.5,1.5h.94s.002,.004,.003,.006c-.801,.031-1.442,.685-1.442,1.494,0,.828,.672,1.5,1.5,1.5h1.786c-1.333,1.084-2.641,2.595-3.69,5.178l-.414,1.02,9.41,7.783,.77-1.896c.766-1.885,1.652-2.994,2.639-3.835v2.25c0,.828,.672,1.5,1.5,1.5,.809,0,1.463-.641,1.494-1.442,.002,0,.004,.002,.006,.003v.94c0,.828,.672,1.5,1.5,1.5,.767,0,1.393-.578,1.482-1.322,.006,.002,.012,.003,.018,.004v.318c0,1.103,.897,2,2,2s2-.897,2-2v-4.932c0-1.543-.991-2.887-2.467-3.343ZM4.131,3h2.8c.22,0,.409,.134,.471,.334,.334,1.086,.92,2.53,1.914,3.905-.552,.443-1.15,.818-1.791,1.218-.235,.147-.475,.297-.716,.452-1.586-2.389-2.39-4.546-2.678-5.909Zm5.32,16.144l-4.628-3.828c1.196-2.381,2.645-3.285,4.292-4.313,1.803-1.127,3.808-2.379,5.204-5.586l4.555,3.768c-1.033,2.973-2.521,3.902-4.362,5.053-1.675,1.046-3.536,2.209-5.06,4.907Zm5.825-1.837c.269-.176,.543-.35,.824-.526,.629-.393,1.282-.804,1.926-1.305,.984,.541,1.925,.901,2.62,1.115,.212,.065,.354,.258,.354,.478v2.8c-1.327-.28-3.41-1.058-5.724-2.562Zm-1.276-4.807c0,1.105-.895,2-2,2s-2-.895-2-2,.895-2,2-2,2,.895,2,2Z"/>
</svg>
