<svg id="Layer_1" viewBox="0 0 24 24" xmlns="http://www.w3.org/2000/svg" data-name="Layer 1"><path d="m.526 6.886c-.586-.585-.586-1.536 0-2.121.586-.586 1.535-.586 2.121 0l5.734 5.786-2.121 2.121zm8.888 2.633 2.121-2.122-5.914-5.965c-.586-.586-1.535-.586-2.121 0-.586.585-.586 1.536 0 2.121l5.914 5.967zm12.423 4.561c.095-.442.163-.892.163-1.351v-7.745c0-1.215-1.083-2.177-2.336-1.973-.983.16-1.664 1.083-1.664 2.08v2.476l-7.194-7.132c-.271-.268-.644-.435-1.056-.435-.828 0-1.5.672-1.5 1.5 0 .417.17.793.444 1.065s8.812 8.739 8.812 8.739c.903.885 1.14 2.21.731 3.414l5.763 5.783v-4.249l-2.163-2.171zm-8.473 4.829c-1.507.299-3.054-.168-4.132-1.246l-6.667-6.72c-.272-.273-.648-.443-1.064-.443-.828 0-1.5.672-1.5 1.5 0 .412.167.785.436 1.056s6.671 6.724 6.671 6.724c1.505 1.505 3.554 2.282 5.642 2.201l2.014 2.019h4.237l-5.171-5.183c-.058.011-.399.08-.464.093zm-5.364-5.409c0 .828.672 1.5 1.5 1.5s1.5-.672 1.5-1.5-.672-1.5-1.5-1.5-1.5.672-1.5 1.5zm9.5 3.5c-.828 0-1.5.672-1.5 1.5s.672 1.5 1.5 1.5 1.5-.672 1.5-1.5-.672-1.5-1.5-1.5zm-2.939-2.061c.828 0 1.5-.672 1.5-1.5s-.672-1.5-1.5-1.5-1.5.672-1.5 1.5.672 1.5 1.5 1.5zm5.878 6.5c-.586.586-.586 1.536 0 2.121.586.586 1.536.586 2.121 0 .586-.586.586-1.536 0-2.121s-1.536-.586-2.121 0z"/></svg>