<?xml version="1.0" encoding="UTF-8"?>
<svg xmlns="http://www.w3.org/2000/svg" id="Layer_1" data-name="Layer 1" viewBox="0 0 24 24">
  <path d="m24,12c0,6.617-5.383,12-12,12-1.072,0-2.106-.155-3.095-.419l2.605-2.605c.163.009.325.025.49.025,4.963,0,9-4.038,9-9,0-.165-.016-.327-.025-.49l2.605-2.605c.265.99.419,2.024.419,3.096Zm-20.975.49c-.009-.163-.025-.324-.025-.49C3,7.038,7.038,3,12,3c.165,0,.326.016.49.025L15.095.419c-.989-.265-2.023-.419-3.095-.419C5.383,0,0,5.383,0,12c0,1.072.155,2.106.419,3.095l2.605-2.605Zm13.26.831l-2.118-2.118,1.341-1.341-1.129-1.129-1.341,1.341-1.271-1.271,1.341-1.341-1.129-1.129-2.471,2.471,5.647,5.647,1.129-1.129Zm2.047-2.047l2.471-2.471-1.129-1.129-1.341,1.341-.989-.989,1.341-1.341-1.129-1.129-1.341,1.341-1.271-1.271,1.341-1.341-1.129-1.129-2.471,2.471,5.647,5.647Zm5.647-5.647l-1.129-1.129-1.341,1.341-.989-.988,1.341-1.341-1.129-1.129-1.341,1.341-1.271-1.271,1.341-1.341L18.332-.021l-2.471,2.471,5.647,5.647,2.471-2.471Zm-14.471,6.706l2.118,2.118c.973.973.973,2.556,0,3.529s-2.556.973-3.529,0l-2.118-2.118c-.973-.973-.973-2.556,0-3.529.973-.973,2.556-.973,3.529,0Zm.988,3.247l-2.118-2.118c-.35-.35-.92-.35-1.271,0s-.35.92,0,1.271l2.118,2.118c.35.35.92.35,1.271,0,.35-.35.35-.92,0-1.271Zm-1.341,4.871l-5.647-5.647-1.129,1.129,2.868,2.868-4.132-1.591-.006-.006L-.021,18.332l5.647,5.647,1.129-1.129-2.862-2.862,4.132,1.591,1.129-1.129Z"/>
</svg>
