<?xml version="1.0" encoding="UTF-8"?>
<svg xmlns="http://www.w3.org/2000/svg" id="Layer_1" data-name="Layer 1" viewBox="0 0 24 24" width="512" height="512"><path d="M7,17v-3c3.187,0,5.625,1.234,7.248,3.668l-2.496,1.664c-1.555-2.332-3.877-2.332-4.752-2.332Zm2-8c0-1.105-.895-2-2-2s-2,.895-2,2,.895,2,2,2,2-.895,2-2Zm10,1.5v13.5h-3V14.743c-.469,.166-.974,.257-1.5,.257-2.481,0-4.5-2.019-4.5-4.5s2.019-4.5,4.5-4.5,4.5,2.019,4.5,4.5Zm-3,0c0-.827-.673-1.5-1.5-1.5s-1.5,.673-1.5,1.5,.673,1.5,1.5,1.5,1.5-.673,1.5-1.5Zm8,1.5C24,5.383,18.617,0,12,0S0,5.383,0,12s5.383,12,12,12c.683,0,1.348-.071,2-.181v-3.051c-.644,.147-1.312,.232-2,.232-4.962,0-9-4.037-9-9S7.038,3,12,3s9,4.037,9,9v7.911c1.861-2.115,3-4.879,3-7.911Z"/></svg>
