<svg id="Layer_1" viewBox="0 0 24 24" xmlns="http://www.w3.org/2000/svg" data-name="Layer 1"><path d="m22.5 3c-3 0-3.5 1-3.5 1s.058-4 3.5-4c.828 0 1.5.672 1.5 1.5s-.672 1.5-1.5 1.5zm1.061 5.561c.586-.586.586-1.536 0-2.121-2.434-2.434-5.303.354-5.303.354s1.061-.354 3.182 1.768c.586.586 1.536.586 2.121 0zm-.834 1.966c-.94-.153-1.727.568-1.727 1.479v4.451l-2.025-.343v-6.528c0-.747-.536-1.44-1.273-1.56-.94-.153-1.701.568-1.701 1.479v6.105l-2.002-.339v-4.264c.002-.829-.669-1.502-1.498-1.502s-1.498.67-1.498 1.497l-.002 6.777-1.703-1.222c-.866-.722-2.153-.604-2.874.261-.722.866-.605 2.153.261 2.874l5.172 4.305h2.144v-5.684s7 1.184 7 1.184v4.5h3v-11.913c0-.747-.536-1.44-1.273-1.56zm-16.503 3.968c.862-.418 1.85-.519 2.778-.28v-3.212c0-.108.023-.21.033-.316-1.202 1.069-2.154 2.368-2.811 3.807zm10.746-8.454c-1.171.181-2.138.95-2.619 1.994-.011-.003-.02-.004-.031-.007-.151-.093-.304-.182-.466-.25-.528-1.728-1.378-3.35-2.529-4.773-.659-.048-1.333.025-1.962.153 1.18 1.257 2.052 2.766 2.57 4.406-1.153.19-2.112.94-2.592 1.966-.094-.54-.221-1.071-.417-1.578-2.312 1.809-3.986 4.273-4.827 7.091.17.289.362.564.565.829-.523.771-.78 1.682-.695 2.622.038.421.157.819.317 1.198-2.601-2.015-4.284-5.157-4.284-8.692 0-6.065 4.934-11 11-11 2.353 0 4.531.748 6.32 2.012-.21.677-.312 1.355-.32 1.959zm-9.611-.644c-.297-.336-.617-.652-.967-.94-1.835 1.297-3.106 3.341-3.356 5.689 1.12-1.831 2.578-3.439 4.323-4.749z"/></svg>