<?xml version="1.0" encoding="UTF-8"?>
<svg xmlns="http://www.w3.org/2000/svg" id="Layer_1" data-name="Layer 1" viewBox="0 0 24 24">
  <path d="m21.5,4.5c-1.317,0-2.385,1.022-2.481,2.314l-2.22,1.614c-.55-.66-1.188-1.241-1.895-1.732l.953-1.732c1.21-.175,2.143-1.206,2.143-2.464,0-1.381-1.119-2.5-2.5-2.5s-2.5,1.119-2.5,2.5c0,.366.083.712.225,1.025l-1.029,1.87c-.856-.254-1.759-.395-2.696-.395C4.262,5,0,9.262,0,14.5s4.262,9.5,9.5,9.5,9.5-4.262,9.5-9.5c0-1.228-.242-2.399-.668-3.478l2.313-1.682c.268.098.553.16.855.16,1.381,0,2.5-1.119,2.5-2.5s-1.119-2.5-2.5-2.5Zm-6.882,13.994c-.04,0-.078.006-.117.006-1.181,0-2.295-.282-3.29-.771,1.792-.401,3.428-1.27,4.749-2.517-.135,1.23-.617,2.354-1.341,3.281Zm-.684-8.734c.503.47.935,1.015,1.268,1.624-1.265,2.213-3.619,3.617-6.202,3.617-.291,0-.581-.024-.869-.059-.375-.604-.666-1.264-.859-1.966,2.591-.105,4.991-1.285,6.661-3.215Zm-2.682-1.513c-1.118,1.064-2.599,1.698-4.178,1.742.077-.574.219-1.131.427-1.67.631-.205,1.302-.318,2-.318.607,0,1.193.09,1.751.246ZM3,14.5c0-1.269.371-2.45,1.002-3.452.02,4.499,2.888,8.328,6.887,9.799-.448.098-.912.153-1.389.153-3.584,0-6.5-2.916-6.5-6.5Z"/>
</svg>
