<?xml version="1.0" encoding="UTF-8"?>
<svg xmlns="http://www.w3.org/2000/svg" id="Layer_1" data-name="Layer 1" viewBox="0 0 24 24">
  <path d="M0,12c0,6.617,5.383,12,12,12s12-5.383,12-12v-2H0v2Zm8.141,1c.446,1.722,1.997,3,3.859,3s3.412-1.278,3.859-3h5.086c-.499,4.494-4.32,8-8.945,8S3.554,17.494,3.055,13h5.086Zm.211-11h-3.352V0h6V1.356l-4.132,7.418-1.747-.974,3.231-5.8Zm14.295,5.262c.062-.345-.451-.562-.61-.621-.752-.277-1.43-.58-1.43-.58-.6-.382-.864-.969-.777-1.579,.094-.649,.568-1.178,1.239-1.38,1.317-.397,2.407,.499,2.452,.537l.479,.402-.805,.957-.476-.399c-.025-.021-.633-.495-1.29-.299-.293,.088-.351,.282-.362,.361-.008,.059-.013,.206,.13,.302,.016,0,.614,.263,1.272,.506,1.223,.451,1.529,1.336,1.408,2.014-.16,.899-1.019,1.552-2.04,1.552-.826,0-1.603-.333-2.13-.914l-.42-.462,.926-.84,.42,.463c.286,.315,.736,.504,1.204,.504,.448,0,.764-.265,.81-.521Zm-7.647,1.738c1.654,0,3-1.346,3-3V3c0-1.654-1.346-3-3-3s-3,1.346-3,3v3c0,1.654,1.346,3,3,3Zm-1-6c0-.551,.449-1,1-1s1,.449,1,1v3c0,.551-.449,1-1,1s-1-.449-1-1V3Z"/>
</svg>
