<svg id="Layer_1" viewBox="0 0 24 24" xmlns="http://www.w3.org/2000/svg" data-name="Layer 1"><path d="m23.939 8.545-2.121-2.121-4.13 4.13-4.243-4.243 4.13-4.13-2.12-2.12-4.13 4.13-3.536-3.536-2.121 2.121 1.415 1.415-4.886 4.885c-2.909 2.791-2.91 7.815 0 10.606l-2.155 2.155 2.121 2.121 2.155-2.155c2.791 2.91 7.816 2.91 10.606 0l4.885-4.885 1.414 1.414 2.121-2.121-3.536-3.535 4.13-4.13zm-11.137 11.136c-1.674 1.746-4.688 1.746-6.363 0l-2.122-2.121c-1.746-1.674-1.745-4.689 0-6.364l4.885-4.885 8.485 8.485-4.886 4.885zm-.174-9.384.588 2.942-2.555.51.774.774c.548.547.75 1.35.526 2.093s-.835 1.301-1.596 1.455c-.118.03-3.855.469-3.979.489l-.362-2.979 1.986-.241-.663-.663c-.47-.469-.694-1.143-.597-1.803.102-.743.615-1.356 1.29-1.662l4.588-.917z"/></svg>