<?xml version="1.0" encoding="UTF-8"?>
<svg xmlns="http://www.w3.org/2000/svg" id="Layer_1" data-name="Layer 1" viewBox="0 0 24 24">
  <path d="m17.303,6.697l-2.121,2.121c-.85-.85-1.98-1.318-3.182-1.318s-2.332.468-3.182,1.318l-2.121-2.121c1.417-1.417,3.3-2.197,5.303-2.197s3.887.78,5.303,2.197Zm-10.606,10.606c1.462,1.462,3.383,2.193,5.303,2.193s3.841-.731,5.303-2.193l-2.121-2.121c-1.755,1.754-4.609,1.754-6.364,0l-2.121,2.121Zm11.667-11.667l2.121-2.121C15.807-1.164,8.194-1.164,3.515,3.515l2.121,2.121c3.51-3.509,9.218-3.509,12.728,0Zm-12.728,12.728l-2.121,2.121c2.339,2.34,5.412,3.509,8.485,3.509s6.146-1.169,8.485-3.509l-2.121-2.121c-3.51,3.51-9.218,3.51-12.728,0Zm11.364-10.364v2h2v6h2v-6h2v-2h-6ZM3,16h2V8h-2v8Zm9-1c-1.654,0-3-1.346-3-3s1.346-3,3-3,3,1.346,3,3-1.346,3-3,3Zm0-4.3c-.717,0-1.3.583-1.3,1.3s.583,1.301,1.3,1.301,1.3-.584,1.3-1.301-.583-1.3-1.3-1.3Z"/>
</svg>
