<?xml version="1.0" encoding="UTF-8"?>
<svg xmlns="http://www.w3.org/2000/svg" id="Layer_1" data-name="Layer 1" viewBox="0 0 24 24" width="512" height="512"><path d="m23.999,3.704l-2.33,1.547c-.88.585-2.518,1.466-3.669,1.693v-1.944h-3v2h-2v-2h-3v2h-2v-2h-3v2.396c-2.08.588-3.963,1.64-4.244,1.801l-.756.433v5.673l.668.445c.138.092,3.417,2.252,6.832,2.252h10c1.119,0,3.151,1.072,4.169,1.749l2.331,1.548V3.704Zm-3,12.25c-1.082-.501-2.371-.954-3.5-.954H7.5c-1.738,0-3.552-.841-4.5-1.356v-2.24c1.187-.588,3.136-1.403,4.5-1.403h10c1.129,0,2.418-.453,3.5-.954v6.908Zm-8-3.454c0,.828-.672,1.5-1.5,1.5s-1.5-.672-1.5-1.5.672-1.5,1.5-1.5,1.5.672,1.5,1.5Zm-5,0c0,.828-.672,1.5-1.5,1.5s-1.5-.672-1.5-1.5.672-1.5,1.5-1.5,1.5.672,1.5,1.5Zm8.5-1.5c.828,0,1.5.672,1.5,1.5s-.672,1.5-1.5,1.5-1.5-.672-1.5-1.5.672-1.5,1.5-1.5Z"/></svg>
