<svg id="Layer_1" viewBox="0 0 24 24" xmlns="http://www.w3.org/2000/svg" data-name="Layer 1"><path d="m24 19h-8.85c-.345-.723-.927-1.305-1.65-1.65v-1.35h3.5c3.309 0 6-2.691 6-6 0-3.139-2.423-5.722-5.496-5.979-.985-2.391-3.336-4.021-6.004-4.021-2.947 0-5.446 1.955-6.225 4.706-2.475.651-4.275 2.892-4.275 5.544 0 3.171 2.58 5.75 5.75 5.75h3.75v1.35c-.723.345-1.305.927-1.65 1.65h-8.85v3h8.85c.563 1.179 1.756 2 3.15 2s2.587-.821 3.15-2h8.85zm-8.5-12h1.6v.009l1.3 2.991v-3h1.6v7h-1.6l-1.3-3v3h-1.6zm-7.706 5.577c-.169.835-.781 1.423-1.578 1.423s-1.418-.61-1.569-1.384l-1.229-5.616h1.632l1.16 5.274c.002.009.004.018.006.026.003-.013.007-.026.01-.042l1.13-5.259h1.644l-1.206 5.577zm2.206-5.577h2c1.381 0 2.5 1.119 2.5 2.5v.026c-.002 1.383-1.141 2.498-2.524 2.484l-.376-.009v2h-1.6zm2 3.4h-.4v-1.8h.4c.496 0 .9.404.9.9s-.404.9-.9.9z"/></svg>