<?xml version="1.0" encoding="UTF-8"?>
<svg xmlns="http://www.w3.org/2000/svg" id="Layer_1" data-name="Layer 1" viewBox="0 0 24 24">
  <path d="M23.957,12h.043v12h-3v-3H3v3H0V4H3V15h7v-2.5c0-1.93,1.57-3.5,3.5-3.5h.617l1.792,3h-2.409c-.276,0-.5,.225-.5,.5v2.5h8v-2.5c0-.275-.224-.5-.5-.5h-1.045l1.917-2.877c1.349,.349,2.382,1.477,2.585,2.877Zm-5.179-8l-.962,1.443L14.584,.033l-2.783,3.967h-3.801v3h5.361l1.021-1.455,3.295,5.516,2.706-4.061h3.616v-3h-5.222ZM6.5,14c1.381,0,2.5-1.119,2.5-2.5s-1.119-2.5-2.5-2.5-2.5,1.119-2.5,2.5,1.119,2.5,2.5,2.5Z"/>
</svg>
