<?xml version="1.0" encoding="UTF-8"?>
<svg xmlns="http://www.w3.org/2000/svg" id="Layer_1" data-name="Layer 1" viewBox="0 0 24 24">
  <path d="m17,8v3h-3v-3h3ZM1.5,21c-.828,0-1.5.672-1.5,1.5s.672,1.5,1.5,1.5,1.5-.672,1.5-1.5-.672-1.5-1.5-1.5Zm0-5h-.5v3h.5c1.93,0,3.5,1.57,3.5,3.5v.5h3v-.5c0-3.584-2.916-6.5-6.5-6.5Zm0-5h-.5v3h.5c4.687,0,8.5,3.813,8.5,8.5v.5h3v-.5c0-6.341-5.159-11.5-11.5-11.5Zm21.029-6.534l-4.667-3.652c-1.391-1.089-3.334-1.089-4.725,0l-4.666,3.652c-.936.731-1.472,1.832-1.472,3.019v2.601c1.073.44,2.074,1.011,3,1.683v-4.285c0-.258.116-.498.32-.657l4.667-3.652c.301-.236.725-.236,1.025,0l4.668,3.652c.203.159.319.398.319.657v6.515h-8.77c.672.926,1.243,1.927,1.683,3h10.087V7.485c0-1.188-.536-2.288-1.471-3.019Z"/>
</svg>
