<?xml version="1.0" encoding="UTF-8"?>
<svg xmlns="http://www.w3.org/2000/svg" id="Layer_1" data-name="Layer 1" viewBox="0 0 24 24">
  <path d="M17.107,21.792c.122,1.196-.818,2.208-1.989,2.208H0v-4.242l1.242,1.242H3.625l-2.308-2.325,2.129-2.113,3.294,3.318c.834,.523,1.722-.66,.935-1.379l-3.769-3.769c-.473-.472-1.101-.732-1.768-.732H0v-3H2.138c1.468,0,2.85,.572,3.889,1.611l3.769,3.769c.991,.992,1.367,2.361,1.099,3.62h4.105c1.046,0,2.001,.751,2.107,1.792Zm-5.107-5.292s3.818-2.701,3.818-4.9c0-1.16-.855-2.1-1.909-2.1s-1.909,.94-1.909,2.1c0-1.16-.855-2.1-1.909-2.1s-1.909,.94-1.909,2.1c0,2.199,3.818,4.9,3.818,4.9ZM24,4.242V0H9c-1.172,0-2.111,1.012-1.989,2.208,.106,1.041,1.061,1.792,2.107,1.792h3.987c-.268,1.259,.107,2.628,1.099,3.62l3.769,3.769c1.04,1.039,2.421,1.611,3.889,1.611h2.138v-3h-2.138c-.667,0-1.295-.261-1.768-.732l-3.769-3.769c-.787-.718,.1-1.904,.935-1.379l3.294,3.318,2.129-2.113-2.308-2.325h2.383l1.242,1.242Z"/>
</svg>
