<svg id="Layer_1" viewBox="0 0 24 24" xmlns="http://www.w3.org/2000/svg" data-name="Layer 1"><path d="m12 15c1.105 0 2 .895 2 2s-.895 2-2 2-2-.895-2-2 .895-2 2-2zm-3.946-7c1.057 0 1.928-.799 2.042-1.826h.013v-.575l-.93-2.599h1.821v6h-3v2h8v-2h-3v-6h1.842l-.842 2.664v.336c0 1.104.895 2 2 2s2-.896 2-2v-.336l-1.5-4.664h-3.5v-1h-2v1h-3.5l-1.5 4.612v.333c0 1.134.919 2.054 2.054 2.054zm8.446 6c0 1.657 1.343 3 3 3s3-1.343 3-3-1.343-3-3-3-3 1.343-3 3zm-12 3c1.657 0 3-1.343 3-3s-1.343-3-3-3-3 1.343-3 3 1.343 3 3 3zm17 2h-4c-1.381 0-2.5 1.119-2.5 2.5v.5c0-1.105-.895-2-2-2h-2c-1.105 0-2 .895-2 2v-.5c0-1.381-1.119-2.5-2.5-2.5h-4c-1.381 0-2.5 1.119-2.5 2.5v2.5h3v-2h3v2h12v-2h3v2h3v-2.5c0-1.381-1.119-2.5-2.5-2.5z"/></svg>