<svg id="Layer_1" viewBox="0 0 24 24" xmlns="http://www.w3.org/2000/svg" data-name="Layer 1"><path d="m24 17.016c0 .651-.419 1.201-1 1.408v3.592h-2c0-1-.5-2-2-2h-1.448l.826 2c.195.438.155.94-.106 1.342s-.703.642-1.183.642h-.717l-2.205-5.188c-.106-.244-.167-.513-.167-.796v-2c0-1.105.895-2 2-2h3c1.5 0 2-1 2-2h2v3.592c.581.207 1 .757 1 1.408zm-10.854 4.509.988 2.325c-.834.133-2.135.151-2.135.151-6.616-.001-11.999-5.384-11.999-12.001s5.383-12 12-12c5.919-.03 10.878 4.352 11.822 10.016h-3.062c-.671-2.96-2.794-5.371-5.59-6.429 1.023 1.875 2.084 4.469 2.289 7.412l.021 1.017h-1.48c-1.467 0-2.739.803-3.435 1.983h-2.89c.438 2.591 1.616 4.802 2.479 6.145.552.858.976 1.369.988 1.383l.004-.003zm-10.087-10.525h3.481c.205-2.943 1.266-5.538 2.289-7.412-3.101 1.173-5.392 4.005-5.771 7.412zm5.771 9.412c-.906-1.659-1.837-3.882-2.184-6.412h-3.414c.674 2.956 2.806 5.356 5.598 6.412zm.716-9.412h4.909c-.248-2.857-1.495-5.354-2.453-6.897-.958 1.548-2.206 4.054-2.456 6.897z"/></svg>