<svg id="Layer_1" viewBox="0 0 24 24" xmlns="http://www.w3.org/2000/svg" data-name="Layer 1"><path d="m11.026 9h-5.026v-3h11.5c-2.595 0-4.915 1.167-6.474 3zm9.474-9h-17c-1.93 0-3.5 1.57-3.5 3.5v16.5h11.026c-.738-.868-1.307-1.884-1.651-3h-3.651c-.452-1.272-1.452-2.272-2.724-2.724v-8.552c1.272-.452 2.272-1.452 2.724-2.724h12.551c.452 1.272 1.452 2.272 2.724 2.724v1.036c1.163.527 2.187 1.304 3 2.268v-5.528c0-1.93-1.57-3.5-3.5-3.5zm3.5 14.5c0 2.3-1.198 4.316-3 5.471v4.029l-3.5-3-3.5 3v-4.029c-1.802-1.155-3-3.172-3-5.471 0-3.59 2.91-6.5 6.5-6.5s6.5 2.91 6.5 6.5zm-8.5-1.876c0-.344.28-.624.624-.624h2.376c.552 0 1 .449 1 1h2c0-1.654-1.346-3-3-3v-1h-2v1h-.376c-1.447 0-2.624 1.177-2.624 2.624 0 1.288.922 2.377 2.192 2.588l3.286.548c.302.05.521.309.521.616 0 .344-.28.624-.624.624h-2.376c-.551 0-1-.449-1-1h-2c0 1.654 1.346 3 3 3v.86c.321.089.655.14 1 .14s.679-.022 1-.068v-.932h.376c1.447 0 2.624-1.177 2.624-2.624 0-1.288-.923-2.377-2.193-2.588l-3.286-.548c-.302-.05-.521-.309-.521-.616zm-9.5 1.376h3.025c.062-1.065.316-2.076.735-3h-3.76z"/></svg>