<svg id="Layer_1" viewBox="0 0 24 24" xmlns="http://www.w3.org/2000/svg" data-name="Layer 1"><path d="m20.5 3h-2.5v-.5c0-1.379-1.122-2.5-2.5-2.5h-7c-1.378 0-2.5 1.121-2.5 2.5v.5h-2.5c-1.93 0-3.5 1.57-3.5 3.5v17.5h24v-17.5c0-1.93-1.57-3.5-3.5-3.5zm.5 18h-18v-14.5c0-.275.224-.5.5-.5h17c.276 0 .5.225.5.5zm-11-9.376c0 .307.219.565.522.616l3.285.547c1.271.212 2.193 1.301 2.193 2.589 0 1.447-1.177 2.624-2.624 2.624h-.376v1h-2v-1c-1.654 0-3-1.346-3-3h2c0 .552.449 1 1 1h2.376c.344 0 .624-.28.624-.624 0-.307-.219-.565-.522-.616l-3.285-.547c-1.271-.212-2.193-1.301-2.193-2.589 0-1.447 1.177-2.624 2.624-2.624h.376v-1h2v1c1.654 0 3 1.346 3 3h-2c0-.552-.449-1-1-1h-2.376c-.344 0-.624.28-.624.624z"/></svg>