<?xml version="1.0" encoding="UTF-8"?>
<svg xmlns="http://www.w3.org/2000/svg" id="Layer_1" data-name="Layer 1" viewBox="0 0 24 24">
  <path d="M17.5,2h-5.26c.479,.715,.76,1.575,.76,2.5,0,.171-.032,.334-.05,.5h4.55c1.93,0,3.5,1.57,3.5,3.5v2.5H10.5C2.211,11,0,17.601,0,21.5v2.5H24V8.5c0-3.584-2.916-6.5-6.5-6.5Zm3.5,19H3.017c.119-1.914,1.043-7,7.483-7h10.5v7ZM0,4.5c0-1.381,1.119-2.5,2.5-2.5,.187,0,.556,0,.556,0,.232-1.14,1.235-2,2.444-2s2.212,.86,2.444,2c0,0,.369,0,.556,0,1.381,0,2.5,1.119,2.5,2.5s-1.119,2.5-2.5,2.5h-1l-2,3-2-3h-1c-1.381,0-2.5-1.119-2.5-2.5Z"/>
</svg>
