<?xml version="1.0" encoding="UTF-8"?>
<svg xmlns="http://www.w3.org/2000/svg" id="Layer_1" data-name="Layer 1" viewBox="0 0 24 24">
  <path d="M18,9.905c.64,1.068,1,2.299,1,3.595v3.5h3v-3.5c0-3.179-1.488-6.094-4-7.979v-1.021c0-2.481-2.019-4.5-4.5-4.5h-3c-2.481,0-4.5,2.019-4.5,4.5v1.021c-2.512,1.885-4,4.8-4,7.979v10.5h3V13.5c0-1.296,.36-2.527,1-3.595v2.595c0,3.033,2.468,5.5,5.5,5.5h1c3.032,0,5.5-2.467,5.5-5.5v-2.595ZM9,4.5c0-.827,.673-1.5,1.5-1.5h3c.827,0,1.5,.673,1.5,1.5V12.5c0,.494-.148,.952-.397,1.34-.734-.526-1.63-.84-2.603-.84s-1.869,.313-2.603,.84c-.248-.388-.397-.846-.397-1.34V4.5Zm14.5,16.5l-2,1-1,2-1-2-2-1,2-1,1-2,1,2,2,1ZM2.5,5l-.833-1.667-1.667-.833,1.667-.833,.833-1.667,.833,1.667,1.667,.833-1.667,.833-.833,1.667Z"/>
</svg>
