<?xml version="1.0" encoding="UTF-8"?>
<svg xmlns="http://www.w3.org/2000/svg" id="Layer_1" data-name="Layer 1" viewBox="0 0 24 24">
  <path d="m24,16c0-.678-.196-1.327-.556-1.884.037-.202.056-.408.056-.616,0-1.578-1.05-2.916-2.488-3.351-.256-.456-.602-.847-1.012-1.154v-.995C20,3.589,16.411,0,12,0S4,3.589,4,8v.995c-.41.307-.756.698-1.012,1.154-1.438.435-2.488,1.773-2.488,3.351,0,.208.019.414.056.616-.36.557-.556,1.206-.556,1.884,0,.699.212,1.375.594,1.944-.062.262-.094.532-.094.806,0,1.578,1.05,2.916,2.488,3.351.649,1.155,1.875,1.899,3.262,1.899,2.068,0,3.75-1.683,3.75-3.75v-8.25c0-1.811-1.29-3.326-3-3.675v-.325c0-2.757,2.243-5,5-5s5,2.243,5,5v.325c-1.71.348-3,1.864-3,3.675v8.25c0,2.067,1.682,3.75,3.75,3.75,1.387,0,2.612-.744,3.262-1.899,1.438-.435,2.488-1.772,2.488-3.351,0-.273-.032-.544-.094-.806.382-.569.594-1.245.594-1.944Zm-17,4.25c0,.413-.336.75-.75.75-.346,0-.652-.246-.728-.585l-.276-1.23-1.291.063c-.255-.022-.455-.237-.455-.498,0-.102.029-.196.086-.28l.824-1.214-1.196-.851c-.064-.046-.214-.177-.214-.405,0-.197.121-.324.192-.382l.975-.786-.599-1.1c-.046-.083-.068-.159-.068-.232,0-.256.193-.468.441-.496l1.312.031.27-1.201c.076-.338.382-.584.728-.584.414,0,.75.336.75.75v8.25Zm13.786-3.845l-1.196.851.824,1.214c.057.084.086.179.086.28,0,.259-.198.473-.451.498l-1.293-.065-.277,1.232c-.076.339-.383.585-.729.585-.414,0-.75-.337-.75-.75v-8.25c0-.414.336-.75.75-.75.346,0,.652.246.728.584l.27,1.201,1.3-.033c.253.024.452.238.452.498,0,.073-.022.149-.068.232l-.599,1.1.975.786c.071.058.192.185.192.382,0,.229-.149.359-.214.405Z"/>
</svg>
