<?xml version="1.0" encoding="UTF-8"?>
<svg xmlns="http://www.w3.org/2000/svg" id="Layer_1" data-name="Layer 1" viewBox="0 0 24 24">
  <path d="m21.976-.005c-1.545,0-2.888.991-3.344,2.466-.03.098-.061.198-.092.298-.786-.249-1.441-.46-1.798-.582l-.969,2.84c.372.127,1.058.347,1.88.607-.156.503-.316,1.019-.478,1.541-.834-.264-1.534-.488-1.909-.616l-.967,2.84c.386.131,1.11.364,1.973.637-.929,2.646-2.803,5.969-4.272,5.969-.265,0-.968,0-1-1v-1.482c.018-.692.292-1.518,1.5-1.518h.5v-3H0v3h.5c1.208,0,1.482.825,1.5,1.52l.031,2.32c0,3.161,1.31,5.747,3.594,7.096,1.202.71,2.541,1.072,3.884,1.072.875,0,1.752-.154,2.592-.465,2.129-.788,3.769-2.472,4.499-4.618.475-1.397,4.288-13.595,4.899-15.574.064-.21.256-.351.477-.351h2.024V-.005h-2.024Zm-10.916,20.729c-1.3.48-2.687.345-3.909-.376-1.913-1.129-2.119-3.532-2.119-4.533l-.031-2.32c0-.462-.078-.982-.25-1.5h3.5c-.172.518-.25,1.038-.25,1.5v1.5c0,1.608,1.065,4,4,4,.492,0,.96-.09,1.403-.252-.519.908-1.341,1.61-2.344,1.981Z"/>
</svg>
