<?xml version="1.0" encoding="UTF-8"?>
<svg xmlns="http://www.w3.org/2000/svg" id="Layer_1" data-name="Layer 1" viewBox="0 0 24 24" width="512" height="512"><path d="M24,3.5V24H8.918l-3.667-3.351L.747,16.609c-.866-.722-.983-2.008-.261-2.874,.722-.866,2.008-.983,2.874-.261l2.64,2.296V3.5c0-.911,.799-1.632,1.739-1.479,.737,.12,1.248,.812,1.248,1.56V19.999l1.095,1.001h10.918V3.5c0-.828,.672-1.5,1.5-1.5s1.5,.672,1.5,1.5ZM14,1.5c0-.828-.672-1.5-1.5-1.5s-1.5,.672-1.5,1.5V11h3V1.5Zm5,0c0-.828-.672-1.5-1.5-1.5s-1.5,.672-1.5,1.5V11h3V1.5Zm-7,13c0,.828,.672,1.5,1.5,1.5s1.5-.672,1.5-1.5-.672-1.5-1.5-1.5-1.5,.672-1.5,1.5Zm5,0c0,.828,.672,1.5,1.5,1.5s1.5-.672,1.5-1.5-.672-1.5-1.5-1.5-1.5,.672-1.5,1.5Zm-.5,5.5c.828,0,1.5-.672,1.5-1.5s-.672-1.5-1.5-1.5-1.5,.672-1.5,1.5,.672,1.5,1.5,1.5Zm-5,0c.828,0,1.5-.672,1.5-1.5s-.672-1.5-1.5-1.5-1.5,.672-1.5,1.5,.672,1.5,1.5,1.5Z"/></svg>
