<?xml version="1.0" encoding="UTF-8"?>
<svg xmlns="http://www.w3.org/2000/svg" id="Layer_1" data-name="Layer 1" viewBox="0 0 24 24" width="512" height="512"><path d="M12,0C5.383,0,0,5.383,0,12s5.383,12,12,12,12-5.383,12-12S18.617,0,12,0Zm0,3c2.66,0,5.053,1.16,6.702,3h-3.202c-.816,0-1.542,.393-1.999,1h-3.002c-.456-.607-1.182-1-1.999-1h-3.202c1.649-1.84,4.042-3,6.702-3Zm7,6.5c0,.828-.672,1.5-1.5,1.5s-1.5-.672-1.5-1.5,.672-1.5,1.5-1.5,1.5,.672,1.5,1.5Zm-11,0c0,.828-.672,1.5-1.5,1.5s-1.5-.672-1.5-1.5,.672-1.5,1.5-1.5,1.5,.672,1.5,1.5Zm4,11.5c-4.792,0-8.72-3.764-8.985-8.49,.416,.308,.929,.49,1.485,.49h4c1.379,0,2.5-1.121,2.5-2.5v-.5h2v.5c0,1.379,1.121,2.5,2.5,2.5h4c.556,0,1.07-.182,1.485-.49-.265,4.727-4.193,8.49-8.985,8.49Zm4.005-6.623l1.994,2.241c-.108,.098-2.703,2.382-5.999,2.382s-5.891-2.284-5.999-2.382l1.994-2.241c.019,.017,1.871,1.623,4.005,1.623s3.986-1.606,4.005-1.623Z"/></svg>
