<?xml version="1.0" encoding="UTF-8"?>
<svg xmlns="http://www.w3.org/2000/svg" id="Layer_1" data-name="Layer 1" viewBox="0 0 24 24">
  <path d="M9,22c0,1.105-.895,2-2,2s-2-.895-2-2,.895-2,2-2,2,.895,2,2Zm8-2c-1.105,0-2,.895-2,2s.895,2,2,2,2-.895,2-2-.895-2-2-2ZM24,3.753v7.506l-6.5,3.753-6.5-3.753V3.753L17.5,0l6.5,3.753Zm-8.5,1.247h-1v2.775l-1.539-2.775h-.961v5h1v-2.868l1.59,2.868h.91V5Zm3.501,2.011l-1.501-.004v-1.007h1.5v-1h-2.5v5h1v-1.993l1.499,.004,.003-1Zm3.999-2h-3v1h1v3.989h1v-3.989h1v-1ZM13.516,15H7.405c-.25,0-.462-.187-.496-.434l-.875-6.566h2.966v-3h-3.366l-.262-1.962c-.23-1.731-1.722-3.038-3.469-3.038H0V3H1.903c.25,0,.462,.187,.496,.434l1.537,11.529c.23,1.731,1.722,3.037,3.469,3.037h11.349l-5.238-3Z"/>
</svg>
