<?xml version="1.0" encoding="UTF-8"?>
<svg xmlns="http://www.w3.org/2000/svg" id="Layer_1" data-name="Layer 1" viewBox="0 0 24 24" width="512" height="512"><path d="m12,0C5.383,0,0,5.383,0,12s5.383,12,12,12,12-5.383,12-12S18.617,0,12,0Zm9,12c0,1.424-.341,2.767-.933,3.965l-6.567-6.567V3.135c4.249.718,7.5,4.414,7.5,8.865Zm-10.5,8.865c-1.855-.313-3.521-1.189-4.807-2.455l4.807-4.807v7.262Zm3-7.225l4.788,4.788c-1.284,1.256-2.941,2.125-4.788,2.437v-7.225Zm-3-10.504v6.225l-6.579,6.579c-.584-1.192-.921-2.525-.921-3.939,0-4.45,3.251-8.147,7.5-8.865Z"/></svg>
