<svg id="Layer_1" viewBox="0 0 24 24" xmlns="http://www.w3.org/2000/svg" data-name="Layer 1"><path d="m8 22v2h-8v-2c0-1.105.895-2 2-2h4c1.105 0 2 .895 2 2zm-1-7c0-1.657-1.343-3-3-3s-3 1.343-3 3 1.343 3 3 3 3-1.343 3-3zm15 5h-4c-1.105 0-2 .895-2 2v2h8v-2c0-1.105-.895-2-2-2zm1-5c0-1.657-1.343-3-3-3s-3 1.343-3 3 1.343 3 3 3 3-1.343 3-3zm1-13v7h-5.872l-2.454 1.69c-.692.456-1.674-.039-1.672-.915l-.002-7.772c0-1.1.899-2 1.999-2.001l6-.002c1.104 0 2 .895 2 2zm-3 1h-4s0 2.999 0 2.999h3.999v-2.999zm-11-.998-.002 7.772c.002.876-.98 1.371-1.672.915l-2.454-1.69h-5.872v-6.999c0-1.105.896-2 2-2l6 .002c1.1 0 2 .901 1.999 2.001zm-3 .999h-4s0 2.998 0 2.998h3.999v-2.997z"/></svg>