<?xml version="1.0" encoding="UTF-8"?>
<svg xmlns="http://www.w3.org/2000/svg" id="Layer_1" data-name="Layer 1" viewBox="0 0 24 24" width="512" height="512"><path d="m17,6.055v-3.055h2V0H5v3h2v3.055C2.771,7.913,0,11.987,0,16.5c0,2.516.843,4.912,2.437,6.93l.45.57h18.225l.45-.57c1.595-2.018,2.438-4.414,2.438-6.93,0-4.513-2.771-8.587-7-10.445Zm2.623,14.945H4.377c-.903-1.354-1.377-2.896-1.377-4.5,0-3.578,2.403-6.792,5.979-7.998l1.021-.344V3h4v5.158l1.021.344c3.576,1.206,5.979,4.42,5.979,7.998,0,1.604-.474,3.146-1.377,4.5Zm-7.623-11c-2.206,0-4,1.794-4,4v3h2v2h4v-2h2v-3c0-2.206-1.794-4-4-4Zm-1,5h-2v-2h2v2Zm4,0h-2v-2h2v2Z"/></svg>
