<?xml version="1.0" encoding="UTF-8"?>
<svg xmlns="http://www.w3.org/2000/svg" id="Layer_1" data-name="Layer 1" viewBox="0 0 24 24">
  <path d="m23.332,8.507c.96-1.086.871-2.752-.199-3.714-1.129-1.016-2.711-1.838-4.437-2.322-.602-1.449-2.031-2.471-3.696-2.471-1.763,0-3.263,1.146-3.794,2.732C1.967,7.309,0,14.054,0,18.963c0,2.777,2.243,5.037,5,5.037h10v-3h-2v-2.5c0-.962.154-1.996.359-2.948l5.856,8.448h3.785v-3h-2.215l-5.672-8.183c3.139-.527,6.314-2.154,8.218-4.31ZM15,2.5c.828,0,1.5.673,1.5,1.5s-.672,1.5-1.5,1.5-1.5-.673-1.5-1.5.672-1.5,1.5-1.5Zm-2,7.5h-1.019l-.376.947c-.038.096-.571,1.453-1.012,3.251-1.002-.752-2.247-1.198-3.593-1.198h-.414c-.562.937-.975,1.936-1.237,3h1.65c1.654,0,3,1.346,3,3v2h-5c-1.103,0-2-.914-2-2.037,0-5.531,2.862-9.9,8.512-13.007.686,1.219,1.992,2.044,3.488,2.044,1.634,0,3.042-.985,3.662-2.392.832.306,1.582.708,2.178,1.175-1.834,1.879-5.063,3.217-7.84,3.217Z"/>
</svg>
