<?xml version="1.0" encoding="UTF-8"?>
<svg xmlns="http://www.w3.org/2000/svg" id="Layer_1" data-name="Layer 1" viewBox="0 0 24 24">
  <path d="m3,2.5c0-1.381,1.119-2.5,2.5-2.5s2.5,1.119,2.5,2.5-1.119,2.5-2.5,2.5-2.5-1.119-2.5-2.5Zm6,6.5v15h-3v-6h-1v6h-3v-6H0v-8.5c0-1.93,1.57-3.5,3.5-3.5h7.5V0h3l4,2.5-4,2.5v4h-5Zm-3,0h-2.5c-.275,0-.5.225-.5.5v5.5h3v-6Zm14.5,1c1.381,0,2.5-1.119,2.5-2.5s-1.119-2.5-2.5-2.5-2.5,1.119-2.5,2.5,1.119,2.5,2.5,2.5Zm-7.5,1.5c0,1.381,1.119,2.5,2.5,2.5s2.5-1.119,2.5-2.5-1.119-2.5-2.5-2.5-2.5,1.119-2.5,2.5Zm3.5,3.5h-2c-1.381,0-2.5,1.119-2.5,2.5v6.5h3v-3h1v3h3v-6.5c0-1.381-1.119-2.5-2.5-2.5Zm5-4h-1.55c.019.166.05.329.05.5,0,.912-.276,1.758-.742,2.467.923.725,1.604,1.802,1.742,3.033v3h3v-6.5c0-1.381-1.119-2.5-2.5-2.5Z"/>
</svg>
