<svg id="Layer_1" viewBox="0 0 24 24" xmlns="http://www.w3.org/2000/svg" data-name="Layer 1"><path d="m21 19.5v4.5h-3v-4.5c0-1.379-1.121-2.5-2.5-2.5h-1.592l1.092 4.016h-6l1.092-4.016h-1.592c-1.378 0-2.5 1.121-2.5 2.5v4.5h-3v-4.5c0-3.032 2.467-5.5 5.5-5.5h7c3.032 0 5.5 2.468 5.5 5.5zm-16.31-10c-.419-.367-.69-.899-.69-1.5 0-.731.396-1.364.981-1.712-.296-.349-.481-.794-.481-1.288 0-.749.417-1.394 1.027-1.737-.012-.087-.027-.173-.027-.263 0-1.105.895-2 2-2 .09 0 .176.015.263.027.343-.61.988-1.027 1.737-1.027.327 0 .632.083.904.222.509-.141 1.043-.222 1.596-.222s1.087.081 1.596.222c.272-.139.577-.222.904-.222.749 0 1.394.417 1.737 1.027.087-.012.173-.027.263-.027 1.105 0 2 .895 2 2 0 .09-.015.176-.027.263.61.343 1.027.988 1.027 1.737 0 .493-.185.939-.481 1.288.585.349.981.982.981 1.712 0 .601-.27 1.133-.69 1.5.419.367.69.899.69 1.5 0 1.105-.895 2-2 2s-2-.895-2-2c0-.227.046-.442.116-.646-1.076 1.017-2.522 1.646-4.116 1.646s-3.041-.629-4.116-1.646c.07.204.116.419.116.646 0 1.105-.895 2-2 2s-2-.895-2-2c0-.601.27-1.133.69-1.5zm7.31-6.5c-1.654 0-3 1.346-3 3s1.346 3 3 3 3-1.346 3-3-1.346-3-3-3z"/></svg>