<?xml version="1.0" encoding="UTF-8"?>
<svg xmlns="http://www.w3.org/2000/svg" id="Layer_1" data-name="Layer 1" viewBox="0 0 24 24">
  <path d="m10,1.273v5.727l-2.683-2.683c-2.703,1.651-4.317,4.517-4.317,7.683H0c0-3.979,1.928-7.588,5.165-9.835L3,0h5.727C9.43,0,10,.57,10,1.273Zm14,10.727h-3c0,3.167-1.614,6.033-4.317,7.683l-2.683-2.683v5.727c0,.703.57,1.273,1.273,1.273h5.727l-2.167-2.167c3.195-2.229,5.167-5.915,5.167-9.834ZM0,14h10v10H0v-10Zm3,7h4v-4H3v4ZM13,5.5c0-3.032,2.468-5.5,5.5-5.5s5.5,2.468,5.5,5.5-2.468,5.5-5.5,5.5-5.5-2.468-5.5-5.5Zm3,0c0,1.379,1.121,2.5,2.5,2.5s2.5-1.121,2.5-2.5-1.121-2.5-2.5-2.5-2.5,1.121-2.5,2.5Z"/>
</svg>
