<svg id="Layer_1" viewBox="0 0 24 24" xmlns="http://www.w3.org/2000/svg" data-name="Layer 1"><path d="m14.327 14.89c-2.328-1.097-4.042-2.818-5.207-5.227l2.963-2.963-6.641-6.642-3.643 3.644c-1.139 1.136-1.767 2.672-1.767 4.323 0 7.152 8.791 15.943 15.943 15.943 1.651 0 3.187-.627 4.322-1.765l3.646-3.645-6.642-6.641zm3.848 5.193c-.57.571-1.352.885-2.2.885-4.993 0-12.942-7.067-12.942-12.942 0-.849.314-1.63.886-2.201l1.524-1.524 2.399 2.398-2.268 2.268.369.919c1.59 3.959 4.348 6.712 8.195 8.18l.908.347 2.255-2.255 2.399 2.399-1.525 1.525zm3.824-20.083h-7c-1.1 0-2 .9-1.999 2l.002 7.911c0 .858.949 1.378 1.672.915l2.826-1.827h6.5v-6.999c0-1.105-.896-2-2.001-2zm-1.999 6.999h-3c-1.105 0-2-.895-2-2h2l1.5 1 1.5-1h2c0 1.105-.895 2-2 2zm-5-3c0-1.105.895-2 2-2h3c1.105 0 2 .895 2 2z"/></svg>