<?xml version="1.0" encoding="UTF-8"?>
<svg xmlns="http://www.w3.org/2000/svg" id="Layer_1" data-name="Layer 1" viewBox="0 0 24 24">
  <path d="M22.732,9.013c-1.514-1.439-4.113-1.316-5.487,.257l-2.246,2.468V3.753L8.5,0,2,3.753v7.598c-1.178,.564-2,1.758-2,3.149v6c0,1.93,1.57,3.5,3.5,3.5H14.681l8.333-9.532c1.411-1.581,1.284-4.028-.282-5.455ZM11,5.011h3v1h-1v3.989h-1v-3.989h-1v-1Zm-3.5-.011h2.5v1h-1.5v1.007l1.501,.004-.003,1-1.499-.004v1.993h-1V5Zm-4.5,0h.961l1.539,2.775v-2.775h1v5h-.91l-1.59-2.868v2.868h-1V5Zm17.766,7.482l-7.447,8.518H3.5c-.276,0-.5-.224-.5-.5v-6c0-.276,.224-.5,.5-.5H12.358c.354,0,.642,.288,.642,.642,0,.317-.237,.591-.551,.636l-5.161,.737,.424,2.97,5.161-.737c1.618-.231,2.875-1.53,3.093-3.115l3.498-3.844c.313-.357,.902-.387,1.248-.059,.356,.325,.385,.881,.054,1.252Z"/>
</svg>
