<?xml version="1.0" encoding="UTF-8"?>
<svg xmlns="http://www.w3.org/2000/svg" id="Layer_1" data-name="Layer 1" viewBox="0 0 24 24">
  <path d="m20.5,3H3.5c-1.93,0-3.5,1.57-3.5,3.5v11c0,1.93,1.57,3.5,3.5,3.5h17c1.93,0,3.5-1.57,3.5-3.5V6.5c0-1.93-1.57-3.5-3.5-3.5Zm-8.5,11c-1.103,0-2-.897-2-2s.897-2,2-2,2,.897,2,2-.897,2-2,2Zm-9,3.5v-1.5h2v-8h-2v-1.5c0-.275.224-.5.5-.5h7v1.255c-2.021.642-3.5,2.514-3.5,4.745s1.479,4.103,3.5,4.745v1.255H3.5c-.276,0-.5-.225-.5-.5Zm18-1.5v1.5c0,.275-.224.5-.5.5h-7v-1.255c2.021-.642,3.5-2.514,3.5-4.745s-1.479-4.103-3.5-4.745v-1.255h7c.276,0,.5.225.5.5v1.5h-2v8h2Z"/>
</svg>
