<?xml version="1.0" encoding="UTF-8"?>
<svg xmlns="http://www.w3.org/2000/svg" id="Layer_1" data-name="Layer 1" viewBox="0 0 24 24">
  <path d="m22.902,1.099c-1.417-1.419-3.887-1.415-5.303,0l-2.486,2.486c-1.338,1.338-3.462,1.366-4.837.07l-2.09,2.151,2.175,2.175L2.172,16.172c-1.185,1.185-1.469,2.933-.854,4.389l-1.318,1.318,2.121,2.121,1.316-1.316c.488.207,1.017.316,1.563.316,1.068,0,2.073-.416,2.828-1.172l8.189-8.189,2.175,2.176,2.152-2.09c-1.297-1.375-1.266-3.501.071-4.838l2.486-2.486c.708-.708,1.098-1.649,1.098-2.651s-.39-1.942-1.098-2.65Zm-12.488,13.901h-2.828l4.896-4.897,1.414,1.414-3.483,3.482Zm10.367-10.721l-2.487,2.486c-.904.905-1.488,2.003-1.749,3.158l-2.468-2.468c1.154-.262,2.252-.846,3.157-1.75l2.487-2.486c.191-.191.414-.22.53-.22s.339.028.53.22c.191.191.219.414.219.529,0,.116-.028.339-.219.53Z"/>
</svg>
