<svg id="Layer_1" viewBox="0 0 24 24" xmlns="http://www.w3.org/2000/svg" data-name="Layer 1"><path d="m13.5 12v-5h-3v5zm5.5-1v-4h-3v4zm3-11h-3v2h-14v-2h-3v5h20zm-17.004 9.113v-2.113h3v3.692c-.831-.818-1.867-1.361-3-1.578zm-3.734 2.9c-1.566 1.427-1.692 3.875-.282 5.455l5.71 6.532h3.985s-7.446-8.518-7.446-8.518c-.331-.371-.302-.927.054-1.252.346-.329.934-.298 1.248.059l3.511 3.859c.225 1.577 1.468 2.87 3.08 3.101l5.161.737.424-2.971-5.161-.737c-.314-.044-.551-.317-.551-.635 0-.354.288-.643.643-.643h8.857c.275 0 .5.225.5.5v6.5h3.001s0-6.5 0-6.5c0-1.93-1.57-3.5-3.5-3.5h-8.857c-.942 0-1.794.369-2.442.958l-2.447-2.689c-.698-.767-1.654-1.217-2.69-1.265-1.037-.049-2.029.31-2.796 1.008z"/></svg>