<svg id="Layer_1" viewBox="0 0 24 24" xmlns="http://www.w3.org/2000/svg" data-name="Layer 1"><path d="m13.5 7v4.69c.307.352.5.806.5 1.31 0 1.105-.895 2-2 2s-2-.895-2-2c0-.504.193-.959.5-1.31v-4.69zm10.5 17h-14l7-12zm-6-3h-2v2h2zm0-1v-4h-2v4zm-14-7c0-4.411 3.589-8 8-8 4.458-.006 8.107 3.696 7.992 8.159l2.243 3.845c.488-1.243.766-2.59.766-4.004 0-2.7-.982-5.173-2.602-7.089l.659-.733.757.757 2.121-2.121-3.75-3.75-2.121 2.121.869.869-.762.846c-1.368-.931-2.959-1.551-4.672-1.786v-2.114h-3v2.115c-1.712.235-3.303.855-4.672 1.786l-.762-.846.869-.869-2.121-2.122-3.75 3.75 2.121 2.121.757-.757.659.733c-1.62 1.916-2.602 4.389-2.602 7.089 0 4.694 2.96 8.699 7.107 10.275l1.535-2.631c-3.264-1.009-5.642-4.054-5.642-7.644z"/></svg>