<?xml version="1.0" encoding="UTF-8"?>
<svg xmlns="http://www.w3.org/2000/svg" id="Layer_1" data-name="Layer 1" viewBox="0 0 24 24">
  <path d="m12,0C5.383,0,0,5.383,0,12s5.383,12,12,12,12-5.383,12-12S18.617,0,12,0Zm1.684,15h-3.398l-1.742-3.095,1.771-2.905h3.372l1.824,3.003-1.827,2.997Zm-10.684-3c0-1.032.175-2.024.496-2.948l3.347,5.948h-3.329c-.333-.939-.515-1.948-.515-3Zm14.197-3h3.288c.333.939.515,1.948.515,3,0,.911-.136,1.791-.389,2.62l-3.413-5.62Zm1.505-3h-6.558l1.711-2.807c1.906.401,3.592,1.407,4.847,2.807Zm-8.333-2.852l-3.511,5.759-1.607-2.855c1.308-1.483,3.096-2.532,5.118-2.904Zm-5.071,14.852h6.558l-1.711,2.807c-1.906-.401-3.592-1.407-4.847-2.807Zm8.333,2.852l3.634-5.961,1.701,2.802c-1.324,1.617-3.199,2.767-5.335,3.16Z"/>
</svg>
