<?xml version="1.0" encoding="UTF-8"?>
<svg xmlns="http://www.w3.org/2000/svg" id="Layer_1" data-name="Layer 1" viewBox="0 0 24 24">
  <path d="M24,4.12s-.671-1.68-1-2.12c-.012,.004-.677-.006-.869-.006-.07,0-.107,1.668-.131,2.006-.044,.628-.381,.956-1,1,0,0-1.347,1.844-1.875,2.404-.172,.182-.554,.364-.825,.364-.172,0-.3-.074-.3-.268v-2.5s-2.529-.706-4-1c-2.5-.5-7.5-1-9-1H2v1H1S0,7.344,0,9.263v1.256c0,2.038,1,4.481,2,5.981,.362-.241,.99-.5,1.5-.5,1.577,.179,3.492,1.104,4,2,.254,.448,.5,1,.5,1,.472,0,1.756,.051,2,.538,.5,1,2,2.462,2,2.462,0,0,1.4-3.566,2-4h2s0-1,1-1c.617,0,2,0,2,1,0,.656,.613,1.587,1,2l1.23,.004c.185-.718,.019-1.295-.276-1.847-.335-.625-.658-1.234-.915-1.89-.114-.296-.098-.737,.056-1.037,.351-.669,.977-1.402,1.355-2.059,.21-.365,.55-.67,.55-1.17,0-1,.009-1.925,0-2.5-.007-.463,2-4.5,2-4.5v-.88Zm-4.999,7.308c-.053,.081-1.62,2.52-1.647,2.578-.115-.004-.233-.006-.355-.006-1.1,0-2.006,.393-2.676,1h-1.297c-.766,.602-1.073,.598-1.805,1.67-.367-.21-.808-.385-1.338-.505-1.367-1.952-4.308-2.948-6.047-3.146-.093-.011-.186-.018-.278-.023-.329-.841-.56-1.74-.56-2.477v-1.256c0-.535,.143-1.393,.33-2.263h1.67v-1c1.295,0,6.123,.484,8.412,.942,.452,.09,1.025,.227,1.588,.368v.191c0,1.832,1.449,3.268,3.3,3.268,.232,0,.468-.024,.703-.069,0,.088-.002,.729-.002,.729Z"/>
</svg>
