<?xml version="1.0" encoding="UTF-8"?>
<svg xmlns="http://www.w3.org/2000/svg" id="Layer_1" data-name="Layer 1" viewBox="0 0 24 24">
  <path d="M19,8.787v4.213H3V5.5c0-.276,.225-.5,.5-.5H15.213c-.136-.478-.213-.979-.213-1.5s.078-1.022,.213-1.5H3.5C1.57,2,0,3.57,0,5.5V24H22V8.787c-.478,.136-.979,.213-1.5,.213s-1.022-.077-1.5-.213Zm-5,6.213h1.967c1.096,0,1.985,.889,1.985,1.985s-.889,1.985-1.985,1.985h-.717v2.03h-1.25v-6Zm-5,0h1.967c1.096,0,1.985,.889,1.985,1.985s-.889,1.985-1.985,1.985h-.717v2.03h-1.25v-6Zm-4.895,1.191c.142-.77,.778-1.159,1.414-1.159,.641,0,1.283,.395,1.417,1.193l1.085,4.775h-1.292l-.225-1h-2.035l-.242,1h-1.227l1.105-4.809ZM24,3.5c0,1.93-1.57,3.5-3.5,3.5s-3.5-1.57-3.5-3.5,1.57-3.5,3.5-3.5,3.5,1.57,3.5,3.5ZM6.223,18.75h-1.451l.552-2.279c-.038-.236,.421-.251,.385-.004l.514,2.283Zm9.744-1.03l-.715,.003v-1.473h.716c.406,0,.735,.329,.735,.735s-.329,.735-.735,.735Zm-5,0l-.715,.003v-1.473h.716c.406,0,.735,.329,.735,.735s-.329,.735-.735,.735Z"/>
</svg>
