<?xml version="1.0" encoding="UTF-8"?>
<svg xmlns="http://www.w3.org/2000/svg" id="Layer_1" data-name="Layer 1" viewBox="0 0 24 24">
  <path d="m15,8h-5v-3h5v3Zm-8.5,8c-.828,0-1.5.672-1.5,1.5s.672,1.5,1.5,1.5,1.5-.672,1.5-1.5-.672-1.5-1.5-1.5Zm0-11c-.828,0-1.5.672-1.5,1.5s.672,1.5,1.5,1.5,1.5-.672,1.5-1.5-.672-1.5-1.5-1.5Zm0,5.5c-.828,0-1.5.672-1.5,1.5s.672,1.5,1.5,1.5,1.5-.672,1.5-1.5-.672-1.5-1.5-1.5Zm14.5,2.5c-1.657,0-3,1.49-3,3.327,0-1.838-1.343-3.327-3-3.327s-3,1.49-3,3.327c0,3.485,6,7.673,6,7.673,0,0,6-4.188,6-7.673,0-1.838-1.343-3.327-3-3.327Zm-11,.5h.779c.886-1.497,2.441-2.5,4.221-2.5v-.5h-5v3Zm1.901,7.5H3V3.5c0-.275.224-.5.5-.5h13c.276,0,.5.225.5.5v7.963c.354.166.694.36,1,.605.581-.466,1.263-.788,2-.949V3.5c0-1.93-1.57-3.5-3.5-3.5H3.5C1.57,0,0,1.57,0,3.5v20.5h14.765c-.926-.805-1.981-1.838-2.864-3Z"/>
</svg>
