<?xml version="1.0" encoding="UTF-8"?>
<svg xmlns="http://www.w3.org/2000/svg" id="Layer_1" data-name="Layer 1" viewBox="0 0 24 24">
  <path d="M22.733,9.014c-1.52-1.438-4.112-1.319-5.488,.256l-2.438,2.68c-.647-.59-1.507-.949-2.449-.949H3.5c-1.93,0-3.5,1.57-3.5,3.5v6c0,1.93,1.57,3.5,3.5,3.5H14.681l8.334-9.532c1.41-1.58,1.283-4.027-.281-5.454Zm-1.967,3.469l-7.447,8.518H3.5c-.275,0-.5-.225-.5-.5v-6c0-.275,.225-.5,.5-.5H12.357c.354,0,.643,.288,.643,.643,0,.317-.236,.591-.551,.635l-5.161,.737,.424,2.971,5.161-.737c1.619-.231,2.876-1.53,3.094-3.116l3.497-3.843c.764-.859,2.087,.343,1.303,1.193ZM3,6.5c0-.838,.416-1.575,1.048-2.028-.028-.154-.048-.31-.048-.472,0-1.613,1.276-2.919,2.873-2.987,.403-.609,1.092-1.013,1.877-1.013,.838,0,1.561,.464,1.948,1.143,.253-.086,.52-.143,.802-.143,1.026,0,1.906,.62,2.291,1.504,1.223,.023,2.209,1.017,2.209,2.246,0,1.243-1.007,2.25-2.25,2.25-.372,0-1.772-.011-3.154-.022-.158,.277-.362,.523-.596,.736v2.286h-3v-1.523c-.419,.321-.932,.523-1.5,.523-1.381,0-2.5-1.119-2.5-2.5Z"/>
</svg>
