<?xml version="1.0" encoding="UTF-8"?>
<svg xmlns="http://www.w3.org/2000/svg" id="Layer_1" data-name="Layer 1" viewBox="0 0 24 24" width="512" height="512"><path d="m17.994,2.286C16.085.582,13.518-.231,10.958.06,6.906.517,3.591,3.783,3.074,7.825c-.359,2.83.859,6.01,3.105,8.101,1.174,1.093,1.82,2.467,1.82,3.87v4.204h8v-4.049c0-1.422.83-3.222,1.932-4.188,1.95-1.709,3.068-4.174,3.068-6.764,0-2.56-1.096-5.007-3.006-6.714Zm-2.039,11.222c-1.278,1.12-2.253,2.784-2.695,4.492h-2.474c-.38-1.58-1.257-3.055-2.563-4.27-1.238-1.153-2.447-3.374-2.173-5.525.343-2.688,2.548-4.86,5.244-5.165,1.735-.19,3.409.33,4.7,1.483,1.274,1.139,2.005,2.77,2.005,4.477,0,1.726-.745,3.368-2.045,4.508Zm-1.002-6.042c.224,1.271-.381,2.542-1.506,3.163-.188.103-.447.563-.447.876v.495h-2v-.495c0-1.033.637-2.163,1.481-2.628.289-.16.595-.535.502-1.065-.069-.393-.402-.726-.793-.794-.31-.058-.603.021-.832.216-.228.19-.358.47-.358.767h-2c0-.889.391-1.727,1.072-2.299.681-.572,1.578-.814,2.464-.653,1.21.211,2.205,1.206,2.417,2.418Zm-3.953,5.534h2v2h-2v-2Z"/></svg>
