<?xml version="1.0" encoding="UTF-8"?>
<svg xmlns="http://www.w3.org/2000/svg" id="Layer_1" data-name="Layer 1" viewBox="0 0 24 24" width="512" height="512"><path d="m12.086,16H.998v-3h22v3h-4.084l-3.414,3.414-3.414-3.414Zm3.414,6.243l-4.242-4.243H.998v1.5c0,2.481,2.019,4.5,4.5,4.5h13c2.481,0,4.5-2.019,4.5-4.5v-1.5h-3.256l-4.242,4.243Zm7.61-11.243H.884l.177-1.659C1.638,3.929,6.237,0,11.998,0s10.373,3.93,10.938,9.344l.173,1.656Zm-3.521-3c-1.036-3.013-3.949-5-7.591-5-3.568,0-6.52,2.023-7.578,5h15.169Z"/></svg>
