<?xml version="1.0" encoding="UTF-8"?>
<svg xmlns="http://www.w3.org/2000/svg" id="Layer_1" data-name="Layer 1" viewBox="0 0 24 24">
  <path d="M24,5.5v5.289c-.883-.595-1.939-.87-3-.749v-3.04H3v12h7.762c-.48,.716-.762,1.575-.762,2.5,0,.171,.032,.334,.051,.5H0V3.5C0,1.57,1.57,0,3.5,0h4.854l4,2h8.146c1.93,0,3.5,1.57,3.5,3.5Zm-2.854,6.525l-5,.715c-1.224,.174-2.146,1.239-2.146,2.475v3.836c-1.141,.232-2,1.24-2,2.45,0,1.381,1.119,2.5,2.5,2.5s2.5-1.119,2.5-2.5v-5.852l4-.572v2.974c-1.141,.232-2,1.24-2,2.45,0,1.381,1.119,2.5,2.5,2.5s2.5-1.119,2.5-2.5c0-.001,0-.003,0-.004h0v-5.996c0-.725-.314-1.413-.862-1.889-.548-.476-1.273-.69-1.992-.586Z"/>
</svg>
