<?xml version="1.0" encoding="UTF-8"?>
<svg xmlns="http://www.w3.org/2000/svg" id="Layer_1" data-name="Layer 1" viewBox="0 0 24 24">
  <path d="m24,10.5v3H0v-3h24Zm-15.5-1.5c1.93,0,3.5-1.57,3.5-3.5V0h-2.5v5.333c0,.643-.357,1.167-1,1.167s-1-.523-1-1.167V0h-2.5v5.5c0,1.93,1.57,3.5,3.5,3.5Zm2,11.333c0,.643-.357,1.167-1,1.167s-1-.523-1-1.167v-5.333h-2.5v5.5c0,1.93,1.57,3.5,3.5,3.5s3.5-1.57,3.5-3.5v-5.5h-2.5v5.333Zm4.5,3.667h2.5v-9h-2.5v9Zm.453-15l.806-1.595.806,1.595h2.935l-2.274-4.5.006-.012,2.268-4.488h-2.935l-.8,1.583-.006.012-.006-.012-.8-1.583h-2.935l2.268,4.488.006.012-2.274,4.5h2.935Z"/>
</svg>
