<svg id="Layer_1" viewBox="0 0 24 24" xmlns="http://www.w3.org/2000/svg" data-name="Layer 1"><path d="m18.406 8.9 3.055-3.055-7.475-4.982c-2.03-1.353-4.756-1.084-6.481.642-1.462 1.461-1.866 3.638-1.136 5.505l-3.369 3.369v10.621h-3v3h9v-3h-3v-9.379l1.972-1.972 3.875 5.811 3.054-3.054c.435.365.988.593 1.6.593 1.381 0 2.5-1.119 2.5-2.5 0-.612-.229-1.165-.594-1.6zm-9.047-2.578c-.563-.845-.451-1.979.267-2.696.721-.72 1.855-.828 2.696-.267l4.43 2.953-4.44 4.439-2.953-4.43zm11.202 6.117 2.5 2.5-2.121 2.121-2.5-2.5zm3.439-3.439v3h-3v-3zm-9 6h3v3h-3z"/></svg>