<?xml version="1.0" encoding="UTF-8"?>
<svg xmlns="http://www.w3.org/2000/svg" id="Layer_1" data-name="Layer 1" viewBox="0 0 24 24">
  <path d="m24,5v9h-3v-4H3v11h3v3H0V5c0-1.654,1.346-3,3-3h3V0h3v2h6V0h3v2h3c1.654,0,3,1.346,3,3Zm-6.082,12.619l1.339,6.373h-1.632l-.295-1.4h-2.379l-.309,1.4h-1.584l1.365-6.418c.116-.58.455-1.079.926-1.356.255-.15.535-.225.816-.225.242,0,.486.056.718.168.512.246.9.791,1.035,1.459Zm-.924,3.373l-.641-3.044c-.047-.231-.144-.334-.168-.349l-.017-.006c-.071.042-.146.146-.176.296l-.686,3.104h1.688Zm2.006-3.4h1.65v6.4h1.6v-6.4h1.75v-1.6h-5v1.6Zm-8.078,1.753c-.56-.228-1.084-.467-1.366-.595-.099-.045-.428-.173-.433-.615-.002-.131.103-.441.515-.577.73-.236,1.392.2,1.611.367l.86-1.113c-.401-.369-1.539-1.123-2.863-.686-.796.263-1.359.951-1.471,1.796-.106.818.23,1.565.921,2.049.003,0,.838.409,1.753.78.214.086.905.409.817.959-.065.391-.492.795-1.096.795-.572,0-1.124-.24-1.497-.646l-1.009,1.006c.633.723,1.541,1.136,2.506,1.136,1.221,0,2.245-.853,2.436-2.028.143-.882-.224-2.036-1.685-2.627Z"/>
</svg>
