<svg id="Layer_1" viewBox="0 0 24 24" xmlns="http://www.w3.org/2000/svg" data-name="Layer 1"><path d="m24 12.5c0 2.953-1.613 5.532-4 6.918v-2.288c0-.471-.105-.919-.258-1.348.773-.881 1.258-2.021 1.258-3.282 0-2.487-1.959-4.425-4.558-4.508l-1.082-.034-.308-1.038c-.677-2.276-2.767-3.927-4.972-3.927-2.902 0-5.091 2.149-5.091 5 0 1.138.134 1.729.246 2.025l.479 1.258-1.199.611c-.907.463-1.517 1.513-1.517 2.613 0 .903.409 1.704 1.042 2.255-.012.126-.042.247-.042.375v3.02c-2.327-.826-4-3.043-4-5.65 0-1.803.807-3.502 2.125-4.604-.09-.553-.135-1.184-.135-1.903.002-4.486 3.556-8 8.093-8 3.226 0 6.18 2.052 7.494 5.1 3.677.595 6.425 3.675 6.425 7.407zm-6 4.63v6.87h-12v-6.87c0-.615.283-1.196.767-1.575l4-3.13c.724-.567 1.741-.567 2.465 0l4 3.13c.484.379.767.96.767 1.575zm-5 4.87c0-.552-.448-1-1-1s-1 .448-1 1 .448 1 1 1 1-.448 1-1zm.696-1.198 1.132-1.13c-1.559-1.56-4.097-1.56-5.657 0l1.132 1.131c.936-.936 2.457-.936 3.393 0s.001 0 .001 0zm2.901-2.898c-1.227-1.228-2.86-1.904-4.596-1.904s-3.368.676-4.596 1.904l1.132 1.131c.925-.925 2.155-1.435 3.464-1.435s2.539.51 3.464 1.435z"/></svg>