<?xml version="1.0" encoding="UTF-8"?>
<svg xmlns="http://www.w3.org/2000/svg" id="Layer_1" data-name="Layer 1" viewBox="0 0 24 24">
  <path d="M17,12l-7,12h14l-7-12Zm1,11h-2v-2h2v2Zm-2-3v-4h2v4h-2Zm-4.785-2.052l4.636-7.948h2.298l1.83,3.137c-.11-3.036-1.564-5.804-3.979-7.617-.009-.232,.026-1.109-.031-1.323-.159-2.338-2.092-4.197-4.469-4.197h-3c-2.481,0-4.5,2.019-4.5,4.5v1.02C1.488,7.406,0,10.321,0,13.5v10.5H3V13.5c0-1.296,.36-2.527,1-3.595v2.595c0,3.033,2.467,5.5,5.5,5.5,.463-.004,1.266,.023,1.715-.052Zm-3.818-4.108c-.248-.388-.397-.846-.397-1.34V4.5c0-.827,.673-1.5,1.5-1.5h3c.827,0,1.5,.673,1.5,1.5V12.5c0,.494-.148,.952-.397,1.34-.734-.526-1.63-.84-2.603-.84s-1.869,.313-2.603,.84Z"/>
</svg>
