<?xml version="1.0" encoding="UTF-8"?>
<svg xmlns="http://www.w3.org/2000/svg" id="Layer_1" data-name="Layer 1" viewBox="0 0 24 24">
  <path d="m18,24h-3c0-1.654-1.346-3-3-3s-3,1.346-3,3h-3c0-3.309,2.691-6,6-6s6,2.691,6,6Zm2.771-6.011c-.671-2.349-2.846-3.989-5.289-3.989h-6.966c-2.442,0-4.617,1.64-5.289,3.989l-1.717,6.011h3.12l1.482-5.187c.305-1.067,1.293-1.813,2.404-1.813h6.966c1.11,0,2.099.746,2.404,1.813l1.482,5.187h3.12l-1.717-6.011Zm-8.771-5.989c.836,0,1.627-.183,2.351-.495l-.525-3.085c-.5.399-1.256.579-1.826.579-1.654,0-3-1.346-3-3,1.145,0,3.621-1.282,4.849-2.418.865.576,1.508,1.528,1.666,2.631l.984,5.787c1.232.182,2.384.663,3.363,1.385-.002-.007-1.386-7.653-1.386-7.653-.497-3.271-3.271-5.732-6.477-5.732s-5.979,2.46-6.477,5.732c0,0-1.376,7.622-1.382,7.648.978-.72,2.128-1.2,3.358-1.381h4.5Z"/>
</svg>
