<svg id="Layer_1" viewBox="0 0 24 24" xmlns="http://www.w3.org/2000/svg" data-name="Layer 1"><path d="m22 19h2v2c0 1.657-1.343 3-3 3h-18c-1.657 0-3-1.343-3-3v-2h2v-13h12v3h-9v10h3.308l.923 1h5.538l.923-1h3.308v-3h3zm2-14v-.5c0-1.58-1.059-2.903-2.5-3.337v-1.163h-3v1.163c-1.441.434-2.5 1.757-2.5 3.337 0 1.528.917 2.882 2.336 3.45l2.214.886c.273.109.45.37.45.665 0 .276-.225.5-.5.5h-1c-.275 0-.5-.224-.5-.5v-.5h-3v.5c0 1.58 1.059 2.903 2.5 3.337v1.163h3v-1.163c1.441-.434 2.5-1.757 2.5-3.337 0-1.528-.917-2.882-2.336-3.45l-2.214-.886c-.273-.109-.45-.37-.45-.665 0-.276.225-.5.5-.5h1c.275 0 .5.224.5.5v.5z"/></svg>