<?xml version="1.0" encoding="UTF-8"?>
<svg xmlns="http://www.w3.org/2000/svg" id="Layer_1" data-name="Layer 1" viewBox="0 0 24 24">
  <path d="m23.478,16.131l.517-4.131H3v-7.167c0-1.011.822-1.833,1.833-1.833.574,0,1.122.274,1.467.733l.541.721-.456,2.613,1.071,1.67,5.777-4.333-1.071-1.67-2.96-.132-.503-.67c-.908-1.21-2.354-1.933-3.866-1.933C2.168,0,0,2.168,0,4.833v7.167l.548,4.13c.235,1.882,1.13,3.542,2.434,4.758l-.778,3.112h3.092l.367-1.468c.836.303,1.734.468,2.667.468h7.365c.924,0,1.815-.162,2.644-.46l.365,1.46h3.092l-.773-3.093c1.315-1.218,2.218-2.885,2.455-4.776Zm-15.147,3.869c-2.438,0-4.504-1.823-4.806-4.242l-.095-.758h17.166l-.095.759c-.302,2.418-2.368,4.241-4.806,4.241h-7.365Z"/>
</svg>
