<svg id="Layer_1" viewBox="0 0 24 24" xmlns="http://www.w3.org/2000/svg" data-name="Layer 1"><path d="m8 0 11 .012v13.988c0 1.657-1.343 3-3 3h-4.158l2.197-3.008c.467-.576.737-1.266.799-1.992h1.163v-9.012l-5 .012v5.019c-.806.039-1.601.329-2.241.89l-.759.647v-9.556zm4.266 10.399c-.636-.541-1.574-.531-2.199.022l-4.067 3.466v7.112h-3v-8.505l3-2.725v-4.02l-6 5.384v12.867h9v-6.5l3.458-4.736c.6-.706.514-1.765-.192-2.365zm-1.266 13.601h3v-3h-3zm5 0h3v-3h-3zm5-7h3v-3h-3zm0 6.999c1.654 0 3-1.346 3-2.999v-2h-3zm2.12-16.121c-.566-.565-1.318-.877-2.118-.877h-.004l.002 4.999h3v-2c0-.802-.313-1.555-.88-2.122z"/></svg>