<?xml version="1.0" encoding="UTF-8"?>
<svg xmlns="http://www.w3.org/2000/svg" id="Layer_1" data-name="Layer 1" viewBox="0 0 24 24">
  <path d="m21,19c0,1.103-.897,2-2,2s-2-.897-2-2h-3c0,1.103-.897,2-2,2s-2-.897-2-2h-3c0,1.103-.897,2-2,2s-2-.897-2-2H0c0,2.757,2.243,5,5,5,1.363,0,2.597-.551,3.5-1.438.903.887,2.137,1.438,3.5,1.438s2.597-.551,3.5-1.438c.903.887,2.137,1.438,3.5,1.438,2.757,0,5-2.243,5-5h-3Z"/>
  <path d="m4.123,17.005C1.917,17.005.123,15.211.123,13h3c0,.557.449,1.005,1,1.005s1-.448.877-1v-1.5C5.123,5.164,10.281.005,16.622.005c1.944,0,3.871.499,5.571,1.442l1.34.743-1.351,2.32-1.135-.266c-.454-.124-.914-.256-1.434-.239-1.945,0-3.401.527-4.328,1.568-1.617,1.815-1.301,4.717-1.297,4.746l.011.18c0,1.93,1.57,3.5,3.5,3.5s3.5-1.57,3.5-4h3c0,4.084-2.916,7-6.5,7-3.556,0-6.455-2.871-6.5-6.416-.062-.645-.278-4.043,1.74-6.639-2.74,1.412-4.618,4.271-4.741,7.561v1.5c.123,2.206-1.672,4-3.877,4Z"/>
</svg>
