<?xml version="1.0" encoding="UTF-8"?>
<svg xmlns="http://www.w3.org/2000/svg" id="Layer_1" data-name="Layer 1" viewBox="0 0 24 24" width="512" height="512"><path d="M12,17c-2.76,0-5-2.24-5-5s2.24-5,5-5,5,2.24,5,5-2.24,5-5,5Zm0-7c-1.1,0-2,.9-2,2s.9,2,2,2,2-.9,2-2-.9-2-2-2ZM13.5,0h-3V5h3V0Zm0,19h-3v5h3v-5ZM5,10.5H0v3H5v-3Zm19,0h-5v3h5v-3Zm-2.45-5.92l-2.12-2.12-3.54,3.54,2.12,2.12,3.54-3.54Zm-13.44,13.44l-2.12-2.12-3.54,3.54,2.12,2.12,3.54-3.54Zm0-12.02l-3.54-3.54-2.12,2.12,3.54,3.54,2.12-2.12Zm13.44,13.44l-3.54-3.54-2.12,2.12,3.54,3.54,2.12-2.12Z"/></svg>
