<svg id="Layer_1" viewBox="0 0 24 24" xmlns="http://www.w3.org/2000/svg" data-name="Layer 1"><path d="m20.871 13.46c-.339 2.062-1.383 3.887-2.871 5.227 0-2.187-1.498-3.693-3.5-3.687h-5c-2.003-.006-3.5 1.5-3.5 3.689-1.836-1.649-3-4.033-3-6.689 0-4.465 3.271-8.169 7.54-8.871.461-1.198 1.201-2.255 2.143-3.095-.227-.013-.452-.035-.683-.035-6.617.001-12 5.384-12 12.001s5.383 12 12 12 12-5.383 12-12c0-.23-.022-.455-.035-.683-.84.942-1.896 1.682-3.095 2.143zm-11.871 7.015v-1.975c0-.275.225-.5.5-.5h5c.275 0 .5.225.5.5v1.978c-.939.334-1.947.522-3 .522s-2.06-.191-3-.525zm1.031-13.867c.189 2.508 1.527 4.696 3.498 6.027-.464.227-.978.365-1.529.365-1.933 0-3.5-1.567-3.5-3.5 0-1.202.607-2.262 1.531-2.892zm7.969 5.392c3.309 0 6-2.691 6-6s-2.691-6-6-6-6 2.691-6 6 2.691 6 6 6zm-3-6c0-.267.046-.521.112-.767l3.655 3.655c-.246.066-.5.112-.767.112-1.654 0-3-1.346-3-3zm6 0c0 .267-.046.521-.112.767l-3.655-3.655c.246-.066.5-.112.767-.112 1.654 0 3 1.346 3 3z"/></svg>