<?xml version="1.0" encoding="UTF-8"?>
<svg xmlns="http://www.w3.org/2000/svg" id="Layer_1" data-name="Layer 1" viewBox="0 0 24 24">
  <path d="M12.971,20.972c-.191,1.175-1.215,2.028-2.436,2.028-.965,0-1.873-.413-2.506-1.136l1.009-1.006c.373,.406,.925,.646,1.497,.646,.604,0,1.031-.404,1.096-.795,.089-.55-.602-.873-.817-.959-.915-.371-1.751-.78-1.753-.78-.692-.484-1.027-1.231-.921-2.049,.111-.845,.674-1.534,1.471-1.796,1.324-.437,2.462,.317,2.863,.686l-.86,1.113c-.219-.166-.881-.602-1.611-.367-.412,.136-.517,.447-.515,.577,.005,.442,.335,.57,.433,.615,.282,.128,.806,.368,1.366,.595,1.461,.591,1.828,1.745,1.685,2.627Zm8.896,.429v-6.401h-1.6v8h3.733v-1.599c-1.105,0-2.133,0-2.133,0Zm-3.134,.202l.998,.998-1.131,1.131-.998-.998c-.334,.165-.705,.267-1.102,.267-1.381,0-2.5-1.119-2.5-2.5v-3c0-1.381,1.119-2.5,2.5-2.5s2.5,1.119,2.5,2.5v3c0,.398-.101,.769-.267,1.102Zm-1.333-4.102c0-.496-.404-.9-.9-.9s-.9,.404-.9,.9v3c0,.496,.404,.9,.9,.9s.9-.404,.9-.9v-3Zm-11.4-1.721v3.034c-1.086-.163-2.111-.436-3-.813v1.499c.114,.284,1.139,.931,3,1.27v3.038c-3.259-.489-6-1.944-6-4.309V4.5C0,1.546,4.276,0,8.5,0s8.5,1.546,8.5,4.5v5c0,2.954-4.276,4.5-8.5,4.5-1.97,0-3.946-.341-5.5-.999v1.499c.114,.284,1.139,.937,3,1.279ZM3.015,4.518c.199,.406,2.066,1.482,5.485,1.482,3.401,0,5.263-1.063,5.485-1.518-.199-.406-2.066-1.482-5.485-1.482-3.401,0-5.263,1.063-5.485,1.518Zm-.015,4.982c.157,.394,2.036,1.5,5.5,1.5s5.343-1.106,5.506-1.547l-.002-1.454c-1.554,.66-3.532,1.001-5.504,1.001s-3.946-.341-5.5-.999v1.499Z"/>
</svg>
