<svg id="Layer_1" viewBox="0 0 24 24" xmlns="http://www.w3.org/2000/svg" data-name="Layer 1"><path d="m15 13h-6c-.552 0-1-.448-1-1v-3c0-.552.448-1 1-1h.876l1.624-2.046c.231-.315.396-.451.705-.454.364 0 .663.238.763.606.012.043.027.141-.004.32l-.506 1.575h3.575l-.033 1.5-1 3.5zm8.993 6.106c-.03-.273-.153-.531-.346-.725l-3.495-3.495c.079-.5.065-1.008-.045-1.492 1.012-.816 1.948-1.951 1.88-3.375.069-1.441-.863-2.619-1.88-3.447.146-.642.123-1.327-.064-1.982-.363-1.268-1.377-2.28-2.646-2.645-.653-.187-1.336-.207-1.979-.062-.485-.443-.875-1.099-1.56-1.403-1.152-.639-2.586-.64-3.74 0-.681.305-1.072.951-1.559 1.402-.652-.147-1.317-.127-1.981.063-1.267.363-2.28 1.377-2.645 2.646-.187.653-.209 1.339-.063 1.982-1.011.815-1.948 2.01-1.88 3.431-.069 1.443.863 2.564 1.88 3.392-.111.489-.124 1.003-.041 1.509l-3.476 3.476c-.193.194-.316.451-.346.725-.073.667.409 1.269 1.076 1.342l2.221.246.245 2.212c.047.469.364.87.806 1.023.444.159.941.044 1.263-.286l4.283-4.283c.622.4 1.358.61 2.087.608.733.002 1.475-.212 2.1-.617l4.292 4.292c.323.33.82.445 1.263.286.442-.154.76-.554.806-1.023l.245-2.212 2.221-.246c.667-.074 1.149-.675 1.076-1.342zm-11.588-2.241c-.25.139-.583.137-.831 0-.154-.086-.274-.194-.357-.322-.592-.919-1.603-1.457-2.647-1.457-.396-.029-.762.177-1.162.054-.273-.079-.51-.315-.588-.587-.05-.174-.058-.34-.022-.492.288-1.266-.267-2.6-1.38-3.319-.255-.169-.433-.401-.426-.736-.008-.319.178-.617.424-.777 1.115-.719 1.67-2.053 1.382-3.318-.035-.154-.027-.32.021-.492.079-.273.315-.51.587-.588.174-.051.34-.057.493-.021 1.271.291 2.601-.269 3.318-1.382.083-.129.203-.237.356-.322.248-.139.582-.139.832 0 .153.085.272.193.357.325.72 1.111 2.057 1.665 3.319 1.38.155-.036.317-.028.49.021.273.079.51.315.588.587.05.174.058.34.022.492-.288 1.268.267 2.602 1.38 3.319.254.169.434.457.426.793.007.318-.178.56-.426.721-1.113.72-1.668 2.054-1.38 3.317.035.154.027.32-.021.493-.079.272-.315.509-.589.587-.171.051-.336.059-.489.022-1.269-.287-2.601.266-3.322 1.383-.082.128-.201.235-.355.321z"/></svg>