<?xml version="1.0" encoding="UTF-8"?>
<svg xmlns="http://www.w3.org/2000/svg" id="Layer_1" data-name="Layer 1" viewBox="0 0 24 24">
  <path d="m9.3,17.6v6.4h-1.6v-6.4h-1.9v-1.6h5.5v1.6h-2Zm7.153.027l1.447,6.373h-1.609l-.325-1.4h-2.829l-.33,1.4h-1.607l1.475-6.418c.126-.58.8-1.581,1.883-1.581s1.748.959,1.894,1.627Zm-.859,3.373l-.701-3.019c-.047-.212-.141-.381-.334-.381s-.292.193-.319.321l-.726,3.079h2.081Zm6.594-5l-1.088,2.182-1.088-2.182h-1.812l1.994,4-1.994,4h1.812l1.088-2.182,1.088,2.182h1.812l-1.994-4,1.994-4h-1.812Zm-3.188-11H5v4h14v-4Zm1.5-5H3.5C1.57,0,0,1.57,0,3.5v20.5h6v-3h-3V3.5c0-.276.225-.5.5-.5h17c.275,0,.5.224.5.5v10.5h3V3.5c0-1.93-1.57-3.5-3.5-3.5ZM5,14h3v-3h-3v3Zm8,0v-3h-3v3h3Zm6,0v-3h-4v3h4Z"/>
</svg>
