<?xml version="1.0" encoding="UTF-8"?>
<svg xmlns="http://www.w3.org/2000/svg" id="Layer_1" data-name="Layer 1" viewBox="0 0 24 24">
  <path d="m22.5,6c0-.28-.033-.552-.083-.818l1.529-.883-1.5-2.598-1.542.89c-.413-.352-.884-.629-1.404-.815V0h-3v1.776c-.521.186-.992.463-1.404.815l-1.542-.89-1.5,2.598,1.529.883c-.049.266-.083.538-.083.818s.033.552.083.818l-1.529.883,1.5,2.598,1.542-.89c.413.352.884.629,1.404.815v1.776h3v-1.776c.521-.186.992-.463,1.404-.815l1.542.89,1.5-2.598-1.529-.883c.049-.266.083-.538.083-.819Zm-4.5,1.5c-.827,0-1.5-.673-1.5-1.5s.673-1.5,1.5-1.5,1.5.673,1.5,1.5-.673,1.5-1.5,1.5Zm-2.879,8.5l1-1-4-4h-3l1-1-4-4H0v18h18.121l4-4-4-4h-3ZM3,9h1.879l1,1-1,1h-1.879v-2Zm0,5h7.879l1,1-1,1H3v-2Zm13.879,7H3v-2h13.879l1,1-1,1Z"/>
</svg>
