<?xml version="1.0" encoding="UTF-8"?>
<svg xmlns="http://www.w3.org/2000/svg" id="Layer_1" data-name="Layer 1" viewBox="0 0 24 24">
  <path d="M23.703,12.598l-3.703,3.389v-2.487h-3v-3h3v-2.619l3.703,3.389c.395,.355,.395,.974,0,1.328ZM9.5,5c1.381,0,2.5-1.119,2.5-2.5s-1.119-2.5-2.5-2.5-2.5,1.119-2.5,2.5,1.119,2.5,2.5,2.5Zm-4.93,12.572l-1.57,6.428h3.296l.869-4.223-2.245-1.87c-.126-.105-.235-.221-.35-.335Zm9.098-6.559l2.27,1.815-1.875,2.343-2.73-2.185-.923-1.662-.987,3.825,2.579,2.148v6.703h-3v-5.297l-2.8-2.333c-1.024-.853-1.472-2.188-1.168-3.486l.756-3.232-1.533,.511-.8,3.201-2.91-.728L1.745,7.837l4.439-1.48c1.028-.377,2.233-.375,3.316-.357,.944,.133,1.79,.732,2.26,1.579l1.908,3.434Z"/>
</svg>
