<?xml version="1.0" encoding="UTF-8"?>
<svg xmlns="http://www.w3.org/2000/svg" id="Layer_1" data-name="Layer 1" viewBox="0 0 24 24">
  <path d="M2,12c0-2.761,2.239-5,5-5H15v3H7c-1.105,0-2,.895-2,2s.895,2,2,2h1.276c-.168,.471-.276,.971-.276,1.5s.108,1.029,.276,1.5h-1.276c-2.761,0-5-2.239-5-5Zm17.5,2h-2.776c.168,.471,.276,.971,.276,1.5s-.108,1.029-.276,1.5h2.776c.828,0,1.5,.672,1.5,1.5s-.672,1.5-1.5,1.5H6.724c.168,.471,.276,.971,.276,1.5s-.108,1.029-.276,1.5h12.776c2.485,0,4.5-2.015,4.5-4.5s-2.015-4.5-4.5-4.5ZM2.5,19c-1.381,0-2.5,1.119-2.5,2.5s1.119,2.5,2.5,2.5,2.5-1.119,2.5-2.5-1.119-2.5-2.5-2.5Zm7.5-3.5c0,1.381,1.119,2.5,2.5,2.5s2.5-1.119,2.5-2.5-1.119-2.5-2.5-2.5-2.5,1.119-2.5,2.5ZM20,5l4-2.5L20,0h-3V10h3V5Z"/>
</svg>
