<svg id="Layer_1" viewBox="0 0 24 24" xmlns="http://www.w3.org/2000/svg" data-name="Layer 1"><path d="m1 2.5c0-1.381 1.119-2.5 2.5-2.5s2.5 1.119 2.5 2.5-1.119 2.5-2.5 2.5-2.5-1.119-2.5-2.5zm-1 15.617v5.883h3v-3.972l-2.377-1.46c-.22-.135-.426-.288-.623-.451zm10 5.883h3v-9h-3zm14-20.5v20.5h-3v-2h-5v-1.5c0-2.96 1.323-5.258 2.522-6.69-3.029-2.002-4.657-4.762-5.522-7.172v6.362h-6.331l-1.669-2.67v5.026l3 1.793v6.851h-3v-5.149l-3.555-2.125c-.897-.55-1.445-1.53-1.445-2.566v-5.661c0-1.378 1.121-2.5 2.5-2.5h1.392c1.213 0 2.322.614 2.968 1.644l1.472 2.356h1.669v-6.499c0-1.93 1.57-3.5 3.5-3.5h7c1.93 0 3.5 1.57 3.5 3.5zm-3 8.299v-8.299c0-.276-.225-.5-.5-.5h-5.355c.351 2.254 1.589 6.469 5.855 8.799zm0 7.201v-3.461c-.655.715-1.491 1.876-1.838 3.461z"/></svg>