<?xml version="1.0" encoding="UTF-8"?>
<svg xmlns="http://www.w3.org/2000/svg" id="Layer_1" data-name="Layer 1" viewBox="0 0 24 24">
  <path d="m24,1v11.582l-6.662,7.289-.038-.035c-.981,1.078-2.061,1.754-2.274,1.881-.321.192-.675.283-1.023.283-.681,0-1.345-.348-1.719-.975-.565-.947-.258-2.172.687-2.739.848-.516,2.03-1.635,2.03-2.286v-.5c0-1.379-1.121-2.5-2.5-2.5s-2.5,1.121-2.5,2.5v7c0,.828-.672,1.5-1.5,1.5s-1.5-.672-1.5-1.5v-7c0-1.354.495-2.594,1.309-3.553l-1.152.595-2.302,4.626c-.262.527-.793.832-1.344.832-.225,0-.452-.05-.667-.157-.742-.369-1.044-1.27-.675-2.011l2.673-5.374,6.157-3.458v3.213c.478-.136.979-.213,1.5-.213,2.781,0,5.081,2.078,5.444,4.761l3.056-3.343v-7.418h-10v3l-8.999,2.914c-.781.277-1.638-.132-1.915-.913-.277-.781.132-1.638.913-1.915l9.439-3.086H3.5c-.828,0-1.5-.672-1.5-1.5s.672-1.5,1.5-1.5h20.5Z"/>
</svg>
