<svg id="Layer_1" viewBox="0 0 24 24" xmlns="http://www.w3.org/2000/svg" data-name="Layer 1"><path d="m24 8v-3h-2.051c-.221-1.527-1.423-2.728-2.949-2.949v-2.051h-3v2h-2.5v-2h-3v2h-2.5v-2h-3v2.051c-1.527.221-2.728 1.423-2.949 2.949h-2.051v3h2v2.5h-2v3h2v2.5h-2v3h2v3h3v2h3v-2h2.5v2h3v-2h2.5v2h3v-2h3v-3h2v-3h-2v-2.5h2v-3h-2v-2.5zm-5 11h-14v-13.5c0-.275.224-.5.5-.5h13c.276 0 .5.225.5.5zm-8.75-13c.263 0 .511.048.75.118v11.699c-.313.114-.647.183-1 .183-1.657 0-3-1.343-3-3 0-.278.05-.541.12-.796-.676-.501-1.12-1.298-1.12-2.204 0-1.114.665-2.068 1.617-2.5-.069-.24-.117-.488-.117-.75 0-1.519 1.231-2.75 2.75-2.75zm7.75 6c0 .906-.444 1.703-1.12 2.204.07.255.12.519.12.796 0 1.657-1.343 3-3 3-.353 0-.687-.069-1-.183v-11.699c.239-.07.487-.118.75-.118 1.519 0 2.75 1.231 2.75 2.75 0 .262-.049.51-.117.75.952.433 1.617 1.386 1.617 2.5z"/></svg>