<?xml version="1.0" encoding="UTF-8"?>
<svg xmlns="http://www.w3.org/2000/svg" id="Layer_1" data-name="Layer 1" viewBox="0 0 24 24">
  <path d="m16.086,11h-3.086v-3.086L20.275.639c.852-.852,2.234-.852,3.086,0s.852,2.234,0,3.086l-7.275,7.275Zm5.616-2.787l-2.788,2.787h1.586c.275,0,.5.224.5.5v8.5H3v-8.5c0-.276.225-.5.5-.5h7.5v-3H3.5c-1.93,0-3.5,1.57-3.5,3.5v11.5h24v-11.5c0-1.508-.959-2.796-2.298-3.287ZM5,15.5c0,.828.672,1.5,1.5,1.5s1.5-.672,1.5-1.5-.672-1.5-1.5-1.5-1.5.672-1.5,1.5Zm5,0c0,.828.672,1.5,1.5,1.5s1.5-.672,1.5-1.5-.672-1.5-1.5-1.5-1.5.672-1.5,1.5Z"/>
</svg>
