<?xml version="1.0" encoding="UTF-8"?>
<svg xmlns="http://www.w3.org/2000/svg" id="Layer_1" data-name="Layer 1" viewBox="0 0 24 24">
  <path d="m24,9c0-2.757-2.243-5-5-5-1.361,0-2.598.547-3.5,1.433-.506-.497-1.117-.886-1.796-1.133.344-1.484,1.008-2.574,1.057-2.654h0s0,0,0,0c.002-.003.003-.004.003-.005l-1.236-.789L12.239.021c-.057.089-1.146,1.806-1.571,4.159-.828.229-1.571.667-2.168,1.253-.903-.886-2.139-1.433-3.5-1.433C2.243,4,0,6.243,0,9c0,3.077,2.636,15,8.5,15,1.359,0,2.63-.565,3.551-1.492.983.92,2.127,1.492,3.449,1.492,0,0,.002,0,.005,0,6.182-.007,8.495-12.456,8.495-15Zm-8.5,12c-.597,0-1.18-.384-1.733-1h-3.558c-.354.599-.993,1-1.709,1-2.765,0-5.5-8.823-5.5-12,0-1.103.897-2,2-2s2,.897,2,2c0,1.094.429,4.02,1.409,7h3.163c-.957-2.519-1.572-5.375-1.572-7,0-1.103.897-2,2-2s2,.897,2,2h3c0-1.103.897-2,2-2s2,.897,2,2c0,3.361-2.615,12-5.5,12Z"/>
</svg>
