<?xml version="1.0" encoding="UTF-8"?>
<svg xmlns="http://www.w3.org/2000/svg" id="Layer_1" data-name="Layer 1" viewBox="0 0 24 24">
  <path d="m22,4c-.114,0-.225.01-.333.028-.817-2.343-3.049-4.028-5.667-4.028s-4.849,1.685-5.667,4.028c-.108-.018-.22-.028-.333-.028-1.105,0-2,.895-2,2s.895,2,2,2c.114,0,.225-.01.333-.028.201.576.487,1.111.843,1.592-4.743,1.526-6.794,5.86-7.437,9.404-.467-.709-.739-1.557-.739-2.468V7c0-2.206,1.794-4,4-4V0C3.14,0,0,3.14,0,7v9.5c0,4.136,3.364,7.5,7.5,7.5h14.5v-3h-2v-10.532c.749-.671,1.329-1.528,1.667-2.496.108.018.22.028.333.028,1.105,0,2-.895,2-2s-.895-2-2-2Zm-6-1c1.654,0,3,1.346,3,3s-1.346,3-3,3-3-1.346-3-3,1.346-3,3-3Zm1,18h-2v-2c0-.551.448-1,1-1s1,.449,1,1v2Zm0-9v3.127c-.32-.083-.655-.127-1-.127-2.206,0-4,1.794-4,4v2h-4.5c-.333,0-.658-.037-.97-.106.166-2.114,1.262-8.894,8.47-8.894h2Z"/>
</svg>
