<?xml version="1.0" encoding="UTF-8"?>
<svg xmlns="http://www.w3.org/2000/svg" id="Layer_1" data-name="Layer 1" viewBox="0 0 24 24" width="512" height="512"><path d="m21,18c-.221,0-.435.027-.642.073l-4.525-5.128c.1-.299.167-.613.167-.945s-.067-.646-.167-.945l4.525-5.128c.207.045.421.073.642.073,1.657,0,3-1.343,3-3s-1.343-3-3-3c-1.304,0-2.403.837-2.816,2H5.816c-.413-1.162-1.512-2-2.816-2C1.343,0,0,1.343,0,3c0,1.304.837,2.403,2,2.816v12.368c-1.162.413-2,1.512-2,2.816,0,1.657,1.343,3,3,3,1.304,0,2.403-.837,2.816-2h12.367c.413,1.163,1.512,2,2.816,2,1.657,0,3-1.343,3-3s-1.343-3-3-3Zm-16,.778V5.222c.078-.07.152-.144.222-.222h11.954l-3.582,4.06c-.192-.039-.39-.06-.594-.06-1.657,0-3,1.343-3,3s1.343,3,3,3c.203,0,.402-.021.594-.06l3.582,4.06H5.221c-.07-.078-.144-.151-.222-.222Z"/></svg>
