<svg id="Layer_1" viewBox="0 0 24 24" xmlns="http://www.w3.org/2000/svg" data-name="Layer 1"><path d="m18 0c-3.314 0-6 2.686-6 6s2.686 6 6 6 6-2.686 6-6-2.686-6-6-6zm.752 8.44-.004.004c-.744.744-2.058.746-2.823-.019l-2.182-2.268 1.387-1.441 2.216 2.301 3.614-3.703 1.398 1.43-3.607 3.696zm-5.751 3.783c.794.638 1.711 1.128 2.711 1.427l-.711.864v9.486l-8.008-4.795v-4.681l-6.993-8.492v-2.535c0-1.929 1.568-3.497 3.496-3.497h9.244c-.93.815-1.672 1.814-2.146 2.976l-7.098.024c-.273 0-.496.223-.496.497v1.459l6.993 8.492v4.059l2.007 1.204v-5.272l1-1.214z"/></svg>