<svg id="Layer_1" viewBox="0 0 24 24" xmlns="http://www.w3.org/2000/svg" data-name="Layer 1"><path d="m23.998 12.477c0 .008.002.015.002.023 0 2.483-1.172 4.736-3 6.211v-6.234c0-2.47-1.955-4.395-4.548-4.478l-1.082-.034-.308-1.038c-.677-2.276-2.767-3.927-4.972-3.927-2.902 0-5.091 2.149-5.091 5 0 1.138.134 1.729.246 2.025l.479 1.258c-1.318.56-2.805 1.473-2.726 3.104 0 0-.012 5.151 0 5.297-1.825-1.067-3.063-3.099-2.987-5.297h-.011c0-1.773.795-3.408 2.133-4.495-.089-.55-.133-1.178-.133-1.892 0-4.486 3.554-8 8.091-8 3.225 0 6.177 2.051 7.493 5.097 3.723.58 6.416 3.596 6.416 7.38zm-12.791 8.098c-.581.19-1.371.411-2.325.424-.843.054-2.373-.328-2.938-.506l-.864 2.873c.317.133 2.811.735 3.84.633 1.363-.019 2.438-.316 3.222-.573.817-.268 1.826-.526 3.133-.388.806.083 1.986.489 2.42.693l1.277-2.715c-.694-.326-2.205-.841-3.389-.963-1.874-.192-3.322.177-4.376.521zm-3.406-1.629c1.439.201 3.445-.154 4.422-.521.831-.27 1.856-.53 3.191-.39.747.076 2.188.464 2.681.606l.836-2.881c-.207-.061-2.061-.592-3.212-.71-1.901-.193-3.359.177-4.42.521-.631.204-1.405.414-2.369.427-1.049.064-2.007-.316-2.972-.649l-.891 2.865c.931.297 1.513.602 2.733.731z"/></svg>