<svg id="Layer_1" viewBox="0 0 24 24" xmlns="http://www.w3.org/2000/svg" data-name="Layer 1"><path d="m16 17.002c0 1.257-.592 2.365-1.5 3.098v3.899l-2.5-2.499-2.5 2.499v-3.899c-.908-.733-1.5-1.841-1.5-3.098 0-2.208 1.791-3.999 4-3.999s4 1.79 4 3.999zm8-5.157v10.315c-2.408-.328-2.934-.471-7.743-.932.771-.776 1.326-1.763 1.582-2.865 1.198.12 2.306.25 3.161.357v-3.434c-.855.107-1.963.237-3.161.357-.291-1.19-.935-2.287-1.839-3.102v-3.015l-1.921.979c-.641.327-1.376.491-2.111.491s-1.47-.164-2.112-.491l-1.856-.946v2.982c-.904.815-1.548 1.912-1.839 3.102-1.198-.12-2.306-.25-3.161-.357v3.434c.855-.107 1.963-.237 3.161-.357.256 1.102.811 2.089 1.582 2.865-4.815.462-5.329.603-7.743.932v-10.315c2.025.282 1.786.28 5 .656v-4.471l-4.969-2.533 9.825-5.007c1.28-.652 2.938-.654 4.221-.002l9.828 5.009-4.905 2.5v4.504c3.213-.376 2.976-.374 5-.656zm-6.7-6.348-4.584-2.337c-.426-.216-1.07-.217-1.498 0l-4.583 2.336 4.583 2.336c.427.218 1.07.218 1.497 0l4.584-2.336z"/></svg>