<?xml version="1.0" encoding="UTF-8"?>
<svg xmlns="http://www.w3.org/2000/svg" id="Layer_1" data-name="Layer 1" viewBox="0 0 24 24">
  <path d="m11.5,11v9h-3v-4.805l-2.5,3.759v3.124l-2.6,1.95-1.8-2.4,1.4-1.05v-2.53l3.6-5.413c-1.13,1.111-2.259,2.089-2.884,2.26-1.564.43-3.18-.49-3.61-2.055-.429-1.564.49-3.18,2.055-3.61.588-.161,1.84-.235,3.175-.265l-3.335-2.423v-2.516L.329,1.938,2.671.062l2.329,2.911v2.039l3.5,2.543v-.056c-.607-.456-1-1.182-1-2,0-1.071.674-1.985,1.621-2.341l.879-3.159.879,3.159c.947.356,1.621,1.269,1.621,2.341,0,.818-.393,1.544-1,2v.056l3.5-2.543v-2.039L17.329.062l2.343,1.875-1.671,2.089v2.516l-3.363,2.443c1.552.035,2.897.109,3.424.254.927.255,1.615.93,1.939,1.761h-8.5Zm12.5,2v11h-11v-11h11Zm-3,3h-2v2h2v-2Zm-5,0v2h2v-2h-2Zm0,5h2v-2h-2v2Zm5,0v-2h-2v2h2Z"/>
</svg>
