<?xml version="1.0" encoding="UTF-8"?>
<svg xmlns="http://www.w3.org/2000/svg" id="Layer_1" data-name="Layer 1" viewBox="0 0 24 24" width="512" height="512"><path d="m12,0C5.383,0,0,5.383,0,12s5.383,12,12,12,12-5.383,12-12S18.617,0,12,0Zm0,21c-4.962,0-9-4.037-9-9S7.038,3,12,3s9,4.038,9,9-4.038,9-9,9Zm5.004-10l-.006,2.463c.056,1.379-.589,2.742-1.771,3.677-.917.726-2.059,1.107-3.224,1.107-.479,0-.96-.064-1.433-.196-2.101-.584-3.57-2.504-3.57-4.668v-2.717c0-1.294.547-2.566,1.501-3.491.991-.961,2.299-1.477,3.672-1.422,1.598.049,3.091.835,3.994,2.102l-2.442,1.741c-.363-.508-.978-.824-1.646-.845-.555-.028-1.088.188-1.49.578-.375.363-.589.85-.589,1.337v2.717c0,.822.565,1.554,1.375,1.778.702.196,1.447.055,1.991-.375.18-.142.445-.404.568-.786h-1.934v-3h5.004Z"/></svg>
