<?xml version="1.0" encoding="UTF-8"?>
<svg xmlns="http://www.w3.org/2000/svg" id="Layer_1" data-name="Layer 1" viewBox="0 0 24 24" width="512" height="512"><path d="M11.993,16c-3,0-6,1.001-6,1,.615-2.28,2.671-4.996,6.007-5,3.336,.004,5.385,2.72,6,5,0,.001-3.007-1-6.007-1Zm12.007-4C24,5.383,18.617,0,12,0S0,5.383,0,12s5.383,12,12,12,12-5.383,12-12Zm-3,0c0,4.962-4.038,9-9,9S3,16.962,3,12,7.038,3,12,3s9,4.038,9,9Zm-2.11-3.538s-2.236,.033-3.137-.401-2.269-2.203-2.269-2.203c-.708,1.47-.835,4.038,.967,4.906s3.731-.832,4.439-2.302Zm-9.342,2.302c1.802-.868,1.675-3.436,.967-4.906,0,0-1.368,1.769-2.269,2.203s-3.137,.401-3.137,.401c.708,1.47,2.637,3.17,4.439,2.302Z"/></svg>
