<?xml version="1.0" encoding="UTF-8"?>
<svg xmlns="http://www.w3.org/2000/svg" id="Layer_1" data-name="Layer 1" viewBox="0 0 24 24">
  <path d="m20.143,3.857c0-2.858-2.571-3.857-3.857-3.857-.771,0-1.286.384-1.286,1.155v5.724l-1.5,1.5-2.439-2.439-2.121,2.121,2.439,2.439-1.379,1.379-2.939-2.939-2.121,2.121,2.939,2.939-1.379,1.379-4.049-4.048c-.584.807-1.055,1.743-1.416,2.826-.723,2.166-1.035,4.903-1.035,8.344v1.5h1.5c3.44,0,6.177-.313,8.343-1.035,1.084-.362,2.019-.832,2.827-1.417l-4.049-4.049,1.378-1.378,2.939,2.939,2.121-2.121-2.939-2.939,1.379-1.379,2.439,2.439,2.121-2.121-2.439-2.439,1.5-1.5h5.724c.771,0,1.155-.515,1.155-1.286,0-1.286-.999-3.857-3.857-3.857ZM3,21c.047-1.725.193-3.178.455-4.424l3.968,3.968c-1.245.262-2.699.408-4.423.455Z"/>
</svg>
