<?xml version="1.0" encoding="UTF-8"?>
<svg xmlns="http://www.w3.org/2000/svg" id="Layer_1" data-name="Layer 1" viewBox="0 0 24 24" width="512" height="512"><path d="m20.5,1h-8.121l-3,3h-2.379v-2h-3v2h-.5c-1.93,0-3.5,1.57-3.5,3.5v16.5h24V4.5c0-1.93-1.57-3.5-3.5-3.5ZM3.5,7h7.121l3-3h6.879c.276,0,.5.225.5.5v7.5h-3.877c-.802-2.047-2.796-3.5-5.123-3.5s-4.322,1.453-5.123,3.5h-3.877v-4.5c0-.275.224-.5.5-.5Zm11,7c0,1.379-1.122,2.5-2.5,2.5s-2.5-1.121-2.5-2.5,1.122-2.5,2.5-2.5,2.5,1.121,2.5,2.5Zm-11.5,7v-6h3.591c.472,2.557,2.717,4.5,5.409,4.5s4.937-1.943,5.409-4.5h3.591v6H3Z"/></svg>
