<?xml version="1.0" encoding="UTF-8"?>
<svg xmlns="http://www.w3.org/2000/svg" id="Layer_1" data-name="Layer 1" viewBox="0 0 24 24">
  <path d="m7.5,21h3.5v3h-3.5c-1.93,0-3.5-1.57-3.5-3.5v-1.5H1l3.793-3.707c.391-.391,1.024-.391,1.414,0l3.793,3.707h-3v1.5c0,.276.225.5.5.5ZM17,3.5v1.5h-3l3.793,3.707c.391.391,1.024.391,1.414,0l3.793-3.707h-3v-1.5c0-1.93-1.57-3.5-3.5-3.5h-3.5v3h3.5c.275,0,.5.224.5.5Zm-6,2c0,1.832-.913,3.536-2.442,4.557-.344.23-.558.678-.558,1.169v2.774H3v-2.774c0-.491-.214-.939-.559-1.169C.526,8.777-.374,6.483.147,4.214.609,2.208,2.203.612,4.21.149c1.672-.388,3.39-.006,4.712,1.045,1.32,1.05,2.078,2.62,2.078,4.306Zm-3,0c0-.767-.345-1.48-.945-1.958-.449-.357-.985-.542-1.552-.542-.203,0-.41.024-.618.072-.882.204-1.61.933-1.813,1.815-.292,1.267.345,2.213,1.037,2.676.593.396,1.066.938,1.392,1.568.325-.63.799-1.172,1.392-1.568.694-.463,1.108-1.234,1.108-2.062Zm16,10c0,1.832-.913,3.536-2.442,4.557-.344.23-.558.678-.558,1.169v2.774h-5v-2.774c0-.491-.214-.939-.559-1.169-1.915-1.28-2.815-3.574-2.294-5.843.462-2.007,2.056-3.603,4.062-4.065,1.67-.387,3.39-.006,4.712,1.045,1.32,1.05,2.078,2.62,2.078,4.306Zm-3,0c0-.767-.345-1.48-.945-1.958-.449-.357-.985-.542-1.552-.542-.203,0-.41.024-.618.072-.882.204-1.61.933-1.813,1.815-.292,1.267.345,2.213,1.037,2.676.593.396,1.066.938,1.392,1.568.325-.63.799-1.172,1.392-1.568.694-.463,1.108-1.234,1.108-2.062Z"/>
</svg>
