<?xml version="1.0" encoding="UTF-8"?>
<svg xmlns="http://www.w3.org/2000/svg" id="Layer_1" data-name="Layer 1" viewBox="0 0 24 24" width="512" height="512"><path d="m18.507,8.956c-.788-2.854-3.406-4.956-6.507-4.956s-5.72,2.102-6.507,4.956c-3.472,1.045-5.493,2.883-5.493,5.08,0,3.916,6.037,5.965,12,5.965s12-2.049,12-5.965c0-2.197-2.021-4.034-5.493-5.08Zm-6.507-1.956c1.973,0,3.595,1.532,3.74,3.469-.591.23-1.746.531-3.74.531-2.013,0-3.171-.307-3.74-.522.14-1.941,1.764-3.478,3.74-3.478Zm0,10c-5.583,0-9-1.92-9-2.965,0-.462.786-1.242,2.441-1.89l.248.248c.377.377,1.945,1.606,6.311,1.606s5.934-1.229,6.311-1.606l.248-.248c1.655.648,2.441,1.428,2.441,1.89,0,1.045-3.417,2.965-9,2.965Z"/></svg>
