<svg id="Layer_1" viewBox="0 0 24 24" xmlns="http://www.w3.org/2000/svg" data-name="Layer 1"><path d="m21.419 14.929-1.511 1.522c-.692.476-1.7.301-2.166-.514-.343-.599-.161-1.367.327-1.855l5.491-5.491c.586-.586.586-1.535 0-2.121s-1.535-.586-2.121 0l-3.473 3.474-5.966-9.944-5.977 9.962-3.492-3.492c-.586-.586-1.535-.586-2.121 0s-.586 1.535 0 2.121l5.544 5.544c.582.558.582 1.564 0 2.122-.52.518-1.33.577-1.898.188l-1.489-1.501c-.58-.585-1.523-.594-2.113-.019s-.605 1.519-.035 2.112l4.999 5.046c1.113 1.113 2.585 1.775 4.083 1.916h4.101c.003-.007.003-.007.006-.014l-2.215-2.215c-.48-.48-1.126-.719-1.801-.792-.782-.085-1.456-.419-2.048-1.011l-.706-.714c.448-.214.867-.506 1.237-.876.374-.374.651-.804.865-1.257l6.879 6.879h4.242l-14-13.999h11.849l-4.51 4.51 6.356 6.356 3.812-3.844c.569-.594.554-1.537-.036-2.112-.588-.574-1.532-.567-2.112.019zm-8.419-5.929h-2v-2h2zm0-3h-2v-3h2z"/></svg>