<?xml version="1.0" encoding="UTF-8"?>
<svg xmlns="http://www.w3.org/2000/svg" id="Layer_1" data-name="Layer 1" viewBox="0 0 24 24" width="512" height="512"><path d="M23.85,15.72l-3.51,3.51c-.49,.49-1.14,.76-1.84,.76s-1.35-.27-1.84-.76l-3.48-3.48,2.12-2.12,1.7,1.7V7.5c0-.28-.22-.5-.5-.5h-4l-3-3h7c1.93,0,3.5,1.57,3.5,3.5v7.84l1.73-1.73,2.12,2.12Zm-16.35,1.28c-.28,0-.5-.22-.5-.5v-7.84l1.7,1.7,2.12-2.12-3.48-3.48c-.98-.98-2.7-.98-3.68,0L.15,8.28l2.12,2.12,1.73-1.73v7.84c0,1.93,1.57,3.5,3.5,3.5h7l-3-3H7.5Z"/></svg>
