<svg id="Layer_1" viewBox="0 0 24 24" xmlns="http://www.w3.org/2000/svg" data-name="Layer 1"><path d="m13.805 18.755c-.591.157-1.198.242-1.805.242-1.792 0-3.585-.682-4.95-2.047-1.828-1.827-2.425-4.421-1.805-6.755l1.82 1.82c-.11.916.239 1.851.716 2.653l2.269.003.688 2.144c.423.11.856.163 1.289.16l1.779 1.779zm10.195-6.755c0 6.617-5.383 12-12 12s-12-5.383-12-12 5.383-12 12-12 12 5.383 12 12zm-12-9c-1.941 0-3.735.624-5.206 1.672l1.435 1.435c2.708-1.734 6.356-1.422 8.722.943 2.365 2.365 2.677 6.014.943 8.722l1.435 1.435c1.049-1.472 1.672-3.266 1.672-5.206 0-4.962-4.038-9-9-9zm3.156 7.961-.509 1.565 1.768 1.768c.335-.646.524-1.342.559-2.052l-1.819-1.282.664-2.149c-.096-.115-.176-.24-.284-.348-.505-.505-1.093-.873-1.719-1.116l-1.817 1.32-1.817-1.32c-.165.064-.32.154-.478.236l1.593 1.593.701-.509 3.156 2.293zm-3.156 10.039c1.941 0 3.735-.624 5.206-1.672l-12.534-12.534c-1.049 1.472-1.672 3.266-1.672 5.206 0 4.962 4.038 9 9 9z"/></svg>