<?xml version="1.0" encoding="UTF-8"?>
<svg xmlns="http://www.w3.org/2000/svg" id="Layer_1" data-name="Layer 1" viewBox="0 0 24 24">
  <path d="M21,11h3v8H13.5v2h4v3H6.5v-3h4v-2H0V5c0-1.654,1.346-3,3-3H12v3H3v11H21v-5Zm-12.5,0c1.105,0,2-.895,2-2s-.895-2-2-2-2,.895-2,2,.895,2,2,2Zm-3.5,3h7c0-1.105-.895-2-2-2h-3c-1.105,0-2,.895-2,2ZM24,2v7h-5.872l-2.454,1.69c-.186,.119-.387,.173-.583,.173-.566,0-1.089-.45-1.089-1.088l-.002-7.772c0-1.1,.899-2,1.999-2.001l6-.002h0c1.104,0,2,.895,2,2Zm-3,1h-4s0,2.999,0,2.999h3.999V3Z"/>
</svg>
