<?xml version="1.0" encoding="UTF-8"?>
<svg xmlns="http://www.w3.org/2000/svg" id="Layer_1" data-name="Layer 1" viewBox="0 0 24 24" width="512" height="512"><path d="m12,0C5.373,0,0,5.373,0,12s5.373,12,12,12,12-5.373,12-12c0-1.683-.349-3.283-.975-4.737-.64.814-1.54,1.412-2.587,1.635.357.969.562,2.01.562,3.102,0,4.963-4.037,9-9,9S3,16.963,3,12,7.037,3,12,3c1.091,0,2.133.205,3.102.562.223-1.048.821-1.948,1.635-2.587-1.454-.625-3.054-.975-4.737-.975h0Zm7.5,2c-1.381,0-2.5,1.119-2.5,2.5s1.119,2.5,2.5,2.5,2.5-1.119,2.5-2.5-1.119-2.5-2.5-2.5h0Zm-7.5,3c-.424,0-.838.044-1.241.116.761.729,1.241,1.749,1.241,2.884,2.206,0,4,1.794,4,4s-1.794,4-4,4-4-1.794-4-4c-1.135,0-2.155-.48-2.884-1.241-.072.403-.116.817-.116,1.241,0,3.866,3.134,7,7,7s7-3.134,7-7-3.134-7-7-7h0Zm-4,1c-1.105,0-2,.895-2,2s.895,2,2,2,2-.895,2-2-.895-2-2-2h0Zm4,4.5c-.828,0-1.5.672-1.5,1.5s.672,1.5,1.5,1.5,1.5-.672,1.5-1.5-.672-1.5-1.5-1.5h0Z"/></svg>
