<svg id="Layer_1" viewBox="0 0 24 24" xmlns="http://www.w3.org/2000/svg" data-name="Layer 1"><path d="m12.986 10c0 1.657-1.343 3-3 3s-3-1.343-3-3 1.343-3 3-3 3 1.343 3 3zm11.014 5v6c0 1.654-1.346 3-3 3h-5c-1.654 0-3-1.346-3-3v-6h1v-1.5c0-2.481 2.019-4.5 4.5-4.5s4.5 2.019 4.5 4.5v1.5zm-7 0h3v-1.5c0-.827-.673-1.5-1.5-1.5s-1.5.673-1.5 1.5zm3 3h-3v3h3zm-9 2.755-.008-.007.006-.006c-.649-.631-5.193-5.051-5.948-5.786-1.322-1.322-2.05-3.08-2.05-4.949s.728-3.628 2.05-4.95 3.08-2.05 4.95-2.05 3.628.728 4.95 2.05c.662.662 1.174 1.432 1.522 2.272.639-.211 1.32-.328 2.028-.328.363 0 .716.037 1.063.095-.461-1.523-1.29-2.958-2.491-4.159-1.889-1.89-4.4-2.93-7.072-2.93s-5.183 1.04-7.071 2.929c-3.899 3.898-3.899 10.243.015 14.156 1.445 1.391 5.702 5.564 7.057 6.902l1.319-1.29c-.195-.534-.319-1.103-.319-1.704v-.245z"/></svg>