<?xml version="1.0" encoding="UTF-8"?>
<svg xmlns="http://www.w3.org/2000/svg" id="Layer_1" data-name="Layer 1" viewBox="0 0 24 24" width="512" height="512"><path d="M.993,8.996L-.004-.004,8.996,.993v.806c0,3.229-3.968,7.197-7.197,7.197H.993Zm4.007,.004c0,1.631,1,4,3,4s3-2.369,3-4c0,0-2,1-3,1s-3-1-3-1Zm8,0c0,1.631,1,4,3,4s3-2.369,3-4c0,0-2,1-3,1s-3-1-3-1Zm8,3c-.813,0-1.602,.336-2.163,.922l2.163,2.078h-6.025c-.116-.57-.62-1-1.225-1h-3.75v5h3.75c.605,0,1.109-.43,1.225-1h6.025c1.654,0,3-1.346,3-3s-1.346-3-3-3Zm-.226-1.977c.076-.003,.148-.023,.226-.023,1.107,0,2.12,.371,2.948,.98C23.428,4.839,18.273,0,12,0c-.339,0-.672,.023-1.004,.051V1.799c0,.424-.06,.854-.15,1.284,.379-.049,.762-.083,1.154-.083,4.283,0,7.87,3.009,8.774,7.023Zm-8.774,10.977c-4.963,0-9-4.037-9-9,0-.392,.034-.775,.083-1.154-.43,.09-.86,.15-1.284,.15H.051c-.028,.332-.051,.665-.051,1.004,0,6.616,5.381,11.998,11.997,12,.002,0,.003,0,.003,0,3.542,0,6.72-1.552,8.919-4h-4.822c-1.23,.634-2.619,1-4.096,1Z"/></svg>
