<?xml version="1.0" encoding="UTF-8"?>
<svg xmlns="http://www.w3.org/2000/svg" id="Layer_1" data-name="Layer 1" viewBox="0 0 24 24">
  <path d="m20,12.589v-2.589h2v-3c-2.345,0-3.987-4.493-4-4.529V0h-3v2.001l-6,.002V0h-3v2.709c-.015.04-1.64,4.291-4,4.291v3h2v2.355c-.014.04-1.487,4.645-4,4.645v3h2v4h3v-4h2v4h3v-4h4v4h3v-4h2v4h3v-4h2v-3c-2.487,0-3.987-4.374-4-4.411Zm-11.712-7.589h7.487c.264.557.656,1.279,1.177,2H7.083c.533-.723.934-1.445,1.205-2Zm-1.288,5h10v2.001l-10,.002v-2.003Zm-1.971,7c.516-.721.903-1.442,1.164-2h11.551c.267.556.664,1.278,1.191,2H5.029Z"/>
</svg>
