<?xml version="1.0" encoding="UTF-8"?>
<svg xmlns="http://www.w3.org/2000/svg" id="Layer_1" data-name="Layer 1" viewBox="0 0 24 24">
  <path d="m12,0C5.383,0,0,5.383,0,12s5.383,12,12,12,12-5.383,12-12S18.617,0,12,0Zm1.987,20.778c-.111-.999-.959-1.778-1.987-1.778s-1.877.78-1.987,1.778c-4.009-.907-7.013-4.498-7.013-8.778s3.003-7.871,7.013-8.778c.111.999.959,1.778,1.987,1.778s1.877-.78,1.987-1.778c4.009.907,7.013,4.498,7.013,8.778s-3.003,7.871-7.013,8.778Zm4.33-11.778H5.683c.594-1.249,1.546-2.292,2.725-3h7.184c1.18.708,2.131,1.751,2.725,3Zm.683,3c0,.515-.059,1.016-.165,1.5H5.165c-.106-.484-.165-.985-.165-1.5s.059-1.016.165-1.5h13.67c.106.484.165.985.165,1.5Zm-13.317,3h12.635c-.594,1.249-1.546,2.292-2.725,3h-7.184c-1.18-.708-2.131-1.751-2.725-3Z"/>
</svg>
