<?xml version="1.0" encoding="UTF-8"?>
<svg xmlns="http://www.w3.org/2000/svg" id="Layer_1" data-name="Layer 1" viewBox="0 0 24 24">
  <path d="M15.5,3.939c-.004-.877,.421-1.424,.946-1.438,.526-.015,.954,.509,.958,1.386,.003,.877-.42,1.599-.946,1.614s-.955-.684-.958-1.561Zm-4.887-.439c.611-.017,1.103-.86,1.099-1.883C11.708,.594,11.21-.017,10.599,0c-.611,.017-1.103,.655-1.099,1.678,.004,1.023,.502,1.838,1.113,1.821Zm3,.641c.611-.017,1.103-.86,1.099-1.883-.004-1.023-.502-1.634-1.112-1.617-.611,.017-1.103,.655-1.099,1.678,.004,1.023,.502,1.838,1.113,1.821Zm-5.134-1.753C8.33,.785,7.464-.102,6.509,.009c-.955,.112-1.638,1.181-1.489,2.784,.149,1.603,1.044,2.811,1.999,2.699,.955-.112,1.608-1.502,1.459-3.105Zm10.021,7.612c0,1.54-.41,2.997-.806,4.406-.357,1.269-.694,2.467-.694,3.594l-.031,2.5c-.247,1.971-1.933,3.5-3.969,3.5-2.206,0-4-1.794-4-4,.066-.959,.334-2.373,.591-3.641,.173-.854,.409-2.022,.409-2.359,0-.688-.474-1.225-1.246-2.043-.806-.854-1.81-1.916-1.81-3.457,0-2.298,1.789-3.5,3.556-3.5,.832,0,1.535,.356,2.099,.643,.331,.168,.705,.357,.901,.357,1.368,0,5,0,5,4Zm-3,0c0-.769,0-1-2-1-.913,0-1.658-.378-2.257-.682-.245-.124-.614-.312-.745-.318-.553,0-.553,.313-.553,.5,0,.348,.504,.882,.991,1.397,.872,.923,2.065,2.187,2.065,4.103,0,.606-.178,1.518-.468,2.954-.221,1.09-.47,2.321-.531,3.089,.022,.531,.462,.957,.999,.957,.551,0,1-.448,1-1v-2c0-1.54,.41-2.997,.806-4.406,.357-1.269,.694-2.467,.694-3.594Zm3.128-5c-.349,.01-.631,.374-.628,.959s.287,1.05,.636,1.041c.349-.01,.63-.491,.628-1.076-.002-.585-.287-.934-.636-.924Z"/>
</svg>
