<?xml version="1.0" encoding="UTF-8"?>
<svg xmlns="http://www.w3.org/2000/svg" id="Layer_1" data-name="Layer 1" viewBox="0 0 24 24">
  <path d="m10.082,21h1.352l-1.75,3h-.766l-3.667-3.351L.747,16.609c-.866-.722-.983-2.008-.261-2.874.722-.866,2.008-.983,2.874-.261l2.64,2.296V3.5c0-.911.799-1.632,1.739-1.479.737.12,1.248.812,1.248,1.56v16.419l1.095,1.001ZM19,1.5c0-.828-.672-1.5-1.5-1.5s-1.5.672-1.5,1.5v9.5h3V1.5Zm-5,0c0-.828-.672-1.5-1.5-1.5s-1.5.672-1.5,1.5v9.5h3V1.5Zm4,12.214l6,10.286h-12l6-10.286Zm1,7.286h-2v2h2v-2Zm0-4h-2v3h2v-3Zm3.5-15c-.828,0-1.5.672-1.5,1.5v11.387l3,5.143V3.5c0-.828-.672-1.5-1.5-1.5Z"/>
</svg>
