<?xml version="1.0" encoding="UTF-8"?>
<svg xmlns="http://www.w3.org/2000/svg" id="Layer_1" data-name="Layer 1" viewBox="0 0 24 24">
  <path d="M19.321,13.84l-2.131-2.111-2.108,2.128c-.127,.127-.275,.146-.353,.146s-.226-.02-.354-.146l-1.061-1.061,2.488-2.488-2.121-2.121-2.488,2.488-1.061-1.061c-.127-.127-.146-.276-.146-.353s.019-.226,.146-.354l1.543-1.543-.006-.006,.501-.47L7.779,2.203c-1.477-1.533-3.868-1.612-5.492-.134-.832,.759-1.296,1.841-1.273,2.928l-.014,1.983,3,.021,.013-2.024c-.003-.154,.031-.45,.341-.732,.365-.333,.921-.316,1.25,.026l2.384,2.543c-.645,.658-1.002,1.524-1.002,2.447,0,.935,.364,1.814,1.025,2.475l1.061,1.061L.078,21.791l2.121,2.121L11.194,14.916l1.061,1.061c.661,.661,1.54,1.025,2.475,1.025s1.814-.364,2.479-1.03l2.112-2.132Z"/>
  <path d="M20.5,20.99c-.486,0-.5-.56-.5-.623,0-.163,.065-.321,.181-.437l2.249-2.25c1.962-1.961,2.053-5.115,.29-7.218l1.203-1.203-2.121-2.121-1.149,1.149-1.397-1.432,1.131-1.131-2.121-2.121-1.105,1.105-1.397-1.432,1.087-1.087L14.729,.067l-1.06,1.06-.006-.006-2.147,2.095,8.822,9.045c.885,.917,.872,2.396-.029,3.297l-2.248,2.249c-.674,.672-1.061,1.604-1.061,2.559,0,2.031,1.537,3.623,3.5,3.623h0c1.919,0,3.247-1.19,3.457-3h-3.457Z"/>
</svg>
