<?xml version="1.0" encoding="UTF-8"?>
<svg xmlns="http://www.w3.org/2000/svg" id="Layer_1" data-name="Layer 1" viewBox="0 0 24 24">
  <path d="m6,9.257L1.757,13.754c-2.339,2.339-2.339,6.146,0,8.485,1.133,1.133,2.64,1.757,4.242,1.757h.002c1.602,0,3.107-.624,4.241-1.757,2.339-2.339,2.339-6.146.03-8.454l-4.273-4.528Zm2.122,10.861c-.567.566-1.319.878-2.12.878h-.001c-.802,0-1.555-.312-2.122-.878-1.169-1.17-1.169-3.073.03-4.274l2.091-2.216,2.122,2.247c1.169,1.17,1.169,3.073,0,4.243Zm14.256-12.424l-3.877-3.792-3.889,3.804c-2.145,2.145-2.145,5.633,0,7.778h0c1.04,1.039,2.42,1.611,3.889,1.611s2.85-.572,3.889-1.611c2.145-2.145,2.145-5.633-.012-7.79Zm-2.109,5.668c-.944.944-2.592.944-3.536,0-.975-.975-.975-2.561-.012-3.523l1.78-1.741,1.768,1.729c.975.975.975,2.561,0,3.535ZM11.858,2.307c1.302,1.302,1.302,3.414,0,4.717-.651.651-1.505.977-2.358.977-.854,0-1.707-.326-2.358-.977-1.302-1.302-1.302-3.414,0-4.717l2.358-2.307,2.358,2.307Z"/>
</svg>
