<?xml version="1.0" encoding="UTF-8"?>
<svg xmlns="http://www.w3.org/2000/svg" id="Layer_1" data-name="Layer 1" viewBox="0 0 24 24">
  <path d="m19.125,12.377c-.413-.138-.805-.27-1.183-.399,1.023-3.076,1.57-5.556,1.833-6.978h2.929l1.297-5h-3.119l-.584,2h-1.797s-1.322,0-1.322,0l-.166,1.312c-.004.035-.421,3.203-1.903,7.678-.109-.039-.226-.08-.331-.117-3.407-1.208-5.284-1.873-7.777-1.873-.347,0-.686.034-1.02.083l-.949-3.083h1.969v-3H0v3h1.892l1.276,4.149c-1.906,1.252-3.169,3.406-3.169,5.851,0,2.785,1.639,5.188,4,6.315v1.685h3v-1h10v1h3v-1.194c2.294-.602,4-2.675,4-5.156,0-2.93-2.423-4.295-4.875-5.273Zm-.475,7.623H7c-2.206,0-4-1.794-4-4s1.794-4,4-4c1.977,0,3.48.533,6.775,1.7,1.214.431,2.646.938,4.318,1.492,2.907,1.164,2.907,1.974,2.907,2.458,0,1.296-1.054,2.35-2.35,2.35Zm-9.927-5h2.277v3h-4c-1.105,0-2-.895-2-2s.895-2,2-2c.738,0,1.376.405,1.723,1Z"/>
</svg>
