<?xml version="1.0" encoding="UTF-8"?>
<svg xmlns="http://www.w3.org/2000/svg" id="Layer_1" data-name="Layer 1" viewBox="0 0 24 24">
  <path d="m11.189,7.404l2.121,2.121-3.793,3.793c-.487.486-1.128.73-1.768.73s-1.28-.244-1.767-.73l-2.294-2.293,2.121-2.121,1.939,1.939,3.439-3.439Zm12.811,12.596h-3.061c.034.162.061.327.061.5,0,1.381-1.119,2.5-2.5,2.5s-2.5-1.119-2.5-2.5c0-.173.027-.338.061-.5H7.939c.034.162.061.327.061.5,0,1.381-1.119,2.5-2.5,2.5s-2.5-1.119-2.5-2.5c0-.173.027-.338.061-.5H0V4.5C0,2.57,1.57,1,3.5,1h10c1.93,0,3.5,1.57,3.5,3.5v.5h1.5c3.032,0,5.5,2.467,5.5,5.5v9.5ZM14,4.5c0-.276-.225-.5-.5-.5H3.5c-.275,0-.5.224-.5.5v12.5h11V4.5Zm3,3.5v5h4v-2.5c0-1.378-1.121-2.5-2.5-2.5h-1.5Z"/>
</svg>
