<?xml version="1.0" encoding="UTF-8"?>
<svg xmlns="http://www.w3.org/2000/svg" id="Layer_1" data-name="Layer 1" viewBox="0 0 24 24">
  <path d="M19.014,24h-5.38v.013H2.053L.065,9.061c-.217-1.108,.119-2.315,.97-3.075l2.112,2.112c-.104,.085-.17,.18-.137,.392l.206,1.511h1.834l3,3H3.615l1.065,8.013h3.601c-.171-.475-.28-.98-.28-1.513v-5c0-.453,.073-.894,.201-1.313l2.799,2.799v.014h.014l3,3h-3.014v.5c0,.827,.673,1.5,1.5,1.5h3.514l3,3Zm4.986-4.5c0,.675-.168,1.327-.453,1.926l.414,.414-2.121,2.121L.039,2.161,2.16,.04,7.134,5.013h1.536L9.249,.013h7.828V3h-5.17l-.227,2.013h1.954c1.021,0,1.976,.458,2.617,1.258,.632,.787,.88,1.798,.686,2.787l-.117,.942h2.681c2.481,0,4.5,2.019,4.5,4.5v5Zm-4.5-6.5h-4.379l3,3h2.879v-1.5c0-.827-.673-1.5-1.5-1.5Zm-5.867-4.987h-3.499l2.017,2.017c.117-.009,.232-.03,.349-.03h1.299l.19-1.51c.028-.298-.081-.439-.356-.477Z"/>
</svg>
