<svg id="Layer_1" viewBox="0 0 24 24" xmlns="http://www.w3.org/2000/svg" data-name="Layer 1"><path d="m24 11c0 2.079-1.594 3.792-3.623 3.982-.651 1.753-1.866 3.274-3.377 4.349v4.668h-3v-3.257c-.652.168-1.323.257-2 .257-.677 0-1.347-.096-2-.264v3.264h-3v-4.674c-1.783-1.272-3.153-3.165-3.669-5.326.4-.008 1.177.017 3.01-.421.8 2.734 3.48 4.421 5.659 4.421 2.285 0 5.146-1.841 5.785-4.815l.255-1.185h1.96c.551 0 1-.449 1-1 0-.542-.424-.982-.965-1.001l-1.253-.044-.179-1.241c-.469-3.257-3.308-5.714-6.603-5.714-3.437 0-6.303 2.49-6.89 5.761 1.544-.372 3.964-1.33 6.235-3.761h.655c.951 0 1.839.304 2.588.807-1.54 1.972-3.211 3.309-4.78 4.225.681.142 1.192.745 1.192 1.468 0 .828-.672 1.5-1.5 1.5s-1.5-.672-1.5-1.5c0-.221.051-.43.137-.619-2.523 1.087-4.477 1.119-4.637 1.119h-1.5v-2c0-5.513 4.486-9.999 10-9.999 4.416 0 8.265 3.043 9.36 7.233 1.549.555 2.64 2.029 2.64 3.767zm-8 .5c0-.828-.672-1.5-1.5-1.5s-1.5.672-1.5 1.5.672 1.5 1.5 1.5 1.5-.672 1.5-1.5zm-4 4.501c1.352 0 2.509-.826 2.999-2h-5.998c.49 1.174 1.648 2 2.999 2z"/></svg>