<?xml version="1.0" encoding="UTF-8"?>
<svg xmlns="http://www.w3.org/2000/svg" id="Layer_1" data-name="Layer 1" viewBox="0 0 24 24">
  <path d="m14,9.962c0-1.105.895-2,2-2s2,.895,2,2-.895,2-2,2-2-.895-2-2Zm10,13.976l-2.06-.828c-.053-.021-5.301-2.109-9.94-2.109s-9.887,2.088-9.94,2.109L0,23.938V.009s2.068.847,2.068.847c.052.021,5.297,2.145,9.931,2.145S21.879.877,21.931.855L23.999.009v23.929ZM3,4.373v10.627l4.586-4.586c.781-.781,2.047-.781,2.828,0l8.613,8.613c.735.193,1.402.392,1.973.574V4.373c-2.146.695-5.647,1.627-9,1.627s-6.854-.932-9-1.627Z"/>
</svg>
