<?xml version="1.0" encoding="UTF-8"?>
<svg xmlns="http://www.w3.org/2000/svg" id="Layer_1" data-name="Layer 1" viewBox="0 0 24 24">
  <path d="m24,10.5c0-3.033-2.467-5.5-5.5-5.5h-1.5v-.5c0-1.93-1.57-3.5-3.5-3.5H3.5C1.57,1,0,2.57,0,4.5v15.5h3.061c-.034.162-.061.327-.061.5,0,1.381,1.119,2.5,2.5,2.5s2.5-1.119,2.5-2.5c0-.173-.027-.338-.061-.5h8.122c-.034.162-.061.327-.061.5,0,1.381,1.119,2.5,2.5,2.5s2.5-1.119,2.5-2.5c0-.173-.027-.338-.061-.5h3.061v-9.5Zm-10,6.5H3V4.5c0-.276.224-.5.5-.5h10c.276,0,.5.224.5.5v12.5Zm4.5-9c1.378,0,2.5,1.122,2.5,2.5v2.5h-4v-5h1.5Zm-7.937,1.019c.551.551.855,1.283.855,2.063s-.305,1.513-.855,2.063c-1.103,1.103-3.026,1.103-4.127,0-.552-.551-.855-1.284-.855-2.063s.304-1.512.847-2.056l2.071-2.026,2.063,2.019Z"/>
</svg>
