<svg id="Layer_1" viewBox="0 0 24 24" xmlns="http://www.w3.org/2000/svg" data-name="Layer 1"><path d="m19 8v-1c0-3.86-3.141-7-7-7s-7 3.14-7 7v1h-3v12.5c0 1.93 1.57 3.5 3.5 3.5h13c1.93 0 3.5-1.57 3.5-3.5v-12.5zm-11-1c0-2.206 1.794-4 4-4s4 1.794 4 4v1h-8zm11 13.5c0 .275-.225.5-.5.5h-13c-.275 0-.5-.225-.5-.5v-9.5h14zm-7-3v-3c0-1.381 1.119-2.5 2.5-2.5s2.5 1.119 2.5 2.5h-1.6c0-.496-.404-.9-.9-.9s-.9.404-.9.9v3c0 .496.404.9.9.9s.9-.404.9-.9v-.4h-.9v-1.6h2.5v2c0 1.381-1.119 2.5-2.5 2.5s-2.5-1.119-2.5-2.5zm-3 2.5h-2v-1.6h2c.496 0 .9-.404.9-.9s-.404-.9-.9-.9h-2v-4.6h4v1.6h-2.4v1.4h.4c1.381 0 2.5 1.119 2.5 2.5s-1.119 2.5-2.5 2.5z"/></svg>