<?xml version="1.0" encoding="UTF-8"?>
<svg xmlns="http://www.w3.org/2000/svg" id="Layer_1" data-name="Layer 1" viewBox="0 0 24 24">
  <path d="M9.051,9.554c.574,.458,.949,1.155,.949,1.946v2.5H4.02l5.031-4.446Zm13.949,1.946c0-1.381-1.119-2.5-2.5-2.5h-4c-1.381,0-2.5,1.119-2.5,2.5v2.5h9v-2.5ZM5.5,8c1.933,0,3.5-1.567,3.5-3.5H2c0,1.933,1.567,3.5,3.5,3.5Zm13-1c1.657,0,3-1.343,3-3s-1.343-3-3-3-3,1.343-3,3,1.343,3,3,3ZM7,15.381v2.619H0v3H7v2.487l3.703-3.389c.395-.355,.395-.974,0-1.328l-3.703-3.389Zm10,2.619v-2.619l-3.703,3.389c-.395,.355-.395,.974,0,1.328l3.703,3.389v-2.487h7v-3h-7ZM3.5,9c-1.381,0-2.5,1.119-2.5,2.5v2.5l5.658-5H3.5ZM1.778,2.5h7.528l.126-.326c.27-.787-.287-1.615-1.118-1.661L3.24,.003C2.109-.06,1.253,1.011,1.565,2.1l.213,.4Z"/>
</svg>
