<?xml version="1.0" encoding="UTF-8"?>
<svg xmlns="http://www.w3.org/2000/svg" id="Layer_1" data-name="Layer 1" viewBox="0 0 24 24" width="512" height="512"><path d="M11,5H3.389c-1.869,0-3.389,1.521-3.389,3.389v15.611H19V13H11V5ZM3,8.389c0-.214,.174-.389,.389-.389h4.611v5h-1.285c.178-.587,.285-1.172,.285-1.5,0-.828-.672-1.5-1.5-1.5s-1.5,.672-1.5,1.5c0,.328,.106,.913,.285,1.5h-1.285v-4.611Zm5,12.611H3v-5h5v1.285c-.587-.178-1.172-.285-1.5-.285-.828,0-1.5,.672-1.5,1.5s.672,1.5,1.5,1.5c.328,0,.913-.106,1.5-.285v1.285Zm4.285-5c-.178,.587-.285,1.172-.285,1.5,0,.828,.672,1.5,1.5,1.5s1.5-.672,1.5-1.5c0-.328-.106-.913-.285-1.5h1.285v5h-5v-5h1.285Zm11.715-7h-3.285c.178,.587,.285,1.172,.285,1.5,0,.828-.672,1.5-1.5,1.5s-1.5-.672-1.5-1.5c0-.328,.106-.913,.285-1.5h-3.285v-3.285c.587,.178,1.172,.285,1.5,.285,.828,0,1.5-.672,1.5-1.5s-.672-1.5-1.5-1.5c-.328,0-.913,.106-1.5,.285V0h6c1.657,0,3,1.343,3,3v6Z"/></svg>
