<?xml version="1.0" encoding="UTF-8"?>
<svg xmlns="http://www.w3.org/2000/svg" id="Layer_1" data-name="Layer 1" viewBox="0 0 24 24" width="512" height="512"><path d="M12,24C5.383,24,0,18.617,0,12S5.383,0,12,0s12,5.383,12,12-5.383,12-12,12Zm0-21C7.037,3,3,7.038,3,12s4.037,9,9,9,9-4.038,9-9S16.963,3,12,3Zm3.5,4c-.828,0-1.5,1.343-1.5,3s.672,3,1.5,3,1.5-1.343,1.5-3-.672-3-1.5-3Zm-3.829,3.842l-1.342-2.684-4,2,1.342,2.684,4-2Zm7.629,4.408l-2.598-1.501c-.628,1.08-1.563,2.044-2.012,2.223-.172-.128-.438-.386-.611-.552-.657-.632-1.475-1.419-2.579-1.419-.954,0-1.633,.453-2.082,.752-.118,.079-.286,.191-.377,.233-.396-.165-1.297-.864-1.981-1.546l-2.12,2.122c.911,.911,2.649,2.439,4.061,2.439,.954,0,1.633-.453,2.082-.752,.098-.065,.229-.153,.323-.205,.172,.132,.427,.377,.593,.538,.657,.632,1.475,1.419,2.579,1.419,2.374,0,4.215-2.871,4.723-3.75ZM9.832,6.055l-1.664-1.109c-.772,1.158-1.852,2.057-3.04,2.531l.742,1.857c1.582-.632,2.952-1.766,3.962-3.279Z"/></svg>
