<?xml version="1.0" encoding="UTF-8"?>
<svg xmlns="http://www.w3.org/2000/svg" id="Layer_1" data-name="Layer 1" viewBox="0 0 24 24">
  <path d="m19,16h1c2.209,0,4-3.582,4-8S22.209,0,20,0H7.5c-1.342,0-2.579.651-3.548,1.831L2.16.039.039,2.16l21.801,21.801,2.121-2.121-4.961-4.961v-.879Zm2-8c0,1.657-.448,3-1,3s-1-1.343-1-3,.448-3,1-3,1,1.343,1,3ZM7.5,3h9.378c-.549,1.37-.878,3.108-.878,5v5.879L6.093,3.972c.431-.613.939-.972,1.407-.972Zm8.085,17.534l2.121,2.121c-.817.83-1.952,1.345-3.206,1.345H0v-3c1.103,0,2-.897,2-2v-11c0-.34.015-.677.042-1.009l2.958,2.958v9.051c0,.711-.149,1.388-.418,2h9.918c.426,0,.812-.179,1.085-.466Z"/>
</svg>
