<?xml version="1.0" encoding="UTF-8"?>
<svg xmlns="http://www.w3.org/2000/svg" id="Layer_1" data-name="Layer 1" viewBox="0 0 24 24">
  <path d="m9.986,1.515C8.788.451,7.247-.084,5.647.011c-1.6.094-3.067.806-4.132,2.004C.451,3.213-.084,4.754.011,6.354c.094,1.6.806,3.067,2.004,4.132,1.198,1.064,2.739,1.599,4.339,1.504,1.6-.094,3.067-.806,4.132-2.004,1.064-1.198,1.599-2.739,1.504-4.339-.094-1.6-.806-3.067-2.004-4.132Zm-3.986.485c1.105,0,2,.895,2,2s-.895,2-2,2-2-.895-2-2,.895-2,2-2Zm3,6.64s-.007.011-.011.015c-.68.766-1.652,1.273-2.753,1.338-1.282.076-2.449-.476-3.236-1.375v-.119c0-.828.672-1.5,1.5-1.5h3c.828,0,1.5.672,1.5,1.5v.14Zm14.989,9.006c-.094-1.6-.806-3.067-2.004-4.132-1.198-1.064-2.739-1.599-4.339-1.504-1.6.094-3.067.806-4.132,2.004-1.064,1.198-1.599,2.739-1.504,4.339.094,1.6.806,3.067,2.004,4.132,1.198,1.064,2.739,1.599,4.339,1.504,1.6-.094,3.067-.806,4.132-2.004,1.064-1.198,1.599-2.739,1.504-4.339Zm-5.99-3.647c1.105,0,2,.895,2,2s-.895,2-2,2-2-.895-2-2,.895-2,2-2Zm3,6.64s-.007.011-.011.015c-.68.766-1.652,1.273-2.753,1.338-1.282.076-2.449-.476-3.236-1.375v-.119c0-.828.672-1.5,1.5-1.5h3c.828,0,1.5.672,1.5,1.5v.14Zm-11-2.64c0,1.062.211,2.073.587,3H3v-7.587c.927.376,1.938.587,3,.587v4h4Zm4-12c0-1.062-.211-2.073-.587-3h7.587v7.587c-.927-.376-1.938-.587-3-.587v-4h-4Z"/>
</svg>
