<?xml version="1.0" encoding="UTF-8"?>
<svg xmlns="http://www.w3.org/2000/svg" id="Layer_1" data-name="Layer 1" viewBox="0 0 24 24">
  <path d="m8.121,20.123l3.879-3.879v7.756H0v-7.756l3.879,3.879c.585.585,1.353.877,2.121.877s1.536-.292,2.121-.877Zm-2.828-1.414c.378.377,1.036.377,1.414,0l3.708-3.708H1.584l3.709,3.708ZM17.5,0H6.5C2.916,0,0,2.916,0,6.5v6.5h3v-6.5c0-1.93,1.57-3.5,3.5-3.5s3.5,1.57,3.5,3.5v6.5h3v-3h3v2h3v-5h-6v-.5c0-1.289-.382-2.488-1.032-3.5h5.532c1.93,0,3.5,1.57,3.5,3.5v10.5h-7v3h10V6.5c0-3.584-2.916-6.5-6.5-6.5ZM5,7v3h3v-3h-3Z"/>
</svg>
