<svg id="Layer_1" viewBox="0 0 24 24" xmlns="http://www.w3.org/2000/svg" data-name="Layer 1"><path d="m22 10v-5.417c0-1.372-.807-2.603-2.055-3.135-1.047-.447-2.605-.947-4.662-1.226l-.275.893c.7.179 1.303.645 1.651 1.3.45.848.398 1.871-.136 2.669-.054.086-.653.818-.732.917h3.209v6.012h-5.5v-2.012h-3v2.012h-5.5v-6.013h2.523c-.534-.668-.689-1.582-.444-2.391l1.06-3.307c-1.775.29-3.136.74-4.085 1.145-1.248.533-2.054 1.763-2.054 3.135v5.417h-2v3c0 1.105.895 2 2 2v7h2v2h5v-2h6v2h5v-2h2v-7c1.105 0 2-.895 2-2v-3h-2zm-17 9v-3.988h2v.488c0 .829.671 1.5 1.5 1.5s1.5-.671 1.5-1.5v-.488h4v.488c0 .829.672 1.5 1.5 1.5s1.5-.671 1.5-1.5v-.488h2v3.988zm3.992-14.805 1.336-4.17h2.923l-.925 3 2.036.008c.481.002.766.539.499.938l-3.264 4.029-.626-.002.655-2.973h-2.05c-.412-.002-.706-.436-.585-.83z"/></svg>