<?xml version="1.0" encoding="UTF-8"?>
<svg xmlns="http://www.w3.org/2000/svg" id="Layer_1" data-name="Layer 1" viewBox="0 0 24 24">
  <path d="m22.864,15.045c-4.237-1.061-7.315.322-9.364,2.305v-1.946c.531-.731,1-1.664,1-2.68,0-.063-.009-.124-.012-.186,2.014,1.097,4.824-.038,4.824-.038,0,0-.312-2.661-1.952-4.011,1.64-1.349,1.952-4.011,1.952-4.011,0,0-2.812-1.136-4.826-.037.005-.073.014-.145.014-.218C14.5,1.877,12-.026,12-.026c0,0-2.5,1.903-2.5,4.25,0,.074.009.146.014.218-2.014-1.099-4.826.037-4.826.037,0,0,.311,2.645,1.937,3.998-1.627,1.353-1.937,3.998-1.937,3.998,0,0,2.812,1.135,4.826.037-.005.071-.014.141-.014.212,0,1.016.469,1.949,1,2.68v1.947c-2.051-1.982-5.13-3.363-9.364-2.306l-1.136.284v1.171c0,2.234.771,4.036,2.292,5.355,2.212,1.918,5.525,2.149,7.708,2.144.34,0,2,0,2,0,0,0,1.657,0,2,0,2.187.006,5.497-.227,7.708-2.145,1.521-1.319,2.292-3.121,2.292-5.355v-1.171l-1.136-.284Zm-18.611,4.54c-.564-.49-.934-1.104-1.118-1.858,3.556-.379,5.561,1.73,6.576,3.396-1.793-.028-4.1-.355-5.458-1.538Zm7.747-13.585c1.105,0,2,.895,2,2s-.895,2-2,2-2-.895-2-2,.895-2,2-2Zm7.747,13.585c-1.359,1.183-3.667,1.511-5.459,1.538.935-1.533,2.71-3.44,5.759-3.44.263,0,.535.014.817.044-.184.754-.554,1.368-1.117,1.858Z"/>
</svg>
