<?xml version="1.0" encoding="UTF-8"?>
<svg xmlns="http://www.w3.org/2000/svg" id="Layer_1" data-name="Layer 1" viewBox="0 0 24 24">
  <path d="m15,4h3V0h3v4h3l-3.793,3.707c-.391.391-1.024.391-1.414,0l-3.793-3.707ZM3.793,7.707c.391.391,1.024.391,1.414,0l3.793-3.707h-3V0h-3v4H0l3.793,3.707Zm17.207,12.293h-4c-1.654,0-3,1.346-3,3v1h10v-1c0-1.654-1.346-3-3-3Zm-5-4c0,1.654,1.346,3,3,3s3-1.346,3-3-1.346-3-3-3-3,1.346-3,3Zm-4.068-5c1.654,0,3-1.346,3-3s-1.346-3-3-3-3,1.346-3,3,1.346,3,3,3Zm-4.932,9H3c-1.654,0-3,1.346-3,3v1h10v-1c0-1.654-1.346-3-3-3Zm-5-4c0,1.654,1.346,3,3,3s3-1.346,3-3-1.346-3-3-3-3,1.346-3,3Zm11.932-4h-4c-.538,0-1.037.154-1.474.403.947.91,1.542,2.183,1.542,3.597,0,.345-.048.676-.118,1h4.236c-.069-.324-.118-.655-.118-1,0-1.389.571-2.645,1.488-3.552-.455-.279-.985-.448-1.557-.448Z"/>
</svg>
