<?xml version="1.0" encoding="UTF-8"?>
<svg xmlns="http://www.w3.org/2000/svg" id="Layer_1" data-name="Layer 1" viewBox="0 0 24 24">
  <path d="M7.074,19.573l-1.624,2.522c-.962-.62-1.83-1.372-2.58-2.238l2.267-1.965c.563,.65,1.215,1.215,1.938,1.68ZM.061,10.294l2.969,.423h0s0,0,0,0c.121-.849,.363-1.675,.72-2.455h0s0-.001,0-.001l-2.729-1.248c-.477,1.042-.8,2.146-.962,3.281h0s0,0,0,0Zm3.689,5.445h0c-.357-.78-.599-1.606-.72-2.455h0s0,0,0,0L.061,13.706s0,0,0,0h0c.162,1.135,.485,2.239,.962,3.281l2.729-1.248s0,0,0-.001ZM7.074,4.427l-1.624-2.522c-.962,.62-1.83,1.372-2.58,2.238l2.267,1.965c.563-.65,1.215-1.215,1.938-1.68ZM12,0c-1.167,0-2.32,.167-3.428,.498l.856,2.875c.83-.247,1.695-.373,2.572-.373,4.963,0,9,4.038,9,9s-4.037,9-9,9c-.876,0-1.742-.125-2.572-.373l-.855,2.876c1.109,.33,2.262,.497,3.428,.497,6.617,0,12-5.383,12-12S18.617,0,12,0Zm-1.5,6v7H6.5l4.636,4.531c.477,.477,1.251,.477,1.728,0l4.636-4.531h-4V6h-3Z"/>
</svg>
