<svg id="Layer_1" viewBox="0 0 24 24" xmlns="http://www.w3.org/2000/svg" data-name="Layer 1"><path d="m20.5 1h-17c-1.933 0-3.5 1.567-3.5 3.5v18.5h24v-18.5c0-1.933-1.567-3.5-3.5-3.5zm-11 2c.828 0 1.5.672 1.5 1.5s-.672 1.5-1.5 1.5-1.5-.672-1.5-1.5.672-1.5 1.5-1.5zm-5 0c.828 0 1.5.672 1.5 1.5s-.672 1.5-1.5 1.5-1.5-.672-1.5-1.5.672-1.5 1.5-1.5zm16.5 17h-18v-12h18zm-8.148-3.065 2.937-2.938-2.937-2.937 2.121-2.121 3.299 3.299c.47.47.729 1.095.729 1.759s-.259 1.29-.729 1.76l-3.299 3.299zm-7.852-2.938c0-.664.259-1.289.729-1.759l3.299-3.299 2.121 2.121-2.937 2.937 2.937 2.938-2.121 2.121-3.299-3.299c-.47-.47-.729-1.095-.729-1.76z"/></svg>