<?xml version="1.0" encoding="UTF-8"?>
<svg xmlns="http://www.w3.org/2000/svg" id="Layer_1" data-name="Layer 1" viewBox="0 0 24 24">
  <path d="M24,10l-3,1.5,3,3-3-.5,1,4-4-4V6l4-4-1,4,3-.5-3,3,3,1.5ZM2,6h14V14h-3.95l-.065,.218c-.317,1.057-1.291,1.782-2.395,1.782h-.206l-1.821,6H0v-2.226l1.695-5.51c.02-.066,.01-.127-.031-.182-.041-.055-.096-.083-.165-.083H0v-6H1.5c.276,0,.5-.224,.5-.5v-1.5ZM6.855,14h-2.154c.023,.38-.022,.768-.139,1.147l-1.186,3.853h1.961l1.518-5Zm-3.855-3H13v-2H4.662c-.346,.727-.936,1.316-1.662,1.662v.338Z"/>
</svg>
