<?xml version="1.0" encoding="UTF-8"?>
<svg xmlns="http://www.w3.org/2000/svg" id="Layer_1" data-name="Layer 1" viewBox="0 0 24 24">
  <path d="M21.011,2l-.39,.909c-.822,1.918-2.275,3.535-3.262,4.487-1.055-.869-2.455-1.396-3.859-1.396h-3c-1.405,0-2.807,.529-3.861,1.398-.984-.948-2.433-2.559-3.26-4.489l-.39-.909H0v6.834c-.092,5.236,4.912,10.562,12,13.291,7.089-2.73,12.091-8.053,12-13.291V2h-2.989Zm-.011,6.834c0,3.694-3.512,7.588-9,10.032C6.512,16.422,3,12.529,3,8.834v-.953c1.406,1.694,2.758,2.743,2.848,2.812l1.334,1.024,.865-1.442c.444-.739,1.475-1.276,2.452-1.276h3c.978,0,2.009,.537,2.452,1.276l.865,1.442,1.334-1.024c.091-.069,1.443-1.119,2.849-2.812v.953Zm-6.235,3.932v.046c-.787,.329-2.009,.522-2.765,.522-.747,0-1.989-.188-2.766-.509-.03-.994,.77-1.826,1.766-1.824h2c.974,0,1.765,.792,1.765,1.765Z"/>
</svg>
