<?xml version="1.0" encoding="UTF-8"?>
<svg xmlns="http://www.w3.org/2000/svg" id="Layer_1" data-name="Layer 1" viewBox="0 0 24 24">
  <path d="m8,12h1.071l1.939,1.939c.586.586,1.536.586,2.121,0l1.939-1.939h.929c1.105,0,2-.895,2-2V2c0-1.105-.895-2-2-2h-8c-1.105,0-2,.895-2,2v8c0,1.105.895,2,2,2Zm3-10h2v2h-2v-2Zm0,3h2v5h-2v-5Zm13,.41v16.408l-12,2.181L0,21.817V5.41c0-.943.376-1.819,1.058-2.469.649-.618,1.524-.95,2.413-.931.033,0,.385.018.529.044v3.048s-.555-.101-.574-.102v.002c-.158-.006-.252.068-.3.114-.058.055-.126.15-.126.295v13.904l7.5,1.364v-4.677h3v4.677l7.5-1.364V5.41c0-.167-.092-.268-.147-.314-.055-.046-.171-.118-.335-.088h0s-.518.094-.518.094v-3.046c1-.179,1.998.088,2.775.737.778.649,1.225,1.604,1.225,2.617Z"/>
</svg>
