<svg id="Layer_1" viewBox="0 0 24 24" xmlns="http://www.w3.org/2000/svg" data-name="Layer 1"><path d="m23.993 4.016c0-1.069-.416-2.074-1.172-2.829-1.489-1.553-4.17-1.553-5.659 0l-6.16 6.16v-7.347h-3.001v9.174l-1.487-.676c-1.697-.773-3.727-.405-5.046.915l-1.03 1.03 2.122 2.122 1.03-1.03c.441-.439 1.118-.562 1.682-.305l.511.232-4.378 4.377c-1.864 1.864-1.864 4.898 0 6.763 1.865 1.864 4.898 1.864 6.763 0l4.835-4.835 1.121 1.121 2.122-2.122-1.672-1.673 8.247-8.247c.756-.756 1.172-1.761 1.172-2.83zm-17.947 16.463c-.696.696-1.825.695-2.519 0s-.694-1.824 0-2.519l4.835-4.835 2.518 2.518-4.835 4.834zm14.652-15.755-8.178 8.178-1.415-1.415 8.18-8.179c.377-.377 1.035-.379 1.414 0 .389.372.387 1.042 0 1.415z"/></svg>