<svg id="Layer_1" viewBox="0 0 24 24" xmlns="http://www.w3.org/2000/svg" data-name="Layer 1"><path d="m11 3c-2.757 0-5 2.243-5 5v10h-1c-2.761 0-5-2.239-5-5 0-2.049 1.236-3.806 3-4.578v-.422c0-4.411 3.589-8 8-8s8 3.589 8 8v.422c1.764.772 3 2.529 3 4.578 0 .343-.035.677-.101 1h-5.899v-6c0-2.757-2.243-5-5-5zm13 15.5c.014 1.375-1.102 2.501-2.478 2.5h-.922v3h-1.6v-8h2.5c1.381 0 2.5 1.119 2.5 2.5zm-1.6 0c0-.496-.404-.9-.9-.9h-.9v1.8h.9c.496 0 .9-.404.9-.9zm-9.4 0c.014 1.375-1.102 2.501-2.478 2.5h-.922v3h-1.6v-8h2.5c1.381 0 2.5 1.119 2.5 2.5zm-1.6 0c0-.496-.404-.9-.9-.9h-.9v1.8h.9c.496 0 .9-.404.9-.9zm6.6-.2v3.4c0 1.269-1.031 2.3-2.3 2.3s-2.3-1.031-2.3-2.3v-3.4c0-1.269 1.031-2.3 2.3-2.3s2.3 1.031 2.3 2.3zm-1.6 0c0-.386-.314-.7-.7-.7s-.7.314-.7.7v3.4c0 .386.314.7.7.7s.7-.314.7-.7zm-3.4-12.3h-1.744l-.872 3h-.784v-3h-1.6v8h1.6v-3.4l.688-.002.968 3.401h1.744l-1.252-3.974 1.252-4.026zm2 3.2h-2v1.6h2z"/></svg>