<?xml version="1.0" encoding="UTF-8"?>
<svg xmlns="http://www.w3.org/2000/svg" id="Layer_1" data-name="Layer 1" viewBox="0 0 24 24">
  <path d="M10.987,19h-3v-5h3v5Zm12.962-10l-1.917,12.05c-.272,1.71-1.726,2.95-3.457,2.95H5.424c-1.731,0-3.185-1.24-3.457-2.95L.05,9h1.95v-1.5c0-1.953,1.258-3.602,3-4.224V0h6V3.276c1.742,.621,3,2.271,3,4.224v1.5h5v-1.5c0-.827-.673-1.5-1.5-1.5h-1.698c-.391-1.619-1.394-3.027-2.802-3.933V0h5V3.051c2.244,.252,4,2.139,4,4.449v1.5h1.95Zm-18.95,0h6v-1.5c0-.827-.673-1.5-1.5-1.5h-3c-.827,0-1.5,.673-1.5,1.5v1.5Zm15.435,3H3.565l1.365,8.579c.039,.244,.247,.421,.494,.421h13.152c.247,0,.455-.177,.494-.421l1.365-8.579Zm-4.448,2h-3v5h3v-5Z"/>
</svg>
