<?xml version="1.0" encoding="UTF-8"?>
<svg xmlns="http://www.w3.org/2000/svg" id="Layer_1" data-name="Layer 1" viewBox="0 0 24 24" width="512" height="512"><path d="M24,6.5v14.121l-3.379,3.379h-4.242l4.621-4.621v-2.996l-3.325,3.3-2.113-2.129,3.318-3.293c.195-.322,.148-.746-.123-1.017-.314-.314-.859-.314-1.174,0l-3.867,3.867c.187,.557,.284,1.147,.284,1.752v5.138h-3v-5.138c0-.667-.26-1.296-.732-1.768l-3.769-3.769c-.325-.325-.825-.404-1.139-.18-.245,.174-.325,.398-.35,.557-.03,.196,.008,.391,.11,.558l3.319,3.294-2.113,2.129-3.325-3.321v3.017l4.621,4.621H3.379l-3.379-3.379V6.5c0-1.465,1.265-2.639,2.761-2.487,1.301,.132,2.239,1.326,2.239,2.633v3.457c1.259-.259,2.646,.126,3.62,1.1l3.38,3.38,3.462-3.462c.927-.927,2.294-1.26,3.538-1v-3.476c0-1.307,.939-2.501,2.239-2.633,1.495-.152,2.761,1.022,2.761,2.487Z"/></svg>
