<svg id="Layer_1" viewBox="0 0 24 24" xmlns="http://www.w3.org/2000/svg" data-name="Layer 1"><path d="m14.053 13h-1.053v-2.212c2.307-.654 4-2.771 4-5.288 0-3.038-2.462-5.5-5.5-5.5s-5.5 2.462-5.5 5.5c0 2.517 1.693 4.634 4 5.288v1.677l-.687-.687c-1.037-1.037-2.722-1.037-3.759 0l-1.778 2.222h-3.776v9h4.257l3 1h8.372c.388-2.068 1.325-6.875 1.371-8.158 0-1.594-1.295-2.842-2.947-2.842zm-5.58-5.934h1.492c.079.266.327.461.618.461h1.958c.291 0 .529-.237.529-.529 0-.251-.179-.469-.425-.519l-2.571-.515c-.933-.187-1.609-1.012-1.609-1.963 0-1.104.898-2.002 2.001-2.002h.318v-1h1.44v1h.201c1.106 0 2.017.852 2.11 1.934h-1.492c-.079-.266-.327-.461-.618-.461h-1.959c-.291 0-.528.237-.528.528 0 .251.179.469.425.518l2.572.515c.933.186 1.609 1.012 1.609 1.963 0 1.104-.898 2.002-2.002 2.002h-.317v1h-1.44v-1h-.201c-1.106 0-2.017-.852-2.11-1.934zm4.669 13.934h-5.398l-3-1h-1.743v-3h2.224l2.245-2.824 1.824 1.824 4.692.006c-.078.712-.444 2.841-.844 4.994zm8.358-10v5h-3v-5h-2.5l3.2-3.2c.442-.442 1.158-.442 1.6 0l3.2 3.2z"/></svg>