<?xml version="1.0" encoding="UTF-8"?>
<svg xmlns="http://www.w3.org/2000/svg" id="Layer_1" data-name="Layer 1" viewBox="0 0 24 24">
  <path d="m18.689,18h3.687c-2.079,3.581-5.946,6-10.376,6C5.383,24,0,18.617,0,12S5.383,0,12,0c4.43,0,8.298,2.419,10.376,6h-3.687c-1.649-1.836-4.033-3-6.689-3C7.038,3,3,7.038,3,12s4.038,9,9,9c2.656,0,5.04-1.164,6.689-3Zm4.061-4.519c-.69,0-1.25.56-1.25,1.25s.56,1.25,1.25,1.25,1.25-.56,1.25-1.25-.56-1.25-1.25-1.25Zm-3.25-4.25c0-.69-.56-1.25-1.25-1.25s-1.25.56-1.25,1.25.56,1.25,1.25,1.25,1.25-.56,1.25-1.25Zm-.722,6.75l5.222-8h-1.911l-5.222,8h1.911Zm-8.798-5.481h.021c0-1.381-1.119-2.5-2.5-2.5-1.369,0-2.478,1.102-2.497,2.467h-.003v.533h1.6v-.5c0-.496.404-.9.9-.9s.9.404.9.9h-.01c0,1.904-3.39,2.692-3.39,4.5v1h5v-1.6h-2.729c.691-.631,2.708-1.843,2.708-3.9Zm3.521-2.5c1.381,0,2.5,1.119,2.5,2.5v3c0,1.381-1.119,2.5-2.5,2.5s-2.5-1.119-2.5-2.5v-3c0-1.381,1.119-2.5,2.5-2.5Zm0,1.6c-.496,0-.9.404-.9.9v3c0,.496.404.9.9.9s.9-.404.9-.9v-3c0-.496-.404-.9-.9-.9Z"/>
</svg>
