<?xml version="1.0" encoding="UTF-8"?>
<svg xmlns="http://www.w3.org/2000/svg" id="Layer_1" data-name="Layer 1" viewBox="0 0 24 24" width="512" height="512"><path d="m20.143,3.857c0-2.858-2.571-3.857-3.857-3.857-.771,0-1.286.384-1.286,1.155v5.866l-.97.01c-1.092.031-2.088.11-3.03.218,0-.794,0-2.404,0-2.404-3.123,0-5.586,1.005-6.915,1.699-.666.348-1.085,1.029-1.085,1.78v2.302C.833,13.033,0,16.821,0,22.5v1.5h1.5c8.345,0,12.599-1.812,14.399-7h1.115c.971,0,1.798-.704,1.952-1.662l.378-2.338h-2.591c.108-.943.187-1.938.218-3.03l.01-.97h5.866c.771,0,1.155-.515,1.155-1.286,0-1.286-.999-3.857-3.857-3.857Zm-8.261,14.325c-.032.039-.681.687-.719.719-1.678,1.418-4.261,1.991-8.163,2.098.107-3.895.678-6.477,2.09-8.155.029-.035.7-.706.735-.735,1.678-1.412,4.26-1.983,8.155-2.09-.107,3.902-.68,6.485-2.098,8.163Zm-7.443-1.622l2.121-2.121,3,3-2.121,2.121-3-3Zm6.5-.5l-3-3,2.121-2.121,3,3-2.121,2.121Z"/></svg>
