<?xml version="1.0" encoding="UTF-8"?>
<svg xmlns="http://www.w3.org/2000/svg" id="Layer_1" data-name="Layer 1" viewBox="0 0 24 24">
  <path d="m19.808,17.817c-.095.031-.188.06-.279.088,1.577.945,2.471,1.974,2.471,1.974,0,0-1.984,2.062-4.928,2.078.618,1.013.883,1.763.883,1.763,0,0-3.426.774-5.955-.253-2.529,1.027-5.955.253-5.955.253,0,0,.265-.75.883-1.763-2.943-.016-4.928-2.078-4.928-2.078,0,0,.894-1.029,2.471-1.974-.091-.028-.183-.057-.279-.088-2.39-.766-4.192-3.527-4.192-3.527,0,0,1.173-.649,2.96-.979-.004-.018-.007-.036-.011-.054-.969-.158-2.033-.612-2.501-1.785-.962-2.408-.077-5.619-.077-5.619,0,0,1.207.452,2.486,1.607.004-.028.008-.056.013-.084-.635-1.05-1.186-2.486-.561-3.742C3.46,1.319,6.5.005,6.5.005c0,0,1.404,3.907-.681,7.941-.671,4.465.741,7.34,2.093,8.992,1.234,1.508,2.82,2.457,4.088,2.806,1.268-.349,2.853-1.298,4.088-2.806,1.352-1.653,2.764-4.527,2.093-8.992C16.096,3.911,17.5.005,17.5.005c0,0,3.04,1.314,4.191,3.63.624,1.257.073,2.692-.561,3.742.004.028.009.056.013.084,1.28-1.154,2.486-1.607,2.486-1.607,0,0,.885,3.211-.077,5.619-.468,1.173-1.532,1.627-2.501,1.785-.004.018-.007.036-.011.054,1.787.33,2.96.979,2.96.979,0,0-1.802,2.761-4.192,3.527Zm-3.808-6.817c0-1.023-.386-1.958-1.02-2.666.33-.534.52-1.162.52-1.834,0-1.93-1.57-3.5-3.5-3.5h-3v3h3c.275,0,.5.225.5.5s-.225.5-.5.5h-2v3h2c.552,0,1,.448,1,1s-.448,1-1,1h-3v3h3c2.206,0,4-1.794,4-4Z"/>
</svg>
