<?xml version="1.0" encoding="UTF-8"?>
<svg xmlns="http://www.w3.org/2000/svg" id="Layer_1" data-name="Layer 1" viewBox="0 0 24 24">
  <path d="m24,6.5v14.121l-3.379,3.379h-4.242l4.621-4.621v-2.997l-3.325,3.3-2.113-2.129,3.318-3.294c.195-.322.148-.746-.122-1.016-.326-.324-.851-.323-1.175,0l-3.886,3.886c.184.554.303,1.132.303,1.732v5.139h-3v-5.139c0-.658-.267-1.302-.732-1.768l-3.769-3.769c-.324-.323-.825-.404-1.14-.18-.244.173-.325.397-.35.556-.03.196.009.392.11.559l3.318,3.294-2.113,2.129-3.325-3.322v3.018l4.621,4.621H3.379l-3.379-3.379V6.5c0-1.465,1.265-2.639,2.761-2.487,1.301.132,2.239,1.326,2.239,2.633v3.458c1.258-.268,2.628.108,3.62,1.098l3.38,3.381,3.462-3.462c.958-.959,2.302-1.294,3.538-1.021v-3.455c0-1.307.939-2.501,2.239-2.633,1.495-.152,2.761,1.022,2.761,2.487Zm-14.06-1.5h4.121l-2.06,6,6-7L15,0h-2.126l1.126,3h-4l1.126-3h-2.126l-3,4,6,7-2.06-6Z"/>
</svg>
