<?xml version="1.0" encoding="UTF-8"?>
<svg xmlns="http://www.w3.org/2000/svg" id="Layer_1" data-name="Layer 1" viewBox="0 0 24 24">
  <path d="m8.007,9.526h1.044l-.363,4.221c-.031.44-.337.779-.706.779-.244,0-.471-.151-.601-.4l-.831-1.6-.831,1.6c-.129.249-.356.4-.601.4-.368,0-.675-.339-.706-.779l-.363-4.221h1.042l.249,3.158,1.209-2.327,1.209,2.327.247-3.158Zm5.253,3.158l-1.209-2.327-1.209,2.327-.249-3.158h-1.042l.363,4.221c.031.44.337.779.706.779.244,0,.471-.151.601-.4l.831-1.6.831,1.6c.129.249.356.4.601.4.368,0,.675-.339.706-.779l.363-4.221h-1.044l-.247,3.158Zm10.74-.683c0,6.617-5.383,12-12,12S0,18.617,0,12,5.383,0,12,0s12,5.383,12,12Zm-3,0c0-3.851-2.431-7.144-5.839-8.427.527.967,1.066,2.126,1.494,3.427h-3.191c-.457-1.146-.991-2.142-1.461-2.898-.469.757-1.003,1.754-1.46,2.898h-3.197c.428-1.3.967-2.46,1.494-3.427-3.408,1.283-5.839,4.576-5.839,8.427s2.431,7.144,5.839,8.427c-.527-.967-1.066-2.127-1.494-3.427h3.191c.457,1.146.991,2.142,1.461,2.898.469-.757,1.003-1.754,1.46-2.898h3.197c-.428,1.3-.967,2.46-1.494,3.427,3.408-1.283,5.839-4.576,5.839-8.427Zm-1.993-2.474l-.247,3.158-1.209-2.327-1.209,2.327-.249-3.158h-1.042l.363,4.221c.031.44.337.779.706.779.244,0,.471-.151.601-.4l.831-1.6.831,1.6c.129.249.356.4.601.4.368,0,.675-.339.706-.779l.363-4.221h-1.044Z"/>
</svg>
