<?xml version="1.0" encoding="UTF-8"?>
<svg xmlns="http://www.w3.org/2000/svg" id="Layer_1" data-name="Layer 1" viewBox="0 0 24 24">
  <path d="m22.5,20c.828,0,1.5-.672,1.5-1.5s-.672-1.5-1.5-1.5h-4.5v-1h3.5c.828,0,1.5-.672,1.5-1.5s-.672-1.5-1.5-1.5h-3.297l.45-.54c.514-.616.451-1.527-.141-2.068-.593-.542-1.506-.522-2.072.047l-2.561,2.561h-2.879V5h-1V0h-3v5h-3V0H1v5H0v11.5c0,4.136,3.364,7.5,7.5,7.5h14c.828,0,1.5-.672,1.5-1.5s-.672-1.5-1.5-1.5h-3.5v-1h4.5ZM3,8h4.636l-4.636,4.237v-4.237Zm0,8.5v-.199l5-4.57v3.092l-4.348,3.974c-.405-.675-.652-1.455-.652-2.297Zm4.5,4.5c-.531,0-1.033-.109-1.507-.279l2.923-2.672,3.25,2.95h-4.667Zm7.5-1.479l-3.86-3.503.02-.018h3.841v3.521Z"/>
</svg>
