<?xml version="1.0" encoding="UTF-8"?>
<svg xmlns="http://www.w3.org/2000/svg" id="Layer_1" data-name="Layer 1" viewBox="0 0 24 24">
  <path d="m20.5,0H3.5C1.57,0,0,1.57,0,3.5v16.5h9.002c0-.013-.002-.025-.002-.038,0-1.056.274-2.068.78-2.962H3V6.202l5.239,5.24c1.004,1.004,2.339,1.558,3.761,1.558s2.757-.553,3.761-1.558l5.239-5.24v5.016c1.04-.108,2.109.116,3,.704V3.5c0-1.93-1.57-3.5-3.5-3.5Zm-6.861,9.321c-.438.438-1.038.657-1.639.657-.601,0-1.202-.219-1.639-.657L4.04,3h15.92l-6.321,6.321Zm9.624,4.564c.981.982.981,2.581,0,3.562l-5.37,5.37c-.787.787-1.821,1.18-2.855,1.18s-2.067-.393-2.854-1.18c-.763-.762-1.183-1.776-1.183-2.855s.42-2.092,1.183-2.855l5.012-5.012,1.414,1.414-5.012,5.012c-.385.385-.597.897-.597,1.441s.212,1.056.597,1.441c.796.794,2.088.793,2.882,0l5.37-5.37c.202-.202.202-.532,0-.734-.195-.195-.537-.196-.734,0l-5.37,5.37-1.414-1.414,5.37-5.37c.951-.95,2.609-.952,3.562,0Z"/>
</svg>
