<?xml version="1.0" encoding="UTF-8"?>
<svg xmlns="http://www.w3.org/2000/svg" id="Layer_1" data-name="Layer 1" viewBox="0 0 24 24">
  <path d="M22.122,10.236l.387-1.449c.2-.708-.164-.957-.716-1.444-1.26-1.112-1.707-1.736-1.794-3.537V0C18.616,0,17.463,.942,17.116,2.217c-4.617,1.103-4.682,5.783-4.682,5.783l.065,.5h.005c-1.152,.85-2.292,1.5-3.005,1.5-1.183,0-2.193,.385-2.965,1.029-3.757,.149-5.535,2.043-5.535,5.971h3c0-1.59,.274-2.355,1.013-2.711-.003,.07-.019,.134-.019,.205,0,1.771,1.055,3.402,1.786,4.319l-.82,2.187h-1.961v3H20v-3H9.162l.551-1.473c1.269-.74,2.152-1.603,2.62-2.156,1.204-.266,3.751-1.075,5.094-3.23l1.167,.583-.297,.743-.56,.33,1.524,2.584,1.44-.85,1.703-4.257-4.405-2.203v-2.003s4.122,1.166,4.122,1.166Zm-10.805,4.275l-.677,.092-.382,.557c-.006,.009-.493,.702-1.424,1.383-.422-.605-.84-1.379-.84-2.045,.003-1.497,1.134-1.497,1.506-1.497,1.777,0,3.871-1.318,5.5-2.615v1.975c-.89,1.763-3.659,2.148-3.683,2.151Z"/>
</svg>
