<svg id="Layer_1" viewBox="0 0 24 24" xmlns="http://www.w3.org/2000/svg" data-name="Layer 1"><path d="m16.701 16.64c.181-.517.299-1.063.299-1.64 0-2.1-1.305-3.894-3.143-4.634.628 1.373 1.027 2.848 1.145 4.366-.694-.039-1.381-.186-2.044-.429-.118-1.528-.617-2.99-1.436-4.254-2.53.245-4.522 2.359-4.522 4.952 0 .31.037.61.091.905.839-1.442 1.957-2.711 3.313-3.716.32.738.513 1.529.568 2.346-1.181.925-2.085 2.123-2.681 3.465h-2.605c-.435-.911-.685-1.925-.685-3 0-3.86 3.14-7 7-7s7 3.14 7 7c0 1.075-.251 2.089-.685 3h-6.721c-.298-.093-.596-.187-.888-.303.398-.587.891-1.109 1.456-1.558 1.045.399 2.141.609 3.237.609.436 0 .871-.042 1.303-.108zm7.299-13.14v14.5h-3v-6.086l-6-6-.456.456c-.782-.23-1.607-.359-2.462-.366l1.504-1.504-1.5-1.5h-.172l-1.5 1.5 1.504 1.504c-.855.008-1.68.136-2.462.366l-.456-.456-6 6v6.086h-3v-14.5c0-1.93 1.57-3.5 3.5-3.5h17c1.93 0 3.5 1.57 3.5 3.5zm-19.414 4-1.586-1.586v3.172zm1.5-4.5h-2.586c-.16 0-.297.08-.388.198l2.888 2.888 1.586-1.586zm11.914 3.086 2.888-2.888c-.092-.117-.228-.198-.388-.198h-2.586l-1.5 1.5zm3 3v-3.172l-1.586 1.586zm1.592 10.914h-3.184c-.207.581-.757 1-1.408 1s-1.201-.419-1.408-1h-3.184c-.207.581-.757 1-1.408 1s-1.201-.419-1.408-1h-3.184c-.207.581-.757 1-1.408 1s-1.201-.419-1.408-1h-3.184c-.207.581-.757 1-1.408 1v3c1.157 0 2.202-.451 3-1.17.798.72 1.843 1.17 3 1.17s2.202-.451 3-1.17c.798.72 1.843 1.17 3 1.17s2.202-.451 3-1.17c.798.72 1.843 1.17 3 1.17s2.202-.451 3-1.17c.798.72 1.843 1.17 3 1.17v-3c-.651 0-1.201-.419-1.408-1z"/></svg>