<?xml version="1.0" encoding="UTF-8"?>
<svg xmlns="http://www.w3.org/2000/svg" id="Layer_1" data-name="Layer 1" viewBox="0 0 24 24">
  <path d="m24,11C24,4.729,18.841,0,12,0S0,4.729,0,11v.621l7,7v3.379c0,1.105.895,2,2,2h6c1.105,0,2-.895,2-2v-3.379l7-7v-.621Zm-8.656,5.035c-.012-.002,1.601-4.302,1.601-4.302l.251-.326c.3-.392,1.3-1.407,2.305-1.407.538,0,.963.32,1.251.627l-5.407,5.407ZM3.249,10.627c.288-.307.713-.627,1.251-.627,1.005,0,2.004,1.015,2.3,1.4l.259.343,1.633,4.288c-.012.002-.024.002-.036.004l-5.407-5.407Zm8.642,5.373l-1.96-5.146c.608-.426,1.395-.854,2.069-.854s1.462.428,2.07.854l-1.961,5.146h-.218Zm-1.89-8.585c.521-1.601,1.345-2.864,1.999-3.69.654.827,1.478,2.09,1.999,3.69-.622-.245-1.298-.415-1.999-.415s-1.377.17-1.999.415Zm9.921-.375c-.141-.014-.275-.04-.422-.04-.882,0-1.668.257-2.337.607-.363-1.578-.976-2.933-1.628-4.031,1.915.666,3.44,1.881,4.388,3.464Zm-11.457-3.464c-.652,1.099-1.265,2.453-1.628,4.031-.67-.35-1.456-.607-2.337-.607-.147,0-.282.026-.422.04.948-1.583,2.473-2.798,4.388-3.464Zm6.534,17.424h-2v2h-2v-2h-2v-2h2v-2h2v2h2v2Z"/>
</svg>
