<?xml version="1.0" encoding="UTF-8"?>
<svg xmlns="http://www.w3.org/2000/svg" id="Layer_1" data-name="Layer 1" viewBox="0 0 24 24">
  <path d="M24,2.5c0,1.381-1.119,2.5-2.5,2.5s-2.5-1.119-2.5-2.5,1.119-2.5,2.5-2.5,2.5,1.119,2.5,2.5Zm-4.434,7.177c1.098-1.585,.702-3.771-.883-4.871-.801-.555-1.781-.837-2.676-.806h-4.244l-3.541,4.583,2.373,1.834,2.641-3.417h2.102s-2.73,3.936-2.73,3.936c-.533,.768-.735,1.698-.568,2.618,.166,.92,.682,1.719,1.45,2.252h0s4.512,3.132,4.512,3.132v5.062h3v-6.63l-4.569-3.173,3.135-4.521Zm-12.066,3.323H2c-.484,.024-.745,.578-.458,.967l1.218,1.649-2.761,.895,1.844,2.296,4.087-1.367c.391-.139,.537-.617,.29-.951l-1.226-1.66,2.88-1.323-.375-.507Zm-1.279-5.49c.247-.334,.101-.811-.29-.951L1.844,5.193,0,7.489l2.761,.895-1.218,1.649c-.288,.39-.026,.943,.458,.967H7.5l.375-.507-2.88-1.323,1.226-1.66Zm6.129,9.94c-.539-.374-.983-.841-1.35-1.36v2.41l-2.7,3.6,2.4,1.801,3.3-4.4v-.92l-.007,.01-1.644-1.14Z"/>
</svg>
