<?xml version="1.0" encoding="UTF-8"?>
<svg xmlns="http://www.w3.org/2000/svg" id="Layer_1" data-name="Layer 1" viewBox="0 0 24 24">
  <path d="m24,21c0,1.657-1.343,3-3,3s-3-1.343-3-3,1.343-3,3-3,3,1.343,3,3Zm-4-13.499v-3.001c0-2.481-2.019-4.5-4.5-4.5h-4.398c-2.226,0-4.141,1.661-4.455,3.864l-2.448,17.141-4.204.018.012,3,6.796-.027,2.815-19.707c.104-.734.743-1.288,1.484-1.288h4.398c.827,0,1.5.673,1.5,1.5v2.5h-4v17h4.023c-.633-.838-1.023-1.869-1.023-3v-11h1.5c1.93,0,3.5,1.57,3.5,3.5v2.5c1.131,0,2.162.39,3,1.023v-3.523c0-2.698-1.654-5.017-4-5.999Z"/>
</svg>
