<?xml version="1.0" encoding="UTF-8"?>
<svg xmlns="http://www.w3.org/2000/svg" id="Layer_1" data-name="Layer 1" viewBox="0 0 24 24">
  <path d="m21,15v-.5c0-.276-.225-.5-.5-.5h-1c-.275,0-.5.224-.5.5,0,.294.177.555.45.665l2.214.886c1.419.567,2.336,1.922,2.336,3.45,0,1.58-1.059,2.903-2.5,3.337v1.163h-3v-1.163c-1.441-.434-2.5-1.757-2.5-3.337v-.5h3v.5c0,.276.225.5.5.5h1c.275,0,.5-.224.5-.5,0-.294-.177-.555-.45-.665l-2.214-.886c-1.419-.567-2.336-1.922-2.336-3.45,0-1.58,1.059-2.903,2.5-3.337v-1.163h3v1.163c1.441.434,2.5,1.757,2.5,3.337v.5h-3ZM2,19v5h3v-5c0-1.103.897-2,2-2h7v-3h-7c-2.757,0-5,2.243-5,5Zm15-13c0,3.309-2.691,6-6,6s-6-2.691-6-6S7.691,0,11,0s6,2.691,6,6Zm-3,0c0-1.654-1.346-3-3-3s-3,1.346-3,3,1.346,3,3,3,3-1.346,3-3Z"/>
</svg>
