<?xml version="1.0" encoding="UTF-8"?>
<svg xmlns="http://www.w3.org/2000/svg" id="Layer_1" data-name="Layer 1" viewBox="0 0 24 24">
  <path d="m16.531,7c1.93,0,3.5,1.57,3.5,3.5v3.5h-1.03l-1.97-1.97v-1.53c0-.276-.224-.5-.5-.5h-1.601c-.25-1.226-.96-2.278-1.93-3h3.531Zm-6.531,1c-1.654,0-3,1.346-3,3s1.346,3,3,3c.073,0,.142-.016.214-.022.22-.756.603-1.452,1.168-2.016l1.558-1.558c-.277-1.37-1.49-2.404-2.94-2.404Zm.032,7h-2.532c-1.93,0-3.5,1.57-3.5,3.5v3.5h3v-3.5c0-.276.224-.5.5-.5h3.022c-.331-.892-.522-1.793-.522-2.665,0-.114.024-.222.032-.335Zm11.256,4.115h0s-1.775,1.774-1.775,1.774c-2.027-.773-3.521-2.208-4.403-4.403l1.775-1.775-2.712-2.712-1.378,1.378c-.54.539-.795,1.249-.795,1.957,0,3.914,5.032,8.665,8.665,8.665.708,0,1.418-.256,1.957-.795l1.378-1.378-2.712-2.712ZM5,6c1.654,0,3-1.346,3-3S6.654,0,5,0s-3,1.346-3,3,1.346,3,3,3Zm10,0c1.654,0,3-1.346,3-3s-1.346-3-3-3-3,1.346-3,3,1.346,3,3,3Zm-7.969,1h-3.531c-1.93,0-3.5,1.57-3.5,3.5v3.5h3v-3.5c0-.276.224-.5.5-.5h1.601c.25-1.226.96-2.278,1.93-3Z"/>
</svg>
