<svg id="Layer_1" viewBox="0 0 24 24" xmlns="http://www.w3.org/2000/svg" data-name="Layer 1"><path d="m12 12c3.309 0 6-2.691 6-6h2v-3h-2.667l-.805-1.812c-.321-.722-1.037-1.188-1.828-1.188h-5.401c-.79 0-1.507.465-1.828 1.188l-.805 1.812h-2.666v3h2c0 3.309 2.691 6 6 6zm0-3c-1.654 0-3-1.346-3-3h6c0 1.654-1.346 3-3 3zm1.5 12c0 .829-.671 1.5-1.5 1.5s-1.5-.671-1.5-1.5.671-1.5 1.5-1.5 1.5.671 1.5 1.5zm7.5-1.5v4.5h-5v-4.5c0-.828-.672-1.5-1.5-1.5h-.5l-.5-1h-3l-.5 1h-.5c-.828 0-1.499.672-1.499 1.5v4.5h-5.001v-4.5c0-3.032 2.468-5.5 5.5-5.5h7c3.032 0 5.5 2.468 5.5 5.5z"/></svg>