<svg id="Layer_1" viewBox="0 0 24 24" xmlns="http://www.w3.org/2000/svg" data-name="Layer 1"><path d="m20.5 11h-17c-1.93 0-3.5 1.57-3.5 3.5v9.5h24v-9.5c0-1.93-1.57-3.5-3.5-3.5zm.5 10h-18v-6.5c0-.275.224-.5.5-.5h17c.275 0 .5.225.5.5zm-12.043-4.543-1.043 1.043 1.043 1.043-1.414 1.414-1.043-1.043-1.043 1.043-1.414-1.414 1.043-1.043-1.043-1.043 1.414-1.414 1.043 1.043 1.043-1.043zm5.5 0-1.043 1.043 1.043 1.043-1.414 1.414-1.043-1.043-1.043 1.043-1.414-1.414 1.043-1.043-1.043-1.043 1.414-1.414 1.043 1.043 1.043-1.043zm5.5 0-1.043 1.043 1.043 1.043-1.414 1.414-1.043-1.043-1.043 1.043-1.414-1.414 1.043-1.043-1.043-1.043 1.414-1.414 1.043 1.043 1.043-1.043zm-12.907-11.407-2.121-2.121c1.889-1.889 4.4-2.929 7.071-2.929s5.183 1.04 7.071 2.929l-2.121 2.121c-1.322-1.322-3.08-2.05-4.95-2.05s-3.627.728-4.95 2.05zm4.95-.05c1.336 0 2.592.52 3.535 1.464l-2.121 2.121c-.756-.755-2.073-.755-2.829 0l-2.121-2.122c.945-.944 2.2-1.464 3.536-1.464z"/></svg>