<svg id="Layer_1" viewBox="0 0 24 24" xmlns="http://www.w3.org/2000/svg" data-name="Layer 1"><path d="m24 9.5c0 .828-.672 1.5-1.5 1.5-.679 0-1.246-.454-1.431-1.073l-1.133-.654c-.275.235-.589.42-.936.543v3.184h-2v-3.184c-.347-.124-.661-.309-.936-.543l-1.115.644c-.166.648-.749 1.13-1.448 1.13-.828 0-1.5-.672-1.5-1.5s.672-1.5 1.5-1.5c.183 0 .356.037.518.098l1.037-.599c-.033-.177-.055-.358-.055-.545s.022-.368.055-.545l-2.751-1.588 1-1.732 2.76 1.593c.275-.235.589-.419.936-.543v-1.573c-.305-.275-.5-.668-.5-1.111 0-.828.672-1.5 1.5-1.5s1.5.672 1.5 1.5c0 .443-.195.836-.5 1.111v1.573c.347.124.661.308.936.543l2.76-1.593 1 1.732-2.751 1.588c.033.177.055.359.055.545s-.022.368-.055.545l.985.569c.176-.073.368-.114.57-.114.828 0 1.5.672 1.5 1.5zm-8.67 5.034c-.953.879-2.098 1.466-3.33 1.466-3.312 0-6-4.235-6-7 0-.854.002-2.518 4.056-2.914.126-1.107.48-2.143 1.011-3.066-2.951.113-5.096.777-6.431 1.98h-1.136c-.276 0-.5-.225-.5-.5v-4.5h-3v4.5c0 1.787 1.352 3.25 3.085 3.458-.051.332-.085.676-.085 1.042 0 4.064 3.235 8.872 7.5 9.82v5.18h3v-5.185c2.189-.487 4.109-1.977 5.457-3.878-.314.038-.632.062-.957.062-.938 0-1.833-.17-2.67-.466z"/></svg>