<?xml version="1.0" encoding="UTF-8"?>
<svg xmlns="http://www.w3.org/2000/svg" id="Layer_1" data-name="Layer 1" viewBox="0 0 24 24">
  <path d="M24,3H13.5V0h-3V3H0v3H3.8L1.148,17.272c-.387,1.646-.007,3.349,1.042,4.674,1.05,1.325,2.621,2.085,4.316,2.085l10.994-.032c1.69,0,3.262-.76,4.312-2.085s1.43-3.029,1.042-4.674l-2.644-11.241h3.791V3ZM10.5,21.02l-3.998,.012c-.769,0-1.483-.346-1.96-.948-.468-.591-.639-1.349-.478-2.083h6.437v3.02Zm0-6.02H4.764l.706-3h5.03v3Zm0-6H6.176l.706-3h3.618v3Zm3-3h3.628l.706,3h-4.333v-3Zm0,6h5.039l.706,3h-5.745v-3Zm5.96,8.052c-.478,.602-1.191,.948-1.964,.948l-3.996,.012v-3.012h6.442c.148,.725-.021,1.469-.482,2.052Z"/>
</svg>
