<?xml version="1.0" encoding="UTF-8"?>
<svg xmlns="http://www.w3.org/2000/svg" id="Layer_1" data-name="Layer 1" viewBox="0 0 24 24">
  <path d="m14,9.5c0-.828.672-1.5,1.5-1.5s1.5.672,1.5,1.5-.672,1.5-1.5,1.5-1.5-.672-1.5-1.5Zm-5.5,1.5c.828,0,1.5-.672,1.5-1.5s-.672-1.5-1.5-1.5-1.5.672-1.5,1.5.672,1.5,1.5,1.5Zm3.5,2c-2.09,0-3.816-.835-3.834-.844l-1.337,2.686c.095.047,2.35,1.158,5.171,1.158s5.076-1.111,5.171-1.158l-1.337-2.686c-.018.009-1.744.844-3.834.844Zm12-4v6h-2.003l-.003,7.125c0,1.031-.838,1.871-1.867,1.871-.512,0-.81-.192-.81-.192l-5.255-2.803H2v-6H0v-6h2v-2.5c0-1.93,1.57-3.5,3.5-3.5h5V0h3v3h5c1.93,0,3.5,1.57,3.5,3.5v2.5s2,0,2,0Zm-5-2.5c0-.276-.225-.5-.5-.5H5.5c-.275,0-.5.224-.5.5v11.5h9.812l4.183,2.231.005-13.731Z"/>
</svg>
