<?xml version="1.0" encoding="UTF-8"?>
<svg xmlns="http://www.w3.org/2000/svg" id="Layer_1" data-name="Layer 1" viewBox="0 0 24 24">
  <path d="M11.75,11.973l.217-.003c1.109,0,2.012-.891,2.012-1.985s-.902-1.985-2.012-1.985h-1.467v6h1.25v-2.027Zm.217-2.723c.413,0,.762,.336,.762,.735s-.349,.735-.762,.735l-.21,.003-.005-1.473h.215Zm3.813,4.75h-1.28v-6h1.28v.006l1.44,3.041v-3.047h1.28v6h-1.28l-1.44-3.041v3.041Zm6.22,2V3H2v13H0v2c0,1.657,1.343,3,3,3H21c1.657,0,3-1.343,3-3v-2h-2Zm-3,0h-3.308l-.923,1h-5.538l-.923-1h-3.308V6h14v10Zm-12.464-3.148l-1.036-4.852h1.31l.94,4.55,.94-4.55h1.261l-.981,4.819c-.094,.485-.481,1.181-1.221,1.181s-1.132-.727-1.214-1.148Z"/>
</svg>
