<?xml version="1.0" encoding="UTF-8"?>
<svg xmlns="http://www.w3.org/2000/svg" id="Layer_1" data-name="Layer 1" viewBox="0 0 24 24">
  <path d="m22.978,10.577c-.07-.024-1.755-.577-3.473-.577-2.737,0-4.799,2.389-5.504,3.327-.618-.193-1.288-.327-2.001-.327-.742,0-1.414.115-2.021.295.039-.476.054-.939.055-1.391,2.816-.492,4.965-2.949,4.965-5.904,0-3.309-2.691-6-6-6S3,2.691,3,6c0,.641.103,1.257.29,1.836C.449,12.251.004,16.231.004,17.973c.161.23,4.308,6.027,12,6.027,7.469,0,11.317-3.224,11.477-3.361l.523-.449v-9.272l-1.027-.341ZM9,3c1.654,0,3,1.346,3,3s-1.346,3-3,3-3-1.346-3-3,1.346-3,3-3Zm12.005,15.725c-1.152.728-4.17,2.275-9,2.275-5.108,0-8.085-2.95-8.983-4,.077-1.226.487-3.512,2.12-6.413.555.467,1.196.833,1.895,1.076.013,1.362-.114,2.823-.692,4.025-.125.148-.2.251-.215.271l2.441,1.744c.051-.07,1.278-1.704,3.43-1.704,1.829,0,3.435,1.551,3.45,1.567l2.114-2.129c-.034-.034-.346-.332-.843-.702.65-.745,1.747-1.736,2.783-1.736.522,0,1.058.077,1.5.165v5.56Z"/>
</svg>
