<?xml version="1.0" encoding="UTF-8"?>
<svg xmlns="http://www.w3.org/2000/svg" id="Layer_1" data-name="Layer 1" viewBox="0 0 24 24">
  <path d="M17.5,3h-3.5V0h3.5c1.93,0,3.5,1.57,3.5,3.5v2.5h3l-3.793,3.707c-.391,.391-1.024,.391-1.414,0l-3.793-3.707h3V3.5c0-.275-.224-.5-.5-.5Zm-5.5,8H4.827c-.096,.047-2.565,1.71-2.656,1.766-.882,.628-2.205-.082-2.171-1.162V2C0,.895,.895,0,2,0H10c1.105,0,2,.895,2,2V11ZM9.5,2.5h-2.873V1.5h-1.253v1H2.5v1.253H7.308c-.111,.963-.484,2.151-1.303,3.071-.36-.405-.644-.857-.847-1.325h-1.336c.265,.751,.668,1.487,1.223,2.123-.664,.403-1.495,.661-2.545,.661v1.253c1.462,0,2.615-.413,3.512-1.053,.894,.636,2.033,1.053,3.488,1.053v-1.253c-1.049,0-1.876-.262-2.539-.665,.99-1.135,1.485-2.591,1.607-3.866h.932v-1.253Zm8.559,11.4c-.038,0-.071,.026-.079,.063l-.811,3.437h1.757l-.787-3.437c-.009-.037-.041-.063-.079-.063Zm5.941-.9v9.604c.034,1.081-1.289,1.79-2.171,1.162-.091-.055-2.564-1.721-2.656-1.766h-7.173V13c0-1.105,.895-2,2-2h8c1.105,0,2,.895,2,2Zm-2.927,7.5l-1.559-6.804c-.267-1.569-2.627-1.535-2.898-.049l-1.616,6.853h1.437l.401-1.7h2.409l.389,1.7h1.437Z"/>
</svg>
