<svg id="Layer_1" viewBox="0 0 24 24" xmlns="http://www.w3.org/2000/svg" data-name="Layer 1"><path d="m10.524 20.838c.321.845.779 1.623 1.35 2.303-.638.306-1.33.567-1.938.816l-.985-.494c-2.1-1.05-8.951-4.984-8.951-11.499v-6.162c0-1.46.933-2.751 2.321-3.212l7.679-2.545 7.679 2.545c1.389.461 2.321 1.752 2.321 3.212v4.46c-.64-.165-1.308-.262-2-.262-.339 0-.672.028-1 .069v-4.267c0-.168-.104-.311-.266-.364l-6.734-2.232-6.734 2.232c-.159.053-.266.199-.266.364v6.162c.11 4.887 5.441 7.969 7.524 8.874zm2.976-12.238v.4h1.5v1.587c-2.634 1.067-4.566 3.495-4.931 6.413h-3.069c-1.105 0-2-.895-2-2v-6h1.5v-.5c0-2.17 1.985-3.885 4.235-3.425 1.636.335 2.765 1.854 2.765 3.525zm-2.5 3.4h-2v2h2zm0-3.5c0-.551-.449-1-1-1s-1 .449-1 1v.5h2zm11.418 10.313 1.53.882-1.498 2.6-1.543-.889c-.413.353-.886.632-1.407.818v1.776h-3v-1.776c-.522-.186-.994-.464-1.407-.818l-1.543.889-1.498-2.6 1.53-.882c-.049-.265-.082-.535-.082-.813s.034-.549.082-.813l-1.53-.882 1.498-2.6 1.543.889c.413-.353.886-.632 1.407-.818v-1.776h3v1.776c.522.186.994.464 1.407.818l1.543-.889 1.498 2.6-1.53.882c.049.265.082.535.082.813s-.034.549-.082.813zm-2.918-.813c0-.827-.673-1.5-1.5-1.5s-1.5.673-1.5 1.5.673 1.5 1.5 1.5 1.5-.673 1.5-1.5z"/></svg>