<?xml version="1.0" encoding="UTF-8"?>
<svg xmlns="http://www.w3.org/2000/svg" id="Layer_1" data-name="Layer 1" viewBox="0 0 24 24">
  <path d="m24.021,0h-9.284l-2.741,5.541L9.261,0H-.021l4.768,9.662c-1.104,1.494-1.758,3.341-1.758,5.338,0,4.963,4.037,9,9,9s9-4.037,9-9c0-1.994-.652-3.838-1.753-5.331L24.021,0Zm-4.832,3l-2.228,4.501c-.641-.426-1.339-.773-2.081-1.025l1.72-3.476h2.589Zm-11.793,0l1.714,3.472c-.743.252-1.443.598-2.085,1.025l-2.219-4.497h2.59Zm4.594,18c-3.309,0-6-2.691-6-6s2.691-6,6-6,6,2.691,6,6-2.691,6-6,6Zm.605-4h2.405v2h-6v-1c0-1.283,1.221-1.965,2.298-2.565.758-.423,1.702-.95,1.702-1.435,0-.552-.448-1-1-1s-1,.448-1,1h-2c0-1.654,1.346-3,3-3s3,1.346,3,3c0,1.515-1.261,2.35-2.405,3Z"/>
</svg>
