<?xml version="1.0" encoding="UTF-8"?>
<svg xmlns="http://www.w3.org/2000/svg" id="Layer_1" data-name="Layer 1" viewBox="0 0 24 24">
  <path d="m24,14h-1.696c-.843,4.352-4.382,7.743-8.804,8.38v1.62h-3v-1.62c-4.421-.637-7.96-4.028-8.804-8.38H0v-3h1.552c.39-4.094,3.143-7.504,6.876-8.861l-2.928,4.996s-.799,1.112-.965,3.865h1.465v3h-1.221c.747,2.694,2.956,4.785,5.721,5.349v-1.349h3v1.349c2.765-.563,4.974-2.655,5.721-5.349h-1.221v-3h1.465c-.166-2.752-.965-3.865-.965-3.865l-2.928-4.996c3.733,1.357,6.486,4.767,6.876,8.861h1.552v3ZM6.91,9.704c.267.483.876.658,1.359.391l3.731-1.61,3.75,1.592c.303.168.672.167.974-.004.481-.271.652-.881.381-1.362L12,0l-5.087,8.73c-.17.302-.171.671-.004.974Z"/>
</svg>
