<svg id="Layer_1" viewBox="0 0 24 24" xmlns="http://www.w3.org/2000/svg" data-name="Layer 1"><path d="m23.111 14.749-6.687-11.175c-.981-1.636-2.608-2.574-4.464-2.574-1.871 0-3.504.938-4.485 2.575l-6.686 11.174c-1.005 1.682-1.053 3.718-.128 5.447.938 1.756 2.661 2.804 4.609 2.804h13.36c1.926 0 3.913-1.283 4.831-3.121.821-1.643.703-3.368-.35-5.13zm-8.174 5.251h-5.974v-3h5.974zm5.854-1.467c-.404.809-1.373 1.467-2.161 1.467h-.706v-6h-11.948v6h-.706c-.841 0-1.563-.445-1.978-1.223-.422-.789-.4-1.718.058-2.483l6.687-11.174c.432-.723 1.115-1.12 1.923-1.12.818 0 1.459.377 1.904 1.12l6.686 11.173c.616 1.029.542 1.64.241 2.24z"/></svg>