<?xml version="1.0" encoding="UTF-8"?>
<svg xmlns="http://www.w3.org/2000/svg" id="Layer_1" data-name="Layer 1" viewBox="0 0 24 24">
  <path d="M15.864,11.249l-4.298,5.751h-1.066l1.056-4h-2.735c-.55,0-.944-.531-.785-1.058l2.139-5.942h3.825l-1.523,4h2.717c.642,0,1.025,.715,.67,1.249Zm7.517,2.349c.403,.73,.618,1.552,.618,2.401,0,1.833-1.029,3.52-2.619,4.385-1.14,2.398-2.947,3.613-5.381,3.613-1.419,0-2.923-.614-4-1.647-1.077,1.033-2.581,1.647-4,1.647-2.434,0-4.241-1.215-5.381-3.613-1.59-.865-2.619-2.552-2.619-4.385,0-.849,.215-1.671,.618-2.401C.18,12.815-.049,11.947-.049,11.045c0-1.12,.369-2.635,2-3.857v-.188c0-1.868,1.299-3.36,3.179-3.838,.513-1.85,2.068-3.162,3.958-3.162,1.12,0,2.133,.393,2.912,1.019,.779-.626,1.792-1.019,2.912-1.019,1.89,0,3.445,1.312,3.958,3.162,1.88,.478,3.179,1.97,3.179,3.838v.188c1.631,1.222,2,2.738,2,3.857,0,.902-.229,1.77-.667,2.553Zm-4.004-.086l1.208-1.105c.225-.302,.463-.764,.463-1.362,0-.486-.141-1.123-1.234-1.738l-.766-.43v-1.878c0-.791-.981-1-1.5-1h-1.5v-1.5c0-.727-.398-1.5-1.137-1.5-.668,0-1.412,.411-1.412,1h-3c0-.589-.744-1-1.412-1-.738,0-1.137,.773-1.137,1.5v1.5h-1.5c-.519,0-1.5,.209-1.5,1v1.877l-.765,.43c-1.095,.615-1.235,1.252-1.235,1.738,0,.598,.238,1.06,.463,1.362l1.208,1.105-1.062,1.108c-.361,.377-.561,.868-.561,1.38,0,.833,.509,1.563,1.297,1.862l.614,.232,.246,.609c.656,1.63,1.48,2.295,2.843,2.295,1.215,0,2.5-1.027,2.5-1.999h3c0,.971,1.285,1.999,2.5,1.999,1.362,0,2.187-.665,2.843-2.295l.246-.609,.614-.232c.788-.298,1.297-1.029,1.297-1.862,0-.512-.199-1.002-.561-1.38l-1.062-1.108Z"/>
</svg>
