<?xml version="1.0" encoding="UTF-8"?>
<svg xmlns="http://www.w3.org/2000/svg" id="Layer_1" data-name="Layer 1" viewBox="0 0 24 24">
  <path d="m7.502,17.351l1.929,2.299-3.375,2.831-.943-.662C1.911,19.569,0,15.898,0,12,0,5.383,5.383,0,12,0s12,5.383,12,12c0,1.984-.5,3.907-1.409,5.616l-1.914-3.282c.204-.754.323-1.536.323-2.334,0-4.963-4.038-9-9-9S3,7.037,3,12c0,2.543,1.086,4.957,2.95,6.653l1.552-1.303Zm1.083-10.937l-2.121,2.121,3.544,3.544c.042,1.067.915,1.921,1.992,1.921,1.105,0,2-.895,2-2,0-1.039-.796-1.884-1.81-1.981l-3.605-3.605Zm8.415,5.586l7,12h-14l7-12Zm1,9h-2v2h2v-2Zm0-5h-2v4h2v-4Z"/>
</svg>
