<?xml version="1.0" encoding="UTF-8"?>
<svg xmlns="http://www.w3.org/2000/svg" id="Layer_1" data-name="Layer 1" viewBox="0 0 24 24">
  <path d="m24.025,14.904l-4.283-4.283,3.232-3.232c1.365-1.365,1.365-3.585,0-4.95l-1.414-1.414c-1.322-1.322-3.629-1.321-4.949,0l-3.232,3.232L9.11-.011,2.739,6.36l3.98,3.98c-.133-.007-.264-.019-.398-.019-1.966,0-3.813.766-5.203,2.155L.058,13.537l4.142,4.142-1.582,1.582,2.121,2.121,1.582-1.582,4.142,4.142,1.061-1.061c1.39-1.39,2.155-3.237,2.155-5.203,0-.134-.012-.266-.019-.399l3.995,3.995,6.371-6.371Zm-4.242,0l-2.129,2.129-2.162-2.162,2.129-2.129,2.162,2.162Zm-1.05-11.758c.127-.127.275-.146.353-.146s.226.019.354.146l1.414,1.414c.195.195.195.512,0,.708l-8.379,8.378c-.274-.417-.591-.809-.951-1.17s-.753-.677-1.17-.951L18.733,3.146Zm-9.623,1.085l2.147,2.147-2.129,2.129-2.147-2.147,2.129-2.129Zm1.166,15.282l-5.79-5.791c.567-.263,1.19-.402,1.835-.402,1.164,0,2.258.453,3.081,1.276s1.276,1.918,1.276,3.082c0,.644-.139,1.267-.402,1.834Z"/>
</svg>
