<svg id="Layer_1" viewBox="0 0 24 24" xmlns="http://www.w3.org/2000/svg" data-name="Layer 1"><path d="m22.526 18c0-.279-.034-.549-.082-.813l1.53-.882-1.498-2.6-1.543.889c-.413-.353-.886-.632-1.407-.818v-1.776h-3v1.776c-.522.186-.994.464-1.407.818l-1.543-.889-1.498 2.6 1.53.882c-.049.265-.082.535-.082.813s.034.549.082.813l-1.53.882 1.498 2.6 1.543-.889c.413.353.886.632 1.407.818v1.776h3v-1.776c.522-.186.994-.464 1.407-.818l1.543.889 1.498-2.6-1.53-.882c.049-.265.082-.535.082-.813zm-4.5 1.5c-.827 0-1.5-.673-1.5-1.5s.673-1.5 1.5-1.5 1.5.673 1.5 1.5-.673 1.5-1.5 1.5zm-6.026-1.5h-1.972c.008 1.547.433 3.013 1.238 4.28l-2.532 1.607c-1.117-1.759-1.708-3.795-1.708-5.888h-2.097l3.536-3.536 3.536 3.536zm-8.974 1.5v-6.499c1.554.659 3.53.999 5.5.999.916 0 1.834-.073 2.711-.217 1.245-2 3.343-3.408 5.789-3.713v-2.069-3.5c0-2.955-4.276-4.501-8.5-4.501s-8.5 1.546-8.5 4.5v15c0 2.464 2.977 3.945 6.416 4.369-.516-1.014-.913-2.098-1.149-3.243-1.402-.359-2.169-.88-2.267-1.126zm5.5-16.5c3.421 0 5.288 1.076 5.486 1.482-.224.456-2.085 1.518-5.486 1.518-3.42 0-5.286-1.075-5.486-1.482.223-.456 2.084-1.518 5.486-1.518zm-5.5 5.001c1.554.659 3.53.999 5.5.999s3.948-.341 5.501-1l.002 1.458c-.173.443-2.049 1.542-5.503 1.542-3.465 0-5.343-1.106-5.5-1.5z"/></svg>