<svg id="Layer_1" viewBox="0 0 24 24" xmlns="http://www.w3.org/2000/svg" data-name="Layer 1"><path d="m18 11h-2c0-1.103-.897-2-2-2h-4c-1.103 0-2 .897-2 2h-2c-1.654 0-3 1.346-3 3v10h18v-10c0-1.654-1.346-3-3-3zm-12 10v-5h4.5v2h3v-2h4.5v5zm9.957-17h-2.457v3h-3v-3h-2.543l3.372-3.295c.347-.347.91-.347 1.257 0zm5.543 2v4.438c-.789-.776-1.839-1.27-3-1.388v-3.051h-2.5l3.372-3.295c.347-.347.91-.347 1.257 0l3.371 3.295h-2.5zm-13.5 0h-2.5v3.051c-1.161.118-2.211.612-3 1.388v-4.439h-2.5l3.372-3.295c.347-.347.91-.347 1.257 0z"/></svg>