<?xml version="1.0" encoding="UTF-8"?>
<svg xmlns="http://www.w3.org/2000/svg" id="Layer_1" data-name="Layer 1" viewBox="0 0 24 24">
  <path d="m24,8.5c0-2.589-2.416-6.32-6.225-6.493-1.152-.393-6.218-2.007-11.775-2.007v3c2.281,0,4.503.308,6.345.677-1.568.689-3.45,1.323-6.345,1.323v3c2.538,0,4.474-.435,6.02-.972-.013.156-.02.313-.02.472,0,.52.073,1.023.208,1.5h-4.708c-1.369,0-2.64.426-3.689,1.151-.319-.68-1.01-1.151-1.811-1.151-1.105,0-2,.895-2,2,0,.941.65,1.729,1.525,1.943-.337.785-.525,1.65-.525,2.557,0,3.584,2.916,6.5,6.5,6.5,1.103,0,2,.897,2,2h10.5v-3h-3.266l3.409-8.332c2.16-.578,3.857-1.927,3.857-4.168Zm-3,0c0,1.034-2.047,1.5-3.5,1.5-1.378,0-2.5-1.121-2.5-2.5s1.122-2.5,2.5-2.5c2.137,0,3.5,2.298,3.5,3.5Zm-13.5,10.5c-1.93,0-3.5-1.57-3.5-3.5s1.57-3.5,3.5-3.5h6.842c.71.5,1.542.836,2.443.954l-2.831,6.921c-.437-5.08-3.859-5.875-5.953-5.875v3c1.468,0,2.832.43,2.985,3.419-.901-.878-2.131-1.419-3.485-1.419Z"/>
</svg>
