<svg id="Layer_1" viewBox="0 0 24 24" xmlns="http://www.w3.org/2000/svg" data-name="Layer 1"><path d="m21 22.5v1.5h-3v-1.5c0-.827-.673-1.5-1.5-1.5h-9c-.827 0-1.5.673-1.5 1.5v1.5h-3v-1.5c0-2.481 2.019-4.5 4.5-4.5h9c2.481 0 4.5 2.019 4.5 4.5zm-12.859-8.5h-2.141l-.025-8c0-1.105.895-2 2-2h8c1.105 0 2 .895 2 2l.018 6h-3.372c-.703-.615-1.613-1-2.62-1-1.862 0-3.413 1.278-3.859 3zm4.859-5.5c0 .828.672 1.5 1.5 1.5s1.5-.672 1.5-1.5-.672-1.5-1.5-1.5-1.5.672-1.5 1.5zm-5 0c0 .828.672 1.5 1.5 1.5s1.5-.672 1.5-1.5-.672-1.5-1.5-1.5-1.5.672-1.5 1.5zm8-8.5h-8c-3.309 0-6 2.691-6 6v6h3v-6c0-1.654 1.346-3 3-3h8c1.654 0 3 1.346 3 3v5.5c0 1.378-1.121 2.5-2.5 2.5h-2.777c-.346-.595-.984-1-1.723-1-1.105 0-2 .895-2 2s.895 2 2 2h4.5c3.032 0 5.5-2.467 5.5-5.5v-5.5c0-3.309-2.691-6-6-6z"/></svg>