<svg id="Layer_1" viewBox="0 0 24 24" xmlns="http://www.w3.org/2000/svg" data-name="Layer 1"><path d="m10.2 21h-7.2v-11.5c0-.276.224-.5.5-.5h2.8l4 2h7.7v-7.279l-3.755-3.721h-6.617c-2.035 0-3.628 1.538-3.628 3.5v2.5h-.5c-1.93 0-3.5 1.57-3.5 3.5v14.5h14.35c-1.44-.974-2.896-1.833-4.15-3zm-2.572-18h5.372v2h2v3h-3.992l-4-2-.008-2.5c0-.299.252-.5.628-.5zm15.316 14.993c-.519 2.458-1.896 4.503-3.077 5.886-.904-.234-1.772-.515-2.604-.844.621-1.185 1.237-2.798 1.237-4.536-1.726 2.157-3.82 2.824-4.363 2.967-1.24-.763-2.386-1.649-3.427-2.674 1.456-1.248 2.941-2.873 4.066-4.603.738-1.135 2.214-1.522 3.406-.88l.333.18 2.624-5.623 2.719 1.269-2.697 5.78.466.251c1.015.547 1.555 1.701 1.316 2.829z"/></svg>