<?xml version="1.0" encoding="UTF-8"?>
<svg xmlns="http://www.w3.org/2000/svg" id="Layer_1" data-name="Layer 1" viewBox="0 0 24 24">
  <path d="m21,19.911v-7.911c0-4.962-4.037-9-9-9S3,7.038,3,12v7.911c-1.861-2.115-3-4.879-3-7.911C0,5.383,5.383,0,12,0s12,5.383,12,12c0,3.032-1.139,5.796-3,7.911Zm-7.008-7.832l3.543-3.544-2.121-2.121-3.604,3.605c-1.014.097-1.81.941-1.81,1.981,0,1.105.895,2,2,2,1.077,0,1.95-.854,1.992-1.921Zm2.108,6.421c0,1.381-1.119,2.5-2.5,2.5h-.5v3h-1.6v-8h2.1c1.381,0,2.5,1.119,2.5,2.5Zm-1.522,0c0-.551-.449-1-1-1h-.555v2h.555c.551,0,1-.449,1-1Zm2.423,5.5h1.6v-8h-1.6v8Zm-6.5-8h-1.861l-1.685,2.867h-.354v-2.867h-1.6v8h1.6v-3.533h.612l1.593,3.533h1.758l-1.997-4.565,1.934-3.435Zm.295-7.794l2.971-2.971c-.565-.148-1.155-.234-1.766-.234-3.86,0-7,3.141-7,7h3c0-1.783,1.18-3.279,2.795-3.794Z"/>
</svg>
