<?xml version="1.0" encoding="UTF-8"?>
<svg xmlns="http://www.w3.org/2000/svg" id="Layer_1" data-name="Layer 1" viewBox="0 0 24 24">
  <path d="m8.103,14.427l1.47,1.47-2.573,1.103,1.103-2.573Zm3.897,6.573c-4.963,0-9-4.038-9-9,0-.808.115-1.597.32-2.356L.96,7.285c-.628,1.47-.96,3.065-.96,4.715,0,6.617,5.383,12,12,12,1.645,0,3.239-.337,4.71-.965l-2.354-2.354c-.76.205-1.549.319-2.357.319Zm9.48-1.641l2.481,2.48-2.121,2.121L.039,2.161,2.16.04l2.481,2.481C6.738.887,9.304,0,12,0c6.617,0,12,5.383,12,12,0,2.704-.886,5.264-2.52,7.359ZM6.784,4.664l4.7,4.7,5.515-2.364-2.364,5.515,4.701,4.701c1.081-1.512,1.662-3.317,1.662-5.216,0-4.962-4.037-9-9-9-1.894,0-3.702.583-5.216,1.664Z"/>
</svg>
