<?xml version="1.0" encoding="UTF-8"?>
<svg xmlns="http://www.w3.org/2000/svg" id="Layer_1" data-name="Layer 1" viewBox="0 0 24 24" width="512" height="512"><path d="m21,9.033V3h-6.033L12,.033l-2.967,2.967H3v6.033L.032,12l2.968,2.967v6.033h6.033l2.967,2.967,2.967-2.967h6.033v-6.033l2.968-2.967-2.968-2.967Zm-3,4.691v4.275h-4.275l-1.725,1.725-1.725-1.725h-4.275v-4.275l-1.725-1.725,1.725-1.725v-4.275h4.275l1.725-1.725,1.725,1.725h4.275v4.275l1.725,1.725-1.725,1.725Zm-3.047-4.26c.223,1.272-.382,2.543-1.506,3.164-.188.103-.447.563-.447.876v.495h-2v-.495c0-1.033.637-2.163,1.481-2.628.29-.159.595-.535.502-1.066-.069-.392-.402-.725-.793-.793-.306-.057-.602.021-.832.216-.228.19-.358.47-.358.767h-2c0-.889.391-1.727,1.072-2.299.68-.572,1.578-.814,2.463-.653,1.209.211,2.204,1.205,2.417,2.417Zm-3.953,5.535h2v2h-2v-2Z"/></svg>
