<?xml version="1.0" encoding="UTF-8"?>
<svg xmlns="http://www.w3.org/2000/svg" id="Layer_1" data-name="Layer 1" viewBox="0 0 24 24">
  <path d="m16.939,19.061l2.121-2.121-1.732-1.732c-.856-.856-1.328-1.996-1.328-3.207s.472-2.351,1.328-3.207l1.732-1.732-2.121-2.121-1.732,1.732c-.856.856-1.996,1.328-3.207,1.328s-2.351-.472-3.207-1.328l-1.732-1.732-2.121,2.121,1.732,1.732c.856.856,1.328,1.996,1.328,3.207s-.472,2.351-1.328,3.207l-1.732,1.732,2.121,2.121,1.732-1.732c.856-.856,1.996-1.328,3.207-1.328s2.351.472,3.207,1.328l1.732,1.732Zm-4.939-6.061c-.368,0-.729.035-1.086.086.051-.357.086-.719.086-1.086s-.035-.729-.086-1.086c.357.051.719.086,1.086.086s.729-.035,1.086-.086c-.051.357-.086.719-.086,1.086s.035.729.086,1.086c-.357-.051-.719-.086-1.086-.086Zm2.004-7.927c-.001-.024-.004-.048-.004-.073C14,1.887,16.844-.561,20.076.112c1.89.394,3.418,1.922,3.812,3.812.674,3.231-1.775,6.076-4.888,6.076-.008,0-.016-.001-.024-.001l.999-.999c1.367-1.367,1.367-3.583,0-4.95s-3.583-1.367-4.95,0l-1.022,1.022ZM.112,3.924C.506,2.034,2.034.506,3.924.112c3.231-.673,6.076,1.775,6.076,4.888,0,.024-.003.048-.004.073l-1.022-1.022c-1.367-1.367-3.583-1.367-4.95,0s-1.367,3.583,0,4.95l.999.999c-.008,0-.016.001-.024.001C1.887,10-.561,7.155.112,3.924Zm23.775,16.152c-.394,1.89-1.922,3.418-3.812,3.812-3.231.673-6.076-1.775-6.076-4.888,0-.024.003-.048.004-.073l1.022,1.022c1.367,1.367,3.583,1.367,4.95,0s1.367-3.583,0-4.95l-.999-.999c.008,0,.016-.001.024-.001,3.113,0,5.561,2.845,4.888,6.076Zm-13.891-1.149c.001.024.004.048.004.073,0,3.113-2.844,5.561-6.076,4.888-1.89-.394-3.418-1.922-3.812-3.812-.674-3.231,1.775-6.076,4.888-6.076.008,0,.016.001.024.001l-.999.999c-1.367,1.367-1.367,3.583,0,4.95s3.583,1.367,4.95,0l1.022-1.022Z"/>
</svg>
