<?xml version="1.0" encoding="UTF-8"?>
<svg xmlns="http://www.w3.org/2000/svg" id="Layer_1" data-name="Layer 1" viewBox="0 0 24 24">
  <path d="m8,14h-3v-3h3v3Zm-3,5h3v-3h-3v3Zm5,0h3v-3h-3v3Zm0-5h3v-3h-3v3Zm5-4v11H3V3.5c0-.276.224-.5.5-.5h1.388l1.051-1.051c.765-.765,1.607-1.406,2.491-1.949H3.5C1.57,0,0,1.57,0,3.5v20.5h18v-4h2v-10h-5Zm-7.5-5h-2.5v4h6.5l-4-4Zm9.415,3.586l2.121-2.122c-1.949-1.948-5.122-1.948-7.071,0l2.121,2.122c.78-.78,2.049-.78,2.829,0ZM15.5,0c-2.671,0-5.182,1.04-7.071,2.929l2.121,2.121c1.322-1.322,3.08-2.05,4.95-2.05s3.627.728,4.95,2.05l2.121-2.121c-1.889-1.889-4.4-2.929-7.071-2.929Z"/>
</svg>
