<?xml version="1.0" encoding="UTF-8"?>
<svg xmlns="http://www.w3.org/2000/svg" id="Layer_1" data-name="Layer 1" viewBox="0 0 24 24">
  <path d="m0,8.75C0,5.644,2.476,3.104,5.558,3.003c1.178-1.854,3.214-3.003,5.442-3.003,1.334,0,2.618.413,3.701,1.18.425-.119.86-.18,1.299-.18,1.855,0,3.544,1.054,4.399,2.656,2.092.518,3.601,2.392,3.601,4.594,0,.912-.269,1.755-.72,2.475-.769-.637-1.668-1.121-2.649-1.413.228-.296.369-.661.369-1.063,0-.866-.643-1.594-1.504-1.716l-1.28-.017-.31-1.069c-.334-1.155-1.613-1.825-2.802-1.22l-.951.484-.77-.74c-.653-.627-1.5-.973-2.384-.973-1.389,0-2.642.844-3.191,2.15l-.458,1.089-1.166-.19c-.143-.023-.286-.049-.435-.049-1.517,0-2.75,1.233-2.75,2.75,0,1.269.868,2.328,2.038,2.645l-1.542,2.644c-2.053-.879-3.495-2.918-3.495-5.288Zm7,3.25l7,12H0l7-12Zm1,9h-2v2h2v-2Zm0-5h-2v4h2v-4Zm10.5-5c-.445,0-.884.054-1.314.161-1.083-.754-2.364-1.161-3.686-1.161-1.68,0-3.207.646-4.362,1.695l1.579,2.706c.64-.846,1.644-1.402,2.783-1.402.872,0,1.713.335,2.369.943l.723.671.902-.398c.325-.144.664-.216,1.005-.216,1.378,0,2.5,1.121,2.5,2.5s-1.122,2.5-2.5,2.5c-.342,0-.68-.072-1.005-.216l-.902-.398-.723.671c-.54.501-1.208.804-1.913.9l1.578,2.705c.583-.195,1.14-.467,1.652-.822.43.107.869.161,1.314.161,3.033,0,5.5-2.468,5.5-5.5s-2.467-5.5-5.5-5.5Z"/>
</svg>
