<?xml version="1.0" encoding="UTF-8"?>
<svg xmlns="http://www.w3.org/2000/svg" id="Layer_1" data-name="Layer 1" viewBox="0 0 24 24">
  <path d="m16,17.736v-5.736c0-2.206-1.794-4-4-4s-4,1.794-4,4v5.736c-1.811-1.267-3-3.364-3-5.736,0-3.859,3.141-7,7-7s7,3.141,7,7c0,2.372-1.189,4.469-3,5.736ZM20.5,0H3.5C1.57,0,0,1.57,0,3.5v14.5h3V3.5c0-.275.225-.5.5-.5h17c.275,0,.5.225.5.5v14.5h3V3.5c0-1.93-1.57-3.5-3.5-3.5Zm-.5,21c-.552,0-1-.448-1-1h-3c0,.552-.448,1-1,1s-1-.448-1-1v-8h-4v8c0,.552-.448,1-1,1s-1-.448-1-1h-3c0,.552-.448,1-1,1s-1-.448-1-1H0c0,2.206,1.794,4,4,4,.951,0,1.813-.347,2.5-.903.687.556,1.549.903,2.5.903,1.201,0,2.266-.542,3-1.382.734.84,1.799,1.382,3,1.382.951,0,1.813-.347,2.5-.903.687.556,1.549.903,2.5.903,2.206,0,4-1.794,4-4h-3c0,.552-.448,1-1,1Z"/>
</svg>
