<svg id="Layer_1" viewBox="0 0 24 24" xmlns="http://www.w3.org/2000/svg" data-name="Layer 1"><path d="m2 8h1.35c.826 2.327 3.043 4 5.65 4s4.824-1.673 5.65-4h1.35c.552 0 1-.448 1-1v-2c0-.552-.448-1-1-1h-1.35c-.826-2.327-3.043-4-5.65-4s-4.824 1.673-5.65 4h-1.35c-.552 0-1 .448-1 1v2c0 .552.448 1 1 1zm7 1c-1.665.002-3.038-1.379-2.995-3.048.158.015.311.048.474.048 1.818 0 3.394-.979 4.265-2.431.757.545 1.256 1.429 1.256 2.431 0 1.654-1.346 3-3 3zm12.991 3.588c.001-.03.009-.058.009-.088 0-1.381-1.119-2.5-2.5-2.5s-2.5 1.119-2.5 2.5 1.119 2.5 2.5 2.5c.208 0 .408-.033.601-.081l.899.77v5.311h-3v-1.5c0-3.032-2.468-5.5-5.5-5.5h-7c-3.033 0-5.5 2.468-5.5 5.5v4.5h24v-9.689l-2.009-1.722zm-6.991 8.412h-12v-1.5c0-1.379 1.122-2.5 2.5-2.5h7c1.379 0 2.5 1.121 2.5 2.5z"/></svg>