<?xml version="1.0" encoding="UTF-8"?>
<svg xmlns="http://www.w3.org/2000/svg" id="Layer_1" data-name="Layer 1" viewBox="0 0 24 24">
  <path d="M4.71,5.265l-1.712-2.887L5.578,.848l1.712,2.887-2.58,1.53Zm17.377,6.638c-.134,.684-3.049,6.886-10.087,7.097-6.328-.183-9.297-5.022-10.089-6.9,.138-.691,3.046-6.886,10.089-7.1,6.295,.187,9.342,5.102,10.087,6.903Zm-3.35,.08c-.859-1.243-3.158-3.983-6.737-3.983-3.504,0-5.832,2.724-6.741,4.021,.858,1.267,3.12,3.979,6.741,3.979,3.5,0,5.826-2.718,6.737-4.017Zm-6.737-2.983c-1.657,0-3,1.343-3,3s1.343,3,3,3,3-1.343,3-3-1.343-3-3-3ZM13.5,0h-3V3h3V0Zm7.502,2.378l-2.58-1.53-1.712,2.887,2.58,1.53,1.712-2.887Zm-4.292,17.887l1.712,2.887,2.58-1.53-1.712-2.887-2.58,1.53Zm-6.21,3.735h3v-3h-3v3Zm-7.502-2.378l2.58,1.53,1.712-2.887-2.58-1.53-1.712,2.887Z"/>
</svg>
