<?xml version="1.0" encoding="UTF-8"?>
<svg xmlns="http://www.w3.org/2000/svg" id="Layer_1" data-name="Layer 1" viewBox="0 0 24 24">
  <path d="M19.5,0h-4.5V6h-6v-1.5C9,2.019,6.981,0,4.5,0S0,2.019,0,4.5v15c0,2.481,2.019,4.5,4.5,4.5h15c2.481,0,4.5-2.019,4.5-4.5V4.5c0-2.481-2.019-4.5-4.5-4.5ZM4.5,3c.827,0,1.5,.673,1.5,1.5V15.276c-.471-.168-.971-.276-1.5-.276s-1.029,.108-1.5,.276V4.5c0-.827,.673-1.5,1.5-1.5Zm-1.5,16.5c0-.827,.673-1.5,1.5-1.5s1.5,.673,1.5,1.5-.673,1.5-1.5,1.5-1.5-.673-1.5-1.5Zm16.5,1.5H8.724c.168-.471,.276-.971,.276-1.5V9h6v9h4.5c.827,0,1.5,.673,1.5,1.5s-.673,1.5-1.5,1.5Zm1.5-5.743c-.47-.166-.975-.257-1.5-.257h-1.5V3h1.5c.827,0,1.5,.673,1.5,1.5V15.257Z"/>
</svg>
