<svg id="Layer_1" viewBox="0 0 24 24" xmlns="http://www.w3.org/2000/svg" data-name="Layer 1"><path d="m22 19v-13h-5.416c-.428-.986-1.173-1.83-2.173-2.381-.57-.315-.911-.82-.911-1.351v-2.268h-3v2.268c0 1.495.771 2.857 2.074 3.732h-2.574l-3-3v3h-5v13h-2v2c0 1.657 1.343 3 3 3h18c1.657 0 3-1.343 3-3v-2zm-7.231 1h-5.538l-.923-1h-3.308v-10h8.743c-.266.467-.724.823-1.253.943-.164.038-.329.057-.49.057-.828 0-1.5.672-1.5 1.5s.672 1.5 1.5 1.5c.386 0 .776-.044 1.158-.132 1.835-.418 3.292-1.875 3.71-3.709.012-.053.013-.106.023-.159h2.109v10h-3.308z"/></svg>