<?xml version="1.0" encoding="UTF-8"?>
<svg xmlns="http://www.w3.org/2000/svg" id="Layer_1" data-name="Layer 1" viewBox="0 0 24 24">
  <path d="m20.5,0h-7c-1.93,0-3.5,1.57-3.5,3.5v2.5H3V0H0v24h3v-3h18v3h3V3.5c0-1.93-1.57-3.5-3.5-3.5Zm.5,18h-8v-2.5c0-.276.224-.5.5-.5h7.5v3Zm0-6h-7.5c-1.93,0-3.5,1.57-3.5,3.5v2.5H3v-9h18v3Zm0-6h-8v-2.5c0-.276.224-.5.5-.5h7c.276,0,.5.224.5.5v2.5ZM4,2.5c0-1.381,1.119-2.5,2.5-2.5s2.5,1.119,2.5,2.5-1.119,2.5-2.5,2.5-2.5-1.119-2.5-2.5Zm0,12c0-1.381,1.119-2.5,2.5-2.5s2.5,1.119,2.5,2.5-1.119,2.5-2.5,2.5-2.5-1.119-2.5-2.5Z"/>
</svg>
