<?xml version="1.0" encoding="UTF-8"?>
<svg xmlns="http://www.w3.org/2000/svg" id="Layer_1" data-name="Layer 1" viewBox="0 0 24 24">
  <path d="m15.477,8.547l3.523,3.447,3.535-3.458c.944-.944,1.465-2.2,1.465-3.536s-.521-2.591-1.465-3.535-2.2-1.465-3.535-1.465-2.591.521-3.535,1.465c-.944.943-1.465,2.199-1.465,3.535s.521,2.592,1.477,3.547Zm2.109-4.961c.378-.378.88-.586,1.414-.586s1.036.208,1.414.586.586.88.586,1.414-.208,1.036-.574,1.402l-1.426,1.395-1.414-1.384c-.378-.377-.586-.879-.586-1.413s.208-1.036.586-1.414Zm3.414,9.249v1.165h-5.462l-4.538-4.16V3h1.29c.327-1.103.979-2.164,1.816-3H3.5C1.57,0,0,1.57,0,3.5v20.5h24v-14.106c-.018.018-.033.038-.051.056l-2.949,2.885ZM3,3.5c0-.275.224-.5.5-.5h4.5v6.573l-5,2.5V3.5Zm7.364,17.5H3v-5.573l6.247-3.124,4.292,3.934-3.175,4.763Zm10.636,0h-7.031l2.667-4h4.364v4Z"/>
</svg>
