<svg id="Layer_1" viewBox="0 0 24 24" xmlns="http://www.w3.org/2000/svg" data-name="Layer 1"><path d="m24.014 10.886-2.729-1.247c-.253.554-1.239 2.361-3.286 2.361-1.991 0-2.961-1.651-3.286-2.361l-2.714 1.241-2.714-1.241c-.325.709-1.294 2.361-3.286 2.361-2.047 0-3.033-1.807-3.286-2.361l-2.727 1.247c.182.399.59 1.17 1.272 1.938l-1.264 2.045 2.553 1.576 1.159-1.876c.251.099.515.184.794.251v2.179h3v-2.179c.279-.067.544-.152.794-.251l1.159 1.876 2.547-1.573 2.547 1.573 1.159-1.876c.251.099.515.184.794.251v2.179h3v-2.179c.279-.067.544-.152.794-.251l1.159 1.876 2.553-1.576-1.263-2.045c.681-.768 1.089-1.539 1.272-1.938zm-10.757 1.938-1.257 2.036-1.257-2.036c.666-.751 1.07-1.503 1.257-1.908.188.406.591 1.157 1.257 1.908z"/></svg>