<?xml version="1.0" encoding="UTF-8"?>
<svg xmlns="http://www.w3.org/2000/svg" id="Layer_1" data-name="Layer 1" viewBox="0 0 24 24">
  <path d="m14,2.5c0-1.381,1.119-2.5,2.5-2.5s2.5,1.119,2.5,2.5-1.119,2.5-2.5,2.5-2.5-1.119-2.5-2.5ZM3,14v-6.515c0-.258.117-.498.32-.657l4.667-3.651c.302-.237.725-.237,1.027,0h0s2.986,2.337,2.986,2.337v-3.014c0-.254.021-.504.062-.747l-1.2-.939h0s0,0,0,0c-1.391-1.088-3.333-1.087-4.724,0L1.471,4.466c-.935.731-1.471,1.832-1.471,3.019v9.515h10v-1.028l-1.222-1.972H3Zm16.262-7.648s-.6-.352-1.436-.352c-1.39,0-2.662.982-3.107,2.412l-.489,1.611-4.02,2.491,1.58,2.55,3.21-1.989v2.045l-3,2.1v6.781h3v-5.219l3.507-2.455c.935-.654,1.493-1.727,1.493-2.868v-3.19l1,.589v3.143h3v-4.857l-4.738-2.791Zm.314,11.634l-1.841,1.304,1.932,4.711h3.242l-2.673-6.517c-.204.182-.425.351-.661.503Zm-14.576-6.986h3v-3h-3v3Z"/>
</svg>
