<?xml version="1.0" encoding="UTF-8"?>
<svg xmlns="http://www.w3.org/2000/svg" id="Layer_1" data-name="Layer 1" viewBox="0 0 24 24">
  <path d="m24.061,21.939l-6.02-6.02c1.225-1.66,1.959-3.703,1.959-5.92C20,4.486,15.514,0,10,0S0,4.486,0,10s4.486,10,10,10c2.217,0,4.26-.734,5.92-1.959l6.02,6.02,2.121-2.121ZM10,3c3.86,0,7,3.141,7,7,0,1.396-.416,2.696-1.123,3.789L10,3.714l-5.877,10.075c-.708-1.094-1.123-2.393-1.123-3.789,0-3.859,3.14-7,7-7Zm-1,7v-3h2v3h-2Zm2,1v2h-2v-2h2Zm-6.736,3h11.472c-1.267,1.811-3.364,3-5.736,3s-4.47-1.189-5.736-3Z"/>
</svg>
