<svg id="Layer_1" viewBox="0 0 24 24" xmlns="http://www.w3.org/2000/svg" data-name="Layer 1"><path d="m9.695 16.168c-1.05-.545-2.197.299-2.381 1.414l-1.321 6.418h1.533l.299-1.4h2.302l.285 1.4h1.58l-1.296-6.373c-.131-.668-.506-1.213-1.001-1.459zm-1.527 4.832.664-3.104c.029-.149.102-.253.171-.296l.016.006c.023.016.117.118.162.349l.621 3.044h-1.634zm15.832-2.5c0-1.381-1.119-2.5-2.5-2.5h-2.5v8h1.6v-3h.784l.872 3h1.744l-1.054-3.462c.023-.017.024-.016.042-.029-.019.012-.031.021-.055.035.644-.452 1.067-1.198 1.067-2.044zm-2.5.9h-.9v-1.8h.9c.496 0 .9.404.9.9s-.404.9-.9.9zm-6-3.4h-2.5v8h1.6v-3h.922c1.366 0 2.477-1.108 2.478-2.474v-.026c0-1.381-1.119-2.5-2.5-2.5zm0 3.4h-.9v-1.8h.9c.496 0 .9.404.9.9s-.404.9-.9.9zm8.5-14.4v9.974c-.752-.6-1.692-.974-2.727-.974h-.273v-4h-18v11h1.568l-.617 3h-3.951v-19c0-1.654 1.346-3 3-3h3v-2h3v2h6v-2h3v2h3c1.654 0 3 1.346 3 3z"/></svg>