<?xml version="1.0" encoding="UTF-8"?>
<svg xmlns="http://www.w3.org/2000/svg" id="Layer_1" data-name="Layer 1" viewBox="0 0 24 24">
  <path d="m21.902,13.184c-.146-.12-3.361-2.761-6.077-4.552-.391-3.23-1.322-7.286-1.364-7.469l-.269-1.163h-4.387l-.269,1.163c-.042.184-.973,4.239-1.364,7.469-2.716,1.791-5.931,4.432-6.077,4.552l-.921.759,1.957,3.927,1.16-.279c.167-.04,3.362-.812,6.22-1.745v5.155h-3.522v3h10.045v-3h-3.523v-5.146c2.851.93,6.026,1.696,6.193,1.736l1.16.279,1.957-3.927-.921-.759Zm-9.351-.853l-.552-.219-.552.219c-1.678.664-4.026,1.339-5.718,1.793,1.315-1.025,3.148-2.404,4.653-3.346l.625-.392.072-.734c.172-1.765.588-4.022.919-5.657.331,1.634.748,3.89.919,5.657l.072.734.625.392c1.503.941,3.338,2.321,4.653,3.346-1.691-.454-4.04-1.13-5.717-1.793Z"/>
</svg>
