<?xml version="1.0" encoding="UTF-8"?>
<svg xmlns="http://www.w3.org/2000/svg" id="Layer_1" data-name="Layer 1" viewBox="0 0 24 24">
  <path d="m7,21.5v2.5H0v-2.5c0-.828.672-1.5,1.5-1.5h4c.828,0,1.5.672,1.5,1.5Zm-3.5-2.5c1.381,0,2.5-1.119,2.5-2.5s-1.119-2.5-2.5-2.5-2.5,1.119-2.5,2.5,1.119,2.5,2.5,2.5ZM20.034,4l-1.078-4h-.889l-1.08,4h-3.987v.845l3.046,1.694-1.195,3.736.661.498,3.002-2.321,2.989,2.311.688-.479-1.215-3.693,3.025-1.75v-.841h-3.966Zm-.534,10h-8c-.827,0-1.5-.673-1.5-1.5s.673-1.5,1.5-1.5h1.019l.96-3h-1.979c-2.481,0-4.5,2.019-4.5,4.5s2.019,4.5,4.5,4.5h8c.828,0,1.5.672,1.5,1.5s-.672,1.5-1.5,1.5h-10.851c.219.456.351.961.351,1.5v1.5h10.5c2.485,0,4.5-2.015,4.5-4.5s-2.015-4.5-4.5-4.5Z"/>
</svg>
