<?xml version="1.0" encoding="UTF-8"?>
<svg xmlns="http://www.w3.org/2000/svg" id="Layer_1" data-name="Layer 1" viewBox="0 0 24 24" width="512" height="512"><path d="M8.786,10.786c-1.184,1.184-2.719,1.568-3.429,.857-.71-.71-.326-2.246,.857-3.429,1.184-1.184,2.719-1.568,3.429-.857,.71,.71,.326,2.246-.857,3.429Zm9.857,.857c.71-.71,.326-2.246-.857-3.43-1.184-1.184-2.719-1.568-3.429-.857s-.326,2.246,.857,3.429c1.184,1.184,2.719,1.568,3.429,.857Zm-6.643,7.357c1.657,0,3-1.343,3-3v-1c0-1.657-1.343-3-3-3s-3,1.343-3,3v1c0,1.657,1.343,3,3,3ZM.901,15.335c-.919,.606-1.172,1.845-.57,2.767,.017,.025,1.669,2.594,1.669,5.898H7c0-4.553-3.233-7.972-3.336-8.109-.664-.891-1.843-1.163-2.763-.556Zm22.202,0c-.92-.607-2.099-.335-2.763,.556-.102,.137-3.336,3.557-3.336,8.109h5c0-3.305,1.652-5.873,1.669-5.898,.603-.922,.349-2.16-.57-2.767Zm-14.702,4.909c.325,1.028,.544,2.156,.585,3.358,.965,.251,1.972,.398,3.014,.398s2.052-.148,3.018-.4c.041-1.203,.261-2.331,.586-3.359-1.105,.485-2.322,.759-3.604,.759s-2.496-.273-3.599-.756ZM3.086,13.178c-.051-.387-.086-.778-.086-1.178C3,7.037,7.038,3,12,3s9,4.037,9,9c0,.398-.035,.787-.085,1.172,.973-.28,2.033-.185,2.981,.33,.062-.493,.104-.992,.104-1.502C24,5.383,18.617,0,12,0S0,5.383,0,12c0,.51,.043,1.01,.105,1.504,.944-.515,2.003-.611,2.982-.325Z"/></svg>
