<?xml version="1.0" encoding="UTF-8"?>
<svg xmlns="http://www.w3.org/2000/svg" id="Layer_1" data-name="Layer 1" viewBox="0 0 24 24">
  <path d="M22.732,9.013c-1.519-1.437-4.112-1.317-5.487,.257l-2.438,2.679c-.646-.589-1.507-.949-2.449-.949H3.5c-1.93,0-3.5,1.57-3.5,3.5v6c0,1.93,1.57,3.5,3.5,3.5H14.681l8.334-9.532c1.41-1.581,1.283-4.027-.282-5.455Zm-1.966,3.469l-7.447,8.518H3.5c-.275,0-.5-.224-.5-.5v-6c0-.276,.225-.5,.5-.5H12.357c.354,0,.643,.288,.643,.642,0,.317-.237,.591-.551,.636l-5.161,.737,.424,2.97,5.162-.737c1.618-.231,2.875-1.531,3.093-3.115l3.497-3.843c.312-.358,.902-.386,1.248-.059,.356,.325,.385,.881,.055,1.252ZM8.489,6.501c.738,1.476,2.248,2.499,4.011,2.499,2.485,0,4.5-2.015,4.5-4.5S14.985,0,12.5,0c-1.763,0-3.274,1.024-4.012,2.501h-.796l-1.465,1.399-1.414-1.414-1.414,1.414-1.399-1.399L0,4.5l2,2.001h6.489Zm5.011-3.501c.828,0,1.5,.672,1.5,1.5s-.672,1.5-1.5,1.5-1.5-.672-1.5-1.5,.672-1.5,1.5-1.5Z"/>
</svg>
