<?xml version="1.0" encoding="UTF-8"?>
<svg xmlns="http://www.w3.org/2000/svg" id="Layer_1" data-name="Layer 1" viewBox="0 0 24 24">
  <path d="m24,10c0-2.206-1.794-4-4-4h-5.937l-3.975-3.975c-1.365-1.365-3.584-1.365-4.972.022L-.015,7.397.002,22h14.169l2-8h3.829c2.206,0,4-1.794,4-4Zm-10.171,1l-2,8H2.998l-.012-10.397,4.274-4.456c.196-.194.513-.193.708,0l1.854,1.854h-1.821v3h12c.551,0,1,.449,1,1s-.449,1-1,1h-6.171Zm9.127,6.907c.566.566.879,1.319.879,2.121s-.313,1.555-.879,2.121c-1.134,1.134-3.11,1.134-4.242,0-.567-.566-.879-1.32-.879-2.121s.312-1.554.871-2.113l2.129-2.083,2.121,2.075Z"/>
</svg>
