<?xml version="1.0" encoding="UTF-8"?>
<svg xmlns="http://www.w3.org/2000/svg" id="Layer_1" data-name="Layer 1" viewBox="0 0 24 24">
  <path d="m14.561,12.439l2.353,2.353-2.121,2.121-2.353-2.353,2.121-2.121Zm7.248,11.49l-2.828-2.827c-.902.519-1.911.803-2.93.803-1.351,0-2.703-.459-3.792-1.389-2.867-2.445-6.848-5.925-9.641-8.708-.008-.008-2.571-2.57-2.571-2.57l2.121-2.121,1.414,1.414,1.414-1.414-1.414-1.415,2.121-2.121,1.414,1.415,1.415-1.415-1.414-1.414L9.238.046s2.557,2.559,2.563,2.565c2.778,2.789,6.265,6.776,8.715,9.648,1.63,1.911,1.791,4.624.585,6.722l2.828,2.828-2.121,2.121Zm-12.146-14.266c1.013-1.013,1.273-2.498.782-3.754l-4.536,4.537c1.26.493,2.742.23,3.754-.783Zm8.414,8.414c1.047-1.047,1.115-2.747.156-3.871-1.364-1.599-3.052-3.545-4.752-5.429-.276,1.102-.837,2.147-1.697,3.007h0c-.861.86-1.905,1.421-3.007,1.697,1.885,1.701,3.831,3.389,5.429,4.752,1.125.959,2.825.89,3.871-.157Z"/>
</svg>
