<?xml version="1.0" encoding="UTF-8"?>
<svg xmlns="http://www.w3.org/2000/svg" id="Layer_1" data-name="Layer 1" viewBox="0 0 24 24">
  <path d="m5.121,18.879c1.172,1.172,1.172,3.071,0,4.243-.586.586-1.354.879-2.121.879-.768,0-1.535-.293-2.121-.879-1.172-1.172-1.172-3.071,0-4.243l2.121-2.075,2.121,2.075Zm18,0l-2.121-2.075-2.121,2.075c-1.172,1.172-1.172,3.071,0,4.243.586.586,1.354.879,2.121.879.768,0,1.535-.293,2.121-.879,1.172-1.172,1.172-3.071,0-4.243Zm-9.621-2.043l1.93-1.115,2.406,1.379,2.229-2.181-3.065-1.758v-2.275l1.957-1.122,4.179,1.133.785-2.896-3.33-.902.903-3.329-2.896-.785-1.133,4.178-1.866,1.07-2.101-1.213v-1.797l3.061-3.061L14.439.042l-2.439,2.439L9.561.042l-2.121,2.121,3.061,3.061v1.797l-2.101,1.213-1.865-1.07-1.133-4.178-2.896.785.903,3.329L.079,8.002l.785,2.896,4.179-1.133,1.957,1.122v2.275l-3.065,1.758,2.229,2.181,2.406-1.379,1.93,1.115v1.94l-3.061,3.061,2.121,2.121,2.439-2.439,2.439,2.439,2.121-2.121-3.061-3.061v-1.94Zm-3.5-3.753v-2.31l2-1.154,2,1.154v2.31l-2,1.154-2-1.154Z"/>
</svg>
