<?xml version="1.0" encoding="UTF-8"?>
<svg xmlns="http://www.w3.org/2000/svg" id="Layer_1" data-name="Layer 1" viewBox="0 0 24 24">
  <path d="M-.047,11l.074,1.571c.303,6.409,5.562,11.429,11.973,11.429s11.67-5.021,11.973-11.429l.074-1.571H-.047Zm14.406,3c-.383,2.459-1.493,4.596-2.362,5.955-.869-1.354-1.975-3.486-2.357-5.955h4.718Zm-11.123,0h3.378c.311,2.521,1.241,4.74,2.16,6.398-2.761-1.061-4.871-3.441-5.538-6.398Zm11.991,6.398c.919-1.659,1.849-3.877,2.16-6.398h3.378c-.667,2.957-2.777,5.337-5.538,6.398ZM4,9H1V3.358C.949,1.317,2.996-.361,4.988,.092l5.701,1.146c.486,.098,.924,.304,1.311,.576,.387-.272,.825-.478,1.311-.576L19.012,.092c1.991-.45,4.04,1.224,3.988,3.266v5.642h-3V3.358c-.026-.241-.155-.347-.396-.325l-5.702,1.146c-.232,.046-.401,.253-.401,.49v4.331h-3V4.669c0-.237-.169-.444-.401-.49l-5.702-1.146c-.242-.021-.371,.083-.397,.325v5.642Z"/>
</svg>
