<?xml version="1.0" encoding="UTF-8"?>
<svg xmlns="http://www.w3.org/2000/svg" id="Layer_1" data-name="Layer 1" viewBox="0 0 24 24">
  <path d="M22,16V3H2v13H0v2c0,1.657,1.343,3,3,3H21c1.657,0,3-1.343,3-3v-2h-2Zm-7.231,1h-5.538l-.923-1h-3.308V6h14v10h-3.308l-.923,1Zm-3.569-9h1.6v6h-1.6v-6Zm4.8,0c-1.105,0-2,.895-2,2v2c0,1.105,.895,2,2,2s2-.895,2-2v-2c0-1.105-.895-2-2-2Zm.4,4c0,.221-.179,.4-.4,.4s-.4-.179-.4-.4v-2c0-.221,.179-.4,.4-.4s.4,.179,.4,.4v2Zm-8.4-4c-1.105,0-2,.895-2,2v2c0,1.105,.895,2,2,2s2-.895,2-2v-2c0-1.105-.895-2-2-2Zm.4,4c0,.221-.179,.4-.4,.4s-.4-.179-.4-.4v-2c0-.221,.179-.4,.4-.4s.4,.179,.4,.4v2Z"/>
</svg>
