<?xml version="1.0" encoding="UTF-8"?>
<svg xmlns="http://www.w3.org/2000/svg" id="Layer_1" data-name="Layer 1" viewBox="0 0 24 24">
  <path d="M9,0V10.122c.894-.657,1.934-1.022,3-1.085V3h9v13h-5.3c.21-.519,.313-1.078,.266-1.653-.079-.97-.53-1.851-1.271-2.48-1.373-1.167-3.424-1.146-4.773,.049l-3.916,3.471,1.99,2.245,3.915-3.47c.238-.21,.598-.213,.842-.008,.309,.376,.32,.514,.026,.962l-4.794,6.238,.016,2.656,3-.018-.01-1.626,.28-.365h9.73c1.657,0,3-1.343,3-3V0H9Zm8.999,20.008h-3v-2h3v2ZM7,9.866l-4,3.634v10.5H0V12.138L7,5.857v4.009Z"/>
</svg>
