<?xml version="1.0" encoding="UTF-8"?>
<svg xmlns="http://www.w3.org/2000/svg" id="Layer_1" data-name="Layer 1" viewBox="0 0 24 24">
  <path d="M22,8.715v-1.215c0-1.93-1.57-3.5-3.5-3.5h-2.5c-1.521,0-2.806,.982-3.287,2.34-.317-.598-.726-1.143-1.213-1.625v-1.215c0-1.93-1.57-3.5-3.5-3.5h-2.5c-1.93,0-3.5,1.57-3.5,3.5v1.215C.733,5.967,0,7.669,0,9.5v14.5H3V11.294c1.699,2.296,5.801,2.296,7.5,0v12.706h3V15.294c1.699,2.296,5.801,2.296,7.5,0v8.706h3V13.5c0-1.831-.733-3.533-2-4.785Zm-6.5-1.215c0-.276,.224-.5,.5-.5h2.5c.276,0,.5,.224,.5,.5v5c0,.293-.088,.565-.234,.797-.901-.419-2.131-.419-3.032,0-.146-.231-.234-.503-.234-.797V7.5ZM5,3.5c0-.276,.224-.5,.5-.5h2.5c.276,0,.5,.224,.5,.5v5c0,.293-.088,.565-.234,.797-.901-.419-2.131-.419-3.032,0-.146-.231-.234-.503-.234-.797V3.5Z"/>
</svg>
