<?xml version="1.0" encoding="UTF-8"?>
<svg xmlns="http://www.w3.org/2000/svg" id="Layer_1" data-name="Layer 1" viewBox="0 0 24 24">
  <path d="m5,10h5v3h-5v-3Zm0,6h2v-2h-2v2Zm3,0h2v-2h-2v2Zm-3,3h2v-2h-2v2Zm3,0h2v-2h-2v2ZM24,6.75v11.732l-3.607-2.192-2.217,1.541-1.176-.818v-3.654l1.176.818,2.107-1.465.717.437v-6.398c0-2.067-1.683-3.75-3.75-3.75-1.722,0-3.162,1.174-3.6,2.759.816.641,1.35,1.625,1.35,2.741v15.5H0v-15.5c0-1.185.596-2.231,1.5-2.865v-.135C1.5,2.468,3.968,0,7,0h10.25c3.722,0,6.75,3.028,6.75,6.75Zm-19.449-1.75h6.188c.194-.72.498-1.396.903-2h-4.641c-1.208,0-2.217.86-2.449,2Zm7.449,3.5c0-.275-.225-.5-.5-.5H3.5c-.275,0-.5.225-.5.5v12.5h9v-12.5Z"/>
</svg>
