<?xml version="1.0" encoding="UTF-8"?>
<svg xmlns="http://www.w3.org/2000/svg" id="Layer_1" data-name="Layer 1" viewBox="0 0 24 24">
  <path d="m21,0v.5c0,.827-.673,1.5-1.5,1.5H5.012C2.743,2,.823,3.698.546,5.95L.048,10h10.778c2.286,0,4.208-1.713,4.471-3.984l.117-1.016h1.986c-.447,3.57-2.427,8.345-6.246,12.19-1.549,1.57-1.533,4.107.037,5.656.754.745,1.751,1.154,2.81,1.154.009,0,.018,0,.027,0,1.068-.007,2.07-.43,2.82-1.19,5.424-5.494,5.352-15.62,5.202-18.608,1.176-.813,1.951-2.167,1.951-3.702v-.5h-3Zm-8.684,5.672c-.087.757-.728,1.328-1.49,1.328H3.439l.084-.684c.092-.75.732-1.316,1.489-1.316h7.382l-.078.672Zm2.396,15.03c-.188.19-.438.296-.705.298-.294-.022-.52-.101-.709-.289-.392-.387-.396-1.021-.013-1.411,2.523-2.54,4.275-5.336,5.42-7.994-.5,3.316-1.611,6.982-3.994,9.396Z"/>
</svg>
