<?xml version="1.0" encoding="UTF-8"?>
<svg xmlns="http://www.w3.org/2000/svg" id="Layer_1" data-name="Layer 1" viewBox="0 0 24 24">
  <path d="m17.478,14.372l2.027-2.872s-.659-.633-1.937-1.263c.279-.692.437-1.446.437-2.237h2v-3h-2.044c-.255-1.763-1.69-5-3.456-5-1.036,0-1.679.794-2.196,1.432-.084.104-.196.242-.304.365-.107-.123-.22-.262-.304-.365-.518-.638-1.16-1.432-2.196-1.432-1.765,0-3.201,3.237-3.456,5h-2.044v3h2c0,.791.158,1.545.437,2.238-1.278.629-1.937,1.262-1.937,1.262l2.027,2.872c-2.06.795-3.528,2.791-3.528,5.128v4.5h3v-4.5c0-1.341,1.063-2.43,2.39-2.489l2.11,2.989v4h3v-4h0l2.11-2.989c1.327.059,2.39,1.148,2.39,2.489v4.5h3v-4.5c0-2.336-1.468-4.332-3.527-5.128Zm-7.13,1.628l-.962-2.61c.793.387,1.679.61,2.619.61s1.827-.224,2.62-.611l-.962,2.611h-3.316Zm4.658-8c0,1.654-1.346,3-3,3s-3-1.346-3-3h6Z"/>
</svg>
