<?xml version="1.0" encoding="UTF-8"?>
<svg xmlns="http://www.w3.org/2000/svg" id="Layer_1" data-name="Layer 1" viewBox="0 0 24 24">
  <path d="M0,0V13.896l1.365,.123c2.072,.187,3.635,1.898,3.635,3.98v6h3v-6c0-1.855,1.275-3.405,2.991-3.855,.657-1.192,1.612-2.193,2.761-2.915-.561-.146-1.146-.23-1.752-.23-2.227,0-4.21,1.049-5.493,2.675-.878-1.12-2.089-1.969-3.507-2.385v-3.29H21v2.587c1.162,.471,2.185,1.208,3,2.134V0H0ZM21,5h-4V3h4v2Zm-7,0h-4V3h4v2ZM3,3H7v2H3V3Zm15,9c-3.314,0-6,2.686-6,6s2.686,6,6,6,6-2.686,6-6-2.686-6-6-6Zm.752,8.44l-.004,.004c-.744,.744-2.058,.746-2.823-.019l-2.182-2.268,1.387-1.441,2.216,2.301,3.614-3.703,1.398,1.43-3.607,3.696Z"/>
</svg>
