<?xml version="1.0" encoding="UTF-8"?>
<svg xmlns="http://www.w3.org/2000/svg" id="Layer_1" data-name="Layer 1" viewBox="0 0 24 24">
  <path d="m5,8v-3h6v3h-6Zm11,0v-3h-3v3h3Zm8,5v8h-7.012l-3.323,2.747c-.379.337-.95.337-1.329,0l-3.261-2.747H2v-8c0-1.105.895-2,2-2h18c1.105,0,2,.895,2,2Zm-15,2h-2.163l-.588-2.251h-.486l-.588,2.251h-2.175v.462l1.66.924-.652,2.039.36.272,1.638-1.266,1.63,1.261.378-.262-.663-2.015,1.648-.955v-.458Zm7,0h-2.163l-.588-2.251h-.486l-.588,2.251h-2.175v.462l1.66.924-.652,2.039.36.272,1.638-1.266,1.63,1.261.378-.262-.663-2.015,1.648-.955v-.458Zm7,0h-2.163l-.588-2.251h-.486l-.588,2.251h-2.175v.462l1.66.924-.652,2.039.36.272,1.638-1.266,1.63,1.261.378-.262-.663-2.015,1.648-.955v-.458ZM3,3.5c0-.276.225-.5.5-.5h14c.275,0,.5.224.5.5v5.5h3V3.5c0-1.93-1.57-3.5-3.5-3.5H3.5C1.57,0,0,1.57,0,3.5v9h.051c.207-1.632,1.387-2.952,2.949-3.358V3.5Z"/>
</svg>
