<svg id="Layer_1" viewBox="0 0 24 24" xmlns="http://www.w3.org/2000/svg" data-name="Layer 1"><path d="m19 17.366c0 1.971-1.24 3.696-3 4.398v2.235h-3v-4.798l1.385-.107c.905-.07 1.615-.83 1.615-1.729 0-.965-.785-1.75-1.75-1.75-.45 0-.88.175-1.21.493l-1.04 1.001-1.04-1.001c-.33-.317-.76-.493-1.21-.493-.965 0-1.75.785-1.75 1.75 0 .899.71 1.659 1.615 1.729l1.385.107v4.798h-3v-2.235c-1.76-.703-3-2.427-3-4.398 0-1.066.366-2.04.96-2.833-1.184-.915-1.96-2.333-1.96-3.942 0-.67.134-1.32.393-1.925l-4.393-4.393v-4.242l8.284 8.284-.842 1.048c-.202.251-.442.668-.442 1.228 0 1.103.897 2 2 2 .991 0 1.837-.748 1.967-1.741l.149-1.143 1.144-.149c.992-.13 1.74-.976 1.74-1.967 0-1.103-.897-2-2-2-.571 0-.991.247-1.243.454l-1.051.863-6.908-6.908h4.243l2.997 2.997c.614-.268 1.276-.406 1.962-.406 2.757 0 5 2.243 5 5 0 2.129-1.365 3.99-3.311 4.689-.05.139-.119.268-.18.401.244-.039.49-.065.741-.065 2.619 0 4.75 2.131 4.75 4.75zm-.077-10.651c.046.319.077.641.077.969 0 1.422-.438 2.778-1.248 3.913 1.554.946 2.684 2.507 3.082 4.339.733-1.052 1.167-2.328 1.167-3.705 0-2.327-1.233-4.367-3.077-5.515z"/></svg>