<?xml version="1.0" encoding="UTF-8"?>
<svg xmlns="http://www.w3.org/2000/svg" id="Layer_1" data-name="Layer 1" viewBox="0 0 24 24">
  <path d="m23.55,19.071l-4.293,4.207c-.48.48-1.116.722-1.753.722-.641,0-1.283-.244-1.771-.732l-4.25-4.25,2.121-2.121,2.396,2.396V0h3v19.33l2.45-2.401,2.1,2.143Zm-10.246-7.445c0-1.033-.734-1.929-1.747-2.131l-2.792-.559c-.267-.054-.461-.291-.461-.562,0-.316.257-.574.573-.574h2.127c.316,0,.585.211.671.5h1.62c-.102-1.175-1.09-2.1-2.291-2.1h-.2v-1.2h-1.6v1.2h-.327c-1.198,0-2.173.975-2.173,2.173,0,1.033.734,1.929,1.747,2.131l2.791.559c.268.054.462.291.462.563,0,.316-.258.574-.574.574h-2.126c-.316,0-.585-.211-.671-.5h-1.62c.102,1.175,1.09,2.1,2.291,2.1h.2v1.2h1.6v-1.2h.326c1.199,0,2.174-.975,2.174-2.173Zm-10.304-1.626c0-3.86,3.14-7,7-7,1.487,0,2.865.47,4,1.264V.841c-1.226-.538-2.578-.841-4-.841C4.486,0,0,4.486,0,10s4.486,10,10,10v-3c-3.86,0-7-3.14-7-7Z"/>
</svg>
