<?xml version="1.0" encoding="UTF-8"?>
<svg xmlns="http://www.w3.org/2000/svg" id="Layer_1" data-name="Layer 1" viewBox="0 0 24 24" width="512" height="512"><path d="M22.733,9.014c-.766-.698-1.755-1.058-2.795-1.01-1.037,.049-1.993,.498-2.692,1.266l-2.438,2.68c-.647-.59-1.507-.949-2.449-.949H3.5c-1.93,0-3.5,1.57-3.5,3.5v6c0,1.93,1.57,3.5,3.5,3.5H14.681l8.333-9.531c1.411-1.581,1.284-4.028-.281-5.455Zm-1.967,3.469l-7.447,8.518H3.5c-.276,0-.5-.225-.5-.5v-6c0-.275,.224-.5,.5-.5H12.358c.354,0,.642,.288,.642,.643,0,.317-.237,.591-.551,.635l-5.161,.737,.424,2.971,5.16-.737c1.619-.231,2.876-1.53,3.094-3.115l3.498-3.844c.159-.175,.376-.277,.612-.288,.23-.018,.46,.07,.635,.229,.356,.325,.385,.881,.054,1.252ZM6.025,7.972c-.681-.681-1.022-1.576-1.023-2.472,0-.898,.421-1.788,1.024-2.479L8.5,0l2.467,3.014c.706,.823,1.031,1.587,1.031,2.486,0,.896-.341,1.79-1.022,2.472h0c-.661,.661-1.54,1.025-2.475,1.025s-1.814-.364-2.475-1.025Z"/></svg>
