<?xml version="1.0" encoding="UTF-8"?>
<svg xmlns="http://www.w3.org/2000/svg" id="Layer_1" data-name="Layer 1" viewBox="0 0 24 24">
  <path d="M16.4,8h1.6v5.429c0,1.42-1.151,2.571-2.571,2.571s-2.571-1.151-2.571-2.571v-5.429h1.6v5.429c0,.536,.436,.971,.971,.971s.971-.436,.971-.971v-5.429Zm7.6-1.5v14.5H0V6.5c0-1.93,1.57-3.5,3.5-3.5H20.5c1.93,0,3.5,1.57,3.5,3.5Zm-3,0c0-.275-.225-.5-.5-.5H3.5c-.275,0-.5,.225-.5,.5v11.5H21V6.5Zm-10.589,3.133l1.448,6.373h-1.686l-.309-1.406h-2.714l-.315,1.406h-1.677l1.475-6.419c.181-.884,.98-1.592,1.883-1.581,.926-.004,1.692,.673,1.895,1.627Zm-.899,3.367l-.662-3.013c-.087-.511-.558-.474-.654-.06l-.688,3.073h2.004Z"/>
</svg>
