<svg id="Layer_1" viewBox="0 0 24 24" xmlns="http://www.w3.org/2000/svg" data-name="Layer 1"><path d="m18.5 22.5c0 .828-.672 1.5-1.5 1.5s-1.5-.672-1.5-1.5.672-1.5 1.5-1.5 1.5.672 1.5 1.5zm-7.5-4.671v3.171h-8v-17.5c0-.276.224-.5.5-.5h7c.276 0 .5.224.5.5v1.942c-1.898.314-3.682.558-5 .558v3c2.199 0 5.266-.545 8.231-1.073 1.295-.23 2.61-.464 3.798-.639.147 1.518 1.415 2.713 2.971 2.713 1.654 0 3-1.346 3-3s-1.346-3-3-3c-1.76 0-4.297.441-7 .921v-1.421c0-1.93-1.57-3.5-3.5-3.5h-7c-1.93-.001-3.5 1.569-3.5 3.499v20.5h13.851c-.219-.456-.351-.961-.351-1.5 0-.623.177-1.201.464-1.708zm-1.071-3.9 2.121 2.121c1.322-1.322 3.08-2.05 4.95-2.05s3.627.728 4.95 2.05l2.121-2.121c-3.898-3.899-10.243-3.899-14.142 0zm3.535 3.536 2.121 2.121c.78-.779 2.049-.779 2.829 0l2.121-2.121c-1.949-1.949-5.122-1.949-7.071 0zm-4.464-3.465c0-1.105-.895-2-2-2s-2 .895-2 2c0 .693.353 1.304.889 1.663l-.723 3.337h3.667l-.723-3.337c.536-.359.889-.969.889-1.663z"/></svg>