<?xml version="1.0" encoding="UTF-8"?>
<svg xmlns="http://www.w3.org/2000/svg" id="Layer_1" data-name="Layer 1" viewBox="0 0 24 24">
  <path d="m20.672,1.206c-1.489-.8-3.061-1.206-4.672-1.206h-8c-1.611,0-3.183.406-4.672,1.206C1.275,2.308,0,4.482,0,6.88v6.12h5v11h14v-11h5v-6.12c0-2.397-1.275-4.572-3.328-5.674Zm.328,8.794h-2v-3h-3v14h-8V7h-3v3h-2v-3.12c0-1.291.669-2.453,1.747-3.032,1.048-.562,2.411-.848,3.521-.848.805,1.205,2.173,2,3.732,2s2.927-.795,3.732-2c1.11,0,2.473.286,3.52.848,1.078.579,1.748,1.741,1.748,3.032v3.12Z"/>
</svg>
