<?xml version="1.0" encoding="UTF-8"?>
<svg xmlns="http://www.w3.org/2000/svg" id="Layer_1" data-name="Layer 1" viewBox="0 0 24 24">
  <path d="M23.971,8.916l-.081-1.439-1.44,.023c-5.629,.09-8.807,3.169-10.449,6.483-1.643-3.315-4.82-6.394-10.449-6.483l-1.44-.023-.081,1.439c-.22,3.919,.784,7.006,2.983,9.174,2.394,2.36,5.59,2.978,7.487,3.126v2.796h3v-2.796c1.898-.148,5.094-.766,7.487-3.126,2.199-2.168,3.203-5.255,2.983-9.174ZM5.104,15.939c-1.273-1.263-1.973-3.046-2.087-5.314,5.12,.794,6.743,5.129,7.254,7.553-1.462-.171-3.61-.693-5.167-2.238Zm13.791,0c-1.558,1.545-3.706,2.067-5.167,2.238,.511-2.426,2.136-6.759,7.254-7.553-.114,2.268-.813,4.052-2.087,5.314ZM10.5,5h-3.632L11.104,.371c.443-.494,1.217-.494,1.66,0l4.236,4.629h-3.5v4h-3V5Z"/>
</svg>
