<?xml version="1.0" encoding="UTF-8"?>
<svg xmlns="http://www.w3.org/2000/svg" id="Layer_1" data-name="Layer 1" viewBox="0 0 24 24">
  <path d="M24,13V6h-2.928c-.292-.487-.642-.938-1.056-1.33-.845-.799-1.874-1.321-3.016-1.545V0h-3V3.16l-5.062,.586c-.869-.639-1.537-1.57-4.438-1.746C1.48,2.208,.96,3.1-.047,3.837L.697,15H3.5v2h2v-2h2.803l.178-2.67,3.519,.48v6.19H0v3H24v-3h-2v-6h2Zm-18.503-1h-1.993l-.446-6.685c.36-.16,.859-.315,1.442-.315s1.082,.155,1.442,.315l-.446,6.685Zm9.503,7V10.19l-6.319-.861,.17-2.554,6.733-.781c.891-.056,1.734,.253,2.371,.854,.674,.638,1.045,1.523,1.045,2.495v9.655h-4Z"/>
</svg>
