<?xml version="1.0" encoding="UTF-8"?>
<svg xmlns="http://www.w3.org/2000/svg" id="Layer_1" data-name="Layer 1" viewBox="0 0 24 24" width="512" height="512"><path d="m10.5,6h3v7.089h-3v-7.089Zm0,12h3v-3h-3v3Zm12.469-3.53l-8.495,8.494c-.661.661-1.54,1.025-2.475,1.025s-1.814-.364-2.475-1.025L1.031,14.47c-1.365-1.364-1.365-3.586,0-4.95L9.525,1.025c1.321-1.322,3.627-1.322,4.95,0l8.494,8.494c1.365,1.364,1.365,3.586,0,4.95Zm-2.121-2.829L12.354,3.146c-.127-.128-.276-.146-.354-.146s-.226.019-.353.146L3.152,11.641c-.195.195-.195.513,0,.708l8.495,8.494c.127.128.276.146.354.146s.226-.019.353-.146l8.495-8.494c.195-.195.195-.513,0-.708Z"/></svg>
