<?xml version="1.0" encoding="UTF-8"?>
<svg xmlns="http://www.w3.org/2000/svg" id="Layer_1" data-name="Layer 1" viewBox="0 0 24 24">
  <path d="M9,3c0-1.657,1.343-3,3-3s2.894,1.343,2.894,3-1.237,3-2.894,3-3-1.343-3-3Zm7,9.954l1.422,2.133,4.257,2.783,1.642-2.511-3.743-2.447-2.236-3.354c-.65-.976-1.739-1.559-2.912-1.559h-4.859c-1.173,0-2.262,.583-2.912,1.559l-2.236,3.354L.679,15.36l1.642,2.511,4.257-2.783,1.422-2.133v4.734l-5.321,3.479-.679,.521v2.312h6v-2.727l3-1.961V11h2v8.312l2.583,1.688h-5.583v3h10.5l1.5-.077v-2.312l-6-3.923v-4.734Z"/>
</svg>
