<svg id="Layer_1" viewBox="0 0 24 24" xmlns="http://www.w3.org/2000/svg" data-name="Layer 1"><path d="m21 5.5 3 2.5-4 3h-1v-3.243l-1.414 1.329-1.336-1.488 2.251-2.082-2.268-2.083 1.328-1.494 1.438 1.345v-3.284h1l4 3-3 2.5zm-5.297 4.5 2.297 2.575v2.425c0 4.963-4.038 9-9 9s-9-4.037-9-9v-6.5c0-3.032 2.467-5.5 5.5-5.5h2v-3h3v3h2c.521 0 1.022.078 1.5.213v3.299c-.419-.317-.935-.513-1.5-.513h-2v4h5.203zm-12.703-1.5v1.5h4.5v-4h-2c-1.378 0-2.5 1.121-2.5 2.5zm12 4.5h-12v2c0 3.309 2.691 6 6 6s6-2.691 6-6z"/></svg>