<?xml version="1.0" encoding="UTF-8"?>
<svg xmlns="http://www.w3.org/2000/svg" id="Layer_1" data-name="Layer 1" viewBox="0 0 24 24">
  <path d="m24,15h-1v-2.227c0-4.465-2.828-8.435-7-10.031v-1.742h-8v1.742C3.828,4.338,1,8.308,1,12.773v2.227H0v3h1.77l.392.5c2.225,2.859,5.578,4.5,9.201,4.5h1.273c3.623,0,6.977-1.641,9.197-4.495l.396-.505h1.771v-3Zm-4-2.227v2.227h-4V6.069c2.418,1.367,4,3.892,4,6.705Zm-7-8.773v11h-2V4h2ZM4,12.773c0-2.813,1.582-5.338,4-6.704v8.931h-4v-2.227Zm8.636,7.227h-1.273c-2.055,0-3.991-.715-5.529-2h12.333c-1.538,1.284-3.474,2-5.531,2Z"/>
</svg>
