<svg id="Layer_1" viewBox="0 0 24 24" xmlns="http://www.w3.org/2000/svg" data-name="Layer 1"><path d="m7 18.24c.869.698 1.888 1.212 3 1.498v3.262h-5.511c-.456.604-1.173 1-1.989 1-1.381 0-2.5-1.119-2.5-2.5s1.119-2.5 2.5-2.5c.815 0 1.532.396 1.989 1h2.511zm10-14.24h2.511c.456.604 1.173 1 1.989 1 1.381 0 2.5-1.119 2.5-2.5s-1.119-2.5-2.5-2.5c-.815 0-1.532.396-1.989 1h-5.511v3.262c1.112.287 2.131.801 3 1.498zm4.5 15c-.815 0-1.532.396-1.989 1h-2.511v-1.76c-.869.698-1.888 1.212-3 1.498v3.262h5.511c.456.604 1.173 1 1.989 1 1.381 0 2.5-1.119 2.5-2.5s-1.119-2.5-2.5-2.5zm-19-14c.815 0 1.532-.396 1.989-1h2.511v1.76c.869-.698 1.888-1.212 3-1.498v-3.262h-5.511c-.456-.604-1.173-1-1.989-1-1.381 0-2.5 1.119-2.5 2.5s1.119 2.5 2.5 2.5zm11 11.224v1.776h-3v-1.776c-.525-.187-1-.467-1.414-.823l-1.544.885-1.492-2.603 1.532-.879c-.048-.262-.081-.529-.081-.805s.034-.543.081-.805l-1.532-.879 1.492-2.603 1.545.885c.415-.356.89-.636 1.414-.823v-1.776h3v1.776c.525.187 1 .467 1.414.823l1.544-.885 1.492 2.603-1.532.879c.048.262.081.529.081.805s-.034.543-.081.805l1.532.879-1.492 2.603-1.544-.885c-.415.356-.89.636-1.414.823zm-3-4.224c0 .827.673 1.5 1.5 1.5s1.5-.673 1.5-1.5-.673-1.5-1.5-1.5-1.5.673-1.5 1.5z"/></svg>