<?xml version="1.0" encoding="UTF-8"?>
<svg xmlns="http://www.w3.org/2000/svg" id="Layer_1" data-name="Layer 1" viewBox="0 0 24 24">
  <path d="m18.301,13.534l5.778-5.233-5.01-7.073-10.275,5.636C7.701,3.167,4.532,1.012,0,1.012v3c2.439,0,5.397.777,6.073,4.345l-3.329,1.838C-.181,12.268-.875,16.332,1.196,19.257c1.265,1.786,3.274,2.74,5.313,2.74,1.262,0,2.533-.373,3.649-1.133,1.007,1.297,2.577,2.136,4.341,2.136,3.032,0,5.5-2.468,5.5-5.5,0-1.558-.655-2.964-1.699-3.966Zm1.791-5.67l-4.661,4.221c-.303-.052-.613-.085-.931-.085-1.883,0-3.547.952-4.539,2.399l-2.417-3.427,10.622-5.828,1.926,2.72ZM3.645,17.522c-1.101-1.553-.751-3.704.77-4.833l.484-.265,3.96,5.614-.402.364c-1.567,1.057-3.712.674-4.812-.88Zm10.855,2.478c-1.379,0-2.5-1.121-2.5-2.5s1.121-2.5,2.5-2.5,2.5,1.121,2.5,2.5-1.121,2.5-2.5,2.5Z"/>
</svg>
