<?xml version="1.0" encoding="UTF-8"?>
<svg xmlns="http://www.w3.org/2000/svg" id="Layer_1" data-name="Layer 1" viewBox="0 0 24 24">
  <path d="m11,19.5c0,.828-.672,1.5-1.5,1.5h-1.654l-1.911,2.421c-.195.357-.569.579-.975.579h-1.459l1.167-3h-1.83c-.732,0-1.405-.4-1.756-1.042l-.977-1.791c-.297-.52.078-1.167.677-1.167.207,0,.405.082.551.228l1.11.772h2.241l-1.184-3h1.442c.407,0,.781.222.975.579l1.929,2.421h1.654c.828,0,1.5.672,1.5,1.5Zm8.5-6.5h-9c-.827,0-1.5-.673-1.5-1.5s.673-1.5,1.5-1.5h3.602l-.024-.023c-.861-.861-1.453-1.888-1.776-2.977h-1.801c-2.481,0-4.5,2.019-4.5,4.5s2.019,4.5,4.5,4.5h9c.828,0,1.5.672,1.5,1.5s-.672,1.5-1.5,1.5h-6.55c.024.165.05.329.05.5,0,.952-.383,1.813-1,2.444v.056h7.5c2.485,0,4.5-2.015,4.5-4.5s-2.015-4.5-4.5-4.5Zm3.035-11.536c-.944-.944-2.2-1.464-3.535-1.464s-2.591.52-3.536,1.464c-1.949,1.95-1.949,5.122.012,7.083l3.524,3.447,3.535-3.458c.945-.944,1.465-2.2,1.465-3.536s-.52-2.591-1.465-3.536Zm-3.535,5.536c-1.105,0-2-.895-2-2s.895-2,2-2,2,.895,2,2-.895,2-2,2Z"/>
</svg>
