<?xml version="1.0" encoding="UTF-8"?>
<svg xmlns="http://www.w3.org/2000/svg" id="Layer_1" data-name="Layer 1" viewBox="0 0 24 24" width="512" height="512"><path d="m9,2.5c0-1.381,1.119-2.5,2.5-2.5s2.5,1.119,2.5,2.5-1.119,2.5-2.5,2.5-2.5-1.119-2.5-2.5Zm-4.608,14.528l-.401.972H0v3h6l.892-2.164-1.215-.692c-.499-.314-.918-.698-1.285-1.116ZM21,0c-1.486,0-2.72,4.325-2.958,10h-3.361l-2.455-2.806c-.665-.759-1.625-1.194-2.634-1.194H2.817L.61,11.436l2.779,1.129,1.447-3.564h1.667l-1.265,3.084c-.646,1.573-.07,3.375,1.428,4.322l4.333,2.466v5.128h3v-6.872l-4.439-2.525,1.668-3.992,2.09,2.389h6.681v2h-1.902c.333,5.173,1.504,9,2.902,9,1.657,0,3-5.373,3-12S22.657,0,21,0Z"/></svg>
