<svg id="Layer_1" viewBox="0 0 24 24" xmlns="http://www.w3.org/2000/svg" data-name="Layer 1"><path d="m12.32 17.315c-.646.431-1.42.685-2.253.685-2.243 0-4.067-1.824-4.067-4.066 0-.833.253-1.607.685-2.253l1.471 1.471c-.099.242-.156.505-.156.782 0 1.14.927 2.066 2.067 2.066.277 0 .54-.057.782-.156zm11.68-5.315c0 6.617-5.383 12-12 12s-12-5.383-12-12 5.383-12 12-12 12 5.383 12 12zm-12 9c1.941 0 3.735-.624 5.207-1.672l-12.535-12.534c-1.049 1.472-1.672 3.266-1.672 5.206 0 4.963 4.038 9 9 9zm9-9c0-4.962-4.038-9-9-9-1.941 0-3.735.624-5.206 1.672l2.27 2.27c-.04-.312-.064-.627-.064-.943h2c0 1.271.453 2.53 1.192 3.625.449-1.091.674-2.202 1.329-2.857 1.025-1.025 2.686-1.025 3.71 0s1.025 2.686 0 3.711c-.655.655-1.766.88-2.857 1.329 1.095.739 2.355 1.192 3.625 1.192v2c-.316 0-.63-.024-.943-.064l2.27 2.27c1.049-1.472 1.672-3.266 1.672-5.207z"/></svg>