<svg id="Layer_1" viewBox="0 0 24 24" xmlns="http://www.w3.org/2000/svg" data-name="Layer 1"><path d="m22 12.987c0-5.003-3.697-9.148-8.5-9.875v-3.125h-3v3.125c-4.803.727-8.5 4.872-8.5 9.875 0 2.432.875 4.663 2.323 6.398l-2.417 2.576 2.188 2.053 2.477-2.64c1.565 1.017 3.427 1.614 5.429 1.614s3.864-.597 5.429-1.614l2.477 2.64 2.188-2.053-2.417-2.576c1.449-1.735 2.323-3.966 2.323-6.398zm-17 0c0-3.86 3.14-7 7-7s7 3.14 7 7-3.14 7-7 7-7-3.14-7-7zm-2.489-7.326-2.494-1.663c1.202-1.593 2.709-2.943 4.439-3.955l1.598 2.53c-1.377.788-2.578 1.84-3.543 3.088zm15.435-3.088 1.598-2.53c1.73 1.012 3.238 2.363 4.439 3.955l-2.494 1.662c-.965-1.248-2.167-2.3-3.543-3.088zm-1.448 9.825c.032 1.105-.361 2.325-1.498 3.533v2.07h-2v-9.001c0-1 .75-1.186 1.218-.841.816.585 2.176 2.101 2.28 4.238zm-4.498-.397c0 1.23-.618 2.009-1.5 2.33v3.67h-2v-3.67c-.882-.321-1.5-1.1-1.5-2.33 0-1.657 1.119-4 2.5-4s2.5 2.343 2.5 4z"/></svg>