<svg id="Layer_1" viewBox="0 0 24 24" xmlns="http://www.w3.org/2000/svg" data-name="Layer 1"><path d="m21.5 16h-2.5v8h1.6v-3h.922c1.375 0 2.492-1.125 2.478-2.5 0-1.381-1.119-2.5-2.5-2.5zm0 3.4h-.9v-1.8h.9c.496 0 .9.404.9.9s-.404.9-.9.9zm-11-3.4h-2.5v8h1.6v-3h.922c1.375 0 2.492-1.125 2.478-2.5 0-1.381-1.119-2.5-2.5-2.5zm0 3.4h-.9v-1.8h.9c.496 0 .9.404.9.9s-.404.9-.9.9zm5.2-3.4c-1.269 0-2.3 1.031-2.3 2.3v3.4c0 1.269 1.031 2.3 2.3 2.3s2.3-1.031 2.3-2.3v-3.4c0-1.269-1.031-2.3-2.3-2.3zm.7 5.7c0 .386-.314.7-.7.7s-.7-.314-.7-.7v-3.4c0-.386.314-.7.7-.7s.7.314.7.7zm-12.652-1.674 1.252 3.974h-1.744l-.968-3.401-.688.002v3.4h-1.6v-8h1.6v3h.784l.872-3h1.744l-1.252 4.026zm1.252-.826h2v1.6h-2zm1-7.2h2c1.771 0 3.36-.776 4.46-2h3.069l2.314-1.157.922-1.843h-4.855c.055-.326.09-.659.09-1s-.035-.674-.09-1h7.326l1.792 3.584c.597-.699.972-1.594.972-2.584 0-2.206-1.794-4-4-4h-7.54c-1.099-1.224-2.688-2-4.46-2h-2c-3.309 0-6 2.691-6 6s2.691 6 6 6zm5-6c0 1.483-1.084 2.71-2.5 2.949v-5.898c1.416.24 2.5 1.466 2.5 2.949zm-5.5-2.949v5.899c-1.416-.24-2.5-1.466-2.5-2.949s1.084-2.71 2.5-2.949zm16.167 7.283 2.333 1.167-2.333 1.167-1.167 2.333-1.167-2.333-2.333-1.167 2.333-1.167 1.167-2.333zm-7.333 2.333 1.667.833-1.667.833-.833 1.667-.833-1.667-1.667-.833 1.667-.833.833-1.667z"/></svg>