<?xml version="1.0" encoding="UTF-8"?>
<svg xmlns="http://www.w3.org/2000/svg" id="Layer_1" data-name="Layer 1" viewBox="0 0 24 24">
  <path d="m21.304,15.64l1.838,1.061-1.5,2.598-1.839-1.062c-1.537,1.919-3.765,3.253-6.303,3.638v2.125h-3v-2.125c-2.539-.385-4.766-1.719-6.303-3.638l-1.839,1.062-1.5-2.598,1.839-1.061c-.444-1.13-.696-2.355-.696-3.64s.252-2.51.696-3.64l-1.839-1.061,1.5-2.598,1.839,1.062c1.537-1.919,3.765-3.253,6.303-3.638V0h3v2.125c.676.106,1.331.272,1.957.503l-2.452,2.452c-.329-.048-.663-.081-1.005-.081-3.859,0-7,3.141-7,7s3.141,7,7,7,7-3.141,7-7c0-.342-.033-.676-.081-1.005l2.452-2.452c.4,1.079.629,2.241.629,3.457,0,1.285-.252,2.51-.696,3.64Zm-11.304-1.64h3.086l7.75-7.75-3.086-3.086-7.75,7.75v3.086ZM23.361.639c-.852-.852-2.234-.852-3.086,0l-1.111,1.111,3.086,3.086,1.111-1.111c.852-.852.852-2.234,0-3.086Z"/>
</svg>
