<svg id="Layer_1" viewBox="0 0 24 24" xmlns="http://www.w3.org/2000/svg" data-name="Layer 1"><path d="m18.96 10.284c-.085-.963-.334-1.892-.759-2.767l2.698-1.311c.72 1.48 1.086 3.07 1.097 4.722.003.043.004.07.004.071 0 .309 0 .68-.008 1.097-.828-.843-1.867-1.474-3.032-1.813zm-7.96-2.283c1.551 0 2.815 1.187 2.969 2.697.879-.424 1.857-.67 2.893-.691l.035-.06c-.5-2.807-2.949-4.947-5.898-4.947-1.614 0-3.129.632-4.264 1.779l2.133 2.109c.567-.573 1.324-.889 2.131-.889zm1.495 3.646c0-.219.011-.419.005-.646h-3c.5 7.527-3.008 9.307-6.5 10.027v3c.258-.086 1.007-.245 1.292-.33 1.821-.547 4.455-1.332 6.248-4.001-.347-.83-.54-1.741-.54-2.696 0-2.149.97-4.069 2.495-5.354zm9.291 12.26-2.491-2.49c-.691.361-1.463.584-2.295.584-2.757 0-5-2.243-5-5s2.243-5 5-5 5 2.243 5 5c0 .831-.223 1.604-.584 2.295l2.491 2.49zm-2.786-6.906c0-1.103-.897-2-2-2s-2 .897-2 2 .897 2 2 2 2-.897 2-2zm-14-6.001c0 2.514-.07 4.203-1.006 4.766-.245.146-.617.234-.994.234v3c.535 0 1.576-.086 2.537-.662 2.463-1.479 2.463-4.591 2.463-7.338 0-.205.021-.409.061-.606l-2.938-.602c-.081.394-.122.801-.122 1.208zm-2 0c0-4.411 3.589-8 8-8 1.746 0 3.405.555 4.798 1.604l1.805-2.396c-1.918-1.445-4.201-2.208-6.603-2.208-6.065 0-11 4.935-11 11v2h3z"/></svg>