<?xml version="1.0" encoding="UTF-8"?>
<svg xmlns="http://www.w3.org/2000/svg" id="Layer_1" data-name="Layer 1" viewBox="0 0 24 24">
  <path d="m21,14c0-1.103-.897-2-2-2h-3c-1.103,0-2,.897-2,2-1.654,0-3,1.346-3,3v7h13v-7c0-1.654-1.346-3-3-3Zm0,7h-7v-4s2,0,2,0v2h3v-2h2v4Zm-10.974-7c-.635.838-1.026,1.87-1.026,3h-4c-1.103,0-2,.897-2,2v5H0v-5c0-2.757,2.243-5,5-5h5.026Zm-5.4-2c-1.231.181-2.38.661-3.358,1.381.006-.026.004-.052.011-.078l1.371-7.57C3.146,2.46,5.921,0,9.126,0s5.979,2.46,6.477,5.732l.774,4.268h-.376c-.975,0-1.858.365-2.553.947l-.805-4.734c-.159-1.103-.802-2.055-1.666-2.631-1.228,1.135-3.704,2.418-4.849,2.418,0,1.654,1.346,3,3,3,.57,0,1.326-.18,1.826-.579l.525,3.085c-.724.311-1.515.495-2.351.495h-4.5Z"/>
</svg>
