<svg id="Layer_1" viewBox="0 0 24 24" xmlns="http://www.w3.org/2000/svg" data-name="Layer 1"><path d="m24 2.031v-1.921l-15 3.75v1.171c0 2.679-.777 4.286-1.235 5h-3.765c-1.607 0-4 1.065-4 4h3.797c1.115 1.295 3.638 3.941 6.233 4.752l-.742 2.339c-1.094.257-2.288 1.113-2.288 2.909h2c0-.806.55-.988 1-1h.566l1.099-1.831 1.735-2.169h2.887l3.433 4s3 .5 4-1.5-1-4-1-4l-4.285-1.484-.965-1.929c4.156-2.561 6.529-5.604 6.529-12.087zm-14.879 11c.868-.975 2.291-1.969 2.836-6.818l8.952-2.238c-.079.788-.23 1.472-.415 2.113l-6.994 1.943h6.185c-.444.75-1.01 1.401-1.687 2h-4.998l3.098 1.408c-.415.261-.857.519-1.327.781l-1.256.697 1.558 3.114h-3.573c-1.183 0-3.062-1.481-4.547-3z"/></svg>