<?xml version="1.0" encoding="UTF-8"?>
<svg xmlns="http://www.w3.org/2000/svg" id="Layer_1" data-name="Layer 1" viewBox="0 0 24 24" width="512" height="512"><path d="m3,12H0C0,5.383,5.383,0,12,0c3.207,0,6.253,1.285,8.485,3.515l2.476-2.476v5.83c0,.633-.513,1.146-1.146,1.146h-5.83l2.378-2.378c-1.674-1.672-3.959-2.636-6.363-2.636C7.038,3,3,7.037,3,12Zm18,0c0,4.963-4.038,9-9,9-2.405,0-4.69-.964-6.364-2.636l2.378-2.378H1.993c-.527,0-.955.428-.955.955v6.021l2.477-2.477c2.232,2.23,5.278,3.515,8.485,3.515,6.617,0,12-5.383,12-12h-3Zm-7.5-6h-3v7h3v-7Zm-3,12h3v-3h-3v3Z"/></svg>
