<svg id="Layer_1" viewBox="0 0 24 24" xmlns="http://www.w3.org/2000/svg" data-name="Layer 1"><path d="m20.5 0h-17c-1.93 0-3.5 1.57-3.5 3.5v20.5h24v-20.5c0-1.93-1.57-3.5-3.5-3.5zm.5 21h-18v-17.5c0-.276.225-.5.5-.5h17c.275 0 .5.224.5.5zm-3.359-13.967c.582.582.859 1.348.859 2.112 0 1.982-1.309 4.349-3.149 6.206-1.803 1.819-4.115 3.149-6.206 3.149-.764 0-1.531-.276-2.112-.859l-1.533-1.533 3.031-3.031 1.965 1.965c1.155-.464 2.066-1.036 2.793-1.753.765-.755 1.326-1.672 1.753-2.793l-1.965-1.965 3.031-3.031 1.533 1.533z"/></svg>