<svg id="Layer_1" viewBox="0 0 24 24" xmlns="http://www.w3.org/2000/svg" data-name="Layer 1"><path d="m12.721 24h-12.721v-20.5c0-1.93 1.57-3.5 3.5-3.5h13c1.93 0 3.5 1.57 3.5 3.5v6.762c-.64-.165-1.308-.262-2-.262-.339 0-.672.028-1 .069v-6.569c0-.276-.224-.5-.5-.5h-13c-.276 0-.5.224-.5.5v17.5h7.587c.471 1.162 1.208 2.185 2.134 3zm11.279-6c0 3.314-2.686 6-6 6s-6-2.686-6-6 2.686-6 6-6 6 2.686 6 6zm-1.641-1.256-1.398-1.43-3.614 3.703-2.216-2.301-1.387 1.441 2.182 2.268c.766.765 2.079.763 2.823.019l.004-.004 3.607-3.696zm-12.359-2.744c-2.761 0-5-2.239-5-5s2.239-5 5-5 5 2.239 5 5-2.239 5-5 5zm-1.5-6.5c0 .828.672 1.5 1.5 1.5s1.5-.672 1.5-1.5-.672-1.5-1.5-1.5-1.5.672-1.5 1.5zm4.094 2.979c-.274-.293-.661-.479-1.094-.479h-3c-.433 0-.82.186-1.094.48.518.903 1.48 1.52 2.594 1.52s2.076-.617 2.594-1.521zm-7.594 5.521v3h5.069c-.041-.328-.069-.661-.069-1 0-.692.097-1.36.262-2z"/></svg>