<?xml version="1.0" encoding="UTF-8"?>
<svg xmlns="http://www.w3.org/2000/svg" id="Layer_1" data-name="Layer 1" viewBox="0 0 24 24">
  <path d="M23,6c0-3.813-4.009-6-11-6S1,2.187,1,6c0,2.018,1.234,4.498,3.221,6.495-.771,1.327-1.221,2.863-1.221,4.505-.015,2.701,1.26,5.263,3.326,7h11.349c2.066-1.737,3.34-4.299,3.326-7,0-1.642-.449-3.178-1.221-4.505,1.987-1.998,3.221-4.478,3.221-6.495ZM12,3c3.69,0,8,.786,8,3,0,.939-.683,2.611-2.153,4.172-1.575-1.35-3.615-2.172-5.847-2.172s-4.272,.822-5.847,2.172c-1.47-1.561-2.153-3.233-2.153-4.172,0-2.214,4.31-3,8-3Zm4.462,18H7.538c-.996-1.103-1.538-2.503-1.538-4,0-3.309,2.691-6,6-6s6,2.691,6,6c0,1.497-.542,2.897-1.538,4Zm-1.462-4c0,.772-.3,1.468-.779,2h-4.443c-.479-.532-.779-1.228-.779-2,0-1.657,1.343-3,3-3s3,1.343,3,3Z"/>
</svg>
