<?xml version="1.0" encoding="UTF-8"?>
<svg xmlns="http://www.w3.org/2000/svg" id="Layer_1" data-name="Layer 1" viewBox="0 0 24 24">
  <path d="m19.372,1.779L17,.085l.004,3.863c.016,2.323.027,4.158-.848,5.038-.411.414-1.098.702-2.052.862.25-.389.395-.852.395-1.349v-3.5l-1.304,1.304c-.355-.194-.763-.304-1.196-.304s-.841.11-1.196.304l-1.304-1.304v3.5c0,.497.146.959.395,1.349-.954-.161-1.641-.449-2.052-.862-.875-.88-.863-2.715-.848-5.038l.004-3.863-2.372,1.694C1.746,3.838-.07,7.86,0,12.026c.021,1.188.437,3.128.483,3.345l.479,2.077,1.811-1.142c.078-.049.779-.469,1.396-.058.528.352.793,1.425.838,1.882l.203,2.335,2.035-1.163c.603-.344,1.134-.441,1.624-.296.451.134.852.459,1.163.797.868,2.434,1.969,4.197,1.969,4.197,0,0,1.101-1.763,1.969-4.197.312-.338.712-.663,1.163-.797.49-.145,1.021-.047,1.624.296l2.035,1.163.203-2.335c.033-.375.292-1.518.838-1.882.614-.412,1.317.009,1.377.045l1.836,1.246.472-2.168c.047-.217.463-2.158.483-3.346.07-4.166-1.746-8.188-4.628-10.246Zm-11.824,14.244c-.312-.802-.838-1.687-1.716-2.271-.922-.615-1.878-.752-2.717-.658-.062-.418-.11-.827-.115-1.119-.03-1.738.367-3.462,1.074-4.909.149,1.573.558,2.945,1.642,4.035.826.831,1.945,1.377,3.432,1.662-.094.529-.148,1.107-.148,1.737,0,.498.034.997.094,1.491-.508-.076-1.028-.065-1.547.032Zm13.452-4.049c-.005.295-.053.702-.115,1.12-.834-.094-1.795.043-2.717.658-.878.585-1.403,1.47-1.716,2.271-.521-.097-1.039-.108-1.547-.032.06-.495.094-.994.094-1.491,0-.63-.055-1.208-.148-1.737,1.488-.285,2.607-.831,3.432-1.662,1.084-1.09,1.492-2.462,1.642-4.035.707,1.446,1.104,3.171,1.074,4.908Z"/>
</svg>
