<svg id="Layer_1" viewBox="0 0 24 24" xmlns="http://www.w3.org/2000/svg" data-name="Layer 1"><path d="m16.069 2.003c-.043-.003-.069-.003-.069-.003-1.487 0-2.865.47-4 1.264-1.135-.794-2.513-1.264-4-1.264 0 0-.026 0-.069.003-4.379.038-7.931 3.609-7.931 7.997 0 6.617 5.383 12 12 12s12-5.383 12-12c0-4.388-3.552-7.959-7.931-7.997zm-4.069 16.997c-4.963 0-9-4.037-9-9 0-2.757 2.243-5 5-5 .705 0 1.359.199 1.935.521-.591 1.026-.935 2.212-.935 3.479s.345 2.452.937 3.478c-.577.323-1.231.522-1.937.522h-2.315c.59 1.237 1.531 2.273 2.696 2.981 1.341-.073 2.581-.528 3.618-1.252 1.037.724 2.277 1.179 3.618 1.252 1.165-.708 2.106-1.743 2.696-2.981h-2.315c-.706 0-1.361-.2-1.938-.522.592-1.025.938-2.21.938-3.478s-.344-2.453-.935-3.479c.576-.322 1.229-.521 1.935-.521 2.757 0 5 2.243 5 5 0 4.963-4.037 9-9 9z"/></svg>