<?xml version="1.0" encoding="UTF-8"?>
<svg xmlns="http://www.w3.org/2000/svg" id="Layer_1" data-name="Layer 1" viewBox="0 0 24 24">
  <path d="m21.499,2c.319-.589.501-1.272.501-2h-3c0,.542-.335,1-.732,1h-2.535c-.397,0-.732-.458-.732-1h-3c0,.728.183,1.411.501,2h-2.501c0,1.237.749,2.299,1.818,2.758l.246,1.246h-6.564c-1.01,0-1.961.431-2.628,1.189L-.007,9.909l2.007,2.127v11.964h5v-1.683c1.428-.359,2.579-1.216,3.136-2.317h3.864v4h5v-8h-3v1H5v-5.056c.635.65,1.519,1.056,2.5,1.056,1.933,0,3.5-1.567,3.5-3.5,0-.17-.027-.333-.05-.497h1.707l.459,2.323c-.075.21-.116.437-.116.673,0,1.105.895,2,2,2h4c1.105,0,2-.895,2-2,0-.236-.041-.463-.116-.673l1.298-6.569c1.069-.459,1.818-1.521,1.818-2.758h-2.501Zm-3.411,8h-2.175l-1.217-6.157c.329.102.677.157,1.037.157h2.535c.36,0,.707-.055,1.037-.157l-1.217,6.157Z"/>
</svg>
