<?xml version="1.0" encoding="UTF-8"?>
<svg xmlns="http://www.w3.org/2000/svg" id="Layer_1" data-name="Layer 1" viewBox="0 0 24 24">
  <path d="M22,19V8c0-3.853-1.252-8-4-8H5.5C2.416,0,0,3.514,0,8c0,4.24,2.159,7.607,5,7.964v3.536c0,2.481,2.019,4.5,4.5,4.5h14.5v-3c-1.103,0-2-.897-2-2Zm-3-11c0,2.514-.576,4.2-1,4.82-.424-.62-1-2.306-1-4.82s.576-4.2,1-4.82c.424,.62,1,2.306,1,4.82Zm-16,0c0-2.862,1.32-5,2.5-5H14.796c-.536,1.453-.796,3.255-.796,5s.26,3.547,.796,5H5.5c-1.18,0-2.5-2.138-2.5-5Zm5,11.5v-3.5h10c.359,0,.691-.074,1-.206v3.206c0,.712,.154,1.386,.424,2H9.5c-.827,0-1.5-.673-1.5-1.5Zm-2.707-9.707l1.793-1.793-1.793-1.793,1.414-1.414,1.793,1.793,1.793-1.793,1.414,1.414-1.793,1.793,1.793,1.793-1.414,1.414-1.793-1.793-1.793,1.793-1.414-1.414Z"/>
</svg>
