<?xml version="1.0" encoding="UTF-8"?>
<svg xmlns="http://www.w3.org/2000/svg" id="Layer_1" data-name="Layer 1" viewBox="0 0 24 24">
  <path d="m23.996,6.411l-1.587.092c-.442.027-1.569-.005-2.475-.315l1.622-1.622-2.121-2.121-1.822,1.822-3.707-3.721-6.351,6.351,3.706,3.721L-.012,21.891l2.121,2.121,11.063-11.063c.289.853.357,1.922.33,2.47l-.086,1.582h1.584c5.215,0,9-3.785,9-9l-.004-1.589Zm-7.566,7.452c-.148-1.242-.561-2.876-1.664-3.979l-2.972-2.983,2.108-2.108,2.97,2.981c1.114,1.114,2.746,1.523,3.989,1.666-.47,2.329-2.101,3.957-4.432,4.424Z"/>
</svg>
