<?xml version="1.0" encoding="UTF-8"?>
<svg xmlns="http://www.w3.org/2000/svg" id="Layer_1" data-name="Layer 1" viewBox="0 0 24 24">
  <path d="m19.06,6.911L12,.006l-7.071,6.917c-3.899,3.898-3.899,10.243,0,14.142,1.889,1.889,4.399,2.929,7.071,2.929s5.183-1.04,7.071-2.929c3.899-3.898,3.899-10.243-.012-14.153Zm-2.109,12.032c-1.322,1.322-3.08,2.05-4.95,2.05s-3.628-.728-4.95-2.05c-2.729-2.729-2.729-7.17-.012-9.888l4.962-4.853,4.95,4.841c2.729,2.729,2.729,7.17,0,9.899Zm-2.122-6.772c1.562,1.562,1.562,4.095,0,5.657-.781.781-1.805,1.172-2.828,1.172-1.024,0-2.047-.391-2.829-1.172-1.562-1.562-1.562-4.095,0-5.657l2.828-2.766,2.828,2.766Z"/>
</svg>
