<?xml version="1.0" encoding="UTF-8"?>
<svg xmlns="http://www.w3.org/2000/svg" id="Layer_1" data-name="Layer 1" viewBox="0 0 24 24" width="512" height="512"><path d="M8,10c-1,0-3,2-3,2,0-1.631,.733-5,3-5s3,3.369,3,5c0,0-2-2-3-2Zm8-3c-2.267,0-3,3.369-3,5,0,0,2-2,3-2s3,2,3,2c0-1.631-.733-5-3-5Zm8,5c0,6.617-5.383,12-12,12S0,18.617,0,12,5.383,0,12,0s12,5.383,12,12Zm-3,0c0-4.962-4.038-9-9-9S3,7.038,3,12s4.038,9,9,9c.286,0,.568-.017,.848-.043,.88,.671,1.923,1.034,2.953,1.034,.779,0,1.55-.207,2.234-.642,1.105-.703,1.813-1.893,1.943-3.263,.053-.567,.007-1.142-.126-1.701,.728-1.299,1.148-2.793,1.148-4.385Zm-4.995,1.5c-.019,.016-1.872,1.623-4.005,1.623s-3.987-1.606-4.005-1.623l-1.994,2.241c.109,.097,2.704,2.381,6,2.381,.322,0,.635-.028,.941-.069l.3,.42c.805,1.266,2.454,1.994,3.72,1.189,1.266-.805,1.304-2.608,.499-3.873l-1.454-2.289Z"/></svg>
