<?xml version="1.0" encoding="UTF-8"?>
<svg xmlns="http://www.w3.org/2000/svg" id="Layer_1" data-name="Layer 1" viewBox="0 0 24 24">
  <path d="m13.5,24c-2.12,0-3.11-1.288-3.906-2.323-.541-.704-1.052-1.368-1.974-1.845-.84-.435-1.974-.521-3.07-.603-1.701-.128-4.55-.343-4.55-3.229,0-1.513.822-2.55,1.549-3.465.585-.738,1.09-1.375,1.208-2.238.09-.656-.409-1.75-.851-2.716C1.144,5.909-.01,3.382,2.1,1.8c1.67-1.25,3.624-.396,5.35.36,1.047.458,2.115.931,2.888.849.88-.096,1.966-.834,2.925-1.486,1.361-.924,2.764-1.885,4.232-1.394,1.736.578,1.812,2.75,1.885,4.85.029.83.078,2.219.28,2.575.212.232.7.598,1.172.952,1.338,1.002,3.169,2.374,3.169,4.495,0,2.205-2.442,3.026-4.404,3.687-.69.232-1.732.583-1.978.812-.205.25-.527,1.376-.72,2.049-.598,2.087-1.274,4.452-3.398,4.452ZM3,15.994c.331.135,1.189.2,1.775.244,1.266.095,2.842.214,4.226.931,1.513.784,2.321,1.836,2.971,2.681.604.785.853,1.059,1.254,1.13.272-.455.59-1.561.788-2.256.363-1.267.706-2.463,1.356-3.209.704-.807,1.949-1.226,3.269-1.67.697-.235,1.949-.656,2.343-.986-.149-.604-1.181-1.376-1.949-1.952-.619-.464-1.204-.902-1.655-1.411-.877-.99-.935-2.652-.996-4.412-.019-.551-.047-1.365-.124-1.912-.394.21-.919.567-1.309.833-1.248.848-2.663,1.81-4.285,1.987-1.554.168-3.076-.496-4.417-1.083-.674-.295-2.081-.911-2.346-.708-.093.322.426,1.458.735,2.136.609,1.336,1.301,2.851,1.094,4.368-.229,1.676-1.117,2.796-1.83,3.695-.556.7-.896,1.152-.899,1.595Z"/>
</svg>
