<svg id="Layer_1" viewBox="0 0 24 24" xmlns="http://www.w3.org/2000/svg" data-name="Layer 1"><path d="m12.611 24h-1.129l-2.295-1h-3.312l-.855-2.93.519-1.494-1.067-.253-.326-.52c-.378-.602-1.316-2.328-1.421-2.522l-.439-.809.738-1.072-.357-.664.449-4.454 1.359-.318.73-4.965h2.676l.464-.462.346-2.537h1.782l1.5 1h2.027v.929l2.582-.805 3.918 3.159v2.263l1.205 1.807-.817 1.85 1.039 2.797h-2.677l-1.5 2h-.64l2.875 2.858-1.974 2.49-.027 2.652h-2.29l-1.878.496-.61-.098c-.075.093-.596.602-.596.602zm-4.391-4h1.592l1.547.674.308-.56 1.998.319 1.35-.356.008-.787.933-1.176-1.056-1.058-1.899-2.56v-2.496h3.25l2.045-3.353-.795-1.193v-1.737l-1.554-1.253-1.718.536h-3.229v-.873l-1.88 1.873h-1.324l-.65 4.422-1.261.294-.142 1.407.791 1.469-.732 1.062c.191.347.403.727.581 1.038l3.079.73-1.241 3.576z"/></svg>