<?xml version="1.0" encoding="UTF-8"?>
<svg xmlns="http://www.w3.org/2000/svg" id="Layer_1" data-name="Layer 1" viewBox="0 0 24 24">
  <path d="m20.5,2H3.5c-1.93,0-3.5,1.57-3.5,3.5v16.5h24V5.5c0-1.93-1.57-3.5-3.5-3.5Zm.5,17H3V5.5c0-.276.225-.5.5-.5h17c.275,0,.5.224.5.5v13.5Zm-5-12h-3v10h3c1.654,0,3-1.346,3-3v-4c0-1.654-1.346-3-3-3Zm1,7c0,.551-.448,1-1,1h-1v-6h1c.552,0,1,.449,1,1v4Zm-6-4.25v.345h-2v-.345c0-.414-.337-.75-.751-.75h-.475c-.414,0-.751.337-.751.75,0,.488.475.81,1.48,1.379,1.054.596,2.496,1.412,2.496,3.12,0,1.517-1.234,2.75-2.751,2.75h-.475c-1.517,0-2.751-1.234-2.751-2.75v-.345h2v.345c0,.414.337.75.751.75h.475c.414,0,.751-.337.751-.75,0-.488-.475-.81-1.48-1.379-1.054-.596-2.496-1.412-2.496-3.12,0-1.517,1.234-2.75,2.751-2.75h.475c1.517,0,2.751,1.234,2.751,2.75Z"/>
</svg>
