<?xml version="1.0" encoding="UTF-8"?>
<svg xmlns="http://www.w3.org/2000/svg" id="Layer_1" data-name="Layer 1" viewBox="0 0 24 24">
  <path d="m18,12c-3.314,0-6,2.686-6,6s2.686,6,6,6,6-2.686,6-6-2.686-6-6-6Zm1,11.05h-2v-2h2v2Zm.447-3.42c-.459.252-.459.365-.459.42h-2c0-1.35,1.124-1.969,1.493-2.172.289-.16.595-.535.502-1.065-.069-.393-.402-.726-.793-.794-.311-.057-.603.021-.832.216-.228.19-.358.47-.358.767h-2c0-.889.391-1.727,1.072-2.299.681-.572,1.579-.814,2.464-.653,1.21.211,2.205,1.206,2.417,2.418.224,1.271-.381,2.542-1.506,3.163ZM4,2.5c0-1.381,1.119-2.5,2.5-2.5s2.5,1.119,2.5,2.5-1.119,2.5-2.5,2.5-2.5-1.119-2.5-2.5Zm8,7c0-1.93-1.57-3.5-3.5-3.5h-4c-1.93,0-3.5,1.57-3.5,3.5v8.5h2v6h3v-6h1v6h3v-6c0-2.026.759-3.87,2-5.279v-3.221Zm-8,0c0-.275.224-.5.5-.5h4c.276,0,.5.225.5.5v5.5h-5v-5.5Z"/>
</svg>
