<?xml version="1.0" encoding="UTF-8"?>
<svg xmlns="http://www.w3.org/2000/svg" id="Layer_1" data-name="Layer 1" viewBox="0 0 24 24">
  <path d="m20.5,0H3.5C1.57,0,0,1.57,0,3.5v20.5h13v-12.639c1.703,2.249,3.843,3.626,5.644,4.452-1.423,1.552-2.859,3.761-3.137,6.538l-.165,1.649h8.657V3.5c0-1.93-1.57-3.5-3.5-3.5ZM3.5,3h6.5v8H3V3.5c0-.276.224-.5.5-.5Zm-.5,18v-7h7v7H3ZM13.08,3h2.014c.43,3.343,2.251,5.608,3.906,7.015v-4.632c-.384-.685-.68-1.483-.848-2.383h2.348c.275,0,.5.224.5.5v10.084c-2.611-.88-7.326-3.467-7.92-10.584Zm7.92,18h-2.129c.48-1.333,1.314-2.454,2.129-3.312v3.312Zm-16-5h3v3h-3v-3Z"/>
</svg>
