<?xml version="1.0" encoding="UTF-8"?>
<svg xmlns="http://www.w3.org/2000/svg" id="Layer_1" data-name="Layer 1" viewBox="0 0 24 24" width="512" height="512"><path d="M12,24C5.383,24,0,18.617,0,12S5.383,0,12,0s12,5.383,12,12-5.383,12-12,12Zm0-21C7.037,3,3,7.037,3,12s4.037,9,9,9,9-4.037,9-9S16.963,3,12,3Zm1,10c0,2.267,3.369,3,5,3,0,0-2-2-2-3s2-3,2-3c-1.631,0-5,.733-5,3Zm-2,0c0-2.267-3.369-3-5-3,0,0,2,2,2,3s-2,3-2,3c1.631,0,5-.733,5-3Zm1,6c1.117,0,2.103,.702,2.104,.703l1.791-2.406c-.178-.133-1.802-1.297-3.896-1.297s-3.718,1.164-3.896,1.297l1.783,2.412c.01-.007,.995-.709,2.112-.709Zm-2.668-12.445l-1.664-1.109c-.772,1.158-1.852,2.058-3.039,2.531l.74,1.857c1.583-.631,2.953-1.766,3.963-3.279Zm10.039,1.422c-1.188-.474-2.267-1.373-3.039-2.531l-1.664,1.109c1.01,1.514,2.38,2.648,3.963,3.279l.74-1.857Z"/></svg>
