<?xml version="1.0" encoding="UTF-8"?>
<svg xmlns="http://www.w3.org/2000/svg" id="Layer_1" data-name="Layer 1" viewBox="0 0 24 24">
  <path d="m12,2.5C12,1.119,13.119,0,14.5,0s2.5,1.119,2.5,2.5-1.119,2.5-2.5,2.5-2.5-1.119-2.5-2.5Zm12,15.5h-2v6h-3v-6H5v6h-3v-6H0v-3h2v-3.122l2.014-2.014c.071-1.04.928-1.865,1.986-1.865,1.105,0,2,.895,2,2,0,1.058-.825,1.916-1.865,1.986l-1.135,1.135v1.879h5v-6.325L5.787,2.882l2.426-1.765,3.551,4.882h5.473l3.551-4.882,2.426,1.765-4.213,5.793v6.325h5v3Zm-11-3h3v-6h-3v6Z"/>
</svg>
