<?xml version="1.0" encoding="UTF-8"?>
<svg xmlns="http://www.w3.org/2000/svg" id="Layer_1" data-name="Layer 1" viewBox="0 0 24 24">
  <path d="M19.568,10.905l-1.842-.78,.781-1.842,1.842,.78-.781,1.842Zm3.283-8.272c-.75-.579-1.7-.774-2.607-.538-.906,.237-1.664,.891-2.028,1.75l1.842,.78c.124-.292,.382-.514,.692-.596,.178-.047,.528-.084,.878,.187,.273,.211,.417,.601,.348,.946-.104,.526-.529,.793-.904,.824-.408,.034-1.65,.138-2.175,1.376l1.842,.78c.024-.056,.053-.126,.5-.164,1.349-.114,2.433-1.089,2.699-2.428,.217-1.095-.21-2.241-1.087-2.918ZM3.629,9.071l.78,1.841,1.842-.78-.78-1.841-1.842,.78Zm.17-4.663c.305,.44,.201,.931-.037,1.223-.287,.351-1.047,1.282-.523,2.519l1.842-.78c-.024-.056-.054-.126,.23-.474,.856-1.048,.909-2.506,.132-3.627-.636-.918-1.754-1.411-2.853-1.249-.938,.136-1.74,.683-2.2,1.5-.459,.816-.517,1.815-.153,2.674l1.842-.78c-.124-.292-.104-.633,.054-.912,.09-.16,.307-.438,.745-.501,.34-.052,.72,.118,.922,.409Zm7.19,4.591h2v-2h-2v2Zm.405-6.792c.145-.111,.455-.282,.882-.171,.333,.087,.617,.39,.689,.736,.109,.524-.178,.936-.512,1.112-.362,.191-1.464,.772-1.464,2.115h2c0-.061,0-.137,.396-.346,1.198-.631,1.815-1.952,1.538-3.288-.228-1.094-1.068-1.982-2.14-2.263-.918-.241-1.869-.05-2.611,.522-.741,.572-1.184,1.47-1.184,2.402h2c0-.317,.151-.623,.405-.819Zm9.595,14.556c0,2.331-1.896,4.228-4.228,4.228h-3.772v3h-3v-2.03c-.74,.638-1.698,1.03-2.75,1.03-2.331,0-4.228-1.896-4.228-4.228,0-1.293,.683-2.445,1.497-3.195,.201-2.142,1.908-3.852,4.048-4.057,.876-.965,2.11-1.521,3.44-1.521,1.258,0,2.448,.504,3.319,1.38,1.014,.094,1.941,.576,2.614,1.351,1.785,.51,3.059,2.14,3.059,4.042Zm-3,0c0-.613-.469-1.128-1.091-1.198l-.733-.082-.382-.632c-.09-.149-.353-.497-.831-.497l-1.044,.138-.518-.762c-.314-.463-.835-.739-1.392-.739-.582,0-1.114,.304-1.424,.812l-.489,.802-1.095-.109c-.861-.012-1.5,.67-1.5,1.496-.056,.282,.027,.827,.085,1.101l-.841,.532c-.398,.252-.722,.763-.722,1.14,0,.677,.551,1.228,1.228,1.228s1.227-.551,1.227-1.228c0-.243-.07-.478-.203-.677l2.498-1.662c.317,.478,.532,1.009,.635,1.566h5.366c.677,0,1.228-.551,1.228-1.228Z"/>
</svg>
