<?xml version="1.0" encoding="UTF-8"?>
<svg xmlns="http://www.w3.org/2000/svg" id="Layer_1" data-name="Layer 1" viewBox="0 0 24 24">
  <path d="m4.049,21h1.744c-.129.326-.23.674-.278,1.049l-.254,1.951H1.987l-.378-.939c-.066-.163-1.609-4.025-1.609-7.061,0-1.461.362-2.915,1.046-4.204l.423-.796h7.921c-.701.873-1.217,1.889-1.503,3H3.344c-.229.638-.344,1.308-.344,2,0,1.666.637,3.796,1.049,5Zm9.951-12c-.9-.952-1.32-3.053-1.093-4.343.076-.431.082-.885.006-1.352-.257-1.582-1.496-2.894-3.065-3.22-.29-.06-.575-.085-.854-.085-.279,0-.564.024-.854.085-1.569.327-2.808,1.638-3.065,3.22-.076.467-.07.922.006,1.352.227,1.29-.183,3.391-1.082,4.343h10Zm9.949,15H7.278l.22-1.693c.124-.951.968-1.84,1.571-2.476.604-.639.835-1.656.636-2.791-.117-.667-.12-1.35-.01-2.031.393-2.421,2.261-4.381,4.647-4.877.822-.172,1.723-.172,2.545,0,2.387.497,4.255,2.457,4.647,4.876.111.681.107,1.365-.01,2.032-.199,1.134.032,2.151.635,2.79.604.636,1.449,1.525,1.571,2.478l.219,1.692Zm-4.648-3c-.756-1.248-1.021-2.825-.731-4.479.06-.335.061-.683.004-1.031-.192-1.184-1.137-2.179-2.298-2.421-.416-.086-.906-.086-1.322,0-1.16.242-2.105,1.237-2.297,2.42-.056.349-.055.697.004,1.033.291,1.653.024,3.23-.732,4.478h7.373Z"/>
</svg>
