<svg id="Layer_1" viewBox="0 0 24 24" xmlns="http://www.w3.org/2000/svg" data-name="Layer 1"><path d="m23 13.844c0-2.969-2.113-5.546-5.024-6.128l-3.681-.736c-.567-.114-.998-.575-1.074-1.157l-.396-2.875c-.134-.935-.655-1.778-1.432-2.315-.776-.538-1.75-.727-2.756-.502l-7.637 2.162v12.207c0 .895.348 1.704.903 2.324-.56.75-.903 1.67-.903 2.676 0 2.481 2.019 4.5 4.5 4.5 1.28 0 2.43-.543 3.25-1.404.82.861 1.97 1.404 3.25 1.404s2.43-.543 3.25-1.404c.82.861 1.97 1.404 3.25 1.404 2.481 0 4.5-2.019 4.5-4.5 0-1.006-.343-1.926-.903-2.676.555-.62.903-1.429.903-2.324zm-19-9.283 5.372-1.524c.143-.033.249.016.314.061s.148.129.167.265l.224 1.624h-2.077v3h2.897c.159.25.34.484.546.696l-1.236 2.104 2.586 1.52 1.35-2.298 3.244.649c1.514.303 2.612 1.643 2.612 3.187v.656c0 .276-.225.5-.5.5h-14.999c-.275 0-.5-.224-.5-.5zm1.5 16.439c-.827 0-1.5-.673-1.5-1.5s.673-1.5 1.5-1.5 1.5.673 1.5 1.5-.673 1.5-1.5 1.5zm6.5 0c-.827 0-1.5-.673-1.5-1.5s.673-1.5 1.5-1.5 1.5.673 1.5 1.5-.673 1.5-1.5 1.5zm6.5 0c-.827 0-1.5-.673-1.5-1.5s.673-1.5 1.5-1.5 1.5.673 1.5 1.5-.673 1.5-1.5 1.5z"/></svg>