<svg id="Layer_1" viewBox="0 0 24 24" xmlns="http://www.w3.org/2000/svg" data-name="Layer 1"><path d="m24 6.5v14.5h-24v-5.555c.59.344 1.268.555 2 .555.347 0 .679-.058 1-.141v2.141h18v-11.5c0-.276-.224-.5-.5-.5h-17c-.276 0-.5.224-.5.5v1.641c-.321-.083-.653-.141-1-.141-.732 0-1.41.211-2 .555v-2.055c0-1.93 1.57-3.5 3.5-3.5h17c1.93 0 3.5 1.57 3.5 3.5zm-20 5.5c0-1.105-.895-2-2-2s-2 .895-2 2 .895 2 2 2 2-.895 2-2zm4.933.544c.024-.014 1.067 3.456 1.067 3.456h-1.744l-.872-3h-.784v3h-1.6v-8h2.5c1.381 0 2.5 1.119 2.5 2.5 0 .846-.423 1.592-1.067 2.044zm-.533-2.044c0-.496-.404-.9-.9-.9h-.9v1.8h.9c.496 0 .9-.404.9-.9zm6.1-.9v-1.6h-3.5v8h3.5v-1.6h-1.9v-1.551h1.9v-1.6h-1.9v-1.65h1.9zm5.6.9v-.2c0-1.269-1.031-2.3-2.3-2.3s-2.3 1.031-2.3 2.3v3.4c0 1.269 1.031 2.3 2.3 2.3s2.3-1.031 2.3-2.3v-.2h-1.6v.2c0 .386-.314.7-.7.7s-.7-.314-.7-.7v-3.4c0-.386.314-.7.7-.7s.7.314.7.7v.2z"/></svg>