<?xml version="1.0" encoding="UTF-8"?>
<svg xmlns="http://www.w3.org/2000/svg" id="Layer_1" data-name="Layer 1" viewBox="0 0 24 24">
  <path d="m20.407,14.776l-6.13-3.065c-.171-.085-.277-.257-.277-.447V3.5c0-1.094-.452-2.059-1.272-2.717-.837-.671-1.96-.935-2.999-.703L0,2.19v21.81h9v-2.323l3.484,1.742c.76.38,1.61.581,2.46.581h9.056v-3.41c0-2.479-1.377-4.706-3.593-5.814Zm.593,6.224h-6.056c-.386,0-.773-.091-1.118-.264l-4.311-2.155c-.76-.38-1.61-.581-2.46-.581H3V4.609l2-.434v7.824h3V3.525l2.373-.515c.152-.034.354.014.479.113.069.056.149.149.149.377v7.764c0,1.333.741,2.533,1.935,3.13l6.131,3.065c1.193.596,1.935,1.796,1.935,3.13v.41Z"/>
</svg>
