<?xml version="1.0" encoding="UTF-8"?>
<svg xmlns="http://www.w3.org/2000/svg" id="Layer_1" data-name="Layer 1" viewBox="0 0 24 24">
  <path d="m14.327,14.89c-2.327-1.097-4.042-2.818-5.207-5.227l2.964-2.963L5.442.058,1.798,3.702C.659,4.838.032,6.374.032,8.025.032,15.177,8.823,23.968,15.975,23.968c1.651,0,3.187-.627,4.322-1.765l3.646-3.645-6.642-6.641-2.974,2.973Zm3.848,5.193c-.57.571-1.352.885-2.2.885-4.993,0-12.942-7.067-12.942-12.942,0-.849.314-1.63.886-2.201l1.524-1.524,2.399,2.399-2.269,2.268.369.919c1.59,3.959,4.348,6.712,8.195,8.18l.908.347,2.255-2.255,2.399,2.399-1.525,1.525Zm1.325-9.288l3.182-3.113c.85-.85,1.318-1.98,1.318-3.182s-.468-2.332-1.318-3.182c-.85-.85-1.98-1.318-3.182-1.318s-2.332.468-3.182,1.318c-.85.85-1.318,1.98-1.318,3.182s.468,2.332,1.329,3.192l3.171,3.103Zm0-7.795c.828,0,1.5.672,1.5,1.5s-.672,1.5-1.5,1.5-1.5-.672-1.5-1.5.672-1.5,1.5-1.5Z"/>
</svg>
