<?xml version="1.0" encoding="UTF-8"?>
<svg xmlns="http://www.w3.org/2000/svg" id="Layer_1" data-name="Layer 1" viewBox="0 0 24 24">
  <path d="m12,17v-3h-2.013l-.005-2h2.018v-3h-2.026l-.005-2.004-3,.008.005,1.996h-1.969l-.005-2.004-3,.008.005,1.996H0v3h2.013l.005,2H0v3h2.026l.005,2.004,3-.008-.005-1.996h1.969l.005,2.004,3-.008-.005-1.996h2.005Zm-6.982-3l-.005-2h1.969l.005,2h-1.969Zm10.619,5h8.363v3h-12v-1.5c0-2.715,2.322-4.608,4.568-6.439,2.179-1.776,4.432-3.612,4.432-5.983,0-1.754-1.256-3.077-2.923-3.077-1.316,0-2.433.835-2.872,2h-3.104c.511-2.838,2.993-5,5.976-5,3.321,0,5.923,2.669,5.923,6.077,0,3.796-2.941,6.193-5.536,8.309-1.107.902-2.176,1.774-2.827,2.614Z"/>
</svg>
