<?xml version="1.0" encoding="UTF-8"?>
<svg xmlns="http://www.w3.org/2000/svg" id="Layer_1" data-name="Layer 1" viewBox="0 0 24 24">
  <path d="m4.359,5.678l-.005-1.473h.715c.413,0,.762.336.762.735s-.349.735-.762.735l-.71.003Zm19.743-2.723v14.496l-6.504,6.504H.103v-14h0V2.955C.103,1.301,1.448-.045,3.103-.045h18c1.654,0,3,1.346,3,3Zm-11,4.033c0,1.086.914,1.967,2,1.967s2-.881,2-1.967v-1.533h-2v1.25h.745c0,.145,0,.252,0,.262.001.403-.322.729-.724.736-.402-.007-.768-.333-.767-.736,0-.048,0-1.976,0-2.024-.001-.403.344-.725.746-.731.212.003.404.098.542.243h1.394c-.218-.859-1.011-1.497-1.936-1.497-1.086,0-2,.877-2,1.964v2.066Zm-5,1.967h1.28v-3.041l1.44,3.041h1.28V2.955h-1.28v3.047l-1.44-3.041v-.006h-1.28v6Zm-5,.069h1.25v-2.096l.717-.003c1.109,0,2.012-.891,2.012-1.985s-.902-1.985-2.012-1.985h-1.967v6.069Zm18,1.931H3.103v10h12v-6h6v-4Z"/>
</svg>
