<?xml version="1.0" encoding="UTF-8"?>
<svg xmlns="http://www.w3.org/2000/svg" id="Layer_1" data-name="Layer 1" viewBox="0 0 24 24">
  <path d="M19.679,2.59L12,.044,4.322,2.59c-1.389,.46-2.322,1.751-2.322,3.211v6.162c0,6.518,6.852,10.45,8.952,11.5l.984,.492,1.021-.411c2.122-.854,9.043-4.21,9.043-11.581V5.802c0-1.461-.933-2.751-2.321-3.211Zm-.679,9.374c0,5.259-5.031,7.896-6.932,8.702-1.926-.998-7.068-4.098-7.068-8.702V5.802c0-.165,.106-.311,.266-.364l6.734-2.233,6.735,2.233c.161,.053,.265,.196,.265,.364v6.162Zm-10.598-3.964h1.261l-.981,4.819c-.094,.485-.389,1.181-1.221,1.181s-1.132-.727-1.214-1.148l-1.036-4.852h1.31l.94,4.55,.94-4.55Zm8.53,0h1.28v6h-1.28l-1.44-3.041v3.041h-1.28v-6h1.28v.006l1.44,3.041v-3.047Zm-5.253,0h-1.467v6h1.25v-2.027l.217-.003c1.109,0,2.012-.891,2.012-1.985s-.902-1.985-2.012-1.985Zm0,2.72l-.21,.003-.005-1.473h.215c.413,0,.762,.336,.762,.735s-.349,.735-.762,.735Z"/>
</svg>
