<svg id="Layer_1" viewBox="0 0 24 24" xmlns="http://www.w3.org/2000/svg" data-name="Layer 1"><path d="m22.5 13.584v2.666c0 3.722-3.028 6.75-6.75 6.75s-6.75-3.028-6.75-6.75v-2.932c-2.862-.68-5-3.251-5-6.318v-4c0-1.654 1.346-3 3-3h2v3h-2v4c0 1.93 1.57 3.5 3.5 3.5s3.5-1.57 3.5-3.5v-4h-2v-3h2c1.654 0 3 1.346 3 3v4c0 3.067-2.138 5.638-5 6.318v2.932c0 2.067 1.683 3.75 3.75 3.75s3.75-1.683 3.75-3.75v-2.666c-.893-.52-1.5-1.476-1.5-2.584 0-1.657 1.343-3 3-3s3 1.343 3 3c0 1.108-.607 2.064-1.5 2.584zm-19.876 2.416h2.376c.551 0 1 .448 1 1h2c0-1.654-1.346-3-3-3v-1h-2v1h-.376c-1.447 0-2.624 1.177-2.624 2.624 0 1.288.922 2.377 2.193 2.589l3.285.547c.303.051.522.31.522.616 0 .344-.28.624-.624.624h-2.376c-.551 0-1-.448-1-1h-2c0 1.654 1.346 3 3 3v1h2v-1h.376c1.447 0 2.624-1.177 2.624-2.624 0-1.288-.922-2.377-2.193-2.589l-3.285-.547c-.303-.051-.522-.31-.522-.616 0-.344.28-.624.624-.624z"/></svg>