<?xml version="1.0" encoding="UTF-8"?>
<svg xmlns="http://www.w3.org/2000/svg" id="Layer_1" data-name="Layer 1" viewBox="0 0 24 24">
  <path d="m10,18h4c1.105,0,2,.895,2,2v4h-8v-4c0-1.105.895-2,2-2ZM0,24h6v-2.5c0-.828-.672-1.5-1.5-1.5H1.5c-.828,0-1.5.672-1.5,1.5v2.5Zm18-1.5v1.5h6v-1.5c0-.828-.672-1.5-1.5-1.5h-3c-.828,0-1.5.672-1.5,1.5ZM12,5c1.381,0,2.5-1.119,2.5-2.5s-1.119-2.5-2.5-2.5-2.5,1.119-2.5,2.5,1.119,2.5,2.5,2.5Zm8.115-1.497l-2.23-2.007-4.053,4.503h-3.664L6.115,1.497l-2.229,2.007,4.115,4.572v7.924h3v-3h2v3h3v-7.924l4.115-4.572Z"/>
</svg>
