<?xml version="1.0" encoding="UTF-8"?>
<svg xmlns="http://www.w3.org/2000/svg" id="Layer_1" data-name="Layer 1" viewBox="0 0 24 24">
  <path d="M16,.667V0h3V.667c0,.175,.328,.484,.328,.484l2.047,1.425c1.718,1.047,2.625,2.576,2.625,4.423h-3c0-.494-.126-1.226-1.214-1.878l-2.137-1.483c-1.019-.635-1.649-1.768-1.649-2.971Zm-2.329,5.905l1.602,.961c.448,.27,.728,.762,.728,1.286v.18h3v-.18c0-1.572-.837-3.05-2.185-3.858l-1.602-.961c-.749-.45-1.214-1.271-1.214-2.144h-3c0,1.921,1.023,3.728,2.671,4.716Zm7.329,12.306l-2-2v-4.879h-4.879L2.16,.04,.039,2.161,21.84,23.96l2.121-2.121-1.839-1.839h1.878V12h-3v6.879Zm-8.841-1.939l3.061,3.061H0V12H7.219l2.865,2.865v2.051l2.074,.024Zm-5.159-1.939H3v2H7v-2Z"/>
</svg>
