<?xml version="1.0" encoding="UTF-8"?>
<svg xmlns="http://www.w3.org/2000/svg" id="Layer_1" data-name="Layer 1" viewBox="0 0 24 24">
  <path d="M16.845,22.001c.052,0,.103-.007,.155-.008v2.007h-3v-2.519c.426,.167,.868,.308,1.341,.392,.5,.089,1.004,.129,1.504,.129Zm-9.689,0c-.052,0-.103-.007-.155-.008v2.007h3v-2.519c-.426,.167-.868,.308-1.341,.392-.5,.089-1.005,.129-1.504,.129Zm8.845-10.501c0-.828-.672-1.5-1.5-1.5s-1.5,.672-1.5,1.5,.672,1.5,1.5,1.5,1.5-.672,1.5-1.5Zm8-.5c0-1.738-1.091-3.212-2.64-3.767C20.266,3.043,16.415,0,12,0,6.486,0,2,4.486,2,10v2h1.5c.16,0,2.114-.032,4.637-1.119-.086,.189-.137,.398-.137,.619,0,.828,.672,1.5,1.5,1.5s1.5-.672,1.5-1.5c0-.723-.511-1.326-1.192-1.468,1.569-.916,3.24-2.254,4.78-4.225-.749-.503-1.637-.807-2.588-.807h-.655c-2.272,2.431-4.692,3.389-6.235,3.761,.587-3.271,3.453-5.761,6.89-5.761,3.296,0,6.134,2.457,6.604,5.714l.179,1.241,1.253,.044c.541,.019,.965,.459,.965,1.001,0,.551-.448,1-1,1h-1.961l-.255,1.186c-.174,.812-.517,1.534-.966,2.16-.987-.836-2.114-1.357-3.235-1.345-1.056,0-1.583,.454-1.583,.563,0-.108-.528-.563-1.583-.563-1.114-.011-2.229,.499-3.215,1.329-.37-.519-.671-1.101-.861-1.75-1.835,.438-2.608,.412-3.01,.421,.295,1.233,.875,2.373,1.644,3.366-.608,.488-1.327,.892-2.474,1.136,1.056,1.126,7.389,3.377,9.5-1.58,2.111,4.957,8.444,2.705,9.5,1.58-1.144-.244-1.862-.646-2.469-1.132,.565-.729,1.022-1.54,1.342-2.408,2.029-.192,3.627-1.885,3.627-3.962Z"/>
</svg>
