<svg id="Layer_1" viewBox="0 0 24 24" xmlns="http://www.w3.org/2000/svg" data-name="Layer 1"><path d="m23.268 19.732c.976.976.976 2.559 0 3.536-.488.488-1.128.732-1.768.732s-1.28-.244-1.768-.732c-.976-.976-.976-2.559 0-3.536l1.768-1.729zm.732-10.732v7h-2l-.857-2h-5.083l-5.577 7.604-10.483-10.483.006-4.123c-.088-1.823.63-3.68 1.971-5.021 2.67-2.678 7.062-2.622 9.664.121l1.727-1.352 7.16 7.16-2.268 3.093h2.883l.857-2h2zm-20.998-.141 6.257-4.897c-.71-.641-1.609-.961-2.508-.961-.96 0-1.921.366-2.652 1.097-.745.745-1.144 1.777-1.094 2.831l-.002 1.93zm13.585-.651-3.462-3.462-8.559 6.699 5.565 5.566 6.455-8.802z"/></svg>