<svg id="Layer_1" viewBox="0 0 24 24" xmlns="http://www.w3.org/2000/svg" data-name="Layer 1"><path d="m11.5 12.6v6.4l-5.5-1.577v-5.922c0-.999.958-1.719 1.917-1.441l2.139.619c.855.247 1.444 1.031 1.444 1.921zm8.775 1.039-7.275 7.275v3.086h3.086l7.275-7.275c.852-.852.852-2.234 0-3.086s-2.234-.852-3.086 0zm2.381-6.22s-.002-.001-.003-.002l-8.496-6.648c-1.27-.994-3.044-.995-4.314 0l-8.5 6.65c-.854.668-1.343 1.673-1.343 2.757v13.824h11v-3h-8v-10.824c0-.155.07-.298.192-.394l8.5-6.651c.18-.142.433-.142.616 0l8.497 6.649s.002.002.003.003c.122.095.192.239.192.394v.908c1.017-.201 2.091-.015 3 .543v-1.45c0-1.084-.49-2.089-1.343-2.757zm-4.657 4.081c0-.999-.958-1.719-1.917-1.441l-2.133.617c-.859.245-1.451 1.03-1.451 1.923v5.986l5.5-5.5v-1.585z"/></svg>