<?xml version="1.0" encoding="UTF-8"?>
<svg xmlns="http://www.w3.org/2000/svg" id="Layer_1" data-name="Layer 1" viewBox="0 0 24 24">
  <path d="m22,10C22,4.486,17.514,0,12,0S2,4.486,2,10c0,3.813,2.145,7.134,5.292,8.82-1.408,1.28-2.292,3.127-2.292,5.18h14c0-2.053-.884-3.9-2.292-5.18,3.147-1.686,5.292-5.007,5.292-8.82Zm-10,7c-3.86,0-7-3.14-7-7s3.14-7,7-7,7,3.14,7,7-3.14,7-7,7Zm0-12c-2.757,0-5,2.243-5,5s2.243,5,5,5,5-2.243,5-5-2.243-5-5-5Zm0,7c-1.103,0-2-.897-2-2s.897-2,2-2,2,.897,2,2-.897,2-2,2Z"/>
</svg>
