<?xml version="1.0" encoding="UTF-8"?>
<svg xmlns="http://www.w3.org/2000/svg" id="Layer_1" data-name="Layer 1" viewBox="0 0 24 24">
  <path d="m18,0c-3.314,0-6,2.686-6,6s2.686,6,6,6,6-2.686,6-6S21.314,0,18,0Zm3.536,8.121l-1.414,1.414-2.121-2.121-2.121,2.121-1.414-1.414,2.121-2.121-2.121-2.121,1.414-1.414,2.121,2.121,2.121-2.121,1.414,1.414-2.121,2.121,2.121,2.121Zm-8.535,4.114c.794.638,1.711,1.128,2.711,1.427l-.711.864v9.486l-8-4.8v-4.686L0,6.026v-2.538C0,1.558,1.57-.012,3.5-.012h9.24c-.93.815-1.672,1.838-2.146,3H3.5c-.276,0-.5.224-.5.5v1.462l7,8.5v4.064l2,1.2v-5.264l1-1.214Z"/>
</svg>
