<?xml version="1.0" encoding="UTF-8"?>
<svg xmlns="http://www.w3.org/2000/svg" id="Layer_1" data-name="Layer 1" viewBox="0 0 24 24">
  <path d="m24,10.132v13.868h-3v-13.868c0-.125-.059-.245-.157-.323L12.252,3.087c-.148-.116-.355-.116-.504,0L3.157,9.81c-.099.077-.157.197-.157.322v13.868H0v-13.868c0-1.055.477-2.033,1.308-2.684L9.898.725c1.238-.969,2.965-.969,4.203,0l8.591,6.723c.831.651,1.308,1.629,1.308,2.685Zm-9.5-1.632c0-1.381-1.119-2.5-2.5-2.5s-2.5,1.119-2.5,2.5,1.119,2.5,2.5,2.5,2.5-1.119,2.5-2.5Zm2.5,7v5.5h-2v3h-6v-3h-2v-5.5c0-1.93,1.57-3.5,3.5-3.5h3c1.93,0,3.5,1.57,3.5,3.5Zm-7,2.5h4v-2.5c0-.275-.225-.5-.5-.5h-3c-.275,0-.5.225-.5.5v2.5Z"/>
</svg>
