<?xml version="1.0" encoding="UTF-8"?>
<svg xmlns="http://www.w3.org/2000/svg" id="Layer_1" data-name="Layer 1" viewBox="0 0 24 24">
  <path d="M5,16h3v3h-3v-3Zm8.5-4.5c0-.828-.672-1.5-1.5-1.5s-1.5,.672-1.5,1.5,.672,1.5,1.5,1.5,1.5-.672,1.5-1.5Zm9.5,3.5h1v6c0,1.654-1.346,3-3,3h-5c-1.654,0-3-1.346-3-3v-6h1v-1.5c0-2.481,2.019-4.5,4.5-4.5s4.5,2.019,4.5,4.5v1.5Zm-6,0h3v-1.5c0-.827-.673-1.5-1.5-1.5s-1.5,.673-1.5,1.5v1.5Zm3,3h-3v3h3v-3Zm4-9.5v1.552c-1.151-1.83-3.183-3.052-5.5-3.052-1.883,0-3.576,.809-4.764,2.093l-1.736-1.881-5.343,5.789H3v8H11c0,1.13,.391,2.162,1.026,3H0V8.5c0-1.93,1.57-3.5,3.5-3.5h6.458l1.042-1.128V0h2l4,2.5-3.34,2.087,.381,.413h6.458c1.93,0,3.5,1.57,3.5,3.5Zm-16.811-.5H3.5c-.275,0-.5,.224-.5,.5v1.5h2.343l1.846-2Z"/>
</svg>
