<?xml version="1.0" encoding="UTF-8"?>
<svg xmlns="http://www.w3.org/2000/svg" id="Layer_1" data-name="Layer 1" viewBox="0 0 24 24">
  <path d="m23.987,3.5c0-.828-.672-1.5-1.5-1.5s-1.5.672-1.5,1.5h0v11.903c0,3.086-2.511,5.597-5.597,5.597h-1.329c-1.803,0-3.548-.479-5.087-1.357V3.58c0-.747-.511-1.44-1.248-1.56-.94-.153-1.739.568-1.739,1.479v12.269l-2.64-2.296c-.866-.722-2.153-.604-2.874.261-.722.866-.605,2.153.261,2.874l4.364,3.912c2.454,2.244,5.637,3.479,8.962,3.479h1.329c4.741,0,8.597-3.856,8.597-8.597V3.502s0-.001,0-.002Z"/>
  <path d="m13.987,1.5c0-.828-.672-1.5-1.5-1.5s-1.5.672-1.5,1.5v9.5h3V1.5Z"/>
  <path d="m18.987,1.5c0-.828-.672-1.5-1.5-1.5s-1.5.672-1.5,1.5v9.5h3V1.5Z"/>
</svg>
