<?xml version="1.0" encoding="UTF-8"?>
<svg xmlns="http://www.w3.org/2000/svg" id="Layer_1" data-name="Layer 1" viewBox="0 0 24 24">
  <path d="M24.001,9.495H14.506V.004c5.233,.023,9.47,4.258,9.495,9.49Zm-6.001,7.105c-.772,0-1.4,.628-1.4,1.4s.628,1.4,1.4,1.4,1.4-.628,1.4-1.4-.628-1.4-1.4-1.4Zm6,1.4c0,3.314-2.686,6-6,6s-6-2.686-6-6,2.686-6,6-6,6,2.686,6,6Zm-3.4-1.469l1.216-1.216-1.132-1.131-1.216,1.216c-.436-.247-.932-.4-1.469-.4s-1.033,.153-1.469,.4l-1.216-1.216-1.132,1.131,1.216,1.216c-.247,.436-.4,.932-.4,1.469s.153,1.033,.4,1.469l-1.216,1.216,1.132,1.131,1.216-1.216c.436,.247,.932,.4,1.469,.4s1.033-.153,1.469-.4l1.216,1.216,1.132-1.131-1.216-1.216c.247-.436,.4-.932,.4-1.469s-.153-1.033-.4-1.469ZM2.999,12.996c0-3.899,2.803-7.155,6.5-7.859v6.863s0,2.496,0,2.496h1.317c.421-.862,.996-1.632,1.683-2.285v-1.21h0V1.996h-1.501C4.957,1.996,.04,6.894,.002,12.928c-.003,.043-.003,.068-.003,.068C0,19.062,4.934,23.996,10.999,23.996h0c.537,0,1.061-.052,1.577-.128-.864-.799-1.552-1.783-1.998-2.894-4.215-.221-7.579-3.71-7.579-7.979Z"/>
</svg>
