<?xml version="1.0" encoding="UTF-8"?>
<svg xmlns="http://www.w3.org/2000/svg" id="Layer_1" data-name="Layer 1" viewBox="0 0 24 24">
  <path d="m14.327,14.89c-2.327-1.097-4.042-2.818-5.207-5.227l2.964-2.963L5.442.058,1.798,3.702C.659,4.838.032,6.374.032,8.025.032,15.177,8.823,23.968,15.975,23.968c1.651,0,3.187-.627,4.322-1.765l3.646-3.645-6.642-6.641-2.974,2.973Zm3.848,5.193c-.57.571-1.352.885-2.2.885-4.993,0-12.942-7.067-12.942-12.942,0-.849.314-1.63.886-2.201l1.524-1.524,2.399,2.399-2.269,2.268.369.919c1.59,3.959,4.348,6.712,8.195,8.18l.908.347,2.255-2.255,2.399,2.399-1.525,1.525ZM22,0h0l-6,.002c-1.1,0-2,.901-1.999,2.001l.002,7.772c0,.638.524,1.088,1.089,1.088.196,0,.397-.054.583-.173l2.454-1.69h5.872V2c0-1.105-.896-2-2-2Zm-1,6h-3.999v-2.998s3.999-.001,3.999-.001v2.999Z"/>
</svg>
