<?xml version="1.0" encoding="UTF-8"?>
<svg xmlns="http://www.w3.org/2000/svg" id="Layer_1" data-name="Layer 1" viewBox="0 0 24 24">
  <path d="M22.045,14.104l1.948-2.104-1.948-2.103,1.949-2.104-2.13-2.299,2.086-3.494h-2.643c-3.355,0-5.367,1.56-6.836,2.699-1.072,.831-1.715,1.301-2.472,1.301s-1.399-.47-2.472-1.301c-1.469-1.139-3.48-2.699-6.836-2.699H.05l2.087,3.495L.007,7.793l1.948,2.104L.007,12l1.948,2.104L.007,16.207l2.13,2.299L.05,22H2.692c3.355,0,5.367-1.56,6.836-2.699,1.072-.831,1.715-1.301,2.472-1.301s1.399,.47,2.472,1.301c1.469,1.14,3.48,2.699,6.836,2.699h2.643l-2.086-3.494,2.13-2.299-1.949-2.104Zm-2.142-2.104l-1.948,2.104,1.949,2.104-1.827,1.951c-.628-.355-1.194-.782-1.768-1.227-1.224-.949-2.489-1.931-4.31-1.931s-3.086,.981-4.31,1.931c-.57,.442-1.133,.865-1.755,1.219l-1.838-1.943,1.948-2.104-1.948-2.104,1.948-2.103-1.948-2.104,1.838-1.943c.623,.354,1.186,.778,1.756,1.22,1.224,.949,2.489,1.93,4.31,1.93s3.086-.981,4.31-1.93c.573-.445,1.139-.872,1.767-1.227l1.828,1.95-1.949,2.104,1.948,2.103Zm-11.903-1.5h8v3H8v-3Z"/>
</svg>
