<?xml version="1.0" encoding="UTF-8"?>
<svg xmlns="http://www.w3.org/2000/svg" id="Layer_1" data-name="Layer 1" viewBox="0 0 24 24">
  <path d="m24,9v3H0v-3h24Zm-5.075,4.691c-.531.404-1.319.404-1.849,0-1.203-.916-2.949-.916-4.151,0-.531.404-1.319.404-1.849,0-1.203-.916-2.949-.916-4.151,0-.531.404-1.319.404-1.849,0-1.203-.916-2.949-.916-4.151,0-.266.202-.585.309-.925.309v3c1.001,0,1.949-.318,2.742-.922.138-.105.378-.104.517,0,1.584,1.207,3.898,1.207,5.483,0,.138-.105.378-.104.517,0,1.584,1.207,3.898,1.207,5.483,0,.138-.105.378-.104.517,0,1.584,1.207,3.898,1.207,5.483,0,.138-.105.378-.104.517,0,.792.604,1.74.922,2.741.922v-3c-.339,0-.659-.106-.924-.309-1.203-.916-2.949-.916-4.151,0ZM1.5,18c-.828,0-1.5.672-1.5,1.5s.672,1.5,1.5,1.5,1.5-.672,1.5-1.5-.672-1.5-1.5-1.5Zm5,3c-.828,0-1.5.672-1.5,1.5s.672,1.5,1.5,1.5,1.5-.672,1.5-1.5-.672-1.5-1.5-1.5Zm11,0c-.828,0-1.5.672-1.5,1.5s.672,1.5,1.5,1.5,1.5-.672,1.5-1.5-.672-1.5-1.5-1.5Zm-5.5-3c-.828,0-1.5.672-1.5,1.5s.672,1.5,1.5,1.5,1.5-.672,1.5-1.5-.672-1.5-1.5-1.5Zm10.5,0c-.828,0-1.5.672-1.5,1.5s.672,1.5,1.5,1.5,1.5-.672,1.5-1.5-.672-1.5-1.5-1.5ZM5.793,7.707c.391.391,1.024.391,1.414,0l3.793-3.707h-3V0h-3v4h-3l3.793,3.707Zm11,0c.391.391,1.024.391,1.414,0l3.793-3.707h-3V0h-3v4h-3l3.793,3.707Z"/>
</svg>
