<svg id="Layer_1" viewBox="0 0 24 24" xmlns="http://www.w3.org/2000/svg" data-name="Layer 1"><path d="m24 8.13v15.87h-24v-17.5c0-1.93 1.57-3.5 3.5-3.5h6.531c-.006.11-.031.215-.031.327 0 .907.262 1.806.672 2.673h-7.172c-.276 0-.5.225-.5.5v.276l7.361 7.545c.875.876 2.402.876 3.278 0l2.334-2.334c.382.295.697.522.883.652l1.541 1.167-2.636 2.636c-1.004 1.004-2.34 1.558-3.76 1.558s-2.757-.553-3.761-1.558l-5.239-5.388v9.945h18v-9.77c.984-.912 2.056-1.866 3-3.101zm-6 2.87s6-4.188 6-7.673c0-1.838-1.343-3.327-3-3.327s-3 1.49-3 3.327c0-1.838-1.343-3.327-3-3.327s-3 1.49-3 3.327c0 3.485 6 7.673 6 7.673z"/></svg>