<?xml version="1.0" encoding="UTF-8"?>
<svg xmlns="http://www.w3.org/2000/svg" id="Layer_1" data-name="Layer 1" viewBox="0 0 24 24">
  <path d="M21.585,12.919c.176,.054,.358,.081,.542,.081,1.03,0,1.868-.839,1.868-1.871l.006-8.128c0-1.654-1.344-3.001-2.998-3.002l-6-.004h-.004c-.8,0-1.553,.312-2.119,.877-.567,.567-.88,1.321-.88,2.123V11h6.106l3.479,1.919ZM14.998,2.995l6.003,.004-.004,6.185-2.103-1.184h-3.894l-.002-5.005ZM0,5H3v-1.5c0-1.93,1.57-3.5,3.5-3.5h3.5V3h-3.5c-.276,0-.5,.224-.5,.5v1.5h3l-3.793,3.707c-.391,.391-1.024,.391-1.414,0L0,5Zm24,14h-3v1.5c0,1.93-1.57,3.5-3.5,3.5h-3.5v-3h3.5c.276,0,.5-.224,.5-.5v-1.5h-3l3.793-3.707c.391-.391,1.024-.391,1.414,0l3.793,3.707ZM9,11h-.001l-6.001,.004C1.343,11.006-.001,12.353,0,14.006l.006,8.122c0,1.032,.838,1.872,1.868,1.872,.184,0,.366-.027,.542-.081l3.479-1.919h6.106V14c0-.802-.312-1.556-.879-2.122-.566-.566-1.32-.878-2.121-.878Zm0,8h-3.893l-2.103,1.184-.004-6.18,6-.006v5.002Z"/>
</svg>
