<?xml version="1.0" encoding="UTF-8"?>
<svg xmlns="http://www.w3.org/2000/svg" id="Layer_1" data-name="Layer 1" viewBox="0 0 24 24" width="512" height="512"><path d="m16.532,18.506l7.349,2.578-.993,2.831-10.888-3.819-10.888,3.819-.993-2.831,7.349-2.578L.119,15.928l.993-2.831,10.888,3.819,10.888-3.819.993,2.831-7.349,2.578Zm-7.532-7.506h-3v-5c0-3.308,2.691-6,6-6s6,2.692,6,6v5h-3v3h-6v-3Zm4-3.5c0,.828.672,1.5,1.5,1.5s1.5-.672,1.5-1.5-.672-1.5-1.5-1.5-1.5.672-1.5,1.5Zm-3.5,1.5c.828,0,1.5-.672,1.5-1.5s-.672-1.5-1.5-1.5-1.5.672-1.5,1.5.672,1.5,1.5,1.5Z"/></svg>
