<svg id="Layer_1" viewBox="0 0 24 24" xmlns="http://www.w3.org/2000/svg" data-name="Layer 1"><path d="m7 4.5c0-1.381 1.119-2.5 2.5-2.5s2.5 1.119 2.5 2.5-1.119 2.5-2.5 2.5-2.5-1.119-2.5-2.5zm4.575 4.695c-.655-.749-1.665-1.195-2.7-1.195h-.359c-1.426 0-2.697.853-3.263 2.237l-1.014 2.847c-.646 1.574-.07 3.376 1.427 4.322l4.334 2.466v4.128h3v-5.872l-4.472-2.544 1.249-3.853 1.863 2.268h3.361v-3h-1.942l-1.483-1.805zm-8.183 8.833-.401.972h-2.991v3h5l.892-2.164-1.215-.692c-.499-.314-.918-.698-1.285-1.116zm20.608-12.174v-5.854h-5.854l-.888 5.427c-.725.86-1.258 1.766-1.258 2.573 0 1.713 1.905 2.109 3.296 2.399.51.106 1.431.298 1.696.499-.138.537-2.152 1.103-3.992 1.103v2c2.229 0 6-.666 6-3.16 0-1.713-1.905-2.109-3.296-2.399-.512-.106-1.438-.299-1.699-.501.04-.271.331-.711.789-1.234l5.206-.852z"/></svg>