<?xml version="1.0" encoding="UTF-8"?>
<svg xmlns="http://www.w3.org/2000/svg" id="Layer_1" data-name="Layer 1" viewBox="0 0 24 24" width="512" height="512"><path d="m10,14.87l3,3v5.739l-7.733-5.109h-3.144c-1.171,0-2.123-.953-2.123-2.123V7.623c0-.746.389-1.401.973-1.78l2.027,2.027v7.63h3.169l3.831,2.531v-3.161Zm10.951,3.88l3.025,3.025-2.121,2.121L.055,2.097,2.176-.024l4.556,4.556L13,.391v10.409l2,2v-4.482c2.03,0,3.682,1.652,3.682,3.682,0,1.219-.595,2.301-1.51,2.971l1.652,1.652c1.362-1.13,2.177-2.825,2.177-4.623,0-3.309-2.691-6-6-6v-3c4.963,0,9,4.038,9,9,0,2.601-1.136,5.059-3.049,6.751Z"/></svg>
