<?xml version="1.0" encoding="UTF-8"?>
<svg xmlns="http://www.w3.org/2000/svg" id="Layer_1" data-name="Layer 1" viewBox="0 0 24 24">
  <path d="m20.984,4.021v7.479c0,1.93-1.57,3.5-3.5,3.5H6.5c-.275,0-.5.225-.5.5v4.011c.604.456,1,1.173,1,1.989,0,1.381-1.119,2.5-2.5,2.5s-2.5-1.119-2.5-2.5c0-.815.396-1.532,1-1.989v-4.011c0-1.93,1.57-3.5,3.5-3.5h10.984c.275,0,.5-.224.5-.5v-7.479h-2.484l3.157-3.65c.443-.494,1.217-.494,1.66,0l3.183,3.65h-2.516ZM2.16,6.96l1.34-1.34,1.34,1.34,2.121-2.121-1.34-1.339,1.34-1.339L4.84.04l-1.34,1.34L2.16.04.039,2.161l1.34,1.339L.039,4.839l2.121,2.121Zm8,4l1.34-1.34,1.34,1.34,2.121-2.121-1.34-1.339,1.34-1.339-2.121-2.121-1.34,1.34-1.34-1.34-2.121,2.121,1.34,1.339-1.34,1.339,2.121,2.121Zm8.68,6.079l-1.34,1.34-1.34-1.34-2.121,2.121,1.34,1.34-1.34,1.34,2.121,2.121,1.34-1.34,1.34,1.34,2.121-2.121-1.34-1.34,1.34-1.34-2.121-2.121Z"/>
</svg>
