<?xml version="1.0" encoding="UTF-8"?>
<svg xmlns="http://www.w3.org/2000/svg" id="Layer_1" data-name="Layer 1" viewBox="0 0 24 24">
  <path d="m0,3.5v6.5h10V0H3.5C1.57,0,0,1.57,0,3.5Zm7,3.5H3v-3.5c0-.276.224-.5.5-.5h3.5v4Zm15-3.5c0-1.93-1.57-3.5-3.5-3.5h-6.5v10h10V3.5Zm-3,3.5h-4V3h3.5c.276,0,.5.224.5.5v3.5ZM0,18.5c0,1.93,1.57,3.5,3.5,3.5h6.5v-10H0v6.5Zm3-3.5h4v4h-3.5c-.276,0-.5-.224-.5-.5v-3.5Zm20.907,6.786l-2.491-2.491c.361-.691.584-1.463.584-2.295,0-2.757-2.243-5-5-5s-5,2.243-5,5,2.243,5,5,5c.831,0,1.604-.223,2.295-.584l2.491,2.491,2.121-2.121Zm-6.907-2.786c-1.103,0-2-.897-2-2s.897-2,2-2,2,.897,2,2-.897,2-2,2Z"/>
</svg>
