<?xml version="1.0" encoding="UTF-8"?>
<svg xmlns="http://www.w3.org/2000/svg" id="Layer_1" data-name="Layer 1" viewBox="0 0 24 24">
  <path d="m20.5,0H3.5C1.57,0,0,1.57,0,3.5v20.5h12.726c-.927-.816-1.665-1.838-2.137-3H3v-4h7.082c.185-1.184.676-2.18,1.245-3h-2.327v-4h6.005l2.89-2.934s5.183,4.781,6.105,5.925V3.5c0-1.93-1.57-3.5-3.5-3.5ZM6,14h-3v-4h3v4Zm-3-7v-3.5c0-.276.224-.5.5-.5h7.5v4H3Zm11,0V3h6.5c.276,0,.5.224.5.5v3.5h-7Zm4,3c-1.821,2.103-1.455,6-2.718,6-.606,0-1.287-2.087-1.287-2.087-.995,1.027-1.995,2.361-1.995,4.087,0,3.314,2.686,6,6,6s6-2.686,6-6c0-3.474-4.105-6.105-6-8Zm1.414,11.414c-.781.781-2.048.781-2.829,0-.781-.782-.781-2.048,0-2.829l1.415-1.415,1.415,1.415h0c.781.782.781,2.048,0,2.829Z"/>
</svg>
