<?xml version="1.0" encoding="UTF-8"?>
<svg xmlns="http://www.w3.org/2000/svg" id="Layer_1" data-name="Layer 1" viewBox="0 0 24 24" width="512" height="512"><path d="m.022,23.978l19.214-6.862L6.885,4.764.022,23.978Zm13.741-8.093l-8.786,3.138,3.138-8.786,5.648,5.648Zm-.993-8.688c.859-.859,1.278-1.713,1.244-2.537-.053-1.272-1.141-2.248-1.152-2.257L14.799.111c.215.183,2.104,1.853,2.212,4.423.07,1.696-.643,3.306-2.12,4.783l-2.121-2.121Zm7.796,5.403c-.394.008-.849.222-1.319.691l-2.121-2.121c1.361-1.361,2.694-1.603,3.579-1.567,1.936.081,3.188,1.498,3.325,1.659l-2.278,1.952c-.148-.166-.649-.599-1.186-.614Zm.434-11.1c0-.828.672-1.5,1.5-1.5s1.5.672,1.5,1.5-.672,1.5-1.5,1.5-1.5-.672-1.5-1.5Zm-2,5c0-.828.672-1.5,1.5-1.5s1.5.672,1.5,1.5-.672,1.5-1.5,1.5-1.5-.672-1.5-1.5ZM8,2.5c0-.828.672-1.5,1.5-1.5s1.5.672,1.5,1.5-.672,1.5-1.5,1.5-1.5-.672-1.5-1.5Zm15,16c0,.828-.672,1.5-1.5,1.5s-1.5-.672-1.5-1.5.672-1.5,1.5-1.5,1.5.672,1.5,1.5ZM1,3.5c0-.828.672-1.5,1.5-1.5s1.5.672,1.5,1.5-.672,1.5-1.5,1.5-1.5-.672-1.5-1.5Zm17,19c0,.828-.672,1.5-1.5,1.5s-1.5-.672-1.5-1.5.672-1.5,1.5-1.5,1.5.672,1.5,1.5Z"/></svg>
