<?xml version="1.0" encoding="UTF-8"?>
<svg xmlns="http://www.w3.org/2000/svg" id="Layer_1" data-name="Layer 1" viewBox="0 0 24 24">
  <path d="m24,6h-3.51c1.69.793,2.888,1.779,2.97,1.848l-1.918,2.307c-.725-.6-3.044-2.154-5.042-2.154h0s0,0,0,0c-1.826,0-4.428,1.797-4.5,2,0-1.046.35-2.365,1.144-3.386-3.478-.988-5.033-3.54-5.144-3.614.019.013,2.609.525,5.171.811C12.348,2.629,12,1.175,12,0c0,.212,1.47,1.567,3.18,2.381-.123-.669-.18-1.458-.18-2.381,0,.156.808,1.196,1.837,2h1.163c.74,0,1.386.402,1.732,1h4.268v3Zm-1,12.5c0-3.919-3.003-6.146-5.196-7.772-.302-.224-.639-.474-.96-.728h-.344c-.723,0-2.109.714-2.796,1.18l-.006.016c.652.705,1.491,1.329,2.318,1.942,1.959,1.452,3.983,2.954,3.983,5.362h0s0,0,0,0c0,1.515-1.92,2.113-3.501,2.348.312-.47.501-1.073.501-1.848,0-2.157-1.742-3.4-3.427-4.603-1.837-1.312-3.573-2.55-3.573-4.897h0c0-.604.353-1.193.771-1.657-.906-.435-1.752-.988-2.523-1.653-.697.892-1.207,1.987-1.246,3.165l-3.003,2.145,3.409.426c.145.405.325.782.53,1.135l-1.939,1.939h3.506c.34.323.694.62,1.046.896l-1.052,2.104,3.011-.669c.809.599,1.489,1.188,1.489,1.669,0,.14-.024.189-.023.189-.257.311-1.87.311-2.477.311-3.711,0-8.5-3.395-8.5-7h0,0c-.33-2.641-.006-5.063.683-6.98l1.317,2.48C5.499,5.795,6.148,3.225,5.962,0,4.069.762,1.893,2.714,0,5h2.076C.423,7.755,0,10.446,0,12.5H0s0,0,0,0C0,18.304,6.192,24,12.5,24h2c5.322,0,8.5-2.056,8.5-5.5h0,0Z"/>
</svg>
