<?xml version="1.0" encoding="UTF-8"?>
<svg xmlns="http://www.w3.org/2000/svg" id="Layer_1" data-name="Layer 1" viewBox="0 0 24 24">
  <path d="m23.609,22.395c-.547.99-1.59,1.605-2.722,1.605h-2.387v-3h2.387c.026,0,.065,0,.097-.057.031-.058.011-.091-.003-.112l-1.146-1.826,2.54-1.596,1.147,1.826c.602.958.636,2.169.088,3.159Zm-10.592-1.451c-.032-.057-.01-.092.002-.111l1.139-1.848-2.554-1.574-1.139,1.849c-.59.959-.616,2.165-.067,3.148.549.982,1.589,1.593,2.715,1.593h2.387v-3h-2.387c-.024,0-.065,0-.096-.057Zm6.581-7.956c-.575-.917-1.553-1.443-2.646-1.457-1.082.004-2.067.557-2.636,1.479l-1.138,1.848,2.555,1.574,1.138-1.848c.011-.019.033-.053.094-.053.062.007.082.033.094.052l1.182,1.882,2.54-1.596-1.182-1.881Zm-11.583,8.013h-1.674c-.262,0-.477-.197-.499-.459l-1.212-14.541h12.74l-.295,3.54c1.087.039,2.1.39,2.927.998l.378-4.537h1.62v-3h-5v-.5c0-1.379-1.122-2.5-2.5-2.5h-7c-1.378,0-2.5,1.121-2.5,2.5v.5H0v3h1.62l1.233,14.791c.15,1.799,1.682,3.209,3.488,3.209h2.722c-.15-.195-.289-.399-.41-.617-.414-.742-.62-1.561-.637-2.383Z"/>
</svg>
