<?xml version="1.0" encoding="UTF-8"?>
<svg xmlns="http://www.w3.org/2000/svg" id="Layer_1" data-name="Layer 1" viewBox="0 0 24 24">
  <path d="M10.486,13h3v4h-3v-4Zm-2.01-4.453c-.957-.956-1.477-2.211-1.477-3.547s.52-2.591,1.465-3.536c.944-.944,2.2-1.464,3.535-1.464s2.591,.52,3.535,1.464c.945,.944,1.465,2.2,1.465,3.536s-.52,2.591-1.465,3.536l-3.535,3.458-3.523-3.447Zm1.523-3.547c0,1.105,.895,2,2,2s2-.895,2-2-.895-2-2-2-2,.895-2,2Zm11.288,2.915c-.219-1.291-1.121-2.306-2.298-2.715-.03,1.059-.291,2.078-.764,2.997,.05,.064,.09,.136,.104,.22l2.135,12.583h-6.972l-.008-2.006-3,.012,.008,1.994H3.529l2.121-12.583c.015-.093,.061-.171,.119-.238-.472-.92-.731-1.933-.759-2.985-1.188,.405-2.099,1.425-2.318,2.725L-.018,24H24.019l-2.73-16.085Z"/>
</svg>
