<?xml version="1.0" encoding="UTF-8"?>
<svg xmlns="http://www.w3.org/2000/svg" id="Layer_1" data-name="Layer 1" viewBox="0 0 24 24">
  <path d="M16,15c0,1.657-1.343,3-3,3s-3-1.343-3-3,1.343-3,3-3,3,1.343,3,3Zm5.982-5.304c.003-.333-.025-.694-.09-1.087-.723-4.444-4.933-7.598-9.41-7.609C6.692,1,1.982,5.71,1.982,11.5v11.5h3V11.5c0-.878,.159-1.717,.438-2.5h.875c-.189,.634-.294,1.303-.294,1.998l-.018,12,3,.004,.018-12.002c0-.735,.213-1.415,.561-2.008,1.255-.042,2.357-.735,3.102-1.756,.105-.144,.219-.236,.337-.236,2.206,0,4,1.794,4,3.998l-.019,12,3,.004,.016-10.021c.939-.501,1.97-1.463,1.985-3.285Z"/>
</svg>
