<svg id="Layer_1" viewBox="0 0 24 24" xmlns="http://www.w3.org/2000/svg" data-name="Layer 1"><path d="m24 3.508-.005 18.621c0 1.032-.838 1.872-1.868 1.872-.252.006-.511-.066-.75-.145l-5.828-3.852h-15.549v-6.005h3v3.005h13.451l4.544 3.003.005-16.501c0-.272-.229-.502-.501-.502l-8.499-.002v-2.999s8.501.002 8.501.002c1.931.002 3.5 1.573 3.5 3.503zm-24 6.492v-6h1.5v-.5c0-1.93 1.57-3.5 3.5-3.5s3.5 1.57 3.5 3.5v.5h1.5v6c0 1.105-.895 2-2 2h-6c-1.105 0-2-.895-2-2zm4-6h2v-.5c0-.551-.449-1-1-1s-1 .449-1 1zm0 5h2v-2h-2z"/></svg>