<?xml version="1.0" encoding="UTF-8"?>
<svg xmlns="http://www.w3.org/2000/svg" id="Layer_1" data-name="Layer 1" viewBox="0 0 24 24" width="512" height="512"><path d="M8,14c-1.105,0-2-.895-2-2s.895-2,2-2,2,.895,2,2-.895,2-2,2Zm9-5.5c0-1.381-1.119-2.5-2.5-2.5s-2.5,1.119-2.5,2.5,1.119,2.5,2.5,2.5,2.5-1.119,2.5-2.5ZM12,0C5.383,0,0,5.383,0,12c0,5.421,3.615,10.009,8.56,11.492-1.509-.808-2.56-2.51-2.56-4.492v-.315c-1.835-1.649-3-4.029-3-6.685C3,7.038,7.037,3,12,3s9,4.038,9,9c0,3.999-2.628,7.381-6.244,8.55-.544,1.836-2.007,3.19-3.79,3.398,.341,.029,.685,.052,1.034,.052,6.617,0,12-5.383,12-12S18.617,0,12,0Zm1,19v-2.038c.298-.103,.597-.213,.893-.334,.378-.155,.747-.327,1.107-.506,0,0-.013,2.079-.018,2.18,2.804-1.366,3.614-4.477,3.328-6.73,0-.001-2.402,2.067-5.177,3.206-2.775,1.139-5.931,1.352-5.93,1.353,.229,.3,.497,.595,.798,.876v1.993c0,1.5,1,3,2.5,3s2.5-1.5,2.5-3Z"/></svg>
