<?xml version="1.0" encoding="UTF-8"?>
<svg xmlns="http://www.w3.org/2000/svg" id="Layer_1" data-name="Layer 1" viewBox="0 0 24 24">
  <path d="M24,15v3c-1.157,0-2.202-.451-3-1.17-.798,.72-1.843,1.17-3,1.17s-2.202-.451-3-1.17c-.798,.72-1.843,1.17-3,1.17s-2.202-.451-3-1.17c-.798,.72-1.843,1.17-3,1.17s-2.202-.451-3-1.17c-.798,.72-1.843,1.17-3,1.17v-3c.651,0,1.201-.419,1.408-1h3.184c.207,.581,.757,1,1.408,1s1.201-.419,1.408-1h3.184c.207,.581,.757,1,1.408,1s1.201-.419,1.408-1h3.184c.207,.581,.757,1,1.408,1s1.201-.419,1.408-1h3.184c.207,.581,.757,1,1.408,1Zm-1.408,5h-3.184c-.207,.581-.757,1-1.408,1s-1.201-.419-1.408-1h-3.184c-.207,.581-.757,1-1.408,1s-1.201-.419-1.408-1h-3.184c-.207,.581-.757,1-1.408,1s-1.201-.419-1.408-1H1.408c-.207,.581-.757,1-1.408,1v3c1.157,0,2.202-.451,3-1.17,.798,.72,1.843,1.17,3,1.17s2.202-.451,3-1.17c.798,.72,1.843,1.17,3,1.17s2.202-.451,3-1.17c.798,.72,1.843,1.17,3,1.17s2.202-.451,3-1.17c.798,.72,1.843,1.17,3,1.17v-3c-.651,0-1.201-.419-1.408-1ZM13,6c1.657,0,3-1.343,3-3s-1.343-3-3-3-3,1.343-3,3,1.343,3,3,3Zm-6.923,2.301l-1.005,3.699h3.108l.697-2.564,3.432,.966-.434,1.597h3.109l.289-1.063,3.899-.446,4.601-1.597-1.006-2.826-4.107,1.462-3.9,.447-6.646-1.873-2.568-2.455L3.252,.174,.748,1.826l2.385,3.615,2.944,2.86Z"/>
</svg>
