<svg id="Layer_1" viewBox="0 0 24 24" xmlns="http://www.w3.org/2000/svg" data-name="Layer 1"><path d="m6.5 11c0-1.105.895-2 2-2s2 .895 2 2-.895 2-2 2-2-.895-2-2zm-1.5 5v1h7v-1c0-1.105-.895-2-2-2h-3c-1.105 0-2 .895-2 2zm19-.5c0 1.557-.795 2.93-2 3.738v4.762l-2.5-2.5-2.5 2.5v-4.762c-1.205-.808-2-2.182-2-3.738 0-2.481 2.019-4.5 4.5-4.5s4.5 2.019 4.5 4.5zm-6 0c0 .827.673 1.5 1.5 1.5s1.5-.673 1.5-1.5-.673-1.5-1.5-1.5-1.5.673-1.5 1.5zm6-12v7.316c-.823-.791-1.852-1.364-3-1.635v-2.181h-18v12h11.029c.276.431.605.825.971 1.178v1.822h-15v-18.5c0-1.93 1.57-3.5 3.5-3.5h17c1.93 0 3.5 1.57 3.5 3.5zm-18 0c0-.828-.672-1.5-1.5-1.5s-1.5.672-1.5 1.5.672 1.5 1.5 1.5 1.5-.672 1.5-1.5zm5 0c0-.828-.672-1.5-1.5-1.5s-1.5.672-1.5 1.5.672 1.5 1.5 1.5 1.5-.672 1.5-1.5z"/></svg>