<?xml version="1.0" encoding="UTF-8"?>
<svg xmlns="http://www.w3.org/2000/svg" id="Layer_1" data-name="Layer 1" viewBox="0 0 24 24">
  <path d="m17,7.5c0,1.38-1.12,2.5-2.5,2.5s-2.5-1.12-2.5-2.5,1.12-2.5,2.5-2.5,2.5,1.12,2.5,2.5ZM3,5.05c-1.69.25-3,1.69-3,3.45v12.5h10v-3H3V5.05Zm9,15.95h3v-3h-3v3Zm7.979-5.5v2.5h-2.979v3h2.979v2.5l3.65-3.157c.494-.443.494-1.217,0-1.66l-3.65-3.183Zm4.021-12v11.5H5V3.5c0-1.93,1.57-3.5,3.5-3.5h12c1.93,0,3.5,1.57,3.5,3.5Zm-3,0c0-.276-.224-.5-.5-.5h-12c-.276,0-.5.224-.5.5v8.5h13V3.5Z"/>
</svg>
