<svg id="Layer_1" viewBox="0 0 24 24" xmlns="http://www.w3.org/2000/svg" data-name="Layer 1"><path d="m13.5 10.395c0 2.802-1.786 5.281-4.444 6.167l-2.581.86-.949-2.846 2.581-.86c1.432-.478 2.394-1.812 2.394-3.321v-10.396h3v10.396zm5.357-1.599.3 1.298c1.244.181 2.396.641 3.385 1.325l-.761-3.297c-.56-2.427-2.691-4.123-5.183-4.123h-1.599v3h1.599c1.086 0 2.016.739 2.259 1.797zm-9.17 9.663-1.986.662c-.269.505-.706.915-1.263 1.14-.32.104-1.751.793-2.078.741-.742-.05-1.32-.489-1.361-1.366 0-1.035.118-2.069.351-3.074l1.792-7.767c.243-1.058 1.173-1.796 2.259-1.796h1.599v-3h-1.599c-2.491 0-4.623 1.695-5.183 4.122l-1.79 7.765c-.284 1.225-.428 2.487-.428 3.75-.054 2.348 2.026 4.404 4.359 4.366.873.081 2.375-.629 3.205-.96 1.255-.508 2.235-1.439 2.823-2.586-.217-.673-.341-1.386-.371-2.124-.11.042-.217.089-.329.127zm14.313-.458c0 3.314-2.686 6-6 6s-6-2.686-6-6 2.686-6 6-6 6 2.686 6 6zm-6 2.5c0-.828-.672-1.5-1.5-1.5s-1.5.672-1.5 1.5.672 1.5 1.5 1.5 1.5-.672 1.5-1.5zm1-4.5c0-1.105-.895-2-2-2s-2 .895-2 2 .895 2 2 2 2-.895 2-2zm3.5 2.5c0-.828-.672-1.5-1.5-1.5s-1.5.672-1.5 1.5.672 1.5 1.5 1.5 1.5-.672 1.5-1.5z"/></svg>