<?xml version="1.0" encoding="UTF-8"?>
<svg xmlns="http://www.w3.org/2000/svg" id="Layer_1" data-name="Layer 1" viewBox="0 0 24 24">
  <path d="m5,9h3v15h-3v-15Zm5,15h3V6h-3v18Zm-10,0h3v-12H0v12Zm20-2c-.737,0-1.375-.405-1.722-1h1.722v-2h-2v-1h2v-2h-1.722c.347-.595.985-1,1.722-1,1.103,0,2,.897,2,2h2c0-2.206-1.794-4-4-4-1.859,0-3.411,1.28-3.858,3h-1.142v2h1v1h-1v2h1.142c.447,1.72,1.999,3,3.858,3,2.206,0,4-1.794,4-4h-2c0,1.103-.897,2-2,2ZM23,0h-3v11c1.093,0,2.116.299,3,.812V0Zm-5,11.35V3h-3v10.69c.714-1.074,1.765-1.902,3-2.34Z"/>
</svg>
