<?xml version="1.0" encoding="UTF-8"?>
<svg xmlns="http://www.w3.org/2000/svg" id="Layer_1" data-name="Layer 1" viewBox="0 0 24 24">
  <path d="m10.379,15.379l2.121,2.121-2.6,2.601c-1.126,1.126-3.856,1.571-5.444,1.739l-2.308,2.308L.027,22.027l2.272-2.272c.163-1.578.604-4.368,1.746-5.509l2.601-2.601,2.121,2.121-2.601,2.601c-.218.258-.481,1.187-.68,2.292,1.106-.199,2.038-.466,2.303-.689l2.59-2.591Zm13.619,6.498l-2.121,2.121L.002,2.123,2.123.002l4.709,4.708,3.402-3.402c1.457-1.457,3.82-1.457,5.277,0l.736.736.552-.552c1.546-1.547,4.027-1.715,5.648-.389.907.742,1.462,1.837,1.521,3.002.058,1.167-.382,2.31-1.208,3.135l-6.699,6.699,7.937,7.937Zm-13.792-13.792l3.919-3.919-.736-.736c-.286-.286-.749-.286-1.035,0l-3.402,3.402,1.254,1.254Zm3.733,3.733l3.919-3.919-1.612-1.612-3.919,3.919,1.612,1.612Z"/>
</svg>
