<svg id="Layer_1" viewBox="0 0 24 24" xmlns="http://www.w3.org/2000/svg" data-name="Layer 1"><path d="m18 3.5v7.5h-3v-7.5c0-.276-.225-.5-.5-.5h-1.257c-.619 1.746-2.287 3-4.243 3s-3.624-1.254-4.243-3h-1.257c-.275 0-.5.224-.5.5v17c0 .276.225.5.5.5h7.5v3h-7.5c-1.93 0-3.5-1.57-3.5-3.5v-17c0-1.93 1.57-3.5 3.5-3.5h4v1.5c0 .827.673 1.5 1.5 1.5s1.5-.673 1.5-1.5v-1.5h4c1.93 0 3.5 1.57 3.5 3.5zm1 20.5h2v-2h-2zm3-3h2v-2h-2zm-3 0h2v-2h-2zm-6-8h5v5h-5zm2 3h1v-1h-1zm-2 3h5v5h-5zm2 3h1v-1h-1zm9-9v5h-5v-5zm-2 2h-1v1h1z"/></svg>