<?xml version="1.0" encoding="UTF-8"?>
<svg xmlns="http://www.w3.org/2000/svg" id="Layer_1" data-name="Layer 1" viewBox="0 0 24 24">
  <path d="M8.69,9h1.261l-.981,4.819c-.094,.485-.432,1.181-1.221,1.181s-1.132-.727-1.214-1.148l-1.036-4.852h1.31l.94,4.55,.94-4.55Zm8.53,3.047l-1.44-3.041v-.006h-1.28v6h1.28v-3.041l1.44,3.041h1.28v-6h-1.28v3.047Zm-3.242-1.097c0,1.094-.902,1.985-2.012,1.985l-.217,.003v2.062h-1.25v-6.034h1.467c1.109,0,2.012,.891,2.012,1.985Zm-1.25,0c0-.398-.349-.735-.762-.735h-.215l.005,1.473,.21-.003c.413,0,.762-.336,.762-.735Zm11.271,1.05c0,6.617-5.383,12-12,12S0,18.617,0,12,5.383,0,12,0s12,5.383,12,12Zm-3.135,1.5h-.865v-3h.865c-.538-3.184-2.748-5.799-5.697-6.914,.525,.965,1.062,2.117,1.488,3.414h-3.185c-.457-1.149-.997-2.14-1.467-2.898-.47,.759-1.009,1.751-1.467,2.898h-3.191c.426-1.297,.962-2.449,1.488-3.413-2.949,1.114-5.159,3.73-5.697,6.913h1.151l.641,3h-1.792c.538,3.186,2.751,5.803,5.704,6.916-.525-.965-1.062-2.119-1.487-3.416h3.188c.455,1.147,.988,2.142,1.458,2.898,.469-.758,1.002-1.753,1.457-2.898h3.194c-.426,1.297-.962,2.451-1.487,3.416,2.953-1.113,5.166-3.73,5.704-6.916Z"/>
</svg>
