<?xml version="1.0" encoding="UTF-8"?>
<svg xmlns="http://www.w3.org/2000/svg" id="Layer_1" data-name="Layer 1" viewBox="0 0 24 24">
  <path d="m19.478,17h3.416c-1.901,4.124-6.063,7-10.895,7C5.383,24,0,18.617,0,12S5.383,0,12,0c4.831,0,8.994,2.876,10.895,7h-3.416c-1.617-2.41-4.365-4-7.478-4C7.038,3,3,7.037,3,12s4.038,9,9,9c3.114,0,5.862-1.59,7.478-4Zm2.522-6v-2h-2v2h-2v2h2v2h2v-2h2v-2h-2Zm-10.826.691c-.491-.552-.799-1.271-.799-2.066,0-1.723,1.402-3.125,3.125-3.125s3.125,1.402,3.125,3.125c0,.795-.308,1.514-.799,2.066.643.615,1.049,1.476,1.049,2.434,0,1.861-1.514,3.375-3.375,3.375s-3.375-1.514-3.375-3.375c0-.958.405-1.819,1.049-2.434Zm3.701,2.434c0-.758-.617-1.375-1.375-1.375s-1.375.617-1.375,1.375.617,1.375,1.375,1.375,1.375-.617,1.375-1.375Zm-1.375-3.375c.62,0,1.125-.505,1.125-1.125s-.505-1.125-1.125-1.125-1.125.505-1.125,1.125.505,1.125,1.125,1.125Zm-4.5,6.25V7h-1.488l-2.516,2.777,1.482,1.342.521-.575v6.456h2Z"/>
</svg>
