<svg id="Layer_1" viewBox="0 0 24 24" xmlns="http://www.w3.org/2000/svg" data-name="Layer 1"><path d="m9.503 13h-2.939c-.633 0-1.222-.283-1.615-.776-.392-.491-.537-1.125-.397-1.738.247-1.081.741-3.256 1.149-5.12.746-3.41 3.028-5.366 6.26-5.366.737 0 1.421.118 2.058.323-.571.802-.929 1.763-1 2.802-.439-.122-.829-.125-1.058-.125-.661 0-2.671 0-3.33 3.008-.294 1.344-.633 2.849-.893 3.992h8.439c-.118-.516-.251-1.101-.389-1.721.801.456 1.725.721 2.711.721.176 0 .349-.01.521-.026.136.598.257 1.122.346 1.505.3 1.247-.712 2.557-2.011 2.521h-2.954c-.232 1.141-1.24 2-2.45 2s-2.218-.859-2.45-2zm-2.503 11h15v-3h-15zm-3.5-3c-.828 0-1.5.672-1.5 1.5s.672 1.5 1.5 1.5 1.5-.672 1.5-1.5-.672-1.5-1.5-1.5zm3.5-2h15v-3h-15zm-3.5-3c-.828 0-1.5.672-1.5 1.5s.672 1.5 1.5 1.5 1.5-.672 1.5-1.5-.672-1.5-1.5-1.5zm15-9c1.93 0 3.5-1.57 3.5-3.5s-1.57-3.5-3.5-3.5-3.5 1.57-3.5 3.5 1.57 3.5 3.5 3.5z"/></svg>