<?xml version="1.0" encoding="UTF-8"?>
<svg xmlns="http://www.w3.org/2000/svg" id="Layer_1" data-name="Layer 1" viewBox="0 0 24 24">
  <path d="m24,5.5v13.499l-3-3v-6.999H3v12h9.202c.861,1.138,1.917,2.171,3.071,3H0V5.5c0-1.93,1.57-3.5,3.5-3.5h2.5V0h3v2h6V0h3v2h2.5c1.93,0,3.5,1.57,3.5,3.5Zm-2.713,13.614l-1.775,1.775c-2.027-.773-3.521-2.208-4.403-4.403l1.775-1.775-2.712-2.712-1.378,1.378c-.54.539-.795,1.249-.795,1.957,0,3.914,5.032,8.665,8.665,8.665.708,0,1.418-.256,1.957-.795l1.378-1.378-2.712-2.712h0Z"/>
</svg>
