<svg id="Layer_1" viewBox="0 0 24 24" xmlns="http://www.w3.org/2000/svg" data-name="Layer 1"><path d="m20.5 0h-17c-1.93 0-3.5 1.57-3.5 3.5v8.528c.813-.964 1.837-1.741 3-2.268v-2.76h18v12h-6.14c-.194 1.086-.594 2.099-1.158 3h10.298v-18.5c0-1.93-1.57-3.5-3.5-3.5zm-16 5c-.828 0-1.5-.672-1.5-1.5s.672-1.5 1.5-1.5 1.5.672 1.5 1.5-.672 1.5-1.5 1.5zm5 0c-.828 0-1.5-.672-1.5-1.5s.672-1.5 1.5-1.5 1.5.672 1.5 1.5-.672 1.5-1.5 1.5zm-3 6c-3.59 0-6.5 2.91-6.5 6.5s2.91 6.5 6.5 6.5 6.5-2.91 6.5-6.5-2.91-6.5-6.5-6.5zm1.5 6v4h-3v-4h-3l3.793-3.707c.391-.39 1.024-.39 1.414 0l3.793 3.707zm5.528-4.279c-.508-.745-1.135-1.399-1.848-1.949.539-.801 1.36-1.397 2.32-1.645v-1.127h2v1.142c.712.185 1.351.551 1.852 1.061l.982-.565.998 1.733-.992.571c.094.339.16.689.16 1.058s-.066.719-.16 1.058l.992.571-.998 1.733-.982-.565c-.726.741-1.735 1.203-2.852 1.203-.009 0-.017-.003-.025-.003-.054-.923-.251-1.805-.577-2.626.185.081.388.128.602.128.827 0 1.5-.673 1.5-1.5s-.673-1.5-1.5-1.5c-.732 0-1.34.527-1.472 1.221z"/></svg>