<?xml version="1.0" encoding="UTF-8"?>
<svg xmlns="http://www.w3.org/2000/svg" id="Layer_1" data-name="Layer 1" viewBox="0 0 24 24">
  <path d="m22.657,12.874l-4-3.13c-1.271-.993-3.044-.994-4.313,0l-4.001,3.131c-.853.668-1.342,1.673-1.342,2.755v8.37h15v-8.37c0-1.082-.489-2.087-1.343-2.756Zm-1.657,8.126h-9v-5.37c0-.154.07-.299.192-.394l4-3.13c.182-.143.435-.142.616,0l3.999,3.129c.123.096.193.24.193.395v5.37Zm-6-5h3v3h-3v-3Zm-6.408-4.597c-.784.38-1.661.597-2.592.597-3.314,0-6-2.686-6-6S2.686,0,6,0c.93,0,1.807.217,2.591.597-2.544.483-4.468,2.718-4.468,5.403s1.924,4.921,4.469,5.403Zm3.742-6.737l-2.333-1.167,2.333-1.167,1.167-2.333,1.167,2.333,2.333,1.167-2.333,1.167-1.167,2.333-1.167-2.333Zm-7.833,12.833l2,1-2,1-1,2-1-2-2-1,2-1,1-2,1,2ZM20.667,7.333l-1.667-.833,1.667-.833.833-1.667.833,1.667,1.667.833-1.667.833-.833,1.667-.833-1.667Z"/>
</svg>
