<?xml version="1.0" encoding="UTF-8"?>
<svg xmlns="http://www.w3.org/2000/svg" id="Layer_1" data-name="Layer 1" viewBox="0 0 24 24">
  <path d="M14.095,7h-.595V2h-3V7h-.595c-2.934,0-4.905,1.809-4.905,4.5v3.5h2v6h10v-6h2v-3.5c0-2.691-1.971-4.5-4.905-4.5Zm1.905,5h-2v6h-4v-6h-2v-.5c0-.995,.641-1.5,1.905-1.5h.107c.456,.604,1.173,1,1.989,1s1.532-.396,1.989-1h.107c1.264,0,1.905,.505,1.905,1.5v.5Zm5.004,12l-.003-19h-5.501V2h5.5V0s3,0,3,0l.004,24h-3ZM2.997,5l.003,19H0L-.004,0H2.996V2h5.504v3H2.997Z"/>
</svg>
