<?xml version="1.0" encoding="UTF-8"?>
<svg xmlns="http://www.w3.org/2000/svg" id="Layer_1" data-name="Layer 1" viewBox="0 0 24 24">
  <path d="m6,12v-5h3v5h-3Zm4.5,0h3v-5h-3v5Zm11.877,2.6c1.051,1.05,1.623,2.431,1.623,3.9s-.572,2.851-1.611,3.889c-1.039,1.039-2.42,1.611-3.889,1.611s-2.852-.572-3.89-1.612c-1.038-1.037-1.61-2.418-1.61-3.888s.572-2.851,1.611-3.889l3.889-3.805,3.877,3.793Zm-1.377,3.9c0-.668-.26-1.295-.732-1.768l-1.768-1.729-1.779,1.74c-.461.461-.721,1.088-.721,1.756s.26,1.295.732,1.768c.942.944,2.59.946,3.535,0,.473-.473.732-1.1.732-1.768Zm-9.576,2.471c-4.694-.3-8.424-4.202-8.424-8.971C3,7.037,7.038,3,12,3c4.378,0,8.031,3.143,8.833,7.291l2.943,2.879c.052.052.096.108.146.161.049-.438.078-.881.078-1.331C24,5.383,18.617,0,12,0S0,5.383,0,12s5.383,12,12,12c.449,0,.891-.029,1.328-.078-.044-.042-.091-.078-.134-.121-.81-.81-1.404-1.777-1.771-2.83Zm6.576-12.473v-1.498h-3v4.433l3-2.935Z"/>
</svg>
