<?xml version="1.0" encoding="UTF-8"?>
<svg xmlns="http://www.w3.org/2000/svg" id="Layer_1" data-name="Layer 1" viewBox="0 0 24 24">
  <path d="m15,12v-5h3v2.092l-1.666,2.908h-1.334Zm-3,9c-4.962,0-9-4.037-9-9S7.038,3,12,3c4.113,0,7.583,2.777,8.653,6.552l3.32,1.904c-.288-6.364-5.54-11.455-11.972-11.455C5.383,0,0,5.383,0,12s5.383,12,12,12c1.155,0,2.269-.173,3.328-.479l1.516-2.656c-.454-.127-.878-.337-1.255-.615-1.101.481-2.313.751-3.589.751Zm-3-9v-5h-3v5h3Zm1.5,0h3v-5h-3v5Zm13.202,4.888c-.351-.551-.95-.88-1.604-.88h-2.299l2.002-3.492-2.603-1.492-2.998,5.233c-.296.594-.266,1.285.083,1.85.349.564.953.901,1.617.901h2.303l-2.007,3.519,2.605,1.486,3.019-5.3c.276-.592.231-1.274-.119-1.825Z"/>
</svg>
