<?xml version="1.0" encoding="UTF-8"?>
<svg xmlns="http://www.w3.org/2000/svg" id="Layer_1" data-name="Layer 1" viewBox="0 0 24 24">
  <path d="M2.5,9.5c0-1.933,1.567-3.5,3.5-3.5s3.5,1.567,3.5,3.5-1.567,3.5-3.5,3.5-3.5-1.567-3.5-3.5Zm5.5,5.5H4c-2.206,0-4,1.794-4,4v5H3v-5c0-.551,.449-1,1-1h4c.551,0,1,.449,1,1v5h3v-5c0-2.206-1.794-4-4-4ZM24,2V11h-7.872l-2.454,1.689c-.723,.463-1.672-.057-1.672-.915l-.002-9.771C11.999,.903,12.899,.002,13.999,.002l8-.002c1.105,0,2.001,.895,2.001,2Zm-5,6h-2v2h2v-2Zm1.934-4.635c-.228-1.093-1.067-1.981-2.14-2.263-.915-.241-1.868-.05-2.61,.522-.741,.572-1.184,1.47-1.184,2.402h2c0-.317,.151-.623,.405-.819,.146-.112,.457-.283,.881-.171,.334,.087,.618,.39,.689,.736,.109,.524-.178,.937-.511,1.112-.4,.211-1.465,.772-1.465,2.116h2c0-.061,0-.137,.397-.346,1.197-.631,1.814-1.953,1.537-3.289Z"/>
</svg>
