<?xml version="1.0" encoding="UTF-8"?>
<svg xmlns="http://www.w3.org/2000/svg" id="Layer_1" data-name="Layer 1" viewBox="0 0 24 24">
  <path d="m24,17h-1.418l-2.167-12.282c-.381-2.154-2.244-3.718-4.432-3.718h-7.966c-2.188,0-4.052,1.563-4.432,3.718l-2.167,12.282H0v3h1.094c.243,1.694,1.704,3,3.464,3h15c1.76,0,3.221-1.306,3.464-3h.978v-3ZM8.017,4h7.966c.729,0,1.351.521,1.477,1.239l.134.761h-1.094c-.743,0-1.433.233-2,.63-.567-.397-1.257-.63-2-.63h-1c-.743,0-1.433.232-2,.629-.567-.396-1.257-.629-2-.629h-1.095l.134-.761c.127-.718.748-1.239,1.478-1.239Zm-2.141,5h1.624c.276,0,.5.225.5.5v4.5h3v-4.5c0-.275.224-.5.5-.5h1c.276,0,.5.225.5.5v2.5h3v-2.5c0-.275.225-.5.5-.5h1.624l1.412,8H4.464l1.412-8Z"/>
</svg>
