<?xml version="1.0" encoding="UTF-8"?>
<svg xmlns="http://www.w3.org/2000/svg" id="Layer_1" data-name="Layer 1" viewBox="0 0 24 24">
  <path d="M24,6.278V2.892c-1.425-.936-2.141-2.221-2.434-2.892h-3.171c-.492,1.126-2.162,4-6.396,4S6.097,1.126,5.604,0H2.434c-.293,.671-1.008,1.955-2.434,2.892v3.386c.995-.397,1.814-.929,2.5-1.506v6.228H0v7.896l1.365,.123c2.072,.187,3.635,1.898,3.635,3.98v1h3v-1c0-2.206,1.794-4,4-4s4,1.794,4,4v1h3v-1c0-2.082,1.562-3.794,3.635-3.98l1.365-.123v-7.896h-2.5V4.772c.686,.578,1.505,1.109,2.5,1.506ZM5.5,4.734c1.191,1.017,2.807,1.895,5,2.173v4.093H5.5V4.734Zm15.5,11.556c-1.418,.416-2.629,1.265-3.507,2.385-1.283-1.626-3.266-2.675-5.493-2.675s-4.21,1.049-5.493,2.675c-.878-1.12-2.089-1.969-3.507-2.385v-2.29H21v2.29Zm-7.5-5.29V6.907c2.193-.278,3.809-1.155,5-2.173v6.266h-5Z"/>
</svg>
