<svg id="Layer_1" viewBox="0 0 24 24" xmlns="http://www.w3.org/2000/svg" data-name="Layer 1"><path d="m3.5 21h3.5v3h-3.5c-1.93 0-3.5-1.57-3.5-3.5v-3.5h3v3.5c0 .276.225.5.5.5zm17.5-.5c0 .276-.225.5-.5.5h-3.5v3h3.5c1.93 0 3.5-1.57 3.5-3.5v-3.5h-3zm-.5-20.5h-3.5v3h3.5c.275 0 .5.224.5.5v3.5h3v-3.5c0-1.93-1.57-3.5-3.5-3.5zm-17.5 3.5c0-.276.225-.5.5-.5h3.5v-3h-3.5c-1.93 0-3.5 1.57-3.5 3.5v3.5h3zm18.285 7.5h2.715v3h-24v-3h2.715c.638-1.428 3.928-5.93 9.285-6 5.361.07 8.646 4.572 9.285 6zm-14.983 0h3.409c.386-.882 1.264-1.5 2.289-1.5s1.903.618 2.289 1.5h3.409c-1.081-1.263-3.095-3-5.698-3s-4.616 1.737-5.698 3zm-1.266 5c1.607 1.51 3.981 3 6.963 3s5.358-1.489 6.964-3h-13.926z"/></svg>