<?xml version="1.0" encoding="UTF-8"?>
<svg xmlns="http://www.w3.org/2000/svg" id="Layer_1" data-name="Layer 1" viewBox="0 0 24 24" width="512" height="512"><path d="M11,13.5v-4c0-.828,.672-1.5,1.5-1.5s1.5,.672,1.5,1.5v4c0,.828-.672,1.5-1.5,1.5s-1.5-.672-1.5-1.5Zm5.5,1.5c.828,0,1.5-.672,1.5-1.5v-4c0-.828-.672-1.5-1.5-1.5s-1.5,.672-1.5,1.5v4c0,.828,.672,1.5,1.5,1.5ZM6,7v1.415c1.01-.247,2.085-.101,3,.436V4H1l2,1.5-2,1.5H6ZM9,1.5c0-.828-.672-1.5-1.5-1.5s-1.5,.672-1.5,1.5v.5h3v-.5Zm11.5,6.5c-.828,0-1.5,.672-1.5,1.5v4c0,.828,.672,1.5,1.5,1.5s1.5-.672,1.5-1.5v-4c0-.828-.672-1.5-1.5-1.5Zm-1.5,8.649v4.351H8.093l-3.505-3.288,3.814-3.948c.797-.797,.797-2.089,0-2.886-.797-.797-2.089-.797-2.886,0l-3.516,3.609,.002,.006c-.646,.658-1.002,1.527-1.002,2.452,0,.935,.364,1.814,1.06,2.508l4.847,4.547h15.093v-7.351c-.456,.219-.961,.351-1.5,.351s-1.044-.133-1.5-.351Z"/></svg>
