<?xml version="1.0" encoding="UTF-8"?>
<svg xmlns="http://www.w3.org/2000/svg" id="Layer_1" data-name="Layer 1" viewBox="0 0 24 24">
  <path d="M6,15c-1.654,0-3,1.346-3,3v3c0,1.654,1.346,3,3,3s3-1.346,3-3v-3c0-1.654-1.346-3-3-3Zm1,6c0,.551-.449,1-1,1s-1-.449-1-1v-3c0-.551,.449-1,1-1s1,.449,1,1v3Zm11-6c-1.654,0-3,1.346-3,3v3c0,1.654,1.346,3,3,3s3-1.346,3-3v-3c0-1.654-1.346-3-3-3Zm1,6c0,.551-.449,1-1,1s-1-.449-1-1v-3c0-.551,.449-1,1-1s1,.449,1,1v3Zm5-8.5c0,1.521-.44,2.954-1.2,4.177-.32-1.157-1.027-2.154-1.996-2.813,.126-.438,.196-.896,.196-1.364,0-2.47-1.955-4.418-4.548-4.501l-1.082-.034-.308-1.038c-.676-2.276-2.767-3.927-4.971-3.927-2.902,0-5.091,2.149-5.091,5,0,1.138,.134,1.729,.247,2.025l.479,1.258-1.199,.612c-.817,.417-1.339,1.198-1.471,2.085-1.187,.872-1.97,2.248-2.036,3.815-.637-.958-1.021-2.089-1.021-3.294,0-1.773,.794-3.521,2.133-4.608-.089-.55-.133-1.178-.133-1.892C2.036,3.547,5.577,0,10.091,0c3.225,0,6.177,2.051,7.493,5.097,3.723,.58,6.417,3.619,6.417,7.403Zm-12.52,2.5h1.52v9h-2v-6l-1.243-1.17,1.723-1.83Z"/>
</svg>
