<?xml version="1.0" encoding="UTF-8"?>
<svg xmlns="http://www.w3.org/2000/svg" id="Layer_1" data-name="Layer 1" viewBox="0 0 24 24">
  <path d="m19.5,14.255v-3.634l4.5-4.621L18,0l-4.121,4h-3.98C9.434,1.721,7.414,0,5,0,2.243,0,0,2.244,0,5c0,2.045,1.237,3.802,3,4.576v5.423H0v9h9v-9h-3v-5.101c1.607-.328,2.932-1.431,3.576-2.899h3.303l3.621,3.621v3.634c-2.021.642-3.5,2.514-3.5,4.745,0,2.757,2.243,5,5,5s5-2.243,5-5c0-2.231-1.479-4.103-3.5-4.745Zm-13.5,6.745h-3v-3h3v3Zm-1-14c-1.103,0-2-.897-2-2s.897-2,2-2,2,.897,2,2-.897,2-2,2Zm13-2.879l1.879,1.879-1.879,1.879-1.879-1.879,1.879-1.879Zm0,16.878c-1.103,0-2-.897-2-2s.897-2,2-2,2,.897,2,2-.897,2-2,2Z"/>
</svg>
