<?xml version="1.0" encoding="UTF-8"?>
<svg xmlns="http://www.w3.org/2000/svg" id="Layer_1" data-name="Layer 1" viewBox="0 0 24 24">
  <path d="m23.676,4.238l-3.194,2.762v-2h-8.058c-3.86,0-7,3.14-7,7,0,1.487.47,2.865,1.264,4h-3.423c-.538-1.226-.841-2.578-.841-4h0C2.425,6.486,6.911,2,12.425,2h8.058V0l3.194,2.785c.432.388.432,1.065,0,1.453Zm-11.983,2.762v1.2h-.327c-1.198,0-2.173.975-2.173,2.173,0,1.033.734,1.929,1.747,2.131l2.791.559c.268.054.462.291.462.563,0,.316-.258.574-.574.574h-2.126c-.316,0-.585-.211-.671-.5h-1.62c.102,1.175,1.09,2.1,2.291,2.1h.2v1.2h1.6v-1.2h.326c1.199,0,2.174-.975,2.174-2.173,0-1.033-.734-1.929-1.747-2.131l-2.792-.559c-.267-.054-.461-.291-.461-.562,0-.316.257-.574.573-.574h2.127c.316,0,.585.211.671.5h1.62c-.102-1.175-1.09-2.1-2.291-2.1h-.2v-1.2h-1.6Zm9.89,1h-3.423c.794,1.135,1.263,2.513,1.263,4h0s0,0,0,0c0,3.86-3.14,7-7,7h-7.922v-2l-3.194,2.762c-.432.388-.432,1.065,0,1.453l3.194,2.785v-2h7.922c5.514,0,10-4.486,10-10h0,0c0-1.422-.303-2.774-.841-4Z"/>
</svg>
