<svg id="Layer_1" viewBox="0 0 24 24" xmlns="http://www.w3.org/2000/svg" data-name="Layer 1"><path d="m10.004 15.681 2.057 5.164c-1.137 1.886-3.196 3.153-5.55 3.153-3.576 0-6.486-2.915-6.486-6.499v-13.498c0-2.205 1.791-3.999 3.992-3.999s3.992 1.794 3.992 3.999v13.998h-2.994v-13.998c0-.551-.448-1-.998-1s-.998.449-.998 1v13.498c0 1.929 1.567 3.499 3.493 3.499s3.493-1.57 3.493-3.499v-1.818zm6.695-10.166-2.78 1.112 5.179 13.001c.21.494-.055 1.11-.557 1.299-.494.21-1.108-.055-1.297-.558l-4.994-12.536c-.714-1.793.161-3.833 1.949-4.548 1.73-.732 3.878.192 4.538 1.953l2.507 6.294 2.78-1.112-2.507-6.294c-1.225-3.271-5.216-4.989-8.427-3.627-3.322 1.328-4.945 5.117-3.62 8.446l4.994 12.536c.754 2.013 3.211 3.07 5.187 2.232 2.009-.756 3.064-3.217 2.227-5.197z"/></svg>