<?xml version="1.0" encoding="UTF-8"?>
<svg xmlns="http://www.w3.org/2000/svg" id="Layer_1" data-name="Layer 1" viewBox="0 0 24 24">
  <path d="m21.958,10.345c-.107-1.332-.524-2.659-1.249-3.868.682-.054,1.349-.328,1.87-.849,1.162-1.162,2.034-3.918.872-5.08-1.162-1.162-3.918-.29-5.08.872-.521.521-.796,1.189-.849,1.871-1.208-.724-2.535-1.141-3.867-1.248-.367-.476-1.827-2.043-5.156-2.043h-2.531v3h2.531c.191,0,.359.014.527.027-.603.338-1.173.752-1.682,1.261-1.308,1.308-2.577,3.508-3.403,5.829-1.858.39-3.943,1.82-3.943,4.883,0,0,3.006.011,3.006,0,0,1.15.195,2.112.59,2.971-1.272,1.655-2.096,4.529-2.096,4.529,0,0,2.88-.826,4.534-2.1.877.394,1.89.568,2.965.571v3.029c3.068,0,4.498-2.092,4.885-3.952,2.381-.839,4.566-2.131,5.827-3.393.509-.509.923-1.078,1.261-1.682.013.168.027.335.027.526v2.531h3v-2.531c0-3.324-1.564-4.785-2.042-5.155Zm-11.958,7.582c-1.41.173-2.633.023-3.292-.636-.606-.606-.82-1.786-.643-3.292h3.935v3.928Zm2-9.32l-2.311.619-.475,1.773h-2.397c.675-1.845,1.688-3.629,2.651-4.591.706-.706,1.588-1.144,2.533-1.319v3.517Zm3-3.223c.792.299,1.547.769,2.197,1.419.649.649,1.104,1.406,1.403,2.196h-3.6v-3.615Zm2.591,9.15c-1,1-2.755,1.983-4.591,2.647v-2.344l1.813-.486.63-2.351h3.45c-.176.943-.597,1.829-1.302,2.534Z"/>
</svg>
