<svg id="Layer_1" viewBox="0 0 24 24" xmlns="http://www.w3.org/2000/svg" data-name="Layer 1"><path d="m22.5 2.567-3.749-2.165c-.926-.535-2.075-.535-3.001 0l-3.75 2.165-3.749-2.165c-.926-.535-2.075-.535-3.001 0l-3.749 2.165c-.926.534-1.501 1.529-1.501 2.598v4.507c0 1.068.574 2.063 1.5 2.599l3.75 2.165v4.399c0 1.067.574 2.062 1.5 2.599l3.751 2.166c.462.267.98.399 1.499.399s1.037-.133 1.5-.4l3.752-2.166c.924-.535 1.498-1.53 1.498-2.598v-4.399l3.751-2.165c.925-.535 1.499-1.53 1.499-2.598v-4.508c0-1.069-.575-2.064-1.5-2.598zm-19.5 2.598 3.75-2.165 3.75 2.165v4.507l-3.75 2.165-3.75-2.165zm9 15.836-3.75-2.166v-4.399l3.75-2.165 3.75 2.165v4.399zm9-11.329-3.75 2.165-3.75-2.165v-4.507l3.75-2.165 3.75 2.165z"/></svg>