<?xml version="1.0" encoding="UTF-8"?>
<svg xmlns="http://www.w3.org/2000/svg" id="Layer_1" data-name="Layer 1" viewBox="0 0 24 24">
  <path d="m24,16c0,3.309-2.691,6-6,6h-6v-3h6c1.654,0,3-1.346,3-3s-1.346-3-3-3h-4v-3h3.192c1.378,0,2.5-1.121,2.5-2.5s-1.122-2.5-2.5-2.5h-5.192v-3h5.192c3.033,0,5.5,2.468,5.5,5.5,0,1.352-.491,2.592-1.304,3.551,1.576,1.082,2.612,2.897,2.612,4.949Zm-14.005,0l.005,1.996-3,.008-.005-2.004h-1.969l.005,1.996-3,.008-.005-2.004H0v-3h2.018l-.005-2H0v-3h2.005l-.005-1.996,3-.008.005,2.004h1.969l-.005-1.996,3-.008.005,2.004h2.026v3h-2.018l.005,2h2.013v3h-2.005Zm-3.008-3l-.005-2h-1.969l.005,2h1.969Z"/>
</svg>
