<svg id="Layer_1" viewBox="0 0 24 24" xmlns="http://www.w3.org/2000/svg" data-name="Layer 1"><path d="m23.895 19.39-1-5.641c.682-.718 1.105-1.683 1.105-2.749 0-1.738-1.091-3.212-2.64-3.767-1.095-4.191-4.944-7.233-9.36-7.233-4.935 0-9.046 3.592-9.855 8.299-.095.553-.491 3.701-.491 3.701h1.846c.16 0 2.114-.032 4.637-1.119-.086.189-.137.398-.137.619 0 .828.672 1.5 1.5 1.5s1.5-.672 1.5-1.5c0-.723-.511-1.326-1.192-1.468 1.569-.916 3.24-2.254 4.78-4.225-.749-.503-1.637-.807-2.588-.807h-.655c-2.272 2.431-4.692 3.389-6.235 3.761.587-3.271 3.453-5.761 6.89-5.761 3.295 0 6.134 2.457 6.603 5.714l.179 1.241 1.253.044c.542.019.965.459.965 1.001 0 .551-.449 1-1 1h-1.96l-.255 1.185c-.638 2.974-3.499 4.815-5.785 4.815-2.179 0-4.86-1.687-5.659-4.421-1.62.405-2.727.421-2.841.421h-2.439l-.956 5.39c-.268 1.107-.022 2.256.678 3.16.713.922 1.79 1.449 2.956 1.449h6.261v-3.264c.653.168 1.323.264 2 .264.677 0 1.348-.09 2-.257v3.257h6.261s.001.001.001.001c1.164 0 2.241-.528 2.954-1.449.7-.904.946-2.053.678-3.162zm-16.895 1.61h-3.262c-.315 0-.5-.179-.583-.285s-.209-.331-.13-.635l.817-4.586c.684 1.534 1.801 2.863 3.158 3.832zm13.845-.285c-.083.107-.268.286-.583.286h-3.262v-1.669c1.358-.967 2.474-2.295 3.159-3.827l.816 4.574c.079.305-.048.529-.13.636zm-6.345-7.715c-.828 0-1.5-.672-1.5-1.5s.672-1.5 1.5-1.5 1.5.672 1.5 1.5-.672 1.5-1.5 1.5zm-5.5 1.001h5.998c-.49 1.174-1.648 2-2.999 2s-2.509-.826-2.999-2z"/></svg>