<svg id="Layer_1" viewBox="0 0 24 24" xmlns="http://www.w3.org/2000/svg" data-name="Layer 1"><path d="m14.023 7.795 6.12 5.741-2.053 2.188-6.121-5.742-6.085 5.753-2.049-2.191 6.155-5.752c1.131-1.06 2.903-1.059 4.032.003zm-.184-7.033c-1.014-1.015-2.665-1.014-3.649-.03l-9.72 9.177 2.06 2.182 9.47-8.942 9.471 8.941 2.059-2.182-9.69-9.146zm-1.84 12.238c-.828 0-1.5.672-1.5 1.5s.672 1.5 1.5 1.5 1.5-.672 1.5-1.5-.672-1.5-1.5-1.5zm0 4c-.828 0-1.5.672-1.5 1.5s.672 1.5 1.5 1.5 1.5-.672 1.5-1.5-.672-1.5-1.5-1.5zm0 4c-.828 0-1.5.672-1.5 1.5s.672 1.5 1.5 1.5 1.5-.672 1.5-1.5-.672-1.5-1.5-1.5z"/></svg>