<?xml version="1.0" encoding="UTF-8"?>
<svg xmlns="http://www.w3.org/2000/svg" id="Layer_1" data-name="Layer 1" viewBox="0 0 24 24">
  <path d="m10.5,6h.779c-.793.952-1.279,2.167-1.279,3.5v4.399c-1.161-.116-2.163-.32-3-.552v-3.848c0-1.93,1.57-3.5,3.5-3.5Zm-5.5,6.641v-3.141c0-1.333.486-2.548,1.279-3.5h-.779c-1.93,0-3.5,1.57-3.5,3.5v1.273c.886.628,1.99,1.347,1.99,1.347.01.006.359.23,1.01.52Zm10.5-6.641c-1.93,0-3.5,1.57-3.5,3.5v4.5c1.111,0,2.108-.091,3-.228v-4.272c0-.276.225-.5.5-.5h3c.275,0,.5.224.5.5v3.141c.651-.29,1-.514,1.01-.52,0,0,1.104-.719,1.99-1.347v-1.273c0-1.93-1.57-3.5-3.5-3.5h-3Zm-11.5,13.689v4.311h3v-3.474c-.713-.137-1.392-.287-2-.458l-1-.379Zm10,1.239v3.072h6v-4.466l-1,.534c-1.392.393-3.064.721-5,.86Zm-5,3.072h3v-3c-1.076,0-2.061-.074-3-.178v3.178ZM17,5c1.381,0,2.5-1.119,2.5-2.5s-1.119-2.5-2.5-2.5-2.5,1.119-2.5,2.5,1.119,2.5,2.5,2.5Zm-5,0c.403,0,.778-.104,1.115-.273-.381-.659-.615-1.412-.615-2.227s.234-1.568.614-2.227c-.337-.169-.711-.273-1.114-.273-1.381,0-2.5,1.119-2.5,2.5s1.119,2.5,2.5,2.5Zm-5,0c.403,0,.778-.104,1.115-.273-.381-.659-.615-1.412-.615-2.227s.234-1.568.614-2.227c-.337-.169-.711-.273-1.114-.273-1.381,0-2.5,1.119-2.5,2.5s1.119,2.5,2.5,2.5Zm14.521,8.505l-.387.27c-.031.022-3.262,2.226-9.135,2.226s-9.104-2.203-9.128-2.221l-.392-.279H0v10.5h3v-6.768c1.79.795,4.831,1.768,9,1.768s7.21-.973,9-1.768v6.768h3v-10.5l-2.479.005Z"/>
</svg>
