<?xml version="1.0" encoding="UTF-8"?>
<svg xmlns="http://www.w3.org/2000/svg" id="Layer_1" data-name="Layer 1" viewBox="0 0 24 24" width="512" height="512"><path d="m10,19h3v3h-3v-3Zm7.615-12.829c-1.3-3.087-4.274-5.171-7.524-5.171C5.554,1,2,4.514,2,9c0,.575.081,1.511.213,2.37-1.387,1.128-2.213,2.819-2.213,4.63,0,3.309,2.691,6,6,6h2v-3h-2c-1.654,0-3-1.346-3-3,0-1.088.607-2.093,1.585-2.622l1.017-.55-.273-1.124c-.182-.75-.329-2.093-.329-2.704,0-2.851,2.188-5,5.091-5,2.167,0,4.223,1.595,4.935,3.81l.129,1.116,1.233.095c2.586.199,4.612,2.387,4.612,4.979,0,2.757-2.243,5-5,5h-1v3h1c4.411,0,8-3.589,8-8,0-3.812-2.733-7.074-6.385-7.829Zm-2.249,5.79c-.352-1.365-1.46-2.475-2.825-2.827-1.23-.319-2.502-.062-3.49.703-.986.764-1.552,1.917-1.552,3.163h3c0-.312.142-.601.389-.792.146-.112.453-.285.902-.17.314.081.589.357.671.672.151.585-.164,1.023-.543,1.198-1.166.54-1.919,1.765-1.919,3.12h3c0-.197.091-.356.179-.397,1.756-.812,2.676-2.777,2.188-4.67Z"/></svg>
