<?xml version="1.0" encoding="UTF-8"?>
<svg xmlns="http://www.w3.org/2000/svg" id="Layer_1" data-name="Layer 1" viewBox="0 0 24 24">
  <path d="m14.295,14.923c-2.328-1.098-4.042-2.819-5.207-5.229l2.964-2.963L5.41.09,1.766,3.734c-1.139,1.137-1.766,2.672-1.766,4.323,0,7.151,8.791,15.942,15.942,15.942,1.651,0,3.187-.627,4.322-1.765l3.645-3.646-6.641-6.642-2.974,2.975Zm3.848,5.192c-.57.57-1.351.885-2.2.885-4.993,0-12.942-7.066-12.942-12.942,0-.849.314-1.63.886-2.201l1.524-1.524,2.399,2.399-2.268,2.268.369.919c1.59,3.961,4.348,6.713,8.196,8.182l.908.347,2.254-2.256,2.399,2.399-1.525,1.525ZM24,0v3h-3V0h3Zm-4,3h-3V0h3v3Zm-4,0h-3V0h3v3Zm-4,0h-3V0h3v3Zm9,1h3v3h-3v-3Zm-1,3h-7v-3h7v3Z"/>
</svg>
