<svg id="Layer_1" viewBox="0 0 24 24" xmlns="http://www.w3.org/2000/svg" data-name="Layer 1"><path d="m17.5 11c-3.59 0-6.5 2.91-6.5 6.5s2.91 6.5 6.5 6.5 6.5-2.91 6.5-6.5-2.91-6.5-6.5-6.5zm1.5 6v4h-3v-4h-3l3.793-3.707c.391-.39 1.024-.39 1.414 0l3.793 3.707zm-10.657 1-3.342-8.774c0-.08.004-.149.005-.226.326 0 .754-.01 1.07.051-.045.143-.076.292-.076.449 0 .828.672 1.5 1.5 1.5.456 0 .86-.208 1.135-.529.843.89 1.367 2.037 1.37 3.021 1.432-2.673 4.251-4.492 7.495-4.492.87 0 1.709.132 2.5.375 0-.992-.029-2.297-.602-3.506 1.493-.399 2.602-1.751 2.602-3.369v-2.5h-3v2.5c0 .275-.224.5-.5.5h-15c-.276 0-.5-.225-.5-.5v-2.5h-3v2.5c0 1.618 1.109 2.97 2.604 3.369-.647 1.397-.598 2.739-.604 3.907l4.038 10.6c.176.924.986 1.624 1.962 1.624h2.298c-.734-1.172-1.175-2.538-1.262-4zm2.157-9.647c-.981-1.181-2.374-2.001-3.954-2.258.074-.032.154-.064.235-.094h8.437c.01.004.021.009.032.013-1.907.073-3.607.964-4.75 2.34z"/></svg>