<?xml version="1.0" encoding="UTF-8"?>
<svg xmlns="http://www.w3.org/2000/svg" id="Layer_1" data-name="Layer 1" viewBox="0 0 24 24">
  <path d="M24,11.982h0c.001,2-.485,3.926-1.403,5.644l-1.917-3.286c.205-.76,.32-1.549,.319-2.356-.003-4.967-4.045-9.007-9.012-9.008-4.748,.003-8.695,3.712-8.991,8.445l.003,9.579h6.434s-1.75,3-1.75,3H0V11.328C.396,4.925,5.658-.02,11.981-.024c6.627,0,12.015,5.386,12.019,12.005h0Zm-7-3.981H7v3h10v-3Zm0,4l7,12H10l7-12Zm1,9h-2v2h2v-2Zm0-5h-2v4h2v-4Zm-5.625,0l1.822-3H7v3h5.375Z"/>
</svg>
