<?xml version="1.0" encoding="UTF-8"?>
<svg xmlns="http://www.w3.org/2000/svg" id="Layer_1" data-name="Layer 1" viewBox="0 0 24 24">
  <path d="m22.5,8.5c-1.989,0-3.866.487-5.519,1.347-.409-2.975-1.773-5.76-3.92-7.908l-1.061-1.061-1.061,1.061c-2.147,2.147-3.511,4.933-3.92,7.908-1.653-.86-3.53-1.347-5.519-1.347H0v1.5c0,6.109,4.589,11.166,10.5,11.906l1.5.094,1.5-.094c5.911-.74,10.5-5.798,10.5-11.906v-1.5h-1.5Zm-10.5-3.205c1.401,1.905,2.149,4.237,2.11,6.634-.83.812-1.542,1.744-2.11,2.767-.568-1.023-1.28-1.954-2.11-2.767-.04-2.398.709-4.729,2.11-6.634ZM3.152,11.652c3.641.678,6.518,3.555,7.196,7.196-3.641-.678-6.518-3.555-7.196-7.196Zm10.5,7.196c.678-3.641,3.555-6.518,7.196-7.196-.678,3.641-3.555,6.518-7.196,7.196Z"/>
</svg>
