<?xml version="1.0" encoding="UTF-8"?>
<svg xmlns="http://www.w3.org/2000/svg" id="Layer_1" data-name="Layer 1" viewBox="0 0 24 24">
  <path d="m18.5,0h-10C2.233,0,0,3.616,0,7c0,4.414,3.215,6.306,5.798,7.825.328.193.653.385.969.579.328.202.666.4,1,.593l-3.84.002c-2.166.002-3.928,1.763-3.928,3.988,0,1.073.416,2.081,1.17,2.838s1.759,1.174,2.828,1.174h.003l5.999-.002c5.905,0,8-3.77,8-6.997,0-4.113-3.757-6.405-6.5-8.079l-.534-.327c-.336-.207-.686-.405-1.033-.598,1.272-.007,2.481-.01,3.675-.008.92,1.818,2.794,3.012,4.892,3.012h2c1.93,0,3.5-1.57,3.5-3.5v-2c0-3.032-2.467-5.5-5.5-5.5Zm-10.5,3.016v2.017c-.306.013-.632.027-.938.041-.851.04-1.605.577-1.922,1.369-.32.8-.149,1.683.444,2.304.034.036.08.068.116.104l-1.236,1.412c-.932-.869-1.464-1.846-1.464-3.263,0-1.754.892-3.826,5-3.984ZM3.999,20.999h0c-.266,0-.516-.104-.704-.292-.19-.19-.294-.446-.294-.782,0-.51.417-.926.93-.926l4.07-.002v2H3.999Zm7.001-.056v-1.92c.021,0,.046,0,.066-.002.762-.044,1.432-.504,1.749-1.198.314-.69.223-1.49-.239-2.089-.051-.066-.125-.126-.183-.19l1.232-1.408c.822.831,1.375,1.767,1.375,2.866,0,1.369-.555,3.583-4,3.942Zm-1.062-9.459c.432.264.875.534,1.31.814l-1.306,1.492c-.113-.065-.219-.128-.336-.195-.418-.24-.849-.487-1.264-.743-.333-.205-.677-.407-1.023-.61-.138-.081-.26-.157-.393-.236l1.319-1.508c.382.21.773.422,1.145.652l.546.334Zm11.062-3.982c0,.275-.224.5-.5.5h-2c-1.135,0-2.125-.774-2.409-1.883l-.289-1.127h-1.163c-1.183-.002-2.388-.001-3.639.002v-1.992h7.5c1.378,0,2.5,1.12,2.5,2.499v2Z"/>
</svg>
