<?xml version="1.0" encoding="UTF-8"?>
<svg xmlns="http://www.w3.org/2000/svg" id="Layer_1" data-name="Layer 1" viewBox="0 0 24 24">
  <path d="m21.259,15.078c-.139-.104-.379-.105-.517,0-1.585,1.207-3.899,1.207-5.483,0-.139-.104-.379-.105-.517,0-1.585,1.207-3.899,1.207-5.483,0-.139-.104-.379-.105-.517,0-1.585,1.207-3.899,1.207-5.483,0-.139-.104-.379-.105-.517,0C1.949,15.682,1.001,16,0,16v-3c.339,0,.659-.106.925-.309,1.202-.916,2.948-.916,4.151,0,.53.404,1.318.404,1.849,0,1.202-.916,2.948-.916,4.151,0,.53.404,1.318.404,1.849,0,1.202-.916,2.948-.916,4.151,0,.53.404,1.318.404,1.849,0,1.202-.916,2.948-.916,4.151,0,.265.202.585.309.924.309v3c-1.001,0-1.949-.318-2.741-.922ZM1.5,18C.672,18,0,18.672,0,19.5s.672,1.5,1.5,1.5,1.5-.672,1.5-1.5-.672-1.5-1.5-1.5Zm5,3c-.828,0-1.5.672-1.5,1.5s.672,1.5,1.5,1.5,1.5-.672,1.5-1.5-.672-1.5-1.5-1.5Zm11,0c-.828,0-1.5.672-1.5,1.5s.672,1.5,1.5,1.5,1.5-.672,1.5-1.5-.672-1.5-1.5-1.5Zm-5.5-3c-.828,0-1.5.672-1.5,1.5s.672,1.5,1.5,1.5,1.5-.672,1.5-1.5-.672-1.5-1.5-1.5Zm10.5,0c-.828,0-1.5.672-1.5,1.5s.672,1.5,1.5,1.5,1.5-.672,1.5-1.5-.672-1.5-1.5-1.5Zm-13.5-10c0,1.657,1.343,3,3,3s3-1.343,3-3-1.343-3-3-3-3,1.343-3,3Zm-1.438-2.307c.866-1.661,2.566-2.693,4.438-2.693s3.571,1.032,4.448,2.714c1.372,2.644,4.063,4.286,7.025,4.286h.527v-3h-.527c-1.837,0-3.508-1.022-4.375-2.693C17.713,1.65,14.993,0,12,0s-5.713,1.65-7.111,4.333c-.854,1.646-2.525,2.667-4.362,2.667H0v3h.527c2.961,0,5.653-1.642,7.036-4.307Z"/>
</svg>
