<?xml version="1.0" encoding="UTF-8"?>
<svg xmlns="http://www.w3.org/2000/svg" id="Layer_1" data-name="Layer 1" viewBox="0 0 24 24">
  <path d="M2,12c0-1.624,.827-3.091,2.127-3.951-.084-.427-.127-.861-.127-1.299C4,3.028,7.028,0,10.75,0c2.779,0,5.215,1.681,6.236,4.195,2.882,.678,5.014,3.271,5.014,6.305,0,3.194-2.318,5.852-5.359,6.393l1.815-4.539c.34-.539,.544-1.172,.544-1.855,0-1.818-1.432-3.342-3.259-3.469l-1.1-.077-.255-1.072c-.405-1.697-1.9-2.882-3.636-2.882-2.068,0-3.75,1.682-3.75,3.75,0,.515,.108,1.022,.322,1.506l.714,1.621-1.716,.438c-.777,.198-1.32,.891-1.32,1.685,0,.5,.214,.949,.552,1.269l-1.137,2.842c-1.435-.818-2.415-2.345-2.415-4.111Zm20.592,8h-3.184c-.207,.581-.757,1-1.408,1s-1.201-.419-1.408-1h-3.184c-.207,.581-.757,1-1.408,1s-1.201-.419-1.408-1h-3.184c-.207,.581-.757,1-1.408,1s-1.201-.419-1.408-1H1.408c-.207,.581-.757,1-1.408,1v3c1.157,0,2.202-.451,3-1.17,.798,.72,1.843,1.17,3,1.17s2.202-.451,3-1.17c.798,.72,1.843,1.17,3,1.17s2.202-.451,3-1.17c.798,.72,1.843,1.17,3,1.17s2.202-.451,3-1.17c.798,.72,1.843,1.17,3,1.17v-3c-.651,0-1.201-.419-1.408-1Zm-11.323-3.14l2.785,1.113,2-5-2.785-1.114-2,5.001Zm-5,0l2.785,1.113,2-5-2.785-1.114-2,5.001Z"/>
</svg>
