<?xml version="1.0" encoding="UTF-8"?>
<svg xmlns="http://www.w3.org/2000/svg" id="Layer_1" data-name="Layer 1" viewBox="0 0 24 24">
  <path d="m13.5,6v5.055l3.671,2.299-1.593,2.543-5.079-3.182v-6.715h3Zm5.675,11.433l2.39,1.813c.629-.829,1.147-1.736,1.542-2.696l-2.775-1.139c-.295.72-.684,1.4-1.156,2.021Zm-7.175,3.567c-.382,0-.765-.033-1.142-.081-4.424-.564-7.858-4.344-7.858-8.919C3,7.037,7.037,3,12,3c2.437,0,4.696.98,6.356,2.644l-2.356,2.356h5.909c.602,0,1.091-.488,1.091-1.091V1l-2.515,2.515C18.272,1.296,15.25,0,12,0,5.383,0,0,5.383,0,12c0,6.036,4.75,12,12,12,.572,0,1.147-.041,1.709-.121l-.424-2.97c-.422.06-.854.091-1.285.091Zm11.9-10.555l-2.976.384c.05.385.075.78.076,1.172,0,.388-.025.78-.074,1.161l2.976.384c.065-.509.099-1.029.099-1.546,0-.521-.034-1.044-.1-1.555Zm-8.366,9.834l1.18,2.759c.954-.408,1.853-.94,2.673-1.582l-1.849-2.362c-.615.481-1.289.879-2.004,1.185Z"/>
</svg>
