<?xml version="1.0" encoding="UTF-8"?>
<svg xmlns="http://www.w3.org/2000/svg" id="Layer_1" data-name="Layer 1" viewBox="0 0 24 24">
  <path d="M3,2.5c0-1.381,1.119-2.5,2.5-2.5s2.5,1.119,2.5,2.5-1.119,2.5-2.5,2.5-2.5-1.119-2.5-2.5Zm15.5,2.5c1.381,0,2.5-1.119,2.5-2.5s-1.119-2.5-2.5-2.5-2.5,1.119-2.5,2.5,1.119,2.5,2.5,2.5Zm-2.5,3.2c0-1.215-.895-2.2-2-2.2s-2,.985-2,2.2c0-1.215-.895-2.2-2-2.2s-2,.985-2,2.2c0,2.304,4,5.133,4,5.133,0,0,4-2.829,4-5.133Zm4.5-2.2h-3.108c.379,.642,.608,1.391,.608,2.2,0,.269-.037,.535-.089,.8h2.589c.275,0,.5,.225,.5,.5v5.5h-5v-2.553c-1.068,1.202-2.433,2.227-3,2.629v2.924h2v6h3v-6h1v6h3v-6h2V9.5c0-1.93-1.57-3.5-3.5-3.5Zm-12.5,6.447v2.553H3v-5.5c0-.275,.225-.5,.5-.5h2.589c-.052-.264-.089-.531-.089-.8,0-.809,.229-1.558,.608-2.2H3.5c-1.93,0-3.5,1.57-3.5,3.5v8.5H2v6h3v-6h1v6h3v-6h2v-2.924c-.567-.401-1.932-1.427-3-2.629Z"/>
</svg>
