<?xml version="1.0" encoding="UTF-8"?>
<svg xmlns="http://www.w3.org/2000/svg" id="Layer_1" data-name="Layer 1" viewBox="0 0 24 24">
  <path d="m24,6v1h-6v-1c0-1.105.895-2,2-2h2c1.105,0,2,.895,2,2Zm-3-3c.828,0,1.5-.672,1.5-1.5s-.672-1.5-1.5-1.5-1.5.672-1.5,1.5.672,1.5,1.5,1.5Zm1,9.5h-2c-1.105,0-2,.895-2,2v1h6v-1c0-1.105-.895-2-2-2Zm.5-2.5c0-.828-.672-1.5-1.5-1.5s-1.5.672-1.5,1.5.672,1.5,1.5,1.5,1.5-.672,1.5-1.5Zm-.5,11h-2c-1.105,0-2,.895-2,2v1h6v-1c0-1.105-.895-2-2-2Zm.5-2.5c0-.828-.672-1.5-1.5-1.5s-1.5.672-1.5,1.5.672,1.5,1.5,1.5,1.5-.672,1.5-1.5Zm-6.5-6.5c0,1.155-.878,2.099-2,2.225v4.775h-3c0-.748,0-2-3-2h-1.495l1.307,2.941c.3.676.239,1.45-.164,2.069-.403.62-1.085.99-1.824.99h-1.106l-2.856-6.426c-1.102-.59-1.862-1.739-1.862-3.074v-3c0-1.93,1.57-3.5,3.5-3.5h4.5c3,0,3-1.252,3-2h3v4.775c1.122.126,2,1.07,2,2.225Zm-5,2.49v-4.98c-.784.301-1.76.49-3,.49H3.5c-.276,0-.5.225-.5.5v3c0,.275.224.5.5.5h4.5c1.24,0,2.216.189,3,.49Z"/>
</svg>
