<?xml version="1.0" encoding="UTF-8"?>
<svg xmlns="http://www.w3.org/2000/svg" id="Layer_1" data-name="Layer 1" viewBox="0 0 24 24">
  <path d="M.006,6.5h-.006C0,2.916,2.916,0,6.5,0h4c3.584,0,6.5,2.916,6.5,6.5v1.5h-3v-1.5c0-1.93-1.57-3.5-3.5-3.5H6.5c-1.93,0-3.5,1.57-3.5,3.5h-.003c.012,1.668,1.183,3.083,2.765,3.413,.42,.952,1.019,1.829,1.782,2.587h.001c.165,.165,.281,.352,.456,.5h-1.572c-1.796,0-3.368-.756-4.548-1.929C.73,9.928,.039,8.46,.006,6.5ZM16.457,.5c.762,.758,1.362,1.635,1.782,2.587,1.582,.33,2.752,1.744,2.765,3.413h-.003c0,1.93-1.57,3.5-3.5,3.5h-4c-1.93,0-3.5-1.57-3.5-3.5v-1.5h-3v1.5c0,3.584,2.916,6.5,6.5,6.5h4c3.584,0,6.5-2.916,6.5-6.5h-.006c-.033-1.96-.724-3.428-1.874-4.571-1.179-1.173-2.752-1.929-4.548-1.929h-1.572c.175,.148,.291,.335,.456,.499h.001Zm3.543,14.501v3H0v3H20v3l3.707-3.793c.39-.39,.39-1.024,0-1.414l-3.707-3.793Z"/>
</svg>
