<svg id="Layer_1" viewBox="0 0 24 24" xmlns="http://www.w3.org/2000/svg" data-name="Layer 1"><path d="m17.854 10h6.146v3h-6.854l-1.81-.905c-.324-.162-.712-.098-.967.157l-.714.714 4.526 4.034h5.819v3h-5.359l-5.125 4h-3.031l-5.125-4h-5.36v-3h6.391l5.125 4h.969l3.026-2.362-3.44-3.066-.791.85c-.809.851-2.263.735-2.925-.219-.55-.762-.458-1.807.218-2.483l1.201-1.325-.143-.143c-.255-.254-.644-.318-.967-.157l-1.81.905h-6.854v-3h6.146l1.177-.588c1.479-.739 3.258-.451 4.43.719l.248.249.248-.248c1.17-1.171 2.949-1.458 4.43-.719l1.177.588zm-2.354-3c0-1.105-.895-2-2-2h-3c-1.105 0-2 .895-2 2v1h7zm-3.5-3c1.105 0 2-.895 2-2s-.895-2-2-2-2 .895-2 2 .895 2 2 2zm-9.05 3.772c.304.304.796.304 1.1 0l2.95-2.772h-2v-1.5c0-.276.225-.5.5-.5h2.5v-3h-2.5c-1.93 0-3.5 1.57-3.5 3.5v1.5h-2zm16.05-4.272v1.5h-2l2.95 2.772c.304.304.796.304 1.1 0l2.95-2.772h-2v-1.5c0-1.93-1.57-3.5-3.5-3.5h-2.5v3h2.5c.275 0 .5.224.5.5z"/></svg>