<?xml version="1.0" encoding="UTF-8"?>
<svg xmlns="http://www.w3.org/2000/svg" id="Layer_1" data-name="Layer 1" viewBox="0 0 24 24">
  <path d="m23.907,21.786l-2.742-2.742c.527-.893.836-1.931.836-3.043,0-3.314-2.686-6-6-6s-6,2.686-6,6,2.686,6,6,6c1.112,0,2.15-.308,3.043-.836l2.742,2.742,2.121-2.121Zm-7.158-3.342c-.744.744-2.058.746-2.823-.019l-2.182-2.268,1.387-1.441,2.216,2.301,3.614-3.703,1.398,1.43-3.607,3.696-.004.004Zm-.828,5.556L0,23.993v-1.5s0-19.5,0-19.5C0,1.339,1.346-.007,3-.007h11.381l5.619,5.665v3.413c-.903-.523-1.918-.936-3-1.071v-.007h-5V2.993H3v18.001l6.753.003c1.451,1.811,3.673,2.978,6.168,3.002Zm-7.859-8.999c-.041.328-.062.661-.062,1,0,.691.088,1.361.252,2h-3.252v-3h3.062Zm.52-2h-3.582v-3h5.709c-.924.815-1.657,1.84-2.127,3Z"/>
</svg>
