<svg id="Layer_1" viewBox="0 0 24 24" xmlns="http://www.w3.org/2000/svg" data-name="Layer 1"><path d="m22 15c.732 0 1.409-.212 2-.556v4.556h-10.5v2h4.5v3h-12v-3h4.5v-2h-10.5v-16c0-1.654 1.346-3 3-3h11.761c-.704.851-1.138 1.891-1.239 3h-10.522v13h18v-1zm2-10v6c0 1.105-.895 2-2 2h-6c-1.105 0-2-.895-2-2v-6h1.5v-1.5c0-2.17 1.985-3.885 4.235-3.425 1.636.335 2.765 1.854 2.765 3.525v1.4zm-4 3h-2v2h2zm0-4.5c0-.551-.449-1-1-1s-1 .449-1 1v1.5h2zm-11.5 5.5c1.105 0 2-.895 2-2s-.895-2-2-2-2 .895-2 2 .895 2 2 2zm-3.5 2.986v1l7 .014v-1c0-1.105-.895-2-2-2l-3-.014c-1.105 0-2 .895-2 2z"/></svg>