<?xml version="1.0" encoding="UTF-8"?>
<svg xmlns="http://www.w3.org/2000/svg" id="Layer_1" data-name="Layer 1" viewBox="0 0 24 24">
  <path d="m20.825,18.704c2.057-3.84,1.392-8.636-1.766-11.793L12,.006l-4.991,4.882L2.161.039.04,2.16l21.8,21.801,2.121-2.121-3.136-3.136ZM12,4.203l4.95,4.841c1.977,1.976,2.554,4.881,1.613,7.398L9.131,7.009l2.869-2.806Zm3.248,15.995l2.191,2.191c-1.604,1.044-3.478,1.605-5.438,1.605-2.672,0-5.184-1.04-7.072-2.929-1.889-1.889-2.929-4.399-2.929-7.07,0-1.961.561-3.834,1.605-5.439l2.19,2.19c-.518.988-.795,2.098-.795,3.25,0,1.869.728,3.627,2.05,4.949,1.322,1.322,3.08,2.05,4.95,2.05,1.15,0,2.258-.276,3.248-.795Z"/>
</svg>
