<?xml version="1.0" encoding="UTF-8"?>
<svg xmlns="http://www.w3.org/2000/svg" id="Layer_1" data-name="Layer 1" viewBox="0 0 24 24">
  <path d="m24,8.5c0,3.453-2.074,6.427-5.038,7.755.018-.25.038-.5.038-.755,0-.871-.118-1.712-.319-2.522,1.401-.998,2.319-2.632,2.319-4.478,0-3.032-2.468-5.5-5.5-5.5-1.847,0-3.48.918-4.478,2.319-.809-.201-1.651-.319-2.522-.319-.255,0-.505.02-.755.038C9.073,2.074,12.046,0,15.5,0c4.687,0,8.5,3.813,8.5,8.5Zm-8.529,2.15c.961,1.377,1.529,3.047,1.529,4.85,0,4.687-3.813,8.5-8.5,8.5S0,20.187,0,15.5,3.813,7,8.5,7c1.803,0,3.473.568,4.85,1.529l1.84-1.84-1.689-1.689h4.583c.506,0,.917.41.917.917v4.583l-1.689-1.689-1.84,1.84Zm-1.471,4.85c0-3.032-2.467-5.5-5.5-5.5s-5.5,2.468-5.5,5.5,2.467,5.5,5.5,5.5,5.5-2.468,5.5-5.5Z"/>
</svg>
