<svg id="Layer_1" viewBox="0 0 24 24" xmlns="http://www.w3.org/2000/svg" data-name="Layer 1"><path d="m18 12.5c0 .828-.672 1.5-1.5 1.5s-1.5-.672-1.5-1.5.672-1.5 1.5-1.5 1.5.672 1.5 1.5zm6-7.799v19.299h-18v-3.162l3-3.07v3.232h2v-16h-1.5c-.275 0-.5.224-.5.5v5.731l-3-3.069v-2.662c0-1.93 1.57-3.5 3.5-3.5h1.837c.218-.46.538-.873.944-1.206.814-.667 1.879-.931 2.905-.725l6 1.2c1.63.325 2.813 1.769 2.813 3.432zm-3 0c0-.237-.169-.443-.401-.49l-6-1.201c-.201-.037-.347.048-.416.104-.068.056-.183.181-.183.386v17.5h7zm-12.293 10.506c.391-.39.391-1.024 0-1.414l-3.707-3.793v3h-5v3h5v3z"/></svg>