<?xml version="1.0" encoding="UTF-8"?>
<svg xmlns="http://www.w3.org/2000/svg" id="Layer_1" data-name="Layer 1" viewBox="0 0 24 24">
  <path d="m22.145,2.455c-1.294-1.12-3.409-2.455-6.145-2.455h-8C5.265,0,3.149,1.335,1.856,2.455.677,3.476,0,4.978,0,6.576v14.424h5v3h14v-3h5V6.576c0-1.598-.677-3.1-1.855-4.121Zm-7.787.545l-2.357,5.5-2.357-5.5h4.714Zm6.643,15h-2v-10h-3v7h-3v3h3v3h-8v-3h3v-3h-3v-7h-3v10h-2V6.576c0-.727.299-1.402.82-1.854.894-.775,2.329-1.692,4.105-1.717l-1.425,1.995,5.5,5.5,5.5-5.5-1.425-1.995c1.776.026,3.211.943,4.106,1.717.521.451.819,1.127.819,1.854v11.424Z"/>
</svg>
