<?xml version="1.0" encoding="UTF-8"?>
<svg xmlns="http://www.w3.org/2000/svg" id="Layer_1" data-name="Layer 1" viewBox="0 0 24 24">
  <path d="m8.142,19c.057.218.124.432.215.634-.84.537-1.458,1.377-1.715,2.366h-1.642c-1.657,0-3-1.343-3-3v-3H0v-1c0-1.105.895-2,2-2h3c1.105,0,2,.895,2,2v1h-2v3h3.142Zm5.358-14h-3c-1.105,0-2,.895-2,2v1h7v-1c0-1.105-.895-2-2-2Zm-1.5-1c1.105,0,2-.895,2-2s-.895-2-2-2-2,.895-2,2,.895,2,2,2Zm10,9h-3c-1.105,0-2,.895-2,2v1h2v3h-3.142c-.057.218-.124.432-.215.634.84.537,1.458,1.377,1.715,2.366h1.642c1.657,0,3-1.343,3-3v-3h2v-1c0-1.105-.895-2-2-2Zm-1.5-5c-1.105,0-2,.895-2,2s.895,2,2,2,2-.895,2-2-.895-2-2-2ZM3.5,12c1.105,0,2-.895,2-2s-.895-2-2-2-2,.895-2,2,.895,2,2,2Zm13.444-7h2.056v1.297c.464-.188.969-.297,1.5-.297s1.036.109,1.5.297v-1.297c0-1.657-1.343-3-3-3h-3c0,.583-.132,1.134-.357,1.634.538.344.979.814,1.301,1.366ZM5,2c-1.657,0-3,1.343-3,3v1.297c.464-.188.969-.297,1.5-.297s1.036.109,1.5.297v-1.297h2.056c.322-.552.763-1.023,1.301-1.366-.225-.5-.357-1.051-.357-1.634h-3Zm8.5,19h-3c-1.105,0-2,.895-2,2v1h7v-1c0-1.105-.895-2-2-2Zm-1.5-1c1.105,0,2-.895,2-2s-.895-2-2-2-2,.895-2,2,.895,2,2,2Z"/>
</svg>
