<svg id="Layer_1" viewBox="0 0 24 24" xmlns="http://www.w3.org/2000/svg" data-name="Layer 1"><path d="m12 .444s1.333 1.486 1.333 2.222-.597 1.333-1.333 1.333-1.333-.597-1.333-1.333c0 .736-.597 1.333-1.333 1.333s-1.333-.597-1.333-1.333 1.332-2.222 1.332-2.222 1.333 1.486 1.333 2.222c0-.736 1.333-2.222 1.333-2.222zm1.333 2.222c0 .736.597 1.333 1.333 1.333s1.333-.597 1.333-1.333-1.332-2.222-1.332-2.222-1.333 1.486-1.333 2.222zm2.667 0c0 .736.597 1.333 1.333 1.333s1.333-.597 1.333-1.333-1.333-2.222-1.333-2.222-1.333 1.486-1.333 2.222zm2.667 0c0 .736.597 1.333 1.333 1.333s1.333-.597 1.333-1.333-1.333-2.222-1.333-2.222-1.333 1.486-1.333 2.222zm-18.667.001c0 .736.597 1.333 1.333 1.333s1.333-.597 1.333-1.333-1.333-2.223-1.333-2.223-1.333 1.486-1.333 2.223zm5.333 0c0 .736.597 1.333 1.333 1.333s1.333-.597 1.333-1.333-1.332-2.223-1.332-2.223-1.333 1.486-1.333 2.222zm-2.667 0c0 .736.597 1.333 1.333 1.333s1.333-.597 1.333-1.333-1.332-2.223-1.332-2.223-1.333 1.486-1.333 2.222zm20.001-2.223s-1.333 1.486-1.333 2.222.597 1.333 1.333 1.333 1.333-.597 1.333-1.333-1.333-2.222-1.333-2.222zm-.71 6.517c0 5.216-4.038 9.5-9.15 9.91v-1.208c4.513-.406 8.062-4.205 8.062-8.822v-.832h-1.6v.832c0 3.734-2.834 6.816-6.463 7.216v-1.104c3.027-.394 5.375-2.984 5.375-6.117v-.827h-1.6v.827c0 2.249-1.634 4.114-3.775 4.494v-1.132c1.537-.364 2.688-1.739 2.688-3.386v-.803h-1.6v.803c0 .754-.447 1.401-1.088 1.703v-2.507h-1.6v2.507c-.64-.302-1.088-.949-1.088-1.703v-.803h-1.6v.803c0 1.647 1.151 3.022 2.688 3.386v1.132c-2.141-.381-3.775-2.246-3.775-4.494v-.827h-1.6v.827c0 3.133 2.348 5.723 5.375 6.117v1.104c-3.629-.4-6.463-3.482-6.463-7.216v-.832h-1.6v.832c0 4.617 3.55 8.416 8.062 8.822v1.208c-5.113-.41-9.15-4.693-9.15-9.91v-.952h-1.598l.043 1.491c0 6.9 4.346 11.25 10 11.904v1.596h-4.5v3h12v-3h-4.5v-1.596c5.654-.654 10-5.004 10-11.904l.056-1.491h-1.6v.952z"/></svg>