<?xml version="1.0" encoding="UTF-8"?>
<svg xmlns="http://www.w3.org/2000/svg" id="Layer_1" data-name="Layer 1" viewBox="0 0 24 24" width="512" height="512"><path d="m24,10.5v3H0v-3h3.889c-1.174-1.126-1.889-2.707-1.889-4.404C2,2.734,4.734,0,8.095,0h7.81c3.361,0,6.095,2.734,6.095,6.096v.904h-3v-.904c0-1.707-1.389-3.096-3.095-3.096h-7.81c-1.707,0-3.095,1.389-3.095,3.096,0,1.372.921,2.595,2.24,2.975l4.879,1.43h11.881Zm-5.677,5.5c.422.532.677,1.194.677,1.904,0,1.707-1.389,3.096-3.095,3.096h-7.81c-1.707,0-3.095-1.389-3.095-3.096v-.904h-3v.904c0,3.361,2.734,6.096,6.095,6.096h7.81c3.361,0,6.095-2.734,6.095-6.096,0-.661-.121-1.299-.324-1.904h-3.352Z"/></svg>
