<?xml version="1.0" encoding="UTF-8"?>
<svg xmlns="http://www.w3.org/2000/svg" id="Layer_1" data-name="Layer 1" viewBox="0 0 24 24" width="512" height="512"><path d="m20.5,0H3.5C1.57,0,0,1.57,0,3.5v20.5h24V3.5c0-1.93-1.57-3.5-3.5-3.5Zm.5,21H3V3.5c0-.276.224-.5.5-.5h17c.276,0,.5.224.5.5v17.5Zm-2.992-10l-.011,2.057c.068,1.776-.748,3.499-2.239,4.66-1.081.841-2.41,1.283-3.76,1.283-.583,0-1.168-.083-1.74-.25-2.506-.735-4.257-3.122-4.257-5.803v-1.819c0-1.655.688-3.271,1.889-4.433,1.18-1.141,2.716-1.739,4.322-1.688,1.935.063,3.736,1.055,4.819,2.652l-2.484,1.683c-.545-.805-1.455-1.305-2.433-1.337-.789-.033-1.548.274-2.138.846-.62.6-.975,1.43-.975,2.277v1.819c0,1.359.864,2.562,2.102,2.924.988.292,2.015.1,2.813-.522.465-.361.794-.83.96-1.349h-2.875v-3h6.008Z"/></svg>
