<svg id="Layer_1" viewBox="0 0 24 24" xmlns="http://www.w3.org/2000/svg" data-name="Layer 1"><path d="m6.5 11c-.828 0-1.5-.672-1.5-1.5s.672-1.5 1.5-1.5 1.5.672 1.5 1.5-.672 1.5-1.5 1.5zm1.64 6 5.833-9h-3.474l-5.833 9zm15.86.5c0 3.59-2.91 6.5-6.5 6.5s-6.5-2.91-6.5-6.5 2.91-6.5 6.5-6.5 6.5 2.91 6.5 6.5zm-2 .5h-3v-4h-3v4h-3l3.793 3.707c.391.39 1.024.39 1.414 0zm-12.24 3h-6.76v-13.629l7-3.93 7 3.93v1.654c.166-.01.331-.025.5-.025.87 0 1.709.132 2.5.375v-3.76l-10-5.615-10 5.615v15.385c0 1.654 1.346 3 3 3h9.028c-.964-.813-1.741-1.837-2.268-3z"/></svg>