<svg id="Layer_1" viewBox="0 0 24 24" xmlns="http://www.w3.org/2000/svg" data-name="Layer 1"><path d="m24 20.5c0 .828-.672 1.5-1.5 1.5-.679 0-1.246-.454-1.431-1.073l-1.133-.654c-.275.235-.589.42-.936.543v3.184h-2v-3.184c-.347-.124-.661-.309-.936-.543l-1.115.644c-.166.648-.749 1.13-1.448 1.13-.828 0-1.5-.672-1.5-1.5s.672-1.5 1.5-1.5c.183 0 .356.037.518.098l1.037-.599c-.033-.177-.055-.358-.055-.545s.022-.368.055-.545l-2.751-1.588 1-1.732 2.76 1.593c.275-.235.589-.419.936-.543v-1.573c-.305-.275-.5-.668-.5-1.111 0-.828.672-1.5 1.5-1.5s1.5.672 1.5 1.5c0 .443-.195.836-.5 1.111v1.573c.347.124.661.308.936.543l2.76-1.593 1 1.732-2.751 1.588c.033.177.055.359.055.545s-.022.368-.055.545l.985.569c.176-.073.368-.114.57-.114.828 0 1.5.672 1.5 1.5zm-15-7 .004-7.501h3.508c1.988 0 3.647 1.306 4.235 3.098.41-.057.826-.097 1.253-.097.646 0 1.275.071 1.882.2-.617-3.517-3.679-6.201-7.37-6.201h-7.008c-.276 0-.5-.224-.5-.5v-2.499h-3v2.499c0 1.93 1.57 3.5 3.5 3.5h.499l-.003 7.501c0 1.635-2.463 2.426-2.824 2.533-1.776.166-3.176 1.649-3.176 3.469l.004 4.499 3-.003-.004-4.498c0-.173.094-.318.228-.408.173.108.353.217.521.323 1.565.992 3.182 2.006 6.11 2.404-.462-.984-.751-2.062-.828-3.201-.936-.234-1.672-.569-2.372-.957 1.271-.906 2.341-2.266 2.341-4.161z"/></svg>