<svg id="Layer_1" viewBox="0 0 24 24" xmlns="http://www.w3.org/2000/svg" data-name="Layer 1"><path d="m6.5 9c0-1.105.895-2 2-2s2 .895 2 2-.895 2-2 2-2-.895-2-2zm17.5-7v7h-5.872l-2.454 1.69c-.186.119-.387.173-.583.173-.566 0-1.089-.45-1.089-1.088l-.002-7.772c0-1.1.899-2 1.999-2.001l6-.002c1.104 0 2 .895 2 2zm-3 1h-4s0 2.999 0 2.999h3.999v-2.999zm-6.576 13h-11.424v-11h9v-3h-9c-1.654 0-3 1.346-3 3v14h9v2h-4v3h7v-5h.556c.55-.943 1.463-1.644 2.557-1.893-.272-.339-.513-.704-.69-1.107zm-9.424-2h7c0-1.105-.895-2-2-2h-3c-1.105 0-2 .895-2 2zm17 5h-6c-1.105 0-2 .895-2 2v3h10v-3c0-1.105-.895-2-2-2zm0-5c0-1.657-1.343-3-3-3s-3 1.343-3 3 1.343 3 3 3 3-1.343 3-3z"/></svg>