<svg id="Layer_1" viewBox="0 0 24 24" xmlns="http://www.w3.org/2000/svg" data-name="Layer 1"><path d="m20.5 3h-17c-1.93 0-3.5 1.57-3.5 3.5v14.5h24v-14.5c0-1.93-1.57-3.5-3.5-3.5zm.5 15h-18v-11.5c0-.275.224-.5.5-.5h17c.276 0 .5.225.5.5zm-4-7.5c0-1.381-1.119-2.5-2.5-2.5h-2.5v8h1.6v-3h.784l.872 3h1.744l-1.054-3.462c.023-.017.024-.016.042-.029-.019.012-.031.021-.055.035.644-.452 1.067-1.198 1.067-2.044zm-2.5.9h-.9v-1.8h.9c.496 0 .9.404.9.9s-.404.9-.9.9zm-7.5-3.4h4v1.6h-2.4v1.801h2.4v1.6h-2.4v3h-1.6z"/></svg>