<?xml version="1.0" encoding="UTF-8"?>
<svg xmlns="http://www.w3.org/2000/svg" id="Layer_1" data-name="Layer 1" viewBox="0 0 24 24">
  <path d="M22.672,11.563c-.798-.999-1.598-2.263-1.672-2.563V4.018c0-1.663-1.136-3.07-2.761-3.422-1.254-.272-3.354-.596-6.239-.596S7.016,.324,5.761,.596c-1.625,.352-2.761,1.759-2.761,3.422l.007,4.892c-.081,.391-.881,1.655-1.679,2.654l-.328,.411v12.025H23V11.974l-.328-.411ZM13.84,3.05l-1.84,5.06-1.84-5.06c.566-.031,1.179-.05,1.84-.05s1.274,.018,1.84,.05ZM4,13.017c.978-1.277,2-2.884,2-4.017V4.018c0-.238,.163-.439,.396-.49,.204-.044,.442-.09,.696-.135l3.408,9.371v8.236H4v-7.983Zm16,7.983h-6.5V12.764l3.408-9.371c.255,.045,.493,.091,.696,.135,.233,.05,.396,.251,.396,.49v4.982c0,1.133,1.022,2.74,2,4.017v7.983Zm-2.148-7c.634,0,1.148,.565,1.148,1.263,0,1.322-2.295,2.946-2.295,2.946,0,0-2.295-1.624-2.295-2.946,0-.697,.514-1.263,1.148-1.263s1.148,.565,1.148,1.263c0-.697,.514-1.263,1.148-1.263Z"/>
</svg>
