<?xml version="1.0" encoding="UTF-8"?>
<svg xmlns="http://www.w3.org/2000/svg" id="Layer_1" data-name="Layer 1" viewBox="0 0 24 24">
  <path d="m11.5,4c1.381,0,2.5,1.119,2.5,2.5s-1.119,2.5-2.5,2.5-2.5-1.119-2.5-2.5,1.119-2.5,2.5-2.5Zm6.236,10.372l-1.106-2.397h1.388l1.214,2.629,2.724-1.258-2.019-4.371h-5.529c-1.009,0-1.969.436-2.634,1.194l-1.643,2.806h-3.131v3h4.869l.749-1.306,1.059,2.298-3.677,2.604v4.429h3v-2.878l3.393-2.405c1.439-.909,2.014-2.712,1.343-4.345Zm-.738-10.871l.002,3.5,3-.002-.002-3.499c0-1.93-1.57-3.5-3.5-3.5H4.5C2.57,0,1,1.57,1,3.5v20.5h3V3.5c0-.275.224-.5.5-.5h11.998c.276,0,.5.225.5.501Zm2.011,15.499l-.019-.046c-.393.548-.883,1.037-1.478,1.422l-.914.648.402.976h6v-3h-3.991Z"/>
</svg>
