<svg id="Layer_1" viewBox="0 0 24 24" xmlns="http://www.w3.org/2000/svg" data-name="Layer 1"><path d="m18.997 17.775c-.397.291-.819.564-1.272.815l1.353 3.955-2.849.974-1.307-3.821c-.452.111-.924.198-1.416.257v4.045h-3.012v-4.047c-.492-.059-.963-.147-1.415-.259l-1.308 3.825-2.849-.974 1.354-3.959c-.452-.251-.872-.526-1.268-.817l-2.628 3.307-2.358-1.875 2.763-3.477c-1.833-2.111-2.616-4.211-2.631-4.253l2.803-1.1.005.012c.124.324 2.595 6.651 9.038 6.651 6.49 0 8.922-6.339 9.022-6.608l2.823 1.049c-.063.17-.853 2.209-2.627 4.254l2.76 3.473-2.359 1.874-2.623-3.301zm-9.983-4.843c-1.918-1.917-.871-5.412.692-6.976.7-.698 1.999-1.514 3.792-.645l6.319-5.311 2.129 2.129-5.368 6.209c.957 1.85.125 3.19-.587 3.902-.962.963-2.656 1.729-4.263 1.729-1.005 0-1.975-.3-2.713-1.037zm2.129-2.129c.555.441 2.272-.168 2.717-.692.125-.126.148-.194.149-.194-.002-.002-.015-.312-.842-1.139-.811-.811-1.124-.838-1.148-.839 0 .002-.066.028-.184.148-.524.442-1.133 2.166-.692 2.716z"/></svg>