<svg id="Layer_1" viewBox="0 0 24 24" xmlns="http://www.w3.org/2000/svg" data-name="Layer 1"><path d="m15.504 2.999h-7c-.276 0-.5-.224-.5-.5v-2.499h-3v2.499c0 1.93 1.57 3.5 3.5 3.5h.499l-.003 7.501c0 1.635-2.463 2.426-2.824 2.533-1.776.166-3.176 1.649-3.176 3.469l.004 4.499 3-.003-.004-4.498c0-.171.092-.316.224-.406.173.108.352.216.52.323 1.982 1.256 4.032 2.556 8.752 2.582 4.013.109 7.592-3.488 7.504-7.497l.004-4.003c0-4.136-3.364-7.5-7.5-7.5zm0 3c2.366 0 4.29 1.841 4.466 4.162-.438-.095-.919-.162-1.466-.162-1.277 0-2.145.332-2.843.599-.608.233-1.047.401-1.77.401-.781 0-1.439-.206-1.89-.398l.002-4.602zm3.157 11.698c-.851.846-1.97 1.308-3.149 1.302-2.936-.016-4.481-.557-5.866-1.33 1.219-.865 2.247-2.15 2.338-3.919.562.144 1.197.249 1.907.249 1.277 0 2.145-.332 2.843-.599.608-.233 1.047-.401 1.77-.401.68 0 1.175.154 1.497.301v1.2c-.001 1.203-.476 2.339-1.34 3.197zm-16.102-5.641-1.367-4.087 2.296-1.844.895 2.761 1.649-1.218c.39-.288.943-.026.967.458v5.5l-.507.375-1.323-2.88-1.66 1.226c-.334.247-.811.101-.951-.29z"/></svg>