<?xml version="1.0" encoding="UTF-8"?>
<svg xmlns="http://www.w3.org/2000/svg" id="Layer_1" data-name="Layer 1" viewBox="0 0 24 24" width="512" height="512"><path d="m16.501,5c-.81,0-1.54.141-2.206.428-.31-.195-.633-.347-.963-.457-.41-2.253-1.573-3.837-3.525-4.813l-1.342,2.684c.767.384,1.493.946,1.833,2.272-.202.089-.4.193-.593.314-.666-.287-1.396-.428-2.206-.428C4.538,5,0,9.256,0,14.5s4.547,9.5,7.515,9.5c.789,0,1.511-.198,2.01-.38.557.182,1.409.38,2.475.38,1.075,0,1.932-.202,2.489-.385.506.181,1.244.385,1.996.385,2.968,0,7.515-4.256,7.515-9.5s-4.538-9.5-7.499-9.5Zm-.016,16c-.985,0-2.002-.659-2.002-.659,0,0-1.37.659-2.483.659-1.104,0-2.505-.684-2.505-.684,0,0-.495.684-1.979.684-1.091,0-4.515-2.697-4.515-6.5s3.412-6.5,4.499-6.5c.427,0,.933.051,1.446.432l1.026.761.915-.892c.758-.739,1.471-.739,2.229,0l.915.892,1.026-.761c.513-.381,1.019-.432,1.446-.432,1.087,0,4.499,2.697,4.499,6.5s-3.424,6.5-4.515,6.5Zm1.015-7h-4l2-4,2,4Zm-7,0h-4l2-4,2,4Zm8.5,1s-1.593,2.114-4,3.267v-1.267h-2v1.908c-.326.054-.658.092-1,.092-4,0-7-4-7-4,0,0,1.404.561,4,.843v1.157h2v-1.019c.323.011.653.019,1,.019,4.5,0,7-1,7-1Z"/></svg>
