<?xml version="1.0" encoding="UTF-8"?>
<svg xmlns="http://www.w3.org/2000/svg" id="Layer_1" data-name="Layer 1" viewBox="0 0 24 24">
  <path d="m17.401,15l2.573-13.724-2.949-.553-2.677,14.276h-.849V0h-3v15h-.849L6.974.724l-2.949.553,2.573,13.724H0l1.286,3.195c.795,1.326,1.685,2.026,2.638,2.398-.046.071-.092.137-.138.212l-1.286,3.195h3.239l.684-1.757c.645-1.04,1.14-1.226,2.577-1.243h6c1.488.032,1.985.261,2.597,1.244l.682,1.756h3.221l-1.268-3.195c-.049-.081-.101-.14-.15-.216.963-.374,1.859-1.074,2.65-2.393l1.268-3.195h-6.599Z"/>
</svg>
