<svg id="Layer_1" viewBox="0 0 24 24" xmlns="http://www.w3.org/2000/svg" data-name="Layer 1"><path d="m21 21.484v2.5h-3v-2.5c0-1.021-.626-1.91-1.536-2.288l-4.439 4.819-4.471-4.827c-.92.373-1.554 1.267-1.554 2.295v2.5h-3v-2.5c0-2.795 2.104-5.137 4.895-5.446l.752-.083 3.372 3.64 3.354-3.642.759.087c2.775.322 4.868 2.662 4.868 5.444zm-13.325-7.434c-1.232.136-2.363.567-3.334 1.212l1.182-6.53c.086-.568.263-1.1.477-1.61v-7.138h12v7.098c.221.52.388 1.07.477 1.65s0 0 0 0l1.183 6.532c-.961-.64-2.081-1.07-3.299-1.211l-.019.013-.826-4.854c-.064-.442-.223-.85-.425-1.229h-5.904c-.116.317-.186.657-.186 1.016 0 1.654 1.346 3 3 3 .693 0 1.322-.244 1.83-.638l.521 3.144c-.724.311-1.515.495-2.351.495-1.257 0-2.424-.39-3.389-1.054l-.936.104zm2.325-9.066h1v1h2v-1h1v-2h-1v-1h-2v1h-1z"/></svg>