<?xml version="1.0" encoding="UTF-8"?>
<svg xmlns="http://www.w3.org/2000/svg" id="Layer_1" data-name="Layer 1" viewBox="0 0 24 24">
  <path d="M11,4.559l-1.879-1.834L11.781,0h2.219V11h-3V4.559ZM0,6.5v-2C0,2.019,2.019,0,4.5,0s4.5,2.019,4.5,4.5v2c0,2.481-2.019,4.5-4.5,4.5S0,8.981,0,6.5Zm3,0c0,.827,.673,1.5,1.5,1.5s1.5-.673,1.5-1.5v-2c0-.827-.673-1.5-1.5-1.5s-1.5,.673-1.5,1.5v2Zm-.219,6.5L.121,15.724l1.879,1.836v6.44h3V13H2.781Zm19.004,10.907l-2.491-2.491c-.691,.361-1.463,.584-2.295,.584-2.757,0-5-2.243-5-5s2.243-5,5-5,5,2.243,5,5c0,.831-.223,1.604-.584,2.295l2.491,2.491-2.121,2.121Zm-2.786-6.907c0-1.103-.897-2-2-2s-2,.897-2,2,.897,2,2,2,2-.897,2-2Zm-7.76,3.974c-.703-.124-1.24-.736-1.24-1.474v-2.5c0-1.477,.46-2.845,1.24-3.974-2.359,.138-4.24,2.081-4.24,4.474v2c0,2.481,2.019,4.5,4.5,4.5,.893,0,1.722-.269,2.423-.72-1.079-.53-2.004-1.325-2.682-2.306Z"/>
</svg>
