<svg id="Layer_1" viewBox="0 0 24 24" xmlns="http://www.w3.org/2000/svg" data-name="Layer 1"><path d="m20.5 6h-1.802c.282.952.355 1.968.209 3h1.054l-6.321 6.321c-.902.902-2.377.902-3.278 0l-6.321-6.321h9.702c-.266.467-.724.823-1.25.943-.166.038-.331.057-.493.057-.937 0-1.673.859-1.464 1.833.15.699.824 1.177 1.539 1.167.463-.007.93-.077 1.391-.211 1.6-.464 2.886-1.768 3.336-3.372.649-2.308-.337-4.665-2.392-5.797-.57-.314-.911-.819-.911-1.352v-2.268h-3v2.268c0 1.496.771 2.859 2.074 3.732h-2.574l-3-3v3h-3.499c-1.933 0-3.5 1.567-3.5 3.5v14.5h24v-14.5c0-1.933-1.567-3.5-3.5-3.5zm.5 15h-18v-8.797l5.24 5.24c1.98 2.063 5.54 2.063 7.521 0l5.24-5.24v8.797z"/></svg>