<?xml version="1.0" encoding="UTF-8"?>
<svg xmlns="http://www.w3.org/2000/svg" id="Layer_1" data-name="Layer 1" viewBox="0 0 24 24">
  <path d="m18,12c-3.314,0-6,2.686-6,6s2.686,6,6,6,6-2.686,6-6-2.686-6-6-6Zm4,7h-3v3h-2v-3h-3v-2h3v-3h2v3h3v2Zm-11.413,2H4c-.552,0-1-.448-1-1s.448-1,1-1h6.069c-.041-.329-.069-.661-.069-1,0-.692.097-1.36.262-2h-1.262V3h10v7.069c1.083.135,2.096.486,3,1.01V2.5c0-1.378-1.121-2.5-2.5-2.5H4C1.794,0,0,1.794,0,4v16C0,22.207,1.794,24,4,24h8.721c-.926-.816-1.663-1.839-2.134-3ZM4,3h2v13h-2c-.347,0-.678.058-1,.142V4c0-.551.448-1,1-1Z"/>
</svg>
