<svg id="Layer_1" viewBox="0 0 24 24" xmlns="http://www.w3.org/2000/svg" data-name="Layer 1"><path d="m0 21h6v3h-6zm8 3h6v-3h-6zm-4-5h6v-3h-6zm20-3c-2.096-.44-4.026-2.205-5.231-4h2.524c.693.738 1.491 1.32 2.105 1.667l.564-4.667h-15.422l.602 5h3.022l-.241-2h3.506c.895 2.198 2.667 4.111 4.501 5.38l-.436 3.62h-3.494v3h6.154l.626-5.197c.439.125.852.197 1.22.197zm-19.963-2c-.021-.612-.037-1.24-.037-1.897 0-4.097.469-7.235.75-8.746 1.27-.144 3.527-.356 5.763-.356s4.474.212 5.737.355c.147.794.346 2.048.502 3.645h3.018c-.474-4.433-.661-4.62-1.059-6.341-1.666-.212-3.453-.586-8.198-.659-4.754.072-6.549.446-8.223.657-.416 1.896-1.164 3.923-1.29 11.445 0 .656.013 1.286.033 1.897z"/></svg>