<?xml version="1.0" encoding="UTF-8"?>
<svg xmlns="http://www.w3.org/2000/svg" id="Layer_1" data-name="Layer 1" viewBox="0 0 24 24">
  <path d="M11.898-.012C5.282-.012-.102,5.372-.102,11.988s5.383,12,12,12,12-5.383,12-12S18.516-.012,11.898-.012Zm0,3c1.941,0,3.735,.624,5.207,1.672l-1.715,1.715c-1.317-.897-2.87-1.387-4.492-1.387v3c.814,0,1.592,.215,2.297,.582l-4.404,4.404c-.296-.456-.562-.95-.783-1.5l1.775-1.775-2.712-2.712-1.378,1.378c-.54,.539-.795,1.249-.795,1.957,0,1.526,.77,3.176,1.919,4.625l-2.246,2.246c-1.049-1.472-1.672-3.266-1.672-5.207C2.898,7.026,6.936,2.988,11.898,2.988Zm0,18c-1.941,0-3.735-.624-5.207-1.672L19.226,6.782c1.049,1.472,1.672,3.266,1.672,5.207,0,4.963-4.037,9-9,9Zm7-8h-3c0-.014-.004-.026-.004-.04l2.565-2.565c.284,.827,.439,1.702,.439,2.605Zm-4.457,1.371l2.457,2.457-1.378,1.378c-.539,.539-1.249,.795-1.957,.795-.918,0-1.924-.318-2.916-.835l3.794-3.794Z"/>
</svg>
