<svg id="Layer_1" viewBox="0 0 24 24" xmlns="http://www.w3.org/2000/svg" data-name="Layer 1"><path d="m18.5 13h-2.5v11h2.5c3.032 0 5.5-2.468 5.5-5.5s-2.468-5.5-5.5-5.5zm.5 7.95v-4.9c1.14.232 2 1.243 2 2.45s-.86 2.218-2 2.45zm-16-8.95v1.607c-1.778.912-3 2.761-3 4.893 0 3.032 2.468 5.5 5.5 5.5h2.5v-11h-2v-1c0-3.309 2.691-6 6-6 .704 0 1.373.135 2 .36v-3.121c-.644-.15-1.311-.239-2-.239-4.963 0-9 4.037-9 9zm2 8.95c-1.14-.232-2-1.243-2-2.45s.86-2.218 2-2.45zm16-15.45 3 2.5-4 3h-1v-3.243l-1.414 1.329-1.336-1.488 2.251-2.082-2.268-2.083 1.328-1.494 1.438 1.345v-3.284h1l4 3-3 2.5z"/></svg>