<?xml version="1.0" encoding="UTF-8"?>
<svg xmlns="http://www.w3.org/2000/svg" id="Layer_1" data-name="Layer 1" viewBox="0 0 24 24">
  <path d="m21.563,19.165l-1.246-9.224c-.281-2.247-2.201-3.941-4.465-3.941h-7.703c-2.264,0-4.184,1.694-4.463,3.927l-1.248,9.238c-1.412.451-2.437,1.776-2.437,3.335v1.5h24v-1.5c0-1.559-1.025-2.884-2.437-3.335Zm-13.414-10.165h7.703c.755,0,1.395.565,1.491,1.329l1.171,8.671H5.486l1.173-8.686c.094-.75.734-1.314,1.489-1.314Zm-5.358-2.321L.043,4.048,2.119,1.881l2.747,2.631-2.075,2.167Zm3.168-2.483l-.538-3.792L8.391-.018l.538,3.792-2.971.422Zm5.113,10.804h-3.027l.365-2.701c.1-.744.735-1.299,1.486-1.299h2.104v3h-.793l-.135,1Zm10.138-8.321l-2.075-2.167,2.747-2.631,2.075,2.167-2.747,2.631Zm-3.168-2.483l-2.971-.422L15.609-.018l2.971.422-.538,3.792Z"/>
</svg>
