<?xml version="1.0" encoding="UTF-8"?>
<svg xmlns="http://www.w3.org/2000/svg" id="Layer_1" data-name="Layer 1" viewBox="0 0 24 24">
  <path d="M24,8.499l-.005,13.625c0,1.031-.837,1.871-1.867,1.871-.176,0-.353-.025-.523-.075l-4.604-1.92H6v-4.58l-3.585,1.497c-.176,.054-.358,.081-.542,.081C.843,18.998,.006,18.159,.006,17.127l-.006-13.622C0,1.575,1.57,.004,3.5,.003l5.261-.003c-.687,.831-1.133,1.866-1.235,3l-4.025,.003c-.271,0-.5,.23-.5,.501l.005,11.92,3.391-1.422,11.603-.003v3s-9,.002-9,.002v1.998h8.604l3.391,1.422,.005-11.923c0-.275-.224-.499-.5-.499h-.5v-3h.5c1.93,0,3.5,1.57,3.5,3.5ZM8,4h1.5v-.5c0-1.93,1.57-3.5,3.5-3.5s3.5,1.57,3.5,3.5v.5h1.5v6c0,1.105-.895,2-2,2h-6c-1.105,0-2-.895-2-2V4Zm4,0h2v-.5c0-.551-.449-1-1-1s-1,.449-1,1v.5Zm0,5h2v-2h-2v2Z"/>
</svg>
