<svg id="Layer_1" viewBox="0 0 24 24" xmlns="http://www.w3.org/2000/svg" data-name="Layer 1"><path d="m18.787 10.356c-.795-.477-1.78-.477-2.573 0l-5.214 3.128v7.03l5.215 3.129c.793.474 1.778.475 2.571 0l5.214-3.128v-7.03l-5.213-3.128zm-1.287 2.727 2.57 1.543-2.57 1.542-2.57-1.542zm-3.5 5.732v-2.415l2.5 1.5v2.416l-2.5-1.5zm4.5 1.5v-2.416l2.5-1.5v2.415l-2.5 1.5zm-12.958-.901 6.983 4.334c-.788.2-1.608.318-2.457.319-5.547-.007-10.062-4.523-10.068-10.065 0-5.284 8.168-12.331 9.099-13.117l.969-.817.968.818c.597.505 4.162 3.589 6.649 7.125-.862-.036-1.731.169-2.5.631l-.524.314c-1.284-1.678-2.927-3.423-4.596-4.932-3.582 3.237-7.065 7.569-7.065 9.977.002 2.171.992 4.117 2.542 5.415z"/></svg>