<?xml version="1.0" encoding="UTF-8"?>
<svg xmlns="http://www.w3.org/2000/svg" id="Layer_1" data-name="Layer 1" viewBox="0 0 24 24">
  <path d="m9.5,10.07c.336.23.903.804,1.3,1.33l.45.6h1.75c3.309,0,6-2.691,6-6S16.309,0,13,0h-7C2.691,0,0,2.691,0,6s2.691,6,6,6l1.749-.002.45-.597c.398-.527.965-1.101,1.301-1.331Zm-3.219-1.07h-.281c-1.654,0-3-1.346-3-3s1.346-3,3-3h7c1.654,0,3,1.346,3,3s-1.346,3-3,3h-.281c-.793-.924-1.982-2-3.219-2s-2.426,1.076-3.219,2ZM24,0v16c0,4.411-3.589,8-8,8s-8-3.589-8-8v-2h3v2c0,2.757,2.243,5,5,5s5-2.243,5-5V0h3Z"/>
</svg>
