<?xml version="1.0" encoding="UTF-8"?>
<svg xmlns="http://www.w3.org/2000/svg" id="Layer_1" data-name="Layer 1" viewBox="0 0 24 24">
  <path d="m21.976,0c-1.544,0-2.888.991-3.344,2.465-.03.096-.06.196-.092.299-.786-.249-1.441-.459-1.798-.581l-.969,2.84c.372.127,1.058.347,1.88.607-.154.495-.314,1.012-.478,1.541-.834-.264-1.534-.488-1.908-.616l-.967,2.84c.386.131,1.11.364,1.973.637-.929,2.646-2.803,5.969-4.272,5.969-.265,0-.968,0-1-1v-1.482c.018-.692.292-1.518,1.5-1.518h.5v-3H0v3h.5c1.208,0,1.482.825,1.5,1.52l.031,2.32c0,3.161,1.31,5.747,3.594,7.096,1.202.71,2.541,1.072,3.883,1.072.876,0,1.753-.154,2.593-.465,2.129-.789,3.769-2.472,4.499-4.618.814-2.391,3.419-10.784,4.899-15.573.064-.21.256-.351.477-.351h2.024V0h-2.024Zm-10.916,20.729c-1.297.479-2.685.346-3.909-.376-1.913-1.129-2.119-3.532-2.119-4.533l-.031-2.32c0-.462-.078-.982-.25-1.5h3.5c-.172.518-.25,1.038-.25,1.5v1.5c0,1.608,1.065,4,4,4,.492,0,.96-.09,1.403-.252-.519.907-1.341,1.609-2.343,1.981ZM1.011,7c-.001-.046-.011-.09-.011-.137,0-1.582,1.088-2.922,2-3.863,0,0,.453,2.03,1.008,2.03,1.158,0,.823-3.103,2.492-5.03,1.737,1.737,5.5,3.679,5.5,6.863,0,.047-.01.091-.011.137H1.011Z"/>
</svg>
