<svg id="Layer_1" viewBox="0 0 24 24" xmlns="http://www.w3.org/2000/svg" data-name="Layer 1"><path d="m2.5 11c-1.381 0-2.5-1.119-2.5-2.5s1.119-2.5 2.5-2.5c.537 0 1.031.173 1.439.461l1.348-.959-1.349-.962c-.407.288-.901.46-1.438.46-1.381 0-2.5-1.119-2.5-2.5s1.119-2.5 2.5-2.5 2.5 1.119 2.5 2.5c0 .109-.018.213-.032.318l2.044 1.456 2.151-1.531c.882-.487 1.863-.744 2.837-.744v2c-.629 0-1.241.158-1.822.469l-1.446 1.031 1.446 1.031c.581.312 1.193.469 1.822.469v2c-1.006-.003-2.04-.271-2.934-.805l-2.058-1.467-2.04 1.454c.014.105.032.209.032.318 0 1.381-1.119 2.5-2.5 2.5zm18.594-3.656.003-.002c-.272-.457-.561-.901-.884-1.315h-.001c-1.549-2.043-3.772-3.365-6.211-3.825v3.065c1.516.415 2.885 1.32 3.88 2.647 1.102 1.497 1.712 3.143 2.599 5.11h-1.191l-.649 4.709c-.021.152-.152.267-.306.267h-4.332v3h-6v-1.653c0-1.347-.635-1.938-1.268-2.695-1.085-1.301-1.663-2.847-1.706-4.429-.72.49-1.59.778-2.527.778-.151 0-.293-.03-.44-.044.187 2.018.988 3.964 2.37 5.62 0 0 0 0 .001.001.182.218.568.424.568.924v4.5h12v-3h1.332c1.645 0 3.054-1.229 3.278-2.857l.292-2.119h2.098v-2.437c-.869-1.962-1.967-4.633-2.906-6.243z"/></svg>