<?xml version="1.0" encoding="UTF-8"?>
<svg xmlns="http://www.w3.org/2000/svg" id="Layer_1" data-name="Layer 1" viewBox="0 0 24 24">
  <path d="m24,5c0-1.657-1.5-5-1.5-5,0,0-.5,1.667-1.5,3.075-1-1.409-1.5-3.075-1.5-3.075,0,0-1.5,3.343-1.5,5,0,.981.471,1.852,1.199,2.4-.274.364-.71.6-1.199.6h-2v-1.5c0-2.455-2.474-4.917-2.97-5.385l-1.03-.974-1.03.974c-.496.468-2.97,2.93-2.97,5.385v1.5h-2c-.49,0-.926-.236-1.199-.6.728-.547,1.199-1.418,1.199-2.4,0-1.657-1.5-5-1.5-5,0,0-.5,1.667-1.5,3.075C2,1.667,1.5,0,1.5,0,1.5,0,0,3.343,0,5c0,1.174.675,2.19,1.658,2.683.521,1.909,2.27,3.317,4.342,3.317h2v2h-2.621l-2.439,2.439,2.121,2.121,1.561-1.561h1.379v3.467l-1.629,1.629c-.553.553-.459,1.198.094,1.751.923.923,3.484,2.051,5.535,0,2.051,2.051,4.613.923,5.535,0,.553-.553.647-1.198.094-1.751l-1.629-1.629v-3.467h1.379l1.561,1.561,2.121-2.121-2.439-2.439h-2.621v-2h2c2.072,0,3.821-1.408,4.342-3.317.983-.493,1.658-1.509,1.658-2.683Zm-13,1.5c0-.533.457-1.327,1-2.04.547.723,1,1.52,1,2.04v11.5h-2V6.5Z"/>
</svg>
