<?xml version="1.0" encoding="UTF-8"?>
<svg xmlns="http://www.w3.org/2000/svg" id="Layer_1" data-name="Layer 1" viewBox="0 0 24 24">
  <path d="m12.195,11h-7.195v-3h10v1.507l-.994.329c-.711.236-1.324.644-1.812,1.164Zm-.263,10H3.5c-.276,0-.5-.224-.5-.5V5h5v-1.5c0-.276.224-.5.5-.5h3c.276,0,.5.224.5.5v1.5h5v3.844l1.5-.497,1.5.497V2h-5.338c-.563-1.182-1.769-2-3.162-2h-3c-1.394,0-2.599.818-3.162,2H0v18.5c0,1.93,1.57,3.5,3.5,3.5h11.074c-.941-.734-1.938-1.73-2.643-3Zm-6.932-5h6v-2c0-.344.053-.676.128-1h-6.128v3Zm19-2v3.477c0,3.966-3.639,5.738-4.753,6.187l-.812.327-.783-.391c-1.091-.545-4.651-2.599-4.651-6.122v-3.477c0-1.03.658-1.94,1.636-2.265l3.864-1.281,3.864,1.281c.979.325,1.636,1.235,1.636,2.265Zm-3,.443l-2.5-.829-2.5.829v3.033c0,1.521,1.688,2.698,2.564,3.207.898-.445,2.436-1.463,2.436-3.207v-3.033Z"/>
</svg>
