<svg id="Layer_1" viewBox="0 0 24 24" xmlns="http://www.w3.org/2000/svg" data-name="Layer 1"><path d="m10.587 21h-6.587c-.551 0-1-.448-1-1s.449-1 1-1h6.069c-.041-.328-.069-.661-.069-1 0-.692.097-1.36.262-2h-1.262v-13h10v7.069c1.083.135 2.096.486 3 1.01v-8.579c0-1.378-1.122-2.5-2.5-2.5h-15.5c-2.206 0-4 1.794-4 4v16c0 2.206 1.794 4 4 4h8.721c-.926-.815-1.663-1.838-2.134-3zm-6.587-18h2v13h-2c-.347 0-.678.058-1 .142v-12.142c0-.551.449-1 1-1zm14 9c-3.314 0-6 2.686-6 6s2.686 6 6 6 6-2.686 6-6-2.686-6-6-6zm3.94 6.6h-6.254c.268 1.032 1.2 1.8 2.315 1.8.306 0 1.538.008 3.162.018-.726.958-1.865 1.582-3.162 1.582-2.209 0-4-1.791-4-4s1.791-4 4-4c1.862 0 3.413 1.278 3.859 3 .141.507.185 1.075.081 1.6zm-1.765-1.6h-4.35c.381-.824 1.209-1.4 2.175-1.4s1.794.576 2.175 1.4z"/></svg>