<?xml version="1.0" encoding="UTF-8"?>
<svg xmlns="http://www.w3.org/2000/svg" id="Layer_1" data-name="Layer 1" viewBox="0 0 24 24">
  <path d="m10.5,0h-3c-1.394,0-2.6.818-3.162,2H0v18.5c0,1.93,1.57,3.5,3.5,3.5h11c1.93,0,3.5-1.57,3.5-3.5V2h-4.338c-.562-1.182-1.769-2-3.162-2Zm4.5,20.5c0,.275-.225.5-.5.5H3.5c-.275,0-.5-.225-.5-.5V5h4v-1.5c0-.275.225-.5.5-.5h3c.275,0,.5.225.5.5v1.5h4v15.5ZM24,2v20l-2,2-2-2V2c0-1.105.895-2,2-2s2,.895,2,2Zm-14.522,4.439l2.121,2.121-2.827,2.827c-.407.407-.942.611-1.478.611s-1.07-.204-1.478-.611l-1.647-1.647,2.121-2.121,1.004,1.004,2.184-2.184Zm0,6l2.121,2.121-2.827,2.827c-.407.407-.942.611-1.478.611s-1.07-.204-1.478-.611l-1.647-1.647,2.121-2.121,1.004,1.004,2.184-2.184Z"/>
</svg>
