<svg id="Layer_1" viewBox="0 0 24 24" xmlns="http://www.w3.org/2000/svg" data-name="Layer 1"><path d="m13.263 6.884-1.413.816c-.5-.509-1.139-.872-1.849-1.058v-1.642h-2v1.642c-.711.185-1.349.549-1.849 1.058l-1.413-.816-1 1.732 1.424.822c-.094.34-.161.692-.161 1.061s.063.723.159 1.063l-1.421.821 1 1.732 1.428-.825c.5.503 1.126.882 1.835 1.066v1.123l1.408-1.208c1.37-1.174 2.626-2.591 3.572-4.006-.021-.285-.068-.562-.142-.829l1.424-.822-1-1.732zm-4.263 5.116c-.827 0-1.5-.673-1.5-1.5s.673-1.5 1.5-1.5 1.5.673 1.5 1.5-.673 1.5-1.5 1.5zm13.944 2.993c-.519 2.458-1.896 4.503-3.077 5.886-.904-.234-1.772-.515-2.604-.844.621-1.185 1.237-2.798 1.237-4.536-1.726 2.157-3.82 2.824-4.363 2.967-1.24-.763-2.386-1.649-3.427-2.674 1.456-1.248 2.941-2.873 4.066-4.603.738-1.135 2.214-1.522 3.406-.88l.333.18 2.625-5.624 2.719 1.27-2.697 5.779.466.251c1.015.547 1.555 1.701 1.316 2.829zm-19.944 3.007v-15h10v1.163c1.358.859 2.418 2.14 3 3.661v-7.824h-16v21c0 1.657 1.343 3 3 3h10c1.439 0 2.638-1.013 2.929-2.365-2.134-.916-4.066-2.129-5.773-3.635zm7 4h-4v-2h4z"/></svg>