<?xml version="1.0" encoding="UTF-8"?>
<svg xmlns="http://www.w3.org/2000/svg" id="Layer_1" data-name="Layer 1" viewBox="0 0 24 24">
  <path d="M20.5,2H3.5C1.57,2,0,3.57,0,5.5V22H24V5.5c0-1.93-1.57-3.5-3.5-3.5ZM6.439,6.859l-2.401-1.859h2.401v1.859Zm-1.527,.841h-1.913v-1.48l1.913,1.48Zm.003,1.6l-1.916,1.486v-1.486h1.916Zm3.123-4.3h2.41l-2.41,1.873v-1.873Zm12.961,14H3v-7h1.053l2.386-1.856v1.856h1.6v-1.872l2.407,1.872h1.553v-.82l-2.418-1.881h2.418v-1.6h-2.418l2.418-1.881v-.82h8.5c.275,0,.5,.225,.5,.5v13.5Zm-6.5-7.5c-.552,0-1-.448-1-1s.448-1,1-1,1,.448,1,1-.448,1-1,1Zm3.5,1.5c0,.552-.448,1-1,1s-1-.448-1-1,.448-1,1-1,1,.448,1,1Zm-10,3c0,.552-.448,1-1,1s-1-.448-1-1,.448-1,1-1,1,.448,1,1Zm8,0c0,.552-.448,1-1,1s-1-.448-1-1,.448-1,1-1,1,.448,1,1Zm4-5.5c0,.552-.448,1-1,1s-1-.448-1-1,.448-1,1-1,1,.448,1,1Zm-4-2.5c0-.552,.448-1,1-1s1,.448,1,1-.448,1-1,1-1-.448-1-1Z"/>
</svg>
