<?xml version="1.0" encoding="UTF-8"?>
<svg xmlns="http://www.w3.org/2000/svg" id="Layer_1" data-name="Layer 1" viewBox="0 0 24 24">
  <path d="M9.176,5.083l-.55-2.951c.446-.083,.904-.132,1.374-.132h2v3h-2c-.282,0-.556,.033-.824,.083Zm-1.388,.522l-1.488-2.621c-1.067,.608-1.968,1.469-2.625,2.503l2.535,1.609c.395-.62,.939-1.125,1.578-1.49Zm-2.288,3.895c0-.359,.053-.704,.133-1.039l-2.922-.695c-.133,.558-.21,1.136-.21,1.734v1.5h3v-1.5ZM22.75,3h-1.25l-1.929-2.421c-.195-.357-.569-.579-.975-.579h-1.096l1.184,3h-2.241l-1.11-.772c-.146-.146-.345-.228-.551-.228-.599,0-.974,.647-.677,1.167l1.546,1.833h3.017l-1.167,3h1.113c.407,0,.781-.222,.975-.579l1.911-2.421h2.5v-1c0-.552-.448-1-1.25-1ZM4,19c1.381,0,2.5-1.119,2.5-2.5s-1.119-2.5-2.5-2.5-2.5,1.119-2.5,2.5,1.119,2.5,2.5,2.5Zm5.5-2.5c0,1.381,1.119,2.5,2.5,2.5s2.5-1.119,2.5-2.5-1.119-2.5-2.5-2.5-2.5,1.119-2.5,2.5Zm12,3.5h-3c-1.381,0-2.5,1.119-2.5,2.5,0-1.381-1.119-2.5-2.5-2.5h-3c-1.381,0-2.5,1.119-2.5,2.5,0-1.381-1.119-2.5-2.5-2.5H2.5c-1.381,0-2.5,1.119-2.5,2.5v1.5H24v-1.5c0-1.381-1.119-2.5-2.5-2.5Zm1-3.5c0-1.381-1.119-2.5-2.5-2.5s-2.5,1.119-2.5,2.5,1.119,2.5,2.5,2.5,2.5-1.119,2.5-2.5Z"/>
</svg>
