<?xml version="1.0" encoding="UTF-8"?>
<svg xmlns="http://www.w3.org/2000/svg" id="Layer_1" data-name="Layer 1" viewBox="0 0 24 24">
  <path d="m17.5,24.043c-1.432,0-2.76-.539-3.739-1.519-.98-.979-1.52-2.282-1.52-3.667s.54-2.688,1.52-3.668l6.964-6.965c.189-.188.292-.439.292-.707s-.104-.519-.293-.707c-.377-.377-1.037-.379-1.414,0l-12.5,12.5c-1.51,1.512-4.146,1.512-5.657,0C.398,18.555-.018,17.551-.018,16.482s.416-2.073,1.171-2.828L10.213,4.701c.183-.184.287-.435.287-.701s-.104-.518-.293-.707c-.378-.379-1.037-.379-1.414,0l-6.679,6.572L.01,7.727,6.68,1.163c.747-.747,1.751-1.163,2.82-1.163s2.073.416,2.829,1.172c1.559,1.56,1.559,4.097,0,5.656L3.269,15.781c-.183.183-.286.434-.286.701s.104.519.293.707c.377.377,1.037.379,1.414,0l12.5-12.5c1.51-1.512,4.146-1.512,5.657,0,.755.756,1.171,1.76,1.171,2.828s-.416,2.073-1.171,2.828l-6.964,6.965c-.413.413-.641.962-.641,1.547s.228,1.133.641,1.546c.413.412.987.64,1.618.64,2.231,0,3.221-.69,4.368-1.49l.424-.294,1.686,2.482-.394.271c-1.296.904-2.91,2.03-6.084,2.03Z"/>
</svg>
