<?xml version="1.0" encoding="UTF-8"?>
<svg xmlns="http://www.w3.org/2000/svg" id="Layer_1" data-name="Layer 1" viewBox="0 0 24 24" width="512" height="512"><path d="m21.501,2.499c-3.326-3.327-8.738-3.326-12.064,0-3.076,3.075-3.408,10.321-3.436,11.138l-.022.651.806.806-3.433,3.433c-.356-.327-.831-.527-1.352-.527-1.105,0-2,.895-2,2s.895,2,2,2c0,1.105.895,2,2,2s2-.895,2-2c0-.521-.2-.996-.527-1.352l3.433-3.433.808.808.652-.023c.093-.003,2.305-.087,4.809-.604l1.609-.333-.478-1.573c-.123-.404-.186-.821-.186-1.239,0-2.343,1.906-4.25,4.25-4.25.531,0,1.056.101,1.56.3l1.939.767.11-2.083c.128-2.419-.776-4.783-2.479-6.485Zm-8.38,11.751c0,.153.005.307.015.46-.919.137-1.719.212-2.24.252l-1.861-1.861c.159-2.188.814-6.772,2.523-8.48,2.155-2.156,5.665-2.158,7.822,0,.669.668,1.146,1.494,1.401,2.391-4.131-.23-7.66,3.104-7.66,7.238Z"/></svg>
