<?xml version="1.0" encoding="UTF-8"?>
<svg xmlns="http://www.w3.org/2000/svg" id="Layer_1" data-name="Layer 1" viewBox="0 0 24 24">
  <path d="M22,12.8c-.422,.204-2.169,.94-2.497,1.132-.162,.095-.332,.176-.503,.252v6.816h-2v-5h-3v5H6.529c.013-.147,.314-1.663,.423-2.237,.706-2.437,2.527-5.81,7.154-7.218,.516,.218,1.005,.429,1.4,.661,.46,.271,.977,.405,1.493,.405s1.032-.135,1.492-.405c.439-.257,.986-.488,1.565-.732,1.664-.702,3.942-1.663,3.942-4.036,0-.953-.367-1.947-.972-2.864V2.502c0-.966-.54-1.828-1.41-2.25-.87-.42-1.88-.312-2.64,.288l-.711,.561c-.424-.105-.85-.163-1.268-.163s-.846,.059-1.272,.164l-.713-.563c-.759-.599-1.77-.709-2.639-.288-.87,.422-1.41,1.284-1.41,2.25v2.08c-.602,.914-.967,1.906-.967,2.856,0,.914,.342,1.616,.853,2.177-1.17,.595-2.163,1.317-3.011,2.11,.246-3.431,.221-6.324,.208-7.743-.02-2.196-1.826-3.982-4.025-3.982S.024,1.781,0,3.98h0c-.023,2.566-.019,8.776-.011,13.534,.006,3.576,2.922,6.485,6.5,6.485H24v-3h-2V12.8Zm-1-5.362c0,.383-1.319,.939-2.108,1.272-.643,.271-1.309,.552-1.867,.909-.609-.357-1.274-.638-1.917-.909-.789-.333-2.108-.889-2.108-1.272,0-1.267,2.312-3.5,4-3.5s4,2.233,4,3.5ZM2.983,9h2.005c-.025,.636-.059,1.305-.104,2h-1.902c0-.684,0-1.355,0-2Zm1.042-6c.56,0,1.02,.453,1.025,1.01,.005,.492,.01,1.174,.006,1.99H2.989c.003-.778,.006-1.454,.011-1.975,0-.565,.46-1.025,1.025-1.025Zm-1.041,11h1.642c-.144,1.324-.336,2.685-.589,4.038-.155,.536-.271,1.052-.355,1.544-.432-.58-.691-1.296-.693-2.073-.002-1.112-.004-2.304-.005-3.509Z"/>
</svg>
