<?xml version="1.0" encoding="UTF-8"?>
<svg xmlns="http://www.w3.org/2000/svg" id="Layer_1" data-name="Layer 1" viewBox="0 0 24 24">
  <path d="m7.005,9h-3V0h16v3H7.005v6Zm10,11.5c0,.276-.225.5-.5.5H7.505c-.275,0-.5-.224-.5-.5v-2.5h-3v2.5c0,1.93,1.57,3.5,3.5,3.5h9c1.93,0,3.5-1.57,3.5-3.5v-8.5h-3v8.5Zm6.63-13.817l-3.65-3.183v2.5h-2.98v3h2.98v2.5l3.65-3.157c.494-.443.494-1.217,0-1.66ZM4.026,15h2.979v-3h-2.979v-2.5L.376,12.683c-.494.443-.494,1.217,0,1.66l3.65,3.157v-2.5Zm5.979,4h4v-2h-4v2Zm5.3-7.374c0-1.033-.734-1.929-1.747-2.131l-2.792-.559c-.267-.054-.461-.291-.461-.562,0-.316.257-.574.573-.574h2.127c.316,0,.585.211.671.5h1.62c-.102-1.175-1.09-2.1-2.291-2.1h-.2v-1.2h-1.6v1.2h-.327c-1.198,0-2.173.975-2.173,2.173,0,1.033.734,1.929,1.747,2.131l2.791.559c.268.054.462.291.462.563,0,.316-.258.574-.574.574h-2.126c-.316,0-.585-.211-.671-.5h-1.62c.102,1.175,1.09,2.1,2.291,2.1h.2v1.2h1.6v-1.2h.326c1.199,0,2.174-.975,2.174-2.173Z"/>
</svg>
