<svg id="Layer_1" viewBox="0 0 24 24" xmlns="http://www.w3.org/2000/svg" data-name="Layer 1"><path d="m16 18v6h-8v-6c0-1.105.895-2 2-2h4c1.105 0 2 .895 2 2zm-11.5 0h-3c-.828 0-1.5.672-1.5 1.5v4.5h6v-4.5c0-.828-.672-1.5-1.5-1.5zm18 1h-3c-.828 0-1.5.672-1.5 1.5v3.5h6v-3.5c0-.828-.672-1.5-1.5-1.5zm-3.5-12h-2.931c-.639.85-1.467 1.654-2.559 2.191-.003.002-.011.809-.011.809 0 .551.448 1 1 1h1v3h-7v-3h1c.552 0 1-.449 1-1v-.805c-1.091-.537-1.93-1.345-2.57-2.195h-2.93v-3h1.361c-.004-.012-.01-.027-.015-.04-.036-.108-.137-.513-.265-1.102-.153-.697.017-1.419.467-1.978.451-.559 1.121-.88 1.839-.88h7.229c.718 0 1.388.321 1.837.88.45.559.62 1.281.466 1.981-.127.585-.228.991-.262 1.093-.005.014-.012.031-.016.045h1.361v3zm-4.188-4h-5.621c.004.014.007.026.01.037.257.759 1.051 2.693 2.613 3.462h.373c1.562-.77 2.356-2.703 2.625-3.499z"/></svg>