<svg id="Layer_1" viewBox="0 0 24 24" xmlns="http://www.w3.org/2000/svg" data-name="Layer 1"><path d="m22.063 4.678c-.598-.448-1.352-.582-2.071-.371-1.116.33-2.857.981-4.808 2.204-.361.226-.714.46-1.058.7v-.667c0-.741-.342-1.421-.938-1.866-.598-.448-1.353-.582-2.071-.371-1.116.33-2.857.981-4.808 2.204-2.371 1.484-3.892 2.987-4.75 3.987-.747.87-.747 2.134 0 3.004.858 1 2.379 2.503 4.749 3.987 1.951 1.223 3.692 1.874 4.811 2.204.716.212 1.472.076 2.071-.372.595-.445.937-1.125.937-1.865v-.667c.343.24.696.474 1.057.7 1.951 1.223 3.692 1.874 4.811 2.204.222.065.447.098.671.098.498 0 .986-.16 1.4-.47.595-.445.937-1.125.937-1.865v-10.912c0-.741-.342-1.421-.938-1.866z" opacity=".5"/></svg>