<svg id="Layer_1" viewBox="0 0 24 24" xmlns="http://www.w3.org/2000/svg" data-name="Layer 1"><path d="m11.645 7.188c-.19-.219-.465-.344-.754-.344-1.801 0-3.491.744-4.639 2.041-1.153 1.305-1.685 2.527-1.58 3.633.077.811.5 1.533 1.224 2.093.644.496 1.473.77 2.335.77h1.749c.499 0 .921-.368.99-.862l.911-6.536c.04-.286-.046-.576-.236-.794z" opacity=".5"/><path d="m13.386 1c-2.188 0-2.514 1.583-2.514 2.527s.327 2.526 2.514 2.526 2.514-1.583 2.514-2.526-.327-2.527-2.514-2.527z"/><path d="m18.341 23c-.552 0-1-.447-1-1v-9.196l-.398-1.546.398-.709v-1.026c0-.553.448-1 1-1s1 .447 1 1v12.477c0 .553-.448 1-1 1z" opacity=".5"/><path d="m17.341 10.549c-.732-.488-1.307-1.189-1.642-2.025l-.388-.967c-.15-.372-.501-.585-.876-.625-1.2-.129-2.402-.194-3.66.018-.347.057-.638.293-.765.621-.849 2.191-1.149 4.584-.869 6.924.042.337.26.638.566.783l.86.408c.977.442 1.681 1.153 1.706 1.177 1.312 1.247 2.063 3.002 2.063 4.816v.321c0 .553.448 1 1 1s1-.447 1-1v-.321c0-2.111-.784-4.162-2.172-5.732.16-.511.276-1.022.361-1.577l.437-3.272c.645.739 1.456 1.325 2.378 1.706v-2.255z"/><path d="m11.003 17.864c-.137.224-.281.445-.433.66l-2.036 2.901c-.317.452-.208 1.075.245 1.393.175.123.375.182.573.182.315 0 .625-.148.82-.426l2.035-2.901c.018-.026.036-.052.053-.077-.314-.647-.741-1.234-1.258-1.731z" opacity=".5"/></svg>