<svg id="Layer_1" viewBox="0 0 24 24" xmlns="http://www.w3.org/2000/svg" data-name="Layer 1"><path d="m19.133 10.265c-.176 0-.352.012-.524.036-.276-2.096-.681-3.44-.7-3.507-.099-.325-.356-.578-.684-.671-.069-.02-1.451-.408-3.465-.684.026-.182.039-.365.039-.55 0-2.144-1.734-3.887-3.867-3.887s-3.866 1.743-3.866 3.887c0 .185.014.368.039.551-2.012.275-3.396.663-3.465.683-.328.093-.587.347-.686.675-.039.13-.954 3.227-.954 7.353 0 4.16.916 7.228.955 7.355.099.326.356.579.685.672.079.022 1.966.552 4.559.814.033.003.067.005.101.005.316 0 .616-.149.806-.407.209-.285.253-.659.114-.984-.102-.239-.153-.491-.153-.749 0-1.039.837-1.885 1.866-1.885s1.867.846 1.867 1.885c0 .258-.052.509-.153.747-.139.325-.096.699.114.984.209.286.546.437.906.403 2.59-.262 4.479-.791 4.558-.813.328-.093.587-.347.686-.674.02-.067.421-1.418.697-3.505.174.023.35.036.526.036 2.133 0 3.867-1.743 3.867-3.885s-1.734-3.886-3.867-3.886z" opacity=".5"/></svg>