<svg id="Layer_1" viewBox="0 0 24 24" xmlns="http://www.w3.org/2000/svg" data-name="Layer 1"><path d="m17.401 9.476-1.592-.382-1.351.147-1.348-.717-.432-2.221.495-.853v-3.45c0-.553-.447-1-1-1h-.85c-3.096 0-6.212.689-9.013 1.995-.352.164-.577.518-.577.906v13.181c0 .479.34.891.811.981 1.285.249 2.575.442 3.867.579.219.3.666.84 1 .868s.74-.262 1-.7c.932.058 1.865.087 2.799.087.953 0 1.917-.03 2.869-.09.153.335.716.713 1.069.683.317-.027.679-.356.931-.854.915-.098 1.828-.225 2.739-.379l1.119-.188c.481-.081.834-.498.834-.986v-3.361c0-2.022-1.386-3.768-3.371-4.245z" opacity=".5"/><path d="m13.174 8.462v-3.012h-3.624c-.553 0-1 .447-1 1s.447 1 1 1h3.211l-2.505 2.494c-.392.39-.394 1.023-.004 1.414.195.196.452.295.709.295.255 0 .511-.097.705-.291l2.144-2.134v2.887c0 .553.447 1 1 1s1-.447 1-1v-3.021z"/><path d="m16.08 18.635c-.666.072-1.333.129-2 .171v2.117c.707-.044 1.376-.105 2-.175v-2.114z"/><path d="m14.08 20.924c-1.711.107-3.641.118-5.668-.068l-1-.978-1 .732c-1.124-.175-2.265-.416-3.404-.741-.523-.149-1.084.156-1.235.688-.151.531.157 1.084.688 1.235 3.178.904 6.358 1.205 9.185 1.205 3.794 0 6.948-.542 8.59-.894 1.176-.25 2.03-1.298 2.03-2.491 0-.553-.447-1-1-1s-1 .447-1 1c0 .259-.185.479-.448.536-.858.183-2.15.422-3.737.6l-1.078-.694-.922.868z" opacity=".5"/><path d="m8.412 18.81c-.667-.041-1.334-.097-2-.168v1.968c.674.105 1.342.186 2 .246v-2.045z"/></svg>