<svg id="Layer_1" viewBox="0 0 24 24" xmlns="http://www.w3.org/2000/svg" data-name="Layer 1"><path d="m21.572 7.93c-.03-.186.82-1.23.853-1.52-.049-.055-.104-.105-.164-.148-3.047-2.188-5.823-3.402-9.667-5.082l-.194-.085c-.255-.111-.546-.111-.801 0l-.202.088c-3.839 1.68-6.614 2.893-9.659 5.08-.061.043-.115.093-.164.148.203.456.619 1.327.597 1.513-.034.277-.439.439-1.014.656-.08 1.022-.157 2.521-.157 4.511 0 3.806.308 4.964.37 5.158.068.214.207.399.393.525 2.949 1.992 6.458 3.529 9.221 4.066.313-.197.545-.334.834-.3.079.009.21.002.289-.007.289-.034.533.155.91.307 2.762-.537 6.272-2.074 9.221-4.066.187-.126.325-.311.393-.525.062-.194.37-1.352.37-5.158 0-1.991-.077-3.489-.157-4.512-1.116-.455-1.265-.604-1.272-.647z" opacity=".5"/><path d="m13.016 13.555c3.837-1.677 6.791-2.99 9.827-4.978-.084-1.072-.147-1.447-.179-1.664-.031-.186-.114-.363-.24-.503-3.201 2.202-6.285 3.562-10.424 5.371-4.142-1.81-7.225-3.169-10.426-5.37-.136.153-.219.346-.246.551-.021.16-.099.695-.171 1.617 3.035 1.987 5.989 3.299 9.827 4.976v9.283c.309.06.609.108.898.143.079.009.158.009.237 0 .288-.034.588-.083.897-.143z"/></svg>