<svg id="Layer_1" viewBox="0 0 24 24" xmlns="http://www.w3.org/2000/svg" data-name="Layer 1"><path d="m22.108 2.516c-.102-.131-.207-.251-.312-.357s-.225-.211-.356-.315c-1.681-1.32-4.172-1.062-5.663.575l-1.415 1.504c-1.104-.282-2.951-.262-4.998 1.796-.244.245-.344.598-.264.934.012.054.184.757.725 1.789-.282.501-.532 1.35-.35 1.639s1.064 1.894 1.593 2.426c.534.537 2.452 1.801 2.722 1.974.312.2 1.152.069 1.76-.291 1.018.537 1.71.708 1.763.721.077.019.155.027.232.027.263 0 .519-.104.709-.295 2.067-2.079 2.08-3.93 1.792-5.034l1.477-1.401c1.638-1.506 1.895-4.007.585-5.691z" opacity=".5"/><path d="m10.919 10.169c-.507-.602-.828-1.219-1.094-1.728-.301.294-.612.601-.931.921-3.198 3.192-5.095 5.434-6.125 6.751-.954 1.221-1.067 2.864-.371 4.125l-1.05 1.056c-.39.392-.388 1.025.004 1.414.195.194.45.291.705.291.257 0 .514-.098.709-.295l1.065-1.071c.522.271 1.104.409 1.692.409.817 0 1.644-.265 2.33-.798 1.323-1.028 3.574-2.928 6.789-6.139.315-.315.618-.621.908-.917-.507-.267-1.129-.582-1.723-1.1-1.379-1.089-1.826-1.536-2.907-2.92z"/></svg>