<svg id="Layer_1" viewBox="0 0 24 24" xmlns="http://www.w3.org/2000/svg" data-name="Layer 1"><path d="m13.267 6.735-3.444-1.329c-.153-.059-.318-.08-.479-.06-2.161.259-3.955 1.86-4.465 3.982-.116.487.146.986.613 1.167l3.445 1.329c.126.049.26.074.392.074.223 0 .441-.071.616-.218.279-.235.411-.58.34-.938-.002-.023-.043-.567.679-1.343.485-.523 1.445-.922 1.807-.946.471-.027 1.053-.165 1.125-.63s-.189-.917-.628-1.087z" opacity=".5"/><path d="m5.469 12.965c-2.965 0-4.469 1.507-4.469 4.48 0 3.015 1.462 4.48 4.469 4.48 2.965 0 4.469-1.507 4.469-4.48 0-3.015-1.462-4.48-4.469-4.48z" opacity=".5"/><path d="m18.531 12.965c-2.965 0-4.469 1.507-4.469 4.48 0 3.015 1.462 4.48 4.469 4.48 2.965 0 4.469-1.507 4.469-4.48 0-3.015-1.462-4.48-4.469-4.48z" opacity=".5"/><path d="m15.257 2.075c-1.353 0-2.128.777-2.128 2.132s.775 2.133 2.128 2.133 2.129-.777 2.129-2.133-.776-2.132-2.129-2.132z"/><path d="m12.009 18.445c-.553 0-1-.448-1-1v-1.902c0-.824-.312-1.606-.879-2.202l-1.583-1.787c-.216-.244-.3-.579-.224-.896.508-2.123 2.302-3.723 4.464-3.982.299-.035.598.064.813.273l3.61 3.482c.397.383.409 1.017.025 1.414-.383.397-1.016.409-1.414.025l-3.239-3.124c-.975.26-1.779.971-2.163 1.906l1.184 1.336c.897.942 1.405 2.214 1.405 3.554v1.902c0 .552-.447 1-1 1z"/></svg>