<svg id="Layer_1" viewBox="0 0 24 24" xmlns="http://www.w3.org/2000/svg" data-name="Layer 1"><path d="m20.058 3.002c-.383-.107-.849-.291-1.044-.486-.215-.215-.363-.646-.373-.926-4.101-1.217-7.937-.258-9.404.214-.109.451.099.91-.241 1.25-.182.182-.721.138-1.197.141-1.842 4.551-1.465 8.943-1.254 10.453l-1.917 1.912c-.826.824-1.281 1.918-1.281 3.083s.455 2.259 1.281 3.083c.851.848 1.97 1.272 3.088 1.272s2.237-.424 3.089-1.273c1.157-1.153 3.041-1.154 4.199 0l.865.862c.39.389 1.024.388 1.414-.003s.389-1.024-.003-1.414l-.865-.861c-1.936-1.93-5.086-1.931-7.022 0-.925.921-2.43.921-3.354 0-.447-.445-.693-1.037-.693-1.666s.246-1.221.693-1.667l1.918-1.912c.567.079 1.545.182 2.788.182 2.061 0 4.849-.284 7.701-1.43-.077-.608.119-1.123.327-1.244.22-.128.405-.2 1.069-.188.474-1.461 1.438-5.289.214-9.382z" opacity=".5"/><path d="m20.058 3.002c-.06-.201-.125-.402-.195-.604-.101-.287-.327-.512-.614-.613-.203-.071-.405-.135-.607-.195l-4.81 4.795-4.594-4.581c-.363.117-.581.204-.622.22-.238.097-.429.281-.535.514-.099.219-.192.438-.281.657l4.614 4.603-5.868 5.85c.044.314.081.504.089.544.079.396.389.706.785.785.04.008.228.044.539.087l5.871-5.853 4.617 4.605c.22-.088.44-.181.66-.28.234-.105.418-.296.516-.533.017-.041.104-.257.221-.618l-4.597-4.586 4.811-4.796z"/></svg>