<svg id="Layer_1" viewBox="0 0 24 24" xmlns="http://www.w3.org/2000/svg" data-name="Layer 1"><path d="m3.23 23c-.429 0-.824-.276-.956-.707-.162-.528.136-1.088.663-1.249l4.667-1.428.925-1.944 1.077 1.332 9.659-2.955c.183-.056.332-.179.421-.347.089-.167.107-.359.052-.541-.162-.527.135-1.087.663-1.249.53-.164 1.088.135 1.249.663.213.692.143 1.427-.198 2.066-.34.64-.908 1.107-1.602 1.319l-16.327 4.996c-.098.03-.196.044-.293.044z" opacity=".5"/><path d="m18.965 2.76c-.295-.871-1.117-1.277-1.388-1.41-1.969-.974-2.975.307-3.396 1.158-.391.79-.457 1.505-.195 2.125.221.523.657.94 1.337 1.276.502.248.941.35 1.324.35 1.122 0 1.759-.874 2.072-1.509.362-.732.445-1.402.246-1.99z"/><path d="m6.16 7.007c1.022.64 2.187.975 3.369.99-.604.848-1.116 1.762-1.532 2.736-.26.609-.393 1.302-.394 2.058v6.825l2.002-.612v-3.247l1.139-.549c.832-.4 1.547-1.017 2.061-1.771l3.411-4.887c.167-.239.221-.539.148-.821s-.265-.519-.526-.647l-3.099-1.529c-.234-.131-.521-.168-.799-.076l-.961.313c-1.27.399-2.636.226-3.758-.477-.467-.293-1.084-.151-1.378.317-.293.468-.151 1.085.317 1.378z"/></svg>