<svg id="Layer_1" viewBox="0 0 24 24" xmlns="http://www.w3.org/2000/svg" data-name="Layer 1"><path d="m22.632 12.107c-.568-1.231-2.087-4.238-4.3-6.462-1.69-1.698-3.469-2.992-4.615-3.752-.711-.472-1.725.248-1.773.221-.299-.169-.882-.743-1.541-.315-1.113.722-2.909 2.012-4.735 3.846-2.482 2.493-3.949 5.613-4.403 6.673-.09.21.949.696.938.723-.132.344-.713.888-.394 1.244.689.769 2.031 2.235 3.859 4.072 2.121 2.131 4.383 3.626 5.355 4.226.458-.423.808-.519.977-.519.163 0 .532.129 1.063.476.997-.608 3.112-2.015 5.269-4.182 2.042-2.052 3.374-3.518 3.99-4.214-.676-.513-.888-1.283-.871-1.303.242-.285.409-.556 1.181-.732z" opacity=".5"/><path d="m22.632 12.107-5.695-1.632-3.219-8.582c-.711-.472-1.178-.737-1.226-.764-.299-.169-.664-.173-.965-.009-.044.024-.464.252-1.123.679l-3.259 8.688-5.879 1.83c-.09.21-.141.34-.151.367-.132.344-.065.732.176 1.012.021.025.2.232.519.588l5.803-1.806 3.411 3.427v6.677c.284.175.458.274.486.29.152.086.322.129.491.129.163 0 .326-.04.474-.12.031-.016.242-.131.589-.343v-6.632l3.421-3.437 5.838 1.673c.245-.277.377-.432.394-.452.242-.285.304-.682.162-1.028-.015-.035-.098-.236-.245-.555zm-10.589 1.931-2.942-2.956 2.942-7.843 2.942 7.843z"/></svg>