<svg id="Layer_1" viewBox="0 0 24 24" xmlns="http://www.w3.org/2000/svg" data-name="Layer 1"><path d="m12.639 9.93c-.309-.169-.683-.165-.987.013-.528.309-5.172 3.125-5.232 6.81.088 2.942 2.816 5.658 5.751 5.698 2.908-.041 5.637-2.756 5.725-5.698v-.048c-.069-3.872-5.044-6.658-5.256-6.774z" opacity=".5"/><path d="m19.512 3.085c-.309-.169-.683-.165-.987.013-.35.205-3.423 2.071-3.465 4.602.061 2.031 1.946 3.906 3.983 3.935 2.011-.028 3.896-1.904 3.957-3.935v-.047c-.046-2.597-3.136-4.373-3.488-4.567z" opacity=".5"/><path d="m6.002 1.673c-.309-.169-.684-.166-.986.013-.406.237-3.969 2.398-4.016 5.289.07 2.314 2.218 4.45 4.533 4.481 2.288-.032 4.436-2.167 4.506-4.481v-.048c-.053-2.974-3.629-5.029-4.037-5.253z" opacity=".5"/></svg>