<svg id="Layer_1" viewBox="0 0 24 24" xmlns="http://www.w3.org/2000/svg" data-name="Layer 1"><path d="m18.79 13.384-7.57-7.57c-.317-.319-.81-.385-1.2-.163-.033.019-3.318 1.882-5.102 2.8-1.084.557-2.756 1.225-2.772 1.231-.035.014-.069.03-.104.048-.554.297-.913.827-1.013 1.491-.162 1.082.381 2.42 1.261 3.798.508.028 1.359.049 1.542.304.211.295-.128.947-.358 1.341.826 1.043 1.762 2.058 2.647 2.953.085.086.171.171.257.253.707-.037 1.268-.215 1.518-.01.289.237.2.842.101 1.321 1.244.821 2.508 1.235 3.778 1.235 1.642 0 3.264-.725 4.567-2.043 2.312-2.339 2.717-6.026 2.733-6.182.03-.299-.075-.597-.288-.81z" opacity=".5"/><path d="m22.703 1.87c-.392-.389-1.026-.384-1.414.008l-3.843 3.885c-1.424-1.238-4.153-2.885-7.577-.007-.215.181-.344.442-.355.723-.012.28.094.552.292.75l7.57 7.57c.188.188.442.293.707.293h.043c.28-.012.542-.141.723-.355 2.864-3.405 1.246-6.126.01-7.557l3.852-3.894c.389-.393.385-1.026-.008-1.414z"/><path d="m8.95 12.46c-.3-.463-.919-.595-1.383-.295-.016.01-1.562 1.011-2.416 1.437l-2.858 1.418c.349.547.75 1.1 1.183 1.646l2.566-1.273c.956-.477 2.545-1.505 2.612-1.548.464-.301.596-.92.295-1.383z"/><path d="m10.487 16.645c-.01.01-1.071 1.042-1.674 1.512-.377.293-.959.662-1.026.708-.31.229-.83.607-1.408 1.008.534.513 1.075.952 1.619 1.311.481-.342.834-.606.921-.672 0 0 .681-.433 1.122-.776.691-.538 1.796-1.612 1.843-1.658.396-.385.403-1.019.018-1.414-.385-.396-1.019-.403-1.414-.019z"/></svg>