<svg id="Layer_1" viewBox="0 0 24 24" xmlns="http://www.w3.org/2000/svg" data-name="Layer 1"><path d="m20.951 2.885c-.09-.328-.341-.587-.666-.689-.089-.028-1.343-.414-3.223-.74-.32.094-.644.561-1.013.51-.33-.046-.712-.593-1.065-.801-.93-.099-1.936-.164-2.98-.164s-2.05.065-2.98.164c-.409.239-.768.763-1.129.815-.331.047-.632-.391-.948-.523-1.878.326-3.134.712-3.223.74-.326.102-.578.362-.667.691-.023.083-.306 1.137-.576 2.838.407.266.56.599.517.925-.048.354-.318.798-.787 1.12-.103.968-.183 2.048-.214 3.207.304.382.513.613.513.931 0 1.075-.295.853-.514 1.114.03 1.158.109 2.234.211 3.198.425.233.806.601.844.898.052.4-.207.762-.574 1.156.271 1.708.556 2.759.579 2.841.09.328.341.587.666.689.089.028 1.343.414 3.223.74.401-.33.608-.522.943-.474.357.051.689.236 1.135.766.93.099 1.936.164 2.98.164s2.05-.065 2.98-.164c.414-.471.745-.743 1.096-.793.34-.048.637.141.974.502 1.882-.326 3.141-.713 3.231-.741.326-.102.578-.362.667-.691.023-.083.306-1.137.576-2.838-.6-.248-.767-.613-.722-.947.047-.347.408-.802.992-1.098.103-.969.183-2.048.214-3.207-.419-.349-1.05-.519-1.05-.866 0-.457.673-.853 1.05-1.18-.03-1.162-.11-2.24-.212-3.207-.632-.384-.617-.676-.66-1.004-.047-.357.06-.695.39-1.041-.271-1.708-.556-2.759-.579-2.841z" opacity=".5"/><path d="m17.419 7.77h4.381c-.08-.755-.174-1.441-.27-2.045h-4.193c-.089-1.875-.199-3.357-.275-4.27-.629-.109-1.329-.212-2.078-.292.119 1.322.416 5.06.454 9.814h-6.869c.039-4.722.336-8.484.455-9.813-.749.08-1.448.183-2.078.292-.076.915-.186 2.398-.275 4.269h-4.191c-.096.605-.19 1.292-.27 2.045h4.379c-.033 1.003-.056 2.078-.065 3.207h-4.528c-.009.335-.014.676-.014 1.023s.005.688.014 1.022h4.528c.009 1.131.033 2.206.065 3.207h-4.382c.08.755.174 1.441.27 2.045h4.193c.089 1.875.199 3.357.275 4.27.629.109 1.329.212 2.078.292-.119-1.321-.416-5.056-.454-9.814h6.869c-.039 4.722-.336 8.484-.455 9.813.749-.08 1.448-.183 2.078-.292.076-.915.186-2.399.275-4.269h4.192c.096-.605.19-1.292.27-2.045h-4.38c.033-1.003.056-2.078.065-3.207h4.528c.009-.334.009-1.711 0-2.045h-4.528c-.009-1.131-.033-2.206-.065-3.207z"/></svg>