<svg id="Layer_1" viewBox="0 0 24 24" xmlns="http://www.w3.org/2000/svg" data-name="Layer 1"><path d="m9.971 1.166c-3.851 0-8.971.931-8.971 8.983 0 7.4 4.325 8.786 8.015 8.961.282.321.767.614 1.078.614.352 0 .707-.291.959-.62 3.662-.201 7.89-1.638 7.89-8.955 0-8.052-5.12-8.983-8.971-8.983z" opacity=".5"/><path d="m9.971 11.581c-.856 0-1.431-.575-1.431-1.432s.575-1.432 1.431-1.432 1.431.575 1.431 1.432-.575 1.432-1.431 1.432z"/><path d="m23 10.149c0-1.461-.555-3.202-3.199-3.202s-3.199 1.741-3.199 3.202.555 3.202 3.199 3.202c.347 0 .658-.03.936-.086-.739 4.034-3.035 6.551-6.854 7.497-.704.174-1.44.019-2.014-.431-.405-.317-.686-.747-.816-1.228-.368.02-.73.028-1.081.028-.312 0-.632-.006-.956-.022.156 1.101.728 2.098 1.622 2.797.777.608 1.713.926 2.672.926.351 0 .706-.042 1.056-.129 5.63-1.394 8.614-5.71 8.636-12.482 0-.024 0-.049 0-.073z"/></svg>