<svg id="Layer_1" viewBox="0 0 24 24" xmlns="http://www.w3.org/2000/svg" data-name="Layer 1"><path d="m13.263 10.851c-.19-2.579-2.351-4.62-4.979-4.62-2.753 0-4.993 2.239-4.993 4.99 0 .076.002.151.005.226-1.363.511-2.324 1.826-2.324 3.356 0 1.976 1.608 3.583 3.584 3.583h7.119c2.171 0 3.937-1.765 3.937-3.935 0-1.578-.95-2.982-2.35-3.601z" opacity=".5"/><path d="m18.86 14.707c-.19-2.579-2.351-4.62-4.979-4.62-2.753 0-4.993 2.239-4.993 4.99 0 .076.002.151.005.226-1.363.511-2.324 1.826-2.324 3.356 0 1.976 1.608 3.583 3.584 3.583h7.119c2.171 0 3.937-1.765 3.937-3.935 0-1.578-.95-2.982-2.35-3.601z"/><path d="m14.528 8.117c2.917.272 5.346 2.37 6.097 5.157.216-.151.414-.307.578-.471.646-.651 1.451-1.46 1.772-2.87.073-.321-.017-.658-.239-.9-.225-.243-.556-.36-.879-.312-.358.052-.751.08-1.201.085-2.598.031-4.139-.629-4.179-4.086-.008-.661.045-1.247.158-1.742.072-.321-.018-.658-.241-.9-.224-.242-.555-.358-.878-.311-1.801.261-2.939 1.011-3.938 2.604-.1.166-.198.358-.292.562 1.387.672 2.542 1.786 3.241 3.184z" opacity=".5"/></svg>