<svg id="Layer_1" viewBox="0 0 24 24" xmlns="http://www.w3.org/2000/svg" data-name="Layer 1"><path d="m20.322 2.954c-.08-.333-.326-.604-.649-.716-.146-.051-3.642-1.238-7.673-1.238-1.124 0-2.204.093-3.168.224-.299.471-.652.832-.995.893-.324.058-.737-.327-1.005-.545-.14.03-.274.059-.401.088-1.65.376-2.896 1.756-3.174 3.515-.256 1.618-.561 4.167-.561 7.119 0 2.83.278 5.271.512 6.82.076.501.234.971.459 1.397.41.105.884-.03 1.191.273.332.327.433.937.721 1.566.394.186.821.309 1.268.358 1.778.194 3.513.292 5.153.292 3.989 0 7.379-.588 7.521-.613.392-.069.705-.362.799-.748.025-.101.392-1.631.67-4.017-.54-.261-1.275-.8-1.242-1.156.03-.314.822-.629 1.432-.844.075-1.023.123-2.142.123-3.329 0-5.093-.881-8.917-.981-9.339z" opacity=".5"/><path d="m8.832 15.622v-14.398c-.748.102-1.426.226-2 .348v14.261c-1.719.562-3.011 2.189-3.139 4.168l-.026.509c.429.81 1.1 1.457 1.911 1.839l.112-2.234c.091-1.398 1.172-2.493 2.463-2.493h12.837c.072-.613.137-1.283.19-2z"/></svg>