<svg id="Layer_1" viewBox="0 0 24 24" xmlns="http://www.w3.org/2000/svg" data-name="Layer 1"><path d="m5.311 14.125c-2.86 0-4.311 1.473-4.311 4.376 0 2.944 1.41 4.375 4.311 4.375 2.859 0 4.31-1.472 4.31-4.375 0-2.944-1.41-4.376-4.31-4.376z"/><path d="m18.466 12.051c-2.859 0-4.31 1.473-4.31 4.376 0 2.944 1.41 4.375 4.311 4.375 2.859 0 4.31-1.472 4.31-4.375 0-2.944-1.41-4.376-4.311-4.376z"/><path d="m22.088 2.783c-.096-.175-.241-.316-.417-.407-.127-.065-3.139-1.597-6.648-1.18-4.293.516-6.635 3.396-6.732 3.519-.076.096-.135.206-.172.324-.034.108-.835 2.717-.835 7.521 0 1.713.096 3.475.276 5.096.058.511.49.889.993.889.037 0 .074-.002.112-.006.549-.062.943-.557.883-1.105-.173-1.548-.265-3.233-.265-4.873 0-.479.009-.935.024-1.368.356-.495 2.438-3.179 5.954-3.6 2.542-.307 4.819.326 5.72.629.013.38.02.789.02 1.228 0 1.867-.127 4.576-.277 5.916-.062.549.334 1.044.883 1.105.554.062 1.044-.334 1.105-.883.156-1.4.289-4.211.289-6.139 0-4.862-.819-6.495-.912-6.665zm-7.065 2.822c-2.377.285-4.207 1.38-5.457 2.427.152-1.138.326-1.885.411-2.21.47-.511 2.293-2.281 5.285-2.641 2.277-.278 4.383.487 5.166.821.107.334.275.989.402 2.079-1.305-.359-3.435-.761-5.806-.477z" opacity=".5"/></svg>