<svg id="Layer_1" viewBox="0 0 24 24" xmlns="http://www.w3.org/2000/svg" data-name="Layer 1"><path d="m12 1c-3.521 0-8.204.852-8.204 8.218 0 4.235 1.492 6.769 4.562 7.743.098.031.2.047.302.047l6.654.003c.103 0 .204-.016.301-.047 3.087-.975 4.588-3.508 4.588-7.746 0-7.366-4.682-8.218-8.203-8.218z" opacity=".5"/><path d="m15.521 14.615c-2.304-.656-4.737-.656-7.04 0-.43.123-.726.516-.726.962 0 1.801.808 3.474 2.217 4.589l1.029.816v1.018c0 .553.448 1 1 1s1-.447 1-1v-1.018l1.029-.816c1.409-1.116 2.217-2.789 2.217-4.589 0-.446-.296-.839-.726-.962z"/><circle cx="14.599" cy="6.916" r="1"/><circle cx="15.133" cy="9.904" r="1"/><circle cx="12.151" cy="9.369" r="1"/><circle cx="12.685" cy="12.357" r="1"/><circle cx="9.703" cy="11.822" r="1"/></svg>