<svg id="Layer_1" viewBox="0 0 24 24" xmlns="http://www.w3.org/2000/svg" data-name="Layer 1"><path d="m21.793 4c-.112-.319-.378-.559-.706-.639-.172-.042-4.257-1.025-9.087-1.025-4.744 0-8.907.982-9.082 1.024-.333.08-.601.323-.712.646-.01.029-.066.194-.149.475.155.372.658 1.526.553 1.96-.089.368-.481.265-1.106.353-.265 1.38-.503 3.184-.503 5.207 0 4.458 1.156 7.852 1.206 7.994.112.324.383.568.717.646.178.042 4.42 1.023 9.078 1.023 4.819 0 8.914-.983 9.086-1.025.33-.08.596-.322.708-.643.049-.141 1.206-3.51 1.206-7.996 0-2.04-.236-3.839-.499-5.211-.654-.156-.893-.163-.98-.521-.105-.434.272-1.391.432-1.76-.089-.301-.15-.477-.161-.507z" opacity=".5"/><path d="m21.953 4.507c-1.558 1.569-3.956 3.91-5.598 5.177s-3.499 2.381-4.355 2.875c-.857-.495-2.713-1.609-4.356-2.876-1.21-.933-2.792-2.412-4.141-3.73-.036-.053-.077-.103-.124-.149l-1.323-1.323c-.139.47-.353 1.27-.553 2.313 1.494 1.481 3.436 3.33 4.919 4.474 2.338 1.804 4.986 3.258 5.098 3.319.15.082.315.123.48.123s.33-.041.479-.123c.112-.061 2.76-1.515 5.098-3.319 1.451-1.119 3.393-2.965 4.923-4.479-.197-1.025-.407-1.809-.547-2.281z"/></svg>