<svg id="Layer_1" viewBox="0 0 24 24" xmlns="http://www.w3.org/2000/svg" data-name="Layer 1"><path d="m18.438 7.498c-2.682 0-3.245-1.763-3.245-3.241s.563-3.242 3.245-3.242 3.244 1.763 3.244 3.242-.563 3.241-3.244 3.241zm0-4.483c-.964 0-1.245.163-1.245 1.242s.28 1.241 1.245 1.241 1.244-.163 1.244-1.241-.28-1.242-1.244-1.242z"/><path d="m13.61 10.101c-.011-1.732-.039-4.556-.081-5.199-.142-2.188-2.005-3.901-4.241-3.901s-4.099 1.714-4.241 3.901c-.041.643-.07 3.5-.081 5.2-1.78 1.069-2.648 3.03-2.648 5.969 0 6.211 3.978 6.93 6.97 6.93s6.971-.719 6.971-6.93c0-2.939-.868-4.9-2.648-5.97z" opacity=".5"/><path d="m10.288 13.303v-7.37c0-.553-.448-1-1-1s-1 .447-1 1v7.37c-1.138.409-1.954 1.495-1.954 2.768 0 1.622 1.325 2.941 2.954 2.941s2.955-1.319 2.955-2.941c0-1.273-.816-2.359-1.955-2.768z"/></svg>