<svg id="Layer_1" viewBox="0 0 24 24" xmlns="http://www.w3.org/2000/svg" data-name="Layer 1"><path d="m22.42 5.553c-.036-.2-.133-.385-.277-.529l-3.14-3.141c-.144-.145-.329-.241-.53-.277-.14-.025-.288-.051-.441-.077-1.359.919-3.918 3.686-6.251 3.686-2.286 0-4.386-2.699-5.813-3.686-1.811.305-2.997.634-3.088.66-.329.093-.588.347-.687.674-.049.161-1.193 4.007-1.193 9.139 0 5.175 1.146 8.982 1.194 9.142.1.326.358.578.686.671.172.048 4.272 1.188 9.121 1.188s8.948-1.14 9.12-1.188c.329-.093.588-.347.687-.674.049-.161 1.193-4.007 1.193-9.139 0-2.146-.195-4.314-.58-6.447z" opacity=".5"/><path d="m12 10.056c-2.837 0-4.276 1.438-4.276 4.276s1.438 4.275 4.276 4.275 4.276-1.438 4.276-4.275-1.438-4.276-4.276-4.276z"/><path d="m17.66 6.839c.235-.19.372-.477.372-.778v-4.532c-1.53-.257-3.699-.529-6.032-.529-2.286 0-4.409.255-6.032.528v4.533c0 .289.125.563.343.754.227.197 1.565 1.183 5.689 1.183 4.022 0 5.421-.965 5.66-1.158z"/></svg>