<svg id="Layer_1" viewBox="0 0 24 24" xmlns="http://www.w3.org/2000/svg" data-name="Layer 1"><path d="m19.903 3.051c-.147-.562-.531-1.048-1.172-1.486-1.86-1.271-3.059-.114-3.607.689-.511.746-.681 1.461-.507 2.125.147.562.531 1.048 1.172 1.487.596.407 1.124.565 1.584.565.976 0 1.649-.709 2.022-1.255.511-.746.681-1.461.507-2.125z"/><path d="m18.33 9.173-7.868-5.282c-1.352-.847-3.003-1.077-4.537-.625-.53.156-.833.712-.677 1.242s.712.834 1.242.677c.982-.288 2.043-.143 2.883.383l.785.527c-1.854 1.163-3.022 2.682-3.708 4.778-.172.525.114 1.089.639 1.261.103.034.208.05.311.05.421 0 .812-.268.95-.689.635-1.941 1.711-3.169 3.664-4.154l5.2 3.491c.171.115.365.17.557.17.322 0 .638-.155.831-.442.308-.459.186-1.08-.272-1.388z"/><path d="m21.861 16.944c-.963 0-1.836-.395-2.465-1.032-.629.637-1.502 1.032-2.465 1.032s-1.836-.395-2.465-1.032c-.629.637-1.502 1.032-2.465 1.032s-1.836-.395-2.465-1.032c-.629.637-1.502 1.032-2.465 1.032s-1.836-.395-2.465-1.032c-.628.637-1.501 1.032-2.465 1.032-.552 0-1-.448-1-1s.448-1 1-1c.808 0 1.465-.656 1.465-1.463 0-.552.448-1 1-1s1 .448 1 1c0 .807.657 1.463 1.465 1.463s1.465-.656 1.465-1.463c0-.552.448-1 1-1s1 .448 1 1c0 .807.657 1.463 1.465 1.463s1.465-.656 1.465-1.463c0-.552.448-1 1-1s1 .448 1 1c0 .807.657 1.463 1.465 1.463s1.465-.656 1.465-1.463c0-.552.448-1 1-1s1 .448 1 1c0 .807.657 1.463 1.465 1.463.552 0 1 .448 1 1s-.448 1-1 1z" opacity=".5"/><path d="m21.861 23.001c-.963 0-1.836-.395-2.465-1.032-.629.637-1.502 1.032-2.465 1.032s-1.836-.395-2.465-1.032c-.629.637-1.502 1.032-2.465 1.032s-1.836-.395-2.465-1.032c-.629.637-1.502 1.032-2.465 1.032s-1.836-.395-2.465-1.032c-.628.637-1.501 1.032-2.465 1.032-.552 0-1-.448-1-1s.448-1 1-1c.808 0 1.465-.656 1.465-1.463 0-.552.448-1 1-1s1 .448 1 1c0 .807.657 1.463 1.465 1.463s1.465-.656 1.465-1.463c0-.552.448-1 1-1s1 .448 1 1c0 .807.657 1.463 1.465 1.463s1.465-.656 1.465-1.463c0-.552.448-1 1-1s1 .448 1 1c0 .807.657 1.463 1.465 1.463s1.465-.656 1.465-1.463c0-.552.448-1 1-1s1 .448 1 1c0 .807.657 1.463 1.465 1.463.552 0 1 .448 1 1s-.448 1-1 1z" opacity=".5"/></svg>