<svg id="Layer_1" viewBox="0 0 24 24" xmlns="http://www.w3.org/2000/svg" data-name="Layer 1"><path d="m21.824 18.944c.071-.004.287-.372.341-.964.065-.588.098-1.174.098-1.752 0-1.276-.157-2.63-.279-3.489-.069-.327-.952-1.514-4.496-1.514-2.296 0-3.947 1.329-3.959 1.514-.024.168-.049.354-.074.555l.407 2.606c.067.067.125.145.171.231 0 0 .638 1.197.774 1.535.504.217.523 1.089.722 1.068-.155.013 5.458.254 6.295.209z" opacity=".5"/><path d="m10.513 7.299c.108-.122.196-.264.235-.431.668-2.896.665-2.977.659-3.137-.017-.464-.351-.856-.806-.945-.605-.119-2.056-.308-3.37-.308-1.304 0-2.753.189-3.36.308-.456.089-.79.481-.807.946-.006.155-.009.24.65 3.134.038.17.127.315.239.439l-1.701 10.734c-.071.45.17.891.587 1.073.735.321 3.221 1.365 4.39 1.365h.005c1.169-.003 3.659-1.063 4.395-1.389.415-.183.654-.623.583-1.071l-1.698-10.719z" opacity=".5"/><path d="m12.742 17.951c-.137-.254-.376-.437-.657-.501-3.176-.729-6.531-.729-9.707 0-.283.065-.523.25-.659.505-.029.055-.719 1.372-.719 3.102 0 .288.02.564.05.824.06.503.486.882.993.882h10.377c.507 0 .934-.379.993-.883.03-.26.05-.536.05-.824 0-1.744-.691-3.051-.721-3.105z"/><path d="m7.231 4.317c-.553 0-1-.448-1-1v-1.081c0-.552.447-1 1-1s1 .448 1 1v1.081c0 .552-.447 1-1 1z"/><path d="m10.575 7.92h-6.687c-.553 0-1-.448-1-1s.447-1 1-1h6.688c.553 0 1 .448 1 1s-.447 1-1 1z"/><path d="m22.619 18.41c-.102-.19-.262-.34-.454-.43-.064-.03-.131-.053-.201-.069-.736-.169-1.483-.292-2.235-.371-.584-.048-1.26-.084-1.973-.084-.722 0-2.633.162-2.949.212.184.46.402 1.122.534 1.925.143.546.116 1.171.116 1.171.003.097.005.194.005.293 0 .37-.024.725-.063 1.059l-.075.637v.011s6.641 0 6.641 0c.049 0 .257-.011.257-.011.504 0 .928-.376.989-.876.027-.23.045-.474.045-.728 0-1.51-.572-2.617-.637-2.738z"/><path d="m22.358 10.239c0-.552-.447-1-1-1s-1 .448-1 1v.714h-1.602v-.721c0-.552-.447-1-1-1s-1 .448-1 1v.721h-1.596v-.721c0-.552-.447-1-1-1s-1 .448-1 1v1.721c0 .552.447 1 1 1h7.21c.553 0 .984-.448.984-1 0-.111.004-1.714.004-1.714z"/></svg>