<svg id="Layer_1" viewBox="0 0 24 24" xmlns="http://www.w3.org/2000/svg" data-name="Layer 1"><path d="m21.762 6.489c-.134-.297-.404-.511-.724-.572-.032-.006-.196-.037-.475-.084-.78-.131-4.572-1.604-4.572-1.604s-2.555.888-3.97.888c-.007 0-.014 0-.021 0-1.687 0-3.28.096-4.649.22v-1.242c-.038-.937-.447-1.253-1-1.253s-1 .017-1 .569v2.143c-1.408.179-2.309.347-2.388.362-.322.062-.593.277-.727.576-.05.113-1.236 2.822-1.236 6.419 0 3.628 1.188 6.311 1.238 6.423.134.297.404.511.724.572.047.009.386.073.953.162.232.377.59.792.94.839.326.045.686-.226 1.06-.569 1.619.189 3.765.367 6.085.367s4.464-.179 6.085-.368c.361-.042.695-.084 1-.126.384-.052.72-.101 1-.145.566-.088.905-.152.952-.161.322-.062.593-.277.727-.576.05-.113 1.236-2.822 1.236-6.419 0-3.628-1.188-6.311-1.238-6.423zm-10.868 9.629c-.711.711-1.741 1.057-3.147 1.057h-.032c-2.805-.011-4.231-1.448-4.241-4.272-.003-.921.102-2.254 1.045-3.197.711-.711 1.741-1.057 3.147-1.057h.032c2.448.009 3.845 1.106 4.168 3.263 0 0-.589.448-.589 1s.603 1 .603 1c-.096.749-.346 1.566-.986 2.206zm9.121-.838s-.677.084-1.068.474-.351.936-.351.936c-.622.316-1.381.486-2.323.486h-.032c-2.803-.011-4.229-1.448-4.241-4.271-.003-.921.102-2.254 1.045-3.197.716-.717 1.713-1.062 3.181-1.057 2.803.011 4.229 1.448 4.241 4.271.002.672-.057 1.561-.452 2.359zm-1.929 5.059c.275.354.695.688 1 .646.384-.052.816-.405 1-.917" opacity=".5"/><path d="m8.266 4.252h-3.829c-.553 0-1-.448-1-1s.447-1 1-1h3.829c.553 0 1 .448 1 1s-.447 1-1 1z"/><path d="m20.563 5.833v-1.069c0-.459-.378-.876-.824-.987-2.253-.558-4.561-.677-6.856-.356-.494.069-.861.492-.861.99v.706c3.909.002 7.321.51 8.542.716z"/><path d="m7.676 12.912c0 .552.447 1 1 1h3.204c.046-.356.031-.695.03-.992-.001-.358.002-.694-.045-1.008h-3.189c-.553 0-1 .448-1 1z"/><path d="m19.358 16.118c.028-.028.056-.056.083-.084.233-.238.439-.475.573-.754l-2.652-2.653c-.391-.391-1.023-.391-1.414 0-.391.39-.391 1.023 0 1.414l2.648 2.649c.29-.152.538-.348.762-.572z"/><path d="m18.085 20.748c0 .552.447 1 1 1s1-.448 1-1v-.68c-.503.078-1.183.175-2 .27v.409z"/><path d="m3.915 20.748c0 .552.447 1 1 1s1-.448 1-1v-.409c-.818-.095-1.497-.192-2-.271z"/></svg>