<svg id="Layer_1" viewBox="0 0 24 24" xmlns="http://www.w3.org/2000/svg" data-name="Layer 1"><path d="m13.885 11.586c-.19-2.579-2.351-4.62-4.979-4.62-2.753 0-4.993 2.239-4.993 4.99 0 .076.002.151.005.226-1.363.511-2.324 1.826-2.324 3.356 0 1.976 1.608 3.583 3.584 3.583h7.119c2.171 0 3.937-1.765 3.937-3.935 0-1.578-.95-2.982-2.35-3.601z" opacity=".5"/><path d="m19.435 15.451c-.19-2.579-2.351-4.62-4.979-4.62-2.753 0-4.993 2.239-4.993 4.99 0 .076.002.151.005.226-1.363.511-2.324 1.826-2.324 3.356 0 1.976 1.608 3.583 3.584 3.583h7.119c2.171 0 3.937-1.765 3.937-3.935 0-1.578-.95-2.982-2.35-3.601z"/><path d="m21.457 7.122h-1.173c.038.352.05.692.05 1-.018.357-.048.679-.095 1h1.218c.553 0 1-.448 1-1s-.447-1-1-1z"/><path d="m20.356 3.09c-.388-.393-1.022-.397-1.414-.008l-.671.664c.072.04.142.082.21.126.387.254.941.794 1.215 1.277l.652-.645c.393-.389.396-1.021.008-1.414z"/><path d="m15.271 3.101c.354 0 .686.02 1 .055v-1.155c0-.552-.447-1-1-1s-1 .448-1 1v1.153c.315-.035.645-.052 1-.052z"/><path d="m11.428 4.379c.012-.013.023-.025.036-.037.042-.041.085-.081.129-.121.195-.175.411-.329.649-.463.007-.004.016-.007.024-.011l-.657-.664c-.389-.393-1.021-.396-1.414-.008s-.397 1.022-.008 1.414l.662.669c.162-.291.355-.551.579-.779z"/><path d="m10.81 5.239c1.879.543 3.471 1.866 4.347 3.628 1.764.178 3.34 1.032 4.479 2.292.095-.181.181-.37.253-.569.156-.448.273-.935.35-1.468.518-.203.771-.649.788-1 0-.309-.27-.699-.741-1-.07-.65-.231-1.345-.589-1.973.013-.457-.084-.878-.547-1.341-.193-.193-.717-.082-.879-.062-.556-.31-1.217-.506-1.999-.593-.302-.209-.664-.592-1.018-.592s-.674.406-.983.591c-.785.087-1.451.284-2.006.593-.008.004-.059-.021-.067-.016-.396-.078-.729-.158-.925.017-.044.04-.16.179-.202.22-.013.012-.072.047-.084.06-.214.218-.136.719-.139 1.132-.013.022-.003.005-.015.028-.009.016-.015.036-.024.053z" opacity=".5"/></svg>