<svg id="Layer_1" viewBox="0 0 24 24" xmlns="http://www.w3.org/2000/svg" data-name="Layer 1"><path d="m21.477 2.323c-1.635-1.638-4.212-1.885-6.127-.583l-.037.025c-3.413 2.32-6.163 5.515-7.954 9.238l-.389.808.2 1.573s-.97 0-1.47-.088c-1.486 1.014-2.728 2.371-3.607 3.947l-.083.149c-.269.483-.094 1.092.388 1.36.399.222 2.451 2.267 2.665 2.666.18.336.525.527.882.527.16 0 .321-.038.472-.119 1.653-.887 3.068-2.166 4.119-3.717-.021-.424-.145-1.573-.145-1.573l1.595.324.777-.373c3.755-1.802 6.971-4.583 9.299-8.04 1.291-1.915 1.043-4.491-.587-6.125z" opacity=".5"/><path d="m20.772 17.165c-1.534-1.537-3.092-1.513-4.604.001-1.05 1.051-1.902 2.703-.001 4.606.761.762 1.51 1.132 2.292 1.133.793 0 1.55-.371 2.312-1.133 1.05-1.052 1.902-2.704 0-4.607z"/><path d="m6.299 22.693c-.256 0-.512-.098-.708-.293l-4.167-4.174c-.39-.391-.39-1.024 0-1.414.391-.39 1.023-.39 1.414 0l4.167 4.173c.39.391.39 1.024 0 1.414-.195.195-.451.292-.707.292z"/><path d="m11.783 16.565-4.58-4.58c-.071-.071-.15-.129-.233-.174l-.466.97s-.691.44-.803.516c.027.035.056.069.089.102l4.58 4.58c.051.051.107.096.166.134.1-.147.504-.798.504-.798l.948-.455c-.048-.107-.116-.207-.204-.295z"/></svg>