<svg id="Layer_1" viewBox="0 0 24 24" xmlns="http://www.w3.org/2000/svg" data-name="Layer 1"><path d="m19.875 7.983c-.121-.312-.664-.539-.991-.613-.12-.027-.811-.941-4.594-1.135l-2.29-.27-1.817.18c-.018 0-.612.089-.631.09-3.611.207-4.551.785-4.666.811-.328.073-1.394.389-1.513.703-.036.095 1.117 2.072-1.865 3.871-.102.829-.169 1.744-.169 2.717 0 4.037 1.13 7.016 1.178 7.141.12.312.389.543.715.617.126.028 2.451.54 5.617.782.304-.304.611-.84.945-.822s.663.641 1.055.929c.378.011.762.017 1.151.017s.774-.006 1.151-.017c.288-.601.71-.78 1.058-.799.319-.018.74.244.942.692 3.162-.241 5.49-.753 5.616-.781.328-.073.597-.306.717-.62.048-.126 1.177-3.135 1.177-7.138 0-.976-.066-1.89-.167-2.717-2.908-2.322-2.583-3.542-2.619-3.637z" opacity=".5"/><path d="m18.025 14.939h-1.007c-.553 0-1-.448-1-1s.447-1 1-1h1.007c.553 0 1 .448 1 1s-.447 1-1 1z"/><path d="m18.025 18.547h-1.007c-.553 0-1-.448-1-1s.447-1 1-1h1.007c.553 0 1 .448 1 1s-.447 1-1 1z"/><path d="m6.983 14.939h-1.007c-.552 0-1-.448-1-1s.448-1 1-1h1.007c.552 0 1 .448 1 1s-.448 1-1 1z"/><path d="m6.983 18.547h-1.007c-.552 0-1-.448-1-1s.448-1 1-1h1.007c.552 0 1 .448 1 1s-.448 1-1 1z"/><path d="m12 10.678c-.95 0-1.724.77-1.724 1.716s.773 1.716 1.724 1.716 1.724-.77 1.724-1.716-.773-1.716-1.724-1.716z"/><path d="m22.161 9.62c-.309-1.453-.651-2.356-.677-2.423-.121-.312-.389-.543-.716-.617-.116-.026-2.772-.612-6.347-.829l-.387-.534c-.148-.204-.324-.383-.52-.534l.591-.325c.368-.202.596-.587.596-1.005s-.228-.804-.595-1.005l-2.188-1.204c-.36-.198-.787-.192-1.141.018-.353.208-.564.578-.564.987v2.631c-.149.129-.284.275-.401.438l-.392.542c-3.469.221-6.076.796-6.189.821-.328.073-.598.306-.717.62-.026.068-.365.973-.673 2.42-.124.585-.244 1.258-.335 2h3.268c1.8 0 3.5-.866 4.549-2.316l2.109-2.915c.162-.224.397-.248.49-.248s.329.024.49.248l2.109 2.915c1.049 1.45 2.75 2.316 4.55 2.316h3.422c-.091-.743-.209-1.416-.333-2z"/><path d="m12 16.325c-1.738 0-3.151 1.409-3.151 3.141v3.411c.636.048 1.307.086 2 .107v-3.518c0-.629.517-1.141 1.151-1.141s1.151.512 1.151 1.141v3.518c.693-.021 1.363-.058 2-.107v-3.411c0-1.732-1.414-3.141-3.151-3.141z"/></svg>