<svg id="Layer_1" viewBox="0 0 24 24" xmlns="http://www.w3.org/2000/svg" data-name="Layer 1"><path d="m21.571 11.78-.021-.044c-.304-.669-.698-1.356-1.08-2.02l-.039-.068s-.856-.418-.934-.682c-.124-.416.229-1.023.414-1.442.031-.3.11-.586.237-.845.383-.78.496-1.652.327-2.522-.306-1.57-1.567-2.813-3.141-3.093-1.159-.207-2.336.104-3.229.852-.896.751-1.411 1.854-1.411 3.025 0 .559.115 1.099.341 1.607.14.314.231.635.275.954.175.419.706 1.032.599 1.425-.065.237-1.095.722-1.095.722l-.024.041c-.267.463-.539.938-.79 1.423-.245-.473-.519-.95-.787-1.415l-.028-.049s-1.237-.316-1.315-.571c-.13-.424.752-1.145.795-1.552.032-.3.11-.587.238-.847.382-.78.496-1.651.326-2.521-.305-1.57-1.567-2.813-3.141-3.093-1.159-.207-2.336.104-3.229.852-.897.751-1.412 1.854-1.412 3.025 0 .558.115 1.099.341 1.607.14.314.231.635.275.955.201.377 1.001 1.377.914 1.742-.064.271-.707.369-1.064.368l-.346.036-.03.051c-.385.67-.784 1.363-1.11 2.082-1.344 2.938-.415 6.226.561 9.078.047.138.124.264.225.369 1.098 1.144 2.577 1.773 4.163 1.773s3.064-.63 4.162-1.773c.101-.105.178-.231.225-.369.079-.232.158-.466.236-.703.077.237.156.471.236.703.047.138.124.264.225.369 1.098 1.144 2.577 1.773 4.163 1.773 1.586 0 3.063-.63 4.161-1.773.101-.105.177-.23.225-.368.977-2.852 1.906-6.14.562-9.078z" opacity=".5"/><path d="m16.623 10.789c1.38 0 2.69-.398 3.808-1.141l-.063-.111c-.369-.644-.525-1.36-.457-2.013-.901.818-2.057 1.265-3.288 1.265-1.243 0-2.408-.455-3.314-1.288.091.67-.029 1.333-.358 1.907l-.137.239c1.118.743 2.429 1.141 3.809 1.141z"/><path d="m11.122 9.537c-.37-.643-.525-1.36-.457-2.012-.902.818-2.057 1.264-3.288 1.264-1.243 0-2.407-.455-3.313-1.287.091.669-.03 1.333-.358 1.907l-.137.239c1.118.743 2.429 1.142 3.809 1.142s2.691-.398 3.808-1.141l-.063-.111z"/></svg>