<svg id="Layer_1" viewBox="0 0 24 24" xmlns="http://www.w3.org/2000/svg" data-name="Layer 1"><path d="m19.3 8.98c-.09-4.04-3.33-7.29-7.31-7.29-4.04 0-7.32 3.35-7.32 7.46 0 .27.01.54.04.8-2.15.62-3.71 2.63-3.71 4.99 0 1.22.42 2.41 1.2 3.34.5.6 1.25.94 2.07.94h7.22l.536-.481.635.481h6.989c.84-.01 1.67-.68 2.15-1.31.79-1.02 1.2-2.24 1.2-3.54 0-2.43-1.51-4.57-3.7-5.39zm-6.3 7.88c0 .55-.45 1-1 1s-1-.45-1-1v-2.87c0-.56.45-1 1-1s1 .44 1 1z" opacity=".5"/><path d="m18.27 20.43c-.1-.41-.21-.82-.33-1.21-1.55-5-5.06-8.81-5.23-8.99-.37-.4-1.05-.4-1.42 0-.17.18-3.68 3.99-5.23 8.99-.12.39-.23.8-.33 1.21-.12.55.19 1.11.71 1.26 1.82.53 3.69.79 5.56.79s3.74-.26 5.56-.79c.52-.15.83-.71.71-1.26zm-7.27-6.44c0-.56.45-1 1-1s1 .44 1 1v2.87c0 .55-.45 1-1 1s-1-.45-1-1zm1 7.22c-.55 0-1-.45-1-1 0-.52.4-.94.9-.99.03-.01.07-.01.1-.01s.07 0 .1.01c.5.05.9.47.9.99 0 .55-.45 1-1 1z"/></svg>