<svg id="Layer_1" viewBox="0 0 24 24" xmlns="http://www.w3.org/2000/svg" data-name="Layer 1"><path d="m19.329 1.396c-.671-.378-1.275-.485-1.843-.324-.571.161-1.051.585-1.427 1.26-.438.787-.9 2.258.914 3.279.47.264.906.395 1.32.395.179 0 .353-.024.522-.072.57-.161 1.05-.585 1.426-1.26.438-.787.901-2.258-.913-3.279z"/><path d="m18.286 23.001c-.365 0-.733-.057-1.092-.171l-12.784-4.089c-1.884-.603-2.929-2.633-2.33-4.526.167-.526.725-.819 1.255-.652.526.167.818.729.651 1.255-.267.846.196 1.751 1.033 2.019l1.591.509 1.796-.298.542 1.046 6.517 2.084 1.015-.683 1.072 1.351.25.08c.398.128.827.093 1.203-.102.38-.196.66-.531.791-.942.167-.525.727-.82 1.255-.651.526.167.818.729.651 1.255-.292.921-.924 1.672-1.779 2.115-.515.266-1.074.401-1.639.401z" opacity=".5"/><path d="m21.522 11.528c-1.379-.665-2.355-1.44-2.64-3.066-.05-.285-.222-.535-.47-.685l-6.592-3.965c-1.278-.655-2.779-.729-4.122-.198-.514.203-.765.784-.562 1.298s.785.765 1.298.562c.801-.318 1.704-.275 2.414.086l.786.473c-2.883 1.811-3.612 5.678-3.647 5.873-.061.339.058.686.312.917.91.825.863 1.406.849 1.597-.068.843-.968 1.878-2.539 2.925l2.338.748c1.362-1.148 2.098-2.325 2.194-3.513.034-.42-.011-.831-.132-1.231l2.985 1.211s0-.005.002-.012c.625.486.802.818.964 1.773.167.979.378 2.738.506 3.856l2.088.668c-.074-.675-.384-3.461-.622-4.859-.26-1.532-.742-2.252-1.712-3.016.224-.868.787-2.497 1.963-3.133.689 1.924 2.184 2.873 3.473 3.494.14.067.287.099.433.099.372 0 .729-.208.902-.566.239-.498.03-1.095-.468-1.335z"/></svg>