<svg id="Layer_1" viewBox="0 0 24 24" xmlns="http://www.w3.org/2000/svg" data-name="Layer 1"><path d="m11.971 1c-3.432 0-5.873.773-7.501 2.402-1.641 1.64-2.399 4.073-2.386 7.658.021 5.742 3.831 11.939 9.95 11.939 2.385 0 4.574-.932 6.331-2.695 2.237-2.245 3.565-5.679 3.553-9.184-.016-4.328-1.064-10.087-9.946-10.121z" opacity=".5"/><ellipse cx="16.307" cy="11.159" rx="2.333" ry="2.001"/><ellipse cx="7.693" cy="11.159" rx="2.333" ry="2.001"/><circle cx="10" cy="5.296" r="1"/><circle cx="14" cy="5.296" r="1"/><circle cx="12" cy="8.392" r="1"/><circle cx="10" cy="18.266" r="1"/><circle cx="14" cy="18.266" r="1"/><circle cx="14" cy="15.266" r="1"/><circle cx="10" cy="15.266" r="1"/></svg>