<svg id="Layer_1" viewBox="0 0 24 24" xmlns="http://www.w3.org/2000/svg" data-name="Layer 1"><path d="m16.635 15.265c-.188-.26-.489-.413-.81-.413h-1.657l.466-2.08c.083-.369-.05-.754-.343-.993-.125-.103-1.266-1.001-2.686-1.001-1.448 0-2.585.9-2.71 1.003-.166.137-.284.323-.335.532l-1.354 5.473c-.074.299-.006.614.183.856s.48.384.788.384h1.617l-.383 2.841c-.045.337.083.674.342.895.184.156.415.239.649.239.096 0 .193-.014.287-.042 4.23-1.269 6.013-6.569 6.087-6.795.1-.305.048-.639-.14-.898z"/><path d="m19.133 8.114c-.095-3.939-3.264-7.114-7.146-7.114-3.941 0-7.147 3.272-7.147 7.296 0 .258.013.515.04.77-2.094.608-3.61 2.572-3.61 4.882 0 2.15 1.336 4.075 3.327 4.789.265.095.561.143.88.143h.033l12.942-.144h.001c.399-.005.765-.085 1.088-.238 1.937-.923 3.188-2.926 3.188-5.104 0-2.373-1.471-4.472-3.598-5.278z" opacity=".5"/></svg>