<svg id="Layer_1" viewBox="0 0 24 24" xmlns="http://www.w3.org/2000/svg" data-name="Layer 1"><path d="m22.048 6.313c-.687-2.045-2.317-3.675-4.361-4.361-3.774-1.266-7.601-1.266-11.374 0-2.045.686-3.675 2.316-4.361 4.36-1.266 3.774-1.266 7.6 0 11.374.686 2.044 2.316 3.675 4.361 4.361 1.884.632 3.797.952 5.687.952 3.022 0 6.084-.398 9.101-1.183.351-.091.625-.365.716-.716.785-3.017 1.183-6.079 1.183-9.101 0-1.889-.32-3.802-.952-5.687z" opacity=".5"/><path d="m11.305 15.44c-.125 0-.25-.023-.367-.069-.194-.076-1.942-.806-3.689-3.019-.342-.434-.268-1.062.166-1.405.435-.341 1.063-.268 1.405.166 1.002 1.271 1.979 1.929 2.486 2.214.725-.409 2.404-1.58 3.772-4.226.253-.49.855-.684 1.347-.429.491.253.683.856.429 1.347-2.161 4.183-5.076 5.312-5.199 5.358-.113.042-.231.063-.35.063z"/></svg>