<svg id="Layer_1" viewBox="0 0 24 24" xmlns="http://www.w3.org/2000/svg" data-name="Layer 1"><path d="m21.84 3h-7.638c-.553 0-1-.447-1-1s.447-1 1-1h7.638c.553 0 1 .447 1 1s-.447 1-1 1z"/><path d="m21.84 6.511h-7.34c-.553 0-1-.447-1-1s.447-1 1-1h7.34c.553 0 1 .447 1 1s-.447 1-1 1z"/><path d="m21.84 10.021h-6.638c-.553 0-1-.447-1-1s.447-1 1-1h6.638c.553 0 1 .447 1 1s-.447 1-1 1z"/><path d="m21.84 13.532h-4.404c-.553 0-1-.447-1-1s.447-1 1-1h4.404c.553 0 1 .447 1 1s-.447 1-1 1z"/><path d="m12.453 10.101c-.011-1.73-.04-4.551-.082-5.199-.142-2.188-2.005-3.901-4.241-3.901s-4.099 1.714-4.241 3.901c-.041.643-.07 3.5-.081 5.2-1.78 1.069-2.648 3.03-2.648 5.969 0 6.211 3.979 6.93 6.971 6.93s6.97-.719 6.97-6.93c0-2.939-.868-4.9-2.648-5.97z" opacity=".5"/><path d="m9.13 13.303v-4.281c0-.553-.448-1-1-1s-1 .447-1 1v4.281c-1.139.409-1.955 1.495-1.955 2.768 0 1.622 1.325 2.941 2.955 2.941s2.954-1.319 2.954-2.941c0-1.273-.816-2.359-1.954-2.768z"/></svg>