<svg id="Layer_1" viewBox="0 0 24 24" xmlns="http://www.w3.org/2000/svg" data-name="Layer 1"><path d="m21.803 3.214c-.104-.324-.364-.573-.692-.662-.172-.046-4.268-1.137-9.11-1.137s-8.938 1.091-9.111 1.137c-.329.089-.591.34-.693.665-.049.155-1.197 3.853-1.197 8.783 0 1.945.176 3.69.393 5.102.338 2.198 4.396 2.171 4.724 2.259.172.046 15.755 1.202 15.841.881.324-1.214 1.042-4.343 1.042-8.243 0-4.973-1.148-8.632-1.197-8.786z" opacity=".5"/><path d="m15.958 5.404c-2.506 0-3.032 1.648-3.032 3.031s.526 3.032 3.032 3.032 3.031-1.648 3.031-3.032-.526-3.031-3.031-3.031z"/><path d="m21.405 19.51c-.733-.979-1.875-2.44-3.312-3.843-4.285-4.18-8.482-5.172-8.659-5.213-.209-.047-.43-.026-.627.061-.167.074-4.122 1.861-7.083 6.141l-.332.445c.338 2.198.775 3.591.805 3.684.103.324.364.573.692.662.172.046 4.267 1.137 9.11 1.137s8.938-1.091 9.109-1.137c.33-.089.592-.34.694-.665.01-.032.068-.22.154-.541l-.553-.732z"/></svg>