<svg id="Layer_1" viewBox="0 0 24 24" xmlns="http://www.w3.org/2000/svg" data-name="Layer 1"><path d="m15.459 11.558c-.231-.202-.542-.286-.846-.228-.168.032-.374.049-.613.049-1.052 0-1.379-.19-1.379-1.379 0-.231.018-.436.052-.609.06-.302-.022-.614-.223-.847-.201-.232-.501-.358-.805-.346-2.292.108-3.455 1.387-3.455 3.803 0 2.528 1.282 3.811 3.811 3.811 2.404 0 3.683-1.16 3.801-3.446.016-.307-.11-.604-.342-.806z"/><path d="m11.955 3.408c-.325 0-.563.361-.955.853-1.395.083-2.879.377-4.101 1.222-.497-.213-1.197-.288-1.425-.061-.244.243-.26.917.021 1.488-.656.976-1.106 2.299-1.227 4.088-.526.266-1.004.652-1.004 1.001s.616.756 1.004 1.001c.122 1.799.576 3.127 1.238 4.105-.185.422-.252 1.042-.018 1.276s1.147.284 1.412.135c1.222.846 2.706 1.14 4.101 1.222.331.503.676.83 1 .83s.803-.336 1-.83c1.395-.083 2.879-.377 4.101-1.222.345.194 1.145.061 1.359-.146.26-.252.185-.791.039-1.271.66-.978 1.113-2.305 1.234-4.103.513-.154.723-.696.723-1.043s-.399-.708-.723-.95c-.12-1.787-.569-3.11-1.223-4.086-.005-.007-.01-.014-.014-.021.233-.437.114-1.081-.1-1.302-.248-.256-.679-.172-1.295-.111-1.222-.846-2.706-1.14-4.101-1.222-.349-.389-.72-.853-1.045-.853z" opacity=".5"/><path d="m12 4.234c.324 0 .66.011 1 .032v-2.266c0-.552-.448-1-1-1s-1 .448-1 1v2.265c.34-.02.676-.032 1-.032z"/><path d="m19.778 4.222c-.391-.391-1.023-.391-1.414 0l-1.264 1.264c.525.363 1.001.827 1.401 1.421l1.278-1.271c.391-.391.391-1.023 0-1.414z"/><path d="m22 11h-2.275c.022.322.041.648.041 1s-.019.678-.041 1h2.275c.552 0 1-.448 1-1s-.448-1-1-1z"/><path d="m19.778 18.364-1.282-1.282c-.4.594-.872 1.068-1.397 1.431l1.264 1.264c.195.195.451.293.707.293s.512-.098.707-.293c.391-.391.391-1.023 0-1.414z"/><path d="m12 19.766c-.324 0-.66-.011-1-.032v2.265c0 .552.448 1 1 1s1-.448 1-1v-2.265c-.34.02-.676.032-1 .032z"/><path d="m5.503 17.082-1.282 1.282c-.391.391-.391 1.023 0 1.414.195.195.451.293.707.293s.512-.098.707-.293l1.264-1.264c-.525-.363-.996-.837-1.397-1.431z"/><path d="m4.234 12c0-.352.019-.678.041-1h-2.275c-.552 0-1 .448-1 1s.448 1 1 1h2.275c-.022-.322-.041-.648-.041-1z"/><path d="m6.9 5.486-1.264-1.264c-.391-.391-1.023-.391-1.414 0s-.391 1.023 0 1.414l1.282 1.282c.4-.594.872-1.068 1.397-1.431z"/></svg>