<svg id="Layer_1" viewBox="0 0 24 24" xmlns="http://www.w3.org/2000/svg" data-name="Layer 1"><path d="m19.165 7.419c.526-.17 1.324.211 2.043.645.296.921.986 3.401.986 6.52 0 3.876-1.075 6.792-1.121 6.914-.118.315-.387.55-.716.625-.158.036-3.925.878-8.357.878-4.284 0-8.186-.841-8.35-.876-.333-.073-.605-.31-.725-.629-.046-.123-1.12-3.06-1.12-6.911 0-3.069.689-5.579.986-6.515.698-.304.828-.431 1.255-.651h15.118z" opacity=".5"/><path d="m12 15.742c-.165 0-.33-.041-.479-.123-.1-.054-2.45-1.346-4.527-2.947-2.432-1.875-3.936-3.568-3.999-3.639-.333-.378-.333-.946 0-1.324.063-.071 1.567-1.764 3.999-3.64 2.077-1.602 4.428-2.893 4.527-2.947.299-.163.66-.163.959 0 .1.054 2.45 1.346 4.527 2.947 2.432 1.876 3.936 3.569 3.999 3.64.333.378.333.946 0 1.324-.063.071-1.567 1.764-3.999 3.639-2.077 1.602-4.428 2.893-4.527 2.947-.149.082-.314.123-.479.123z"/></svg>