<svg id="Layer_1" viewBox="0 0 24 24" xmlns="http://www.w3.org/2000/svg" data-name="Layer 1"><path d="m19.362 22.85c-.29 0-.582-.034-.87-.104l-16.726-4.034c-.537-.129-.867-.67-.738-1.207s.672-.867 1.207-.738l9.628 2.322 1.055-.949.945 1.431 5.099 1.23c.438.105.89.033 1.276-.204.4-.247.68-.639.789-1.105.125-.538.665-.875 1.201-.747.538.125.872.663.747 1.201-.23.99-.83 1.826-1.688 2.354-.589.363-1.251.549-1.924.549z" opacity=".5"/><ellipse cx="17.114" cy="3.519" rx="2.339" ry="2.369"/><path d="m14.322 12.525c-.109 0-.221-.019-.33-.057l-11.525-4.026c-.521-.182-.796-.752-.614-1.274.183-.521.753-.795 1.274-.614l11.525 4.027c.521.182.796.752.614 1.274-.144.412-.531.67-.944.67z" opacity=".5"/><path d="m4.01 10.701c-.122 0-.246-.023-.366-.07-.514-.203-.766-.783-.563-1.297l1.185-3.004c.202-.514.784-.767 1.297-.563.514.203.766.783.563 1.297l-1.185 3.004c-.155.394-.532.634-.931.634z"/><path d="m10.762 15.514c.71.76 1.101 1.759 1.101 2.813v.763l2 .482v-1.245c0-1.562-.582-3.046-1.615-4.152l-1.585-1.823c.185-1.635 1.621-3.477 3.676-3.976l2.093 2.548c.721.877 1.781 1.381 2.907 1.381h.929c.552 0 1-.448 1-1s-.448-1-1-1h-.929c-.526 0-1.022-.237-1.362-.65l-2.465-3.001c-.217-.265-.554-.399-.896-.358-3.69.456-5.974 3.681-5.974 6.407 0 .241.087.474.245.656l1.874 2.155z"/></svg>