<svg id="Layer_1" viewBox="0 0 24 24" xmlns="http://www.w3.org/2000/svg" data-name="Layer 1"><path d="m21.073 2.815c-1.17-1.187-2.89-1.815-4.974-1.815-2.114 0-4.516.641-6.767 1.726-.376.519-.592 1.294-.946 1.491-.314.175-.695-.16-1.057-.382-1.16.732-2.234 1.58-3.151 2.51-4.014 4.074-3.851 8.727.461 13.103 2.229 2.261 4.529 3.407 6.84 3.408 2.135 0 4.192-.989 6.114-2.939 1.403-1.424 2.619-3.22 3.525-5.135-.466-.473-.691-.756-.538-1.139.114-.285.517-.635 1.355-.859 1.32-3.812 1.325-7.747-.864-9.968z" opacity=".5"/><path d="m21.936 12.779h-9.299l2.295-2.328c.388-.394.383-1.027-.01-1.415s-1.026-.382-1.415.01l-4.167 4.229-.007-10.549c-.686.331-1.357.702-2.002 1.11l.009 11.469-5.908 5.993c-.388.394-.383 1.027.01 1.415.195.192.449.288.702.288.258 0 .517-.1.712-.298l7.809-7.923 10.453.002c.311-.656.584-1.328.818-2.002z"/></svg>