<svg id="Layer_1" viewBox="0 0 24 24" xmlns="http://www.w3.org/2000/svg" data-name="Layer 1"><path d="m15.804 3.157c-2.421-2.133-5.233-2.157-5.352-2.157-.497 0-.919.365-.99.857-.215 1.493-.733 2.036-2.52 2.64l-1.89.639c-.191.064-.358.185-.479.346-.894 1.189-.894 3.9 0 5.09.189.251.485.399.799.399h4.271c-.375.96-1.048 1.604-1.359 1.864-.734.092-1.453.214-2.139.364-.28.062-.52.24-.66.49-.032.056-.77 1.4-.77 3.166 0 .16.008.574.021.896.011.278.138.538.349.718.211.181.49.269.764.234.021-.002 2.161-.24 6.15-.24 4.181 0 6.078.35 6.097.354.062.012.125.018.187.018.426 0 .815-.272.952-.69.91-2.795 2.399-9.85-3.431-14.987z" opacity=".5"/><path d="m21.134 21.872c-.293-2.264-.755-3.729-.774-3.791-.104-.324-.364-.573-.692-.662-.145-.039-3.593-.957-7.668-.957s-7.522.917-7.667.957c-.33.089-.591.339-.694.665-.02.062-.479 1.534-.772 3.787-.037.285.051.573.24.789.19.216.464.34.751.34h16.284c.287 0 .562-.124.751-.34s.277-.503.241-.788z"/></svg>