<svg id="Layer_1" viewBox="0 0 24 24" xmlns="http://www.w3.org/2000/svg" data-name="Layer 1"><path d="m19.57 23h-15.14c-.552 0-1-.448-1-1s.448-1 1-1h15.141c.552 0 1 .448 1 1s-.448 1-1 1z"/><path d="m18.264 9.633c-.963 1.945-2.355 3.746-4.059 5.148-.186.153-.411.228-.635.228-.289 0-.575-.125-.773-.365-.351-.427-.289-1.057.137-1.408 1.771-1.456 3.116-3.332 3.949-5.431 0 0 .001-.001.002-.002-.951-1.063-2.001-1.907-2.84-2.499.51-.641.507-1.455.506-1.737-.008-2.225-1.604-2.563-2.554-2.567-.819.031-1.456.219-1.897.66-.658.658-.654 1.595-.653 1.902.003.796.209 1.35.516 1.735-1.005.708-2.318 1.78-3.398 3.159-3.511 4.483-3.449 9.685.152 12.649 1.484 1.222 3.36 1.024 5.282 1.024s3.798.198 5.283-1.024c3.289-2.708 3.625-7.284.981-11.472z" opacity=".5"/></svg>