<svg id="Layer_1" viewBox="0 0 24 24" xmlns="http://www.w3.org/2000/svg" data-name="Layer 1"><path d="m6.263 2.873c-2.661 0-4.01 1.356-4.01 4.03s1.349 4.031 4.01 4.031 4.011-1.356 4.011-4.031-1.35-4.03-4.011-4.03z"/><path d="m19.809 4.157c-2.175-2.193-5.415-4.577-9.604-2.102 1.333 1.027 2.069 2.689 2.069 4.848 0 1.894-.565 3.405-1.603 4.44l6.919 6.943c.73-.48 1.47-1.1 2.22-1.85 5.46-5.51 2.62-9.65 0-12.28z"/><path d="m10.67 11.344c-1.032 1.03-2.531 1.59-4.408 1.59-.449 0-.875-.032-1.28-.095.145.338.32.677.526 1.018l-2.15 1.12c-1.21.63-2.02 1.77-2.23 3.12-.22 1.35.21 2.68 1.18 3.65.8.81 1.86 1.25 2.97 1.25.22 0 .44-.02.66-.05 1.35-.21 2.48-1.03 3.11-2.25l1.11-2.17c2.46 1.49 4.92 1.41 7.43-.24l-.382-6.055z" opacity=".5"/></svg>