<svg id="Layer_1" viewBox="0 0 24 24" xmlns="http://www.w3.org/2000/svg" data-name="Layer 1"><path d="m20.335 8.715c-.601-.373-1.024-.954-1.155-1.648-.635-3.364-3.618-5.918-7.192-5.918-4.035 0-7.318 3.256-7.318 7.257 0 .252.013.504.039.754-2.149.599-3.708 2.558-3.708 4.863 0 1.548.716 2.988 1.897 3.933.664.532 1.532.78 2.382.783 0 0 4.121.001 7.969.003 2.3.001 4.498-.002 5.648-.014.286-.003.567-.051.826-.17 1.977-.908 3.278-2.901 3.278-5.086 0-1.973-1.051-3.756-2.665-4.757z" opacity=".5"/><circle cx="7.164" cy="21.852" r="1"/><circle cx="8.196" cy="18.527" r="1"/><circle cx="11.619" cy="18.527" r="1"/><circle cx="15.043" cy="18.527" r="1"/><circle cx="16.074" cy="15.203" r="1"/><circle cx="12.651" cy="15.203" r="1"/><circle cx="9.227" cy="15.203" r="1"/><circle cx="10.588" cy="21.852" r="1"/><circle cx="14.011" cy="21.852" r="1"/></svg>