<svg id="Layer_1" viewBox="0 0 24 24" xmlns="http://www.w3.org/2000/svg" data-name="Layer 1"><path d="m8.324 11.985c-.136-.409-.518-.686-.949-.686-.474 0-1.239 0-2.077.148-.34-.199-.739-.661-1.06-.557-.361.117-.71.71-.96 1.26-1.256.73-2.278 2.086-2.278 4.603 0 4.89 3.638 5.455 6.375 5.455.431 0 .813-.276.949-.686 1.02-3.075 1.02-6.464 0-9.539z" opacity=".5"/><path d="m16.625 11.3c-.431 0-.813.276-.949.686-.881 2.657-1.001 5.547-.359 8.268-.254.456-.461.779-.322 1.197.136.409.381.759 1.631.759 1.577 0 6.375 0 6.375-5.455 0-2.521-.967-3.892-2.279-4.629-.274-.517-.534-1.173-.893-1.286-.322-.101-.721.252-1.126.612-.702-.119-1.416-.152-2.077-.152z" opacity=".5"/><path d="m18.702 11.452c.706.12 1.401.326 2.019.673-.108-7.176-2.81-10.383-8.721-10.383s-8.62 3.215-8.722 10.41c.647-.376 1.356-.587 2.02-.704.269-6.36 2.882-7.706 6.702-7.706s6.434 1.347 6.702 7.71z"/><path d="m16.625 22.21c-.431 0-.813-.276-.949-.686-.139-.418-.258-.843-.359-1.271-1.064.018-2.083-.013-3.044-.091-.561-.041-1.033.366-1.077.917-.044.55.366 1.032.916 1.077.839.067 1.718.102 2.629.102.623 0 1.261-.016 1.911-.048z"/></svg>