<svg id="Layer_1" viewBox="0 0 24 24" xmlns="http://www.w3.org/2000/svg" data-name="Layer 1"><path d="m17.983 7.64c-.114-.316-.381-.554-.709-.631-.069-.016-.932-.218-2.265-.415-.412-.273-1.229-1.012-1.648-1.061-.384-.044-.33.445-.736.787-.824-.067-1.717-.111-2.644-.111-3.868 0-7.155.767-7.294.799-.329.078-.597.317-.711.635-.04.111-.977 2.759-.977 6.277 0 3.548.938 6.17.979 6.281.114.316.381.554.709.631.138.033 3.418.799 7.294.799s7.154-.767 7.293-.799c.329-.078.597-.317.711-.635.023-.063.334-.942.599-2.333.964-.62 2.017-3.944 2.017-3.944s-.878-3.011-2.015-3.944c-.266-1.397-.58-2.273-.603-2.336z" opacity=".5"/><path d="m3.718 4.634c2.633-.329 5.301-.353 8.016-.06l.892 1.747c.889.073 1.7.172 2.384.273l-1.739-3.406c-.151-.296-.534-.509-.864-.55-2.968-.363-5.975-.359-8.937.012-.548.068-.937.568-.868 1.116s.562.941 1.116.868z"/><path d="m22.437 9.424c-.063-.306-.267-.565-.548-.7-.282-.134-.61-.13-.889.013l-2.414 1.239c.202 1.058.376 2.414.376 3.944s-.176 2.882-.378 3.944l2.416 1.24c.144.074.3.11.457.11.147 0 .295-.033.432-.098.281-.135.484-.394.548-.7.748-3.614.748-5.379 0-8.994z"/></svg>