<svg id="Layer_1" viewBox="0 0 24 24" xmlns="http://www.w3.org/2000/svg" data-name="Layer 1"><path d="m20.967 5.876c-.382 0-.746-.22-.913-.59-.465-1.034-1.34-1.752-1.873-2.116-.533.363-1.408 1.081-1.873 2.115-.225.504-.816.729-1.321.503-.504-.226-.729-.817-.503-1.321.991-2.21 3.157-3.314 3.249-3.361.283-.141.613-.142.896 0 .092.046 2.256 1.15 3.249 3.359.227.504.002 1.096-.502 1.322-.134.06-.272.088-.409.088z"/><path d="m18.181 10.771c-.553 0-1-.447-1-1v-7.21c0-.553.447-1 1-1s1 .447 1 1v7.21c0 .553-.447 1-1 1z" opacity=".5"/><path d="m13.307 10.101c-.01-1.584-.037-4.534-.081-5.199-.142-2.188-2.001-3.901-4.233-3.901s-4.093 1.714-4.234 3.901c-.042.651-.07 3.505-.081 5.201-1.776 1.069-2.643 3.029-2.643 5.968 0 6.211 3.971 6.93 6.958 6.93s6.957-.719 6.957-6.93c0-2.939-.866-4.899-2.643-5.97z" opacity=".5"/><path d="m9.992 13.303v-6.175c0-.553-.447-1-1-1s-1 .447-1 1v6.175c-1.136.409-1.95 1.495-1.95 2.767 0 1.622 1.323 2.941 2.95 2.941s2.95-1.319 2.95-2.941c0-1.272-.814-2.358-1.95-2.767z"/></svg>