<svg id="Layer_1" viewBox="0 0 24 24" xmlns="http://www.w3.org/2000/svg" data-name="Layer 1"><path d="m10.932 19.198c-.298-1.552-.854-3.369-1.566-5.117-.128-.315-.408-.543-.742-.605l-4.95-.926c-.329-.063-.667.046-.9.284-.233.239-.332.58-.262.906.533 2.511 1.599 5.457 2.716 7.507.59 1.082 1.67 1.754 2.822 1.754h.003c.679 0 1.289-.22 1.814-.651.89-.732 1.299-1.939 1.066-3.151z" opacity=".5"/><path d="m21.744 10.618h-.616c-.553 0-1-.448-1-1s.447-1 1-1h.616c.553 0 1 .448 1 1s-.447 1-1 1z" opacity=".5"/><path d="m19.954 6.955c-.256 0-.512-.098-.707-.292-.391-.39-.391-1.023 0-1.414l.436-.436c.391-.392 1.023-.391 1.414 0 .391.39.391 1.023 0 1.414l-.436.436c-.194.196-.451.293-.707.293z" opacity=".5"/><path d="m20.39 14.716c-.256 0-.512-.098-.707-.293l-.436-.436c-.391-.391-.391-1.023 0-1.414s1.023-.391 1.414 0l.436.436c.391.391.391 1.023 0 1.414-.195.195-.451.293-.707.293z" opacity=".5"/><path d="m16.83 1.627c-.146-.362-.497-.59-.888-.609-.325-.023-.685.162-.881.447-.099.137-2.124 2.872-4.926 2.57-2.882-.316-4.943.035-6.164.383-1.448.413-2.507 1.717-2.636 3.245-.051.608-.079 1.1-.079 1.955s.028 1.346.079 1.954c.129 1.528 1.188 2.832 2.636 3.246 1.754.5 3.885.632 6.164.382 2.833-.324 4.875 2.498 4.88 2.499.174.331.516.537.887.537h.049c.391-.02.733-.264.879-.626.046-.114 1.129-2.865 1.129-7.99s-1.083-7.876-1.129-7.991z"/></svg>