<svg id="Layer_1" viewBox="0 0 24 24" xmlns="http://www.w3.org/2000/svg" data-name="Layer 1"><path d="m21.753 13h-12.729c-.552 0-1-.448-1-1s.448-1 1-1h12.729c.552 0 1 .448 1 1s-.448 1-1 1z" opacity=".5"/><path d="m16.447 17.865c-.374 0-.733-.211-.904-.572-.236-.499-.023-1.095.476-1.332 3.024-1.434 4.373-3.196 4.847-3.962-.474-.768-1.819-2.525-4.847-3.96-.499-.237-.712-.833-.476-1.332.237-.5.834-.712 1.332-.476 4.722 2.238 6 5.265 6.051 5.393.101.247.098.524-.006.77-.137.322-1.467 3.206-6.045 5.376-.138.065-.284.096-.428.096z"/><path d="m7.268 22.944c-2.609 0-4.979-1.074-5.079-1.12-.311-.143-.527-.435-.573-.773-.025-.184-.615-4.553-.615-9.05s.589-8.868.614-9.051c.046-.336.259-.626.566-.771.098-.045 2.428-1.123 5.086-1.123 2.707 0 4.997 1.081 5.093 1.126.313.15.526.452.563.796 0 0 .262 2.461.442 4.751.043.55-.368 1.032-.918 1.076-.553.037-1.032-.368-1.076-.918-.125-1.583-.289-3.248-.376-4.106-.729-.275-2.164-.725-3.729-.725s-3.01.457-3.742.732c-.159 1.327-.526 4.776-.526 8.212s.367 6.877.525 8.207c.746.276 2.22.737 3.743.737 1.561 0 2.998-.451 3.728-.725.087-.861.25-2.53.375-4.106.043-.551.525-.954 1.076-.918.551.043.962.525.918 1.076-.18 2.281-.441 4.75-.441 4.75-.037.346-.25.648-.564.797-.097.046-2.392 1.126-5.092 1.126z"/></svg>