<svg id="Layer_1" viewBox="0 0 24 24" xmlns="http://www.w3.org/2000/svg" data-name="Layer 1"><path d="m2.088 17.681c-.521 0-.959-.403-.997-.93-.008-.119-.202-2.951 0-6.384.095-1.633.236-3.049.418-4.208.3-1.915 1.778-3.419 3.677-3.744.655-.112 1.314-.168 1.96-.168.552 0 1 .448 1 1s-.448 1-1 1c-.534 0-1.08.047-1.624.14-1.052.179-1.871 1.016-2.038 2.082-.172 1.096-.306 2.446-.397 4.015-.114 1.946-.095 3.719-.059 4.851.025.787-.57 1.105-.569 1.116.039.551.25 1.189-.301 1.228-.024.001-.047.002-.071.002z" opacity=".5"/><path d="m21.912 17.681c-.023 0-.047 0-.071-.002-.551-.039-.607-.48-.568-1.031 0-.005-.061-.308-.127-.485-.07-.188-.191-.313-.177-.722.038-1.126.062-2.95-.056-4.958-.092-1.561-.225-2.912-.397-4.016-.167-1.065-.986-1.902-2.038-2.082-.544-.093-1.09-.14-1.624-.14-.553 0-1-.448-1-1s.447-1 1-1c.646 0 1.306.057 1.961.168 1.897.324 3.376 1.828 3.678 3.744.182 1.168.322 2.584.417 4.208.202 3.432.008 6.265 0 6.384-.036.527-.476.93-.996.93z" opacity=".5"/><path d="m6.112 21.753c-3.38 0-5.023-1.659-5.023-5.073s1.643-5.073 5.023-5.073 5.023 1.659 5.023 5.073-1.643 5.073-5.023 5.073zm0-8.146c-1.96 0-3.023.49-3.023 3.073 0 2.598 1.018 3.073 3.023 3.073 1.96 0 3.023-.49 3.023-3.073 0-2.598-1.018-3.073-3.023-3.073z"/><path d="m17.888 21.753c-3.38 0-5.023-1.659-5.023-5.073s1.644-5.073 5.023-5.073 5.022 1.659 5.022 5.073-1.643 5.073-5.022 5.073zm0-8.146c-2.005 0-3.023.475-3.023 3.073 0 2.583 1.062 3.073 3.023 3.073 2.005 0 3.022-.475 3.022-3.073 0-2.583-1.062-3.073-3.022-3.073z"/><path d="m10.143 17.826c-.254 0-.508-.096-.703-.289-.199-.196-.108-.462-.108-.721 0-.253-.093-.498.099-.693 1.371-1.388 3.766-1.388 5.138 0 .19.192-.005.442-.003.693.002.261.194.523-.006.721-.394.388-1.025.385-1.415-.009-.613-.621-1.678-.621-2.291 0-.195.198-.454.297-.711.297z" opacity=".5"/></svg>