<svg id="Layer_1" viewBox="0 0 24 24" xmlns="http://www.w3.org/2000/svg" data-name="Layer 1"><path d="m20.285 4.607h-5.774c-.553 0-1 .448-1 1 0 .047.02.087.027.132-.209.498.012 1.075.508 1.298 1.71.769 2.862 2.419 3.007 4.308.11 1.426.166 2.859.166 4.262 0 .552.447 1 1 1s1-.448 1-1c0-1.454-.058-2.939-.172-4.416-.136-1.775-.928-3.389-2.157-4.584h3.396c.553 0 1-.448 1-1s-.447-1-1-1z" opacity=".5"/><path d="m10.449 5.822c.016-.071.043-.138.043-.215 0-.552-.448-1-1-1h-5.777c-.552 0-1 .448-1 1s.448 1 1 1h3.399c-1.229 1.196-2.021 2.811-2.159 4.583-.115 1.482-.173 2.968-.173 4.417 0 .552.448 1 1 1s1-.448 1-1c0-1.397.056-2.831.167-4.262.146-1.876 1.288-3.523 2.982-4.297.47-.215.679-.747.517-1.226z" opacity=".5"/><path d="m12.018 8.981h-.039c-.66-.004-1.625-.084-2.37-.73-.672-.582-.995-1.454-.987-2.665.009-1.532.602-3.353 3.359-3.353h.039c2.792.018 3.367 1.856 3.357 3.395-.01 1.532-.602 3.353-3.36 3.353z"/><path d="m22.327 3.888c-.377-.327-.877-.488-1.527-.492h-.022c-1.393 0-2.195.8-2.204 2.198-.005.759.222 1.342.673 1.732.377.327.877.488 1.527.492h.022c1.393 0 2.195-.8 2.204-2.198.005-.759-.222-1.342-.673-1.733z"/><path d="m4.754 3.888c-.377-.327-.877-.488-1.527-.492-1.427 0-2.218.793-2.227 2.198-.004.759.222 1.342.673 1.732.377.327.877.488 1.527.492h.022c1.393 0 2.196-.8 2.205-2.198.004-.759-.222-1.342-.672-1.733z"/><path d="m5.8 21.767c-1.191 0-2.208-.283-2.251-.295-.328-.092-.585-.344-.685-.67-.013-.04-.301-.999-.301-2.27 0-1.26.288-2.227.3-2.267.099-.327.358-.581.687-.673.043-.012 1.063-.294 2.251-.294s2.209.283 2.252.295c.328.092.586.345.685.67.013.04.301.999.301 2.27 0 1.26-.288 2.226-.3 2.267-.099.327-.358.581-.687.673-.043.012-1.063.294-2.251.294zm-1.143-2.101c.615.103 1.667.104 2.285 0 .05-.296.096-.691.096-1.133 0-.444-.046-.838-.095-1.134-.614-.103-1.667-.103-2.285 0-.049.296-.096.692-.096 1.134 0 .444.046.838.095 1.133z"/><path d="m18.2 21.767c-1.19 0-2.209-.283-2.251-.295-.328-.092-.586-.344-.686-.669-.013-.04-.302-.999-.302-2.27 0-1.261.288-2.227.301-2.268.099-.327.357-.581.687-.673.043-.012 1.062-.294 2.251-.294s2.209.283 2.251.295c.328.092.586.344.686.669.013.04.302.999.302 2.271 0 1.26-.288 2.227-.301 2.267-.099.327-.357.581-.687.673-.043.012-1.062.294-2.251.294zm-1.144-2.101c.616.103 1.668.103 2.286 0 .05-.296.096-.691.096-1.133 0-.444-.046-.838-.096-1.134-.615-.104-1.668-.104-2.285 0-.05.296-.096.691-.096 1.134 0 .446.046.839.095 1.133z"/></svg>