<svg id="Layer_1" viewBox="0 0 24 24" xmlns="http://www.w3.org/2000/svg" data-name="Layer 1"><path d="m21.762 8.742c1.574-1.609 1.343-4.181-.55-6.114-1.028-1.05-2.268-1.628-3.49-1.628-.974 0-1.882.379-2.555 1.067-.675.688-.9 1.724-.98 2.501l-.364.372c-2.94-1.249-5.331.021-6.332 1.044l-1.57 1.609c-.148.151-.244.347-.274.557-.02.142-.43 3.286 2.316 6.55-.103.425-.323 1.232-.083 1.475.248.251 1.128.139 1.492-.054 2.486 2.128 4.876 2.388 5.894 2.388.299 0 .48-.022.512-.026.221-.03.426-.133.582-.293l1.568-1.607c.997-1.017 2.237-3.453 1.003-6.447l.388-.394c.739-.072 1.764-.304 2.444-1z" opacity=".5"/><path d="m8.627 15.428c-.24-.242-.461-.485-.664-.728l-6.481 6.599c-.387.394-.381 1.027.014 1.414.194.191.447.287.7.287.259 0 .518-.1.714-.299l6.461-6.58c-.248-.212-.496-.442-.744-.693z"/></svg>