<svg id="Layer_1" viewBox="0 0 24 24" xmlns="http://www.w3.org/2000/svg" data-name="Layer 1"><path d="m20.507 9.017c-.211-3.635-.903-6.14-.933-6.245-.092-.327-.344-.586-.669-.686-.145-.044-3.581-1.086-7.643-1.086s-7.496 1.041-7.641 1.086c-.327.1-.58.36-.671.689-.04.146-.991 3.634-.991 8.285 0 4.69.951 8.143.992 8.287.092.328.344.586.669.687.145.044 3.582 1.086 7.634 1.086.278.002.542.003.795.003 3.974 0 4.975-.293 6.328-.792.251-.093.517-.191.84-.292.383-.121.656-.458.695-.857l.591-6.042c0-.013.002-.025.003-.039.038-.648.061-1.332.061-2.041s-.022-1.394-.06-2.043z" opacity=".5"/><path d="m14.302 8.02h-6.078c-.553 0-1-.448-1-1s.447-1 1-1h6.078c.553 0 1 .448 1 1s-.447 1-1 1z"/><path d="m14.302 12.06h-6.078c-.553 0-1-.448-1-1s.447-1 1-1h6.078c.553 0 1 .448 1 1s-.447 1-1 1z"/><path d="m11.453 16.1h-3.229c-.553 0-1-.448-1-1s.447-1 1-1h3.229c.553 0 1 .448 1 1s-.447 1-1 1z"/><path d="m22.041 15.953c0-2.451-1.242-3.694-3.692-3.694s-3.692 1.243-3.692 3.694c0 1.221.308 2.142.921 2.759v3.083c0 .513.312.958.794 1.132.483.176 1.007.033 1.336-.362l.485-.583c.105-.128.207-.128.312 0l.486.583c.235.283.57.436.919.436.139 0 .278-.024.416-.074.482-.175.794-.619.794-1.132v-3.083c.612-.617.921-1.538.921-2.759z"/></svg>