<svg id="Layer_1" viewBox="0 0 24 24" xmlns="http://www.w3.org/2000/svg" data-name="Layer 1"><path d="m11.999 16.602c-.553 0-1-.448-1-1l.002-7.205c0-.552.448-1 1-1 .553 0 1 .448 1 1l-.002 7.205c0 .552-.448 1-1 1z" opacity=".5"/><path d="m16.714 7.26c-1.022-4.014-4.155-6.093-4.187-6.112-.104-.064-.218-.106-.333-.128-.245-.049-.503-.006-.722.128-.031.02-3.165 2.098-4.187 6.112-.136.531.183 1.073.712 1.213 1.31.347 2.655.521 4.002.521s2.692-.173 4.002-.521c.529-.141.848-.682.712-1.213z"/><path d="m16.002 15.526c-2.619-.694-5.385-.694-8.004 0-.529.141-.848.682-.712 1.213 1.021 4.014 4.155 6.093 4.187 6.112.104.064.218.106.333.128.065.013.132.02.198.02.182 0 .363-.049.523-.148.031-.02 3.165-2.098 4.187-6.112.136-.531-.183-1.073-.712-1.213z"/></svg>