<svg id="Layer_1" viewBox="0 0 24 24" xmlns="http://www.w3.org/2000/svg" data-name="Layer 1"><path d="m11.986 21.791c-.552 0-1-.448-1-1v-.782c0-.552.448-1 1-1s1 .448 1 1v.782c0 .552-.448 1-1 1z"/><path d="m15.263 21.791c-.553 0-1-.448-1-1v-.782c0-.552.447-1 1-1s1 .448 1 1v.782c0 .552-.447 1-1 1z"/><path d="m18.539 21.791c-.553 0-1-.448-1-1v-.782c0-.552.447-1 1-1s1 .448 1 1v.782c0 .552-.447 1-1 1z"/><path d="m20.498 13.439c-.181-2.735-2.464-4.905-5.244-4.905-2.898 0-5.256 2.357-5.256 5.255 0 .096.002.191.008.287-1.452.523-2.479 1.913-2.479 3.533 0 .779.237 1.527.687 2.163.188.266.492.423.817.423h12.466c.339 0 .655-.172.839-.456.459-.708.664-1.768.664-2.505 0-1.67-1.013-3.155-2.501-3.795z" opacity=".5"/><path d="m5.526 17.61c0-1.935.978-3.715 2.534-4.769.195-1.49.863-2.821 1.822-3.885.058-.345.11-.684.214-1.065.532-1.942 1.315-3.134 2.394-3.643.394-.186.622-.606.564-1.038-.059-.432-.39-.776-.819-.851-4.899-.861-9.581 2.109-10.893 6.897-1 3.645.25 7.55 3.179 9.944.051.042.672.534 1.718 1.042-.428-.817-.712-1.697-.712-2.633z" opacity=".5"/><circle cx="17.702" cy="4.003" r="1"/><circle cx="19.106" cy="7.323" r="1"/><circle cx="14.404" cy="5.748" r="1"/></svg>