<svg id="Layer_1" viewBox="0 0 24 24" xmlns="http://www.w3.org/2000/svg" data-name="Layer 1"><path d="m10.998 3.021c-.532 0-.975-.42-.998-.957-.024-.552.404-1.019.956-1.042.341-.015.689-.021 1.044-.021.552 0 1 .448 1 1s-.448 1-1 1c-.326 0-.645.006-.958.02-.015 0-.03 0-.044 0z" opacity=".5"/><path d="m2.603 8.431c-.1 0-.201-.015-.301-.047-.527-.166-.819-.727-.654-1.254.178-.565.397-1.098.651-1.584.256-.488.86-.678 1.35-.423.489.256.679.86.423 1.35-.2.382-.374.806-.516 1.258-.134.427-.528.7-.953.7zm3.208-4.16c-.348 0-.686-.182-.871-.506-.272-.48-.104-1.091.375-1.364.482-.274 1.013-.509 1.579-.7.523-.18 1.091.104 1.267.627.177.523-.104 1.091-.627 1.267-.445.15-.859.333-1.23.545-.156.088-.326.13-.493.13z" opacity=".5"/><path d="m7.195 22.353c-.105 0-.213-.017-.319-.053-.566-.19-1.098-.426-1.581-.702-.48-.273-.647-.884-.374-1.364.272-.481.883-.648 1.364-.374.371.211.784.394 1.228.543.523.176.805.743.629 1.267-.141.417-.53.682-.948.682zm-4.021-3.365c-.361 0-.71-.196-.889-.539-.252-.485-.469-1.019-.646-1.585-.165-.527.129-1.088.656-1.253.525-.161 1.088.129 1.253.656.142.455.314.878.513 1.26.254.49.063 1.094-.427 1.349-.147.076-.305.112-.46.112zm-1.162-5.213c-.536 0-.98-.425-.999-.965-.009-.263-.014-.533-.014-.81 0-.272.004-.538.013-.797.019-.551.49-.988 1.033-.966.552.019.985.481.966 1.033-.008.238-.012.481-.012.731 0 .253.004.5.013.74.019.552-.413 1.015-.965 1.034-.012 0-.023 0-.035 0z" opacity=".5"/><path d="m12 23c-.354 0-.703-.007-1.043-.021-.552-.023-.98-.489-.957-1.041.023-.551.45-.992 1.041-.957.313.013.633.019.959.019.552 0 1 .448 1 1s-.448 1-1 1z" opacity=".5"/><path d="m12 1c-.552 0-1 .448-1 1v20c0 .552.448 1 1 1 5.122 0 11-1.25 11-11s-5.878-11-11-11z"/></svg>