<svg id="Layer_1" viewBox="0 0 24 24" xmlns="http://www.w3.org/2000/svg" data-name="Layer 1"><path d="m20.885 17.897-.733-2.129c-.367-1.067-.959-2.087-1.766-3.049.214-.081.396-.234.513-.436.144-.25.173-.551.079-.825l-.367-1.065c-.422-1.226-1.149-2.267-1.915-3.1.119-.083.22-.192.294-.321.144-.25.173-.551.079-.825-1.088-3.157-4.46-4.958-4.603-5.034-.292-.153-.639-.153-.931 0-.129.068-2.88 1.538-4.219 4.139.126.288.223.51.262.929.027.288-.022.29-.018.595.002.131-.057.394-.255.516-.765.834-1.492 1.874-1.915 3.1l-.047.135s.19.321.24.435c.063.143.189.738.205.861.03.231.016.549-.174.895-.807.961-1.399 1.982-1.766 3.049l-.733 2.129c-.094.273-.065.574.079.825.145.251.39.427.674.482l2.972.583c1.362.267 2.757.428 4.16.48.24.242.711.759 1.045.759s.775-.366.952-.759c1.404-.052 2.801-.212 4.163-.48l2.972-.583c.284-.056.53-.231.674-.482.144-.25.173-.551.079-.825z" opacity=".5"/><path d="m10.901 5.759c-.656-.035-2.407-.256-3.586-.506-.147.285-.276.583-.384.895-.094.273-.065.574.079.825.073.127.182.235.299.318 1.337.255 2.928.436 3.486.465.018 0 .036.001.054.001.528 0 .969-.414.998-.947.029-.552-.394-1.022-.945-1.052z"/><path d="m13.002 12.531c0-.552-.448-1-1-1-1.62 0-4.719-.264-6.62-.99-.014-.005-.028-.008-.041-.013l-.318.93c-.094.273-.065.574.079.825.116.201.298.354.512.436 2.24.633 5.063.812 6.388.812.552 0 1-.448 1-1z"/><path d="m12 20.286c-.334 0-.667-.012-1-.024v1.738c0 .552.448 1 1 1s1-.448 1-1v-1.738c-.333.012-.666.024-1 .024z"/></svg>