<svg id="Layer_1" viewBox="0 0 24 24" xmlns="http://www.w3.org/2000/svg" data-name="Layer 1"><path d="m19.405 18.506c-.257 0-.513-.098-.708-.293-.39-.391-.39-1.023 0-1.413.571-.57 2.302-2.295 2.302-4.785 0-1.675-.773-3.295-2.301-4.815-.392-.39-.394-1.023-.004-1.415.39-.391 1.024-.392 1.414-.003 1.919 1.91 2.892 4.007 2.891 6.234 0 3.319-2.173 5.485-2.887 6.197-.195.195-.452.292-.708.292z" opacity=".5"/><path d="m16.896 15.708c-.257 0-.514-.098-.709-.295-.39-.392-.388-1.024.004-1.414.775-.771 1.137-1.402 1.138-1.983 0-.586-.383-1.265-1.138-2.016-.392-.39-.394-1.023-.004-1.415.39-.391 1.022-.392 1.414-.003 1.162 1.156 1.728 2.28 1.728 3.434 0 1.509-.986 2.664-1.728 3.401-.195.194-.45.291-.705.291z" opacity=".5"/><path d="m12.219 3.571c-.527-.251-1.093-.197-1.513.144-.059.048-.111.103-.158.162-1.307 1.679-2.87 3.301-3.255 3.456l-4.113.309c-.296.022-.566.175-.739.417-.935 1.311-1.441 2.328-1.44 3.941 0 1.632.527 2.692 1.44 3.973.173.241.443.394.739.416l4.025.295c.474.167 2.037 1.776 3.345 3.442.046.059.099.112.156.159.245.199.54.3.848.3.22 0 .445-.052.665-.156 1.411-.672 2.84-3.782 2.84-8.432s-1.429-7.754-2.84-8.426z"/></svg>