<svg id="Layer_1" viewBox="0 0 24 24" xmlns="http://www.w3.org/2000/svg" data-name="Layer 1"><path d="m14.378 23c-5.17 0-10.688-5.575-10.823-10.975.134-5.449 5.654-11.025 10.805-11.025.059 0 .117 0 .175.002 2.413.105 4.897 1.375 7.404 3.776.399.382.413 1.015.031 1.414-.384.399-1.017.412-1.414.031-2.116-2.026-4.222-3.14-6.09-3.222-4.073-.083-8.805 4.708-8.912 9.024.107 4.267 4.881 9.108 8.932 8.974 1.848-.082 3.953-1.195 6.07-3.222.397-.38 1.032-.369 1.414.031.382.399.368 1.032-.031 1.414-2.508 2.4-4.992 3.67-7.385 3.775-.059.001-.118.002-.177.002z" opacity=".5"/><g><path d="m12.901 11.114h-10.149c-.553 0-1-.448-1-1s.447-1 1-1h10.149c.553 0 1 .448 1 1s-.447 1-1 1z"/><path d="m12.901 14.886h-10.149c-.553 0-1-.448-1-1s.447-1 1-1h10.149c.553 0 1 .448 1 1s-.447 1-1 1z"/></g></svg>