<svg id="Layer_1" viewBox="0 0 24 24" xmlns="http://www.w3.org/2000/svg" data-name="Layer 1"><path d="m22.442 10.497c-.856-.998-2.375-2.5-4.749-3.987-1.956-1.225-3.695-1.874-4.81-2.203-.718-.212-1.472-.076-2.071.371-.596.445-.938 1.126-.938 1.867v.667c-.343-.24-.696-.474-1.057-.701-1.955-1.225-3.695-1.874-4.809-2.203-.716-.211-1.473-.077-2.071.371-.596.445-.938 1.126-.938 1.867v10.911c0 .741.342 1.421.938 1.867.599.448 1.355.583 2.071.371 1.115-.329 2.854-.979 4.81-2.204.361-.226.714-.46 1.057-.7v.667c0 .741.342 1.421.938 1.867.413.309.9.469 1.398.469.224 0 .45-.032.672-.098 1.115-.329 2.854-.979 4.81-2.203 2.374-1.487 3.893-2.989 4.749-3.987.748-.871.748-2.135 0-3.006z" opacity=".5"/></svg>