<svg id="Layer_1" viewBox="0 0 24 24" xmlns="http://www.w3.org/2000/svg" data-name="Layer 1"><path d="m22.461 5.485-.465-.241.465-.241c.49-.254.681-.858.427-1.349-.256-.489-.858-.681-1.349-.426l-.711.37v-.797c0-.552-.447-1-1-1s-1 .448-1 1v.796l-.71-.369c-.49-.255-1.094-.063-1.349.426-.254.49-.063 1.094.427 1.349l.465.241-.465.241c-.49.254-.681.858-.427 1.349.179.342.527.539.889.539.155 0 .312-.036.46-.113l.71-.369v.796c0 .552.447 1 1 1s1-.448 1-1v-.797l.711.37c.147.077.305.113.46.113.361 0 .71-.196.889-.539.254-.49.063-1.094-.427-1.349z" opacity=".5"/><path d="m11.592 5.485c-.528-.167-1.089.119-1.259.644-.274.848-.728 1.202-.978 1.339-.261-.14-.711-.495-.984-1.339-.169-.524-.735-.813-1.259-.643-.525.17-.813.734-.644 1.259.426 1.316 1.205 2.062 1.884 2.447v1.683c0 .552.447 1 1 1s1-.448 1-1v-1.683c.679-.385 1.458-1.132 1.883-2.447.17-.526-.118-1.089-.644-1.259z" opacity=".5"/><path d="m12.235 20.892c-.425-1.316-1.203-2.062-1.883-2.447v-1.684c0-.553-.447-1-1-1s-1 .447-1 1v1.684c-.679.385-1.458 1.131-1.884 2.447-.17.525.118 1.089.644 1.259.102.033.206.049.308.049.422 0 .814-.269.951-.692.274-.849.729-1.202.979-1.339.26.141.71.494.983 1.339.17.524.73.814 1.259.644.525-.17.813-.733.644-1.259z" opacity=".5"/><path d="m17.681 11.516c-.119-.539-.653-.876-1.193-.758-.871.193-1.408-.015-1.652-.161-.011-.295.067-.86.656-1.521.367-.413.33-1.044-.082-1.412-.411-.367-1.043-.331-1.412.082-.919 1.033-1.169 2.081-1.157 2.861l-1.454.855c-.476.28-.635.893-.355 1.369.187.316.521.493.863.493.172 0 .347-.044.506-.138l1.451-.853c.48.275 1.145.502 1.974.502.339 0 .705-.038 1.098-.125.539-.12.879-.655.758-1.194z" opacity=".5"/><path d="m7.674 14.805c-.28-.476-.894-.637-1.369-.355l-1.456.856c-.677-.388-1.716-.68-3.067-.378-.539.12-.879.654-.758 1.193.12.54.657.879 1.193.758.873-.193 1.407.016 1.652.16.011.296-.067.861-.656 1.522-.367.413-.33 1.045.082 1.412.191.17.429.253.665.253.275 0 .55-.113.747-.335.919-1.034 1.168-2.082 1.156-2.862l1.454-.855c.476-.28.635-.893.355-1.369z" opacity=".5"/><path d="m7.318 11.462-1.454-.855c.012-.78-.237-1.828-1.156-2.861-.367-.413-1.001-.45-1.412-.083-.412.367-.449.999-.082 1.412.592.665.668 1.232.659 1.517-.253.153-.787.36-1.655.166-.535-.117-1.073.219-1.193.758-.121.539.219 1.074.758 1.194.393.087.759.125 1.098.125.829 0 1.494-.226 1.974-.501l1.451.853c.159.094.334.138.506.138.343 0 .677-.177.863-.493.279-.476.12-1.089-.355-1.369z" opacity=".5"/><path d="m16.923 14.927c-1.35-.302-2.39-.01-3.067.378l-1.456-.856c-.477-.281-1.089-.12-1.369.355-.279.477-.12 1.089.355 1.369l1.454.855c-.012.78.238 1.829 1.157 2.862.197.222.472.335.747.335.237 0 .475-.083.665-.253.412-.367.449-.999.082-1.412-.592-.665-.668-1.232-.66-1.517.254-.151.789-.357 1.656-.166.541.122 1.074-.218 1.193-.758.121-.539-.219-1.073-.758-1.193z" opacity=".5"/><path d="m9.353 10.107c-2.055 0-3.727 1.665-3.727 3.711s1.672 3.71 3.727 3.71 3.727-1.664 3.727-3.71-1.672-3.711-3.727-3.711z"/></svg>