<svg id="Layer_1" viewBox="0 0 24 24" xmlns="http://www.w3.org/2000/svg" data-name="Layer 1"><path d="m8.453 5.1c-.355-.278-.855-.285-1.217-.014-.147.11-3.631 2.81-6.204 12.776-.138.535.184 1.08.718 1.218.537.139 1.081-.184 1.218-.718.293-1.136.598-2.162.906-3.101h7.919c.308.939.613 1.965.906 3.101.116.451.523.75.967.75.083 0 .167-.01.251-.032.535-.138.856-.684.718-1.218-2.493-9.656-5.813-12.473-6.183-12.762zm-3.866 8.162c1.28-3.303 2.532-5.102 3.248-5.95.712.844 1.965 2.643 3.247 5.95h-6.496z"/><path d="m22 11.43c-.324 0-.599.164-.782.403-.545-.258-1.2-.403-1.994-.403-2.506 0-3.776 1.292-3.776 3.841s1.271 3.841 3.776 3.841c.794 0 1.449-.145 1.994-.403.183.239.457.403.782.403.553 0 1-.448 1-1v-5.682c0-.552-.447-1-1-1zm-2.775 5.682c-1.253 0-1.776-.256-1.776-1.841s.523-1.841 1.776-1.841 1.775.256 1.775 1.841-.523 1.841-1.775 1.841z" opacity=".5"/></svg>