<svg id="Layer_1" viewBox="0 0 24 24" xmlns="http://www.w3.org/2000/svg" data-name="Layer 1"><path d="m21.496 4.607c-1.173-1.381-2.673-2.177-4.224-2.241-1.455-.058-2.834.514-3.98 1.659-.847.847-1.706.845-2.551 0-1.147-1.146-2.524-1.714-4.002-1.659-1.564.064-3.072.86-4.244 2.241-1.897 2.236-1.991 5.525-.263 9.259 1.702 3.676 5.302 7.771 7.747 7.771.536 0 .977-.423.999-.958.002-.05-.002-.128-.008-.177-.284-2.626-.2-5.887.654-6.839.277-.307.48-.299.753.005.856.956.936 4.211.647 6.832-.005.05-.01.129-.008.179.022.536.463.958.999.958 2.456 0 6.054-4.073 7.746-7.729 1.735-3.75 1.641-7.053-.267-9.301z" opacity=".5"/></svg>