<svg id="Layer_1" viewBox="0 0 24 24" xmlns="http://www.w3.org/2000/svg" data-name="Layer 1"><path d="m14.352 22.24c-.169 0-.338-.043-.49-.128-.098-.056-2.411-1.367-4.539-3.499-.391-.391-.755-.79-1.088-1.18-.359-.419-.311-1.051.109-1.41.419-.358 1.051-.311 1.41.109.302.353.631.713.985 1.067 1.377 1.38 2.873 2.4 3.621 2.874.725-.45 2.163-1.428 3.606-2.873 2.055-2.059 3.142-4.072 3.152-4.093.261-.486.865-.673 1.353-.411.487.26.672.863.413 1.351-.049.093-1.226 2.285-3.502 4.565-2.258 2.262-4.464 3.458-4.557 3.508-.147.079-.311.119-.473.119z"/><path d="m14.818 14.947c-2.536-9.838-5.901-12.683-6.276-12.975-.356-.277-.855-.283-1.216-.012-.149.111-3.682 2.855-6.294 12.987-.138.535.184 1.08.719 1.219.534.137 1.08-.185 1.218-.719.298-1.158.608-2.21.921-3.167h8.07c.313.957.623 2.009.921 3.167.116.451.522.75.967.75.083 0 .167-.01.251-.031.534-.139.856-.684.719-1.219zm-10.218-4.667c1.312-3.403 2.595-5.236 3.324-6.096.728.86 2.013 2.696 3.325 6.096z" opacity=".5"/></svg>