<svg id="Layer_1" viewBox="0 0 24 24" xmlns="http://www.w3.org/2000/svg" data-name="Layer 1"><path d="m21.401 2.437c-.127-.307-.396-.53-.721-.598-.163-.034-4.064-.838-8.681-.838s-8.516.803-8.68.837c-.326.068-.596.293-.722.602-.048.118-1.176 2.93-1.176 6.665 0 3.768 1.129 6.552 1.177 6.668.126.306.396.53.72.598.164.034 4.066.838 8.682.838s8.517-.804 8.681-.838c.326-.068.597-.293.722-.602.048-.118 1.177-2.93 1.177-6.665 0-3.768-1.13-6.552-1.178-6.668z" opacity=".5"/><path d="m17.366 10.105c-.553 0-1-.448-1-1 0-.613-.043-1.237-.129-1.862-1.465-.16-2.916-.243-4.237-.243-1.342 0-2.763.082-4.235.242-.087.629-.131 1.253-.131 1.863 0 .552-.448 1-1 1s-1-.448-1-1c0-.965.095-1.958.283-2.954.08-.426.427-.752.857-.807 1.818-.229 3.577-.345 5.225-.345s3.408.116 5.228.346c.431.054.777.38.857.807.187.986.281 1.98.281 2.953 0 .552-.447 1-1 1z"/><path d="m17.269 12.015c-.085-.029-2.135-.702-5.269-.702s-5.182.672-5.268.701c-.469.156-.753.632-.669 1.119l1.561 9.037c.084.486.506.83.984.83.056 0 .114-.005.171-.015.544-.094.909-.611.815-1.156l-.162-.94c.838.061 1.729.096 2.506.096.815 0 1.762-.037 2.631-.1l-.163.943c-.094.544.271 1.062.815 1.156.543.095 1.062-.271 1.155-.815l1.562-9.037c.084-.487-.2-.962-.669-1.119zm-5.332 6.971c-.888 0-1.935-.049-2.857-.13l-.89-5.154c.8-.172 2.135-.388 3.81-.388s3.012.215 3.81.388l-.89 5.15c-.938.082-2.068.134-2.983.134z"/></svg>