<svg id="Layer_1" viewBox="0 0 24 24" xmlns="http://www.w3.org/2000/svg" data-name="Layer 1"><path d="m21.193 12.888c-.815-6.716-3.357-9.944-8.193-10.322-.277-.385-.671-.661-1.014-.661s-.712.353-.986.661c-4.837.378-7.379 3.606-8.193 10.322-.102.835.283 1.708.979 2.224.753.558 1.755.623 2.754.182 1.302-.577 2.865-.906 4.656-.981.235.215.605.413.878.413.042 0 .142-.001.184-.004.142-.007.708-.115.945-.388 1.625.104 3.052.426 4.256.959.438.193.875.289 1.293.289.536 0 1.038-.158 1.461-.471.696-.516 1.081-1.388.979-2.223z" opacity=".5"/><path d="m12 2.528c.344 0 .677.013 1 .038v-.566c0-.552-.447-1-1-1s-1 .448-1 1v.566c.323-.025.656-.038 1-.038z"/><path d="m12 14.296c-.273 0-.541.006-.804.017.046.518.095 1.468.095 3.173 0 1.897-.08 2.914-.139 3.406-.215.055-.547.108-1.021.108-.465 0-.795-.052-1.007-.103-.049-.372-.107-.921-.136-1.577-.023-.552-.494-.966-1.042-.956-.552.024-.98.491-.956 1.042.06 1.383.239 2.34.247 2.38.046.241.179.457.373.606.185.142.914.606 2.521.606 1.618 0 2.343-.468 2.526-.612.155-.122.271-.287.333-.474.07-.212.3-1.161.3-4.428 0-1.468-.033-2.465-.088-3.152-.39-.025-.791-.038-1.203-.038z"/></svg>