<svg id="Layer_1" viewBox="0 0 24 24" xmlns="http://www.w3.org/2000/svg" data-name="Layer 1"><path d="m21.797 4.545c-.108-.321-.372-.565-.7-.649-.089-.022-2.208-.558-5.199-.865-.112-.012-2.775-.271-3.827-.266-.94.007-3.849.256-3.972.267h-.018c-2.975.309-5.089.842-5.177.864-.33.084-.594.33-.702.653-.049.147-1.202 3.656-1.202 8.333 0 4.716 1.154 8.19 1.203 8.335.108.321.372.565.701.649.171.044 4.261 1.073 9.097 1.073s8.924-1.029 9.097-1.073c.329-.084.594-.33.701-.653.05-.147 1.202-3.656 1.202-8.332 0-4.716-1.153-8.19-1.203-8.336z" opacity=".5"/><path d="m12 1.061c-2.918 0-5.292 2.367-5.292 5.275v.763c0 .276.115.541.316.73.145.136 1.518 1.328 4.975 1.328 3.485 0 4.839-1.198 4.982-1.335.197-.188.309-.45.309-.723v-.763c0-2.909-2.374-5.275-5.291-5.275zm3.291 5.495c-.3.15-.819.35-1.612.478l.367-.695c.259-.488.072-1.093-.416-1.351-.49-.26-1.093-.072-1.352.417l-.918 1.736c-1.401-.074-2.24-.382-2.651-.586v-.219c0-1.806 1.477-3.275 3.292-3.275s3.291 1.469 3.291 3.275v.219z"/></svg>