<svg id="Layer_1" viewBox="0 0 24 24" xmlns="http://www.w3.org/2000/svg" data-name="Layer 1"><path d="m19.049 7.143c-2.552 0-3.088-1.67-3.088-3.071s.536-3.071 3.088-3.071 3.088 1.67 3.088 3.071-.536 3.071-3.088 3.071zm0-4.143c-.869 0-1.088.126-1.088 1.071s.219 1.071 1.088 1.071 1.088-.126 1.088-1.071-.219-1.071-1.088-1.071z"/><path d="m10.909 4.074c-.309-.172-.685-.167-.989.012-.325.191-7.963 4.733-8.057 10.37.13 4.332 4.283 8.484 8.576 8.544 4.266-.06 8.42-4.212 8.55-8.544v-.047c-.104-5.859-7.754-10.155-8.08-10.335z" opacity=".5"/></svg>