<svg id="Layer_1" viewBox="0 0 24 24" xmlns="http://www.w3.org/2000/svg" data-name="Layer 1"><path d="m19.302 9.027c-.104-3.913-3.345-7.064-7.315-7.064-4.035 0-7.317 3.256-7.317 7.257 0 .252.013.504.039.754-2.15.599-3.708 2.558-3.708 4.863 0 1.809.984 3.49 2.568 4.388.365.208.789.313 1.258.315l13.796.058h.013c.397 0 .763-.076 1.086-.224 1.992-.914 3.279-2.911 3.279-5.087 0-2.368-1.513-4.461-3.698-5.259z" opacity=".5"/><path d="m11.238 22.038c-.098 0-.198-.015-.297-.045-.527-.164-.822-.724-.659-1.251l1.074-3.463c.163-.527.724-.824 1.251-.659.527.164.822.724.659 1.251l-1.075 3.463c-.133.429-.528.704-.955.704z"/><path d="m7.298 22.038c-.098 0-.198-.015-.297-.045-.527-.164-.822-.724-.659-1.251l1.074-3.463c.164-.527.725-.824 1.251-.659.527.164.822.724.659 1.251l-1.074 3.463c-.133.429-.528.704-.955.704z"/><path d="m15.178 22.038c-.098 0-.198-.015-.297-.045-.527-.164-.822-.724-.658-1.251l1.075-3.463c.163-.527.718-.825 1.252-.659.527.164.822.724.658 1.251l-1.075 3.463c-.133.429-.528.704-.955.704z"/><path d="m14.164 11.65.452-.235c.49-.255.68-.859.425-1.349-.255-.489-.858-.681-1.349-.425l-.692.361v-.781c0-.552-.448-1-1-1s-1 .448-1 1v.781l-.692-.361c-.49-.256-1.094-.064-1.349.425-.255.49-.065 1.094.425 1.349l.452.235-.452.235c-.49.255-.68.859-.425 1.349.178.342.526.538.888.538.155 0 .313-.036.461-.113l.692-.361v.781c0 .552.448 1 1 1s1-.448 1-1v-.781l.692.361c.147.077.306.113.461.113.361 0 .71-.196.888-.538.255-.49.065-1.094-.425-1.349z"/></svg>