<svg id="Layer_1" viewBox="0 0 24 24" xmlns="http://www.w3.org/2000/svg" data-name="Layer 1"><path d="m19.439 6.03c-1.234-1.039-2.613-1.493-3.767-1.675l1.475-1.472c.269-.268.363-.665.242-1.025-.12-.36-.434-.621-.81-.673-.345-.049-8.48-1.137-12.697 2.53-1.637 1.424-2.467 3.349-2.467 5.722 0 3.812 1.039 6.642 3.088 8.411 1.264 1.091 2.687 1.574 3.865 1.775l-1.518 1.514c-.27.269-.363.668-.241 1.029s.439.621.816.67c.127.017 1.31.167 2.964.167 2.851 0 7.101-.444 9.76-2.775 1.614-1.415 2.432-3.314 2.432-5.645 0-3.92-1.058-6.798-3.144-8.554z" opacity=".5"/><circle cx="12" cy="12" r="4.076"/></svg>