<svg id="Layer_1" viewBox="0 0 24 24" xmlns="http://www.w3.org/2000/svg" data-name="Layer 1"><path d="m12 1.499c-3.803 0-5.98 1.717-6.7 5.353.08.265.781.588.742.9-.044.351-.701.802-.982 1.1-.019.352-.029.718-.029 1.096s.01.744.029 1.096c.375.37.804.657.84.968.041.36-.126.64-.6 1.032.72 3.636 2.898 5.353 6.7 5.353s5.981-1.717 6.701-5.353c-.726-.493-.801-.716-.758-1.105.031-.286.593-.585.999-.895.019-.352.029-.718.029-1.096s-.01-.744-.029-1.096c-.628-.31-.9-.642-.935-.946-.042-.368.182-.751.694-1.055-.72-3.636-2.898-5.353-6.701-5.353z" opacity=".5"/><path d="m12 22.501c-3.053 0-10.236-1.052-10.997-10.794-.043-.551.369-1.032.919-1.075.563-.05 1.032.368 1.075.919.578 7.398 5.215 8.951 9.003 8.951s8.425-1.553 9.003-8.951c.043-.55.517-.959 1.075-.919.55.043.962.524.919 1.075-.761 9.743-7.944 10.794-10.997 10.794z"/><path d="m9.059 6.852h-3.758c-.121.612-.201 1.278-.24 2h3.999c.552 0 1-.448 1-1s-.448-1-1-1z"/><path d="m18.7 6.852h-3.759c-.552 0-1 .448-1 1s.448 1 1 1h3.999c-.039-.722-.119-1.388-.24-2z"/><path d="m18.941 11.044h-3.999c-.552 0-1 .448-1 1s.448 1 1 1h3.759c.121-.612.201-1.278.24-2z"/><path d="m9.059 11.044h-3.999c.039.722.119 1.388.24 2h3.758c.552 0 1-.448 1-1s-.448-1-1-1z"/></svg>