<svg id="Layer_1" viewBox="0 0 24 24" xmlns="http://www.w3.org/2000/svg" data-name="Layer 1"><path d="m21.534 16.294c-.217-.413-.538-.746-.92-.968.879-.579 1.198-1.691.741-2.597-.492-.976-1.25-1.817-1.97-2.427.199-.065.358-.119.394-.132 1.22-.487 1.906-1.781 1.596-3.011-.317-1.261-1.463-2.016-2.782-1.836-1.173.16-3.592.91-4.856 1.318.079-.263.195-.528.359-.7l.78-.816c.836-.874.948-2.227.261-3.147-.432-.577-1.084-.932-1.79-.975-.708-.045-1.371.222-1.851.724l-1.444 1.511c-.793.755-1.228 1.87-1.464 2.807-.544-1.037-1.726-1.589-2.787-1.292-.678.188-1.233.66-1.524 1.292-.294.641-.29 1.376.018 2.033 0 0 .983 1.917 1.446 2.819l-3.042 1.543c-.12.061-.211.168-.251.297-.028.09-.68 2.25.188 5.208.916 3.13 3.2 4.579 3.297 4.639.116.072.257.092.388.06l2.971-.762 4.911.993c.411.083.823.124 1.229.124 2.243 0 4.34-1.228 5.457-3.288l.654-1.207c.367-.677.364-1.504-.008-2.213zm-3.098-.837c-.309.257-.663.635-1.151 1.158l-.673.716c-.339.356-.887.552-1.524.55-.743-.008-1.464-.299-1.882-.76-.389-.429-.561-1.069-.469-1.754.094-.709.456-1.329.969-1.658.404-.259.863-.383 1.319-.383.717 0 1.424.309 1.889.891.504.632 1.023 1.024 1.522 1.24z" opacity=".5"/></svg>