<svg id="Layer_1" viewBox="0 0 24 24" xmlns="http://www.w3.org/2000/svg" data-name="Layer 1"><path d="m16.354 1.944c-2.751 0-3.329 1.816-3.329 3.34s.578 3.34 3.329 3.34 3.329-1.816 3.329-3.34-.578-3.34-3.329-3.34z"/><path d="m20.015 18.779c-.051-.064-5.188-6.397-6.875-8.544-1.606-2.043-3.221-3.323-3.29-3.377-.37-.291-.893-.284-1.255.015-.236.196-5.812 4.879-7.571 12.899-.112.508.185 1.017.682 1.17 1.786.55 3.724.893 6.283 1.11.484.041.979.06 1.478.06 4.733 0 9.849-1.675 10.086-1.754.312-.104.553-.353.646-.668.092-.315.023-.656-.184-.911z" opacity=".5"/><path d="m22.977 20.073c-1.254-5.719-5.243-9.065-5.412-9.205-.37-.306-.904-.305-1.274 0-.169.14-4.152 3.486-5.406 9.205-.112.508.185 1.017.682 1.17 1.754.541 3.559.812 5.364.812s3.609-.271 5.364-.812c.497-.153.794-.662.682-1.17z"/></svg>