<svg id="Layer_1" viewBox="0 0 24 24" xmlns="http://www.w3.org/2000/svg" data-name="Layer 1"><path d="m8.647 19.661s-.003-.005-.004-.008c-.25-.488-.846-.685-1.338-.439-.143.071-.309.045-.422-.055.116-.23.345-1.436.345-1.436s-.495-.325-1.267-.345c-.34-.678-.654-1.306-.654-1.306-.001-.003-.003-.005-.004-.008-.25-.488-.847-.684-1.338-.439-.246.123-.419.334-.5.576-.08.242-.068.515.056.762l1.488 2.971c.1.199.227.375.37.532.015.017.032.032.048.049.447.462 1.062.723 1.696.729.011 0 .022.001.033.001.353-.002.71-.082 1.047-.249.246-.123.419-.334.501-.576.079-.242.068-.513-.055-.758z" opacity=".5"/><path d="m20.327 2.62c-.22-.521-.656-.938-1.333-1.272-1.969-.974-2.965.307-3.385 1.155-.39.788-.455 1.501-.194 2.119.221.521.656.938 1.332 1.271.501.247.939.35 1.321.35 1.117 0 1.751-.872 2.064-1.505.39-.787.455-1.5.194-2.118z"/><path d="m14.264 20.992c.418-2.121.151-4.316-.755-6.266.283-.334.546-.687.783-1.052l3.359-5.188c.154-.24.2-.534.124-.81-.075-.274-.265-.505-.521-.631h.003s-3.103-1.532-3.103-1.532c-.223-.118-.49-.151-.751-.074-.002 0-.982.321-.982.321-1.261.396-2.619.224-3.73-.474-.467-.292-1.085-.151-1.379.316-.293.468-.151 1.085.316 1.379 1.016.636 2.173.969 3.349.985-.775 1.092-1.4 2.289-1.85 3.554-.014.036-.026.074-.035.113-.068.273-.017.573.14.808.056.084.124.158.201.222.816.663 1.488 1.463 1.996 2.377.951 1.713 1.258 3.713.848 5.717l-.047.218z"/><path d="m14.793 22.995h-.021l-3.323-.029c-.553-.005-.996-.457-.991-1.009.005-.549.452-.991 1-.991h.009l.765.007.873-1.008 1.162 1.026.524.005h.004c.208 0 .378-.168.38-.377.005-.55.452-.991 1-.991h.009c.553.005.996.457.991 1.009-.012 1.306-1.077 2.359-2.38 2.359z" opacity=".5"/><path d="m5.528 20.484c-.016-.016-.032-.032-.048-.049.016.017.032.032.048.049z"/><path d="m6.403 18.263c.282.581.434.897.48.897.007 0 3.268-1.925 3.268-1.925-.022-.148-.053-.288-.099-.42-.198-.57-.456-1.04-.733-1.426l-3.359 1.989.441.885z"/></svg>