<svg id="Layer_1" viewBox="0 0 24 24" xmlns="http://www.w3.org/2000/svg" data-name="Layer 1"><path d="m21.236 6.405c-.112-.318-.378-.558-.706-.638-.116-.028-2.13-.512-4.938-.781-.341-.309-.7-.532-1.07-.557-.301-.021-.568.12-.93.416-.517-.023-1.05-.036-1.592-.036s-1.074.013-1.591.037c-.386-.213-.765-.364-1.122-.338-.308.023-.58.212-.878.48-2.805.27-4.822.753-4.938.781-.33.08-.596.321-.708.642-.033.095-.605 1.754-.924 4.241.307.316.647.858.617 1.184-.032.348-.279.607-.797.84-.02.398-.031.809-.031 1.231 0 4.24 1.089 7.368 1.136 7.499.113.318.378.558.707.638.161.039 3.995.96 8.53.96s8.368-.921 8.53-.96c.329-.08.596-.321.708-.642.046-.132 1.134-3.291 1.134-7.495 0-.422-.011-.833-.03-1.231-.627-.18-.964-.589-.993-.921-.031-.344.342-.801.814-1.103-.319-2.5-.893-4.149-.927-4.243z" opacity=".5"/><path d="m10.409 4.844v-.261c0-.873.709-1.583 1.601-1.583.873 0 1.583.71 1.583 1.583v.261c.698.031 1.369.081 2 .142v-.403c0-1.976-1.607-3.583-3.601-3.583-1.975 0-3.582 1.607-3.582 3.583v.403c.631-.061 1.302-.11 2-.142z"/><path d="m22.163 10.648c-1.193.325-5.428 1.379-10.163 1.379s-8.969-1.053-10.161-1.378c-.08.626-.144 1.305-.18 2.024 1.503.394 5.119 1.222 9.341 1.34v.77c0 .552.448 1 1 1s1-.448 1-1v-.77c4.216-.118 7.838-.947 9.342-1.34-.035-.721-.099-1.399-.179-2.024z"/></svg>