<svg id="Layer_1" viewBox="0 0 24 24" xmlns="http://www.w3.org/2000/svg" data-name="Layer 1"><path d="m19.302 8.438c-.104-3.913-3.345-7.064-7.315-7.064-4.035 0-7.318 3.256-7.318 7.257 0 .252.013.504.04.754-2.15.598-3.708 2.557-3.708 4.863 0 .794.191 1.585.552 2.289.647 1.262 2.009 2.068 3.467 2.068h.064 14.061c.811-.013 1.882-.591 2.374-1.124.957-1.035 1.483-2.379 1.483-3.784 0-2.368-1.512-4.461-3.698-5.259z" opacity=".5"/><path d="m16.827 18.625h-.542c-.552 0-1-.448-1-1s.448-1 1-1h.542c.552 0 1 .448 1 1s-.448 1-1 1z"/><path d="m12.934 18.625h-5.761c-.552 0-1-.448-1-1s.448-1 1-1h5.761c.552 0 1 .448 1 1s-.448 1-1 1z"/><path d="m7.715 22.625h-.542c-.552 0-1-.448-1-1s.448-1 1-1h.542c.552 0 1 .448 1 1s-.448 1-1 1z"/><path d="m16.827 22.625h-5.761c-.552 0-1-.448-1-1s.448-1 1-1h5.761c.552 0 1 .448 1 1s-.448 1-1 1z"/><path d="m7.715 14.625h-.542c-.552 0-1-.448-1-1s.448-1 1-1h.542c.552 0 1 .448 1 1s-.448 1-1 1z"/><path d="m16.827 14.625h-5.761c-.552 0-1-.448-1-1s.448-1 1-1h5.761c.552 0 1 .448 1 1s-.448 1-1 1z"/></svg>