<svg id="Layer_1" viewBox="0 0 24 24" xmlns="http://www.w3.org/2000/svg" data-name="Layer 1"><path d="m15.644 15.432-4.053-3.577-3.674-4.084c-.188-.188-.573-.843-.76-.656l-.339.341c-1.161 1.164-2.008 2.618-2.45 4.203l-.058.208.57 2.033-1.488-.121-.906.909c-1.883 1.888-1.882 4.96.002 6.847.913.915 2.127 1.418 3.419 1.418 1.291 0 2.505-.505 3.419-1.42l.907-.91-.204-1.778 2.11.855.207-.056c1.581-.443 3.031-1.294 4.194-2.459l.339-.34c.39-.391-.843-1.023-1.233-1.412z" opacity=".5"/><path d="m10.765 20.085 1.372-.385-7.827-7.835-.383 1.373-.536.537 6.838 6.846"/><path d="m21.993 7.838c-.533-.535-1.217-.852-1.934-.921-.093-.737-.425-1.444-.985-2.005-.563-.563-1.271-.896-2.009-.989-.071-.72-.384-1.411-.91-1.939-1.061-1.061-2.681-1.24-3.945-.436l-.183.116c-1.623 1.034-3.027 2.44-4.058 4.067l-.847 1.419c-.244.386-.199.903.138 1.24l8.359 8.378c.195.196.452.294.708.294.148 0 .296-.033.432-.098l1.497-.929c1.622-1.033 3.025-2.438 4.059-4.068l.114-.181c.802-1.266.623-2.89-.435-3.948zm-4.336-1.514c.475.476.559 1.232.198 1.801-.875 1.381-2.064 2.573-3.442 3.449l-.705.449-1.733-1.737.45-.71c.874-1.379 2.064-2.572 3.442-3.45.571-.363 1.309-.284 1.79.198zm-4.558-2.971.183-.116c.467-.296 1.064-.23 1.456.16.237.238.357.554.344.876-.098.05-.195.104-.289.165-1.625 1.035-3.027 2.441-4.058 4.067l-.208.329-1.319-1.322.45-.71c.875-1.38 2.066-2.573 3.442-3.449zm7.638 7.364-.114.181c-.875 1.381-2.065 2.573-3.442 3.449l-.705.449-1.32-1.323.332-.212c1.623-1.033 3.026-2.438 4.058-4.066.06-.094.114-.191.164-.288.32-.011.633.108.868.344.393.393.459.995.16 1.467z"/></svg>