<svg id="Layer_1" viewBox="0 0 24 24" xmlns="http://www.w3.org/2000/svg" data-name="Layer 1"><path d="m20.166 4.031c-.174-1.21-1.106-2.212-2.319-2.494-1.034-.241-2.084-.419-3.123-.532-.499-.052-.97.277-1.083.772-.167.735-.828 1.229-1.639 1.231-.816-.002-1.477-.497-1.644-1.231-.113-.495-.584-.824-1.083-.772-1.038.112-2.088.291-3.122.532-1.213.282-2.145 1.284-2.319 2.494-.473 3.285-.652 6.598-.537 9.905.205.276 1.155.872 1.155.872s-.915.755-1.05 1.128c.095 1.347.239 2.692.432 4.033.174 1.21 1.106 2.212 2.319 2.494 1.034.241 2.084.419 3.123.532.499.054.97-.277 1.083-.772.167-.735.828-1.23 1.639-1.232.816.002 1.477.497 1.644 1.232.104.459.513.778.974.778.036 0 .072-.002.108-.006 1.038-.112 2.088-.291 3.122-.532 1.213-.282 2.145-1.284 2.319-2.494.193-1.34.337-2.685.432-4.033-.415-.224-1.329-1.028-1.329-1.028s.827-.644 1.435-.972c.115-3.307-.064-6.62-.537-9.905z" opacity=".5"/><path d="m7.088 13.936h-3.79c.023.667.058 1.334.105 2h3.684c.552 0 1-.448 1-1s-.448-1-1-1z"/><path d="m20.702 13.936h-3.789c-.552 0-1 .448-1 1s.448 1 1 1h3.684c.047-.666.082-1.333.105-2z"/><path d="m12.694 15.936h-1.389c-.552 0-1-.448-1-1s.448-1 1-1h1.389c.552 0 1 .448 1 1s-.448 1-1 1z"/></svg>