<svg id="Layer_1" viewBox="0 0 24 24" xmlns="http://www.w3.org/2000/svg" data-name="Layer 1"><path d="m14.853 2.684c-.296-.03-1.68-.442-11.395.954-.377.054-.719.542-.838.905-.076.235-1.557 4.873-.503 11.949.073.49.404.593.553.551l10.375-.138c.648 0 1.083-.518 1.548-.902.425-.351 1.173-.016 1.767-.507.059-.221.091-.454.091-.693v-1.755l-.637-1 .637-1v-2.448l-.956-1 .956-1v-3.087c0-.426-.936-.761-1.599-.829z" opacity=".5"/><path d="m20.444 15.318c-.229 0-.835.742-1.03.929-1.29.304-2.253 1.47-2.253 2.857 0 1.618 1.31 2.934 2.919 2.934s2.919-1.316 2.919-2.934c0-1.14-.651-2.131-1.598-2.616-.213-.422-.483-1.17-.958-1.17z" opacity=".5"/><path d="m20.629 3.68c-.104-.323-.365-.572-.693-.659-.162-.043-4.009-1.058-8.558-1.058s-8.395 1.014-8.557 1.057c-.33.088-.591.338-.695.663-.046.145-1.126 3.589-1.126 8.18 0 4.63 1.081 8.04 1.127 8.183.104.323.365.572.693.66.162.043 4.009 1.058 8.557 1.058.951 0 1.943-.045 2.95-.134.55-.049.957-.534.908-1.084-.048-.55-.524-.946-1.084-.908-.948.084-1.881.126-2.773.126-3.318 0-6.307-.59-7.496-.859-.087-.333-.204-.814-.323-1.415h10.206c1.241 0 2.288-.847 2.595-1.993h-13.126c-.095-.743-.171-1.566-.209-2.448h13.426v-2h-13.439c.026-.874.092-1.697.179-2.448h13.26v-2h-12.959c.143-.77.288-1.379.392-1.778 1.192-.269 4.185-.859 7.495-.859s6.307.59 7.497.859c.286 1.089.881 3.756.881 7.041 0 1.445-.115 2.917-.341 4.385.214-.05.437-.078.666-.078.475 0 .924.115 1.321.319.235-1.547.354-3.1.354-4.625 0-4.629-1.081-8.04-1.127-8.183z"/></svg>