<svg id="Layer_1" viewBox="0 0 24 24" xmlns="http://www.w3.org/2000/svg" data-name="Layer 1"><path d="m12.003 1c-1.518 0-3.102.11-4.58.518-.291.347-.215.708-.646.896-.525.23-1.422.272-2.187.424-1.73 1.252-3.031 3.321-3.446 6.706.002.004-.003.015-.001.019.319.634.514.196.514 1.078 0 .901-.604 3.089-.509 3.85.345 2.761 1.281 4.643 2.559 5.918.466.072.572-.266.915-.026.387.271.946 1.067 1.28 1.545 1.87.871 4.046 1.072 6.101 1.072 3.464 0 7.275-.572 9.378-3.96-.072-.745.031-.959.256-1.569.184-.496.729-1.105 1.004-1.694.188-.877.307-1.857.347-2.954-.395-.309-.768-.298-.768-.58 0-.222.011-.143.005-.357-.013-.461.536-1.461.688-1.864-.408-4.296-2.175-6.584-4.463-7.78-.005-.003-.887-.414-1.345-.566-.534-.178-1.661-.414-1.669-.416-1.134-.2-2.303-.261-3.434-.261z" opacity=".5"/><path d="m6.436 17.386c2.535 2.072 5.648 3.107 8.757 3.107 2.128 0 4.253-.485 6.188-1.454.548-.883.979-1.957 1.259-3.262-4.292 3.556-10.638 3.552-14.964-.036.995-.968 2.39-1.798 4.216-2.542 1.717.777 3.748 1.484 5.843 1.484 1.755 0 3.555-.497 5.252-1.861.01-.267.015-.54.015-.821 0-.703-.027-1.362-.086-1.98-1.53 1.811-3.289 2.662-5.462 2.582 2.16-3.061 2.486-7.033.982-10.369-.932-.485-1.949-.788-2.997-.974 2.588 3.199 2.488 7.87-.304 10.954-.689-.194-1.415-.459-2.182-.795-.083-3.844-.97-8.032-5.528-9.9-1.013.279-1.976.699-2.833 1.319 1.717.313 3.048.914 4.034 1.859-3.09.631-5.732 2.419-7.485 4.864-.091.748-.14 1.56-.14 2.442 0 .904.051 1.734.146 2.498.363-1.68 1.157-3.25 2.337-4.576 1.687-1.897 3.966-3.076 6.461-3.355.587 1.259.89 2.85.946 4.817-3.609 1.494-7.242 3.901-7.186 9.027.654.653 1.397 1.147 2.196 1.519-.291-1.774-.127-3.265.535-4.545z"/></svg>