<svg id="Layer_1" viewBox="0 0 24 24" xmlns="http://www.w3.org/2000/svg" data-name="Layer 1"><path d="m22.189 11.125c-.157-4.431-1.177-7.642-1.224-7.787-.102-.316-.354-.561-.673-.654-.155-.045-3.684-1.055-7.967-1.152-.39-.01-.808-.01-1.199 0-4.283.097-7.812 1.107-7.967 1.152-.328.095-.585.352-.681.68-.046.157-1.125 3.902-1.125 8.898 0 5.039 1.08 8.746 1.125 8.901.097.327.353.582.68.676.163.047 4.039 1.16 8.622 1.16.436 0 .882-.01 1.334-.031.404-.349.672-1.227 1.438-1.249l.629.621 6.413-6.624-.698-.688c.163-.168.251-.37.268-.604.03-.405.568-.459 1.016-.793.018-.459.027-.917.027-1.371 0-.002 0-.399-.02-1.137z" opacity=".5"/><path d="m22.637 4.353c-.019-.139-.207-1.379-1.098-2.274-.892-.868-2.138-1.053-2.277-1.071-.233-.029-.467.022-.664.146-.088.056-2.201 1.41-6.512 5.677-4.537 4.491-5.752 6.281-5.801 6.355-.09.135-.146.289-.163.45l-.314 2.95c-.032.3.073.599.287.812.188.189.443.293.708.293.035 0 .069-.002.104-.005l2.981-.312c.159-.017.311-.071.444-.158.075-.049 1.882-1.251 6.419-5.742 4.311-4.268 5.68-6.36 5.736-6.447.129-.2.182-.439.151-.675z"/><path d="m22.114 14.848c.03-.405.052-.811.068-1.216-.604.074-1.157.14-1.502.178-3.228.349-5.625.989-5.725 1.016-.34.091-.606.355-.702.694-.028.101-.701 2.511-1.006 6.032-.027.312-.078.855-.13 1.416.393-.018.79-.043 1.19-.076.242-.02.467-.127.636-.301l.242-.25c.023-.245.042-.46.056-.616.206-2.367.592-4.226.8-5.106.873-.204 2.68-.585 4.856-.82.183-.02.425-.048.702-.081l.239-.247c.163-.168.262-.389.279-.623z"/></svg>