<svg id="Layer_1" viewBox="0 0 24 24" xmlns="http://www.w3.org/2000/svg" data-name="Layer 1"><path d="m5.469 12.86c-2.965 0-4.469 1.507-4.469 4.48 0 3.015 1.462 4.48 4.469 4.48 2.965 0 4.469-1.507 4.469-4.48 0-3.015-1.462-4.48-4.469-4.48z" opacity=".5"/><path d="m18.531 12.86c-2.965 0-4.469 1.507-4.469 4.48 0 3.015 1.462 4.48 4.469 4.48 2.965 0 4.469-1.507 4.469-4.48 0-3.015-1.462-4.48-4.469-4.48z" opacity=".5"/><path d="m15.736 2.18c-1.353 0-2.129.777-2.129 2.132s.776 2.132 2.129 2.132 2.128-.777 2.128-2.132-.775-2.132-2.128-2.132z"/><path d="m12.009 18.34c-.553 0-1-.448-1-1v-1.903c0-.824-.312-1.606-.879-2.202l-1.583-1.786c-.216-.244-.3-.579-.224-.896.508-2.122 2.302-3.723 4.464-3.982.302-.035.604.066.821.28l1.278 1.259c.597.589 1.386.913 2.223.913h1.057c.553 0 1 .448 1 1s-.447 1-1 1h-1.057c-1.365 0-2.653-.529-3.627-1.489l-.905-.892c-.972.262-1.774.972-2.157 1.905l1.184 1.335c.897.943 1.405 2.215 1.405 3.554v1.903c0 .552-.447 1-1 1z"/></svg>