<svg id="Layer_1" viewBox="0 0 24 24" xmlns="http://www.w3.org/2000/svg" data-name="Layer 1"><path d="m20.007 13.996c-1.071-1.813-2.999-2.924-5.123-2.924-1.13 0-2.209.311-3.154.904-1.984-.545-4.215.164-5.527 1.758-1.748.314-3.054 1.84-3.054 3.669 0 2.026 1.62 3.68 3.629 3.727 1.386 1.231 3.425 1.656 5.169 1.096.892.508 1.896.774 2.936.774 1.695 0 3.279-.707 4.407-1.954 1.692-.367 2.921-1.864 2.921-3.643 0-1.494-.871-2.815-2.205-3.407z"/><path d="m20.651 8.68c-1.135-1.777-3.102-2.821-5.228-2.747-1.131.039-2.2.388-3.124 1.015-2.004-.477-4.213.311-5.47 1.952-1.738.376-2.992 1.948-2.928 3.778.071 2.028 1.749 3.626 3.762 3.603 1.43 1.184 3.485 1.538 5.211.916.91.477 1.925.709 2.965.673 1.696-.059 3.257-.822 4.342-2.109 1.68-.426 2.858-1.967 2.796-3.747-.052-1.495-.969-2.787-2.325-3.333z" opacity=".5"/><path d="m2.4 10.217c.626-1.41 1.798-2.539 3.296-3.071.357-.381.755-.719 1.182-1.014.399-.271.818-.511 1.26-.702.933-.408 1.956-.613 2.974-.621.265 0 .53.015.792.044 1.059-.562 2.236-.877 3.448-.92.094-.003.188-.005.282-.005.316 0 .629.018.937.055.025-.075.042-.153.049-.233.029-.333-.11-.657-.371-.866-1.315-1.054-3.132-1.421-4.74-.98-.944-.593-2.023-.904-3.153-.904-2.125 0-4.053 1.11-5.123 2.924-1.334.592-2.205 1.913-2.205 3.407 0 1.138.532 2.192 1.372 2.886z" opacity=".5"/></svg>