<svg id="Layer_1" viewBox="0 0 24 24" xmlns="http://www.w3.org/2000/svg" data-name="Layer 1"><path d="m19.079 23c-.281 0-.565-.034-.847-.102l-16.083-3.893c-.537-.13-.867-.671-.737-1.208s.673-.863 1.208-.737l16.084 3.894c.411.101.833.032 1.193-.19.377-.232.642-.604.743-1.046.125-.538.666-.873 1.2-.748.538.125.873.662.749 1.2-.225.966-.808 1.782-1.644 2.296-.571.352-1.214.533-1.867.533z" opacity=".5"/><path d="m15.586 3.628c-.011-.993-.379-2.63-2.661-2.628-2.289.025-2.613 1.692-2.602 2.684.011.984.366 2.627 2.611 2.627h.049c2.288-.024 2.612-1.691 2.603-2.683z"/><path d="m18.566 18.027c-.229-.477-1.453-2.89-3.09-3.561-.332-.136-.673-.2-1.023-.213l1.054-5.869c.053-.294-.028-.596-.222-.824-.193-.228-.479-.353-.777-.353l-4.501.068c-.053.004-.538.043-1.276.265-2.104.632-3.847 1.421-5.331 2.411-.459.306-.583.927-.276 1.387.306.458.927.583 1.387.276 1.036-.691 2.229-1.275 3.622-1.773-.822 2.175-1.22 4.978-.569 6.313.316.649.88 1.024 1.547 1.028 1.245.013 2.387-.3 3.384-.57.909-.248 1.769-.482 2.224-.295.69.283 1.611 1.677 2.045 2.576.173.357.53.566.902.566.146 0 .293-.032.433-.099.497-.239.707-.836.468-1.333z"/></svg>