<svg id="Layer_1" viewBox="0 0 24 24" xmlns="http://www.w3.org/2000/svg" data-name="Layer 1"><path d="m11.949 1.768c-.331 0-.693-.573-.949-.75-4.673.172-9.613 1.737-9.978 9.982.238.3.806.665.806 1.009s-.358.699-.806.991c.366 8.245 5.305 9.81 9.978 9.982.393-.399.57-.807.901-.807s.707.399 1.099.807c4.673-.173 9.613-1.738 9.978-9.982-.817-.367-1.132-.656-1.132-1s.63-.617 1.132-1c-.365-8.245-5.305-9.81-9.978-9.982-.358.306-.72.75-1.051.75z" opacity=".5"/><path d="m14.27 11h-1.27v-1.27c0-.552-.447-1-1-1s-1 .448-1 1v1.27h-1.27c-.553 0-1 .448-1 1s.447 1 1 1h1.27v1.27c0 .552.447 1 1 1s1-.448 1-1v-1.27h1.27c.553 0 1-.448 1-1s-.447-1-1-1z"/><path d="m12 1c-.331 0-.665.005-1 .018v2.965c0 .552.447 1 1 1s1-.448 1-1v-2.965c-.335-.012-.669-.018-1-.018z"/><path d="m19.017 12c0 .552.447 1 1 1h2.961c.014-.323.022-.656.022-1s-.008-.677-.022-1h-2.961c-.553 0-1 .448-1 1z"/><path d="m12 19.017c-.553 0-1 .448-1 1v2.966c.335.012.669.018 1 .018s.665-.005 1-.018v-2.966c0-.552-.447-1-1-1z"/><path d="m3.983 11h-2.961c-.014.323-.022.656-.022 1s.008.677.022 1h2.961c.553 0 1-.448 1-1s-.447-1-1-1z"/></svg>