<svg id="Layer_1" viewBox="0 0 24 24" xmlns="http://www.w3.org/2000/svg" data-name="Layer 1"><path d="m16.812 13.45c-.352-.955-1.23-1.558-2.213-1.499-.655.021-1.31.037-1.964.051-.144-.004-.276-.088-.321-.232-.195-.627-.39-1.254-.588-1.88-.314-.996-1.218-1.64-2.302-1.64s-1.989.644-2.302 1.639c-.199.626-.394 1.253-.588 1.88-.045.146-.162.224-.321.233-.655-.014-1.31-.03-1.954-.051-1.002-.06-1.872.545-2.224 1.499-.382 1.038-.059 2.188.814 2.868.532.407 1.061.806 1.589 1.199.13.097.177.268.119.436-.218.636-.445 1.276-.68 1.913-.377.995-.105 2.035.692 2.651.834.645 2.012.642 2.934-.015l1.674-1.199c.149-.106.342-.105.492 0l1.678 1.202c.461.327.988.491 1.504.491.51 0 1.01-.16 1.425-.48.797-.616 1.069-1.656.695-2.644-.238-.645-.464-1.285-.683-1.92-.058-.169-.011-.34.119-.438.528-.393 1.057-.791 1.596-1.203.865-.675 1.189-1.825.807-2.863z" opacity=".5"/><path d="m22.003 4.359c-.271-.736-.954-1.192-1.707-1.157-.336.011-.673.02-1.009.027l-.303-.969s0-.003 0-.003c-.238-.752-.943-1.258-1.755-1.258s-1.519.507-1.755 1.257l-.305.973c-.336-.008-.671-.017-.995-.026-.772-.025-1.45.419-1.722 1.156-.289.783-.043 1.652.618 2.166.281.216.561.427.84.636-.117.338-.237.677-.361 1.012-.289.763-.076 1.563.543 2.041.638.493 1.531.496 2.229 0l.906-.65.911.653c.345.245.74.367 1.129.367.391 0 .775-.123 1.095-.37.618-.478.832-1.279.546-2.035-.126-.341-.247-.681-.364-1.019.279-.208.56-.42.847-.64.654-.51.9-1.379.611-2.162z"/></svg>