<svg id="Layer_1" viewBox="0 0 24 24" xmlns="http://www.w3.org/2000/svg" data-name="Layer 1"><path d="m19.041 2.945c-.067-.324-.292-.594-.599-.72-.121-.05-3.02-1.226-6.442-1.226-3.362 0-6.312 1.173-6.437 1.223-.311.125-.538.398-.605.727-.033.161-.809 3.997-.809 9.051 0 .309.003.613.008.912.423.36.968.96.968.96s-.513.774-.892 1.068c.202 3.536.697 5.983.724 6.111.067.331.298.605.612.729.126.05 3.129 1.22 6.43 1.22 3.416 0 6.32-1.175 6.442-1.225.308-.126.532-.397.6-.723.026-.127.522-2.56.724-6.108-.682-.474-.967-.68-.954-1.033.012-.325.715-.642 1.03-.996.005-.3.008-.605.008-.915 0-5.129-.776-8.896-.81-9.055z" opacity=".5"/><path d="m13.136 19.149h-2.271c-.553 0-1-.448-1-1s.447-1 1-1h2.271c.553 0 1 .448 1 1s-.447 1-1 1z"/><path d="m4.158 12.912c.013.708.041 1.384.078 2.028 1.585.2 4.573.513 7.764.513 3.273 0 6.204-.308 7.765-.509.037-.643.065-1.319.077-2.029-1.386.186-4.455.538-7.842.538-3.287 0-6.426-.356-7.842-.541z"/></svg>