<svg id="Layer_1" viewBox="0 0 24 24" xmlns="http://www.w3.org/2000/svg" data-name="Layer 1"><path d="m21.795 2.883c-.11-.32-.375-.562-.703-.644-.172-.043-4.259-1.047-9.092-1.047-4.746 0-8.912 1.004-9.087 1.046-.332.082-.6.327-.71.651-.049.145-1.203 3.605-1.203 8.151s1.154 8.006 1.203 8.151c.11.326.38.572.715.652.109.026 2.649.628 5.954.907 1.32 1.184 2.582 1.897 2.639 1.929.151.085.32.128.489.128.162 0 .324-.04.473-.119.054-.029 1.274-.689 2.652-1.933 3.372-.277 5.858-.888 5.966-.915.33-.082.596-.326.705-.647.049-.144 1.204-3.579 1.204-8.153 0-4.614-1.156-8.015-1.205-8.157z" opacity=".5"/><path d="m17.563 11.867h-11.126c-.553 0-1-.448-1-1s.447-1 1-1h11.127c.553 0 1 .448 1 1s-.447 1-1 1z"/><path d="m16.563 15.888h-9.126c-.553 0-1-.448-1-1s.447-1 1-1h9.127c.553 0 1 .448 1 1s-.447 1-1 1z"/><path d="m10.532 7.846h-3.096c-.553 0-1-.448-1-1s.447-1 1-1h3.096c.553 0 1 .448 1 1s-.447 1-1 1z"/></svg>