<svg id="Layer_1" viewBox="0 0 24 24" xmlns="http://www.w3.org/2000/svg" data-name="Layer 1"><path d="m4.275 13.603c-.552 0-1-.447-1-1 0-7.495 2.691-10.837 8.725-10.837s8.726 3.342 8.726 10.836c0 .552-.447 1-1 1s-1-.448-1-1c0-7.333-2.688-8.836-6.726-8.836s-6.725 1.503-6.725 8.836c0 .552-.448 1-1 1z" opacity=".5"/><path d="m8.324 12.008c-.136-.409-.518-.685-.949-.685-1.577 0-6.375 0-6.375 5.455 0 4.89 3.638 5.456 6.375 5.456.431 0 .813-.276.949-.685 1.02-3.076 1.02-6.464 0-9.541z"/><path d="m16.625 11.323c-.431 0-.813.276-.949.685-1.021 3.076-1.021 6.464 0 9.541.136.409.519.685.949.685 1.577 0 6.375 0 6.375-5.456 0-4.89-3.639-5.455-6.375-5.455z"/></svg>