<svg id="Layer_1" viewBox="0 0 24 24" xmlns="http://www.w3.org/2000/svg" data-name="Layer 1"><path d="m21.499 6.603c-3.288-2.435-5.366-3.685-9.132-5.503-.265-.129-.571-.133-.839-.014-3.962 1.752-6.1 2.947-9.013 5.047.142.354.499 1.082.499 1.402l-1.074.722v8.727c0 .229.079.452.224.63 1.84 2.269 6.906 4.349 8.823 5.078.4-.278.363-.649.473-.609.108.039.419-.098.532-.098s.376.18.484.142c.11-.039.103.196.539.566 1.916-.729 6.982-2.809 8.822-5.078.145-.178.224-.4.224-.63v-8.279l-.912-.932c0-.316.054-.538.351-1.172z" opacity=".5"/><path d="m13.014 13.426c4.117-1.695 6.499-2.923 9.046-4.719v-1.183c0-.316-.149-.614-.403-.803-.053-.039-.106-.078-.158-.117-2.71 1.987-5.065 3.226-9.501 5.042-4.233-1.815-6.571-3.163-9.482-5.513-.054.039-.107.078-.162.117-.26.188-.413.489-.413.81v1.197c2.716 2.114 5.083 3.447 9.046 5.157v9.277c.332.126.569.212.679.251.108.039.222.058.335.058s.227-.02.335-.058c.11-.039.347-.125.679-.251v-9.265z"/></svg>