<svg id="Layer_1" viewBox="0 0 24 24" xmlns="http://www.w3.org/2000/svg" data-name="Layer 1"><path d="m3.458 3.928c-.55 1.091-1.096 2.203-1.66 3.349l-.449.914.276.995c-.075.152.248 1.329.256 1.499.039.813.291 1.218-.784.888.008 1.103-.015 2.207-.067 3.303-.008.169.027.338.102.49l.667 1.356c.569 1.158 1.121 2.281 1.676 3.382.096.19.25.345.44.441.841.427 1.694.851 2.566 1.282.256.127.933-.778 1.193-.65 0 0 1.665 1.811 1.768 1.806 1.699-.074 3.418-.074 5.117 0 .315-.23.855-1.246.994-1.315l1.181-.926c.26-.128.359.646.784 1.084.872-.431 1.726-.856 2.567-1.283.19-.096.344-.251.44-.441.556-1.101 1.107-2.224 1.676-3.382l.667-1.356c.075-.152.11-.321.102-.49-.053-1.096-.075-2.2-.067-3.304-.947.036-.943-.61-.904-1.422.008-.169.188-.534.354-.989l.298-.97-.449-.914c-.563-1.146-1.11-2.258-1.66-3.349-.006-.011-.011-.022-.017-.033-.096-.19-.25-.345-.44-.441-.76-.386-1.531-.77-2.316-1.159-.339-.168-.68-.336-1.024-.506l-1.385-.685c-.152-.075-.322-.11-.493-.103-1.902.093-3.832.093-5.734 0-.172-.008-.34.027-.493.103l-1.385.685c-.344.17-.686.339-1.024.506l.01 1.205-2.784.428z" opacity=".5"/><path d="m19.374 14.872c1.356-.897 2.549-2.013 3.53-3.3.006-.818.028-1.636.067-2.448.008-.169-.027-.338-.102-.49l-.218-.442-.216.41c-.976 1.854-2.401 3.43-4.139 4.584l-5.295-2.126v-4.759c2.186-1.326 4.669-2.134 7.215-2.345l.326-.028c-.006-.011-.011-.022-.017-.033-.096-.19-.25-.345-.44-.441-.76-.386-1.531-.77-2.316-1.159-2.031.428-3.987 1.197-5.769 2.272-1.782-1.075-3.738-1.845-5.769-2.273-.785.389-1.556.773-2.317 1.159-.19.096-.344.251-.44.441-.006.011-.011.022-.017.033l.326.028c2.547.21 5.029 1.019 7.215 2.345v4.758l-5.295 2.126c-1.738-1.154-3.163-2.73-4.139-4.584l-.216-.41-.218.442c-.075.152-.11.321-.102.49.039.813.061 1.631.067 2.449.982 1.288 2.174 2.404 3.53 3.3.157 2.419.79 4.785 1.854 6.955.257.127.514.254.774.383l1.385.685c.152.076.322.111.493.103.103-.005.206-.01.31-.014-.053-.094-.332-.543-.332-.543-1.414-2.256-2.261-4.826-2.469-7.476l5.359-2.152 5.359 2.152c-.208 2.65-1.055 5.221-2.469 7.476 0 0-.279.449-.332.543.103.004.205.009.308.014h.048c.154 0 .306-.036.444-.104l1.385-.685c.26-.128.517-.256.774-.382 1.065-2.171 1.698-4.537 1.855-6.957z"/></svg>