<svg id="Layer_1" viewBox="0 0 24 24" xmlns="http://www.w3.org/2000/svg" data-name="Layer 1"><path d="m16.509 23h-9.018c-.553 0-1-.448-1-1s.447-1 1-1h9.019c.553 0 1 .448 1 1s-.447 1-1 1z"/><path d="m20.396 8.828c-1.037-.77-2.223-1.104-3.414-.977.045-.115.086-.229.12-.341.445-1.445.174-2.942-.766-4.214-1.029-1.394-2.731-2.294-4.337-2.294s-3.308.901-4.337 2.294c-.939 1.272-1.211 2.769-.766 4.214.035.112.075.226.12.342-1.192-.127-2.377.207-3.414.977-1.375 1.022-2.264 2.695-2.264 4.262s.889 3.24 2.264 4.262c.894.664 1.897 1.004 2.921 1.004.457 0 .919-.068 1.375-.206 1.085-.328 2.106-1.138 2.937-1.987-.123 1.948-.399 4.146-2.127 4.926-.43.194-.666.661-.566 1.122.099.46.506.33.978.33l5.69.05c.472 0 .879.08.978-.381.1-.46-.137-.928-.566-1.122-1.725-.777-2-3.021-2.128-4.998.843.874 1.891 1.722 3.007 2.059.457.138.918.206 1.375.206 1.022 0 2.027-.34 2.921-1.004 1.375-1.022 2.264-2.694 2.264-4.262s-.889-3.24-2.264-4.262z" opacity=".5"/></svg>