<svg id="Layer_1" viewBox="0 0 24 24" xmlns="http://www.w3.org/2000/svg" data-name="Layer 1"><path d="m16.097 13.97c-.155-3.176-2.812-5.712-6.054-5.712-3.343 0-6.062 2.694-6.062 6.006 0 .153.006.306.018.458-1.724.552-2.957 2.157-2.957 4.036 0 2.338 1.918 4.241 4.276 4.241h9.024c2.604 0 4.722-2.101 4.722-4.682 0-1.934-1.207-3.648-2.967-4.348z" opacity=".5"/><path d="m13.338 6.747c-.235 0-.471-.082-.661-.25-.414-.365-.454-.997-.089-1.412 2.359-2.678 5.792-4.176 9.36-4.082.552.013.989.471.977 1.023-.014.552-.466.988-1.023.976-2.978-.045-5.845 1.171-7.813 3.406-.197.224-.474.339-.75.339z"/><path d="m16.778 9.167c-.256 0-.512-.098-.707-.293-.391-.391-.391-1.024 0-1.414 1.557-1.555 3.719-2.394 5.93-2.296.552.023.979.49.956 1.042-.024.552-.486.986-1.042.956-1.645-.061-3.269.553-4.43 1.713-.195.195-.451.292-.707.292z"/><path d="m19.613 12.231c-.235 0-.472-.083-.661-.25-.414-.365-.454-.997-.089-1.412.785-.889 1.955-1.35 3.142-1.243.55.052.953.539.902 1.089-.052.55-.536.953-1.09.902-.545-.047-1.092.163-1.454.575-.197.224-.474.338-.75.338z"/></svg>