<svg id="Layer_1" viewBox="0 0 24 24" xmlns="http://www.w3.org/2000/svg" data-name="Layer 1"><path d="m19.303 8.814c-.09-4.031-3.337-7.282-7.316-7.282-4.035 0-7.317 3.344-7.317 7.454 0 .271.014.54.042.807-2.151.612-3.712 2.621-3.712 4.986s1.565 4.419 3.735 4.99c.11.038 2.775.925 10.081.818.307.07 1.046.212 1.965.212 1.182 0 2.66-.235 3.897-1.163 1.162-1.03 2.12-2.841 2.322-5.405.119-2.432-1.463-4.594-3.697-5.418z" opacity=".5"/><path d="m18.99 15.406c-.195-2.395-2.174-4.283-4.579-4.283-2.533 0-4.594 2.096-4.594 4.671 0 .053 0 .106.002.16-1.229.5-2.09 1.72-2.09 3.137 0 1.862 1.492 3.377 3.327 3.377h6.409c2.009 0 3.644-1.66 3.644-3.701 0-1.462-.854-2.767-2.118-3.361z"/></svg>