<svg id="Layer_1" viewBox="0 0 24 24" xmlns="http://www.w3.org/2000/svg" data-name="Layer 1"><path d="m9.283 15.756c-.253 0-.507-.096-.702-.288-.393-.388-.397-1.021-.01-1.414l5.435-5.512c.387-.393 1.021-.398 1.414-.01s.397 1.021.01 1.414l-5.435 5.512c-.195.198-.454.298-.712.298z"/><path d="m18.233 15.883c-.233 0-.467-.081-.657-.247-.416-.363-.459-.995-.096-1.411 4.703-5.388 3.669-7.837 1.852-9.681-1.807-1.833-4.209-2.872-9.506 1.879-.412.368-1.043.333-1.412-.077-.369-.411-.334-1.043.077-1.412 5.081-4.556 8.979-5.127 12.264-1.794 3.322 3.369 2.776 7.193-1.769 12.4-.198.227-.475.342-.754.342z" opacity=".5"/><path d="m7.81 22.988c-1.662 0-3.168-.711-4.565-2.128-3.322-3.369-2.777-7.193 1.768-12.401.364-.417.995-.459 1.411-.096s.459.995.096 1.411c-4.703 5.389-3.669 7.837-1.852 9.681 1.807 1.832 4.208 2.873 9.506-1.879.411-.369 1.043-.334 1.412.077s.334 1.043-.077 1.412c-2.921 2.62-5.452 3.922-7.699 3.922z" opacity=".5"/></svg>