<svg id="Layer_1" viewBox="0 0 24 24" xmlns="http://www.w3.org/2000/svg" data-name="Layer 1"><path d="m21.933 16.484c-.72-.722-1.438-1.073-2.192-1.073-.995 0-1.729.62-2.195 1.087-1.816 1.82-1.01 3.393-.014 4.391.721.722 1.438 1.073 2.194 1.072.995 0 1.729-.619 2.194-1.086 1.816-1.82 1.01-3.393.014-4.391z"/><path d="m20.367 3.904c-.368-.542-.955-1.031-1.654-1.378-.698-.347-1.453-.518-2.099-.483-.902.049-1.627.496-1.989 1.227l-1.623 3.27.378.822-1.507 1.453-3.05 6.147c-.15.301-.518.426-.819.276-.303-.15-.427-.518-.276-.82.814-1.646.139-3.648-1.506-4.463-1.648-.816-3.648-.141-4.465 1.504-.862 1.738-.995 3.71-.374 5.553.621 1.842 1.921 3.331 3.659 4.192 1.036.514 2.136.757 3.221.757 2.679 0 5.261-1.483 6.53-4.04l3.052-6.151.211-1.711.916-.56 1.622-3.27c.362-.73.28-1.578-.227-2.325z" opacity=".5"/><path d="m11.875 8.816c.81-.503 2.303-.242 3.539.371h.001c1.233.611 2.338 1.638 2.431 2.583l1.127-2.271c-.608-.8-1.514-1.531-2.671-2.105-1.159-.575-2.291-.854-3.298-.854l-1.128 2.276z"/></svg>