<svg id="Layer_1" viewBox="0 0 24 24" xmlns="http://www.w3.org/2000/svg" data-name="Layer 1"><path d="m19.587 12-4.788-4.874-3.601-3.642c-.354-.354-.951-1.095-1.349-.793-.692.525-2.091 1.644-3.677 3.233-3.17 3.177-4.951 6.067-5.025 6.188-.176.287-.195.644-.051.948.055.116 1.367 2.869 3.764 5.271 2.392 2.396 5.144 3.716 5.26 3.771.136.065.283.097.429.097.183 0 .365-.05.525-.149.122-.076 3.03-1.884 6.174-5.034 1.597-1.599 2.708-2.994 3.229-3.683.301-.398-.536-.979-.888-1.332z" opacity=".5"/><path d="m20.361 14.249c-.256 0-.512-.098-.708-.293l-10.427-10.447c-.39-.391-.389-1.024.001-1.415.392-.389 1.024-.39 1.415.001l10.427 10.447c.39.391.389 1.024-.001 1.415-.195.194-.451.292-.707.292z"/><path d="m12.403 11.775c-.256 0-.512-.098-.708-.293l-6.584-6.596c-.391-.391-.39-1.024 0-1.414.392-.392 1.024-.39 1.414 0l6.584 6.596c.391.391.39 1.024 0 1.414-.195.195-.451.292-.707.292z"/><path d="m21.352 16.326c-.337-.228-.778-.228-1.116 0-.169.113-1.648 1.153-1.648 2.7 0 1.218.99 2.208 2.207 2.208s2.206-.991 2.206-2.208c0-1.546-1.479-2.586-1.648-2.7z"/></svg>