<svg id="Layer_1" viewBox="0 0 24 24" xmlns="http://www.w3.org/2000/svg" data-name="Layer 1"><circle cx="12" cy="12" r="7.766"/><path d="m12 5.898c-.552 0-1-.448-1-1v-2.898c0-.552.448-1 1-1s1 .448 1 1v2.898c0 .552-.448 1-1 1z" opacity=".5"/><path d="m12 23c-.552 0-1-.448-1-1v-2.898c0-.552.448-1 1-1s1 .448 1 1v2.898c0 .552-.448 1-1 1z" opacity=".5"/><path d="m22 13h-2.898c-.552 0-1-.448-1-1s.448-1 1-1h2.898c.552 0 1 .448 1 1s-.448 1-1 1z" opacity=".5"/><path d="m4.898 13h-2.898c-.552 0-1-.448-1-1s.448-1 1-1h2.898c.552 0 1 .448 1 1s-.448 1-1 1z" opacity=".5"/><path d="m17.294 7.706c-.256 0-.512-.098-.707-.293-.391-.391-.391-1.023 0-1.414l1.777-1.777c.391-.391 1.023-.391 1.414 0s.391 1.023 0 1.414l-1.777 1.777c-.195.195-.451.293-.707.293z" opacity=".5"/><path d="m4.929 20.071c-.256 0-.512-.098-.707-.293-.391-.391-.391-1.023 0-1.414l1.816-1.816c.391-.391 1.023-.391 1.414 0s.391 1.023 0 1.414l-1.816 1.816c-.195.195-.451.293-.707.293z" opacity=".5"/><path d="m19.071 20.071c-.256 0-.512-.098-.707-.293l-1.835-1.835c-.391-.391-.391-1.023 0-1.414s1.023-.391 1.414 0l1.835 1.835c.391.391.391 1.023 0 1.414-.195.195-.451.293-.707.293z" opacity=".5"/><path d="m6.777 7.777c-.256 0-.512-.098-.707-.293l-1.848-1.848c-.391-.391-.391-1.023 0-1.414s1.023-.391 1.414 0l1.848 1.848c.391.391.391 1.023 0 1.414-.195.195-.451.293-.707.293z" opacity=".5"/></svg>