<svg id="Layer_1" viewBox="0 0 24 24" xmlns="http://www.w3.org/2000/svg" data-name="Layer 1"><path d="m18.053 9.229c-1.334-5.241-5.485-8.057-5.527-8.082-.104-.064-.216-.105-.331-.127-.246-.05-.504-.007-.722.127-.042.025-4.192 2.841-5.526 8.082-.136.531.183 1.072.712 1.213 1.747.464 3.544.696 5.341.696s3.594-.232 5.341-.696c.529-.141.848-.682.712-1.213z" opacity=".5"/><path d="m17.341 13.559c-3.494-.928-7.188-.928-10.682 0-.529.141-.848.682-.712 1.213 1.334 5.241 5.484 8.056 5.526 8.082.104.064.216.105.331.127.066.013.133.02.2.02.181 0 .362-.049.521-.147.042-.025 4.192-2.841 5.526-8.082.136-.531-.183-1.072-.712-1.213z" opacity=".5"/></svg>